<?xml version="1.0" encoding="UTF-8" standalone="no"?>
<!DOCTYPE svg PUBLIC "-//W3C//DTD SVG 1.1//EN"
 "http://www.w3.org/Graphics/SVG/1.1/DTD/svg11.dtd">
<!-- Generated by graphviz version 2.36.0 (20140111.2315)
 -->
<!-- Title: view.Editor.Editor Pages: 1 -->
<svg width="1174pt" height="318pt"
 viewBox="0.00 0.00 1174.00 318.00" xmlns="http://www.w3.org/2000/svg" xmlns:xlink="http://www.w3.org/1999/xlink">
<g id="graph0" class="graph" transform="scale(1 1) rotate(0) translate(4 314)">
<title>view.Editor.Editor</title>
<polygon fill="white" stroke="none" points="-4,4 -4,-314 1170,-314 1170,4 -4,4"/>
<!-- Node1 -->
<g id="node1" class="node"><title>Node1</title>
<polygon fill="#bfbfbf" stroke="black" points="0.5,-102.5 0.5,-121.5 97.5,-121.5 97.5,-102.5 0.5,-102.5"/>
<text text-anchor="middle" x="49" y="-109.5" font-family="Helvetica,sans-Serif" font-size="10.00">view.Editor.Editor</text>
</g>
<!-- Node2 -->
<g id="node2" class="node"><title>Node2</title>
<g id="a_node2"><a xlink:href="../../da/dc8/classview_1_1_editor.html#a149e24d4e5e4464f3fb1601f2717663b" target="_top" xlink:title="view.Editor.parse">
<polygon fill="white" stroke="black" points="134,-102.5 134,-121.5 230,-121.5 230,-102.5 134,-102.5"/>
<text text-anchor="middle" x="182" y="-109.5" font-family="Helvetica,sans-Serif" font-size="10.00">view.Editor.parse</text>
</a>
</g>
</g>
<!-- Node1&#45;&gt;Node2 -->
<g id="edge1" class="edge"><title>Node1&#45;&gt;Node2</title>
<path fill="none" stroke="midnightblue" d="M97.6646,-112C106.078,-112 114.916,-112 123.563,-112"/>
<polygon fill="midnightblue" stroke="midnightblue" points="123.59,-115.5 133.59,-112 123.59,-108.5 123.59,-115.5"/>
</g>
<!-- Node3 -->
<g id="node3" class="node"><title>Node3</title>
<g id="a_node3"><a xlink:href="../../d1/dc7/classview_1_1_side_bar.html#a7e070e482d2d160b3d5aa05f813d2607" target="_top" xlink:title="view.SideBar.setHistory">
<polygon fill="white" stroke="black" points="287,-124.5 287,-143.5 415,-143.5 415,-124.5 287,-124.5"/>
<text text-anchor="middle" x="351" y="-131.5" font-family="Helvetica,sans-Serif" font-size="10.00">view.SideBar.setHistory</text>
</a>
</g>
</g>
<!-- Node2&#45;&gt;Node3 -->
<g id="edge2" class="edge"><title>Node2&#45;&gt;Node3</title>
<path fill="none" stroke="midnightblue" d="M230.409,-118.245C244.806,-120.142 260.975,-122.272 276.659,-124.338"/>
<polygon fill="midnightblue" stroke="midnightblue" points="276.5,-127.848 286.872,-125.684 277.415,-120.908 276.5,-127.848"/>
</g>
<!-- Node4 -->
<g id="node4" class="node"><title>Node4</title>
<g id="a_node4"><a xlink:href="../../d4/dd9/classcontroller_1_1_s_logo_controller.html#a1a88b376059e31c3f311d75fa640d848" target="_top" xlink:title="controller.SLogoController.parse\lInput">
<polygon fill="white" stroke="black" points="266,-75 266,-105 436,-105 436,-75 266,-75"/>
<text text-anchor="start" x="274" y="-93" font-family="Helvetica,sans-Serif" font-size="10.00">controller.SLogoController.parse</text>
<text text-anchor="middle" x="351" y="-82" font-family="Helvetica,sans-Serif" font-size="10.00">Input</text>
</a>
</g>
</g>
<!-- Node2&#45;&gt;Node4 -->
<g id="edge3" class="edge"><title>Node2&#45;&gt;Node4</title>
<path fill="none" stroke="midnightblue" d="M230.409,-105.755C238.466,-104.693 247.078,-103.559 255.85,-102.403"/>
<polygon fill="midnightblue" stroke="midnightblue" points="256.343,-105.868 265.801,-101.092 255.429,-98.9283 256.343,-105.868"/>
</g>
<!-- Node5 -->
<g id="node5" class="node"><title>Node5</title>
<g id="a_node5"><a xlink:href="../../dc/df5/classmodel_1_1_parser.html#ab83c099e5a13c82b1a12d7eedda6fbf9" target="_top" xlink:title="model.Parser.parseAndExecute">
<polygon fill="white" stroke="black" points="472,-80.5 472,-99.5 638,-99.5 638,-80.5 472,-80.5"/>
<text text-anchor="middle" x="555" y="-87.5" font-family="Helvetica,sans-Serif" font-size="10.00">model.Parser.parseAndExecute</text>
</a>
</g>
</g>
<!-- Node4&#45;&gt;Node5 -->
<g id="edge4" class="edge"><title>Node4&#45;&gt;Node5</title>
<path fill="none" stroke="midnightblue" d="M436.203,-90C444.592,-90 453.14,-90 461.607,-90"/>
<polygon fill="midnightblue" stroke="midnightblue" points="461.878,-93.5001 471.878,-90 461.878,-86.5001 461.878,-93.5001"/>
</g>
<!-- Node6 -->
<g id="node6" class="node"><title>Node6</title>
<g id="a_node6"><a xlink:href="../../dc/df5/classmodel_1_1_parser.html#ae83c95a5190fc22b9b70b1a40b76661c" target="_top" xlink:title="model.Parser.makeTree">
<polygon fill="white" stroke="black" points="674,-120.5 674,-139.5 802,-139.5 802,-120.5 674,-120.5"/>
<text text-anchor="middle" x="738" y="-127.5" font-family="Helvetica,sans-Serif" font-size="10.00">model.Parser.makeTree</text>
</a>
</g>
</g>
<!-- Node5&#45;&gt;Node6 -->
<g id="edge5" class="edge"><title>Node5&#45;&gt;Node6</title>
<path fill="none" stroke="midnightblue" d="M599.354,-99.581C624.764,-105.196 657.054,-112.332 683.972,-118.281"/>
<polygon fill="midnightblue" stroke="midnightblue" points="683.48,-121.757 694,-120.497 684.991,-114.922 683.48,-121.757"/>
</g>
<!-- Node13 -->
<g id="node13" class="node"><title>Node13</title>
<g id="a_node13"><a xlink:href="../../d6/de7/classview_1_1_s_logo_view.html#acf8498d7311bed1575638cca1c3f8777" target="_top" xlink:title="view.SLogoView.openDialog">
<polygon fill="white" stroke="black" points="853.5,-0.5 853.5,-19.5 1000.5,-19.5 1000.5,-0.5 853.5,-0.5"/>
<text text-anchor="middle" x="927" y="-7.5" font-family="Helvetica,sans-Serif" font-size="10.00">view.SLogoView.openDialog</text>
</a>
</g>
</g>
<!-- Node5&#45;&gt;Node13 -->
<g id="edge15" class="edge"><title>Node5&#45;&gt;Node13</title>
<path fill="none" stroke="midnightblue" d="M599.96,-80.4854C655.437,-68.4795 753.788,-47.1991 838,-29 848.878,-26.6492 860.512,-24.1362 871.641,-21.7332"/>
<polygon fill="midnightblue" stroke="midnightblue" points="872.647,-25.0968 881.683,-19.565 871.169,-18.2544 872.647,-25.0968"/>
</g>
<!-- Node7 -->
<g id="node7" class="node"><title>Node7</title>
<g id="a_node7"><a xlink:href="../../d2/d19/classmodel_1_1_node.html#a59dd0ae47774a51a1590d7fd205b14d5" target="_top" xlink:title="model.Node.addChild">
<polygon fill="white" stroke="black" points="867.5,-290.5 867.5,-309.5 986.5,-309.5 986.5,-290.5 867.5,-290.5"/>
<text text-anchor="middle" x="927" y="-297.5" font-family="Helvetica,sans-Serif" font-size="10.00">model.Node.addChild</text>
</a>
</g>
</g>
<!-- Node6&#45;&gt;Node7 -->
<g id="edge6" class="edge"><title>Node6&#45;&gt;Node7</title>
<path fill="none" stroke="midnightblue" d="M742.324,-139.651C752.181,-166.741 783.985,-243.923 838,-281 843.936,-285.074 850.584,-288.298 857.497,-290.844"/>
<polygon fill="midnightblue" stroke="midnightblue" points="856.454,-294.185 867.046,-293.914 858.597,-287.521 856.454,-294.185"/>
</g>
<!-- Node8 -->
<g id="node8" class="node"><title>Node8</title>
<g id="a_node8"><a xlink:href="../../d2/d19/classmodel_1_1_node.html#a30a55e40eef5514f8201573584ca9aea" target="_top" xlink:title="model.Node.getChildren">
<polygon fill="white" stroke="black" points="860.5,-252.5 860.5,-271.5 993.5,-271.5 993.5,-252.5 860.5,-252.5"/>
<text text-anchor="middle" x="927" y="-259.5" font-family="Helvetica,sans-Serif" font-size="10.00">model.Node.getChildren</text>
</a>
</g>
</g>
<!-- Node6&#45;&gt;Node8 -->
<g id="edge7" class="edge"><title>Node6&#45;&gt;Node8</title>
<path fill="none" stroke="midnightblue" d="M744.532,-139.604C757.69,-161.524 793.131,-215.396 838,-242 842.435,-244.629 847.183,-246.913 852.092,-248.897"/>
<polygon fill="midnightblue" stroke="midnightblue" points="851.093,-252.258 861.688,-252.354 853.466,-245.672 851.093,-252.258"/>
</g>
<!-- Node9 -->
<g id="node9" class="node"><title>Node9</title>
<g id="a_node9"><a xlink:href="../../d1/dca/classmodel_1_1_execution_environment.html#a296a88c7bb936eb502efc9d212bfe6db" target="_top" xlink:title="model.ExecutionEnvironment.get\lCommand">
<polygon fill="white" stroke="black" points="839,-203 839,-233 1015,-233 1015,-203 839,-203"/>
<text text-anchor="start" x="847" y="-221" font-family="Helvetica,sans-Serif" font-size="10.00">model.ExecutionEnvironment.get</text>
<text text-anchor="middle" x="927" y="-210" font-family="Helvetica,sans-Serif" font-size="10.00">Command</text>
</a>
</g>
</g>
<!-- Node6&#45;&gt;Node9 -->
<g id="edge8" class="edge"><title>Node6&#45;&gt;Node9</title>
<path fill="none" stroke="midnightblue" d="M751.451,-139.618C769.584,-153.218 804.729,-178.072 838,-193 843.291,-195.374 848.864,-197.58 854.529,-199.616"/>
<polygon fill="midnightblue" stroke="midnightblue" points="853.524,-202.971 864.118,-202.884 855.782,-196.346 853.524,-202.971"/>
</g>
<!-- Node10 -->
<g id="node10" class="node"><title>Node10</title>
<g id="a_node10"><a xlink:href="../../d2/d19/classmodel_1_1_node.html#a3036121af674a3a8ff49e82bd77ab5a4" target="_top" xlink:title="model.Node.getInstruction">
<polygon fill="white" stroke="black" points="855,-164.5 855,-183.5 999,-183.5 999,-164.5 855,-164.5"/>
<text text-anchor="middle" x="927" y="-171.5" font-family="Helvetica,sans-Serif" font-size="10.00">model.Node.getInstruction</text>
</a>
</g>
</g>
<!-- Node6&#45;&gt;Node10 -->
<g id="edge9" class="edge"><title>Node6&#45;&gt;Node10</title>
<path fill="none" stroke="midnightblue" d="M777.996,-139.59C796.212,-144.035 818.2,-149.35 838,-154 849.443,-156.687 861.737,-159.517 873.4,-162.175"/>
<polygon fill="midnightblue" stroke="midnightblue" points="872.923,-165.656 883.45,-164.459 874.474,-158.83 872.923,-165.656"/>
</g>
<!-- Node11 -->
<g id="node11" class="node"><title>Node11</title>
<g id="a_node11"><a xlink:href="../../d1/dea/classmodel_1_1instructions_1_1_instruction.html#afd4726dcbdbf559356c38970061d9b79" target="_top" xlink:title="model.instructions.Instruction.get\lNumberOfArguments">
<polygon fill="white" stroke="black" points="838.5,-115 838.5,-145 1015.5,-145 1015.5,-115 838.5,-115"/>
<text text-anchor="start" x="846.5" y="-133" font-family="Helvetica,sans-Serif" font-size="10.00">model.instructions.Instruction.get</text>
<text text-anchor="middle" x="927" y="-122" font-family="Helvetica,sans-Serif" font-size="10.00">NumberOfArguments</text>
</a>
</g>
</g>
<!-- Node6&#45;&gt;Node11 -->
<g id="edge10" class="edge"><title>Node6&#45;&gt;Node11</title>
<path fill="none" stroke="midnightblue" d="M802.049,-130C810.523,-130 819.372,-130 828.272,-130"/>
<polygon fill="midnightblue" stroke="midnightblue" points="828.325,-133.5 838.325,-130 828.325,-126.5 828.325,-133.5"/>
</g>
<!-- Node12 -->
<g id="node12" class="node"><title>Node12</title>
<g id="a_node12"><a xlink:href="../../dc/df5/classmodel_1_1_parser.html#ae24603572f6f919b363a7cef0cbe45c0" target="_top" xlink:title="model.Parser.match">
<polygon fill="white" stroke="black" points="1052.5,-57.5 1052.5,-76.5 1165.5,-76.5 1165.5,-57.5 1052.5,-57.5"/>
<text text-anchor="middle" x="1109" y="-64.5" font-family="Helvetica,sans-Serif" font-size="10.00">model.Parser.match</text>
</a>
</g>
</g>
<!-- Node6&#45;&gt;Node12 -->
<g id="edge11" class="edge"><title>Node6&#45;&gt;Node12</title>
<path fill="none" stroke="midnightblue" d="M775.027,-120.4C793.722,-115.638 816.988,-110.055 838,-106 907.389,-92.6088 987.616,-81.5786 1042.47,-74.7065"/>
<polygon fill="midnightblue" stroke="midnightblue" points="1042.92,-78.178 1052.41,-73.4721 1042.06,-71.2313 1042.92,-78.178"/>
</g>
<!-- Node6&#45;&gt;Node13 -->
<g id="edge12" class="edge"><title>Node6&#45;&gt;Node13</title>
<path fill="none" stroke="midnightblue" d="M748.187,-120.484C772.207,-95.6235 835.218,-30.5341 838,-29 842.144,-26.7142 846.54,-24.7034 851.068,-22.9344"/>
<polygon fill="midnightblue" stroke="midnightblue" points="852.229,-26.2364 860.514,-19.6324 849.919,-19.6285 852.229,-26.2364"/>
</g>
<!-- Node14 -->
<g id="node14" class="node"><title>Node14</title>
<g id="a_node14"><a xlink:href="../../dc/df5/classmodel_1_1_parser.html#a367f66d63cda3e0b2733b078c20a1f73" target="_top" xlink:title="model.Parser.testMatches">
<polygon fill="white" stroke="black" points="856.5,-38.5 856.5,-57.5 997.5,-57.5 997.5,-38.5 856.5,-38.5"/>
<text text-anchor="middle" x="927" y="-45.5" font-family="Helvetica,sans-Serif" font-size="10.00">model.Parser.testMatches</text>
</a>
</g>
</g>
<!-- Node6&#45;&gt;Node14 -->
<g id="edge13" class="edge"><title>Node6&#45;&gt;Node14</title>
<path fill="none" stroke="midnightblue" d="M752.811,-120.314C771.403,-107.655 805.866,-85.5142 838,-72 848.726,-67.4892 860.544,-63.5907 871.944,-60.3245"/>
<polygon fill="midnightblue" stroke="midnightblue" points="873.098,-63.6374 881.816,-57.6176 871.247,-56.8866 873.098,-63.6374"/>
</g>
<!-- Node14&#45;&gt;Node12 -->
<g id="edge14" class="edge"><title>Node14&#45;&gt;Node12</title>
<path fill="none" stroke="midnightblue" d="M997.593,-55.3459C1012.16,-56.8836 1027.48,-58.5009 1041.92,-60.0247"/>
<polygon fill="midnightblue" stroke="midnightblue" points="1041.94,-63.5461 1052.25,-61.1153 1042.67,-56.5848 1041.94,-63.5461"/>
</g>
</g>
</svg>
