<?xml version="1.0" encoding="UTF-8" standalone="no"?>
<!DOCTYPE svg PUBLIC "-//W3C//DTD SVG 1.1//EN"
 "http://www.w3.org/Graphics/SVG/1.1/DTD/svg11.dtd">
<!-- Generated by graphviz version 2.36.0 (20140111.2315)
 -->
<!-- Title: view.Editor.createRunButton Pages: 1 -->
<svg width="1148pt" height="459pt"
 viewBox="0.00 0.00 1148.00 459.12" xmlns="http://www.w3.org/2000/svg" xmlns:xlink="http://www.w3.org/1999/xlink">
<g id="graph0" class="graph" transform="scale(1 1) rotate(0) translate(4 455.122)">
<title>view.Editor.createRunButton</title>
<polygon fill="white" stroke="none" points="-4,4 -4,-455.122 1144,-455.122 1144,4 -4,4"/>
<!-- Node1 -->
<g id="node1" class="node"><title>Node1</title>
<polygon fill="#bfbfbf" stroke="black" points="0.5,-166.32 0.5,-185.32 149.5,-185.32 149.5,-166.32 0.5,-166.32"/>
<text text-anchor="middle" x="75" y="-173.32" font-family="Helvetica,sans-Serif" font-size="10.00">view.Editor.createRunButton</text>
</g>
<!-- Node2 -->
<g id="node2" class="node"><title>Node2</title>
<g id="a_node2"><a xlink:href="../../da/dc8/classview_1_1_editor.html#a149e24d4e5e4464f3fb1601f2717663b" target="_top" xlink:title="view.Editor.parse">
<polygon fill="white" stroke="black" points="186,-166.32 186,-185.32 282,-185.32 282,-166.32 186,-166.32"/>
<text text-anchor="middle" x="234" y="-173.32" font-family="Helvetica,sans-Serif" font-size="10.00">view.Editor.parse</text>
</a>
</g>
</g>
<!-- Node1&#45;&gt;Node2 -->
<g id="edge1" class="edge"><title>Node1&#45;&gt;Node2</title>
<path fill="none" stroke="midnightblue" d="M149.903,-175.82C158.61,-175.82 167.394,-175.82 175.822,-175.82"/>
<polygon fill="midnightblue" stroke="midnightblue" points="175.898,-179.32 185.898,-175.82 175.898,-172.32 175.898,-179.32"/>
</g>
<!-- Node3 -->
<g id="node3" class="node"><title>Node3</title>
<g id="a_node3"><a xlink:href="../../d1/dc7/classview_1_1_side_bar.html#a7e070e482d2d160b3d5aa05f813d2607" target="_top" xlink:title="view.SideBar.setHistory">
<polygon fill="white" stroke="black" points="337,-185.32 337,-204.32 465,-204.32 465,-185.32 337,-185.32"/>
<text text-anchor="middle" x="401" y="-192.32" font-family="Helvetica,sans-Serif" font-size="10.00">view.SideBar.setHistory</text>
</a>
</g>
</g>
<!-- Node2&#45;&gt;Node3 -->
<g id="edge2" class="edge"><title>Node2&#45;&gt;Node3</title>
<path fill="none" stroke="midnightblue" d="M282.282,-181.265C296.055,-182.851 311.439,-184.622 326.426,-186.348"/>
<polygon fill="midnightblue" stroke="midnightblue" points="326.379,-189.866 336.714,-187.533 327.18,-182.912 326.379,-189.866"/>
</g>
<!-- Node4 -->
<g id="node4" class="node"><title>Node4</title>
<g id="a_node4"><a xlink:href="../../dc/df5/classmodel_1_1_parser.html#ab83c099e5a13c82b1a12d7eedda6fbf9" target="_top" xlink:title="model.Parser.parseAndExecute">
<polygon fill="white" stroke="black" points="318,-147.32 318,-166.32 484,-166.32 484,-147.32 318,-147.32"/>
<text text-anchor="middle" x="401" y="-154.32" font-family="Helvetica,sans-Serif" font-size="10.00">model.Parser.parseAndExecute</text>
</a>
</g>
</g>
<!-- Node2&#45;&gt;Node4 -->
<g id="edge3" class="edge"><title>Node2&#45;&gt;Node4</title>
<path fill="none" stroke="midnightblue" d="M282.282,-170.376C290.378,-169.444 299.03,-168.447 307.831,-167.434"/>
<polygon fill="midnightblue" stroke="midnightblue" points="308.275,-170.906 317.809,-166.285 307.474,-163.952 308.275,-170.906"/>
</g>
<!-- Node5 -->
<g id="node5" class="node"><title>Node5</title>
<g id="a_node5"><a xlink:href="../../d1/dca/classmodel_1_1_execution_environment.html#abf8338dc619905fbc175bb52b246843e" target="_top" xlink:title="model.ExecutionEnvironment.get\lActiveList">
<polygon fill="white" stroke="black" points="520,-229.82 520,-259.82 696,-259.82 696,-229.82 520,-229.82"/>
<text text-anchor="start" x="528" y="-247.82" font-family="Helvetica,sans-Serif" font-size="10.00">model.ExecutionEnvironment.get</text>
<text text-anchor="middle" x="608" y="-236.82" font-family="Helvetica,sans-Serif" font-size="10.00">ActiveList</text>
</a>
</g>
</g>
<!-- Node4&#45;&gt;Node5 -->
<g id="edge4" class="edge"><title>Node4&#45;&gt;Node5</title>
<path fill="none" stroke="midnightblue" d="M463.785,-166.433C470.886,-168.885 477.795,-171.962 484,-175.82 505.456,-189.164 498.899,-205.922 520,-219.82 523.138,-221.887 526.448,-223.786 529.871,-225.53"/>
<polygon fill="midnightblue" stroke="midnightblue" points="528.608,-228.801 539.156,-229.794 531.529,-222.44 528.608,-228.801"/>
</g>
<!-- Node6 -->
<g id="node6" class="node"><title>Node6</title>
<g id="a_node6"><a xlink:href="../../dc/df5/classmodel_1_1_parser.html#ae83c95a5190fc22b9b70b1a40b76661c" target="_top" xlink:title="model.Parser.makeTree">
<polygon fill="white" stroke="black" points="544,-191.32 544,-210.32 672,-210.32 672,-191.32 544,-191.32"/>
<text text-anchor="middle" x="608" y="-198.32" font-family="Helvetica,sans-Serif" font-size="10.00">model.Parser.makeTree</text>
</a>
</g>
</g>
<!-- Node4&#45;&gt;Node6 -->
<g id="edge5" class="edge"><title>Node4&#45;&gt;Node6</title>
<path fill="none" stroke="midnightblue" d="M446.482,-166.368C477.644,-173.056 519.473,-182.034 552.619,-189.148"/>
<polygon fill="midnightblue" stroke="midnightblue" points="552.093,-192.615 562.605,-191.292 553.562,-185.771 552.093,-192.615"/>
</g>
<!-- Node16 -->
<g id="node16" class="node"><title>Node16</title>
<g id="a_node16"><a xlink:href="../../d6/de7/classview_1_1_s_logo_view.html#acf8498d7311bed1575638cca1c3f8777" target="_top" xlink:title="view.SLogoView.openDialog">
<polygon fill="white" stroke="black" points="747.5,-32.3204 747.5,-51.3204 894.5,-51.3204 894.5,-32.3204 747.5,-32.3204"/>
<text text-anchor="middle" x="821" y="-39.3204" font-family="Helvetica,sans-Serif" font-size="10.00">view.SLogoView.openDialog</text>
</a>
</g>
</g>
<!-- Node4&#45;&gt;Node16 -->
<g id="edge18" class="edge"><title>Node4&#45;&gt;Node16</title>
<path fill="none" stroke="midnightblue" d="M432.286,-147.232C490.168,-129.082 620.652,-88.9997 732,-60.8204 741.99,-58.2922 752.671,-55.8061 763.024,-53.508"/>
<polygon fill="midnightblue" stroke="midnightblue" points="763.796,-56.9221 772.817,-51.367 762.3,-50.0836 763.796,-56.9221"/>
</g>
<!-- Node18 -->
<g id="node18" class="node"><title>Node18</title>
<g id="a_node18"><a xlink:href="../../d1/dca/classmodel_1_1_execution_environment.html#a472ef4da5205b0e95ec51fdbf52f654a" target="_top" xlink:title="model.ExecutionEnvironment.set\lActiveTurtle">
<polygon fill="white" stroke="black" points="520.5,-9.82036 520.5,-39.8204 695.5,-39.8204 695.5,-9.82036 520.5,-9.82036"/>
<text text-anchor="start" x="528.5" y="-27.8204" font-family="Helvetica,sans-Serif" font-size="10.00">model.ExecutionEnvironment.set</text>
<text text-anchor="middle" x="608" y="-16.8204" font-family="Helvetica,sans-Serif" font-size="10.00">ActiveTurtle</text>
</a>
</g>
</g>
<!-- Node4&#45;&gt;Node18 -->
<g id="edge19" class="edge"><title>Node4&#45;&gt;Node18</title>
<path fill="none" stroke="midnightblue" d="M417.074,-147.114C450.275,-125.736 530.317,-74.1969 575.172,-45.3143"/>
<polygon fill="midnightblue" stroke="midnightblue" points="577.137,-48.2121 583.65,-39.8555 573.347,-42.3266 577.137,-48.2121"/>
</g>
<!-- Node7 -->
<g id="node7" class="node"><title>Node7</title>
<g id="a_node7"><a xlink:href="../../d2/d19/classmodel_1_1_node.html#a59dd0ae47774a51a1590d7fd205b14d5" target="_top" xlink:title="model.Node.addChild">
<polygon fill="white" stroke="black" points="761.5,-345.32 761.5,-364.32 880.5,-364.32 880.5,-345.32 761.5,-345.32"/>
<text text-anchor="middle" x="821" y="-352.32" font-family="Helvetica,sans-Serif" font-size="10.00">model.Node.addChild</text>
</a>
</g>
</g>
<!-- Node6&#45;&gt;Node7 -->
<g id="edge6" class="edge"><title>Node6&#45;&gt;Node7</title>
<path fill="none" stroke="midnightblue" d="M672.331,-207.105C681.038,-210.212 689.281,-214.618 696,-220.82 735.042,-256.86 692.914,-298.829 732,-334.82 737.754,-340.118 744.61,-344.111 751.92,-347.105"/>
<polygon fill="midnightblue" stroke="midnightblue" points="750.778,-350.414 761.372,-350.387 753.074,-343.801 750.778,-350.414"/>
</g>
<!-- Node8 -->
<g id="node8" class="node"><title>Node8</title>
<g id="a_node8"><a xlink:href="../../d1/dca/classmodel_1_1_execution_environment.html#a83ef2b9eaef50b67c0b978f2abb8200c" target="_top" xlink:title="model.ExecutionEnvironment.add\lCommand">
<polygon fill="white" stroke="black" points="732,-295.82 732,-325.82 910,-325.82 910,-295.82 732,-295.82"/>
<text text-anchor="start" x="740" y="-313.82" font-family="Helvetica,sans-Serif" font-size="10.00">model.ExecutionEnvironment.add</text>
<text text-anchor="middle" x="821" y="-302.82" font-family="Helvetica,sans-Serif" font-size="10.00">Command</text>
</a>
</g>
</g>
<!-- Node6&#45;&gt;Node8 -->
<g id="edge7" class="edge"><title>Node6&#45;&gt;Node8</title>
<path fill="none" stroke="midnightblue" d="M672.189,-208.654C680.716,-211.567 688.943,-215.506 696,-220.82 722.38,-240.687 706.134,-265.29 732,-285.82 734.274,-287.625 736.672,-289.3 739.165,-290.854"/>
<polygon fill="midnightblue" stroke="midnightblue" points="737.513,-293.94 747.963,-295.685 740.882,-287.804 737.513,-293.94"/>
</g>
<!-- Node10 -->
<g id="node10" class="node"><title>Node10</title>
<g id="a_node10"><a xlink:href="../../d2/d19/classmodel_1_1_node.html#a30a55e40eef5514f8201573584ca9aea" target="_top" xlink:title="model.Node.getChildren">
<polygon fill="white" stroke="black" points="754.5,-257.32 754.5,-276.32 887.5,-276.32 887.5,-257.32 754.5,-257.32"/>
<text text-anchor="middle" x="821" y="-264.32" font-family="Helvetica,sans-Serif" font-size="10.00">model.Node.getChildren</text>
</a>
</g>
</g>
<!-- Node6&#45;&gt;Node10 -->
<g id="edge9" class="edge"><title>Node6&#45;&gt;Node10</title>
<path fill="none" stroke="midnightblue" d="M665.778,-210.416C676.077,-213.119 686.543,-216.532 696,-220.82 713.975,-228.971 714.015,-238.692 732,-246.82 738.576,-249.793 745.635,-252.343 752.79,-254.526"/>
<polygon fill="midnightblue" stroke="midnightblue" points="751.995,-257.939 762.569,-257.282 753.894,-251.201 751.995,-257.939"/>
</g>
<!-- Node11 -->
<g id="node11" class="node"><title>Node11</title>
<g id="a_node11"><a xlink:href="../../d1/dca/classmodel_1_1_execution_environment.html#a296a88c7bb936eb502efc9d212bfe6db" target="_top" xlink:title="model.ExecutionEnvironment.get\lCommand">
<polygon fill="white" stroke="black" points="733,-207.82 733,-237.82 909,-237.82 909,-207.82 733,-207.82"/>
<text text-anchor="start" x="741" y="-225.82" font-family="Helvetica,sans-Serif" font-size="10.00">model.ExecutionEnvironment.get</text>
<text text-anchor="middle" x="821" y="-214.82" font-family="Helvetica,sans-Serif" font-size="10.00">Command</text>
</a>
</g>
</g>
<!-- Node6&#45;&gt;Node11 -->
<g id="edge10" class="edge"><title>Node6&#45;&gt;Node11</title>
<path fill="none" stroke="midnightblue" d="M672.021,-207.391C687.959,-209.053 705.448,-210.877 722.648,-212.67"/>
<polygon fill="midnightblue" stroke="midnightblue" points="722.418,-216.165 732.727,-213.721 723.144,-209.203 722.418,-216.165"/>
</g>
<!-- Node12 -->
<g id="node12" class="node"><title>Node12</title>
<g id="a_node12"><a xlink:href="../../d2/d19/classmodel_1_1_node.html#a3036121af674a3a8ff49e82bd77ab5a4" target="_top" xlink:title="model.Node.getInstruction">
<polygon fill="white" stroke="black" points="749,-169.32 749,-188.32 893,-188.32 893,-169.32 749,-169.32"/>
<text text-anchor="middle" x="821" y="-176.32" font-family="Helvetica,sans-Serif" font-size="10.00">model.Node.getInstruction</text>
</a>
</g>
</g>
<!-- Node6&#45;&gt;Node12 -->
<g id="edge11" class="edge"><title>Node6&#45;&gt;Node12</title>
<path fill="none" stroke="midnightblue" d="M672.021,-194.249C692.977,-192.064 716.618,-189.6 738.752,-187.292"/>
<polygon fill="midnightblue" stroke="midnightblue" points="739.218,-190.762 748.801,-186.244 738.492,-183.8 739.218,-190.762"/>
</g>
<!-- Node13 -->
<g id="node13" class="node"><title>Node13</title>
<g id="a_node13"><a xlink:href="../../d1/dea/classmodel_1_1instructions_1_1_instruction.html#afd4726dcbdbf559356c38970061d9b79" target="_top" xlink:title="model.instructions.Instruction.get\lNumberOfArguments">
<polygon fill="white" stroke="black" points="732.5,-119.82 732.5,-149.82 909.5,-149.82 909.5,-119.82 732.5,-119.82"/>
<text text-anchor="start" x="740.5" y="-137.82" font-family="Helvetica,sans-Serif" font-size="10.00">model.instructions.Instruction.get</text>
<text text-anchor="middle" x="821" y="-126.82" font-family="Helvetica,sans-Serif" font-size="10.00">NumberOfArguments</text>
</a>
</g>
</g>
<!-- Node6&#45;&gt;Node13 -->
<g id="edge12" class="edge"><title>Node6&#45;&gt;Node13</title>
<path fill="none" stroke="midnightblue" d="M636.73,-191.181C661.584,-182.636 699.092,-169.974 732,-159.82 739.661,-157.457 747.721,-155.053 755.727,-152.718"/>
<polygon fill="midnightblue" stroke="midnightblue" points="756.8,-156.051 765.434,-149.909 754.855,-149.326 756.8,-156.051"/>
</g>
<!-- Node14 -->
<g id="node14" class="node"><title>Node14</title>
<g id="a_node14"><a xlink:href="../../d1/dca/classmodel_1_1_execution_environment.html#a7eac9bbab890abbeb7db1a095fca5fc8" target="_top" xlink:title="model.ExecutionEnvironment.get\lUserCommandMap">
<polygon fill="white" stroke="black" points="733,-70.8204 733,-100.82 909,-100.82 909,-70.8204 733,-70.8204"/>
<text text-anchor="start" x="741" y="-88.8204" font-family="Helvetica,sans-Serif" font-size="10.00">model.ExecutionEnvironment.get</text>
<text text-anchor="middle" x="821" y="-77.8204" font-family="Helvetica,sans-Serif" font-size="10.00">UserCommandMap</text>
</a>
</g>
</g>
<!-- Node6&#45;&gt;Node14 -->
<g id="edge13" class="edge"><title>Node6&#45;&gt;Node14</title>
<path fill="none" stroke="midnightblue" d="M619.344,-191.223C639.504,-173.003 686.111,-133.228 732,-110.82 736.817,-108.468 741.893,-106.302 747.076,-104.313"/>
<polygon fill="midnightblue" stroke="midnightblue" points="748.267,-107.605 756.49,-100.923 745.895,-101.019 748.267,-107.605"/>
</g>
<!-- Node15 -->
<g id="node15" class="node"><title>Node15</title>
<g id="a_node15"><a xlink:href="../../dc/df5/classmodel_1_1_parser.html#ae24603572f6f919b363a7cef0cbe45c0" target="_top" xlink:title="model.Parser.match">
<polygon fill="white" stroke="black" points="986.5,-402.32 986.5,-421.32 1099.5,-421.32 1099.5,-402.32 986.5,-402.32"/>
<text text-anchor="middle" x="1043" y="-409.32" font-family="Helvetica,sans-Serif" font-size="10.00">model.Parser.match</text>
</a>
</g>
</g>
<!-- Node6&#45;&gt;Node15 -->
<g id="edge14" class="edge"><title>Node6&#45;&gt;Node15</title>
<path fill="none" stroke="midnightblue" d="M672.132,-206.09C681.08,-209.301 689.449,-214.004 696,-220.82 755.859,-283.102 665.501,-356.684 732,-411.82 810.884,-477.226 943.91,-445.34 1006.9,-424.705"/>
<polygon fill="midnightblue" stroke="midnightblue" points="1008.4,-427.895 1016.75,-421.381 1006.16,-421.262 1008.4,-427.895"/>
</g>
<!-- Node6&#45;&gt;Node16 -->
<g id="edge15" class="edge"><title>Node6&#45;&gt;Node16</title>
<path fill="none" stroke="midnightblue" d="M623.754,-191.318C642.385,-178.759 674.589,-155.126 696,-128.82 717.587,-102.299 704.741,-81.4684 732,-60.8204 734.474,-58.9461 737.094,-57.2484 739.822,-55.711"/>
<polygon fill="midnightblue" stroke="midnightblue" points="741.389,-58.8413 748.858,-51.3268 738.333,-52.5435 741.389,-58.8413"/>
</g>
<!-- Node17 -->
<g id="node17" class="node"><title>Node17</title>
<g id="a_node17"><a xlink:href="../../dc/df5/classmodel_1_1_parser.html#a367f66d63cda3e0b2733b078c20a1f73" target="_top" xlink:title="model.Parser.testMatches">
<polygon fill="white" stroke="black" points="750.5,-383.32 750.5,-402.32 891.5,-402.32 891.5,-383.32 750.5,-383.32"/>
<text text-anchor="middle" x="821" y="-390.32" font-family="Helvetica,sans-Serif" font-size="10.00">model.Parser.testMatches</text>
</a>
</g>
</g>
<!-- Node6&#45;&gt;Node17 -->
<g id="edge16" class="edge"><title>Node6&#45;&gt;Node17</title>
<path fill="none" stroke="midnightblue" d="M672.31,-206.506C681.127,-209.679 689.408,-214.262 696,-220.82 745.523,-270.09 682.15,-324.882 732,-373.82 734.785,-376.554 737.864,-378.936 741.152,-381.007"/>
<polygon fill="midnightblue" stroke="midnightblue" points="739.809,-384.255 750.291,-385.797 743.059,-378.055 739.809,-384.255"/>
</g>
<!-- Node9 -->
<g id="node9" class="node"><title>Node9</title>
<g id="a_node9"><a xlink:href="../../d1/dca/classmodel_1_1_execution_environment.html#a93fd01341f06dfa81727344b120aef66" target="_top" xlink:title="model.ExecutionEnvironment.update\lObserver">
<polygon fill="white" stroke="black" points="946,-142.82 946,-172.82 1140,-172.82 1140,-142.82 946,-142.82"/>
<text text-anchor="start" x="954" y="-160.82" font-family="Helvetica,sans-Serif" font-size="10.00">model.ExecutionEnvironment.update</text>
<text text-anchor="middle" x="1043" y="-149.82" font-family="Helvetica,sans-Serif" font-size="10.00">Observer</text>
</a>
</g>
</g>
<!-- Node8&#45;&gt;Node9 -->
<g id="edge8" class="edge"><title>Node8&#45;&gt;Node9</title>
<path fill="none" stroke="midnightblue" d="M888.802,-295.674C896.177,-292.891 903.397,-289.631 910,-285.82 957.812,-258.228 1001.26,-209.506 1024.43,-180.791"/>
<polygon fill="midnightblue" stroke="midnightblue" points="1027.2,-182.921 1030.68,-172.912 1021.72,-178.57 1027.2,-182.921"/>
</g>
<!-- Node17&#45;&gt;Node15 -->
<g id="edge17" class="edge"><title>Node17&#45;&gt;Node15</title>
<path fill="none" stroke="midnightblue" d="M891.609,-398.832C918.734,-401.175 949.664,-403.846 976.392,-406.154"/>
<polygon fill="midnightblue" stroke="midnightblue" points="976.15,-409.646 986.414,-407.02 976.752,-402.672 976.15,-409.646"/>
</g>
<!-- Node18&#45;&gt;Node9 -->
<g id="edge20" class="edge"><title>Node18&#45;&gt;Node9</title>
<path fill="none" stroke="midnightblue" d="M675.903,-9.7728C738.912,1.09057 834.619,8.90096 910,-22.8204 963.623,-45.3854 1006.34,-101.549 1027.5,-133.879"/>
<polygon fill="midnightblue" stroke="midnightblue" points="1024.8,-136.151 1033.12,-142.701 1030.7,-132.388 1024.8,-136.151"/>
</g>
</g>
</svg>
