<?xml version="1.0" encoding="UTF-8" standalone="no"?>
<!DOCTYPE svg PUBLIC "-//W3C//DTD SVG 1.1//EN"
 "http://www.w3.org/Graphics/SVG/1.1/DTD/svg11.dtd">
<!-- Generated by graphviz version 2.36.0 (20140111.2315)
 -->
<!-- Title: view.Editor.Editor Pages: 1 -->
<svg width="1234pt" height="417pt"
 viewBox="0.00 0.00 1234.00 417.00" xmlns="http://www.w3.org/2000/svg" xmlns:xlink="http://www.w3.org/1999/xlink">
<g id="graph0" class="graph" transform="scale(1 1) rotate(0) translate(4 413)">
<title>view.Editor.Editor</title>
<polygon fill="white" stroke="none" points="-4,4 -4,-413 1230,-413 1230,4 -4,4"/>
<!-- Node1 -->
<g id="node1" class="node"><title>Node1</title>
<polygon fill="#bfbfbf" stroke="black" points="0.5,-117.5 0.5,-136.5 97.5,-136.5 97.5,-117.5 0.5,-117.5"/>
<text text-anchor="middle" x="49" y="-124.5" font-family="Helvetica,sans-Serif" font-size="10.00">view.Editor.Editor</text>
</g>
<!-- Node2 -->
<g id="node2" class="node"><title>Node2</title>
<g id="a_node2"><a xlink:href="../../da/dc8/classview_1_1_editor.html#abd790752cfd8c9f01fb5b27a3680a982" target="_top" xlink:title="view.Editor.createRunButton">
<polygon fill="white" stroke="black" points="134.5,-136.5 134.5,-155.5 283.5,-155.5 283.5,-136.5 134.5,-136.5"/>
<text text-anchor="middle" x="209" y="-143.5" font-family="Helvetica,sans-Serif" font-size="10.00">view.Editor.createRunButton</text>
</a>
</g>
</g>
<!-- Node1&#45;&gt;Node2 -->
<g id="edge1" class="edge"><title>Node1&#45;&gt;Node2</title>
<path fill="none" stroke="midnightblue" d="M97.834,-132.752C106.215,-133.76 115.153,-134.835 124.176,-135.92"/>
<polygon fill="midnightblue" stroke="midnightblue" points="124.027,-139.427 134.373,-137.146 124.862,-132.477 124.027,-139.427"/>
</g>
<!-- Node18 -->
<g id="node18" class="node"><title>Node18</title>
<g id="a_node18"><a xlink:href="../../da/dc8/classview_1_1_editor.html#a3ec2538490bac0e894c3a34a7a74b1ae" target="_top" xlink:title="view.Editor.createTextEditor">
<polygon fill="white" stroke="black" points="136,-98.5 136,-117.5 282,-117.5 282,-98.5 136,-98.5"/>
<text text-anchor="middle" x="209" y="-105.5" font-family="Helvetica,sans-Serif" font-size="10.00">view.Editor.createTextEditor</text>
</a>
</g>
</g>
<!-- Node1&#45;&gt;Node18 -->
<g id="edge19" class="edge"><title>Node1&#45;&gt;Node18</title>
<path fill="none" stroke="midnightblue" d="M97.834,-121.248C106.732,-120.178 116.259,-119.032 125.847,-117.879"/>
<polygon fill="midnightblue" stroke="midnightblue" points="126.328,-121.347 135.838,-116.678 125.492,-114.397 126.328,-121.347"/>
</g>
<!-- Node3 -->
<g id="node3" class="node"><title>Node3</title>
<g id="a_node3"><a xlink:href="../../da/dc8/classview_1_1_editor.html#a149e24d4e5e4464f3fb1601f2717663b" target="_top" xlink:title="view.Editor.parse">
<polygon fill="white" stroke="black" points="320,-136.5 320,-155.5 416,-155.5 416,-136.5 320,-136.5"/>
<text text-anchor="middle" x="368" y="-143.5" font-family="Helvetica,sans-Serif" font-size="10.00">view.Editor.parse</text>
</a>
</g>
</g>
<!-- Node2&#45;&gt;Node3 -->
<g id="edge2" class="edge"><title>Node2&#45;&gt;Node3</title>
<path fill="none" stroke="midnightblue" d="M283.903,-146C292.61,-146 301.394,-146 309.822,-146"/>
<polygon fill="midnightblue" stroke="midnightblue" points="309.898,-149.5 319.898,-146 309.898,-142.5 309.898,-149.5"/>
</g>
<!-- Node4 -->
<g id="node4" class="node"><title>Node4</title>
<g id="a_node4"><a xlink:href="../../d1/dc7/classview_1_1_side_bar.html#a7e070e482d2d160b3d5aa05f813d2607" target="_top" xlink:title="view.SideBar.setHistory">
<polygon fill="white" stroke="black" points="471,-155.5 471,-174.5 599,-174.5 599,-155.5 471,-155.5"/>
<text text-anchor="middle" x="535" y="-162.5" font-family="Helvetica,sans-Serif" font-size="10.00">view.SideBar.setHistory</text>
</a>
</g>
</g>
<!-- Node3&#45;&gt;Node4 -->
<g id="edge3" class="edge"><title>Node3&#45;&gt;Node4</title>
<path fill="none" stroke="midnightblue" d="M416.282,-151.445C430.055,-153.031 445.439,-154.802 460.426,-156.528"/>
<polygon fill="midnightblue" stroke="midnightblue" points="460.379,-160.045 470.714,-157.712 461.18,-153.091 460.379,-160.045"/>
</g>
<!-- Node5 -->
<g id="node5" class="node"><title>Node5</title>
<g id="a_node5"><a xlink:href="../../dc/df5/classmodel_1_1_parser.html#ab83c099e5a13c82b1a12d7eedda6fbf9" target="_top" xlink:title="model.Parser.parseAndExecute">
<polygon fill="white" stroke="black" points="452,-117.5 452,-136.5 618,-136.5 618,-117.5 452,-117.5"/>
<text text-anchor="middle" x="535" y="-124.5" font-family="Helvetica,sans-Serif" font-size="10.00">model.Parser.parseAndExecute</text>
</a>
</g>
</g>
<!-- Node3&#45;&gt;Node5 -->
<g id="edge4" class="edge"><title>Node3&#45;&gt;Node5</title>
<path fill="none" stroke="midnightblue" d="M416.282,-140.555C424.378,-139.623 433.03,-138.627 441.831,-137.613"/>
<polygon fill="midnightblue" stroke="midnightblue" points="442.275,-141.086 451.809,-136.464 441.474,-134.131 442.275,-141.086"/>
</g>
<!-- Node6 -->
<g id="node6" class="node"><title>Node6</title>
<g id="a_node6"><a xlink:href="../../dc/df5/classmodel_1_1_parser.html#ae83c95a5190fc22b9b70b1a40b76661c" target="_top" xlink:title="model.Parser.makeTree">
<polygon fill="white" stroke="black" points="654,-169.5 654,-188.5 782,-188.5 782,-169.5 654,-169.5"/>
<text text-anchor="middle" x="718" y="-176.5" font-family="Helvetica,sans-Serif" font-size="10.00">model.Parser.makeTree</text>
</a>
</g>
</g>
<!-- Node5&#45;&gt;Node6 -->
<g id="edge5" class="edge"><title>Node5&#45;&gt;Node6</title>
<path fill="none" stroke="midnightblue" d="M580.88,-136.597C592.988,-139.404 606.045,-142.63 618,-146 639.137,-151.957 662.453,-159.672 681.146,-166.144"/>
<polygon fill="midnightblue" stroke="midnightblue" points="680.142,-169.5 690.737,-169.495 682.451,-162.892 680.142,-169.5"/>
</g>
<!-- Node16 -->
<g id="node16" class="node"><title>Node16</title>
<g id="a_node16"><a xlink:href="../../d6/de7/classview_1_1_s_logo_view.html#acf8498d7311bed1575638cca1c3f8777" target="_top" xlink:title="view.SLogoView.openDialog">
<polygon fill="white" stroke="black" points="833.5,-0.5 833.5,-19.5 980.5,-19.5 980.5,-0.5 833.5,-0.5"/>
<text text-anchor="middle" x="907" y="-7.5" font-family="Helvetica,sans-Serif" font-size="10.00">view.SLogoView.openDialog</text>
</a>
</g>
</g>
<!-- Node5&#45;&gt;Node16 -->
<g id="edge18" class="edge"><title>Node5&#45;&gt;Node16</title>
<path fill="none" stroke="midnightblue" d="M560.2,-117.465C608.582,-98.6551 720.938,-56.2343 818,-29 827.27,-26.3989 837.175,-23.9494 846.871,-21.7293"/>
<polygon fill="midnightblue" stroke="midnightblue" points="847.866,-25.0935 856.865,-19.5019 846.343,-18.2611 847.866,-25.0935"/>
</g>
<!-- Node7 -->
<g id="node7" class="node"><title>Node7</title>
<g id="a_node7"><a xlink:href="../../d2/d19/classmodel_1_1_node.html#a59dd0ae47774a51a1590d7fd205b14d5" target="_top" xlink:title="model.Node.addChild">
<polygon fill="white" stroke="black" points="847.5,-389.5 847.5,-408.5 966.5,-408.5 966.5,-389.5 847.5,-389.5"/>
<text text-anchor="middle" x="907" y="-396.5" font-family="Helvetica,sans-Serif" font-size="10.00">model.Node.addChild</text>
</a>
</g>
</g>
<!-- Node6&#45;&gt;Node7 -->
<g id="edge6" class="edge"><title>Node6&#45;&gt;Node7</title>
<path fill="none" stroke="midnightblue" d="M720.77,-188.78C727.214,-221.42 752.571,-327.448 818,-379 823.838,-383.6 830.534,-387.181 837.57,-389.965"/>
<polygon fill="midnightblue" stroke="midnightblue" points="836.731,-393.376 847.325,-393.285 838.987,-386.75 836.731,-393.376"/>
</g>
<!-- Node8 -->
<g id="node8" class="node"><title>Node8</title>
<g id="a_node8"><a xlink:href="../../d1/dca/classmodel_1_1_execution_environment.html#a83ef2b9eaef50b67c0b978f2abb8200c" target="_top" xlink:title="model.ExecutionEnvironment.add\lCommand">
<polygon fill="white" stroke="black" points="818,-340 818,-370 996,-370 996,-340 818,-340"/>
<text text-anchor="start" x="826" y="-358" font-family="Helvetica,sans-Serif" font-size="10.00">model.ExecutionEnvironment.add</text>
<text text-anchor="middle" x="907" y="-347" font-family="Helvetica,sans-Serif" font-size="10.00">Command</text>
</a>
</g>
</g>
<!-- Node6&#45;&gt;Node8 -->
<g id="edge7" class="edge"><title>Node6&#45;&gt;Node8</title>
<path fill="none" stroke="midnightblue" d="M722.594,-188.863C732.94,-215.84 765.455,-291.395 818,-330 820.542,-331.867 823.219,-333.596 825.995,-335.195"/>
<polygon fill="midnightblue" stroke="midnightblue" points="824.656,-338.441 835.153,-339.877 827.842,-332.208 824.656,-338.441"/>
</g>
<!-- Node10 -->
<g id="node10" class="node"><title>Node10</title>
<g id="a_node10"><a xlink:href="../../d2/d19/classmodel_1_1_node.html#a30a55e40eef5514f8201573584ca9aea" target="_top" xlink:title="model.Node.getChildren">
<polygon fill="white" stroke="black" points="840.5,-301.5 840.5,-320.5 973.5,-320.5 973.5,-301.5 840.5,-301.5"/>
<text text-anchor="middle" x="907" y="-308.5" font-family="Helvetica,sans-Serif" font-size="10.00">model.Node.getChildren</text>
</a>
</g>
</g>
<!-- Node6&#45;&gt;Node10 -->
<g id="edge9" class="edge"><title>Node6&#45;&gt;Node10</title>
<path fill="none" stroke="midnightblue" d="M724.532,-188.604C737.69,-210.524 773.131,-264.396 818,-291 822.435,-293.629 827.183,-295.913 832.092,-297.897"/>
<polygon fill="midnightblue" stroke="midnightblue" points="831.093,-301.258 841.688,-301.354 833.466,-294.672 831.093,-301.258"/>
</g>
<!-- Node11 -->
<g id="node11" class="node"><title>Node11</title>
<g id="a_node11"><a xlink:href="../../d1/dca/classmodel_1_1_execution_environment.html#a296a88c7bb936eb502efc9d212bfe6db" target="_top" xlink:title="model.ExecutionEnvironment.get\lCommand">
<polygon fill="white" stroke="black" points="819,-252 819,-282 995,-282 995,-252 819,-252"/>
<text text-anchor="start" x="827" y="-270" font-family="Helvetica,sans-Serif" font-size="10.00">model.ExecutionEnvironment.get</text>
<text text-anchor="middle" x="907" y="-259" font-family="Helvetica,sans-Serif" font-size="10.00">Command</text>
</a>
</g>
</g>
<!-- Node6&#45;&gt;Node11 -->
<g id="edge10" class="edge"><title>Node6&#45;&gt;Node11</title>
<path fill="none" stroke="midnightblue" d="M731.451,-188.618C749.584,-202.218 784.729,-227.072 818,-242 823.291,-244.374 828.864,-246.58 834.529,-248.616"/>
<polygon fill="midnightblue" stroke="midnightblue" points="833.524,-251.971 844.118,-251.884 835.782,-245.346 833.524,-251.971"/>
</g>
<!-- Node12 -->
<g id="node12" class="node"><title>Node12</title>
<g id="a_node12"><a xlink:href="../../d2/d19/classmodel_1_1_node.html#a3036121af674a3a8ff49e82bd77ab5a4" target="_top" xlink:title="model.Node.getInstruction">
<polygon fill="white" stroke="black" points="835,-213.5 835,-232.5 979,-232.5 979,-213.5 835,-213.5"/>
<text text-anchor="middle" x="907" y="-220.5" font-family="Helvetica,sans-Serif" font-size="10.00">model.Node.getInstruction</text>
</a>
</g>
</g>
<!-- Node6&#45;&gt;Node12 -->
<g id="edge11" class="edge"><title>Node6&#45;&gt;Node12</title>
<path fill="none" stroke="midnightblue" d="M757.996,-188.59C776.212,-193.035 798.2,-198.35 818,-203 829.443,-205.687 841.737,-208.517 853.4,-211.175"/>
<polygon fill="midnightblue" stroke="midnightblue" points="852.923,-214.656 863.45,-213.459 854.474,-207.83 852.923,-214.656"/>
</g>
<!-- Node13 -->
<g id="node13" class="node"><title>Node13</title>
<g id="a_node13"><a xlink:href="../../d1/dea/classmodel_1_1instructions_1_1_instruction.html#afd4726dcbdbf559356c38970061d9b79" target="_top" xlink:title="model.instructions.Instruction.get\lNumberOfArguments">
<polygon fill="white" stroke="black" points="818.5,-164 818.5,-194 995.5,-194 995.5,-164 818.5,-164"/>
<text text-anchor="start" x="826.5" y="-182" font-family="Helvetica,sans-Serif" font-size="10.00">model.instructions.Instruction.get</text>
<text text-anchor="middle" x="907" y="-171" font-family="Helvetica,sans-Serif" font-size="10.00">NumberOfArguments</text>
</a>
</g>
</g>
<!-- Node6&#45;&gt;Node13 -->
<g id="edge12" class="edge"><title>Node6&#45;&gt;Node13</title>
<path fill="none" stroke="midnightblue" d="M782.049,-179C790.523,-179 799.372,-179 808.272,-179"/>
<polygon fill="midnightblue" stroke="midnightblue" points="808.325,-182.5 818.325,-179 808.325,-175.5 808.325,-182.5"/>
</g>
<!-- Node14 -->
<g id="node14" class="node"><title>Node14</title>
<g id="a_node14"><a xlink:href="../../d1/dca/classmodel_1_1_execution_environment.html#a7eac9bbab890abbeb7db1a095fca5fc8" target="_top" xlink:title="model.ExecutionEnvironment.get\lUserCommandMap">
<polygon fill="white" stroke="black" points="819,-115 819,-145 995,-145 995,-115 819,-115"/>
<text text-anchor="start" x="827" y="-133" font-family="Helvetica,sans-Serif" font-size="10.00">model.ExecutionEnvironment.get</text>
<text text-anchor="middle" x="907" y="-122" font-family="Helvetica,sans-Serif" font-size="10.00">UserCommandMap</text>
</a>
</g>
</g>
<!-- Node6&#45;&gt;Node14 -->
<g id="edge13" class="edge"><title>Node6&#45;&gt;Node14</title>
<path fill="none" stroke="midnightblue" d="M755.499,-169.436C779.174,-163.232 810.733,-154.963 838.836,-147.599"/>
<polygon fill="midnightblue" stroke="midnightblue" points="839.828,-150.957 848.614,-145.037 838.053,-144.186 839.828,-150.957"/>
</g>
<!-- Node15 -->
<g id="node15" class="node"><title>Node15</title>
<g id="a_node15"><a xlink:href="../../dc/df5/classmodel_1_1_parser.html#ae24603572f6f919b363a7cef0cbe45c0" target="_top" xlink:title="model.Parser.match">
<polygon fill="white" stroke="black" points="1072.5,-57.5 1072.5,-76.5 1185.5,-76.5 1185.5,-57.5 1072.5,-57.5"/>
<text text-anchor="middle" x="1129" y="-64.5" font-family="Helvetica,sans-Serif" font-size="10.00">model.Parser.match</text>
</a>
</g>
</g>
<!-- Node6&#45;&gt;Node15 -->
<g id="edge14" class="edge"><title>Node6&#45;&gt;Node15</title>
<path fill="none" stroke="midnightblue" d="M728.354,-169.438C744.804,-153.286 780.721,-120.901 818,-106 897.964,-74.0372 997.969,-66.7189 1062.41,-65.771"/>
<polygon fill="midnightblue" stroke="midnightblue" points="1062.47,-69.2707 1072.43,-65.6708 1062.4,-62.271 1062.47,-69.2707"/>
</g>
<!-- Node6&#45;&gt;Node16 -->
<g id="edge15" class="edge"><title>Node6&#45;&gt;Node16</title>
<path fill="none" stroke="midnightblue" d="M726.263,-169.306C738.278,-153.147 762.864,-119.557 782,-90 799.109,-63.5746 792.473,-47.4227 818,-29 820.662,-27.0792 823.479,-25.3456 826.408,-23.7816"/>
<polygon fill="midnightblue" stroke="midnightblue" points="827.882,-26.9559 835.488,-19.58 824.942,-20.603 827.882,-26.9559"/>
</g>
<!-- Node17 -->
<g id="node17" class="node"><title>Node17</title>
<g id="a_node17"><a xlink:href="../../dc/df5/classmodel_1_1_parser.html#a367f66d63cda3e0b2733b078c20a1f73" target="_top" xlink:title="model.Parser.testMatches">
<polygon fill="white" stroke="black" points="836.5,-38.5 836.5,-57.5 977.5,-57.5 977.5,-38.5 836.5,-38.5"/>
<text text-anchor="middle" x="907" y="-45.5" font-family="Helvetica,sans-Serif" font-size="10.00">model.Parser.testMatches</text>
</a>
</g>
</g>
<!-- Node6&#45;&gt;Node17 -->
<g id="edge16" class="edge"><title>Node6&#45;&gt;Node17</title>
<path fill="none" stroke="midnightblue" d="M725.134,-169.333C739.003,-148.287 774.939,-98.119 818,-72 825.575,-67.4054 834.042,-63.6727 842.649,-60.6448"/>
<polygon fill="midnightblue" stroke="midnightblue" points="843.936,-63.9077 852.386,-57.5171 841.795,-57.243 843.936,-63.9077"/>
</g>
<!-- Node9 -->
<g id="node9" class="node"><title>Node9</title>
<g id="a_node9"><a xlink:href="../../d1/dca/classmodel_1_1_execution_environment.html#a93fd01341f06dfa81727344b120aef66" target="_top" xlink:title="model.ExecutionEnvironment.update\lObserver">
<polygon fill="white" stroke="black" points="1032,-340 1032,-370 1226,-370 1226,-340 1032,-340"/>
<text text-anchor="start" x="1040" y="-358" font-family="Helvetica,sans-Serif" font-size="10.00">model.ExecutionEnvironment.update</text>
<text text-anchor="middle" x="1129" y="-347" font-family="Helvetica,sans-Serif" font-size="10.00">Observer</text>
</a>
</g>
</g>
<!-- Node8&#45;&gt;Node9 -->
<g id="edge8" class="edge"><title>Node8&#45;&gt;Node9</title>
<path fill="none" stroke="midnightblue" d="M996.215,-355C1004.64,-355 1013.23,-355 1021.8,-355"/>
<polygon fill="midnightblue" stroke="midnightblue" points="1021.83,-358.5 1031.83,-355 1021.83,-351.5 1021.83,-358.5"/>
</g>
<!-- Node17&#45;&gt;Node15 -->
<g id="edge17" class="edge"><title>Node17&#45;&gt;Node15</title>
<path fill="none" stroke="midnightblue" d="M977.609,-54.0117C1004.73,-56.3543 1035.66,-59.0255 1062.39,-61.3339"/>
<polygon fill="midnightblue" stroke="midnightblue" points="1062.15,-64.8259 1072.41,-62.1994 1062.75,-57.8518 1062.15,-64.8259"/>
</g>
</g>
</svg>
