<?xml version="1.0" encoding="UTF-8" standalone="no"?>
<!DOCTYPE svg PUBLIC "-//W3C//DTD SVG 1.1//EN"
 "http://www.w3.org/Graphics/SVG/1.1/DTD/svg11.dtd">
<!-- Generated by graphviz version 2.36.0 (20140111.2315)
 -->
<!-- Title: view.Editor.createRunButton Pages: 1 -->
<svg width="1306pt" height="417pt"
 viewBox="0.00 0.00 1306.00 417.00" xmlns="http://www.w3.org/2000/svg" xmlns:xlink="http://www.w3.org/1999/xlink">
<g id="graph0" class="graph" transform="scale(1 1) rotate(0) translate(4 413)">
<title>view.Editor.createRunButton</title>
<polygon fill="white" stroke="none" points="-4,4 -4,-413 1302,-413 1302,4 -4,4"/>
<!-- Node1 -->
<g id="node1" class="node"><title>Node1</title>
<polygon fill="#bfbfbf" stroke="black" points="0.5,-139.5 0.5,-158.5 149.5,-158.5 149.5,-139.5 0.5,-139.5"/>
<text text-anchor="middle" x="75" y="-146.5" font-family="Helvetica,sans-Serif" font-size="10.00">view.Editor.createRunButton</text>
</g>
<!-- Node2 -->
<g id="node2" class="node"><title>Node2</title>
<g id="a_node2"><a xlink:href="../../da/dc8/classview_1_1_editor.html#a149e24d4e5e4464f3fb1601f2717663b" target="_top" xlink:title="view.Editor.parse">
<polygon fill="white" stroke="black" points="186,-139.5 186,-158.5 282,-158.5 282,-139.5 186,-139.5"/>
<text text-anchor="middle" x="234" y="-146.5" font-family="Helvetica,sans-Serif" font-size="10.00">view.Editor.parse</text>
</a>
</g>
</g>
<!-- Node1&#45;&gt;Node2 -->
<g id="edge1" class="edge"><title>Node1&#45;&gt;Node2</title>
<path fill="none" stroke="midnightblue" d="M149.903,-149C158.61,-149 167.394,-149 175.822,-149"/>
<polygon fill="midnightblue" stroke="midnightblue" points="175.898,-152.5 185.898,-149 175.898,-145.5 175.898,-152.5"/>
</g>
<!-- Node3 -->
<g id="node3" class="node"><title>Node3</title>
<g id="a_node3"><a xlink:href="../../d1/dc7/classview_1_1_side_bar.html#a7e070e482d2d160b3d5aa05f813d2607" target="_top" xlink:title="view.SideBar.setHistory">
<polygon fill="white" stroke="black" points="339,-161.5 339,-180.5 467,-180.5 467,-161.5 339,-161.5"/>
<text text-anchor="middle" x="403" y="-168.5" font-family="Helvetica,sans-Serif" font-size="10.00">view.SideBar.setHistory</text>
</a>
</g>
</g>
<!-- Node2&#45;&gt;Node3 -->
<g id="edge2" class="edge"><title>Node2&#45;&gt;Node3</title>
<path fill="none" stroke="midnightblue" d="M282.409,-155.245C296.806,-157.142 312.975,-159.272 328.659,-161.338"/>
<polygon fill="midnightblue" stroke="midnightblue" points="328.5,-164.848 338.872,-162.684 329.415,-157.908 328.5,-164.848"/>
</g>
<!-- Node4 -->
<g id="node4" class="node"><title>Node4</title>
<g id="a_node4"><a xlink:href="../../d4/dd9/classcontroller_1_1_s_logo_controller.html#a1a88b376059e31c3f311d75fa640d848" target="_top" xlink:title="controller.SLogoController.parse\lInput">
<polygon fill="white" stroke="black" points="318,-112 318,-142 488,-142 488,-112 318,-112"/>
<text text-anchor="start" x="326" y="-130" font-family="Helvetica,sans-Serif" font-size="10.00">controller.SLogoController.parse</text>
<text text-anchor="middle" x="403" y="-119" font-family="Helvetica,sans-Serif" font-size="10.00">Input</text>
</a>
</g>
</g>
<!-- Node2&#45;&gt;Node4 -->
<g id="edge3" class="edge"><title>Node2&#45;&gt;Node4</title>
<path fill="none" stroke="midnightblue" d="M282.409,-142.755C290.466,-141.693 299.078,-140.559 307.85,-139.403"/>
<polygon fill="midnightblue" stroke="midnightblue" points="308.343,-142.868 317.801,-138.092 307.429,-135.928 308.343,-142.868"/>
</g>
<!-- Node5 -->
<g id="node5" class="node"><title>Node5</title>
<g id="a_node5"><a xlink:href="../../dc/df5/classmodel_1_1_parser.html#ab83c099e5a13c82b1a12d7eedda6fbf9" target="_top" xlink:title="model.Parser.parseAndExecute">
<polygon fill="white" stroke="black" points="524,-117.5 524,-136.5 690,-136.5 690,-117.5 524,-117.5"/>
<text text-anchor="middle" x="607" y="-124.5" font-family="Helvetica,sans-Serif" font-size="10.00">model.Parser.parseAndExecute</text>
</a>
</g>
</g>
<!-- Node4&#45;&gt;Node5 -->
<g id="edge4" class="edge"><title>Node4&#45;&gt;Node5</title>
<path fill="none" stroke="midnightblue" d="M488.203,-127C496.592,-127 505.14,-127 513.607,-127"/>
<polygon fill="midnightblue" stroke="midnightblue" points="513.878,-130.5 523.878,-127 513.878,-123.5 513.878,-130.5"/>
</g>
<!-- Node6 -->
<g id="node6" class="node"><title>Node6</title>
<g id="a_node6"><a xlink:href="../../dc/df5/classmodel_1_1_parser.html#ae83c95a5190fc22b9b70b1a40b76661c" target="_top" xlink:title="model.Parser.makeTree">
<polygon fill="white" stroke="black" points="726,-169.5 726,-188.5 854,-188.5 854,-169.5 726,-169.5"/>
<text text-anchor="middle" x="790" y="-176.5" font-family="Helvetica,sans-Serif" font-size="10.00">model.Parser.makeTree</text>
</a>
</g>
</g>
<!-- Node5&#45;&gt;Node6 -->
<g id="edge5" class="edge"><title>Node5&#45;&gt;Node6</title>
<path fill="none" stroke="midnightblue" d="M641.198,-136.538C670.575,-144.977 713.636,-157.349 745.71,-166.563"/>
<polygon fill="midnightblue" stroke="midnightblue" points="745.129,-170.038 755.706,-169.435 747.062,-163.31 745.129,-170.038"/>
</g>
<!-- Node16 -->
<g id="node16" class="node"><title>Node16</title>
<g id="a_node16"><a xlink:href="../../d6/de7/classview_1_1_s_logo_view.html#acf8498d7311bed1575638cca1c3f8777" target="_top" xlink:title="view.SLogoView.openDialog">
<polygon fill="white" stroke="black" points="905.5,-0.5 905.5,-19.5 1052.5,-19.5 1052.5,-0.5 905.5,-0.5"/>
<text text-anchor="middle" x="979" y="-7.5" font-family="Helvetica,sans-Serif" font-size="10.00">view.SLogoView.openDialog</text>
</a>
</g>
</g>
<!-- Node5&#45;&gt;Node16 -->
<g id="edge18" class="edge"><title>Node5&#45;&gt;Node16</title>
<path fill="none" stroke="midnightblue" d="M632.2,-117.465C680.582,-98.6551 792.938,-56.2343 890,-29 899.27,-26.3989 909.175,-23.9494 918.871,-21.7293"/>
<polygon fill="midnightblue" stroke="midnightblue" points="919.866,-25.0935 928.865,-19.5019 918.343,-18.2611 919.866,-25.0935"/>
</g>
<!-- Node7 -->
<g id="node7" class="node"><title>Node7</title>
<g id="a_node7"><a xlink:href="../../d2/d19/classmodel_1_1_node.html#a59dd0ae47774a51a1590d7fd205b14d5" target="_top" xlink:title="model.Node.addChild">
<polygon fill="white" stroke="black" points="919.5,-389.5 919.5,-408.5 1038.5,-408.5 1038.5,-389.5 919.5,-389.5"/>
<text text-anchor="middle" x="979" y="-396.5" font-family="Helvetica,sans-Serif" font-size="10.00">model.Node.addChild</text>
</a>
</g>
</g>
<!-- Node6&#45;&gt;Node7 -->
<g id="edge6" class="edge"><title>Node6&#45;&gt;Node7</title>
<path fill="none" stroke="midnightblue" d="M792.77,-188.78C799.214,-221.42 824.571,-327.448 890,-379 895.838,-383.6 902.534,-387.181 909.57,-389.965"/>
<polygon fill="midnightblue" stroke="midnightblue" points="908.731,-393.376 919.325,-393.285 910.987,-386.75 908.731,-393.376"/>
</g>
<!-- Node8 -->
<g id="node8" class="node"><title>Node8</title>
<g id="a_node8"><a xlink:href="../../d1/dca/classmodel_1_1_execution_environment.html#a83ef2b9eaef50b67c0b978f2abb8200c" target="_top" xlink:title="model.ExecutionEnvironment.add\lCommand">
<polygon fill="white" stroke="black" points="890,-340 890,-370 1068,-370 1068,-340 890,-340"/>
<text text-anchor="start" x="898" y="-358" font-family="Helvetica,sans-Serif" font-size="10.00">model.ExecutionEnvironment.add</text>
<text text-anchor="middle" x="979" y="-347" font-family="Helvetica,sans-Serif" font-size="10.00">Command</text>
</a>
</g>
</g>
<!-- Node6&#45;&gt;Node8 -->
<g id="edge7" class="edge"><title>Node6&#45;&gt;Node8</title>
<path fill="none" stroke="midnightblue" d="M794.594,-188.863C804.94,-215.84 837.455,-291.395 890,-330 892.542,-331.867 895.219,-333.596 897.995,-335.195"/>
<polygon fill="midnightblue" stroke="midnightblue" points="896.656,-338.441 907.153,-339.877 899.842,-332.208 896.656,-338.441"/>
</g>
<!-- Node10 -->
<g id="node10" class="node"><title>Node10</title>
<g id="a_node10"><a xlink:href="../../d2/d19/classmodel_1_1_node.html#a30a55e40eef5514f8201573584ca9aea" target="_top" xlink:title="model.Node.getChildren">
<polygon fill="white" stroke="black" points="912.5,-301.5 912.5,-320.5 1045.5,-320.5 1045.5,-301.5 912.5,-301.5"/>
<text text-anchor="middle" x="979" y="-308.5" font-family="Helvetica,sans-Serif" font-size="10.00">model.Node.getChildren</text>
</a>
</g>
</g>
<!-- Node6&#45;&gt;Node10 -->
<g id="edge9" class="edge"><title>Node6&#45;&gt;Node10</title>
<path fill="none" stroke="midnightblue" d="M796.532,-188.604C809.69,-210.524 845.131,-264.396 890,-291 894.435,-293.629 899.183,-295.913 904.092,-297.897"/>
<polygon fill="midnightblue" stroke="midnightblue" points="903.093,-301.258 913.688,-301.354 905.466,-294.672 903.093,-301.258"/>
</g>
<!-- Node11 -->
<g id="node11" class="node"><title>Node11</title>
<g id="a_node11"><a xlink:href="../../d1/dca/classmodel_1_1_execution_environment.html#a296a88c7bb936eb502efc9d212bfe6db" target="_top" xlink:title="model.ExecutionEnvironment.get\lCommand">
<polygon fill="white" stroke="black" points="891,-252 891,-282 1067,-282 1067,-252 891,-252"/>
<text text-anchor="start" x="899" y="-270" font-family="Helvetica,sans-Serif" font-size="10.00">model.ExecutionEnvironment.get</text>
<text text-anchor="middle" x="979" y="-259" font-family="Helvetica,sans-Serif" font-size="10.00">Command</text>
</a>
</g>
</g>
<!-- Node6&#45;&gt;Node11 -->
<g id="edge10" class="edge"><title>Node6&#45;&gt;Node11</title>
<path fill="none" stroke="midnightblue" d="M803.451,-188.618C821.584,-202.218 856.729,-227.072 890,-242 895.291,-244.374 900.864,-246.58 906.529,-248.616"/>
<polygon fill="midnightblue" stroke="midnightblue" points="905.524,-251.971 916.118,-251.884 907.782,-245.346 905.524,-251.971"/>
</g>
<!-- Node12 -->
<g id="node12" class="node"><title>Node12</title>
<g id="a_node12"><a xlink:href="../../d2/d19/classmodel_1_1_node.html#a3036121af674a3a8ff49e82bd77ab5a4" target="_top" xlink:title="model.Node.getInstruction">
<polygon fill="white" stroke="black" points="907,-213.5 907,-232.5 1051,-232.5 1051,-213.5 907,-213.5"/>
<text text-anchor="middle" x="979" y="-220.5" font-family="Helvetica,sans-Serif" font-size="10.00">model.Node.getInstruction</text>
</a>
</g>
</g>
<!-- Node6&#45;&gt;Node12 -->
<g id="edge11" class="edge"><title>Node6&#45;&gt;Node12</title>
<path fill="none" stroke="midnightblue" d="M829.996,-188.59C848.212,-193.035 870.2,-198.35 890,-203 901.443,-205.687 913.737,-208.517 925.4,-211.175"/>
<polygon fill="midnightblue" stroke="midnightblue" points="924.923,-214.656 935.45,-213.459 926.474,-207.83 924.923,-214.656"/>
</g>
<!-- Node13 -->
<g id="node13" class="node"><title>Node13</title>
<g id="a_node13"><a xlink:href="../../d1/dea/classmodel_1_1instructions_1_1_instruction.html#afd4726dcbdbf559356c38970061d9b79" target="_top" xlink:title="model.instructions.Instruction.get\lNumberOfArguments">
<polygon fill="white" stroke="black" points="890.5,-164 890.5,-194 1067.5,-194 1067.5,-164 890.5,-164"/>
<text text-anchor="start" x="898.5" y="-182" font-family="Helvetica,sans-Serif" font-size="10.00">model.instructions.Instruction.get</text>
<text text-anchor="middle" x="979" y="-171" font-family="Helvetica,sans-Serif" font-size="10.00">NumberOfArguments</text>
</a>
</g>
</g>
<!-- Node6&#45;&gt;Node13 -->
<g id="edge12" class="edge"><title>Node6&#45;&gt;Node13</title>
<path fill="none" stroke="midnightblue" d="M854.049,-179C862.523,-179 871.372,-179 880.272,-179"/>
<polygon fill="midnightblue" stroke="midnightblue" points="880.325,-182.5 890.325,-179 880.325,-175.5 880.325,-182.5"/>
</g>
<!-- Node14 -->
<g id="node14" class="node"><title>Node14</title>
<g id="a_node14"><a xlink:href="../../d1/dca/classmodel_1_1_execution_environment.html#a7eac9bbab890abbeb7db1a095fca5fc8" target="_top" xlink:title="model.ExecutionEnvironment.get\lUserCommandMap">
<polygon fill="white" stroke="black" points="891,-115 891,-145 1067,-145 1067,-115 891,-115"/>
<text text-anchor="start" x="899" y="-133" font-family="Helvetica,sans-Serif" font-size="10.00">model.ExecutionEnvironment.get</text>
<text text-anchor="middle" x="979" y="-122" font-family="Helvetica,sans-Serif" font-size="10.00">UserCommandMap</text>
</a>
</g>
</g>
<!-- Node6&#45;&gt;Node14 -->
<g id="edge13" class="edge"><title>Node6&#45;&gt;Node14</title>
<path fill="none" stroke="midnightblue" d="M827.499,-169.436C851.174,-163.232 882.733,-154.963 910.836,-147.599"/>
<polygon fill="midnightblue" stroke="midnightblue" points="911.828,-150.957 920.614,-145.037 910.053,-144.186 911.828,-150.957"/>
</g>
<!-- Node15 -->
<g id="node15" class="node"><title>Node15</title>
<g id="a_node15"><a xlink:href="../../dc/df5/classmodel_1_1_parser.html#ae24603572f6f919b363a7cef0cbe45c0" target="_top" xlink:title="model.Parser.match">
<polygon fill="white" stroke="black" points="1144.5,-57.5 1144.5,-76.5 1257.5,-76.5 1257.5,-57.5 1144.5,-57.5"/>
<text text-anchor="middle" x="1201" y="-64.5" font-family="Helvetica,sans-Serif" font-size="10.00">model.Parser.match</text>
</a>
</g>
</g>
<!-- Node6&#45;&gt;Node15 -->
<g id="edge14" class="edge"><title>Node6&#45;&gt;Node15</title>
<path fill="none" stroke="midnightblue" d="M800.354,-169.438C816.804,-153.286 852.721,-120.901 890,-106 969.964,-74.0372 1069.97,-66.7189 1134.41,-65.771"/>
<polygon fill="midnightblue" stroke="midnightblue" points="1134.47,-69.2707 1144.43,-65.6708 1134.4,-62.271 1134.47,-69.2707"/>
</g>
<!-- Node6&#45;&gt;Node16 -->
<g id="edge15" class="edge"><title>Node6&#45;&gt;Node16</title>
<path fill="none" stroke="midnightblue" d="M798.263,-169.306C810.278,-153.147 834.864,-119.557 854,-90 871.109,-63.5746 864.473,-47.4227 890,-29 892.662,-27.0792 895.479,-25.3456 898.408,-23.7816"/>
<polygon fill="midnightblue" stroke="midnightblue" points="899.882,-26.9559 907.488,-19.58 896.942,-20.603 899.882,-26.9559"/>
</g>
<!-- Node17 -->
<g id="node17" class="node"><title>Node17</title>
<g id="a_node17"><a xlink:href="../../dc/df5/classmodel_1_1_parser.html#a367f66d63cda3e0b2733b078c20a1f73" target="_top" xlink:title="model.Parser.testMatches">
<polygon fill="white" stroke="black" points="908.5,-38.5 908.5,-57.5 1049.5,-57.5 1049.5,-38.5 908.5,-38.5"/>
<text text-anchor="middle" x="979" y="-45.5" font-family="Helvetica,sans-Serif" font-size="10.00">model.Parser.testMatches</text>
</a>
</g>
</g>
<!-- Node6&#45;&gt;Node17 -->
<g id="edge16" class="edge"><title>Node6&#45;&gt;Node17</title>
<path fill="none" stroke="midnightblue" d="M797.134,-169.333C811.003,-148.287 846.939,-98.119 890,-72 897.575,-67.4054 906.042,-63.6727 914.649,-60.6448"/>
<polygon fill="midnightblue" stroke="midnightblue" points="915.936,-63.9077 924.386,-57.5171 913.795,-57.243 915.936,-63.9077"/>
</g>
<!-- Node9 -->
<g id="node9" class="node"><title>Node9</title>
<g id="a_node9"><a xlink:href="../../d1/dca/classmodel_1_1_execution_environment.html#a93fd01341f06dfa81727344b120aef66" target="_top" xlink:title="model.ExecutionEnvironment.update\lObserver">
<polygon fill="white" stroke="black" points="1104,-340 1104,-370 1298,-370 1298,-340 1104,-340"/>
<text text-anchor="start" x="1112" y="-358" font-family="Helvetica,sans-Serif" font-size="10.00">model.ExecutionEnvironment.update</text>
<text text-anchor="middle" x="1201" y="-347" font-family="Helvetica,sans-Serif" font-size="10.00">Observer</text>
</a>
</g>
</g>
<!-- Node8&#45;&gt;Node9 -->
<g id="edge8" class="edge"><title>Node8&#45;&gt;Node9</title>
<path fill="none" stroke="midnightblue" d="M1068.21,-355C1076.64,-355 1085.23,-355 1093.8,-355"/>
<polygon fill="midnightblue" stroke="midnightblue" points="1093.83,-358.5 1103.83,-355 1093.83,-351.5 1093.83,-358.5"/>
</g>
<!-- Node17&#45;&gt;Node15 -->
<g id="edge17" class="edge"><title>Node17&#45;&gt;Node15</title>
<path fill="none" stroke="midnightblue" d="M1049.61,-54.0117C1076.73,-56.3543 1107.66,-59.0255 1134.39,-61.3339"/>
<polygon fill="midnightblue" stroke="midnightblue" points="1134.15,-64.8259 1144.41,-62.1994 1134.75,-57.8518 1134.15,-64.8259"/>
</g>
</g>
</svg>
