<?xml version="1.0" encoding="UTF-8" standalone="no"?>
<!DOCTYPE svg PUBLIC "-//W3C//DTD SVG 1.1//EN"
 "http://www.w3.org/Graphics/SVG/1.1/DTD/svg11.dtd">
<!-- Generated by graphviz version 2.36.0 (20140111.2315)
 -->
<!-- Title: view.SLogoView Pages: 1 -->
<svg width="1476pt" height="643pt"
 viewBox="0.00 0.00 1476.00 642.54" xmlns="http://www.w3.org/2000/svg" xmlns:xlink="http://www.w3.org/1999/xlink">
<g id="graph0" class="graph" transform="scale(1 1) rotate(0) translate(4 638.543)">
<title>view.SLogoView</title>
<polygon fill="white" stroke="none" points="-4,4 -4,-638.543 1472,-638.543 1472,4 -4,4"/>
<!-- Node1 -->
<g id="node1" class="node"><title>Node1</title>
<polygon fill="#bfbfbf" stroke="black" points="355.5,-291.5 355.5,-310.5 446.5,-310.5 446.5,-291.5 355.5,-291.5"/>
<text text-anchor="middle" x="401" y="-298.5" font-family="Helvetica,sans-Serif" font-size="10.00">view.SLogoView</text>
</g>
<!-- Node13 -->
<g id="node13" class="node"><title>Node13</title>
<g id="a_node13"><a xlink:href="../../dc/df5/classmodel_1_1_parser.html" target="_top" xlink:title="model.Parser">
<polygon fill="white" stroke="black" points="685,-153.5 685,-172.5 765,-172.5 765,-153.5 685,-153.5"/>
<text text-anchor="middle" x="725" y="-160.5" font-family="Helvetica,sans-Serif" font-size="10.00">model.Parser</text>
</a>
</g>
</g>
<!-- Node1&#45;&gt;Node13 -->
<g id="edge20" class="edge"><title>Node1&#45;&gt;Node13</title>
<path fill="none" stroke="#9a32cd" stroke-dasharray="5,2" d="M415.662,-283.615C432.665,-263.269 463.681,-230.181 498,-213 547.34,-188.3 566.155,-202.051 620,-190 643.301,-184.785 669.301,-178.035 689.476,-172.589"/>
<polygon fill="#9a32cd" stroke="#9a32cd" points="412.865,-281.506 409.263,-291.47 418.292,-285.927 412.865,-281.506"/>
<text text-anchor="middle" x="559" y="-216" font-family="Helvetica,sans-Serif" font-size="10.00"> mySLogoView</text>
</g>
<!-- Node2 -->
<g id="node2" class="node"><title>Node2</title>
<polygon fill="white" stroke="#bfbfbf" points="57,-189.5 57,-208.5 117,-208.5 117,-189.5 57,-189.5"/>
<text text-anchor="middle" x="87" y="-196.5" font-family="Helvetica,sans-Serif" font-size="10.00">Observer</text>
</g>
<!-- Node2&#45;&gt;Node1 -->
<g id="edge1" class="edge"><title>Node2&#45;&gt;Node1</title>
<path fill="none" stroke="midnightblue" d="M127.148,-206.763C170.957,-215.996 243.7,-232.971 304,-255 332.469,-265.4 363.861,-281.354 382.746,-291.477"/>
<polygon fill="midnightblue" stroke="midnightblue" points="127.694,-203.302 117.191,-204.693 126.269,-210.155 127.694,-203.302"/>
</g>
<!-- Node2&#45;&gt;Node13 -->
<g id="edge13" class="edge"><title>Node2&#45;&gt;Node13</title>
<path fill="none" stroke="midnightblue" d="M127.441,-196.767C241.516,-190.31 570.921,-171.665 684.752,-165.222"/>
<polygon fill="midnightblue" stroke="midnightblue" points="127.186,-193.276 117.4,-197.336 127.582,-200.265 127.186,-193.276"/>
</g>
<!-- Node3 -->
<g id="node3" class="node"><title>Node3</title>
<g id="a_node3"><a xlink:href="../../da/d64/classview_1_1_workspace.html" target="_top" xlink:title="view.Workspace">
<polygon fill="white" stroke="black" points="1198,-485.5 1198,-504.5 1288,-504.5 1288,-485.5 1198,-485.5"/>
<text text-anchor="middle" x="1243" y="-492.5" font-family="Helvetica,sans-Serif" font-size="10.00">view.Workspace</text>
</a>
</g>
</g>
<!-- Node3&#45;&gt;Node1 -->
<g id="edge2" class="edge"><title>Node3&#45;&gt;Node1</title>
<path fill="none" stroke="#9a32cd" stroke-dasharray="5,2" d="M1187.53,-497.411C1058.68,-502.453 738.456,-510.943 638,-476 534.903,-440.138 439.256,-341.944 410.647,-310.69"/>
<polygon fill="#9a32cd" stroke="#9a32cd" points="1187.71,-500.906 1197.57,-497.009 1187.43,-493.912 1187.71,-500.906"/>
<text text-anchor="middle" x="881" y="-506" font-family="Helvetica,sans-Serif" font-size="10.00"> myWorkspace</text>
</g>
<!-- Node30 -->
<g id="node30" class="node"><title>Node30</title>
<g id="a_node30"><a xlink:href="../../de/d0a/classview_1_1_drawer.html" target="_top" xlink:title="view.Drawer">
<polygon fill="white" stroke="black" points="1394.5,-485.5 1394.5,-504.5 1467.5,-504.5 1467.5,-485.5 1394.5,-485.5"/>
<text text-anchor="middle" x="1431" y="-492.5" font-family="Helvetica,sans-Serif" font-size="10.00">view.Drawer</text>
</a>
</g>
</g>
<!-- Node3&#45;&gt;Node30 -->
<g id="edge36" class="edge"><title>Node3&#45;&gt;Node30</title>
<path fill="none" stroke="#9a32cd" stroke-dasharray="5,2" d="M1298.28,-495C1329.23,-495 1367.14,-495 1394.33,-495"/>
<polygon fill="#9a32cd" stroke="#9a32cd" points="1298.08,-491.5 1288.08,-495 1298.08,-498.5 1298.08,-491.5"/>
<text text-anchor="middle" x="1341" y="-498" font-family="Helvetica,sans-Serif" font-size="10.00"> myWorkspace</text>
</g>
<!-- Node4 -->
<g id="node4" class="node"><title>Node4</title>
<polygon fill="white" stroke="#bfbfbf" points="984.5,-447.5 984.5,-466.5 1051.5,-466.5 1051.5,-447.5 984.5,-447.5"/>
<text text-anchor="middle" x="1018" y="-454.5" font-family="Helvetica,sans-Serif" font-size="10.00">StackPane</text>
</g>
<!-- Node4&#45;&gt;Node3 -->
<g id="edge3" class="edge"><title>Node4&#45;&gt;Node3</title>
<path fill="none" stroke="midnightblue" d="M1061.87,-462.511C1094.39,-466.904 1140.15,-473.541 1180,-481 1187.05,-482.32 1194.52,-483.872 1201.74,-485.453"/>
<polygon fill="midnightblue" stroke="midnightblue" points="1062.18,-459.021 1051.8,-461.165 1061.25,-465.959 1062.18,-459.021"/>
</g>
<!-- Node5 -->
<g id="node5" class="node"><title>Node5</title>
<g id="a_node5"><a xlink:href="../../d8/df7/classview_1_1_turtle_view.html" target="_top" xlink:title="view.TurtleView">
<polygon fill="white" stroke="black" points="975,-561.5 975,-580.5 1061,-580.5 1061,-561.5 975,-561.5"/>
<text text-anchor="middle" x="1018" y="-568.5" font-family="Helvetica,sans-Serif" font-size="10.00">view.TurtleView</text>
</a>
</g>
</g>
<!-- Node5&#45;&gt;Node3 -->
<g id="edge4" class="edge"><title>Node5&#45;&gt;Node3</title>
<path fill="none" stroke="#9a32cd" stroke-dasharray="5,2" d="M1071.16,-565.197C1103.45,-560.35 1145.24,-551.768 1180,-537 1199.15,-528.866 1218.58,-514.493 1230.46,-504.857"/>
<polygon fill="#9a32cd" stroke="#9a32cd" points="1070.43,-561.765 1061.03,-566.643 1071.42,-568.695 1070.43,-561.765"/>
<text text-anchor="middle" x="1142" y="-562" font-family="Helvetica,sans-Serif" font-size="10.00"> myActiveTurtle</text>
</g>
<!-- Node6 -->
<g id="node6" class="node"><title>Node6</title>
<polygon fill="white" stroke="#bfbfbf" points="691,-569.5 691,-588.5 759,-588.5 759,-569.5 691,-569.5"/>
<text text-anchor="middle" x="725" y="-576.5" font-family="Helvetica,sans-Serif" font-size="10.00">ImageView</text>
</g>
<!-- Node6&#45;&gt;Node5 -->
<g id="edge5" class="edge"><title>Node6&#45;&gt;Node5</title>
<path fill="none" stroke="midnightblue" d="M769.27,-577.81C824.553,-576.291 919.638,-573.677 974.533,-572.167"/>
<polygon fill="midnightblue" stroke="midnightblue" points="768.998,-574.317 759.098,-578.09 769.191,-581.314 768.998,-574.317"/>
</g>
<!-- Node7 -->
<g id="node7" class="node"><title>Node7</title>
<polygon fill="white" stroke="#bfbfbf" points="950,-398 950,-428 1086,-428 1086,-398 950,-398"/>
<text text-anchor="start" x="958" y="-416" font-family="Helvetica,sans-Serif" font-size="10.00">Map&lt; Integer, view.Turtle</text>
<text text-anchor="middle" x="1018" y="-405" font-family="Helvetica,sans-Serif" font-size="10.00">View &gt;</text>
</g>
<!-- Node7&#45;&gt;Node3 -->
<g id="edge6" class="edge"><title>Node7&#45;&gt;Node3</title>
<path fill="none" stroke="#9a32cd" stroke-dasharray="5,2" d="M1096.41,-422.426C1124.33,-428.393 1155.08,-438.128 1180,-454 1190.66,-460.788 1187.91,-468.391 1198,-476 1202.92,-479.708 1208.67,-482.86 1214.36,-485.468"/>
<polygon fill="#9a32cd" stroke="#9a32cd" points="1096.75,-418.926 1086.26,-420.393 1095.38,-425.789 1096.75,-418.926"/>
<text text-anchor="middle" x="1142" y="-457" font-family="Helvetica,sans-Serif" font-size="10.00"> myTurtles</text>
</g>
<!-- Node8 -->
<g id="node8" class="node"><title>Node8</title>
<g id="a_node8"><a xlink:href="../../d1/dc7/classview_1_1_side_bar.html" target="_top" xlink:title="view.SideBar">
<polygon fill="white" stroke="black" points="979.5,-336.5 979.5,-355.5 1056.5,-355.5 1056.5,-336.5 979.5,-336.5"/>
<text text-anchor="middle" x="1018" y="-343.5" font-family="Helvetica,sans-Serif" font-size="10.00">view.SideBar</text>
</a>
</g>
</g>
<!-- Node8&#45;&gt;Node1 -->
<g id="edge38" class="edge"><title>Node8&#45;&gt;Node1</title>
<path fill="none" stroke="#9a32cd" stroke-dasharray="5,2" d="M969.258,-342.507C853.528,-334.039 559.282,-312.508 446.725,-304.273"/>
<polygon fill="#9a32cd" stroke="#9a32cd" points="969.01,-345.998 979.239,-343.237 969.521,-339.016 969.01,-345.998"/>
<text text-anchor="middle" x="725" y="-334" font-family="Helvetica,sans-Serif" font-size="10.00"> mySidebar</text>
</g>
<!-- Node8&#45;&gt;Node3 -->
<g id="edge7" class="edge"><title>Node8&#45;&gt;Node3</title>
<path fill="none" stroke="#9a32cd" stroke-dasharray="5,2" d="M1066.58,-353.192C1102.62,-361.091 1150.78,-377.303 1180,-410 1200.26,-432.67 1178.07,-453.036 1198,-476 1201.27,-479.771 1205.43,-482.818 1209.87,-485.273"/>
<polygon fill="#9a32cd" stroke="#9a32cd" points="1067.26,-349.758 1056.76,-351.177 1065.85,-356.615 1067.26,-349.758"/>
<text text-anchor="middle" x="1142" y="-413" font-family="Helvetica,sans-Serif" font-size="10.00"> mySidebar</text>
</g>
<!-- Node24 -->
<g id="node24" class="node"><title>Node24</title>
<g id="a_node24"><a xlink:href="../../da/dc8/classview_1_1_editor.html" target="_top" xlink:title="view.Editor">
<polygon fill="white" stroke="black" points="1209.5,-152.5 1209.5,-171.5 1276.5,-171.5 1276.5,-152.5 1209.5,-152.5"/>
<text text-anchor="middle" x="1243" y="-159.5" font-family="Helvetica,sans-Serif" font-size="10.00">view.Editor</text>
</a>
</g>
</g>
<!-- Node8&#45;&gt;Node24 -->
<g id="edge31" class="edge"><title>Node8&#45;&gt;Node24</title>
<path fill="none" stroke="#9a32cd" stroke-dasharray="5,2" d="M1044.52,-331.046C1077.54,-311.091 1136.04,-273.642 1180,-234 1202.29,-213.893 1224.23,-185.985 1235.04,-171.53"/>
<polygon fill="#9a32cd" stroke="#9a32cd" points="1042.31,-328.291 1035.53,-336.429 1045.91,-334.297 1042.31,-328.291"/>
<text text-anchor="middle" x="1142" y="-293" font-family="Helvetica,sans-Serif" font-size="10.00"> mySidebar</text>
</g>
<!-- Node9 -->
<g id="node9" class="node"><title>Node9</title>
<polygon fill="white" stroke="#bfbfbf" points="704.5,-447.5 704.5,-466.5 745.5,-466.5 745.5,-447.5 704.5,-447.5"/>
<text text-anchor="middle" x="725" y="-454.5" font-family="Helvetica,sans-Serif" font-size="10.00">VBox</text>
</g>
<!-- Node9&#45;&gt;Node8 -->
<g id="edge8" class="edge"><title>Node9&#45;&gt;Node8</title>
<path fill="none" stroke="midnightblue" d="M755.838,-461.618C799.221,-466.614 880.175,-469.244 932,-430 948.191,-417.74 936.795,-403.429 950,-388 962.229,-373.711 980.558,-362.687 994.955,-355.526"/>
<polygon fill="midnightblue" stroke="midnightblue" points="756.021,-458.113 745.658,-460.321 755.136,-465.057 756.021,-458.113"/>
</g>
<!-- Node10 -->
<g id="node10" class="node"><title>Node10</title>
<polygon fill="white" stroke="#bfbfbf" points="638.5,-409.5 638.5,-428.5 811.5,-428.5 811.5,-409.5 638.5,-409.5"/>
<text text-anchor="middle" x="725" y="-416.5" font-family="Helvetica,sans-Serif" font-size="10.00">ObservableList&lt; view.Property &gt;</text>
</g>
<!-- Node10&#45;&gt;Node8 -->
<g id="edge9" class="edge"><title>Node10&#45;&gt;Node8</title>
<path fill="none" stroke="#9a32cd" stroke-dasharray="5,2" d="M821.88,-415.212C857.166,-411.788 897.032,-405.488 932,-394 959.371,-385.008 987.873,-366.791 1003.93,-355.567"/>
<polygon fill="#9a32cd" stroke="#9a32cd" points="821.217,-411.757 811.573,-416.144 821.848,-418.729 821.217,-411.757"/>
<text text-anchor="middle" x="881" y="-418" font-family="Helvetica,sans-Serif" font-size="10.00"> variablesList</text>
</g>
<!-- Node11 -->
<g id="node11" class="node"><title>Node11</title>
<polygon fill="white" stroke="#bfbfbf" points="40.5,-505.5 40.5,-524.5 133.5,-524.5 133.5,-505.5 40.5,-505.5"/>
<text text-anchor="middle" x="87" y="-512.5" font-family="Helvetica,sans-Serif" font-size="10.00">ResourceBundle</text>
</g>
<!-- Node11&#45;&gt;Node1 -->
<g id="edge25" class="edge"><title>Node11&#45;&gt;Node1</title>
<path fill="none" stroke="#9a32cd" stroke-dasharray="5,2" d="M110.803,-499.61C150.266,-472.947 233.808,-416.376 304,-368 333.453,-347.701 367.783,-323.645 386.363,-310.593"/>
<polygon fill="#9a32cd" stroke="#9a32cd" points="108.52,-496.928 102.192,-505.426 112.438,-502.729 108.52,-496.928"/>
<text text-anchor="middle" x="248" y="-448" font-family="Helvetica,sans-Serif" font-size="10.00"> myResources</text>
</g>
<!-- Node11&#45;&gt;Node8 -->
<g id="edge10" class="edge"><title>Node11&#45;&gt;Node8</title>
<path fill="none" stroke="#9a32cd" stroke-dasharray="5,2" d="M143.951,-518.793C322.864,-530.364 872.815,-561.4 932,-510 973.382,-474.061 920.024,-433.886 950,-388 959.761,-373.059 976.886,-362.461 991.379,-355.649"/>
<polygon fill="#9a32cd" stroke="#9a32cd" points="143.914,-515.284 133.707,-518.126 143.458,-522.269 143.914,-515.284"/>
<text text-anchor="middle" x="559" y="-542" font-family="Helvetica,sans-Serif" font-size="10.00"> myResources</text>
</g>
<!-- Node12 -->
<g id="node12" class="node"><title>Node12</title>
<polygon fill="white" stroke="#bfbfbf" points="651,-371.5 651,-390.5 799,-390.5 799,-371.5 651,-371.5"/>
<text text-anchor="middle" x="725" y="-378.5" font-family="Helvetica,sans-Serif" font-size="10.00">TableView&lt; view.Property &gt;</text>
</g>
<!-- Node12&#45;&gt;Node8 -->
<g id="edge11" class="edge"><title>Node12&#45;&gt;Node8</title>
<path fill="none" stroke="#9a32cd" stroke-dasharray="5,2" d="M809.314,-370.979C865.25,-364.252 936.29,-355.707 979.118,-350.556"/>
<polygon fill="#9a32cd" stroke="#9a32cd" points="808.566,-367.544 799.056,-372.213 809.402,-374.494 808.566,-367.544"/>
<text text-anchor="middle" x="881" y="-382" font-family="Helvetica,sans-Serif" font-size="10.00"> turtlePropertiesTable</text>
<text text-anchor="middle" x="881" y="-371" font-family="Helvetica,sans-Serif" font-size="10.00">variablesTable</text>
</g>
<!-- Node13&#45;&gt;Node1 -->
<g id="edge33" class="edge"><title>Node13&#45;&gt;Node1</title>
<path fill="none" stroke="#9a32cd" stroke-dasharray="5,2" d="M690.542,-176.683C674.01,-184.185 654.188,-194.332 638,-206 628.822,-212.615 630.004,-218.717 620,-224 571.208,-249.767 549.844,-228.113 498,-247 466.737,-258.389 433.622,-279.243 415.616,-291.434"/>
<polygon fill="#9a32cd" stroke="#9a32cd" points="692.107,-179.818 699.843,-172.58 689.281,-173.414 692.107,-179.818"/>
<text text-anchor="middle" x="559" y="-250" font-family="Helvetica,sans-Serif" font-size="10.00"> myParser</text>
</g>
<!-- Node13&#45;&gt;Node8 -->
<g id="edge12" class="edge"><title>Node13&#45;&gt;Node8</title>
<path fill="none" stroke="#9a32cd" stroke-dasharray="5,2" d="M775.381,-163.577C828.075,-165.084 907.309,-170.183 932,-187 986.587,-224.179 1008.93,-308.085 1015.1,-336.435"/>
<polygon fill="#9a32cd" stroke="#9a32cd" points="775.305,-160.074 765.22,-163.321 775.129,-167.072 775.305,-160.074"/>
<text text-anchor="middle" x="881" y="-190" font-family="Helvetica,sans-Serif" font-size="10.00"> myParser</text>
</g>
<!-- Node13&#45;&gt;Node24 -->
<g id="edge29" class="edge"><title>Node13&#45;&gt;Node24</title>
<path fill="none" stroke="#9a32cd" stroke-dasharray="5,2" d="M775.345,-159.539C844.706,-155.12 974.985,-148.445 1086,-152 1128.72,-153.368 1177.92,-156.838 1209.46,-159.305"/>
<polygon fill="#9a32cd" stroke="#9a32cd" points="774.908,-156.06 765.155,-160.2 775.361,-163.045 774.908,-156.06"/>
<text text-anchor="middle" x="1018" y="-155" font-family="Helvetica,sans-Serif" font-size="10.00"> myParser</text>
</g>
<!-- Node14 -->
<g id="node14" class="node"><title>Node14</title>
<polygon fill="white" stroke="#bfbfbf" points="345,-88 345,-118 457,-118 457,-88 345,-88"/>
<text text-anchor="start" x="353" y="-106" font-family="Helvetica,sans-Serif" font-size="10.00">List&lt; Entry&lt; String,</text>
<text text-anchor="middle" x="401" y="-95" font-family="Helvetica,sans-Serif" font-size="10.00"> Pattern &gt; &gt;</text>
</g>
<!-- Node14&#45;&gt;Node13 -->
<g id="edge14" class="edge"><title>Node14&#45;&gt;Node13</title>
<path fill="none" stroke="#9a32cd" stroke-dasharray="5,2" d="M467.574,-110.588C511.037,-116.116 569.199,-124.471 620,-135 644.535,-140.085 671.879,-147.518 692.37,-153.448"/>
<polygon fill="#9a32cd" stroke="#9a32cd" points="467.773,-107.085 457.415,-109.313 466.901,-114.031 467.773,-107.085"/>
<text text-anchor="middle" x="559" y="-138" font-family="Helvetica,sans-Serif" font-size="10.00"> myPatterns</text>
</g>
<!-- Node15 -->
<g id="node15" class="node"><title>Node15</title>
<g id="a_node15"><a xlink:href="../../d1/dca/classmodel_1_1_execution_environment.html" target="_top" xlink:title="model.ExecutionEnvironment">
<polygon fill="white" stroke="black" points="322.5,-49.5 322.5,-68.5 479.5,-68.5 479.5,-49.5 322.5,-49.5"/>
<text text-anchor="middle" x="401" y="-56.5" font-family="Helvetica,sans-Serif" font-size="10.00">model.ExecutionEnvironment</text>
</a>
</g>
</g>
<!-- Node15&#45;&gt;Node13 -->
<g id="edge15" class="edge"><title>Node15&#45;&gt;Node13</title>
<path fill="none" stroke="#9a32cd" stroke-dasharray="5,2" d="M489.848,-68.8279C530.377,-75.1428 578.577,-85.221 620,-101 655.359,-114.469 692.41,-139.649 711.293,-153.413"/>
<polygon fill="#9a32cd" stroke="#9a32cd" points="490.127,-65.3306 479.718,-67.3023 489.085,-72.2526 490.127,-65.3306"/>
<text text-anchor="middle" x="559" y="-104" font-family="Helvetica,sans-Serif" font-size="10.00"> myExecutionParameters</text>
</g>
<!-- Node16 -->
<g id="node16" class="node"><title>Node16</title>
<polygon fill="white" stroke="#bfbfbf" points="51.5,-49.5 51.5,-68.5 122.5,-68.5 122.5,-49.5 51.5,-49.5"/>
<text text-anchor="middle" x="87" y="-56.5" font-family="Helvetica,sans-Serif" font-size="10.00">Observable</text>
</g>
<!-- Node16&#45;&gt;Node15 -->
<g id="edge16" class="edge"><title>Node16&#45;&gt;Node15</title>
<path fill="none" stroke="midnightblue" d="M132.637,-59C182.066,-59 262.658,-59 322.457,-59"/>
<polygon fill="midnightblue" stroke="midnightblue" points="132.582,-55.5001 122.582,-59 132.582,-62.5001 132.582,-55.5001"/>
</g>
<!-- Node17 -->
<g id="node17" class="node"><title>Node17</title>
<polygon fill="white" stroke="#bfbfbf" points="0,-0 0,-30 174,-30 174,-0 0,-0"/>
<text text-anchor="start" x="8" y="-18" font-family="Helvetica,sans-Serif" font-size="10.00">Map&lt; String, model.instructions.</text>
<text text-anchor="middle" x="87" y="-7" font-family="Helvetica,sans-Serif" font-size="10.00">Instruction &gt;</text>
</g>
<!-- Node17&#45;&gt;Node15 -->
<g id="edge17" class="edge"><title>Node17&#45;&gt;Node15</title>
<path fill="none" stroke="#9a32cd" stroke-dasharray="5,2" d="M184.616,-27.5197C221.941,-32.4748 264.983,-38.3332 304,-44 315.769,-45.7093 328.337,-47.6148 340.37,-49.4787"/>
<polygon fill="#9a32cd" stroke="#9a32cd" points="184.621,-23.9899 174.248,-26.147 183.702,-30.9294 184.621,-23.9899"/>
<text text-anchor="middle" x="248" y="-47" font-family="Helvetica,sans-Serif" font-size="10.00"> myUserInstructionMap</text>
</g>
<!-- Node18 -->
<g id="node18" class="node"><title>Node18</title>
<polygon fill="white" stroke="#bfbfbf" points="23,-87.5 23,-106.5 151,-106.5 151,-87.5 23,-87.5"/>
<text text-anchor="middle" x="87" y="-94.5" font-family="Helvetica,sans-Serif" font-size="10.00">Map&lt; String, Double &gt;</text>
</g>
<!-- Node18&#45;&gt;Node15 -->
<g id="edge18" class="edge"><title>Node18&#45;&gt;Node15</title>
<path fill="none" stroke="#9a32cd" stroke-dasharray="5,2" d="M161.492,-89.4635C203.309,-85.0176 256.635,-79.0832 304,-73 314.608,-71.6376 325.86,-70.0896 336.784,-68.5321"/>
<polygon fill="#9a32cd" stroke="#9a32cd" points="160.969,-85.9992 151.393,-90.5321 161.706,-92.9603 160.969,-85.9992"/>
<text text-anchor="middle" x="248" y="-90" font-family="Helvetica,sans-Serif" font-size="10.00"> myVariableMap</text>
</g>
<!-- Node19 -->
<g id="node19" class="node"><title>Node19</title>
<polygon fill="white" stroke="#bfbfbf" points="340,-137.5 340,-156.5 462,-156.5 462,-137.5 340,-137.5"/>
<text text-anchor="middle" x="401" y="-144.5" font-family="Helvetica,sans-Serif" font-size="10.00">Map&lt; String, String &gt;</text>
</g>
<!-- Node19&#45;&gt;Node13 -->
<g id="edge19" class="edge"><title>Node19&#45;&gt;Node13</title>
<path fill="none" stroke="#9a32cd" stroke-dasharray="5,2" d="M472.206,-148.288C514.954,-149.313 570.657,-151.075 620,-154 641.348,-155.266 665.112,-157.277 684.529,-159.077"/>
<polygon fill="#9a32cd" stroke="#9a32cd" points="472.264,-144.789 462.185,-148.056 472.101,-151.787 472.264,-144.789"/>
<text text-anchor="middle" x="559" y="-157" font-family="Helvetica,sans-Serif" font-size="10.00"> myCommandMap</text>
</g>
<!-- Node20 -->
<g id="node20" class="node"><title>Node20</title>
<polygon fill="white" stroke="#bfbfbf" points="656,-286.5 656,-305.5 794,-305.5 794,-286.5 656,-286.5"/>
<text text-anchor="middle" x="725" y="-293.5" font-family="Helvetica,sans-Serif" font-size="10.00">ObservableList&lt; String &gt;</text>
</g>
<!-- Node20&#45;&gt;Node8 -->
<g id="edge21" class="edge"><title>Node20&#45;&gt;Node8</title>
<path fill="none" stroke="#9a32cd" stroke-dasharray="5,2" d="M804.443,-292.677C843.333,-292.82 890.698,-295.71 932,-306 957.637,-312.387 984.866,-326.709 1001.41,-336.365"/>
<polygon fill="#9a32cd" stroke="#9a32cd" points="804.222,-289.177 794.231,-292.701 804.239,-296.177 804.222,-289.177"/>
<text text-anchor="middle" x="881" y="-320" font-family="Helvetica,sans-Serif" font-size="10.00"> commandItems</text>
<text text-anchor="middle" x="881" y="-309" font-family="Helvetica,sans-Serif" font-size="10.00">historyItems</text>
</g>
<!-- Node21 -->
<g id="node21" class="node"><title>Node21</title>
<polygon fill="white" stroke="#bfbfbf" points="672,-248.5 672,-267.5 778,-267.5 778,-248.5 672,-248.5"/>
<text text-anchor="middle" x="725" y="-255.5" font-family="Helvetica,sans-Serif" font-size="10.00">ListView&lt; String &gt;</text>
</g>
<!-- Node21&#45;&gt;Node8 -->
<g id="edge22" class="edge"><title>Node21&#45;&gt;Node8</title>
<path fill="none" stroke="#9a32cd" stroke-dasharray="5,2" d="M788.387,-255.416C830.406,-255.796 886.284,-260.498 932,-279 964.049,-291.97 993.939,-320.908 1008.22,-336.16"/>
<polygon fill="#9a32cd" stroke="#9a32cd" points="788.293,-251.916 778.289,-255.405 788.285,-258.916 788.293,-251.916"/>
<text text-anchor="middle" x="881" y="-282" font-family="Helvetica,sans-Serif" font-size="10.00"> historyList</text>
</g>
<!-- Node22 -->
<g id="node22" class="node"><title>Node22</title>
<polygon fill="white" stroke="#bfbfbf" points="986.5,-523.5 986.5,-542.5 1049.5,-542.5 1049.5,-523.5 986.5,-523.5"/>
<text text-anchor="middle" x="1018" y="-530.5" font-family="Helvetica,sans-Serif" font-size="10.00">Rectangle</text>
</g>
<!-- Node22&#45;&gt;Node3 -->
<g id="edge23" class="edge"><title>Node22&#45;&gt;Node3</title>
<path fill="none" stroke="#9a32cd" stroke-dasharray="5,2" d="M1059.75,-527.776C1092.38,-523.388 1139.27,-516.624 1180,-509 1187.05,-507.68 1194.52,-506.128 1201.74,-504.547"/>
<polygon fill="#9a32cd" stroke="#9a32cd" points="1059.13,-524.327 1049.68,-529.115 1060.05,-531.266 1059.13,-524.327"/>
<text text-anchor="middle" x="1142" y="-525" font-family="Helvetica,sans-Serif" font-size="10.00"> myBackground</text>
</g>
<!-- Node23 -->
<g id="node23" class="node"><title>Node23</title>
<polygon fill="white" stroke="#bfbfbf" points="64.5,-354.5 64.5,-373.5 109.5,-373.5 109.5,-354.5 64.5,-354.5"/>
<text text-anchor="middle" x="87" y="-361.5" font-family="Helvetica,sans-Serif" font-size="10.00">Stage</text>
</g>
<!-- Node23&#45;&gt;Node1 -->
<g id="edge24" class="edge"><title>Node23&#45;&gt;Node1</title>
<path fill="none" stroke="#9a32cd" stroke-dasharray="5,2" d="M119.698,-361.245C162.097,-357.154 239.423,-348.267 304,-333 328.791,-327.139 356.296,-317.652 375.488,-310.526"/>
<polygon fill="#9a32cd" stroke="#9a32cd" points="119.33,-357.765 109.7,-362.183 119.983,-364.734 119.33,-357.765"/>
<text text-anchor="middle" x="248" y="-356" font-family="Helvetica,sans-Serif" font-size="10.00"> myStage</text>
</g>
<!-- Node24&#45;&gt;Node1 -->
<g id="edge26" class="edge"><title>Node24&#45;&gt;Node1</title>
<path fill="none" stroke="#9a32cd" stroke-dasharray="5,2" d="M1214.64,-175.912C1204.06,-180.755 1191.7,-185.777 1180,-189 1139.4,-200.187 1127.88,-196.553 1086,-201 986.646,-211.551 728.031,-195.675 638,-239 627.518,-244.044 630.188,-252.387 620,-258 565.433,-288.064 492.954,-297.309 446.879,-300.038"/>
<polygon fill="#9a32cd" stroke="#9a32cd" points="1216.25,-179.022 1223.78,-171.572 1213.25,-172.698 1216.25,-179.022"/>
<text text-anchor="middle" x="881" y="-212" font-family="Helvetica,sans-Serif" font-size="10.00"> myEditor</text>
</g>
<!-- Node25 -->
<g id="node25" class="node"><title>Node25</title>
<polygon fill="white" stroke="#bfbfbf" points="997,-87.5 997,-106.5 1039,-106.5 1039,-87.5 997,-87.5"/>
<text text-anchor="middle" x="1018" y="-94.5" font-family="Helvetica,sans-Serif" font-size="10.00">HBox</text>
</g>
<!-- Node25&#45;&gt;Node24 -->
<g id="edge27" class="edge"><title>Node25&#45;&gt;Node24</title>
<path fill="none" stroke="midnightblue" d="M1049.4,-100.346C1082.31,-104.584 1135.99,-113.3 1180,-129 1196.77,-134.982 1214.58,-144.874 1226.78,-152.271"/>
<polygon fill="midnightblue" stroke="midnightblue" points="1049.43,-96.8241 1039.08,-99.0773 1048.58,-103.772 1049.43,-96.8241"/>
</g>
<!-- Node26 -->
<g id="node26" class="node"><title>Node26</title>
<polygon fill="white" stroke="#bfbfbf" points="993.5,-172.5 993.5,-191.5 1042.5,-191.5 1042.5,-172.5 993.5,-172.5"/>
<text text-anchor="middle" x="1018" y="-179.5" font-family="Helvetica,sans-Serif" font-size="10.00">Button</text>
</g>
<!-- Node26&#45;&gt;Node24 -->
<g id="edge28" class="edge"><title>Node26&#45;&gt;Node24</title>
<path fill="none" stroke="#9a32cd" stroke-dasharray="5,2" d="M1052.98,-178.953C1095.41,-175.147 1167.51,-168.681 1209.33,-164.93"/>
<polygon fill="#9a32cd" stroke="#9a32cd" points="1052.51,-175.48 1042.86,-179.86 1053.14,-182.452 1052.51,-175.48"/>
<text text-anchor="middle" x="1142" y="-177" font-family="Helvetica,sans-Serif" font-size="10.00"> runButton</text>
</g>
<!-- Node27 -->
<g id="node27" class="node"><title>Node27</title>
<polygon fill="white" stroke="#bfbfbf" points="989,-49.5 989,-68.5 1047,-68.5 1047,-49.5 989,-49.5"/>
<text text-anchor="middle" x="1018" y="-56.5" font-family="Helvetica,sans-Serif" font-size="10.00">TextArea</text>
</g>
<!-- Node27&#45;&gt;Node24 -->
<g id="edge30" class="edge"><title>Node27&#45;&gt;Node24</title>
<path fill="none" stroke="#9a32cd" stroke-dasharray="5,2" d="M1057.06,-61.1116C1091.23,-64.438 1141.75,-72.9958 1180,-95 1205,-109.383 1225.79,-137.179 1235.72,-152.047"/>
<polygon fill="#9a32cd" stroke="#9a32cd" points="1057.28,-57.6174 1047.01,-60.2381 1056.67,-64.5911 1057.28,-57.6174"/>
<text text-anchor="middle" x="1142" y="-98" font-family="Helvetica,sans-Serif" font-size="10.00"> textEditor</text>
</g>
<!-- Node28 -->
<g id="node28" class="node"><title>Node28</title>
<polygon fill="white" stroke="#bfbfbf" points="27.5,-316.5 27.5,-335.5 146.5,-335.5 146.5,-316.5 27.5,-316.5"/>
<text text-anchor="middle" x="87" y="-323.5" font-family="Helvetica,sans-Serif" font-size="10.00">Map&lt; String, Node &gt;</text>
</g>
<!-- Node28&#45;&gt;Node1 -->
<g id="edge32" class="edge"><title>Node28&#45;&gt;Node1</title>
<path fill="none" stroke="#9a32cd" stroke-dasharray="5,2" d="M156.899,-320.479C217.301,-315.639 303.343,-308.745 355.212,-304.589"/>
<polygon fill="#9a32cd" stroke="#9a32cd" points="156.373,-317.01 146.685,-321.298 156.932,-323.988 156.373,-317.01"/>
<text text-anchor="middle" x="248" y="-321" font-family="Helvetica,sans-Serif" font-size="10.00"> variables</text>
</g>
<!-- Node29 -->
<g id="node29" class="node"><title>Node29</title>
<polygon fill="white" stroke="#bfbfbf" points="46.5,-278.5 46.5,-297.5 127.5,-297.5 127.5,-278.5 46.5,-278.5"/>
<text text-anchor="middle" x="87" y="-285.5" font-family="Helvetica,sans-Serif" font-size="10.00">Dimension2D</text>
</g>
<!-- Node29&#45;&gt;Node1 -->
<g id="edge34" class="edge"><title>Node29&#45;&gt;Node1</title>
<path fill="none" stroke="#9a32cd" stroke-dasharray="5,2" d="M137.94,-288.307C181.74,-288.779 247.13,-289.975 304,-293 320.701,-293.888 339.003,-295.303 355.106,-296.698"/>
<polygon fill="#9a32cd" stroke="#9a32cd" points="137.872,-284.806 127.838,-288.207 137.803,-291.806 137.872,-284.806"/>
<text text-anchor="middle" x="248" y="-296" font-family="Helvetica,sans-Serif" font-size="10.00"> myDimensions</text>
</g>
<!-- Node30&#45;&gt;Node1 -->
<g id="edge35" class="edge"><title>Node30&#45;&gt;Node1</title>
<path fill="none" stroke="#9a32cd" stroke-dasharray="5,2" d="M1416.01,-512.683C1387.53,-546.497 1319.15,-617 1244,-617 880,-617 880,-617 880,-617 772.113,-617 721.379,-666.465 638,-598 615.164,-579.249 636.928,-558.218 620,-534 581.698,-479.203 544.318,-494.212 498,-446 455.122,-401.368 419.356,-335.236 406.807,-310.657"/>
<polygon fill="#9a32cd" stroke="#9a32cd" points="1419.02,-514.524 1422.66,-504.573 1413.61,-510.084 1419.02,-514.524"/>
<text text-anchor="middle" x="1018" y="-620" font-family="Helvetica,sans-Serif" font-size="10.00"> drawer</text>
</g>
<!-- Node31 -->
<g id="node31" class="node"><title>Node31</title>
<polygon fill="white" stroke="#bfbfbf" points="1222.5,-447.5 1222.5,-466.5 1263.5,-466.5 1263.5,-447.5 1222.5,-447.5"/>
<text text-anchor="middle" x="1243" y="-454.5" font-family="Helvetica,sans-Serif" font-size="10.00">Color</text>
</g>
<!-- Node31&#45;&gt;Node30 -->
<g id="edge37" class="edge"><title>Node31&#45;&gt;Node30</title>
<path fill="none" stroke="#9a32cd" stroke-dasharray="5,2" d="M1273.73,-461.324C1300.59,-465.433 1341.14,-472.142 1376,-480 1383.02,-481.583 1390.5,-483.505 1397.58,-485.436"/>
<polygon fill="#9a32cd" stroke="#9a32cd" points="1274.21,-457.857 1263.8,-459.828 1273.17,-464.779 1274.21,-457.857"/>
<text text-anchor="middle" x="1341" y="-483" font-family="Helvetica,sans-Serif" font-size="10.00"> myColor</text>
</g>
<!-- Node32 -->
<g id="node32" class="node"><title>Node32</title>
<polygon fill="white" stroke="#bfbfbf" points="64,-240.5 64,-259.5 110,-259.5 110,-240.5 64,-240.5"/>
<text text-anchor="middle" x="87" y="-247.5" font-family="Helvetica,sans-Serif" font-size="10.00">Group</text>
</g>
<!-- Node32&#45;&gt;Node1 -->
<g id="edge39" class="edge"><title>Node32&#45;&gt;Node1</title>
<path fill="none" stroke="#9a32cd" stroke-dasharray="5,2" d="M120.261,-252.223C162.683,-255.49 239.408,-262.587 304,-275 326.044,-279.236 350.455,-285.875 369.145,-291.383"/>
<polygon fill="#9a32cd" stroke="#9a32cd" points="120.477,-248.729 110.244,-251.474 119.955,-255.71 120.477,-248.729"/>
<text text-anchor="middle" x="248" y="-278" font-family="Helvetica,sans-Serif" font-size="10.00"> lines</text>
</g>
</g>
</svg>
