<?xml version="1.0" encoding="UTF-8" standalone="no"?>
<!DOCTYPE svg PUBLIC "-//W3C//DTD SVG 1.1//EN"
 "http://www.w3.org/Graphics/SVG/1.1/DTD/svg11.dtd">
<!-- Generated by graphviz version 2.36.0 (20140111.2315)
 -->
<!-- Title: view.SLogoView Pages: 1 -->
<svg width="1526pt" height="754pt"
 viewBox="0.00 0.00 1526.00 754.00" xmlns="http://www.w3.org/2000/svg" xmlns:xlink="http://www.w3.org/1999/xlink">
<g id="graph0" class="graph" transform="scale(1 1) rotate(0) translate(4 750)">
<title>view.SLogoView</title>
<polygon fill="white" stroke="none" points="-4,4 -4,-750 1522,-750 1522,4 -4,4"/>
<!-- Node1 -->
<g id="node1" class="node"><title>Node1</title>
<polygon fill="#bfbfbf" stroke="black" points="477.5,-270.5 477.5,-289.5 568.5,-289.5 568.5,-270.5 477.5,-270.5"/>
<text text-anchor="middle" x="523" y="-277.5" font-family="Helvetica,sans-Serif" font-size="10.00">view.SLogoView</text>
</g>
<!-- Node11 -->
<g id="node11" class="node"><title>Node11</title>
<g id="a_node11"><a xlink:href="../../dc/df5/classmodel_1_1_parser.html" target="_top" xlink:title="model.Parser">
<polygon fill="white" stroke="black" points="760,-158.5 760,-177.5 840,-177.5 840,-158.5 760,-158.5"/>
<text text-anchor="middle" x="800" y="-165.5" font-family="Helvetica,sans-Serif" font-size="10.00">model.Parser</text>
</a>
</g>
</g>
<!-- Node1&#45;&gt;Node11 -->
<g id="edge18" class="edge"><title>Node1&#45;&gt;Node11</title>
<path fill="none" stroke="#9a32cd" stroke-dasharray="5,2" d="M543.958,-264.402C562.596,-250.624 591.711,-231.052 620,-220 671.394,-199.92 689.773,-214.801 742,-197 756.503,-192.057 771.933,-184.016 783.077,-177.654"/>
<polygon fill="#9a32cd" stroke="#9a32cd" points="541.811,-261.638 535.937,-270.456 546.027,-267.225 541.811,-261.638"/>
<text text-anchor="middle" x="681" y="-223" font-family="Helvetica,sans-Serif" font-size="10.00"> mySLogoView</text>
</g>
<!-- Node2 -->
<g id="node2" class="node"><title>Node2</title>
<polygon fill="white" stroke="#bfbfbf" points="179,-136.5 179,-155.5 239,-155.5 239,-136.5 179,-136.5"/>
<text text-anchor="middle" x="209" y="-143.5" font-family="Helvetica,sans-Serif" font-size="10.00">Observer</text>
</g>
<!-- Node2&#45;&gt;Node1 -->
<g id="edge1" class="edge"><title>Node2&#45;&gt;Node1</title>
<path fill="none" stroke="midnightblue" d="M249.356,-148.68C294.781,-153.284 370.365,-165.704 426,-199 436.261,-205.141 435.257,-210.841 444,-219 465.115,-238.704 492.109,-258.817 508.171,-270.316"/>
<polygon fill="midnightblue" stroke="midnightblue" points="249.596,-145.187 239.314,-147.74 248.944,-152.157 249.596,-145.187"/>
</g>
<!-- Node2&#45;&gt;Node11 -->
<g id="edge11" class="edge"><title>Node2&#45;&gt;Node11</title>
<path fill="none" stroke="midnightblue" d="M249.397,-142.922C295.877,-139.458 375.502,-134.047 444,-132 514.191,-129.902 531.822,-129.497 602,-132 664.341,-134.224 681.553,-126.589 742,-142 756.123,-145.601 771.078,-152.555 782.125,-158.367"/>
<polygon fill="midnightblue" stroke="midnightblue" points="248.868,-139.452 239.159,-143.694 249.394,-146.432 248.868,-139.452"/>
</g>
<!-- Node3 -->
<g id="node3" class="node"><title>Node3</title>
<g id="a_node3"><a xlink:href="../../da/d64/classview_1_1_workspace.html" target="_top" xlink:title="view.Workspace">
<polygon fill="white" stroke="black" points="1428,-630.5 1428,-649.5 1518,-649.5 1518,-630.5 1428,-630.5"/>
<text text-anchor="middle" x="1473" y="-637.5" font-family="Helvetica,sans-Serif" font-size="10.00">view.Workspace</text>
</a>
</g>
</g>
<!-- Node3&#45;&gt;Node1 -->
<g id="edge2" class="edge"><title>Node3&#45;&gt;Node1</title>
<path fill="none" stroke="#9a32cd" stroke-dasharray="5,2" d="M1417.84,-639.326C1318.22,-636.424 1100.65,-622.294 932,-556 755.311,-486.544 578.245,-329.995 534.329,-289.637"/>
<polygon fill="#9a32cd" stroke="#9a32cd" points="1417.88,-642.828 1427.97,-639.593 1418.07,-635.83 1417.88,-642.828"/>
<text text-anchor="middle" x="1012" y="-604" font-family="Helvetica,sans-Serif" font-size="10.00"> myWorkspace</text>
</g>
<!-- Node4 -->
<g id="node4" class="node"><title>Node4</title>
<polygon fill="white" stroke="#bfbfbf" points="1239.5,-726.5 1239.5,-745.5 1306.5,-745.5 1306.5,-726.5 1239.5,-726.5"/>
<text text-anchor="middle" x="1273" y="-733.5" font-family="Helvetica,sans-Serif" font-size="10.00">StackPane</text>
</g>
<!-- Node4&#45;&gt;Node3 -->
<g id="edge3" class="edge"><title>Node4&#45;&gt;Node3</title>
<path fill="none" stroke="midnightblue" d="M1316.99,-733.091C1345,-729.664 1381.48,-722.21 1410,-706 1434.87,-691.861 1455.72,-664.467 1465.69,-649.812"/>
<polygon fill="midnightblue" stroke="midnightblue" points="1316.27,-729.649 1306.71,-734.217 1317.03,-736.607 1316.27,-729.649"/>
</g>
<!-- Node5 -->
<g id="node5" class="node"><title>Node5</title>
<g id="a_node5"><a xlink:href="../../d8/df7/classview_1_1_turtle_view.html" target="_top" xlink:title="view.TurtleView">
<polygon fill="white" stroke="black" points="1230,-688.5 1230,-707.5 1316,-707.5 1316,-688.5 1230,-688.5"/>
<text text-anchor="middle" x="1273" y="-695.5" font-family="Helvetica,sans-Serif" font-size="10.00">view.TurtleView</text>
</a>
</g>
</g>
<!-- Node5&#45;&gt;Node3 -->
<g id="edge4" class="edge"><title>Node5&#45;&gt;Node3</title>
<path fill="none" stroke="#9a32cd" stroke-dasharray="5,2" d="M1326.2,-692.845C1351.94,-689.29 1383.14,-683.444 1410,-674 1427.37,-667.891 1445.67,-657.268 1457.85,-649.518"/>
<polygon fill="#9a32cd" stroke="#9a32cd" points="1325.73,-689.377 1316.27,-694.142 1326.64,-696.318 1325.73,-689.377"/>
<text text-anchor="middle" x="1372" y="-694" font-family="Helvetica,sans-Serif" font-size="10.00"> myActiveTurtle</text>
</g>
<!-- Node6 -->
<g id="node6" class="node"><title>Node6</title>
<polygon fill="white" stroke="#bfbfbf" points="978,-688.5 978,-707.5 1046,-707.5 1046,-688.5 978,-688.5"/>
<text text-anchor="middle" x="1012" y="-695.5" font-family="Helvetica,sans-Serif" font-size="10.00">ImageView</text>
</g>
<!-- Node6&#45;&gt;Node5 -->
<g id="edge5" class="edge"><title>Node6&#45;&gt;Node5</title>
<path fill="none" stroke="midnightblue" d="M1056.18,-698C1104.37,-698 1181.85,-698 1229.69,-698"/>
<polygon fill="midnightblue" stroke="midnightblue" points="1056.07,-694.5 1046.07,-698 1056.07,-701.5 1056.07,-694.5"/>
</g>
<!-- Node7 -->
<g id="node7" class="node"><title>Node7</title>
<polygon fill="white" stroke="#bfbfbf" points="141,-560 141,-590 277,-590 277,-560 141,-560"/>
<text text-anchor="start" x="149" y="-578" font-family="Helvetica,sans-Serif" font-size="10.00">Map&lt; Integer, view.Turtle</text>
<text text-anchor="middle" x="209" y="-567" font-family="Helvetica,sans-Serif" font-size="10.00">View &gt;</text>
</g>
<!-- Node7&#45;&gt;Node1 -->
<g id="edge36" class="edge"><title>Node7&#45;&gt;Node1</title>
<path fill="none" stroke="#9a32cd" stroke-dasharray="5,2" d="M238.213,-553.685C280.725,-521.036 362.94,-455.805 426,-393 461.931,-357.214 499.411,-309.589 514.779,-289.537"/>
<polygon fill="#9a32cd" stroke="#9a32cd" points="235.828,-551.103 230.011,-559.958 240.08,-556.663 235.828,-551.103"/>
<text text-anchor="middle" x="370" y="-493" font-family="Helvetica,sans-Serif" font-size="10.00"> myTurtles</text>
</g>
<!-- Node7&#45;&gt;Node3 -->
<g id="edge6" class="edge"><title>Node7&#45;&gt;Node3</title>
<path fill="none" stroke="#9a32cd" stroke-dasharray="5,2" d="M251.797,-594.028C310.752,-619.085 422.287,-660 522,-660 522,-660 522,-660 1274,-660 1327.03,-660 1387.66,-652.809 1427.7,-647.051"/>
<polygon fill="#9a32cd" stroke="#9a32cd" points="253.02,-590.744 242.451,-590.001 250.25,-597.172 253.02,-590.744"/>
<text text-anchor="middle" x="886" y="-663" font-family="Helvetica,sans-Serif" font-size="10.00"> myTurtles</text>
</g>
<!-- Node8 -->
<g id="node8" class="node"><title>Node8</title>
<g id="a_node8"><a xlink:href="../../d1/dc7/classview_1_1_side_bar.html" target="_top" xlink:title="view.SideBar">
<polygon fill="white" stroke="black" points="1234.5,-429.5 1234.5,-448.5 1311.5,-448.5 1311.5,-429.5 1234.5,-429.5"/>
<text text-anchor="middle" x="1273" y="-436.5" font-family="Helvetica,sans-Serif" font-size="10.00">view.SideBar</text>
</a>
</g>
</g>
<!-- Node7&#45;&gt;Node8 -->
<g id="edge20" class="edge"><title>Node7&#45;&gt;Node8</title>
<path fill="none" stroke="#9a32cd" stroke-dasharray="5,2" d="M287.525,-575C350.655,-575 442.084,-575 522,-575 522,-575 522,-575 1013,-575 1103.68,-575 1137.42,-581.584 1212,-530 1242.19,-509.116 1261.08,-467.625 1268.46,-448.752"/>
<polygon fill="#9a32cd" stroke="#9a32cd" points="287.252,-571.5 277.252,-575 287.252,-578.5 287.252,-571.5"/>
<text text-anchor="middle" x="800" y="-578" font-family="Helvetica,sans-Serif" font-size="10.00"> myTurtles</text>
</g>
<!-- Node8&#45;&gt;Node1 -->
<g id="edge39" class="edge"><title>Node8&#45;&gt;Node1</title>
<path fill="none" stroke="#9a32cd" stroke-dasharray="5,2" d="M1240.71,-424.079C1236.71,-421.168 1232.98,-417.813 1230,-414 1212.87,-392.052 1233.47,-371.725 1212,-354 1161.02,-311.907 685.616,-302.106 620,-294 603.284,-291.935 584.979,-289.347 568.877,-286.96"/>
<polygon fill="#9a32cd" stroke="#9a32cd" points="1238.84,-427.037 1249.16,-429.436 1242.59,-421.125 1238.84,-427.037"/>
<text text-anchor="middle" x="886" y="-314" font-family="Helvetica,sans-Serif" font-size="10.00"> mySidebar</text>
</g>
<!-- Node8&#45;&gt;Node3 -->
<g id="edge7" class="edge"><title>Node8&#45;&gt;Node3</title>
<path fill="none" stroke="#9a32cd" stroke-dasharray="5,2" d="M1292.81,-455.489C1319.65,-479.282 1370.1,-525.006 1410,-567 1430.62,-588.696 1452.89,-615.972 1464.3,-630.255"/>
<polygon fill="#9a32cd" stroke="#9a32cd" points="1294.78,-452.562 1284.97,-448.567 1290.15,-457.809 1294.78,-452.562"/>
<text text-anchor="middle" x="1372" y="-570" font-family="Helvetica,sans-Serif" font-size="10.00"> mySidebar</text>
</g>
<!-- Node25 -->
<g id="node25" class="node"><title>Node25</title>
<g id="a_node25"><a xlink:href="../../da/dc8/classview_1_1_editor.html" target="_top" xlink:title="view.Editor">
<polygon fill="white" stroke="black" points="1439.5,-328.5 1439.5,-347.5 1506.5,-347.5 1506.5,-328.5 1439.5,-328.5"/>
<text text-anchor="middle" x="1473" y="-335.5" font-family="Helvetica,sans-Serif" font-size="10.00">view.Editor</text>
</a>
</g>
</g>
<!-- Node8&#45;&gt;Node25 -->
<g id="edge32" class="edge"><title>Node8&#45;&gt;Node25</title>
<path fill="none" stroke="#9a32cd" stroke-dasharray="5,2" d="M1321.6,-431.486C1348.84,-425.727 1382.88,-415.974 1410,-400 1433.35,-386.248 1454.2,-361.645 1464.74,-347.93"/>
<polygon fill="#9a32cd" stroke="#9a32cd" points="1320.64,-428.108 1311.52,-433.502 1322.01,-434.972 1320.64,-428.108"/>
<text text-anchor="middle" x="1372" y="-432" font-family="Helvetica,sans-Serif" font-size="10.00"> mySidebar</text>
</g>
<!-- Node9 -->
<g id="node9" class="node"><title>Node9</title>
<polygon fill="white" stroke="#bfbfbf" points="991.5,-527.5 991.5,-546.5 1032.5,-546.5 1032.5,-527.5 991.5,-527.5"/>
<text text-anchor="middle" x="1012" y="-534.5" font-family="Helvetica,sans-Serif" font-size="10.00">VBox</text>
</g>
<!-- Node9&#45;&gt;Node8 -->
<g id="edge8" class="edge"><title>Node9&#45;&gt;Node8</title>
<path fill="none" stroke="midnightblue" d="M1042.72,-537.433C1083.34,-536.814 1157.36,-531.279 1212,-502 1235.96,-489.158 1255.89,-463.229 1265.61,-448.965"/>
<polygon fill="midnightblue" stroke="midnightblue" points="1042.65,-533.934 1032.67,-537.495 1042.69,-540.934 1042.65,-533.934"/>
</g>
<!-- Node10 -->
<g id="node10" class="node"><title>Node10</title>
<g id="a_node10"><a xlink:href="../../d4/dd9/classcontroller_1_1_s_logo_controller.html" target="_top" xlink:title="controller.SLogoController">
<polygon fill="white" stroke="black" points="942,-267.5 942,-286.5 1082,-286.5 1082,-267.5 942,-267.5"/>
<text text-anchor="middle" x="1012" y="-274.5" font-family="Helvetica,sans-Serif" font-size="10.00">controller.SLogoController</text>
</a>
</g>
</g>
<!-- Node10&#45;&gt;Node1 -->
<g id="edge34" class="edge"><title>Node10&#45;&gt;Node1</title>
<path fill="none" stroke="#9a32cd" stroke-dasharray="5,2" d="M931.543,-277.489C828.117,-278.127 650.884,-279.218 568.509,-279.726"/>
<polygon fill="#9a32cd" stroke="#9a32cd" points="931.645,-280.989 941.623,-277.427 931.602,-273.989 931.645,-280.989"/>
<text text-anchor="middle" x="800" y="-282" font-family="Helvetica,sans-Serif" font-size="10.00"> myController</text>
</g>
<!-- Node10&#45;&gt;Node8 -->
<g id="edge9" class="edge"><title>Node10&#45;&gt;Node8</title>
<path fill="none" stroke="#9a32cd" stroke-dasharray="5,2" d="M1092.24,-284.925C1143.87,-290.836 1203.23,-299.353 1212,-308 1246.02,-341.558 1202.98,-374.589 1230,-414 1234.41,-420.439 1241.08,-425.478 1247.81,-429.293"/>
<polygon fill="#9a32cd" stroke="#9a32cd" points="1092.36,-281.416 1082.03,-283.778 1091.58,-288.373 1092.36,-281.416"/>
<text text-anchor="middle" x="1161" y="-311" font-family="Helvetica,sans-Serif" font-size="10.00"> myController</text>
</g>
<!-- Node10&#45;&gt;Node25 -->
<g id="edge30" class="edge"><title>Node10&#45;&gt;Node25</title>
<path fill="none" stroke="#9a32cd" stroke-dasharray="5,2" d="M1092.16,-274.444C1153.65,-273.825 1240.83,-275.944 1316,-289 1364.25,-297.379 1418.3,-316.714 1448.44,-328.436"/>
<polygon fill="#9a32cd" stroke="#9a32cd" points="1092.09,-270.944 1082.14,-274.571 1092.18,-277.943 1092.09,-270.944"/>
<text text-anchor="middle" x="1273" y="-292" font-family="Helvetica,sans-Serif" font-size="10.00"> myController</text>
</g>
<!-- Node11&#45;&gt;Node10 -->
<g id="edge10" class="edge"><title>Node11&#45;&gt;Node10</title>
<path fill="none" stroke="#9a32cd" stroke-dasharray="5,2" d="M822.692,-183.423C848.029,-200.953 891.631,-229.639 932,-249 947.088,-256.236 964.563,-262.622 979.235,-267.46"/>
<polygon fill="#9a32cd" stroke="#9a32cd" points="824.426,-180.365 814.224,-177.508 820.418,-186.104 824.426,-180.365"/>
<text text-anchor="middle" x="886" y="-243" font-family="Helvetica,sans-Serif" font-size="10.00"> myParser</text>
</g>
<!-- Node12 -->
<g id="node12" class="node"><title>Node12</title>
<polygon fill="white" stroke="#bfbfbf" points="467,-180 467,-210 579,-210 579,-180 467,-180"/>
<text text-anchor="start" x="475" y="-198" font-family="Helvetica,sans-Serif" font-size="10.00">List&lt; Entry&lt; String,</text>
<text text-anchor="middle" x="523" y="-187" font-family="Helvetica,sans-Serif" font-size="10.00"> Pattern &gt; &gt;</text>
</g>
<!-- Node12&#45;&gt;Node11 -->
<g id="edge12" class="edge"><title>Node12&#45;&gt;Node11</title>
<path fill="none" stroke="#9a32cd" stroke-dasharray="5,2" d="M589.31,-188.588C642.334,-183.382 715.352,-176.213 759.753,-171.853"/>
<polygon fill="#9a32cd" stroke="#9a32cd" points="588.93,-185.108 579.32,-189.569 589.614,-192.075 588.93,-185.108"/>
<text text-anchor="middle" x="681" y="-189" font-family="Helvetica,sans-Serif" font-size="10.00"> myPatterns</text>
</g>
<!-- Node13 -->
<g id="node13" class="node"><title>Node13</title>
<g id="a_node13"><a xlink:href="../../d1/dca/classmodel_1_1_execution_environment.html" target="_top" xlink:title="model.ExecutionEnvironment">
<polygon fill="white" stroke="black" points="444.5,-52.5 444.5,-71.5 601.5,-71.5 601.5,-52.5 444.5,-52.5"/>
<text text-anchor="middle" x="523" y="-59.5" font-family="Helvetica,sans-Serif" font-size="10.00">model.ExecutionEnvironment</text>
</a>
</g>
</g>
<!-- Node13&#45;&gt;Node11 -->
<g id="edge13" class="edge"><title>Node13&#45;&gt;Node11</title>
<path fill="none" stroke="#9a32cd" stroke-dasharray="5,2" d="M611.755,-56.5151C653.765,-57.7137 703.231,-65.0122 742,-88 770.018,-104.613 787.957,-140.969 795.261,-158.36"/>
<polygon fill="#9a32cd" stroke="#9a32cd" points="611.585,-53.0117 601.526,-56.3376 611.464,-60.0107 611.585,-53.0117"/>
<text text-anchor="middle" x="681" y="-91" font-family="Helvetica,sans-Serif" font-size="10.00"> myExecutionParameters</text>
</g>
<!-- Node14 -->
<g id="node14" class="node"><title>Node14</title>
<polygon fill="white" stroke="#bfbfbf" points="173.5,-0.5 173.5,-19.5 244.5,-19.5 244.5,-0.5 173.5,-0.5"/>
<text text-anchor="middle" x="209" y="-7.5" font-family="Helvetica,sans-Serif" font-size="10.00">Observable</text>
</g>
<!-- Node14&#45;&gt;Node13 -->
<g id="edge14" class="edge"><title>Node14&#45;&gt;Node13</title>
<path fill="none" stroke="midnightblue" d="M254.774,-17.4623C310.094,-26.6824 404.299,-42.3832 464.804,-52.4674"/>
<polygon fill="midnightblue" stroke="midnightblue" points="255.021,-13.9553 244.582,-15.7636 253.87,-20.86 255.021,-13.9553"/>
</g>
<!-- Node15 -->
<g id="node15" class="node"><title>Node15</title>
<polygon fill="white" stroke="#bfbfbf" points="122,-77 122,-107 296,-107 296,-77 122,-77"/>
<text text-anchor="start" x="130" y="-95" font-family="Helvetica,sans-Serif" font-size="10.00">Map&lt; String, model.instructions.</text>
<text text-anchor="middle" x="209" y="-84" font-family="Helvetica,sans-Serif" font-size="10.00">Instruction &gt;</text>
</g>
<!-- Node15&#45;&gt;Node13 -->
<g id="edge15" class="edge"><title>Node15&#45;&gt;Node13</title>
<path fill="none" stroke="#9a32cd" stroke-dasharray="5,2" d="M306.305,-82.7399C350.685,-78.4726 402.655,-73.4755 444.461,-69.4557"/>
<polygon fill="#9a32cd" stroke="#9a32cd" points="305.7,-79.2818 296.081,-83.723 306.37,-86.2497 305.7,-79.2818"/>
<text text-anchor="middle" x="370" y="-85" font-family="Helvetica,sans-Serif" font-size="10.00"> myUserInstructionMap</text>
</g>
<!-- Node16 -->
<g id="node16" class="node"><title>Node16</title>
<polygon fill="white" stroke="#bfbfbf" points="145,-38.5 145,-57.5 273,-57.5 273,-38.5 145,-38.5"/>
<text text-anchor="middle" x="209" y="-45.5" font-family="Helvetica,sans-Serif" font-size="10.00">Map&lt; String, Double &gt;</text>
</g>
<!-- Node16&#45;&gt;Node13 -->
<g id="edge16" class="edge"><title>Node16&#45;&gt;Node13</title>
<path fill="none" stroke="#9a32cd" stroke-dasharray="5,2" d="M283.46,-49.0322C325.266,-49.8722 378.593,-51.3683 426,-54 432.012,-54.3337 438.231,-54.7318 444.48,-55.1695"/>
<polygon fill="#9a32cd" stroke="#9a32cd" points="283.429,-45.531 273.363,-48.8375 283.294,-52.5297 283.429,-45.531"/>
<text text-anchor="middle" x="370" y="-57" font-family="Helvetica,sans-Serif" font-size="10.00"> myVariableMap</text>
</g>
<!-- Node17 -->
<g id="node17" class="node"><title>Node17</title>
<polygon fill="white" stroke="#bfbfbf" points="462,-141.5 462,-160.5 584,-160.5 584,-141.5 462,-141.5"/>
<text text-anchor="middle" x="523" y="-148.5" font-family="Helvetica,sans-Serif" font-size="10.00">Map&lt; String, String &gt;</text>
</g>
<!-- Node17&#45;&gt;Node11 -->
<g id="edge17" class="edge"><title>Node17&#45;&gt;Node11</title>
<path fill="none" stroke="#9a32cd" stroke-dasharray="5,2" d="M594.506,-146.548C637.362,-145.025 693.073,-145.149 742,-152 751.568,-153.34 761.795,-155.853 770.906,-158.497"/>
<polygon fill="#9a32cd" stroke="#9a32cd" points="594.311,-143.053 584.457,-146.944 594.587,-150.048 594.311,-143.053"/>
<text text-anchor="middle" x="681" y="-155" font-family="Helvetica,sans-Serif" font-size="10.00"> myCommandMap</text>
</g>
<!-- Node18 -->
<g id="node18" class="node"><title>Node18</title>
<polygon fill="white" stroke="#bfbfbf" points="945,-478 945,-508 1079,-508 1079,-478 945,-478"/>
<text text-anchor="start" x="953" y="-496" font-family="Helvetica,sans-Serif" font-size="10.00">TableView&lt; view.Variable</text>
<text text-anchor="middle" x="1012" y="-485" font-family="Helvetica,sans-Serif" font-size="10.00">View &gt;</text>
</g>
<!-- Node18&#45;&gt;Node8 -->
<g id="edge19" class="edge"><title>Node18&#45;&gt;Node8</title>
<path fill="none" stroke="#9a32cd" stroke-dasharray="5,2" d="M1089.53,-481.225C1126.7,-474.981 1171.9,-466.611 1212,-457 1222.05,-454.592 1232.9,-451.493 1242.58,-448.546"/>
<polygon fill="#9a32cd" stroke="#9a32cd" points="1088.56,-477.838 1079.27,-482.93 1089.71,-484.744 1088.56,-477.838"/>
<text text-anchor="middle" x="1161" y="-490" font-family="Helvetica,sans-Serif" font-size="10.00"> turtlePropertiesTable</text>
<text text-anchor="middle" x="1161" y="-479" font-family="Helvetica,sans-Serif" font-size="10.00">variablesTable</text>
</g>
<!-- Node19 -->
<g id="node19" class="node"><title>Node19</title>
<polygon fill="white" stroke="#bfbfbf" points="932.5,-429 932.5,-459 1091.5,-459 1091.5,-429 932.5,-429"/>
<text text-anchor="start" x="940.5" y="-447" font-family="Helvetica,sans-Serif" font-size="10.00">ObservableList&lt; view.Variable</text>
<text text-anchor="middle" x="1012" y="-436" font-family="Helvetica,sans-Serif" font-size="10.00">View &gt;</text>
</g>
<!-- Node19&#45;&gt;Node8 -->
<g id="edge21" class="edge"><title>Node19&#45;&gt;Node8</title>
<path fill="none" stroke="#9a32cd" stroke-dasharray="5,2" d="M1101.89,-442.284C1147.15,-441.41 1199.77,-440.394 1234.36,-439.727"/>
<polygon fill="#9a32cd" stroke="#9a32cd" points="1101.69,-438.787 1091.76,-442.479 1101.83,-445.786 1101.69,-438.787"/>
<text text-anchor="middle" x="1161" y="-445" font-family="Helvetica,sans-Serif" font-size="10.00"> variablesList</text>
</g>
<!-- Node20 -->
<g id="node20" class="node"><title>Node20</title>
<polygon fill="white" stroke="#bfbfbf" points="943,-390.5 943,-409.5 1081,-409.5 1081,-390.5 943,-390.5"/>
<text text-anchor="middle" x="1012" y="-397.5" font-family="Helvetica,sans-Serif" font-size="10.00">ObservableList&lt; String &gt;</text>
</g>
<!-- Node20&#45;&gt;Node8 -->
<g id="edge22" class="edge"><title>Node20&#45;&gt;Node8</title>
<path fill="none" stroke="#9a32cd" stroke-dasharray="5,2" d="M1091.29,-399.673C1128.32,-400.995 1172.88,-404.736 1212,-414 1226.39,-417.406 1241.76,-423.873 1253.34,-429.376"/>
<polygon fill="#9a32cd" stroke="#9a32cd" points="1091.16,-396.167 1081.06,-399.361 1090.95,-403.164 1091.16,-396.167"/>
<text text-anchor="middle" x="1161" y="-428" font-family="Helvetica,sans-Serif" font-size="10.00"> commandItems</text>
<text text-anchor="middle" x="1161" y="-417" font-family="Helvetica,sans-Serif" font-size="10.00">historyItems</text>
</g>
<!-- Node21 -->
<g id="node21" class="node"><title>Node21</title>
<polygon fill="white" stroke="#bfbfbf" points="959,-352.5 959,-371.5 1065,-371.5 1065,-352.5 959,-352.5"/>
<text text-anchor="middle" x="1012" y="-359.5" font-family="Helvetica,sans-Serif" font-size="10.00">ListView&lt; String &gt;</text>
</g>
<!-- Node21&#45;&gt;Node8 -->
<g id="edge23" class="edge"><title>Node21&#45;&gt;Node8</title>
<path fill="none" stroke="#9a32cd" stroke-dasharray="5,2" d="M1075.24,-356.338C1116.93,-355.545 1171.41,-360.566 1212,-386 1224.54,-393.855 1219.36,-403.721 1230,-414 1236.22,-420.014 1244.16,-425.204 1251.45,-429.273"/>
<polygon fill="#9a32cd" stroke="#9a32cd" points="1075.09,-352.841 1065.21,-356.645 1075.31,-359.838 1075.09,-352.841"/>
<text text-anchor="middle" x="1161" y="-389" font-family="Helvetica,sans-Serif" font-size="10.00"> historyList</text>
</g>
<!-- Node22 -->
<g id="node22" class="node"><title>Node22</title>
<polygon fill="white" stroke="#bfbfbf" points="1241.5,-573.5 1241.5,-592.5 1304.5,-592.5 1304.5,-573.5 1241.5,-573.5"/>
<text text-anchor="middle" x="1273" y="-580.5" font-family="Helvetica,sans-Serif" font-size="10.00">Rectangle</text>
</g>
<!-- Node22&#45;&gt;Node3 -->
<g id="edge24" class="edge"><title>Node22&#45;&gt;Node3</title>
<path fill="none" stroke="#9a32cd" stroke-dasharray="5,2" d="M1314.83,-581.467C1342.5,-581.722 1379.45,-584.631 1410,-596 1430.53,-603.641 1450.51,-619.874 1462.01,-630.342"/>
<polygon fill="#9a32cd" stroke="#9a32cd" points="1314.71,-577.967 1304.71,-581.487 1314.72,-584.967 1314.71,-577.967"/>
<text text-anchor="middle" x="1372" y="-599" font-family="Helvetica,sans-Serif" font-size="10.00"> myBackground</text>
</g>
<!-- Node23 -->
<g id="node23" class="node"><title>Node23</title>
<polygon fill="white" stroke="#bfbfbf" points="186.5,-374.5 186.5,-393.5 231.5,-393.5 231.5,-374.5 186.5,-374.5"/>
<text text-anchor="middle" x="209" y="-381.5" font-family="Helvetica,sans-Serif" font-size="10.00">Stage</text>
</g>
<!-- Node23&#45;&gt;Node1 -->
<g id="edge25" class="edge"><title>Node23&#45;&gt;Node1</title>
<path fill="none" stroke="#9a32cd" stroke-dasharray="5,2" d="M241.959,-383.614C285.263,-382.071 364.256,-375.603 426,-350 461.44,-335.304 496.059,-305.011 512.341,-289.543"/>
<polygon fill="#9a32cd" stroke="#9a32cd" points="241.645,-380.121 231.75,-383.909 241.847,-387.118 241.645,-380.121"/>
<text text-anchor="middle" x="370" y="-381" font-family="Helvetica,sans-Serif" font-size="10.00"> myStage</text>
</g>
<!-- Node24 -->
<g id="node24" class="node"><title>Node24</title>
<polygon fill="white" stroke="#bfbfbf" points="162.5,-336.5 162.5,-355.5 255.5,-355.5 255.5,-336.5 162.5,-336.5"/>
<text text-anchor="middle" x="209" y="-343.5" font-family="Helvetica,sans-Serif" font-size="10.00">ResourceBundle</text>
</g>
<!-- Node24&#45;&gt;Node1 -->
<g id="edge26" class="edge"><title>Node24&#45;&gt;Node1</title>
<path fill="none" stroke="#9a32cd" stroke-dasharray="5,2" d="M265.79,-340.732C309.749,-335.864 372.358,-327.339 426,-314 451.566,-307.642 479.893,-297.168 499.106,-289.522"/>
<polygon fill="#9a32cd" stroke="#9a32cd" points="265.158,-337.28 255.591,-341.833 265.909,-344.239 265.158,-337.28"/>
<text text-anchor="middle" x="370" y="-338" font-family="Helvetica,sans-Serif" font-size="10.00"> myResources</text>
</g>
<!-- Node25&#45;&gt;Node1 -->
<g id="edge27" class="edge"><title>Node25&#45;&gt;Node1</title>
<path fill="none" stroke="#9a32cd" stroke-dasharray="5,2" d="M1454.5,-321.262C1421.83,-291.854 1348.14,-234 1274,-234 885,-234 885,-234 885,-234 770.17,-234 636.429,-257.186 568.509,-270.636"/>
<polygon fill="#9a32cd" stroke="#9a32cd" points="1452.52,-324.198 1462.25,-328.402 1457.27,-319.051 1452.52,-324.198"/>
<text text-anchor="middle" x="1012" y="-237" font-family="Helvetica,sans-Serif" font-size="10.00"> myEditor</text>
</g>
<!-- Node26 -->
<g id="node26" class="node"><title>Node26</title>
<polygon fill="white" stroke="#bfbfbf" points="1252,-309.5 1252,-328.5 1294,-328.5 1294,-309.5 1252,-309.5"/>
<text text-anchor="middle" x="1273" y="-316.5" font-family="Helvetica,sans-Serif" font-size="10.00">HBox</text>
</g>
<!-- Node26&#45;&gt;Node25 -->
<g id="edge28" class="edge"><title>Node26&#45;&gt;Node25</title>
<path fill="none" stroke="midnightblue" d="M1304.11,-321.89C1340.62,-325.393 1401.9,-331.273 1439.46,-334.878"/>
<polygon fill="midnightblue" stroke="midnightblue" points="1304.36,-318.398 1294.07,-320.926 1303.69,-325.366 1304.36,-318.398"/>
</g>
<!-- Node27 -->
<g id="node27" class="node"><title>Node27</title>
<polygon fill="white" stroke="#bfbfbf" points="1248.5,-385.5 1248.5,-404.5 1297.5,-404.5 1297.5,-385.5 1248.5,-385.5"/>
<text text-anchor="middle" x="1273" y="-392.5" font-family="Helvetica,sans-Serif" font-size="10.00">Button</text>
</g>
<!-- Node27&#45;&gt;Node25 -->
<g id="edge29" class="edge"><title>Node27&#45;&gt;Node25</title>
<path fill="none" stroke="#9a32cd" stroke-dasharray="5,2" d="M1307.52,-389.913C1335.38,-385.198 1375.83,-377.215 1410,-366 1425.15,-361.028 1441.56,-353.513 1453.69,-347.52"/>
<polygon fill="#9a32cd" stroke="#9a32cd" points="1306.8,-386.484 1297.5,-391.559 1307.94,-393.391 1306.8,-386.484"/>
<text text-anchor="middle" x="1372" y="-388" font-family="Helvetica,sans-Serif" font-size="10.00"> runButton</text>
</g>
<!-- Node28 -->
<g id="node28" class="node"><title>Node28</title>
<polygon fill="white" stroke="#bfbfbf" points="1244,-347.5 1244,-366.5 1302,-366.5 1302,-347.5 1244,-347.5"/>
<text text-anchor="middle" x="1273" y="-354.5" font-family="Helvetica,sans-Serif" font-size="10.00">TextArea</text>
</g>
<!-- Node28&#45;&gt;Node25 -->
<g id="edge31" class="edge"><title>Node28&#45;&gt;Node25</title>
<path fill="none" stroke="#9a32cd" stroke-dasharray="5,2" d="M1312.74,-353.282C1349.67,-349.739 1404.66,-344.462 1439.4,-341.128"/>
<polygon fill="#9a32cd" stroke="#9a32cd" points="1311.99,-349.838 1302.37,-354.278 1312.66,-356.806 1311.99,-349.838"/>
<text text-anchor="middle" x="1372" y="-354" font-family="Helvetica,sans-Serif" font-size="10.00"> textEditor</text>
</g>
<!-- Node29 -->
<g id="node29" class="node"><title>Node29</title>
<polygon fill="white" stroke="#bfbfbf" points="149.5,-298.5 149.5,-317.5 268.5,-317.5 268.5,-298.5 149.5,-298.5"/>
<text text-anchor="middle" x="209" y="-305.5" font-family="Helvetica,sans-Serif" font-size="10.00">Map&lt; String, Node &gt;</text>
</g>
<!-- Node29&#45;&gt;Node1 -->
<g id="edge33" class="edge"><title>Node29&#45;&gt;Node1</title>
<path fill="none" stroke="#9a32cd" stroke-dasharray="5,2" d="M278.899,-301.817C339.301,-296.396 425.343,-288.674 477.212,-284.019"/>
<polygon fill="#9a32cd" stroke="#9a32cd" points="278.332,-298.353 268.685,-302.733 278.958,-305.325 278.332,-298.353"/>
<text text-anchor="middle" x="370" y="-302" font-family="Helvetica,sans-Serif" font-size="10.00"> variables</text>
</g>
<!-- Node30 -->
<g id="node30" class="node"><title>Node30</title>
<polygon fill="white" stroke="#bfbfbf" points="168.5,-260.5 168.5,-279.5 249.5,-279.5 249.5,-260.5 168.5,-260.5"/>
<text text-anchor="middle" x="209" y="-267.5" font-family="Helvetica,sans-Serif" font-size="10.00">Dimension2D</text>
</g>
<!-- Node30&#45;&gt;Node1 -->
<g id="edge35" class="edge"><title>Node30&#45;&gt;Node1</title>
<path fill="none" stroke="#9a32cd" stroke-dasharray="5,2" d="M259.92,-270.747C303.707,-271.499 369.089,-272.86 426,-275 442.677,-275.627 460.974,-276.527 477.08,-277.391"/>
<polygon fill="#9a32cd" stroke="#9a32cd" points="259.878,-267.246 249.821,-270.577 259.761,-274.245 259.878,-267.246"/>
<text text-anchor="middle" x="370" y="-278" font-family="Helvetica,sans-Serif" font-size="10.00"> myDimensions</text>
</g>
<!-- Node31 -->
<g id="node31" class="node"><title>Node31</title>
<g id="a_node31"><a xlink:href="../../de/d0a/classview_1_1_drawer.html" target="_top" xlink:title="view.Drawer">
<polygon fill="white" stroke="black" points="172.5,-222.5 172.5,-241.5 245.5,-241.5 245.5,-222.5 172.5,-222.5"/>
<text text-anchor="middle" x="209" y="-229.5" font-family="Helvetica,sans-Serif" font-size="10.00">view.Drawer</text>
</a>
</g>
</g>
<!-- Node31&#45;&gt;Node1 -->
<g id="edge37" class="edge"><title>Node31&#45;&gt;Node1</title>
<path fill="none" stroke="#9a32cd" stroke-dasharray="5,2" d="M255.808,-235.696C299.69,-239.615 367.669,-246.675 426,-257 446.251,-260.585 468.611,-265.862 486.652,-270.458"/>
<polygon fill="#9a32cd" stroke="#9a32cd" points="256.003,-232.2 245.736,-234.814 255.393,-239.173 256.003,-232.2"/>
<text text-anchor="middle" x="370" y="-260" font-family="Helvetica,sans-Serif" font-size="10.00"> drawer</text>
</g>
<!-- Node32 -->
<g id="node32" class="node"><title>Node32</title>
<polygon fill="white" stroke="#bfbfbf" points="0.5,-222.5 0.5,-241.5 41.5,-241.5 41.5,-222.5 0.5,-222.5"/>
<text text-anchor="middle" x="21" y="-229.5" font-family="Helvetica,sans-Serif" font-size="10.00">Color</text>
</g>
<!-- Node32&#45;&gt;Node31 -->
<g id="edge38" class="edge"><title>Node32&#45;&gt;Node31</title>
<path fill="none" stroke="#9a32cd" stroke-dasharray="5,2" d="M51.8575,-232C84.6426,-232 137.265,-232 172.23,-232"/>
<polygon fill="#9a32cd" stroke="#9a32cd" points="51.5537,-228.5 41.5537,-232 51.5537,-235.5 51.5537,-228.5"/>
<text text-anchor="middle" x="82" y="-235" font-family="Helvetica,sans-Serif" font-size="10.00"> myColor</text>
</g>
<!-- Node33 -->
<g id="node33" class="node"><title>Node33</title>
<polygon fill="white" stroke="#bfbfbf" points="186,-184.5 186,-203.5 232,-203.5 232,-184.5 186,-184.5"/>
<text text-anchor="middle" x="209" y="-191.5" font-family="Helvetica,sans-Serif" font-size="10.00">Group</text>
</g>
<!-- Node33&#45;&gt;Node1 -->
<g id="edge40" class="edge"><title>Node33&#45;&gt;Node1</title>
<path fill="none" stroke="#9a32cd" stroke-dasharray="5,2" d="M242.199,-195.39C285.154,-198.031 363.097,-205.593 426,-227 457.36,-237.672 490.439,-258.322 508.414,-270.455"/>
<polygon fill="#9a32cd" stroke="#9a32cd" points="242.243,-191.887 232.062,-194.819 241.849,-198.876 242.243,-191.887"/>
<text text-anchor="middle" x="370" y="-230" font-family="Helvetica,sans-Serif" font-size="10.00"> lines</text>
</g>
</g>
</svg>
