<?xml version="1.0" encoding="UTF-8" standalone="no"?>
<!DOCTYPE svg PUBLIC "-//W3C//DTD SVG 1.1//EN"
 "http://www.w3.org/Graphics/SVG/1.1/DTD/svg11.dtd">
<!-- Generated by graphviz version 2.36.0 (20140111.2315)
 -->
<!-- Title: view.SLogoView Pages: 1 -->
<svg width="1598pt" height="688pt"
 viewBox="0.00 0.00 1598.00 688.00" xmlns="http://www.w3.org/2000/svg" xmlns:xlink="http://www.w3.org/1999/xlink">
<g id="graph0" class="graph" transform="scale(1 1) rotate(0) translate(4 684)">
<title>view.SLogoView</title>
<polygon fill="white" stroke="none" points="-4,4 -4,-684 1594,-684 1594,4 -4,4"/>
<!-- Node1 -->
<g id="node1" class="node"><title>Node1</title>
<polygon fill="#bfbfbf" stroke="black" points="355.5,-288.5 355.5,-307.5 446.5,-307.5 446.5,-288.5 355.5,-288.5"/>
<text text-anchor="middle" x="401" y="-295.5" font-family="Helvetica,sans-Serif" font-size="10.00">view.SLogoView</text>
</g>
<!-- Node14 -->
<g id="node14" class="node"><title>Node14</title>
<g id="a_node14"><a xlink:href="../../dc/df5/classmodel_1_1_parser.html" target="_top" xlink:title="model.Parser">
<polygon fill="white" stroke="black" points="638,-372.5 638,-391.5 718,-391.5 718,-372.5 638,-372.5"/>
<text text-anchor="middle" x="678" y="-379.5" font-family="Helvetica,sans-Serif" font-size="10.00">model.Parser</text>
</a>
</g>
</g>
<!-- Node1&#45;&gt;Node14 -->
<g id="edge22" class="edge"><title>Node1&#45;&gt;Node14</title>
<path fill="none" stroke="#9a32cd" stroke-dasharray="5,2" d="M456.654,-305.367C511.362,-313.259 591.399,-326.361 620,-339 638.368,-347.117 656.315,-362.18 667.018,-372.148"/>
<polygon fill="#9a32cd" stroke="#9a32cd" points="457.146,-301.902 446.752,-303.955 456.158,-308.832 457.146,-301.902"/>
<text text-anchor="middle" x="559" y="-342" font-family="Helvetica,sans-Serif" font-size="10.00"> mySLogoView</text>
</g>
<!-- Node2 -->
<g id="node2" class="node"><title>Node2</title>
<polygon fill="white" stroke="#bfbfbf" points="57,-405.5 57,-424.5 117,-424.5 117,-405.5 57,-405.5"/>
<text text-anchor="middle" x="87" y="-412.5" font-family="Helvetica,sans-Serif" font-size="10.00">Observer</text>
</g>
<!-- Node2&#45;&gt;Node1 -->
<g id="edge1" class="edge"><title>Node2&#45;&gt;Node1</title>
<path fill="none" stroke="midnightblue" d="M127.201,-414.897C174.351,-412.754 253.451,-402.459 304,-360 318.928,-347.461 307.234,-332.728 322,-320 331.378,-311.916 343.526,-306.79 355.43,-303.544"/>
<polygon fill="midnightblue" stroke="midnightblue" points="126.948,-411.404 117.077,-415.254 127.194,-418.399 126.948,-411.404"/>
</g>
<!-- Node2&#45;&gt;Node14 -->
<g id="edge15" class="edge"><title>Node2&#45;&gt;Node14</title>
<path fill="none" stroke="midnightblue" d="M127.353,-418.432C216.188,-425.228 438.666,-436.901 620,-402 631.74,-399.74 644.327,-395.527 654.679,-391.548"/>
<polygon fill="midnightblue" stroke="midnightblue" points="127.437,-414.928 117.193,-417.631 126.887,-421.906 127.437,-414.928"/>
</g>
<!-- Node3 -->
<g id="node3" class="node"><title>Node3</title>
<g id="a_node3"><a xlink:href="../../da/d64/classview_1_1_workspace.html" target="_top" xlink:title="view.Workspace">
<polygon fill="white" stroke="black" points="1320,-330.5 1320,-349.5 1410,-349.5 1410,-330.5 1320,-330.5"/>
<text text-anchor="middle" x="1365" y="-337.5" font-family="Helvetica,sans-Serif" font-size="10.00">view.Workspace</text>
</a>
</g>
</g>
<!-- Node3&#45;&gt;Node1 -->
<g id="edge2" class="edge"><title>Node3&#45;&gt;Node1</title>
<path fill="none" stroke="#9a32cd" stroke-dasharray="5,2" d="M1355.31,-321.18C1345.08,-300.798 1326.34,-268.462 1302,-248 1215.5,-175.292 1167,-192 1054,-192 677,-192 677,-192 677,-192 570.317,-192 454.994,-262.313 415.871,-288.406"/>
<polygon fill="#9a32cd" stroke="#9a32cd" points="1352.25,-322.894 1359.75,-330.373 1358.55,-319.847 1352.25,-322.894"/>
<text text-anchor="middle" x="897" y="-195" font-family="Helvetica,sans-Serif" font-size="10.00"> myWorkspace</text>
</g>
<!-- Node8 -->
<g id="node8" class="node"><title>Node8</title>
<g id="a_node8"><a xlink:href="../../d1/dc7/classview_1_1_side_bar.html" target="_top" xlink:title="view.SideBar">
<polygon fill="white" stroke="black" points="1126.5,-402.5 1126.5,-421.5 1203.5,-421.5 1203.5,-402.5 1126.5,-402.5"/>
<text text-anchor="middle" x="1165" y="-409.5" font-family="Helvetica,sans-Serif" font-size="10.00">view.SideBar</text>
</a>
</g>
</g>
<!-- Node3&#45;&gt;Node8 -->
<g id="edge9" class="edge"><title>Node3&#45;&gt;Node8</title>
<path fill="none" stroke="#9a32cd" stroke-dasharray="5,2" d="M1350.35,-357.979C1339,-371.467 1321.59,-389.08 1302,-398 1271,-412.116 1232.02,-414.806 1203.75,-414.444"/>
<polygon fill="#9a32cd" stroke="#9a32cd" points="1353.35,-359.83 1356.89,-349.844 1347.9,-355.443 1353.35,-359.83"/>
<text text-anchor="middle" x="1264" y="-418" font-family="Helvetica,sans-Serif" font-size="10.00"> myWorkspace</text>
</g>
<!-- Node31 -->
<g id="node31" class="node"><title>Node31</title>
<g id="a_node31"><a xlink:href="../../de/d0a/classview_1_1_drawer.html" target="_top" xlink:title="view.Drawer">
<polygon fill="white" stroke="black" points="1516.5,-142.5 1516.5,-161.5 1589.5,-161.5 1589.5,-142.5 1516.5,-142.5"/>
<text text-anchor="middle" x="1553" y="-149.5" font-family="Helvetica,sans-Serif" font-size="10.00">view.Drawer</text>
</a>
</g>
</g>
<!-- Node3&#45;&gt;Node31 -->
<g id="edge40" class="edge"><title>Node3&#45;&gt;Node31</title>
<path fill="none" stroke="#9a32cd" stroke-dasharray="5,2" d="M1382.72,-323.101C1420.66,-284.749 1512.32,-192.11 1542.32,-161.788"/>
<polygon fill="#9a32cd" stroke="#9a32cd" points="1380.02,-320.848 1375.48,-330.419 1385,-325.771 1380.02,-320.848"/>
<text text-anchor="middle" x="1463" y="-277" font-family="Helvetica,sans-Serif" font-size="10.00"> myWorkspace</text>
</g>
<!-- Node4 -->
<g id="node4" class="node"><title>Node4</title>
<polygon fill="white" stroke="#bfbfbf" points="1131.5,-349.5 1131.5,-368.5 1198.5,-368.5 1198.5,-349.5 1131.5,-349.5"/>
<text text-anchor="middle" x="1165" y="-356.5" font-family="Helvetica,sans-Serif" font-size="10.00">StackPane</text>
</g>
<!-- Node4&#45;&gt;Node3 -->
<g id="edge3" class="edge"><title>Node4&#45;&gt;Node3</title>
<path fill="none" stroke="midnightblue" d="M1208.87,-354.886C1241.64,-351.742 1286.66,-347.422 1319.76,-344.245"/>
<polygon fill="midnightblue" stroke="midnightblue" points="1208.32,-351.423 1198.7,-355.863 1208.98,-358.391 1208.32,-351.423"/>
</g>
<!-- Node5 -->
<g id="node5" class="node"><title>Node5</title>
<g id="a_node5"><a xlink:href="../../d8/df7/classview_1_1_turtle_view.html" target="_top" xlink:title="view.TurtleView">
<polygon fill="white" stroke="black" points="1122,-267.5 1122,-286.5 1208,-286.5 1208,-267.5 1122,-267.5"/>
<text text-anchor="middle" x="1165" y="-274.5" font-family="Helvetica,sans-Serif" font-size="10.00">view.TurtleView</text>
</a>
</g>
</g>
<!-- Node5&#45;&gt;Node3 -->
<g id="edge4" class="edge"><title>Node5&#45;&gt;Node3</title>
<path fill="none" stroke="#9a32cd" stroke-dasharray="5,2" d="M1196.49,-263.873C1225.16,-253.618 1268.55,-243.606 1302,-260 1332.29,-274.849 1352.02,-312.424 1359.99,-330.284"/>
<polygon fill="#9a32cd" stroke="#9a32cd" points="1195.11,-260.651 1187,-267.467 1197.59,-267.197 1195.11,-260.651"/>
<text text-anchor="middle" x="1264" y="-263" font-family="Helvetica,sans-Serif" font-size="10.00"> myActiveTurtle</text>
</g>
<!-- Node6 -->
<g id="node6" class="node"><title>Node6</title>
<polygon fill="white" stroke="#bfbfbf" points="863,-221.5 863,-240.5 931,-240.5 931,-221.5 863,-221.5"/>
<text text-anchor="middle" x="897" y="-228.5" font-family="Helvetica,sans-Serif" font-size="10.00">ImageView</text>
</g>
<!-- Node6&#45;&gt;Node5 -->
<g id="edge5" class="edge"><title>Node6&#45;&gt;Node5</title>
<path fill="none" stroke="midnightblue" d="M941.493,-232.195C983.602,-234.155 1048.97,-239.333 1104,-253 1117.83,-256.435 1132.7,-262.368 1144.18,-267.476"/>
<polygon fill="midnightblue" stroke="midnightblue" points="941.448,-228.69 931.308,-231.762 941.151,-235.683 941.448,-228.69"/>
</g>
<!-- Node7 -->
<g id="node7" class="node"><title>Node7</title>
<polygon fill="white" stroke="#bfbfbf" points="19,-641 19,-671 155,-671 155,-641 19,-641"/>
<text text-anchor="start" x="27" y="-659" font-family="Helvetica,sans-Serif" font-size="10.00">Map&lt; Integer, view.Turtle</text>
<text text-anchor="middle" x="87" y="-648" font-family="Helvetica,sans-Serif" font-size="10.00">View &gt;</text>
</g>
<!-- Node7&#45;&gt;Node1 -->
<g id="edge38" class="edge"><title>Node7&#45;&gt;Node1</title>
<path fill="none" stroke="#9a32cd" stroke-dasharray="5,2" d="M164.068,-639.481C167.685,-637.025 171.036,-634.215 174,-631 201.06,-601.65 169.439,-575.934 192,-543 225.443,-494.18 272.614,-521.167 304,-471 339.847,-413.703 278.085,-371.375 322,-320 330.411,-310.16 342.85,-304.552 355.336,-301.404"/>
<polygon fill="#9a32cd" stroke="#9a32cd" points="162.118,-636.565 155.203,-644.592 165.614,-642.63 162.118,-636.565"/>
<text text-anchor="middle" x="248" y="-546" font-family="Helvetica,sans-Serif" font-size="10.00"> myTurtles</text>
</g>
<!-- Node7&#45;&gt;Node3 -->
<g id="edge6" class="edge"><title>Node7&#45;&gt;Node3</title>
<path fill="none" stroke="#9a32cd" stroke-dasharray="5,2" d="M165.488,-661.023C228.596,-664.682 320.015,-669 400,-669 400,-669 400,-669 1166,-669 1318.99,-669 1356.8,-404.588 1362.99,-349.846"/>
<polygon fill="#9a32cd" stroke="#9a32cd" points="165.407,-657.513 155.218,-660.419 164.995,-664.501 165.407,-657.513"/>
<text text-anchor="middle" x="764" y="-672" font-family="Helvetica,sans-Serif" font-size="10.00"> myTurtles</text>
</g>
<!-- Node7&#45;&gt;Node8 -->
<g id="edge23" class="edge"><title>Node7&#45;&gt;Node8</title>
<path fill="none" stroke="#9a32cd" stroke-dasharray="5,2" d="M165.365,-650.84C374.282,-635.761 944.807,-586.668 1104,-491 1132.05,-474.145 1151.51,-438.792 1159.68,-421.684"/>
<polygon fill="#9a32cd" stroke="#9a32cd" points="164.822,-647.37 155.097,-651.575 165.322,-654.352 164.822,-647.37"/>
<text text-anchor="middle" x="678" y="-606" font-family="Helvetica,sans-Serif" font-size="10.00"> myTurtles</text>
</g>
<!-- Node8&#45;&gt;Node1 -->
<g id="edge42" class="edge"><title>Node8&#45;&gt;Node1</title>
<path fill="none" stroke="#9a32cd" stroke-dasharray="5,2" d="M1116.16,-407.922C1025.34,-399.834 834.776,-381.064 810,-364 796.241,-354.524 805.875,-340.305 792,-331 728.124,-288.164 696.618,-318.688 620,-312 560.116,-306.772 490.818,-302.651 446.719,-300.271"/>
<polygon fill="#9a32cd" stroke="#9a32cd" points="1115.93,-411.416 1126.2,-408.809 1116.54,-404.443 1115.93,-411.416"/>
<text text-anchor="middle" x="764" y="-334" font-family="Helvetica,sans-Serif" font-size="10.00"> mySidebar</text>
</g>
<!-- Node8&#45;&gt;Node3 -->
<g id="edge7" class="edge"><title>Node8&#45;&gt;Node3</title>
<path fill="none" stroke="#9a32cd" stroke-dasharray="5,2" d="M1196.74,-398.493C1206.06,-394.586 1216.38,-390.449 1226,-387 1259.22,-375.087 1268.63,-375.489 1302,-364 1314.88,-359.566 1329.06,-354.12 1340.6,-349.538"/>
<polygon fill="#9a32cd" stroke="#9a32cd" points="1195.29,-395.306 1187.46,-402.442 1198.03,-401.748 1195.29,-395.306"/>
<text text-anchor="middle" x="1264" y="-390" font-family="Helvetica,sans-Serif" font-size="10.00"> mySidebar</text>
</g>
<!-- Node25 -->
<g id="node25" class="node"><title>Node25</title>
<g id="a_node25"><a xlink:href="../../da/dc8/classview_1_1_editor.html" target="_top" xlink:title="view.Editor">
<polygon fill="white" stroke="black" points="1331.5,-66.5 1331.5,-85.5 1398.5,-85.5 1398.5,-66.5 1331.5,-66.5"/>
<text text-anchor="middle" x="1365" y="-73.5" font-family="Helvetica,sans-Serif" font-size="10.00">view.Editor</text>
</a>
</g>
</g>
<!-- Node8&#45;&gt;Node25 -->
<g id="edge34" class="edge"><title>Node8&#45;&gt;Node25</title>
<path fill="none" stroke="#9a32cd" stroke-dasharray="5,2" d="M1190.58,-396.337C1197.05,-391.186 1203.47,-384.969 1208,-378 1224.8,-352.148 1206.75,-335.084 1226,-311 1249.83,-281.185 1280.63,-302.63 1302,-271 1346.02,-205.844 1273.51,-158.417 1320,-95 1322.95,-90.9735 1326.94,-87.7907 1331.31,-85.2773"/>
<polygon fill="#9a32cd" stroke="#9a32cd" points="1188.49,-393.527 1182.51,-402.269 1192.64,-399.168 1188.49,-393.527"/>
<text text-anchor="middle" x="1264" y="-314" font-family="Helvetica,sans-Serif" font-size="10.00"> mySidebar</text>
</g>
<!-- Node9 -->
<g id="node9" class="node"><title>Node9</title>
<polygon fill="white" stroke="#bfbfbf" points="876.5,-621.5 876.5,-640.5 917.5,-640.5 917.5,-621.5 876.5,-621.5"/>
<text text-anchor="middle" x="897" y="-628.5" font-family="Helvetica,sans-Serif" font-size="10.00">VBox</text>
</g>
<!-- Node9&#45;&gt;Node8 -->
<g id="edge8" class="edge"><title>Node9&#45;&gt;Node8</title>
<path fill="none" stroke="midnightblue" d="M927.734,-636.755C971.608,-643.422 1053.89,-648.707 1104,-607 1162.53,-558.282 1165.07,-453.854 1164.38,-421.654"/>
<polygon fill="midnightblue" stroke="midnightblue" points="928.141,-633.274 917.705,-635.103 927.003,-640.181 928.141,-633.274"/>
</g>
<!-- Node10 -->
<g id="node10" class="node"><title>Node10</title>
<polygon fill="white" stroke="#bfbfbf" points="810.5,-449.5 810.5,-468.5 983.5,-468.5 983.5,-449.5 810.5,-449.5"/>
<text text-anchor="middle" x="897" y="-456.5" font-family="Helvetica,sans-Serif" font-size="10.00">ObservableList&lt; view.Property &gt;</text>
</g>
<!-- Node10&#45;&gt;Node8 -->
<g id="edge10" class="edge"><title>Node10&#45;&gt;Node8</title>
<path fill="none" stroke="#9a32cd" stroke-dasharray="5,2" d="M993.798,-456.194C1028.91,-453.474 1068.68,-448.389 1104,-439 1119.01,-435.009 1135.01,-427.638 1146.71,-421.605"/>
<polygon fill="#9a32cd" stroke="#9a32cd" points="993.268,-452.723 983.545,-456.932 993.771,-459.705 993.268,-452.723"/>
<text text-anchor="middle" x="1053" y="-459" font-family="Helvetica,sans-Serif" font-size="10.00"> variablesList</text>
</g>
<!-- Node11 -->
<g id="node11" class="node"><title>Node11</title>
<polygon fill="white" stroke="#bfbfbf" points="40.5,-457.5 40.5,-476.5 133.5,-476.5 133.5,-457.5 40.5,-457.5"/>
<text text-anchor="middle" x="87" y="-464.5" font-family="Helvetica,sans-Serif" font-size="10.00">ResourceBundle</text>
</g>
<!-- Node11&#45;&gt;Node1 -->
<g id="edge28" class="edge"><title>Node11&#45;&gt;Node1</title>
<path fill="none" stroke="#9a32cd" stroke-dasharray="5,2" d="M143.947,-464.112C193.071,-458.517 262.922,-442.61 304,-398 328.1,-371.828 297.455,-345.755 322,-320 330.736,-310.833 342.97,-305.393 355.163,-302.191"/>
<polygon fill="#9a32cd" stroke="#9a32cd" points="143.386,-460.651 133.797,-465.156 144.103,-467.614 143.386,-460.651"/>
<text text-anchor="middle" x="248" y="-459" font-family="Helvetica,sans-Serif" font-size="10.00"> myResources</text>
</g>
<!-- Node11&#45;&gt;Node8 -->
<g id="edge11" class="edge"><title>Node11&#45;&gt;Node8</title>
<path fill="none" stroke="#9a32cd" stroke-dasharray="5,2" d="M143.823,-469.291C284.722,-474.723 666.178,-487.262 984,-478 1037.4,-476.444 1055.17,-492.669 1104,-471 1128.04,-460.334 1147.93,-435.499 1157.63,-421.692"/>
<polygon fill="#9a32cd" stroke="#9a32cd" points="143.83,-465.788 133.702,-468.897 143.558,-472.783 143.83,-465.788"/>
<text text-anchor="middle" x="678" y="-485" font-family="Helvetica,sans-Serif" font-size="10.00"> myResources</text>
</g>
<!-- Node12 -->
<g id="node12" class="node"><title>Node12</title>
<polygon fill="white" stroke="#bfbfbf" points="823,-411.5 823,-430.5 971,-430.5 971,-411.5 823,-411.5"/>
<text text-anchor="middle" x="897" y="-418.5" font-family="Helvetica,sans-Serif" font-size="10.00">TableView&lt; view.Property &gt;</text>
</g>
<!-- Node12&#45;&gt;Node8 -->
<g id="edge12" class="edge"><title>Node12&#45;&gt;Node8</title>
<path fill="none" stroke="#9a32cd" stroke-dasharray="5,2" d="M981.278,-417.741C988.288,-417.484 995.266,-417.233 1002,-417 1044.6,-415.523 1093.52,-414.043 1126.35,-413.081"/>
<polygon fill="#9a32cd" stroke="#9a32cd" points="980.875,-414.253 971.012,-418.122 981.135,-421.249 980.875,-414.253"/>
<text text-anchor="middle" x="1053" y="-431" font-family="Helvetica,sans-Serif" font-size="10.00"> turtlePropertiesTable</text>
<text text-anchor="middle" x="1053" y="-420" font-family="Helvetica,sans-Serif" font-size="10.00">variablesTable</text>
</g>
<!-- Node13 -->
<g id="node13" class="node"><title>Node13</title>
<g id="a_node13"><a xlink:href="../../d4/dd9/classcontroller_1_1_s_logo_controller.html" target="_top" xlink:title="controller.SLogoController">
<polygon fill="white" stroke="black" points="827,-259.5 827,-278.5 967,-278.5 967,-259.5 827,-259.5"/>
<text text-anchor="middle" x="897" y="-266.5" font-family="Helvetica,sans-Serif" font-size="10.00">controller.SLogoController</text>
</a>
</g>
</g>
<!-- Node13&#45;&gt;Node1 -->
<g id="edge36" class="edge"><title>Node13&#45;&gt;Node1</title>
<path fill="none" stroke="#9a32cd" stroke-dasharray="5,2" d="M816.777,-269.49C736.34,-270.574 608.277,-273.91 498,-284 481.227,-285.535 462.91,-288.007 446.814,-290.449"/>
<polygon fill="#9a32cd" stroke="#9a32cd" points="816.876,-272.989 826.831,-269.363 816.788,-265.99 816.876,-272.989"/>
<text text-anchor="middle" x="678" y="-278" font-family="Helvetica,sans-Serif" font-size="10.00"> myController</text>
</g>
<!-- Node13&#45;&gt;Node8 -->
<g id="edge13" class="edge"><title>Node13&#45;&gt;Node8</title>
<path fill="none" stroke="#9a32cd" stroke-dasharray="5,2" d="M977.423,-264.714C1027.29,-263.809 1085.53,-266.614 1104,-283 1136.15,-311.52 1099.95,-341.114 1122,-378 1128.06,-388.146 1138.33,-396.541 1147.2,-402.451"/>
<polygon fill="#9a32cd" stroke="#9a32cd" points="977.168,-261.219 967.252,-264.95 977.331,-268.217 977.168,-261.219"/>
<text text-anchor="middle" x="1053" y="-286" font-family="Helvetica,sans-Serif" font-size="10.00"> myController</text>
</g>
<!-- Node13&#45;&gt;Node25 -->
<g id="edge32" class="edge"><title>Node13&#45;&gt;Node25</title>
<path fill="none" stroke="#9a32cd" stroke-dasharray="5,2" d="M957.849,-257.182C966.684,-255.033 975.626,-252.628 984,-250 1129.84,-204.229 1181.15,-212.601 1302,-119 1312.54,-110.835 1309.53,-103.253 1320,-95 1324.71,-91.2917 1330.24,-88.1663 1335.78,-85.5894"/>
<polygon fill="#9a32cd" stroke="#9a32cd" points="956.895,-253.811 947.956,-259.499 958.491,-260.626 956.895,-253.811"/>
<text text-anchor="middle" x="1165" y="-215" font-family="Helvetica,sans-Serif" font-size="10.00"> myController</text>
</g>
<!-- Node14&#45;&gt;Node13 -->
<g id="edge14" class="edge"><title>Node14&#45;&gt;Node13</title>
<path fill="none" stroke="#9a32cd" stroke-dasharray="5,2" d="M727.963,-376.763C750.124,-372.031 775.083,-363.045 792,-346 811.014,-326.843 790.135,-306.272 810,-288 814.952,-283.445 820.742,-279.895 826.936,-277.138"/>
<polygon fill="#9a32cd" stroke="#9a32cd" points="727.188,-373.348 718.017,-378.652 728.494,-380.225 727.188,-373.348"/>
<text text-anchor="middle" x="764" y="-378" font-family="Helvetica,sans-Serif" font-size="10.00"> myParser</text>
</g>
<!-- Node15 -->
<g id="node15" class="node"><title>Node15</title>
<polygon fill="white" stroke="#bfbfbf" points="345,-330 345,-360 457,-360 457,-330 345,-330"/>
<text text-anchor="start" x="353" y="-348" font-family="Helvetica,sans-Serif" font-size="10.00">List&lt; Entry&lt; String,</text>
<text text-anchor="middle" x="401" y="-337" font-family="Helvetica,sans-Serif" font-size="10.00"> Pattern &gt; &gt;</text>
</g>
<!-- Node15&#45;&gt;Node14 -->
<g id="edge16" class="edge"><title>Node15&#45;&gt;Node14</title>
<path fill="none" stroke="#9a32cd" stroke-dasharray="5,2" d="M467.493,-350.237C510.923,-354.194 569.077,-360.419 620,-369 625.805,-369.978 631.906,-371.18 637.87,-372.455"/>
<polygon fill="#9a32cd" stroke="#9a32cd" points="467.615,-346.734 457.343,-349.329 466.991,-353.706 467.615,-346.734"/>
<text text-anchor="middle" x="559" y="-372" font-family="Helvetica,sans-Serif" font-size="10.00"> myPatterns</text>
</g>
<!-- Node16 -->
<g id="node16" class="node"><title>Node16</title>
<g id="a_node16"><a xlink:href="../../d1/dca/classmodel_1_1_execution_environment.html" target="_top" xlink:title="model.ExecutionEnvironment">
<polygon fill="white" stroke="black" points="322.5,-533.5 322.5,-552.5 479.5,-552.5 479.5,-533.5 322.5,-533.5"/>
<text text-anchor="middle" x="401" y="-540.5" font-family="Helvetica,sans-Serif" font-size="10.00">model.ExecutionEnvironment</text>
</a>
</g>
</g>
<!-- Node16&#45;&gt;Node14 -->
<g id="edge17" class="edge"><title>Node16&#45;&gt;Node14</title>
<path fill="none" stroke="#9a32cd" stroke-dasharray="5,2" d="M440.059,-530.049C485.427,-513.553 562.342,-482.174 620,-441 640.168,-426.598 659.252,-404.517 669.409,-391.849"/>
<polygon fill="#9a32cd" stroke="#9a32cd" points="438.835,-526.769 430.602,-533.437 441.196,-533.359 438.835,-526.769"/>
<text text-anchor="middle" x="559" y="-510" font-family="Helvetica,sans-Serif" font-size="10.00"> myExecutionParameters</text>
</g>
<!-- Node17 -->
<g id="node17" class="node"><title>Node17</title>
<polygon fill="white" stroke="#bfbfbf" points="51.5,-501.5 51.5,-520.5 122.5,-520.5 122.5,-501.5 51.5,-501.5"/>
<text text-anchor="middle" x="87" y="-508.5" font-family="Helvetica,sans-Serif" font-size="10.00">Observable</text>
</g>
<!-- Node17&#45;&gt;Node16 -->
<g id="edge18" class="edge"><title>Node17&#45;&gt;Node16</title>
<path fill="none" stroke="midnightblue" d="M132.571,-512.319C176.35,-513.984 244.974,-517.581 304,-525 320.825,-527.115 339.154,-530.324 355.244,-533.45"/>
<polygon fill="midnightblue" stroke="midnightblue" points="132.659,-508.82 122.538,-511.955 132.405,-515.815 132.659,-508.82"/>
</g>
<!-- Node18 -->
<g id="node18" class="node"><title>Node18</title>
<polygon fill="white" stroke="#bfbfbf" points="0,-553 0,-583 174,-583 174,-553 0,-553"/>
<text text-anchor="start" x="8" y="-571" font-family="Helvetica,sans-Serif" font-size="10.00">Map&lt; String, model.instructions.</text>
<text text-anchor="middle" x="87" y="-560" font-family="Helvetica,sans-Serif" font-size="10.00">Instruction &gt;</text>
</g>
<!-- Node18&#45;&gt;Node16 -->
<g id="edge19" class="edge"><title>Node18&#45;&gt;Node16</title>
<path fill="none" stroke="#9a32cd" stroke-dasharray="5,2" d="M184.431,-564.276C221.821,-562.405 264.955,-559.722 304,-556 314.046,-555.042 324.656,-553.819 335.014,-552.508"/>
<polygon fill="#9a32cd" stroke="#9a32cd" points="183.863,-560.8 174.046,-564.783 184.204,-567.791 183.863,-560.8"/>
<text text-anchor="middle" x="248" y="-567" font-family="Helvetica,sans-Serif" font-size="10.00"> myUserInstructionMap</text>
</g>
<!-- Node19 -->
<g id="node19" class="node"><title>Node19</title>
<polygon fill="white" stroke="#bfbfbf" points="23,-602.5 23,-621.5 151,-621.5 151,-602.5 23,-602.5"/>
<text text-anchor="middle" x="87" y="-609.5" font-family="Helvetica,sans-Serif" font-size="10.00">Map&lt; String, Double &gt;</text>
</g>
<!-- Node19&#45;&gt;Node16 -->
<g id="edge20" class="edge"><title>Node19&#45;&gt;Node16</title>
<path fill="none" stroke="#9a32cd" stroke-dasharray="5,2" d="M161.269,-604.63C203.447,-599.441 257.203,-591.208 304,-579 330.18,-572.17 359.115,-560.759 378.304,-552.615"/>
<polygon fill="#9a32cd" stroke="#9a32cd" points="160.594,-601.186 151.082,-605.853 161.428,-608.136 160.594,-601.186"/>
<text text-anchor="middle" x="248" y="-604" font-family="Helvetica,sans-Serif" font-size="10.00"> myVariableMap</text>
</g>
<!-- Node20 -->
<g id="node20" class="node"><title>Node20</title>
<polygon fill="white" stroke="#bfbfbf" points="340,-379.5 340,-398.5 462,-398.5 462,-379.5 340,-379.5"/>
<text text-anchor="middle" x="401" y="-386.5" font-family="Helvetica,sans-Serif" font-size="10.00">Map&lt; String, String &gt;</text>
</g>
<!-- Node20&#45;&gt;Node14 -->
<g id="edge21" class="edge"><title>Node20&#45;&gt;Node14</title>
<path fill="none" stroke="#9a32cd" stroke-dasharray="5,2" d="M472.284,-387.211C524.88,-385.872 594.879,-384.09 637.895,-382.995"/>
<polygon fill="#9a32cd" stroke="#9a32cd" points="471.918,-383.719 462.01,-387.472 472.096,-390.717 471.918,-383.719"/>
<text text-anchor="middle" x="559" y="-390" font-family="Helvetica,sans-Serif" font-size="10.00"> myCommandMap</text>
</g>
<!-- Node21 -->
<g id="node21" class="node"><title>Node21</title>
<polygon fill="white" stroke="#bfbfbf" points="828,-335.5 828,-354.5 966,-354.5 966,-335.5 828,-335.5"/>
<text text-anchor="middle" x="897" y="-342.5" font-family="Helvetica,sans-Serif" font-size="10.00">ObservableList&lt; String &gt;</text>
</g>
<!-- Node21&#45;&gt;Node8 -->
<g id="edge24" class="edge"><title>Node21&#45;&gt;Node8</title>
<path fill="none" stroke="#9a32cd" stroke-dasharray="5,2" d="M943.058,-333.338C987.201,-324.554 1054.82,-318.369 1104,-347 1117.77,-355.016 1111.64,-365.899 1122,-378 1130.05,-387.406 1140.97,-396.152 1149.65,-402.417"/>
<polygon fill="#9a32cd" stroke="#9a32cd" points="942.25,-329.931 933.189,-335.423 943.697,-336.78 942.25,-329.931"/>
<text text-anchor="middle" x="1053" y="-361" font-family="Helvetica,sans-Serif" font-size="10.00"> commandItems</text>
<text text-anchor="middle" x="1053" y="-350" font-family="Helvetica,sans-Serif" font-size="10.00">historyItems</text>
</g>
<!-- Node22 -->
<g id="node22" class="node"><title>Node22</title>
<polygon fill="white" stroke="#bfbfbf" points="844,-297.5 844,-316.5 950,-316.5 950,-297.5 844,-297.5"/>
<text text-anchor="middle" x="897" y="-304.5" font-family="Helvetica,sans-Serif" font-size="10.00">ListView&lt; String &gt;</text>
</g>
<!-- Node22&#45;&gt;Node8 -->
<g id="edge25" class="edge"><title>Node22&#45;&gt;Node8</title>
<path fill="none" stroke="#9a32cd" stroke-dasharray="5,2" d="M960.453,-300.256C1012.82,-296.01 1082.41,-294.108 1104,-311 1128.28,-329.999 1105.2,-352.148 1122,-378 1128.44,-387.911 1138.72,-396.302 1147.49,-402.269"/>
<polygon fill="#9a32cd" stroke="#9a32cd" points="959.893,-296.791 950.228,-301.132 960.49,-303.766 959.893,-296.791"/>
<text text-anchor="middle" x="1053" y="-314" font-family="Helvetica,sans-Serif" font-size="10.00"> historyList</text>
</g>
<!-- Node23 -->
<g id="node23" class="node"><title>Node23</title>
<polygon fill="white" stroke="#bfbfbf" points="1133.5,-311.5 1133.5,-330.5 1196.5,-330.5 1196.5,-311.5 1133.5,-311.5"/>
<text text-anchor="middle" x="1165" y="-318.5" font-family="Helvetica,sans-Serif" font-size="10.00">Rectangle</text>
</g>
<!-- Node23&#45;&gt;Node3 -->
<g id="edge26" class="edge"><title>Node23&#45;&gt;Node3</title>
<path fill="none" stroke="#9a32cd" stroke-dasharray="5,2" d="M1206.8,-323.791C1233.84,-325.765 1270.07,-328.651 1302,-332 1307.83,-332.611 1313.96,-333.321 1320,-334.06"/>
<polygon fill="#9a32cd" stroke="#9a32cd" points="1206.78,-320.28 1196.56,-323.054 1206.28,-327.262 1206.78,-320.28"/>
<text text-anchor="middle" x="1264" y="-335" font-family="Helvetica,sans-Serif" font-size="10.00"> myBackground</text>
</g>
<!-- Node24 -->
<g id="node24" class="node"><title>Node24</title>
<polygon fill="white" stroke="#bfbfbf" points="64.5,-269.5 64.5,-288.5 109.5,-288.5 109.5,-269.5 64.5,-269.5"/>
<text text-anchor="middle" x="87" y="-276.5" font-family="Helvetica,sans-Serif" font-size="10.00">Stage</text>
</g>
<!-- Node24&#45;&gt;Node1 -->
<g id="edge27" class="edge"><title>Node24&#45;&gt;Node1</title>
<path fill="none" stroke="#9a32cd" stroke-dasharray="5,2" d="M119.699,-278.53C161.859,-278.18 238.669,-278.501 304,-284 320.784,-285.413 339.103,-287.858 355.198,-290.314"/>
<polygon fill="#9a32cd" stroke="#9a32cd" points="119.471,-275.032 109.507,-278.634 119.542,-282.032 119.471,-275.032"/>
<text text-anchor="middle" x="248" y="-287" font-family="Helvetica,sans-Serif" font-size="10.00"> myStage</text>
</g>
<!-- Node25&#45;&gt;Node1 -->
<g id="edge29" class="edge"><title>Node25&#45;&gt;Node1</title>
<path fill="none" stroke="#9a32cd" stroke-dasharray="5,2" d="M1341.13,-60.867C1305.35,-38.6986 1233.26,-0 1166,-0 677,-0 677,-0 677,-0 516.138,-0 423.349,-237.415 405.27,-288.423"/>
<polygon fill="#9a32cd" stroke="#9a32cd" points="1339.5,-63.9787 1349.82,-66.3745 1343.25,-58.0658 1339.5,-63.9787"/>
<text text-anchor="middle" x="897" y="-3" font-family="Helvetica,sans-Serif" font-size="10.00"> myEditor</text>
</g>
<!-- Node26 -->
<g id="node26" class="node"><title>Node26</title>
<polygon fill="white" stroke="#bfbfbf" points="1144,-66.5 1144,-85.5 1186,-85.5 1186,-66.5 1144,-66.5"/>
<text text-anchor="middle" x="1165" y="-73.5" font-family="Helvetica,sans-Serif" font-size="10.00">HBox</text>
</g>
<!-- Node26&#45;&gt;Node25 -->
<g id="edge30" class="edge"><title>Node26&#45;&gt;Node25</title>
<path fill="none" stroke="midnightblue" d="M1196.11,-76C1232.62,-76 1293.9,-76 1331.46,-76"/>
<polygon fill="midnightblue" stroke="midnightblue" points="1196.07,-72.5001 1186.07,-76 1196.07,-79.5001 1196.07,-72.5001"/>
</g>
<!-- Node27 -->
<g id="node27" class="node"><title>Node27</title>
<polygon fill="white" stroke="#bfbfbf" points="1140.5,-28.5 1140.5,-47.5 1189.5,-47.5 1189.5,-28.5 1140.5,-28.5"/>
<text text-anchor="middle" x="1165" y="-35.5" font-family="Helvetica,sans-Serif" font-size="10.00">Button</text>
</g>
<!-- Node27&#45;&gt;Node25 -->
<g id="edge31" class="edge"><title>Node27&#45;&gt;Node25</title>
<path fill="none" stroke="#9a32cd" stroke-dasharray="5,2" d="M1199.61,-43.0146C1227.21,-47.2928 1267.26,-53.8699 1302,-61 1311.55,-62.9596 1321.86,-65.3444 1331.28,-67.6305"/>
<polygon fill="#9a32cd" stroke="#9a32cd" points="1200.09,-39.5481 1189.68,-41.4912 1199.03,-46.4672 1200.09,-39.5481"/>
<text text-anchor="middle" x="1264" y="-64" font-family="Helvetica,sans-Serif" font-size="10.00"> runButton</text>
</g>
<!-- Node28 -->
<g id="node28" class="node"><title>Node28</title>
<polygon fill="white" stroke="#bfbfbf" points="1136,-104.5 1136,-123.5 1194,-123.5 1194,-104.5 1136,-104.5"/>
<text text-anchor="middle" x="1165" y="-111.5" font-family="Helvetica,sans-Serif" font-size="10.00">TextArea</text>
</g>
<!-- Node28&#45;&gt;Node25 -->
<g id="edge33" class="edge"><title>Node28&#45;&gt;Node25</title>
<path fill="none" stroke="#9a32cd" stroke-dasharray="5,2" d="M1204.14,-107.767C1231.45,-103.182 1269.07,-96.62 1302,-90 1311.52,-88.0862 1321.82,-85.8339 1331.24,-83.7019"/>
<polygon fill="#9a32cd" stroke="#9a32cd" points="1203.49,-104.326 1194.2,-109.424 1204.64,-111.231 1203.49,-104.326"/>
<text text-anchor="middle" x="1264" y="-107" font-family="Helvetica,sans-Serif" font-size="10.00"> textEditor</text>
</g>
<!-- Node29 -->
<g id="node29" class="node"><title>Node29</title>
<polygon fill="white" stroke="#bfbfbf" points="27.5,-231.5 27.5,-250.5 146.5,-250.5 146.5,-231.5 27.5,-231.5"/>
<text text-anchor="middle" x="87" y="-238.5" font-family="Helvetica,sans-Serif" font-size="10.00">Map&lt; String, Node &gt;</text>
</g>
<!-- Node29&#45;&gt;Node1 -->
<g id="edge35" class="edge"><title>Node29&#45;&gt;Node1</title>
<path fill="none" stroke="#9a32cd" stroke-dasharray="5,2" d="M156.845,-244.21C199.609,-247.216 255.483,-252.986 304,-264 329.864,-269.871 358.377,-280.535 377.556,-288.36"/>
<polygon fill="#9a32cd" stroke="#9a32cd" points="157.034,-240.714 146.823,-243.539 156.567,-247.699 157.034,-240.714"/>
<text text-anchor="middle" x="248" y="-267" font-family="Helvetica,sans-Serif" font-size="10.00"> variables</text>
</g>
<!-- Node30 -->
<g id="node30" class="node"><title>Node30</title>
<polygon fill="white" stroke="#bfbfbf" points="46.5,-345.5 46.5,-364.5 127.5,-364.5 127.5,-345.5 46.5,-345.5"/>
<text text-anchor="middle" x="87" y="-352.5" font-family="Helvetica,sans-Serif" font-size="10.00">Dimension2D</text>
</g>
<!-- Node30&#45;&gt;Node1 -->
<g id="edge37" class="edge"><title>Node30&#45;&gt;Node1</title>
<path fill="none" stroke="#9a32cd" stroke-dasharray="5,2" d="M137.987,-350.98C182.077,-346.797 247.865,-339.002 304,-326 312.215,-324.097 313.94,-322.479 322,-320 335.986,-315.699 351.482,-311.262 364.952,-307.509"/>
<polygon fill="#9a32cd" stroke="#9a32cd" points="137.455,-347.514 127.818,-351.917 138.097,-354.484 137.455,-347.514"/>
<text text-anchor="middle" x="248" y="-348" font-family="Helvetica,sans-Serif" font-size="10.00"> myDimensions</text>
</g>
<!-- Node31&#45;&gt;Node1 -->
<g id="edge39" class="edge"><title>Node31&#45;&gt;Node1</title>
<path fill="none" stroke="#9a32cd" stroke-dasharray="5,2" d="M1506.38,-149.189C1328.12,-138.921 679.55,-108.432 498,-196 454.413,-217.024 420.581,-266.997 407.676,-288.208"/>
<polygon fill="#9a32cd" stroke="#9a32cd" points="1506.28,-152.689 1516.46,-149.778 1506.68,-145.701 1506.28,-152.689"/>
<text text-anchor="middle" x="1053" y="-139" font-family="Helvetica,sans-Serif" font-size="10.00"> drawer</text>
</g>
<!-- Node32 -->
<g id="node32" class="node"><title>Node32</title>
<polygon fill="white" stroke="#bfbfbf" points="1344.5,-104.5 1344.5,-123.5 1385.5,-123.5 1385.5,-104.5 1344.5,-104.5"/>
<text text-anchor="middle" x="1365" y="-111.5" font-family="Helvetica,sans-Serif" font-size="10.00">Color</text>
</g>
<!-- Node32&#45;&gt;Node31 -->
<g id="edge41" class="edge"><title>Node32&#45;&gt;Node31</title>
<path fill="none" stroke="#9a32cd" stroke-dasharray="5,2" d="M1395.61,-114.102C1422.71,-114.853 1463.67,-117.652 1498,-127 1510.96,-130.529 1524.68,-136.921 1535.05,-142.358"/>
<polygon fill="#9a32cd" stroke="#9a32cd" points="1395.67,-110.602 1385.6,-113.901 1395.53,-117.601 1395.67,-110.602"/>
<text text-anchor="middle" x="1463" y="-130" font-family="Helvetica,sans-Serif" font-size="10.00"> myColor</text>
</g>
<!-- Node33 -->
<g id="node33" class="node"><title>Node33</title>
<polygon fill="white" stroke="#bfbfbf" points="64,-307.5 64,-326.5 110,-326.5 110,-307.5 64,-307.5"/>
<text text-anchor="middle" x="87" y="-314.5" font-family="Helvetica,sans-Serif" font-size="10.00">Group</text>
</g>
<!-- Node33&#45;&gt;Node1 -->
<g id="edge43" class="edge"><title>Node33&#45;&gt;Node1</title>
<path fill="none" stroke="#9a32cd" stroke-dasharray="5,2" d="M120.521,-315.02C176.621,-311.603 291.669,-304.597 355.267,-300.724"/>
<polygon fill="#9a32cd" stroke="#9a32cd" points="120.207,-311.532 110.438,-315.634 120.633,-318.519 120.207,-311.532"/>
<text text-anchor="middle" x="248" y="-314" font-family="Helvetica,sans-Serif" font-size="10.00"> lines</text>
</g>
</g>
</svg>
