<?xml version="1.0" encoding="UTF-8" standalone="no"?>
<!DOCTYPE svg PUBLIC "-//W3C//DTD SVG 1.1//EN"
 "http://www.w3.org/Graphics/SVG/1.1/DTD/svg11.dtd">
<!-- Generated by graphviz version 2.36.0 (20140111.2315)
 -->
<!-- Title: view.SLogoView Pages: 1 -->
<!--zoomable 718 -->
<svg id="main" version="1.1" xmlns="http://www.w3.org/2000/svg" xmlns:xlink="http://www.w3.org/1999/xlink" xml:space="preserve" onload="init(evt)">
<style type="text/css"><![CDATA[
.edge:hover path { stroke: red; }
.edge:hover polygon { stroke: red; fill: red; }
]]></style>
<script type="text/javascript"><![CDATA[
var edges = document.getElementsByTagName('g');
if (edges && edges.length) {
  for (var i=0;i<edges.length;i++) {
    if (edges[i].id.substr(0,4)=='edge') {
      edges[i].setAttribute('class','edge');
    }
  }
}
]]></script>
        <defs>
                <circle id="rim" cx="0" cy="0" r="7"/>
                <circle id="rim2" cx="0" cy="0" r="3.5"/>
                <g id="zoomPlus">
                        <use xlink:href="#rim" fill="#404040">
                                <set attributeName="fill" to="#808080" begin="zoomplus.mouseover" end="zoomplus.mouseout"/>
                        </use>
                        <path d="M-4,0h8M0,-4v8" fill="none" stroke="white" stroke-width="1.5" pointer-events="none"/>
                </g>
                <g id="zoomMin">
                        <use xlink:href="#rim" fill="#404040">
                                <set attributeName="fill" to="#808080" begin="zoomminus.mouseover" end="zoomminus.mouseout"/>
                        </use>
                        <path d="M-4,0h8" fill="none" stroke="white" stroke-width="1.5" pointer-events="none"/>
                </g>
                <g id="dirArrow">
                        <path fill="none" stroke="white" stroke-width="1.5" d="M0,-3.0v7 M-2.5,-0.5L0,-3.0L2.5,-0.5"/>
                </g>
               <g id="resetDef">
                       <use xlink:href="#rim2" fill="#404040">
                               <set attributeName="fill" to="#808080" begin="reset.mouseover" end="reset.mouseout"/>
                       </use>
               </g>
        </defs>

<script type="text/javascript">
var viewWidth = 1524;
var viewHeight = 718;
var sectionId = 'dynsection-1';
</script>
<script xlink:href="../../svgpan.js"/>
<svg id="graph" class="graph">
<g id="viewport">
<title>view.SLogoView</title>
<polygon fill="white" stroke="none" points="-4,4 -4,-714 1520,-714 1520,4 -4,4"/>
<!-- Node1 -->
<g id="node1" class="node"><title>Node1</title>
<polygon fill="#bfbfbf" stroke="black" points="475.5,-246.5 475.5,-265.5 566.5,-265.5 566.5,-246.5 475.5,-246.5"/>
<text text-anchor="middle" x="521" y="-253.5" font-family="Helvetica,sans-Serif" font-size="10.00">view.SLogoView</text>
</g>
<!-- Node12 -->
<g id="node12" class="node"><title>Node12</title>
<g id="a_node12"><a xlink:href="../../dc/df5/classmodel_1_1_parser.html" target="_top" xlink:title="model.Parser">
<polygon fill="white" stroke="black" points="758,-104.5 758,-123.5 838,-123.5 838,-104.5 758,-104.5"/>
<text text-anchor="middle" x="798" y="-111.5" font-family="Helvetica,sans-Serif" font-size="10.00">model.Parser</text>
</a>
</g>
</g>
<!-- Node1&#45;&gt;Node12 -->
<g id="edge18" class="edge"><title>Node1&#45;&gt;Node12</title>
<path fill="none" stroke="#9a32cd" stroke-dasharray="5,2" d="M538.037,-238.661C555.86,-220.419 586.326,-192.16 618,-176 667.834,-150.574 687.911,-165.412 740,-145 754.683,-139.246 770.354,-130.514 781.541,-123.782"/>
<polygon fill="#9a32cd" stroke="#9a32cd" points="535.157,-236.61 530.78,-246.258 540.218,-241.445 535.157,-236.61"/>
<text text-anchor="middle" x="679" y="-179" font-family="Helvetica,sans-Serif" font-size="10.00"> mySLogoView</text>
</g>
<!-- Node2 -->
<g id="node2" class="node"><title>Node2</title>
<polygon fill="white" stroke="#bfbfbf" points="179,-92.5 179,-111.5 239,-111.5 239,-92.5 179,-92.5"/>
<text text-anchor="middle" x="209" y="-99.5" font-family="Helvetica,sans-Serif" font-size="10.00">Observer</text>
</g>
<!-- Node2&#45;&gt;Node1 -->
<g id="edge1" class="edge"><title>Node2&#45;&gt;Node1</title>
<path fill="none" stroke="midnightblue" d="M249.331,-102.396C294.417,-104.474 369.148,-113.008 424,-145 435.444,-151.675 491.667,-220.78 512.348,-246.46"/>
<polygon fill="midnightblue" stroke="midnightblue" points="249.209,-98.8886 239.085,-102.011 248.947,-105.884 249.209,-98.8886"/>
</g>
<!-- Node2&#45;&gt;Node12 -->
<g id="edge12" class="edge"><title>Node2&#45;&gt;Node12</title>
<path fill="none" stroke="midnightblue" d="M249.124,-102.8C355.778,-104.98 650.764,-111.011 757.666,-113.196"/>
<polygon fill="midnightblue" stroke="midnightblue" points="249.179,-99.3003 239.109,-102.595 249.036,-106.299 249.179,-99.3003"/>
</g>
<!-- Node3 -->
<g id="node3" class="node"><title>Node3</title>
<g id="a_node3"><a xlink:href="../../da/d64/classview_1_1_workspace.html" target="_top" xlink:title="view.Workspace">
<polygon fill="white" stroke="black" points="1426,-509.5 1426,-528.5 1516,-528.5 1516,-509.5 1426,-509.5"/>
<text text-anchor="middle" x="1471" y="-516.5" font-family="Helvetica,sans-Serif" font-size="10.00">view.Workspace</text>
</a>
</g>
</g>
<!-- Node3&#45;&gt;Node1 -->
<g id="edge2" class="edge"><title>Node3&#45;&gt;Node1</title>
<path fill="none" stroke="#9a32cd" stroke-dasharray="5,2" d="M1469.69,-498.795C1467.9,-460.586 1458.11,-377.999 1408,-338 1373.56,-310.513 661.84,-272.409 618,-268 601.288,-266.319 582.984,-264.12 566.881,-262.065"/>
<polygon fill="#9a32cd" stroke="#9a32cd" points="1466.2,-499.249 1470.02,-509.131 1473.2,-499.024 1466.2,-499.249"/>
<text text-anchor="middle" x="1010" y="-303" font-family="Helvetica,sans-Serif" font-size="10.00"> myWorkspace</text>
</g>
<!-- Node4 -->
<g id="node4" class="node"><title>Node4</title>
<polygon fill="white" stroke="#bfbfbf" points="1237.5,-567.5 1237.5,-586.5 1304.5,-586.5 1304.5,-567.5 1237.5,-567.5"/>
<text text-anchor="middle" x="1271" y="-574.5" font-family="Helvetica,sans-Serif" font-size="10.00">StackPane</text>
</g>
<!-- Node4&#45;&gt;Node3 -->
<g id="edge3" class="edge"><title>Node4&#45;&gt;Node3</title>
<path fill="none" stroke="midnightblue" d="M1314.66,-570.473C1341.8,-565.695 1377.46,-558.251 1408,-548 1423.43,-542.82 1440.11,-534.879 1452.27,-528.615"/>
<polygon fill="midnightblue" stroke="midnightblue" points="1313.97,-567.04 1304.7,-572.174 1315.15,-573.94 1313.97,-567.04"/>
</g>
<!-- Node5 -->
<g id="node5" class="node"><title>Node5</title>
<g id="a_node5"><a xlink:href="../../d8/df7/classview_1_1_turtle_view.html" target="_top" xlink:title="view.TurtleView">
<polygon fill="white" stroke="black" points="1228,-529.5 1228,-548.5 1314,-548.5 1314,-529.5 1228,-529.5"/>
<text text-anchor="middle" x="1271" y="-536.5" font-family="Helvetica,sans-Serif" font-size="10.00">view.TurtleView</text>
</a>
</g>
</g>
<!-- Node5&#45;&gt;Node3 -->
<g id="edge4" class="edge"><title>Node5&#45;&gt;Node3</title>
<path fill="none" stroke="#9a32cd" stroke-dasharray="5,2" d="M1324.43,-533.704C1356.05,-530.51 1395.88,-526.487 1425.88,-523.457"/>
<polygon fill="#9a32cd" stroke="#9a32cd" points="1324.07,-530.222 1314.48,-534.709 1324.78,-537.187 1324.07,-530.222"/>
<text text-anchor="middle" x="1370" y="-536" font-family="Helvetica,sans-Serif" font-size="10.00"> myActiveTurtle</text>
</g>
<!-- Node6 -->
<g id="node6" class="node"><title>Node6</title>
<polygon fill="white" stroke="#bfbfbf" points="976,-651.5 976,-670.5 1044,-670.5 1044,-651.5 976,-651.5"/>
<text text-anchor="middle" x="1010" y="-658.5" font-family="Helvetica,sans-Serif" font-size="10.00">ImageView</text>
</g>
<!-- Node6&#45;&gt;Node5 -->
<g id="edge5" class="edge"><title>Node6&#45;&gt;Node5</title>
<path fill="none" stroke="midnightblue" d="M1054.17,-668.851C1098.86,-674.319 1167.91,-674.927 1210,-637 1236.75,-612.894 1205.22,-585.888 1228,-558 1231.14,-554.157 1235.22,-551.062 1239.61,-548.576"/>
<polygon fill="midnightblue" stroke="midnightblue" points="1054.58,-665.373 1044.2,-667.5 1053.64,-672.31 1054.58,-665.373"/>
</g>
<!-- Node7 -->
<g id="node7" class="node"><title>Node7</title>
<polygon fill="white" stroke="#bfbfbf" points="141,-608 141,-638 277,-638 277,-608 141,-608"/>
<text text-anchor="start" x="149" y="-626" font-family="Helvetica,sans-Serif" font-size="10.00">Map&lt; Integer, view.Turtle</text>
<text text-anchor="middle" x="209" y="-615" font-family="Helvetica,sans-Serif" font-size="10.00">View &gt;</text>
</g>
<!-- Node7&#45;&gt;Node1 -->
<g id="edge37" class="edge"><title>Node7&#45;&gt;Node1</title>
<path fill="none" stroke="#9a32cd" stroke-dasharray="5,2" d="M234.909,-601.314C276.758,-564.186 362.613,-484.978 424,-408 463.893,-357.976 501.455,-290.598 514.838,-265.738"/>
<polygon fill="#9a32cd" stroke="#9a32cd" points="232.565,-598.715 227.385,-607.957 237.198,-603.963 232.565,-598.715"/>
<text text-anchor="middle" x="369" y="-527" font-family="Helvetica,sans-Serif" font-size="10.00"> myTurtles</text>
</g>
<!-- Node7&#45;&gt;Node3 -->
<g id="edge6" class="edge"><title>Node7&#45;&gt;Node3</title>
<path fill="none" stroke="#9a32cd" stroke-dasharray="5,2" d="M256.036,-641.65C315.831,-664.152 423.941,-699 520,-699 520,-699 520,-699 1272,-699 1374.2,-699 1446.97,-566.065 1465.42,-528.678"/>
<polygon fill="#9a32cd" stroke="#9a32cd" points="257.099,-638.31 246.509,-638.015 254.604,-644.85 257.099,-638.31"/>
<text text-anchor="middle" x="884" y="-702" font-family="Helvetica,sans-Serif" font-size="10.00"> myTurtles</text>
</g>
<!-- Node8 -->
<g id="node8" class="node"><title>Node8</title>
<g id="a_node8"><a xlink:href="../../d1/dc7/classview_1_1_side_bar.html" target="_top" xlink:title="view.SideBar">
<polygon fill="white" stroke="black" points="1232.5,-438.5 1232.5,-457.5 1309.5,-457.5 1309.5,-438.5 1232.5,-438.5"/>
<text text-anchor="middle" x="1271" y="-445.5" font-family="Helvetica,sans-Serif" font-size="10.00">view.SideBar</text>
</a>
</g>
</g>
<!-- Node7&#45;&gt;Node8 -->
<g id="edge20" class="edge"><title>Node7&#45;&gt;Node8</title>
<path fill="none" stroke="#9a32cd" stroke-dasharray="5,2" d="M287.331,-623C350.044,-623 440.724,-623 520,-623 520,-623 520,-623 1011,-623 1055.33,-623 1177.57,-639.222 1210,-609 1251.71,-570.136 1199.89,-531.599 1228,-482 1233.74,-471.879 1243.77,-463.586 1252.59,-457.724"/>
<polygon fill="#9a32cd" stroke="#9a32cd" points="287.123,-619.5 277.123,-623 287.123,-626.5 287.123,-619.5"/>
<text text-anchor="middle" x="798" y="-626" font-family="Helvetica,sans-Serif" font-size="10.00"> myTurtles</text>
</g>
<!-- Node8&#45;&gt;Node1 -->
<g id="edge41" class="edge"><title>Node8&#45;&gt;Node1</title>
<path fill="none" stroke="#9a32cd" stroke-dasharray="5,2" d="M1255.34,-430.946C1244.16,-419.134 1227.71,-404.124 1210,-396 1179.78,-382.142 649.5,-319.62 618,-309 586.61,-298.417 553.541,-277.736 535.577,-265.572"/>
<polygon fill="#9a32cd" stroke="#9a32cd" points="1252.87,-433.438 1262.19,-438.49 1258.06,-428.733 1252.87,-433.438"/>
<text text-anchor="middle" x="884" y="-354" font-family="Helvetica,sans-Serif" font-size="10.00"> mySidebar</text>
</g>
<!-- Node8&#45;&gt;Node3 -->
<g id="edge7" class="edge"><title>Node8&#45;&gt;Node3</title>
<path fill="none" stroke="#9a32cd" stroke-dasharray="5,2" d="M1319.53,-458.019C1346.06,-464.33 1379.43,-473.468 1408,-485 1424.73,-491.754 1442.69,-501.962 1454.95,-509.431"/>
<polygon fill="#9a32cd" stroke="#9a32cd" points="1320.25,-454.594 1309.72,-455.74 1318.67,-461.412 1320.25,-454.594"/>
<text text-anchor="middle" x="1370" y="-488" font-family="Helvetica,sans-Serif" font-size="10.00"> mySidebar</text>
</g>
<!-- Node24 -->
<g id="node24" class="node"><title>Node24</title>
<g id="a_node24"><a xlink:href="../../da/dc8/classview_1_1_editor.html" target="_top" xlink:title="view.Editor">
<polygon fill="white" stroke="black" points="1437.5,-214.5 1437.5,-233.5 1504.5,-233.5 1504.5,-214.5 1437.5,-214.5"/>
<text text-anchor="middle" x="1471" y="-221.5" font-family="Helvetica,sans-Serif" font-size="10.00">view.Editor</text>
</a>
</g>
</g>
<!-- Node8&#45;&gt;Node24 -->
<g id="edge32" class="edge"><title>Node8&#45;&gt;Node24</title>
<path fill="none" stroke="#9a32cd" stroke-dasharray="5,2" d="M1287.6,-430.548C1312.94,-402.187 1364.57,-344.299 1408,-295 1427.26,-273.144 1449.71,-247.356 1461.6,-233.67"/>
<polygon fill="#9a32cd" stroke="#9a32cd" points="1284.68,-428.571 1280.62,-438.36 1289.9,-433.235 1284.68,-428.571"/>
<text text-anchor="middle" x="1370" y="-382" font-family="Helvetica,sans-Serif" font-size="10.00"> mySidebar</text>
</g>
<!-- Node9 -->
<g id="node9" class="node"><title>Node9</title>
<polygon fill="white" stroke="#bfbfbf" points="989.5,-324.5 989.5,-343.5 1030.5,-343.5 1030.5,-324.5 989.5,-324.5"/>
<text text-anchor="middle" x="1010" y="-331.5" font-family="Helvetica,sans-Serif" font-size="10.00">VBox</text>
</g>
<!-- Node9&#45;&gt;Node8 -->
<g id="edge8" class="edge"><title>Node9&#45;&gt;Node8</title>
<path fill="none" stroke="midnightblue" d="M1040.73,-330.266C1081.96,-326.618 1157.35,-325.617 1210,-358 1241.19,-377.184 1259.68,-419.362 1266.72,-438.373"/>
<polygon fill="midnightblue" stroke="midnightblue" points="1040.14,-326.807 1030.54,-331.285 1040.83,-333.773 1040.14,-326.807"/>
</g>
<!-- Node10 -->
<g id="node10" class="node"><title>Node10</title>
<polygon fill="white" stroke="#bfbfbf" points="162.5,-403.5 162.5,-422.5 255.5,-422.5 255.5,-403.5 162.5,-403.5"/>
<text text-anchor="middle" x="209" y="-410.5" font-family="Helvetica,sans-Serif" font-size="10.00">ResourceBundle</text>
</g>
<!-- Node10&#45;&gt;Node1 -->
<g id="edge26" class="edge"><title>Node10&#45;&gt;Node1</title>
<path fill="none" stroke="#9a32cd" stroke-dasharray="5,2" d="M265.797,-402.253C328.043,-390.195 420.549,-372.043 424,-370 468.974,-343.37 502.745,-287.787 514.991,-265.523"/>
<polygon fill="#9a32cd" stroke="#9a32cd" points="264.857,-398.87 255.704,-404.206 266.186,-405.742 264.857,-398.87"/>
<text text-anchor="middle" x="369" y="-396" font-family="Helvetica,sans-Serif" font-size="10.00"> myResources</text>
</g>
<!-- Node10&#45;&gt;Node8 -->
<g id="edge9" class="edge"><title>Node10&#45;&gt;Node8</title>
<path fill="none" stroke="#9a32cd" stroke-dasharray="5,2" d="M265.874,-412.332C405.173,-411.034 779.031,-409.797 1090,-429 1139.24,-432.041 1195.79,-438.498 1232.15,-443.038"/>
<polygon fill="#9a32cd" stroke="#9a32cd" points="265.827,-408.832 255.862,-412.43 265.896,-415.832 265.827,-408.832"/>
<text text-anchor="middle" x="798" y="-421" font-family="Helvetica,sans-Serif" font-size="10.00"> myResources</text>
</g>
<!-- Node11 -->
<g id="node11" class="node"><title>Node11</title>
<g id="a_node11"><a xlink:href="../../d4/dd9/classcontroller_1_1_s_logo_controller.html" target="_top" xlink:title="controller.SLogoController">
<polygon fill="white" stroke="black" points="940,-238.5 940,-257.5 1080,-257.5 1080,-238.5 940,-238.5"/>
<text text-anchor="middle" x="1010" y="-245.5" font-family="Helvetica,sans-Serif" font-size="10.00">controller.SLogoController</text>
</a>
</g>
</g>
<!-- Node11&#45;&gt;Node1 -->
<g id="edge34" class="edge"><title>Node11&#45;&gt;Node1</title>
<path fill="none" stroke="#9a32cd" stroke-dasharray="5,2" d="M929.543,-249.305C826.117,-251.004 648.884,-253.916 566.509,-255.269"/>
<polygon fill="#9a32cd" stroke="#9a32cd" points="929.682,-252.804 939.623,-249.14 929.567,-245.804 929.682,-252.804"/>
<text text-anchor="middle" x="798" y="-255" font-family="Helvetica,sans-Serif" font-size="10.00"> myController</text>
</g>
<!-- Node11&#45;&gt;Node8 -->
<g id="edge10" class="edge"><title>Node11&#45;&gt;Node8</title>
<path fill="none" stroke="#9a32cd" stroke-dasharray="5,2" d="M1090.4,-259.121C1130.37,-268.286 1177.17,-284.915 1210,-315 1248.28,-350.086 1263.73,-414.266 1268.36,-438.445"/>
<polygon fill="#9a32cd" stroke="#9a32cd" points="1090.91,-255.651 1080.39,-256.949 1089.42,-262.492 1090.91,-255.651"/>
<text text-anchor="middle" x="1159" y="-318" font-family="Helvetica,sans-Serif" font-size="10.00"> myController</text>
</g>
<!-- Node11&#45;&gt;Node24 -->
<g id="edge30" class="edge"><title>Node11&#45;&gt;Node24</title>
<path fill="none" stroke="#9a32cd" stroke-dasharray="5,2" d="M1090.49,-243.843C1192.77,-238.496 1365.77,-229.45 1437.42,-225.704"/>
<polygon fill="#9a32cd" stroke="#9a32cd" points="1090.02,-240.363 1080.21,-244.381 1090.38,-247.354 1090.02,-240.363"/>
<text text-anchor="middle" x="1271" y="-240" font-family="Helvetica,sans-Serif" font-size="10.00"> myController</text>
</g>
<!-- Node12&#45;&gt;Node11 -->
<g id="edge11" class="edge"><title>Node12&#45;&gt;Node11</title>
<path fill="none" stroke="#9a32cd" stroke-dasharray="5,2" d="M816.786,-130.48C840.964,-152.242 886.224,-190.748 930,-216 945.766,-225.095 964.619,-232.837 979.953,-238.427"/>
<polygon fill="#9a32cd" stroke="#9a32cd" points="818.902,-127.673 809.15,-123.531 814.19,-132.85 818.902,-127.673"/>
<text text-anchor="middle" x="884" y="-208" font-family="Helvetica,sans-Serif" font-size="10.00"> myParser</text>
</g>
<!-- Node13 -->
<g id="node13" class="node"><title>Node13</title>
<polygon fill="white" stroke="#bfbfbf" points="465,-123 465,-153 577,-153 577,-123 465,-123"/>
<text text-anchor="start" x="473" y="-141" font-family="Helvetica,sans-Serif" font-size="10.00">List&lt; Entry&lt; String,</text>
<text text-anchor="middle" x="521" y="-130" font-family="Helvetica,sans-Serif" font-size="10.00"> Pattern &gt; &gt;</text>
</g>
<!-- Node13&#45;&gt;Node12 -->
<g id="edge13" class="edge"><title>Node13&#45;&gt;Node12</title>
<path fill="none" stroke="#9a32cd" stroke-dasharray="5,2" d="M587.31,-132.3C640.334,-127.673 713.352,-121.3 757.753,-117.425"/>
<polygon fill="#9a32cd" stroke="#9a32cd" points="586.977,-128.816 577.32,-133.172 587.586,-135.789 586.977,-128.816"/>
<text text-anchor="middle" x="679" y="-133" font-family="Helvetica,sans-Serif" font-size="10.00"> myPatterns</text>
</g>
<!-- Node14 -->
<g id="node14" class="node"><title>Node14</title>
<g id="a_node14"><a xlink:href="../../d1/dca/classmodel_1_1_execution_environment.html" target="_top" xlink:title="model.ExecutionEnvironment">
<polygon fill="white" stroke="black" points="442.5,-46.5 442.5,-65.5 599.5,-65.5 599.5,-46.5 442.5,-46.5"/>
<text text-anchor="middle" x="521" y="-53.5" font-family="Helvetica,sans-Serif" font-size="10.00">model.ExecutionEnvironment</text>
</a>
</g>
</g>
<!-- Node14&#45;&gt;Node12 -->
<g id="edge14" class="edge"><title>Node14&#45;&gt;Node12</title>
<path fill="none" stroke="#9a32cd" stroke-dasharray="5,2" d="M609.73,-49.3645C650.542,-49.2302 699.008,-53.3863 740,-69 759.794,-76.5395 778.156,-93.5633 788.441,-104.376"/>
<polygon fill="#9a32cd" stroke="#9a32cd" points="609.485,-45.8671 599.528,-49.4867 609.569,-52.8666 609.485,-45.8671"/>
<text text-anchor="middle" x="679" y="-72" font-family="Helvetica,sans-Serif" font-size="10.00"> myExecutionParameters</text>
</g>
<!-- Node15 -->
<g id="node15" class="node"><title>Node15</title>
<polygon fill="white" stroke="#bfbfbf" points="173.5,-49.5 173.5,-68.5 244.5,-68.5 244.5,-49.5 173.5,-49.5"/>
<text text-anchor="middle" x="209" y="-56.5" font-family="Helvetica,sans-Serif" font-size="10.00">Observable</text>
</g>
<!-- Node15&#45;&gt;Node14 -->
<g id="edge15" class="edge"><title>Node15&#45;&gt;Node14</title>
<path fill="none" stroke="midnightblue" d="M254.942,-58.5651C303.974,-58.0906 383.356,-57.3224 442.485,-56.7501"/>
<polygon fill="midnightblue" stroke="midnightblue" points="254.624,-55.0679 244.659,-58.6646 254.692,-62.0676 254.624,-55.0679"/>
</g>
<!-- Node16 -->
<g id="node16" class="node"><title>Node16</title>
<polygon fill="white" stroke="#bfbfbf" points="122,-0 122,-30 296,-30 296,-0 122,-0"/>
<text text-anchor="start" x="130" y="-18" font-family="Helvetica,sans-Serif" font-size="10.00">Map&lt; String, model.instructions.</text>
<text text-anchor="middle" x="209" y="-7" font-family="Helvetica,sans-Serif" font-size="10.00">Instruction &gt;</text>
</g>
<!-- Node16&#45;&gt;Node14 -->
<g id="edge16" class="edge"><title>Node16&#45;&gt;Node14</title>
<path fill="none" stroke="#9a32cd" stroke-dasharray="5,2" d="M306.347,-17.1425C343.405,-19.284 385.938,-23.3561 424,-31 432.268,-32.6604 433.896,-34.6668 442,-37 453.652,-40.355 466.393,-43.6241 478.137,-46.4781"/>
<polygon fill="#9a32cd" stroke="#9a32cd" points="306.222,-13.6308 296.049,-16.5883 305.846,-20.6207 306.222,-13.6308"/>
<text text-anchor="middle" x="369" y="-45" font-family="Helvetica,sans-Serif" font-size="10.00"> myVariableMap</text>
<text text-anchor="middle" x="369" y="-34" font-family="Helvetica,sans-Serif" font-size="10.00">myUserInstructionMap</text>
</g>
<!-- Node17 -->
<g id="node17" class="node"><title>Node17</title>
<polygon fill="white" stroke="#bfbfbf" points="460,-8.5 460,-27.5 582,-27.5 582,-8.5 460,-8.5"/>
<text text-anchor="middle" x="521" y="-15.5" font-family="Helvetica,sans-Serif" font-size="10.00">Map&lt; String, String &gt;</text>
</g>
<!-- Node17&#45;&gt;Node12 -->
<g id="edge17" class="edge"><title>Node17&#45;&gt;Node12</title>
<path fill="none" stroke="#9a32cd" stroke-dasharray="5,2" d="M592.6,-8.95614C637.55,-6.57015 695.476,-9.99001 740,-35 768.164,-50.8203 786.031,-87.0096 793.289,-104.367"/>
<polygon fill="#9a32cd" stroke="#9a32cd" points="592.101,-5.48081 582.345,-9.61192 592.548,-12.4665 592.101,-5.48081"/>
<text text-anchor="middle" x="679" y="-38" font-family="Helvetica,sans-Serif" font-size="10.00"> myCommandMap</text>
</g>
<!-- Node18 -->
<g id="node18" class="node"><title>Node18</title>
<polygon fill="white" stroke="#bfbfbf" points="943,-564 943,-594 1077,-594 1077,-564 943,-564"/>
<text text-anchor="start" x="951" y="-582" font-family="Helvetica,sans-Serif" font-size="10.00">TableView&lt; view.Variable</text>
<text text-anchor="middle" x="1010" y="-571" font-family="Helvetica,sans-Serif" font-size="10.00">View &gt;</text>
</g>
<!-- Node18&#45;&gt;Node8 -->
<g id="edge19" class="edge"><title>Node18&#45;&gt;Node8</title>
<path fill="none" stroke="#9a32cd" stroke-dasharray="5,2" d="M1087.57,-584.886C1128.54,-583.874 1177.18,-575.404 1210,-546 1232.01,-526.285 1211.75,-506.68 1228,-482 1234.5,-472.127 1244.78,-463.736 1253.54,-457.76"/>
<polygon fill="#9a32cd" stroke="#9a32cd" points="1087.29,-581.389 1077.33,-584.991 1087.36,-588.388 1087.29,-581.389"/>
<text text-anchor="middle" x="1159" y="-598" font-family="Helvetica,sans-Serif" font-size="10.00"> turtlePropertiesTable</text>
<text text-anchor="middle" x="1159" y="-587" font-family="Helvetica,sans-Serif" font-size="10.00">variablesTable</text>
</g>
<!-- Node19 -->
<g id="node19" class="node"><title>Node19</title>
<polygon fill="white" stroke="#bfbfbf" points="930.5,-515 930.5,-545 1089.5,-545 1089.5,-515 930.5,-515"/>
<text text-anchor="start" x="938.5" y="-533" font-family="Helvetica,sans-Serif" font-size="10.00">ObservableList&lt; view.Variable</text>
<text text-anchor="middle" x="1010" y="-522" font-family="Helvetica,sans-Serif" font-size="10.00">View &gt;</text>
</g>
<!-- Node19&#45;&gt;Node8 -->
<g id="edge21" class="edge"><title>Node19&#45;&gt;Node8</title>
<path fill="none" stroke="#9a32cd" stroke-dasharray="5,2" d="M1099.7,-531.473C1135.76,-528.73 1176.69,-521.132 1210,-503 1220.8,-497.123 1219.19,-490.569 1228,-482 1237.15,-473.106 1248.43,-464.066 1257,-457.545"/>
<polygon fill="#9a32cd" stroke="#9a32cd" points="1099.42,-527.983 1089.67,-532.122 1099.87,-534.969 1099.42,-527.983"/>
<text text-anchor="middle" x="1159" y="-534" font-family="Helvetica,sans-Serif" font-size="10.00"> variablesList</text>
</g>
<!-- Node20 -->
<g id="node20" class="node"><title>Node20</title>
<polygon fill="white" stroke="#bfbfbf" points="941,-476.5 941,-495.5 1079,-495.5 1079,-476.5 941,-476.5"/>
<text text-anchor="middle" x="1010" y="-483.5" font-family="Helvetica,sans-Serif" font-size="10.00">ObservableList&lt; String &gt;</text>
</g>
<!-- Node20&#45;&gt;Node8 -->
<g id="edge22" class="edge"><title>Node20&#45;&gt;Node8</title>
<path fill="none" stroke="#9a32cd" stroke-dasharray="5,2" d="M1089.19,-479.333C1126.01,-475.589 1170.44,-470.2 1210,-463 1218.13,-461.52 1226.8,-459.573 1234.95,-457.574"/>
<polygon fill="#9a32cd" stroke="#9a32cd" points="1088.62,-475.872 1079.02,-480.345 1089.32,-482.837 1088.62,-475.872"/>
<text text-anchor="middle" x="1159" y="-491" font-family="Helvetica,sans-Serif" font-size="10.00"> commandItems</text>
<text text-anchor="middle" x="1159" y="-480" font-family="Helvetica,sans-Serif" font-size="10.00">historyItems</text>
</g>
<!-- Node21 -->
<g id="node21" class="node"><title>Node21</title>
<polygon fill="white" stroke="#bfbfbf" points="957,-438.5 957,-457.5 1063,-457.5 1063,-438.5 957,-438.5"/>
<text text-anchor="middle" x="1010" y="-445.5" font-family="Helvetica,sans-Serif" font-size="10.00">ListView&lt; String &gt;</text>
</g>
<!-- Node21&#45;&gt;Node8 -->
<g id="edge23" class="edge"><title>Node21&#45;&gt;Node8</title>
<path fill="none" stroke="#9a32cd" stroke-dasharray="5,2" d="M1073.38,-448C1122.94,-448 1190.61,-448 1232.25,-448"/>
<polygon fill="#9a32cd" stroke="#9a32cd" points="1073.1,-444.5 1063.1,-448 1073.1,-451.5 1073.1,-444.5"/>
<text text-anchor="middle" x="1159" y="-451" font-family="Helvetica,sans-Serif" font-size="10.00"> historyList</text>
</g>
<!-- Node22 -->
<g id="node22" class="node"><title>Node22</title>
<polygon fill="white" stroke="#bfbfbf" points="1239.5,-491.5 1239.5,-510.5 1302.5,-510.5 1302.5,-491.5 1239.5,-491.5"/>
<text text-anchor="middle" x="1271" y="-498.5" font-family="Helvetica,sans-Serif" font-size="10.00">Rectangle</text>
</g>
<!-- Node22&#45;&gt;Node3 -->
<g id="edge24" class="edge"><title>Node22&#45;&gt;Node3</title>
<path fill="none" stroke="#9a32cd" stroke-dasharray="5,2" d="M1312.93,-499.617C1340.02,-499.263 1376.27,-499.86 1408,-504 1417.33,-505.218 1427.31,-507.28 1436.46,-509.493"/>
<polygon fill="#9a32cd" stroke="#9a32cd" points="1312.6,-496.122 1302.66,-499.802 1312.72,-503.121 1312.6,-496.122"/>
<text text-anchor="middle" x="1370" y="-507" font-family="Helvetica,sans-Serif" font-size="10.00"> myBackground</text>
</g>
<!-- Node23 -->
<g id="node23" class="node"><title>Node23</title>
<polygon fill="white" stroke="#bfbfbf" points="186.5,-132.5 186.5,-151.5 231.5,-151.5 231.5,-132.5 186.5,-132.5"/>
<text text-anchor="middle" x="209" y="-139.5" font-family="Helvetica,sans-Serif" font-size="10.00">Stage</text>
</g>
<!-- Node23&#45;&gt;Node1 -->
<g id="edge25" class="edge"><title>Node23&#45;&gt;Node1</title>
<path fill="none" stroke="#9a32cd" stroke-dasharray="5,2" d="M241.894,-142.106C285.061,-143.364 363.619,-149.648 424,-177 461.356,-193.922 496.143,-229.242 511.596,-246.329"/>
<polygon fill="#9a32cd" stroke="#9a32cd" points="241.789,-138.603 231.715,-141.885 241.637,-145.602 241.789,-138.603"/>
<text text-anchor="middle" x="369" y="-180" font-family="Helvetica,sans-Serif" font-size="10.00"> myStage</text>
</g>
<!-- Node24&#45;&gt;Node1 -->
<g id="edge27" class="edge"><title>Node24&#45;&gt;Node1</title>
<path fill="none" stroke="#9a32cd" stroke-dasharray="5,2" d="M1427.27,-216.145C1387.28,-209.482 1325.8,-201 1272,-201 797,-201 797,-201 797,-201 705.466,-201 600.063,-230.662 550.526,-246.42"/>
<polygon fill="#9a32cd" stroke="#9a32cd" points="1426.76,-219.608 1437.2,-217.836 1427.93,-212.707 1426.76,-219.608"/>
<text text-anchor="middle" x="1010" y="-204" font-family="Helvetica,sans-Serif" font-size="10.00"> myEditor</text>
</g>
<!-- Node25 -->
<g id="node25" class="node"><title>Node25</title>
<polygon fill="white" stroke="#bfbfbf" points="1250,-153.5 1250,-172.5 1292,-172.5 1292,-153.5 1250,-153.5"/>
<text text-anchor="middle" x="1271" y="-160.5" font-family="Helvetica,sans-Serif" font-size="10.00">HBox</text>
</g>
<!-- Node25&#45;&gt;Node24 -->
<g id="edge28" class="edge"><title>Node25&#45;&gt;Node24</title>
<path fill="none" stroke="midnightblue" d="M1302.44,-165.196C1330.57,-167.958 1373.13,-174.021 1408,-187 1426.09,-193.734 1444.85,-205.756 1456.93,-214.266"/>
<polygon fill="midnightblue" stroke="midnightblue" points="1302.69,-161.704 1292.42,-164.291 1302.07,-168.676 1302.69,-161.704"/>
</g>
<!-- Node26 -->
<g id="node26" class="node"><title>Node26</title>
<polygon fill="white" stroke="#bfbfbf" points="1246.5,-115.5 1246.5,-134.5 1295.5,-134.5 1295.5,-115.5 1246.5,-115.5"/>
<text text-anchor="middle" x="1271" y="-122.5" font-family="Helvetica,sans-Serif" font-size="10.00">Button</text>
</g>
<!-- Node26&#45;&gt;Node24 -->
<g id="edge29" class="edge"><title>Node26&#45;&gt;Node24</title>
<path fill="none" stroke="#9a32cd" stroke-dasharray="5,2" d="M1305.72,-126.696C1334.59,-129.437 1376.38,-136.558 1408,-155 1433.6,-169.928 1454.43,-199.042 1464.12,-214.239"/>
<polygon fill="#9a32cd" stroke="#9a32cd" points="1305.96,-123.205 1295.71,-125.872 1305.39,-130.181 1305.96,-123.205"/>
<text text-anchor="middle" x="1370" y="-158" font-family="Helvetica,sans-Serif" font-size="10.00"> runButton</text>
</g>
<!-- Node27 -->
<g id="node27" class="node"><title>Node27</title>
<polygon fill="white" stroke="#bfbfbf" points="1242,-276.5 1242,-295.5 1300,-295.5 1300,-276.5 1242,-276.5"/>
<text text-anchor="middle" x="1271" y="-283.5" font-family="Helvetica,sans-Serif" font-size="10.00">TextArea</text>
</g>
<!-- Node27&#45;&gt;Node24 -->
<g id="edge31" class="edge"><title>Node27&#45;&gt;Node24</title>
<path fill="none" stroke="#9a32cd" stroke-dasharray="5,2" d="M1310.24,-282.645C1338.05,-279.334 1376.22,-272.958 1408,-261 1426.07,-254.201 1444.83,-242.193 1456.92,-233.703"/>
<polygon fill="#9a32cd" stroke="#9a32cd" points="1309.68,-279.186 1300.13,-283.77 1310.45,-286.143 1309.68,-279.186"/>
<text text-anchor="middle" x="1370" y="-283" font-family="Helvetica,sans-Serif" font-size="10.00"> textEditor</text>
</g>
<!-- Node28 -->
<g id="node28" class="node"><title>Node28</title>
<polygon fill="white" stroke="#bfbfbf" points="149.5,-360.5 149.5,-379.5 268.5,-379.5 268.5,-360.5 149.5,-360.5"/>
<text text-anchor="middle" x="209" y="-367.5" font-family="Helvetica,sans-Serif" font-size="10.00">Map&lt; String, Node &gt;</text>
</g>
<!-- Node28&#45;&gt;Node1 -->
<g id="edge33" class="edge"><title>Node28&#45;&gt;Node1</title>
<path fill="none" stroke="#9a32cd" stroke-dasharray="5,2" d="M278.615,-362.701C331.097,-356.392 398.63,-346.492 424,-335 461.356,-318.078 496.143,-282.758 511.596,-265.671"/>
<polygon fill="#9a32cd" stroke="#9a32cd" points="278.191,-359.227 268.671,-363.876 279.012,-366.179 278.191,-359.227"/>
<text text-anchor="middle" x="369" y="-361" font-family="Helvetica,sans-Serif" font-size="10.00"> variables</text>
</g>
<!-- Node29 -->
<g id="node29" class="node"><title>Node29</title>
<polygon fill="white" stroke="#bfbfbf" points="168.5,-322.5 168.5,-341.5 249.5,-341.5 249.5,-322.5 168.5,-322.5"/>
<text text-anchor="middle" x="209" y="-329.5" font-family="Helvetica,sans-Serif" font-size="10.00">Dimension2D</text>
</g>
<!-- Node29&#45;&gt;Node1 -->
<g id="edge35" class="edge"><title>Node29&#45;&gt;Node1</title>
<path fill="none" stroke="#9a32cd" stroke-dasharray="5,2" d="M259.764,-326.889C303.6,-321.62 368.871,-311.896 424,-296 451.411,-288.096 481.555,-274.712 500.617,-265.623"/>
<polygon fill="#9a32cd" stroke="#9a32cd" points="259.177,-323.434 249.651,-328.071 259.99,-330.386 259.177,-323.434"/>
<text text-anchor="middle" x="369" y="-323" font-family="Helvetica,sans-Serif" font-size="10.00"> myDimensions</text>
</g>
<!-- Node30 -->
<g id="node30" class="node"><title>Node30</title>
<polygon fill="white" stroke="#bfbfbf" points="185.5,-284.5 185.5,-303.5 232.5,-303.5 232.5,-284.5 185.5,-284.5"/>
<text text-anchor="middle" x="209" y="-291.5" font-family="Helvetica,sans-Serif" font-size="10.00">Scene</text>
</g>
<!-- Node30&#45;&gt;Node1 -->
<g id="edge36" class="edge"><title>Node30&#45;&gt;Node1</title>
<path fill="none" stroke="#9a32cd" stroke-dasharray="5,2" d="M242.742,-290.058C284.73,-284.994 359.794,-275.913 424,-268 440.67,-265.945 458.965,-263.665 475.072,-261.649"/>
<polygon fill="#9a32cd" stroke="#9a32cd" points="242.316,-286.584 232.807,-291.255 243.154,-293.533 242.316,-286.584"/>
<text text-anchor="middle" x="369" y="-284" font-family="Helvetica,sans-Serif" font-size="10.00"> myScene</text>
</g>
<!-- Node31 -->
<g id="node31" class="node"><title>Node31</title>
<g id="a_node31"><a xlink:href="../../de/d0a/classview_1_1_drawer.html" target="_top" xlink:title="view.Drawer">
<polygon fill="white" stroke="black" points="172.5,-246.5 172.5,-265.5 245.5,-265.5 245.5,-246.5 172.5,-246.5"/>
<text text-anchor="middle" x="209" y="-253.5" font-family="Helvetica,sans-Serif" font-size="10.00">view.Drawer</text>
</a>
</g>
</g>
<!-- Node31&#45;&gt;Node1 -->
<g id="edge38" class="edge"><title>Node31&#45;&gt;Node1</title>
<path fill="none" stroke="#9a32cd" stroke-dasharray="5,2" d="M255.712,-256C314.757,-256 416.877,-256 475.383,-256"/>
<polygon fill="#9a32cd" stroke="#9a32cd" points="255.561,-252.5 245.561,-256 255.561,-259.5 255.561,-252.5"/>
<text text-anchor="middle" x="369" y="-259" font-family="Helvetica,sans-Serif" font-size="10.00"> drawer</text>
</g>
<!-- Node32 -->
<g id="node32" class="node"><title>Node32</title>
<polygon fill="white" stroke="#bfbfbf" points="0.5,-246.5 0.5,-265.5 41.5,-265.5 41.5,-246.5 0.5,-246.5"/>
<text text-anchor="middle" x="21" y="-253.5" font-family="Helvetica,sans-Serif" font-size="10.00">Color</text>
</g>
<!-- Node32&#45;&gt;Node31 -->
<g id="edge39" class="edge"><title>Node32&#45;&gt;Node31</title>
<path fill="none" stroke="#9a32cd" stroke-dasharray="5,2" d="M51.8575,-256C84.6426,-256 137.265,-256 172.23,-256"/>
<polygon fill="#9a32cd" stroke="#9a32cd" points="51.5537,-252.5 41.5537,-256 51.5537,-259.5 51.5537,-252.5"/>
<text text-anchor="middle" x="82" y="-259" font-family="Helvetica,sans-Serif" font-size="10.00"> myColor</text>
</g>
<!-- Node33 -->
<g id="node33" class="node"><title>Node33</title>
<polygon fill="white" stroke="#bfbfbf" points="179.5,-208.5 179.5,-227.5 238.5,-227.5 238.5,-208.5 179.5,-208.5"/>
<text text-anchor="middle" x="209" y="-215.5" font-family="Helvetica,sans-Serif" font-size="10.00">GridPane</text>
</g>
<!-- Node33&#45;&gt;Node1 -->
<g id="edge40" class="edge"><title>Node33&#45;&gt;Node1</title>
<path fill="none" stroke="#9a32cd" stroke-dasharray="5,2" d="M248.802,-221.606C291.726,-225.727 362.909,-232.949 424,-241 440.724,-243.204 459.031,-245.975 475.132,-248.534"/>
<polygon fill="#9a32cd" stroke="#9a32cd" points="249.069,-218.116 238.782,-220.651 248.405,-225.084 249.069,-218.116"/>
<text text-anchor="middle" x="369" y="-244" font-family="Helvetica,sans-Serif" font-size="10.00"> myRoot</text>
</g>
<!-- Node34 -->
<g id="node34" class="node"><title>Node34</title>
<polygon fill="white" stroke="#bfbfbf" points="186,-170.5 186,-189.5 232,-189.5 232,-170.5 186,-170.5"/>
<text text-anchor="middle" x="209" y="-177.5" font-family="Helvetica,sans-Serif" font-size="10.00">Group</text>
</g>
<!-- Node34&#45;&gt;Node1 -->
<g id="edge42" class="edge"><title>Node34&#45;&gt;Node1</title>
<path fill="none" stroke="#9a32cd" stroke-dasharray="5,2" d="M242.297,-182.55C284.69,-186.479 361.099,-195.572 424,-214 452.108,-222.234 482.831,-236.723 501.763,-246.343"/>
<polygon fill="#9a32cd" stroke="#9a32cd" points="242.552,-179.059 232.281,-181.66 241.932,-186.032 242.552,-179.059"/>
<text text-anchor="middle" x="369" y="-217" font-family="Helvetica,sans-Serif" font-size="10.00"> lines</text>
</g>
</g>
</svg>
        <g id="navigator" transform="translate(0 0)" fill="#404254">
                <rect fill="#f2f5e9" fill-opacity="0.5" stroke="#606060" stroke-width=".5" x="0" y="0" width="60" height="60"/>
                <use id="zoomplus" xlink:href="#zoomPlus" x="17" y="9" onmousedown="handleZoom(evt,'in')"/>
                <use id="zoomminus" xlink:href="#zoomMin" x="42" y="9" onmousedown="handleZoom(evt,'out')"/>
                <use id="reset" xlink:href="#resetDef" x="30" y="36" onmousedown="handleReset()"/>
                <g id="arrowUp" xlink:href="#dirArrow" transform="translate(30 24)" onmousedown="handlePan(0,-1)">
                  <use xlink:href="#rim" fill="#404040">
                        <set attributeName="fill" to="#808080" begin="arrowUp.mouseover" end="arrowUp.mouseout"/>
                  </use>
                  <path fill="none" stroke="white" stroke-width="1.5" d="M0,-3.0v7 M-2.5,-0.5L0,-3.0L2.5,-0.5"/>
                </g>
                <g id="arrowRight" xlink:href="#dirArrow" transform="rotate(90) translate(36 -43)" onmousedown="handlePan(1,0)">
                  <use xlink:href="#rim" fill="#404040">
                        <set attributeName="fill" to="#808080" begin="arrowRight.mouseover" end="arrowRight.mouseout"/>
                  </use>
                  <path fill="none" stroke="white" stroke-width="1.5" d="M0,-3.0v7 M-2.5,-0.5L0,-3.0L2.5,-0.5"/>
                </g>
                <g id="arrowDown" xlink:href="#dirArrow" transform="rotate(180) translate(-30 -48)" onmousedown="handlePan(0,1)">
                  <use xlink:href="#rim" fill="#404040">
                        <set attributeName="fill" to="#808080" begin="arrowDown.mouseover" end="arrowDown.mouseout"/>
                  </use>
                  <path fill="none" stroke="white" stroke-width="1.5" d="M0,-3.0v7 M-2.5,-0.5L0,-3.0L2.5,-0.5"/>
                </g>
                <g id="arrowLeft" xlink:href="#dirArrow" transform="rotate(270) translate(-36 17)" onmousedown="handlePan(-1,0)">
                  <use xlink:href="#rim" fill="#404040">
                        <set attributeName="fill" to="#808080" begin="arrowLeft.mouseover" end="arrowLeft.mouseout"/>
                  </use>
                  <path fill="none" stroke="white" stroke-width="1.5" d="M0,-3.0v7 M-2.5,-0.5L0,-3.0L2.5,-0.5"/>
                </g>
        </g>
        <svg viewBox="0 0 15 15" width="100%" height="30px" preserveAspectRatio="xMaxYMin meet">
         <g id="arrow_out" transform="scale(0.3 0.3)">
          <a xlink:href="classview_1_1_s_logo_view__coll__graph_org.svg" target="_base">
           <rect id="button" ry="5" rx="5" y="6" x="6" height="38" width="38"
                fill="#f2f5e9" fill-opacity="0.5" stroke="#606060" stroke-width="1.0"/>
           <path id="arrow"
             d="M 11.500037,31.436501 C 11.940474,20.09759 22.043105,11.32322 32.158766,21.979434 L 37.068811,17.246167 C 37.068811,17.246167 37.088388,32 37.088388,32 L 22.160133,31.978069 C 22.160133,31.978069 26.997745,27.140456 26.997745,27.140456 C 18.528582,18.264221 13.291696,25.230495 11.500037,31.436501 z"
             style="fill:#404040;"/>
          </a>
         </g>
        </svg>
</svg>
