<?xml version="1.0" encoding="UTF-8" standalone="no"?>
<!DOCTYPE svg PUBLIC "-//W3C//DTD SVG 1.1//EN"
 "http://www.w3.org/Graphics/SVG/1.1/DTD/svg11.dtd">
<!-- Generated by graphviz version 2.36.0 (20140111.2315)
 -->
<!-- Title: model.instructions.MathInstruction Pages: 1 -->
<svg width="1734pt" height="689pt"
 viewBox="0.00 0.00 1734.00 689.31" xmlns="http://www.w3.org/2000/svg" xmlns:xlink="http://www.w3.org/1999/xlink">
<g id="graph0" class="graph" transform="scale(1 1) rotate(0) translate(4 685.306)">
<title>model.instructions.MathInstruction</title>
<polygon fill="white" stroke="none" points="-4,4 -4,-685.306 1730,-685.306 1730,4 -4,4"/>
<!-- Node1 -->
<g id="node1" class="node"><title>Node1</title>
<polygon fill="#bfbfbf" stroke="black" points="888,-572.806 888,-591.806 1070,-591.806 1070,-572.806 888,-572.806"/>
<text text-anchor="middle" x="979" y="-579.806" font-family="Helvetica,sans-Serif" font-size="10.00">model.instructions.MathInstruction</text>
</g>
<!-- Node2 -->
<g id="node2" class="node"><title>Node2</title>
<g id="a_node2"><a xlink:href="../../d1/dea/classmodel_1_1instructions_1_1_instruction.html" target="_top" xlink:title="model.instructions.Instruction">
<polygon fill="white" stroke="black" points="638,-572.806 638,-591.806 796,-591.806 796,-572.806 638,-572.806"/>
<text text-anchor="middle" x="717" y="-579.806" font-family="Helvetica,sans-Serif" font-size="10.00">model.instructions.Instruction</text>
</a>
</g>
</g>
<!-- Node2&#45;&gt;Node1 -->
<g id="edge1" class="edge"><title>Node2&#45;&gt;Node1</title>
<path fill="none" stroke="midnightblue" d="M806.315,-582.306C832.561,-582.306 861.342,-582.306 887.712,-582.306"/>
<polygon fill="midnightblue" stroke="midnightblue" points="806.009,-578.806 796.009,-582.306 806.009,-585.806 806.009,-578.806"/>
</g>
<!-- Node3 -->
<g id="node3" class="node"><title>Node3</title>
<polygon fill="white" stroke="#bfbfbf" points="57,-426.806 57,-445.806 117,-445.806 117,-426.806 57,-426.806"/>
<text text-anchor="middle" x="87" y="-433.806" font-family="Helvetica,sans-Serif" font-size="10.00">Observer</text>
</g>
<!-- Node3&#45;&gt;Node2 -->
<g id="edge2" class="edge"><title>Node3&#45;&gt;Node2</title>
<path fill="none" stroke="midnightblue" d="M126.636,-448.611C198.896,-471.254 359.706,-519.89 498,-549.306 544.052,-559.102 596.176,-567.102 637.907,-572.772"/>
<polygon fill="midnightblue" stroke="midnightblue" points="127.628,-445.255 117.039,-445.594 125.528,-451.932 127.628,-445.255"/>
</g>
<!-- Node9 -->
<g id="node9" class="node"><title>Node9</title>
<g id="a_node9"><a xlink:href="../../d6/de7/classview_1_1_s_logo_view.html" target="_top" xlink:title="view.SLogoView">
<polygon fill="white" stroke="black" points="355.5,-338.806 355.5,-357.806 446.5,-357.806 446.5,-338.806 355.5,-338.806"/>
<text text-anchor="middle" x="401" y="-345.806" font-family="Helvetica,sans-Serif" font-size="10.00">view.SLogoView</text>
</a>
</g>
</g>
<!-- Node3&#45;&gt;Node9 -->
<g id="edge9" class="edge"><title>Node3&#45;&gt;Node9</title>
<path fill="none" stroke="midnightblue" d="M127.115,-430.762C170.895,-423.96 243.612,-410.867 304,-391.306 331.971,-382.246 362.73,-367.574 381.707,-357.933"/>
<polygon fill="midnightblue" stroke="midnightblue" points="126.524,-427.311 117.165,-432.276 127.578,-434.232 126.524,-427.311"/>
</g>
<!-- Node21 -->
<g id="node21" class="node"><title>Node21</title>
<g id="a_node21"><a xlink:href="../../dc/df5/classmodel_1_1_parser.html" target="_top" xlink:title="model.Parser">
<polygon fill="white" stroke="black" points="677,-426.806 677,-445.806 757,-445.806 757,-426.806 677,-426.806"/>
<text text-anchor="middle" x="717" y="-433.806" font-family="Helvetica,sans-Serif" font-size="10.00">model.Parser</text>
</a>
</g>
</g>
<!-- Node3&#45;&gt;Node21 -->
<g id="edge22" class="edge"><title>Node3&#45;&gt;Node21</title>
<path fill="none" stroke="midnightblue" d="M127.273,-436.306C240.078,-436.306 564.163,-436.306 676.834,-436.306"/>
<polygon fill="midnightblue" stroke="midnightblue" points="127.03,-432.806 117.03,-436.306 127.03,-439.806 127.03,-432.806"/>
</g>
<!-- Node4 -->
<g id="node4" class="node"><title>Node4</title>
<g id="a_node4"><a xlink:href="../../d1/dca/classmodel_1_1_execution_environment.html" target="_top" xlink:title="model.ExecutionEnvironment">
<polygon fill="white" stroke="black" points="322.5,-589.806 322.5,-608.806 479.5,-608.806 479.5,-589.806 322.5,-589.806"/>
<text text-anchor="middle" x="401" y="-596.806" font-family="Helvetica,sans-Serif" font-size="10.00">model.ExecutionEnvironment</text>
</a>
</g>
</g>
<!-- Node4&#45;&gt;Node2 -->
<g id="edge3" class="edge"><title>Node4&#45;&gt;Node2</title>
<path fill="none" stroke="#9a32cd" stroke-dasharray="5,2" d="M489.688,-594.559C536.218,-592.04 592.911,-588.97 637.914,-586.534"/>
<polygon fill="#9a32cd" stroke="#9a32cd" points="489.414,-591.068 479.618,-595.104 489.793,-598.058 489.414,-591.068"/>
<text text-anchor="middle" x="559" y="-597.306" font-family="Helvetica,sans-Serif" font-size="10.00"> myEnvironment</text>
</g>
<!-- Node4&#45;&gt;Node21 -->
<g id="edge24" class="edge"><title>Node4&#45;&gt;Node21</title>
<path fill="none" stroke="#9a32cd" stroke-dasharray="5,2" d="M446.619,-586.742C492.061,-572.904 563.655,-548.181 620,-515.306 654.863,-494.965 690.017,-462.188 706.435,-445.997"/>
<polygon fill="#9a32cd" stroke="#9a32cd" points="445.349,-583.469 436.775,-589.694 447.359,-590.174 445.349,-583.469"/>
<text text-anchor="middle" x="559" y="-573.306" font-family="Helvetica,sans-Serif" font-size="10.00"> myExecutionParameters</text>
</g>
<!-- Node5 -->
<g id="node5" class="node"><title>Node5</title>
<polygon fill="white" stroke="#bfbfbf" points="51.5,-573.806 51.5,-592.806 122.5,-592.806 122.5,-573.806 51.5,-573.806"/>
<text text-anchor="middle" x="87" y="-580.806" font-family="Helvetica,sans-Serif" font-size="10.00">Observable</text>
</g>
<!-- Node5&#45;&gt;Node4 -->
<g id="edge4" class="edge"><title>Node5&#45;&gt;Node4</title>
<path fill="none" stroke="midnightblue" d="M132.637,-585.595C182.066,-588.13 262.658,-592.263 322.457,-595.33"/>
<polygon fill="midnightblue" stroke="midnightblue" points="132.748,-582.096 122.582,-585.08 132.389,-589.087 132.748,-582.096"/>
</g>
<!-- Node6 -->
<g id="node6" class="node"><title>Node6</title>
<polygon fill="white" stroke="#bfbfbf" points="0,-650.306 0,-680.306 174,-680.306 174,-650.306 0,-650.306"/>
<text text-anchor="start" x="8" y="-668.306" font-family="Helvetica,sans-Serif" font-size="10.00">Map&lt; String, model.instructions.</text>
<text text-anchor="middle" x="87" y="-657.306" font-family="Helvetica,sans-Serif" font-size="10.00">Instruction &gt;</text>
</g>
<!-- Node6&#45;&gt;Node4 -->
<g id="edge5" class="edge"><title>Node6&#45;&gt;Node4</title>
<path fill="none" stroke="#9a32cd" stroke-dasharray="5,2" d="M184.157,-657.282C222.32,-652.053 266.068,-643.448 304,-629.306 312.785,-626.031 313.342,-621.903 322,-618.306 331.01,-614.563 340.924,-611.446 350.575,-608.894"/>
<polygon fill="#9a32cd" stroke="#9a32cd" points="183.529,-653.834 174.068,-658.604 184.438,-660.775 183.529,-653.834"/>
<text text-anchor="middle" x="248" y="-659.306" font-family="Helvetica,sans-Serif" font-size="10.00"> myUserInstructionMap</text>
</g>
<!-- Node7 -->
<g id="node7" class="node"><title>Node7</title>
<polygon fill="white" stroke="#bfbfbf" points="23,-611.806 23,-630.806 151,-630.806 151,-611.806 23,-611.806"/>
<text text-anchor="middle" x="87" y="-618.806" font-family="Helvetica,sans-Serif" font-size="10.00">Map&lt; String, Double &gt;</text>
</g>
<!-- Node7&#45;&gt;Node4 -->
<g id="edge6" class="edge"><title>Node7&#45;&gt;Node4</title>
<path fill="none" stroke="#9a32cd" stroke-dasharray="5,2" d="M161.23,-616.142C209.637,-612.729 273.011,-608.26 322.303,-604.785"/>
<polygon fill="#9a32cd" stroke="#9a32cd" points="160.867,-612.659 151.138,-616.854 161.359,-619.642 160.867,-612.659"/>
<text text-anchor="middle" x="248" y="-617.306" font-family="Helvetica,sans-Serif" font-size="10.00"> myVariableMap</text>
</g>
<!-- Node8 -->
<g id="node8" class="node"><title>Node8</title>
<polygon fill="white" stroke="#bfbfbf" points="333,-628.306 333,-658.306 469,-658.306 469,-628.306 333,-628.306"/>
<text text-anchor="start" x="341" y="-646.306" font-family="Helvetica,sans-Serif" font-size="10.00">List&lt; model.instructions.</text>
<text text-anchor="middle" x="401" y="-635.306" font-family="Helvetica,sans-Serif" font-size="10.00">Instruction &gt;</text>
</g>
<!-- Node8&#45;&gt;Node2 -->
<g id="edge7" class="edge"><title>Node8&#45;&gt;Node2</title>
<path fill="none" stroke="#9a32cd" stroke-dasharray="5,2" d="M479.301,-633.542C521.168,-627.679 573.668,-619.397 620,-609.306 642.161,-604.48 666.78,-597.523 685.538,-591.879"/>
<polygon fill="#9a32cd" stroke="#9a32cd" points="478.597,-630.106 469.171,-634.943 479.556,-637.04 478.597,-630.106"/>
<text text-anchor="middle" x="559" y="-633.306" font-family="Helvetica,sans-Serif" font-size="10.00"> myDependencies</text>
</g>
<!-- Node9&#45;&gt;Node2 -->
<g id="edge8" class="edge"><title>Node9&#45;&gt;Node2</title>
<path fill="none" stroke="#9a32cd" stroke-dasharray="5,2" d="M415.058,-366.194C440.638,-401.188 495.122,-475.475 498,-477.306 544.7,-507.014 570.123,-478.31 620,-502.306 657.145,-520.177 692.034,-555.588 707.554,-572.659"/>
<polygon fill="#9a32cd" stroke="#9a32cd" points="417.675,-363.843 408.95,-357.833 412.023,-367.973 417.675,-363.843"/>
<text text-anchor="middle" x="559" y="-505.306" font-family="Helvetica,sans-Serif" font-size="10.00"> myView</text>
</g>
<!-- Node9&#45;&gt;Node21 -->
<g id="edge26" class="edge"><title>Node9&#45;&gt;Node21</title>
<path fill="none" stroke="#9a32cd" stroke-dasharray="5,2" d="M430.604,-362.073C449.398,-370.653 474.725,-381.346 498,-388.306 550.864,-404.114 566.159,-399.235 620,-411.306 640.503,-415.903 663.266,-421.796 681.48,-426.706"/>
<polygon fill="#9a32cd" stroke="#9a32cd" points="431.962,-358.845 421.418,-357.81 429.016,-365.195 431.962,-358.845"/>
<text text-anchor="middle" x="559" y="-414.306" font-family="Helvetica,sans-Serif" font-size="10.00"> mySLogoView</text>
</g>
<!-- Node10 -->
<g id="node10" class="node"><title>Node10</title>
<g id="a_node10"><a xlink:href="../../da/d64/classview_1_1_workspace.html" target="_top" xlink:title="view.Workspace">
<polygon fill="white" stroke="black" points="1456,-397.806 1456,-416.806 1546,-416.806 1546,-397.806 1456,-397.806"/>
<text text-anchor="middle" x="1501" y="-404.806" font-family="Helvetica,sans-Serif" font-size="10.00">view.Workspace</text>
</a>
</g>
</g>
<!-- Node10&#45;&gt;Node9 -->
<g id="edge10" class="edge"><title>Node10&#45;&gt;Node9</title>
<path fill="none" stroke="#9a32cd" stroke-dasharray="5,2" d="M1490.11,-425.868C1479.58,-443.82 1461.23,-470.43 1438,-485.306 1351.49,-540.707 1310.72,-509.59 1208,-508.306 1065.74,-506.528 999.643,-588.485 888,-500.306 863.466,-480.929 892.746,-453.753 870,-432.306 845.584,-409.285 828.975,-423.534 796,-417.306 669.59,-393.43 519.813,-367.977 446.681,-355.733"/>
<polygon fill="#9a32cd" stroke="#9a32cd" points="1493.29,-427.348 1495.14,-416.915 1487.19,-423.919 1493.29,-427.348"/>
<text text-anchor="middle" x="979" y="-544.306" font-family="Helvetica,sans-Serif" font-size="10.00"> myWorkspace</text>
</g>
<!-- Node34 -->
<g id="node34" class="node"><title>Node34</title>
<g id="a_node34"><a xlink:href="../../de/d0a/classview_1_1_drawer.html" target="_top" xlink:title="view.Drawer">
<polygon fill="white" stroke="black" points="1652.5,-127.806 1652.5,-146.806 1725.5,-146.806 1725.5,-127.806 1652.5,-127.806"/>
<text text-anchor="middle" x="1689" y="-134.806" font-family="Helvetica,sans-Serif" font-size="10.00">view.Drawer</text>
</a>
</g>
</g>
<!-- Node10&#45;&gt;Node34 -->
<g id="edge42" class="edge"><title>Node10&#45;&gt;Node34</title>
<path fill="none" stroke="#9a32cd" stroke-dasharray="5,2" d="M1514.32,-389.423C1550.2,-337.338 1653.82,-186.918 1681.27,-147.083"/>
<polygon fill="#9a32cd" stroke="#9a32cd" points="1511.41,-387.476 1508.62,-397.697 1517.18,-391.447 1511.41,-387.476"/>
<text text-anchor="middle" x="1599" y="-315.306" font-family="Helvetica,sans-Serif" font-size="10.00"> myWorkspace</text>
</g>
<!-- Node11 -->
<g id="node11" class="node"><title>Node11</title>
<polygon fill="white" stroke="#bfbfbf" points="1242.5,-441.806 1242.5,-460.806 1309.5,-460.806 1309.5,-441.806 1242.5,-441.806"/>
<text text-anchor="middle" x="1276" y="-448.806" font-family="Helvetica,sans-Serif" font-size="10.00">StackPane</text>
</g>
<!-- Node11&#45;&gt;Node10 -->
<g id="edge11" class="edge"><title>Node11&#45;&gt;Node10</title>
<path fill="none" stroke="midnightblue" d="M1319.86,-444.295C1352.38,-438.805 1398.13,-430.712 1438,-422.306 1445.8,-420.661 1454.12,-418.755 1462.05,-416.865"/>
<polygon fill="midnightblue" stroke="midnightblue" points="1319.08,-440.878 1309.8,-445.983 1320.24,-447.781 1319.08,-440.878"/>
</g>
<!-- Node12 -->
<g id="node12" class="node"><title>Node12</title>
<g id="a_node12"><a xlink:href="../../d8/df7/classview_1_1_turtle_view.html" target="_top" xlink:title="view.TurtleView">
<polygon fill="white" stroke="black" points="1233,-479.806 1233,-498.806 1319,-498.806 1319,-479.806 1233,-479.806"/>
<text text-anchor="middle" x="1276" y="-486.806" font-family="Helvetica,sans-Serif" font-size="10.00">view.TurtleView</text>
</a>
</g>
</g>
<!-- Node12&#45;&gt;Node10 -->
<g id="edge12" class="edge"><title>Node12&#45;&gt;Node10</title>
<path fill="none" stroke="#9a32cd" stroke-dasharray="5,2" d="M1329.14,-478.448C1361.25,-470.859 1402.86,-459.382 1438,-444.306 1455.51,-436.794 1474.08,-425.158 1486.29,-416.944"/>
<polygon fill="#9a32cd" stroke="#9a32cd" points="1328.02,-475.114 1319.06,-480.775 1329.59,-481.934 1328.02,-475.114"/>
<text text-anchor="middle" x="1400" y="-473.306" font-family="Helvetica,sans-Serif" font-size="10.00"> myActiveTurtle</text>
</g>
<!-- Node13 -->
<g id="node13" class="node"><title>Node13</title>
<polygon fill="white" stroke="#bfbfbf" points="945,-471.806 945,-490.806 1013,-490.806 1013,-471.806 945,-471.806"/>
<text text-anchor="middle" x="979" y="-478.806" font-family="Helvetica,sans-Serif" font-size="10.00">ImageView</text>
</g>
<!-- Node13&#45;&gt;Node12 -->
<g id="edge13" class="edge"><title>Node13&#45;&gt;Node12</title>
<path fill="none" stroke="midnightblue" d="M1023.27,-482.48C1079.53,-484.005 1177.15,-486.653 1232.85,-488.163"/>
<polygon fill="midnightblue" stroke="midnightblue" points="1023.36,-478.981 1013.27,-482.208 1023.17,-485.978 1023.36,-478.981"/>
</g>
<!-- Node14 -->
<g id="node14" class="node"><title>Node14</title>
<polygon fill="white" stroke="#bfbfbf" points="1208,-392.306 1208,-422.306 1344,-422.306 1344,-392.306 1208,-392.306"/>
<text text-anchor="start" x="1216" y="-410.306" font-family="Helvetica,sans-Serif" font-size="10.00">Map&lt; Integer, view.Turtle</text>
<text text-anchor="middle" x="1276" y="-399.306" font-family="Helvetica,sans-Serif" font-size="10.00">View &gt;</text>
</g>
<!-- Node14&#45;&gt;Node10 -->
<g id="edge14" class="edge"><title>Node14&#45;&gt;Node10</title>
<path fill="none" stroke="#9a32cd" stroke-dasharray="5,2" d="M1354.56,-407.306C1388.44,-407.306 1426.95,-407.306 1455.82,-407.306"/>
<polygon fill="#9a32cd" stroke="#9a32cd" points="1354.21,-403.806 1344.21,-407.306 1354.21,-410.806 1354.21,-403.806"/>
<text text-anchor="middle" x="1400" y="-410.306" font-family="Helvetica,sans-Serif" font-size="10.00"> myTurtles</text>
</g>
<!-- Node15 -->
<g id="node15" class="node"><title>Node15</title>
<g id="a_node15"><a xlink:href="../../d1/dc7/classview_1_1_side_bar.html" target="_top" xlink:title="view.SideBar">
<polygon fill="white" stroke="black" points="1237.5,-268.806 1237.5,-287.806 1314.5,-287.806 1314.5,-268.806 1237.5,-268.806"/>
<text text-anchor="middle" x="1276" y="-275.806" font-family="Helvetica,sans-Serif" font-size="10.00">view.SideBar</text>
</a>
</g>
</g>
<!-- Node15&#45;&gt;Node9 -->
<g id="edge44" class="edge"><title>Node15&#45;&gt;Node9</title>
<path fill="none" stroke="#9a32cd" stroke-dasharray="5,2" d="M1227.15,-274.411C1185.63,-271.238 1123.89,-267.013 1070,-265.306 815.012,-257.229 746.042,-253.648 498,-313.306 471.783,-319.612 442.855,-330.768 423.678,-338.792"/>
<polygon fill="#9a32cd" stroke="#9a32cd" points="1227.01,-277.911 1237.25,-275.193 1227.55,-270.932 1227.01,-277.911"/>
<text text-anchor="middle" x="842" y="-265.306" font-family="Helvetica,sans-Serif" font-size="10.00"> mySidebar</text>
</g>
<!-- Node15&#45;&gt;Node10 -->
<g id="edge15" class="edge"><title>Node15&#45;&gt;Node10</title>
<path fill="none" stroke="#9a32cd" stroke-dasharray="5,2" d="M1317.98,-291.283C1326.72,-294.521 1335.79,-298.243 1344,-302.306 1401.63,-330.847 1462.95,-377.64 1488.15,-397.693"/>
<polygon fill="#9a32cd" stroke="#9a32cd" points="1318.9,-287.896 1308.31,-287.84 1316.55,-294.491 1318.9,-287.896"/>
<text text-anchor="middle" x="1400" y="-361.306" font-family="Helvetica,sans-Serif" font-size="10.00"> mySidebar</text>
</g>
<!-- Node28 -->
<g id="node28" class="node"><title>Node28</title>
<g id="a_node28"><a xlink:href="../../da/dc8/classview_1_1_editor.html" target="_top" xlink:title="view.Editor">
<polygon fill="white" stroke="black" points="1467.5,-202.806 1467.5,-221.806 1534.5,-221.806 1534.5,-202.806 1467.5,-202.806"/>
<text text-anchor="middle" x="1501" y="-209.806" font-family="Helvetica,sans-Serif" font-size="10.00">view.Editor</text>
</a>
</g>
</g>
<!-- Node15&#45;&gt;Node28 -->
<g id="edge37" class="edge"><title>Node15&#45;&gt;Node28</title>
<path fill="none" stroke="#9a32cd" stroke-dasharray="5,2" d="M1324.89,-270.592C1357.34,-264.642 1400.9,-255.233 1438,-242.306 1453.81,-236.797 1470.87,-228.341 1483.08,-221.81"/>
<polygon fill="#9a32cd" stroke="#9a32cd" points="1324,-267.197 1314.77,-272.403 1325.23,-274.087 1324,-267.197"/>
<text text-anchor="middle" x="1400" y="-266.306" font-family="Helvetica,sans-Serif" font-size="10.00"> mySidebar</text>
</g>
<!-- Node16 -->
<g id="node16" class="node"><title>Node16</title>
<polygon fill="white" stroke="#bfbfbf" points="958.5,-388.806 958.5,-407.806 999.5,-407.806 999.5,-388.806 958.5,-388.806"/>
<text text-anchor="middle" x="979" y="-395.806" font-family="Helvetica,sans-Serif" font-size="10.00">VBox</text>
</g>
<!-- Node16&#45;&gt;Node15 -->
<g id="edge16" class="edge"><title>Node16&#45;&gt;Node15</title>
<path fill="none" stroke="midnightblue" d="M1009.84,-399.09C1061.33,-399.801 1163.85,-398.198 1190,-375.306 1215.14,-353.295 1185.61,-327.111 1208,-302.306 1215.7,-293.776 1226.65,-288.277 1237.47,-284.731"/>
<polygon fill="midnightblue" stroke="midnightblue" points="1009.73,-395.588 999.674,-398.91 1009.61,-402.586 1009.73,-395.588"/>
</g>
<!-- Node17 -->
<g id="node17" class="node"><title>Node17</title>
<polygon fill="white" stroke="#bfbfbf" points="892.5,-350.806 892.5,-369.806 1065.5,-369.806 1065.5,-350.806 892.5,-350.806"/>
<text text-anchor="middle" x="979" y="-357.806" font-family="Helvetica,sans-Serif" font-size="10.00">ObservableList&lt; view.Property &gt;</text>
</g>
<!-- Node17&#45;&gt;Node15 -->
<g id="edge17" class="edge"><title>Node17&#45;&gt;Node15</title>
<path fill="none" stroke="#9a32cd" stroke-dasharray="5,2" d="M1075.72,-360.213C1122.01,-358.399 1171.49,-353.287 1190,-340.306 1205.3,-329.575 1194.15,-314.855 1208,-302.306 1216.24,-294.839 1226.97,-289.656 1237.41,-286.074"/>
<polygon fill="#9a32cd" stroke="#9a32cd" points="1075.47,-356.72 1065.6,-360.561 1075.71,-363.716 1075.47,-356.72"/>
<text text-anchor="middle" x="1139" y="-363.306" font-family="Helvetica,sans-Serif" font-size="10.00"> variablesList</text>
</g>
<!-- Node18 -->
<g id="node18" class="node"><title>Node18</title>
<polygon fill="white" stroke="#bfbfbf" points="40.5,-152.806 40.5,-171.806 133.5,-171.806 133.5,-152.806 40.5,-152.806"/>
<text text-anchor="middle" x="87" y="-159.806" font-family="Helvetica,sans-Serif" font-size="10.00">ResourceBundle</text>
</g>
<!-- Node18&#45;&gt;Node9 -->
<g id="edge31" class="edge"><title>Node18&#45;&gt;Node9</title>
<path fill="none" stroke="#9a32cd" stroke-dasharray="5,2" d="M120.885,-175.785C164.348,-194.219 242.588,-229.574 304,-269.306 337.707,-291.114 373.112,-322.936 389.953,-338.708"/>
<polygon fill="#9a32cd" stroke="#9a32cd" points="122.217,-172.548 111.642,-171.898 119.503,-179.001 122.217,-172.548"/>
<text text-anchor="middle" x="248" y="-272.306" font-family="Helvetica,sans-Serif" font-size="10.00"> myResources</text>
</g>
<!-- Node18&#45;&gt;Node15 -->
<g id="edge18" class="edge"><title>Node18&#45;&gt;Node15</title>
<path fill="none" stroke="#9a32cd" stroke-dasharray="5,2" d="M128.683,-149.952C174.979,-136.591 253.111,-116.152 322,-108.306 391.771,-100.36 409.899,-104.174 480,-108.306 519.651,-110.644 1159.2,-167.226 1190,-192.306 1209.62,-208.28 1191.25,-227.345 1208,-246.306 1217.05,-256.547 1230.09,-263.794 1242.26,-268.77"/>
<polygon fill="#9a32cd" stroke="#9a32cd" points="127.641,-146.61 119.022,-152.771 129.602,-153.33 127.641,-146.61"/>
<text text-anchor="middle" x="717" y="-140.306" font-family="Helvetica,sans-Serif" font-size="10.00"> myResources</text>
</g>
<!-- Node19 -->
<g id="node19" class="node"><title>Node19</title>
<polygon fill="white" stroke="#bfbfbf" points="905,-312.806 905,-331.806 1053,-331.806 1053,-312.806 905,-312.806"/>
<text text-anchor="middle" x="979" y="-319.806" font-family="Helvetica,sans-Serif" font-size="10.00">TableView&lt; view.Property &gt;</text>
</g>
<!-- Node19&#45;&gt;Node15 -->
<g id="edge19" class="edge"><title>Node19&#45;&gt;Node15</title>
<path fill="none" stroke="#9a32cd" stroke-dasharray="5,2" d="M1063.44,-316.437C1102.13,-312.983 1148.61,-307.788 1190,-300.306 1207.55,-297.134 1226.81,-292.266 1242.56,-287.915"/>
<polygon fill="#9a32cd" stroke="#9a32cd" points="1062.93,-312.969 1053.27,-317.322 1063.53,-319.943 1062.93,-312.969"/>
<text text-anchor="middle" x="1139" y="-328.306" font-family="Helvetica,sans-Serif" font-size="10.00"> turtlePropertiesTable</text>
<text text-anchor="middle" x="1139" y="-317.306" font-family="Helvetica,sans-Serif" font-size="10.00">variablesTable</text>
</g>
<!-- Node20 -->
<g id="node20" class="node"><title>Node20</title>
<g id="a_node20"><a xlink:href="../../d4/dd9/classcontroller_1_1_s_logo_controller.html" target="_top" xlink:title="controller.SLogoController">
<polygon fill="white" stroke="black" points="909,-426.806 909,-445.806 1049,-445.806 1049,-426.806 909,-426.806"/>
<text text-anchor="middle" x="979" y="-433.806" font-family="Helvetica,sans-Serif" font-size="10.00">controller.SLogoController</text>
</a>
</g>
</g>
<!-- Node20&#45;&gt;Node9 -->
<g id="edge39" class="edge"><title>Node20&#45;&gt;Node9</title>
<path fill="none" stroke="#9a32cd" stroke-dasharray="5,2" d="M899.634,-424.414C895.527,-422.383 891.612,-420.029 888,-417.306 874.347,-407.013 883.628,-393.632 870,-383.306 739.47,-284.402 525.405,-319.232 439.449,-338.763"/>
<polygon fill="#9a32cd" stroke="#9a32cd" points="898.315,-427.657 908.886,-428.367 901.065,-421.22 898.315,-427.657"/>
<text text-anchor="middle" x="717" y="-345.306" font-family="Helvetica,sans-Serif" font-size="10.00"> myController</text>
</g>
<!-- Node20&#45;&gt;Node15 -->
<g id="edge20" class="edge"><title>Node20&#45;&gt;Node15</title>
<path fill="none" stroke="#9a32cd" stroke-dasharray="5,2" d="M1059.39,-427.506C1114.8,-420.622 1180.49,-410.678 1190,-401.306 1221.85,-369.917 1179.08,-336.414 1208,-302.306 1215.51,-293.448 1226.54,-287.859 1237.49,-284.333"/>
<polygon fill="#9a32cd" stroke="#9a32cd" points="1058.68,-424.066 1049.18,-428.754 1059.53,-431.014 1058.68,-424.066"/>
<text text-anchor="middle" x="1139" y="-427.306" font-family="Helvetica,sans-Serif" font-size="10.00"> myController</text>
</g>
<!-- Node20&#45;&gt;Node28 -->
<g id="edge35" class="edge"><title>Node20&#45;&gt;Node28</title>
<path fill="none" stroke="#9a32cd" stroke-dasharray="5,2" d="M1014.92,-449.073C1060.77,-463.353 1141.15,-479.493 1190,-438.306 1226.2,-407.786 1173.37,-365.592 1208,-333.306 1283.14,-263.254 1350.59,-364.282 1438,-310.306 1471.92,-289.362 1490.46,-242.192 1497.12,-221.893"/>
<polygon fill="#9a32cd" stroke="#9a32cd" points="1015.73,-445.656 1005.14,-445.89 1013.57,-452.312 1015.73,-445.656"/>
<text text-anchor="middle" x="1276" y="-336.306" font-family="Helvetica,sans-Serif" font-size="10.00"> myController</text>
</g>
<!-- Node21&#45;&gt;Node20 -->
<g id="edge21" class="edge"><title>Node21&#45;&gt;Node20</title>
<path fill="none" stroke="#9a32cd" stroke-dasharray="5,2" d="M767.257,-436.306C807.29,-436.306 864.234,-436.306 908.84,-436.306"/>
<polygon fill="#9a32cd" stroke="#9a32cd" points="767.206,-432.806 757.206,-436.306 767.206,-439.806 767.206,-432.806"/>
<text text-anchor="middle" x="842" y="-439.306" font-family="Helvetica,sans-Serif" font-size="10.00"> myParser</text>
</g>
<!-- Node22 -->
<g id="node22" class="node"><title>Node22</title>
<polygon fill="white" stroke="#bfbfbf" points="345,-118.306 345,-148.306 457,-148.306 457,-118.306 345,-118.306"/>
<text text-anchor="start" x="353" y="-136.306" font-family="Helvetica,sans-Serif" font-size="10.00">List&lt; Entry&lt; String,</text>
<text text-anchor="middle" x="401" y="-125.306" font-family="Helvetica,sans-Serif" font-size="10.00"> Pattern &gt; &gt;</text>
</g>
<!-- Node22&#45;&gt;Node21 -->
<g id="edge23" class="edge"><title>Node22&#45;&gt;Node21</title>
<path fill="none" stroke="#9a32cd" stroke-dasharray="5,2" d="M424.124,-155.618C465.591,-197.31 558.04,-289.665 638,-365.306 661.678,-387.706 690.139,-413.282 705.284,-426.787"/>
<polygon fill="#9a32cd" stroke="#9a32cd" points="426.52,-153.064 416.989,-148.438 421.555,-157.998 426.52,-153.064"/>
<text text-anchor="middle" x="559" y="-350.306" font-family="Helvetica,sans-Serif" font-size="10.00"> myPatterns</text>
</g>
<!-- Node23 -->
<g id="node23" class="node"><title>Node23</title>
<polygon fill="white" stroke="#bfbfbf" points="340,-464.806 340,-483.806 462,-483.806 462,-464.806 340,-464.806"/>
<text text-anchor="middle" x="401" y="-471.806" font-family="Helvetica,sans-Serif" font-size="10.00">Map&lt; String, String &gt;</text>
</g>
<!-- Node23&#45;&gt;Node21 -->
<g id="edge25" class="edge"><title>Node23&#45;&gt;Node21</title>
<path fill="none" stroke="#9a32cd" stroke-dasharray="5,2" d="M472.447,-465.781C535.558,-458.143 625.811,-447.221 676.868,-441.042"/>
<polygon fill="#9a32cd" stroke="#9a32cd" points="471.678,-462.348 462.171,-467.024 472.519,-469.297 471.678,-462.348"/>
<text text-anchor="middle" x="559" y="-465.306" font-family="Helvetica,sans-Serif" font-size="10.00"> myCommandMap</text>
</g>
<!-- Node24 -->
<g id="node24" class="node"><title>Node24</title>
<polygon fill="white" stroke="#bfbfbf" points="910,-274.806 910,-293.806 1048,-293.806 1048,-274.806 910,-274.806"/>
<text text-anchor="middle" x="979" y="-281.806" font-family="Helvetica,sans-Serif" font-size="10.00">ObservableList&lt; String &gt;</text>
</g>
<!-- Node24&#45;&gt;Node15 -->
<g id="edge27" class="edge"><title>Node24&#45;&gt;Node15</title>
<path fill="none" stroke="#9a32cd" stroke-dasharray="5,2" d="M1058.53,-279.432C1068.44,-278.967 1078.46,-278.571 1088,-278.306 1139.76,-276.869 1199.61,-277.223 1237.38,-277.694"/>
<polygon fill="#9a32cd" stroke="#9a32cd" points="1058.06,-275.951 1048.25,-279.939 1058.41,-282.942 1058.06,-275.951"/>
<text text-anchor="middle" x="1139" y="-292.306" font-family="Helvetica,sans-Serif" font-size="10.00"> commandItems</text>
<text text-anchor="middle" x="1139" y="-281.306" font-family="Helvetica,sans-Serif" font-size="10.00">historyItems</text>
</g>
<!-- Node25 -->
<g id="node25" class="node"><title>Node25</title>
<polygon fill="white" stroke="#bfbfbf" points="926,-198.806 926,-217.806 1032,-217.806 1032,-198.806 926,-198.806"/>
<text text-anchor="middle" x="979" y="-205.806" font-family="Helvetica,sans-Serif" font-size="10.00">ListView&lt; String &gt;</text>
</g>
<!-- Node25&#45;&gt;Node15 -->
<g id="edge28" class="edge"><title>Node25&#45;&gt;Node15</title>
<path fill="none" stroke="#9a32cd" stroke-dasharray="5,2" d="M1041.09,-197.643C1085.31,-193.078 1144.97,-193.667 1190,-219.306 1202.53,-226.442 1197.1,-236.86 1208,-246.306 1219.2,-256.016 1233.86,-263.46 1246.61,-268.714"/>
<polygon fill="#9a32cd" stroke="#9a32cd" points="1040.59,-194.177 1031.06,-198.794 1041.39,-201.132 1040.59,-194.177"/>
<text text-anchor="middle" x="1139" y="-222.306" font-family="Helvetica,sans-Serif" font-size="10.00"> historyList</text>
</g>
<!-- Node26 -->
<g id="node26" class="node"><title>Node26</title>
<polygon fill="white" stroke="#bfbfbf" points="1244.5,-353.806 1244.5,-372.806 1307.5,-372.806 1307.5,-353.806 1244.5,-353.806"/>
<text text-anchor="middle" x="1276" y="-360.806" font-family="Helvetica,sans-Serif" font-size="10.00">Rectangle</text>
</g>
<!-- Node26&#45;&gt;Node10 -->
<g id="edge29" class="edge"><title>Node26&#45;&gt;Node10</title>
<path fill="none" stroke="#9a32cd" stroke-dasharray="5,2" d="M1317.74,-369.958C1350.36,-375.451 1397.25,-383.715 1438,-392.306 1445.8,-393.951 1454.12,-395.857 1462.05,-397.748"/>
<polygon fill="#9a32cd" stroke="#9a32cd" points="1318.11,-366.472 1307.67,-368.275 1316.96,-373.377 1318.11,-366.472"/>
<text text-anchor="middle" x="1400" y="-395.306" font-family="Helvetica,sans-Serif" font-size="10.00"> myBackground</text>
</g>
<!-- Node27 -->
<g id="node27" class="node"><title>Node27</title>
<polygon fill="white" stroke="#bfbfbf" points="64.5,-262.806 64.5,-281.806 109.5,-281.806 109.5,-262.806 64.5,-262.806"/>
<text text-anchor="middle" x="87" y="-269.806" font-family="Helvetica,sans-Serif" font-size="10.00">Stage</text>
</g>
<!-- Node27&#45;&gt;Node9 -->
<g id="edge30" class="edge"><title>Node27&#45;&gt;Node9</title>
<path fill="none" stroke="#9a32cd" stroke-dasharray="5,2" d="M119.587,-274.727C162.164,-278.564 240.008,-287.609 304,-306.306 332.114,-314.52 362.836,-329.015 381.766,-338.641"/>
<polygon fill="#9a32cd" stroke="#9a32cd" points="119.816,-271.234 109.552,-273.861 119.214,-278.208 119.816,-271.234"/>
<text text-anchor="middle" x="248" y="-309.306" font-family="Helvetica,sans-Serif" font-size="10.00"> myStage</text>
</g>
<!-- Node28&#45;&gt;Node9 -->
<g id="edge32" class="edge"><title>Node28&#45;&gt;Node9</title>
<path fill="none" stroke="#9a32cd" stroke-dasharray="5,2" d="M1462.65,-224.914C1402.94,-242.556 1284.89,-266.833 1208,-213.306 1190.32,-200.999 1205.95,-182.784 1190,-168.306 1148.86,-130.967 1125,-141.163 1070,-133.306 879.879,-106.146 816.115,-71.4803 638,-143.306 628.073,-147.309 628.044,-152.245 620,-159.306 541.325,-228.372 445.81,-310.639 413.39,-338.518"/>
<polygon fill="#9a32cd" stroke="#9a32cd" points="1463.87,-228.202 1472.41,-221.935 1461.83,-221.507 1463.87,-228.202"/>
<text text-anchor="middle" x="979" y="-136.306" font-family="Helvetica,sans-Serif" font-size="10.00"> myEditor</text>
</g>
<!-- Node29 -->
<g id="node29" class="node"><title>Node29</title>
<polygon fill="white" stroke="#bfbfbf" points="1255,-184.806 1255,-203.806 1297,-203.806 1297,-184.806 1255,-184.806"/>
<text text-anchor="middle" x="1276" y="-191.806" font-family="Helvetica,sans-Serif" font-size="10.00">HBox</text>
</g>
<!-- Node29&#45;&gt;Node28 -->
<g id="edge33" class="edge"><title>Node29&#45;&gt;Node28</title>
<path fill="none" stroke="midnightblue" d="M1307.3,-196.752C1349.09,-200.125 1424.12,-206.181 1467.19,-209.658"/>
<polygon fill="midnightblue" stroke="midnightblue" points="1307.43,-193.251 1297.18,-195.935 1306.87,-200.229 1307.43,-193.251"/>
</g>
<!-- Node30 -->
<g id="node30" class="node"><title>Node30</title>
<polygon fill="white" stroke="#bfbfbf" points="1251.5,-146.806 1251.5,-165.806 1300.5,-165.806 1300.5,-146.806 1251.5,-146.806"/>
<text text-anchor="middle" x="1276" y="-153.806" font-family="Helvetica,sans-Serif" font-size="10.00">Button</text>
</g>
<!-- Node30&#45;&gt;Node28 -->
<g id="edge34" class="edge"><title>Node30&#45;&gt;Node28</title>
<path fill="none" stroke="#9a32cd" stroke-dasharray="5,2" d="M1310.53,-160.831C1343.41,-165.718 1394.76,-174.557 1438,-187.306 1452.03,-191.442 1467.27,-197.563 1479.12,-202.713"/>
<polygon fill="#9a32cd" stroke="#9a32cd" points="1310.93,-157.353 1300.53,-159.383 1309.93,-164.281 1310.93,-157.353"/>
<text text-anchor="middle" x="1400" y="-190.306" font-family="Helvetica,sans-Serif" font-size="10.00"> runButton</text>
</g>
<!-- Node31 -->
<g id="node31" class="node"><title>Node31</title>
<polygon fill="white" stroke="#bfbfbf" points="1247,-108.806 1247,-127.806 1305,-127.806 1305,-108.806 1247,-108.806"/>
<text text-anchor="middle" x="1276" y="-115.806" font-family="Helvetica,sans-Serif" font-size="10.00">TextArea</text>
</g>
<!-- Node31&#45;&gt;Node28 -->
<g id="edge36" class="edge"><title>Node31&#45;&gt;Node28</title>
<path fill="none" stroke="#9a32cd" stroke-dasharray="5,2" d="M1315.26,-121.514C1349.15,-125.62 1399.13,-134.841 1438,-155.306 1460.77,-167.295 1481.54,-189.741 1492.29,-202.598"/>
<polygon fill="#9a32cd" stroke="#9a32cd" points="1315.61,-118.032 1305.29,-120.397 1314.83,-124.989 1315.61,-118.032"/>
<text text-anchor="middle" x="1400" y="-158.306" font-family="Helvetica,sans-Serif" font-size="10.00"> textEditor</text>
</g>
<!-- Node32 -->
<g id="node32" class="node"><title>Node32</title>
<polygon fill="white" stroke="#bfbfbf" points="27.5,-376.806 27.5,-395.806 146.5,-395.806 146.5,-376.806 27.5,-376.806"/>
<text text-anchor="middle" x="87" y="-383.806" font-family="Helvetica,sans-Serif" font-size="10.00">Map&lt; String, Node &gt;</text>
</g>
<!-- Node32&#45;&gt;Node9 -->
<g id="edge38" class="edge"><title>Node32&#45;&gt;Node9</title>
<path fill="none" stroke="#9a32cd" stroke-dasharray="5,2" d="M156.721,-379.854C199.215,-375.65 254.845,-369.759 304,-363.306 320.725,-361.11 339.032,-358.341 355.134,-355.782"/>
<polygon fill="#9a32cd" stroke="#9a32cd" points="156.375,-376.371 146.765,-380.832 157.059,-383.338 156.375,-376.371"/>
<text text-anchor="middle" x="248" y="-379.306" font-family="Helvetica,sans-Serif" font-size="10.00"> variables</text>
</g>
<!-- Node33 -->
<g id="node33" class="node"><title>Node33</title>
<polygon fill="white" stroke="#bfbfbf" points="46.5,-338.806 46.5,-357.806 127.5,-357.806 127.5,-338.806 46.5,-338.806"/>
<text text-anchor="middle" x="87" y="-345.806" font-family="Helvetica,sans-Serif" font-size="10.00">Dimension2D</text>
</g>
<!-- Node33&#45;&gt;Node9 -->
<g id="edge40" class="edge"><title>Node33&#45;&gt;Node9</title>
<path fill="none" stroke="#9a32cd" stroke-dasharray="5,2" d="M137.872,-348.306C197.863,-348.306 297.669,-348.306 355.269,-348.306"/>
<polygon fill="#9a32cd" stroke="#9a32cd" points="137.515,-344.806 127.515,-348.306 137.515,-351.806 137.515,-344.806"/>
<text text-anchor="middle" x="248" y="-351.306" font-family="Helvetica,sans-Serif" font-size="10.00"> myDimensions</text>
</g>
<!-- Node34&#45;&gt;Node9 -->
<g id="edge41" class="edge"><title>Node34&#45;&gt;Node9</title>
<path fill="none" stroke="#9a32cd" stroke-dasharray="5,2" d="M1655.1,-124.099C1518,-71.3609 983.213,111.346 638,-99.3061 623.068,-108.418 633.811,-123.572 620,-134.306 576.075,-168.445 541.95,-128.199 498,-162.306 436.564,-209.983 410.757,-307.925 403.943,-338.779"/>
<polygon fill="#9a32cd" stroke="#9a32cd" points="1654.05,-127.445 1664.63,-127.806 1656.58,-120.921 1654.05,-127.445"/>
<text text-anchor="middle" x="1139" y="-11.3061" font-family="Helvetica,sans-Serif" font-size="10.00"> drawer</text>
</g>
<!-- Node35 -->
<g id="node35" class="node"><title>Node35</title>
<polygon fill="white" stroke="#bfbfbf" points="1480.5,-127.806 1480.5,-146.806 1521.5,-146.806 1521.5,-127.806 1480.5,-127.806"/>
<text text-anchor="middle" x="1501" y="-134.806" font-family="Helvetica,sans-Serif" font-size="10.00">Color</text>
</g>
<!-- Node35&#45;&gt;Node34 -->
<g id="edge43" class="edge"><title>Node35&#45;&gt;Node34</title>
<path fill="none" stroke="#9a32cd" stroke-dasharray="5,2" d="M1531.86,-137.306C1564.64,-137.306 1617.27,-137.306 1652.23,-137.306"/>
<polygon fill="#9a32cd" stroke="#9a32cd" points="1531.55,-133.806 1521.55,-137.306 1531.55,-140.806 1531.55,-133.806"/>
<text text-anchor="middle" x="1599" y="-140.306" font-family="Helvetica,sans-Serif" font-size="10.00"> myColor</text>
</g>
<!-- Node36 -->
<g id="node36" class="node"><title>Node36</title>
<polygon fill="white" stroke="#bfbfbf" points="64,-300.806 64,-319.806 110,-319.806 110,-300.806 64,-300.806"/>
<text text-anchor="middle" x="87" y="-307.806" font-family="Helvetica,sans-Serif" font-size="10.00">Group</text>
</g>
<!-- Node36&#45;&gt;Node9 -->
<g id="edge45" class="edge"><title>Node36&#45;&gt;Node9</title>
<path fill="none" stroke="#9a32cd" stroke-dasharray="5,2" d="M120.091,-313.229C162.328,-317.188 238.852,-324.753 304,-333.306 320.725,-335.502 339.032,-338.271 355.134,-340.831"/>
<polygon fill="#9a32cd" stroke="#9a32cd" points="120.401,-309.742 110.12,-312.301 119.752,-316.712 120.401,-309.742"/>
<text text-anchor="middle" x="248" y="-336.306" font-family="Helvetica,sans-Serif" font-size="10.00"> lines</text>
</g>
</g>
</svg>
