<?xml version="1.0" encoding="UTF-8" standalone="no"?>
<!DOCTYPE svg PUBLIC "-//W3C//DTD SVG 1.1//EN"
 "http://www.w3.org/Graphics/SVG/1.1/DTD/svg11.dtd">
<!-- Generated by graphviz version 2.36.0 (20140111.2315)
 -->
<!-- Title: model.instructions.MathInstruction Pages: 1 -->
<!--zoomable 651 -->
<svg id="main" version="1.1" xmlns="http://www.w3.org/2000/svg" xmlns:xlink="http://www.w3.org/1999/xlink" xml:space="preserve" onload="init(evt)">
<style type="text/css"><![CDATA[
.edge:hover path { stroke: red; }
.edge:hover polygon { stroke: red; fill: red; }
]]></style>
<script type="text/javascript"><![CDATA[
var edges = document.getElementsByTagName('g');
if (edges && edges.length) {
  for (var i=0;i<edges.length;i++) {
    if (edges[i].id.substr(0,4)=='edge') {
      edges[i].setAttribute('class','edge');
    }
  }
}
]]></script>
        <defs>
                <circle id="rim" cx="0" cy="0" r="7"/>
                <circle id="rim2" cx="0" cy="0" r="3.5"/>
                <g id="zoomPlus">
                        <use xlink:href="#rim" fill="#404040">
                                <set attributeName="fill" to="#808080" begin="zoomplus.mouseover" end="zoomplus.mouseout"/>
                        </use>
                        <path d="M-4,0h8M0,-4v8" fill="none" stroke="white" stroke-width="1.5" pointer-events="none"/>
                </g>
                <g id="zoomMin">
                        <use xlink:href="#rim" fill="#404040">
                                <set attributeName="fill" to="#808080" begin="zoomminus.mouseover" end="zoomminus.mouseout"/>
                        </use>
                        <path d="M-4,0h8" fill="none" stroke="white" stroke-width="1.5" pointer-events="none"/>
                </g>
                <g id="dirArrow">
                        <path fill="none" stroke="white" stroke-width="1.5" d="M0,-3.0v7 M-2.5,-0.5L0,-3.0L2.5,-0.5"/>
                </g>
               <g id="resetDef">
                       <use xlink:href="#rim2" fill="#404040">
                               <set attributeName="fill" to="#808080" begin="reset.mouseover" end="reset.mouseout"/>
                       </use>
               </g>
        </defs>

<script type="text/javascript">
var viewWidth = 1626;
var viewHeight = 651;
var sectionId = 'dynsection-1';
</script>
<script xlink:href="../../svgpan.js"/>
<svg id="graph" class="graph">
<g id="viewport">
<title>model.instructions.MathInstruction</title>
<polygon fill="white" stroke="none" points="-4,4 -4,-647 1622,-647 1622,4 -4,4"/>
<!-- Node1 -->
<g id="node1" class="node"><title>Node1</title>
<polygon fill="#bfbfbf" stroke="black" points="1010,-508.5 1010,-527.5 1192,-527.5 1192,-508.5 1010,-508.5"/>
<text text-anchor="middle" x="1101" y="-515.5" font-family="Helvetica,sans-Serif" font-size="10.00">model.instructions.MathInstruction</text>
</g>
<!-- Node2 -->
<g id="node2" class="node"><title>Node2</title>
<g id="a_node2"><a xlink:href="../../d1/dea/classmodel_1_1instructions_1_1_instruction.html" target="_top" xlink:title="model.instructions.Instruction">
<polygon fill="white" stroke="black" points="760,-461.5 760,-480.5 918,-480.5 918,-461.5 760,-461.5"/>
<text text-anchor="middle" x="839" y="-468.5" font-family="Helvetica,sans-Serif" font-size="10.00">model.instructions.Instruction</text>
</a>
</g>
</g>
<!-- Node2&#45;&gt;Node1 -->
<g id="edge1" class="edge"><title>Node2&#45;&gt;Node1</title>
<path fill="none" stroke="midnightblue" d="M902.652,-482.326C946.779,-490.302 1005.21,-500.865 1047.02,-508.422"/>
<polygon fill="midnightblue" stroke="midnightblue" points="903.078,-478.846 892.615,-480.511 901.833,-485.734 903.078,-478.846"/>
</g>
<!-- Node3 -->
<g id="node3" class="node"><title>Node3</title>
<polygon fill="white" stroke="#bfbfbf" points="179,-356.5 179,-375.5 239,-375.5 239,-356.5 179,-356.5"/>
<text text-anchor="middle" x="209" y="-363.5" font-family="Helvetica,sans-Serif" font-size="10.00">Observer</text>
</g>
<!-- Node3&#45;&gt;Node2 -->
<g id="edge2" class="edge"><title>Node3&#45;&gt;Node2</title>
<path fill="none" stroke="midnightblue" d="M249.394,-375.182C268.757,-379.38 292.497,-384.062 314,-387 502.965,-412.815 559.155,-363.761 742,-418 774.123,-427.529 807.452,-449.006 825.145,-461.499"/>
<polygon fill="midnightblue" stroke="midnightblue" points="249.936,-371.717 239.417,-372.978 248.427,-378.553 249.936,-371.717"/>
</g>
<!-- Node9 -->
<g id="node9" class="node"><title>Node9</title>
<g id="a_node9"><a xlink:href="../../d6/de7/classview_1_1_s_logo_view.html" target="_top" xlink:title="view.SLogoView">
<polygon fill="white" stroke="black" points="477.5,-212.5 477.5,-231.5 568.5,-231.5 568.5,-212.5 477.5,-212.5"/>
<text text-anchor="middle" x="523" y="-219.5" font-family="Helvetica,sans-Serif" font-size="10.00">view.SLogoView</text>
</a>
</g>
</g>
<!-- Node3&#45;&gt;Node9 -->
<g id="edge9" class="edge"><title>Node3&#45;&gt;Node9</title>
<path fill="none" stroke="midnightblue" d="M249.11,-359.369C307.823,-349.083 413.261,-329.2 426,-317 447.958,-295.97 423.486,-273.442 444,-251 452.773,-241.403 465.018,-234.969 477.209,-230.661"/>
<polygon fill="midnightblue" stroke="midnightblue" points="248.323,-355.953 239.07,-361.114 249.522,-362.85 248.323,-355.953"/>
</g>
<!-- Node18 -->
<g id="node18" class="node"><title>Node18</title>
<g id="a_node18"><a xlink:href="../../dc/df5/classmodel_1_1_parser.html" target="_top" xlink:title="model.Parser">
<polygon fill="white" stroke="black" points="799,-282.5 799,-301.5 879,-301.5 879,-282.5 799,-282.5"/>
<text text-anchor="middle" x="839" y="-289.5" font-family="Helvetica,sans-Serif" font-size="10.00">model.Parser</text>
</a>
</g>
</g>
<!-- Node3&#45;&gt;Node18 -->
<g id="edge19" class="edge"><title>Node3&#45;&gt;Node18</title>
<path fill="none" stroke="midnightblue" d="M249.307,-367.981C356.184,-372.926 650.204,-383.468 742,-355 777.034,-344.135 811.301,-316.343 827.804,-301.569"/>
<polygon fill="midnightblue" stroke="midnightblue" points="249.421,-364.483 239.268,-367.507 249.091,-371.475 249.421,-364.483"/>
</g>
<!-- Node4 -->
<g id="node4" class="node"><title>Node4</title>
<g id="a_node4"><a xlink:href="../../d1/dca/classmodel_1_1_execution_environment.html" target="_top" xlink:title="model.ExecutionEnvironment">
<polygon fill="white" stroke="black" points="444.5,-453.5 444.5,-472.5 601.5,-472.5 601.5,-453.5 444.5,-453.5"/>
<text text-anchor="middle" x="523" y="-460.5" font-family="Helvetica,sans-Serif" font-size="10.00">model.ExecutionEnvironment</text>
</a>
</g>
</g>
<!-- Node4&#45;&gt;Node2 -->
<g id="edge3" class="edge"><title>Node4&#45;&gt;Node2</title>
<path fill="none" stroke="#9a32cd" stroke-dasharray="5,2" d="M611.688,-465.234C658.218,-466.42 714.911,-467.864 759.914,-469.011"/>
<polygon fill="#9a32cd" stroke="#9a32cd" points="611.704,-461.733 601.618,-464.978 611.526,-468.731 611.704,-461.733"/>
<text text-anchor="middle" x="681" y="-472" font-family="Helvetica,sans-Serif" font-size="10.00"> myEnvironment</text>
</g>
<!-- Node4&#45;&gt;Node18 -->
<g id="edge21" class="edge"><title>Node4&#45;&gt;Node18</title>
<path fill="none" stroke="#9a32cd" stroke-dasharray="5,2" d="M574.121,-450.878C620.077,-438.352 688.857,-415.963 742,-383 779.665,-359.638 815.102,-319.779 830.263,-301.576"/>
<polygon fill="#9a32cd" stroke="#9a32cd" points="573.148,-447.515 564.389,-453.476 574.953,-454.278 573.148,-447.515"/>
<text text-anchor="middle" x="681" y="-440" font-family="Helvetica,sans-Serif" font-size="10.00"> myExecutionParameters</text>
</g>
<!-- Node5 -->
<g id="node5" class="node"><title>Node5</title>
<polygon fill="white" stroke="#bfbfbf" points="173.5,-503.5 173.5,-522.5 244.5,-522.5 244.5,-503.5 173.5,-503.5"/>
<text text-anchor="middle" x="209" y="-510.5" font-family="Helvetica,sans-Serif" font-size="10.00">Observable</text>
</g>
<!-- Node5&#45;&gt;Node4 -->
<g id="edge4" class="edge"><title>Node5&#45;&gt;Node4</title>
<path fill="none" stroke="midnightblue" d="M254.53,-507.308C298.278,-501.552 366.88,-492.086 426,-482 442.413,-479.2 460.328,-475.759 476.19,-472.579"/>
<polygon fill="midnightblue" stroke="midnightblue" points="253.966,-503.852 244.505,-508.62 254.874,-510.793 253.966,-503.852"/>
</g>
<!-- Node6 -->
<g id="node6" class="node"><title>Node6</title>
<polygon fill="white" stroke="#bfbfbf" points="122,-454 122,-484 296,-484 296,-454 122,-454"/>
<text text-anchor="start" x="130" y="-472" font-family="Helvetica,sans-Serif" font-size="10.00">Map&lt; String, model.instructions.</text>
<text text-anchor="middle" x="209" y="-461" font-family="Helvetica,sans-Serif" font-size="10.00">Instruction &gt;</text>
</g>
<!-- Node6&#45;&gt;Node4 -->
<g id="edge5" class="edge"><title>Node6&#45;&gt;Node4</title>
<path fill="none" stroke="#9a32cd" stroke-dasharray="5,2" d="M306.305,-467.148C350.685,-466.295 402.655,-465.295 444.461,-464.491"/>
<polygon fill="#9a32cd" stroke="#9a32cd" points="306.012,-463.653 296.081,-467.345 306.147,-470.652 306.012,-463.653"/>
<text text-anchor="middle" x="370" y="-470" font-family="Helvetica,sans-Serif" font-size="10.00"> myUserInstructionMap</text>
</g>
<!-- Node7 -->
<g id="node7" class="node"><title>Node7</title>
<polygon fill="white" stroke="#bfbfbf" points="145,-415.5 145,-434.5 273,-434.5 273,-415.5 145,-415.5"/>
<text text-anchor="middle" x="209" y="-422.5" font-family="Helvetica,sans-Serif" font-size="10.00">Map&lt; String, Double &gt;</text>
</g>
<!-- Node7&#45;&gt;Node4 -->
<g id="edge6" class="edge"><title>Node7&#45;&gt;Node4</title>
<path fill="none" stroke="#9a32cd" stroke-dasharray="5,2" d="M283.46,-433.145C325.267,-437.87 378.594,-444.047 426,-450 434.678,-451.09 443.791,-452.273 452.805,-453.467"/>
<polygon fill="#9a32cd" stroke="#9a32cd" points="283.693,-429.649 273.364,-432.007 282.909,-436.605 283.693,-429.649"/>
<text text-anchor="middle" x="370" y="-453" font-family="Helvetica,sans-Serif" font-size="10.00"> myVariableMap</text>
</g>
<!-- Node8 -->
<g id="node8" class="node"><title>Node8</title>
<polygon fill="white" stroke="#bfbfbf" points="455,-492 455,-522 591,-522 591,-492 455,-492"/>
<text text-anchor="start" x="463" y="-510" font-family="Helvetica,sans-Serif" font-size="10.00">List&lt; model.instructions.</text>
<text text-anchor="middle" x="523" y="-499" font-family="Helvetica,sans-Serif" font-size="10.00">Instruction &gt;</text>
</g>
<!-- Node8&#45;&gt;Node2 -->
<g id="edge7" class="edge"><title>Node8&#45;&gt;Node2</title>
<path fill="none" stroke="#9a32cd" stroke-dasharray="5,2" d="M601.415,-499.393C643.104,-495.155 695.4,-489.612 742,-484 750.933,-482.924 760.326,-481.73 769.595,-480.514"/>
<polygon fill="#9a32cd" stroke="#9a32cd" points="600.925,-495.924 591.329,-500.414 601.63,-502.889 600.925,-495.924"/>
<text text-anchor="middle" x="681" y="-501" font-family="Helvetica,sans-Serif" font-size="10.00"> myDependencies</text>
</g>
<!-- Node9&#45;&gt;Node2 -->
<g id="edge8" class="edge"><title>Node9&#45;&gt;Node2</title>
<path fill="none" stroke="#9a32cd" stroke-dasharray="5,2" d="M578.256,-234.358C587.142,-238.427 595.541,-243.83 602,-251 623.5,-274.867 599.568,-296.212 620,-321 658.186,-367.329 692.583,-344.904 742,-379 778.481,-404.171 814.241,-443.335 829.84,-461.344"/>
<polygon fill="#9a32cd" stroke="#9a32cd" points="579.463,-231.071 568.879,-230.581 576.848,-237.564 579.463,-231.071"/>
<text text-anchor="middle" x="681" y="-382" font-family="Helvetica,sans-Serif" font-size="10.00"> myView</text>
</g>
<!-- Node9&#45;&gt;Node18 -->
<g id="edge23" class="edge"><title>Node9&#45;&gt;Node18</title>
<path fill="none" stroke="#9a32cd" stroke-dasharray="5,2" d="M578.583,-230.129C622.915,-237.182 686.896,-248.388 742,-262 765.394,-267.779 791.463,-276.045 810.524,-282.438"/>
<polygon fill="#9a32cd" stroke="#9a32cd" points="579.017,-226.654 568.594,-228.557 577.928,-233.569 579.017,-226.654"/>
<text text-anchor="middle" x="681" y="-265" font-family="Helvetica,sans-Serif" font-size="10.00"> mySLogoView</text>
</g>
<!-- Node10 -->
<g id="node10" class="node"><title>Node10</title>
<g id="a_node10"><a xlink:href="../../da/d64/classview_1_1_workspace.html" target="_top" xlink:title="view.Workspace">
<polygon fill="white" stroke="black" points="1528,-470.5 1528,-489.5 1618,-489.5 1618,-470.5 1528,-470.5"/>
<text text-anchor="middle" x="1573" y="-477.5" font-family="Helvetica,sans-Serif" font-size="10.00">view.Workspace</text>
</a>
</g>
</g>
<!-- Node10&#45;&gt;Node9 -->
<g id="edge10" class="edge"><title>Node10&#45;&gt;Node9</title>
<path fill="none" stroke="#9a32cd" stroke-dasharray="5,2" d="M1560.69,-461.574C1528.99,-411.99 1433.58,-276.418 1312,-231 1045.1,-131.294 690.979,-187.849 568.162,-212.416"/>
<polygon fill="#9a32cd" stroke="#9a32cd" points="1557.89,-463.688 1566.17,-470.292 1563.81,-459.963 1557.89,-463.688"/>
<text text-anchor="middle" x="1101" y="-200" font-family="Helvetica,sans-Serif" font-size="10.00"> myWorkspace</text>
</g>
<!-- Node11 -->
<g id="node11" class="node"><title>Node11</title>
<polygon fill="white" stroke="#bfbfbf" points="1339.5,-489.5 1339.5,-508.5 1406.5,-508.5 1406.5,-489.5 1339.5,-489.5"/>
<text text-anchor="middle" x="1373" y="-496.5" font-family="Helvetica,sans-Serif" font-size="10.00">StackPane</text>
</g>
<!-- Node11&#45;&gt;Node10 -->
<g id="edge11" class="edge"><title>Node11&#45;&gt;Node10</title>
<path fill="none" stroke="midnightblue" d="M1416.87,-494.886C1449.64,-491.742 1494.66,-487.422 1527.76,-484.245"/>
<polygon fill="midnightblue" stroke="midnightblue" points="1416.32,-491.423 1406.7,-495.863 1416.98,-498.391 1416.32,-491.423"/>
</g>
<!-- Node12 -->
<g id="node12" class="node"><title>Node12</title>
<g id="a_node12"><a xlink:href="../../d8/df7/classview_1_1_turtle_view.html" target="_top" xlink:title="view.TurtleView">
<polygon fill="white" stroke="black" points="1330,-556.5 1330,-575.5 1416,-575.5 1416,-556.5 1330,-556.5"/>
<text text-anchor="middle" x="1373" y="-563.5" font-family="Helvetica,sans-Serif" font-size="10.00">view.TurtleView</text>
</a>
</g>
</g>
<!-- Node12&#45;&gt;Node10 -->
<g id="edge12" class="edge"><title>Node12&#45;&gt;Node10</title>
<path fill="none" stroke="#9a32cd" stroke-dasharray="5,2" d="M1405.3,-552.405C1445.63,-534.888 1514.73,-504.874 1549.96,-489.575"/>
<polygon fill="#9a32cd" stroke="#9a32cd" points="1403.72,-549.274 1395.95,-556.468 1406.51,-555.694 1403.72,-549.274"/>
<text text-anchor="middle" x="1472" y="-542" font-family="Helvetica,sans-Serif" font-size="10.00"> myActiveTurtle</text>
</g>
<!-- Node13 -->
<g id="node13" class="node"><title>Node13</title>
<polygon fill="white" stroke="#bfbfbf" points="1067,-584.5 1067,-603.5 1135,-603.5 1135,-584.5 1067,-584.5"/>
<text text-anchor="middle" x="1101" y="-591.5" font-family="Helvetica,sans-Serif" font-size="10.00">ImageView</text>
</g>
<!-- Node13&#45;&gt;Node12 -->
<g id="edge13" class="edge"><title>Node13&#45;&gt;Node12</title>
<path fill="none" stroke="midnightblue" d="M1145.09,-589.531C1195.79,-584.274 1279.41,-575.602 1329.74,-570.383"/>
<polygon fill="midnightblue" stroke="midnightblue" points="1144.69,-586.054 1135.11,-590.567 1145.42,-593.016 1144.69,-586.054"/>
</g>
<!-- Node14 -->
<g id="node14" class="node"><title>Node14</title>
<polygon fill="white" stroke="#bfbfbf" points="141,-542 141,-572 277,-572 277,-542 141,-542"/>
<text text-anchor="start" x="149" y="-560" font-family="Helvetica,sans-Serif" font-size="10.00">Map&lt; Integer, view.Turtle</text>
<text text-anchor="middle" x="209" y="-549" font-family="Helvetica,sans-Serif" font-size="10.00">View &gt;</text>
</g>
<!-- Node14&#45;&gt;Node9 -->
<g id="edge41" class="edge"><title>Node14&#45;&gt;Node9</title>
<path fill="none" stroke="#9a32cd" stroke-dasharray="5,2" d="M272.909,-539.063C333.198,-521.26 416.433,-494.831 426,-482 456.778,-440.722 412.991,-292.104 444,-251 452.092,-240.274 464.598,-233.514 477.244,-229.254"/>
<polygon fill="#9a32cd" stroke="#9a32cd" points="271.679,-535.776 263.07,-541.952 273.651,-542.492 271.679,-535.776"/>
<text text-anchor="middle" x="370" y="-529" font-family="Helvetica,sans-Serif" font-size="10.00"> myTurtles</text>
</g>
<!-- Node14&#45;&gt;Node10 -->
<g id="edge14" class="edge"><title>Node14&#45;&gt;Node10</title>
<path fill="none" stroke="#9a32cd" stroke-dasharray="5,2" d="M257.357,-575.77C317.771,-597.985 425.955,-632 522,-632 522,-632 522,-632 1374,-632 1468.04,-632 1544.92,-522.785 1566.16,-489.508"/>
<polygon fill="#9a32cd" stroke="#9a32cd" points="258.315,-572.392 247.722,-572.177 255.869,-578.951 258.315,-572.392"/>
<text text-anchor="middle" x="964" y="-635" font-family="Helvetica,sans-Serif" font-size="10.00"> myTurtles</text>
</g>
<!-- Node15 -->
<g id="node15" class="node"><title>Node15</title>
<g id="a_node15"><a xlink:href="../../d1/dc7/classview_1_1_side_bar.html" target="_top" xlink:title="view.SideBar">
<polygon fill="white" stroke="black" points="1334.5,-356.5 1334.5,-375.5 1411.5,-375.5 1411.5,-356.5 1334.5,-356.5"/>
<text text-anchor="middle" x="1373" y="-363.5" font-family="Helvetica,sans-Serif" font-size="10.00">view.SideBar</text>
</a>
</g>
</g>
<!-- Node14&#45;&gt;Node15 -->
<g id="edge25" class="edge"><title>Node14&#45;&gt;Node15</title>
<path fill="none" stroke="#9a32cd" stroke-dasharray="5,2" d="M287.525,-556.614C350.654,-556.332 442.084,-556 522,-556 522,-556 522,-556 1102,-556 1202.04,-556 1240.47,-544.937 1312,-475 1323.95,-463.32 1321.96,-456.645 1330,-442 1343.06,-418.214 1358.52,-390.304 1366.55,-375.828"/>
<polygon fill="#9a32cd" stroke="#9a32cd" points="287.236,-553.115 277.252,-556.66 287.268,-560.115 287.236,-553.115"/>
<text text-anchor="middle" x="839" y="-559" font-family="Helvetica,sans-Serif" font-size="10.00"> myTurtles</text>
</g>
<!-- Node15&#45;&gt;Node9 -->
<g id="edge44" class="edge"><title>Node15&#45;&gt;Node9</title>
<path fill="none" stroke="#9a32cd" stroke-dasharray="5,2" d="M1348.06,-351.417C1337.37,-345.493 1324.4,-339.094 1312,-335 1182.88,-292.372 1143.87,-309.842 1010,-286 890.547,-264.726 862.411,-248.925 742,-234 682.378,-226.61 613.017,-223.771 568.833,-222.68"/>
<polygon fill="#9a32cd" stroke="#9a32cd" points="1346.39,-354.491 1356.8,-356.43 1349.87,-348.419 1346.39,-354.491"/>
<text text-anchor="middle" x="964" y="-286" font-family="Helvetica,sans-Serif" font-size="10.00"> mySidebar</text>
</g>
<!-- Node15&#45;&gt;Node10 -->
<g id="edge15" class="edge"><title>Node15&#45;&gt;Node10</title>
<path fill="none" stroke="#9a32cd" stroke-dasharray="5,2" d="M1399.41,-380.63C1440.57,-404.329 1520.71,-450.469 1555.37,-470.423"/>
<polygon fill="#9a32cd" stroke="#9a32cd" points="1400.95,-377.48 1390.54,-375.523 1397.46,-383.546 1400.95,-377.48"/>
<text text-anchor="middle" x="1472" y="-447" font-family="Helvetica,sans-Serif" font-size="10.00"> mySidebar</text>
</g>
<!-- Node28 -->
<g id="node28" class="node"><title>Node28</title>
<g id="a_node28"><a xlink:href="../../da/dc8/classview_1_1_editor.html" target="_top" xlink:title="view.Editor">
<polygon fill="white" stroke="black" points="1539.5,-99.5 1539.5,-118.5 1606.5,-118.5 1606.5,-99.5 1539.5,-99.5"/>
<text text-anchor="middle" x="1573" y="-106.5" font-family="Helvetica,sans-Serif" font-size="10.00">view.Editor</text>
</a>
</g>
</g>
<!-- Node15&#45;&gt;Node28 -->
<g id="edge37" class="edge"><title>Node15&#45;&gt;Node28</title>
<path fill="none" stroke="#9a32cd" stroke-dasharray="5,2" d="M1387.67,-348.254C1426.22,-298.224 1534.87,-157.192 1564.47,-118.771"/>
<polygon fill="#9a32cd" stroke="#9a32cd" points="1384.85,-346.181 1381.52,-356.239 1390.4,-350.454 1384.85,-346.181"/>
<text text-anchor="middle" x="1472" y="-286" font-family="Helvetica,sans-Serif" font-size="10.00"> mySidebar</text>
</g>
<!-- Node16 -->
<g id="node16" class="node"><title>Node16</title>
<polygon fill="white" stroke="#bfbfbf" points="1080.5,-470.5 1080.5,-489.5 1121.5,-489.5 1121.5,-470.5 1080.5,-470.5"/>
<text text-anchor="middle" x="1101" y="-477.5" font-family="Helvetica,sans-Serif" font-size="10.00">VBox</text>
</g>
<!-- Node16&#45;&gt;Node15 -->
<g id="edge16" class="edge"><title>Node16&#45;&gt;Node15</title>
<path fill="none" stroke="midnightblue" d="M1131.64,-481.674C1174.57,-482.713 1255.12,-479.343 1312,-445 1340.01,-428.086 1359.49,-392.762 1367.68,-375.673"/>
<polygon fill="midnightblue" stroke="midnightblue" points="1131.69,-478.173 1121.58,-481.331 1131.45,-485.169 1131.69,-478.173"/>
</g>
<!-- Node17 -->
<g id="node17" class="node"><title>Node17</title>
<g id="a_node17"><a xlink:href="../../d4/dd9/classcontroller_1_1_s_logo_controller.html" target="_top" xlink:title="controller.SLogoController">
<polygon fill="white" stroke="black" points="1031,-146.5 1031,-165.5 1171,-165.5 1171,-146.5 1031,-146.5"/>
<text text-anchor="middle" x="1101" y="-153.5" font-family="Helvetica,sans-Serif" font-size="10.00">controller.SLogoController</text>
</a>
</g>
</g>
<!-- Node17&#45;&gt;Node9 -->
<g id="edge39" class="edge"><title>Node17&#45;&gt;Node9</title>
<path fill="none" stroke="#9a32cd" stroke-dasharray="5,2" d="M1030.17,-145.162C934.913,-133.076 760.087,-120.572 620,-165 586.928,-175.489 553.17,-199.177 535.854,-212.479"/>
<polygon fill="#9a32cd" stroke="#9a32cd" points="1029.89,-148.655 1040.25,-146.479 1030.79,-141.714 1029.89,-148.655"/>
<text text-anchor="middle" x="839" y="-141" font-family="Helvetica,sans-Serif" font-size="10.00"> myController</text>
</g>
<!-- Node17&#45;&gt;Node15 -->
<g id="edge17" class="edge"><title>Node17&#45;&gt;Node15</title>
<path fill="none" stroke="#9a32cd" stroke-dasharray="5,2" d="M1149.92,-168.448C1196.26,-182.572 1266.03,-209.605 1312,-254 1343.58,-284.494 1362.32,-335.257 1369.1,-356.35"/>
<polygon fill="#9a32cd" stroke="#9a32cd" points="1150.7,-165.029 1140.11,-165.546 1148.71,-171.741 1150.7,-165.029"/>
<text text-anchor="middle" x="1261" y="-257" font-family="Helvetica,sans-Serif" font-size="10.00"> myController</text>
</g>
<!-- Node17&#45;&gt;Node28 -->
<g id="edge35" class="edge"><title>Node17&#45;&gt;Node28</title>
<path fill="none" stroke="#9a32cd" stroke-dasharray="5,2" d="M1181.31,-148.069C1286.16,-137.584 1466.17,-119.583 1539.49,-112.251"/>
<polygon fill="#9a32cd" stroke="#9a32cd" points="1180.7,-144.612 1171.1,-149.09 1181.4,-151.578 1180.7,-144.612"/>
<text text-anchor="middle" x="1373" y="-136" font-family="Helvetica,sans-Serif" font-size="10.00"> myController</text>
</g>
<!-- Node18&#45;&gt;Node17 -->
<g id="edge18" class="edge"><title>Node18&#45;&gt;Node17</title>
<path fill="none" stroke="#9a32cd" stroke-dasharray="5,2" d="M864.454,-276.915C897.073,-257.058 956.89,-221.559 1010,-195 1031.93,-184.032 1057.67,-173.063 1075.99,-165.565"/>
<polygon fill="#9a32cd" stroke="#9a32cd" points="862.328,-274.113 855.621,-282.315 865.979,-280.085 862.328,-274.113"/>
<text text-anchor="middle" x="964" y="-237" font-family="Helvetica,sans-Serif" font-size="10.00"> myParser</text>
</g>
<!-- Node19 -->
<g id="node19" class="node"><title>Node19</title>
<polygon fill="white" stroke="#bfbfbf" points="467,-299 467,-329 579,-329 579,-299 467,-299"/>
<text text-anchor="start" x="475" y="-317" font-family="Helvetica,sans-Serif" font-size="10.00">List&lt; Entry&lt; String,</text>
<text text-anchor="middle" x="523" y="-306" font-family="Helvetica,sans-Serif" font-size="10.00"> Pattern &gt; &gt;</text>
</g>
<!-- Node19&#45;&gt;Node18 -->
<g id="edge20" class="edge"><title>Node19&#45;&gt;Node18</title>
<path fill="none" stroke="#9a32cd" stroke-dasharray="5,2" d="M589.325,-309.423C652.599,-304.99 746.453,-298.414 798.902,-294.739"/>
<polygon fill="#9a32cd" stroke="#9a32cd" points="588.785,-305.952 579.054,-310.143 589.274,-312.935 588.785,-305.952"/>
<text text-anchor="middle" x="681" y="-310" font-family="Helvetica,sans-Serif" font-size="10.00"> myPatterns</text>
</g>
<!-- Node20 -->
<g id="node20" class="node"><title>Node20</title>
<polygon fill="white" stroke="#bfbfbf" points="462,-260.5 462,-279.5 584,-279.5 584,-260.5 462,-260.5"/>
<text text-anchor="middle" x="523" y="-267.5" font-family="Helvetica,sans-Serif" font-size="10.00">Map&lt; String, String &gt;</text>
</g>
<!-- Node20&#45;&gt;Node18 -->
<g id="edge22" class="edge"><title>Node20&#45;&gt;Node18</title>
<path fill="none" stroke="#9a32cd" stroke-dasharray="5,2" d="M594.167,-274.755C636.901,-277.669 692.603,-281.5 742,-285 760.669,-286.323 781.378,-287.828 798.768,-289.103"/>
<polygon fill="#9a32cd" stroke="#9a32cd" points="594.365,-271.26 584.15,-274.072 593.889,-278.244 594.365,-271.26"/>
<text text-anchor="middle" x="681" y="-288" font-family="Helvetica,sans-Serif" font-size="10.00"> myCommandMap</text>
</g>
<!-- Node21 -->
<g id="node21" class="node"><title>Node21</title>
<polygon fill="white" stroke="#bfbfbf" points="1034,-421 1034,-451 1168,-451 1168,-421 1034,-421"/>
<text text-anchor="start" x="1042" y="-439" font-family="Helvetica,sans-Serif" font-size="10.00">TableView&lt; view.Variable</text>
<text text-anchor="middle" x="1101" y="-428" font-family="Helvetica,sans-Serif" font-size="10.00">View &gt;</text>
</g>
<!-- Node21&#45;&gt;Node15 -->
<g id="edge24" class="edge"><title>Node21&#45;&gt;Node15</title>
<path fill="none" stroke="#9a32cd" stroke-dasharray="5,2" d="M1178.35,-425.249C1218.69,-418.443 1268.68,-408.211 1312,-394 1326.75,-389.162 1342.62,-381.64 1354.34,-375.611"/>
<polygon fill="#9a32cd" stroke="#9a32cd" points="1177.61,-421.824 1168.31,-426.905 1178.75,-428.73 1177.61,-421.824"/>
<text text-anchor="middle" x="1261" y="-433" font-family="Helvetica,sans-Serif" font-size="10.00"> turtlePropertiesTable</text>
<text text-anchor="middle" x="1261" y="-422" font-family="Helvetica,sans-Serif" font-size="10.00">variablesTable</text>
</g>
<!-- Node22 -->
<g id="node22" class="node"><title>Node22</title>
<polygon fill="white" stroke="#bfbfbf" points="1021.5,-372 1021.5,-402 1180.5,-402 1180.5,-372 1021.5,-372"/>
<text text-anchor="start" x="1029.5" y="-390" font-family="Helvetica,sans-Serif" font-size="10.00">ObservableList&lt; view.Variable</text>
<text text-anchor="middle" x="1101" y="-379" font-family="Helvetica,sans-Serif" font-size="10.00">View &gt;</text>
</g>
<!-- Node22&#45;&gt;Node15 -->
<g id="edge26" class="edge"><title>Node22&#45;&gt;Node15</title>
<path fill="none" stroke="#9a32cd" stroke-dasharray="5,2" d="M1191.06,-380.073C1239.72,-376.288 1297.43,-371.8 1334.37,-368.927"/>
<polygon fill="#9a32cd" stroke="#9a32cd" points="1190.52,-376.604 1180.82,-380.869 1191.06,-383.583 1190.52,-376.604"/>
<text text-anchor="middle" x="1261" y="-382" font-family="Helvetica,sans-Serif" font-size="10.00"> variablesList</text>
</g>
<!-- Node23 -->
<g id="node23" class="node"><title>Node23</title>
<polygon fill="white" stroke="#bfbfbf" points="1032,-333.5 1032,-352.5 1170,-352.5 1170,-333.5 1032,-333.5"/>
<text text-anchor="middle" x="1101" y="-340.5" font-family="Helvetica,sans-Serif" font-size="10.00">ObservableList&lt; String &gt;</text>
</g>
<!-- Node23&#45;&gt;Node15 -->
<g id="edge27" class="edge"><title>Node23&#45;&gt;Node15</title>
<path fill="none" stroke="#9a32cd" stroke-dasharray="5,2" d="M1180.26,-338.446C1219.98,-337.566 1268.84,-338.68 1312,-346 1324.45,-348.112 1337.82,-352.362 1348.78,-356.404"/>
<polygon fill="#9a32cd" stroke="#9a32cd" points="1180,-334.952 1170.1,-338.719 1180.19,-341.949 1180,-334.952"/>
<text text-anchor="middle" x="1261" y="-360" font-family="Helvetica,sans-Serif" font-size="10.00"> commandItems</text>
<text text-anchor="middle" x="1261" y="-349" font-family="Helvetica,sans-Serif" font-size="10.00">historyItems</text>
</g>
<!-- Node24 -->
<g id="node24" class="node"><title>Node24</title>
<polygon fill="white" stroke="#bfbfbf" points="1048,-257.5 1048,-276.5 1154,-276.5 1154,-257.5 1048,-257.5"/>
<text text-anchor="middle" x="1101" y="-264.5" font-family="Helvetica,sans-Serif" font-size="10.00">ListView&lt; String &gt;</text>
</g>
<!-- Node24&#45;&gt;Node15 -->
<g id="edge28" class="edge"><title>Node24&#45;&gt;Node15</title>
<path fill="none" stroke="#9a32cd" stroke-dasharray="5,2" d="M1164.47,-266.763C1217.07,-267.573 1287.52,-271.325 1312,-285 1341.33,-301.385 1360.42,-338.755 1368.13,-356.416"/>
<polygon fill="#9a32cd" stroke="#9a32cd" points="1164.25,-263.26 1154.21,-266.638 1164.17,-270.26 1164.25,-263.26"/>
<text text-anchor="middle" x="1261" y="-288" font-family="Helvetica,sans-Serif" font-size="10.00"> historyList</text>
</g>
<!-- Node25 -->
<g id="node25" class="node"><title>Node25</title>
<polygon fill="white" stroke="#bfbfbf" points="1341.5,-451.5 1341.5,-470.5 1404.5,-470.5 1404.5,-451.5 1341.5,-451.5"/>
<text text-anchor="middle" x="1373" y="-458.5" font-family="Helvetica,sans-Serif" font-size="10.00">Rectangle</text>
</g>
<!-- Node25&#45;&gt;Node10 -->
<g id="edge29" class="edge"><title>Node25&#45;&gt;Node10</title>
<path fill="none" stroke="#9a32cd" stroke-dasharray="5,2" d="M1414.8,-463.791C1441.84,-465.765 1478.07,-468.651 1510,-472 1515.83,-472.611 1521.96,-473.321 1528,-474.06"/>
<polygon fill="#9a32cd" stroke="#9a32cd" points="1414.78,-460.28 1404.56,-463.054 1414.28,-467.262 1414.78,-460.28"/>
<text text-anchor="middle" x="1472" y="-475" font-family="Helvetica,sans-Serif" font-size="10.00"> myBackground</text>
</g>
<!-- Node26 -->
<g id="node26" class="node"><title>Node26</title>
<polygon fill="white" stroke="#bfbfbf" points="186.5,-255.5 186.5,-274.5 231.5,-274.5 231.5,-255.5 186.5,-255.5"/>
<text text-anchor="middle" x="209" y="-262.5" font-family="Helvetica,sans-Serif" font-size="10.00">Stage</text>
</g>
<!-- Node26&#45;&gt;Node9 -->
<g id="edge30" class="edge"><title>Node26&#45;&gt;Node9</title>
<path fill="none" stroke="#9a32cd" stroke-dasharray="5,2" d="M241.745,-262.321C283.956,-258.566 360.823,-251.052 426,-241 442.959,-238.384 461.48,-234.875 477.689,-231.585"/>
<polygon fill="#9a32cd" stroke="#9a32cd" points="241.196,-258.856 231.54,-263.216 241.808,-265.829 241.196,-258.856"/>
<text text-anchor="middle" x="370" y="-259" font-family="Helvetica,sans-Serif" font-size="10.00"> myStage</text>
</g>
<!-- Node27 -->
<g id="node27" class="node"><title>Node27</title>
<polygon fill="white" stroke="#bfbfbf" points="162.5,-217.5 162.5,-236.5 255.5,-236.5 255.5,-217.5 162.5,-217.5"/>
<text text-anchor="middle" x="209" y="-224.5" font-family="Helvetica,sans-Serif" font-size="10.00">ResourceBundle</text>
</g>
<!-- Node27&#45;&gt;Node9 -->
<g id="edge31" class="edge"><title>Node27&#45;&gt;Node9</title>
<path fill="none" stroke="#9a32cd" stroke-dasharray="5,2" d="M265.841,-226.105C326.364,-225.135 421.735,-223.607 477.44,-222.714"/>
<polygon fill="#9a32cd" stroke="#9a32cd" points="265.644,-222.608 255.702,-226.268 265.756,-229.607 265.644,-222.608"/>
<text text-anchor="middle" x="370" y="-229" font-family="Helvetica,sans-Serif" font-size="10.00"> myResources</text>
</g>
<!-- Node28&#45;&gt;Node9 -->
<g id="edge32" class="edge"><title>Node28&#45;&gt;Node9</title>
<path fill="none" stroke="#9a32cd" stroke-dasharray="5,2" d="M1529.27,-101.145C1489.28,-94.4825 1427.8,-86 1374,-86 838,-86 838,-86 838,-86 738.495,-86 708.386,-91.2931 620,-137 582.035,-156.633 547.018,-194.629 531.882,-212.4"/>
<polygon fill="#9a32cd" stroke="#9a32cd" points="1528.76,-104.608 1539.2,-102.836 1529.93,-97.7075 1528.76,-104.608"/>
<text text-anchor="middle" x="1101" y="-89" font-family="Helvetica,sans-Serif" font-size="10.00"> myEditor</text>
</g>
<!-- Node29 -->
<g id="node29" class="node"><title>Node29</title>
<polygon fill="white" stroke="#bfbfbf" points="1352,-0.5 1352,-19.5 1394,-19.5 1394,-0.5 1352,-0.5"/>
<text text-anchor="middle" x="1373" y="-7.5" font-family="Helvetica,sans-Serif" font-size="10.00">HBox</text>
</g>
<!-- Node29&#45;&gt;Node28 -->
<g id="edge33" class="edge"><title>Node29&#45;&gt;Node28</title>
<path fill="none" stroke="midnightblue" d="M1404.53,-12.3794C1433.38,-15.7465 1477.05,-23.8101 1510,-43 1534.73,-57.3989 1555.63,-84.6829 1565.65,-99.2533"/>
<polygon fill="midnightblue" stroke="midnightblue" points="1404.55,-8.86336 1394.24,-11.3055 1403.83,-15.8255 1404.55,-8.86336"/>
</g>
<!-- Node30 -->
<g id="node30" class="node"><title>Node30</title>
<polygon fill="white" stroke="#bfbfbf" points="1348.5,-161.5 1348.5,-180.5 1397.5,-180.5 1397.5,-161.5 1348.5,-161.5"/>
<text text-anchor="middle" x="1373" y="-168.5" font-family="Helvetica,sans-Serif" font-size="10.00">Button</text>
</g>
<!-- Node30&#45;&gt;Node28 -->
<g id="edge34" class="edge"><title>Node30&#45;&gt;Node28</title>
<path fill="none" stroke="#9a32cd" stroke-dasharray="5,2" d="M1407.77,-166.908C1435.76,-162.843 1476.3,-155.392 1510,-143 1527.05,-136.73 1545.11,-126.346 1557.31,-118.7"/>
<polygon fill="#9a32cd" stroke="#9a32cd" points="1407.11,-163.465 1397.69,-168.303 1408.07,-170.398 1407.11,-163.465"/>
<text text-anchor="middle" x="1472" y="-166" font-family="Helvetica,sans-Serif" font-size="10.00"> runButton</text>
</g>
<!-- Node31 -->
<g id="node31" class="node"><title>Node31</title>
<polygon fill="white" stroke="#bfbfbf" points="1344,-38.5 1344,-57.5 1402,-57.5 1402,-38.5 1344,-38.5"/>
<text text-anchor="middle" x="1373" y="-45.5" font-family="Helvetica,sans-Serif" font-size="10.00">TextArea</text>
</g>
<!-- Node31&#45;&gt;Node28 -->
<g id="edge36" class="edge"><title>Node31&#45;&gt;Node28</title>
<path fill="none" stroke="#9a32cd" stroke-dasharray="5,2" d="M1412.33,-46.0604C1440.33,-45.9606 1478.71,-48.6103 1510,-61 1531.52,-69.5203 1551.8,-87.8916 1562.99,-99.2732"/>
<polygon fill="#9a32cd" stroke="#9a32cd" points="1412.09,-42.5636 1402.15,-46.2186 1412.2,-49.5628 1412.09,-42.5636"/>
<text text-anchor="middle" x="1472" y="-64" font-family="Helvetica,sans-Serif" font-size="10.00"> textEditor</text>
</g>
<!-- Node32 -->
<g id="node32" class="node"><title>Node32</title>
<polygon fill="white" stroke="#bfbfbf" points="149.5,-179.5 149.5,-198.5 268.5,-198.5 268.5,-179.5 149.5,-179.5"/>
<text text-anchor="middle" x="209" y="-186.5" font-family="Helvetica,sans-Serif" font-size="10.00">Map&lt; String, Node &gt;</text>
</g>
<!-- Node32&#45;&gt;Node9 -->
<g id="edge38" class="edge"><title>Node32&#45;&gt;Node9</title>
<path fill="none" stroke="#9a32cd" stroke-dasharray="5,2" d="M278.965,-194.638C321.415,-198.294 376.913,-203.406 426,-209 442.711,-210.904 461.015,-213.304 477.117,-215.523"/>
<polygon fill="#9a32cd" stroke="#9a32cd" points="279.004,-191.129 268.742,-193.764 278.408,-198.103 279.004,-191.129"/>
<text text-anchor="middle" x="370" y="-212" font-family="Helvetica,sans-Serif" font-size="10.00"> variables</text>
</g>
<!-- Node33 -->
<g id="node33" class="node"><title>Node33</title>
<polygon fill="white" stroke="#bfbfbf" points="168.5,-141.5 168.5,-160.5 249.5,-160.5 249.5,-141.5 168.5,-141.5"/>
<text text-anchor="middle" x="209" y="-148.5" font-family="Helvetica,sans-Serif" font-size="10.00">Dimension2D</text>
</g>
<!-- Node33&#45;&gt;Node9 -->
<g id="edge40" class="edge"><title>Node33&#45;&gt;Node9</title>
<path fill="none" stroke="#9a32cd" stroke-dasharray="5,2" d="M259.802,-154.975C304.034,-159.306 370.136,-167.751 426,-183 453.247,-190.438 483.18,-203.421 502.258,-212.35"/>
<polygon fill="#9a32cd" stroke="#9a32cd" points="259.887,-151.468 249.602,-154.012 259.228,-158.437 259.887,-151.468"/>
<text text-anchor="middle" x="370" y="-186" font-family="Helvetica,sans-Serif" font-size="10.00"> myDimensions</text>
</g>
<!-- Node34 -->
<g id="node34" class="node"><title>Node34</title>
<g id="a_node34"><a xlink:href="../../de/d0a/classview_1_1_drawer.html" target="_top" xlink:title="view.Drawer">
<polygon fill="white" stroke="black" points="172.5,-103.5 172.5,-122.5 245.5,-122.5 245.5,-103.5 172.5,-103.5"/>
<text text-anchor="middle" x="209" y="-110.5" font-family="Helvetica,sans-Serif" font-size="10.00">view.Drawer</text>
</a>
</g>
</g>
<!-- Node34&#45;&gt;Node9 -->
<g id="edge42" class="edge"><title>Node34&#45;&gt;Node9</title>
<path fill="none" stroke="#9a32cd" stroke-dasharray="5,2" d="M255.596,-113.586C300.627,-115.656 370.598,-122.943 426,-147 462.472,-162.837 497.149,-195.862 512.998,-212.288"/>
<polygon fill="#9a32cd" stroke="#9a32cd" points="255.675,-110.087 245.546,-113.192 255.401,-117.081 255.675,-110.087"/>
<text text-anchor="middle" x="370" y="-150" font-family="Helvetica,sans-Serif" font-size="10.00"> drawer</text>
</g>
<!-- Node35 -->
<g id="node35" class="node"><title>Node35</title>
<polygon fill="white" stroke="#bfbfbf" points="0.5,-103.5 0.5,-122.5 41.5,-122.5 41.5,-103.5 0.5,-103.5"/>
<text text-anchor="middle" x="21" y="-110.5" font-family="Helvetica,sans-Serif" font-size="10.00">Color</text>
</g>
<!-- Node35&#45;&gt;Node34 -->
<g id="edge43" class="edge"><title>Node35&#45;&gt;Node34</title>
<path fill="none" stroke="#9a32cd" stroke-dasharray="5,2" d="M51.8575,-113C84.6426,-113 137.265,-113 172.23,-113"/>
<polygon fill="#9a32cd" stroke="#9a32cd" points="51.5537,-109.5 41.5537,-113 51.5537,-116.5 51.5537,-109.5"/>
<text text-anchor="middle" x="82" y="-116" font-family="Helvetica,sans-Serif" font-size="10.00"> myColor</text>
</g>
<!-- Node36 -->
<g id="node36" class="node"><title>Node36</title>
<polygon fill="white" stroke="#bfbfbf" points="186,-293.5 186,-312.5 232,-312.5 232,-293.5 186,-293.5"/>
<text text-anchor="middle" x="209" y="-300.5" font-family="Helvetica,sans-Serif" font-size="10.00">Group</text>
</g>
<!-- Node36&#45;&gt;Node9 -->
<g id="edge45" class="edge"><title>Node36&#45;&gt;Node9</title>
<path fill="none" stroke="#9a32cd" stroke-dasharray="5,2" d="M242.188,-304.805C286.331,-305.877 366.905,-302.713 426,-271 436.537,-265.345 434.11,-257.722 444,-251 456.427,-242.554 471.63,-236.184 485.302,-231.597"/>
<polygon fill="#9a32cd" stroke="#9a32cd" points="242.155,-301.302 232.044,-304.467 241.922,-308.298 242.155,-301.302"/>
<text text-anchor="middle" x="370" y="-305" font-family="Helvetica,sans-Serif" font-size="10.00"> lines</text>
</g>
</g>
</svg>
        <g id="navigator" transform="translate(0 0)" fill="#404254">
                <rect fill="#f2f5e9" fill-opacity="0.5" stroke="#606060" stroke-width=".5" x="0" y="0" width="60" height="60"/>
                <use id="zoomplus" xlink:href="#zoomPlus" x="17" y="9" onmousedown="handleZoom(evt,'in')"/>
                <use id="zoomminus" xlink:href="#zoomMin" x="42" y="9" onmousedown="handleZoom(evt,'out')"/>
                <use id="reset" xlink:href="#resetDef" x="30" y="36" onmousedown="handleReset()"/>
                <g id="arrowUp" xlink:href="#dirArrow" transform="translate(30 24)" onmousedown="handlePan(0,-1)">
                  <use xlink:href="#rim" fill="#404040">
                        <set attributeName="fill" to="#808080" begin="arrowUp.mouseover" end="arrowUp.mouseout"/>
                  </use>
                  <path fill="none" stroke="white" stroke-width="1.5" d="M0,-3.0v7 M-2.5,-0.5L0,-3.0L2.5,-0.5"/>
                </g>
                <g id="arrowRight" xlink:href="#dirArrow" transform="rotate(90) translate(36 -43)" onmousedown="handlePan(1,0)">
                  <use xlink:href="#rim" fill="#404040">
                        <set attributeName="fill" to="#808080" begin="arrowRight.mouseover" end="arrowRight.mouseout"/>
                  </use>
                  <path fill="none" stroke="white" stroke-width="1.5" d="M0,-3.0v7 M-2.5,-0.5L0,-3.0L2.5,-0.5"/>
                </g>
                <g id="arrowDown" xlink:href="#dirArrow" transform="rotate(180) translate(-30 -48)" onmousedown="handlePan(0,1)">
                  <use xlink:href="#rim" fill="#404040">
                        <set attributeName="fill" to="#808080" begin="arrowDown.mouseover" end="arrowDown.mouseout"/>
                  </use>
                  <path fill="none" stroke="white" stroke-width="1.5" d="M0,-3.0v7 M-2.5,-0.5L0,-3.0L2.5,-0.5"/>
                </g>
                <g id="arrowLeft" xlink:href="#dirArrow" transform="rotate(270) translate(-36 17)" onmousedown="handlePan(-1,0)">
                  <use xlink:href="#rim" fill="#404040">
                        <set attributeName="fill" to="#808080" begin="arrowLeft.mouseover" end="arrowLeft.mouseout"/>
                  </use>
                  <path fill="none" stroke="white" stroke-width="1.5" d="M0,-3.0v7 M-2.5,-0.5L0,-3.0L2.5,-0.5"/>
                </g>
        </g>
        <svg viewBox="0 0 15 15" width="100%" height="30px" preserveAspectRatio="xMaxYMin meet">
         <g id="arrow_out" transform="scale(0.3 0.3)">
          <a xlink:href="classmodel_1_1instructions_1_1_math_instruction__coll__graph_org.svg" target="_base">
           <rect id="button" ry="5" rx="5" y="6" x="6" height="38" width="38"
                fill="#f2f5e9" fill-opacity="0.5" stroke="#606060" stroke-width="1.0"/>
           <path id="arrow"
             d="M 11.500037,31.436501 C 11.940474,20.09759 22.043105,11.32322 32.158766,21.979434 L 37.068811,17.246167 C 37.068811,17.246167 37.088388,32 37.088388,32 L 22.160133,31.978069 C 22.160133,31.978069 26.997745,27.140456 26.997745,27.140456 C 18.528582,18.264221 13.291696,25.230495 11.500037,31.436501 z"
             style="fill:#404040;"/>
          </a>
         </g>
        </svg>
</svg>
