<?xml version="1.0" encoding="UTF-8" standalone="no"?>
<!DOCTYPE svg PUBLIC "-//W3C//DTD SVG 1.1//EN"
 "http://www.w3.org/Graphics/SVG/1.1/DTD/svg11.dtd">
<!-- Generated by graphviz version 2.36.0 (20140111.2315)
 -->
<!-- Title: model.instructions.MathInstruction Pages: 1 -->
<svg width="1734pt" height="674pt"
 viewBox="0.00 0.00 1734.00 674.00" xmlns="http://www.w3.org/2000/svg" xmlns:xlink="http://www.w3.org/1999/xlink">
<g id="graph0" class="graph" transform="scale(1 1) rotate(0) translate(4 670)">
<title>model.instructions.MathInstruction</title>
<polygon fill="white" stroke="none" points="-4,4 -4,-670 1730,-670 1730,4 -4,4"/>
<!-- Node1 -->
<g id="node1" class="node"><title>Node1</title>
<polygon fill="#bfbfbf" stroke="black" points="888,-646.5 888,-665.5 1070,-665.5 1070,-646.5 888,-646.5"/>
<text text-anchor="middle" x="979" y="-653.5" font-family="Helvetica,sans-Serif" font-size="10.00">model.instructions.MathInstruction</text>
</g>
<!-- Node2 -->
<g id="node2" class="node"><title>Node2</title>
<g id="a_node2"><a xlink:href="../../d1/dea/classmodel_1_1instructions_1_1_instruction.html" target="_top" xlink:title="model.instructions.Instruction">
<polygon fill="white" stroke="black" points="638,-568.5 638,-587.5 796,-587.5 796,-568.5 638,-568.5"/>
<text text-anchor="middle" x="717" y="-575.5" font-family="Helvetica,sans-Serif" font-size="10.00">model.instructions.Instruction</text>
</a>
</g>
</g>
<!-- Node2&#45;&gt;Node1 -->
<g id="edge1" class="edge"><title>Node2&#45;&gt;Node1</title>
<path fill="none" stroke="midnightblue" d="M751.933,-591.197C785.964,-604.093 840.057,-623.677 888,-637 900.617,-640.506 914.385,-643.716 927.272,-646.459"/>
<polygon fill="midnightblue" stroke="midnightblue" points="753.058,-587.88 742.467,-587.586 750.563,-594.42 753.058,-587.88"/>
</g>
<!-- Node3 -->
<g id="node3" class="node"><title>Node3</title>
<polygon fill="white" stroke="#bfbfbf" points="57,-456.5 57,-475.5 117,-475.5 117,-456.5 57,-456.5"/>
<text text-anchor="middle" x="87" y="-463.5" font-family="Helvetica,sans-Serif" font-size="10.00">Observer</text>
</g>
<!-- Node3&#45;&gt;Node2 -->
<g id="edge2" class="edge"><title>Node3&#45;&gt;Node2</title>
<path fill="none" stroke="midnightblue" d="M126.79,-475.526C146.296,-480.169 170.337,-485.671 192,-490 356.86,-522.942 552.562,-553.581 651.638,-568.5"/>
<polygon fill="midnightblue" stroke="midnightblue" points="127.58,-472.116 117.039,-473.186 125.947,-478.923 127.58,-472.116"/>
</g>
<!-- Node9 -->
<g id="node9" class="node"><title>Node9</title>
<g id="a_node9"><a xlink:href="../../d6/de7/classview_1_1_s_logo_view.html" target="_top" xlink:title="view.SLogoView">
<polygon fill="white" stroke="black" points="355.5,-310.5 355.5,-329.5 446.5,-329.5 446.5,-310.5 355.5,-310.5"/>
<text text-anchor="middle" x="401" y="-317.5" font-family="Helvetica,sans-Serif" font-size="10.00">view.SLogoView</text>
</a>
</g>
</g>
<!-- Node3&#45;&gt;Node9 -->
<g id="edge9" class="edge"><title>Node3&#45;&gt;Node9</title>
<path fill="none" stroke="midnightblue" d="M127.335,-462.091C173.373,-455.872 250.153,-440.232 304,-402 315.164,-394.074 312.353,-386.715 322,-377 341.145,-357.72 367.295,-340.015 383.917,-329.613"/>
<polygon fill="midnightblue" stroke="midnightblue" points="126.643,-458.65 117.162,-463.379 127.522,-465.595 126.643,-458.65"/>
</g>
<!-- Node21 -->
<g id="node21" class="node"><title>Node21</title>
<g id="a_node21"><a xlink:href="../../dc/df5/classmodel_1_1_parser.html" target="_top" xlink:title="model.Parser">
<polygon fill="white" stroke="black" points="677,-384.5 677,-403.5 757,-403.5 757,-384.5 677,-384.5"/>
<text text-anchor="middle" x="717" y="-391.5" font-family="Helvetica,sans-Serif" font-size="10.00">model.Parser</text>
</a>
</g>
</g>
<!-- Node3&#45;&gt;Node21 -->
<g id="edge23" class="edge"><title>Node3&#45;&gt;Node21</title>
<path fill="none" stroke="midnightblue" d="M127.389,-469.724C216.74,-476.992 440.937,-488.556 620,-442 651.019,-433.935 683.692,-415.039 701.794,-403.507"/>
<polygon fill="midnightblue" stroke="midnightblue" points="127.431,-466.215 117.173,-468.863 126.843,-473.191 127.431,-466.215"/>
</g>
<!-- Node4 -->
<g id="node4" class="node"><title>Node4</title>
<g id="a_node4"><a xlink:href="../../d1/dca/classmodel_1_1_execution_environment.html" target="_top" xlink:title="model.ExecutionEnvironment">
<polygon fill="white" stroke="black" points="322.5,-568.5 322.5,-587.5 479.5,-587.5 479.5,-568.5 322.5,-568.5"/>
<text text-anchor="middle" x="401" y="-575.5" font-family="Helvetica,sans-Serif" font-size="10.00">model.ExecutionEnvironment</text>
</a>
</g>
</g>
<!-- Node4&#45;&gt;Node2 -->
<g id="edge3" class="edge"><title>Node4&#45;&gt;Node2</title>
<path fill="none" stroke="#9a32cd" stroke-dasharray="5,2" d="M489.688,-578C536.218,-578 592.911,-578 637.914,-578"/>
<polygon fill="#9a32cd" stroke="#9a32cd" points="489.618,-574.5 479.618,-578 489.618,-581.5 489.618,-574.5"/>
<text text-anchor="middle" x="559" y="-581" font-family="Helvetica,sans-Serif" font-size="10.00"> myEnvironment</text>
</g>
<!-- Node4&#45;&gt;Node21 -->
<g id="edge25" class="edge"><title>Node4&#45;&gt;Node21</title>
<path fill="none" stroke="#9a32cd" stroke-dasharray="5,2" d="M433.201,-564.265C476.396,-544.774 556.293,-506.99 620,-467 636.936,-456.369 682.039,-420.966 703.851,-403.673"/>
<polygon fill="#9a32cd" stroke="#9a32cd" points="431.746,-561.082 424.053,-568.367 434.61,-567.469 431.746,-561.082"/>
<text text-anchor="middle" x="559" y="-535" font-family="Helvetica,sans-Serif" font-size="10.00"> myExecutionParameters</text>
</g>
<!-- Node5 -->
<g id="node5" class="node"><title>Node5</title>
<polygon fill="white" stroke="#bfbfbf" points="51.5,-552.5 51.5,-571.5 122.5,-571.5 122.5,-552.5 51.5,-552.5"/>
<text text-anchor="middle" x="87" y="-559.5" font-family="Helvetica,sans-Serif" font-size="10.00">Observable</text>
</g>
<!-- Node5&#45;&gt;Node4 -->
<g id="edge4" class="edge"><title>Node5&#45;&gt;Node4</title>
<path fill="none" stroke="midnightblue" d="M132.637,-564.289C182.066,-566.824 262.658,-570.957 322.457,-574.023"/>
<polygon fill="midnightblue" stroke="midnightblue" points="132.748,-560.79 122.582,-563.773 132.389,-567.781 132.748,-560.79"/>
</g>
<!-- Node6 -->
<g id="node6" class="node"><title>Node6</title>
<polygon fill="white" stroke="#bfbfbf" points="0,-629 0,-659 174,-659 174,-629 0,-629"/>
<text text-anchor="start" x="8" y="-647" font-family="Helvetica,sans-Serif" font-size="10.00">Map&lt; String, model.instructions.</text>
<text text-anchor="middle" x="87" y="-636" font-family="Helvetica,sans-Serif" font-size="10.00">Instruction &gt;</text>
</g>
<!-- Node6&#45;&gt;Node4 -->
<g id="edge5" class="edge"><title>Node6&#45;&gt;Node4</title>
<path fill="none" stroke="#9a32cd" stroke-dasharray="5,2" d="M184.157,-635.976C222.32,-630.747 266.068,-622.141 304,-608 312.785,-604.725 313.342,-600.597 322,-597 331.01,-593.257 340.924,-590.14 350.575,-587.587"/>
<polygon fill="#9a32cd" stroke="#9a32cd" points="183.529,-632.528 174.068,-637.298 184.438,-639.469 183.529,-632.528"/>
<text text-anchor="middle" x="248" y="-638" font-family="Helvetica,sans-Serif" font-size="10.00"> myUserInstructionMap</text>
</g>
<!-- Node7 -->
<g id="node7" class="node"><title>Node7</title>
<polygon fill="white" stroke="#bfbfbf" points="23,-590.5 23,-609.5 151,-609.5 151,-590.5 23,-590.5"/>
<text text-anchor="middle" x="87" y="-597.5" font-family="Helvetica,sans-Serif" font-size="10.00">Map&lt; String, Double &gt;</text>
</g>
<!-- Node7&#45;&gt;Node4 -->
<g id="edge6" class="edge"><title>Node7&#45;&gt;Node4</title>
<path fill="none" stroke="#9a32cd" stroke-dasharray="5,2" d="M161.23,-594.836C209.637,-591.423 273.011,-586.954 322.303,-583.479"/>
<polygon fill="#9a32cd" stroke="#9a32cd" points="160.867,-591.353 151.138,-595.548 161.359,-598.336 160.867,-591.353"/>
<text text-anchor="middle" x="248" y="-596" font-family="Helvetica,sans-Serif" font-size="10.00"> myVariableMap</text>
</g>
<!-- Node8 -->
<g id="node8" class="node"><title>Node8</title>
<polygon fill="white" stroke="#bfbfbf" points="333,-607 333,-637 469,-637 469,-607 333,-607"/>
<text text-anchor="start" x="341" y="-625" font-family="Helvetica,sans-Serif" font-size="10.00">List&lt; model.instructions.</text>
<text text-anchor="middle" x="401" y="-614" font-family="Helvetica,sans-Serif" font-size="10.00">Instruction &gt;</text>
</g>
<!-- Node8&#45;&gt;Node2 -->
<g id="edge7" class="edge"><title>Node8&#45;&gt;Node2</title>
<path fill="none" stroke="#9a32cd" stroke-dasharray="5,2" d="M479.412,-612.137C521.1,-606.716 573.396,-599.74 620,-593 631.77,-591.298 644.338,-589.396 656.372,-587.533"/>
<polygon fill="#9a32cd" stroke="#9a32cd" points="478.792,-608.688 469.326,-613.446 479.693,-615.63 478.792,-608.688"/>
<text text-anchor="middle" x="559" y="-613" font-family="Helvetica,sans-Serif" font-size="10.00"> myDependencies</text>
</g>
<!-- Node9&#45;&gt;Node2 -->
<g id="edge8" class="edge"><title>Node9&#45;&gt;Node2</title>
<path fill="none" stroke="#9a32cd" stroke-dasharray="5,2" d="M427.651,-334.886C443.989,-345.24 464.852,-360.171 480,-377 490.659,-388.841 485.768,-397.792 498,-408 542.255,-444.932 577.709,-412.835 620,-452 634.303,-465.246 627.32,-475.691 638,-492 658.097,-522.691 689.042,-553.21 705.253,-568.29"/>
<polygon fill="#9a32cd" stroke="#9a32cd" points="429.455,-331.886 419.106,-329.621 425.784,-337.846 429.455,-331.886"/>
<text text-anchor="middle" x="559" y="-455" font-family="Helvetica,sans-Serif" font-size="10.00"> myView</text>
</g>
<!-- Node9&#45;&gt;Node21 -->
<g id="edge27" class="edge"><title>Node9&#45;&gt;Node21</title>
<path fill="none" stroke="#9a32cd" stroke-dasharray="5,2" d="M452.426,-331.884C514.879,-346.602 619.949,-371.364 676.735,-384.747"/>
<polygon fill="#9a32cd" stroke="#9a32cd" points="452.943,-328.41 442.407,-329.523 451.338,-335.223 452.943,-328.41"/>
<text text-anchor="middle" x="559" y="-374" font-family="Helvetica,sans-Serif" font-size="10.00"> mySLogoView</text>
</g>
<!-- Node10 -->
<g id="node10" class="node"><title>Node10</title>
<g id="a_node10"><a xlink:href="../../da/d64/classview_1_1_workspace.html" target="_top" xlink:title="view.Workspace">
<polygon fill="white" stroke="black" points="1456,-389.5 1456,-408.5 1546,-408.5 1546,-389.5 1456,-389.5"/>
<text text-anchor="middle" x="1501" y="-396.5" font-family="Helvetica,sans-Serif" font-size="10.00">view.Workspace</text>
</a>
</g>
</g>
<!-- Node10&#45;&gt;Node9 -->
<g id="edge10" class="edge"><title>Node10&#45;&gt;Node9</title>
<path fill="none" stroke="#9a32cd" stroke-dasharray="5,2" d="M1494.21,-379.774C1485.96,-356.13 1468.35,-316.933 1438,-299 1367.5,-257.343 1151.86,-282.112 1070,-280 815.465,-273.433 751.754,-291.017 498,-312 481.332,-313.378 463.038,-314.9 446.931,-316.244"/>
<polygon fill="#9a32cd" stroke="#9a32cd" points="1490.92,-380.99 1497.35,-389.411 1497.58,-378.818 1490.92,-380.99"/>
<text text-anchor="middle" x="979" y="-283" font-family="Helvetica,sans-Serif" font-size="10.00"> myWorkspace</text>
</g>
<!-- Node15 -->
<g id="node15" class="node"><title>Node15</title>
<g id="a_node15"><a xlink:href="../../d1/dc7/classview_1_1_side_bar.html" target="_top" xlink:title="view.SideBar">
<polygon fill="white" stroke="black" points="1237.5,-456.5 1237.5,-475.5 1314.5,-475.5 1314.5,-456.5 1237.5,-456.5"/>
<text text-anchor="middle" x="1276" y="-463.5" font-family="Helvetica,sans-Serif" font-size="10.00">view.SideBar</text>
</a>
</g>
</g>
<!-- Node10&#45;&gt;Node15 -->
<g id="edge17" class="edge"><title>Node10&#45;&gt;Node15</title>
<path fill="none" stroke="#9a32cd" stroke-dasharray="5,2" d="M1467.52,-412.334C1458.08,-416.004 1447.69,-419.84 1438,-423 1426.14,-426.867 1357.16,-445.047 1313.43,-456.495"/>
<polygon fill="#9a32cd" stroke="#9a32cd" points="1468.94,-415.536 1476.96,-408.606 1466.37,-409.026 1468.94,-415.536"/>
<text text-anchor="middle" x="1400" y="-447" font-family="Helvetica,sans-Serif" font-size="10.00"> myWorkspace</text>
</g>
<!-- Node34 -->
<g id="node34" class="node"><title>Node34</title>
<g id="a_node34"><a xlink:href="../../de/d0a/classview_1_1_drawer.html" target="_top" xlink:title="view.Drawer">
<polygon fill="white" stroke="black" points="1652.5,-38.5 1652.5,-57.5 1725.5,-57.5 1725.5,-38.5 1652.5,-38.5"/>
<text text-anchor="middle" x="1689" y="-45.5" font-family="Helvetica,sans-Serif" font-size="10.00">view.Drawer</text>
</a>
</g>
</g>
<!-- Node10&#45;&gt;Node34 -->
<g id="edge43" class="edge"><title>Node10&#45;&gt;Node34</title>
<path fill="none" stroke="#9a32cd" stroke-dasharray="5,2" d="M1511.96,-380.203C1546.12,-315.74 1657.8,-104.983 1682.94,-57.5419"/>
<polygon fill="#9a32cd" stroke="#9a32cd" points="1508.76,-378.771 1507.17,-389.246 1514.94,-382.049 1508.76,-378.771"/>
<text text-anchor="middle" x="1599" y="-279" font-family="Helvetica,sans-Serif" font-size="10.00"> myWorkspace</text>
</g>
<!-- Node11 -->
<g id="node11" class="node"><title>Node11</title>
<polygon fill="white" stroke="#bfbfbf" points="1242.5,-418.5 1242.5,-437.5 1309.5,-437.5 1309.5,-418.5 1242.5,-418.5"/>
<text text-anchor="middle" x="1276" y="-425.5" font-family="Helvetica,sans-Serif" font-size="10.00">StackPane</text>
</g>
<!-- Node11&#45;&gt;Node10 -->
<g id="edge11" class="edge"><title>Node11&#45;&gt;Node10</title>
<path fill="none" stroke="midnightblue" d="M1319.91,-422.42C1358.96,-417.342 1416.36,-409.877 1455.8,-404.747"/>
<polygon fill="midnightblue" stroke="midnightblue" points="1319.37,-418.96 1309.9,-423.721 1320.27,-425.902 1319.37,-418.96"/>
</g>
<!-- Node12 -->
<g id="node12" class="node"><title>Node12</title>
<g id="a_node12"><a xlink:href="../../d8/df7/classview_1_1_turtle_view.html" target="_top" xlink:title="view.TurtleView">
<polygon fill="white" stroke="black" points="1233,-581.5 1233,-600.5 1319,-600.5 1319,-581.5 1233,-581.5"/>
<text text-anchor="middle" x="1276" y="-588.5" font-family="Helvetica,sans-Serif" font-size="10.00">view.TurtleView</text>
</a>
</g>
</g>
<!-- Node12&#45;&gt;Node10 -->
<g id="edge12" class="edge"><title>Node12&#45;&gt;Node10</title>
<path fill="none" stroke="#9a32cd" stroke-dasharray="5,2" d="M1305.75,-576.804C1339.89,-559.019 1397.31,-526.086 1438,-487 1463.61,-462.402 1485.36,-425.842 1494.87,-408.626"/>
<polygon fill="#9a32cd" stroke="#9a32cd" points="1304.08,-573.731 1296.78,-581.411 1307.27,-579.959 1304.08,-573.731"/>
<text text-anchor="middle" x="1400" y="-547" font-family="Helvetica,sans-Serif" font-size="10.00"> myActiveTurtle</text>
</g>
<!-- Node13 -->
<g id="node13" class="node"><title>Node13</title>
<polygon fill="white" stroke="#bfbfbf" points="945,-608.5 945,-627.5 1013,-627.5 1013,-608.5 945,-608.5"/>
<text text-anchor="middle" x="979" y="-615.5" font-family="Helvetica,sans-Serif" font-size="10.00">ImageView</text>
</g>
<!-- Node13&#45;&gt;Node12 -->
<g id="edge13" class="edge"><title>Node13&#45;&gt;Node12</title>
<path fill="none" stroke="midnightblue" d="M1023.18,-616.198C1065.7,-614.17 1132.45,-610.307 1190,-604 1203.95,-602.471 1219.11,-600.312 1232.72,-598.192"/>
<polygon fill="midnightblue" stroke="midnightblue" points="1023,-612.702 1013.17,-616.663 1023.33,-619.695 1023,-612.702"/>
</g>
<!-- Node14 -->
<g id="node14" class="node"><title>Node14</title>
<polygon fill="white" stroke="#bfbfbf" points="1208,-369 1208,-399 1344,-399 1344,-369 1208,-369"/>
<text text-anchor="start" x="1216" y="-387" font-family="Helvetica,sans-Serif" font-size="10.00">Map&lt; Integer, view.Turtle</text>
<text text-anchor="middle" x="1276" y="-376" font-family="Helvetica,sans-Serif" font-size="10.00">View &gt;</text>
</g>
<!-- Node14&#45;&gt;Node10 -->
<g id="edge14" class="edge"><title>Node14&#45;&gt;Node10</title>
<path fill="none" stroke="#9a32cd" stroke-dasharray="5,2" d="M1354.16,-382.739C1380.78,-383.019 1410.76,-384.132 1438,-387 1443.78,-387.608 1449.82,-388.479 1455.77,-389.478"/>
<polygon fill="#9a32cd" stroke="#9a32cd" points="1354.16,-379.239 1344.13,-382.671 1354.11,-386.239 1354.16,-379.239"/>
<text text-anchor="middle" x="1400" y="-390" font-family="Helvetica,sans-Serif" font-size="10.00"> myTurtles</text>
</g>
<!-- Node15&#45;&gt;Node9 -->
<g id="edge45" class="edge"><title>Node15&#45;&gt;Node9</title>
<path fill="none" stroke="#9a32cd" stroke-dasharray="5,2" d="M1227.7,-457.758C1220.63,-455.112 1213.78,-451.617 1208,-447 1194.95,-436.575 1203.81,-423.401 1190,-414 1163.62,-396.042 651.702,-346.646 620,-343 560.074,-336.107 490.786,-328.933 446.701,-324.468"/>
<polygon fill="#9a32cd" stroke="#9a32cd" points="1226.81,-461.148 1237.4,-460.865 1228.94,-454.482 1226.81,-461.148"/>
<text text-anchor="middle" x="842" y="-373" font-family="Helvetica,sans-Serif" font-size="10.00"> mySidebar</text>
</g>
<!-- Node15&#45;&gt;Node10 -->
<g id="edge15" class="edge"><title>Node15&#45;&gt;Node10</title>
<path fill="none" stroke="#9a32cd" stroke-dasharray="5,2" d="M1325.08,-471.684C1358.14,-473.625 1402.35,-472.241 1438,-457 1462.4,-446.572 1483.14,-422.134 1493.3,-408.543"/>
<polygon fill="#9a32cd" stroke="#9a32cd" points="1324.98,-468.168 1314.76,-470.95 1324.49,-475.151 1324.98,-468.168"/>
<text text-anchor="middle" x="1400" y="-475" font-family="Helvetica,sans-Serif" font-size="10.00"> mySidebar</text>
</g>
<!-- Node28 -->
<g id="node28" class="node"><title>Node28</title>
<g id="a_node28"><a xlink:href="../../da/dc8/classview_1_1_editor.html" target="_top" xlink:title="view.Editor">
<polygon fill="white" stroke="black" points="1467.5,-171.5 1467.5,-190.5 1534.5,-190.5 1534.5,-171.5 1467.5,-171.5"/>
<text text-anchor="middle" x="1501" y="-178.5" font-family="Helvetica,sans-Serif" font-size="10.00">view.Editor</text>
</a>
</g>
</g>
<!-- Node15&#45;&gt;Node28 -->
<g id="edge38" class="edge"><title>Node15&#45;&gt;Node28</title>
<path fill="none" stroke="#9a32cd" stroke-dasharray="5,2" d="M1324.37,-459.905C1331.8,-457.032 1338.74,-452.904 1344,-447 1377.24,-409.678 1339.23,-380.489 1362,-336 1383.77,-293.478 1406.31,-295.742 1438,-260 1459.28,-235.997 1482,-205.687 1493.1,-190.536"/>
<polygon fill="#9a32cd" stroke="#9a32cd" points="1323.29,-456.576 1314.8,-462.913 1325.39,-463.254 1323.29,-456.576"/>
<text text-anchor="middle" x="1400" y="-339" font-family="Helvetica,sans-Serif" font-size="10.00"> mySidebar</text>
</g>
<!-- Node16 -->
<g id="node16" class="node"><title>Node16</title>
<polygon fill="white" stroke="#bfbfbf" points="958.5,-494.5 958.5,-513.5 999.5,-513.5 999.5,-494.5 958.5,-494.5"/>
<text text-anchor="middle" x="979" y="-501.5" font-family="Helvetica,sans-Serif" font-size="10.00">VBox</text>
</g>
<!-- Node16&#45;&gt;Node15 -->
<g id="edge16" class="edge"><title>Node16&#45;&gt;Node15</title>
<path fill="none" stroke="midnightblue" d="M1009.81,-501.356C1050.59,-497.597 1126.01,-490.141 1190,-481 1205.58,-478.775 1222.67,-475.852 1237.43,-473.177"/>
<polygon fill="midnightblue" stroke="midnightblue" points="1009.38,-497.88 999.742,-502.273 1010.02,-504.851 1009.38,-497.88"/>
</g>
<!-- Node17 -->
<g id="node17" class="node"><title>Node17</title>
<polygon fill="white" stroke="#bfbfbf" points="892.5,-456.5 892.5,-475.5 1065.5,-475.5 1065.5,-456.5 892.5,-456.5"/>
<text text-anchor="middle" x="979" y="-463.5" font-family="Helvetica,sans-Serif" font-size="10.00">ObservableList&lt; view.Property &gt;</text>
</g>
<!-- Node17&#45;&gt;Node15 -->
<g id="edge18" class="edge"><title>Node17&#45;&gt;Node15</title>
<path fill="none" stroke="#9a32cd" stroke-dasharray="5,2" d="M1075.86,-466C1130.85,-466 1196.81,-466 1237.31,-466"/>
<polygon fill="#9a32cd" stroke="#9a32cd" points="1075.72,-462.5 1065.72,-466 1075.72,-469.5 1075.72,-462.5"/>
<text text-anchor="middle" x="1139" y="-469" font-family="Helvetica,sans-Serif" font-size="10.00"> variablesList</text>
</g>
<!-- Node18 -->
<g id="node18" class="node"><title>Node18</title>
<polygon fill="white" stroke="#bfbfbf" points="40.5,-402.5 40.5,-421.5 133.5,-421.5 133.5,-402.5 40.5,-402.5"/>
<text text-anchor="middle" x="87" y="-409.5" font-family="Helvetica,sans-Serif" font-size="10.00">ResourceBundle</text>
</g>
<!-- Node18&#45;&gt;Node9 -->
<g id="edge32" class="edge"><title>Node18&#45;&gt;Node9</title>
<path fill="none" stroke="#9a32cd" stroke-dasharray="5,2" d="M143.855,-400.641C197.569,-389.481 274.788,-372.749 304,-363 331.89,-353.693 362.67,-339.085 381.674,-329.525"/>
<polygon fill="#9a32cd" stroke="#9a32cd" points="142.865,-397.272 133.782,-402.726 144.284,-404.127 142.865,-397.272"/>
<text text-anchor="middle" x="248" y="-393" font-family="Helvetica,sans-Serif" font-size="10.00"> myResources</text>
</g>
<!-- Node18&#45;&gt;Node15 -->
<g id="edge19" class="edge"><title>Node18&#45;&gt;Node15</title>
<path fill="none" stroke="#9a32cd" stroke-dasharray="5,2" d="M130.419,-424.361C204.3,-445.176 361.736,-486.381 498,-501 551.913,-506.784 566.046,-506.382 620,-501 740.905,-488.94 767.095,-459.06 888,-447 968.489,-438.972 989.197,-443.263 1070,-447 1128.56,-449.708 1196.22,-456.744 1237.29,-461.451"/>
<polygon fill="#9a32cd" stroke="#9a32cd" points="131.135,-420.926 120.56,-421.564 129.225,-427.66 131.135,-420.926"/>
<text text-anchor="middle" x="717" y="-502" font-family="Helvetica,sans-Serif" font-size="10.00"> myResources</text>
</g>
<!-- Node19 -->
<g id="node19" class="node"><title>Node19</title>
<polygon fill="white" stroke="#bfbfbf" points="905,-338.5 905,-357.5 1053,-357.5 1053,-338.5 905,-338.5"/>
<text text-anchor="middle" x="979" y="-345.5" font-family="Helvetica,sans-Serif" font-size="10.00">TableView&lt; view.Property &gt;</text>
</g>
<!-- Node19&#45;&gt;Node15 -->
<g id="edge20" class="edge"><title>Node19&#45;&gt;Node15</title>
<path fill="none" stroke="#9a32cd" stroke-dasharray="5,2" d="M1063.3,-338.348C1113.43,-334.487 1171.09,-334.126 1190,-350 1223.58,-378.194 1178.47,-414.59 1208,-447 1215.57,-455.311 1226.49,-460.091 1237.31,-462.809"/>
<polygon fill="#9a32cd" stroke="#9a32cd" points="1062.74,-334.882 1053.06,-339.192 1063.31,-341.858 1062.74,-334.882"/>
<text text-anchor="middle" x="1139" y="-364" font-family="Helvetica,sans-Serif" font-size="10.00"> turtlePropertiesTable</text>
<text text-anchor="middle" x="1139" y="-353" font-family="Helvetica,sans-Serif" font-size="10.00">variablesTable</text>
</g>
<!-- Node20 -->
<g id="node20" class="node"><title>Node20</title>
<g id="a_node20"><a xlink:href="../../d4/dd9/classcontroller_1_1_s_logo_controller.html" target="_top" xlink:title="controller.SLogoController">
<polygon fill="white" stroke="black" points="909,-300.5 909,-319.5 1049,-319.5 1049,-300.5 909,-300.5"/>
<text text-anchor="middle" x="979" y="-307.5" font-family="Helvetica,sans-Serif" font-size="10.00">controller.SLogoController</text>
</a>
</g>
</g>
<!-- Node20&#45;&gt;Node9 -->
<g id="edge40" class="edge"><title>Node20&#45;&gt;Node9</title>
<path fill="none" stroke="#9a32cd" stroke-dasharray="5,2" d="M898.72,-311.22C803.547,-312.709 639.103,-315.354 498,-318 481.333,-318.313 463.038,-318.686 446.931,-319.025"/>
<polygon fill="#9a32cd" stroke="#9a32cd" points="898.9,-314.718 908.844,-311.062 898.79,-307.719 898.9,-314.718"/>
<text text-anchor="middle" x="717" y="-319" font-family="Helvetica,sans-Serif" font-size="10.00"> myController</text>
</g>
<!-- Node20&#45;&gt;Node15 -->
<g id="edge21" class="edge"><title>Node20&#45;&gt;Node15</title>
<path fill="none" stroke="#9a32cd" stroke-dasharray="5,2" d="M1059.28,-304.493C1110.6,-302.765 1171.24,-304.785 1190,-322 1231.36,-359.947 1171.04,-404.756 1208,-447 1215.48,-455.554 1226.5,-460.388 1237.46,-463.08"/>
<polygon fill="#9a32cd" stroke="#9a32cd" points="1059.01,-301.001 1049.15,-304.885 1059.28,-307.995 1059.01,-301.001"/>
<text text-anchor="middle" x="1139" y="-325" font-family="Helvetica,sans-Serif" font-size="10.00"> myController</text>
</g>
<!-- Node20&#45;&gt;Node28 -->
<g id="edge36" class="edge"><title>Node20&#45;&gt;Node28</title>
<path fill="none" stroke="#9a32cd" stroke-dasharray="5,2" d="M1049.8,-298.752C1140.57,-283.153 1303.43,-251.838 1438,-208 1452.62,-203.236 1468.52,-196.278 1480.55,-190.618"/>
<polygon fill="#9a32cd" stroke="#9a32cd" points="1049.17,-295.308 1039.9,-300.44 1050.34,-302.209 1049.17,-295.308"/>
<text text-anchor="middle" x="1276" y="-271" font-family="Helvetica,sans-Serif" font-size="10.00"> myController</text>
</g>
<!-- Node21&#45;&gt;Node20 -->
<g id="edge22" class="edge"><title>Node21&#45;&gt;Node20</title>
<path fill="none" stroke="#9a32cd" stroke-dasharray="5,2" d="M744.943,-379.822C763.894,-370.237 790.047,-357.775 814,-349 845.99,-337.281 854.876,-336.966 888,-329 901.663,-325.714 916.568,-322.442 930.246,-319.563"/>
<polygon fill="#9a32cd" stroke="#9a32cd" points="743.305,-376.729 736,-384.403 746.496,-382.959 743.305,-376.729"/>
<text text-anchor="middle" x="842" y="-352" font-family="Helvetica,sans-Serif" font-size="10.00"> myParser</text>
</g>
<!-- Node22 -->
<g id="node22" class="node"><title>Node22</title>
<polygon fill="white" stroke="#bfbfbf" points="345,-83 345,-113 457,-113 457,-83 345,-83"/>
<text text-anchor="start" x="353" y="-101" font-family="Helvetica,sans-Serif" font-size="10.00">List&lt; Entry&lt; String,</text>
<text text-anchor="middle" x="401" y="-90" font-family="Helvetica,sans-Serif" font-size="10.00"> Pattern &gt; &gt;</text>
</g>
<!-- Node22&#45;&gt;Node21 -->
<g id="edge24" class="edge"><title>Node22&#45;&gt;Node21</title>
<path fill="none" stroke="#9a32cd" stroke-dasharray="5,2" d="M424.345,-120.333C465.819,-161.618 557.791,-252.381 638,-326 661.294,-347.38 689.426,-371.503 704.734,-384.492"/>
<polygon fill="#9a32cd" stroke="#9a32cd" points="426.756,-117.795 417.202,-113.216 421.815,-122.754 426.756,-117.795"/>
<text text-anchor="middle" x="559" y="-311" font-family="Helvetica,sans-Serif" font-size="10.00"> myPatterns</text>
</g>
<!-- Node23 -->
<g id="node23" class="node"><title>Node23</title>
<polygon fill="white" stroke="#bfbfbf" points="340,-386.5 340,-405.5 462,-405.5 462,-386.5 340,-386.5"/>
<text text-anchor="middle" x="401" y="-393.5" font-family="Helvetica,sans-Serif" font-size="10.00">Map&lt; String, String &gt;</text>
</g>
<!-- Node23&#45;&gt;Node21 -->
<g id="edge26" class="edge"><title>Node23&#45;&gt;Node21</title>
<path fill="none" stroke="#9a32cd" stroke-dasharray="5,2" d="M472.447,-395.551C535.558,-395.149 625.811,-394.574 676.868,-394.249"/>
<polygon fill="#9a32cd" stroke="#9a32cd" points="472.148,-392.053 462.171,-395.617 472.193,-399.053 472.148,-392.053"/>
<text text-anchor="middle" x="559" y="-399" font-family="Helvetica,sans-Serif" font-size="10.00"> myCommandMap</text>
</g>
<!-- Node24 -->
<g id="node24" class="node"><title>Node24</title>
<polygon fill="white" stroke="#bfbfbf" points="910,-570.5 910,-589.5 1048,-589.5 1048,-570.5 910,-570.5"/>
<text text-anchor="middle" x="979" y="-577.5" font-family="Helvetica,sans-Serif" font-size="10.00">ObservableList&lt; String &gt;</text>
</g>
<!-- Node24&#45;&gt;Node15 -->
<g id="edge28" class="edge"><title>Node24&#45;&gt;Node15</title>
<path fill="none" stroke="#9a32cd" stroke-dasharray="5,2" d="M1058.29,-574.935C1099.18,-569.899 1149.07,-559.886 1190,-540 1222.91,-524.011 1253.09,-491.895 1266.98,-475.745"/>
<polygon fill="#9a32cd" stroke="#9a32cd" points="1057.64,-571.487 1048.1,-576.111 1058.44,-578.441 1057.64,-571.487"/>
<text text-anchor="middle" x="1139" y="-585" font-family="Helvetica,sans-Serif" font-size="10.00"> commandItems</text>
<text text-anchor="middle" x="1139" y="-574" font-family="Helvetica,sans-Serif" font-size="10.00">historyItems</text>
</g>
<!-- Node25 -->
<g id="node25" class="node"><title>Node25</title>
<polygon fill="white" stroke="#bfbfbf" points="926,-532.5 926,-551.5 1032,-551.5 1032,-532.5 926,-532.5"/>
<text text-anchor="middle" x="979" y="-539.5" font-family="Helvetica,sans-Serif" font-size="10.00">ListView&lt; String &gt;</text>
</g>
<!-- Node25&#45;&gt;Node15 -->
<g id="edge29" class="edge"><title>Node25&#45;&gt;Node15</title>
<path fill="none" stroke="#9a32cd" stroke-dasharray="5,2" d="M1042.23,-533.697C1084.46,-527.202 1141.28,-516.775 1190,-502 1213.16,-494.978 1238.57,-483.715 1255.52,-475.657"/>
<polygon fill="#9a32cd" stroke="#9a32cd" points="1041.46,-530.274 1032.09,-535.224 1042.5,-537.196 1041.46,-530.274"/>
<text text-anchor="middle" x="1139" y="-528" font-family="Helvetica,sans-Serif" font-size="10.00"> historyList</text>
</g>
<!-- Node26 -->
<g id="node26" class="node"><title>Node26</title>
<polygon fill="white" stroke="#bfbfbf" points="1244.5,-330.5 1244.5,-349.5 1307.5,-349.5 1307.5,-330.5 1244.5,-330.5"/>
<text text-anchor="middle" x="1276" y="-337.5" font-family="Helvetica,sans-Serif" font-size="10.00">Rectangle</text>
</g>
<!-- Node26&#45;&gt;Node10 -->
<g id="edge30" class="edge"><title>Node26&#45;&gt;Node10</title>
<path fill="none" stroke="#9a32cd" stroke-dasharray="5,2" d="M1317.8,-343.774C1350.84,-347.613 1398.24,-354.916 1438,-368 1454.35,-373.379 1471.78,-382.422 1483.98,-389.357"/>
<polygon fill="#9a32cd" stroke="#9a32cd" points="1317.94,-340.267 1307.61,-342.646 1317.17,-347.225 1317.94,-340.267"/>
<text text-anchor="middle" x="1400" y="-371" font-family="Helvetica,sans-Serif" font-size="10.00"> myBackground</text>
</g>
<!-- Node27 -->
<g id="node27" class="node"><title>Node27</title>
<polygon fill="white" stroke="#bfbfbf" points="64.5,-348.5 64.5,-367.5 109.5,-367.5 109.5,-348.5 64.5,-348.5"/>
<text text-anchor="middle" x="87" y="-355.5" font-family="Helvetica,sans-Serif" font-size="10.00">Stage</text>
</g>
<!-- Node27&#45;&gt;Node9 -->
<g id="edge31" class="edge"><title>Node27&#45;&gt;Node9</title>
<path fill="none" stroke="#9a32cd" stroke-dasharray="5,2" d="M120.008,-354.789C162.212,-350.475 238.762,-342.379 304,-334 320.706,-331.854 339.009,-329.249 355.112,-326.87"/>
<polygon fill="#9a32cd" stroke="#9a32cd" points="119.392,-351.333 109.797,-355.827 120.1,-358.297 119.392,-351.333"/>
<text text-anchor="middle" x="248" y="-351" font-family="Helvetica,sans-Serif" font-size="10.00"> myStage</text>
</g>
<!-- Node28&#45;&gt;Node9 -->
<g id="edge33" class="edge"><title>Node28&#45;&gt;Node9</title>
<path fill="none" stroke="#9a32cd" stroke-dasharray="5,2" d="M1468.47,-167.617C1425.85,-150.769 1347.1,-124 1277,-124 716,-124 716,-124 716,-124 573.659,-124 442.565,-270.732 409.816,-310.28"/>
<polygon fill="#9a32cd" stroke="#9a32cd" points="1467.42,-170.967 1478,-171.459 1470.04,-164.475 1467.42,-170.967"/>
<text text-anchor="middle" x="979" y="-127" font-family="Helvetica,sans-Serif" font-size="10.00"> myEditor</text>
</g>
<!-- Node29 -->
<g id="node29" class="node"><title>Node29</title>
<polygon fill="white" stroke="#bfbfbf" points="1255,-152.5 1255,-171.5 1297,-171.5 1297,-152.5 1255,-152.5"/>
<text text-anchor="middle" x="1276" y="-159.5" font-family="Helvetica,sans-Serif" font-size="10.00">HBox</text>
</g>
<!-- Node29&#45;&gt;Node28 -->
<g id="edge34" class="edge"><title>Node29&#45;&gt;Node28</title>
<path fill="none" stroke="midnightblue" d="M1307.3,-164.581C1349.09,-168.142 1424.12,-174.535 1467.19,-178.205"/>
<polygon fill="midnightblue" stroke="midnightblue" points="1307.44,-161.081 1297.18,-163.72 1306.85,-168.056 1307.44,-161.081"/>
</g>
<!-- Node30 -->
<g id="node30" class="node"><title>Node30</title>
<polygon fill="white" stroke="#bfbfbf" points="1251.5,-76.5 1251.5,-95.5 1300.5,-95.5 1300.5,-76.5 1251.5,-76.5"/>
<text text-anchor="middle" x="1276" y="-83.5" font-family="Helvetica,sans-Serif" font-size="10.00">Button</text>
</g>
<!-- Node30&#45;&gt;Node28 -->
<g id="edge35" class="edge"><title>Node30&#45;&gt;Node28</title>
<path fill="none" stroke="#9a32cd" stroke-dasharray="5,2" d="M1310.51,-81.0866C1344.74,-77.7369 1398.35,-77.2339 1438,-99 1468.04,-115.488 1487.89,-153.369 1495.94,-171.279"/>
<polygon fill="#9a32cd" stroke="#9a32cd" points="1310.1,-77.6109 1300.54,-82.1961 1310.87,-84.5679 1310.1,-77.6109"/>
<text text-anchor="middle" x="1400" y="-102" font-family="Helvetica,sans-Serif" font-size="10.00"> runButton</text>
</g>
<!-- Node31 -->
<g id="node31" class="node"><title>Node31</title>
<polygon fill="white" stroke="#bfbfbf" points="1247,-190.5 1247,-209.5 1305,-209.5 1305,-190.5 1247,-190.5"/>
<text text-anchor="middle" x="1276" y="-197.5" font-family="Helvetica,sans-Serif" font-size="10.00">TextArea</text>
</g>
<!-- Node31&#45;&gt;Node28 -->
<g id="edge37" class="edge"><title>Node31&#45;&gt;Node28</title>
<path fill="none" stroke="#9a32cd" stroke-dasharray="5,2" d="M1315.29,-196.738C1358.14,-193.087 1426.85,-187.233 1467.29,-183.787"/>
<polygon fill="#9a32cd" stroke="#9a32cd" points="1314.91,-193.257 1305.24,-197.594 1315.5,-200.232 1314.91,-193.257"/>
<text text-anchor="middle" x="1400" y="-196" font-family="Helvetica,sans-Serif" font-size="10.00"> textEditor</text>
</g>
<!-- Node32 -->
<g id="node32" class="node"><title>Node32</title>
<polygon fill="white" stroke="#bfbfbf" points="27.5,-310.5 27.5,-329.5 146.5,-329.5 146.5,-310.5 27.5,-310.5"/>
<text text-anchor="middle" x="87" y="-317.5" font-family="Helvetica,sans-Serif" font-size="10.00">Map&lt; String, Node &gt;</text>
</g>
<!-- Node32&#45;&gt;Node9 -->
<g id="edge39" class="edge"><title>Node32&#45;&gt;Node9</title>
<path fill="none" stroke="#9a32cd" stroke-dasharray="5,2" d="M156.899,-320C217.301,-320 303.343,-320 355.212,-320"/>
<polygon fill="#9a32cd" stroke="#9a32cd" points="156.685,-316.5 146.685,-320 156.685,-323.5 156.685,-316.5"/>
<text text-anchor="middle" x="248" y="-323" font-family="Helvetica,sans-Serif" font-size="10.00"> variables</text>
</g>
<!-- Node33 -->
<g id="node33" class="node"><title>Node33</title>
<polygon fill="white" stroke="#bfbfbf" points="46.5,-272.5 46.5,-291.5 127.5,-291.5 127.5,-272.5 46.5,-272.5"/>
<text text-anchor="middle" x="87" y="-279.5" font-family="Helvetica,sans-Serif" font-size="10.00">Dimension2D</text>
</g>
<!-- Node33&#45;&gt;Node9 -->
<g id="edge41" class="edge"><title>Node33&#45;&gt;Node9</title>
<path fill="none" stroke="#9a32cd" stroke-dasharray="5,2" d="M137.99,-286.624C181.822,-290.844 247.23,-297.547 304,-305 320.725,-307.196 339.032,-309.965 355.134,-312.524"/>
<polygon fill="#9a32cd" stroke="#9a32cd" points="138.167,-283.125 127.88,-285.657 137.501,-290.093 138.167,-283.125"/>
<text text-anchor="middle" x="248" y="-308" font-family="Helvetica,sans-Serif" font-size="10.00"> myDimensions</text>
</g>
<!-- Node34&#45;&gt;Node9 -->
<g id="edge42" class="edge"><title>Node34&#45;&gt;Node9</title>
<path fill="none" stroke="#9a32cd" stroke-dasharray="5,2" d="M1642.2,-48C1604.55,-48 1549.82,-48 1502,-48 716,-48 716,-48 716,-48 552.281,-48 432.019,-261.865 406.873,-310.319"/>
<polygon fill="#9a32cd" stroke="#9a32cd" points="1642.34,-51.5001 1652.34,-48 1642.34,-44.5001 1642.34,-51.5001"/>
<text text-anchor="middle" x="1139" y="-51" font-family="Helvetica,sans-Serif" font-size="10.00"> drawer</text>
</g>
<!-- Node35 -->
<g id="node35" class="node"><title>Node35</title>
<polygon fill="white" stroke="#bfbfbf" points="1480.5,-0.5 1480.5,-19.5 1521.5,-19.5 1521.5,-0.5 1480.5,-0.5"/>
<text text-anchor="middle" x="1501" y="-7.5" font-family="Helvetica,sans-Serif" font-size="10.00">Color</text>
</g>
<!-- Node35&#45;&gt;Node34 -->
<g id="edge44" class="edge"><title>Node35&#45;&gt;Node34</title>
<path fill="none" stroke="#9a32cd" stroke-dasharray="5,2" d="M1531.61,-10.1018C1558.71,-10.8525 1599.67,-13.6523 1634,-23 1646.96,-26.5288 1660.68,-32.9205 1671.05,-38.3575"/>
<polygon fill="#9a32cd" stroke="#9a32cd" points="1531.67,-6.60244 1521.6,-9.90068 1531.53,-13.601 1531.67,-6.60244"/>
<text text-anchor="middle" x="1599" y="-26" font-family="Helvetica,sans-Serif" font-size="10.00"> myColor</text>
</g>
<!-- Node36 -->
<g id="node36" class="node"><title>Node36</title>
<polygon fill="white" stroke="#bfbfbf" points="64,-234.5 64,-253.5 110,-253.5 110,-234.5 64,-234.5"/>
<text text-anchor="middle" x="87" y="-241.5" font-family="Helvetica,sans-Serif" font-size="10.00">Group</text>
</g>
<!-- Node36&#45;&gt;Node9 -->
<g id="edge46" class="edge"><title>Node36&#45;&gt;Node9</title>
<path fill="none" stroke="#9a32cd" stroke-dasharray="5,2" d="M120.261,-246.482C162.981,-250.353 240.344,-259.401 304,-278 332.114,-286.214 362.836,-300.708 381.766,-310.335"/>
<polygon fill="#9a32cd" stroke="#9a32cd" points="120.441,-242.985 110.175,-245.607 119.835,-249.958 120.441,-242.985"/>
<text text-anchor="middle" x="248" y="-281" font-family="Helvetica,sans-Serif" font-size="10.00"> lines</text>
</g>
</g>
</svg>
