<?xml version="1.0" encoding="UTF-8" standalone="no"?>
<!DOCTYPE svg PUBLIC "-//W3C//DTD SVG 1.1//EN"
 "http://www.w3.org/Graphics/SVG/1.1/DTD/svg11.dtd">
<!-- Generated by graphviz version 2.36.0 (20140111.2315)
 -->
<!-- Title: model.instructions.MathInstruction Pages: 1 -->
<svg width="1522pt" height="671pt"
 viewBox="0.00 0.00 1522.00 671.00" xmlns="http://www.w3.org/2000/svg" xmlns:xlink="http://www.w3.org/1999/xlink">
<g id="graph0" class="graph" transform="scale(1 1) rotate(0) translate(4 667)">
<title>model.instructions.MathInstruction</title>
<polygon fill="white" stroke="none" points="-4,4 -4,-667 1518,-667 1518,4 -4,4"/>
<!-- Node1 -->
<g id="node1" class="node"><title>Node1</title>
<polygon fill="#bfbfbf" stroke="black" points="950,-32.5 950,-51.5 1132,-51.5 1132,-32.5 950,-32.5"/>
<text text-anchor="middle" x="1041" y="-39.5" font-family="Helvetica,sans-Serif" font-size="10.00">model.instructions.MathInstruction</text>
</g>
<!-- Node2 -->
<g id="node2" class="node"><title>Node2</title>
<g id="a_node2"><a xlink:href="../../d1/dea/classmodel_1_1instructions_1_1_instruction.html" target="_top" xlink:title="model.instructions.Instruction">
<polygon fill="white" stroke="black" points="646,-32.5 646,-51.5 804,-51.5 804,-32.5 646,-32.5"/>
<text text-anchor="middle" x="725" y="-39.5" font-family="Helvetica,sans-Serif" font-size="10.00">model.instructions.Instruction</text>
</a>
</g>
</g>
<!-- Node2&#45;&gt;Node1 -->
<g id="edge1" class="edge"><title>Node2&#45;&gt;Node1</title>
<path fill="none" stroke="midnightblue" d="M814.047,-42C856.44,-42 907.202,-42 949.865,-42"/>
<polygon fill="midnightblue" stroke="midnightblue" points="814.021,-38.5001 804.021,-42 814.021,-45.5001 814.021,-38.5001"/>
</g>
<!-- Node3 -->
<g id="node3" class="node"><title>Node3</title>
<polygon fill="white" stroke="#bfbfbf" points="57,-162.5 57,-181.5 117,-181.5 117,-162.5 57,-162.5"/>
<text text-anchor="middle" x="87" y="-169.5" font-family="Helvetica,sans-Serif" font-size="10.00">Observer</text>
</g>
<!-- Node3&#45;&gt;Node2 -->
<g id="edge2" class="edge"><title>Node3&#45;&gt;Node2</title>
<path fill="none" stroke="midnightblue" d="M127.164,-164.776C146.648,-161.2 170.559,-156.837 192,-153 382.101,-118.98 440.709,-149.765 620,-78 628.926,-74.4271 629.261,-70.0088 638,-66 650.962,-60.0541 665.715,-55.2822 679.297,-51.6084"/>
<polygon fill="midnightblue" stroke="midnightblue" points="126.331,-161.37 117.128,-166.62 127.596,-168.255 126.331,-161.37"/>
</g>
<!-- Node9 -->
<g id="node9" class="node"><title>Node9</title>
<g id="a_node9"><a xlink:href="../../d6/de7/classview_1_1_s_logo_view.html" target="_top" xlink:title="view.SLogoView">
<polygon fill="white" stroke="black" points="355.5,-357.5 355.5,-376.5 446.5,-376.5 446.5,-357.5 355.5,-357.5"/>
<text text-anchor="middle" x="401" y="-364.5" font-family="Helvetica,sans-Serif" font-size="10.00">view.SLogoView</text>
</a>
</g>
</g>
<!-- Node3&#45;&gt;Node9 -->
<g id="edge9" class="edge"><title>Node3&#45;&gt;Node9</title>
<path fill="none" stroke="midnightblue" d="M112.094,-187.059C173.35,-225.344 333.775,-325.609 384.434,-357.272"/>
<polygon fill="midnightblue" stroke="midnightblue" points="113.807,-184.002 103.472,-181.67 110.097,-189.938 113.807,-184.002"/>
</g>
<!-- Node20 -->
<g id="node20" class="node"><title>Node20</title>
<g id="a_node20"><a xlink:href="../../dc/df5/classmodel_1_1_parser.html" target="_top" xlink:title="model.Parser">
<polygon fill="white" stroke="black" points="685,-229.5 685,-248.5 765,-248.5 765,-229.5 685,-229.5"/>
<text text-anchor="middle" x="725" y="-236.5" font-family="Helvetica,sans-Serif" font-size="10.00">model.Parser</text>
</a>
</g>
</g>
<!-- Node3&#45;&gt;Node20 -->
<g id="edge22" class="edge"><title>Node3&#45;&gt;Node20</title>
<path fill="none" stroke="midnightblue" d="M127.097,-167.23C216.225,-157.602 440.619,-140.424 620,-186 654.764,-194.833 691.173,-216.788 710.333,-229.497"/>
<polygon fill="midnightblue" stroke="midnightblue" points="126.71,-163.752 117.158,-168.334 127.483,-170.709 126.71,-163.752"/>
</g>
<!-- Node4 -->
<g id="node4" class="node"><title>Node4</title>
<g id="a_node4"><a xlink:href="../../d1/dca/classmodel_1_1_execution_environment.html" target="_top" xlink:title="model.ExecutionEnvironment">
<polygon fill="white" stroke="black" points="322.5,-63.5 322.5,-82.5 479.5,-82.5 479.5,-63.5 322.5,-63.5"/>
<text text-anchor="middle" x="401" y="-70.5" font-family="Helvetica,sans-Serif" font-size="10.00">model.ExecutionEnvironment</text>
</a>
</g>
</g>
<!-- Node4&#45;&gt;Node2 -->
<g id="edge3" class="edge"><title>Node4&#45;&gt;Node2</title>
<path fill="none" stroke="#9a32cd" stroke-dasharray="5,2" d="M489.726,-63.8216C492.516,-63.5426 495.28,-63.2681 498,-63 547.117,-58.16 602.271,-53.0292 645.797,-49.0507"/>
<polygon fill="#9a32cd" stroke="#9a32cd" points="489.136,-60.3632 479.538,-64.8483 489.838,-67.328 489.136,-60.3632"/>
<text text-anchor="middle" x="559" y="-66" font-family="Helvetica,sans-Serif" font-size="10.00"> myEnvironment</text>
</g>
<!-- Node15 -->
<g id="node15" class="node"><title>Node15</title>
<g id="a_node15"><a xlink:href="../../d1/dc7/classview_1_1_side_bar.html" target="_top" xlink:title="view.SideBar">
<polygon fill="white" stroke="black" points="1002.5,-358.5 1002.5,-377.5 1079.5,-377.5 1079.5,-358.5 1002.5,-358.5"/>
<text text-anchor="middle" x="1041" y="-365.5" font-family="Helvetica,sans-Serif" font-size="10.00">view.SideBar</text>
</a>
</g>
</g>
<!-- Node4&#45;&gt;Node15 -->
<g id="edge19" class="edge"><title>Node4&#45;&gt;Node15</title>
<path fill="none" stroke="#9a32cd" stroke-dasharray="5,2" d="M489.672,-80.4259C529.765,-84.9009 577.661,-91.7721 620,-102 763.066,-136.56 838.503,-99.3314 932,-213 966.538,-254.99 915.871,-291.677 950,-334 962.792,-349.862 983.831,-358.328 1002.35,-362.844"/>
<polygon fill="#9a32cd" stroke="#9a32cd" points="489.975,-76.9382 479.656,-79.3392 489.22,-83.8974 489.975,-76.9382"/>
<text text-anchor="middle" x="725" y="-135" font-family="Helvetica,sans-Serif" font-size="10.00"> myEnvironment</text>
</g>
<!-- Node4&#45;&gt;Node20 -->
<g id="edge24" class="edge"><title>Node4&#45;&gt;Node20</title>
<path fill="none" stroke="#9a32cd" stroke-dasharray="5,2" d="M442.199,-85.6956C500.753,-104.332 604.273,-137.875 620,-147 660.242,-170.349 698.918,-210.783 715.516,-229.269"/>
<polygon fill="#9a32cd" stroke="#9a32cd" points="443.104,-82.3109 432.514,-82.6185 440.985,-88.9823 443.104,-82.3109"/>
<text text-anchor="middle" x="559" y="-150" font-family="Helvetica,sans-Serif" font-size="10.00"> myExecutionParameters</text>
</g>
<!-- Node5 -->
<g id="node5" class="node"><title>Node5</title>
<polygon fill="white" stroke="#bfbfbf" points="51.5,-0.5 51.5,-19.5 122.5,-19.5 122.5,-0.5 51.5,-0.5"/>
<text text-anchor="middle" x="87" y="-7.5" font-family="Helvetica,sans-Serif" font-size="10.00">Observable</text>
</g>
<!-- Node5&#45;&gt;Node4 -->
<g id="edge4" class="edge"><title>Node5&#45;&gt;Node4</title>
<path fill="none" stroke="midnightblue" d="M132.829,-18.8037C176.532,-27.4147 244.861,-40.9534 304,-53 320.515,-56.3641 338.614,-60.1173 354.601,-63.4556"/>
<polygon fill="midnightblue" stroke="midnightblue" points="133.299,-15.329 122.811,-16.8311 131.946,-22.1971 133.299,-15.329"/>
</g>
<!-- Node6 -->
<g id="node6" class="node"><title>Node6</title>
<polygon fill="white" stroke="#bfbfbf" points="0,-77 0,-107 174,-107 174,-77 0,-77"/>
<text text-anchor="start" x="8" y="-95" font-family="Helvetica,sans-Serif" font-size="10.00">Map&lt; String, model.instructions.</text>
<text text-anchor="middle" x="87" y="-84" font-family="Helvetica,sans-Serif" font-size="10.00">Instruction &gt;</text>
</g>
<!-- Node6&#45;&gt;Node4 -->
<g id="edge5" class="edge"><title>Node6&#45;&gt;Node4</title>
<path fill="none" stroke="#9a32cd" stroke-dasharray="5,2" d="M184.305,-86.1352C228.685,-83.4326 280.655,-80.2678 322.461,-77.7219"/>
<polygon fill="#9a32cd" stroke="#9a32cd" points="183.85,-82.6564 174.081,-86.7579 184.276,-89.6435 183.85,-82.6564"/>
<text text-anchor="middle" x="248" y="-89" font-family="Helvetica,sans-Serif" font-size="10.00"> myUserInstructionMap</text>
</g>
<!-- Node7 -->
<g id="node7" class="node"><title>Node7</title>
<polygon fill="white" stroke="#bfbfbf" points="23,-38.5 23,-57.5 151,-57.5 151,-38.5 23,-38.5"/>
<text text-anchor="middle" x="87" y="-45.5" font-family="Helvetica,sans-Serif" font-size="10.00">Map&lt; String, Double &gt;</text>
</g>
<!-- Node7&#45;&gt;Node4 -->
<g id="edge6" class="edge"><title>Node7&#45;&gt;Node4</title>
<path fill="none" stroke="#9a32cd" stroke-dasharray="5,2" d="M161.424,-53.6945C203.219,-56.9571 256.547,-61.1555 304,-65 310.001,-65.4862 316.213,-65.9939 322.457,-66.5073"/>
<polygon fill="#9a32cd" stroke="#9a32cd" points="161.573,-50.1956 151.331,-52.9073 161.029,-57.1744 161.573,-50.1956"/>
<text text-anchor="middle" x="248" y="-68" font-family="Helvetica,sans-Serif" font-size="10.00"> myVariableMap</text>
</g>
<!-- Node8 -->
<g id="node8" class="node"><title>Node8</title>
<polygon fill="white" stroke="#bfbfbf" points="333,-13 333,-43 469,-43 469,-13 333,-13"/>
<text text-anchor="start" x="341" y="-31" font-family="Helvetica,sans-Serif" font-size="10.00">List&lt; model.instructions.</text>
<text text-anchor="middle" x="401" y="-20" font-family="Helvetica,sans-Serif" font-size="10.00">Instruction &gt;</text>
</g>
<!-- Node8&#45;&gt;Node2 -->
<g id="edge7" class="edge"><title>Node8&#45;&gt;Node2</title>
<path fill="none" stroke="#9a32cd" stroke-dasharray="5,2" d="M479.43,-26.1043C521.123,-25.6509 573.419,-25.9927 620,-29 632.166,-29.7854 645.088,-31.0502 657.536,-32.4896"/>
<polygon fill="#9a32cd" stroke="#9a32cd" points="479.298,-22.6056 469.343,-26.2317 479.386,-29.6051 479.298,-22.6056"/>
<text text-anchor="middle" x="559" y="-32" font-family="Helvetica,sans-Serif" font-size="10.00"> myDependencies</text>
</g>
<!-- Node9&#45;&gt;Node2 -->
<g id="edge8" class="edge"><title>Node9&#45;&gt;Node2</title>
<path fill="none" stroke="#9a32cd" stroke-dasharray="5,2" d="M427.749,-351.952C445.142,-340.451 467.188,-323.021 480,-302 499.193,-270.51 475.113,-249.917 498,-221 535.379,-173.772 583.413,-209.844 620,-162 646.37,-127.517 608.665,-97.9985 638,-66 643.761,-59.7156 651.017,-55.0238 658.858,-51.5303"/>
<polygon fill="#9a32cd" stroke="#9a32cd" points="425.716,-349.097 419.151,-357.414 429.469,-355.006 425.716,-349.097"/>
<text text-anchor="middle" x="559" y="-224" font-family="Helvetica,sans-Serif" font-size="10.00"> myView</text>
</g>
<!-- Node9&#45;&gt;Node20 -->
<g id="edge26" class="edge"><title>Node9&#45;&gt;Node20</title>
<path fill="none" stroke="#9a32cd" stroke-dasharray="5,2" d="M446.28,-354.793C462.492,-350.502 481.021,-345.807 498,-342 551.841,-329.929 578.629,-355.51 620,-319 639.601,-301.701 619.159,-281.123 638,-263 650.512,-250.965 668.537,-244.866 684.856,-241.814"/>
<polygon fill="#9a32cd" stroke="#9a32cd" points="445.278,-351.437 436.52,-357.4 447.085,-358.2 445.278,-351.437"/>
<text text-anchor="middle" x="559" y="-345" font-family="Helvetica,sans-Serif" font-size="10.00"> mySLogoView</text>
</g>
<!-- Node10 -->
<g id="node10" class="node"><title>Node10</title>
<g id="a_node10"><a xlink:href="../../da/d64/classview_1_1_workspace.html" target="_top" xlink:title="view.Workspace">
<polygon fill="white" stroke="black" points="1244,-516.5 1244,-535.5 1334,-535.5 1334,-516.5 1244,-516.5"/>
<text text-anchor="middle" x="1289" y="-523.5" font-family="Helvetica,sans-Serif" font-size="10.00">view.Workspace</text>
</a>
</g>
</g>
<!-- Node10&#45;&gt;Node9 -->
<g id="edge10" class="edge"><title>Node10&#45;&gt;Node9</title>
<path fill="none" stroke="#9a32cd" stroke-dasharray="5,2" d="M1274.52,-543.819C1263.1,-557.662 1245.5,-576.259 1226,-587 1188.42,-607.705 1174.62,-604.079 1132,-609 913.893,-634.183 840.843,-693.02 638,-609 627.547,-604.67 629.899,-596.479 620,-591 571.326,-564.061 541.589,-597.567 498,-563 434.171,-512.382 409.842,-408.54 403.687,-376.577"/>
<polygon fill="#9a32cd" stroke="#9a32cd" points="1277.31,-545.931 1280.8,-535.926 1271.83,-541.574 1277.31,-545.931"/>
<text text-anchor="middle" x="881" y="-655" font-family="Helvetica,sans-Serif" font-size="10.00"> myWorkspace</text>
</g>
<!-- Node32 -->
<g id="node32" class="node"><title>Node32</title>
<g id="a_node32"><a xlink:href="../../de/d0a/classview_1_1_drawer.html" target="_top" xlink:title="view.Drawer">
<polygon fill="white" stroke="black" points="1440.5,-415.5 1440.5,-434.5 1513.5,-434.5 1513.5,-415.5 1440.5,-415.5"/>
<text text-anchor="middle" x="1477" y="-422.5" font-family="Helvetica,sans-Serif" font-size="10.00">view.Drawer</text>
</a>
</g>
</g>
<!-- Node10&#45;&gt;Node32 -->
<g id="edge41" class="edge"><title>Node10&#45;&gt;Node32</title>
<path fill="none" stroke="#9a32cd" stroke-dasharray="5,2" d="M1316.58,-511.567C1355.17,-490.613 1425.66,-452.333 1458.41,-434.55"/>
<polygon fill="#9a32cd" stroke="#9a32cd" points="1314.62,-508.65 1307.5,-516.498 1317.96,-514.802 1314.62,-508.65"/>
<text text-anchor="middle" x="1387" y="-493" font-family="Helvetica,sans-Serif" font-size="10.00"> myWorkspace</text>
</g>
<!-- Node11 -->
<g id="node11" class="node"><title>Node11</title>
<polygon fill="white" stroke="#bfbfbf" points="1007.5,-542.5 1007.5,-561.5 1074.5,-561.5 1074.5,-542.5 1007.5,-542.5"/>
<text text-anchor="middle" x="1041" y="-549.5" font-family="Helvetica,sans-Serif" font-size="10.00">StackPane</text>
</g>
<!-- Node11&#45;&gt;Node10 -->
<g id="edge11" class="edge"><title>Node11&#45;&gt;Node10</title>
<path fill="none" stroke="midnightblue" d="M1084.68,-549.178C1122.03,-546.496 1177.72,-541.985 1226,-536 1231.73,-535.289 1237.75,-534.444 1243.69,-533.551"/>
<polygon fill="midnightblue" stroke="midnightblue" points="1084.38,-545.69 1074.65,-549.886 1084.87,-552.673 1084.38,-545.69"/>
</g>
<!-- Node12 -->
<g id="node12" class="node"><title>Node12</title>
<g id="a_node12"><a xlink:href="../../d8/df7/classview_1_1_turtle_view.html" target="_top" xlink:title="view.TurtleView">
<polygon fill="white" stroke="black" points="998,-580.5 998,-599.5 1084,-599.5 1084,-580.5 998,-580.5"/>
<text text-anchor="middle" x="1041" y="-587.5" font-family="Helvetica,sans-Serif" font-size="10.00">view.TurtleView</text>
</a>
</g>
</g>
<!-- Node12&#45;&gt;Node10 -->
<g id="edge12" class="edge"><title>Node12&#45;&gt;Node10</title>
<path fill="none" stroke="#9a32cd" stroke-dasharray="5,2" d="M1094.41,-582.501C1131.64,-576.443 1182.53,-566.666 1226,-553 1240.78,-548.353 1256.81,-541.319 1268.86,-535.596"/>
<polygon fill="#9a32cd" stroke="#9a32cd" points="1093.62,-579.084 1084.29,-584.112 1094.72,-585.997 1093.62,-579.084"/>
<text text-anchor="middle" x="1188" y="-575" font-family="Helvetica,sans-Serif" font-size="10.00"> myActiveTurtle</text>
</g>
<!-- Node13 -->
<g id="node13" class="node"><title>Node13</title>
<polygon fill="white" stroke="#bfbfbf" points="691,-580.5 691,-599.5 759,-599.5 759,-580.5 691,-580.5"/>
<text text-anchor="middle" x="725" y="-587.5" font-family="Helvetica,sans-Serif" font-size="10.00">ImageView</text>
</g>
<!-- Node13&#45;&gt;Node12 -->
<g id="edge13" class="edge"><title>Node13&#45;&gt;Node12</title>
<path fill="none" stroke="midnightblue" d="M769.326,-590C829.605,-590 938.074,-590 997.765,-590"/>
<polygon fill="midnightblue" stroke="midnightblue" points="769.01,-586.5 759.01,-590 769.01,-593.5 769.01,-586.5"/>
</g>
<!-- Node14 -->
<g id="node14" class="node"><title>Node14</title>
<polygon fill="white" stroke="#bfbfbf" points="973,-493 973,-523 1109,-523 1109,-493 973,-493"/>
<text text-anchor="start" x="981" y="-511" font-family="Helvetica,sans-Serif" font-size="10.00">Map&lt; Integer, view.Turtle</text>
<text text-anchor="middle" x="1041" y="-500" font-family="Helvetica,sans-Serif" font-size="10.00">View &gt;</text>
</g>
<!-- Node14&#45;&gt;Node10 -->
<g id="edge14" class="edge"><title>Node14&#45;&gt;Node10</title>
<path fill="none" stroke="#9a32cd" stroke-dasharray="5,2" d="M1119.45,-513.667C1160.42,-516.665 1209.23,-520.236 1243.75,-522.762"/>
<polygon fill="#9a32cd" stroke="#9a32cd" points="1119.45,-510.158 1109.22,-512.919 1118.94,-517.139 1119.45,-510.158"/>
<text text-anchor="middle" x="1188" y="-524" font-family="Helvetica,sans-Serif" font-size="10.00"> myTurtles</text>
</g>
<!-- Node15&#45;&gt;Node9 -->
<g id="edge43" class="edge"><title>Node15&#45;&gt;Node9</title>
<path fill="none" stroke="#9a32cd" stroke-dasharray="5,2" d="M1004.52,-381.017C983.684,-388.11 956.673,-396.365 932,-401 803.52,-425.137 768.197,-421.764 638,-410 568.317,-403.704 488.456,-387.153 441.786,-376.518"/>
<polygon fill="#9a32cd" stroke="#9a32cd" points="1005.92,-384.237 1014.22,-377.649 1003.62,-377.624 1005.92,-384.237"/>
<text text-anchor="middle" x="725" y="-423" font-family="Helvetica,sans-Serif" font-size="10.00"> mySidebar</text>
</g>
<!-- Node15&#45;&gt;Node10 -->
<g id="edge15" class="edge"><title>Node15&#45;&gt;Node10</title>
<path fill="none" stroke="#9a32cd" stroke-dasharray="5,2" d="M1081.15,-381.094C1097.25,-387.023 1115.87,-394.591 1132,-403 1176.59,-426.254 1186.89,-434.387 1226,-466 1246.04,-482.195 1267.14,-503.713 1278.83,-516.09"/>
<polygon fill="#9a32cd" stroke="#9a32cd" points="1082.08,-377.712 1071.49,-377.622 1079.72,-384.299 1082.08,-377.712"/>
<text text-anchor="middle" x="1188" y="-469" font-family="Helvetica,sans-Serif" font-size="10.00"> mySidebar</text>
</g>
<!-- Node26 -->
<g id="node26" class="node"><title>Node26</title>
<g id="a_node26"><a xlink:href="../../da/dc8/classview_1_1_editor.html" target="_top" xlink:title="view.Editor">
<polygon fill="white" stroke="black" points="1255.5,-248.5 1255.5,-267.5 1322.5,-267.5 1322.5,-248.5 1255.5,-248.5"/>
<text text-anchor="middle" x="1289" y="-255.5" font-family="Helvetica,sans-Serif" font-size="10.00">view.Editor</text>
</a>
</g>
</g>
<!-- Node15&#45;&gt;Node26 -->
<g id="edge36" class="edge"><title>Node15&#45;&gt;Node26</title>
<path fill="none" stroke="#9a32cd" stroke-dasharray="5,2" d="M1089.46,-360.16C1128.03,-352.393 1182.93,-338.096 1226,-314 1248.03,-301.679 1268.75,-280.236 1279.77,-267.764"/>
<polygon fill="#9a32cd" stroke="#9a32cd" points="1088.68,-356.746 1079.53,-362.088 1090.01,-363.618 1088.68,-356.746"/>
<text text-anchor="middle" x="1188" y="-348" font-family="Helvetica,sans-Serif" font-size="10.00"> mySidebar</text>
</g>
<!-- Node16 -->
<g id="node16" class="node"><title>Node16</title>
<polygon fill="white" stroke="#bfbfbf" points="704.5,-504.5 704.5,-523.5 745.5,-523.5 745.5,-504.5 704.5,-504.5"/>
<text text-anchor="middle" x="725" y="-511.5" font-family="Helvetica,sans-Serif" font-size="10.00">VBox</text>
</g>
<!-- Node16&#45;&gt;Node15 -->
<g id="edge16" class="edge"><title>Node16&#45;&gt;Node15</title>
<path fill="none" stroke="midnightblue" d="M755.633,-520.247C800.017,-527.72 883.691,-534.233 932,-490 961.122,-463.335 924.504,-433.15 950,-403 963.099,-387.51 983.921,-378.844 1002.24,-374.012"/>
<polygon fill="midnightblue" stroke="midnightblue" points="756.219,-516.796 745.755,-518.456 754.97,-523.684 756.219,-516.796"/>
</g>
<!-- Node17 -->
<g id="node17" class="node"><title>Node17</title>
<polygon fill="white" stroke="#bfbfbf" points="638.5,-381.5 638.5,-400.5 811.5,-400.5 811.5,-381.5 638.5,-381.5"/>
<text text-anchor="middle" x="725" y="-388.5" font-family="Helvetica,sans-Serif" font-size="10.00">ObservableList&lt; view.Property &gt;</text>
</g>
<!-- Node17&#45;&gt;Node15 -->
<g id="edge17" class="edge"><title>Node17&#45;&gt;Node15</title>
<path fill="none" stroke="#9a32cd" stroke-dasharray="5,2" d="M821.883,-386.279C856.596,-384.342 896.085,-381.874 932,-379 955.296,-377.136 981.363,-374.497 1002.05,-372.271"/>
<polygon fill="#9a32cd" stroke="#9a32cd" points="821.543,-382.792 811.751,-386.837 821.928,-389.782 821.543,-382.792"/>
<text text-anchor="middle" x="881" y="-389" font-family="Helvetica,sans-Serif" font-size="10.00"> variablesList</text>
</g>
<!-- Node18 -->
<g id="node18" class="node"><title>Node18</title>
<polygon fill="white" stroke="#bfbfbf" points="40.5,-504.5 40.5,-523.5 133.5,-523.5 133.5,-504.5 40.5,-504.5"/>
<text text-anchor="middle" x="87" y="-511.5" font-family="Helvetica,sans-Serif" font-size="10.00">ResourceBundle</text>
</g>
<!-- Node18&#45;&gt;Node9 -->
<g id="edge30" class="edge"><title>Node18&#45;&gt;Node9</title>
<path fill="none" stroke="#9a32cd" stroke-dasharray="5,2" d="M127.2,-501.213C171.274,-486.238 244.461,-459.557 304,-429 335.066,-413.056 368.791,-389.73 386.836,-376.709"/>
<polygon fill="#9a32cd" stroke="#9a32cd" points="125.811,-497.988 117.451,-504.496 128.045,-504.622 125.811,-497.988"/>
<text text-anchor="middle" x="248" y="-480" font-family="Helvetica,sans-Serif" font-size="10.00"> myResources</text>
</g>
<!-- Node18&#45;&gt;Node15 -->
<g id="edge18" class="edge"><title>Node18&#45;&gt;Node15</title>
<path fill="none" stroke="#9a32cd" stroke-dasharray="5,2" d="M143.642,-508.455C187.272,-504.078 249.517,-497.768 304,-492 583.231,-462.441 682.129,-551.094 932,-423 942.642,-417.545 940.16,-409.796 950,-403 966.416,-391.662 987.017,-383.302 1004.37,-377.602"/>
<polygon fill="#9a32cd" stroke="#9a32cd" points="143.122,-504.99 133.521,-509.469 143.82,-511.955 143.122,-504.99"/>
<text text-anchor="middle" x="559" y="-497" font-family="Helvetica,sans-Serif" font-size="10.00"> myResources</text>
</g>
<!-- Node19 -->
<g id="node19" class="node"><title>Node19</title>
<polygon fill="white" stroke="#bfbfbf" points="651,-343.5 651,-362.5 799,-362.5 799,-343.5 651,-343.5"/>
<text text-anchor="middle" x="725" y="-350.5" font-family="Helvetica,sans-Serif" font-size="10.00">TableView&lt; view.Property &gt;</text>
</g>
<!-- Node19&#45;&gt;Node15 -->
<g id="edge20" class="edge"><title>Node19&#45;&gt;Node15</title>
<path fill="none" stroke="#9a32cd" stroke-dasharray="5,2" d="M809.823,-353.07C847.241,-353.503 891.857,-354.57 932,-357 955.328,-358.412 981.395,-361.037 1002.08,-363.369"/>
<polygon fill="#9a32cd" stroke="#9a32cd" points="809.506,-349.567 799.47,-352.965 809.434,-356.567 809.506,-349.567"/>
<text text-anchor="middle" x="881" y="-371" font-family="Helvetica,sans-Serif" font-size="10.00"> turtlePropertiesTable</text>
<text text-anchor="middle" x="881" y="-360" font-family="Helvetica,sans-Serif" font-size="10.00">variablesTable</text>
</g>
<!-- Node20&#45;&gt;Node9 -->
<g id="edge38" class="edge"><title>Node20&#45;&gt;Node9</title>
<path fill="none" stroke="#9a32cd" stroke-dasharray="5,2" d="M674.765,-248.094C662.254,-251.631 649.194,-256.459 638,-263 628.231,-268.707 629.962,-275.638 620,-281 571.262,-307.232 549.316,-285.26 498,-306 465.229,-319.245 431.351,-343.791 413.936,-357.359"/>
<polygon fill="#9a32cd" stroke="#9a32cd" points="675.839,-251.431 684.635,-245.526 674.076,-244.657 675.839,-251.431"/>
<text text-anchor="middle" x="559" y="-309" font-family="Helvetica,sans-Serif" font-size="10.00"> myParser</text>
</g>
<!-- Node20&#45;&gt;Node15 -->
<g id="edge21" class="edge"><title>Node20&#45;&gt;Node15</title>
<path fill="none" stroke="#9a32cd" stroke-dasharray="5,2" d="M765.379,-226.81C810.995,-215.353 885.785,-205.166 932,-244 963.23,-270.243 923.612,-302.892 950,-334 963.074,-349.412 983.895,-357.851 1002.22,-362.465"/>
<polygon fill="#9a32cd" stroke="#9a32cd" points="764.326,-223.468 755.554,-229.411 766.117,-230.235 764.326,-223.468"/>
<text text-anchor="middle" x="881" y="-247" font-family="Helvetica,sans-Serif" font-size="10.00"> myParser</text>
</g>
<!-- Node20&#45;&gt;Node26 -->
<g id="edge34" class="edge"><title>Node20&#45;&gt;Node26</title>
<path fill="none" stroke="#9a32cd" stroke-dasharray="5,2" d="M758.731,-225.721C801.751,-209.05 880.071,-181.38 950,-171 1030.01,-159.123 1052.82,-154.482 1132,-171 1176.62,-180.307 1186.56,-189.163 1226,-212 1244.79,-222.879 1264.63,-238.41 1276.66,-248.349"/>
<polygon fill="#9a32cd" stroke="#9a32cd" points="757.373,-222.494 749.341,-229.403 759.928,-229.011 757.373,-222.494"/>
<text text-anchor="middle" x="1041" y="-174" font-family="Helvetica,sans-Serif" font-size="10.00"> myParser</text>
</g>
<!-- Node21 -->
<g id="node21" class="node"><title>Node21</title>
<polygon fill="white" stroke="#bfbfbf" points="345,-263 345,-293 457,-293 457,-263 345,-263"/>
<text text-anchor="start" x="353" y="-281" font-family="Helvetica,sans-Serif" font-size="10.00">List&lt; Entry&lt; String,</text>
<text text-anchor="middle" x="401" y="-270" font-family="Helvetica,sans-Serif" font-size="10.00"> Pattern &gt; &gt;</text>
</g>
<!-- Node21&#45;&gt;Node20 -->
<g id="edge23" class="edge"><title>Node21&#45;&gt;Node20</title>
<path fill="none" stroke="#9a32cd" stroke-dasharray="5,2" d="M467.519,-270.064C532.679,-262.172 630.507,-250.324 684.567,-243.776"/>
<polygon fill="#9a32cd" stroke="#9a32cd" points="466.86,-266.619 457.354,-271.296 467.702,-273.568 466.86,-266.619"/>
<text text-anchor="middle" x="559" y="-269" font-family="Helvetica,sans-Serif" font-size="10.00"> myPatterns</text>
</g>
<!-- Node22 -->
<g id="node22" class="node"><title>Node22</title>
<polygon fill="white" stroke="#bfbfbf" points="340,-224.5 340,-243.5 462,-243.5 462,-224.5 340,-224.5"/>
<text text-anchor="middle" x="401" y="-231.5" font-family="Helvetica,sans-Serif" font-size="10.00">Map&lt; String, String &gt;</text>
</g>
<!-- Node22&#45;&gt;Node20 -->
<g id="edge25" class="edge"><title>Node22&#45;&gt;Node20</title>
<path fill="none" stroke="#9a32cd" stroke-dasharray="5,2" d="M472.39,-235.093C537.597,-236.106 632.209,-237.575 684.877,-238.393"/>
<polygon fill="#9a32cd" stroke="#9a32cd" points="472.241,-231.59 462.188,-234.935 472.132,-238.59 472.241,-231.59"/>
<text text-anchor="middle" x="559" y="-241" font-family="Helvetica,sans-Serif" font-size="10.00"> myCommandMap</text>
</g>
<!-- Node23 -->
<g id="node23" class="node"><title>Node23</title>
<polygon fill="white" stroke="#bfbfbf" points="656,-305.5 656,-324.5 794,-324.5 794,-305.5 656,-305.5"/>
<text text-anchor="middle" x="725" y="-312.5" font-family="Helvetica,sans-Serif" font-size="10.00">ObservableList&lt; String &gt;</text>
</g>
<!-- Node23&#45;&gt;Node15 -->
<g id="edge27" class="edge"><title>Node23&#45;&gt;Node15</title>
<path fill="none" stroke="#9a32cd" stroke-dasharray="5,2" d="M804.574,-314.604C843.301,-315.761 890.487,-319.201 932,-328 936.242,-328.899 984.341,-346.952 1014.9,-358.495"/>
<polygon fill="#9a32cd" stroke="#9a32cd" points="804.489,-311.101 794.404,-314.347 804.312,-318.099 804.489,-311.101"/>
<text text-anchor="middle" x="881" y="-342" font-family="Helvetica,sans-Serif" font-size="10.00"> commandItems</text>
<text text-anchor="middle" x="881" y="-331" font-family="Helvetica,sans-Serif" font-size="10.00">historyItems</text>
</g>
<!-- Node24 -->
<g id="node24" class="node"><title>Node24</title>
<polygon fill="white" stroke="#bfbfbf" points="1009.5,-454.5 1009.5,-473.5 1072.5,-473.5 1072.5,-454.5 1009.5,-454.5"/>
<text text-anchor="middle" x="1041" y="-461.5" font-family="Helvetica,sans-Serif" font-size="10.00">Rectangle</text>
</g>
<!-- Node24&#45;&gt;Node10 -->
<g id="edge28" class="edge"><title>Node24&#45;&gt;Node10</title>
<path fill="none" stroke="#9a32cd" stroke-dasharray="5,2" d="M1082.83,-469.543C1120.51,-475.231 1177.75,-485.331 1226,-500 1240.41,-504.38 1256.04,-510.947 1268,-516.386"/>
<polygon fill="#9a32cd" stroke="#9a32cd" points="1083.15,-466.053 1072.75,-468.056 1082.13,-472.978 1083.15,-466.053"/>
<text text-anchor="middle" x="1188" y="-503" font-family="Helvetica,sans-Serif" font-size="10.00"> myBackground</text>
</g>
<!-- Node25 -->
<g id="node25" class="node"><title>Node25</title>
<polygon fill="white" stroke="#bfbfbf" points="64.5,-376.5 64.5,-395.5 109.5,-395.5 109.5,-376.5 64.5,-376.5"/>
<text text-anchor="middle" x="87" y="-383.5" font-family="Helvetica,sans-Serif" font-size="10.00">Stage</text>
</g>
<!-- Node25&#45;&gt;Node9 -->
<g id="edge29" class="edge"><title>Node25&#45;&gt;Node9</title>
<path fill="none" stroke="#9a32cd" stroke-dasharray="5,2" d="M119.977,-384.053C175.9,-380.647 291.57,-373.603 355.356,-369.719"/>
<polygon fill="#9a32cd" stroke="#9a32cd" points="119.708,-380.562 109.939,-384.664 120.134,-387.55 119.708,-380.562"/>
<text text-anchor="middle" x="248" y="-383" font-family="Helvetica,sans-Serif" font-size="10.00"> myStage</text>
</g>
<!-- Node26&#45;&gt;Node9 -->
<g id="edge31" class="edge"><title>Node26&#45;&gt;Node9</title>
<path fill="none" stroke="#9a32cd" stroke-dasharray="5,2" d="M1244.78,-261.622C1238.48,-262.11 1232.07,-262.585 1226,-263 1160.72,-267.464 689.674,-255.855 638,-296 617.021,-312.299 640.913,-336.617 620,-353 568.799,-393.11 488.362,-385.762 440.839,-376.541"/>
<polygon fill="#9a32cd" stroke="#9a32cd" points="1245.5,-265.076 1255.19,-260.796 1244.95,-258.097 1245.5,-265.076"/>
<text text-anchor="middle" x="881" y="-273" font-family="Helvetica,sans-Serif" font-size="10.00"> myEditor</text>
</g>
<!-- Node27 -->
<g id="node27" class="node"><title>Node27</title>
<polygon fill="white" stroke="#bfbfbf" points="1020,-305.5 1020,-324.5 1062,-324.5 1062,-305.5 1020,-305.5"/>
<text text-anchor="middle" x="1041" y="-312.5" font-family="Helvetica,sans-Serif" font-size="10.00">HBox</text>
</g>
<!-- Node27&#45;&gt;Node26 -->
<g id="edge32" class="edge"><title>Node27&#45;&gt;Node26</title>
<path fill="none" stroke="midnightblue" d="M1072.26,-314.358C1109.32,-312.827 1173.63,-307.74 1226,-291 1243.19,-285.505 1261.23,-275.334 1273.38,-267.73"/>
<polygon fill="midnightblue" stroke="midnightblue" points="1071.98,-310.865 1062.11,-314.715 1072.23,-317.861 1071.98,-310.865"/>
</g>
<!-- Node28 -->
<g id="node28" class="node"><title>Node28</title>
<polygon fill="white" stroke="#bfbfbf" points="1016.5,-229.5 1016.5,-248.5 1065.5,-248.5 1065.5,-229.5 1016.5,-229.5"/>
<text text-anchor="middle" x="1041" y="-236.5" font-family="Helvetica,sans-Serif" font-size="10.00">Button</text>
</g>
<!-- Node28&#45;&gt;Node26 -->
<g id="edge33" class="edge"><title>Node28&#45;&gt;Node26</title>
<path fill="none" stroke="#9a32cd" stroke-dasharray="5,2" d="M1075.74,-241.121C1112.66,-243.502 1173.57,-247.612 1226,-252 1235.48,-252.794 1245.77,-253.751 1255.19,-254.665"/>
<polygon fill="#9a32cd" stroke="#9a32cd" points="1075.75,-237.614 1065.54,-240.467 1075.3,-244.599 1075.75,-237.614"/>
<text text-anchor="middle" x="1188" y="-255" font-family="Helvetica,sans-Serif" font-size="10.00"> runButton</text>
</g>
<!-- Node29 -->
<g id="node29" class="node"><title>Node29</title>
<polygon fill="white" stroke="#bfbfbf" points="1012,-191.5 1012,-210.5 1070,-210.5 1070,-191.5 1012,-191.5"/>
<text text-anchor="middle" x="1041" y="-198.5" font-family="Helvetica,sans-Serif" font-size="10.00">TextArea</text>
</g>
<!-- Node29&#45;&gt;Node26 -->
<g id="edge35" class="edge"><title>Node29&#45;&gt;Node26</title>
<path fill="none" stroke="#9a32cd" stroke-dasharray="5,2" d="M1080.21,-204.84C1117.83,-209.224 1176.65,-217.704 1226,-232 1240.57,-236.222 1256.33,-242.861 1268.32,-248.373"/>
<polygon fill="#9a32cd" stroke="#9a32cd" points="1080.52,-201.352 1070.19,-203.711 1079.74,-208.308 1080.52,-201.352"/>
<text text-anchor="middle" x="1188" y="-235" font-family="Helvetica,sans-Serif" font-size="10.00"> textEditor</text>
</g>
<!-- Node30 -->
<g id="node30" class="node"><title>Node30</title>
<polygon fill="white" stroke="#bfbfbf" points="27.5,-338.5 27.5,-357.5 146.5,-357.5 146.5,-338.5 27.5,-338.5"/>
<text text-anchor="middle" x="87" y="-345.5" font-family="Helvetica,sans-Serif" font-size="10.00">Map&lt; String, Node &gt;</text>
</g>
<!-- Node30&#45;&gt;Node9 -->
<g id="edge37" class="edge"><title>Node30&#45;&gt;Node9</title>
<path fill="none" stroke="#9a32cd" stroke-dasharray="5,2" d="M156.922,-350.943C199.356,-352.895 254.853,-355.702 304,-359 320.687,-360.12 338.986,-361.586 355.091,-362.956"/>
<polygon fill="#9a32cd" stroke="#9a32cd" points="156.852,-347.436 146.703,-350.477 156.533,-354.429 156.852,-347.436"/>
<text text-anchor="middle" x="248" y="-362" font-family="Helvetica,sans-Serif" font-size="10.00"> variables</text>
</g>
<!-- Node31 -->
<g id="node31" class="node"><title>Node31</title>
<polygon fill="white" stroke="#bfbfbf" points="46.5,-300.5 46.5,-319.5 127.5,-319.5 127.5,-300.5 46.5,-300.5"/>
<text text-anchor="middle" x="87" y="-307.5" font-family="Helvetica,sans-Serif" font-size="10.00">Dimension2D</text>
</g>
<!-- Node31&#45;&gt;Node9 -->
<g id="edge39" class="edge"><title>Node31&#45;&gt;Node9</title>
<path fill="none" stroke="#9a32cd" stroke-dasharray="5,2" d="M137.902,-314.121C181.937,-318.313 247.692,-325.931 304,-338 327.493,-343.035 353.554,-351.069 372.588,-357.405"/>
<polygon fill="#9a32cd" stroke="#9a32cd" points="138.027,-310.617 127.747,-313.178 137.38,-317.587 138.027,-310.617"/>
<text text-anchor="middle" x="248" y="-341" font-family="Helvetica,sans-Serif" font-size="10.00"> myDimensions</text>
</g>
<!-- Node32&#45;&gt;Node9 -->
<g id="edge40" class="edge"><title>Node32&#45;&gt;Node9</title>
<path fill="none" stroke="#9a32cd" stroke-dasharray="5,2" d="M1430.36,-422.588C1309.25,-416.627 986.474,-403.777 950,-434 919.596,-459.193 961.339,-494.574 932,-521 883.416,-564.762 700.34,-552.729 638,-533 536.275,-500.807 440.45,-407.267 411.128,-376.752"/>
<polygon fill="#9a32cd" stroke="#9a32cd" points="1430.26,-426.087 1440.43,-423.09 1430.61,-419.096 1430.26,-426.087"/>
<text text-anchor="middle" x="1041" y="-437" font-family="Helvetica,sans-Serif" font-size="10.00"> drawer</text>
</g>
<!-- Node33 -->
<g id="node33" class="node"><title>Node33</title>
<polygon fill="white" stroke="#bfbfbf" points="1268.5,-377.5 1268.5,-396.5 1309.5,-396.5 1309.5,-377.5 1268.5,-377.5"/>
<text text-anchor="middle" x="1289" y="-384.5" font-family="Helvetica,sans-Serif" font-size="10.00">Color</text>
</g>
<!-- Node33&#45;&gt;Node32 -->
<g id="edge42" class="edge"><title>Node33&#45;&gt;Node32</title>
<path fill="none" stroke="#9a32cd" stroke-dasharray="5,2" d="M1319.61,-387.102C1346.71,-387.853 1387.67,-390.652 1422,-400 1434.96,-403.529 1448.68,-409.921 1459.05,-415.358"/>
<polygon fill="#9a32cd" stroke="#9a32cd" points="1319.67,-383.602 1309.6,-386.901 1319.53,-390.601 1319.67,-383.602"/>
<text text-anchor="middle" x="1387" y="-403" font-family="Helvetica,sans-Serif" font-size="10.00"> myColor</text>
</g>
<!-- Node34 -->
<g id="node34" class="node"><title>Node34</title>
<polygon fill="white" stroke="#bfbfbf" points="64,-414.5 64,-433.5 110,-433.5 110,-414.5 64,-414.5"/>
<text text-anchor="middle" x="87" y="-421.5" font-family="Helvetica,sans-Serif" font-size="10.00">Group</text>
</g>
<!-- Node34&#45;&gt;Node9 -->
<g id="edge44" class="edge"><title>Node34&#45;&gt;Node9</title>
<path fill="none" stroke="#9a32cd" stroke-dasharray="5,2" d="M120.291,-421.193C162.746,-417.156 239.505,-408.654 304,-395 326.929,-390.146 352.372,-382.625 371.301,-376.599"/>
<polygon fill="#9a32cd" stroke="#9a32cd" points="119.899,-417.715 110.265,-422.124 120.546,-424.685 119.899,-417.715"/>
<text text-anchor="middle" x="248" y="-417" font-family="Helvetica,sans-Serif" font-size="10.00"> lines</text>
</g>
</g>
</svg>
