<?xml version="1.0" encoding="UTF-8" standalone="no"?>
<!DOCTYPE svg PUBLIC "-//W3C//DTD SVG 1.1//EN"
 "http://www.w3.org/Graphics/SVG/1.1/DTD/svg11.dtd">
<!-- Generated by graphviz version 2.36.0 (20140111.2315)
 -->
<!-- Title: model.instructions.MathInstruction Pages: 1 -->
<svg width="1626pt" height="603pt"
 viewBox="0.00 0.00 1626.00 603.00" xmlns="http://www.w3.org/2000/svg" xmlns:xlink="http://www.w3.org/1999/xlink">
<g id="graph0" class="graph" transform="scale(1 1) rotate(0) translate(4 599)">
<title>model.instructions.MathInstruction</title>
<polygon fill="white" stroke="none" points="-4,4 -4,-599 1622,-599 1622,4 -4,4"/>
<!-- Node1 -->
<g id="node1" class="node"><title>Node1</title>
<polygon fill="#bfbfbf" stroke="black" points="1010,-460.5 1010,-479.5 1192,-479.5 1192,-460.5 1010,-460.5"/>
<text text-anchor="middle" x="1101" y="-467.5" font-family="Helvetica,sans-Serif" font-size="10.00">model.instructions.MathInstruction</text>
</g>
<!-- Node2 -->
<g id="node2" class="node"><title>Node2</title>
<g id="a_node2"><a xlink:href="../../d1/dea/classmodel_1_1instructions_1_1_instruction.html" target="_top" xlink:title="model.instructions.Instruction">
<polygon fill="white" stroke="black" points="760,-460.5 760,-479.5 918,-479.5 918,-460.5 760,-460.5"/>
<text text-anchor="middle" x="839" y="-467.5" font-family="Helvetica,sans-Serif" font-size="10.00">model.instructions.Instruction</text>
</a>
</g>
</g>
<!-- Node2&#45;&gt;Node1 -->
<g id="edge1" class="edge"><title>Node2&#45;&gt;Node1</title>
<path fill="none" stroke="midnightblue" d="M928.315,-470C954.561,-470 983.342,-470 1009.71,-470"/>
<polygon fill="midnightblue" stroke="midnightblue" points="928.009,-466.5 918.009,-470 928.009,-473.5 928.009,-466.5"/>
</g>
<!-- Node3 -->
<g id="node3" class="node"><title>Node3</title>
<polygon fill="white" stroke="#bfbfbf" points="179,-271.5 179,-290.5 239,-290.5 239,-271.5 179,-271.5"/>
<text text-anchor="middle" x="209" y="-278.5" font-family="Helvetica,sans-Serif" font-size="10.00">Observer</text>
</g>
<!-- Node3&#45;&gt;Node2 -->
<g id="edge2" class="edge"><title>Node3&#45;&gt;Node2</title>
<path fill="none" stroke="midnightblue" d="M220.664,-299.397C236.98,-325.559 270.841,-372.6 314,-393 486.295,-474.439 558.562,-367.342 742,-419 773.609,-427.901 806.599,-448.263 824.49,-460.394"/>
<polygon fill="midnightblue" stroke="midnightblue" points="223.63,-297.538 215.462,-290.79 217.639,-301.159 223.63,-297.538"/>
</g>
<!-- Node9 -->
<g id="node9" class="node"><title>Node9</title>
<g id="a_node9"><a xlink:href="../../d6/de7/classview_1_1_s_logo_view.html" target="_top" xlink:title="view.SLogoView">
<polygon fill="white" stroke="black" points="477.5,-158.5 477.5,-177.5 568.5,-177.5 568.5,-158.5 477.5,-158.5"/>
<text text-anchor="middle" x="523" y="-165.5" font-family="Helvetica,sans-Serif" font-size="10.00">view.SLogoView</text>
</a>
</g>
</g>
<!-- Node3&#45;&gt;Node9 -->
<g id="edge9" class="edge"><title>Node3&#45;&gt;Node9</title>
<path fill="none" stroke="midnightblue" d="M249.181,-275.963C302.529,-268.728 394.939,-254.745 426,-241 461.805,-225.155 496.525,-193.507 512.64,-177.598"/>
<polygon fill="midnightblue" stroke="midnightblue" points="248.508,-272.522 239.062,-277.318 249.438,-279.46 248.508,-272.522"/>
</g>
<!-- Node18 -->
<g id="node18" class="node"><title>Node18</title>
<g id="a_node18"><a xlink:href="../../dc/df5/classmodel_1_1_parser.html" target="_top" xlink:title="model.Parser">
<polygon fill="white" stroke="black" points="799,-293.5 799,-312.5 879,-312.5 879,-293.5 799,-293.5"/>
<text text-anchor="middle" x="839" y="-300.5" font-family="Helvetica,sans-Serif" font-size="10.00">model.Parser</text>
</a>
</g>
</g>
<!-- Node3&#45;&gt;Node18 -->
<g id="edge19" class="edge"><title>Node3&#45;&gt;Node18</title>
<path fill="none" stroke="midnightblue" d="M249.273,-282.376C362.078,-286.328 686.163,-297.681 798.834,-301.628"/>
<polygon fill="midnightblue" stroke="midnightblue" points="249.147,-278.869 239.03,-282.017 248.902,-285.865 249.147,-278.869"/>
</g>
<!-- Node4 -->
<g id="node4" class="node"><title>Node4</title>
<g id="a_node4"><a xlink:href="../../d1/dca/classmodel_1_1_execution_environment.html" target="_top" xlink:title="model.ExecutionEnvironment">
<polygon fill="white" stroke="black" points="444.5,-448.5 444.5,-467.5 601.5,-467.5 601.5,-448.5 444.5,-448.5"/>
<text text-anchor="middle" x="523" y="-455.5" font-family="Helvetica,sans-Serif" font-size="10.00">model.ExecutionEnvironment</text>
</a>
</g>
</g>
<!-- Node4&#45;&gt;Node2 -->
<g id="edge3" class="edge"><title>Node4&#45;&gt;Node2</title>
<path fill="none" stroke="#9a32cd" stroke-dasharray="5,2" d="M611.688,-461.351C658.218,-463.129 714.911,-465.296 759.914,-467.016"/>
<polygon fill="#9a32cd" stroke="#9a32cd" points="611.744,-457.851 601.618,-460.966 611.477,-464.846 611.744,-457.851"/>
<text text-anchor="middle" x="681" y="-470" font-family="Helvetica,sans-Serif" font-size="10.00"> myEnvironment</text>
</g>
<!-- Node4&#45;&gt;Node18 -->
<g id="edge21" class="edge"><title>Node4&#45;&gt;Node18</title>
<path fill="none" stroke="#9a32cd" stroke-dasharray="5,2" d="M559.541,-444.986C603.413,-428.438 679.84,-398.023 742,-365 772.837,-348.618 806.648,-325.456 824.769,-312.58"/>
<polygon fill="#9a32cd" stroke="#9a32cd" points="558.303,-441.712 550.166,-448.498 560.758,-448.268 558.303,-441.712"/>
<text text-anchor="middle" x="681" y="-423" font-family="Helvetica,sans-Serif" font-size="10.00"> myExecutionParameters</text>
</g>
<!-- Node5 -->
<g id="node5" class="node"><title>Node5</title>
<polygon fill="white" stroke="#bfbfbf" points="173.5,-456.5 173.5,-475.5 244.5,-475.5 244.5,-456.5 173.5,-456.5"/>
<text text-anchor="middle" x="209" y="-463.5" font-family="Helvetica,sans-Serif" font-size="10.00">Observable</text>
</g>
<!-- Node5&#45;&gt;Node4 -->
<g id="edge4" class="edge"><title>Node5&#45;&gt;Node4</title>
<path fill="none" stroke="midnightblue" d="M254.637,-464.855C304.066,-463.588 384.658,-461.522 444.457,-459.988"/>
<polygon fill="midnightblue" stroke="midnightblue" points="254.489,-461.358 244.582,-465.113 254.668,-468.356 254.489,-461.358"/>
</g>
<!-- Node6 -->
<g id="node6" class="node"><title>Node6</title>
<polygon fill="white" stroke="#bfbfbf" points="122,-407 122,-437 296,-437 296,-407 122,-407"/>
<text text-anchor="start" x="130" y="-425" font-family="Helvetica,sans-Serif" font-size="10.00">Map&lt; String, model.instructions.</text>
<text text-anchor="middle" x="209" y="-414" font-family="Helvetica,sans-Serif" font-size="10.00">Instruction &gt;</text>
</g>
<!-- Node6&#45;&gt;Node4 -->
<g id="edge5" class="edge"><title>Node6&#45;&gt;Node4</title>
<path fill="none" stroke="#9a32cd" stroke-dasharray="5,2" d="M306.586,-432.446C343.908,-436.557 386.954,-441.391 426,-446 432.672,-446.788 439.603,-447.622 446.549,-448.47"/>
<polygon fill="#9a32cd" stroke="#9a32cd" points="306.542,-428.92 296.219,-431.306 305.777,-435.878 306.542,-428.92"/>
<text text-anchor="middle" x="370" y="-449" font-family="Helvetica,sans-Serif" font-size="10.00"> myUserInstructionMap</text>
</g>
<!-- Node7 -->
<g id="node7" class="node"><title>Node7</title>
<polygon fill="white" stroke="#bfbfbf" points="145,-494.5 145,-513.5 273,-513.5 273,-494.5 145,-494.5"/>
<text text-anchor="middle" x="209" y="-501.5" font-family="Helvetica,sans-Serif" font-size="10.00">Map&lt; String, Double &gt;</text>
</g>
<!-- Node7&#45;&gt;Node4 -->
<g id="edge6" class="edge"><title>Node7&#45;&gt;Node4</title>
<path fill="none" stroke="#9a32cd" stroke-dasharray="5,2" d="M283.565,-495.508C325.405,-490.417 378.731,-483.489 426,-476 441.743,-473.506 458.868,-470.416 474.238,-467.505"/>
<polygon fill="#9a32cd" stroke="#9a32cd" points="282.968,-492.055 273.46,-496.729 283.808,-499.004 282.968,-492.055"/>
<text text-anchor="middle" x="370" y="-495" font-family="Helvetica,sans-Serif" font-size="10.00"> myVariableMap</text>
</g>
<!-- Node8 -->
<g id="node8" class="node"><title>Node8</title>
<polygon fill="white" stroke="#bfbfbf" points="455,-487 455,-517 591,-517 591,-487 455,-487"/>
<text text-anchor="start" x="463" y="-505" font-family="Helvetica,sans-Serif" font-size="10.00">List&lt; model.instructions.</text>
<text text-anchor="middle" x="523" y="-494" font-family="Helvetica,sans-Serif" font-size="10.00">Instruction &gt;</text>
</g>
<!-- Node8&#45;&gt;Node2 -->
<g id="edge7" class="edge"><title>Node8&#45;&gt;Node2</title>
<path fill="none" stroke="#9a32cd" stroke-dasharray="5,2" d="M601.414,-495.521C643.103,-491.875 695.399,-487.049 742,-482 749.097,-481.231 756.483,-480.387 763.867,-479.513"/>
<polygon fill="#9a32cd" stroke="#9a32cd" points="600.987,-492.045 591.328,-496.398 601.594,-499.019 600.987,-492.045"/>
<text text-anchor="middle" x="681" y="-497" font-family="Helvetica,sans-Serif" font-size="10.00"> myDependencies</text>
</g>
<!-- Node9&#45;&gt;Node2 -->
<g id="edge8" class="edge"><title>Node9&#45;&gt;Node2</title>
<path fill="none" stroke="#9a32cd" stroke-dasharray="5,2" d="M543.446,-183.973C562.299,-199.017 592.069,-221.628 620,-238 671.471,-268.17 698.382,-253.294 742,-294 748.966,-300.501 814.269,-424.681 833,-460.441"/>
<polygon fill="#9a32cd" stroke="#9a32cd" points="545.579,-181.196 535.598,-177.643 541.184,-186.645 545.579,-181.196"/>
<text text-anchor="middle" x="681" y="-297" font-family="Helvetica,sans-Serif" font-size="10.00"> myView</text>
</g>
<!-- Node9&#45;&gt;Node18 -->
<g id="edge23" class="edge"><title>Node9&#45;&gt;Node18</title>
<path fill="none" stroke="#9a32cd" stroke-dasharray="5,2" d="M555.544,-181.401C574.058,-188.867 598.058,-197.867 620,-204 673.141,-218.853 692.091,-203.471 742,-227 751.419,-231.441 751.898,-235.458 760,-242 782.872,-260.467 809.991,-281.48 825.478,-293.399"/>
<polygon fill="#9a32cd" stroke="#9a32cd" points="556.718,-178.099 546.138,-177.549 554.066,-184.577 556.718,-178.099"/>
<text text-anchor="middle" x="681" y="-230" font-family="Helvetica,sans-Serif" font-size="10.00"> mySLogoView</text>
</g>
<!-- Node10 -->
<g id="node10" class="node"><title>Node10</title>
<g id="a_node10"><a xlink:href="../../da/d64/classview_1_1_workspace.html" target="_top" xlink:title="view.Workspace">
<polygon fill="white" stroke="black" points="1528,-425.5 1528,-444.5 1618,-444.5 1618,-425.5 1528,-425.5"/>
<text text-anchor="middle" x="1573" y="-432.5" font-family="Helvetica,sans-Serif" font-size="10.00">view.Workspace</text>
</a>
</g>
</g>
<!-- Node10&#45;&gt;Node9 -->
<g id="edge10" class="edge"><title>Node10&#45;&gt;Node9</title>
<path fill="none" stroke="#9a32cd" stroke-dasharray="5,2" d="M1517.79,-439.626C1515.16,-439.771 1512.55,-439.897 1510,-440 1430.03,-443.219 1409.82,-440.782 1330,-435 1258.74,-429.839 1061.05,-453.978 1010,-404 961.388,-356.412 1038.63,-301.529 992,-252 914.609,-169.803 853.122,-226.941 742,-207 682.018,-196.236 612.743,-183.851 568.676,-175.978"/>
<polygon fill="#9a32cd" stroke="#9a32cd" points="1518.23,-443.106 1528,-438.988 1517.8,-436.119 1518.23,-443.106"/>
<text text-anchor="middle" x="1101" y="-440" font-family="Helvetica,sans-Serif" font-size="10.00"> myWorkspace</text>
</g>
<!-- Node11 -->
<g id="node11" class="node"><title>Node11</title>
<polygon fill="white" stroke="#bfbfbf" points="1339.5,-406.5 1339.5,-425.5 1406.5,-425.5 1406.5,-406.5 1339.5,-406.5"/>
<text text-anchor="middle" x="1373" y="-413.5" font-family="Helvetica,sans-Serif" font-size="10.00">StackPane</text>
</g>
<!-- Node11&#45;&gt;Node10 -->
<g id="edge11" class="edge"><title>Node11&#45;&gt;Node10</title>
<path fill="none" stroke="midnightblue" d="M1416.87,-420.114C1449.64,-423.258 1494.66,-427.578 1527.76,-430.755"/>
<polygon fill="midnightblue" stroke="midnightblue" points="1416.98,-416.609 1406.7,-419.137 1416.32,-423.577 1416.98,-416.609"/>
</g>
<!-- Node12 -->
<g id="node12" class="node"><title>Node12</title>
<g id="a_node12"><a xlink:href="../../d8/df7/classview_1_1_turtle_view.html" target="_top" xlink:title="view.TurtleView">
<polygon fill="white" stroke="black" points="1330,-500.5 1330,-519.5 1416,-519.5 1416,-500.5 1330,-500.5"/>
<text text-anchor="middle" x="1373" y="-507.5" font-family="Helvetica,sans-Serif" font-size="10.00">view.TurtleView</text>
</a>
</g>
</g>
<!-- Node12&#45;&gt;Node10 -->
<g id="edge12" class="edge"><title>Node12&#45;&gt;Node10</title>
<path fill="none" stroke="#9a32cd" stroke-dasharray="5,2" d="M1421.41,-497.747C1447.9,-490.309 1481.27,-479.954 1510,-468 1526.21,-461.254 1543.8,-451.656 1556.09,-444.549"/>
<polygon fill="#9a32cd" stroke="#9a32cd" points="1420.32,-494.416 1411.61,-500.452 1422.19,-501.163 1420.32,-494.416"/>
<text text-anchor="middle" x="1472" y="-497" font-family="Helvetica,sans-Serif" font-size="10.00"> myActiveTurtle</text>
</g>
<!-- Node13 -->
<g id="node13" class="node"><title>Node13</title>
<polygon fill="white" stroke="#bfbfbf" points="1067,-536.5 1067,-555.5 1135,-555.5 1135,-536.5 1067,-536.5"/>
<text text-anchor="middle" x="1101" y="-543.5" font-family="Helvetica,sans-Serif" font-size="10.00">ImageView</text>
</g>
<!-- Node13&#45;&gt;Node12 -->
<g id="edge13" class="edge"><title>Node13&#45;&gt;Node12</title>
<path fill="none" stroke="midnightblue" d="M1145.09,-540.254C1195.79,-533.495 1279.41,-522.346 1329.74,-515.635"/>
<polygon fill="midnightblue" stroke="midnightblue" points="1144.56,-536.795 1135.11,-541.586 1145.48,-543.733 1144.56,-536.795"/>
</g>
<!-- Node14 -->
<g id="node14" class="node"><title>Node14</title>
<polygon fill="white" stroke="#bfbfbf" points="141,-533 141,-563 277,-563 277,-533 141,-533"/>
<text text-anchor="start" x="149" y="-551" font-family="Helvetica,sans-Serif" font-size="10.00">Map&lt; Integer, view.Turtle</text>
<text text-anchor="middle" x="209" y="-540" font-family="Helvetica,sans-Serif" font-size="10.00">View &gt;</text>
</g>
<!-- Node14&#45;&gt;Node9 -->
<g id="edge41" class="edge"><title>Node14&#45;&gt;Node9</title>
<path fill="none" stroke="#9a32cd" stroke-dasharray="5,2" d="M286.185,-531.587C289.772,-529.105 293.085,-526.26 296,-523 327.27,-488.033 294.373,-461.606 314,-419 340.165,-362.2 476.168,-216.41 512.867,-177.607"/>
<polygon fill="#9a32cd" stroke="#9a32cd" points="284.235,-528.673 277.373,-536.746 287.771,-534.715 284.235,-528.673"/>
<text text-anchor="middle" x="370" y="-422" font-family="Helvetica,sans-Serif" font-size="10.00"> myTurtles</text>
</g>
<!-- Node14&#45;&gt;Node10 -->
<g id="edge14" class="edge"><title>Node14&#45;&gt;Node10</title>
<path fill="none" stroke="#9a32cd" stroke-dasharray="5,2" d="M287.543,-561.96C350.498,-572.081 441.683,-584 522,-584 522,-584 522,-584 1374,-584 1466.93,-584 1544,-477.925 1565.81,-444.776"/>
<polygon fill="#9a32cd" stroke="#9a32cd" points="287.731,-558.444 277.298,-560.288 286.604,-565.353 287.731,-558.444"/>
<text text-anchor="middle" x="964" y="-587" font-family="Helvetica,sans-Serif" font-size="10.00"> myTurtles</text>
</g>
<!-- Node15 -->
<g id="node15" class="node"><title>Node15</title>
<g id="a_node15"><a xlink:href="../../d1/dc7/classview_1_1_side_bar.html" target="_top" xlink:title="view.SideBar">
<polygon fill="white" stroke="black" points="1334.5,-265.5 1334.5,-284.5 1411.5,-284.5 1411.5,-265.5 1334.5,-265.5"/>
<text text-anchor="middle" x="1373" y="-272.5" font-family="Helvetica,sans-Serif" font-size="10.00">view.SideBar</text>
</a>
</g>
</g>
<!-- Node14&#45;&gt;Node15 -->
<g id="edge25" class="edge"><title>Node14&#45;&gt;Node15</title>
<path fill="none" stroke="#9a32cd" stroke-dasharray="5,2" d="M287.113,-546.3C504.101,-541.108 1109.51,-523.655 1192,-489 1290.02,-447.82 1352.06,-320.486 1367.95,-284.538"/>
<polygon fill="#9a32cd" stroke="#9a32cd" points="286.992,-542.802 277.078,-546.538 287.158,-549.8 286.992,-542.802"/>
<text text-anchor="middle" x="839" y="-534" font-family="Helvetica,sans-Serif" font-size="10.00"> myTurtles</text>
</g>
<!-- Node15&#45;&gt;Node9 -->
<g id="edge45" class="edge"><title>Node15&#45;&gt;Node9</title>
<path fill="none" stroke="#9a32cd" stroke-dasharray="5,2" d="M1360.07,-256.672C1351.25,-242.772 1339.23,-223.045 1330,-205 1320.75,-186.918 1328.38,-175.01 1312,-163 1268.78,-131.302 1245.53,-153.67 1192,-151 957.372,-139.298 675.961,-156.746 568.588,-164.55"/>
<polygon fill="#9a32cd" stroke="#9a32cd" points="1357.24,-258.745 1365.59,-265.271 1363.13,-254.965 1357.24,-258.745"/>
<text text-anchor="middle" x="964" y="-151" font-family="Helvetica,sans-Serif" font-size="10.00"> mySidebar</text>
</g>
<!-- Node15&#45;&gt;Node10 -->
<g id="edge15" class="edge"><title>Node15&#45;&gt;Node10</title>
<path fill="none" stroke="#9a32cd" stroke-dasharray="5,2" d="M1396.94,-290.453C1424.57,-309.376 1471.99,-342.883 1510,-375 1529.68,-391.627 1550.9,-412.997 1562.71,-425.23"/>
<polygon fill="#9a32cd" stroke="#9a32cd" points="1398.61,-287.355 1388.38,-284.618 1394.67,-293.14 1398.61,-287.355"/>
<text text-anchor="middle" x="1472" y="-378" font-family="Helvetica,sans-Serif" font-size="10.00"> mySidebar</text>
</g>
<!-- Node28 -->
<g id="node28" class="node"><title>Node28</title>
<g id="a_node28"><a xlink:href="../../da/dc8/classview_1_1_editor.html" target="_top" xlink:title="view.Editor">
<polygon fill="white" stroke="black" points="1539.5,-114.5 1539.5,-133.5 1606.5,-133.5 1606.5,-114.5 1539.5,-114.5"/>
<text text-anchor="middle" x="1573" y="-121.5" font-family="Helvetica,sans-Serif" font-size="10.00">view.Editor</text>
</a>
</g>
</g>
<!-- Node15&#45;&gt;Node28 -->
<g id="edge37" class="edge"><title>Node15&#45;&gt;Node28</title>
<path fill="none" stroke="#9a32cd" stroke-dasharray="5,2" d="M1403.82,-260.985C1432.62,-246.664 1476.66,-222.65 1510,-195 1532.93,-175.988 1554.59,-148.123 1565.2,-133.602"/>
<polygon fill="#9a32cd" stroke="#9a32cd" points="1402.11,-257.922 1394.67,-265.462 1405.19,-264.209 1402.11,-257.922"/>
<text text-anchor="middle" x="1472" y="-248" font-family="Helvetica,sans-Serif" font-size="10.00"> mySidebar</text>
</g>
<!-- Node16 -->
<g id="node16" class="node"><title>Node16</title>
<polygon fill="white" stroke="#bfbfbf" points="1080.5,-375.5 1080.5,-394.5 1121.5,-394.5 1121.5,-375.5 1080.5,-375.5"/>
<text text-anchor="middle" x="1101" y="-382.5" font-family="Helvetica,sans-Serif" font-size="10.00">VBox</text>
</g>
<!-- Node16&#45;&gt;Node15 -->
<g id="edge16" class="edge"><title>Node16&#45;&gt;Node15</title>
<path fill="none" stroke="midnightblue" d="M1131.55,-386.703C1174.36,-387.807 1254.77,-384.65 1312,-351 1339.39,-334.897 1359.04,-301.146 1367.45,-284.583"/>
<polygon fill="midnightblue" stroke="midnightblue" points="1131.63,-383.203 1121.51,-386.346 1131.38,-390.199 1131.63,-383.203"/>
</g>
<!-- Node17 -->
<g id="node17" class="node"><title>Node17</title>
<g id="a_node17"><a xlink:href="../../d4/dd9/classcontroller_1_1_s_logo_controller.html" target="_top" xlink:title="controller.SLogoController">
<polygon fill="white" stroke="black" points="1031,-160.5 1031,-179.5 1171,-179.5 1171,-160.5 1031,-160.5"/>
<text text-anchor="middle" x="1101" y="-167.5" font-family="Helvetica,sans-Serif" font-size="10.00">controller.SLogoController</text>
</a>
</g>
</g>
<!-- Node17&#45;&gt;Node9 -->
<g id="edge39" class="edge"><title>Node17&#45;&gt;Node9</title>
<path fill="none" stroke="#9a32cd" stroke-dasharray="5,2" d="M1020.8,-169.725C898.084,-169.299 666.029,-168.493 568.718,-168.155"/>
<polygon fill="#9a32cd" stroke="#9a32cd" points="1020.87,-173.225 1030.88,-169.76 1020.89,-166.225 1020.87,-173.225"/>
<text text-anchor="middle" x="839" y="-173" font-family="Helvetica,sans-Serif" font-size="10.00"> myController</text>
</g>
<!-- Node17&#45;&gt;Node15 -->
<g id="edge17" class="edge"><title>Node17&#45;&gt;Node15</title>
<path fill="none" stroke="#9a32cd" stroke-dasharray="5,2" d="M1181.13,-164.964C1222.6,-165.76 1272.77,-172.387 1312,-195 1340.73,-211.56 1359.99,-247.942 1367.92,-265.349"/>
<polygon fill="#9a32cd" stroke="#9a32cd" points="1181.09,-161.463 1171.07,-164.88 1181.04,-168.463 1181.09,-161.463"/>
<text text-anchor="middle" x="1261" y="-198" font-family="Helvetica,sans-Serif" font-size="10.00"> myController</text>
</g>
<!-- Node17&#45;&gt;Node28 -->
<g id="edge35" class="edge"><title>Node17&#45;&gt;Node28</title>
<path fill="none" stroke="#9a32cd" stroke-dasharray="5,2" d="M1181.04,-163.474C1263.3,-156.487 1395.8,-144.682 1510,-132 1519.49,-130.946 1529.78,-129.671 1539.21,-128.452"/>
<polygon fill="#9a32cd" stroke="#9a32cd" points="1180.69,-159.992 1171.02,-164.323 1181.28,-166.967 1180.69,-159.992"/>
<text text-anchor="middle" x="1373" y="-153" font-family="Helvetica,sans-Serif" font-size="10.00"> myController</text>
</g>
<!-- Node18&#45;&gt;Node17 -->
<g id="edge18" class="edge"><title>Node18&#45;&gt;Node17</title>
<path fill="none" stroke="#9a32cd" stroke-dasharray="5,2" d="M859.572,-286.714C889.889,-262.307 950.891,-216.402 1010,-191 1021.06,-186.249 1033.36,-182.479 1045.23,-179.523"/>
<polygon fill="#9a32cd" stroke="#9a32cd" points="857.064,-284.243 851.522,-293.273 861.486,-289.67 857.064,-284.243"/>
<text text-anchor="middle" x="964" y="-234" font-family="Helvetica,sans-Serif" font-size="10.00"> myParser</text>
</g>
<!-- Node19 -->
<g id="node19" class="node"><title>Node19</title>
<polygon fill="white" stroke="#bfbfbf" points="467,-348 467,-378 579,-378 579,-348 467,-348"/>
<text text-anchor="start" x="475" y="-366" font-family="Helvetica,sans-Serif" font-size="10.00">List&lt; Entry&lt; String,</text>
<text text-anchor="middle" x="523" y="-355" font-family="Helvetica,sans-Serif" font-size="10.00"> Pattern &gt; &gt;</text>
</g>
<!-- Node19&#45;&gt;Node18 -->
<g id="edge20" class="edge"><title>Node19&#45;&gt;Node18</title>
<path fill="none" stroke="#9a32cd" stroke-dasharray="5,2" d="M589.565,-354.687C633.025,-348.709 691.185,-339.81 742,-329 763.618,-324.401 787.618,-317.901 806.214,-312.551"/>
<polygon fill="#9a32cd" stroke="#9a32cd" points="588.844,-351.253 579.407,-356.069 589.788,-358.189 588.844,-351.253"/>
<text text-anchor="middle" x="681" y="-353" font-family="Helvetica,sans-Serif" font-size="10.00"> myPatterns</text>
</g>
<!-- Node20 -->
<g id="node20" class="node"><title>Node20</title>
<polygon fill="white" stroke="#bfbfbf" points="462,-309.5 462,-328.5 584,-328.5 584,-309.5 462,-309.5"/>
<text text-anchor="middle" x="523" y="-316.5" font-family="Helvetica,sans-Serif" font-size="10.00">Map&lt; String, String &gt;</text>
</g>
<!-- Node20&#45;&gt;Node18 -->
<g id="edge22" class="edge"><title>Node20&#45;&gt;Node18</title>
<path fill="none" stroke="#9a32cd" stroke-dasharray="5,2" d="M594.447,-315.41C657.558,-312.194 747.811,-307.596 798.868,-304.994"/>
<polygon fill="#9a32cd" stroke="#9a32cd" points="593.98,-311.93 584.171,-315.934 594.336,-318.92 593.98,-311.93"/>
<text text-anchor="middle" x="681" y="-317" font-family="Helvetica,sans-Serif" font-size="10.00"> myCommandMap</text>
</g>
<!-- Node21 -->
<g id="node21" class="node"><title>Node21</title>
<polygon fill="white" stroke="#bfbfbf" points="1034,-326 1034,-356 1168,-356 1168,-326 1034,-326"/>
<text text-anchor="start" x="1042" y="-344" font-family="Helvetica,sans-Serif" font-size="10.00">TableView&lt; view.Variable</text>
<text text-anchor="middle" x="1101" y="-333" font-family="Helvetica,sans-Serif" font-size="10.00">View &gt;</text>
</g>
<!-- Node21&#45;&gt;Node15 -->
<g id="edge24" class="edge"><title>Node21&#45;&gt;Node15</title>
<path fill="none" stroke="#9a32cd" stroke-dasharray="5,2" d="M1178.2,-330.64C1218.51,-324.124 1268.51,-314.385 1312,-301 1326.11,-296.659 1341.36,-290.022 1352.95,-284.54"/>
<polygon fill="#9a32cd" stroke="#9a32cd" points="1177.51,-327.206 1168.18,-332.227 1178.6,-334.12 1177.51,-327.206"/>
<text text-anchor="middle" x="1261" y="-339" font-family="Helvetica,sans-Serif" font-size="10.00"> turtlePropertiesTable</text>
<text text-anchor="middle" x="1261" y="-328" font-family="Helvetica,sans-Serif" font-size="10.00">variablesTable</text>
</g>
<!-- Node22 -->
<g id="node22" class="node"><title>Node22</title>
<polygon fill="white" stroke="#bfbfbf" points="1021.5,-277 1021.5,-307 1180.5,-307 1180.5,-277 1021.5,-277"/>
<text text-anchor="start" x="1029.5" y="-295" font-family="Helvetica,sans-Serif" font-size="10.00">ObservableList&lt; view.Variable</text>
<text text-anchor="middle" x="1101" y="-284" font-family="Helvetica,sans-Serif" font-size="10.00">View &gt;</text>
</g>
<!-- Node22&#45;&gt;Node15 -->
<g id="edge26" class="edge"><title>Node22&#45;&gt;Node15</title>
<path fill="none" stroke="#9a32cd" stroke-dasharray="5,2" d="M1191.06,-286.393C1239.72,-283.329 1297.43,-279.695 1334.37,-277.37"/>
<polygon fill="#9a32cd" stroke="#9a32cd" points="1190.58,-282.916 1180.82,-287.037 1191.02,-289.902 1190.58,-282.916"/>
<text text-anchor="middle" x="1261" y="-289" font-family="Helvetica,sans-Serif" font-size="10.00"> variablesList</text>
</g>
<!-- Node23 -->
<g id="node23" class="node"><title>Node23</title>
<polygon fill="white" stroke="#bfbfbf" points="1032,-238.5 1032,-257.5 1170,-257.5 1170,-238.5 1032,-238.5"/>
<text text-anchor="middle" x="1101" y="-245.5" font-family="Helvetica,sans-Serif" font-size="10.00">ObservableList&lt; String &gt;</text>
</g>
<!-- Node23&#45;&gt;Node15 -->
<g id="edge27" class="edge"><title>Node23&#45;&gt;Node15</title>
<path fill="none" stroke="#9a32cd" stroke-dasharray="5,2" d="M1180.34,-244.551C1220.09,-244.235 1268.94,-246.048 1312,-254 1324.91,-256.385 1338.79,-261.09 1349.94,-265.444"/>
<polygon fill="#9a32cd" stroke="#9a32cd" points="1180.13,-241.054 1170.18,-244.68 1180.22,-248.053 1180.13,-241.054"/>
<text text-anchor="middle" x="1261" y="-268" font-family="Helvetica,sans-Serif" font-size="10.00"> commandItems</text>
<text text-anchor="middle" x="1261" y="-257" font-family="Helvetica,sans-Serif" font-size="10.00">historyItems</text>
</g>
<!-- Node24 -->
<g id="node24" class="node"><title>Node24</title>
<polygon fill="white" stroke="#bfbfbf" points="1048,-200.5 1048,-219.5 1154,-219.5 1154,-200.5 1048,-200.5"/>
<text text-anchor="middle" x="1101" y="-207.5" font-family="Helvetica,sans-Serif" font-size="10.00">ListView&lt; String &gt;</text>
</g>
<!-- Node24&#45;&gt;Node15 -->
<g id="edge28" class="edge"><title>Node24&#45;&gt;Node15</title>
<path fill="none" stroke="#9a32cd" stroke-dasharray="5,2" d="M1164.3,-207.203C1207.19,-207.348 1264.73,-211.707 1312,-230 1332.16,-237.801 1351.4,-254.406 1362.44,-265.118"/>
<polygon fill="#9a32cd" stroke="#9a32cd" points="1164.27,-203.703 1154.28,-207.245 1164.3,-210.703 1164.27,-203.703"/>
<text text-anchor="middle" x="1261" y="-233" font-family="Helvetica,sans-Serif" font-size="10.00"> historyList</text>
</g>
<!-- Node25 -->
<g id="node25" class="node"><title>Node25</title>
<polygon fill="white" stroke="#bfbfbf" points="1341.5,-368.5 1341.5,-387.5 1404.5,-387.5 1404.5,-368.5 1341.5,-368.5"/>
<text text-anchor="middle" x="1373" y="-375.5" font-family="Helvetica,sans-Serif" font-size="10.00">Rectangle</text>
</g>
<!-- Node25&#45;&gt;Node10 -->
<g id="edge29" class="edge"><title>Node25&#45;&gt;Node10</title>
<path fill="none" stroke="#9a32cd" stroke-dasharray="5,2" d="M1414.68,-384.84C1442,-389.95 1478.6,-397.805 1510,-408 1524.63,-412.749 1540.52,-419.708 1552.55,-425.371"/>
<polygon fill="#9a32cd" stroke="#9a32cd" points="1415.17,-381.37 1404.7,-383.017 1413.91,-388.256 1415.17,-381.37"/>
<text text-anchor="middle" x="1472" y="-411" font-family="Helvetica,sans-Serif" font-size="10.00"> myBackground</text>
</g>
<!-- Node26 -->
<g id="node26" class="node"><title>Node26</title>
<polygon fill="white" stroke="#bfbfbf" points="186.5,-228.5 186.5,-247.5 231.5,-247.5 231.5,-228.5 186.5,-228.5"/>
<text text-anchor="middle" x="209" y="-235.5" font-family="Helvetica,sans-Serif" font-size="10.00">Stage</text>
</g>
<!-- Node26&#45;&gt;Node9 -->
<g id="edge30" class="edge"><title>Node26&#45;&gt;Node9</title>
<path fill="none" stroke="#9a32cd" stroke-dasharray="5,2" d="M241.78,-235.034C284.271,-230.609 361.699,-220.93 426,-204 452.164,-197.111 481.102,-185.711 500.296,-177.586"/>
<polygon fill="#9a32cd" stroke="#9a32cd" points="241.357,-231.559 231.76,-236.048 242.061,-238.524 241.357,-231.559"/>
<text text-anchor="middle" x="370" y="-229" font-family="Helvetica,sans-Serif" font-size="10.00"> myStage</text>
</g>
<!-- Node27 -->
<g id="node27" class="node"><title>Node27</title>
<polygon fill="white" stroke="#bfbfbf" points="162.5,-190.5 162.5,-209.5 255.5,-209.5 255.5,-190.5 162.5,-190.5"/>
<text text-anchor="middle" x="209" y="-197.5" font-family="Helvetica,sans-Serif" font-size="10.00">ResourceBundle</text>
</g>
<!-- Node27&#45;&gt;Node9 -->
<g id="edge31" class="edge"><title>Node27&#45;&gt;Node9</title>
<path fill="none" stroke="#9a32cd" stroke-dasharray="5,2" d="M265.841,-194.273C326.364,-188.065 421.735,-178.284 477.44,-172.57"/>
<polygon fill="#9a32cd" stroke="#9a32cd" points="265.292,-190.811 255.702,-195.313 266.007,-197.774 265.292,-190.811"/>
<text text-anchor="middle" x="370" y="-192" font-family="Helvetica,sans-Serif" font-size="10.00"> myResources</text>
</g>
<!-- Node28&#45;&gt;Node9 -->
<g id="edge32" class="edge"><title>Node28&#45;&gt;Node9</title>
<path fill="none" stroke="#9a32cd" stroke-dasharray="5,2" d="M1553.39,-107.252C1520.02,-79.0189 1446.68,-25 1374,-25 838,-25 838,-25 838,-25 708.914,-25 574.649,-126.333 535.398,-158.395"/>
<polygon fill="#9a32cd" stroke="#9a32cd" points="1551.5,-110.244 1561.35,-114.146 1556.08,-104.953 1551.5,-110.244"/>
<text text-anchor="middle" x="1101" y="-28" font-family="Helvetica,sans-Serif" font-size="10.00"> myEditor</text>
</g>
<!-- Node29 -->
<g id="node29" class="node"><title>Node29</title>
<polygon fill="white" stroke="#bfbfbf" points="1352,-53.5 1352,-72.5 1394,-72.5 1394,-53.5 1352,-53.5"/>
<text text-anchor="middle" x="1373" y="-60.5" font-family="Helvetica,sans-Serif" font-size="10.00">HBox</text>
</g>
<!-- Node29&#45;&gt;Node28 -->
<g id="edge33" class="edge"><title>Node29&#45;&gt;Node28</title>
<path fill="none" stroke="midnightblue" d="M1403.76,-72.1696C1440.68,-83.544 1503.33,-102.844 1540.87,-114.41"/>
<polygon fill="midnightblue" stroke="midnightblue" points="1404.66,-68.7842 1394.07,-69.1847 1402.6,-75.4739 1404.66,-68.7842"/>
</g>
<!-- Node30 -->
<g id="node30" class="node"><title>Node30</title>
<polygon fill="white" stroke="#bfbfbf" points="1348.5,-176.5 1348.5,-195.5 1397.5,-195.5 1397.5,-176.5 1348.5,-176.5"/>
<text text-anchor="middle" x="1373" y="-183.5" font-family="Helvetica,sans-Serif" font-size="10.00">Button</text>
</g>
<!-- Node30&#45;&gt;Node28 -->
<g id="edge34" class="edge"><title>Node30&#45;&gt;Node28</title>
<path fill="none" stroke="#9a32cd" stroke-dasharray="5,2" d="M1407.89,-183.149C1435.96,-179.998 1476.53,-173.596 1510,-161 1528.07,-154.201 1546.83,-142.193 1558.92,-133.703"/>
<polygon fill="#9a32cd" stroke="#9a32cd" points="1407.36,-179.685 1397.78,-184.204 1408.09,-186.647 1407.36,-179.685"/>
<text text-anchor="middle" x="1472" y="-183" font-family="Helvetica,sans-Serif" font-size="10.00"> runButton</text>
</g>
<!-- Node31 -->
<g id="node31" class="node"><title>Node31</title>
<polygon fill="white" stroke="#bfbfbf" points="1344,-91.5 1344,-110.5 1402,-110.5 1402,-91.5 1344,-91.5"/>
<text text-anchor="middle" x="1373" y="-98.5" font-family="Helvetica,sans-Serif" font-size="10.00">TextArea</text>
</g>
<!-- Node31&#45;&gt;Node28 -->
<g id="edge36" class="edge"><title>Node31&#45;&gt;Node28</title>
<path fill="none" stroke="#9a32cd" stroke-dasharray="5,2" d="M1412.74,-105.5C1449.67,-109.79 1504.66,-116.178 1539.4,-120.213"/>
<polygon fill="#9a32cd" stroke="#9a32cd" points="1412.71,-101.973 1402.37,-104.295 1411.9,-108.926 1412.71,-101.973"/>
<text text-anchor="middle" x="1472" y="-120" font-family="Helvetica,sans-Serif" font-size="10.00"> textEditor</text>
</g>
<!-- Node32 -->
<g id="node32" class="node"><title>Node32</title>
<polygon fill="white" stroke="#bfbfbf" points="149.5,-152.5 149.5,-171.5 268.5,-171.5 268.5,-152.5 149.5,-152.5"/>
<text text-anchor="middle" x="209" y="-159.5" font-family="Helvetica,sans-Serif" font-size="10.00">Map&lt; String, Node &gt;</text>
</g>
<!-- Node32&#45;&gt;Node9 -->
<g id="edge38" class="edge"><title>Node32&#45;&gt;Node9</title>
<path fill="none" stroke="#9a32cd" stroke-dasharray="5,2" d="M278.902,-161.487C321.329,-161.378 376.825,-161.606 426,-163 442.683,-163.473 460.98,-164.339 477.086,-165.219"/>
<polygon fill="#9a32cd" stroke="#9a32cd" points="278.674,-157.988 268.685,-161.521 278.697,-164.988 278.674,-157.988"/>
<text text-anchor="middle" x="370" y="-166" font-family="Helvetica,sans-Serif" font-size="10.00"> variables</text>
</g>
<!-- Node33 -->
<g id="node33" class="node"><title>Node33</title>
<polygon fill="white" stroke="#bfbfbf" points="168.5,-114.5 168.5,-133.5 249.5,-133.5 249.5,-114.5 168.5,-114.5"/>
<text text-anchor="middle" x="209" y="-121.5" font-family="Helvetica,sans-Serif" font-size="10.00">Dimension2D</text>
</g>
<!-- Node33&#45;&gt;Node9 -->
<g id="edge40" class="edge"><title>Node33&#45;&gt;Node9</title>
<path fill="none" stroke="#9a32cd" stroke-dasharray="5,2" d="M259.714,-127.741C303.626,-131.414 369.308,-137.809 426,-147 444.862,-150.058 465.595,-154.46 482.951,-158.444"/>
<polygon fill="#9a32cd" stroke="#9a32cd" points="259.841,-124.239 249.588,-126.91 259.268,-131.216 259.841,-124.239"/>
<text text-anchor="middle" x="370" y="-150" font-family="Helvetica,sans-Serif" font-size="10.00"> myDimensions</text>
</g>
<!-- Node34 -->
<g id="node34" class="node"><title>Node34</title>
<g id="a_node34"><a xlink:href="../../de/d0a/classview_1_1_drawer.html" target="_top" xlink:title="view.Drawer">
<polygon fill="white" stroke="black" points="172.5,-76.5 172.5,-95.5 245.5,-95.5 245.5,-76.5 172.5,-76.5"/>
<text text-anchor="middle" x="209" y="-83.5" font-family="Helvetica,sans-Serif" font-size="10.00">view.Drawer</text>
</a>
</g>
</g>
<!-- Node34&#45;&gt;Node9 -->
<g id="edge42" class="edge"><title>Node34&#45;&gt;Node9</title>
<path fill="none" stroke="#9a32cd" stroke-dasharray="5,2" d="M255.808,-88.3638C300.234,-91.6781 369.081,-99.5393 426,-118 456.566,-127.914 489.132,-146.892 507.387,-158.403"/>
<polygon fill="#9a32cd" stroke="#9a32cd" points="255.833,-84.857 245.613,-87.6512 255.345,-91.84 255.833,-84.857"/>
<text text-anchor="middle" x="370" y="-121" font-family="Helvetica,sans-Serif" font-size="10.00"> drawer</text>
</g>
<!-- Node35 -->
<g id="node35" class="node"><title>Node35</title>
<polygon fill="white" stroke="#bfbfbf" points="0.5,-76.5 0.5,-95.5 41.5,-95.5 41.5,-76.5 0.5,-76.5"/>
<text text-anchor="middle" x="21" y="-83.5" font-family="Helvetica,sans-Serif" font-size="10.00">Color</text>
</g>
<!-- Node35&#45;&gt;Node34 -->
<g id="edge43" class="edge"><title>Node35&#45;&gt;Node34</title>
<path fill="none" stroke="#9a32cd" stroke-dasharray="5,2" d="M51.8575,-86C84.6426,-86 137.265,-86 172.23,-86"/>
<polygon fill="#9a32cd" stroke="#9a32cd" points="51.5537,-82.5001 41.5537,-86 51.5537,-89.5001 51.5537,-82.5001"/>
<text text-anchor="middle" x="82" y="-89" font-family="Helvetica,sans-Serif" font-size="10.00"> myColor</text>
</g>
<!-- Node36 -->
<g id="node36" class="node"><title>Node36</title>
<polygon fill="white" stroke="#bfbfbf" points="179.5,-38.5 179.5,-57.5 238.5,-57.5 238.5,-38.5 179.5,-38.5"/>
<text text-anchor="middle" x="209" y="-45.5" font-family="Helvetica,sans-Serif" font-size="10.00">GridPane</text>
</g>
<!-- Node36&#45;&gt;Node9 -->
<g id="edge44" class="edge"><title>Node36&#45;&gt;Node9</title>
<path fill="none" stroke="#9a32cd" stroke-dasharray="5,2" d="M248.988,-47.0386C293.834,-47.4174 368.65,-52.6839 426,-80 465.6,-98.8616 500.312,-139.673 514.803,-158.334"/>
<polygon fill="#9a32cd" stroke="#9a32cd" points="248.806,-43.5386 238.804,-47.0328 248.802,-50.5386 248.806,-43.5386"/>
<text text-anchor="middle" x="370" y="-83" font-family="Helvetica,sans-Serif" font-size="10.00"> myRoot</text>
</g>
<!-- Node37 -->
<g id="node37" class="node"><title>Node37</title>
<polygon fill="white" stroke="#bfbfbf" points="186,-0.5 186,-19.5 232,-19.5 232,-0.5 186,-0.5"/>
<text text-anchor="middle" x="209" y="-7.5" font-family="Helvetica,sans-Serif" font-size="10.00">Group</text>
</g>
<!-- Node37&#45;&gt;Node9 -->
<g id="edge46" class="edge"><title>Node37&#45;&gt;Node9</title>
<path fill="none" stroke="#9a32cd" stroke-dasharray="5,2" d="M242.255,-6.46414C286.807,-3.17387 368.21,-3.03343 426,-37 476.075,-66.4319 507.723,-133.322 518.175,-158.329"/>
<polygon fill="#9a32cd" stroke="#9a32cd" points="241.692,-2.99905 232.021,-7.3249 242.279,-9.97442 241.692,-2.99905"/>
<text text-anchor="middle" x="370" y="-40" font-family="Helvetica,sans-Serif" font-size="10.00"> lines</text>
</g>
</g>
</svg>
