<?xml version="1.0" encoding="UTF-8" standalone="no"?>
<!DOCTYPE svg PUBLIC "-//W3C//DTD SVG 1.1//EN"
 "http://www.w3.org/Graphics/SVG/1.1/DTD/svg11.dtd">
<!-- Generated by graphviz version 2.36.0 (20140111.2315)
 -->
<!-- Title: model.instructions.StringInstruction Pages: 1 -->
<!--zoomable 666 -->
<svg id="main" version="1.1" xmlns="http://www.w3.org/2000/svg" xmlns:xlink="http://www.w3.org/1999/xlink" xml:space="preserve" onload="init(evt)">
<style type="text/css"><![CDATA[
.edge:hover path { stroke: red; }
.edge:hover polygon { stroke: red; fill: red; }
]]></style>
<script type="text/javascript"><![CDATA[
var edges = document.getElementsByTagName('g');
if (edges && edges.length) {
  for (var i=0;i<edges.length;i++) {
    if (edges[i].id.substr(0,4)=='edge') {
      edges[i].setAttribute('class','edge');
    }
  }
}
]]></script>
        <defs>
                <circle id="rim" cx="0" cy="0" r="7"/>
                <circle id="rim2" cx="0" cy="0" r="3.5"/>
                <g id="zoomPlus">
                        <use xlink:href="#rim" fill="#404040">
                                <set attributeName="fill" to="#808080" begin="zoomplus.mouseover" end="zoomplus.mouseout"/>
                        </use>
                        <path d="M-4,0h8M0,-4v8" fill="none" stroke="white" stroke-width="1.5" pointer-events="none"/>
                </g>
                <g id="zoomMin">
                        <use xlink:href="#rim" fill="#404040">
                                <set attributeName="fill" to="#808080" begin="zoomminus.mouseover" end="zoomminus.mouseout"/>
                        </use>
                        <path d="M-4,0h8" fill="none" stroke="white" stroke-width="1.5" pointer-events="none"/>
                </g>
                <g id="dirArrow">
                        <path fill="none" stroke="white" stroke-width="1.5" d="M0,-3.0v7 M-2.5,-0.5L0,-3.0L2.5,-0.5"/>
                </g>
               <g id="resetDef">
                       <use xlink:href="#rim2" fill="#404040">
                               <set attributeName="fill" to="#808080" begin="reset.mouseover" end="reset.mouseout"/>
                       </use>
               </g>
        </defs>

<script type="text/javascript">
var viewWidth = 1478;
var viewHeight = 666;
var sectionId = 'dynsection-1';
</script>
<script xlink:href="../../svgpan.js"/>
<svg id="graph" class="graph">
<g id="viewport">
<title>model.instructions.StringInstruction</title>
<polygon fill="white" stroke="none" points="-4,4 -4,-662 1474,-662 1474,4 -4,4"/>
<!-- Node1 -->
<g id="node1" class="node"><title>Node1</title>
<polygon fill="#bfbfbf" stroke="black" points="950.5,-27 950.5,-57 1087.5,-57 1087.5,-27 950.5,-27"/>
<text text-anchor="start" x="958.5" y="-45" font-family="Helvetica,sans-Serif" font-size="10.00">model.instructions.String</text>
<text text-anchor="middle" x="1019" y="-34" font-family="Helvetica,sans-Serif" font-size="10.00">Instruction</text>
</g>
<!-- Node2 -->
<g id="node2" class="node"><title>Node2</title>
<g id="a_node2"><a xlink:href="../../d1/dea/classmodel_1_1instructions_1_1_instruction.html" target="_top" xlink:title="model.instructions.Instruction">
<polygon fill="white" stroke="black" points="646,-32.5 646,-51.5 804,-51.5 804,-32.5 646,-32.5"/>
<text text-anchor="middle" x="725" y="-39.5" font-family="Helvetica,sans-Serif" font-size="10.00">model.instructions.Instruction</text>
</a>
</g>
</g>
<!-- Node2&#45;&gt;Node1 -->
<g id="edge1" class="edge"><title>Node2&#45;&gt;Node1</title>
<path fill="none" stroke="midnightblue" d="M814.307,-42C858.024,-42 909.964,-42 950.453,-42"/>
<polygon fill="midnightblue" stroke="midnightblue" points="814.251,-38.5001 804.251,-42 814.251,-45.5001 814.251,-38.5001"/>
</g>
<!-- Node3 -->
<g id="node3" class="node"><title>Node3</title>
<polygon fill="white" stroke="#bfbfbf" points="57,-162.5 57,-181.5 117,-181.5 117,-162.5 57,-162.5"/>
<text text-anchor="middle" x="87" y="-169.5" font-family="Helvetica,sans-Serif" font-size="10.00">Observer</text>
</g>
<!-- Node3&#45;&gt;Node2 -->
<g id="edge2" class="edge"><title>Node3&#45;&gt;Node2</title>
<path fill="none" stroke="midnightblue" d="M127.164,-164.776C146.648,-161.2 170.559,-156.837 192,-153 382.101,-118.98 440.709,-149.765 620,-78 628.926,-74.4271 629.261,-70.0088 638,-66 650.962,-60.0541 665.715,-55.2822 679.297,-51.6084"/>
<polygon fill="midnightblue" stroke="midnightblue" points="126.331,-161.37 117.128,-166.62 127.596,-168.255 126.331,-161.37"/>
</g>
<!-- Node9 -->
<g id="node9" class="node"><title>Node9</title>
<g id="a_node9"><a xlink:href="../../d6/de7/classview_1_1_s_logo_view.html" target="_top" xlink:title="view.SLogoView">
<polygon fill="white" stroke="black" points="355.5,-357.5 355.5,-376.5 446.5,-376.5 446.5,-357.5 355.5,-357.5"/>
<text text-anchor="middle" x="401" y="-364.5" font-family="Helvetica,sans-Serif" font-size="10.00">view.SLogoView</text>
</a>
</g>
</g>
<!-- Node3&#45;&gt;Node9 -->
<g id="edge9" class="edge"><title>Node3&#45;&gt;Node9</title>
<path fill="none" stroke="midnightblue" d="M112.094,-187.059C173.35,-225.344 333.775,-325.609 384.434,-357.272"/>
<polygon fill="midnightblue" stroke="midnightblue" points="113.807,-184.002 103.472,-181.67 110.097,-189.938 113.807,-184.002"/>
</g>
<!-- Node20 -->
<g id="node20" class="node"><title>Node20</title>
<g id="a_node20"><a xlink:href="../../dc/df5/classmodel_1_1_parser.html" target="_top" xlink:title="model.Parser">
<polygon fill="white" stroke="black" points="685,-229.5 685,-248.5 765,-248.5 765,-229.5 685,-229.5"/>
<text text-anchor="middle" x="725" y="-236.5" font-family="Helvetica,sans-Serif" font-size="10.00">model.Parser</text>
</a>
</g>
</g>
<!-- Node3&#45;&gt;Node20 -->
<g id="edge22" class="edge"><title>Node3&#45;&gt;Node20</title>
<path fill="none" stroke="midnightblue" d="M127.097,-167.23C216.225,-157.602 440.619,-140.424 620,-186 654.764,-194.833 691.173,-216.788 710.333,-229.497"/>
<polygon fill="midnightblue" stroke="midnightblue" points="126.71,-163.752 117.158,-168.334 127.483,-170.709 126.71,-163.752"/>
</g>
<!-- Node4 -->
<g id="node4" class="node"><title>Node4</title>
<g id="a_node4"><a xlink:href="../../d1/dca/classmodel_1_1_execution_environment.html" target="_top" xlink:title="model.ExecutionEnvironment">
<polygon fill="white" stroke="black" points="322.5,-63.5 322.5,-82.5 479.5,-82.5 479.5,-63.5 322.5,-63.5"/>
<text text-anchor="middle" x="401" y="-70.5" font-family="Helvetica,sans-Serif" font-size="10.00">model.ExecutionEnvironment</text>
</a>
</g>
</g>
<!-- Node4&#45;&gt;Node2 -->
<g id="edge3" class="edge"><title>Node4&#45;&gt;Node2</title>
<path fill="none" stroke="#9a32cd" stroke-dasharray="5,2" d="M489.726,-63.8216C492.516,-63.5426 495.28,-63.2681 498,-63 547.117,-58.16 602.271,-53.0292 645.797,-49.0507"/>
<polygon fill="#9a32cd" stroke="#9a32cd" points="489.136,-60.3632 479.538,-64.8483 489.838,-67.328 489.136,-60.3632"/>
<text text-anchor="middle" x="559" y="-66" font-family="Helvetica,sans-Serif" font-size="10.00"> myEnvironment</text>
</g>
<!-- Node15 -->
<g id="node15" class="node"><title>Node15</title>
<g id="a_node15"><a xlink:href="../../d1/dc7/classview_1_1_side_bar.html" target="_top" xlink:title="view.SideBar">
<polygon fill="white" stroke="black" points="980.5,-358.5 980.5,-377.5 1057.5,-377.5 1057.5,-358.5 980.5,-358.5"/>
<text text-anchor="middle" x="1019" y="-365.5" font-family="Helvetica,sans-Serif" font-size="10.00">view.SideBar</text>
</a>
</g>
</g>
<!-- Node4&#45;&gt;Node15 -->
<g id="edge19" class="edge"><title>Node4&#45;&gt;Node15</title>
<path fill="none" stroke="#9a32cd" stroke-dasharray="5,2" d="M489.672,-80.4259C529.765,-84.9009 577.661,-91.7721 620,-102 763.066,-136.56 838.503,-99.3314 932,-213 966.538,-254.99 918.082,-289.985 950,-334 958.291,-345.433 971.531,-353.249 984.134,-358.473"/>
<polygon fill="#9a32cd" stroke="#9a32cd" points="489.975,-76.9382 479.656,-79.3392 489.22,-83.8974 489.975,-76.9382"/>
<text text-anchor="middle" x="725" y="-135" font-family="Helvetica,sans-Serif" font-size="10.00"> myEnvironment</text>
</g>
<!-- Node4&#45;&gt;Node20 -->
<g id="edge24" class="edge"><title>Node4&#45;&gt;Node20</title>
<path fill="none" stroke="#9a32cd" stroke-dasharray="5,2" d="M442.199,-85.6956C500.753,-104.332 604.273,-137.875 620,-147 660.242,-170.349 698.918,-210.783 715.516,-229.269"/>
<polygon fill="#9a32cd" stroke="#9a32cd" points="443.104,-82.3109 432.514,-82.6185 440.985,-88.9823 443.104,-82.3109"/>
<text text-anchor="middle" x="559" y="-150" font-family="Helvetica,sans-Serif" font-size="10.00"> myExecutionParameters</text>
</g>
<!-- Node5 -->
<g id="node5" class="node"><title>Node5</title>
<polygon fill="white" stroke="#bfbfbf" points="51.5,-0.5 51.5,-19.5 122.5,-19.5 122.5,-0.5 51.5,-0.5"/>
<text text-anchor="middle" x="87" y="-7.5" font-family="Helvetica,sans-Serif" font-size="10.00">Observable</text>
</g>
<!-- Node5&#45;&gt;Node4 -->
<g id="edge4" class="edge"><title>Node5&#45;&gt;Node4</title>
<path fill="none" stroke="midnightblue" d="M132.829,-18.8037C176.532,-27.4147 244.861,-40.9534 304,-53 320.515,-56.3641 338.614,-60.1173 354.601,-63.4556"/>
<polygon fill="midnightblue" stroke="midnightblue" points="133.299,-15.329 122.811,-16.8311 131.946,-22.1971 133.299,-15.329"/>
</g>
<!-- Node6 -->
<g id="node6" class="node"><title>Node6</title>
<polygon fill="white" stroke="#bfbfbf" points="0,-77 0,-107 174,-107 174,-77 0,-77"/>
<text text-anchor="start" x="8" y="-95" font-family="Helvetica,sans-Serif" font-size="10.00">Map&lt; String, model.instructions.</text>
<text text-anchor="middle" x="87" y="-84" font-family="Helvetica,sans-Serif" font-size="10.00">Instruction &gt;</text>
</g>
<!-- Node6&#45;&gt;Node4 -->
<g id="edge5" class="edge"><title>Node6&#45;&gt;Node4</title>
<path fill="none" stroke="#9a32cd" stroke-dasharray="5,2" d="M184.305,-86.1352C228.685,-83.4326 280.655,-80.2678 322.461,-77.7219"/>
<polygon fill="#9a32cd" stroke="#9a32cd" points="183.85,-82.6564 174.081,-86.7579 184.276,-89.6435 183.85,-82.6564"/>
<text text-anchor="middle" x="248" y="-89" font-family="Helvetica,sans-Serif" font-size="10.00"> myUserInstructionMap</text>
</g>
<!-- Node7 -->
<g id="node7" class="node"><title>Node7</title>
<polygon fill="white" stroke="#bfbfbf" points="23,-38.5 23,-57.5 151,-57.5 151,-38.5 23,-38.5"/>
<text text-anchor="middle" x="87" y="-45.5" font-family="Helvetica,sans-Serif" font-size="10.00">Map&lt; String, Double &gt;</text>
</g>
<!-- Node7&#45;&gt;Node4 -->
<g id="edge6" class="edge"><title>Node7&#45;&gt;Node4</title>
<path fill="none" stroke="#9a32cd" stroke-dasharray="5,2" d="M161.424,-53.6945C203.219,-56.9571 256.547,-61.1555 304,-65 310.001,-65.4862 316.213,-65.9939 322.457,-66.5073"/>
<polygon fill="#9a32cd" stroke="#9a32cd" points="161.573,-50.1956 151.331,-52.9073 161.029,-57.1744 161.573,-50.1956"/>
<text text-anchor="middle" x="248" y="-68" font-family="Helvetica,sans-Serif" font-size="10.00"> myVariableMap</text>
</g>
<!-- Node8 -->
<g id="node8" class="node"><title>Node8</title>
<polygon fill="white" stroke="#bfbfbf" points="333,-13 333,-43 469,-43 469,-13 333,-13"/>
<text text-anchor="start" x="341" y="-31" font-family="Helvetica,sans-Serif" font-size="10.00">List&lt; model.instructions.</text>
<text text-anchor="middle" x="401" y="-20" font-family="Helvetica,sans-Serif" font-size="10.00">Instruction &gt;</text>
</g>
<!-- Node8&#45;&gt;Node2 -->
<g id="edge7" class="edge"><title>Node8&#45;&gt;Node2</title>
<path fill="none" stroke="#9a32cd" stroke-dasharray="5,2" d="M479.43,-26.1043C521.123,-25.6509 573.419,-25.9927 620,-29 632.166,-29.7854 645.088,-31.0502 657.536,-32.4896"/>
<polygon fill="#9a32cd" stroke="#9a32cd" points="479.298,-22.6056 469.343,-26.2317 479.386,-29.6051 479.298,-22.6056"/>
<text text-anchor="middle" x="559" y="-32" font-family="Helvetica,sans-Serif" font-size="10.00"> myDependencies</text>
</g>
<!-- Node9&#45;&gt;Node2 -->
<g id="edge8" class="edge"><title>Node9&#45;&gt;Node2</title>
<path fill="none" stroke="#9a32cd" stroke-dasharray="5,2" d="M427.749,-351.952C445.142,-340.451 467.188,-323.021 480,-302 499.193,-270.51 475.113,-249.917 498,-221 535.379,-173.772 583.413,-209.844 620,-162 646.37,-127.517 608.665,-97.9985 638,-66 643.761,-59.7156 651.017,-55.0238 658.858,-51.5303"/>
<polygon fill="#9a32cd" stroke="#9a32cd" points="425.716,-349.097 419.151,-357.414 429.469,-355.006 425.716,-349.097"/>
<text text-anchor="middle" x="559" y="-224" font-family="Helvetica,sans-Serif" font-size="10.00"> myView</text>
</g>
<!-- Node9&#45;&gt;Node20 -->
<g id="edge26" class="edge"><title>Node9&#45;&gt;Node20</title>
<path fill="none" stroke="#9a32cd" stroke-dasharray="5,2" d="M446.28,-354.793C462.492,-350.502 481.021,-345.807 498,-342 551.841,-329.929 578.629,-355.51 620,-319 639.601,-301.701 619.159,-281.123 638,-263 650.512,-250.965 668.537,-244.866 684.856,-241.814"/>
<polygon fill="#9a32cd" stroke="#9a32cd" points="445.278,-351.437 436.52,-357.4 447.085,-358.2 445.278,-351.437"/>
<text text-anchor="middle" x="559" y="-345" font-family="Helvetica,sans-Serif" font-size="10.00"> mySLogoView</text>
</g>
<!-- Node10 -->
<g id="node10" class="node"><title>Node10</title>
<g id="a_node10"><a xlink:href="../../da/d64/classview_1_1_workspace.html" target="_top" xlink:title="view.Workspace">
<polygon fill="white" stroke="black" points="1200,-516.5 1200,-535.5 1290,-535.5 1290,-516.5 1200,-516.5"/>
<text text-anchor="middle" x="1245" y="-523.5" font-family="Helvetica,sans-Serif" font-size="10.00">view.Workspace</text>
</a>
</g>
</g>
<!-- Node10&#45;&gt;Node9 -->
<g id="edge10" class="edge"><title>Node10&#45;&gt;Node9</title>
<path fill="none" stroke="#9a32cd" stroke-dasharray="5,2" d="M1230.99,-543.696C1219.63,-557.848 1201.88,-577.07 1182,-588 1144.49,-608.621 1130.55,-604.305 1088,-609 889.207,-630.935 822.776,-685.537 638,-609 627.547,-604.67 629.899,-596.479 620,-591 571.326,-564.061 541.589,-597.567 498,-563 434.171,-512.382 409.842,-408.54 403.687,-376.577"/>
<polygon fill="#9a32cd" stroke="#9a32cd" points="1233.86,-545.712 1237.2,-535.659 1228.32,-541.433 1233.86,-545.712"/>
<text text-anchor="middle" x="881" y="-650" font-family="Helvetica,sans-Serif" font-size="10.00"> myWorkspace</text>
</g>
<!-- Node32 -->
<g id="node32" class="node"><title>Node32</title>
<g id="a_node32"><a xlink:href="../../de/d0a/classview_1_1_drawer.html" target="_top" xlink:title="view.Drawer">
<polygon fill="white" stroke="black" points="1396.5,-415.5 1396.5,-434.5 1469.5,-434.5 1469.5,-415.5 1396.5,-415.5"/>
<text text-anchor="middle" x="1433" y="-422.5" font-family="Helvetica,sans-Serif" font-size="10.00">view.Drawer</text>
</a>
</g>
</g>
<!-- Node10&#45;&gt;Node32 -->
<g id="edge41" class="edge"><title>Node10&#45;&gt;Node32</title>
<path fill="none" stroke="#9a32cd" stroke-dasharray="5,2" d="M1272.58,-511.567C1311.17,-490.613 1381.66,-452.333 1414.41,-434.55"/>
<polygon fill="#9a32cd" stroke="#9a32cd" points="1270.62,-508.65 1263.5,-516.498 1273.96,-514.802 1270.62,-508.65"/>
<text text-anchor="middle" x="1343" y="-493" font-family="Helvetica,sans-Serif" font-size="10.00"> myWorkspace</text>
</g>
<!-- Node11 -->
<g id="node11" class="node"><title>Node11</title>
<polygon fill="white" stroke="#bfbfbf" points="985.5,-542.5 985.5,-561.5 1052.5,-561.5 1052.5,-542.5 985.5,-542.5"/>
<text text-anchor="middle" x="1019" y="-549.5" font-family="Helvetica,sans-Serif" font-size="10.00">StackPane</text>
</g>
<!-- Node11&#45;&gt;Node10 -->
<g id="edge11" class="edge"><title>Node11&#45;&gt;Node10</title>
<path fill="none" stroke="midnightblue" d="M1062.74,-547.981C1095.43,-544.793 1141.61,-540.048 1182,-535 1187.83,-534.271 1193.96,-533.45 1200,-532.607"/>
<polygon fill="midnightblue" stroke="midnightblue" points="1062.24,-544.513 1052.62,-548.959 1062.91,-551.48 1062.24,-544.513"/>
</g>
<!-- Node12 -->
<g id="node12" class="node"><title>Node12</title>
<g id="a_node12"><a xlink:href="../../d8/df7/classview_1_1_turtle_view.html" target="_top" xlink:title="view.TurtleView">
<polygon fill="white" stroke="black" points="976,-580.5 976,-599.5 1062,-599.5 1062,-580.5 976,-580.5"/>
<text text-anchor="middle" x="1019" y="-587.5" font-family="Helvetica,sans-Serif" font-size="10.00">view.TurtleView</text>
</a>
</g>
</g>
<!-- Node12&#45;&gt;Node10 -->
<g id="edge12" class="edge"><title>Node12&#45;&gt;Node10</title>
<path fill="none" stroke="#9a32cd" stroke-dasharray="5,2" d="M1072.26,-580.635C1104.33,-574.257 1146.02,-564.829 1182,-553 1196.61,-548.197 1212.5,-541.239 1224.54,-535.59"/>
<polygon fill="#9a32cd" stroke="#9a32cd" points="1071.35,-577.247 1062.2,-582.598 1072.69,-584.117 1071.35,-577.247"/>
<text text-anchor="middle" x="1144" y="-576" font-family="Helvetica,sans-Serif" font-size="10.00"> myActiveTurtle</text>
</g>
<!-- Node13 -->
<g id="node13" class="node"><title>Node13</title>
<polygon fill="white" stroke="#bfbfbf" points="691,-580.5 691,-599.5 759,-599.5 759,-580.5 691,-580.5"/>
<text text-anchor="middle" x="725" y="-587.5" font-family="Helvetica,sans-Serif" font-size="10.00">ImageView</text>
</g>
<!-- Node13&#45;&gt;Node12 -->
<g id="edge13" class="edge"><title>Node13&#45;&gt;Node12</title>
<path fill="none" stroke="midnightblue" d="M769.448,-590C825.092,-590 920.884,-590 975.88,-590"/>
<polygon fill="midnightblue" stroke="midnightblue" points="769.212,-586.5 759.212,-590 769.212,-593.5 769.212,-586.5"/>
</g>
<!-- Node14 -->
<g id="node14" class="node"><title>Node14</title>
<polygon fill="white" stroke="#bfbfbf" points="951,-493 951,-523 1087,-523 1087,-493 951,-493"/>
<text text-anchor="start" x="959" y="-511" font-family="Helvetica,sans-Serif" font-size="10.00">Map&lt; Integer, view.Turtle</text>
<text text-anchor="middle" x="1019" y="-500" font-family="Helvetica,sans-Serif" font-size="10.00">View &gt;</text>
</g>
<!-- Node14&#45;&gt;Node10 -->
<g id="edge14" class="edge"><title>Node14&#45;&gt;Node10</title>
<path fill="none" stroke="#9a32cd" stroke-dasharray="5,2" d="M1097.21,-514.204C1131.5,-516.96 1170.62,-520.103 1199.85,-522.452"/>
<polygon fill="#9a32cd" stroke="#9a32cd" points="1097.46,-510.713 1087.21,-513.401 1096.89,-517.69 1097.46,-510.713"/>
<text text-anchor="middle" x="1144" y="-523" font-family="Helvetica,sans-Serif" font-size="10.00"> myTurtles</text>
</g>
<!-- Node15&#45;&gt;Node9 -->
<g id="edge43" class="edge"><title>Node15&#45;&gt;Node9</title>
<path fill="none" stroke="#9a32cd" stroke-dasharray="5,2" d="M989.211,-381.981C972.835,-389.266 951.715,-397.56 932,-402 750.504,-442.878 525.905,-397.587 438.864,-376.556"/>
<polygon fill="#9a32cd" stroke="#9a32cd" points="991.103,-384.965 998.739,-377.62 988.19,-378.6 991.103,-384.965"/>
<text text-anchor="middle" x="725" y="-422" font-family="Helvetica,sans-Serif" font-size="10.00"> mySidebar</text>
</g>
<!-- Node15&#45;&gt;Node10 -->
<g id="edge15" class="edge"><title>Node15&#45;&gt;Node10</title>
<path fill="none" stroke="#9a32cd" stroke-dasharray="5,2" d="M1049.19,-382.159C1061.35,-388.279 1075.52,-395.701 1088,-403 1131.2,-428.266 1143.09,-433.524 1182,-465 1202.43,-481.525 1223.73,-503.767 1235.28,-516.32"/>
<polygon fill="#9a32cd" stroke="#9a32cd" points="1050.45,-378.877 1039.94,-377.557 1047.34,-385.145 1050.45,-378.877"/>
<text text-anchor="middle" x="1144" y="-468" font-family="Helvetica,sans-Serif" font-size="10.00"> mySidebar</text>
</g>
<!-- Node26 -->
<g id="node26" class="node"><title>Node26</title>
<g id="a_node26"><a xlink:href="../../da/dc8/classview_1_1_editor.html" target="_top" xlink:title="view.Editor">
<polygon fill="white" stroke="black" points="1211.5,-248.5 1211.5,-267.5 1278.5,-267.5 1278.5,-248.5 1211.5,-248.5"/>
<text text-anchor="middle" x="1245" y="-255.5" font-family="Helvetica,sans-Serif" font-size="10.00">view.Editor</text>
</a>
</g>
</g>
<!-- Node15&#45;&gt;Node26 -->
<g id="edge36" class="edge"><title>Node15&#45;&gt;Node26</title>
<path fill="none" stroke="#9a32cd" stroke-dasharray="5,2" d="M1067.55,-357.673C1101.05,-349.109 1146.15,-334.919 1182,-314 1203.8,-301.281 1224.61,-279.981 1235.7,-267.641"/>
<polygon fill="#9a32cd" stroke="#9a32cd" points="1066.41,-354.348 1057.55,-360.151 1068.1,-361.143 1066.41,-354.348"/>
<text text-anchor="middle" x="1144" y="-349" font-family="Helvetica,sans-Serif" font-size="10.00"> mySidebar</text>
</g>
<!-- Node16 -->
<g id="node16" class="node"><title>Node16</title>
<polygon fill="white" stroke="#bfbfbf" points="704.5,-504.5 704.5,-523.5 745.5,-523.5 745.5,-504.5 704.5,-504.5"/>
<text text-anchor="middle" x="725" y="-511.5" font-family="Helvetica,sans-Serif" font-size="10.00">VBox</text>
</g>
<!-- Node16&#45;&gt;Node15 -->
<g id="edge16" class="edge"><title>Node16&#45;&gt;Node15</title>
<path fill="none" stroke="midnightblue" d="M755.633,-520.247C800.017,-527.72 883.691,-534.233 932,-490 961.122,-463.335 926.112,-434.44 950,-403 958.997,-391.159 973.137,-382.98 986.198,-377.525"/>
<polygon fill="midnightblue" stroke="midnightblue" points="756.219,-516.796 745.755,-518.456 754.97,-523.684 756.219,-516.796"/>
</g>
<!-- Node17 -->
<g id="node17" class="node"><title>Node17</title>
<polygon fill="white" stroke="#bfbfbf" points="638.5,-381.5 638.5,-400.5 811.5,-400.5 811.5,-381.5 638.5,-381.5"/>
<text text-anchor="middle" x="725" y="-388.5" font-family="Helvetica,sans-Serif" font-size="10.00">ObservableList&lt; view.Property &gt;</text>
</g>
<!-- Node17&#45;&gt;Node15 -->
<g id="edge17" class="edge"><title>Node17&#45;&gt;Node15</title>
<path fill="none" stroke="#9a32cd" stroke-dasharray="5,2" d="M821.692,-386.802C856.465,-384.914 896.044,-382.343 932,-379 947.887,-377.523 965.362,-375.383 980.386,-373.383"/>
<polygon fill="#9a32cd" stroke="#9a32cd" points="821.342,-383.316 811.542,-387.341 821.714,-390.306 821.342,-383.316"/>
<text text-anchor="middle" x="881" y="-390" font-family="Helvetica,sans-Serif" font-size="10.00"> variablesList</text>
</g>
<!-- Node18 -->
<g id="node18" class="node"><title>Node18</title>
<polygon fill="white" stroke="#bfbfbf" points="40.5,-504.5 40.5,-523.5 133.5,-523.5 133.5,-504.5 40.5,-504.5"/>
<text text-anchor="middle" x="87" y="-511.5" font-family="Helvetica,sans-Serif" font-size="10.00">ResourceBundle</text>
</g>
<!-- Node18&#45;&gt;Node9 -->
<g id="edge30" class="edge"><title>Node18&#45;&gt;Node9</title>
<path fill="none" stroke="#9a32cd" stroke-dasharray="5,2" d="M127.2,-501.213C171.274,-486.238 244.461,-459.557 304,-429 335.066,-413.056 368.791,-389.73 386.836,-376.709"/>
<polygon fill="#9a32cd" stroke="#9a32cd" points="125.811,-497.988 117.451,-504.496 128.045,-504.622 125.811,-497.988"/>
<text text-anchor="middle" x="248" y="-480" font-family="Helvetica,sans-Serif" font-size="10.00"> myResources</text>
</g>
<!-- Node18&#45;&gt;Node15 -->
<g id="edge18" class="edge"><title>Node18&#45;&gt;Node15</title>
<path fill="none" stroke="#9a32cd" stroke-dasharray="5,2" d="M143.642,-508.455C187.272,-504.078 249.517,-497.768 304,-492 583.231,-462.441 682.129,-551.094 932,-423 942.642,-417.545 940.528,-410.301 950,-403 963.566,-392.544 980.727,-383.738 994.415,-377.575"/>
<polygon fill="#9a32cd" stroke="#9a32cd" points="143.122,-504.99 133.521,-509.469 143.82,-511.955 143.122,-504.99"/>
<text text-anchor="middle" x="559" y="-497" font-family="Helvetica,sans-Serif" font-size="10.00"> myResources</text>
</g>
<!-- Node19 -->
<g id="node19" class="node"><title>Node19</title>
<polygon fill="white" stroke="#bfbfbf" points="651,-343.5 651,-362.5 799,-362.5 799,-343.5 651,-343.5"/>
<text text-anchor="middle" x="725" y="-350.5" font-family="Helvetica,sans-Serif" font-size="10.00">TableView&lt; view.Property &gt;</text>
</g>
<!-- Node19&#45;&gt;Node15 -->
<g id="edge20" class="edge"><title>Node19&#45;&gt;Node15</title>
<path fill="none" stroke="#9a32cd" stroke-dasharray="5,2" d="M809.4,-352.579C846.917,-352.915 891.728,-354.042 932,-357 947.912,-358.169 965.392,-360.256 980.413,-362.3"/>
<polygon fill="#9a32cd" stroke="#9a32cd" points="809.047,-349.077 799.022,-352.505 808.996,-356.077 809.047,-349.077"/>
<text text-anchor="middle" x="881" y="-371" font-family="Helvetica,sans-Serif" font-size="10.00"> turtlePropertiesTable</text>
<text text-anchor="middle" x="881" y="-360" font-family="Helvetica,sans-Serif" font-size="10.00">variablesTable</text>
</g>
<!-- Node20&#45;&gt;Node9 -->
<g id="edge38" class="edge"><title>Node20&#45;&gt;Node9</title>
<path fill="none" stroke="#9a32cd" stroke-dasharray="5,2" d="M674.765,-248.094C662.254,-251.631 649.194,-256.459 638,-263 628.231,-268.707 629.962,-275.638 620,-281 571.262,-307.232 549.316,-285.26 498,-306 465.229,-319.245 431.351,-343.791 413.936,-357.359"/>
<polygon fill="#9a32cd" stroke="#9a32cd" points="675.839,-251.431 684.635,-245.526 674.076,-244.657 675.839,-251.431"/>
<text text-anchor="middle" x="559" y="-309" font-family="Helvetica,sans-Serif" font-size="10.00"> myParser</text>
</g>
<!-- Node20&#45;&gt;Node15 -->
<g id="edge21" class="edge"><title>Node20&#45;&gt;Node15</title>
<path fill="none" stroke="#9a32cd" stroke-dasharray="5,2" d="M765.379,-226.81C810.995,-215.353 885.785,-205.166 932,-244 963.23,-270.243 925.239,-301.582 950,-334 958.653,-345.328 972.107,-353.15 984.772,-358.407"/>
<polygon fill="#9a32cd" stroke="#9a32cd" points="764.326,-223.468 755.554,-229.411 766.117,-230.235 764.326,-223.468"/>
<text text-anchor="middle" x="881" y="-247" font-family="Helvetica,sans-Serif" font-size="10.00"> myParser</text>
</g>
<!-- Node20&#45;&gt;Node26 -->
<g id="edge34" class="edge"><title>Node20&#45;&gt;Node26</title>
<path fill="none" stroke="#9a32cd" stroke-dasharray="5,2" d="M756.065,-225.515C818.163,-199.389 965.072,-146.511 1088,-171 1132.36,-179.837 1142.88,-187.289 1182,-210 1201.31,-221.21 1221.32,-237.756 1233.21,-248.201"/>
<polygon fill="#9a32cd" stroke="#9a32cd" points="754.659,-222.309 746.844,-229.462 757.414,-228.745 754.659,-222.309"/>
<text text-anchor="middle" x="1019" y="-174" font-family="Helvetica,sans-Serif" font-size="10.00"> myParser</text>
</g>
<!-- Node21 -->
<g id="node21" class="node"><title>Node21</title>
<polygon fill="white" stroke="#bfbfbf" points="345,-263 345,-293 457,-293 457,-263 345,-263"/>
<text text-anchor="start" x="353" y="-281" font-family="Helvetica,sans-Serif" font-size="10.00">List&lt; Entry&lt; String,</text>
<text text-anchor="middle" x="401" y="-270" font-family="Helvetica,sans-Serif" font-size="10.00"> Pattern &gt; &gt;</text>
</g>
<!-- Node21&#45;&gt;Node20 -->
<g id="edge23" class="edge"><title>Node21&#45;&gt;Node20</title>
<path fill="none" stroke="#9a32cd" stroke-dasharray="5,2" d="M467.519,-270.064C532.679,-262.172 630.507,-250.324 684.567,-243.776"/>
<polygon fill="#9a32cd" stroke="#9a32cd" points="466.86,-266.619 457.354,-271.296 467.702,-273.568 466.86,-266.619"/>
<text text-anchor="middle" x="559" y="-269" font-family="Helvetica,sans-Serif" font-size="10.00"> myPatterns</text>
</g>
<!-- Node22 -->
<g id="node22" class="node"><title>Node22</title>
<polygon fill="white" stroke="#bfbfbf" points="340,-224.5 340,-243.5 462,-243.5 462,-224.5 340,-224.5"/>
<text text-anchor="middle" x="401" y="-231.5" font-family="Helvetica,sans-Serif" font-size="10.00">Map&lt; String, String &gt;</text>
</g>
<!-- Node22&#45;&gt;Node20 -->
<g id="edge25" class="edge"><title>Node22&#45;&gt;Node20</title>
<path fill="none" stroke="#9a32cd" stroke-dasharray="5,2" d="M472.39,-235.093C537.597,-236.106 632.209,-237.575 684.877,-238.393"/>
<polygon fill="#9a32cd" stroke="#9a32cd" points="472.241,-231.59 462.188,-234.935 472.132,-238.59 472.241,-231.59"/>
<text text-anchor="middle" x="559" y="-241" font-family="Helvetica,sans-Serif" font-size="10.00"> myCommandMap</text>
</g>
<!-- Node23 -->
<g id="node23" class="node"><title>Node23</title>
<polygon fill="white" stroke="#bfbfbf" points="656,-305.5 656,-324.5 794,-324.5 794,-305.5 656,-305.5"/>
<text text-anchor="middle" x="725" y="-312.5" font-family="Helvetica,sans-Serif" font-size="10.00">ObservableList&lt; String &gt;</text>
</g>
<!-- Node23&#45;&gt;Node15 -->
<g id="edge27" class="edge"><title>Node23&#45;&gt;Node15</title>
<path fill="none" stroke="#9a32cd" stroke-dasharray="5,2" d="M804.491,-312.517C843.393,-313.058 890.753,-316.401 932,-327 938.929,-328.78 975.767,-346.878 998.927,-358.427"/>
<polygon fill="#9a32cd" stroke="#9a32cd" points="804.302,-309.016 794.275,-312.436 804.247,-316.016 804.302,-309.016"/>
<text text-anchor="middle" x="881" y="-341" font-family="Helvetica,sans-Serif" font-size="10.00"> commandItems</text>
<text text-anchor="middle" x="881" y="-330" font-family="Helvetica,sans-Serif" font-size="10.00">historyItems</text>
</g>
<!-- Node24 -->
<g id="node24" class="node"><title>Node24</title>
<polygon fill="white" stroke="#bfbfbf" points="987.5,-454.5 987.5,-473.5 1050.5,-473.5 1050.5,-454.5 987.5,-454.5"/>
<text text-anchor="middle" x="1019" y="-461.5" font-family="Helvetica,sans-Serif" font-size="10.00">Rectangle</text>
</g>
<!-- Node24&#45;&gt;Node10 -->
<g id="edge28" class="edge"><title>Node24&#45;&gt;Node10</title>
<path fill="none" stroke="#9a32cd" stroke-dasharray="5,2" d="M1060.79,-470.975C1093.87,-477.128 1141.49,-487.119 1182,-500 1196.24,-504.527 1211.74,-511.027 1223.68,-516.396"/>
<polygon fill="#9a32cd" stroke="#9a32cd" points="1061.05,-467.465 1050.58,-469.113 1059.79,-474.351 1061.05,-467.465"/>
<text text-anchor="middle" x="1144" y="-503" font-family="Helvetica,sans-Serif" font-size="10.00"> myBackground</text>
</g>
<!-- Node25 -->
<g id="node25" class="node"><title>Node25</title>
<polygon fill="white" stroke="#bfbfbf" points="64.5,-376.5 64.5,-395.5 109.5,-395.5 109.5,-376.5 64.5,-376.5"/>
<text text-anchor="middle" x="87" y="-383.5" font-family="Helvetica,sans-Serif" font-size="10.00">Stage</text>
</g>
<!-- Node25&#45;&gt;Node9 -->
<g id="edge29" class="edge"><title>Node25&#45;&gt;Node9</title>
<path fill="none" stroke="#9a32cd" stroke-dasharray="5,2" d="M119.977,-384.053C175.9,-380.647 291.57,-373.603 355.356,-369.719"/>
<polygon fill="#9a32cd" stroke="#9a32cd" points="119.708,-380.562 109.939,-384.664 120.134,-387.55 119.708,-380.562"/>
<text text-anchor="middle" x="248" y="-383" font-family="Helvetica,sans-Serif" font-size="10.00"> myStage</text>
</g>
<!-- Node26&#45;&gt;Node9 -->
<g id="edge31" class="edge"><title>Node26&#45;&gt;Node9</title>
<path fill="none" stroke="#9a32cd" stroke-dasharray="5,2" d="M1200.77,-261.597C1194.48,-262.088 1188.07,-262.571 1182,-263 1121.59,-267.267 685.736,-258.741 638,-296 617.058,-312.346 640.913,-336.617 620,-353 568.799,-393.11 488.362,-385.762 440.839,-376.541"/>
<polygon fill="#9a32cd" stroke="#9a32cd" points="1201.5,-265.05 1211.19,-260.769 1200.94,-258.072 1201.5,-265.05"/>
<text text-anchor="middle" x="881" y="-273" font-family="Helvetica,sans-Serif" font-size="10.00"> myEditor</text>
</g>
<!-- Node27 -->
<g id="node27" class="node"><title>Node27</title>
<polygon fill="white" stroke="#bfbfbf" points="998,-305.5 998,-324.5 1040,-324.5 1040,-305.5 998,-305.5"/>
<text text-anchor="middle" x="1019" y="-312.5" font-family="Helvetica,sans-Serif" font-size="10.00">HBox</text>
</g>
<!-- Node27&#45;&gt;Node26 -->
<g id="edge32" class="edge"><title>Node27&#45;&gt;Node26</title>
<path fill="none" stroke="midnightblue" d="M1050.59,-313.578C1083.71,-311.329 1137.72,-305.58 1182,-291 1199.14,-285.356 1217.19,-275.208 1229.36,-267.651"/>
<polygon fill="midnightblue" stroke="midnightblue" points="1049.97,-310.109 1040.21,-314.214 1050.4,-317.096 1049.97,-310.109"/>
</g>
<!-- Node28 -->
<g id="node28" class="node"><title>Node28</title>
<polygon fill="white" stroke="#bfbfbf" points="994.5,-229.5 994.5,-248.5 1043.5,-248.5 1043.5,-229.5 994.5,-229.5"/>
<text text-anchor="middle" x="1019" y="-236.5" font-family="Helvetica,sans-Serif" font-size="10.00">Button</text>
</g>
<!-- Node28&#45;&gt;Node26 -->
<g id="edge33" class="edge"><title>Node28&#45;&gt;Node26</title>
<path fill="none" stroke="#9a32cd" stroke-dasharray="5,2" d="M1054,-241.566C1086.79,-244.078 1137.81,-248.089 1182,-252 1191.48,-252.839 1201.77,-253.81 1211.19,-254.723"/>
<polygon fill="#9a32cd" stroke="#9a32cd" points="1053.86,-238.044 1043.62,-240.773 1053.32,-245.024 1053.86,-238.044"/>
<text text-anchor="middle" x="1144" y="-255" font-family="Helvetica,sans-Serif" font-size="10.00"> runButton</text>
</g>
<!-- Node29 -->
<g id="node29" class="node"><title>Node29</title>
<polygon fill="white" stroke="#bfbfbf" points="990,-191.5 990,-210.5 1048,-210.5 1048,-191.5 990,-191.5"/>
<text text-anchor="middle" x="1019" y="-198.5" font-family="Helvetica,sans-Serif" font-size="10.00">TextArea</text>
</g>
<!-- Node29&#45;&gt;Node26 -->
<g id="edge35" class="edge"><title>Node29&#45;&gt;Node26</title>
<path fill="none" stroke="#9a32cd" stroke-dasharray="5,2" d="M1058.46,-205.61C1091.67,-210.181 1140.66,-218.352 1182,-231 1196.93,-235.568 1213.08,-242.678 1225.16,-248.454"/>
<polygon fill="#9a32cd" stroke="#9a32cd" points="1058.65,-202.103 1048.27,-204.251 1057.72,-209.042 1058.65,-202.103"/>
<text text-anchor="middle" x="1144" y="-234" font-family="Helvetica,sans-Serif" font-size="10.00"> textEditor</text>
</g>
<!-- Node30 -->
<g id="node30" class="node"><title>Node30</title>
<polygon fill="white" stroke="#bfbfbf" points="27.5,-338.5 27.5,-357.5 146.5,-357.5 146.5,-338.5 27.5,-338.5"/>
<text text-anchor="middle" x="87" y="-345.5" font-family="Helvetica,sans-Serif" font-size="10.00">Map&lt; String, Node &gt;</text>
</g>
<!-- Node30&#45;&gt;Node9 -->
<g id="edge37" class="edge"><title>Node30&#45;&gt;Node9</title>
<path fill="none" stroke="#9a32cd" stroke-dasharray="5,2" d="M156.922,-350.943C199.356,-352.895 254.853,-355.702 304,-359 320.687,-360.12 338.986,-361.586 355.091,-362.956"/>
<polygon fill="#9a32cd" stroke="#9a32cd" points="156.852,-347.436 146.703,-350.477 156.533,-354.429 156.852,-347.436"/>
<text text-anchor="middle" x="248" y="-362" font-family="Helvetica,sans-Serif" font-size="10.00"> variables</text>
</g>
<!-- Node31 -->
<g id="node31" class="node"><title>Node31</title>
<polygon fill="white" stroke="#bfbfbf" points="46.5,-300.5 46.5,-319.5 127.5,-319.5 127.5,-300.5 46.5,-300.5"/>
<text text-anchor="middle" x="87" y="-307.5" font-family="Helvetica,sans-Serif" font-size="10.00">Dimension2D</text>
</g>
<!-- Node31&#45;&gt;Node9 -->
<g id="edge39" class="edge"><title>Node31&#45;&gt;Node9</title>
<path fill="none" stroke="#9a32cd" stroke-dasharray="5,2" d="M137.902,-314.121C181.937,-318.313 247.692,-325.931 304,-338 327.493,-343.035 353.554,-351.069 372.588,-357.405"/>
<polygon fill="#9a32cd" stroke="#9a32cd" points="138.027,-310.617 127.747,-313.178 137.38,-317.587 138.027,-310.617"/>
<text text-anchor="middle" x="248" y="-341" font-family="Helvetica,sans-Serif" font-size="10.00"> myDimensions</text>
</g>
<!-- Node32&#45;&gt;Node9 -->
<g id="edge40" class="edge"><title>Node32&#45;&gt;Node9</title>
<path fill="none" stroke="#9a32cd" stroke-dasharray="5,2" d="M1386.32,-422.675C1272.51,-417.324 983.023,-406.594 950,-434 919.615,-459.217 961.339,-494.574 932,-521 883.416,-564.762 700.34,-552.729 638,-533 536.275,-500.807 440.45,-407.267 411.128,-376.752"/>
<polygon fill="#9a32cd" stroke="#9a32cd" points="1386.3,-426.178 1396.46,-423.159 1386.64,-419.186 1386.3,-426.178"/>
<text text-anchor="middle" x="1019" y="-437" font-family="Helvetica,sans-Serif" font-size="10.00"> drawer</text>
</g>
<!-- Node33 -->
<g id="node33" class="node"><title>Node33</title>
<polygon fill="white" stroke="#bfbfbf" points="1224.5,-377.5 1224.5,-396.5 1265.5,-396.5 1265.5,-377.5 1224.5,-377.5"/>
<text text-anchor="middle" x="1245" y="-384.5" font-family="Helvetica,sans-Serif" font-size="10.00">Color</text>
</g>
<!-- Node33&#45;&gt;Node32 -->
<g id="edge42" class="edge"><title>Node33&#45;&gt;Node32</title>
<path fill="none" stroke="#9a32cd" stroke-dasharray="5,2" d="M1275.61,-387.102C1302.71,-387.853 1343.67,-390.652 1378,-400 1390.96,-403.529 1404.68,-409.921 1415.05,-415.358"/>
<polygon fill="#9a32cd" stroke="#9a32cd" points="1275.67,-383.602 1265.6,-386.901 1275.53,-390.601 1275.67,-383.602"/>
<text text-anchor="middle" x="1343" y="-403" font-family="Helvetica,sans-Serif" font-size="10.00"> myColor</text>
</g>
<!-- Node34 -->
<g id="node34" class="node"><title>Node34</title>
<polygon fill="white" stroke="#bfbfbf" points="64,-414.5 64,-433.5 110,-433.5 110,-414.5 64,-414.5"/>
<text text-anchor="middle" x="87" y="-421.5" font-family="Helvetica,sans-Serif" font-size="10.00">Group</text>
</g>
<!-- Node34&#45;&gt;Node9 -->
<g id="edge44" class="edge"><title>Node34&#45;&gt;Node9</title>
<path fill="none" stroke="#9a32cd" stroke-dasharray="5,2" d="M120.291,-421.193C162.746,-417.156 239.505,-408.654 304,-395 326.929,-390.146 352.372,-382.625 371.301,-376.599"/>
<polygon fill="#9a32cd" stroke="#9a32cd" points="119.899,-417.715 110.265,-422.124 120.546,-424.685 119.899,-417.715"/>
<text text-anchor="middle" x="248" y="-417" font-family="Helvetica,sans-Serif" font-size="10.00"> lines</text>
</g>
</g>
</svg>
        <g id="navigator" transform="translate(0 0)" fill="#404254">
                <rect fill="#f2f5e9" fill-opacity="0.5" stroke="#606060" stroke-width=".5" x="0" y="0" width="60" height="60"/>
                <use id="zoomplus" xlink:href="#zoomPlus" x="17" y="9" onmousedown="handleZoom(evt,'in')"/>
                <use id="zoomminus" xlink:href="#zoomMin" x="42" y="9" onmousedown="handleZoom(evt,'out')"/>
                <use id="reset" xlink:href="#resetDef" x="30" y="36" onmousedown="handleReset()"/>
                <g id="arrowUp" xlink:href="#dirArrow" transform="translate(30 24)" onmousedown="handlePan(0,-1)">
                  <use xlink:href="#rim" fill="#404040">
                        <set attributeName="fill" to="#808080" begin="arrowUp.mouseover" end="arrowUp.mouseout"/>
                  </use>
                  <path fill="none" stroke="white" stroke-width="1.5" d="M0,-3.0v7 M-2.5,-0.5L0,-3.0L2.5,-0.5"/>
                </g>
                <g id="arrowRight" xlink:href="#dirArrow" transform="rotate(90) translate(36 -43)" onmousedown="handlePan(1,0)">
                  <use xlink:href="#rim" fill="#404040">
                        <set attributeName="fill" to="#808080" begin="arrowRight.mouseover" end="arrowRight.mouseout"/>
                  </use>
                  <path fill="none" stroke="white" stroke-width="1.5" d="M0,-3.0v7 M-2.5,-0.5L0,-3.0L2.5,-0.5"/>
                </g>
                <g id="arrowDown" xlink:href="#dirArrow" transform="rotate(180) translate(-30 -48)" onmousedown="handlePan(0,1)">
                  <use xlink:href="#rim" fill="#404040">
                        <set attributeName="fill" to="#808080" begin="arrowDown.mouseover" end="arrowDown.mouseout"/>
                  </use>
                  <path fill="none" stroke="white" stroke-width="1.5" d="M0,-3.0v7 M-2.5,-0.5L0,-3.0L2.5,-0.5"/>
                </g>
                <g id="arrowLeft" xlink:href="#dirArrow" transform="rotate(270) translate(-36 17)" onmousedown="handlePan(-1,0)">
                  <use xlink:href="#rim" fill="#404040">
                        <set attributeName="fill" to="#808080" begin="arrowLeft.mouseover" end="arrowLeft.mouseout"/>
                  </use>
                  <path fill="none" stroke="white" stroke-width="1.5" d="M0,-3.0v7 M-2.5,-0.5L0,-3.0L2.5,-0.5"/>
                </g>
        </g>
        <svg viewBox="0 0 15 15" width="100%" height="30px" preserveAspectRatio="xMaxYMin meet">
         <g id="arrow_out" transform="scale(0.3 0.3)">
          <a xlink:href="classmodel_1_1instructions_1_1_string_instruction__coll__graph_org.svg" target="_base">
           <rect id="button" ry="5" rx="5" y="6" x="6" height="38" width="38"
                fill="#f2f5e9" fill-opacity="0.5" stroke="#606060" stroke-width="1.0"/>
           <path id="arrow"
             d="M 11.500037,31.436501 C 11.940474,20.09759 22.043105,11.32322 32.158766,21.979434 L 37.068811,17.246167 C 37.068811,17.246167 37.088388,32 37.088388,32 L 22.160133,31.978069 C 22.160133,31.978069 26.997745,27.140456 26.997745,27.140456 C 18.528582,18.264221 13.291696,25.230495 11.500037,31.436501 z"
             style="fill:#404040;"/>
          </a>
         </g>
        </svg>
</svg>
