<?xml version="1.0" encoding="UTF-8" standalone="no"?>
<!DOCTYPE svg PUBLIC "-//W3C//DTD SVG 1.1//EN"
 "http://www.w3.org/Graphics/SVG/1.1/DTD/svg11.dtd">
<!-- Generated by graphviz version 2.36.0 (20140111.2315)
 -->
<!-- Title: model.instructions.StringInstruction Pages: 1 -->
<svg width="1478pt" height="738pt"
 viewBox="0.00 0.00 1478.00 738.00" xmlns="http://www.w3.org/2000/svg" xmlns:xlink="http://www.w3.org/1999/xlink">
<g id="graph0" class="graph" transform="scale(1 1) rotate(0) translate(4 734)">
<title>model.instructions.StringInstruction</title>
<polygon fill="white" stroke="none" points="-4,4 -4,-734 1474,-734 1474,4 -4,4"/>
<!-- Node1 -->
<g id="node1" class="node"><title>Node1</title>
<polygon fill="#bfbfbf" stroke="black" points="950.5,-623 950.5,-653 1087.5,-653 1087.5,-623 950.5,-623"/>
<text text-anchor="start" x="958.5" y="-641" font-family="Helvetica,sans-Serif" font-size="10.00">model.instructions.String</text>
<text text-anchor="middle" x="1019" y="-630" font-family="Helvetica,sans-Serif" font-size="10.00">Instruction</text>
</g>
<!-- Node2 -->
<g id="node2" class="node"><title>Node2</title>
<g id="a_node2"><a xlink:href="../../d1/dea/classmodel_1_1instructions_1_1_instruction.html" target="_top" xlink:title="model.instructions.Instruction">
<polygon fill="white" stroke="black" points="646,-517.5 646,-536.5 804,-536.5 804,-517.5 646,-517.5"/>
<text text-anchor="middle" x="725" y="-524.5" font-family="Helvetica,sans-Serif" font-size="10.00">model.instructions.Instruction</text>
</a>
</g>
</g>
<!-- Node2&#45;&gt;Node1 -->
<g id="edge1" class="edge"><title>Node2&#45;&gt;Node1</title>
<path fill="none" stroke="midnightblue" d="M760.08,-540.258C803.939,-557.28 882.531,-587.647 950,-613 958.595,-616.23 967.818,-619.65 976.611,-622.89"/>
<polygon fill="midnightblue" stroke="midnightblue" points="761.073,-536.889 750.484,-536.532 758.539,-543.414 761.073,-536.889"/>
</g>
<!-- Node3 -->
<g id="node3" class="node"><title>Node3</title>
<polygon fill="white" stroke="#bfbfbf" points="57,-329.5 57,-348.5 117,-348.5 117,-329.5 57,-329.5"/>
<text text-anchor="middle" x="87" y="-336.5" font-family="Helvetica,sans-Serif" font-size="10.00">Observer</text>
</g>
<!-- Node3&#45;&gt;Node2 -->
<g id="edge2" class="edge"><title>Node3&#45;&gt;Node2</title>
<path fill="none" stroke="midnightblue" d="M127.684,-339.254C143.855,-341.337 161.618,-346.45 174,-358 194.67,-377.281 172.124,-398.902 192,-419 292.042,-520.158 358.025,-487.536 498,-513 546.636,-521.848 602.022,-525.381 645.791,-526.687"/>
<polygon fill="midnightblue" stroke="midnightblue" points="127.643,-335.734 117.36,-338.285 126.989,-342.704 127.643,-335.734"/>
</g>
<!-- Node9 -->
<g id="node9" class="node"><title>Node9</title>
<g id="a_node9"><a xlink:href="../../d6/de7/classview_1_1_s_logo_view.html" target="_top" xlink:title="view.SLogoView">
<polygon fill="white" stroke="black" points="355.5,-342.5 355.5,-361.5 446.5,-361.5 446.5,-342.5 355.5,-342.5"/>
<text text-anchor="middle" x="401" y="-349.5" font-family="Helvetica,sans-Serif" font-size="10.00">view.SLogoView</text>
</a>
</g>
</g>
<!-- Node3&#45;&gt;Node9 -->
<g id="edge9" class="edge"><title>Node3&#45;&gt;Node9</title>
<path fill="none" stroke="midnightblue" d="M127.334,-340.639C185.567,-343.065 294.395,-347.6 355.478,-350.145"/>
<polygon fill="midnightblue" stroke="midnightblue" points="127.209,-337.131 117.072,-340.211 126.918,-344.125 127.209,-337.131"/>
</g>
<!-- Node21 -->
<g id="node21" class="node"><title>Node21</title>
<g id="a_node21"><a xlink:href="../../dc/df5/classmodel_1_1_parser.html" target="_top" xlink:title="model.Parser">
<polygon fill="white" stroke="black" points="685,-144.5 685,-163.5 765,-163.5 765,-144.5 685,-144.5"/>
<text text-anchor="middle" x="725" y="-151.5" font-family="Helvetica,sans-Serif" font-size="10.00">model.Parser</text>
</a>
</g>
</g>
<!-- Node3&#45;&gt;Node21 -->
<g id="edge23" class="edge"><title>Node3&#45;&gt;Node21</title>
<path fill="none" stroke="midnightblue" d="M127.352,-333.144C142.291,-330.193 159.25,-325.943 174,-320 182.696,-316.496 183.385,-312.699 192,-309 237.249,-289.574 578.34,-220.254 620,-194 630.4,-187.446 627.455,-179.318 638,-173 652.035,-164.591 669.361,-159.892 684.776,-157.271"/>
<polygon fill="midnightblue" stroke="midnightblue" points="126.582,-329.727 117.385,-334.986 127.854,-336.611 126.582,-329.727"/>
</g>
<!-- Node4 -->
<g id="node4" class="node"><title>Node4</title>
<g id="a_node4"><a xlink:href="../../d1/dca/classmodel_1_1_execution_environment.html" target="_top" xlink:title="model.ExecutionEnvironment">
<polygon fill="white" stroke="black" points="322.5,-65.5 322.5,-84.5 479.5,-84.5 479.5,-65.5 322.5,-65.5"/>
<text text-anchor="middle" x="401" y="-72.5" font-family="Helvetica,sans-Serif" font-size="10.00">model.ExecutionEnvironment</text>
</a>
</g>
</g>
<!-- Node4&#45;&gt;Node2 -->
<g id="edge3" class="edge"><title>Node4&#45;&gt;Node2</title>
<path fill="none" stroke="#9a32cd" stroke-dasharray="5,2" d="M425.081,-90.8537C443.271,-104.721 467.571,-126.587 480,-152 509.887,-213.111 468.106,-242.893 498,-304 548.504,-407.236 666.655,-490.234 708.762,-517.479"/>
<polygon fill="#9a32cd" stroke="#9a32cd" points="426.85,-87.8108 416.72,-84.7081 422.704,-93.4509 426.85,-87.8108"/>
<text text-anchor="middle" x="559" y="-451" font-family="Helvetica,sans-Serif" font-size="10.00"> myEnvironment</text>
</g>
<!-- Node16 -->
<g id="node16" class="node"><title>Node16</title>
<g id="a_node16"><a xlink:href="../../d1/dc7/classview_1_1_side_bar.html" target="_top" xlink:title="view.SideBar">
<polygon fill="white" stroke="black" points="980.5,-248.5 980.5,-267.5 1057.5,-267.5 1057.5,-248.5 980.5,-248.5"/>
<text text-anchor="middle" x="1019" y="-255.5" font-family="Helvetica,sans-Serif" font-size="10.00">view.SideBar</text>
</a>
</g>
</g>
<!-- Node4&#45;&gt;Node16 -->
<g id="edge20" class="edge"><title>Node4&#45;&gt;Node16</title>
<path fill="none" stroke="#9a32cd" stroke-dasharray="5,2" d="M473.374,-63.9793C602.863,-45.7843 868.96,-17.2469 932,-79 983.119,-129.076 903.617,-184.508 950,-239 957.627,-247.961 969.097,-252.873 980.454,-255.513"/>
<polygon fill="#9a32cd" stroke="#9a32cd" points="472.568,-60.5586 463.161,-65.4328 473.554,-67.4888 472.568,-60.5586"/>
<text text-anchor="middle" x="725" y="-49" font-family="Helvetica,sans-Serif" font-size="10.00"> myEnvironment</text>
</g>
<!-- Node4&#45;&gt;Node21 -->
<g id="edge25" class="edge"><title>Node4&#45;&gt;Node21</title>
<path fill="none" stroke="#9a32cd" stroke-dasharray="5,2" d="M420.215,-91.4485C438.439,-106.8 468.006,-128.822 498,-139 560.744,-160.291 638.802,-160.053 684.831,-157.403"/>
<polygon fill="#9a32cd" stroke="#9a32cd" points="422.077,-88.4315 412.227,-84.5294 417.494,-93.7224 422.077,-88.4315"/>
<text text-anchor="middle" x="559" y="-162" font-family="Helvetica,sans-Serif" font-size="10.00"> myExecutionParameters</text>
</g>
<!-- Node5 -->
<g id="node5" class="node"><title>Node5</title>
<polygon fill="white" stroke="#bfbfbf" points="51.5,-0.5 51.5,-19.5 122.5,-19.5 122.5,-0.5 51.5,-0.5"/>
<text text-anchor="middle" x="87" y="-7.5" font-family="Helvetica,sans-Serif" font-size="10.00">Observable</text>
</g>
<!-- Node5&#45;&gt;Node4 -->
<g id="edge4" class="edge"><title>Node5&#45;&gt;Node4</title>
<path fill="none" stroke="midnightblue" d="M132.884,-18.5447C176.626,-26.9643 244.983,-40.3661 304,-53 322.225,-56.9014 342.334,-61.4689 359.419,-65.428"/>
<polygon fill="midnightblue" stroke="midnightblue" points="133.336,-15.0677 122.855,-16.6188 132.016,-21.9421 133.336,-15.0677"/>
</g>
<!-- Node6 -->
<g id="node6" class="node"><title>Node6</title>
<polygon fill="white" stroke="#bfbfbf" points="0,-77 0,-107 174,-107 174,-77 0,-77"/>
<text text-anchor="start" x="8" y="-95" font-family="Helvetica,sans-Serif" font-size="10.00">Map&lt; String, model.instructions.</text>
<text text-anchor="middle" x="87" y="-84" font-family="Helvetica,sans-Serif" font-size="10.00">Instruction &gt;</text>
</g>
<!-- Node6&#45;&gt;Node4 -->
<g id="edge5" class="edge"><title>Node6&#45;&gt;Node4</title>
<path fill="none" stroke="#9a32cd" stroke-dasharray="5,2" d="M184.305,-86.7526C228.685,-84.3345 280.655,-81.5028 322.461,-79.2249"/>
<polygon fill="#9a32cd" stroke="#9a32cd" points="183.876,-83.2707 174.081,-87.3097 184.257,-90.2603 183.876,-83.2707"/>
<text text-anchor="middle" x="248" y="-90" font-family="Helvetica,sans-Serif" font-size="10.00"> myUserInstructionMap</text>
</g>
<!-- Node7 -->
<g id="node7" class="node"><title>Node7</title>
<polygon fill="white" stroke="#bfbfbf" points="23,-38.5 23,-57.5 151,-57.5 151,-38.5 23,-38.5"/>
<text text-anchor="middle" x="87" y="-45.5" font-family="Helvetica,sans-Serif" font-size="10.00">Map&lt; String, Double &gt;</text>
</g>
<!-- Node7&#45;&gt;Node4 -->
<g id="edge6" class="edge"><title>Node7&#45;&gt;Node4</title>
<path fill="none" stroke="#9a32cd" stroke-dasharray="5,2" d="M161.434,-53.9301C203.232,-57.3529 256.559,-61.7996 304,-66 310.003,-66.5315 316.216,-67.0915 322.461,-67.6614"/>
<polygon fill="#9a32cd" stroke="#9a32cd" points="161.592,-50.4314 151.34,-53.105 161.021,-57.4081 161.592,-50.4314"/>
<text text-anchor="middle" x="248" y="-69" font-family="Helvetica,sans-Serif" font-size="10.00"> myVariableMap</text>
</g>
<!-- Node8 -->
<g id="node8" class="node"><title>Node8</title>
<polygon fill="white" stroke="#bfbfbf" points="333,-556 333,-586 469,-586 469,-556 333,-556"/>
<text text-anchor="start" x="341" y="-574" font-family="Helvetica,sans-Serif" font-size="10.00">List&lt; model.instructions.</text>
<text text-anchor="middle" x="401" y="-563" font-family="Helvetica,sans-Serif" font-size="10.00">Instruction &gt;</text>
</g>
<!-- Node8&#45;&gt;Node2 -->
<g id="edge7" class="edge"><title>Node8&#45;&gt;Node2</title>
<path fill="none" stroke="#9a32cd" stroke-dasharray="5,2" d="M479.2,-560.451C532.536,-553.163 602.882,-543.55 654.474,-536.5"/>
<polygon fill="#9a32cd" stroke="#9a32cd" points="478.544,-557.008 469.11,-561.83 479.492,-563.944 478.544,-557.008"/>
<text text-anchor="middle" x="559" y="-560" font-family="Helvetica,sans-Serif" font-size="10.00"> myDependencies</text>
</g>
<!-- Node9&#45;&gt;Node2 -->
<g id="edge8" class="edge"><title>Node9&#45;&gt;Node2</title>
<path fill="none" stroke="#9a32cd" stroke-dasharray="5,2" d="M410.576,-370.786C424.568,-399.15 455.11,-452.412 498,-479 544.897,-508.072 566.048,-490.437 620,-502 641.971,-506.709 666.406,-512.551 686.068,-517.404"/>
<polygon fill="#9a32cd" stroke="#9a32cd" points="413.64,-369.08 406.178,-361.558 407.321,-372.091 413.64,-369.08"/>
<text text-anchor="middle" x="559" y="-505" font-family="Helvetica,sans-Serif" font-size="10.00"> myView</text>
</g>
<!-- Node9&#45;&gt;Node21 -->
<g id="edge27" class="edge"><title>Node9&#45;&gt;Node21</title>
<path fill="none" stroke="#9a32cd" stroke-dasharray="5,2" d="M421.209,-336.069C439.725,-321.554 469.114,-300.656 498,-289 549.168,-268.352 580.889,-304.922 620,-266 649.842,-236.303 608.624,-203.158 638,-173 650.056,-160.623 668.225,-155.471 684.762,-153.576"/>
<polygon fill="#9a32cd" stroke="#9a32cd" points="418.893,-333.44 413.275,-342.423 423.269,-338.904 418.893,-333.44"/>
<text text-anchor="middle" x="559" y="-292" font-family="Helvetica,sans-Serif" font-size="10.00"> mySLogoView</text>
</g>
<!-- Node10 -->
<g id="node10" class="node"><title>Node10</title>
<g id="a_node10"><a xlink:href="../../da/d64/classview_1_1_workspace.html" target="_top" xlink:title="view.Workspace">
<polygon fill="white" stroke="black" points="1200,-518.5 1200,-537.5 1290,-537.5 1290,-518.5 1200,-518.5"/>
<text text-anchor="middle" x="1245" y="-525.5" font-family="Helvetica,sans-Serif" font-size="10.00">view.Workspace</text>
</a>
</g>
</g>
<!-- Node10&#45;&gt;Node9 -->
<g id="edge10" class="edge"><title>Node10&#45;&gt;Node9</title>
<path fill="none" stroke="#9a32cd" stroke-dasharray="5,2" d="M1205.42,-515.441C1174.14,-505.847 1128.71,-493.243 1088,-487 958.044,-467.07 618.233,-496.196 498,-443 456.838,-424.788 422.432,-381.121 408.565,-361.652"/>
<polygon fill="#9a32cd" stroke="#9a32cd" points="1204.47,-518.81 1215.06,-518.438 1206.55,-512.126 1204.47,-518.81"/>
<text text-anchor="middle" x="881" y="-482" font-family="Helvetica,sans-Serif" font-size="10.00"> myWorkspace</text>
</g>
<!-- Node33 -->
<g id="node33" class="node"><title>Node33</title>
<g id="a_node33"><a xlink:href="../../de/d0a/classview_1_1_drawer.html" target="_top" xlink:title="view.Drawer">
<polygon fill="white" stroke="black" points="1396.5,-409.5 1396.5,-428.5 1469.5,-428.5 1469.5,-409.5 1396.5,-409.5"/>
<text text-anchor="middle" x="1433" y="-416.5" font-family="Helvetica,sans-Serif" font-size="10.00">view.Drawer</text>
</a>
</g>
</g>
<!-- Node10&#45;&gt;Node33 -->
<g id="edge42" class="edge"><title>Node10&#45;&gt;Node33</title>
<path fill="none" stroke="#9a32cd" stroke-dasharray="5,2" d="M1271.6,-512.999C1310.4,-490.26 1383.02,-447.702 1415.53,-428.651"/>
<polygon fill="#9a32cd" stroke="#9a32cd" points="1269.36,-510.251 1262.51,-518.327 1272.9,-516.291 1269.36,-510.251"/>
<text text-anchor="middle" x="1343" y="-493" font-family="Helvetica,sans-Serif" font-size="10.00"> myWorkspace</text>
</g>
<!-- Node11 -->
<g id="node11" class="node"><title>Node11</title>
<polygon fill="white" stroke="#bfbfbf" points="985.5,-584.5 985.5,-603.5 1052.5,-603.5 1052.5,-584.5 985.5,-584.5"/>
<text text-anchor="middle" x="1019" y="-591.5" font-family="Helvetica,sans-Serif" font-size="10.00">StackPane</text>
</g>
<!-- Node11&#45;&gt;Node10 -->
<g id="edge11" class="edge"><title>Node11&#45;&gt;Node10</title>
<path fill="none" stroke="midnightblue" d="M1063.02,-586.274C1096.03,-579.779 1142.51,-569.408 1182,-556 1196.99,-550.912 1213.27,-543.479 1225.39,-537.55"/>
<polygon fill="midnightblue" stroke="midnightblue" points="1061.95,-582.915 1052.79,-588.245 1063.28,-589.788 1061.95,-582.915"/>
</g>
<!-- Node12 -->
<g id="node12" class="node"><title>Node12</title>
<g id="a_node12"><a xlink:href="../../d8/df7/classview_1_1_turtle_view.html" target="_top" xlink:title="view.TurtleView">
<polygon fill="white" stroke="black" points="976,-710.5 976,-729.5 1062,-729.5 1062,-710.5 976,-710.5"/>
<text text-anchor="middle" x="1019" y="-717.5" font-family="Helvetica,sans-Serif" font-size="10.00">view.TurtleView</text>
</a>
</g>
</g>
<!-- Node12&#45;&gt;Node10 -->
<g id="edge12" class="edge"><title>Node12&#45;&gt;Node10</title>
<path fill="none" stroke="#9a32cd" stroke-dasharray="5,2" d="M1072.23,-714.029C1107.17,-707.536 1152.06,-694.031 1182,-666 1221.5,-629.02 1237.57,-562.197 1242.35,-537.505"/>
<polygon fill="#9a32cd" stroke="#9a32cd" points="1071.46,-710.61 1062.2,-715.754 1072.65,-717.508 1071.46,-710.61"/>
<text text-anchor="middle" x="1144" y="-708" font-family="Helvetica,sans-Serif" font-size="10.00"> myActiveTurtle</text>
</g>
<!-- Node13 -->
<g id="node13" class="node"><title>Node13</title>
<polygon fill="white" stroke="#bfbfbf" points="691,-710.5 691,-729.5 759,-729.5 759,-710.5 691,-710.5"/>
<text text-anchor="middle" x="725" y="-717.5" font-family="Helvetica,sans-Serif" font-size="10.00">ImageView</text>
</g>
<!-- Node13&#45;&gt;Node12 -->
<g id="edge13" class="edge"><title>Node13&#45;&gt;Node12</title>
<path fill="none" stroke="midnightblue" d="M769.448,-720C825.092,-720 920.884,-720 975.88,-720"/>
<polygon fill="midnightblue" stroke="midnightblue" points="769.212,-716.5 759.212,-720 769.212,-723.5 769.212,-716.5"/>
</g>
<!-- Node14 -->
<g id="node14" class="node"><title>Node14</title>
<polygon fill="white" stroke="#bfbfbf" points="951,-535 951,-565 1087,-565 1087,-535 951,-535"/>
<text text-anchor="start" x="959" y="-553" font-family="Helvetica,sans-Serif" font-size="10.00">Map&lt; Integer, view.Turtle</text>
<text text-anchor="middle" x="1019" y="-542" font-family="Helvetica,sans-Serif" font-size="10.00">View &gt;</text>
</g>
<!-- Node14&#45;&gt;Node10 -->
<g id="edge14" class="edge"><title>Node14&#45;&gt;Node10</title>
<path fill="none" stroke="#9a32cd" stroke-dasharray="5,2" d="M1097.21,-542.417C1131.5,-539.049 1170.62,-535.207 1199.85,-532.336"/>
<polygon fill="#9a32cd" stroke="#9a32cd" points="1096.82,-538.939 1087.21,-543.399 1097.5,-545.905 1096.82,-538.939"/>
<text text-anchor="middle" x="1144" y="-544" font-family="Helvetica,sans-Serif" font-size="10.00"> myTurtles</text>
</g>
<!-- Node15 -->
<g id="node15" class="node"><title>Node15</title>
<polygon fill="white" stroke="#bfbfbf" points="996,-496.5 996,-515.5 1042,-515.5 1042,-496.5 996,-496.5"/>
<text text-anchor="middle" x="1019" y="-503.5" font-family="Helvetica,sans-Serif" font-size="10.00">Group</text>
</g>
<!-- Node15&#45;&gt;Node10 -->
<g id="edge15" class="edge"><title>Node15&#45;&gt;Node10</title>
<path fill="none" stroke="#9a32cd" stroke-dasharray="5,2" d="M1052.36,-508.393C1085.09,-510.909 1137.11,-515.167 1182,-520 1187.83,-520.627 1193.95,-521.346 1200,-522.09"/>
<polygon fill="#9a32cd" stroke="#9a32cd" points="1052.28,-504.877 1042.04,-507.609 1051.74,-511.857 1052.28,-504.877"/>
<text text-anchor="middle" x="1144" y="-523" font-family="Helvetica,sans-Serif" font-size="10.00"> myLines</text>
</g>
<!-- Node16&#45;&gt;Node9 -->
<g id="edge44" class="edge"><title>Node16&#45;&gt;Node9</title>
<path fill="none" stroke="#9a32cd" stroke-dasharray="5,2" d="M970.289,-260.609C871.65,-266.11 653.165,-278.893 638,-285 628.34,-288.89 629.33,-295.375 620,-300 570.155,-324.706 552.099,-315.031 498,-328 478.621,-332.646 457.093,-338.009 439.343,-342.486"/>
<polygon fill="#9a32cd" stroke="#9a32cd" points="970.506,-264.102 980.297,-260.053 970.118,-257.113 970.506,-264.102"/>
<text text-anchor="middle" x="725" y="-288" font-family="Helvetica,sans-Serif" font-size="10.00"> mySidebar</text>
</g>
<!-- Node16&#45;&gt;Node10 -->
<g id="edge16" class="edge"><title>Node16&#45;&gt;Node10</title>
<path fill="none" stroke="#9a32cd" stroke-dasharray="5,2" d="M1034.86,-275.854C1063.4,-310.158 1127.86,-387.672 1182,-453 1201.4,-476.414 1224.17,-503.981 1235.98,-518.285"/>
<polygon fill="#9a32cd" stroke="#9a32cd" points="1037.19,-273.181 1028.1,-267.732 1031.81,-277.658 1037.19,-273.181"/>
<text text-anchor="middle" x="1144" y="-456" font-family="Helvetica,sans-Serif" font-size="10.00"> mySidebar</text>
</g>
<!-- Node27 -->
<g id="node27" class="node"><title>Node27</title>
<g id="a_node27"><a xlink:href="../../da/dc8/classview_1_1_editor.html" target="_top" xlink:title="view.Editor">
<polygon fill="white" stroke="black" points="1211.5,-210.5 1211.5,-229.5 1278.5,-229.5 1278.5,-210.5 1211.5,-210.5"/>
<text text-anchor="middle" x="1245" y="-217.5" font-family="Helvetica,sans-Serif" font-size="10.00">view.Editor</text>
</a>
</g>
</g>
<!-- Node16&#45;&gt;Node27 -->
<g id="edge37" class="edge"><title>Node16&#45;&gt;Node27</title>
<path fill="none" stroke="#9a32cd" stroke-dasharray="5,2" d="M1067.86,-251.869C1100.19,-247.492 1143.79,-241.134 1182,-234 1191.55,-232.218 1201.85,-230.007 1211.27,-227.872"/>
<polygon fill="#9a32cd" stroke="#9a32cd" points="1067.22,-248.423 1057.78,-253.219 1068.15,-255.361 1067.22,-248.423"/>
<text text-anchor="middle" x="1144" y="-250" font-family="Helvetica,sans-Serif" font-size="10.00"> mySidebar</text>
</g>
<!-- Node17 -->
<g id="node17" class="node"><title>Node17</title>
<polygon fill="white" stroke="#bfbfbf" points="704.5,-182.5 704.5,-201.5 745.5,-201.5 745.5,-182.5 704.5,-182.5"/>
<text text-anchor="middle" x="725" y="-189.5" font-family="Helvetica,sans-Serif" font-size="10.00">VBox</text>
</g>
<!-- Node17&#45;&gt;Node16 -->
<g id="edge17" class="edge"><title>Node17&#45;&gt;Node16</title>
<path fill="none" stroke="midnightblue" d="M755.769,-193.704C796.663,-196.818 871.974,-205.353 932,-228 940.772,-231.31 941.403,-235.258 950,-239 959.553,-243.158 970.259,-246.649 980.299,-249.459"/>
<polygon fill="midnightblue" stroke="midnightblue" points="755.887,-190.203 745.666,-192.992 755.396,-197.186 755.887,-190.203"/>
</g>
<!-- Node18 -->
<g id="node18" class="node"><title>Node18</title>
<polygon fill="white" stroke="#bfbfbf" points="638.5,-343.5 638.5,-362.5 811.5,-362.5 811.5,-343.5 638.5,-343.5"/>
<text text-anchor="middle" x="725" y="-350.5" font-family="Helvetica,sans-Serif" font-size="10.00">ObservableList&lt; view.Property &gt;</text>
</g>
<!-- Node18&#45;&gt;Node16 -->
<g id="edge18" class="edge"><title>Node18&#45;&gt;Node16</title>
<path fill="none" stroke="#9a32cd" stroke-dasharray="5,2" d="M821.993,-354.485C857.72,-352.051 897.852,-345.643 932,-331 965.838,-316.489 996.357,-283.922 1010.18,-267.644"/>
<polygon fill="#9a32cd" stroke="#9a32cd" points="821.331,-351.018 811.552,-355.094 821.739,-358.006 821.331,-351.018"/>
<text text-anchor="middle" x="881" y="-357" font-family="Helvetica,sans-Serif" font-size="10.00"> variablesList</text>
</g>
<!-- Node19 -->
<g id="node19" class="node"><title>Node19</title>
<polygon fill="white" stroke="#bfbfbf" points="40.5,-143.5 40.5,-162.5 133.5,-162.5 133.5,-143.5 40.5,-143.5"/>
<text text-anchor="middle" x="87" y="-150.5" font-family="Helvetica,sans-Serif" font-size="10.00">ResourceBundle</text>
</g>
<!-- Node19&#45;&gt;Node9 -->
<g id="edge31" class="edge"><title>Node19&#45;&gt;Node9</title>
<path fill="none" stroke="#9a32cd" stroke-dasharray="5,2" d="M111.644,-168.08C172.831,-207.107 335.079,-310.592 385.103,-342.498"/>
<polygon fill="#9a32cd" stroke="#9a32cd" points="113.362,-165.025 103.048,-162.598 109.597,-170.927 113.362,-165.025"/>
<text text-anchor="middle" x="248" y="-291" font-family="Helvetica,sans-Serif" font-size="10.00"> myResources</text>
</g>
<!-- Node19&#45;&gt;Node16 -->
<g id="edge19" class="edge"><title>Node19&#45;&gt;Node16</title>
<path fill="none" stroke="#9a32cd" stroke-dasharray="5,2" d="M143.828,-144.471C251.867,-127.996 480.51,-93.294 498,-92 552.074,-87.9994 566.072,-86.3585 620,-92 760.966,-106.747 831.268,-58.2906 932,-158 958.21,-183.943 924.634,-212.231 950,-239 957.925,-247.364 969.199,-252.147 980.293,-254.852"/>
<polygon fill="#9a32cd" stroke="#9a32cd" points="143.118,-141.038 133.761,-146.006 144.174,-147.958 143.118,-141.038"/>
<text text-anchor="middle" x="559" y="-95" font-family="Helvetica,sans-Serif" font-size="10.00"> myResources</text>
</g>
<!-- Node20 -->
<g id="node20" class="node"><title>Node20</title>
<polygon fill="white" stroke="#bfbfbf" points="651,-305.5 651,-324.5 799,-324.5 799,-305.5 651,-305.5"/>
<text text-anchor="middle" x="725" y="-312.5" font-family="Helvetica,sans-Serif" font-size="10.00">TableView&lt; view.Property &gt;</text>
</g>
<!-- Node20&#45;&gt;Node16 -->
<g id="edge21" class="edge"><title>Node20&#45;&gt;Node16</title>
<path fill="none" stroke="#9a32cd" stroke-dasharray="5,2" d="M809.025,-307.357C846.844,-302.946 892,-296.373 932,-287 953.324,-282.003 976.846,-273.883 993.892,-267.504"/>
<polygon fill="#9a32cd" stroke="#9a32cd" points="808.612,-303.881 799.071,-308.488 809.402,-310.836 808.612,-303.881"/>
<text text-anchor="middle" x="881" y="-319" font-family="Helvetica,sans-Serif" font-size="10.00"> turtlePropertiesTable</text>
<text text-anchor="middle" x="881" y="-308" font-family="Helvetica,sans-Serif" font-size="10.00">variablesTable</text>
</g>
<!-- Node21&#45;&gt;Node9 -->
<g id="edge39" class="edge"><title>Node21&#45;&gt;Node9</title>
<path fill="none" stroke="#9a32cd" stroke-dasharray="5,2" d="M674.826,-155.892C661.509,-158.624 648.022,-163.737 638,-173 617.867,-191.608 640.565,-213.87 620,-232 578.729,-268.385 546.659,-227.319 498,-253 456.077,-275.126 421.576,-322.248 408.094,-342.465"/>
<polygon fill="#9a32cd" stroke="#9a32cd" points="675.615,-159.31 684.917,-154.238 674.483,-152.402 675.615,-159.31"/>
<text text-anchor="middle" x="559" y="-256" font-family="Helvetica,sans-Serif" font-size="10.00"> myParser</text>
</g>
<!-- Node21&#45;&gt;Node16 -->
<g id="edge22" class="edge"><title>Node21&#45;&gt;Node16</title>
<path fill="none" stroke="#9a32cd" stroke-dasharray="5,2" d="M775.54,-156.46C828.779,-160.074 908.885,-168.628 932,-188 950.423,-203.44 932.445,-222.581 950,-239 958.236,-246.703 969.335,-251.324 980.175,-254.082"/>
<polygon fill="#9a32cd" stroke="#9a32cd" points="775.479,-152.949 765.275,-155.801 775.031,-159.935 775.479,-152.949"/>
<text text-anchor="middle" x="881" y="-191" font-family="Helvetica,sans-Serif" font-size="10.00"> myParser</text>
</g>
<!-- Node21&#45;&gt;Node27 -->
<g id="edge35" class="edge"><title>Node21&#45;&gt;Node27</title>
<path fill="none" stroke="#9a32cd" stroke-dasharray="5,2" d="M775.322,-147.792C845.5,-140.295 977.878,-131.107 1088,-152 1132.11,-160.369 1142.21,-168.208 1182,-189 1190.52,-193.453 1191.55,-196.409 1200,-201 1206.14,-204.337 1212.99,-207.53 1219.42,-210.314"/>
<polygon fill="#9a32cd" stroke="#9a32cd" points="774.573,-144.353 765.017,-148.929 775.341,-151.311 774.573,-144.353"/>
<text text-anchor="middle" x="1019" y="-155" font-family="Helvetica,sans-Serif" font-size="10.00"> myParser</text>
</g>
<!-- Node22 -->
<g id="node22" class="node"><title>Node22</title>
<polygon fill="white" stroke="#bfbfbf" points="345,-162 345,-192 457,-192 457,-162 345,-162"/>
<text text-anchor="start" x="353" y="-180" font-family="Helvetica,sans-Serif" font-size="10.00">List&lt; Entry&lt; String,</text>
<text text-anchor="middle" x="401" y="-169" font-family="Helvetica,sans-Serif" font-size="10.00"> Pattern &gt; &gt;</text>
</g>
<!-- Node22&#45;&gt;Node21 -->
<g id="edge24" class="edge"><title>Node22&#45;&gt;Node21</title>
<path fill="none" stroke="#9a32cd" stroke-dasharray="5,2" d="M467.385,-178.562C510.77,-178.92 568.914,-178.101 620,-173 641.551,-170.848 665.331,-166.643 684.706,-162.735"/>
<polygon fill="#9a32cd" stroke="#9a32cd" points="467.283,-175.061 457.246,-178.455 467.209,-182.06 467.283,-175.061"/>
<text text-anchor="middle" x="559" y="-182" font-family="Helvetica,sans-Serif" font-size="10.00"> myPatterns</text>
</g>
<!-- Node23 -->
<g id="node23" class="node"><title>Node23</title>
<polygon fill="white" stroke="#bfbfbf" points="340,-27.5 340,-46.5 462,-46.5 462,-27.5 340,-27.5"/>
<text text-anchor="middle" x="401" y="-34.5" font-family="Helvetica,sans-Serif" font-size="10.00">Map&lt; String, String &gt;</text>
</g>
<!-- Node23&#45;&gt;Node21 -->
<g id="edge26" class="edge"><title>Node23&#45;&gt;Node21</title>
<path fill="none" stroke="#9a32cd" stroke-dasharray="5,2" d="M471.283,-49.6545C474.388,-51.503 477.32,-53.6068 480,-56 497.306,-71.4518 480.175,-90.1496 498,-105 540.272,-140.217 566.267,-114.169 620,-126 644.105,-131.307 671.002,-138.586 691.403,-144.392"/>
<polygon fill="#9a32cd" stroke="#9a32cd" points="472.649,-46.4244 462.138,-45.0927 469.524,-52.6884 472.649,-46.4244"/>
<text text-anchor="middle" x="559" y="-129" font-family="Helvetica,sans-Serif" font-size="10.00"> myCommandMap</text>
</g>
<!-- Node24 -->
<g id="node24" class="node"><title>Node24</title>
<polygon fill="white" stroke="#bfbfbf" points="656,-220.5 656,-239.5 794,-239.5 794,-220.5 656,-220.5"/>
<text text-anchor="middle" x="725" y="-227.5" font-family="Helvetica,sans-Serif" font-size="10.00">ObservableList&lt; String &gt;</text>
</g>
<!-- Node24&#45;&gt;Node16 -->
<g id="edge28" class="edge"><title>Node24&#45;&gt;Node16</title>
<path fill="none" stroke="#9a32cd" stroke-dasharray="5,2" d="M804.552,-230.906C843.083,-232.089 890.106,-234.633 932,-240 947.887,-242.035 965.209,-245.429 980.117,-248.725"/>
<polygon fill="#9a32cd" stroke="#9a32cd" points="804.53,-227.404 794.435,-230.62 804.332,-234.401 804.53,-227.404"/>
<text text-anchor="middle" x="881" y="-254" font-family="Helvetica,sans-Serif" font-size="10.00"> commandItems</text>
<text text-anchor="middle" x="881" y="-243" font-family="Helvetica,sans-Serif" font-size="10.00">historyItems</text>
</g>
<!-- Node25 -->
<g id="node25" class="node"><title>Node25</title>
<polygon fill="white" stroke="#bfbfbf" points="987.5,-672.5 987.5,-691.5 1050.5,-691.5 1050.5,-672.5 987.5,-672.5"/>
<text text-anchor="middle" x="1019" y="-679.5" font-family="Helvetica,sans-Serif" font-size="10.00">Rectangle</text>
</g>
<!-- Node25&#45;&gt;Node10 -->
<g id="edge29" class="edge"><title>Node25&#45;&gt;Node10</title>
<path fill="none" stroke="#9a32cd" stroke-dasharray="5,2" d="M1060.17,-673.241C1069.61,-670.363 1079.41,-666.667 1088,-662 1152.31,-627.047 1213.66,-562.146 1235.55,-537.674"/>
<polygon fill="#9a32cd" stroke="#9a32cd" points="1059.21,-669.875 1050.54,-675.951 1061.11,-676.614 1059.21,-669.875"/>
<text text-anchor="middle" x="1144" y="-654" font-family="Helvetica,sans-Serif" font-size="10.00"> myBackground</text>
</g>
<!-- Node26 -->
<g id="node26" class="node"><title>Node26</title>
<polygon fill="white" stroke="#bfbfbf" points="64.5,-291.5 64.5,-310.5 109.5,-310.5 109.5,-291.5 64.5,-291.5"/>
<text text-anchor="middle" x="87" y="-298.5" font-family="Helvetica,sans-Serif" font-size="10.00">Stage</text>
</g>
<!-- Node26&#45;&gt;Node9 -->
<g id="edge30" class="edge"><title>Node26&#45;&gt;Node9</title>
<path fill="none" stroke="#9a32cd" stroke-dasharray="5,2" d="M119.53,-304.026C161.742,-308.319 238.861,-317.01 304,-329 324.058,-332.692 346.212,-337.921 364.179,-342.461"/>
<polygon fill="#9a32cd" stroke="#9a32cd" points="119.877,-300.544 109.578,-303.03 119.18,-307.509 119.877,-300.544"/>
<text text-anchor="middle" x="248" y="-332" font-family="Helvetica,sans-Serif" font-size="10.00"> myStage</text>
</g>
<!-- Node27&#45;&gt;Node9 -->
<g id="edge32" class="edge"><title>Node27&#45;&gt;Node9</title>
<path fill="none" stroke="#9a32cd" stroke-dasharray="5,2" d="M1222.93,-235.776C1211.23,-244.151 1196.2,-254.277 1182,-262 1075.98,-319.671 1049.85,-341.996 932,-368 743.601,-409.571 689.367,-401.509 498,-377 475.109,-374.068 449.879,-367.356 431.031,-361.624"/>
<polygon fill="#9a32cd" stroke="#9a32cd" points="1225.14,-238.497 1231.17,-229.783 1221.02,-232.838 1225.14,-238.497"/>
<text text-anchor="middle" x="881" y="-391" font-family="Helvetica,sans-Serif" font-size="10.00"> myEditor</text>
</g>
<!-- Node28 -->
<g id="node28" class="node"><title>Node28</title>
<polygon fill="white" stroke="#bfbfbf" points="998,-87.5 998,-106.5 1040,-106.5 1040,-87.5 998,-87.5"/>
<text text-anchor="middle" x="1019" y="-94.5" font-family="Helvetica,sans-Serif" font-size="10.00">HBox</text>
</g>
<!-- Node28&#45;&gt;Node27 -->
<g id="edge33" class="edge"><title>Node28&#45;&gt;Node27</title>
<path fill="none" stroke="midnightblue" d="M1050.66,-94.0329C1086.89,-92.323 1146.7,-95.4251 1182,-129 1205.9,-151.734 1178.65,-175.859 1200,-201 1203.23,-204.805 1207.37,-207.871 1211.8,-210.334"/>
<polygon fill="midnightblue" stroke="midnightblue" points="1049.98,-90.5683 1040.22,-94.6896 1050.42,-97.5544 1049.98,-90.5683"/>
</g>
<!-- Node29 -->
<g id="node29" class="node"><title>Node29</title>
<polygon fill="white" stroke="#bfbfbf" points="994.5,-172.5 994.5,-191.5 1043.5,-191.5 1043.5,-172.5 994.5,-172.5"/>
<text text-anchor="middle" x="1019" y="-179.5" font-family="Helvetica,sans-Serif" font-size="10.00">Button</text>
</g>
<!-- Node29&#45;&gt;Node27 -->
<g id="edge34" class="edge"><title>Node29&#45;&gt;Node27</title>
<path fill="none" stroke="#9a32cd" stroke-dasharray="5,2" d="M1053.72,-185.827C1086.6,-189.784 1137.94,-196.563 1182,-205 1191.57,-206.833 1201.89,-209.178 1211.31,-211.467"/>
<polygon fill="#9a32cd" stroke="#9a32cd" points="1054.07,-182.344 1043.73,-184.643 1053.25,-189.295 1054.07,-182.344"/>
<text text-anchor="middle" x="1144" y="-208" font-family="Helvetica,sans-Serif" font-size="10.00"> runButton</text>
</g>
<!-- Node30 -->
<g id="node30" class="node"><title>Node30</title>
<polygon fill="white" stroke="#bfbfbf" points="990,-210.5 990,-229.5 1048,-229.5 1048,-210.5 990,-210.5"/>
<text text-anchor="middle" x="1019" y="-217.5" font-family="Helvetica,sans-Serif" font-size="10.00">TextArea</text>
</g>
<!-- Node30&#45;&gt;Node27 -->
<g id="edge36" class="edge"><title>Node30&#45;&gt;Node27</title>
<path fill="none" stroke="#9a32cd" stroke-dasharray="5,2" d="M1058.46,-220C1101.5,-220 1170.52,-220 1211.14,-220"/>
<polygon fill="#9a32cd" stroke="#9a32cd" points="1058.37,-216.5 1048.37,-220 1058.37,-223.5 1058.37,-216.5"/>
<text text-anchor="middle" x="1144" y="-223" font-family="Helvetica,sans-Serif" font-size="10.00"> textEditor</text>
</g>
<!-- Node31 -->
<g id="node31" class="node"><title>Node31</title>
<polygon fill="white" stroke="#bfbfbf" points="27.5,-405.5 27.5,-424.5 146.5,-424.5 146.5,-405.5 27.5,-405.5"/>
<text text-anchor="middle" x="87" y="-412.5" font-family="Helvetica,sans-Serif" font-size="10.00">Map&lt; String, Node &gt;</text>
</g>
<!-- Node31&#45;&gt;Node9 -->
<g id="edge38" class="edge"><title>Node31&#45;&gt;Node9</title>
<path fill="none" stroke="#9a32cd" stroke-dasharray="5,2" d="M156.759,-408.316C199.492,-403.378 255.362,-395.498 304,-384 328.791,-378.139 356.296,-368.652 375.488,-361.526"/>
<polygon fill="#9a32cd" stroke="#9a32cd" points="156.29,-404.846 146.746,-409.447 157.075,-411.802 156.29,-404.846"/>
<text text-anchor="middle" x="248" y="-407" font-family="Helvetica,sans-Serif" font-size="10.00"> variables</text>
</g>
<!-- Node32 -->
<g id="node32" class="node"><title>Node32</title>
<polygon fill="white" stroke="#bfbfbf" points="46.5,-367.5 46.5,-386.5 127.5,-386.5 127.5,-367.5 46.5,-367.5"/>
<text text-anchor="middle" x="87" y="-374.5" font-family="Helvetica,sans-Serif" font-size="10.00">Dimension2D</text>
</g>
<!-- Node32&#45;&gt;Node9 -->
<g id="edge40" class="edge"><title>Node32&#45;&gt;Node9</title>
<path fill="none" stroke="#9a32cd" stroke-dasharray="5,2" d="M137.5,-373.034C197.45,-368.23 297.55,-360.209 355.269,-355.584"/>
<polygon fill="#9a32cd" stroke="#9a32cd" points="137.203,-369.546 127.515,-373.834 137.763,-376.524 137.203,-369.546"/>
<text text-anchor="middle" x="248" y="-372" font-family="Helvetica,sans-Serif" font-size="10.00"> myDimensions</text>
</g>
<!-- Node33&#45;&gt;Node9 -->
<g id="edge41" class="edge"><title>Node33&#45;&gt;Node9</title>
<path fill="none" stroke="#9a32cd" stroke-dasharray="5,2" d="M1386.3,-419.171C1264.58,-419.453 922.44,-419.106 638,-408 575.697,-405.567 558.259,-415.013 498,-399 467.511,-390.898 435.182,-372.83 416.901,-361.606"/>
<polygon fill="#9a32cd" stroke="#9a32cd" points="1386.38,-422.671 1396.37,-419.145 1386.36,-415.671 1386.38,-422.671"/>
<text text-anchor="middle" x="1019" y="-422" font-family="Helvetica,sans-Serif" font-size="10.00"> drawer</text>
</g>
<!-- Node34 -->
<g id="node34" class="node"><title>Node34</title>
<polygon fill="white" stroke="#bfbfbf" points="1224.5,-172.5 1224.5,-191.5 1265.5,-191.5 1265.5,-172.5 1224.5,-172.5"/>
<text text-anchor="middle" x="1245" y="-179.5" font-family="Helvetica,sans-Serif" font-size="10.00">Color</text>
</g>
<!-- Node34&#45;&gt;Node33 -->
<g id="edge43" class="edge"><title>Node34&#45;&gt;Node33</title>
<path fill="none" stroke="#9a32cd" stroke-dasharray="5,2" d="M1275.17,-191.706C1280.43,-194.235 1285.63,-197.312 1290,-201 1364.59,-263.893 1414.4,-375.851 1428.15,-409.303"/>
<polygon fill="#9a32cd" stroke="#9a32cd" points="1276.36,-188.41 1265.78,-187.734 1273.63,-194.856 1276.36,-188.41"/>
<text text-anchor="middle" x="1343" y="-308" font-family="Helvetica,sans-Serif" font-size="10.00"> myColor</text>
</g>
</g>
</svg>
