<?xml version="1.0" encoding="UTF-8" standalone="no"?>
<!DOCTYPE svg PUBLIC "-//W3C//DTD SVG 1.1//EN"
 "http://www.w3.org/Graphics/SVG/1.1/DTD/svg11.dtd">
<!-- Generated by graphviz version 2.36.0 (20140111.2315)
 -->
<!-- Title: model.instructions.StringInstruction Pages: 1 -->
<svg width="1604pt" height="613pt"
 viewBox="0.00 0.00 1604.00 613.00" xmlns="http://www.w3.org/2000/svg" xmlns:xlink="http://www.w3.org/1999/xlink">
<g id="graph0" class="graph" transform="scale(1 1) rotate(0) translate(4 609)">
<title>model.instructions.StringInstruction</title>
<polygon fill="white" stroke="none" points="-4,4 -4,-609 1600,-609 1600,4 -4,4"/>
<!-- Node1 -->
<g id="node1" class="node"><title>Node1</title>
<polygon fill="#bfbfbf" stroke="black" points="1021.5,-459 1021.5,-489 1158.5,-489 1158.5,-459 1021.5,-459"/>
<text text-anchor="start" x="1029.5" y="-477" font-family="Helvetica,sans-Serif" font-size="10.00">model.instructions.String</text>
<text text-anchor="middle" x="1090" y="-466" font-family="Helvetica,sans-Serif" font-size="10.00">Instruction</text>
</g>
<!-- Node2 -->
<g id="node2" class="node"><title>Node2</title>
<g id="a_node2"><a xlink:href="../../d1/dea/classmodel_1_1instructions_1_1_instruction.html" target="_top" xlink:title="model.instructions.Instruction">
<polygon fill="white" stroke="black" points="760,-464.5 760,-483.5 918,-483.5 918,-464.5 760,-464.5"/>
<text text-anchor="middle" x="839" y="-471.5" font-family="Helvetica,sans-Serif" font-size="10.00">model.instructions.Instruction</text>
</a>
</g>
</g>
<!-- Node2&#45;&gt;Node1 -->
<g id="edge1" class="edge"><title>Node2&#45;&gt;Node1</title>
<path fill="none" stroke="midnightblue" d="M928.33,-474C958.883,-474 992.619,-474 1021.26,-474"/>
<polygon fill="midnightblue" stroke="midnightblue" points="928.102,-470.5 918.102,-474 928.102,-477.5 928.102,-470.5"/>
</g>
<!-- Node3 -->
<g id="node3" class="node"><title>Node3</title>
<polygon fill="white" stroke="#bfbfbf" points="179,-271.5 179,-290.5 239,-290.5 239,-271.5 179,-271.5"/>
<text text-anchor="middle" x="209" y="-278.5" font-family="Helvetica,sans-Serif" font-size="10.00">Observer</text>
</g>
<!-- Node3&#45;&gt;Node2 -->
<g id="edge2" class="edge"><title>Node3&#45;&gt;Node2</title>
<path fill="none" stroke="midnightblue" d="M220.676,-299.37C237.008,-325.499 270.888,-372.5 314,-393 486.156,-474.864 559.055,-367.424 742,-421 774.156,-430.417 807.473,-451.936 825.155,-464.466"/>
<polygon fill="midnightblue" stroke="midnightblue" points="223.644,-297.514 215.469,-290.775 217.658,-301.142 223.644,-297.514"/>
</g>
<!-- Node9 -->
<g id="node9" class="node"><title>Node9</title>
<g id="a_node9"><a xlink:href="../../d6/de7/classview_1_1_s_logo_view.html" target="_top" xlink:title="view.SLogoView">
<polygon fill="white" stroke="black" points="477.5,-158.5 477.5,-177.5 568.5,-177.5 568.5,-158.5 477.5,-158.5"/>
<text text-anchor="middle" x="523" y="-165.5" font-family="Helvetica,sans-Serif" font-size="10.00">view.SLogoView</text>
</a>
</g>
</g>
<!-- Node3&#45;&gt;Node9 -->
<g id="edge9" class="edge"><title>Node3&#45;&gt;Node9</title>
<path fill="none" stroke="midnightblue" d="M249.181,-275.963C302.529,-268.728 394.939,-254.745 426,-241 461.805,-225.155 496.525,-193.507 512.64,-177.598"/>
<polygon fill="midnightblue" stroke="midnightblue" points="248.508,-272.522 239.062,-277.318 249.438,-279.46 248.508,-272.522"/>
</g>
<!-- Node18 -->
<g id="node18" class="node"><title>Node18</title>
<g id="a_node18"><a xlink:href="../../dc/df5/classmodel_1_1_parser.html" target="_top" xlink:title="model.Parser">
<polygon fill="white" stroke="black" points="799,-293.5 799,-312.5 879,-312.5 879,-293.5 799,-293.5"/>
<text text-anchor="middle" x="839" y="-300.5" font-family="Helvetica,sans-Serif" font-size="10.00">model.Parser</text>
</a>
</g>
</g>
<!-- Node3&#45;&gt;Node18 -->
<g id="edge19" class="edge"><title>Node3&#45;&gt;Node18</title>
<path fill="none" stroke="midnightblue" d="M249.273,-282.376C362.078,-286.328 686.163,-297.681 798.834,-301.628"/>
<polygon fill="midnightblue" stroke="midnightblue" points="249.147,-278.869 239.03,-282.017 248.902,-285.865 249.147,-278.869"/>
</g>
<!-- Node4 -->
<g id="node4" class="node"><title>Node4</title>
<g id="a_node4"><a xlink:href="../../d1/dca/classmodel_1_1_execution_environment.html" target="_top" xlink:title="model.ExecutionEnvironment">
<polygon fill="white" stroke="black" points="444.5,-447.5 444.5,-466.5 601.5,-466.5 601.5,-447.5 444.5,-447.5"/>
<text text-anchor="middle" x="523" y="-454.5" font-family="Helvetica,sans-Serif" font-size="10.00">model.ExecutionEnvironment</text>
</a>
</g>
</g>
<!-- Node4&#45;&gt;Node2 -->
<g id="edge3" class="edge"><title>Node4&#45;&gt;Node2</title>
<path fill="none" stroke="#9a32cd" stroke-dasharray="5,2" d="M611.688,-461.747C658.218,-464.267 714.911,-467.336 759.914,-469.772"/>
<polygon fill="#9a32cd" stroke="#9a32cd" points="611.793,-458.248 601.618,-461.202 611.414,-465.238 611.793,-458.248"/>
<text text-anchor="middle" x="681" y="-472" font-family="Helvetica,sans-Serif" font-size="10.00"> myEnvironment</text>
</g>
<!-- Node4&#45;&gt;Node18 -->
<g id="edge21" class="edge"><title>Node4&#45;&gt;Node18</title>
<path fill="none" stroke="#9a32cd" stroke-dasharray="5,2" d="M560.272,-443.918C604.269,-427.549 680.216,-397.669 742,-365 772.869,-348.678 806.668,-325.494 824.778,-312.598"/>
<polygon fill="#9a32cd" stroke="#9a32cd" points="559.026,-440.648 550.858,-447.396 561.451,-447.214 559.026,-440.648"/>
<text text-anchor="middle" x="681" y="-422" font-family="Helvetica,sans-Serif" font-size="10.00"> myExecutionParameters</text>
</g>
<!-- Node5 -->
<g id="node5" class="node"><title>Node5</title>
<polygon fill="white" stroke="#bfbfbf" points="173.5,-456.5 173.5,-475.5 244.5,-475.5 244.5,-456.5 173.5,-456.5"/>
<text text-anchor="middle" x="209" y="-463.5" font-family="Helvetica,sans-Serif" font-size="10.00">Observable</text>
</g>
<!-- Node5&#45;&gt;Node4 -->
<g id="edge4" class="edge"><title>Node5&#45;&gt;Node4</title>
<path fill="none" stroke="midnightblue" d="M254.637,-464.712C304.066,-463.287 384.658,-460.962 444.457,-459.237"/>
<polygon fill="midnightblue" stroke="midnightblue" points="254.476,-461.215 244.582,-465.002 254.678,-468.213 254.476,-461.215"/>
</g>
<!-- Node6 -->
<g id="node6" class="node"><title>Node6</title>
<polygon fill="white" stroke="#bfbfbf" points="122,-407 122,-437 296,-437 296,-407 122,-407"/>
<text text-anchor="start" x="130" y="-425" font-family="Helvetica,sans-Serif" font-size="10.00">Map&lt; String, model.instructions.</text>
<text text-anchor="middle" x="209" y="-414" font-family="Helvetica,sans-Serif" font-size="10.00">Instruction &gt;</text>
</g>
<!-- Node6&#45;&gt;Node4 -->
<g id="edge5" class="edge"><title>Node6&#45;&gt;Node4</title>
<path fill="none" stroke="#9a32cd" stroke-dasharray="5,2" d="M306.595,-431.905C343.918,-435.832 386.963,-440.482 426,-445 432.757,-445.782 439.779,-446.617 446.813,-447.469"/>
<polygon fill="#9a32cd" stroke="#9a32cd" points="306.539,-428.38 296.228,-430.817 305.809,-435.342 306.539,-428.38"/>
<text text-anchor="middle" x="370" y="-448" font-family="Helvetica,sans-Serif" font-size="10.00"> myUserInstructionMap</text>
</g>
<!-- Node7 -->
<g id="node7" class="node"><title>Node7</title>
<polygon fill="white" stroke="#bfbfbf" points="145,-494.5 145,-513.5 273,-513.5 273,-494.5 145,-494.5"/>
<text text-anchor="middle" x="209" y="-501.5" font-family="Helvetica,sans-Serif" font-size="10.00">Map&lt; String, Double &gt;</text>
</g>
<!-- Node7&#45;&gt;Node4 -->
<g id="edge6" class="edge"><title>Node7&#45;&gt;Node4</title>
<path fill="none" stroke="#9a32cd" stroke-dasharray="5,2" d="M283.137,-495.745C325.054,-490.707 378.597,-483.755 426,-476 442.767,-473.257 461.083,-469.758 477.18,-466.512"/>
<polygon fill="#9a32cd" stroke="#9a32cd" points="282.531,-492.292 273.015,-496.951 283.359,-499.243 282.531,-492.292"/>
<text text-anchor="middle" x="370" y="-495" font-family="Helvetica,sans-Serif" font-size="10.00"> myVariableMap</text>
</g>
<!-- Node8 -->
<g id="node8" class="node"><title>Node8</title>
<polygon fill="white" stroke="#bfbfbf" points="455,-486 455,-516 591,-516 591,-486 455,-486"/>
<text text-anchor="start" x="463" y="-504" font-family="Helvetica,sans-Serif" font-size="10.00">List&lt; model.instructions.</text>
<text text-anchor="middle" x="523" y="-493" font-family="Helvetica,sans-Serif" font-size="10.00">Instruction &gt;</text>
</g>
<!-- Node8&#45;&gt;Node2 -->
<g id="edge7" class="edge"><title>Node8&#45;&gt;Node2</title>
<path fill="none" stroke="#9a32cd" stroke-dasharray="5,2" d="M601.394,-495.456C643.076,-492.346 695.374,-488.246 742,-484 747.841,-483.468 753.879,-482.895 759.951,-482.301"/>
<polygon fill="#9a32cd" stroke="#9a32cd" points="601.023,-491.974 591.309,-496.205 601.541,-498.955 601.023,-491.974"/>
<text text-anchor="middle" x="681" y="-497" font-family="Helvetica,sans-Serif" font-size="10.00"> myDependencies</text>
</g>
<!-- Node9&#45;&gt;Node2 -->
<g id="edge8" class="edge"><title>Node9&#45;&gt;Node2</title>
<path fill="none" stroke="#9a32cd" stroke-dasharray="5,2" d="M543.446,-183.973C562.299,-199.017 592.069,-221.628 620,-238 671.471,-268.17 698.574,-253.089 742,-294 749.073,-300.663 814.593,-428.231 833.133,-464.472"/>
<polygon fill="#9a32cd" stroke="#9a32cd" points="545.579,-181.196 535.598,-177.643 541.184,-186.645 545.579,-181.196"/>
<text text-anchor="middle" x="681" y="-297" font-family="Helvetica,sans-Serif" font-size="10.00"> myView</text>
</g>
<!-- Node9&#45;&gt;Node18 -->
<g id="edge23" class="edge"><title>Node9&#45;&gt;Node18</title>
<path fill="none" stroke="#9a32cd" stroke-dasharray="5,2" d="M555.544,-181.401C574.058,-188.867 598.058,-197.867 620,-204 673.141,-218.853 692.091,-203.471 742,-227 751.419,-231.441 751.898,-235.458 760,-242 782.872,-260.467 809.991,-281.48 825.478,-293.399"/>
<polygon fill="#9a32cd" stroke="#9a32cd" points="556.718,-178.099 546.138,-177.549 554.066,-184.577 556.718,-178.099"/>
<text text-anchor="middle" x="681" y="-230" font-family="Helvetica,sans-Serif" font-size="10.00"> mySLogoView</text>
</g>
<!-- Node10 -->
<g id="node10" class="node"><title>Node10</title>
<g id="a_node10"><a xlink:href="../../da/d64/classview_1_1_workspace.html" target="_top" xlink:title="view.Workspace">
<polygon fill="white" stroke="black" points="1506,-426.5 1506,-445.5 1596,-445.5 1596,-426.5 1506,-426.5"/>
<text text-anchor="middle" x="1551" y="-433.5" font-family="Helvetica,sans-Serif" font-size="10.00">view.Workspace</text>
</a>
</g>
</g>
<!-- Node10&#45;&gt;Node9 -->
<g id="edge10" class="edge"><title>Node10&#45;&gt;Node9</title>
<path fill="none" stroke="#9a32cd" stroke-dasharray="5,2" d="M1495.79,-440.626C1493.16,-440.771 1490.55,-440.897 1488,-441 1408.03,-444.219 1387.77,-442.461 1308,-436 1241.57,-430.619 1057.27,-448.992 1010,-402 962.383,-354.66 1038.07,-300.851 992,-252 914.546,-169.863 853.122,-226.941 742,-207 682.018,-196.236 612.743,-183.851 568.676,-175.978"/>
<polygon fill="#9a32cd" stroke="#9a32cd" points="1496.23,-444.106 1506,-439.988 1495.8,-437.119 1496.23,-444.106"/>
<text text-anchor="middle" x="1090" y="-439" font-family="Helvetica,sans-Serif" font-size="10.00"> myWorkspace</text>
</g>
<!-- Node11 -->
<g id="node11" class="node"><title>Node11</title>
<polygon fill="white" stroke="#bfbfbf" points="1317.5,-407.5 1317.5,-426.5 1384.5,-426.5 1384.5,-407.5 1317.5,-407.5"/>
<text text-anchor="middle" x="1351" y="-414.5" font-family="Helvetica,sans-Serif" font-size="10.00">StackPane</text>
</g>
<!-- Node11&#45;&gt;Node10 -->
<g id="edge11" class="edge"><title>Node11&#45;&gt;Node10</title>
<path fill="none" stroke="midnightblue" d="M1394.87,-421.114C1427.64,-424.258 1472.66,-428.578 1505.76,-431.755"/>
<polygon fill="midnightblue" stroke="midnightblue" points="1394.98,-417.609 1384.7,-420.137 1394.32,-424.577 1394.98,-417.609"/>
</g>
<!-- Node12 -->
<g id="node12" class="node"><title>Node12</title>
<g id="a_node12"><a xlink:href="../../d8/df7/classview_1_1_turtle_view.html" target="_top" xlink:title="view.TurtleView">
<polygon fill="white" stroke="black" points="1308,-504.5 1308,-523.5 1394,-523.5 1394,-504.5 1308,-504.5"/>
<text text-anchor="middle" x="1351" y="-511.5" font-family="Helvetica,sans-Serif" font-size="10.00">view.TurtleView</text>
</a>
</g>
</g>
<!-- Node12&#45;&gt;Node10 -->
<g id="edge12" class="edge"><title>Node12&#45;&gt;Node10</title>
<path fill="none" stroke="#9a32cd" stroke-dasharray="5,2" d="M1396.04,-501.502C1423.01,-493.341 1457.99,-481.84 1488,-469 1504.03,-462.14 1521.5,-452.647 1533.79,-445.603"/>
<polygon fill="#9a32cd" stroke="#9a32cd" points="1394.71,-498.248 1386.12,-504.462 1396.71,-504.956 1394.71,-498.248"/>
<text text-anchor="middle" x="1450" y="-499" font-family="Helvetica,sans-Serif" font-size="10.00"> myActiveTurtle</text>
</g>
<!-- Node13 -->
<g id="node13" class="node"><title>Node13</title>
<polygon fill="white" stroke="#bfbfbf" points="1056,-546.5 1056,-565.5 1124,-565.5 1124,-546.5 1056,-546.5"/>
<text text-anchor="middle" x="1090" y="-553.5" font-family="Helvetica,sans-Serif" font-size="10.00">ImageView</text>
</g>
<!-- Node13&#45;&gt;Node12 -->
<g id="edge13" class="edge"><title>Node13&#45;&gt;Node12</title>
<path fill="none" stroke="midnightblue" d="M1134.18,-548.998C1182.37,-541.183 1259.85,-528.618 1307.69,-520.861"/>
<polygon fill="midnightblue" stroke="midnightblue" points="1133.38,-545.582 1124.07,-550.638 1134.5,-552.492 1133.38,-545.582"/>
</g>
<!-- Node14 -->
<g id="node14" class="node"><title>Node14</title>
<polygon fill="white" stroke="#bfbfbf" points="141,-533 141,-563 277,-563 277,-533 141,-533"/>
<text text-anchor="start" x="149" y="-551" font-family="Helvetica,sans-Serif" font-size="10.00">Map&lt; Integer, view.Turtle</text>
<text text-anchor="middle" x="209" y="-540" font-family="Helvetica,sans-Serif" font-size="10.00">View &gt;</text>
</g>
<!-- Node14&#45;&gt;Node9 -->
<g id="edge41" class="edge"><title>Node14&#45;&gt;Node9</title>
<path fill="none" stroke="#9a32cd" stroke-dasharray="5,2" d="M286.191,-531.593C289.777,-529.109 293.088,-526.262 296,-523 327.533,-487.681 294.182,-461 314,-418 340.114,-361.339 476.153,-216.193 512.864,-177.564"/>
<polygon fill="#9a32cd" stroke="#9a32cd" points="284.241,-528.679 277.382,-536.754 287.779,-534.719 284.241,-528.679"/>
<text text-anchor="middle" x="370" y="-421" font-family="Helvetica,sans-Serif" font-size="10.00"> myTurtles</text>
</g>
<!-- Node14&#45;&gt;Node10 -->
<g id="edge14" class="edge"><title>Node14&#45;&gt;Node10</title>
<path fill="none" stroke="#9a32cd" stroke-dasharray="5,2" d="M283.965,-565.135C346.9,-578.212 439.885,-594 522,-594 522,-594 522,-594 1352,-594 1447.43,-594 1523.34,-480.474 1544.26,-445.884"/>
<polygon fill="#9a32cd" stroke="#9a32cd" points="284.635,-561.699 274.128,-563.062 283.192,-568.549 284.635,-561.699"/>
<text text-anchor="middle" x="964" y="-597" font-family="Helvetica,sans-Serif" font-size="10.00"> myTurtles</text>
</g>
<!-- Node15 -->
<g id="node15" class="node"><title>Node15</title>
<g id="a_node15"><a xlink:href="../../d1/dc7/classview_1_1_side_bar.html" target="_top" xlink:title="view.SideBar">
<polygon fill="white" stroke="black" points="1312.5,-264.5 1312.5,-283.5 1389.5,-283.5 1389.5,-264.5 1312.5,-264.5"/>
<text text-anchor="middle" x="1351" y="-271.5" font-family="Helvetica,sans-Serif" font-size="10.00">view.SideBar</text>
</a>
</g>
</g>
<!-- Node14&#45;&gt;Node15 -->
<g id="edge25" class="edge"><title>Node14&#45;&gt;Node15</title>
<path fill="none" stroke="#9a32cd" stroke-dasharray="5,2" d="M287.089,-550.968C486.13,-557.533 1012.68,-567.62 1170,-498 1270.14,-453.685 1330.89,-320.685 1346.17,-283.66"/>
<polygon fill="#9a32cd" stroke="#9a32cd" points="287.119,-547.467 277.007,-550.629 286.884,-554.463 287.119,-547.467"/>
<text text-anchor="middle" x="839" y="-556" font-family="Helvetica,sans-Serif" font-size="10.00"> myTurtles</text>
</g>
<!-- Node15&#45;&gt;Node9 -->
<g id="edge45" class="edge"><title>Node15&#45;&gt;Node9</title>
<path fill="none" stroke="#9a32cd" stroke-dasharray="5,2" d="M1338.07,-255.672C1329.25,-241.772 1317.23,-222.045 1308,-204 1298.75,-185.918 1306.38,-174.01 1290,-162 1051.93,12.6021 650.718,-120.133 548.347,-158.471"/>
<polygon fill="#9a32cd" stroke="#9a32cd" points="1335.24,-257.745 1343.59,-264.271 1341.13,-253.965 1335.24,-257.745"/>
<text text-anchor="middle" x="964" y="-78" font-family="Helvetica,sans-Serif" font-size="10.00"> mySidebar</text>
</g>
<!-- Node15&#45;&gt;Node10 -->
<g id="edge15" class="edge"><title>Node15&#45;&gt;Node10</title>
<path fill="none" stroke="#9a32cd" stroke-dasharray="5,2" d="M1374.47,-289.535C1401.99,-308.859 1449.67,-343.303 1488,-376 1507.6,-392.72 1528.85,-414.058 1540.69,-426.26"/>
<polygon fill="#9a32cd" stroke="#9a32cd" points="1376.15,-286.443 1365.95,-283.586 1372.14,-292.182 1376.15,-286.443"/>
<text text-anchor="middle" x="1450" y="-379" font-family="Helvetica,sans-Serif" font-size="10.00"> mySidebar</text>
</g>
<!-- Node28 -->
<g id="node28" class="node"><title>Node28</title>
<g id="a_node28"><a xlink:href="../../da/dc8/classview_1_1_editor.html" target="_top" xlink:title="view.Editor">
<polygon fill="white" stroke="black" points="1517.5,-113.5 1517.5,-132.5 1584.5,-132.5 1584.5,-113.5 1517.5,-113.5"/>
<text text-anchor="middle" x="1551" y="-120.5" font-family="Helvetica,sans-Serif" font-size="10.00">view.Editor</text>
</a>
</g>
</g>
<!-- Node15&#45;&gt;Node28 -->
<g id="edge37" class="edge"><title>Node15&#45;&gt;Node28</title>
<path fill="none" stroke="#9a32cd" stroke-dasharray="5,2" d="M1381.82,-259.985C1410.62,-245.664 1454.66,-221.65 1488,-194 1510.93,-174.988 1532.59,-147.123 1543.2,-132.602"/>
<polygon fill="#9a32cd" stroke="#9a32cd" points="1380.11,-256.922 1372.67,-264.462 1383.19,-263.209 1380.11,-256.922"/>
<text text-anchor="middle" x="1450" y="-247" font-family="Helvetica,sans-Serif" font-size="10.00"> mySidebar</text>
</g>
<!-- Node16 -->
<g id="node16" class="node"><title>Node16</title>
<polygon fill="white" stroke="#bfbfbf" points="1069.5,-373.5 1069.5,-392.5 1110.5,-392.5 1110.5,-373.5 1069.5,-373.5"/>
<text text-anchor="middle" x="1090" y="-380.5" font-family="Helvetica,sans-Serif" font-size="10.00">VBox</text>
</g>
<!-- Node16&#45;&gt;Node15 -->
<g id="edge16" class="edge"><title>Node16&#45;&gt;Node15</title>
<path fill="none" stroke="midnightblue" d="M1120.77,-384.284C1161.74,-384.705 1236.51,-380.533 1290,-349 1317.01,-333.081 1336.71,-300.095 1345.27,-283.694"/>
<polygon fill="midnightblue" stroke="midnightblue" points="1120.71,-380.782 1110.64,-384.077 1120.56,-387.78 1120.71,-380.782"/>
</g>
<!-- Node17 -->
<g id="node17" class="node"><title>Node17</title>
<g id="a_node17"><a xlink:href="../../d4/dd9/classcontroller_1_1_s_logo_controller.html" target="_top" xlink:title="controller.SLogoController">
<polygon fill="white" stroke="black" points="1020,-159.5 1020,-178.5 1160,-178.5 1160,-159.5 1020,-159.5"/>
<text text-anchor="middle" x="1090" y="-166.5" font-family="Helvetica,sans-Serif" font-size="10.00">controller.SLogoController</text>
</a>
</g>
</g>
<!-- Node17&#45;&gt;Node9 -->
<g id="edge39" class="edge"><title>Node17&#45;&gt;Node9</title>
<path fill="none" stroke="#9a32cd" stroke-dasharray="5,2" d="M1009.37,-168.859C888.907,-168.646 664.292,-168.248 568.807,-168.079"/>
<polygon fill="#9a32cd" stroke="#9a32cd" points="1009.62,-172.359 1019.63,-168.877 1009.64,-165.359 1009.62,-172.359"/>
<text text-anchor="middle" x="839" y="-172" font-family="Helvetica,sans-Serif" font-size="10.00"> myController</text>
</g>
<!-- Node17&#45;&gt;Node15 -->
<g id="edge17" class="edge"><title>Node17&#45;&gt;Node15</title>
<path fill="none" stroke="#9a32cd" stroke-dasharray="5,2" d="M1170.34,-164.384C1208.78,-165.55 1254.24,-172.207 1290,-193 1318.9,-209.801 1338.07,-246.621 1345.95,-264.235"/>
<polygon fill="#9a32cd" stroke="#9a32cd" points="1170.28,-160.882 1160.21,-164.197 1170.15,-167.881 1170.28,-160.882"/>
<text text-anchor="middle" x="1239" y="-196" font-family="Helvetica,sans-Serif" font-size="10.00"> myController</text>
</g>
<!-- Node17&#45;&gt;Node28 -->
<g id="edge35" class="edge"><title>Node17&#45;&gt;Node28</title>
<path fill="none" stroke="#9a32cd" stroke-dasharray="5,2" d="M1170.3,-162.182C1250.5,-155.107 1377.97,-143.361 1488,-131 1497.49,-129.934 1507.78,-128.655 1517.2,-127.436"/>
<polygon fill="#9a32cd" stroke="#9a32cd" points="1169.93,-158.701 1160.28,-163.064 1170.55,-165.674 1169.93,-158.701"/>
<text text-anchor="middle" x="1351" y="-153" font-family="Helvetica,sans-Serif" font-size="10.00"> myController</text>
</g>
<!-- Node18&#45;&gt;Node17 -->
<g id="edge18" class="edge"><title>Node18&#45;&gt;Node17</title>
<path fill="none" stroke="#9a32cd" stroke-dasharray="5,2" d="M859.579,-286.544C889.905,-261.859 950.918,-215.337 1010,-189 1019.43,-184.795 1029.91,-181.362 1040.07,-178.602"/>
<polygon fill="#9a32cd" stroke="#9a32cd" points="857.021,-284.116 851.527,-293.175 861.471,-289.52 857.021,-284.116"/>
<text text-anchor="middle" x="964" y="-233" font-family="Helvetica,sans-Serif" font-size="10.00"> myParser</text>
</g>
<!-- Node19 -->
<g id="node19" class="node"><title>Node19</title>
<polygon fill="white" stroke="#bfbfbf" points="467,-348 467,-378 579,-378 579,-348 467,-348"/>
<text text-anchor="start" x="475" y="-366" font-family="Helvetica,sans-Serif" font-size="10.00">List&lt; Entry&lt; String,</text>
<text text-anchor="middle" x="523" y="-355" font-family="Helvetica,sans-Serif" font-size="10.00"> Pattern &gt; &gt;</text>
</g>
<!-- Node19&#45;&gt;Node18 -->
<g id="edge20" class="edge"><title>Node19&#45;&gt;Node18</title>
<path fill="none" stroke="#9a32cd" stroke-dasharray="5,2" d="M589.565,-354.687C633.025,-348.709 691.185,-339.81 742,-329 763.618,-324.401 787.618,-317.901 806.214,-312.551"/>
<polygon fill="#9a32cd" stroke="#9a32cd" points="588.844,-351.253 579.407,-356.069 589.788,-358.189 588.844,-351.253"/>
<text text-anchor="middle" x="681" y="-353" font-family="Helvetica,sans-Serif" font-size="10.00"> myPatterns</text>
</g>
<!-- Node20 -->
<g id="node20" class="node"><title>Node20</title>
<polygon fill="white" stroke="#bfbfbf" points="462,-309.5 462,-328.5 584,-328.5 584,-309.5 462,-309.5"/>
<text text-anchor="middle" x="523" y="-316.5" font-family="Helvetica,sans-Serif" font-size="10.00">Map&lt; String, String &gt;</text>
</g>
<!-- Node20&#45;&gt;Node18 -->
<g id="edge22" class="edge"><title>Node20&#45;&gt;Node18</title>
<path fill="none" stroke="#9a32cd" stroke-dasharray="5,2" d="M594.447,-315.41C657.558,-312.194 747.811,-307.596 798.868,-304.994"/>
<polygon fill="#9a32cd" stroke="#9a32cd" points="593.98,-311.93 584.171,-315.934 594.336,-318.92 593.98,-311.93"/>
<text text-anchor="middle" x="681" y="-317" font-family="Helvetica,sans-Serif" font-size="10.00"> myCommandMap</text>
</g>
<!-- Node21 -->
<g id="node21" class="node"><title>Node21</title>
<polygon fill="white" stroke="#bfbfbf" points="1023,-324 1023,-354 1157,-354 1157,-324 1023,-324"/>
<text text-anchor="start" x="1031" y="-342" font-family="Helvetica,sans-Serif" font-size="10.00">TableView&lt; view.Variable</text>
<text text-anchor="middle" x="1090" y="-331" font-family="Helvetica,sans-Serif" font-size="10.00">View &gt;</text>
</g>
<!-- Node21&#45;&gt;Node15 -->
<g id="edge24" class="edge"><title>Node21&#45;&gt;Node15</title>
<path fill="none" stroke="#9a32cd" stroke-dasharray="5,2" d="M1167.55,-327.241C1204.91,-320.587 1250.26,-311.144 1290,-299 1303.6,-294.845 1318.35,-288.723 1329.82,-283.578"/>
<polygon fill="#9a32cd" stroke="#9a32cd" points="1166.48,-323.874 1157.24,-329.043 1167.69,-330.769 1166.48,-323.874"/>
<text text-anchor="middle" x="1239" y="-337" font-family="Helvetica,sans-Serif" font-size="10.00"> turtlePropertiesTable</text>
<text text-anchor="middle" x="1239" y="-326" font-family="Helvetica,sans-Serif" font-size="10.00">variablesTable</text>
</g>
<!-- Node22 -->
<g id="node22" class="node"><title>Node22</title>
<polygon fill="white" stroke="#bfbfbf" points="1010.5,-275 1010.5,-305 1169.5,-305 1169.5,-275 1010.5,-275"/>
<text text-anchor="start" x="1018.5" y="-293" font-family="Helvetica,sans-Serif" font-size="10.00">ObservableList&lt; view.Variable</text>
<text text-anchor="middle" x="1090" y="-282" font-family="Helvetica,sans-Serif" font-size="10.00">View &gt;</text>
</g>
<!-- Node22&#45;&gt;Node15 -->
<g id="edge26" class="edge"><title>Node22&#45;&gt;Node15</title>
<path fill="none" stroke="#9a32cd" stroke-dasharray="5,2" d="M1179.89,-284.508C1225.15,-281.713 1277.77,-278.462 1312.36,-276.325"/>
<polygon fill="#9a32cd" stroke="#9a32cd" points="1179.53,-281.024 1169.76,-285.134 1179.96,-288.011 1179.53,-281.024"/>
<text text-anchor="middle" x="1239" y="-287" font-family="Helvetica,sans-Serif" font-size="10.00"> variablesList</text>
</g>
<!-- Node23 -->
<g id="node23" class="node"><title>Node23</title>
<polygon fill="white" stroke="#bfbfbf" points="1021,-236.5 1021,-255.5 1159,-255.5 1159,-236.5 1021,-236.5"/>
<text text-anchor="middle" x="1090" y="-243.5" font-family="Helvetica,sans-Serif" font-size="10.00">ObservableList&lt; String &gt;</text>
</g>
<!-- Node23&#45;&gt;Node15 -->
<g id="edge27" class="edge"><title>Node23&#45;&gt;Node15</title>
<path fill="none" stroke="#9a32cd" stroke-dasharray="5,2" d="M1169.49,-242.597C1206.37,-242.464 1250.76,-244.421 1290,-252 1303.4,-254.588 1317.77,-259.768 1329.09,-264.451"/>
<polygon fill="#9a32cd" stroke="#9a32cd" points="1169.26,-239.099 1159.29,-242.687 1169.32,-246.099 1169.26,-239.099"/>
<text text-anchor="middle" x="1239" y="-266" font-family="Helvetica,sans-Serif" font-size="10.00"> commandItems</text>
<text text-anchor="middle" x="1239" y="-255" font-family="Helvetica,sans-Serif" font-size="10.00">historyItems</text>
</g>
<!-- Node24 -->
<g id="node24" class="node"><title>Node24</title>
<polygon fill="white" stroke="#bfbfbf" points="1037,-198.5 1037,-217.5 1143,-217.5 1143,-198.5 1037,-198.5"/>
<text text-anchor="middle" x="1090" y="-205.5" font-family="Helvetica,sans-Serif" font-size="10.00">ListView&lt; String &gt;</text>
</g>
<!-- Node24&#45;&gt;Node15 -->
<g id="edge28" class="edge"><title>Node24&#45;&gt;Node15</title>
<path fill="none" stroke="#9a32cd" stroke-dasharray="5,2" d="M1153.34,-205.614C1193.64,-206.136 1246.49,-210.768 1290,-228 1310.5,-236.12 1329.93,-253.393 1340.87,-264.309"/>
<polygon fill="#9a32cd" stroke="#9a32cd" points="1153.14,-202.113 1143.12,-205.566 1153.1,-209.113 1153.14,-202.113"/>
<text text-anchor="middle" x="1239" y="-231" font-family="Helvetica,sans-Serif" font-size="10.00"> historyList</text>
</g>
<!-- Node25 -->
<g id="node25" class="node"><title>Node25</title>
<polygon fill="white" stroke="#bfbfbf" points="1319.5,-369.5 1319.5,-388.5 1382.5,-388.5 1382.5,-369.5 1319.5,-369.5"/>
<text text-anchor="middle" x="1351" y="-376.5" font-family="Helvetica,sans-Serif" font-size="10.00">Rectangle</text>
</g>
<!-- Node25&#45;&gt;Node10 -->
<g id="edge29" class="edge"><title>Node25&#45;&gt;Node10</title>
<path fill="none" stroke="#9a32cd" stroke-dasharray="5,2" d="M1392.68,-385.84C1420,-390.95 1456.6,-398.805 1488,-409 1502.63,-413.749 1518.52,-420.708 1530.55,-426.371"/>
<polygon fill="#9a32cd" stroke="#9a32cd" points="1393.17,-382.37 1382.7,-384.017 1391.91,-389.256 1393.17,-382.37"/>
<text text-anchor="middle" x="1450" y="-412" font-family="Helvetica,sans-Serif" font-size="10.00"> myBackground</text>
</g>
<!-- Node26 -->
<g id="node26" class="node"><title>Node26</title>
<polygon fill="white" stroke="#bfbfbf" points="186.5,-228.5 186.5,-247.5 231.5,-247.5 231.5,-228.5 186.5,-228.5"/>
<text text-anchor="middle" x="209" y="-235.5" font-family="Helvetica,sans-Serif" font-size="10.00">Stage</text>
</g>
<!-- Node26&#45;&gt;Node9 -->
<g id="edge30" class="edge"><title>Node26&#45;&gt;Node9</title>
<path fill="none" stroke="#9a32cd" stroke-dasharray="5,2" d="M241.78,-235.034C284.271,-230.609 361.699,-220.93 426,-204 452.164,-197.111 481.102,-185.711 500.296,-177.586"/>
<polygon fill="#9a32cd" stroke="#9a32cd" points="241.357,-231.559 231.76,-236.048 242.061,-238.524 241.357,-231.559"/>
<text text-anchor="middle" x="370" y="-229" font-family="Helvetica,sans-Serif" font-size="10.00"> myStage</text>
</g>
<!-- Node27 -->
<g id="node27" class="node"><title>Node27</title>
<polygon fill="white" stroke="#bfbfbf" points="162.5,-190.5 162.5,-209.5 255.5,-209.5 255.5,-190.5 162.5,-190.5"/>
<text text-anchor="middle" x="209" y="-197.5" font-family="Helvetica,sans-Serif" font-size="10.00">ResourceBundle</text>
</g>
<!-- Node27&#45;&gt;Node9 -->
<g id="edge31" class="edge"><title>Node27&#45;&gt;Node9</title>
<path fill="none" stroke="#9a32cd" stroke-dasharray="5,2" d="M265.841,-194.273C326.364,-188.065 421.735,-178.284 477.44,-172.57"/>
<polygon fill="#9a32cd" stroke="#9a32cd" points="265.292,-190.811 255.702,-195.313 266.007,-197.774 265.292,-190.811"/>
<text text-anchor="middle" x="370" y="-192" font-family="Helvetica,sans-Serif" font-size="10.00"> myResources</text>
</g>
<!-- Node28&#45;&gt;Node9 -->
<g id="edge32" class="edge"><title>Node28&#45;&gt;Node9</title>
<path fill="none" stroke="#9a32cd" stroke-dasharray="5,2" d="M1531.39,-106.252C1498.02,-78.0189 1424.68,-24 1352,-24 838,-24 838,-24 838,-24 735.681,-24 710.82,-50.8748 620,-98 586.495,-115.385 551.835,-143.685 534.793,-158.411"/>
<polygon fill="#9a32cd" stroke="#9a32cd" points="1529.5,-109.244 1539.35,-113.146 1534.08,-103.953 1529.5,-109.244"/>
<text text-anchor="middle" x="1090" y="-27" font-family="Helvetica,sans-Serif" font-size="10.00"> myEditor</text>
</g>
<!-- Node29 -->
<g id="node29" class="node"><title>Node29</title>
<polygon fill="white" stroke="#bfbfbf" points="1330,-52.5 1330,-71.5 1372,-71.5 1372,-52.5 1330,-52.5"/>
<text text-anchor="middle" x="1351" y="-59.5" font-family="Helvetica,sans-Serif" font-size="10.00">HBox</text>
</g>
<!-- Node29&#45;&gt;Node28 -->
<g id="edge33" class="edge"><title>Node29&#45;&gt;Node28</title>
<path fill="none" stroke="midnightblue" d="M1381.76,-71.1696C1418.68,-82.544 1481.33,-101.844 1518.87,-113.41"/>
<polygon fill="midnightblue" stroke="midnightblue" points="1382.66,-67.7842 1372.07,-68.1847 1380.6,-74.4739 1382.66,-67.7842"/>
</g>
<!-- Node30 -->
<g id="node30" class="node"><title>Node30</title>
<polygon fill="white" stroke="#bfbfbf" points="1326.5,-175.5 1326.5,-194.5 1375.5,-194.5 1375.5,-175.5 1326.5,-175.5"/>
<text text-anchor="middle" x="1351" y="-182.5" font-family="Helvetica,sans-Serif" font-size="10.00">Button</text>
</g>
<!-- Node30&#45;&gt;Node28 -->
<g id="edge34" class="edge"><title>Node30&#45;&gt;Node28</title>
<path fill="none" stroke="#9a32cd" stroke-dasharray="5,2" d="M1385.89,-182.149C1413.96,-178.998 1454.53,-172.596 1488,-160 1506.07,-153.201 1524.83,-141.193 1536.92,-132.703"/>
<polygon fill="#9a32cd" stroke="#9a32cd" points="1385.36,-178.685 1375.78,-183.204 1386.09,-185.647 1385.36,-178.685"/>
<text text-anchor="middle" x="1450" y="-182" font-family="Helvetica,sans-Serif" font-size="10.00"> runButton</text>
</g>
<!-- Node31 -->
<g id="node31" class="node"><title>Node31</title>
<polygon fill="white" stroke="#bfbfbf" points="1322,-90.5 1322,-109.5 1380,-109.5 1380,-90.5 1322,-90.5"/>
<text text-anchor="middle" x="1351" y="-97.5" font-family="Helvetica,sans-Serif" font-size="10.00">TextArea</text>
</g>
<!-- Node31&#45;&gt;Node28 -->
<g id="edge36" class="edge"><title>Node31&#45;&gt;Node28</title>
<path fill="none" stroke="#9a32cd" stroke-dasharray="5,2" d="M1390.74,-104.5C1427.67,-108.79 1482.66,-115.178 1517.4,-119.213"/>
<polygon fill="#9a32cd" stroke="#9a32cd" points="1390.71,-100.973 1380.37,-103.295 1389.9,-107.926 1390.71,-100.973"/>
<text text-anchor="middle" x="1450" y="-119" font-family="Helvetica,sans-Serif" font-size="10.00"> textEditor</text>
</g>
<!-- Node32 -->
<g id="node32" class="node"><title>Node32</title>
<polygon fill="white" stroke="#bfbfbf" points="149.5,-152.5 149.5,-171.5 268.5,-171.5 268.5,-152.5 149.5,-152.5"/>
<text text-anchor="middle" x="209" y="-159.5" font-family="Helvetica,sans-Serif" font-size="10.00">Map&lt; String, Node &gt;</text>
</g>
<!-- Node32&#45;&gt;Node9 -->
<g id="edge38" class="edge"><title>Node32&#45;&gt;Node9</title>
<path fill="none" stroke="#9a32cd" stroke-dasharray="5,2" d="M278.902,-161.487C321.329,-161.378 376.825,-161.606 426,-163 442.683,-163.473 460.98,-164.339 477.086,-165.219"/>
<polygon fill="#9a32cd" stroke="#9a32cd" points="278.674,-157.988 268.685,-161.521 278.697,-164.988 278.674,-157.988"/>
<text text-anchor="middle" x="370" y="-166" font-family="Helvetica,sans-Serif" font-size="10.00"> variables</text>
</g>
<!-- Node33 -->
<g id="node33" class="node"><title>Node33</title>
<polygon fill="white" stroke="#bfbfbf" points="168.5,-114.5 168.5,-133.5 249.5,-133.5 249.5,-114.5 168.5,-114.5"/>
<text text-anchor="middle" x="209" y="-121.5" font-family="Helvetica,sans-Serif" font-size="10.00">Dimension2D</text>
</g>
<!-- Node33&#45;&gt;Node9 -->
<g id="edge40" class="edge"><title>Node33&#45;&gt;Node9</title>
<path fill="none" stroke="#9a32cd" stroke-dasharray="5,2" d="M259.714,-127.741C303.626,-131.414 369.308,-137.809 426,-147 444.862,-150.058 465.595,-154.46 482.951,-158.444"/>
<polygon fill="#9a32cd" stroke="#9a32cd" points="259.841,-124.239 249.588,-126.91 259.268,-131.216 259.841,-124.239"/>
<text text-anchor="middle" x="370" y="-150" font-family="Helvetica,sans-Serif" font-size="10.00"> myDimensions</text>
</g>
<!-- Node34 -->
<g id="node34" class="node"><title>Node34</title>
<polygon fill="white" stroke="#bfbfbf" points="181,-76.5 181,-95.5 237,-95.5 237,-76.5 181,-76.5"/>
<text text-anchor="middle" x="209" y="-83.5" font-family="Helvetica,sans-Serif" font-size="10.00">TabPane</text>
</g>
<!-- Node34&#45;&gt;Node9 -->
<g id="edge42" class="edge"><title>Node34&#45;&gt;Node9</title>
<path fill="none" stroke="#9a32cd" stroke-dasharray="5,2" d="M247.441,-87.7718C291.207,-90.6981 365.37,-98.3357 426,-118 456.566,-127.914 489.132,-146.892 507.387,-158.403"/>
<polygon fill="#9a32cd" stroke="#9a32cd" points="247.457,-84.2662 237.259,-87.14 247.023,-91.2528 247.457,-84.2662"/>
<text text-anchor="middle" x="370" y="-121" font-family="Helvetica,sans-Serif" font-size="10.00"> myTabPane</text>
</g>
<!-- Node35 -->
<g id="node35" class="node"><title>Node35</title>
<g id="a_node35"><a xlink:href="../../de/d0a/classview_1_1_drawer.html" target="_top" xlink:title="view.Drawer">
<polygon fill="white" stroke="black" points="172.5,-38.5 172.5,-57.5 245.5,-57.5 245.5,-38.5 172.5,-38.5"/>
<text text-anchor="middle" x="209" y="-45.5" font-family="Helvetica,sans-Serif" font-size="10.00">view.Drawer</text>
</a>
</g>
</g>
<!-- Node35&#45;&gt;Node9 -->
<g id="edge43" class="edge"><title>Node35&#45;&gt;Node9</title>
<path fill="none" stroke="#9a32cd" stroke-dasharray="5,2" d="M256.003,-47.1355C301.344,-48.0054 371.545,-54.063 426,-80 465.6,-98.8616 500.312,-139.673 514.803,-158.334"/>
<polygon fill="#9a32cd" stroke="#9a32cd" points="255.919,-43.6344 245.88,-47.0197 255.839,-50.634 255.919,-43.6344"/>
<text text-anchor="middle" x="370" y="-83" font-family="Helvetica,sans-Serif" font-size="10.00"> drawer</text>
</g>
<!-- Node36 -->
<g id="node36" class="node"><title>Node36</title>
<polygon fill="white" stroke="#bfbfbf" points="0.5,-38.5 0.5,-57.5 41.5,-57.5 41.5,-38.5 0.5,-38.5"/>
<text text-anchor="middle" x="21" y="-45.5" font-family="Helvetica,sans-Serif" font-size="10.00">Color</text>
</g>
<!-- Node36&#45;&gt;Node35 -->
<g id="edge44" class="edge"><title>Node36&#45;&gt;Node35</title>
<path fill="none" stroke="#9a32cd" stroke-dasharray="5,2" d="M51.8575,-48C84.6426,-48 137.265,-48 172.23,-48"/>
<polygon fill="#9a32cd" stroke="#9a32cd" points="51.5537,-44.5001 41.5537,-48 51.5537,-51.5001 51.5537,-44.5001"/>
<text text-anchor="middle" x="82" y="-51" font-family="Helvetica,sans-Serif" font-size="10.00"> myColor</text>
</g>
<!-- Node37 -->
<g id="node37" class="node"><title>Node37</title>
<polygon fill="white" stroke="#bfbfbf" points="186,-0.5 186,-19.5 232,-19.5 232,-0.5 186,-0.5"/>
<text text-anchor="middle" x="209" y="-7.5" font-family="Helvetica,sans-Serif" font-size="10.00">Group</text>
</g>
<!-- Node37&#45;&gt;Node9 -->
<g id="edge46" class="edge"><title>Node37&#45;&gt;Node9</title>
<path fill="none" stroke="#9a32cd" stroke-dasharray="5,2" d="M242.255,-6.46414C286.807,-3.17387 368.21,-3.03343 426,-37 476.075,-66.4319 507.723,-133.322 518.175,-158.329"/>
<polygon fill="#9a32cd" stroke="#9a32cd" points="241.692,-2.99905 232.021,-7.3249 242.279,-9.97442 241.692,-2.99905"/>
<text text-anchor="middle" x="370" y="-40" font-family="Helvetica,sans-Serif" font-size="10.00"> lines</text>
</g>
</g>
</svg>
