<?xml version="1.0" encoding="UTF-8" standalone="no"?>
<!DOCTYPE svg PUBLIC "-//W3C//DTD SVG 1.1//EN"
 "http://www.w3.org/Graphics/SVG/1.1/DTD/svg11.dtd">
<!-- Generated by graphviz version 2.36.0 (20140111.2315)
 -->
<!-- Title: model.instructions.TurtleRequestInstruction Pages: 1 -->
<!--zoomable 655 -->
<svg id="main" version="1.1" xmlns="http://www.w3.org/2000/svg" xmlns:xlink="http://www.w3.org/1999/xlink" xml:space="preserve" onload="init(evt)">
<style type="text/css"><![CDATA[
.edge:hover path { stroke: red; }
.edge:hover polygon { stroke: red; fill: red; }
]]></style>
<script type="text/javascript"><![CDATA[
var edges = document.getElementsByTagName('g');
if (edges && edges.length) {
  for (var i=0;i<edges.length;i++) {
    if (edges[i].id.substr(0,4)=='edge') {
      edges[i].setAttribute('class','edge');
    }
  }
}
]]></script>
        <defs>
                <circle id="rim" cx="0" cy="0" r="7"/>
                <circle id="rim2" cx="0" cy="0" r="3.5"/>
                <g id="zoomPlus">
                        <use xlink:href="#rim" fill="#404040">
                                <set attributeName="fill" to="#808080" begin="zoomplus.mouseover" end="zoomplus.mouseout"/>
                        </use>
                        <path d="M-4,0h8M0,-4v8" fill="none" stroke="white" stroke-width="1.5" pointer-events="none"/>
                </g>
                <g id="zoomMin">
                        <use xlink:href="#rim" fill="#404040">
                                <set attributeName="fill" to="#808080" begin="zoomminus.mouseover" end="zoomminus.mouseout"/>
                        </use>
                        <path d="M-4,0h8" fill="none" stroke="white" stroke-width="1.5" pointer-events="none"/>
                </g>
                <g id="dirArrow">
                        <path fill="none" stroke="white" stroke-width="1.5" d="M0,-3.0v7 M-2.5,-0.5L0,-3.0L2.5,-0.5"/>
                </g>
               <g id="resetDef">
                       <use xlink:href="#rim2" fill="#404040">
                               <set attributeName="fill" to="#808080" begin="reset.mouseover" end="reset.mouseout"/>
                       </use>
               </g>
        </defs>

<script type="text/javascript">
var viewWidth = 1604;
var viewHeight = 655;
var sectionId = 'dynsection-1';
</script>
<script xlink:href="../../svgpan.js"/>
<svg id="graph" class="graph">
<g id="viewport">
<title>model.instructions.TurtleRequestInstruction</title>
<polygon fill="white" stroke="none" points="-4,4 -4,-651 1600,-651 1600,4 -4,4"/>
<!-- Node1 -->
<g id="node1" class="node"><title>Node1</title>
<polygon fill="#bfbfbf" stroke="black" points="1023,-501 1023,-531 1157,-531 1157,-501 1023,-501"/>
<text text-anchor="start" x="1031" y="-519" font-family="Helvetica,sans-Serif" font-size="10.00">model.instructions.Turtle</text>
<text text-anchor="middle" x="1090" y="-508" font-family="Helvetica,sans-Serif" font-size="10.00">RequestInstruction</text>
</g>
<!-- Node2 -->
<g id="node2" class="node"><title>Node2</title>
<g id="a_node2"><a xlink:href="../../d1/dea/classmodel_1_1instructions_1_1_instruction.html" target="_top" xlink:title="model.instructions.Instruction">
<polygon fill="white" stroke="black" points="760,-463.5 760,-482.5 918,-482.5 918,-463.5 760,-463.5"/>
<text text-anchor="middle" x="839" y="-470.5" font-family="Helvetica,sans-Serif" font-size="10.00">model.instructions.Instruction</text>
</a>
</g>
</g>
<!-- Node2&#45;&gt;Node1 -->
<g id="edge1" class="edge"><title>Node2&#45;&gt;Node1</title>
<path fill="none" stroke="midnightblue" d="M905.236,-484.266C941.476,-490.524 986.453,-498.291 1022.84,-504.575"/>
<polygon fill="midnightblue" stroke="midnightblue" points="905.711,-480.796 895.261,-482.543 904.52,-487.694 905.711,-480.796"/>
</g>
<!-- Node3 -->
<g id="node3" class="node"><title>Node3</title>
<polygon fill="white" stroke="#bfbfbf" points="179,-358.5 179,-377.5 239,-377.5 239,-358.5 179,-358.5"/>
<text text-anchor="middle" x="209" y="-365.5" font-family="Helvetica,sans-Serif" font-size="10.00">Observer</text>
</g>
<!-- Node3&#45;&gt;Node2 -->
<g id="edge2" class="edge"><title>Node3&#45;&gt;Node2</title>
<path fill="none" stroke="midnightblue" d="M249.339,-378.161C268.689,-382.784 292.433,-387.902 314,-391 502.722,-418.106 559.089,-366.203 742,-420 774.145,-429.454 807.466,-450.96 825.152,-463.477"/>
<polygon fill="midnightblue" stroke="midnightblue" points="249.915,-374.699 239.37,-375.731 248.257,-381.5 249.915,-374.699"/>
</g>
<!-- Node9 -->
<g id="node9" class="node"><title>Node9</title>
<g id="a_node9"><a xlink:href="../../d6/de7/classview_1_1_s_logo_view.html" target="_top" xlink:title="view.SLogoView">
<polygon fill="white" stroke="black" points="477.5,-212.5 477.5,-231.5 568.5,-231.5 568.5,-212.5 477.5,-212.5"/>
<text text-anchor="middle" x="523" y="-219.5" font-family="Helvetica,sans-Serif" font-size="10.00">view.SLogoView</text>
</a>
</g>
</g>
<!-- Node3&#45;&gt;Node9 -->
<g id="edge9" class="edge"><title>Node3&#45;&gt;Node9</title>
<path fill="none" stroke="midnightblue" d="M249.301,-363.544C304.507,-356.504 401.074,-341.083 426,-317 447.866,-295.873 423.486,-273.442 444,-251 452.773,-241.403 465.018,-234.969 477.209,-230.661"/>
<polygon fill="midnightblue" stroke="midnightblue" points="248.666,-360.096 239.173,-364.801 249.528,-367.043 248.666,-360.096"/>
</g>
<!-- Node18 -->
<g id="node18" class="node"><title>Node18</title>
<g id="a_node18"><a xlink:href="../../dc/df5/classmodel_1_1_parser.html" target="_top" xlink:title="model.Parser">
<polygon fill="white" stroke="black" points="799,-282.5 799,-301.5 879,-301.5 879,-282.5 799,-282.5"/>
<text text-anchor="middle" x="839" y="-289.5" font-family="Helvetica,sans-Serif" font-size="10.00">model.Parser</text>
</a>
</g>
</g>
<!-- Node3&#45;&gt;Node18 -->
<g id="edge19" class="edge"><title>Node3&#45;&gt;Node18</title>
<path fill="none" stroke="midnightblue" d="M249.16,-374.204C338.865,-386.895 565.125,-410.217 742,-355 777.014,-344.069 811.289,-316.306 827.799,-301.553"/>
<polygon fill="midnightblue" stroke="midnightblue" points="249.557,-370.725 239.158,-372.752 248.552,-377.653 249.557,-370.725"/>
</g>
<!-- Node4 -->
<g id="node4" class="node"><title>Node4</title>
<g id="a_node4"><a xlink:href="../../d1/dca/classmodel_1_1_execution_environment.html" target="_top" xlink:title="model.ExecutionEnvironment">
<polygon fill="white" stroke="black" points="444.5,-458.5 444.5,-477.5 601.5,-477.5 601.5,-458.5 444.5,-458.5"/>
<text text-anchor="middle" x="523" y="-465.5" font-family="Helvetica,sans-Serif" font-size="10.00">model.ExecutionEnvironment</text>
</a>
</g>
</g>
<!-- Node4&#45;&gt;Node2 -->
<g id="edge3" class="edge"><title>Node4&#45;&gt;Node2</title>
<path fill="none" stroke="#9a32cd" stroke-dasharray="5,2" d="M611.688,-469.396C658.218,-470.137 714.911,-471.04 759.914,-471.757"/>
<polygon fill="#9a32cd" stroke="#9a32cd" points="611.672,-465.896 601.618,-469.236 611.561,-472.895 611.672,-465.896"/>
<text text-anchor="middle" x="681" y="-475" font-family="Helvetica,sans-Serif" font-size="10.00"> myEnvironment</text>
</g>
<!-- Node4&#45;&gt;Node18 -->
<g id="edge21" class="edge"><title>Node4&#45;&gt;Node18</title>
<path fill="none" stroke="#9a32cd" stroke-dasharray="5,2" d="M570.415,-455.617C616.294,-442.101 687.349,-417.662 742,-383 779.428,-359.261 814.986,-319.594 830.22,-301.508"/>
<polygon fill="#9a32cd" stroke="#9a32cd" points="569.373,-452.275 560.739,-458.415 571.318,-458.999 569.373,-452.275"/>
<text text-anchor="middle" x="681" y="-442" font-family="Helvetica,sans-Serif" font-size="10.00"> myExecutionParameters</text>
</g>
<!-- Node5 -->
<g id="node5" class="node"><title>Node5</title>
<polygon fill="white" stroke="#bfbfbf" points="173.5,-506.5 173.5,-525.5 244.5,-525.5 244.5,-506.5 173.5,-506.5"/>
<text text-anchor="middle" x="209" y="-513.5" font-family="Helvetica,sans-Serif" font-size="10.00">Observable</text>
</g>
<!-- Node5&#45;&gt;Node4 -->
<g id="edge4" class="edge"><title>Node5&#45;&gt;Node4</title>
<path fill="none" stroke="midnightblue" d="M254.899,-510.394C298.653,-504.782 367.019,-495.62 426,-486 441.564,-483.461 458.49,-480.392 473.733,-477.512"/>
<polygon fill="midnightblue" stroke="midnightblue" points="254.345,-506.936 244.868,-511.673 255.231,-513.88 254.345,-506.936"/>
</g>
<!-- Node6 -->
<g id="node6" class="node"><title>Node6</title>
<polygon fill="white" stroke="#bfbfbf" points="122,-457 122,-487 296,-487 296,-457 122,-457"/>
<text text-anchor="start" x="130" y="-475" font-family="Helvetica,sans-Serif" font-size="10.00">Map&lt; String, model.instructions.</text>
<text text-anchor="middle" x="209" y="-464" font-family="Helvetica,sans-Serif" font-size="10.00">Instruction &gt;</text>
</g>
<!-- Node6&#45;&gt;Node4 -->
<g id="edge5" class="edge"><title>Node6&#45;&gt;Node4</title>
<path fill="none" stroke="#9a32cd" stroke-dasharray="5,2" d="M306.305,-470.765C350.685,-470.196 402.655,-469.53 444.461,-468.994"/>
<polygon fill="#9a32cd" stroke="#9a32cd" points="306.036,-467.268 296.081,-470.896 306.125,-474.268 306.036,-467.268"/>
<text text-anchor="middle" x="370" y="-474" font-family="Helvetica,sans-Serif" font-size="10.00"> myUserInstructionMap</text>
</g>
<!-- Node7 -->
<g id="node7" class="node"><title>Node7</title>
<polygon fill="white" stroke="#bfbfbf" points="145,-418.5 145,-437.5 273,-437.5 273,-418.5 145,-418.5"/>
<text text-anchor="middle" x="209" y="-425.5" font-family="Helvetica,sans-Serif" font-size="10.00">Map&lt; String, Double &gt;</text>
</g>
<!-- Node7&#45;&gt;Node4 -->
<g id="edge6" class="edge"><title>Node7&#45;&gt;Node4</title>
<path fill="none" stroke="#9a32cd" stroke-dasharray="5,2" d="M283.441,-436.991C325.242,-442.156 378.569,-448.824 426,-455 434.506,-456.107 443.433,-457.29 452.275,-458.473"/>
<polygon fill="#9a32cd" stroke="#9a32cd" points="283.7,-433.496 273.347,-435.745 282.843,-440.444 283.7,-433.496"/>
<text text-anchor="middle" x="370" y="-458" font-family="Helvetica,sans-Serif" font-size="10.00"> myVariableMap</text>
</g>
<!-- Node8 -->
<g id="node8" class="node"><title>Node8</title>
<polygon fill="white" stroke="#bfbfbf" points="455,-497 455,-527 591,-527 591,-497 455,-497"/>
<text text-anchor="start" x="463" y="-515" font-family="Helvetica,sans-Serif" font-size="10.00">List&lt; model.instructions.</text>
<text text-anchor="middle" x="523" y="-504" font-family="Helvetica,sans-Serif" font-size="10.00">Instruction &gt;</text>
</g>
<!-- Node8&#45;&gt;Node2 -->
<g id="edge7" class="edge"><title>Node8&#45;&gt;Node2</title>
<path fill="none" stroke="#9a32cd" stroke-dasharray="5,2" d="M601.423,-503.705C643.114,-499.091 695.41,-493.067 742,-487 752.606,-485.619 763.857,-484.062 774.78,-482.5"/>
<polygon fill="#9a32cd" stroke="#9a32cd" points="600.892,-500.242 591.336,-504.817 601.659,-507.2 600.892,-500.242"/>
<text text-anchor="middle" x="681" y="-505" font-family="Helvetica,sans-Serif" font-size="10.00"> myDependencies</text>
</g>
<!-- Node9&#45;&gt;Node2 -->
<g id="edge8" class="edge"><title>Node9&#45;&gt;Node2</title>
<path fill="none" stroke="#9a32cd" stroke-dasharray="5,2" d="M578.256,-234.358C587.142,-238.427 595.541,-243.83 602,-251 623.5,-274.867 599.734,-296.077 620,-321 658.122,-367.882 692.494,-346.355 742,-381 778.313,-406.412 814.157,-445.456 829.809,-463.39"/>
<polygon fill="#9a32cd" stroke="#9a32cd" points="579.463,-231.071 568.879,-230.581 576.848,-237.564 579.463,-231.071"/>
<text text-anchor="middle" x="681" y="-384" font-family="Helvetica,sans-Serif" font-size="10.00"> myView</text>
</g>
<!-- Node9&#45;&gt;Node18 -->
<g id="edge23" class="edge"><title>Node9&#45;&gt;Node18</title>
<path fill="none" stroke="#9a32cd" stroke-dasharray="5,2" d="M578.583,-230.129C622.915,-237.182 686.896,-248.388 742,-262 765.394,-267.779 791.463,-276.045 810.524,-282.438"/>
<polygon fill="#9a32cd" stroke="#9a32cd" points="579.017,-226.654 568.594,-228.557 577.928,-233.569 579.017,-226.654"/>
<text text-anchor="middle" x="681" y="-265" font-family="Helvetica,sans-Serif" font-size="10.00"> mySLogoView</text>
</g>
<!-- Node10 -->
<g id="node10" class="node"><title>Node10</title>
<g id="a_node10"><a xlink:href="../../da/d64/classview_1_1_workspace.html" target="_top" xlink:title="view.Workspace">
<polygon fill="white" stroke="black" points="1506,-468.5 1506,-487.5 1596,-487.5 1596,-468.5 1506,-468.5"/>
<text text-anchor="middle" x="1551" y="-475.5" font-family="Helvetica,sans-Serif" font-size="10.00">view.Workspace</text>
</a>
</g>
</g>
<!-- Node10&#45;&gt;Node9 -->
<g id="edge10" class="edge"><title>Node10&#45;&gt;Node9</title>
<path fill="none" stroke="#9a32cd" stroke-dasharray="5,2" d="M1539.26,-459.701C1508.38,-409.25 1413.62,-268.881 1290,-223 1028.8,-126.06 682.113,-187.114 564.784,-212.492"/>
<polygon fill="#9a32cd" stroke="#9a32cd" points="1536.27,-461.521 1544.42,-468.285 1542.27,-457.912 1536.27,-461.521"/>
<text text-anchor="middle" x="1090" y="-193" font-family="Helvetica,sans-Serif" font-size="10.00"> myWorkspace</text>
</g>
<!-- Node11 -->
<g id="node11" class="node"><title>Node11</title>
<polygon fill="white" stroke="#bfbfbf" points="1317.5,-487.5 1317.5,-506.5 1384.5,-506.5 1384.5,-487.5 1317.5,-487.5"/>
<text text-anchor="middle" x="1351" y="-494.5" font-family="Helvetica,sans-Serif" font-size="10.00">StackPane</text>
</g>
<!-- Node11&#45;&gt;Node10 -->
<g id="edge11" class="edge"><title>Node11&#45;&gt;Node10</title>
<path fill="none" stroke="midnightblue" d="M1394.87,-492.886C1427.64,-489.742 1472.66,-485.422 1505.76,-482.245"/>
<polygon fill="midnightblue" stroke="midnightblue" points="1394.32,-489.423 1384.7,-493.863 1394.98,-496.391 1394.32,-489.423"/>
</g>
<!-- Node12 -->
<g id="node12" class="node"><title>Node12</title>
<g id="a_node12"><a xlink:href="../../d8/df7/classview_1_1_turtle_view.html" target="_top" xlink:title="view.TurtleView">
<polygon fill="white" stroke="black" points="1308,-557.5 1308,-576.5 1394,-576.5 1394,-557.5 1308,-557.5"/>
<text text-anchor="middle" x="1351" y="-564.5" font-family="Helvetica,sans-Serif" font-size="10.00">view.TurtleView</text>
</a>
</g>
</g>
<!-- Node12&#45;&gt;Node10 -->
<g id="edge12" class="edge"><title>Node12&#45;&gt;Node10</title>
<path fill="none" stroke="#9a32cd" stroke-dasharray="5,2" d="M1382.56,-553.264C1423.05,-535.064 1493.45,-503.418 1528.66,-487.591"/>
<polygon fill="#9a32cd" stroke="#9a32cd" points="1380.88,-550.183 1373.19,-557.475 1383.75,-556.568 1380.88,-550.183"/>
<text text-anchor="middle" x="1450" y="-542" font-family="Helvetica,sans-Serif" font-size="10.00"> myActiveTurtle</text>
</g>
<!-- Node13 -->
<g id="node13" class="node"><title>Node13</title>
<polygon fill="white" stroke="#bfbfbf" points="1056,-588.5 1056,-607.5 1124,-607.5 1124,-588.5 1056,-588.5"/>
<text text-anchor="middle" x="1090" y="-595.5" font-family="Helvetica,sans-Serif" font-size="10.00">ImageView</text>
</g>
<!-- Node13&#45;&gt;Node12 -->
<g id="edge13" class="edge"><title>Node13&#45;&gt;Node12</title>
<path fill="none" stroke="midnightblue" d="M1134.18,-592.832C1182.37,-587.064 1259.85,-577.79 1307.69,-572.064"/>
<polygon fill="midnightblue" stroke="midnightblue" points="1133.58,-589.379 1124.07,-594.042 1134.41,-596.329 1133.58,-589.379"/>
</g>
<!-- Node14 -->
<g id="node14" class="node"><title>Node14</title>
<polygon fill="white" stroke="#bfbfbf" points="141,-545 141,-575 277,-575 277,-545 141,-545"/>
<text text-anchor="start" x="149" y="-563" font-family="Helvetica,sans-Serif" font-size="10.00">Map&lt; Integer, view.Turtle</text>
<text text-anchor="middle" x="209" y="-552" font-family="Helvetica,sans-Serif" font-size="10.00">View &gt;</text>
</g>
<!-- Node14&#45;&gt;Node9 -->
<g id="edge41" class="edge"><title>Node14&#45;&gt;Node9</title>
<path fill="none" stroke="#9a32cd" stroke-dasharray="5,2" d="M273.698,-542.122C333.914,-524.601 416.454,-498.73 426,-486 457.421,-444.096 412.485,-292.833 444,-251 452.085,-240.268 464.589,-233.507 477.235,-229.247"/>
<polygon fill="#9a32cd" stroke="#9a32cd" points="272.499,-538.825 263.865,-544.967 274.444,-545.549 272.499,-538.825"/>
<text text-anchor="middle" x="370" y="-532" font-family="Helvetica,sans-Serif" font-size="10.00"> myTurtles</text>
</g>
<!-- Node14&#45;&gt;Node10 -->
<g id="edge14" class="edge"><title>Node14&#45;&gt;Node10</title>
<path fill="none" stroke="#9a32cd" stroke-dasharray="5,2" d="M256.344,-578.65C316.536,-601.152 425.357,-636 522,-636 522,-636 522,-636 1352,-636 1447.43,-636 1523.34,-522.474 1544.26,-487.884"/>
<polygon fill="#9a32cd" stroke="#9a32cd" points="257.345,-575.287 246.753,-575.015 254.864,-581.832 257.345,-575.287"/>
<text text-anchor="middle" x="964" y="-639" font-family="Helvetica,sans-Serif" font-size="10.00"> myTurtles</text>
</g>
<!-- Node15 -->
<g id="node15" class="node"><title>Node15</title>
<g id="a_node15"><a xlink:href="../../d1/dc7/classview_1_1_side_bar.html" target="_top" xlink:title="view.SideBar">
<polygon fill="white" stroke="black" points="1312.5,-348.5 1312.5,-367.5 1389.5,-367.5 1389.5,-348.5 1312.5,-348.5"/>
<text text-anchor="middle" x="1351" y="-355.5" font-family="Helvetica,sans-Serif" font-size="10.00">view.SideBar</text>
</a>
</g>
</g>
<!-- Node14&#45;&gt;Node15 -->
<g id="edge25" class="edge"><title>Node14&#45;&gt;Node15</title>
<path fill="none" stroke="#9a32cd" stroke-dasharray="5,2" d="M287.525,-560C350.655,-560 442.084,-560 522,-560 522,-560 522,-560 1091,-560 1188.25,-560 1222.58,-539.087 1290,-469 1297.86,-460.83 1332.24,-393.298 1345.11,-367.745"/>
<polygon fill="#9a32cd" stroke="#9a32cd" points="287.252,-556.5 277.252,-560 287.252,-563.5 287.252,-556.5"/>
<text text-anchor="middle" x="839" y="-563" font-family="Helvetica,sans-Serif" font-size="10.00"> myTurtles</text>
</g>
<!-- Node15&#45;&gt;Node9 -->
<g id="edge44" class="edge"><title>Node15&#45;&gt;Node9</title>
<path fill="none" stroke="#9a32cd" stroke-dasharray="5,2" d="M1326.05,-343.46C1315.35,-337.544 1302.39,-331.139 1290,-327 1275.36,-322.107 757.344,-235.719 742,-234 682.295,-227.312 612.954,-224.306 568.797,-222.986"/>
<polygon fill="#9a32cd" stroke="#9a32cd" points="1324.37,-346.535 1334.79,-348.464 1327.85,-340.459 1324.37,-346.535"/>
<text text-anchor="middle" x="964" y="-279" font-family="Helvetica,sans-Serif" font-size="10.00"> mySidebar</text>
</g>
<!-- Node15&#45;&gt;Node10 -->
<g id="edge15" class="edge"><title>Node15&#45;&gt;Node10</title>
<path fill="none" stroke="#9a32cd" stroke-dasharray="5,2" d="M1376.46,-372.827C1417.6,-397.76 1499.52,-447.406 1534.06,-468.337"/>
<polygon fill="#9a32cd" stroke="#9a32cd" points="1378.23,-369.807 1367.87,-367.617 1374.61,-375.794 1378.23,-369.807"/>
<text text-anchor="middle" x="1450" y="-443" font-family="Helvetica,sans-Serif" font-size="10.00"> mySidebar</text>
</g>
<!-- Node28 -->
<g id="node28" class="node"><title>Node28</title>
<g id="a_node28"><a xlink:href="../../da/dc8/classview_1_1_editor.html" target="_top" xlink:title="view.Editor">
<polygon fill="white" stroke="black" points="1517.5,-99.5 1517.5,-118.5 1584.5,-118.5 1584.5,-99.5 1517.5,-99.5"/>
<text text-anchor="middle" x="1551" y="-106.5" font-family="Helvetica,sans-Serif" font-size="10.00">view.Editor</text>
</a>
</g>
</g>
<!-- Node15&#45;&gt;Node28 -->
<g id="edge37" class="edge"><title>Node15&#45;&gt;Node28</title>
<path fill="none" stroke="#9a32cd" stroke-dasharray="5,2" d="M1366.2,-340.147C1405.11,-291.206 1512.57,-156.075 1542.29,-118.694"/>
<polygon fill="#9a32cd" stroke="#9a32cd" points="1363.25,-338.233 1359.76,-348.239 1368.73,-342.59 1363.25,-338.233"/>
<text text-anchor="middle" x="1450" y="-281" font-family="Helvetica,sans-Serif" font-size="10.00"> mySidebar</text>
</g>
<!-- Node16 -->
<g id="node16" class="node"><title>Node16</title>
<polygon fill="white" stroke="#bfbfbf" points="1069.5,-462.5 1069.5,-481.5 1110.5,-481.5 1110.5,-462.5 1069.5,-462.5"/>
<text text-anchor="middle" x="1090" y="-469.5" font-family="Helvetica,sans-Serif" font-size="10.00">VBox</text>
</g>
<!-- Node16&#45;&gt;Node15 -->
<g id="edge16" class="edge"><title>Node16&#45;&gt;Node15</title>
<path fill="none" stroke="midnightblue" d="M1120.93,-473.747C1162.09,-474.739 1237.07,-471.366 1290,-439 1318.52,-421.563 1337.88,-385.056 1345.88,-367.642"/>
<polygon fill="midnightblue" stroke="midnightblue" points="1120.86,-470.243 1110.75,-473.394 1120.62,-477.238 1120.86,-470.243"/>
</g>
<!-- Node17 -->
<g id="node17" class="node"><title>Node17</title>
<g id="a_node17"><a xlink:href="../../d4/dd9/classcontroller_1_1_s_logo_controller.html" target="_top" xlink:title="controller.SLogoController">
<polygon fill="white" stroke="black" points="1020,-137.5 1020,-156.5 1160,-156.5 1160,-137.5 1020,-137.5"/>
<text text-anchor="middle" x="1090" y="-144.5" font-family="Helvetica,sans-Serif" font-size="10.00">controller.SLogoController</text>
</a>
</g>
</g>
<!-- Node17&#45;&gt;Node9 -->
<g id="edge39" class="edge"><title>Node17&#45;&gt;Node9</title>
<path fill="none" stroke="#9a32cd" stroke-dasharray="5,2" d="M1024.26,-136.051C931.672,-123.098 757.435,-108.879 620,-157 585.046,-169.239 550.744,-197.463 534.215,-212.372"/>
<polygon fill="#9a32cd" stroke="#9a32cd" points="1023.93,-139.539 1034.33,-137.499 1024.93,-132.61 1023.93,-139.539"/>
<text text-anchor="middle" x="839" y="-131" font-family="Helvetica,sans-Serif" font-size="10.00"> myController</text>
</g>
<!-- Node17&#45;&gt;Node15 -->
<g id="edge17" class="edge"><title>Node17&#45;&gt;Node15</title>
<path fill="none" stroke="#9a32cd" stroke-dasharray="5,2" d="M1134.11,-159.791C1177.84,-174.587 1245.29,-202.623 1290,-246 1321.5,-276.568 1340.29,-327.29 1347.09,-348.361"/>
<polygon fill="#9a32cd" stroke="#9a32cd" points="1134.93,-156.378 1124.34,-156.574 1132.74,-163.027 1134.93,-156.378"/>
<text text-anchor="middle" x="1239" y="-249" font-family="Helvetica,sans-Serif" font-size="10.00"> myController</text>
</g>
<!-- Node17&#45;&gt;Node28 -->
<g id="edge35" class="edge"><title>Node17&#45;&gt;Node28</title>
<path fill="none" stroke="#9a32cd" stroke-dasharray="5,2" d="M1170.18,-140.444C1272.42,-131.981 1445.7,-117.635 1517.42,-111.697"/>
<polygon fill="#9a32cd" stroke="#9a32cd" points="1169.89,-136.957 1160.21,-141.27 1170.47,-143.933 1169.89,-136.957"/>
<text text-anchor="middle" x="1351" y="-132" font-family="Helvetica,sans-Serif" font-size="10.00"> myController</text>
</g>
<!-- Node18&#45;&gt;Node17 -->
<g id="edge18" class="edge"><title>Node18&#45;&gt;Node17</title>
<path fill="none" stroke="#9a32cd" stroke-dasharray="5,2" d="M863.511,-276.599C895.973,-255.539 956.573,-216.955 1010,-187 1029.71,-175.948 1052.83,-164.4 1068.95,-156.569"/>
<polygon fill="#9a32cd" stroke="#9a32cd" points="861.227,-273.91 854.755,-282.298 865.045,-279.777 861.227,-273.91"/>
<text text-anchor="middle" x="964" y="-232" font-family="Helvetica,sans-Serif" font-size="10.00"> myParser</text>
</g>
<!-- Node19 -->
<g id="node19" class="node"><title>Node19</title>
<polygon fill="white" stroke="#bfbfbf" points="467,-299 467,-329 579,-329 579,-299 467,-299"/>
<text text-anchor="start" x="475" y="-317" font-family="Helvetica,sans-Serif" font-size="10.00">List&lt; Entry&lt; String,</text>
<text text-anchor="middle" x="523" y="-306" font-family="Helvetica,sans-Serif" font-size="10.00"> Pattern &gt; &gt;</text>
</g>
<!-- Node19&#45;&gt;Node18 -->
<g id="edge20" class="edge"><title>Node19&#45;&gt;Node18</title>
<path fill="none" stroke="#9a32cd" stroke-dasharray="5,2" d="M589.325,-309.423C652.599,-304.99 746.453,-298.414 798.902,-294.739"/>
<polygon fill="#9a32cd" stroke="#9a32cd" points="588.785,-305.952 579.054,-310.143 589.274,-312.935 588.785,-305.952"/>
<text text-anchor="middle" x="681" y="-310" font-family="Helvetica,sans-Serif" font-size="10.00"> myPatterns</text>
</g>
<!-- Node20 -->
<g id="node20" class="node"><title>Node20</title>
<polygon fill="white" stroke="#bfbfbf" points="462,-260.5 462,-279.5 584,-279.5 584,-260.5 462,-260.5"/>
<text text-anchor="middle" x="523" y="-267.5" font-family="Helvetica,sans-Serif" font-size="10.00">Map&lt; String, String &gt;</text>
</g>
<!-- Node20&#45;&gt;Node18 -->
<g id="edge22" class="edge"><title>Node20&#45;&gt;Node18</title>
<path fill="none" stroke="#9a32cd" stroke-dasharray="5,2" d="M594.167,-274.755C636.901,-277.669 692.603,-281.5 742,-285 760.669,-286.323 781.378,-287.828 798.768,-289.103"/>
<polygon fill="#9a32cd" stroke="#9a32cd" points="594.365,-271.26 584.15,-274.072 593.889,-278.244 594.365,-271.26"/>
<text text-anchor="middle" x="681" y="-288" font-family="Helvetica,sans-Serif" font-size="10.00"> myCommandMap</text>
</g>
<!-- Node21 -->
<g id="node21" class="node"><title>Node21</title>
<polygon fill="white" stroke="#bfbfbf" points="1023,-413 1023,-443 1157,-443 1157,-413 1023,-413"/>
<text text-anchor="start" x="1031" y="-431" font-family="Helvetica,sans-Serif" font-size="10.00">TableView&lt; view.Variable</text>
<text text-anchor="middle" x="1090" y="-420" font-family="Helvetica,sans-Serif" font-size="10.00">View &gt;</text>
</g>
<!-- Node21&#45;&gt;Node15 -->
<g id="edge24" class="edge"><title>Node21&#45;&gt;Node15</title>
<path fill="none" stroke="#9a32cd" stroke-dasharray="5,2" d="M1167.29,-416.123C1204.79,-409.223 1250.34,-399.245 1290,-386 1304.72,-381.084 1320.6,-373.567 1332.32,-367.558"/>
<polygon fill="#9a32cd" stroke="#9a32cd" points="1166.66,-412.68 1157.44,-417.899 1167.9,-419.569 1166.66,-412.68"/>
<text text-anchor="middle" x="1239" y="-427" font-family="Helvetica,sans-Serif" font-size="10.00"> turtlePropertiesTable</text>
<text text-anchor="middle" x="1239" y="-416" font-family="Helvetica,sans-Serif" font-size="10.00">variablesTable</text>
</g>
<!-- Node22 -->
<g id="node22" class="node"><title>Node22</title>
<polygon fill="white" stroke="#bfbfbf" points="1010.5,-364 1010.5,-394 1169.5,-394 1169.5,-364 1010.5,-364"/>
<text text-anchor="start" x="1018.5" y="-382" font-family="Helvetica,sans-Serif" font-size="10.00">ObservableList&lt; view.Variable</text>
<text text-anchor="middle" x="1090" y="-371" font-family="Helvetica,sans-Serif" font-size="10.00">View &gt;</text>
</g>
<!-- Node22&#45;&gt;Node15 -->
<g id="edge26" class="edge"><title>Node22&#45;&gt;Node15</title>
<path fill="none" stroke="#9a32cd" stroke-dasharray="5,2" d="M1179.89,-371.792C1225.15,-368.123 1277.77,-363.856 1312.36,-361.052"/>
<polygon fill="#9a32cd" stroke="#9a32cd" points="1179.45,-368.317 1169.76,-372.614 1180.01,-375.294 1179.45,-368.317"/>
<text text-anchor="middle" x="1239" y="-374" font-family="Helvetica,sans-Serif" font-size="10.00"> variablesList</text>
</g>
<!-- Node23 -->
<g id="node23" class="node"><title>Node23</title>
<polygon fill="white" stroke="#bfbfbf" points="1021,-325.5 1021,-344.5 1159,-344.5 1159,-325.5 1021,-325.5"/>
<text text-anchor="middle" x="1090" y="-332.5" font-family="Helvetica,sans-Serif" font-size="10.00">ObservableList&lt; String &gt;</text>
</g>
<!-- Node23&#45;&gt;Node15 -->
<g id="edge27" class="edge"><title>Node23&#45;&gt;Node15</title>
<path fill="none" stroke="#9a32cd" stroke-dasharray="5,2" d="M1169.35,-330.676C1206.21,-330.044 1250.61,-331.303 1290,-338 1302.45,-340.117 1315.82,-344.367 1326.77,-348.408"/>
<polygon fill="#9a32cd" stroke="#9a32cd" points="1169.09,-327.181 1159.17,-330.902 1169.24,-334.18 1169.09,-327.181"/>
<text text-anchor="middle" x="1239" y="-352" font-family="Helvetica,sans-Serif" font-size="10.00"> commandItems</text>
<text text-anchor="middle" x="1239" y="-341" font-family="Helvetica,sans-Serif" font-size="10.00">historyItems</text>
</g>
<!-- Node24 -->
<g id="node24" class="node"><title>Node24</title>
<polygon fill="white" stroke="#bfbfbf" points="1037,-249.5 1037,-268.5 1143,-268.5 1143,-249.5 1037,-249.5"/>
<text text-anchor="middle" x="1090" y="-256.5" font-family="Helvetica,sans-Serif" font-size="10.00">ListView&lt; String &gt;</text>
</g>
<!-- Node24&#45;&gt;Node15 -->
<g id="edge28" class="edge"><title>Node24&#45;&gt;Node15</title>
<path fill="none" stroke="#9a32cd" stroke-dasharray="5,2" d="M1153.59,-259.153C1203.03,-260.278 1267.34,-264.273 1290,-277 1319.3,-293.454 1338.4,-330.789 1346.12,-348.429"/>
<polygon fill="#9a32cd" stroke="#9a32cd" points="1153.35,-255.648 1143.29,-258.955 1153.22,-262.647 1153.35,-255.648"/>
<text text-anchor="middle" x="1239" y="-280" font-family="Helvetica,sans-Serif" font-size="10.00"> historyList</text>
</g>
<!-- Node25 -->
<g id="node25" class="node"><title>Node25</title>
<polygon fill="white" stroke="#bfbfbf" points="1319.5,-449.5 1319.5,-468.5 1382.5,-468.5 1382.5,-449.5 1319.5,-449.5"/>
<text text-anchor="middle" x="1351" y="-456.5" font-family="Helvetica,sans-Serif" font-size="10.00">Rectangle</text>
</g>
<!-- Node25&#45;&gt;Node10 -->
<g id="edge29" class="edge"><title>Node25&#45;&gt;Node10</title>
<path fill="none" stroke="#9a32cd" stroke-dasharray="5,2" d="M1392.8,-461.791C1419.84,-463.765 1456.07,-466.651 1488,-470 1493.83,-470.611 1499.96,-471.321 1506,-472.06"/>
<polygon fill="#9a32cd" stroke="#9a32cd" points="1392.78,-458.28 1382.56,-461.054 1392.28,-465.262 1392.78,-458.28"/>
<text text-anchor="middle" x="1450" y="-473" font-family="Helvetica,sans-Serif" font-size="10.00"> myBackground</text>
</g>
<!-- Node26 -->
<g id="node26" class="node"><title>Node26</title>
<polygon fill="white" stroke="#bfbfbf" points="186.5,-255.5 186.5,-274.5 231.5,-274.5 231.5,-255.5 186.5,-255.5"/>
<text text-anchor="middle" x="209" y="-262.5" font-family="Helvetica,sans-Serif" font-size="10.00">Stage</text>
</g>
<!-- Node26&#45;&gt;Node9 -->
<g id="edge30" class="edge"><title>Node26&#45;&gt;Node9</title>
<path fill="none" stroke="#9a32cd" stroke-dasharray="5,2" d="M241.745,-262.321C283.956,-258.566 360.823,-251.052 426,-241 442.959,-238.384 461.48,-234.875 477.689,-231.585"/>
<polygon fill="#9a32cd" stroke="#9a32cd" points="241.196,-258.856 231.54,-263.216 241.808,-265.829 241.196,-258.856"/>
<text text-anchor="middle" x="370" y="-259" font-family="Helvetica,sans-Serif" font-size="10.00"> myStage</text>
</g>
<!-- Node27 -->
<g id="node27" class="node"><title>Node27</title>
<polygon fill="white" stroke="#bfbfbf" points="162.5,-217.5 162.5,-236.5 255.5,-236.5 255.5,-217.5 162.5,-217.5"/>
<text text-anchor="middle" x="209" y="-224.5" font-family="Helvetica,sans-Serif" font-size="10.00">ResourceBundle</text>
</g>
<!-- Node27&#45;&gt;Node9 -->
<g id="edge31" class="edge"><title>Node27&#45;&gt;Node9</title>
<path fill="none" stroke="#9a32cd" stroke-dasharray="5,2" d="M265.841,-226.105C326.364,-225.135 421.735,-223.607 477.44,-222.714"/>
<polygon fill="#9a32cd" stroke="#9a32cd" points="265.644,-222.608 255.702,-226.268 265.756,-229.607 265.644,-222.608"/>
<text text-anchor="middle" x="370" y="-229" font-family="Helvetica,sans-Serif" font-size="10.00"> myResources</text>
</g>
<!-- Node28&#45;&gt;Node9 -->
<g id="edge32" class="edge"><title>Node28&#45;&gt;Node9</title>
<path fill="none" stroke="#9a32cd" stroke-dasharray="5,2" d="M1507.27,-101.145C1467.28,-94.4825 1405.8,-86 1352,-86 838,-86 838,-86 838,-86 739.412,-86 707.308,-81.2094 620,-127 579.3,-148.346 544.649,-192.693 530.641,-212.308"/>
<polygon fill="#9a32cd" stroke="#9a32cd" points="1506.76,-104.608 1517.2,-102.836 1507.93,-97.7075 1506.76,-104.608"/>
<text text-anchor="middle" x="1090" y="-89" font-family="Helvetica,sans-Serif" font-size="10.00"> myEditor</text>
</g>
<!-- Node29 -->
<g id="node29" class="node"><title>Node29</title>
<polygon fill="white" stroke="#bfbfbf" points="1330,-0.5 1330,-19.5 1372,-19.5 1372,-0.5 1330,-0.5"/>
<text text-anchor="middle" x="1351" y="-7.5" font-family="Helvetica,sans-Serif" font-size="10.00">HBox</text>
</g>
<!-- Node29&#45;&gt;Node28 -->
<g id="edge33" class="edge"><title>Node29&#45;&gt;Node28</title>
<path fill="none" stroke="midnightblue" d="M1382.53,-12.3794C1411.38,-15.7465 1455.05,-23.8101 1488,-43 1512.73,-57.3989 1533.63,-84.6829 1543.65,-99.2533"/>
<polygon fill="midnightblue" stroke="midnightblue" points="1382.55,-8.86336 1372.24,-11.3055 1381.83,-15.8255 1382.55,-8.86336"/>
</g>
<!-- Node30 -->
<g id="node30" class="node"><title>Node30</title>
<polygon fill="white" stroke="#bfbfbf" points="1326.5,-161.5 1326.5,-180.5 1375.5,-180.5 1375.5,-161.5 1326.5,-161.5"/>
<text text-anchor="middle" x="1351" y="-168.5" font-family="Helvetica,sans-Serif" font-size="10.00">Button</text>
</g>
<!-- Node30&#45;&gt;Node28 -->
<g id="edge34" class="edge"><title>Node30&#45;&gt;Node28</title>
<path fill="none" stroke="#9a32cd" stroke-dasharray="5,2" d="M1385.77,-166.908C1413.76,-162.843 1454.3,-155.392 1488,-143 1505.05,-136.73 1523.11,-126.346 1535.31,-118.7"/>
<polygon fill="#9a32cd" stroke="#9a32cd" points="1385.11,-163.465 1375.69,-168.303 1386.07,-170.398 1385.11,-163.465"/>
<text text-anchor="middle" x="1450" y="-166" font-family="Helvetica,sans-Serif" font-size="10.00"> runButton</text>
</g>
<!-- Node31 -->
<g id="node31" class="node"><title>Node31</title>
<polygon fill="white" stroke="#bfbfbf" points="1322,-38.5 1322,-57.5 1380,-57.5 1380,-38.5 1322,-38.5"/>
<text text-anchor="middle" x="1351" y="-45.5" font-family="Helvetica,sans-Serif" font-size="10.00">TextArea</text>
</g>
<!-- Node31&#45;&gt;Node28 -->
<g id="edge36" class="edge"><title>Node31&#45;&gt;Node28</title>
<path fill="none" stroke="#9a32cd" stroke-dasharray="5,2" d="M1390.33,-46.0604C1418.33,-45.9606 1456.71,-48.6103 1488,-61 1509.52,-69.5203 1529.8,-87.8916 1540.99,-99.2732"/>
<polygon fill="#9a32cd" stroke="#9a32cd" points="1390.09,-42.5636 1380.15,-46.2186 1390.2,-49.5628 1390.09,-42.5636"/>
<text text-anchor="middle" x="1450" y="-64" font-family="Helvetica,sans-Serif" font-size="10.00"> textEditor</text>
</g>
<!-- Node32 -->
<g id="node32" class="node"><title>Node32</title>
<polygon fill="white" stroke="#bfbfbf" points="149.5,-179.5 149.5,-198.5 268.5,-198.5 268.5,-179.5 149.5,-179.5"/>
<text text-anchor="middle" x="209" y="-186.5" font-family="Helvetica,sans-Serif" font-size="10.00">Map&lt; String, Node &gt;</text>
</g>
<!-- Node32&#45;&gt;Node9 -->
<g id="edge38" class="edge"><title>Node32&#45;&gt;Node9</title>
<path fill="none" stroke="#9a32cd" stroke-dasharray="5,2" d="M278.965,-194.638C321.415,-198.294 376.913,-203.406 426,-209 442.711,-210.904 461.015,-213.304 477.117,-215.523"/>
<polygon fill="#9a32cd" stroke="#9a32cd" points="279.004,-191.129 268.742,-193.764 278.408,-198.103 279.004,-191.129"/>
<text text-anchor="middle" x="370" y="-212" font-family="Helvetica,sans-Serif" font-size="10.00"> variables</text>
</g>
<!-- Node33 -->
<g id="node33" class="node"><title>Node33</title>
<polygon fill="white" stroke="#bfbfbf" points="168.5,-141.5 168.5,-160.5 249.5,-160.5 249.5,-141.5 168.5,-141.5"/>
<text text-anchor="middle" x="209" y="-148.5" font-family="Helvetica,sans-Serif" font-size="10.00">Dimension2D</text>
</g>
<!-- Node33&#45;&gt;Node9 -->
<g id="edge40" class="edge"><title>Node33&#45;&gt;Node9</title>
<path fill="none" stroke="#9a32cd" stroke-dasharray="5,2" d="M259.802,-154.975C304.034,-159.306 370.136,-167.751 426,-183 453.247,-190.438 483.18,-203.421 502.258,-212.35"/>
<polygon fill="#9a32cd" stroke="#9a32cd" points="259.887,-151.468 249.602,-154.012 259.228,-158.437 259.887,-151.468"/>
<text text-anchor="middle" x="370" y="-186" font-family="Helvetica,sans-Serif" font-size="10.00"> myDimensions</text>
</g>
<!-- Node34 -->
<g id="node34" class="node"><title>Node34</title>
<g id="a_node34"><a xlink:href="../../de/d0a/classview_1_1_drawer.html" target="_top" xlink:title="view.Drawer">
<polygon fill="white" stroke="black" points="172.5,-103.5 172.5,-122.5 245.5,-122.5 245.5,-103.5 172.5,-103.5"/>
<text text-anchor="middle" x="209" y="-110.5" font-family="Helvetica,sans-Serif" font-size="10.00">view.Drawer</text>
</a>
</g>
</g>
<!-- Node34&#45;&gt;Node9 -->
<g id="edge42" class="edge"><title>Node34&#45;&gt;Node9</title>
<path fill="none" stroke="#9a32cd" stroke-dasharray="5,2" d="M255.596,-113.586C300.627,-115.656 370.598,-122.943 426,-147 462.472,-162.837 497.149,-195.862 512.998,-212.288"/>
<polygon fill="#9a32cd" stroke="#9a32cd" points="255.675,-110.087 245.546,-113.192 255.401,-117.081 255.675,-110.087"/>
<text text-anchor="middle" x="370" y="-150" font-family="Helvetica,sans-Serif" font-size="10.00"> drawer</text>
</g>
<!-- Node35 -->
<g id="node35" class="node"><title>Node35</title>
<polygon fill="white" stroke="#bfbfbf" points="0.5,-103.5 0.5,-122.5 41.5,-122.5 41.5,-103.5 0.5,-103.5"/>
<text text-anchor="middle" x="21" y="-110.5" font-family="Helvetica,sans-Serif" font-size="10.00">Color</text>
</g>
<!-- Node35&#45;&gt;Node34 -->
<g id="edge43" class="edge"><title>Node35&#45;&gt;Node34</title>
<path fill="none" stroke="#9a32cd" stroke-dasharray="5,2" d="M51.8575,-113C84.6426,-113 137.265,-113 172.23,-113"/>
<polygon fill="#9a32cd" stroke="#9a32cd" points="51.5537,-109.5 41.5537,-113 51.5537,-116.5 51.5537,-109.5"/>
<text text-anchor="middle" x="82" y="-116" font-family="Helvetica,sans-Serif" font-size="10.00"> myColor</text>
</g>
<!-- Node36 -->
<g id="node36" class="node"><title>Node36</title>
<polygon fill="white" stroke="#bfbfbf" points="186,-293.5 186,-312.5 232,-312.5 232,-293.5 186,-293.5"/>
<text text-anchor="middle" x="209" y="-300.5" font-family="Helvetica,sans-Serif" font-size="10.00">Group</text>
</g>
<!-- Node36&#45;&gt;Node9 -->
<g id="edge45" class="edge"><title>Node36&#45;&gt;Node9</title>
<path fill="none" stroke="#9a32cd" stroke-dasharray="5,2" d="M242.188,-304.805C286.331,-305.877 366.905,-302.713 426,-271 436.537,-265.345 434.11,-257.722 444,-251 456.427,-242.554 471.63,-236.184 485.302,-231.597"/>
<polygon fill="#9a32cd" stroke="#9a32cd" points="242.155,-301.302 232.044,-304.467 241.922,-308.298 242.155,-301.302"/>
<text text-anchor="middle" x="370" y="-305" font-family="Helvetica,sans-Serif" font-size="10.00"> lines</text>
</g>
</g>
</svg>
        <g id="navigator" transform="translate(0 0)" fill="#404254">
                <rect fill="#f2f5e9" fill-opacity="0.5" stroke="#606060" stroke-width=".5" x="0" y="0" width="60" height="60"/>
                <use id="zoomplus" xlink:href="#zoomPlus" x="17" y="9" onmousedown="handleZoom(evt,'in')"/>
                <use id="zoomminus" xlink:href="#zoomMin" x="42" y="9" onmousedown="handleZoom(evt,'out')"/>
                <use id="reset" xlink:href="#resetDef" x="30" y="36" onmousedown="handleReset()"/>
                <g id="arrowUp" xlink:href="#dirArrow" transform="translate(30 24)" onmousedown="handlePan(0,-1)">
                  <use xlink:href="#rim" fill="#404040">
                        <set attributeName="fill" to="#808080" begin="arrowUp.mouseover" end="arrowUp.mouseout"/>
                  </use>
                  <path fill="none" stroke="white" stroke-width="1.5" d="M0,-3.0v7 M-2.5,-0.5L0,-3.0L2.5,-0.5"/>
                </g>
                <g id="arrowRight" xlink:href="#dirArrow" transform="rotate(90) translate(36 -43)" onmousedown="handlePan(1,0)">
                  <use xlink:href="#rim" fill="#404040">
                        <set attributeName="fill" to="#808080" begin="arrowRight.mouseover" end="arrowRight.mouseout"/>
                  </use>
                  <path fill="none" stroke="white" stroke-width="1.5" d="M0,-3.0v7 M-2.5,-0.5L0,-3.0L2.5,-0.5"/>
                </g>
                <g id="arrowDown" xlink:href="#dirArrow" transform="rotate(180) translate(-30 -48)" onmousedown="handlePan(0,1)">
                  <use xlink:href="#rim" fill="#404040">
                        <set attributeName="fill" to="#808080" begin="arrowDown.mouseover" end="arrowDown.mouseout"/>
                  </use>
                  <path fill="none" stroke="white" stroke-width="1.5" d="M0,-3.0v7 M-2.5,-0.5L0,-3.0L2.5,-0.5"/>
                </g>
                <g id="arrowLeft" xlink:href="#dirArrow" transform="rotate(270) translate(-36 17)" onmousedown="handlePan(-1,0)">
                  <use xlink:href="#rim" fill="#404040">
                        <set attributeName="fill" to="#808080" begin="arrowLeft.mouseover" end="arrowLeft.mouseout"/>
                  </use>
                  <path fill="none" stroke="white" stroke-width="1.5" d="M0,-3.0v7 M-2.5,-0.5L0,-3.0L2.5,-0.5"/>
                </g>
        </g>
        <svg viewBox="0 0 15 15" width="100%" height="30px" preserveAspectRatio="xMaxYMin meet">
         <g id="arrow_out" transform="scale(0.3 0.3)">
          <a xlink:href="classmodel_1_1instructions_1_1_turtle_request_instruction__coll__graph_org.svg" target="_base">
           <rect id="button" ry="5" rx="5" y="6" x="6" height="38" width="38"
                fill="#f2f5e9" fill-opacity="0.5" stroke="#606060" stroke-width="1.0"/>
           <path id="arrow"
             d="M 11.500037,31.436501 C 11.940474,20.09759 22.043105,11.32322 32.158766,21.979434 L 37.068811,17.246167 C 37.068811,17.246167 37.088388,32 37.088388,32 L 22.160133,31.978069 C 22.160133,31.978069 26.997745,27.140456 26.997745,27.140456 C 18.528582,18.264221 13.291696,25.230495 11.500037,31.436501 z"
             style="fill:#404040;"/>
          </a>
         </g>
        </svg>
</svg>
