<?xml version="1.0" encoding="UTF-8" standalone="no"?>
<!DOCTYPE svg PUBLIC "-//W3C//DTD SVG 1.1//EN"
 "http://www.w3.org/Graphics/SVG/1.1/DTD/svg11.dtd">
<!-- Generated by graphviz version 2.36.0 (20140111.2315)
 -->
<!-- Title: model.instructions.TurtleRequestInstruction Pages: 1 -->
<svg width="1746pt" height="759pt"
 viewBox="0.00 0.00 1746.00 759.14" xmlns="http://www.w3.org/2000/svg" xmlns:xlink="http://www.w3.org/1999/xlink">
<g id="graph0" class="graph" transform="scale(1 1) rotate(0) translate(4 755.136)">
<title>model.instructions.TurtleRequestInstruction</title>
<polygon fill="white" stroke="none" points="-4,4 -4,-755.136 1742,-755.136 1742,4 -4,4"/>
<!-- Node1 -->
<g id="node1" class="node"><title>Node1</title>
<polygon fill="#bfbfbf" stroke="black" points="967,-472.136 967,-502.136 1101,-502.136 1101,-472.136 967,-472.136"/>
<text text-anchor="start" x="975" y="-490.136" font-family="Helvetica,sans-Serif" font-size="10.00">model.instructions.Turtle</text>
<text text-anchor="middle" x="1034" y="-479.136" font-family="Helvetica,sans-Serif" font-size="10.00">RequestInstruction</text>
</g>
<!-- Node2 -->
<g id="node2" class="node"><title>Node2</title>
<g id="a_node2"><a xlink:href="../../d1/dea/classmodel_1_1instructions_1_1_instruction.html" target="_top" xlink:title="model.instructions.Instruction">
<polygon fill="white" stroke="black" points="646,-480.636 646,-499.636 804,-499.636 804,-480.636 646,-480.636"/>
<text text-anchor="middle" x="725" y="-487.636" font-family="Helvetica,sans-Serif" font-size="10.00">model.instructions.Instruction</text>
</a>
</g>
</g>
<!-- Node2&#45;&gt;Node1 -->
<g id="edge1" class="edge"><title>Node2&#45;&gt;Node1</title>
<path fill="none" stroke="midnightblue" d="M767.588,-502.525C790.987,-509.257 817.876,-516.533 830,-518.136 881.992,-525.013 896.355,-527.26 948,-518.136 950.475,-517.699 971.725,-509.949 992.356,-502.308"/>
<polygon fill="midnightblue" stroke="midnightblue" points="768.407,-499.118 757.827,-499.691 766.455,-505.84 768.407,-499.118"/>
</g>
<!-- Node3 -->
<g id="node3" class="node"><title>Node3</title>
<polygon fill="white" stroke="#bfbfbf" points="57,-363.636 57,-382.636 117,-382.636 117,-363.636 57,-363.636"/>
<text text-anchor="middle" x="87" y="-370.636" font-family="Helvetica,sans-Serif" font-size="10.00">Observer</text>
</g>
<!-- Node3&#45;&gt;Node2 -->
<g id="edge2" class="edge"><title>Node3&#45;&gt;Node2</title>
<path fill="none" stroke="midnightblue" d="M127.408,-380.386C237.421,-400.624 547.889,-457.739 671.892,-480.55"/>
<polygon fill="midnightblue" stroke="midnightblue" points="127.868,-376.912 117.4,-378.545 126.602,-383.796 127.868,-376.912"/>
</g>
<!-- Node9 -->
<g id="node9" class="node"><title>Node9</title>
<g id="a_node9"><a xlink:href="../../d4/d64/classview_1_1_view_updater.html" target="_top" xlink:title="view.ViewUpdater">
<polygon fill="white" stroke="black" points="351,-363.636 351,-382.636 451,-382.636 451,-363.636 351,-363.636"/>
<text text-anchor="middle" x="401" y="-370.636" font-family="Helvetica,sans-Serif" font-size="10.00">view.ViewUpdater</text>
</a>
</g>
</g>
<!-- Node3&#45;&gt;Node9 -->
<g id="edge9" class="edge"><title>Node3&#45;&gt;Node9</title>
<path fill="none" stroke="midnightblue" d="M127.079,-373.136C183.8,-373.136 288.905,-373.136 350.82,-373.136"/>
<polygon fill="midnightblue" stroke="midnightblue" points="127.072,-369.636 117.072,-373.136 127.072,-376.636 127.072,-369.636"/>
</g>
<!-- Node21 -->
<g id="node21" class="node"><title>Node21</title>
<g id="a_node21"><a xlink:href="../../dc/df5/classmodel_1_1_parser.html" target="_top" xlink:title="model.Parser">
<polygon fill="white" stroke="black" points="685,-126.636 685,-145.636 765,-145.636 765,-126.636 685,-126.636"/>
<text text-anchor="middle" x="725" y="-133.636" font-family="Helvetica,sans-Serif" font-size="10.00">model.Parser</text>
</a>
</g>
</g>
<!-- Node3&#45;&gt;Node21 -->
<g id="edge24" class="edge"><title>Node3&#45;&gt;Node21</title>
<path fill="none" stroke="midnightblue" d="M102.057,-355.758C135.374,-315.991 223.755,-218.61 322,-177.136 338.582,-170.136 586.986,-148.006 684.823,-139.506"/>
<polygon fill="midnightblue" stroke="midnightblue" points="99.3012,-353.598 95.6297,-363.537 104.697,-358.057 99.3012,-353.598"/>
</g>
<!-- Node4 -->
<g id="node4" class="node"><title>Node4</title>
<g id="a_node4"><a xlink:href="../../d1/dca/classmodel_1_1_execution_environment.html" target="_top" xlink:title="model.ExecutionEnvironment">
<polygon fill="white" stroke="black" points="322.5,-552.636 322.5,-571.636 479.5,-571.636 479.5,-552.636 322.5,-552.636"/>
<text text-anchor="middle" x="401" y="-559.636" font-family="Helvetica,sans-Serif" font-size="10.00">model.ExecutionEnvironment</text>
</a>
</g>
</g>
<!-- Node4&#45;&gt;Node2 -->
<g id="edge3" class="edge"><title>Node4&#45;&gt;Node2</title>
<path fill="none" stroke="#9a32cd" stroke-dasharray="5,2" d="M489.524,-558.138C539.973,-554.593 597.699,-548.044 620,-536.136 630.844,-530.346 627.668,-521.796 638,-515.136 648.586,-508.313 661.083,-503.305 673.221,-499.646"/>
<polygon fill="#9a32cd" stroke="#9a32cd" points="489.287,-554.646 479.544,-558.808 489.756,-561.631 489.287,-554.646"/>
<text text-anchor="middle" x="559" y="-561.136" font-family="Helvetica,sans-Serif" font-size="10.00"> myEnvironment</text>
</g>
<!-- Node17 -->
<g id="node17" class="node"><title>Node17</title>
<g id="a_node17"><a xlink:href="../../d1/dc7/classview_1_1_side_bar.html" target="_top" xlink:title="view.SideBar">
<polygon fill="white" stroke="black" points="995.5,-260.636 995.5,-279.636 1072.5,-279.636 1072.5,-260.636 995.5,-260.636"/>
<text text-anchor="middle" x="1034" y="-267.636" font-family="Helvetica,sans-Serif" font-size="10.00">view.SideBar</text>
</a>
</g>
</g>
<!-- Node4&#45;&gt;Node17 -->
<g id="edge21" class="edge"><title>Node4&#45;&gt;Node17</title>
<path fill="none" stroke="#9a32cd" stroke-dasharray="5,2" d="M489.712,-569.745C492.506,-569.892 495.274,-570.023 498,-570.136 552.175,-572.39 571.256,-593.886 620,-570.136 631.669,-564.451 627.008,-554.041 638,-547.136 705.028,-505.031 744.519,-550.513 812,-509.136 822.77,-502.533 819.725,-494.487 830,-487.136 875.522,-454.57 913.372,-487.111 948,-443.136 989.268,-390.731 924.394,-346.274 966,-294.136 973.244,-285.058 984.202,-279.411 995.169,-275.899"/>
<polygon fill="#9a32cd" stroke="#9a32cd" points="489.697,-566.238 479.511,-569.152 489.291,-573.226 489.697,-566.238"/>
<text text-anchor="middle" x="725" y="-550.136" font-family="Helvetica,sans-Serif" font-size="10.00"> myEnvironment</text>
</g>
<!-- Node4&#45;&gt;Node21 -->
<g id="edge26" class="edge"><title>Node4&#45;&gt;Node21</title>
<path fill="none" stroke="#9a32cd" stroke-dasharray="5,2" d="M430.963,-548.459C449.719,-540.084 474.873,-529.741 498,-523.136 550.905,-508.028 583.47,-543.279 620,-502.136 671.266,-444.397 588.104,-214.064 638,-155.136 649.363,-141.717 667.872,-136.52 684.813,-134.866"/>
<polygon fill="#9a32cd" stroke="#9a32cd" points="429.439,-545.307 421.782,-552.63 432.334,-551.68 429.439,-545.307"/>
<text text-anchor="middle" x="559" y="-526.136" font-family="Helvetica,sans-Serif" font-size="10.00"> myExecutionParameters</text>
</g>
<!-- Node24 -->
<g id="node24" class="node"><title>Node24</title>
<g id="a_node24"><a xlink:href="../../d6/de7/classview_1_1_s_logo_view.html" target="_top" xlink:title="view.SLogoView">
<polygon fill="white" stroke="black" points="1646.5,-192.636 1646.5,-211.636 1737.5,-211.636 1737.5,-192.636 1646.5,-192.636"/>
<text text-anchor="middle" x="1692" y="-199.636" font-family="Helvetica,sans-Serif" font-size="10.00">view.SLogoView</text>
</a>
</g>
</g>
<!-- Node4&#45;&gt;Node24 -->
<g id="edge40" class="edge"><title>Node4&#45;&gt;Node24</title>
<path fill="none" stroke="#9a32cd" stroke-dasharray="5,2" d="M417.996,-578.857C462.181,-623.149 591.433,-740.136 724,-740.136 724,-740.136 724,-740.136 1475,-740.136 1502.72,-740.136 1618.86,-655.903 1628,-641.136 1674.8,-565.515 1688.44,-268.922 1690.65,-211.715"/>
<polygon fill="#9a32cd" stroke="#9a32cd" points="420.479,-576.39 410.975,-571.706 415.484,-581.294 420.479,-576.39"/>
<text text-anchor="middle" x="1160" y="-743.136" font-family="Helvetica,sans-Serif" font-size="10.00"> myEnvironment</text>
</g>
<!-- Node5 -->
<g id="node5" class="node"><title>Node5</title>
<polygon fill="white" stroke="#bfbfbf" points="51.5,-535.636 51.5,-554.636 122.5,-554.636 122.5,-535.636 51.5,-535.636"/>
<text text-anchor="middle" x="87" y="-542.636" font-family="Helvetica,sans-Serif" font-size="10.00">Observable</text>
</g>
<!-- Node5&#45;&gt;Node4 -->
<g id="edge4" class="edge"><title>Node5&#45;&gt;Node4</title>
<path fill="none" stroke="midnightblue" d="M132.637,-547.569C182.066,-550.262 262.658,-554.653 322.457,-557.911"/>
<polygon fill="midnightblue" stroke="midnightblue" points="132.757,-544.07 122.582,-547.021 132.376,-551.06 132.757,-544.07"/>
</g>
<!-- Node6 -->
<g id="node6" class="node"><title>Node6</title>
<polygon fill="white" stroke="#bfbfbf" points="42.5,-497.636 42.5,-516.636 131.5,-516.636 131.5,-497.636 42.5,-497.636"/>
<text text-anchor="middle" x="87" y="-504.636" font-family="Helvetica,sans-Serif" font-size="10.00">Set&lt; Integer &gt;</text>
</g>
<!-- Node6&#45;&gt;Node4 -->
<g id="edge5" class="edge"><title>Node6&#45;&gt;Node4</title>
<path fill="none" stroke="#9a32cd" stroke-dasharray="5,2" d="M141.799,-507.392C185.898,-508.606 249.672,-512.673 304,-525.136 331.333,-531.407 361.247,-543.902 380.296,-552.629"/>
<polygon fill="#9a32cd" stroke="#9a32cd" points="141.666,-503.888 131.587,-507.152 141.502,-510.886 141.666,-503.888"/>
<text text-anchor="middle" x="248" y="-539.136" font-family="Helvetica,sans-Serif" font-size="10.00"> myTurtleList</text>
<text text-anchor="middle" x="248" y="-528.136" font-family="Helvetica,sans-Serif" font-size="10.00">activeTurtleList</text>
</g>
<!-- Node7 -->
<g id="node7" class="node"><title>Node7</title>
<polygon fill="white" stroke="#bfbfbf" points="0,-612.136 0,-642.136 174,-642.136 174,-612.136 0,-612.136"/>
<text text-anchor="start" x="8" y="-630.136" font-family="Helvetica,sans-Serif" font-size="10.00">Map&lt; String, model.instructions.</text>
<text text-anchor="middle" x="87" y="-619.136" font-family="Helvetica,sans-Serif" font-size="10.00">Instruction &gt;</text>
</g>
<!-- Node7&#45;&gt;Node4 -->
<g id="edge6" class="edge"><title>Node7&#45;&gt;Node4</title>
<path fill="none" stroke="#9a32cd" stroke-dasharray="5,2" d="M184.106,-613.824C221.715,-607.91 265.087,-600.217 304,-591.136 327.059,-585.755 352.711,-577.907 371.694,-571.732"/>
<polygon fill="#9a32cd" stroke="#9a32cd" points="183.514,-610.374 174.169,-615.366 184.588,-617.291 183.514,-610.374"/>
<text text-anchor="middle" x="248" y="-616.136" font-family="Helvetica,sans-Serif" font-size="10.00"> myUserInstructionMap</text>
</g>
<!-- Node8 -->
<g id="node8" class="node"><title>Node8</title>
<polygon fill="white" stroke="#bfbfbf" points="23,-573.636 23,-592.636 151,-592.636 151,-573.636 23,-573.636"/>
<text text-anchor="middle" x="87" y="-580.636" font-family="Helvetica,sans-Serif" font-size="10.00">Map&lt; String, Double &gt;</text>
</g>
<!-- Node8&#45;&gt;Node4 -->
<g id="edge7" class="edge"><title>Node8&#45;&gt;Node4</title>
<path fill="none" stroke="#9a32cd" stroke-dasharray="5,2" d="M161.23,-578.207C209.637,-574.949 273.011,-570.684 322.303,-567.366"/>
<polygon fill="#9a32cd" stroke="#9a32cd" points="160.88,-574.723 151.138,-578.887 161.35,-581.707 160.88,-574.723"/>
<text text-anchor="middle" x="248" y="-579.136" font-family="Helvetica,sans-Serif" font-size="10.00"> myVariableMap</text>
</g>
<!-- Node9&#45;&gt;Node2 -->
<g id="edge8" class="edge"><title>Node9&#45;&gt;Node2</title>
<path fill="none" stroke="#9a32cd" stroke-dasharray="5,2" d="M433.544,-386.537C452.058,-394.004 476.058,-403.003 498,-409.136 551.141,-423.99 568.121,-413.344 620,-432.136 654.405,-444.599 690.951,-467.555 710.23,-480.536"/>
<polygon fill="#9a32cd" stroke="#9a32cd" points="434.718,-383.236 424.138,-382.685 432.066,-389.714 434.718,-383.236"/>
<text text-anchor="middle" x="559" y="-435.136" font-family="Helvetica,sans-Serif" font-size="10.00"> myViewUpdater</text>
</g>
<!-- Node9&#45;&gt;Node21 -->
<g id="edge27" class="edge"><title>Node9&#45;&gt;Node21</title>
<path fill="none" stroke="#9a32cd" stroke-dasharray="5,2" d="M415.2,-355.419C432.328,-333.388 464.062,-295.694 498,-271.136 546.486,-236.052 580.766,-259.331 620,-214.136 637.972,-193.434 617.867,-173.745 638,-155.136 650.576,-143.512 668.609,-138.423 684.917,-136.375"/>
<polygon fill="#9a32cd" stroke="#9a32cd" points="412.273,-353.486 408.985,-363.558 417.836,-357.735 412.273,-353.486"/>
<text text-anchor="middle" x="559" y="-274.136" font-family="Helvetica,sans-Serif" font-size="10.00"> myViewUpdater</text>
</g>
<!-- Node10 -->
<g id="node10" class="node"><title>Node10</title>
<g id="a_node10"><a xlink:href="../../da/d64/classview_1_1_workspace.html" target="_top" xlink:title="view.Workspace">
<polygon fill="white" stroke="black" points="1218,-420.636 1218,-439.636 1308,-439.636 1308,-420.636 1218,-420.636"/>
<text text-anchor="middle" x="1263" y="-427.636" font-family="Helvetica,sans-Serif" font-size="10.00">view.Workspace</text>
</a>
</g>
</g>
<!-- Node10&#45;&gt;Node9 -->
<g id="edge10" class="edge"><title>Node10&#45;&gt;Node9</title>
<path fill="none" stroke="#9a32cd" stroke-dasharray="5,2" d="M1207.65,-430.16C1181.2,-430.067 1148.94,-429.802 1120,-429.136 842.906,-422.764 773.82,-411.425 498,-384.136 482.808,-382.633 466.287,-380.809 451.3,-379.082"/>
<polygon fill="#9a32cd" stroke="#9a32cd" points="1207.85,-433.66 1217.86,-430.188 1207.87,-426.66 1207.85,-433.66"/>
<text text-anchor="middle" x="889" y="-427.136" font-family="Helvetica,sans-Serif" font-size="10.00"> myWorkspace</text>
</g>
<!-- Node10&#45;&gt;Node24 -->
<g id="edge30" class="edge"><title>Node10&#45;&gt;Node24</title>
<path fill="none" stroke="#9a32cd" stroke-dasharray="5,2" d="M1318.28,-429.44C1396.18,-425.587 1539.95,-407.451 1628,-329.136 1665.33,-295.932 1683.07,-235.53 1688.82,-211.943"/>
<polygon fill="#9a32cd" stroke="#9a32cd" points="1318.04,-425.947 1308.2,-429.877 1318.34,-432.94 1318.04,-425.947"/>
<text text-anchor="middle" x="1474" y="-422.136" font-family="Helvetica,sans-Serif" font-size="10.00"> myWorkspace</text>
</g>
<!-- Node32 -->
<g id="node32" class="node"><title>Node32</title>
<g id="a_node32"><a xlink:href="../../de/d0a/classview_1_1_drawer.html" target="_top" xlink:title="view.Drawer">
<polygon fill="white" stroke="black" points="1437.5,-328.636 1437.5,-347.636 1510.5,-347.636 1510.5,-328.636 1437.5,-328.636"/>
<text text-anchor="middle" x="1474" y="-335.636" font-family="Helvetica,sans-Serif" font-size="10.00">view.Drawer</text>
</a>
</g>
</g>
<!-- Node10&#45;&gt;Node32 -->
<g id="edge44" class="edge"><title>Node10&#45;&gt;Node32</title>
<path fill="none" stroke="#9a32cd" stroke-dasharray="5,2" d="M1293.07,-416.298C1303.43,-411.431 1315.21,-405.972 1326,-401.136 1369.58,-381.611 1420.96,-359.883 1449.98,-347.727"/>
<polygon fill="#9a32cd" stroke="#9a32cd" points="1291.58,-413.134 1284.03,-420.566 1294.57,-419.465 1291.58,-413.134"/>
<text text-anchor="middle" x="1361" y="-404.136" font-family="Helvetica,sans-Serif" font-size="10.00"> myWorkspace</text>
</g>
<!-- Node11 -->
<g id="node11" class="node"><title>Node11</title>
<polygon fill="white" stroke="#bfbfbf" points="1000.5,-521.636 1000.5,-540.636 1067.5,-540.636 1067.5,-521.636 1000.5,-521.636"/>
<text text-anchor="middle" x="1034" y="-528.636" font-family="Helvetica,sans-Serif" font-size="10.00">StackPane</text>
</g>
<!-- Node11&#45;&gt;Node10 -->
<g id="edge11" class="edge"><title>Node11&#45;&gt;Node10</title>
<path fill="none" stroke="midnightblue" d="M1077.58,-519.673C1085.78,-517.118 1094.22,-514.236 1102,-511.136 1156.37,-489.46 1217.17,-455.937 1245.64,-439.657"/>
<polygon fill="midnightblue" stroke="midnightblue" points="1076.34,-516.39 1067.77,-522.621 1078.36,-523.094 1076.34,-516.39"/>
</g>
<!-- Node12 -->
<g id="node12" class="node"><title>Node12</title>
<polygon fill="white" stroke="#bfbfbf" points="678.5,-567.636 678.5,-586.636 771.5,-586.636 771.5,-567.636 678.5,-567.636"/>
<text text-anchor="middle" x="725" y="-574.636" font-family="Helvetica,sans-Serif" font-size="10.00">ResourceBundle</text>
</g>
<!-- Node12&#45;&gt;Node10 -->
<g id="edge12" class="edge"><title>Node12&#45;&gt;Node10</title>
<path fill="none" stroke="#9a32cd" stroke-dasharray="5,2" d="M781.718,-580.225C856.239,-582.769 991.761,-581.808 1102,-550.136 1149.39,-536.521 1161.04,-528.355 1200,-498.136 1222.72,-480.512 1244.14,-454.054 1254.86,-439.898"/>
<polygon fill="#9a32cd" stroke="#9a32cd" points="781.741,-576.723 771.617,-579.845 781.478,-583.718 781.741,-576.723"/>
<text text-anchor="middle" x="1034" y="-578.136" font-family="Helvetica,sans-Serif" font-size="10.00"> myResources</text>
</g>
<!-- Node12&#45;&gt;Node17 -->
<g id="edge20" class="edge"><title>Node12&#45;&gt;Node17</title>
<path fill="none" stroke="#9a32cd" stroke-dasharray="5,2" d="M773.99,-564.848C786.514,-561.191 799.891,-556.879 812,-552.136 874.925,-527.493 909.797,-539.881 948,-484.136 971.975,-449.152 939.975,-327.624 966,-294.136 973.203,-284.868 984.286,-279.174 995.378,-275.677"/>
<polygon fill="#9a32cd" stroke="#9a32cd" points="772.834,-561.538 764.17,-567.636 774.746,-568.272 772.834,-561.538"/>
<text text-anchor="middle" x="889" y="-549.136" font-family="Helvetica,sans-Serif" font-size="10.00"> myResources</text>
</g>
<!-- Node12&#45;&gt;Node24 -->
<g id="edge32" class="edge"><title>Node12&#45;&gt;Node24</title>
<path fill="none" stroke="#9a32cd" stroke-dasharray="5,2" d="M753.847,-591.302C797.715,-612.912 886.152,-653.654 966,-673.136 1049.74,-693.567 1072.81,-692.136 1159,-692.136 1159,-692.136 1159,-692.136 1475,-692.136 1693.01,-692.136 1692.86,-280.985 1691.3,-211.924"/>
<polygon fill="#9a32cd" stroke="#9a32cd" points="755.194,-588.063 744.682,-586.744 752.077,-594.331 755.194,-588.063"/>
<text text-anchor="middle" x="1263" y="-695.136" font-family="Helvetica,sans-Serif" font-size="10.00"> myResources</text>
</g>
<!-- Node13 -->
<g id="node13" class="node"><title>Node13</title>
<g id="a_node13"><a xlink:href="../../d8/df7/classview_1_1_turtle_view.html" target="_top" xlink:title="view.TurtleView">
<polygon fill="white" stroke="black" points="991,-644.636 991,-663.636 1077,-663.636 1077,-644.636 991,-644.636"/>
<text text-anchor="middle" x="1034" y="-651.636" font-family="Helvetica,sans-Serif" font-size="10.00">view.TurtleView</text>
</a>
</g>
</g>
<!-- Node13&#45;&gt;Node10 -->
<g id="edge13" class="edge"><title>Node13&#45;&gt;Node10</title>
<path fill="none" stroke="#9a32cd" stroke-dasharray="5,2" d="M1087.61,-658.552C1123.34,-658.651 1169.48,-652.702 1200,-626.136 1257.88,-575.756 1262.27,-471.753 1262.19,-439.731"/>
<polygon fill="#9a32cd" stroke="#9a32cd" points="1087.42,-655.048 1077.35,-658.361 1087.29,-662.047 1087.42,-655.048"/>
<text text-anchor="middle" x="1160" y="-660.136" font-family="Helvetica,sans-Serif" font-size="10.00"> myActiveTurtle</text>
</g>
<!-- Node14 -->
<g id="node14" class="node"><title>Node14</title>
<polygon fill="white" stroke="#bfbfbf" points="691,-692.636 691,-711.636 759,-711.636 759,-692.636 691,-692.636"/>
<text text-anchor="middle" x="725" y="-699.636" font-family="Helvetica,sans-Serif" font-size="10.00">ImageView</text>
</g>
<!-- Node14&#45;&gt;Node13 -->
<g id="edge14" class="edge"><title>Node14&#45;&gt;Node13</title>
<path fill="none" stroke="midnightblue" d="M769.232,-695.377C828.085,-686.175 932.74,-669.812 990.965,-660.709"/>
<polygon fill="midnightblue" stroke="midnightblue" points="768.485,-691.951 759.146,-696.954 769.567,-698.867 768.485,-691.951"/>
</g>
<!-- Node15 -->
<g id="node15" class="node"><title>Node15</title>
<polygon fill="white" stroke="#bfbfbf" points="966,-384.136 966,-414.136 1102,-414.136 1102,-384.136 966,-384.136"/>
<text text-anchor="start" x="974" y="-402.136" font-family="Helvetica,sans-Serif" font-size="10.00">Map&lt; Integer, view.Turtle</text>
<text text-anchor="middle" x="1034" y="-391.136" font-family="Helvetica,sans-Serif" font-size="10.00">View &gt;</text>
</g>
<!-- Node15&#45;&gt;Node10 -->
<g id="edge15" class="edge"><title>Node15&#45;&gt;Node10</title>
<path fill="none" stroke="#9a32cd" stroke-dasharray="5,2" d="M1112.23,-406.793C1139.97,-409.869 1171.45,-413.736 1200,-418.136 1205.74,-419.021 1211.77,-420.054 1217.71,-421.136"/>
<polygon fill="#9a32cd" stroke="#9a32cd" points="1112.51,-403.303 1102.19,-405.696 1111.75,-410.262 1112.51,-403.303"/>
<text text-anchor="middle" x="1160" y="-421.136" font-family="Helvetica,sans-Serif" font-size="10.00"> myTurtles</text>
</g>
<!-- Node16 -->
<g id="node16" class="node"><title>Node16</title>
<polygon fill="white" stroke="#bfbfbf" points="1011,-345.636 1011,-364.636 1057,-364.636 1057,-345.636 1011,-345.636"/>
<text text-anchor="middle" x="1034" y="-352.636" font-family="Helvetica,sans-Serif" font-size="10.00">Group</text>
</g>
<!-- Node16&#45;&gt;Node10 -->
<g id="edge16" class="edge"><title>Node16&#45;&gt;Node10</title>
<path fill="none" stroke="#9a32cd" stroke-dasharray="5,2" d="M1067.27,-359.519C1101.19,-364.821 1155.7,-375.329 1200,-393.136 1217.91,-400.336 1236.71,-412.263 1248.85,-420.624"/>
<polygon fill="#9a32cd" stroke="#9a32cd" points="1067.42,-356.003 1057.01,-357.977 1066.38,-362.925 1067.42,-356.003"/>
<text text-anchor="middle" x="1160" y="-396.136" font-family="Helvetica,sans-Serif" font-size="10.00"> myLines</text>
</g>
<!-- Node17&#45;&gt;Node9 -->
<g id="edge50" class="edge"><title>Node17&#45;&gt;Node9</title>
<path fill="none" stroke="#9a32cd" stroke-dasharray="5,2" d="M985.02,-273.229C894.859,-279.231 703.344,-292.945 638,-305.136 560.665,-319.565 472.22,-348.516 428.847,-363.563"/>
<polygon fill="#9a32cd" stroke="#9a32cd" points="985.491,-276.705 995.238,-272.552 985.029,-269.72 985.491,-276.705"/>
<text text-anchor="middle" x="725" y="-308.136" font-family="Helvetica,sans-Serif" font-size="10.00"> mySidebar</text>
</g>
<!-- Node17&#45;&gt;Node10 -->
<g id="edge17" class="edge"><title>Node17&#45;&gt;Node10</title>
<path fill="none" stroke="#9a32cd" stroke-dasharray="5,2" d="M1075.38,-283.031C1084.29,-286.309 1093.59,-290.068 1102,-294.136 1148.19,-316.469 1161.37,-321.37 1200,-355.136 1203.13,-357.874 1238.16,-400.812 1254.14,-420.458"/>
<polygon fill="#9a32cd" stroke="#9a32cd" points="1076.51,-279.717 1065.91,-279.671 1074.17,-286.314 1076.51,-279.717"/>
<text text-anchor="middle" x="1160" y="-358.136" font-family="Helvetica,sans-Serif" font-size="10.00"> mySidebar</text>
</g>
<!-- Node17&#45;&gt;Node24 -->
<g id="edge46" class="edge"><title>Node17&#45;&gt;Node24</title>
<path fill="none" stroke="#9a32cd" stroke-dasharray="5,2" d="M1082.87,-267.857C1184.02,-262.586 1426.75,-247.529 1628,-216.136 1635.75,-214.928 1643.97,-213.333 1651.83,-211.654"/>
<polygon fill="#9a32cd" stroke="#9a32cd" points="1082.48,-264.373 1072.67,-268.381 1082.84,-271.364 1082.48,-264.373"/>
<text text-anchor="middle" x="1361" y="-254.136" font-family="Helvetica,sans-Serif" font-size="10.00"> mySidebar</text>
</g>
<!-- Node26 -->
<g id="node26" class="node"><title>Node26</title>
<g id="a_node26"><a xlink:href="../../da/dc8/classview_1_1_editor.html" target="_top" xlink:title="view.Editor">
<polygon fill="white" stroke="black" points="1229.5,-115.636 1229.5,-134.636 1296.5,-134.636 1296.5,-115.636 1229.5,-115.636"/>
<text text-anchor="middle" x="1263" y="-122.636" font-family="Helvetica,sans-Serif" font-size="10.00">view.Editor</text>
</a>
</g>
</g>
<!-- Node17&#45;&gt;Node26 -->
<g id="edge38" class="edge"><title>Node17&#45;&gt;Node26</title>
<path fill="none" stroke="#9a32cd" stroke-dasharray="5,2" d="M1059.87,-255.01C1092.33,-235.179 1150.79,-199.147 1200,-167.136 1216.57,-156.361 1235.32,-143.574 1247.82,-134.964"/>
<polygon fill="#9a32cd" stroke="#9a32cd" points="1057.77,-252.194 1051.05,-260.39 1061.41,-258.169 1057.77,-252.194"/>
<text text-anchor="middle" x="1160" y="-219.136" font-family="Helvetica,sans-Serif" font-size="10.00"> mySidebar</text>
</g>
<!-- Node18 -->
<g id="node18" class="node"><title>Node18</title>
<polygon fill="white" stroke="#bfbfbf" points="704.5,-240.636 704.5,-259.636 745.5,-259.636 745.5,-240.636 704.5,-240.636"/>
<text text-anchor="middle" x="725" y="-247.636" font-family="Helvetica,sans-Serif" font-size="10.00">VBox</text>
</g>
<!-- Node18&#45;&gt;Node17 -->
<g id="edge18" class="edge"><title>Node18&#45;&gt;Node17</title>
<path fill="none" stroke="midnightblue" d="M755.673,-252.159C776.476,-253.571 804.935,-255.49 830,-257.136 887.616,-260.92 954.441,-265.174 995.21,-267.753"/>
<polygon fill="midnightblue" stroke="midnightblue" points="755.764,-248.658 745.55,-251.471 755.29,-255.641 755.764,-248.658"/>
</g>
<!-- Node19 -->
<g id="node19" class="node"><title>Node19</title>
<polygon fill="white" stroke="#bfbfbf" points="638.5,-202.636 638.5,-221.636 811.5,-221.636 811.5,-202.636 638.5,-202.636"/>
<text text-anchor="middle" x="725" y="-209.636" font-family="Helvetica,sans-Serif" font-size="10.00">ObservableList&lt; view.Property &gt;</text>
</g>
<!-- Node19&#45;&gt;Node17 -->
<g id="edge19" class="edge"><title>Node19&#45;&gt;Node17</title>
<path fill="none" stroke="#9a32cd" stroke-dasharray="5,2" d="M821.804,-222.673C861.153,-227.848 907.011,-234.97 948,-244.136 967.578,-248.514 989.191,-255.151 1005.72,-260.623"/>
<polygon fill="#9a32cd" stroke="#9a32cd" points="822.05,-219.176 811.684,-221.367 821.154,-226.119 822.05,-219.176"/>
<text text-anchor="middle" x="889" y="-247.136" font-family="Helvetica,sans-Serif" font-size="10.00"> myVariablesList</text>
</g>
<!-- Node20 -->
<g id="node20" class="node"><title>Node20</title>
<polygon fill="white" stroke="#bfbfbf" points="651,-164.636 651,-183.636 799,-183.636 799,-164.636 651,-164.636"/>
<text text-anchor="middle" x="725" y="-171.636" font-family="Helvetica,sans-Serif" font-size="10.00">TableView&lt; view.Property &gt;</text>
</g>
<!-- Node20&#45;&gt;Node17 -->
<g id="edge22" class="edge"><title>Node20&#45;&gt;Node17</title>
<path fill="none" stroke="#9a32cd" stroke-dasharray="5,2" d="M809.13,-178.276C861.505,-181.882 923.665,-188.287 948,-199.136 957.776,-203.495 957.862,-208.184 966,-215.136 984.994,-231.363 1007.53,-249.672 1021.02,-260.539"/>
<polygon fill="#9a32cd" stroke="#9a32cd" points="809.349,-174.783 799.139,-177.613 808.885,-181.768 809.349,-174.783"/>
<text text-anchor="middle" x="889" y="-213.136" font-family="Helvetica,sans-Serif" font-size="10.00"> myTurtlePropertiesTable</text>
<text text-anchor="middle" x="889" y="-202.136" font-family="Helvetica,sans-Serif" font-size="10.00">myVariablesTable</text>
</g>
<!-- Node21&#45;&gt;Node17 -->
<g id="edge23" class="edge"><title>Node21&#45;&gt;Node17</title>
<path fill="none" stroke="#9a32cd" stroke-dasharray="5,2" d="M775.252,-139.858C836.541,-144.904 934.796,-154.512 948,-165.136 966.401,-179.943 952.383,-195.839 966,-215.136 979.622,-234.441 1001.74,-250.754 1016.8,-260.483"/>
<polygon fill="#9a32cd" stroke="#9a32cd" points="775.26,-136.347 765.01,-139.029 774.695,-143.325 775.26,-136.347"/>
<text text-anchor="middle" x="889" y="-168.136" font-family="Helvetica,sans-Serif" font-size="10.00"> myParser</text>
</g>
<!-- Node21&#45;&gt;Node24 -->
<g id="edge41" class="edge"><title>Node21&#45;&gt;Node24</title>
<path fill="none" stroke="#9a32cd" stroke-dasharray="5,2" d="M775.394,-125.335C823.426,-117.691 896.482,-113.922 948,-147.136 962.702,-156.615 951.195,-172.82 966,-182.136 1023.38,-218.246 1497.37,-207.753 1646.36,-203.513"/>
<polygon fill="#9a32cd" stroke="#9a32cd" points="774.512,-121.935 765.244,-127.068 775.69,-128.835 774.512,-121.935"/>
<text text-anchor="middle" x="1263" y="-212.136" font-family="Helvetica,sans-Serif" font-size="10.00"> myParser</text>
</g>
<!-- Node21&#45;&gt;Node26 -->
<g id="edge36" class="edge"><title>Node21&#45;&gt;Node26</title>
<path fill="none" stroke="#9a32cd" stroke-dasharray="5,2" d="M756.711,-122.506C801.608,-103.4 888.284,-69.5982 966,-57.1364 1025.68,-47.5663 1042.54,-46.2852 1102,-57.1364 1157.82,-67.3231 1217.94,-99.2209 1245.95,-115.448"/>
<polygon fill="#9a32cd" stroke="#9a32cd" points="755.064,-119.405 747.263,-126.573 757.832,-125.834 755.064,-119.405"/>
<text text-anchor="middle" x="1034" y="-60.1364" font-family="Helvetica,sans-Serif" font-size="10.00"> myParser</text>
</g>
<!-- Node22 -->
<g id="node22" class="node"><title>Node22</title>
<polygon fill="white" stroke="#bfbfbf" points="345,-99.1364 345,-129.136 457,-129.136 457,-99.1364 345,-99.1364"/>
<text text-anchor="start" x="353" y="-117.136" font-family="Helvetica,sans-Serif" font-size="10.00">List&lt; Entry&lt; String,</text>
<text text-anchor="middle" x="401" y="-106.136" font-family="Helvetica,sans-Serif" font-size="10.00"> Pattern &gt; &gt;</text>
</g>
<!-- Node22&#45;&gt;Node21 -->
<g id="edge25" class="edge"><title>Node22&#45;&gt;Node21</title>
<path fill="none" stroke="#9a32cd" stroke-dasharray="5,2" d="M467.519,-118.613C532.679,-123.065 630.507,-129.749 684.567,-133.442"/>
<polygon fill="#9a32cd" stroke="#9a32cd" points="467.569,-115.108 457.354,-117.918 467.092,-122.092 467.569,-115.108"/>
<text text-anchor="middle" x="559" y="-132.136" font-family="Helvetica,sans-Serif" font-size="10.00"> myPatterns</text>
</g>
<!-- Node23 -->
<g id="node23" class="node"><title>Node23</title>
<polygon fill="white" stroke="#bfbfbf" points="340,-186.636 340,-205.636 462,-205.636 462,-186.636 340,-186.636"/>
<text text-anchor="middle" x="401" y="-193.636" font-family="Helvetica,sans-Serif" font-size="10.00">Map&lt; String, String &gt;</text>
</g>
<!-- Node23&#45;&gt;Node21 -->
<g id="edge28" class="edge"><title>Node23&#45;&gt;Node21</title>
<path fill="none" stroke="#9a32cd" stroke-dasharray="5,2" d="M472.194,-199.569C516.483,-199.094 573.833,-193.491 620,-172.136 629.987,-167.517 628.276,-160.287 638,-155.136 652.323,-147.549 669.529,-142.988 684.775,-140.247"/>
<polygon fill="#9a32cd" stroke="#9a32cd" points="472.086,-196.069 462.094,-199.592 472.102,-203.069 472.086,-196.069"/>
<text text-anchor="middle" x="559" y="-202.136" font-family="Helvetica,sans-Serif" font-size="10.00"> myCommandMap</text>
</g>
<!-- Node24&#45;&gt;Node21 -->
<g id="edge29" class="edge"><title>Node24&#45;&gt;Node21</title>
<path fill="none" stroke="#9a32cd" stroke-dasharray="5,2" d="M1689.58,-182.3C1685.92,-146.856 1673.01,-72.7549 1628,-34.1364 1575.27,11.1001 1544.47,-2.13639 1475,-2.13639 1033,-2.13639 1033,-2.13639 1033,-2.13639 939.525,-2.13639 913.878,-15.881 830,-57.1364 791.546,-76.0501 753.185,-110.096 735.74,-126.622"/>
<polygon fill="#9a32cd" stroke="#9a32cd" points="1686.1,-182.704 1690.47,-192.355 1693.07,-182.085 1686.1,-182.704"/>
<text text-anchor="middle" x="1263" y="-5.13639" font-family="Helvetica,sans-Serif" font-size="10.00"> mySLogoView</text>
</g>
<!-- Node25 -->
<g id="node25" class="node"><title>Node25</title>
<polygon fill="white" stroke="#bfbfbf" points="1451.5,-154.636 1451.5,-173.636 1496.5,-173.636 1496.5,-154.636 1451.5,-154.636"/>
<text text-anchor="middle" x="1474" y="-161.636" font-family="Helvetica,sans-Serif" font-size="10.00">Stage</text>
</g>
<!-- Node25&#45;&gt;Node24 -->
<g id="edge31" class="edge"><title>Node25&#45;&gt;Node24</title>
<path fill="none" stroke="#9a32cd" stroke-dasharray="5,2" d="M1506.88,-164.145C1538.13,-164.782 1586.92,-167.462 1628,-177.136 1643,-180.67 1659.15,-187.133 1671.34,-192.603"/>
<polygon fill="#9a32cd" stroke="#9a32cd" points="1506.65,-160.641 1496.6,-163.996 1506.55,-167.64 1506.65,-160.641"/>
<text text-anchor="middle" x="1590" y="-180.136" font-family="Helvetica,sans-Serif" font-size="10.00"> myStage</text>
</g>
<!-- Node26&#45;&gt;Node24 -->
<g id="edge33" class="edge"><title>Node26&#45;&gt;Node24</title>
<path fill="none" stroke="#9a32cd" stroke-dasharray="5,2" d="M1306.96,-121.111C1377.45,-116.317 1520.58,-114.292 1628,-163.136 1646.03,-171.337 1665.17,-183.784 1677.55,-192.401"/>
<polygon fill="#9a32cd" stroke="#9a32cd" points="1306.4,-117.642 1296.69,-121.865 1306.92,-124.623 1306.4,-117.642"/>
<text text-anchor="middle" x="1474" y="-137.136" font-family="Helvetica,sans-Serif" font-size="10.00"> myEditor</text>
</g>
<!-- Node27 -->
<g id="node27" class="node"><title>Node27</title>
<polygon fill="white" stroke="#bfbfbf" points="1013,-115.636 1013,-134.636 1055,-134.636 1055,-115.636 1013,-115.636"/>
<text text-anchor="middle" x="1034" y="-122.636" font-family="Helvetica,sans-Serif" font-size="10.00">HBox</text>
</g>
<!-- Node27&#45;&gt;Node26 -->
<g id="edge34" class="edge"><title>Node27&#45;&gt;Node26</title>
<path fill="none" stroke="midnightblue" d="M1065.19,-125.136C1107.8,-125.136 1185.29,-125.136 1229.25,-125.136"/>
<polygon fill="midnightblue" stroke="midnightblue" points="1065.14,-121.636 1055.14,-125.136 1065.14,-128.636 1065.14,-121.636"/>
</g>
<!-- Node28 -->
<g id="node28" class="node"><title>Node28</title>
<polygon fill="white" stroke="#bfbfbf" points="1009.5,-77.6364 1009.5,-96.6364 1058.5,-96.6364 1058.5,-77.6364 1009.5,-77.6364"/>
<text text-anchor="middle" x="1034" y="-84.6364" font-family="Helvetica,sans-Serif" font-size="10.00">Button</text>
</g>
<!-- Node28&#45;&gt;Node26 -->
<g id="edge35" class="edge"><title>Node28&#45;&gt;Node26</title>
<path fill="none" stroke="#9a32cd" stroke-dasharray="5,2" d="M1068.78,-90.8536C1102.24,-94.7689 1154.88,-101.555 1200,-110.136 1209.57,-111.957 1219.89,-114.299 1229.31,-116.588"/>
<polygon fill="#9a32cd" stroke="#9a32cd" points="1068.95,-87.351 1058.62,-89.6846 1068.15,-94.3051 1068.95,-87.351"/>
<text text-anchor="middle" x="1160" y="-113.136" font-family="Helvetica,sans-Serif" font-size="10.00"> runButton</text>
</g>
<!-- Node29 -->
<g id="node29" class="node"><title>Node29</title>
<polygon fill="white" stroke="#bfbfbf" points="1005,-153.636 1005,-172.636 1063,-172.636 1063,-153.636 1005,-153.636"/>
<text text-anchor="middle" x="1034" y="-160.636" font-family="Helvetica,sans-Serif" font-size="10.00">TextArea</text>
</g>
<!-- Node29&#45;&gt;Node26 -->
<g id="edge37" class="edge"><title>Node29&#45;&gt;Node26</title>
<path fill="none" stroke="#9a32cd" stroke-dasharray="5,2" d="M1073.42,-158.407C1106.95,-154.075 1156.85,-147.133 1200,-139.136 1209.55,-137.367 1219.86,-135.159 1229.28,-133.024"/>
<polygon fill="#9a32cd" stroke="#9a32cd" points="1072.61,-154.981 1063.14,-159.72 1073.5,-161.925 1072.61,-154.981"/>
<text text-anchor="middle" x="1160" y="-155.136" font-family="Helvetica,sans-Serif" font-size="10.00"> textEditor</text>
</g>
<!-- Node30 -->
<g id="node30" class="node"><title>Node30</title>
<polygon fill="white" stroke="#bfbfbf" points="1414.5,-69.6364 1414.5,-88.6364 1533.5,-88.6364 1533.5,-69.6364 1414.5,-69.6364"/>
<text text-anchor="middle" x="1474" y="-76.6364" font-family="Helvetica,sans-Serif" font-size="10.00">Map&lt; String, Node &gt;</text>
</g>
<!-- Node30&#45;&gt;Node24 -->
<g id="edge39" class="edge"><title>Node30&#45;&gt;Node24</title>
<path fill="none" stroke="#9a32cd" stroke-dasharray="5,2" d="M1543.76,-76.1611C1571.82,-77.9601 1603.38,-84.1152 1628,-100.136 1662.71,-122.73 1681.53,-171.832 1688.18,-192.578"/>
<polygon fill="#9a32cd" stroke="#9a32cd" points="1543.75,-72.657 1533.6,-75.6852 1543.42,-79.6494 1543.75,-72.657"/>
<text text-anchor="middle" x="1590" y="-103.136" font-family="Helvetica,sans-Serif" font-size="10.00"> variables</text>
</g>
<!-- Node31 -->
<g id="node31" class="node"><title>Node31</title>
<polygon fill="white" stroke="#bfbfbf" points="1433.5,-31.6364 1433.5,-50.6364 1514.5,-50.6364 1514.5,-31.6364 1433.5,-31.6364"/>
<text text-anchor="middle" x="1474" y="-38.6364" font-family="Helvetica,sans-Serif" font-size="10.00">Dimension2D</text>
</g>
<!-- Node31&#45;&gt;Node24 -->
<g id="edge42" class="edge"><title>Node31&#45;&gt;Node24</title>
<path fill="none" stroke="#9a32cd" stroke-dasharray="5,2" d="M1524.91,-36.2602C1557.29,-35.7182 1598.75,-40.2562 1628,-62.1364 1672.18,-95.1809 1686.1,-166.322 1689.82,-192.344"/>
<polygon fill="#9a32cd" stroke="#9a32cd" points="1524.62,-32.7678 1514.74,-36.5991 1524.85,-39.7639 1524.62,-32.7678"/>
<text text-anchor="middle" x="1590" y="-65.1364" font-family="Helvetica,sans-Serif" font-size="10.00"> myDimensions</text>
</g>
<!-- Node32&#45;&gt;Node9 -->
<g id="edge49" class="edge"><title>Node32&#45;&gt;Node9</title>
<path fill="none" stroke="#9a32cd" stroke-dasharray="5,2" d="M1427.22,-336.016C1357.18,-332.889 1219.22,-327.19 1102,-325.136 1041.56,-324.078 1018.38,-294.979 966,-325.136 952.193,-333.085 961.682,-347.974 948,-356.136 906.005,-381.191 577.272,-376.909 451.089,-374.299"/>
<polygon fill="#9a32cd" stroke="#9a32cd" points="1427.31,-339.523 1437.46,-336.476 1427.62,-332.531 1427.31,-339.523"/>
<text text-anchor="middle" x="1034" y="-328.136" font-family="Helvetica,sans-Serif" font-size="10.00"> myDrawer</text>
</g>
<!-- Node32&#45;&gt;Node24 -->
<g id="edge43" class="edge"><title>Node32&#45;&gt;Node24</title>
<path fill="none" stroke="#9a32cd" stroke-dasharray="5,2" d="M1519.38,-325.541C1551.48,-315.065 1594.86,-297.999 1628,-274.136 1652.8,-256.278 1674.5,-226.896 1684.74,-211.781"/>
<polygon fill="#9a32cd" stroke="#9a32cd" points="1518.27,-322.219 1509.8,-328.58 1520.39,-328.891 1518.27,-322.219"/>
<text text-anchor="middle" x="1590" y="-317.136" font-family="Helvetica,sans-Serif" font-size="10.00"> drawer</text>
</g>
<!-- Node33 -->
<g id="node33" class="node"><title>Node33</title>
<polygon fill="white" stroke="#bfbfbf" points="1242.5,-347.636 1242.5,-366.636 1283.5,-366.636 1283.5,-347.636 1242.5,-347.636"/>
<text text-anchor="middle" x="1263" y="-354.636" font-family="Helvetica,sans-Serif" font-size="10.00">Color</text>
</g>
<!-- Node33&#45;&gt;Node32 -->
<g id="edge45" class="edge"><title>Node33&#45;&gt;Node32</title>
<path fill="none" stroke="#9a32cd" stroke-dasharray="5,2" d="M1294.03,-354.406C1331.9,-350.964 1396.91,-345.053 1437.29,-341.383"/>
<polygon fill="#9a32cd" stroke="#9a32cd" points="1293.3,-350.958 1283.66,-355.349 1293.94,-357.929 1293.3,-350.958"/>
<text text-anchor="middle" x="1361" y="-354.136" font-family="Helvetica,sans-Serif" font-size="10.00"> myColor</text>
</g>
<!-- Node34 -->
<g id="node34" class="node"><title>Node34</title>
<polygon fill="white" stroke="#bfbfbf" points="656,-325.636 656,-344.636 794,-344.636 794,-325.636 656,-325.636"/>
<text text-anchor="middle" x="725" y="-332.636" font-family="Helvetica,sans-Serif" font-size="10.00">ObservableList&lt; String &gt;</text>
</g>
<!-- Node34&#45;&gt;Node17 -->
<g id="edge47" class="edge"><title>Node34&#45;&gt;Node17</title>
<path fill="none" stroke="#9a32cd" stroke-dasharray="5,2" d="M804.325,-331.322C857.643,-327.781 922.916,-321.32 948,-310.136 957.776,-305.778 956.794,-299.596 966,-294.136 975.99,-288.212 987.677,-283.402 998.467,-279.688"/>
<polygon fill="#9a32cd" stroke="#9a32cd" points="803.935,-327.839 794.179,-331.97 804.382,-334.825 803.935,-327.839"/>
<text text-anchor="middle" x="889" y="-344.136" font-family="Helvetica,sans-Serif" font-size="10.00"> myCommandItems</text>
<text text-anchor="middle" x="889" y="-333.136" font-family="Helvetica,sans-Serif" font-size="10.00">myHistoryItems</text>
</g>
<!-- Node35 -->
<g id="node35" class="node"><title>Node35</title>
<polygon fill="white" stroke="#bfbfbf" points="1002.5,-606.636 1002.5,-625.636 1065.5,-625.636 1065.5,-606.636 1002.5,-606.636"/>
<text text-anchor="middle" x="1034" y="-613.636" font-family="Helvetica,sans-Serif" font-size="10.00">Rectangle</text>
</g>
<!-- Node35&#45;&gt;Node10 -->
<g id="edge48" class="edge"><title>Node35&#45;&gt;Node10</title>
<path fill="none" stroke="#9a32cd" stroke-dasharray="5,2" d="M1075.74,-614.576C1118.28,-612.158 1181.38,-606.098 1200,-591.136 1249.27,-551.555 1259.44,-467.848 1261.49,-439.643"/>
<polygon fill="#9a32cd" stroke="#9a32cd" points="1075.47,-611.085 1065.67,-615.103 1075.84,-618.075 1075.47,-611.085"/>
<text text-anchor="middle" x="1160" y="-614.136" font-family="Helvetica,sans-Serif" font-size="10.00"> myBackground</text>
</g>
<!-- Node36 -->
<g id="node36" class="node"><title>Node36</title>
<polygon fill="white" stroke="#bfbfbf" points="333,-486.136 333,-516.136 469,-516.136 469,-486.136 333,-486.136"/>
<text text-anchor="start" x="341" y="-504.136" font-family="Helvetica,sans-Serif" font-size="10.00">List&lt; model.instructions.</text>
<text text-anchor="middle" x="401" y="-493.136" font-family="Helvetica,sans-Serif" font-size="10.00">Instruction &gt;</text>
</g>
<!-- Node36&#45;&gt;Node2 -->
<g id="edge51" class="edge"><title>Node36&#45;&gt;Node2</title>
<path fill="none" stroke="#9a32cd" stroke-dasharray="5,2" d="M479.102,-492.428C485.489,-491.913 491.851,-491.469 498,-491.136 547.072,-488.479 602.224,-488.182 645.761,-488.573"/>
<polygon fill="#9a32cd" stroke="#9a32cd" points="478.734,-488.947 469.071,-493.292 479.335,-495.921 478.734,-488.947"/>
<text text-anchor="middle" x="559" y="-494.136" font-family="Helvetica,sans-Serif" font-size="10.00"> myDependencies</text>
</g>
</g>
</svg>
