<?xml version="1.0" encoding="UTF-8" standalone="no"?>
<!DOCTYPE svg PUBLIC "-//W3C//DTD SVG 1.1//EN"
 "http://www.w3.org/Graphics/SVG/1.1/DTD/svg11.dtd">
<!-- Generated by graphviz version 2.36.0 (20140111.2315)
 -->
<!-- Title: model.instructions.TurtleRequestInstruction.execute Pages: 1 -->
<svg width="344pt" height="180pt"
 viewBox="0.00 0.00 344.00 180.00" xmlns="http://www.w3.org/2000/svg" xmlns:xlink="http://www.w3.org/1999/xlink">
<g id="graph0" class="graph" transform="scale(1 1) rotate(0) translate(4 176)">
<title>model.instructions.TurtleRequestInstruction.execute</title>
<polygon fill="white" stroke="none" points="-4,4 -4,-176 340,-176 340,4 -4,4"/>
<!-- Node1 -->
<g id="node1" class="node"><title>Node1</title>
<polygon fill="#bfbfbf" stroke="black" points="0,-71 0,-101 146,-101 146,-71 0,-71"/>
<text text-anchor="start" x="8" y="-89" font-family="Helvetica,sans-Serif" font-size="10.00">model.instructions.Turtle</text>
<text text-anchor="middle" x="73" y="-78" font-family="Helvetica,sans-Serif" font-size="10.00">RequestInstruction.execute</text>
</g>
<!-- Node2 -->
<g id="node2" class="node"><title>Node2</title>
<g id="a_node2"><a xlink:href="../../d6/de7/classview_1_1_s_logo_view.html#a86b68450337856a499d7eef073749edc" target="_top" xlink:title="view.SLogoView.getHeading">
<polygon fill="white" stroke="black" points="184.5,-152.5 184.5,-171.5 333.5,-171.5 333.5,-152.5 184.5,-152.5"/>
<text text-anchor="middle" x="259" y="-159.5" font-family="Helvetica,sans-Serif" font-size="10.00">view.SLogoView.getHeading</text>
</a>
</g>
</g>
<!-- Node1&#45;&gt;Node2 -->
<g id="edge1" class="edge"><title>Node1&#45;&gt;Node2</title>
<path fill="none" stroke="midnightblue" d="M98.5112,-101.129C119.897,-113.787 152.099,-131.564 182,-143 188.401,-145.448 195.227,-147.669 202.062,-149.657"/>
<polygon fill="midnightblue" stroke="midnightblue" points="201.465,-153.122 212.035,-152.401 203.323,-146.373 201.465,-153.122"/>
</g>
<!-- Node3 -->
<g id="node3" class="node"><title>Node3</title>
<g id="a_node3"><a xlink:href="../../d6/de7/classview_1_1_s_logo_view.html#adb5891749c8e97cd4d7414e02f72a0c8" target="_top" xlink:title="view.SLogoView.getPenDown">
<polygon fill="white" stroke="black" points="182.5,-114.5 182.5,-133.5 335.5,-133.5 335.5,-114.5 182.5,-114.5"/>
<text text-anchor="middle" x="259" y="-121.5" font-family="Helvetica,sans-Serif" font-size="10.00">view.SLogoView.getPenDown</text>
</a>
</g>
</g>
<!-- Node1&#45;&gt;Node3 -->
<g id="edge2" class="edge"><title>Node1&#45;&gt;Node3</title>
<path fill="none" stroke="midnightblue" d="M146.194,-100.91C164.709,-104.733 184.349,-108.789 201.916,-112.417"/>
<polygon fill="midnightblue" stroke="midnightblue" points="201.494,-115.904 211.996,-114.499 202.91,-109.049 201.494,-115.904"/>
</g>
<!-- Node4 -->
<g id="node4" class="node"><title>Node4</title>
<g id="a_node4"><a xlink:href="../../d6/de7/classview_1_1_s_logo_view.html#a2954864e547fcf60dfa25803d8b9622c" target="_top" xlink:title="view.SLogoView.getXCor">
<polygon fill="white" stroke="black" points="193.5,-76.5 193.5,-95.5 324.5,-95.5 324.5,-76.5 193.5,-76.5"/>
<text text-anchor="middle" x="259" y="-83.5" font-family="Helvetica,sans-Serif" font-size="10.00">view.SLogoView.getXCor</text>
</a>
</g>
</g>
<!-- Node1&#45;&gt;Node4 -->
<g id="edge3" class="edge"><title>Node1&#45;&gt;Node4</title>
<path fill="none" stroke="midnightblue" d="M146.194,-86C158.385,-86 171.064,-86 183.318,-86"/>
<polygon fill="midnightblue" stroke="midnightblue" points="183.491,-89.5001 193.491,-86 183.491,-82.5001 183.491,-89.5001"/>
</g>
<!-- Node5 -->
<g id="node5" class="node"><title>Node5</title>
<g id="a_node5"><a xlink:href="../../d6/de7/classview_1_1_s_logo_view.html#a1b85ba8a4f00e9b32bb8c4c596dfe78e" target="_top" xlink:title="view.SLogoView.getYCor">
<polygon fill="white" stroke="black" points="194,-38.5 194,-57.5 324,-57.5 324,-38.5 194,-38.5"/>
<text text-anchor="middle" x="259" y="-45.5" font-family="Helvetica,sans-Serif" font-size="10.00">view.SLogoView.getYCor</text>
</a>
</g>
</g>
<!-- Node1&#45;&gt;Node5 -->
<g id="edge4" class="edge"><title>Node1&#45;&gt;Node5</title>
<path fill="none" stroke="midnightblue" d="M146.194,-71.0905C164.709,-67.2665 184.349,-63.2105 201.916,-59.5826"/>
<polygon fill="midnightblue" stroke="midnightblue" points="202.91,-62.9512 211.996,-57.5009 201.494,-56.0959 202.91,-62.9512"/>
</g>
<!-- Node6 -->
<g id="node6" class="node"><title>Node6</title>
<g id="a_node6"><a xlink:href="../../d6/de7/classview_1_1_s_logo_view.html#a821c9879a79ffe29b2e3427fbd5d97be" target="_top" xlink:title="view.SLogoView.isShowing">
<polygon fill="white" stroke="black" points="189,-0.5 189,-19.5 329,-19.5 329,-0.5 189,-0.5"/>
<text text-anchor="middle" x="259" y="-7.5" font-family="Helvetica,sans-Serif" font-size="10.00">view.SLogoView.isShowing</text>
</a>
</g>
</g>
<!-- Node1&#45;&gt;Node6 -->
<g id="edge5" class="edge"><title>Node1&#45;&gt;Node6</title>
<path fill="none" stroke="midnightblue" d="M98.5112,-70.8707C119.897,-58.2125 152.099,-40.4363 182,-29 188.401,-26.5518 195.227,-24.3312 202.062,-22.3435"/>
<polygon fill="midnightblue" stroke="midnightblue" points="203.323,-25.6268 212.035,-19.5985 201.465,-18.8778 203.323,-25.6268"/>
</g>
</g>
</svg>
