<?xml version="1.0" encoding="UTF-8" standalone="no"?>
<!DOCTYPE svg PUBLIC "-//W3C//DTD SVG 1.1//EN"
 "http://www.w3.org/Graphics/SVG/1.1/DTD/svg11.dtd">
<!-- Generated by graphviz version 2.36.0 (20140111.2315)
 -->
<!-- Title: view.SideBar Pages: 1 -->
<svg width="1638pt" height="570pt"
 viewBox="0.00 0.00 1638.00 570.00" xmlns="http://www.w3.org/2000/svg" xmlns:xlink="http://www.w3.org/1999/xlink">
<g id="graph0" class="graph" transform="scale(1 1) rotate(0) translate(4 566)">
<title>view.SideBar</title>
<polygon fill="white" stroke="none" points="-4,4 -4,-566 1634,-566 1634,4 -4,4"/>
<!-- Node1 -->
<g id="node1" class="node"><title>Node1</title>
<polygon fill="#bfbfbf" stroke="black" points="341.5,-277.5 341.5,-296.5 418.5,-296.5 418.5,-277.5 341.5,-277.5"/>
<text text-anchor="middle" x="380" y="-284.5" font-family="Helvetica,sans-Serif" font-size="10.00">view.SideBar</text>
</g>
<!-- Node14 -->
<g id="node14" class="node"><title>Node14</title>
<g id="a_node14"><a xlink:href="../../d6/de7/classview_1_1_s_logo_view.html" target="_top" xlink:title="view.SLogoView">
<polygon fill="white" stroke="black" points="1111.5,-304.5 1111.5,-323.5 1202.5,-323.5 1202.5,-304.5 1111.5,-304.5"/>
<text text-anchor="middle" x="1157" y="-311.5" font-family="Helvetica,sans-Serif" font-size="10.00">view.SLogoView</text>
</a>
</g>
</g>
<!-- Node1&#45;&gt;Node14 -->
<g id="edge36" class="edge"><title>Node1&#45;&gt;Node14</title>
<path fill="none" stroke="#9a32cd" stroke-dasharray="5,2" d="M428.792,-288.641C524.114,-291.918 744.658,-299.512 930,-306 992.975,-308.204 1065.82,-310.789 1111.4,-312.411"/>
<polygon fill="#9a32cd" stroke="#9a32cd" points="428.722,-285.137 418.608,-288.291 428.482,-292.133 428.722,-285.137"/>
<text text-anchor="middle" x="703" y="-303" font-family="Helvetica,sans-Serif" font-size="10.00"> mySidebar</text>
</g>
<!-- Node15 -->
<g id="node15" class="node"><title>Node15</title>
<g id="a_node15"><a xlink:href="../../da/d64/classview_1_1_workspace.html" target="_top" xlink:title="view.Workspace">
<polygon fill="white" stroke="black" points="560,-475.5 560,-494.5 650,-494.5 650,-475.5 560,-475.5"/>
<text text-anchor="middle" x="605" y="-482.5" font-family="Helvetica,sans-Serif" font-size="10.00">view.Workspace</text>
</a>
</g>
</g>
<!-- Node1&#45;&gt;Node15 -->
<g id="edge20" class="edge"><title>Node1&#45;&gt;Node15</title>
<path fill="none" stroke="#9a32cd" stroke-dasharray="5,2" d="M399.25,-303.204C443.863,-342.815 557.402,-443.626 593.091,-475.314"/>
<polygon fill="#9a32cd" stroke="#9a32cd" points="401.557,-300.572 391.756,-296.55 396.91,-305.807 401.557,-300.572"/>
<text text-anchor="middle" x="504" y="-430" font-family="Helvetica,sans-Serif" font-size="10.00"> mySidebar</text>
</g>
<!-- Node22 -->
<g id="node22" class="node"><title>Node22</title>
<g id="a_node22"><a xlink:href="../../da/dc8/classview_1_1_editor.html" target="_top" xlink:title="view.Editor">
<polygon fill="white" stroke="black" points="1562.5,-312.5 1562.5,-331.5 1629.5,-331.5 1629.5,-312.5 1562.5,-312.5"/>
<text text-anchor="middle" x="1596" y="-319.5" font-family="Helvetica,sans-Serif" font-size="10.00">view.Editor</text>
</a>
</g>
</g>
<!-- Node1&#45;&gt;Node22 -->
<g id="edge29" class="edge"><title>Node1&#45;&gt;Node22</title>
<path fill="none" stroke="#9a32cd" stroke-dasharray="5,2" d="M385.76,-267.751C402.934,-203.433 468.001,-0 604,-0 604,-0 604,-0 1435,-0 1578.26,-0 1593.25,-258.786 1594.82,-312.363"/>
<polygon fill="#9a32cd" stroke="#9a32cd" points="382.367,-266.894 383.256,-277.451 389.145,-268.643 382.367,-266.894"/>
<text text-anchor="middle" x="1004" y="-3" font-family="Helvetica,sans-Serif" font-size="10.00"> mySidebar</text>
</g>
<!-- Node2 -->
<g id="node2" class="node"><title>Node2</title>
<polygon fill="white" stroke="#bfbfbf" points="66.5,-308.5 66.5,-327.5 107.5,-327.5 107.5,-308.5 66.5,-308.5"/>
<text text-anchor="middle" x="87" y="-315.5" font-family="Helvetica,sans-Serif" font-size="10.00">VBox</text>
</g>
<!-- Node2&#45;&gt;Node1 -->
<g id="edge1" class="edge"><title>Node2&#45;&gt;Node1</title>
<path fill="none" stroke="midnightblue" d="M117.798,-316.003C157.913,-313.176 231.474,-307.505 294,-300 309.563,-298.132 326.659,-295.609 341.412,-293.283"/>
<polygon fill="midnightblue" stroke="midnightblue" points="117.376,-312.524 107.642,-316.708 117.86,-319.507 117.376,-312.524"/>
</g>
<!-- Node3 -->
<g id="node3" class="node"><title>Node3</title>
<polygon fill="white" stroke="#bfbfbf" points="0.5,-270.5 0.5,-289.5 173.5,-289.5 173.5,-270.5 0.5,-270.5"/>
<text text-anchor="middle" x="87" y="-277.5" font-family="Helvetica,sans-Serif" font-size="10.00">ObservableList&lt; view.Property &gt;</text>
</g>
<!-- Node3&#45;&gt;Node1 -->
<g id="edge2" class="edge"><title>Node3&#45;&gt;Node1</title>
<path fill="none" stroke="#9a32cd" stroke-dasharray="5,2" d="M183.992,-282.309C237.745,-283.602 301.734,-285.141 341.367,-286.095"/>
<polygon fill="#9a32cd" stroke="#9a32cd" points="183.817,-278.804 173.736,-282.062 183.649,-285.802 183.817,-278.804"/>
<text text-anchor="middle" x="243" y="-288" font-family="Helvetica,sans-Serif" font-size="10.00"> variablesList</text>
</g>
<!-- Node4 -->
<g id="node4" class="node"><title>Node4</title>
<polygon fill="white" stroke="#bfbfbf" points="40.5,-179.5 40.5,-198.5 133.5,-198.5 133.5,-179.5 40.5,-179.5"/>
<text text-anchor="middle" x="87" y="-186.5" font-family="Helvetica,sans-Serif" font-size="10.00">ResourceBundle</text>
</g>
<!-- Node4&#45;&gt;Node1 -->
<g id="edge3" class="edge"><title>Node4&#45;&gt;Node1</title>
<path fill="none" stroke="#9a32cd" stroke-dasharray="5,2" d="M143.838,-194.1C186.291,-199.39 245.465,-209.846 294,-230 322.88,-241.993 352.226,-264.437 367.747,-277.293"/>
<polygon fill="#9a32cd" stroke="#9a32cd" points="144.036,-190.599 133.693,-192.894 143.21,-197.55 144.036,-190.599"/>
<text text-anchor="middle" x="243" y="-233" font-family="Helvetica,sans-Serif" font-size="10.00"> myResources</text>
</g>
<!-- Node4&#45;&gt;Node14 -->
<g id="edge23" class="edge"><title>Node4&#45;&gt;Node14</title>
<path fill="none" stroke="#9a32cd" stroke-dasharray="5,2" d="M144.051,-190.693C185.514,-192.195 243.339,-194.813 294,-199 608.473,-224.989 984.01,-285.193 1111.3,-306.423"/>
<polygon fill="#9a32cd" stroke="#9a32cd" points="143.994,-187.189 133.877,-190.335 143.747,-194.184 143.994,-187.189"/>
<text text-anchor="middle" x="605" y="-240" font-family="Helvetica,sans-Serif" font-size="10.00"> myResources</text>
</g>
<!-- Node5 -->
<g id="node5" class="node"><title>Node5</title>
<polygon fill="white" stroke="#bfbfbf" points="13,-232.5 13,-251.5 161,-251.5 161,-232.5 13,-232.5"/>
<text text-anchor="middle" x="87" y="-239.5" font-family="Helvetica,sans-Serif" font-size="10.00">TableView&lt; view.Property &gt;</text>
</g>
<!-- Node5&#45;&gt;Node1 -->
<g id="edge4" class="edge"><title>Node5&#45;&gt;Node1</title>
<path fill="none" stroke="#9a32cd" stroke-dasharray="5,2" d="M171.551,-243.038C209.279,-244.795 254.216,-248.687 294,-257 316.058,-261.609 340.196,-270.525 357.094,-277.445"/>
<polygon fill="#9a32cd" stroke="#9a32cd" points="171.25,-239.522 161.111,-242.598 170.954,-246.516 171.25,-239.522"/>
<text text-anchor="middle" x="243" y="-271" font-family="Helvetica,sans-Serif" font-size="10.00"> turtlePropertiesTable</text>
<text text-anchor="middle" x="243" y="-260" font-family="Helvetica,sans-Serif" font-size="10.00">variablesTable</text>
</g>
<!-- Node6 -->
<g id="node6" class="node"><title>Node6</title>
<g id="a_node6"><a xlink:href="../../dc/df5/classmodel_1_1_parser.html" target="_top" xlink:title="model.Parser">
<polygon fill="white" stroke="black" points="1394,-181.5 1394,-200.5 1474,-200.5 1474,-181.5 1394,-181.5"/>
<text text-anchor="middle" x="1434" y="-188.5" font-family="Helvetica,sans-Serif" font-size="10.00">model.Parser</text>
</a>
</g>
</g>
<!-- Node6&#45;&gt;Node1 -->
<g id="edge5" class="edge"><title>Node6&#45;&gt;Node1</title>
<path fill="none" stroke="#9a32cd" stroke-dasharray="5,2" d="M1383.83,-185.185C1271.79,-173.042 989.158,-148.68 756,-181 620.631,-199.765 465.409,-254.914 405.948,-277.345"/>
<polygon fill="#9a32cd" stroke="#9a32cd" points="1383.5,-188.669 1393.82,-186.285 1384.27,-181.711 1383.5,-188.669"/>
<text text-anchor="middle" x="843" y="-184" font-family="Helvetica,sans-Serif" font-size="10.00"> myParser</text>
</g>
<!-- Node6&#45;&gt;Node14 -->
<g id="edge31" class="edge"><title>Node6&#45;&gt;Node14</title>
<path fill="none" stroke="#9a32cd" stroke-dasharray="5,2" d="M1421.62,-209.387C1411.5,-224.116 1395.34,-244.064 1376,-255 1327.97,-282.165 1307.14,-263.147 1254,-278 1228.11,-285.235 1199.37,-296.46 1180.14,-304.451"/>
<polygon fill="#9a32cd" stroke="#9a32cd" points="1424.82,-210.893 1427.37,-200.609 1418.97,-207.057 1424.82,-210.893"/>
<text text-anchor="middle" x="1315" y="-281" font-family="Helvetica,sans-Serif" font-size="10.00"> myParser</text>
</g>
<!-- Node6&#45;&gt;Node22 -->
<g id="edge27" class="edge"><title>Node6&#45;&gt;Node22</title>
<path fill="none" stroke="#9a32cd" stroke-dasharray="5,2" d="M1455.19,-206.743C1477.21,-223.997 1513.41,-252.609 1544,-278 1558.04,-289.651 1573.91,-303.441 1584.16,-312.437"/>
<polygon fill="#9a32cd" stroke="#9a32cd" points="1457.25,-203.91 1447.22,-200.506 1452.94,-209.423 1457.25,-203.91"/>
<text text-anchor="middle" x="1518" y="-281" font-family="Helvetica,sans-Serif" font-size="10.00"> myParser</text>
</g>
<!-- Node7 -->
<g id="node7" class="node"><title>Node7</title>
<polygon fill="white" stroke="#bfbfbf" points="813,-201.5 813,-220.5 873,-220.5 873,-201.5 813,-201.5"/>
<text text-anchor="middle" x="843" y="-208.5" font-family="Helvetica,sans-Serif" font-size="10.00">Observer</text>
</g>
<!-- Node7&#45;&gt;Node6 -->
<g id="edge6" class="edge"><title>Node7&#45;&gt;Node6</title>
<path fill="none" stroke="midnightblue" d="M883.27,-209.667C990.431,-206.028 1287,-195.958 1393.93,-192.327"/>
<polygon fill="midnightblue" stroke="midnightblue" points="883.084,-206.171 873.209,-210.008 883.322,-213.167 883.084,-206.171"/>
</g>
<!-- Node7&#45;&gt;Node14 -->
<g id="edge14" class="edge"><title>Node7&#45;&gt;Node14</title>
<path fill="none" stroke="midnightblue" d="M883.498,-215.932C936.787,-222.931 1028.65,-236.308 1060,-249 1093.96,-262.746 1128.15,-289.8 1145.08,-304.292"/>
<polygon fill="midnightblue" stroke="midnightblue" points="883.751,-212.436 873.384,-214.62 882.85,-219.378 883.751,-212.436"/>
</g>
<!-- Node8 -->
<g id="node8" class="node"><title>Node8</title>
<polygon fill="white" stroke="#bfbfbf" points="1101,-113 1101,-143 1213,-143 1213,-113 1101,-113"/>
<text text-anchor="start" x="1109" y="-131" font-family="Helvetica,sans-Serif" font-size="10.00">List&lt; Entry&lt; String,</text>
<text text-anchor="middle" x="1157" y="-120" font-family="Helvetica,sans-Serif" font-size="10.00"> Pattern &gt; &gt;</text>
</g>
<!-- Node8&#45;&gt;Node6 -->
<g id="edge7" class="edge"><title>Node8&#45;&gt;Node6</title>
<path fill="none" stroke="#9a32cd" stroke-dasharray="5,2" d="M1223.35,-124.236C1267.83,-123.918 1327.24,-127.968 1376,-147 1395.33,-154.546 1413.56,-170.807 1423.99,-181.307"/>
<polygon fill="#9a32cd" stroke="#9a32cd" points="1223.18,-120.738 1213.24,-124.385 1223.29,-127.737 1223.18,-120.738"/>
<text text-anchor="middle" x="1315" y="-150" font-family="Helvetica,sans-Serif" font-size="10.00"> myPatterns</text>
</g>
<!-- Node9 -->
<g id="node9" class="node"><title>Node9</title>
<g id="a_node9"><a xlink:href="../../d1/dca/classmodel_1_1_execution_environment.html" target="_top" xlink:title="model.ExecutionEnvironment">
<polygon fill="white" stroke="black" points="1078.5,-74.5 1078.5,-93.5 1235.5,-93.5 1235.5,-74.5 1078.5,-74.5"/>
<text text-anchor="middle" x="1157" y="-81.5" font-family="Helvetica,sans-Serif" font-size="10.00">model.ExecutionEnvironment</text>
</a>
</g>
</g>
<!-- Node9&#45;&gt;Node6 -->
<g id="edge8" class="edge"><title>Node9&#45;&gt;Node6</title>
<path fill="none" stroke="#9a32cd" stroke-dasharray="5,2" d="M1245.81,-78.4165C1287.84,-79.5916 1337.3,-86.8988 1376,-110 1404.2,-126.834 1422.05,-163.637 1429.3,-181.242"/>
<polygon fill="#9a32cd" stroke="#9a32cd" points="1245.64,-74.9132 1235.58,-78.2455 1245.52,-81.9122 1245.64,-74.9132"/>
<text text-anchor="middle" x="1315" y="-113" font-family="Helvetica,sans-Serif" font-size="10.00"> myExecutionParameters</text>
</g>
<!-- Node10 -->
<g id="node10" class="node"><title>Node10</title>
<polygon fill="white" stroke="#bfbfbf" points="807.5,-78.5 807.5,-97.5 878.5,-97.5 878.5,-78.5 807.5,-78.5"/>
<text text-anchor="middle" x="843" y="-85.5" font-family="Helvetica,sans-Serif" font-size="10.00">Observable</text>
</g>
<!-- Node10&#45;&gt;Node9 -->
<g id="edge9" class="edge"><title>Node10&#45;&gt;Node9</title>
<path fill="none" stroke="midnightblue" d="M888.637,-87.4277C938.066,-86.794 1018.66,-85.7608 1078.46,-84.9941"/>
<polygon fill="midnightblue" stroke="midnightblue" points="888.536,-83.9286 878.582,-87.5566 888.626,-90.9281 888.536,-83.9286"/>
</g>
<!-- Node11 -->
<g id="node11" class="node"><title>Node11</title>
<polygon fill="white" stroke="#bfbfbf" points="756,-29 756,-59 930,-59 930,-29 756,-29"/>
<text text-anchor="start" x="764" y="-47" font-family="Helvetica,sans-Serif" font-size="10.00">Map&lt; String, model.instructions.</text>
<text text-anchor="middle" x="843" y="-36" font-family="Helvetica,sans-Serif" font-size="10.00">Instruction &gt;</text>
</g>
<!-- Node11&#45;&gt;Node9 -->
<g id="edge10" class="edge"><title>Node11&#45;&gt;Node9</title>
<path fill="none" stroke="#9a32cd" stroke-dasharray="5,2" d="M940.581,-55.8582C977.902,-60.4966 1020.95,-65.9154 1060,-71 1068.51,-72.1075 1077.43,-73.2897 1086.28,-74.4728"/>
<polygon fill="#9a32cd" stroke="#9a32cd" points="940.569,-52.33 930.214,-54.5715 939.707,-59.2767 940.569,-52.33"/>
<text text-anchor="middle" x="1004" y="-74" font-family="Helvetica,sans-Serif" font-size="10.00"> myUserInstructionMap</text>
</g>
<!-- Node12 -->
<g id="node12" class="node"><title>Node12</title>
<polygon fill="white" stroke="#bfbfbf" points="779,-116.5 779,-135.5 907,-135.5 907,-116.5 779,-116.5"/>
<text text-anchor="middle" x="843" y="-123.5" font-family="Helvetica,sans-Serif" font-size="10.00">Map&lt; String, Double &gt;</text>
</g>
<!-- Node12&#45;&gt;Node9 -->
<g id="edge11" class="edge"><title>Node12&#45;&gt;Node9</title>
<path fill="none" stroke="#9a32cd" stroke-dasharray="5,2" d="M917.526,-117.987C959.354,-113.219 1012.68,-106.788 1060,-100 1073.46,-98.0687 1087.95,-95.7699 1101.49,-93.5257"/>
<polygon fill="#9a32cd" stroke="#9a32cd" points="916.967,-114.528 907.424,-119.132 917.755,-121.483 916.967,-114.528"/>
<text text-anchor="middle" x="1004" y="-118" font-family="Helvetica,sans-Serif" font-size="10.00"> myVariableMap</text>
</g>
<!-- Node13 -->
<g id="node13" class="node"><title>Node13</title>
<polygon fill="white" stroke="#bfbfbf" points="1096,-36.5 1096,-55.5 1218,-55.5 1218,-36.5 1096,-36.5"/>
<text text-anchor="middle" x="1157" y="-43.5" font-family="Helvetica,sans-Serif" font-size="10.00">Map&lt; String, String &gt;</text>
</g>
<!-- Node13&#45;&gt;Node6 -->
<g id="edge12" class="edge"><title>Node13&#45;&gt;Node6</title>
<path fill="none" stroke="#9a32cd" stroke-dasharray="5,2" d="M1219.28,-35.3596C1266.37,-30.6327 1330.8,-32.0244 1376,-64 1416.45,-92.6109 1428.67,-156.838 1431.93,-181.294"/>
<polygon fill="#9a32cd" stroke="#9a32cd" points="1218.76,-31.8963 1209.21,-36.4893 1219.54,-38.8527 1218.76,-31.8963"/>
<text text-anchor="middle" x="1315" y="-67" font-family="Helvetica,sans-Serif" font-size="10.00"> myCommandMap</text>
</g>
<!-- Node14&#45;&gt;Node6 -->
<g id="edge13" class="edge"><title>Node14&#45;&gt;Node6</title>
<path fill="none" stroke="#9a32cd" stroke-dasharray="5,2" d="M1175.45,-297.509C1193.62,-281.298 1223.63,-257.136 1254,-244 1304.64,-222.098 1323.9,-239.162 1376,-221 1390.78,-215.847 1406.44,-207.358 1417.6,-200.723"/>
<polygon fill="#9a32cd" stroke="#9a32cd" points="1173,-295.003 1167.97,-304.329 1177.72,-300.174 1173,-295.003"/>
<text text-anchor="middle" x="1315" y="-247" font-family="Helvetica,sans-Serif" font-size="10.00"> mySLogoView</text>
</g>
<!-- Node15&#45;&gt;Node14 -->
<g id="edge15" class="edge"><title>Node15&#45;&gt;Node14</title>
<path fill="none" stroke="#9a32cd" stroke-dasharray="5,2" d="M660.417,-486.787C765.793,-489.325 993.212,-490.043 1060,-452 1112.75,-421.954 1143.16,-349.631 1152.7,-323.566"/>
<polygon fill="#9a32cd" stroke="#9a32cd" points="660.392,-483.285 650.306,-486.528 660.214,-490.283 660.392,-483.285"/>
<text text-anchor="middle" x="843" y="-491" font-family="Helvetica,sans-Serif" font-size="10.00"> myWorkspace</text>
</g>
<!-- Node28 -->
<g id="node28" class="node"><title>Node28</title>
<g id="a_node28"><a xlink:href="../../de/d0a/classview_1_1_drawer.html" target="_top" xlink:title="view.Drawer">
<polygon fill="white" stroke="black" points="806.5,-514.5 806.5,-533.5 879.5,-533.5 879.5,-514.5 806.5,-514.5"/>
<text text-anchor="middle" x="843" y="-521.5" font-family="Helvetica,sans-Serif" font-size="10.00">view.Drawer</text>
</a>
</g>
</g>
<!-- Node15&#45;&gt;Node28 -->
<g id="edge34" class="edge"><title>Node15&#45;&gt;Node28</title>
<path fill="none" stroke="#9a32cd" stroke-dasharray="5,2" d="M659.937,-494.623C662.663,-495.092 665.363,-495.554 668,-496 715.817,-504.089 771.123,-512.895 806.315,-518.429"/>
<polygon fill="#9a32cd" stroke="#9a32cd" points="660.467,-491.163 650.016,-492.899 659.269,-498.059 660.467,-491.163"/>
<text text-anchor="middle" x="703" y="-511" font-family="Helvetica,sans-Serif" font-size="10.00"> myWorkspace</text>
</g>
<!-- Node16 -->
<g id="node16" class="node"><title>Node16</title>
<polygon fill="white" stroke="#bfbfbf" points="346.5,-413.5 346.5,-432.5 413.5,-432.5 413.5,-413.5 346.5,-413.5"/>
<text text-anchor="middle" x="380" y="-420.5" font-family="Helvetica,sans-Serif" font-size="10.00">StackPane</text>
</g>
<!-- Node16&#45;&gt;Node15 -->
<g id="edge16" class="edge"><title>Node16&#45;&gt;Node15</title>
<path fill="none" stroke="midnightblue" d="M423.605,-433.412C456.164,-441.539 502.086,-453.366 542,-465 553.075,-468.228 565.168,-472.059 575.708,-475.5"/>
<polygon fill="midnightblue" stroke="midnightblue" points="424.077,-429.923 413.528,-430.909 422.389,-436.716 424.077,-429.923"/>
</g>
<!-- Node17 -->
<g id="node17" class="node"><title>Node17</title>
<g id="a_node17"><a xlink:href="../../d8/df7/classview_1_1_turtle_view.html" target="_top" xlink:title="view.TurtleView">
<polygon fill="white" stroke="black" points="337,-451.5 337,-470.5 423,-470.5 423,-451.5 337,-451.5"/>
<text text-anchor="middle" x="380" y="-458.5" font-family="Helvetica,sans-Serif" font-size="10.00">view.TurtleView</text>
</a>
</g>
</g>
<!-- Node17&#45;&gt;Node15 -->
<g id="edge17" class="edge"><title>Node17&#45;&gt;Node15</title>
<path fill="none" stroke="#9a32cd" stroke-dasharray="5,2" d="M433.406,-465.199C464.921,-467.894 505.811,-471.69 542,-476 547.724,-476.682 553.736,-477.467 559.67,-478.283"/>
<polygon fill="#9a32cd" stroke="#9a32cd" points="433.356,-461.682 423.097,-464.328 432.767,-468.658 433.356,-461.682"/>
<text text-anchor="middle" x="504" y="-479" font-family="Helvetica,sans-Serif" font-size="10.00"> myActiveTurtle</text>
</g>
<!-- Node18 -->
<g id="node18" class="node"><title>Node18</title>
<polygon fill="white" stroke="#bfbfbf" points="53,-451.5 53,-470.5 121,-470.5 121,-451.5 53,-451.5"/>
<text text-anchor="middle" x="87" y="-458.5" font-family="Helvetica,sans-Serif" font-size="10.00">ImageView</text>
</g>
<!-- Node18&#45;&gt;Node17 -->
<g id="edge18" class="edge"><title>Node18&#45;&gt;Node17</title>
<path fill="none" stroke="midnightblue" d="M131.27,-461C186.553,-461 281.638,-461 336.533,-461"/>
<polygon fill="midnightblue" stroke="midnightblue" points="131.098,-457.5 121.098,-461 131.098,-464.5 131.098,-457.5"/>
</g>
<!-- Node19 -->
<g id="node19" class="node"><title>Node19</title>
<polygon fill="white" stroke="#bfbfbf" points="312,-490 312,-520 448,-520 448,-490 312,-490"/>
<text text-anchor="start" x="320" y="-508" font-family="Helvetica,sans-Serif" font-size="10.00">Map&lt; Integer, view.Turtle</text>
<text text-anchor="middle" x="380" y="-497" font-family="Helvetica,sans-Serif" font-size="10.00">View &gt;</text>
</g>
<!-- Node19&#45;&gt;Node15 -->
<g id="edge19" class="edge"><title>Node19&#45;&gt;Node15</title>
<path fill="none" stroke="#9a32cd" stroke-dasharray="5,2" d="M458.561,-498.044C492.444,-495.005 530.949,-491.552 559.825,-488.962"/>
<polygon fill="#9a32cd" stroke="#9a32cd" points="457.857,-494.593 448.21,-498.972 458.482,-501.565 457.857,-494.593"/>
<text text-anchor="middle" x="504" y="-500" font-family="Helvetica,sans-Serif" font-size="10.00"> myTurtles</text>
</g>
<!-- Node20 -->
<g id="node20" class="node"><title>Node20</title>
<polygon fill="white" stroke="#bfbfbf" points="348.5,-539.5 348.5,-558.5 411.5,-558.5 411.5,-539.5 348.5,-539.5"/>
<text text-anchor="middle" x="380" y="-546.5" font-family="Helvetica,sans-Serif" font-size="10.00">Rectangle</text>
</g>
<!-- Node20&#45;&gt;Node15 -->
<g id="edge21" class="edge"><title>Node20&#45;&gt;Node15</title>
<path fill="none" stroke="#9a32cd" stroke-dasharray="5,2" d="M421.875,-541.775C454.763,-535.447 501.936,-525.201 542,-512 556.607,-507.187 572.5,-500.23 584.538,-494.583"/>
<polygon fill="#9a32cd" stroke="#9a32cd" points="420.904,-538.397 411.726,-543.691 422.202,-545.275 420.904,-538.397"/>
<text text-anchor="middle" x="504" y="-536" font-family="Helvetica,sans-Serif" font-size="10.00"> myBackground</text>
</g>
<!-- Node21 -->
<g id="node21" class="node"><title>Node21</title>
<polygon fill="white" stroke="#bfbfbf" points="820.5,-429.5 820.5,-448.5 865.5,-448.5 865.5,-429.5 820.5,-429.5"/>
<text text-anchor="middle" x="843" y="-436.5" font-family="Helvetica,sans-Serif" font-size="10.00">Stage</text>
</g>
<!-- Node21&#45;&gt;Node14 -->
<g id="edge22" class="edge"><title>Node21&#45;&gt;Node14</title>
<path fill="none" stroke="#9a32cd" stroke-dasharray="5,2" d="M875.559,-440.444C919.295,-441.159 999.749,-437.754 1060,-408 1100.99,-387.756 1135.49,-343.41 1149.41,-323.734"/>
<polygon fill="#9a32cd" stroke="#9a32cd" points="875.605,-436.944 865.522,-440.195 875.432,-443.942 875.605,-436.944"/>
<text text-anchor="middle" x="1004" y="-440" font-family="Helvetica,sans-Serif" font-size="10.00"> myStage</text>
</g>
<!-- Node22&#45;&gt;Node14 -->
<g id="edge24" class="edge"><title>Node22&#45;&gt;Node14</title>
<path fill="none" stroke="#9a32cd" stroke-dasharray="5,2" d="M1552.26,-317.603C1529.12,-315.441 1500.03,-313.074 1474,-312 1377.25,-308.009 1263.7,-310.472 1202.51,-312.386"/>
<polygon fill="#9a32cd" stroke="#9a32cd" points="1552.15,-321.108 1562.43,-318.576 1552.81,-314.14 1552.15,-321.108"/>
<text text-anchor="middle" x="1434" y="-315" font-family="Helvetica,sans-Serif" font-size="10.00"> myEditor</text>
</g>
<!-- Node23 -->
<g id="node23" class="node"><title>Node23</title>
<polygon fill="white" stroke="#bfbfbf" points="1413,-408.5 1413,-427.5 1455,-427.5 1455,-408.5 1413,-408.5"/>
<text text-anchor="middle" x="1434" y="-415.5" font-family="Helvetica,sans-Serif" font-size="10.00">HBox</text>
</g>
<!-- Node23&#45;&gt;Node22 -->
<g id="edge25" class="edge"><title>Node23&#45;&gt;Node22</title>
<path fill="none" stroke="midnightblue" d="M1465.27,-412.649C1488.32,-407.523 1520.06,-398.121 1544,-382 1564.18,-368.408 1580.96,-344.71 1589.3,-331.53"/>
<polygon fill="midnightblue" stroke="midnightblue" points="1464.43,-409.25 1455.35,-414.713 1465.86,-416.103 1464.43,-409.25"/>
</g>
<!-- Node24 -->
<g id="node24" class="node"><title>Node24</title>
<polygon fill="white" stroke="#bfbfbf" points="1409.5,-370.5 1409.5,-389.5 1458.5,-389.5 1458.5,-370.5 1409.5,-370.5"/>
<text text-anchor="middle" x="1434" y="-377.5" font-family="Helvetica,sans-Serif" font-size="10.00">Button</text>
</g>
<!-- Node24&#45;&gt;Node22 -->
<g id="edge26" class="edge"><title>Node24&#45;&gt;Node22</title>
<path fill="none" stroke="#9a32cd" stroke-dasharray="5,2" d="M1468.74,-372.867C1490.62,-367.72 1519.51,-359.935 1544,-350 1556.54,-344.913 1569.93,-337.479 1579.84,-331.55"/>
<polygon fill="#9a32cd" stroke="#9a32cd" points="1467.88,-369.471 1458.91,-375.112 1469.44,-376.296 1467.88,-369.471"/>
<text text-anchor="middle" x="1518" y="-370" font-family="Helvetica,sans-Serif" font-size="10.00"> runButton</text>
</g>
<!-- Node25 -->
<g id="node25" class="node"><title>Node25</title>
<polygon fill="white" stroke="#bfbfbf" points="1405,-332.5 1405,-351.5 1463,-351.5 1463,-332.5 1405,-332.5"/>
<text text-anchor="middle" x="1434" y="-339.5" font-family="Helvetica,sans-Serif" font-size="10.00">TextArea</text>
</g>
<!-- Node25&#45;&gt;Node22 -->
<g id="edge28" class="edge"><title>Node25&#45;&gt;Node22</title>
<path fill="none" stroke="#9a32cd" stroke-dasharray="5,2" d="M1473.18,-337.228C1500.36,-333.83 1536.51,-329.311 1562.36,-326.08"/>
<polygon fill="#9a32cd" stroke="#9a32cd" points="1472.73,-333.757 1463.24,-338.47 1473.59,-340.703 1472.73,-333.757"/>
<text text-anchor="middle" x="1518" y="-338" font-family="Helvetica,sans-Serif" font-size="10.00"> textEditor</text>
</g>
<!-- Node26 -->
<g id="node26" class="node"><title>Node26</title>
<polygon fill="white" stroke="#bfbfbf" points="783.5,-391.5 783.5,-410.5 902.5,-410.5 902.5,-391.5 783.5,-391.5"/>
<text text-anchor="middle" x="843" y="-398.5" font-family="Helvetica,sans-Serif" font-size="10.00">Map&lt; String, Node &gt;</text>
</g>
<!-- Node26&#45;&gt;Node14 -->
<g id="edge30" class="edge"><title>Node26&#45;&gt;Node14</title>
<path fill="none" stroke="#9a32cd" stroke-dasharray="5,2" d="M912.788,-396.841C955.991,-392.691 1012.36,-384.426 1060,-368 1091.64,-357.093 1124.88,-335.864 1142.75,-323.521"/>
<polygon fill="#9a32cd" stroke="#9a32cd" points="912.304,-393.37 902.663,-397.762 912.938,-400.342 912.304,-393.37"/>
<text text-anchor="middle" x="1004" y="-396" font-family="Helvetica,sans-Serif" font-size="10.00"> variables</text>
</g>
<!-- Node27 -->
<g id="node27" class="node"><title>Node27</title>
<polygon fill="white" stroke="#bfbfbf" points="802.5,-353.5 802.5,-372.5 883.5,-372.5 883.5,-353.5 802.5,-353.5"/>
<text text-anchor="middle" x="843" y="-360.5" font-family="Helvetica,sans-Serif" font-size="10.00">Dimension2D</text>
</g>
<!-- Node27&#45;&gt;Node14 -->
<g id="edge32" class="edge"><title>Node27&#45;&gt;Node14</title>
<path fill="none" stroke="#9a32cd" stroke-dasharray="5,2" d="M893.75,-358.656C937.686,-354.429 1003.38,-347.155 1060,-337 1080.24,-333.369 1102.6,-328.089 1120.65,-323.503"/>
<polygon fill="#9a32cd" stroke="#9a32cd" points="893.245,-355.188 883.618,-359.614 893.903,-362.157 893.245,-355.188"/>
<text text-anchor="middle" x="1004" y="-356" font-family="Helvetica,sans-Serif" font-size="10.00"> myDimensions</text>
</g>
<!-- Node28&#45;&gt;Node14 -->
<g id="edge33" class="edge"><title>Node28&#45;&gt;Node14</title>
<path fill="none" stroke="#9a32cd" stroke-dasharray="5,2" d="M889.82,-530.423C936.741,-534.504 1009.73,-533.666 1060,-499 1123.75,-455.042 1148,-355.3 1154.24,-323.755"/>
<polygon fill="#9a32cd" stroke="#9a32cd" points="889.937,-526.918 879.643,-529.425 889.254,-533.885 889.937,-526.918"/>
<text text-anchor="middle" x="1004" y="-535" font-family="Helvetica,sans-Serif" font-size="10.00"> drawer</text>
</g>
<!-- Node29 -->
<g id="node29" class="node"><title>Node29</title>
<polygon fill="white" stroke="#bfbfbf" points="584.5,-542.5 584.5,-561.5 625.5,-561.5 625.5,-542.5 584.5,-542.5"/>
<text text-anchor="middle" x="605" y="-549.5" font-family="Helvetica,sans-Serif" font-size="10.00">Color</text>
</g>
<!-- Node29&#45;&gt;Node28 -->
<g id="edge35" class="edge"><title>Node29&#45;&gt;Node28</title>
<path fill="none" stroke="#9a32cd" stroke-dasharray="5,2" d="M635.919,-548.45C679.357,-543.297 759.759,-533.757 806.256,-528.241"/>
<polygon fill="#9a32cd" stroke="#9a32cd" points="635.233,-545.007 625.715,-549.661 636.058,-551.958 635.233,-545.007"/>
<text text-anchor="middle" x="703" y="-548" font-family="Helvetica,sans-Serif" font-size="10.00"> myColor</text>
</g>
<!-- Node30 -->
<g id="node30" class="node"><title>Node30</title>
<polygon fill="white" stroke="#bfbfbf" points="820,-315.5 820,-334.5 866,-334.5 866,-315.5 820,-315.5"/>
<text text-anchor="middle" x="843" y="-322.5" font-family="Helvetica,sans-Serif" font-size="10.00">Group</text>
</g>
<!-- Node30&#45;&gt;Node14 -->
<g id="edge37" class="edge"><title>Node30&#45;&gt;Node14</title>
<path fill="none" stroke="#9a32cd" stroke-dasharray="5,2" d="M876.521,-323.853C932.621,-321.876 1047.67,-317.819 1111.27,-315.577"/>
<polygon fill="#9a32cd" stroke="#9a32cd" points="876.309,-320.359 866.438,-324.209 876.555,-327.354 876.309,-320.359"/>
<text text-anchor="middle" x="1004" y="-325" font-family="Helvetica,sans-Serif" font-size="10.00"> lines</text>
</g>
<!-- Node31 -->
<g id="node31" class="node"><title>Node31</title>
<polygon fill="white" stroke="#bfbfbf" points="18,-384.5 18,-403.5 156,-403.5 156,-384.5 18,-384.5"/>
<text text-anchor="middle" x="87" y="-391.5" font-family="Helvetica,sans-Serif" font-size="10.00">ObservableList&lt; String &gt;</text>
</g>
<!-- Node31&#45;&gt;Node1 -->
<g id="edge38" class="edge"><title>Node31&#45;&gt;Node1</title>
<path fill="none" stroke="#9a32cd" stroke-dasharray="5,2" d="M166.18,-389.382C205.917,-384.732 254.107,-375.456 294,-357 325.924,-342.23 355.868,-312.53 370.187,-296.992"/>
<polygon fill="#9a32cd" stroke="#9a32cd" points="165.567,-385.928 156.006,-390.494 166.328,-392.887 165.567,-385.928"/>
<text text-anchor="middle" x="243" y="-400" font-family="Helvetica,sans-Serif" font-size="10.00"> commandItems</text>
<text text-anchor="middle" x="243" y="-389" font-family="Helvetica,sans-Serif" font-size="10.00">historyItems</text>
</g>
<!-- Node32 -->
<g id="node32" class="node"><title>Node32</title>
<polygon fill="white" stroke="#bfbfbf" points="34,-346.5 34,-365.5 140,-365.5 140,-346.5 34,-346.5"/>
<text text-anchor="middle" x="87" y="-353.5" font-family="Helvetica,sans-Serif" font-size="10.00">ListView&lt; String &gt;</text>
</g>
<!-- Node32&#45;&gt;Node1 -->
<g id="edge39" class="edge"><title>Node32&#45;&gt;Node1</title>
<path fill="none" stroke="#9a32cd" stroke-dasharray="5,2" d="M150.182,-348.394C191.429,-342.554 246.504,-333.23 294,-320 316.264,-313.798 340.78,-303.937 357.738,-296.607"/>
<polygon fill="#9a32cd" stroke="#9a32cd" points="149.698,-344.927 140.273,-349.767 150.659,-351.861 149.698,-344.927"/>
<text text-anchor="middle" x="243" y="-345" font-family="Helvetica,sans-Serif" font-size="10.00"> historyList</text>
</g>
</g>
</svg>
