<?xml version="1.0" encoding="UTF-8" standalone="no"?>
<!DOCTYPE svg PUBLIC "-//W3C//DTD SVG 1.1//EN"
 "http://www.w3.org/Graphics/SVG/1.1/DTD/svg11.dtd">
<!-- Generated by graphviz version 2.36.0 (20140111.2315)
 -->
<!-- Title: view.SideBar Pages: 1 -->
<!--zoomable 779 -->
<svg id="main" version="1.1" xmlns="http://www.w3.org/2000/svg" xmlns:xlink="http://www.w3.org/1999/xlink" xml:space="preserve" onload="init(evt)">
<style type="text/css"><![CDATA[
.edge:hover path { stroke: red; }
.edge:hover polygon { stroke: red; fill: red; }
]]></style>
<script type="text/javascript"><![CDATA[
var edges = document.getElementsByTagName('g');
if (edges && edges.length) {
  for (var i=0;i<edges.length;i++) {
    if (edges[i].id.substr(0,4)=='edge') {
      edges[i].setAttribute('class','edge');
    }
  }
}
]]></script>
        <defs>
                <circle id="rim" cx="0" cy="0" r="7"/>
                <circle id="rim2" cx="0" cy="0" r="3.5"/>
                <g id="zoomPlus">
                        <use xlink:href="#rim" fill="#404040">
                                <set attributeName="fill" to="#808080" begin="zoomplus.mouseover" end="zoomplus.mouseout"/>
                        </use>
                        <path d="M-4,0h8M0,-4v8" fill="none" stroke="white" stroke-width="1.5" pointer-events="none"/>
                </g>
                <g id="zoomMin">
                        <use xlink:href="#rim" fill="#404040">
                                <set attributeName="fill" to="#808080" begin="zoomminus.mouseover" end="zoomminus.mouseout"/>
                        </use>
                        <path d="M-4,0h8" fill="none" stroke="white" stroke-width="1.5" pointer-events="none"/>
                </g>
                <g id="dirArrow">
                        <path fill="none" stroke="white" stroke-width="1.5" d="M0,-3.0v7 M-2.5,-0.5L0,-3.0L2.5,-0.5"/>
                </g>
               <g id="resetDef">
                       <use xlink:href="#rim2" fill="#404040">
                               <set attributeName="fill" to="#808080" begin="reset.mouseover" end="reset.mouseout"/>
                       </use>
               </g>
        </defs>

<script type="text/javascript">
var viewWidth = 1618;
var viewHeight = 779;
var sectionId = 'dynsection-1';
</script>
<script xlink:href="../../svgpan.js"/>
<svg id="graph" class="graph">
<g id="viewport">
<title>view.SideBar</title>
<polygon fill="white" stroke="none" points="-4,4 -4,-775 1614,-775 1614,4 -4,4"/>
<!-- Node1 -->
<g id="node1" class="node"><title>Node1</title>
<polygon fill="#bfbfbf" stroke="black" points="302.5,-325.5 302.5,-344.5 379.5,-344.5 379.5,-325.5 302.5,-325.5"/>
<text text-anchor="middle" x="341" y="-332.5" font-family="Helvetica,sans-Serif" font-size="10.00">view.SideBar</text>
</g>
<!-- Node12 -->
<g id="node12" class="node"><title>Node12</title>
<g id="a_node12"><a xlink:href="../../d6/de7/classview_1_1_s_logo_view.html" target="_top" xlink:title="view.SLogoView">
<polygon fill="white" stroke="black" points="851.5,-284.5 851.5,-303.5 942.5,-303.5 942.5,-284.5 851.5,-284.5"/>
<text text-anchor="middle" x="897" y="-291.5" font-family="Helvetica,sans-Serif" font-size="10.00">view.SLogoView</text>
</a>
</g>
</g>
<!-- Node1&#45;&gt;Node12 -->
<g id="edge35" class="edge"><title>Node1&#45;&gt;Node12</title>
<path fill="none" stroke="#9a32cd" stroke-dasharray="5,2" d="M365.599,-319.937C394.85,-302.243 446.865,-273.919 496,-263 628.418,-233.574 790.856,-266.86 861.004,-284.472"/>
<polygon fill="#9a32cd" stroke="#9a32cd" points="363.614,-317.049 356.934,-325.273 367.285,-323.01 363.614,-317.049"/>
<text text-anchor="middle" x="583" y="-266" font-family="Helvetica,sans-Serif" font-size="10.00"> mySidebar</text>
</g>
<!-- Node13 -->
<g id="node13" class="node"><title>Node13</title>
<g id="a_node13"><a xlink:href="../../da/d64/classview_1_1_workspace.html" target="_top" xlink:title="view.Workspace">
<polygon fill="white" stroke="black" points="538,-160.5 538,-179.5 628,-179.5 628,-160.5 538,-160.5"/>
<text text-anchor="middle" x="583" y="-167.5" font-family="Helvetica,sans-Serif" font-size="10.00">view.Workspace</text>
</a>
</g>
</g>
<!-- Node1&#45;&gt;Node13 -->
<g id="edge18" class="edge"><title>Node1&#45;&gt;Node13</title>
<path fill="none" stroke="#9a32cd" stroke-dasharray="5,2" d="M349.649,-315.909C358.973,-295.02 376.68,-261.985 402,-243 430.235,-221.829 445.11,-232.795 478,-220 509.18,-207.87 543.937,-190.288 564.336,-179.53"/>
<polygon fill="#9a32cd" stroke="#9a32cd" points="346.335,-314.758 345.645,-325.33 352.778,-317.496 346.335,-314.758"/>
<text text-anchor="middle" x="440" y="-246" font-family="Helvetica,sans-Serif" font-size="10.00"> mySidebar</text>
</g>
<!-- Node21 -->
<g id="node21" class="node"><title>Node21</title>
<g id="a_node21"><a xlink:href="../../da/dc8/classview_1_1_editor.html" target="_top" xlink:title="view.Editor">
<polygon fill="white" stroke="black" points="1542.5,-656.5 1542.5,-675.5 1609.5,-675.5 1609.5,-656.5 1542.5,-656.5"/>
<text text-anchor="middle" x="1576" y="-663.5" font-family="Helvetica,sans-Serif" font-size="10.00">view.Editor</text>
</a>
</g>
</g>
<!-- Node1&#45;&gt;Node21 -->
<g id="edge27" class="edge"><title>Node1&#45;&gt;Node21</title>
<path fill="none" stroke="#9a32cd" stroke-dasharray="5,2" d="M343.196,-354.922C346.486,-394.901 358.569,-486.268 402,-547 455.234,-621.441 490.483,-647 582,-647 582,-647 582,-647 1371,-647 1431.65,-647 1502,-655.428 1542.23,-661.058"/>
<polygon fill="#9a32cd" stroke="#9a32cd" points="346.682,-354.592 342.47,-344.87 339.7,-355.096 346.682,-354.592"/>
<text text-anchor="middle" x="1055" y="-650" font-family="Helvetica,sans-Serif" font-size="10.00"> mySidebar</text>
</g>
<!-- Node2 -->
<g id="node2" class="node"><title>Node2</title>
<polygon fill="white" stroke="#bfbfbf" points="59.5,-306.5 59.5,-325.5 100.5,-325.5 100.5,-306.5 59.5,-306.5"/>
<text text-anchor="middle" x="80" y="-313.5" font-family="Helvetica,sans-Serif" font-size="10.00">VBox</text>
</g>
<!-- Node2&#45;&gt;Node1 -->
<g id="edge1" class="edge"><title>Node2&#45;&gt;Node1</title>
<path fill="none" stroke="midnightblue" d="M111.134,-318.211C158.603,-321.693 250.701,-328.449 302.421,-332.243"/>
<polygon fill="midnightblue" stroke="midnightblue" points="111.123,-314.7 100.893,-317.459 110.61,-321.682 111.123,-314.7"/>
</g>
<!-- Node3 -->
<g id="node3" class="node"><title>Node3</title>
<g id="a_node3"><a xlink:href="../../d4/dd9/classcontroller_1_1_s_logo_controller.html" target="_top" xlink:title="controller.SLogoController">
<polygon fill="white" stroke="black" points="1300,-558.5 1300,-577.5 1440,-577.5 1440,-558.5 1300,-558.5"/>
<text text-anchor="middle" x="1370" y="-565.5" font-family="Helvetica,sans-Serif" font-size="10.00">controller.SLogoController</text>
</a>
</g>
</g>
<!-- Node3&#45;&gt;Node1 -->
<g id="edge2" class="edge"><title>Node3&#45;&gt;Node1</title>
<path fill="none" stroke="#9a32cd" stroke-dasharray="5,2" d="M1289.65,-574.6C1087.44,-590.773 563.974,-628.357 496,-590 396.233,-533.703 353.821,-383.925 344.201,-344.578"/>
<polygon fill="#9a32cd" stroke="#9a32cd" points="1290.21,-578.066 1299.9,-573.776 1289.65,-571.089 1290.21,-578.066"/>
<text text-anchor="middle" x="897" y="-606" font-family="Helvetica,sans-Serif" font-size="10.00"> myController</text>
</g>
<!-- Node3&#45;&gt;Node12 -->
<g id="edge29" class="edge"><title>Node3&#45;&gt;Node12</title>
<path fill="none" stroke="#9a32cd" stroke-dasharray="5,2" d="M1353.41,-550.826C1316.23,-510.894 1217.86,-411.099 1116,-357 1059.98,-327.249 988.201,-310.001 942.639,-301.297"/>
<polygon fill="#9a32cd" stroke="#9a32cd" points="1351.04,-553.42 1360.39,-558.4 1356.19,-548.675 1351.04,-553.42"/>
<text text-anchor="middle" x="1174" y="-424" font-family="Helvetica,sans-Serif" font-size="10.00"> myController</text>
</g>
<!-- Node3&#45;&gt;Node21 -->
<g id="edge25" class="edge"><title>Node3&#45;&gt;Node21</title>
<path fill="none" stroke="#9a32cd" stroke-dasharray="5,2" d="M1420.19,-580.291C1451.23,-589.249 1491.46,-603.127 1524,-622 1540.39,-631.504 1556.46,-646.6 1566.05,-656.404"/>
<polygon fill="#9a32cd" stroke="#9a32cd" points="1421.04,-576.892 1410.46,-577.556 1419.14,-583.631 1421.04,-576.892"/>
<text text-anchor="middle" x="1491" y="-625" font-family="Helvetica,sans-Serif" font-size="10.00"> myController</text>
</g>
<!-- Node4 -->
<g id="node4" class="node"><title>Node4</title>
<g id="a_node4"><a xlink:href="../../dc/df5/classmodel_1_1_parser.html" target="_top" xlink:title="model.Parser">
<polygon fill="white" stroke="black" points="1134,-464.5 1134,-483.5 1214,-483.5 1214,-464.5 1134,-464.5"/>
<text text-anchor="middle" x="1174" y="-471.5" font-family="Helvetica,sans-Serif" font-size="10.00">model.Parser</text>
</a>
</g>
</g>
<!-- Node4&#45;&gt;Node3 -->
<g id="edge3" class="edge"><title>Node4&#45;&gt;Node3</title>
<path fill="none" stroke="#9a32cd" stroke-dasharray="5,2" d="M1203.88,-487.992C1243.82,-507.346 1314.89,-541.782 1349.28,-558.444"/>
<polygon fill="#9a32cd" stroke="#9a32cd" points="1205.19,-484.741 1194.67,-483.531 1202.14,-491.041 1205.19,-484.741"/>
<text text-anchor="middle" x="1257" y="-526" font-family="Helvetica,sans-Serif" font-size="10.00"> myParser</text>
</g>
<!-- Node5 -->
<g id="node5" class="node"><title>Node5</title>
<polygon fill="white" stroke="#bfbfbf" points="553,-435.5 553,-454.5 613,-454.5 613,-435.5 553,-435.5"/>
<text text-anchor="middle" x="583" y="-442.5" font-family="Helvetica,sans-Serif" font-size="10.00">Observer</text>
</g>
<!-- Node5&#45;&gt;Node4 -->
<g id="edge4" class="edge"><title>Node5&#45;&gt;Node4</title>
<path fill="none" stroke="midnightblue" d="M623.27,-446.933C730.431,-452.21 1027,-466.812 1133.93,-472.076"/>
<polygon fill="midnightblue" stroke="midnightblue" points="623.369,-443.434 613.209,-446.438 623.024,-450.426 623.369,-443.434"/>
</g>
<!-- Node5&#45;&gt;Node12 -->
<g id="edge12" class="edge"><title>Node5&#45;&gt;Node12</title>
<path fill="none" stroke="midnightblue" d="M623.553,-443.941C677.791,-441.812 771.749,-435.495 800,-417 813.009,-408.483 808.976,-399.663 818,-387 840.869,-354.909 871.948,-320.078 887.039,-303.633"/>
<polygon fill="midnightblue" stroke="midnightblue" points="623.134,-440.454 613.267,-444.313 623.387,-447.449 623.134,-440.454"/>
</g>
<!-- Node6 -->
<g id="node6" class="node"><title>Node6</title>
<polygon fill="white" stroke="#bfbfbf" points="841,-397 841,-427 953,-427 953,-397 841,-397"/>
<text text-anchor="start" x="849" y="-415" font-family="Helvetica,sans-Serif" font-size="10.00">List&lt; Entry&lt; String,</text>
<text text-anchor="middle" x="897" y="-404" font-family="Helvetica,sans-Serif" font-size="10.00"> Pattern &gt; &gt;</text>
</g>
<!-- Node6&#45;&gt;Node4 -->
<g id="edge5" class="edge"><title>Node6&#45;&gt;Node4</title>
<path fill="none" stroke="#9a32cd" stroke-dasharray="5,2" d="M963.281,-408.409C1007.73,-408.168 1067.14,-412.238 1116,-431 1134.98,-438.287 1153.03,-453.885 1163.56,-464.155"/>
<polygon fill="#9a32cd" stroke="#9a32cd" points="963.131,-404.911 953.177,-408.539 963.222,-411.91 963.131,-404.911"/>
<text text-anchor="middle" x="1055" y="-434" font-family="Helvetica,sans-Serif" font-size="10.00"> myPatterns</text>
</g>
<!-- Node7 -->
<g id="node7" class="node"><title>Node7</title>
<g id="a_node7"><a xlink:href="../../d1/dca/classmodel_1_1_execution_environment.html" target="_top" xlink:title="model.ExecutionEnvironment">
<polygon fill="white" stroke="black" points="818.5,-484.5 818.5,-503.5 975.5,-503.5 975.5,-484.5 818.5,-484.5"/>
<text text-anchor="middle" x="897" y="-491.5" font-family="Helvetica,sans-Serif" font-size="10.00">model.ExecutionEnvironment</text>
</a>
</g>
</g>
<!-- Node7&#45;&gt;Node4 -->
<g id="edge6" class="edge"><title>Node7&#45;&gt;Node4</title>
<path fill="none" stroke="#9a32cd" stroke-dasharray="5,2" d="M985.846,-487.611C1035.67,-483.987 1095.55,-479.633 1133.93,-476.842"/>
<polygon fill="#9a32cd" stroke="#9a32cd" points="985.421,-484.133 975.701,-488.349 985.929,-491.114 985.421,-484.133"/>
<text text-anchor="middle" x="1055" y="-490" font-family="Helvetica,sans-Serif" font-size="10.00"> myExecutionParameters</text>
</g>
<!-- Node8 -->
<g id="node8" class="node"><title>Node8</title>
<polygon fill="white" stroke="#bfbfbf" points="547.5,-561.5 547.5,-580.5 618.5,-580.5 618.5,-561.5 547.5,-561.5"/>
<text text-anchor="middle" x="583" y="-568.5" font-family="Helvetica,sans-Serif" font-size="10.00">Observable</text>
</g>
<!-- Node8&#45;&gt;Node7 -->
<g id="edge7" class="edge"><title>Node8&#45;&gt;Node7</title>
<path fill="none" stroke="midnightblue" d="M628.742,-570.371C674.269,-568.033 745.671,-559.579 800,-531 810.013,-525.733 808.138,-518.544 818,-513 824.925,-509.107 832.633,-506.005 840.432,-503.536"/>
<polygon fill="midnightblue" stroke="midnightblue" points="628.432,-566.881 618.594,-570.813 628.737,-573.874 628.432,-566.881"/>
</g>
<!-- Node9 -->
<g id="node9" class="node"><title>Node9</title>
<polygon fill="white" stroke="#bfbfbf" points="496,-512 496,-542 670,-542 670,-512 496,-512"/>
<text text-anchor="start" x="504" y="-530" font-family="Helvetica,sans-Serif" font-size="10.00">Map&lt; String, model.instructions.</text>
<text text-anchor="middle" x="583" y="-519" font-family="Helvetica,sans-Serif" font-size="10.00">Instruction &gt;</text>
</g>
<!-- Node9&#45;&gt;Node7 -->
<g id="edge8" class="edge"><title>Node9&#45;&gt;Node7</title>
<path fill="none" stroke="#9a32cd" stroke-dasharray="5,2" d="M680.581,-517.425C717.902,-513.656 760.95,-509.226 800,-505 806.004,-504.35 812.218,-503.666 818.464,-502.969"/>
<polygon fill="#9a32cd" stroke="#9a32cd" points="679.813,-513.985 670.214,-518.47 680.515,-520.949 679.813,-513.985"/>
<text text-anchor="middle" x="744" y="-519" font-family="Helvetica,sans-Serif" font-size="10.00"> myUserInstructionMap</text>
</g>
<!-- Node10 -->
<g id="node10" class="node"><title>Node10</title>
<polygon fill="white" stroke="#bfbfbf" points="519,-473.5 519,-492.5 647,-492.5 647,-473.5 519,-473.5"/>
<text text-anchor="middle" x="583" y="-480.5" font-family="Helvetica,sans-Serif" font-size="10.00">Map&lt; String, Double &gt;</text>
</g>
<!-- Node10&#45;&gt;Node7 -->
<g id="edge9" class="edge"><title>Node10&#45;&gt;Node7</title>
<path fill="none" stroke="#9a32cd" stroke-dasharray="5,2" d="M657.23,-485.582C705.637,-487.288 769.011,-489.523 818.303,-491.261"/>
<polygon fill="#9a32cd" stroke="#9a32cd" points="657.255,-482.081 647.138,-485.226 657.008,-489.076 657.255,-482.081"/>
<text text-anchor="middle" x="744" y="-494" font-family="Helvetica,sans-Serif" font-size="10.00"> myVariableMap</text>
</g>
<!-- Node11 -->
<g id="node11" class="node"><title>Node11</title>
<polygon fill="white" stroke="#bfbfbf" points="836,-522.5 836,-541.5 958,-541.5 958,-522.5 836,-522.5"/>
<text text-anchor="middle" x="897" y="-529.5" font-family="Helvetica,sans-Serif" font-size="10.00">Map&lt; String, String &gt;</text>
</g>
<!-- Node11&#45;&gt;Node4 -->
<g id="edge10" class="edge"><title>Node11&#45;&gt;Node4</title>
<path fill="none" stroke="#9a32cd" stroke-dasharray="5,2" d="M968.48,-528.033C1011.78,-524.197 1067.97,-516.683 1116,-502 1130.55,-497.552 1145.98,-489.763 1157.11,-483.528"/>
<polygon fill="#9a32cd" stroke="#9a32cd" points="967.997,-524.561 958.325,-528.886 968.583,-531.536 967.997,-524.561"/>
<text text-anchor="middle" x="1055" y="-527" font-family="Helvetica,sans-Serif" font-size="10.00"> myCommandMap</text>
</g>
<!-- Node12&#45;&gt;Node4 -->
<g id="edge11" class="edge"><title>Node12&#45;&gt;Node4</title>
<path fill="none" stroke="#9a32cd" stroke-dasharray="5,2" d="M918.901,-309.511C937.765,-322.956 966.672,-342.21 994,-355 1045.56,-379.13 1070.02,-360.437 1116,-394 1142.03,-413.004 1160.7,-447.552 1168.68,-464.334"/>
<polygon fill="#9a32cd" stroke="#9a32cd" points="920.894,-306.633 910.74,-303.609 916.792,-312.305 920.894,-306.633"/>
<text text-anchor="middle" x="1055" y="-397" font-family="Helvetica,sans-Serif" font-size="10.00"> mySLogoView</text>
</g>
<!-- Node13&#45;&gt;Node12 -->
<g id="edge13" class="edge"><title>Node13&#45;&gt;Node12</title>
<path fill="none" stroke="#9a32cd" stroke-dasharray="5,2" d="M638.314,-162.013C683.878,-157.864 749.43,-158.013 800,-183 846.141,-205.799 879.237,-261.729 891.147,-284.31"/>
<polygon fill="#9a32cd" stroke="#9a32cd" points="637.932,-158.534 628.334,-163.019 638.634,-165.499 637.932,-158.534"/>
<text text-anchor="middle" x="744" y="-186" font-family="Helvetica,sans-Serif" font-size="10.00"> myWorkspace</text>
</g>
<!-- Node14 -->
<g id="node14" class="node"><title>Node14</title>
<polygon fill="white" stroke="#bfbfbf" points="307.5,-114.5 307.5,-133.5 374.5,-133.5 374.5,-114.5 307.5,-114.5"/>
<text text-anchor="middle" x="341" y="-121.5" font-family="Helvetica,sans-Serif" font-size="10.00">StackPane</text>
</g>
<!-- Node14&#45;&gt;Node13 -->
<g id="edge14" class="edge"><title>Node14&#45;&gt;Node13</title>
<path fill="none" stroke="midnightblue" d="M384.502,-132.146C427.564,-140.4 493.895,-153.113 537.619,-161.494"/>
<polygon fill="midnightblue" stroke="midnightblue" points="385.097,-128.697 374.617,-130.252 383.78,-135.572 385.097,-128.697"/>
</g>
<!-- Node15 -->
<g id="node15" class="node"><title>Node15</title>
<g id="a_node15"><a xlink:href="../../d8/df7/classview_1_1_turtle_view.html" target="_top" xlink:title="view.TurtleView">
<polygon fill="white" stroke="black" points="298,-76.5 298,-95.5 384,-95.5 384,-76.5 298,-76.5"/>
<text text-anchor="middle" x="341" y="-83.5" font-family="Helvetica,sans-Serif" font-size="10.00">view.TurtleView</text>
</a>
</g>
</g>
<!-- Node15&#45;&gt;Node13 -->
<g id="edge15" class="edge"><title>Node15&#45;&gt;Node13</title>
<path fill="none" stroke="#9a32cd" stroke-dasharray="5,2" d="M394.26,-90.5566C421.378,-95.0848 453.801,-104.094 478,-122 490.194,-131.023 483.622,-142.231 496,-151 508.103,-159.574 523.381,-164.378 537.69,-167.039"/>
<polygon fill="#9a32cd" stroke="#9a32cd" points="394.565,-87.063 384.155,-89.0313 393.52,-93.9846 394.565,-87.063"/>
<text text-anchor="middle" x="440" y="-125" font-family="Helvetica,sans-Serif" font-size="10.00"> myActiveTurtle</text>
</g>
<!-- Node16 -->
<g id="node16" class="node"><title>Node16</title>
<polygon fill="white" stroke="#bfbfbf" points="46,-76.5 46,-95.5 114,-95.5 114,-76.5 46,-76.5"/>
<text text-anchor="middle" x="80" y="-83.5" font-family="Helvetica,sans-Serif" font-size="10.00">ImageView</text>
</g>
<!-- Node16&#45;&gt;Node15 -->
<g id="edge16" class="edge"><title>Node16&#45;&gt;Node15</title>
<path fill="none" stroke="midnightblue" d="M124.178,-86C172.372,-86 249.854,-86 297.692,-86"/>
<polygon fill="midnightblue" stroke="midnightblue" points="124.066,-82.5001 114.066,-86 124.066,-89.5001 124.066,-82.5001"/>
</g>
<!-- Node17 -->
<g id="node17" class="node"><title>Node17</title>
<polygon fill="white" stroke="#bfbfbf" points="12,-194 12,-224 148,-224 148,-194 12,-194"/>
<text text-anchor="start" x="20" y="-212" font-family="Helvetica,sans-Serif" font-size="10.00">Map&lt; Integer, view.Turtle</text>
<text text-anchor="middle" x="80" y="-201" font-family="Helvetica,sans-Serif" font-size="10.00">View &gt;</text>
</g>
<!-- Node17&#45;&gt;Node1 -->
<g id="edge38" class="edge"><title>Node17&#45;&gt;Node1</title>
<path fill="none" stroke="#9a32cd" stroke-dasharray="5,2" d="M158.576,-218.2C197.388,-225.54 243.701,-238.654 280,-262 305.664,-278.506 325.708,-309.563 334.752,-325.313"/>
<polygon fill="#9a32cd" stroke="#9a32cd" points="158.824,-214.689 148.363,-216.368 157.587,-221.579 158.824,-214.689"/>
<text text-anchor="middle" x="229" y="-265" font-family="Helvetica,sans-Serif" font-size="10.00"> myTurtles</text>
</g>
<!-- Node17&#45;&gt;Node12 -->
<g id="edge31" class="edge"><title>Node17&#45;&gt;Node12</title>
<path fill="none" stroke="#9a32cd" stroke-dasharray="5,2" d="M158.186,-202.652C291.868,-194.03 573.862,-186.349 800,-251 828.621,-259.182 859.714,-274.378 878.528,-284.338"/>
<polygon fill="#9a32cd" stroke="#9a32cd" points="157.79,-199.171 148.044,-203.327 158.254,-206.155 157.79,-199.171"/>
<text text-anchor="middle" x="440" y="-204" font-family="Helvetica,sans-Serif" font-size="10.00"> myTurtles</text>
</g>
<!-- Node17&#45;&gt;Node13 -->
<g id="edge17" class="edge"><title>Node17&#45;&gt;Node13</title>
<path fill="none" stroke="#9a32cd" stroke-dasharray="5,2" d="M158.566,-197.44C165.135,-196.572 171.679,-195.745 178,-195 308.332,-179.632 463.504,-173.381 537.917,-171.125"/>
<polygon fill="#9a32cd" stroke="#9a32cd" points="157.696,-194.025 148.255,-198.832 158.633,-200.962 157.696,-194.025"/>
<text text-anchor="middle" x="341" y="-187" font-family="Helvetica,sans-Serif" font-size="10.00"> myTurtles</text>
</g>
<!-- Node18 -->
<g id="node18" class="node"><title>Node18</title>
<polygon fill="white" stroke="#bfbfbf" points="309.5,-38.5 309.5,-57.5 372.5,-57.5 372.5,-38.5 309.5,-38.5"/>
<text text-anchor="middle" x="341" y="-45.5" font-family="Helvetica,sans-Serif" font-size="10.00">Rectangle</text>
</g>
<!-- Node18&#45;&gt;Node13 -->
<g id="edge19" class="edge"><title>Node18&#45;&gt;Node13</title>
<path fill="none" stroke="#9a32cd" stroke-dasharray="5,2" d="M382.994,-46.24C413.152,-47.231 453.076,-53.6823 478,-78 501.918,-101.336 472.086,-127.66 496,-151 507.052,-161.787 522.77,-167.019 537.751,-169.402"/>
<polygon fill="#9a32cd" stroke="#9a32cd" points="382.823,-42.7373 372.775,-46.0968 382.725,-49.7366 382.823,-42.7373"/>
<text text-anchor="middle" x="440" y="-81" font-family="Helvetica,sans-Serif" font-size="10.00"> myBackground</text>
</g>
<!-- Node19 -->
<g id="node19" class="node"><title>Node19</title>
<polygon fill="white" stroke="#bfbfbf" points="560.5,-46.5 560.5,-65.5 605.5,-65.5 605.5,-46.5 560.5,-46.5"/>
<text text-anchor="middle" x="583" y="-53.5" font-family="Helvetica,sans-Serif" font-size="10.00">Stage</text>
</g>
<!-- Node19&#45;&gt;Node12 -->
<g id="edge20" class="edge"><title>Node19&#45;&gt;Node12</title>
<path fill="none" stroke="#9a32cd" stroke-dasharray="5,2" d="M615.508,-47.6277C660.735,-37.5856 744.687,-26.5268 800,-65 877.504,-118.909 892.659,-248.171 895.421,-284.41"/>
<polygon fill="#9a32cd" stroke="#9a32cd" points="614.614,-44.2424 605.676,-49.932 616.211,-51.0577 614.614,-44.2424"/>
<text text-anchor="middle" x="744" y="-68" font-family="Helvetica,sans-Serif" font-size="10.00"> myStage</text>
</g>
<!-- Node20 -->
<g id="node20" class="node"><title>Node20</title>
<polygon fill="white" stroke="#bfbfbf" points="536.5,-397.5 536.5,-416.5 629.5,-416.5 629.5,-397.5 536.5,-397.5"/>
<text text-anchor="middle" x="583" y="-404.5" font-family="Helvetica,sans-Serif" font-size="10.00">ResourceBundle</text>
</g>
<!-- Node20&#45;&gt;Node12 -->
<g id="edge21" class="edge"><title>Node20&#45;&gt;Node12</title>
<path fill="none" stroke="#9a32cd" stroke-dasharray="5,2" d="M640.037,-407.024C685.084,-405.123 749.031,-398.004 800,-375 837.963,-357.866 872.717,-321.21 887.918,-303.7"/>
<polygon fill="#9a32cd" stroke="#9a32cd" points="639.742,-403.532 629.87,-407.379 639.986,-410.528 639.742,-403.532"/>
<text text-anchor="middle" x="744" y="-406" font-family="Helvetica,sans-Serif" font-size="10.00"> myResources</text>
</g>
<!-- Node21&#45;&gt;Node12 -->
<g id="edge22" class="edge"><title>Node21&#45;&gt;Node12</title>
<path fill="none" stroke="#9a32cd" stroke-dasharray="5,2" d="M1565.34,-647.225C1556.16,-630.501 1541.22,-605.966 1524,-588 1448.04,-508.751 1238.27,-348.103 1116,-311 1058.06,-293.418 987.693,-291.145 942.877,-291.931"/>
<polygon fill="#9a32cd" stroke="#9a32cd" points="1562.26,-648.886 1570.06,-656.061 1568.44,-645.591 1562.26,-648.886"/>
<text text-anchor="middle" x="1257" y="-398" font-family="Helvetica,sans-Serif" font-size="10.00"> myEditor</text>
</g>
<!-- Node22 -->
<g id="node22" class="node"><title>Node22</title>
<polygon fill="white" stroke="#bfbfbf" points="1349,-751.5 1349,-770.5 1391,-770.5 1391,-751.5 1349,-751.5"/>
<text text-anchor="middle" x="1370" y="-758.5" font-family="Helvetica,sans-Serif" font-size="10.00">HBox</text>
</g>
<!-- Node22&#45;&gt;Node21 -->
<g id="edge23" class="edge"><title>Node22&#45;&gt;Node21</title>
<path fill="none" stroke="midnightblue" d="M1401.43,-758.443C1433.82,-754.585 1485.57,-745.077 1524,-722 1543.62,-710.22 1560.13,-688.583 1568.69,-675.93"/>
<polygon fill="midnightblue" stroke="midnightblue" points="1400.81,-754.991 1391.24,-759.547 1401.56,-761.95 1400.81,-754.991"/>
</g>
<!-- Node23 -->
<g id="node23" class="node"><title>Node23</title>
<polygon fill="white" stroke="#bfbfbf" points="1345.5,-713.5 1345.5,-732.5 1394.5,-732.5 1394.5,-713.5 1345.5,-713.5"/>
<text text-anchor="middle" x="1370" y="-720.5" font-family="Helvetica,sans-Serif" font-size="10.00">Button</text>
</g>
<!-- Node23&#45;&gt;Node21 -->
<g id="edge24" class="edge"><title>Node23&#45;&gt;Node21</title>
<path fill="none" stroke="#9a32cd" stroke-dasharray="5,2" d="M1404.54,-718.453C1435.98,-713.617 1483.99,-704.746 1524,-691 1535.75,-686.962 1548.29,-680.843 1557.99,-675.669"/>
<polygon fill="#9a32cd" stroke="#9a32cd" points="1403.93,-715.005 1394.55,-719.939 1404.96,-721.929 1403.93,-715.005"/>
<text text-anchor="middle" x="1491" y="-710" font-family="Helvetica,sans-Serif" font-size="10.00"> runButton</text>
</g>
<!-- Node24 -->
<g id="node24" class="node"><title>Node24</title>
<polygon fill="white" stroke="#bfbfbf" points="1341,-675.5 1341,-694.5 1399,-694.5 1399,-675.5 1341,-675.5"/>
<text text-anchor="middle" x="1370" y="-682.5" font-family="Helvetica,sans-Serif" font-size="10.00">TextArea</text>
</g>
<!-- Node24&#45;&gt;Node21 -->
<g id="edge26" class="edge"><title>Node24&#45;&gt;Node21</title>
<path fill="none" stroke="#9a32cd" stroke-dasharray="5,2" d="M1409.64,-681.401C1448.08,-677.821 1506.38,-672.391 1542.5,-669.027"/>
<polygon fill="#9a32cd" stroke="#9a32cd" points="1409,-677.946 1399.37,-682.358 1409.65,-684.916 1409,-677.946"/>
<text text-anchor="middle" x="1491" y="-679" font-family="Helvetica,sans-Serif" font-size="10.00"> textEditor</text>
</g>
<!-- Node25 -->
<g id="node25" class="node"><title>Node25</title>
<polygon fill="white" stroke="#bfbfbf" points="523.5,-359.5 523.5,-378.5 642.5,-378.5 642.5,-359.5 523.5,-359.5"/>
<text text-anchor="middle" x="583" y="-366.5" font-family="Helvetica,sans-Serif" font-size="10.00">Map&lt; String, Node &gt;</text>
</g>
<!-- Node25&#45;&gt;Node12 -->
<g id="edge28" class="edge"><title>Node25&#45;&gt;Node12</title>
<path fill="none" stroke="#9a32cd" stroke-dasharray="5,2" d="M652.753,-363.662C695.711,-359.143 751.825,-351.067 800,-337 828.574,-328.656 859.68,-313.505 878.51,-303.598"/>
<polygon fill="#9a32cd" stroke="#9a32cd" points="652.282,-360.191 642.686,-364.681 652.988,-367.156 652.282,-360.191"/>
<text text-anchor="middle" x="744" y="-363" font-family="Helvetica,sans-Serif" font-size="10.00"> variables</text>
</g>
<!-- Node26 -->
<g id="node26" class="node"><title>Node26</title>
<polygon fill="white" stroke="#bfbfbf" points="542.5,-321.5 542.5,-340.5 623.5,-340.5 623.5,-321.5 542.5,-321.5"/>
<text text-anchor="middle" x="583" y="-328.5" font-family="Helvetica,sans-Serif" font-size="10.00">Dimension2D</text>
</g>
<!-- Node26&#45;&gt;Node12 -->
<g id="edge30" class="edge"><title>Node26&#45;&gt;Node12</title>
<path fill="none" stroke="#9a32cd" stroke-dasharray="5,2" d="M633.995,-326.672C677.83,-322.695 743.24,-316.32 800,-309 816.73,-306.843 835.039,-304.082 851.139,-301.518"/>
<polygon fill="#9a32cd" stroke="#9a32cd" points="633.53,-323.2 623.884,-327.582 634.157,-330.172 633.53,-323.2"/>
<text text-anchor="middle" x="744" y="-325" font-family="Helvetica,sans-Serif" font-size="10.00"> myDimensions</text>
</g>
<!-- Node27 -->
<g id="node27" class="node"><title>Node27</title>
<polygon fill="white" stroke="#bfbfbf" points="555,-283.5 555,-302.5 611,-302.5 611,-283.5 555,-283.5"/>
<text text-anchor="middle" x="583" y="-290.5" font-family="Helvetica,sans-Serif" font-size="10.00">TabPane</text>
</g>
<!-- Node27&#45;&gt;Node12 -->
<g id="edge32" class="edge"><title>Node27&#45;&gt;Node12</title>
<path fill="none" stroke="#9a32cd" stroke-dasharray="5,2" d="M621.267,-293.119C678.914,-293.304 789.501,-293.659 851.341,-293.857"/>
<polygon fill="#9a32cd" stroke="#9a32cd" points="621.153,-289.619 611.142,-293.087 621.131,-296.619 621.153,-289.619"/>
<text text-anchor="middle" x="744" y="-297" font-family="Helvetica,sans-Serif" font-size="10.00"> myTabPane</text>
</g>
<!-- Node28 -->
<g id="node28" class="node"><title>Node28</title>
<g id="a_node28"><a xlink:href="../../de/d0a/classview_1_1_drawer.html" target="_top" xlink:title="view.Drawer">
<polygon fill="white" stroke="black" points="546.5,-122.5 546.5,-141.5 619.5,-141.5 619.5,-122.5 546.5,-122.5"/>
<text text-anchor="middle" x="583" y="-129.5" font-family="Helvetica,sans-Serif" font-size="10.00">view.Drawer</text>
</a>
</g>
</g>
<!-- Node28&#45;&gt;Node12 -->
<g id="edge33" class="edge"><title>Node28&#45;&gt;Node12</title>
<path fill="none" stroke="#9a32cd" stroke-dasharray="5,2" d="M629.736,-123.698C675.972,-117.756 747.853,-115.443 800,-146 855.226,-178.362 884.264,-256.528 893.065,-284.138"/>
<polygon fill="#9a32cd" stroke="#9a32cd" points="629.126,-120.249 619.705,-125.096 630.092,-127.182 629.126,-120.249"/>
<text text-anchor="middle" x="744" y="-149" font-family="Helvetica,sans-Serif" font-size="10.00"> drawer</text>
</g>
<!-- Node29 -->
<g id="node29" class="node"><title>Node29</title>
<polygon fill="white" stroke="#bfbfbf" points="320.5,-0.5 320.5,-19.5 361.5,-19.5 361.5,-0.5 320.5,-0.5"/>
<text text-anchor="middle" x="341" y="-7.5" font-family="Helvetica,sans-Serif" font-size="10.00">Color</text>
</g>
<!-- Node29&#45;&gt;Node28 -->
<g id="edge34" class="edge"><title>Node29&#45;&gt;Node28</title>
<path fill="none" stroke="#9a32cd" stroke-dasharray="5,2" d="M371.698,-6.26351C402.392,-4.1735 449.702,-6.18404 478,-33 504.454,-58.0679 470.18,-87.2799 496,-113 509.108,-126.057 529.038,-131.016 546.412,-132.615"/>
<polygon fill="#9a32cd" stroke="#9a32cd" points="371.252,-2.78893 361.592,-7.13985 371.857,-9.76276 371.252,-2.78893"/>
<text text-anchor="middle" x="440" y="-36" font-family="Helvetica,sans-Serif" font-size="10.00"> myColor</text>
</g>
<!-- Node30 -->
<g id="node30" class="node"><title>Node30</title>
<polygon fill="white" stroke="#bfbfbf" points="560,-84.5 560,-103.5 606,-103.5 606,-84.5 560,-84.5"/>
<text text-anchor="middle" x="583" y="-91.5" font-family="Helvetica,sans-Serif" font-size="10.00">Group</text>
</g>
<!-- Node30&#45;&gt;Node12 -->
<g id="edge36" class="edge"><title>Node30&#45;&gt;Node12</title>
<path fill="none" stroke="#9a32cd" stroke-dasharray="5,2" d="M616.172,-86.5357C661.234,-77.9925 743.907,-69.4825 800,-106 866.033,-148.988 888.864,-252.373 894.483,-284.386"/>
<polygon fill="#9a32cd" stroke="#9a32cd" points="615.204,-83.1604 606.093,-88.5679 616.587,-90.0224 615.204,-83.1604"/>
<text text-anchor="middle" x="744" y="-109" font-family="Helvetica,sans-Serif" font-size="10.00"> lines</text>
</g>
<!-- Node31 -->
<g id="node31" class="node"><title>Node31</title>
<polygon fill="white" stroke="#bfbfbf" points="13,-257 13,-287 147,-287 147,-257 13,-257"/>
<text text-anchor="start" x="21" y="-275" font-family="Helvetica,sans-Serif" font-size="10.00">TableView&lt; view.Variable</text>
<text text-anchor="middle" x="80" y="-264" font-family="Helvetica,sans-Serif" font-size="10.00">View &gt;</text>
</g>
<!-- Node31&#45;&gt;Node1 -->
<g id="edge37" class="edge"><title>Node31&#45;&gt;Node1</title>
<path fill="none" stroke="#9a32cd" stroke-dasharray="5,2" d="M157.571,-274.46C195.314,-277.549 240.985,-284.144 280,-298 297.99,-304.389 316.335,-316.731 327.922,-325.398"/>
<polygon fill="#9a32cd" stroke="#9a32cd" points="157.382,-270.936 147.148,-273.679 156.859,-277.917 157.382,-270.936"/>
<text text-anchor="middle" x="229" y="-312" font-family="Helvetica,sans-Serif" font-size="10.00"> turtlePropertiesTable</text>
<text text-anchor="middle" x="229" y="-301" font-family="Helvetica,sans-Serif" font-size="10.00">variablesTable</text>
</g>
<!-- Node32 -->
<g id="node32" class="node"><title>Node32</title>
<polygon fill="white" stroke="#bfbfbf" points="0.5,-421 0.5,-451 159.5,-451 159.5,-421 0.5,-421"/>
<text text-anchor="start" x="8.5" y="-439" font-family="Helvetica,sans-Serif" font-size="10.00">ObservableList&lt; view.Variable</text>
<text text-anchor="middle" x="80" y="-428" font-family="Helvetica,sans-Serif" font-size="10.00">View &gt;</text>
</g>
<!-- Node32&#45;&gt;Node1 -->
<g id="edge39" class="edge"><title>Node32&#45;&gt;Node1</title>
<path fill="none" stroke="#9a32cd" stroke-dasharray="5,2" d="M169.949,-437.922C206.05,-435.252 246.942,-427.586 280,-409 307.104,-393.761 326.758,-360.996 335.286,-344.664"/>
<polygon fill="#9a32cd" stroke="#9a32cd" points="169.667,-434.433 159.904,-438.548 170.102,-441.42 169.667,-434.433"/>
<text text-anchor="middle" x="229" y="-440" font-family="Helvetica,sans-Serif" font-size="10.00"> variablesList</text>
</g>
<!-- Node33 -->
<g id="node33" class="node"><title>Node33</title>
<polygon fill="white" stroke="#bfbfbf" points="11,-382.5 11,-401.5 149,-401.5 149,-382.5 11,-382.5"/>
<text text-anchor="middle" x="80" y="-389.5" font-family="Helvetica,sans-Serif" font-size="10.00">ObservableList&lt; String &gt;</text>
</g>
<!-- Node33&#45;&gt;Node1 -->
<g id="edge40" class="edge"><title>Node33&#45;&gt;Node1</title>
<path fill="none" stroke="#9a32cd" stroke-dasharray="5,2" d="M159.485,-385.174C196.55,-380.687 241.091,-373.452 280,-362 294.684,-357.678 310.435,-350.483 322.112,-344.607"/>
<polygon fill="#9a32cd" stroke="#9a32cd" points="158.767,-381.734 149.24,-386.368 159.578,-388.687 158.767,-381.734"/>
<text text-anchor="middle" x="229" y="-397" font-family="Helvetica,sans-Serif" font-size="10.00"> commandItems</text>
<text text-anchor="middle" x="229" y="-386" font-family="Helvetica,sans-Serif" font-size="10.00">historyItems</text>
</g>
<!-- Node34 -->
<g id="node34" class="node"><title>Node34</title>
<polygon fill="white" stroke="#bfbfbf" points="27,-344.5 27,-363.5 133,-363.5 133,-344.5 27,-344.5"/>
<text text-anchor="middle" x="80" y="-351.5" font-family="Helvetica,sans-Serif" font-size="10.00">ListView&lt; String &gt;</text>
</g>
<!-- Node34&#45;&gt;Node1 -->
<g id="edge41" class="edge"><title>Node34&#45;&gt;Node1</title>
<path fill="none" stroke="#9a32cd" stroke-dasharray="5,2" d="M143.384,-349.424C192.936,-345.788 260.606,-340.824 302.25,-337.769"/>
<polygon fill="#9a32cd" stroke="#9a32cd" points="142.818,-345.956 133.101,-350.178 143.33,-352.937 142.818,-345.956"/>
<text text-anchor="middle" x="229" y="-350" font-family="Helvetica,sans-Serif" font-size="10.00"> historyList</text>
</g>
</g>
</svg>
        <g id="navigator" transform="translate(0 0)" fill="#404254">
                <rect fill="#f2f5e9" fill-opacity="0.5" stroke="#606060" stroke-width=".5" x="0" y="0" width="60" height="60"/>
                <use id="zoomplus" xlink:href="#zoomPlus" x="17" y="9" onmousedown="handleZoom(evt,'in')"/>
                <use id="zoomminus" xlink:href="#zoomMin" x="42" y="9" onmousedown="handleZoom(evt,'out')"/>
                <use id="reset" xlink:href="#resetDef" x="30" y="36" onmousedown="handleReset()"/>
                <g id="arrowUp" xlink:href="#dirArrow" transform="translate(30 24)" onmousedown="handlePan(0,-1)">
                  <use xlink:href="#rim" fill="#404040">
                        <set attributeName="fill" to="#808080" begin="arrowUp.mouseover" end="arrowUp.mouseout"/>
                  </use>
                  <path fill="none" stroke="white" stroke-width="1.5" d="M0,-3.0v7 M-2.5,-0.5L0,-3.0L2.5,-0.5"/>
                </g>
                <g id="arrowRight" xlink:href="#dirArrow" transform="rotate(90) translate(36 -43)" onmousedown="handlePan(1,0)">
                  <use xlink:href="#rim" fill="#404040">
                        <set attributeName="fill" to="#808080" begin="arrowRight.mouseover" end="arrowRight.mouseout"/>
                  </use>
                  <path fill="none" stroke="white" stroke-width="1.5" d="M0,-3.0v7 M-2.5,-0.5L0,-3.0L2.5,-0.5"/>
                </g>
                <g id="arrowDown" xlink:href="#dirArrow" transform="rotate(180) translate(-30 -48)" onmousedown="handlePan(0,1)">
                  <use xlink:href="#rim" fill="#404040">
                        <set attributeName="fill" to="#808080" begin="arrowDown.mouseover" end="arrowDown.mouseout"/>
                  </use>
                  <path fill="none" stroke="white" stroke-width="1.5" d="M0,-3.0v7 M-2.5,-0.5L0,-3.0L2.5,-0.5"/>
                </g>
                <g id="arrowLeft" xlink:href="#dirArrow" transform="rotate(270) translate(-36 17)" onmousedown="handlePan(-1,0)">
                  <use xlink:href="#rim" fill="#404040">
                        <set attributeName="fill" to="#808080" begin="arrowLeft.mouseover" end="arrowLeft.mouseout"/>
                  </use>
                  <path fill="none" stroke="white" stroke-width="1.5" d="M0,-3.0v7 M-2.5,-0.5L0,-3.0L2.5,-0.5"/>
                </g>
        </g>
        <svg viewBox="0 0 15 15" width="100%" height="30px" preserveAspectRatio="xMaxYMin meet">
         <g id="arrow_out" transform="scale(0.3 0.3)">
          <a xlink:href="classview_1_1_side_bar__coll__graph_org.svg" target="_base">
           <rect id="button" ry="5" rx="5" y="6" x="6" height="38" width="38"
                fill="#f2f5e9" fill-opacity="0.5" stroke="#606060" stroke-width="1.0"/>
           <path id="arrow"
             d="M 11.500037,31.436501 C 11.940474,20.09759 22.043105,11.32322 32.158766,21.979434 L 37.068811,17.246167 C 37.068811,17.246167 37.088388,32 37.088388,32 L 22.160133,31.978069 C 22.160133,31.978069 26.997745,27.140456 26.997745,27.140456 C 18.528582,18.264221 13.291696,25.230495 11.500037,31.436501 z"
             style="fill:#404040;"/>
          </a>
         </g>
        </svg>
</svg>
