<?xml version="1.0" encoding="UTF-8" standalone="no"?>
<!DOCTYPE svg PUBLIC "-//W3C//DTD SVG 1.1//EN"
 "http://www.w3.org/Graphics/SVG/1.1/DTD/svg11.dtd">
<!-- Generated by graphviz version 2.36.0 (20140111.2315)
 -->
<!-- Title: view.SideBar Pages: 1 -->
<!--zoomable 724 -->
<svg id="main" version="1.1" xmlns="http://www.w3.org/2000/svg" xmlns:xlink="http://www.w3.org/1999/xlink" xml:space="preserve" onload="init(evt)">
<style type="text/css"><![CDATA[
.edge:hover path { stroke: red; }
.edge:hover polygon { stroke: red; fill: red; }
]]></style>
<script type="text/javascript"><![CDATA[
var edges = document.getElementsByTagName('g');
if (edges && edges.length) {
  for (var i=0;i<edges.length;i++) {
    if (edges[i].id.substr(0,4)=='edge') {
      edges[i].setAttribute('class','edge');
    }
  }
}
]]></script>
        <defs>
                <circle id="rim" cx="0" cy="0" r="7"/>
                <circle id="rim2" cx="0" cy="0" r="3.5"/>
                <g id="zoomPlus">
                        <use xlink:href="#rim" fill="#404040">
                                <set attributeName="fill" to="#808080" begin="zoomplus.mouseover" end="zoomplus.mouseout"/>
                        </use>
                        <path d="M-4,0h8M0,-4v8" fill="none" stroke="white" stroke-width="1.5" pointer-events="none"/>
                </g>
                <g id="zoomMin">
                        <use xlink:href="#rim" fill="#404040">
                                <set attributeName="fill" to="#808080" begin="zoomminus.mouseover" end="zoomminus.mouseout"/>
                        </use>
                        <path d="M-4,0h8" fill="none" stroke="white" stroke-width="1.5" pointer-events="none"/>
                </g>
                <g id="dirArrow">
                        <path fill="none" stroke="white" stroke-width="1.5" d="M0,-3.0v7 M-2.5,-0.5L0,-3.0L2.5,-0.5"/>
                </g>
               <g id="resetDef">
                       <use xlink:href="#rim2" fill="#404040">
                               <set attributeName="fill" to="#808080" begin="reset.mouseover" end="reset.mouseout"/>
                       </use>
               </g>
        </defs>

<script type="text/javascript">
var viewWidth = 2068;
var viewHeight = 724;
var sectionId = 'dynsection-1';
</script>
<script xlink:href="../../svgpan.js"/>
<svg id="graph" class="graph">
<g id="viewport">
<title>view.SideBar</title>
<polygon fill="white" stroke="none" points="-4,4 -4,-719.985 2064,-719.985 2064,4 -4,4"/>
<!-- Node1 -->
<g id="node1" class="node"><title>Node1</title>
<polygon fill="#bfbfbf" stroke="black" points="663.5,-362.485 663.5,-381.485 740.5,-381.485 740.5,-362.485 663.5,-362.485"/>
<text text-anchor="middle" x="702" y="-369.485" font-family="Helvetica,sans-Serif" font-size="10.00">view.SideBar</text>
</g>
<!-- Node14 -->
<g id="node14" class="node"><title>Node14</title>
<g id="a_node14"><a xlink:href="../../d4/d64/classview_1_1_view_updater.html" target="_top" xlink:title="view.ViewUpdater">
<polygon fill="white" stroke="black" points="1331,-324.485 1331,-343.485 1431,-343.485 1431,-324.485 1331,-324.485"/>
<text text-anchor="middle" x="1381" y="-331.485" font-family="Helvetica,sans-Serif" font-size="10.00">view.ViewUpdater</text>
</a>
</g>
</g>
<!-- Node1&#45;&gt;Node14 -->
<g id="edge28" class="edge"><title>Node1&#45;&gt;Node14</title>
<path fill="none" stroke="#9a32cd" stroke-dasharray="5,2" d="M750.514,-363.222C762.697,-361.233 775.804,-359.317 788,-357.985 988.417,-336.088 1228.97,-333.652 1330.71,-333.713"/>
<polygon fill="#9a32cd" stroke="#9a32cd" points="749.82,-359.789 740.538,-364.898 750.98,-366.692 749.82,-359.789"/>
<text text-anchor="middle" x="1051" y="-345.985" font-family="Helvetica,sans-Serif" font-size="10.00"> mySidebar</text>
</g>
<!-- Node15 -->
<g id="node15" class="node"><title>Node15</title>
<g id="a_node15"><a xlink:href="../../da/d64/classview_1_1_workspace.html" target="_top" xlink:title="view.Workspace">
<polygon fill="white" stroke="black" points="882,-510.485 882,-529.485 972,-529.485 972,-510.485 882,-510.485"/>
<text text-anchor="middle" x="927" y="-517.485" font-family="Helvetica,sans-Serif" font-size="10.00">view.Workspace</text>
</a>
</g>
</g>
<!-- Node1&#45;&gt;Node15 -->
<g id="edge23" class="edge"><title>Node1&#45;&gt;Node15</title>
<path fill="none" stroke="#9a32cd" stroke-dasharray="5,2" d="M735.267,-385.564C775.761,-402.92 842.516,-432.668 864,-448.985 870.321,-453.785 902.667,-492.084 917.964,-510.353"/>
<polygon fill="#9a32cd" stroke="#9a32cd" points="736.398,-382.241 725.827,-381.538 733.652,-388.68 736.398,-382.241"/>
<text text-anchor="middle" x="826" y="-451.985" font-family="Helvetica,sans-Serif" font-size="10.00"> mySidebar</text>
</g>
<!-- Node25 -->
<g id="node25" class="node"><title>Node25</title>
<g id="a_node25"><a xlink:href="../../d6/de7/classview_1_1_s_logo_view.html" target="_top" xlink:title="view.SLogoView">
<polygon fill="white" stroke="black" points="1968.5,-288.485 1968.5,-307.485 2059.5,-307.485 2059.5,-288.485 1968.5,-288.485"/>
<text text-anchor="middle" x="2014" y="-295.485" font-family="Helvetica,sans-Serif" font-size="10.00">view.SLogoView</text>
</a>
</g>
</g>
<!-- Node1&#45;&gt;Node25 -->
<g id="edge45" class="edge"><title>Node1&#45;&gt;Node25</title>
<path fill="none" stroke="#9a32cd" stroke-dasharray="5,2" d="M750.566,-378.821C762.748,-380.384 775.842,-381.902 788,-382.985 1105.35,-411.23 1185.4,-417.985 1504,-417.985 1504,-417.985 1504,-417.985 1797,-417.985 1887.52,-417.985 1975.56,-336.464 2003.71,-307.805"/>
<polygon fill="#9a32cd" stroke="#9a32cd" points="750.96,-375.343 740.588,-377.505 750.045,-382.283 750.96,-375.343"/>
<text text-anchor="middle" x="1381" y="-420.985" font-family="Helvetica,sans-Serif" font-size="10.00"> mySidebar</text>
</g>
<!-- Node27 -->
<g id="node27" class="node"><title>Node27</title>
<g id="a_node27"><a xlink:href="../../da/dc8/classview_1_1_editor.html" target="_top" xlink:title="view.Editor">
<polygon fill="white" stroke="black" points="1762.5,-229.485 1762.5,-248.485 1829.5,-248.485 1829.5,-229.485 1762.5,-229.485"/>
<text text-anchor="middle" x="1796" y="-236.485" font-family="Helvetica,sans-Serif" font-size="10.00">view.Editor</text>
</a>
</g>
</g>
<!-- Node1&#45;&gt;Node27 -->
<g id="edge39" class="edge"><title>Node1&#45;&gt;Node27</title>
<path fill="none" stroke="#9a32cd" stroke-dasharray="5,2" d="M717.391,-354.763C755.949,-310.129 867.03,-191.184 990,-147.985 1107.53,-106.698 1453.19,-94.6 1550,-172.985 1567.38,-187.06 1550.12,-206.55 1568,-219.985 1625.07,-262.859 1714.51,-254.719 1762.31,-246.189"/>
<polygon fill="#9a32cd" stroke="#9a32cd" points="714.682,-352.546 710.856,-362.427 720.008,-357.088 714.682,-352.546"/>
<text text-anchor="middle" x="1262" y="-119.985" font-family="Helvetica,sans-Serif" font-size="10.00"> mySidebar</text>
</g>
<!-- Node2 -->
<g id="node2" class="node"><title>Node2</title>
<polygon fill="white" stroke="#bfbfbf" points="388.5,-301.485 388.5,-320.485 429.5,-320.485 429.5,-301.485 388.5,-301.485"/>
<text text-anchor="middle" x="409" y="-308.485" font-family="Helvetica,sans-Serif" font-size="10.00">VBox</text>
</g>
<!-- Node2&#45;&gt;Node1 -->
<g id="edge1" class="edge"><title>Node2&#45;&gt;Node1</title>
<path fill="none" stroke="midnightblue" d="M439.486,-313.926C479.765,-318.313 554.061,-327.732 616,-342.985 636.893,-348.13 659.961,-356.155 676.787,-362.46"/>
<polygon fill="midnightblue" stroke="midnightblue" points="439.85,-310.445 429.536,-312.869 439.111,-317.405 439.85,-310.445"/>
</g>
<!-- Node3 -->
<g id="node3" class="node"><title>Node3</title>
<polygon fill="white" stroke="#bfbfbf" points="322.5,-429.485 322.5,-448.485 495.5,-448.485 495.5,-429.485 322.5,-429.485"/>
<text text-anchor="middle" x="409" y="-436.485" font-family="Helvetica,sans-Serif" font-size="10.00">ObservableList&lt; view.Property &gt;</text>
</g>
<!-- Node3&#45;&gt;Node1 -->
<g id="edge2" class="edge"><title>Node3&#45;&gt;Node1</title>
<path fill="none" stroke="#9a32cd" stroke-dasharray="5,2" d="M505.922,-432.627C541.046,-428.683 580.794,-422.302 616,-411.985 641.042,-404.646 667.984,-390.855 684.67,-381.545"/>
<polygon fill="#9a32cd" stroke="#9a32cd" points="505.235,-429.181 495.664,-433.725 505.98,-436.141 505.235,-429.181"/>
<text text-anchor="middle" x="565" y="-434.985" font-family="Helvetica,sans-Serif" font-size="10.00"> variablesList</text>
</g>
<!-- Node4 -->
<g id="node4" class="node"><title>Node4</title>
<polygon fill="white" stroke="#bfbfbf" points="362.5,-574.485 362.5,-593.485 455.5,-593.485 455.5,-574.485 362.5,-574.485"/>
<text text-anchor="middle" x="409" y="-581.485" font-family="Helvetica,sans-Serif" font-size="10.00">ResourceBundle</text>
</g>
<!-- Node4&#45;&gt;Node1 -->
<g id="edge3" class="edge"><title>Node4&#45;&gt;Node1</title>
<path fill="none" stroke="#9a32cd" stroke-dasharray="5,2" d="M434.718,-569.111C474.176,-545.025 553.332,-495.297 616,-446.985 624.477,-440.449 625.983,-438.077 634,-430.985 653.734,-413.525 676.804,-393.236 690.078,-381.575"/>
<polygon fill="#9a32cd" stroke="#9a32cd" points="432.75,-566.21 426.022,-574.395 436.386,-572.192 432.75,-566.21"/>
<text text-anchor="middle" x="565" y="-520.985" font-family="Helvetica,sans-Serif" font-size="10.00"> myResources</text>
</g>
<!-- Node4&#45;&gt;Node15 -->
<g id="edge18" class="edge"><title>Node4&#45;&gt;Node15</title>
<path fill="none" stroke="#9a32cd" stroke-dasharray="5,2" d="M465.581,-580.696C536.385,-576.27 662.477,-567.591 770,-555.985 811.932,-551.458 823.098,-553.269 864,-542.985 877.584,-539.569 892.301,-534.186 903.987,-529.485"/>
<polygon fill="#9a32cd" stroke="#9a32cd" points="465.309,-577.206 455.544,-581.318 465.742,-584.193 465.309,-577.206"/>
<text text-anchor="middle" x="702" y="-571.985" font-family="Helvetica,sans-Serif" font-size="10.00"> myResources</text>
</g>
<!-- Node4&#45;&gt;Node25 -->
<g id="edge33" class="edge"><title>Node4&#45;&gt;Node25</title>
<path fill="none" stroke="#9a32cd" stroke-dasharray="5,2" d="M438.317,-597.942C489.461,-621.826 601.212,-667.985 701,-667.985 701,-667.985 701,-667.985 1797,-667.985 1969.19,-667.985 2006.59,-365.416 2012.17,-307.503"/>
<polygon fill="#9a32cd" stroke="#9a32cd" points="439.738,-594.743 429.203,-593.62 436.739,-601.068 439.738,-594.743"/>
<text text-anchor="middle" x="1262" y="-670.985" font-family="Helvetica,sans-Serif" font-size="10.00"> myResources</text>
</g>
<!-- Node5 -->
<g id="node5" class="node"><title>Node5</title>
<g id="a_node5"><a xlink:href="../../d1/dca/classmodel_1_1_execution_environment.html" target="_top" xlink:title="model.ExecutionEnvironment">
<polygon fill="white" stroke="black" points="330.5,-160.485 330.5,-179.485 487.5,-179.485 487.5,-160.485 330.5,-160.485"/>
<text text-anchor="middle" x="409" y="-167.485" font-family="Helvetica,sans-Serif" font-size="10.00">model.ExecutionEnvironment</text>
</a>
</g>
</g>
<!-- Node5&#45;&gt;Node1 -->
<g id="edge4" class="edge"><title>Node5&#45;&gt;Node1</title>
<path fill="none" stroke="#9a32cd" stroke-dasharray="5,2" d="M433.038,-185.05C471.358,-210.216 550.459,-262.618 616,-308.985 642.092,-327.443 671.983,-349.914 688.455,-362.416"/>
<polygon fill="#9a32cd" stroke="#9a32cd" points="434.918,-182.098 424.637,-179.54 431.079,-187.951 434.918,-182.098"/>
<text text-anchor="middle" x="565" y="-311.985" font-family="Helvetica,sans-Serif" font-size="10.00"> myEnvironment</text>
</g>
<!-- Node11 -->
<g id="node11" class="node"><title>Node11</title>
<g id="a_node11"><a xlink:href="../../dc/df5/classmodel_1_1_parser.html" target="_top" xlink:title="model.Parser">
<polygon fill="white" stroke="black" points="1568,-280.485 1568,-299.485 1648,-299.485 1648,-280.485 1568,-280.485"/>
<text text-anchor="middle" x="1608" y="-287.485" font-family="Helvetica,sans-Serif" font-size="10.00">model.Parser</text>
</a>
</g>
</g>
<!-- Node5&#45;&gt;Node11 -->
<g id="edge13" class="edge"><title>Node5&#45;&gt;Node11</title>
<path fill="none" stroke="#9a32cd" stroke-dasharray="5,2" d="M497.691,-169.985C555.446,-169.985 632.728,-169.985 701,-169.985 701,-169.985 701,-169.985 1382,-169.985 1460.71,-169.985 1487.45,-178.211 1550,-225.985 1561.46,-234.739 1558.71,-241.953 1568,-252.985 1576.42,-262.98 1587.29,-273.108 1595.42,-280.235"/>
<polygon fill="#9a32cd" stroke="#9a32cd" points="497.505,-166.485 487.505,-169.985 497.505,-173.485 497.505,-166.485"/>
<text text-anchor="middle" x="1051" y="-172.985" font-family="Helvetica,sans-Serif" font-size="10.00"> myExecutionParameters</text>
</g>
<!-- Node5&#45;&gt;Node25 -->
<g id="edge41" class="edge"><title>Node5&#45;&gt;Node25</title>
<path fill="none" stroke="#9a32cd" stroke-dasharray="5,2" d="M438.335,-156.193C489.508,-132.594 601.303,-86.9846 701,-86.9846 701,-86.9846 701,-86.9846 1797,-86.9846 1913.9,-86.9846 1991.04,-247.092 2008.99,-288.37"/>
<polygon fill="#9a32cd" stroke="#9a32cd" points="436.788,-153.053 429.216,-160.463 439.756,-159.392 436.788,-153.053"/>
<text text-anchor="middle" x="1262" y="-89.9846" font-family="Helvetica,sans-Serif" font-size="10.00"> myEnvironment</text>
</g>
<!-- Node6 -->
<g id="node6" class="node"><title>Node6</title>
<polygon fill="white" stroke="#bfbfbf" points="51.5,-220.485 51.5,-239.485 122.5,-239.485 122.5,-220.485 51.5,-220.485"/>
<text text-anchor="middle" x="87" y="-227.485" font-family="Helvetica,sans-Serif" font-size="10.00">Observable</text>
</g>
<!-- Node6&#45;&gt;Node5 -->
<g id="edge5" class="edge"><title>Node6&#45;&gt;Node5</title>
<path fill="none" stroke="midnightblue" d="M132.631,-229.782C176.728,-228.715 245.827,-224.705 304,-210.985 334.601,-203.767 368.12,-189.266 388.609,-179.589"/>
<polygon fill="midnightblue" stroke="midnightblue" points="132.454,-226.285 122.526,-229.985 132.595,-233.283 132.454,-226.285"/>
</g>
<!-- Node7 -->
<g id="node7" class="node"><title>Node7</title>
<polygon fill="white" stroke="#bfbfbf" points="42.5,-182.485 42.5,-201.485 131.5,-201.485 131.5,-182.485 42.5,-182.485"/>
<text text-anchor="middle" x="87" y="-189.485" font-family="Helvetica,sans-Serif" font-size="10.00">Set&lt; Integer &gt;</text>
</g>
<!-- Node7&#45;&gt;Node5 -->
<g id="edge6" class="edge"><title>Node7&#45;&gt;Node5</title>
<path fill="none" stroke="#9a32cd" stroke-dasharray="5,2" d="M142.097,-188.265C193.719,-184.716 272.037,-179.332 330.323,-175.325"/>
<polygon fill="#9a32cd" stroke="#9a32cd" points="141.56,-184.794 131.824,-188.972 142.04,-191.778 141.56,-184.794"/>
<text text-anchor="middle" x="248" y="-198.985" font-family="Helvetica,sans-Serif" font-size="10.00"> myTurtleList</text>
<text text-anchor="middle" x="248" y="-187.985" font-family="Helvetica,sans-Serif" font-size="10.00">activeTurtleList</text>
</g>
<!-- Node8 -->
<g id="node8" class="node"><title>Node8</title>
<polygon fill="white" stroke="#bfbfbf" points="0,-132.985 0,-162.985 174,-162.985 174,-132.985 0,-132.985"/>
<text text-anchor="start" x="8" y="-150.985" font-family="Helvetica,sans-Serif" font-size="10.00">Map&lt; String, model.instructions.</text>
<text text-anchor="middle" x="87" y="-139.985" font-family="Helvetica,sans-Serif" font-size="10.00">Instruction &gt;</text>
</g>
<!-- Node8&#45;&gt;Node5 -->
<g id="edge7" class="edge"><title>Node8&#45;&gt;Node5</title>
<path fill="none" stroke="#9a32cd" stroke-dasharray="5,2" d="M184.315,-154.606C231.052,-157.819 286.453,-161.628 330.426,-164.651"/>
<polygon fill="#9a32cd" stroke="#9a32cd" points="184.392,-151.103 174.175,-153.909 183.911,-158.087 184.392,-151.103"/>
<text text-anchor="middle" x="248" y="-165.985" font-family="Helvetica,sans-Serif" font-size="10.00"> myUserInstructionMap</text>
</g>
<!-- Node9 -->
<g id="node9" class="node"><title>Node9</title>
<polygon fill="white" stroke="#bfbfbf" points="23,-94.4846 23,-113.485 151,-113.485 151,-94.4846 23,-94.4846"/>
<text text-anchor="middle" x="87" y="-101.485" font-family="Helvetica,sans-Serif" font-size="10.00">Map&lt; String, Double &gt;</text>
</g>
<!-- Node9&#45;&gt;Node5 -->
<g id="edge8" class="edge"><title>Node9&#45;&gt;Node5</title>
<path fill="none" stroke="#9a32cd" stroke-dasharray="5,2" d="M161.326,-114.636C203.304,-121.21 256.845,-130.4 304,-140.985 328.691,-146.526 356.262,-154.288 376.809,-160.387"/>
<polygon fill="#9a32cd" stroke="#9a32cd" points="161.606,-111.138 151.188,-113.064 160.533,-118.055 161.606,-111.138"/>
<text text-anchor="middle" x="248" y="-143.985" font-family="Helvetica,sans-Serif" font-size="10.00"> myVariableMap</text>
</g>
<!-- Node10 -->
<g id="node10" class="node"><title>Node10</title>
<polygon fill="white" stroke="#bfbfbf" points="335,-384.485 335,-403.485 483,-403.485 483,-384.485 335,-384.485"/>
<text text-anchor="middle" x="409" y="-391.485" font-family="Helvetica,sans-Serif" font-size="10.00">TableView&lt; view.Property &gt;</text>
</g>
<!-- Node10&#45;&gt;Node1 -->
<g id="edge9" class="edge"><title>Node10&#45;&gt;Node1</title>
<path fill="none" stroke="#9a32cd" stroke-dasharray="5,2" d="M493.314,-387.686C549.25,-383.457 620.29,-378.086 663.118,-374.849"/>
<polygon fill="#9a32cd" stroke="#9a32cd" points="492.764,-384.217 483.056,-388.461 493.291,-391.198 492.764,-384.217"/>
<text text-anchor="middle" x="565" y="-399.985" font-family="Helvetica,sans-Serif" font-size="10.00"> turtlePropertiesTable</text>
<text text-anchor="middle" x="565" y="-388.985" font-family="Helvetica,sans-Serif" font-size="10.00">variablesTable</text>
</g>
<!-- Node11&#45;&gt;Node1 -->
<g id="edge10" class="edge"><title>Node11&#45;&gt;Node1</title>
<path fill="none" stroke="#9a32cd" stroke-dasharray="5,2" d="M1591.03,-306.795C1580.36,-317.043 1565.48,-329.555 1550,-336.985 1481.24,-369.985 1458.27,-371.985 1382,-371.985 926,-371.985 926,-371.985 926,-371.985 860.958,-371.985 785.246,-371.985 740.879,-371.985"/>
<polygon fill="#9a32cd" stroke="#9a32cd" points="1593.71,-309.066 1598.31,-299.522 1588.76,-304.113 1593.71,-309.066"/>
<text text-anchor="middle" x="1167" y="-374.985" font-family="Helvetica,sans-Serif" font-size="10.00"> myParser</text>
</g>
<!-- Node11&#45;&gt;Node25 -->
<g id="edge42" class="edge"><title>Node11&#45;&gt;Node25</title>
<path fill="none" stroke="#9a32cd" stroke-dasharray="5,2" d="M1658.31,-290.961C1737.59,-292.531 1892.19,-295.592 1968.38,-297.101"/>
<polygon fill="#9a32cd" stroke="#9a32cd" points="1658.17,-287.458 1648.1,-290.759 1658.03,-294.456 1658.17,-287.458"/>
<text text-anchor="middle" x="1796" y="-297.985" font-family="Helvetica,sans-Serif" font-size="10.00"> myParser</text>
</g>
<!-- Node11&#45;&gt;Node27 -->
<g id="edge37" class="edge"><title>Node11&#45;&gt;Node27</title>
<path fill="none" stroke="#9a32cd" stroke-dasharray="5,2" d="M1649.9,-277.615C1655.3,-276.03 1660.78,-274.45 1666,-272.985 1698.67,-263.811 1736.19,-254.002 1762.32,-247.29"/>
<polygon fill="#9a32cd" stroke="#9a32cd" points="1648.9,-274.259 1640.31,-280.45 1650.89,-280.971 1648.9,-274.259"/>
<text text-anchor="middle" x="1692" y="-275.985" font-family="Helvetica,sans-Serif" font-size="10.00"> myParser</text>
</g>
<!-- Node12 -->
<g id="node12" class="node"><title>Node12</title>
<polygon fill="white" stroke="#bfbfbf" points="1137,-227.485 1137,-246.485 1197,-246.485 1197,-227.485 1137,-227.485"/>
<text text-anchor="middle" x="1167" y="-234.485" font-family="Helvetica,sans-Serif" font-size="10.00">Observer</text>
</g>
<!-- Node12&#45;&gt;Node11 -->
<g id="edge11" class="edge"><title>Node12&#45;&gt;Node11</title>
<path fill="none" stroke="midnightblue" d="M1207.4,-231.536C1260.8,-225.066 1359,-216.4 1442,-226.985 1491.19,-233.257 1504.37,-235.575 1550,-254.985 1566.03,-261.803 1582.84,-272.647 1594.02,-280.459"/>
<polygon fill="midnightblue" stroke="midnightblue" points="1206.83,-228.081 1197.34,-232.795 1207.7,-235.027 1206.83,-228.081"/>
</g>
<!-- Node12&#45;&gt;Node14 -->
<g id="edge15" class="edge"><title>Node12&#45;&gt;Node14</title>
<path fill="none" stroke="midnightblue" d="M1193.84,-251.555C1223.66,-268.01 1274.43,-294.967 1320,-313.985 1329.12,-317.79 1339.24,-321.392 1348.54,-324.463"/>
<polygon fill="midnightblue" stroke="midnightblue" points="1195.38,-248.402 1184.94,-246.604 1191.98,-254.521 1195.38,-248.402"/>
</g>
<!-- Node13 -->
<g id="node13" class="node"><title>Node13</title>
<polygon fill="white" stroke="#bfbfbf" points="1325,-274.985 1325,-304.985 1437,-304.985 1437,-274.985 1325,-274.985"/>
<text text-anchor="start" x="1333" y="-292.985" font-family="Helvetica,sans-Serif" font-size="10.00">List&lt; Entry&lt; String,</text>
<text text-anchor="middle" x="1381" y="-281.985" font-family="Helvetica,sans-Serif" font-size="10.00"> Pattern &gt; &gt;</text>
</g>
<!-- Node13&#45;&gt;Node11 -->
<g id="edge12" class="edge"><title>Node13&#45;&gt;Node11</title>
<path fill="none" stroke="#9a32cd" stroke-dasharray="5,2" d="M1447.25,-289.985C1486.24,-289.985 1534.49,-289.985 1567.69,-289.985"/>
<polygon fill="#9a32cd" stroke="#9a32cd" points="1447.04,-286.485 1437.04,-289.985 1447.04,-293.485 1447.04,-286.485"/>
<text text-anchor="middle" x="1505" y="-292.985" font-family="Helvetica,sans-Serif" font-size="10.00"> myPatterns</text>
</g>
<!-- Node14&#45;&gt;Node11 -->
<g id="edge14" class="edge"><title>Node14&#45;&gt;Node11</title>
<path fill="none" stroke="#9a32cd" stroke-dasharray="5,2" d="M1441.27,-325.035C1473.55,-319.839 1514.12,-312.788 1550,-304.985 1557.4,-303.376 1565.28,-301.443 1572.75,-299.509"/>
<polygon fill="#9a32cd" stroke="#9a32cd" points="1440.43,-321.625 1431.1,-326.655 1441.53,-328.538 1440.43,-321.625"/>
<text text-anchor="middle" x="1505" y="-324.985" font-family="Helvetica,sans-Serif" font-size="10.00"> myViewUpdater</text>
</g>
<!-- Node15&#45;&gt;Node14 -->
<g id="edge16" class="edge"><title>Node15&#45;&gt;Node14</title>
<path fill="none" stroke="#9a32cd" stroke-dasharray="5,2" d="M982.639,-524.583C1063.53,-528.203 1214.93,-522.269 1302,-438.985 1316.97,-424.664 1308.6,-413.283 1320,-395.985 1333.68,-375.223 1354.85,-355.317 1368.04,-343.887"/>
<polygon fill="#9a32cd" stroke="#9a32cd" points="982.35,-521.063 972.183,-524.044 981.989,-528.054 982.35,-521.063"/>
<text text-anchor="middle" x="1167" y="-518.985" font-family="Helvetica,sans-Serif" font-size="10.00"> myWorkspace</text>
</g>
<!-- Node22 -->
<g id="node22" class="node"><title>Node22</title>
<g id="a_node22"><a xlink:href="../../de/d0a/classview_1_1_drawer.html" target="_top" xlink:title="view.Drawer">
<polygon fill="white" stroke="black" points="1130.5,-446.485 1130.5,-465.485 1203.5,-465.485 1203.5,-446.485 1130.5,-446.485"/>
<text text-anchor="middle" x="1167" y="-453.485" font-family="Helvetica,sans-Serif" font-size="10.00">view.Drawer</text>
</a>
</g>
</g>
<!-- Node15&#45;&gt;Node22 -->
<g id="edge26" class="edge"><title>Node15&#45;&gt;Node22</title>
<path fill="none" stroke="#9a32cd" stroke-dasharray="5,2" d="M949.487,-504.346C960.971,-496.735 975.666,-488.138 990,-482.985 1015.16,-473.938 1086.69,-464.788 1130.43,-459.806"/>
<polygon fill="#9a32cd" stroke="#9a32cd" points="947.294,-501.607 941.033,-510.154 951.257,-507.376 947.294,-501.607"/>
<text text-anchor="middle" x="1051" y="-485.985" font-family="Helvetica,sans-Serif" font-size="10.00"> myWorkspace</text>
</g>
<!-- Node15&#45;&gt;Node25 -->
<g id="edge31" class="edge"><title>Node15&#45;&gt;Node25</title>
<path fill="none" stroke="#9a32cd" stroke-dasharray="5,2" d="M980.01,-531.391C983.383,-531.976 986.734,-532.514 990,-532.985 1067.67,-544.17 1087.53,-546.985 1166,-546.985 1166,-546.985 1166,-546.985 1797,-546.985 1874.15,-546.985 1899.14,-522.998 1950,-464.985 1992.69,-416.285 2007.67,-335.794 2011.73,-307.88"/>
<polygon fill="#9a32cd" stroke="#9a32cd" points="980.363,-527.897 969.893,-529.523 979.091,-534.781 980.363,-527.897"/>
<text text-anchor="middle" x="1505" y="-549.985" font-family="Helvetica,sans-Serif" font-size="10.00"> myWorkspace</text>
</g>
<!-- Node16 -->
<g id="node16" class="node"><title>Node16</title>
<polygon fill="white" stroke="#bfbfbf" points="668.5,-613.485 668.5,-632.485 735.5,-632.485 735.5,-613.485 668.5,-613.485"/>
<text text-anchor="middle" x="702" y="-620.485" font-family="Helvetica,sans-Serif" font-size="10.00">StackPane</text>
</g>
<!-- Node16&#45;&gt;Node15 -->
<g id="edge17" class="edge"><title>Node16&#45;&gt;Node15</title>
<path fill="none" stroke="midnightblue" d="M745.908,-623.477C780.029,-622.073 827.869,-615.965 864,-594.985 891.466,-579.036 912.028,-546.064 921.014,-529.673"/>
<polygon fill="midnightblue" stroke="midnightblue" points="745.681,-619.982 735.787,-623.773 745.885,-626.979 745.681,-619.982"/>
</g>
<!-- Node17 -->
<g id="node17" class="node"><title>Node17</title>
<g id="a_node17"><a xlink:href="../../d8/df7/classview_1_1_turtle_view.html" target="_top" xlink:title="view.TurtleView">
<polygon fill="white" stroke="black" points="659,-696.485 659,-715.485 745,-715.485 745,-696.485 659,-696.485"/>
<text text-anchor="middle" x="702" y="-703.485" font-family="Helvetica,sans-Serif" font-size="10.00">view.TurtleView</text>
</a>
</g>
</g>
<!-- Node17&#45;&gt;Node15 -->
<g id="edge19" class="edge"><title>Node17&#45;&gt;Node15</title>
<path fill="none" stroke="#9a32cd" stroke-dasharray="5,2" d="M739.876,-692.795C774.924,-678.862 827.55,-654.16 864,-619.985 893.058,-592.74 913.821,-548.979 922.067,-529.671"/>
<polygon fill="#9a32cd" stroke="#9a32cd" points="738.541,-689.558 730.484,-696.438 741.073,-696.084 738.541,-689.558"/>
<text text-anchor="middle" x="826" y="-671.985" font-family="Helvetica,sans-Serif" font-size="10.00"> myActiveTurtle</text>
</g>
<!-- Node18 -->
<g id="node18" class="node"><title>Node18</title>
<polygon fill="white" stroke="#bfbfbf" points="375,-696.485 375,-715.485 443,-715.485 443,-696.485 375,-696.485"/>
<text text-anchor="middle" x="409" y="-703.485" font-family="Helvetica,sans-Serif" font-size="10.00">ImageView</text>
</g>
<!-- Node18&#45;&gt;Node17 -->
<g id="edge20" class="edge"><title>Node18&#45;&gt;Node17</title>
<path fill="none" stroke="midnightblue" d="M453.27,-705.985C508.553,-705.985 603.638,-705.985 658.533,-705.985"/>
<polygon fill="midnightblue" stroke="midnightblue" points="453.098,-702.485 443.098,-705.985 453.098,-709.485 453.098,-702.485"/>
</g>
<!-- Node19 -->
<g id="node19" class="node"><title>Node19</title>
<polygon fill="white" stroke="#bfbfbf" points="634,-516.985 634,-546.985 770,-546.985 770,-516.985 634,-516.985"/>
<text text-anchor="start" x="642" y="-534.985" font-family="Helvetica,sans-Serif" font-size="10.00">Map&lt; Integer, view.Turtle</text>
<text text-anchor="middle" x="702" y="-523.985" font-family="Helvetica,sans-Serif" font-size="10.00">View &gt;</text>
</g>
<!-- Node19&#45;&gt;Node15 -->
<g id="edge21" class="edge"><title>Node19&#45;&gt;Node15</title>
<path fill="none" stroke="#9a32cd" stroke-dasharray="5,2" d="M780.561,-527.811C814.444,-525.988 852.949,-523.916 881.825,-522.362"/>
<polygon fill="#9a32cd" stroke="#9a32cd" points="780.007,-524.336 770.21,-528.368 780.383,-531.325 780.007,-524.336"/>
<text text-anchor="middle" x="826" y="-530.985" font-family="Helvetica,sans-Serif" font-size="10.00"> myTurtles</text>
</g>
<!-- Node20 -->
<g id="node20" class="node"><title>Node20</title>
<polygon fill="white" stroke="#bfbfbf" points="679,-478.485 679,-497.485 725,-497.485 725,-478.485 679,-478.485"/>
<text text-anchor="middle" x="702" y="-485.485" font-family="Helvetica,sans-Serif" font-size="10.00">Group</text>
</g>
<!-- Node20&#45;&gt;Node15 -->
<g id="edge22" class="edge"><title>Node20&#45;&gt;Node15</title>
<path fill="none" stroke="#9a32cd" stroke-dasharray="5,2" d="M735.458,-491.775C768.018,-495.681 819.57,-502.149 864,-508.985 869.727,-509.866 875.739,-510.853 881.675,-511.866"/>
<polygon fill="#9a32cd" stroke="#9a32cd" points="735.525,-488.258 725.182,-490.551 734.698,-495.209 735.525,-488.258"/>
<text text-anchor="middle" x="826" y="-511.985" font-family="Helvetica,sans-Serif" font-size="10.00"> myLines</text>
</g>
<!-- Node21 -->
<g id="node21" class="node"><title>Node21</title>
<polygon fill="white" stroke="#bfbfbf" points="670.5,-440.485 670.5,-459.485 733.5,-459.485 733.5,-440.485 670.5,-440.485"/>
<text text-anchor="middle" x="702" y="-447.485" font-family="Helvetica,sans-Serif" font-size="10.00">Rectangle</text>
</g>
<!-- Node21&#45;&gt;Node15 -->
<g id="edge24" class="edge"><title>Node21&#45;&gt;Node15</title>
<path fill="none" stroke="#9a32cd" stroke-dasharray="5,2" d="M744.03,-454.977C777.192,-459.874 824.661,-468.858 864,-483.985 881.659,-490.775 900.205,-502.193 912.36,-510.35"/>
<polygon fill="#9a32cd" stroke="#9a32cd" points="744.186,-451.464 733.794,-453.528 743.204,-458.395 744.186,-451.464"/>
<text text-anchor="middle" x="826" y="-486.985" font-family="Helvetica,sans-Serif" font-size="10.00"> myBackground</text>
</g>
<!-- Node22&#45;&gt;Node14 -->
<g id="edge25" class="edge"><title>Node22&#45;&gt;Node14</title>
<path fill="none" stroke="#9a32cd" stroke-dasharray="5,2" d="M1193.57,-441.273C1237.61,-415.929 1326.59,-364.718 1363.44,-343.513"/>
<polygon fill="#9a32cd" stroke="#9a32cd" points="1191.56,-438.39 1184.64,-446.411 1195.05,-444.457 1191.56,-438.39"/>
<text text-anchor="middle" x="1262" y="-426.985" font-family="Helvetica,sans-Serif" font-size="10.00"> myDrawer</text>
</g>
<!-- Node22&#45;&gt;Node25 -->
<g id="edge44" class="edge"><title>Node22&#45;&gt;Node25</title>
<path fill="none" stroke="#9a32cd" stroke-dasharray="5,2" d="M1213.71,-460.751C1256.61,-464.808 1322.58,-469.985 1380,-469.985 1380,-469.985 1380,-469.985 1797,-469.985 1867.07,-469.985 1895.85,-476.442 1950,-431.985 1990.73,-398.547 2006.63,-332.734 2011.34,-307.839"/>
<polygon fill="#9a32cd" stroke="#9a32cd" points="1213.88,-457.251 1203.59,-459.773 1213.2,-464.218 1213.88,-457.251"/>
<text text-anchor="middle" x="1608" y="-472.985" font-family="Helvetica,sans-Serif" font-size="10.00"> drawer</text>
</g>
<!-- Node23 -->
<g id="node23" class="node"><title>Node23</title>
<polygon fill="white" stroke="#bfbfbf" points="906.5,-438.485 906.5,-457.485 947.5,-457.485 947.5,-438.485 906.5,-438.485"/>
<text text-anchor="middle" x="927" y="-445.485" font-family="Helvetica,sans-Serif" font-size="10.00">Color</text>
</g>
<!-- Node23&#45;&gt;Node22 -->
<g id="edge27" class="edge"><title>Node23&#45;&gt;Node22</title>
<path fill="none" stroke="#9a32cd" stroke-dasharray="5,2" d="M958.05,-447.012C994.513,-446.094 1057.84,-445.341 1112,-448.985 1117.94,-449.384 1124.23,-450.011 1130.33,-450.729"/>
<polygon fill="#9a32cd" stroke="#9a32cd" points="957.536,-443.525 947.636,-447.298 957.728,-450.522 957.536,-443.525"/>
<text text-anchor="middle" x="1051" y="-451.985" font-family="Helvetica,sans-Serif" font-size="10.00"> myColor</text>
</g>
<!-- Node24 -->
<g id="node24" class="node"><title>Node24</title>
<polygon fill="white" stroke="#bfbfbf" points="1320,-236.485 1320,-255.485 1442,-255.485 1442,-236.485 1320,-236.485"/>
<text text-anchor="middle" x="1381" y="-243.485" font-family="Helvetica,sans-Serif" font-size="10.00">Map&lt; String, String &gt;</text>
</g>
<!-- Node24&#45;&gt;Node11 -->
<g id="edge29" class="edge"><title>Node24&#45;&gt;Node11</title>
<path fill="none" stroke="#9a32cd" stroke-dasharray="5,2" d="M1452.14,-256.704C1482.37,-261.681 1518.04,-268.034 1550,-274.985 1557.4,-276.594 1565.28,-278.526 1572.75,-280.46"/>
<polygon fill="#9a32cd" stroke="#9a32cd" points="1452.55,-253.223 1442.11,-255.07 1451.42,-260.132 1452.55,-253.223"/>
<text text-anchor="middle" x="1505" y="-277.985" font-family="Helvetica,sans-Serif" font-size="10.00"> myCommandMap</text>
</g>
<!-- Node25&#45;&gt;Node11 -->
<g id="edge30" class="edge"><title>Node25&#45;&gt;Node11</title>
<path fill="none" stroke="#9a32cd" stroke-dasharray="5,2" d="M1966.02,-309.543C1960.65,-310.532 1955.22,-311.383 1950,-311.985 1824.61,-326.425 1789.92,-335.986 1666,-311.985 1653.09,-309.484 1639.31,-304.244 1628.54,-299.505"/>
<polygon fill="#9a32cd" stroke="#9a32cd" points="1967.12,-312.893 1976.24,-307.499 1965.75,-306.028 1967.12,-312.893"/>
<text text-anchor="middle" x="1796" y="-329.985" font-family="Helvetica,sans-Serif" font-size="10.00"> mySLogoView</text>
</g>
<!-- Node26 -->
<g id="node26" class="node"><title>Node26</title>
<polygon fill="white" stroke="#bfbfbf" points="1773.5,-191.485 1773.5,-210.485 1818.5,-210.485 1818.5,-191.485 1773.5,-191.485"/>
<text text-anchor="middle" x="1796" y="-198.485" font-family="Helvetica,sans-Serif" font-size="10.00">Stage</text>
</g>
<!-- Node26&#45;&gt;Node25 -->
<g id="edge32" class="edge"><title>Node26&#45;&gt;Node25</title>
<path fill="none" stroke="#9a32cd" stroke-dasharray="5,2" d="M1828.69,-204.118C1860.87,-208.353 1911.33,-217.958 1950,-238.985 1973.43,-251.726 1994.74,-275.273 2005.54,-288.439"/>
<polygon fill="#9a32cd" stroke="#9a32cd" points="1828.87,-200.614 1818.52,-202.878 1828.02,-207.562 1828.87,-200.614"/>
<text text-anchor="middle" x="1912" y="-241.985" font-family="Helvetica,sans-Serif" font-size="10.00"> myStage</text>
</g>
<!-- Node27&#45;&gt;Node25 -->
<g id="edge34" class="edge"><title>Node27&#45;&gt;Node25</title>
<path fill="none" stroke="#9a32cd" stroke-dasharray="5,2" d="M1839.65,-246.572C1870.6,-252.535 1913.31,-261.707 1950,-272.985 1964.06,-277.306 1979.41,-283.368 1991.44,-288.44"/>
<polygon fill="#9a32cd" stroke="#9a32cd" points="1840.1,-243.096 1829.63,-244.675 1838.8,-249.974 1840.1,-243.096"/>
<text text-anchor="middle" x="1912" y="-275.985" font-family="Helvetica,sans-Serif" font-size="10.00"> myEditor</text>
</g>
<!-- Node28 -->
<g id="node28" class="node"><title>Node28</title>
<polygon fill="white" stroke="#bfbfbf" points="1587,-115.485 1587,-134.485 1629,-134.485 1629,-115.485 1587,-115.485"/>
<text text-anchor="middle" x="1608" y="-122.485" font-family="Helvetica,sans-Serif" font-size="10.00">HBox</text>
</g>
<!-- Node28&#45;&gt;Node27 -->
<g id="edge35" class="edge"><title>Node28&#45;&gt;Node27</title>
<path fill="none" stroke="midnightblue" d="M1639.28,-129.115C1663.63,-133.959 1697.11,-144.288 1718,-165.985 1735.55,-184.21 1718.02,-202.188 1736,-219.985 1743.11,-227.025 1752.84,-231.458 1762.35,-234.248"/>
<polygon fill="midnightblue" stroke="midnightblue" points="1639.6,-125.617 1629.14,-127.306 1638.37,-132.508 1639.6,-125.617"/>
</g>
<!-- Node29 -->
<g id="node29" class="node"><title>Node29</title>
<polygon fill="white" stroke="#bfbfbf" points="1583.5,-191.485 1583.5,-210.485 1632.5,-210.485 1632.5,-191.485 1583.5,-191.485"/>
<text text-anchor="middle" x="1608" y="-198.485" font-family="Helvetica,sans-Serif" font-size="10.00">Button</text>
</g>
<!-- Node29&#45;&gt;Node27 -->
<g id="edge36" class="edge"><title>Node29&#45;&gt;Node27</title>
<path fill="none" stroke="#9a32cd" stroke-dasharray="5,2" d="M1642.66,-203.224C1664.36,-205.103 1693.07,-208.403 1718,-213.985 1726.23,-215.827 1727.99,-217.359 1736,-219.985 1745.51,-223.101 1755.9,-226.46 1765.27,-229.475"/>
<polygon fill="#9a32cd" stroke="#9a32cd" points="1642.87,-199.73 1632.62,-202.413 1642.31,-206.707 1642.87,-199.73"/>
<text text-anchor="middle" x="1692" y="-216.985" font-family="Helvetica,sans-Serif" font-size="10.00"> runButton</text>
</g>
<!-- Node30 -->
<g id="node30" class="node"><title>Node30</title>
<polygon fill="white" stroke="#bfbfbf" points="1579,-153.485 1579,-172.485 1637,-172.485 1637,-153.485 1579,-153.485"/>
<text text-anchor="middle" x="1608" y="-160.485" font-family="Helvetica,sans-Serif" font-size="10.00">TextArea</text>
</g>
<!-- Node30&#45;&gt;Node27 -->
<g id="edge38" class="edge"><title>Node30&#45;&gt;Node27</title>
<path fill="none" stroke="#9a32cd" stroke-dasharray="5,2" d="M1647.61,-165.769C1669.96,-169.021 1697.61,-176.01 1718,-190.985 1730.23,-199.963 1724.05,-210.643 1736,-219.985 1743.63,-225.949 1753.19,-230.068 1762.37,-232.902"/>
<polygon fill="#9a32cd" stroke="#9a32cd" points="1647.8,-162.266 1637.44,-164.489 1646.92,-169.211 1647.8,-162.266"/>
<text text-anchor="middle" x="1692" y="-193.985" font-family="Helvetica,sans-Serif" font-size="10.00"> textEditor</text>
</g>
<!-- Node31 -->
<g id="node31" class="node"><title>Node31</title>
<polygon fill="white" stroke="#bfbfbf" points="1736.5,-39.4846 1736.5,-58.4846 1855.5,-58.4846 1855.5,-39.4846 1736.5,-39.4846"/>
<text text-anchor="middle" x="1796" y="-46.4846" font-family="Helvetica,sans-Serif" font-size="10.00">Map&lt; String, Node &gt;</text>
</g>
<!-- Node31&#45;&gt;Node25 -->
<g id="edge40" class="edge"><title>Node31&#45;&gt;Node25</title>
<path fill="none" stroke="#9a32cd" stroke-dasharray="5,2" d="M1858.92,-38.7465C1889.57,-37.2137 1925.21,-41.2205 1950,-61.9846 1986.16,-92.2815 2007.06,-248.19 2011.9,-288.475"/>
<polygon fill="#9a32cd" stroke="#9a32cd" points="1858.47,-35.2694 1848.74,-39.4624 1858.96,-42.2521 1858.47,-35.2694"/>
<text text-anchor="middle" x="1912" y="-64.9846" font-family="Helvetica,sans-Serif" font-size="10.00"> variables</text>
</g>
<!-- Node32 -->
<g id="node32" class="node"><title>Node32</title>
<polygon fill="white" stroke="#bfbfbf" points="1755.5,-1.48461 1755.5,-20.4846 1836.5,-20.4846 1836.5,-1.48461 1755.5,-1.48461"/>
<text text-anchor="middle" x="1796" y="-8.48461" font-family="Helvetica,sans-Serif" font-size="10.00">Dimension2D</text>
</g>
<!-- Node32&#45;&gt;Node25 -->
<g id="edge43" class="edge"><title>Node32&#45;&gt;Node25</title>
<path fill="none" stroke="#9a32cd" stroke-dasharray="5,2" d="M1846.7,-1.37002C1879.8,2.02771 1922.18,0.163857 1950,-23.9846 1991.38,-59.8968 2008.63,-243.541 2012.25,-288.191"/>
<polygon fill="#9a32cd" stroke="#9a32cd" points="1846.26,2.10202 1836.75,-2.57456 1847.1,-4.84724 1846.26,2.10202"/>
<text text-anchor="middle" x="1912" y="-26.9846" font-family="Helvetica,sans-Serif" font-size="10.00"> myDimensions</text>
</g>
<!-- Node33 -->
<g id="node33" class="node"><title>Node33</title>
<polygon fill="white" stroke="#bfbfbf" points="340,-339.485 340,-358.485 478,-358.485 478,-339.485 340,-339.485"/>
<text text-anchor="middle" x="409" y="-346.485" font-family="Helvetica,sans-Serif" font-size="10.00">ObservableList&lt; String &gt;</text>
</g>
<!-- Node33&#45;&gt;Node1 -->
<g id="edge46" class="edge"><title>Node33&#45;&gt;Node1</title>
<path fill="none" stroke="#9a32cd" stroke-dasharray="5,2" d="M488.552,-346.826C527.084,-346.703 574.107,-347.947 616,-352.985 632.514,-354.97 650.53,-358.758 665.708,-362.431"/>
<polygon fill="#9a32cd" stroke="#9a32cd" points="488.414,-343.326 478.436,-346.89 488.458,-350.326 488.414,-343.326"/>
<text text-anchor="middle" x="565" y="-366.985" font-family="Helvetica,sans-Serif" font-size="10.00"> commandItems</text>
<text text-anchor="middle" x="565" y="-355.985" font-family="Helvetica,sans-Serif" font-size="10.00">historyItems</text>
</g>
</g>
</svg>
        <g id="navigator" transform="translate(0 0)" fill="#404254">
                <rect fill="#f2f5e9" fill-opacity="0.5" stroke="#606060" stroke-width=".5" x="0" y="0" width="60" height="60"/>
                <use id="zoomplus" xlink:href="#zoomPlus" x="17" y="9" onmousedown="handleZoom(evt,'in')"/>
                <use id="zoomminus" xlink:href="#zoomMin" x="42" y="9" onmousedown="handleZoom(evt,'out')"/>
                <use id="reset" xlink:href="#resetDef" x="30" y="36" onmousedown="handleReset()"/>
                <g id="arrowUp" xlink:href="#dirArrow" transform="translate(30 24)" onmousedown="handlePan(0,-1)">
                  <use xlink:href="#rim" fill="#404040">
                        <set attributeName="fill" to="#808080" begin="arrowUp.mouseover" end="arrowUp.mouseout"/>
                  </use>
                  <path fill="none" stroke="white" stroke-width="1.5" d="M0,-3.0v7 M-2.5,-0.5L0,-3.0L2.5,-0.5"/>
                </g>
                <g id="arrowRight" xlink:href="#dirArrow" transform="rotate(90) translate(36 -43)" onmousedown="handlePan(1,0)">
                  <use xlink:href="#rim" fill="#404040">
                        <set attributeName="fill" to="#808080" begin="arrowRight.mouseover" end="arrowRight.mouseout"/>
                  </use>
                  <path fill="none" stroke="white" stroke-width="1.5" d="M0,-3.0v7 M-2.5,-0.5L0,-3.0L2.5,-0.5"/>
                </g>
                <g id="arrowDown" xlink:href="#dirArrow" transform="rotate(180) translate(-30 -48)" onmousedown="handlePan(0,1)">
                  <use xlink:href="#rim" fill="#404040">
                        <set attributeName="fill" to="#808080" begin="arrowDown.mouseover" end="arrowDown.mouseout"/>
                  </use>
                  <path fill="none" stroke="white" stroke-width="1.5" d="M0,-3.0v7 M-2.5,-0.5L0,-3.0L2.5,-0.5"/>
                </g>
                <g id="arrowLeft" xlink:href="#dirArrow" transform="rotate(270) translate(-36 17)" onmousedown="handlePan(-1,0)">
                  <use xlink:href="#rim" fill="#404040">
                        <set attributeName="fill" to="#808080" begin="arrowLeft.mouseover" end="arrowLeft.mouseout"/>
                  </use>
                  <path fill="none" stroke="white" stroke-width="1.5" d="M0,-3.0v7 M-2.5,-0.5L0,-3.0L2.5,-0.5"/>
                </g>
        </g>
        <svg viewBox="0 0 15 15" width="100%" height="30px" preserveAspectRatio="xMaxYMin meet">
         <g id="arrow_out" transform="scale(0.3 0.3)">
          <a xlink:href="classview_1_1_side_bar__coll__graph_org.svg" target="_base">
           <rect id="button" ry="5" rx="5" y="6" x="6" height="38" width="38"
                fill="#f2f5e9" fill-opacity="0.5" stroke="#606060" stroke-width="1.0"/>
           <path id="arrow"
             d="M 11.500037,31.436501 C 11.940474,20.09759 22.043105,11.32322 32.158766,21.979434 L 37.068811,17.246167 C 37.068811,17.246167 37.088388,32 37.088388,32 L 22.160133,31.978069 C 22.160133,31.978069 26.997745,27.140456 26.997745,27.140456 C 18.528582,18.264221 13.291696,25.230495 11.500037,31.436501 z"
             style="fill:#404040;"/>
          </a>
         </g>
        </svg>
</svg>
