<?xml version="1.0" encoding="UTF-8" standalone="no"?>
<!DOCTYPE svg PUBLIC "-//W3C//DTD SVG 1.1//EN"
 "http://www.w3.org/Graphics/SVG/1.1/DTD/svg11.dtd">
<!-- Generated by graphviz version 2.36.0 (20140111.2315)
 -->
<!-- Title: view.SideBar Pages: 1 -->
<svg width="1878pt" height="539pt"
 viewBox="0.00 0.00 1878.00 539.00" xmlns="http://www.w3.org/2000/svg" xmlns:xlink="http://www.w3.org/1999/xlink">
<g id="graph0" class="graph" transform="scale(1 1) rotate(0) translate(4 535)">
<title>view.SideBar</title>
<polygon fill="white" stroke="none" points="-4,4 -4,-535 1874,-535 1874,4 -4,4"/>
<!-- Node1 -->
<g id="node1" class="node"><title>Node1</title>
<polygon fill="#bfbfbf" stroke="black" points="341.5,-137.5 341.5,-156.5 418.5,-156.5 418.5,-137.5 341.5,-137.5"/>
<text text-anchor="middle" x="380" y="-144.5" font-family="Helvetica,sans-Serif" font-size="10.00">view.SideBar</text>
</g>
<!-- Node3 -->
<g id="node3" class="node"><title>Node3</title>
<g id="a_node3"><a xlink:href="../../da/d64/classview_1_1_workspace.html" target="_top" xlink:title="view.Workspace">
<polygon fill="white" stroke="black" points="560,-257.5 560,-276.5 650,-276.5 650,-257.5 560,-257.5"/>
<text text-anchor="middle" x="605" y="-264.5" font-family="Helvetica,sans-Serif" font-size="10.00">view.Workspace</text>
</a>
</g>
</g>
<!-- Node1&#45;&gt;Node3 -->
<g id="edge7" class="edge"><title>Node1&#45;&gt;Node3</title>
<path fill="none" stroke="#9a32cd" stroke-dasharray="5,2" d="M428.944,-146.049C470.288,-146.28 525.817,-149.446 542,-164 570.389,-189.531 535.781,-218.484 560,-248 563.167,-251.859 567.266,-254.954 571.687,-257.429"/>
<polygon fill="#9a32cd" stroke="#9a32cd" points="428.771,-142.549 418.771,-146.049 428.771,-149.549 428.771,-142.549"/>
<text text-anchor="middle" x="504" y="-167" font-family="Helvetica,sans-Serif" font-size="10.00"> mySidebar</text>
</g>
<!-- Node21 -->
<g id="node21" class="node"><title>Node21</title>
<g id="a_node21"><a xlink:href="../../d6/de7/classview_1_1_s_logo_view.html" target="_top" xlink:title="view.SLogoView">
<polygon fill="white" stroke="black" points="1111.5,-219.5 1111.5,-238.5 1202.5,-238.5 1202.5,-219.5 1111.5,-219.5"/>
<text text-anchor="middle" x="1157" y="-226.5" font-family="Helvetica,sans-Serif" font-size="10.00">view.SLogoView</text>
</a>
</g>
</g>
<!-- Node1&#45;&gt;Node21 -->
<g id="edge38" class="edge"><title>Node1&#45;&gt;Node21</title>
<path fill="none" stroke="#9a32cd" stroke-dasharray="5,2" d="M429.156,-145.217C461.155,-144.323 504.1,-143.683 542,-145 773.285,-153.038 836.052,-139.653 1060,-198 1083.73,-204.182 1110.21,-212.874 1129.35,-219.481"/>
<polygon fill="#9a32cd" stroke="#9a32cd" points="428.638,-141.73 418.746,-145.527 428.846,-148.727 428.638,-141.73"/>
<text text-anchor="middle" x="703" y="-153" font-family="Helvetica,sans-Serif" font-size="10.00"> mySidebar</text>
</g>
<!-- Node23 -->
<g id="node23" class="node"><title>Node23</title>
<g id="a_node23"><a xlink:href="../../da/dc8/classview_1_1_editor.html" target="_top" xlink:title="view.Editor">
<polygon fill="white" stroke="black" points="1802.5,-231.5 1802.5,-250.5 1869.5,-250.5 1869.5,-231.5 1802.5,-231.5"/>
<text text-anchor="middle" x="1836" y="-238.5" font-family="Helvetica,sans-Serif" font-size="10.00">view.Editor</text>
</a>
</g>
</g>
<!-- Node1&#45;&gt;Node23 -->
<g id="edge31" class="edge"><title>Node1&#45;&gt;Node23</title>
<path fill="none" stroke="#9a32cd" stroke-dasharray="5,2" d="M392.108,-128.69C406.522,-106.388 433.688,-68.9767 466,-47 519.575,-10.5607 539.207,-0 604,-0 604,-0 604,-0 1631,-0 1754.34,-0 1818.46,-186.167 1832.18,-231.254"/>
<polygon fill="#9a32cd" stroke="#9a32cd" points="389.095,-126.906 386.733,-137.234 395.021,-130.633 389.095,-126.906"/>
<text text-anchor="middle" x="1157" y="-3" font-family="Helvetica,sans-Serif" font-size="10.00"> mySidebar</text>
</g>
<!-- Node2 -->
<g id="node2" class="node"><title>Node2</title>
<polygon fill="white" stroke="#bfbfbf" points="66.5,-63.5 66.5,-82.5 107.5,-82.5 107.5,-63.5 66.5,-63.5"/>
<text text-anchor="middle" x="87" y="-70.5" font-family="Helvetica,sans-Serif" font-size="10.00">VBox</text>
</g>
<!-- Node2&#45;&gt;Node1 -->
<g id="edge1" class="edge"><title>Node2&#45;&gt;Node1</title>
<path fill="none" stroke="midnightblue" d="M117.74,-78.3941C158.02,-85.9499 232.012,-100.716 294,-118 314.276,-123.654 336.805,-131.409 353.572,-137.477"/>
<polygon fill="midnightblue" stroke="midnightblue" points="118.252,-74.9295 107.781,-76.5446 116.974,-81.8118 118.252,-74.9295"/>
</g>
<!-- Node3&#45;&gt;Node1 -->
<g id="edge2" class="edge"><title>Node3&#45;&gt;Node1</title>
<path fill="none" stroke="#9a32cd" stroke-dasharray="5,2" d="M565.187,-252.328C563.342,-250.998 561.597,-249.558 560,-248 546.335,-234.669 555.929,-222.054 542,-209 531.92,-199.553 452.744,-171.519 409.303,-156.597"/>
<polygon fill="#9a32cd" stroke="#9a32cd" points="563.386,-255.329 573.762,-257.475 566.989,-249.327 563.386,-255.329"/>
<text text-anchor="middle" x="504" y="-212" font-family="Helvetica,sans-Serif" font-size="10.00"> myWorkspace</text>
</g>
<!-- Node3&#45;&gt;Node21 -->
<g id="edge23" class="edge"><title>Node3&#45;&gt;Node21</title>
<path fill="none" stroke="#9a32cd" stroke-dasharray="5,2" d="M650.108,-278.765C656.088,-280.038 662.17,-281.17 668,-282 706.761,-287.518 716.859,-285.111 756,-286 891.219,-289.072 929.439,-307.32 1060,-272 1088.91,-264.179 1120.18,-248.731 1138.92,-238.639"/>
<polygon fill="#9a32cd" stroke="#9a32cd" points="650.733,-275.318 640.207,-276.517 649.184,-282.144 650.733,-275.318"/>
<text text-anchor="middle" x="843" y="-297" font-family="Helvetica,sans-Serif" font-size="10.00"> myWorkspace</text>
</g>
<!-- Node29 -->
<g id="node29" class="node"><title>Node29</title>
<g id="a_node29"><a xlink:href="../../de/d0a/classview_1_1_drawer.html" target="_top" xlink:title="view.Drawer">
<polygon fill="white" stroke="black" points="806.5,-257.5 806.5,-276.5 879.5,-276.5 879.5,-257.5 806.5,-257.5"/>
<text text-anchor="middle" x="843" y="-264.5" font-family="Helvetica,sans-Serif" font-size="10.00">view.Drawer</text>
</a>
</g>
</g>
<!-- Node3&#45;&gt;Node29 -->
<g id="edge36" class="edge"><title>Node3&#45;&gt;Node29</title>
<path fill="none" stroke="#9a32cd" stroke-dasharray="5,2" d="M660.247,-267C705.062,-267 767.41,-267 806.202,-267"/>
<polygon fill="#9a32cd" stroke="#9a32cd" points="660.113,-263.5 650.113,-267 660.113,-270.5 660.113,-263.5"/>
<text text-anchor="middle" x="703" y="-270" font-family="Helvetica,sans-Serif" font-size="10.00"> myWorkspace</text>
</g>
<!-- Node4 -->
<g id="node4" class="node"><title>Node4</title>
<polygon fill="white" stroke="#bfbfbf" points="346.5,-279.5 346.5,-298.5 413.5,-298.5 413.5,-279.5 346.5,-279.5"/>
<text text-anchor="middle" x="380" y="-286.5" font-family="Helvetica,sans-Serif" font-size="10.00">StackPane</text>
</g>
<!-- Node4&#45;&gt;Node3 -->
<g id="edge3" class="edge"><title>Node4&#45;&gt;Node3</title>
<path fill="none" stroke="midnightblue" d="M423.849,-287.326C456.356,-285.752 502.102,-282.888 542,-278 547.751,-277.295 553.778,-276.411 559.721,-275.452"/>
<polygon fill="midnightblue" stroke="midnightblue" points="423.611,-283.833 413.783,-287.792 423.935,-290.825 423.611,-283.833"/>
</g>
<!-- Node5 -->
<g id="node5" class="node"><title>Node5</title>
<g id="a_node5"><a xlink:href="../../d8/df7/classview_1_1_turtle_view.html" target="_top" xlink:title="view.TurtleView">
<polygon fill="white" stroke="black" points="337,-317.5 337,-336.5 423,-336.5 423,-317.5 337,-317.5"/>
<text text-anchor="middle" x="380" y="-324.5" font-family="Helvetica,sans-Serif" font-size="10.00">view.TurtleView</text>
</a>
</g>
</g>
<!-- Node5&#45;&gt;Node3 -->
<g id="edge4" class="edge"><title>Node5&#45;&gt;Node3</title>
<path fill="none" stroke="#9a32cd" stroke-dasharray="5,2" d="M433.09,-320.312C465.022,-315.395 506.454,-307.538 542,-296 557.598,-290.937 574.396,-282.906 586.567,-276.577"/>
<polygon fill="#9a32cd" stroke="#9a32cd" points="432.45,-316.869 423.076,-321.806 433.483,-323.792 432.45,-316.869"/>
<text text-anchor="middle" x="504" y="-318" font-family="Helvetica,sans-Serif" font-size="10.00"> myActiveTurtle</text>
</g>
<!-- Node6 -->
<g id="node6" class="node"><title>Node6</title>
<polygon fill="white" stroke="#bfbfbf" points="53,-296.5 53,-315.5 121,-315.5 121,-296.5 53,-296.5"/>
<text text-anchor="middle" x="87" y="-303.5" font-family="Helvetica,sans-Serif" font-size="10.00">ImageView</text>
</g>
<!-- Node6&#45;&gt;Node5 -->
<g id="edge5" class="edge"><title>Node6&#45;&gt;Node5</title>
<path fill="none" stroke="midnightblue" d="M131.273,-308.76C172.967,-311.462 237.815,-315.778 294,-320 307.879,-321.043 323.026,-322.264 336.639,-323.391"/>
<polygon fill="midnightblue" stroke="midnightblue" points="131.396,-305.261 121.191,-308.109 130.945,-312.246 131.396,-305.261"/>
</g>
<!-- Node7 -->
<g id="node7" class="node"><title>Node7</title>
<polygon fill="white" stroke="#bfbfbf" points="312,-192 312,-222 448,-222 448,-192 312,-192"/>
<text text-anchor="start" x="320" y="-210" font-family="Helvetica,sans-Serif" font-size="10.00">Map&lt; Integer, view.Turtle</text>
<text text-anchor="middle" x="380" y="-199" font-family="Helvetica,sans-Serif" font-size="10.00">View &gt;</text>
</g>
<!-- Node7&#45;&gt;Node3 -->
<g id="edge6" class="edge"><title>Node7&#45;&gt;Node3</title>
<path fill="none" stroke="#9a32cd" stroke-dasharray="5,2" d="M458.242,-221.822C484.992,-227.6 515.024,-234.813 542,-243 555.364,-247.056 569.946,-252.639 581.609,-257.4"/>
<polygon fill="#9a32cd" stroke="#9a32cd" points="458.673,-218.335 448.163,-219.679 457.216,-225.182 458.673,-218.335"/>
<text text-anchor="middle" x="504" y="-246" font-family="Helvetica,sans-Serif" font-size="10.00"> myTurtles</text>
</g>
<!-- Node8 -->
<g id="node8" class="node"><title>Node8</title>
<polygon fill="white" stroke="#bfbfbf" points="348.5,-241.5 348.5,-260.5 411.5,-260.5 411.5,-241.5 348.5,-241.5"/>
<text text-anchor="middle" x="380" y="-248.5" font-family="Helvetica,sans-Serif" font-size="10.00">Rectangle</text>
</g>
<!-- Node8&#45;&gt;Node3 -->
<g id="edge8" class="edge"><title>Node8&#45;&gt;Node3</title>
<path fill="none" stroke="#9a32cd" stroke-dasharray="5,2" d="M421.992,-253.941C460.999,-256.74 519.528,-260.939 559.618,-263.816"/>
<polygon fill="#9a32cd" stroke="#9a32cd" points="421.764,-250.416 411.54,-253.191 421.263,-257.398 421.764,-250.416"/>
<text text-anchor="middle" x="504" y="-266" font-family="Helvetica,sans-Serif" font-size="10.00"> myBackground</text>
</g>
<!-- Node9 -->
<g id="node9" class="node"><title>Node9</title>
<polygon fill="white" stroke="#bfbfbf" points="0.5,-227.5 0.5,-246.5 173.5,-246.5 173.5,-227.5 0.5,-227.5"/>
<text text-anchor="middle" x="87" y="-234.5" font-family="Helvetica,sans-Serif" font-size="10.00">ObservableList&lt; view.Property &gt;</text>
</g>
<!-- Node9&#45;&gt;Node1 -->
<g id="edge9" class="edge"><title>Node9&#45;&gt;Node1</title>
<path fill="none" stroke="#9a32cd" stroke-dasharray="5,2" d="M183.898,-241.95C220.793,-239.676 261.761,-231.684 294,-211 306.768,-202.808 300.883,-192.322 312,-182 323.829,-171.017 339.758,-162.508 353.116,-156.631"/>
<polygon fill="#9a32cd" stroke="#9a32cd" points="183.43,-238.468 173.61,-242.445 183.767,-245.46 183.43,-238.468"/>
<text text-anchor="middle" x="243" y="-245" font-family="Helvetica,sans-Serif" font-size="10.00"> variablesList</text>
</g>
<!-- Node10 -->
<g id="node10" class="node"><title>Node10</title>
<polygon fill="white" stroke="#bfbfbf" points="40.5,-344.5 40.5,-363.5 133.5,-363.5 133.5,-344.5 40.5,-344.5"/>
<text text-anchor="middle" x="87" y="-351.5" font-family="Helvetica,sans-Serif" font-size="10.00">ResourceBundle</text>
</g>
<!-- Node10&#45;&gt;Node1 -->
<g id="edge10" class="edge"><title>Node10&#45;&gt;Node1</title>
<path fill="none" stroke="#9a32cd" stroke-dasharray="5,2" d="M131.066,-341.259C144.984,-336.672 160.341,-331.106 174,-325 229.964,-299.982 257.126,-305.971 294,-257 314.62,-229.615 290.916,-209.029 312,-182 321.121,-170.307 335.244,-162.118 348.176,-156.617"/>
<polygon fill="#9a32cd" stroke="#9a32cd" points="129.681,-338.027 121.232,-344.419 131.823,-344.692 129.681,-338.027"/>
<text text-anchor="middle" x="243" y="-321" font-family="Helvetica,sans-Serif" font-size="10.00"> myResources</text>
</g>
<!-- Node10&#45;&gt;Node21 -->
<g id="edge25" class="edge"><title>Node10&#45;&gt;Node21</title>
<path fill="none" stroke="#9a32cd" stroke-dasharray="5,2" d="M143.812,-353.7C214.607,-353.103 340.432,-351.32 448,-346 662.59,-335.387 715.911,-327.097 930,-309 987.817,-304.113 1005.58,-317.123 1060,-297 1095.63,-283.825 1130.16,-253.898 1146.38,-238.517"/>
<polygon fill="#9a32cd" stroke="#9a32cd" points="143.747,-350.2 133.775,-353.779 143.803,-357.2 143.747,-350.2"/>
<text text-anchor="middle" x="605" y="-343" font-family="Helvetica,sans-Serif" font-size="10.00"> myResources</text>
</g>
<!-- Node11 -->
<g id="node11" class="node"><title>Node11</title>
<polygon fill="white" stroke="#bfbfbf" points="13,-182.5 13,-201.5 161,-201.5 161,-182.5 13,-182.5"/>
<text text-anchor="middle" x="87" y="-189.5" font-family="Helvetica,sans-Serif" font-size="10.00">TableView&lt; view.Property &gt;</text>
</g>
<!-- Node11&#45;&gt;Node1 -->
<g id="edge11" class="edge"><title>Node11&#45;&gt;Node1</title>
<path fill="none" stroke="#9a32cd" stroke-dasharray="5,2" d="M171.742,-186.075C209.325,-182.643 254.093,-177.482 294,-170 312.181,-166.591 332.165,-161.267 348.185,-156.599"/>
<polygon fill="#9a32cd" stroke="#9a32cd" points="170.994,-182.628 161.342,-186.998 171.613,-189.601 170.994,-182.628"/>
<text text-anchor="middle" x="243" y="-199" font-family="Helvetica,sans-Serif" font-size="10.00"> turtlePropertiesTable</text>
<text text-anchor="middle" x="243" y="-188" font-family="Helvetica,sans-Serif" font-size="10.00">variablesTable</text>
</g>
<!-- Node12 -->
<g id="node12" class="node"><title>Node12</title>
<g id="a_node12"><a xlink:href="../../d4/dd9/classcontroller_1_1_s_logo_controller.html" target="_top" xlink:title="controller.SLogoController">
<polygon fill="white" stroke="black" points="1560,-211.5 1560,-230.5 1700,-230.5 1700,-211.5 1560,-211.5"/>
<text text-anchor="middle" x="1630" y="-218.5" font-family="Helvetica,sans-Serif" font-size="10.00">controller.SLogoController</text>
</a>
</g>
</g>
<!-- Node12&#45;&gt;Node1 -->
<g id="edge12" class="edge"><title>Node12&#45;&gt;Node1</title>
<path fill="none" stroke="#9a32cd" stroke-dasharray="5,2" d="M1620.23,-202.182C1597.1,-155.663 1529.65,-39 1435,-39 604,-39 604,-39 604,-39 514.095,-39 422.354,-110.984 391.699,-137.416"/>
<polygon fill="#9a32cd" stroke="#9a32cd" points="1617.09,-203.737 1624.6,-211.215 1623.39,-200.689 1617.09,-203.737"/>
<text text-anchor="middle" x="1004" y="-42" font-family="Helvetica,sans-Serif" font-size="10.00"> myController</text>
</g>
<!-- Node12&#45;&gt;Node21 -->
<g id="edge33" class="edge"><title>Node12&#45;&gt;Node21</title>
<path fill="none" stroke="#9a32cd" stroke-dasharray="5,2" d="M1549.62,-222.348C1449.96,-224.041 1282.43,-226.886 1202.74,-228.24"/>
<polygon fill="#9a32cd" stroke="#9a32cd" points="1549.7,-225.848 1559.64,-222.178 1549.58,-218.849 1549.7,-225.848"/>
<text text-anchor="middle" x="1434" y="-228" font-family="Helvetica,sans-Serif" font-size="10.00"> myController</text>
</g>
<!-- Node12&#45;&gt;Node23 -->
<g id="edge29" class="edge"><title>Node12&#45;&gt;Node23</title>
<path fill="none" stroke="#9a32cd" stroke-dasharray="5,2" d="M1710.15,-224.232C1733.96,-225.727 1760.09,-227.888 1784,-231 1789.99,-231.78 1796.34,-232.837 1802.45,-233.972"/>
<polygon fill="#9a32cd" stroke="#9a32cd" points="1710.3,-220.735 1700.11,-223.632 1709.88,-227.723 1710.3,-220.735"/>
<text text-anchor="middle" x="1751" y="-234" font-family="Helvetica,sans-Serif" font-size="10.00"> myController</text>
</g>
<!-- Node13 -->
<g id="node13" class="node"><title>Node13</title>
<g id="a_node13"><a xlink:href="../../dc/df5/classmodel_1_1_parser.html" target="_top" xlink:title="model.Parser">
<polygon fill="white" stroke="black" points="1394,-368.5 1394,-387.5 1474,-387.5 1474,-368.5 1394,-368.5"/>
<text text-anchor="middle" x="1434" y="-375.5" font-family="Helvetica,sans-Serif" font-size="10.00">model.Parser</text>
</a>
</g>
</g>
<!-- Node13&#45;&gt;Node12 -->
<g id="edge13" class="edge"><title>Node13&#45;&gt;Node12</title>
<path fill="none" stroke="#9a32cd" stroke-dasharray="5,2" d="M1446.48,-359.702C1466.07,-330.011 1508.83,-271.497 1560,-240 1566.24,-236.157 1573.27,-233.077 1580.4,-230.611"/>
<polygon fill="#9a32cd" stroke="#9a32cd" points="1443.44,-357.959 1440.95,-368.258 1449.32,-361.757 1443.44,-357.959"/>
<text text-anchor="middle" x="1517" y="-300" font-family="Helvetica,sans-Serif" font-size="10.00"> myParser</text>
</g>
<!-- Node14 -->
<g id="node14" class="node"><title>Node14</title>
<polygon fill="white" stroke="#bfbfbf" points="813,-383.5 813,-402.5 873,-402.5 873,-383.5 813,-383.5"/>
<text text-anchor="middle" x="843" y="-390.5" font-family="Helvetica,sans-Serif" font-size="10.00">Observer</text>
</g>
<!-- Node14&#45;&gt;Node13 -->
<g id="edge14" class="edge"><title>Node14&#45;&gt;Node13</title>
<path fill="none" stroke="midnightblue" d="M883.274,-394.176C971.513,-396.446 1192.14,-400.056 1376,-386 1381.78,-385.558 1387.87,-384.906 1393.82,-384.161"/>
<polygon fill="midnightblue" stroke="midnightblue" points="883.27,-390.674 873.181,-393.907 883.084,-397.672 883.27,-390.674"/>
</g>
<!-- Node14&#45;&gt;Node21 -->
<g id="edge22" class="edge"><title>Node14&#45;&gt;Node21</title>
<path fill="none" stroke="midnightblue" d="M883.58,-391.148C937.85,-387.942 1031.85,-379.798 1060,-361 1072.93,-352.365 1069.26,-343.863 1078,-331 1101.92,-295.777 1133.57,-256.335 1148.09,-238.576"/>
<polygon fill="midnightblue" stroke="midnightblue" points="883.076,-387.671 873.287,-391.725 883.468,-394.66 883.076,-387.671"/>
</g>
<!-- Node15 -->
<g id="node15" class="node"><title>Node15</title>
<polygon fill="white" stroke="#bfbfbf" points="1101,-341 1101,-371 1213,-371 1213,-341 1101,-341"/>
<text text-anchor="start" x="1109" y="-359" font-family="Helvetica,sans-Serif" font-size="10.00">List&lt; Entry&lt; String,</text>
<text text-anchor="middle" x="1157" y="-348" font-family="Helvetica,sans-Serif" font-size="10.00"> Pattern &gt; &gt;</text>
</g>
<!-- Node15&#45;&gt;Node13 -->
<g id="edge15" class="edge"><title>Node15&#45;&gt;Node13</title>
<path fill="none" stroke="#9a32cd" stroke-dasharray="5,2" d="M1223.31,-361.225C1276.33,-365.467 1349.35,-371.308 1393.75,-374.86"/>
<polygon fill="#9a32cd" stroke="#9a32cd" points="1223.57,-357.734 1213.32,-360.426 1223.01,-364.712 1223.57,-357.734"/>
<text text-anchor="middle" x="1315" y="-377" font-family="Helvetica,sans-Serif" font-size="10.00"> myPatterns</text>
</g>
<!-- Node16 -->
<g id="node16" class="node"><title>Node16</title>
<g id="a_node16"><a xlink:href="../../d1/dca/classmodel_1_1_execution_environment.html" target="_top" xlink:title="model.ExecutionEnvironment">
<polygon fill="white" stroke="black" points="1078.5,-466.5 1078.5,-485.5 1235.5,-485.5 1235.5,-466.5 1078.5,-466.5"/>
<text text-anchor="middle" x="1157" y="-473.5" font-family="Helvetica,sans-Serif" font-size="10.00">model.ExecutionEnvironment</text>
</a>
</g>
</g>
<!-- Node16&#45;&gt;Node13 -->
<g id="edge16" class="edge"><title>Node16&#45;&gt;Node13</title>
<path fill="none" stroke="#9a32cd" stroke-dasharray="5,2" d="M1245.83,-481.782C1287.63,-480.808 1336.9,-473.974 1376,-452 1402.58,-437.062 1420.86,-404.156 1428.7,-387.728"/>
<polygon fill="#9a32cd" stroke="#9a32cd" points="1245.61,-478.285 1235.65,-481.909 1245.69,-485.284 1245.61,-478.285"/>
<text text-anchor="middle" x="1315" y="-485" font-family="Helvetica,sans-Serif" font-size="10.00"> myExecutionParameters</text>
</g>
<!-- Node17 -->
<g id="node17" class="node"><title>Node17</title>
<polygon fill="white" stroke="#bfbfbf" points="807.5,-511.5 807.5,-530.5 878.5,-530.5 878.5,-511.5 807.5,-511.5"/>
<text text-anchor="middle" x="843" y="-518.5" font-family="Helvetica,sans-Serif" font-size="10.00">Observable</text>
</g>
<!-- Node17&#45;&gt;Node16 -->
<g id="edge17" class="edge"><title>Node17&#45;&gt;Node16</title>
<path fill="none" stroke="midnightblue" d="M888.865,-515.398C932.594,-509.838 1000.94,-500.884 1060,-492 1073.2,-490.014 1087.39,-487.731 1100.71,-485.522"/>
<polygon fill="midnightblue" stroke="midnightblue" points="888.321,-511.938 878.84,-516.667 889.201,-518.883 888.321,-511.938"/>
</g>
<!-- Node18 -->
<g id="node18" class="node"><title>Node18</title>
<polygon fill="white" stroke="#bfbfbf" points="756,-462 756,-492 930,-492 930,-462 756,-462"/>
<text text-anchor="start" x="764" y="-480" font-family="Helvetica,sans-Serif" font-size="10.00">Map&lt; String, model.instructions.</text>
<text text-anchor="middle" x="843" y="-469" font-family="Helvetica,sans-Serif" font-size="10.00">Instruction &gt;</text>
</g>
<!-- Node18&#45;&gt;Node16 -->
<g id="edge18" class="edge"><title>Node18&#45;&gt;Node16</title>
<path fill="none" stroke="#9a32cd" stroke-dasharray="5,2" d="M940.305,-476.691C984.685,-476.549 1036.65,-476.383 1078.46,-476.249"/>
<polygon fill="#9a32cd" stroke="#9a32cd" points="940.07,-473.192 930.081,-476.724 940.092,-480.192 940.07,-473.192"/>
<text text-anchor="middle" x="1004" y="-480" font-family="Helvetica,sans-Serif" font-size="10.00"> myUserInstructionMap</text>
</g>
<!-- Node19 -->
<g id="node19" class="node"><title>Node19</title>
<polygon fill="white" stroke="#bfbfbf" points="779,-423.5 779,-442.5 907,-442.5 907,-423.5 779,-423.5"/>
<text text-anchor="middle" x="843" y="-430.5" font-family="Helvetica,sans-Serif" font-size="10.00">Map&lt; String, Double &gt;</text>
</g>
<!-- Node19&#45;&gt;Node16 -->
<g id="edge19" class="edge"><title>Node19&#45;&gt;Node16</title>
<path fill="none" stroke="#9a32cd" stroke-dasharray="5,2" d="M917.446,-442.65C959.248,-448.196 1012.58,-455.359 1060,-462 1070.17,-463.425 1080.95,-464.966 1091.47,-466.486"/>
<polygon fill="#9a32cd" stroke="#9a32cd" points="917.724,-439.157 907.351,-441.313 916.804,-446.096 917.724,-439.157"/>
<text text-anchor="middle" x="1004" y="-465" font-family="Helvetica,sans-Serif" font-size="10.00"> myVariableMap</text>
</g>
<!-- Node20 -->
<g id="node20" class="node"><title>Node20</title>
<polygon fill="white" stroke="#bfbfbf" points="1096,-428.5 1096,-447.5 1218,-447.5 1218,-428.5 1096,-428.5"/>
<text text-anchor="middle" x="1157" y="-435.5" font-family="Helvetica,sans-Serif" font-size="10.00">Map&lt; String, String &gt;</text>
</g>
<!-- Node20&#45;&gt;Node13 -->
<g id="edge20" class="edge"><title>Node20&#45;&gt;Node13</title>
<path fill="none" stroke="#9a32cd" stroke-dasharray="5,2" d="M1228.58,-438.239C1272.15,-436.45 1328.59,-430.585 1376,-414 1393.01,-408.049 1410.18,-396.23 1421.17,-387.757"/>
<polygon fill="#9a32cd" stroke="#9a32cd" points="1228.23,-434.749 1218.36,-438.595 1228.47,-441.745 1228.23,-434.749"/>
<text text-anchor="middle" x="1315" y="-440" font-family="Helvetica,sans-Serif" font-size="10.00"> myCommandMap</text>
</g>
<!-- Node21&#45;&gt;Node13 -->
<g id="edge21" class="edge"><title>Node21&#45;&gt;Node13</title>
<path fill="none" stroke="#9a32cd" stroke-dasharray="5,2" d="M1184.53,-243.377C1240.24,-273.557 1368.09,-342.829 1415.17,-368.339"/>
<polygon fill="#9a32cd" stroke="#9a32cd" points="1186.08,-240.234 1175.62,-238.547 1182.75,-246.389 1186.08,-240.234"/>
<text text-anchor="middle" x="1315" y="-349" font-family="Helvetica,sans-Serif" font-size="10.00"> mySLogoView</text>
</g>
<!-- Node22 -->
<g id="node22" class="node"><title>Node22</title>
<polygon fill="white" stroke="#bfbfbf" points="820.5,-105.5 820.5,-124.5 865.5,-124.5 865.5,-105.5 820.5,-105.5"/>
<text text-anchor="middle" x="843" y="-112.5" font-family="Helvetica,sans-Serif" font-size="10.00">Stage</text>
</g>
<!-- Node22&#45;&gt;Node21 -->
<g id="edge24" class="edge"><title>Node22&#45;&gt;Node21</title>
<path fill="none" stroke="#9a32cd" stroke-dasharray="5,2" d="M875.854,-109.929C919.611,-104.47 999.74,-99.9653 1060,-128 1103.65,-148.307 1137.45,-198.073 1150.33,-219.228"/>
<polygon fill="#9a32cd" stroke="#9a32cd" points="875.248,-106.479 865.804,-111.281 876.181,-113.416 875.248,-106.479"/>
<text text-anchor="middle" x="1004" y="-131" font-family="Helvetica,sans-Serif" font-size="10.00"> myStage</text>
</g>
<!-- Node23&#45;&gt;Node21 -->
<g id="edge26" class="edge"><title>Node23&#45;&gt;Node21</title>
<path fill="none" stroke="#9a32cd" stroke-dasharray="5,2" d="M1803.31,-227.719C1796.98,-225.307 1790.32,-222.943 1784,-221 1747.41,-209.759 1738.04,-206.248 1700,-202 1516.25,-181.478 1295.7,-208.288 1202.76,-221.92"/>
<polygon fill="#9a32cd" stroke="#9a32cd" points="1802.33,-231.093 1812.92,-231.497 1804.89,-224.579 1802.33,-231.093"/>
<text text-anchor="middle" x="1517" y="-199" font-family="Helvetica,sans-Serif" font-size="10.00"> myEditor</text>
</g>
<!-- Node24 -->
<g id="node24" class="node"><title>Node24</title>
<polygon fill="white" stroke="#bfbfbf" points="1609,-325.5 1609,-344.5 1651,-344.5 1651,-325.5 1609,-325.5"/>
<text text-anchor="middle" x="1630" y="-332.5" font-family="Helvetica,sans-Serif" font-size="10.00">HBox</text>
</g>
<!-- Node24&#45;&gt;Node23 -->
<g id="edge27" class="edge"><title>Node24&#45;&gt;Node23</title>
<path fill="none" stroke="midnightblue" d="M1661.23,-333.311C1693.65,-330.317 1745.63,-322.016 1784,-299 1804.24,-286.861 1820.75,-263.999 1829.1,-250.896"/>
<polygon fill="midnightblue" stroke="midnightblue" points="1660.72,-329.841 1651.03,-334.136 1661.28,-336.818 1660.72,-329.841"/>
</g>
<!-- Node25 -->
<g id="node25" class="node"><title>Node25</title>
<polygon fill="white" stroke="#bfbfbf" points="1605.5,-287.5 1605.5,-306.5 1654.5,-306.5 1654.5,-287.5 1605.5,-287.5"/>
<text text-anchor="middle" x="1630" y="-294.5" font-family="Helvetica,sans-Serif" font-size="10.00">Button</text>
</g>
<!-- Node25&#45;&gt;Node23 -->
<g id="edge28" class="edge"><title>Node25&#45;&gt;Node23</title>
<path fill="none" stroke="#9a32cd" stroke-dasharray="5,2" d="M1664.6,-293.144C1696.08,-288.897 1744.12,-280.774 1784,-267 1796.21,-262.782 1809.17,-256.144 1818.97,-250.63"/>
<polygon fill="#9a32cd" stroke="#9a32cd" points="1664.07,-289.684 1654.6,-294.438 1664.96,-296.626 1664.07,-289.684"/>
<text text-anchor="middle" x="1751" y="-287" font-family="Helvetica,sans-Serif" font-size="10.00"> runButton</text>
</g>
<!-- Node26 -->
<g id="node26" class="node"><title>Node26</title>
<polygon fill="white" stroke="#bfbfbf" points="1601,-249.5 1601,-268.5 1659,-268.5 1659,-249.5 1601,-249.5"/>
<text text-anchor="middle" x="1630" y="-256.5" font-family="Helvetica,sans-Serif" font-size="10.00">TextArea</text>
</g>
<!-- Node26&#45;&gt;Node23 -->
<g id="edge30" class="edge"><title>Node26&#45;&gt;Node23</title>
<path fill="none" stroke="#9a32cd" stroke-dasharray="5,2" d="M1669.64,-255.59C1708.08,-252.199 1766.38,-247.055 1802.5,-243.868"/>
<polygon fill="#9a32cd" stroke="#9a32cd" points="1669.02,-252.132 1659.37,-256.497 1669.63,-259.105 1669.02,-252.132"/>
<text text-anchor="middle" x="1751" y="-255" font-family="Helvetica,sans-Serif" font-size="10.00"> textEditor</text>
</g>
<!-- Node27 -->
<g id="node27" class="node"><title>Node27</title>
<polygon fill="white" stroke="#bfbfbf" points="783.5,-67.5 783.5,-86.5 902.5,-86.5 902.5,-67.5 783.5,-67.5"/>
<text text-anchor="middle" x="843" y="-74.5" font-family="Helvetica,sans-Serif" font-size="10.00">Map&lt; String, Node &gt;</text>
</g>
<!-- Node27&#45;&gt;Node21 -->
<g id="edge32" class="edge"><title>Node27&#45;&gt;Node21</title>
<path fill="none" stroke="#9a32cd" stroke-dasharray="5,2" d="M913.096,-67.1792C957.786,-64.2051 1015.67,-66.9463 1060,-92 1112.59,-121.725 1143.1,-193.588 1152.69,-219.492"/>
<polygon fill="#9a32cd" stroke="#9a32cd" points="912.604,-63.7067 902.905,-67.9703 913.146,-70.6857 912.604,-63.7067"/>
<text text-anchor="middle" x="1004" y="-95" font-family="Helvetica,sans-Serif" font-size="10.00"> variables</text>
</g>
<!-- Node28 -->
<g id="node28" class="node"><title>Node28</title>
<polygon fill="white" stroke="#bfbfbf" points="802.5,-219.5 802.5,-238.5 883.5,-238.5 883.5,-219.5 802.5,-219.5"/>
<text text-anchor="middle" x="843" y="-226.5" font-family="Helvetica,sans-Serif" font-size="10.00">Dimension2D</text>
</g>
<!-- Node28&#45;&gt;Node21 -->
<g id="edge34" class="edge"><title>Node28&#45;&gt;Node21</title>
<path fill="none" stroke="#9a32cd" stroke-dasharray="5,2" d="M893.872,-229C953.863,-229 1053.67,-229 1111.27,-229"/>
<polygon fill="#9a32cd" stroke="#9a32cd" points="893.515,-225.5 883.515,-229 893.515,-232.5 893.515,-225.5"/>
<text text-anchor="middle" x="1004" y="-232" font-family="Helvetica,sans-Serif" font-size="10.00"> myDimensions</text>
</g>
<!-- Node29&#45;&gt;Node21 -->
<g id="edge35" class="edge"><title>Node29&#45;&gt;Node21</title>
<path fill="none" stroke="#9a32cd" stroke-dasharray="5,2" d="M889.631,-262.387C933.386,-257.856 1001.28,-250.542 1060,-243 1076.71,-240.854 1095.01,-238.249 1111.11,-235.87"/>
<polygon fill="#9a32cd" stroke="#9a32cd" points="889.179,-258.915 879.591,-263.422 889.897,-265.878 889.179,-258.915"/>
<text text-anchor="middle" x="1004" y="-260" font-family="Helvetica,sans-Serif" font-size="10.00"> drawer</text>
</g>
<!-- Node30 -->
<g id="node30" class="node"><title>Node30</title>
<polygon fill="white" stroke="#bfbfbf" points="584.5,-219.5 584.5,-238.5 625.5,-238.5 625.5,-219.5 584.5,-219.5"/>
<text text-anchor="middle" x="605" y="-226.5" font-family="Helvetica,sans-Serif" font-size="10.00">Color</text>
</g>
<!-- Node30&#45;&gt;Node29 -->
<g id="edge37" class="edge"><title>Node30&#45;&gt;Node29</title>
<path fill="none" stroke="#9a32cd" stroke-dasharray="5,2" d="M635.644,-233.773C679.016,-240.757 759.661,-253.742 806.256,-261.245"/>
<polygon fill="#9a32cd" stroke="#9a32cd" points="636.145,-230.309 625.715,-232.174 635.032,-237.22 636.145,-230.309"/>
<text text-anchor="middle" x="703" y="-253" font-family="Helvetica,sans-Serif" font-size="10.00"> myColor</text>
</g>
<!-- Node31 -->
<g id="node31" class="node"><title>Node31</title>
<polygon fill="white" stroke="#bfbfbf" points="820,-181.5 820,-200.5 866,-200.5 866,-181.5 820,-181.5"/>
<text text-anchor="middle" x="843" y="-188.5" font-family="Helvetica,sans-Serif" font-size="10.00">Group</text>
</g>
<!-- Node31&#45;&gt;Node21 -->
<g id="edge39" class="edge"><title>Node31&#45;&gt;Node21</title>
<path fill="none" stroke="#9a32cd" stroke-dasharray="5,2" d="M876.091,-193.923C918.328,-197.882 994.852,-205.447 1060,-214 1076.73,-216.196 1095.03,-218.965 1111.13,-221.524"/>
<polygon fill="#9a32cd" stroke="#9a32cd" points="876.401,-190.436 866.12,-192.995 875.752,-197.406 876.401,-190.436"/>
<text text-anchor="middle" x="1004" y="-217" font-family="Helvetica,sans-Serif" font-size="10.00"> lines</text>
</g>
<!-- Node32 -->
<g id="node32" class="node"><title>Node32</title>
<polygon fill="white" stroke="#bfbfbf" points="18,-139.5 18,-158.5 156,-158.5 156,-139.5 18,-139.5"/>
<text text-anchor="middle" x="87" y="-146.5" font-family="Helvetica,sans-Serif" font-size="10.00">ObservableList&lt; String &gt;</text>
</g>
<!-- Node32&#45;&gt;Node1 -->
<g id="edge40" class="edge"><title>Node32&#45;&gt;Node1</title>
<path fill="none" stroke="#9a32cd" stroke-dasharray="5,2" d="M166.366,-148.211C175.016,-148.134 183.694,-148.062 192,-148 243.781,-147.613 303.629,-147.32 341.391,-147.154"/>
<polygon fill="#9a32cd" stroke="#9a32cd" points="166.218,-144.712 156.25,-148.302 166.281,-151.712 166.218,-144.712"/>
<text text-anchor="middle" x="243" y="-162" font-family="Helvetica,sans-Serif" font-size="10.00"> commandItems</text>
<text text-anchor="middle" x="243" y="-151" font-family="Helvetica,sans-Serif" font-size="10.00">historyItems</text>
</g>
<!-- Node33 -->
<g id="node33" class="node"><title>Node33</title>
<polygon fill="white" stroke="#bfbfbf" points="34,-101.5 34,-120.5 140,-120.5 140,-101.5 34,-101.5"/>
<text text-anchor="middle" x="87" y="-108.5" font-family="Helvetica,sans-Serif" font-size="10.00">ListView&lt; String &gt;</text>
</g>
<!-- Node33&#45;&gt;Node1 -->
<g id="edge41" class="edge"><title>Node33&#45;&gt;Node1</title>
<path fill="none" stroke="#9a32cd" stroke-dasharray="5,2" d="M150.262,-116.72C191.185,-120.708 245.865,-126.471 294,-133 309.561,-135.111 326.657,-137.845 341.41,-140.337"/>
<polygon fill="#9a32cd" stroke="#9a32cd" points="150.457,-113.222 140.167,-115.745 149.784,-120.19 150.457,-113.222"/>
<text text-anchor="middle" x="243" y="-136" font-family="Helvetica,sans-Serif" font-size="10.00"> historyList</text>
</g>
</g>
</svg>
