<?xml version="1.0" encoding="UTF-8" standalone="no"?>
<!DOCTYPE svg PUBLIC "-//W3C//DTD SVG 1.1//EN"
 "http://www.w3.org/Graphics/SVG/1.1/DTD/svg11.dtd">
<!-- Generated by graphviz version 2.36.0 (20140111.2315)
 -->
<!-- Title: view.ViewUpdater.towards Pages: 1 -->
<svg width="712pt" height="142pt"
 viewBox="0.00 0.00 712.00 142.00" xmlns="http://www.w3.org/2000/svg" xmlns:xlink="http://www.w3.org/1999/xlink">
<g id="graph0" class="graph" transform="scale(1 1) rotate(0) translate(4 138)">
<title>view.ViewUpdater.towards</title>
<polygon fill="white" stroke="none" points="-4,4 -4,-138 708,-138 708,4 -4,4"/>
<!-- Node1 -->
<g id="node1" class="node"><title>Node1</title>
<polygon fill="#bfbfbf" stroke="black" points="0,-92.5 0,-111.5 140,-111.5 140,-92.5 0,-92.5"/>
<text text-anchor="middle" x="70" y="-99.5" font-family="Helvetica,sans-Serif" font-size="10.00">view.ViewUpdater.towards</text>
</g>
<!-- Node2 -->
<g id="node2" class="node"><title>Node2</title>
<g id="a_node2"><a xlink:href="../../d4/d64/classview_1_1_view_updater.html#ab8c47e1d6b8bc5c076184e3e0af5e4b2" target="_top" xlink:title="view.ViewUpdater.setHeading">
<polygon fill="white" stroke="black" points="176.5,-92.5 176.5,-111.5 333.5,-111.5 333.5,-92.5 176.5,-92.5"/>
<text text-anchor="middle" x="255" y="-99.5" font-family="Helvetica,sans-Serif" font-size="10.00">view.ViewUpdater.setHeading</text>
</a>
</g>
</g>
<!-- Node1&#45;&gt;Node2 -->
<g id="edge1" class="edge"><title>Node1&#45;&gt;Node2</title>
<path fill="none" stroke="midnightblue" d="M140.184,-102C148.696,-102 157.482,-102 166.223,-102"/>
<polygon fill="midnightblue" stroke="midnightblue" points="166.443,-105.5 176.443,-102 166.443,-98.5001 166.443,-105.5"/>
</g>
<!-- Node3 -->
<g id="node3" class="node"><title>Node3</title>
<g id="a_node3"><a xlink:href="../../da/d64/classview_1_1_workspace.html#ad460da1164f039e5ea9a265d446d13fe" target="_top" xlink:title="view.Workspace.getTurtleMap">
<polygon fill="white" stroke="black" points="546.5,-114.5 546.5,-133.5 701.5,-133.5 701.5,-114.5 546.5,-114.5"/>
<text text-anchor="middle" x="624" y="-121.5" font-family="Helvetica,sans-Serif" font-size="10.00">view.Workspace.getTurtleMap</text>
</a>
</g>
</g>
<!-- Node2&#45;&gt;Node3 -->
<g id="edge2" class="edge"><title>Node2&#45;&gt;Node3</title>
<path fill="none" stroke="midnightblue" d="M333.831,-106.666C393.127,-110.22 474.753,-115.113 536.164,-118.795"/>
<polygon fill="midnightblue" stroke="midnightblue" points="536.034,-122.293 546.225,-119.398 536.453,-115.306 536.034,-122.293"/>
</g>
<!-- Node4 -->
<g id="node4" class="node"><title>Node4</title>
<g id="a_node4"><a xlink:href="../../d1/dc7/classview_1_1_side_bar.html#a7d73038dbba05f96990b60664afa2670" target="_top" xlink:title="view.SideBar.updateTurtle\lProperties">
<polygon fill="white" stroke="black" points="370,-65 370,-95 508,-95 508,-65 370,-65"/>
<text text-anchor="start" x="378" y="-83" font-family="Helvetica,sans-Serif" font-size="10.00">view.SideBar.updateTurtle</text>
<text text-anchor="middle" x="439" y="-72" font-family="Helvetica,sans-Serif" font-size="10.00">Properties</text>
</a>
</g>
</g>
<!-- Node2&#45;&gt;Node4 -->
<g id="edge3" class="edge"><title>Node2&#45;&gt;Node4</title>
<path fill="none" stroke="midnightblue" d="M333.712,-92.6062C342.323,-91.5653 351.096,-90.5049 359.714,-89.4631"/>
<polygon fill="midnightblue" stroke="midnightblue" points="360.233,-92.926 369.74,-88.2512 359.393,-85.9766 360.233,-92.926"/>
</g>
<!-- Node4&#45;&gt;Node3 -->
<g id="edge6" class="edge"><title>Node4&#45;&gt;Node3</title>
<path fill="none" stroke="midnightblue" d="M502.466,-95.0192C525.722,-100.611 551.769,-106.874 573.684,-112.143"/>
<polygon fill="midnightblue" stroke="midnightblue" points="572.896,-115.553 583.437,-114.488 574.532,-108.747 572.896,-115.553"/>
</g>
<!-- Node5 -->
<g id="node5" class="node"><title>Node5</title>
<g id="a_node5"><a xlink:href="../../d8/df7/classview_1_1_turtle_view.html#ab5fdc3775e06339f4a68d1b795a81643" target="_top" xlink:title="view.TurtleView.getID">
<polygon fill="white" stroke="black" points="567,-76.5 567,-95.5 681,-95.5 681,-76.5 567,-76.5"/>
<text text-anchor="middle" x="624" y="-83.5" font-family="Helvetica,sans-Serif" font-size="10.00">view.TurtleView.getID</text>
</a>
</g>
</g>
<!-- Node4&#45;&gt;Node5 -->
<g id="edge4" class="edge"><title>Node4&#45;&gt;Node5</title>
<path fill="none" stroke="midnightblue" d="M508.142,-82.2342C523.981,-82.7535 540.82,-83.3056 556.583,-83.8224"/>
<polygon fill="midnightblue" stroke="midnightblue" points="556.655,-87.3265 566.765,-84.1562 556.885,-80.3303 556.655,-87.3265"/>
</g>
<!-- Node6 -->
<g id="node6" class="node"><title>Node6</title>
<g id="a_node6"><a xlink:href="../../d8/df7/classview_1_1_turtle_view.html#a85b9acc922cc69f27c79bf13e3356e09" target="_top" xlink:title="view.TurtleView.getPenPosition">
<polygon fill="white" stroke="black" points="544,-38.5 544,-57.5 704,-57.5 704,-38.5 544,-38.5"/>
<text text-anchor="middle" x="624" y="-45.5" font-family="Helvetica,sans-Serif" font-size="10.00">view.TurtleView.getPenPosition</text>
</a>
</g>
</g>
<!-- Node4&#45;&gt;Node6 -->
<g id="edge5" class="edge"><title>Node4&#45;&gt;Node6</title>
<path fill="none" stroke="midnightblue" d="M508.142,-68.0844C524.637,-65.2001 542.216,-62.1261 558.535,-59.2726"/>
<polygon fill="midnightblue" stroke="midnightblue" points="559.264,-62.6982 568.512,-57.5279 558.059,-55.8028 559.264,-62.6982"/>
</g>
<!-- Node7 -->
<g id="node7" class="node"><title>Node7</title>
<g id="a_node7"><a xlink:href="../../d8/df7/classview_1_1_turtle_view.html#a5f7b22cd8ab69258535b18920a488b63" target="_top" xlink:title="view.TurtleView.isShowing">
<polygon fill="white" stroke="black" points="556,-0.5 556,-19.5 692,-19.5 692,-0.5 556,-0.5"/>
<text text-anchor="middle" x="624" y="-7.5" font-family="Helvetica,sans-Serif" font-size="10.00">view.TurtleView.isShowing</text>
</a>
</g>
</g>
<!-- Node4&#45;&gt;Node7 -->
<g id="edge7" class="edge"><title>Node4&#45;&gt;Node7</title>
<path fill="none" stroke="midnightblue" d="M466.658,-64.8952C487.257,-53.7293 516.758,-38.82 544,-29 551.013,-26.4721 558.496,-24.1783 565.958,-22.1296"/>
<polygon fill="midnightblue" stroke="midnightblue" points="566.923,-25.4948 575.712,-19.5785 565.152,-18.7226 566.923,-25.4948"/>
</g>
</g>
</svg>
