<?xml version="1.0" encoding="UTF-8" standalone="no"?>
<!DOCTYPE svg PUBLIC "-//W3C//DTD SVG 1.1//EN"
 "http://www.w3.org/Graphics/SVG/1.1/DTD/svg11.dtd">
<!-- Generated by graphviz version 2.36.0 (20140111.2315)
 -->
<!-- Title: controller.Main Pages: 1 -->
<!--zoomable 733 -->
<svg id="main" version="1.1" xmlns="http://www.w3.org/2000/svg" xmlns:xlink="http://www.w3.org/1999/xlink" xml:space="preserve" onload="init(evt)">
<style type="text/css"><![CDATA[
.edge:hover path { stroke: red; }
.edge:hover polygon { stroke: red; fill: red; }
]]></style>
<script type="text/javascript"><![CDATA[
var edges = document.getElementsByTagName('g');
if (edges && edges.length) {
  for (var i=0;i<edges.length;i++) {
    if (edges[i].id.substr(0,4)=='edge') {
      edges[i].setAttribute('class','edge');
    }
  }
}
]]></script>
        <defs>
                <circle id="rim" cx="0" cy="0" r="7"/>
                <circle id="rim2" cx="0" cy="0" r="3.5"/>
                <g id="zoomPlus">
                        <use xlink:href="#rim" fill="#404040">
                                <set attributeName="fill" to="#808080" begin="zoomplus.mouseover" end="zoomplus.mouseout"/>
                        </use>
                        <path d="M-4,0h8M0,-4v8" fill="none" stroke="white" stroke-width="1.5" pointer-events="none"/>
                </g>
                <g id="zoomMin">
                        <use xlink:href="#rim" fill="#404040">
                                <set attributeName="fill" to="#808080" begin="zoomminus.mouseover" end="zoomminus.mouseout"/>
                        </use>
                        <path d="M-4,0h8" fill="none" stroke="white" stroke-width="1.5" pointer-events="none"/>
                </g>
                <g id="dirArrow">
                        <path fill="none" stroke="white" stroke-width="1.5" d="M0,-3.0v7 M-2.5,-0.5L0,-3.0L2.5,-0.5"/>
                </g>
               <g id="resetDef">
                       <use xlink:href="#rim2" fill="#404040">
                               <set attributeName="fill" to="#808080" begin="reset.mouseover" end="reset.mouseout"/>
                       </use>
               </g>
        </defs>

<script type="text/javascript">
var viewWidth = 1530;
var viewHeight = 733;
var sectionId = 'dynsection-1';
</script>
<script xlink:href="../../svgpan.js"/>
<svg id="graph" class="graph">
<g id="viewport">
<title>controller.Main</title>
<polygon fill="white" stroke="none" points="-4,4 -4,-729 1526,-729 1526,4 -4,4"/>
<!-- Node1 -->
<g id="node1" class="node"><title>Node1</title>
<polygon fill="#bfbfbf" stroke="black" points="758,-393.5 758,-412.5 844,-412.5 844,-393.5 758,-393.5"/>
<text text-anchor="middle" x="801" y="-400.5" font-family="Helvetica,sans-Serif" font-size="10.00">controller.Main</text>
</g>
<!-- Node2 -->
<g id="node2" class="node"><title>Node2</title>
<polygon fill="white" stroke="#bfbfbf" points="486.5,-408.5 486.5,-427.5 555.5,-427.5 555.5,-408.5 486.5,-408.5"/>
<text text-anchor="middle" x="521" y="-415.5" font-family="Helvetica,sans-Serif" font-size="10.00">Application</text>
</g>
<!-- Node2&#45;&gt;Node1 -->
<g id="edge1" class="edge"><title>Node2&#45;&gt;Node1</title>
<path fill="none" stroke="midnightblue" d="M565.706,-416.475C609.739,-414.825 679.621,-411.899 740,-408 745.737,-407.63 751.778,-407.187 757.729,-406.722"/>
<polygon fill="midnightblue" stroke="midnightblue" points="565.497,-412.98 555.633,-416.847 565.755,-419.975 565.497,-412.98"/>
</g>
<!-- Node3 -->
<g id="node3" class="node"><title>Node3</title>
<g id="a_node3"><a xlink:href="../../d6/de7/classview_1_1_s_logo_view.html" target="_top" xlink:title="view.SLogoView">
<polygon fill="white" stroke="black" points="475.5,-290.5 475.5,-309.5 566.5,-309.5 566.5,-290.5 475.5,-290.5"/>
<text text-anchor="middle" x="521" y="-297.5" font-family="Helvetica,sans-Serif" font-size="10.00">view.SLogoView</text>
</a>
</g>
</g>
<!-- Node3&#45;&gt;Node1 -->
<g id="edge2" class="edge"><title>Node3&#45;&gt;Node1</title>
<path fill="none" stroke="#9a32cd" stroke-dasharray="5,2" d="M538.324,-316.812C556.187,-334.116 586.5,-360.408 618,-374 630.596,-379.435 707.996,-390.603 757.72,-397.383"/>
<polygon fill="#9a32cd" stroke="#9a32cd" points="540.595,-314.135 531.033,-309.572 535.663,-319.102 540.595,-314.135"/>
<text text-anchor="middle" x="679" y="-398" font-family="Helvetica,sans-Serif" font-size="10.00"> myView</text>
</g>
<!-- Node14 -->
<g id="node14" class="node"><title>Node14</title>
<g id="a_node14"><a xlink:href="../../dc/df5/classmodel_1_1_parser.html" target="_top" xlink:title="model.Parser">
<polygon fill="white" stroke="black" points="761,-132.5 761,-151.5 841,-151.5 841,-132.5 761,-132.5"/>
<text text-anchor="middle" x="801" y="-139.5" font-family="Helvetica,sans-Serif" font-size="10.00">model.Parser</text>
</a>
</g>
</g>
<!-- Node3&#45;&gt;Node14 -->
<g id="edge20" class="edge"><title>Node3&#45;&gt;Node14</title>
<path fill="none" stroke="#9a32cd" stroke-dasharray="5,2" d="M533.318,-281.976C549.199,-258.29 580.405,-217.215 618,-196 666.204,-168.799 687.569,-188.735 740,-171 755.124,-165.884 771.378,-157.857 783.149,-151.543"/>
<polygon fill="#9a32cd" stroke="#9a32cd" points="530.354,-280.114 527.825,-290.402 536.218,-283.937 530.354,-280.114"/>
<text text-anchor="middle" x="679" y="-199" font-family="Helvetica,sans-Serif" font-size="10.00"> mySLogoView</text>
</g>
<!-- Node4 -->
<g id="node4" class="node"><title>Node4</title>
<polygon fill="white" stroke="#bfbfbf" points="179,-122.5 179,-141.5 239,-141.5 239,-122.5 179,-122.5"/>
<text text-anchor="middle" x="209" y="-129.5" font-family="Helvetica,sans-Serif" font-size="10.00">Observer</text>
</g>
<!-- Node4&#45;&gt;Node3 -->
<g id="edge3" class="edge"><title>Node4&#45;&gt;Node3</title>
<path fill="none" stroke="midnightblue" d="M249.357,-132.334C294.703,-134.423 369.907,-143.262 424,-177 470.888,-206.244 504.009,-266.987 515.53,-290.457"/>
<polygon fill="midnightblue" stroke="midnightblue" points="249.451,-128.835 239.328,-131.96 249.19,-135.83 249.451,-128.835"/>
</g>
<!-- Node4&#45;&gt;Node14 -->
<g id="edge14" class="edge"><title>Node4&#45;&gt;Node14</title>
<path fill="none" stroke="midnightblue" d="M249.336,-132.667C356.679,-134.486 653.753,-139.521 760.862,-141.337"/>
<polygon fill="midnightblue" stroke="midnightblue" points="249.316,-129.166 239.258,-132.496 249.197,-136.165 249.316,-129.166"/>
</g>
<!-- Node5 -->
<g id="node5" class="node"><title>Node5</title>
<g id="a_node5"><a xlink:href="../../da/d64/classview_1_1_workspace.html" target="_top" xlink:title="view.Workspace">
<polygon fill="white" stroke="black" points="1432,-524.5 1432,-543.5 1522,-543.5 1522,-524.5 1432,-524.5"/>
<text text-anchor="middle" x="1477" y="-531.5" font-family="Helvetica,sans-Serif" font-size="10.00">view.Workspace</text>
</a>
</g>
</g>
<!-- Node5&#45;&gt;Node3 -->
<g id="edge4" class="edge"><title>Node5&#45;&gt;Node3</title>
<path fill="none" stroke="#9a32cd" stroke-dasharray="5,2" d="M1473.53,-514.017C1468.48,-482.078 1453.82,-419.889 1414,-388 1350.52,-337.158 1299.59,-403.088 1234,-355 1220.21,-344.891 1230.51,-330.04 1216,-321 1161.16,-286.844 711.505,-295.167 566.728,-298.776"/>
<polygon fill="#9a32cd" stroke="#9a32cd" points="1470.12,-514.893 1474.99,-524.303 1477.05,-513.91 1470.12,-514.893"/>
<text text-anchor="middle" x="1016" y="-305" font-family="Helvetica,sans-Serif" font-size="10.00"> myWorkspace</text>
</g>
<!-- Node6 -->
<g id="node6" class="node"><title>Node6</title>
<polygon fill="white" stroke="#bfbfbf" points="1243.5,-582.5 1243.5,-601.5 1310.5,-601.5 1310.5,-582.5 1243.5,-582.5"/>
<text text-anchor="middle" x="1277" y="-589.5" font-family="Helvetica,sans-Serif" font-size="10.00">StackPane</text>
</g>
<!-- Node6&#45;&gt;Node5 -->
<g id="edge5" class="edge"><title>Node6&#45;&gt;Node5</title>
<path fill="none" stroke="midnightblue" d="M1320.61,-584.949C1347.72,-579.889 1383.38,-572.17 1414,-562 1429.02,-557.012 1445.3,-549.574 1457.41,-543.618"/>
<polygon fill="midnightblue" stroke="midnightblue" points="1319.87,-581.525 1310.66,-586.758 1321.12,-588.412 1319.87,-581.525"/>
</g>
<!-- Node7 -->
<g id="node7" class="node"><title>Node7</title>
<g id="a_node7"><a xlink:href="../../d8/df7/classview_1_1_turtle_view.html" target="_top" xlink:title="view.TurtleView">
<polygon fill="white" stroke="black" points="1234,-544.5 1234,-563.5 1320,-563.5 1320,-544.5 1234,-544.5"/>
<text text-anchor="middle" x="1277" y="-551.5" font-family="Helvetica,sans-Serif" font-size="10.00">view.TurtleView</text>
</a>
</g>
</g>
<!-- Node7&#45;&gt;Node5 -->
<g id="edge6" class="edge"><title>Node7&#45;&gt;Node5</title>
<path fill="none" stroke="#9a32cd" stroke-dasharray="5,2" d="M1330.43,-548.704C1362.05,-545.51 1401.88,-541.487 1431.88,-538.457"/>
<polygon fill="#9a32cd" stroke="#9a32cd" points="1330.07,-545.222 1320.48,-549.709 1330.78,-552.187 1330.07,-545.222"/>
<text text-anchor="middle" x="1376" y="-550" font-family="Helvetica,sans-Serif" font-size="10.00"> myActiveTurtle</text>
</g>
<!-- Node8 -->
<g id="node8" class="node"><title>Node8</title>
<polygon fill="white" stroke="#bfbfbf" points="982,-666.5 982,-685.5 1050,-685.5 1050,-666.5 982,-666.5"/>
<text text-anchor="middle" x="1016" y="-673.5" font-family="Helvetica,sans-Serif" font-size="10.00">ImageView</text>
</g>
<!-- Node8&#45;&gt;Node7 -->
<g id="edge7" class="edge"><title>Node8&#45;&gt;Node7</title>
<path fill="none" stroke="midnightblue" d="M1060.17,-683.851C1104.86,-689.319 1173.91,-689.927 1216,-652 1242.75,-627.894 1211.22,-600.888 1234,-573 1237.14,-569.157 1241.22,-566.062 1245.61,-563.576"/>
<polygon fill="midnightblue" stroke="midnightblue" points="1060.58,-680.373 1050.2,-682.5 1059.64,-687.31 1060.58,-680.373"/>
</g>
<!-- Node9 -->
<g id="node9" class="node"><title>Node9</title>
<polygon fill="white" stroke="#bfbfbf" points="141,-623 141,-653 277,-653 277,-623 141,-623"/>
<text text-anchor="start" x="149" y="-641" font-family="Helvetica,sans-Serif" font-size="10.00">Map&lt; Integer, view.Turtle</text>
<text text-anchor="middle" x="209" y="-630" font-family="Helvetica,sans-Serif" font-size="10.00">View &gt;</text>
</g>
<!-- Node9&#45;&gt;Node3 -->
<g id="edge39" class="edge"><title>Node9&#45;&gt;Node3</title>
<path fill="none" stroke="#9a32cd" stroke-dasharray="5,2" d="M241.631,-617.052C287.609,-585.141 372.968,-520.173 424,-446 436.679,-427.572 430.953,-418.45 442,-399 462.316,-363.23 494.859,-326.606 510.714,-309.673"/>
<polygon fill="#9a32cd" stroke="#9a32cd" points="239.516,-614.259 233.252,-622.804 243.478,-620.03 239.516,-614.259"/>
<text text-anchor="middle" x="369" y="-562" font-family="Helvetica,sans-Serif" font-size="10.00"> myTurtles</text>
</g>
<!-- Node9&#45;&gt;Node5 -->
<g id="edge8" class="edge"><title>Node9&#45;&gt;Node5</title>
<path fill="none" stroke="#9a32cd" stroke-dasharray="5,2" d="M256.036,-656.65C315.831,-679.152 423.941,-714 520,-714 520,-714 520,-714 1278,-714 1380.2,-714 1452.97,-581.065 1471.42,-543.678"/>
<polygon fill="#9a32cd" stroke="#9a32cd" points="257.099,-653.31 246.509,-653.015 254.604,-659.85 257.099,-653.31"/>
<text text-anchor="middle" x="890" y="-717" font-family="Helvetica,sans-Serif" font-size="10.00"> myTurtles</text>
</g>
<!-- Node10 -->
<g id="node10" class="node"><title>Node10</title>
<g id="a_node10"><a xlink:href="../../d1/dc7/classview_1_1_side_bar.html" target="_top" xlink:title="view.SideBar">
<polygon fill="white" stroke="black" points="1238.5,-453.5 1238.5,-472.5 1315.5,-472.5 1315.5,-453.5 1238.5,-453.5"/>
<text text-anchor="middle" x="1277" y="-460.5" font-family="Helvetica,sans-Serif" font-size="10.00">view.SideBar</text>
</a>
</g>
</g>
<!-- Node9&#45;&gt;Node10 -->
<g id="edge22" class="edge"><title>Node9&#45;&gt;Node10</title>
<path fill="none" stroke="#9a32cd" stroke-dasharray="5,2" d="M287.331,-638C350.044,-638 440.724,-638 520,-638 520,-638 520,-638 1017,-638 1061.35,-638 1183.61,-653.296 1216,-623 1257.31,-584.355 1206.08,-546.201 1234,-497 1239.74,-486.882 1249.77,-478.589 1258.59,-472.727"/>
<polygon fill="#9a32cd" stroke="#9a32cd" points="287.123,-634.5 277.123,-638 287.123,-641.5 287.123,-634.5"/>
<text text-anchor="middle" x="801" y="-641" font-family="Helvetica,sans-Serif" font-size="10.00"> myTurtles</text>
</g>
<!-- Node10&#45;&gt;Node3 -->
<g id="edge43" class="edge"><title>Node10&#45;&gt;Node3</title>
<path fill="none" stroke="#9a32cd" stroke-dasharray="5,2" d="M1260.94,-445.557C1249.77,-433.817 1233.5,-419.061 1216,-411 1208.37,-407.485 626.26,-322.523 618,-321 599.88,-317.658 579.963,-313.399 562.99,-309.59"/>
<polygon fill="#9a32cd" stroke="#9a32cd" points="1258.49,-448.058 1267.81,-453.083 1263.66,-443.338 1258.49,-448.058"/>
<text text-anchor="middle" x="890" y="-369" font-family="Helvetica,sans-Serif" font-size="10.00"> mySidebar</text>
</g>
<!-- Node10&#45;&gt;Node5 -->
<g id="edge9" class="edge"><title>Node10&#45;&gt;Node5</title>
<path fill="none" stroke="#9a32cd" stroke-dasharray="5,2" d="M1325.59,-472.463C1352.15,-478.514 1385.51,-487.412 1414,-499 1430.95,-505.893 1449.02,-516.514 1461.25,-524.249"/>
<polygon fill="#9a32cd" stroke="#9a32cd" points="1326.3,-469.034 1315.78,-470.284 1324.78,-475.868 1326.3,-469.034"/>
<text text-anchor="middle" x="1376" y="-502" font-family="Helvetica,sans-Serif" font-size="10.00"> mySidebar</text>
</g>
<!-- Node26 -->
<g id="node26" class="node"><title>Node26</title>
<g id="a_node26"><a xlink:href="../../da/dc8/classview_1_1_editor.html" target="_top" xlink:title="view.Editor">
<polygon fill="white" stroke="black" points="1443.5,-269.5 1443.5,-288.5 1510.5,-288.5 1510.5,-269.5 1443.5,-269.5"/>
<text text-anchor="middle" x="1477" y="-276.5" font-family="Helvetica,sans-Serif" font-size="10.00">view.Editor</text>
</a>
</g>
</g>
<!-- Node10&#45;&gt;Node26 -->
<g id="edge34" class="edge"><title>Node10&#45;&gt;Node26</title>
<path fill="none" stroke="#9a32cd" stroke-dasharray="5,2" d="M1296.87,-446.645C1323.4,-423.525 1373.06,-379.775 1414,-341 1433.01,-322.995 1454.46,-301.196 1466.49,-288.83"/>
<polygon fill="#9a32cd" stroke="#9a32cd" points="1294.36,-444.191 1289.11,-453.394 1298.96,-449.473 1294.36,-444.191"/>
<text text-anchor="middle" x="1376" y="-412" font-family="Helvetica,sans-Serif" font-size="10.00"> mySidebar</text>
</g>
<!-- Node11 -->
<g id="node11" class="node"><title>Node11</title>
<polygon fill="white" stroke="#bfbfbf" points="995.5,-339.5 995.5,-358.5 1036.5,-358.5 1036.5,-339.5 995.5,-339.5"/>
<text text-anchor="middle" x="1016" y="-346.5" font-family="Helvetica,sans-Serif" font-size="10.00">VBox</text>
</g>
<!-- Node11&#45;&gt;Node10 -->
<g id="edge10" class="edge"><title>Node11&#45;&gt;Node10</title>
<path fill="none" stroke="midnightblue" d="M1046.97,-350.853C1095.39,-354.307 1188.21,-362.975 1216,-380 1245.11,-397.835 1264.3,-435.605 1272.08,-453.375"/>
<polygon fill="midnightblue" stroke="midnightblue" points="1047.01,-347.347 1036.79,-350.157 1046.53,-354.331 1047.01,-347.347"/>
</g>
<!-- Node12 -->
<g id="node12" class="node"><title>Node12</title>
<polygon fill="white" stroke="#bfbfbf" points="162.5,-440.5 162.5,-459.5 255.5,-459.5 255.5,-440.5 162.5,-440.5"/>
<text text-anchor="middle" x="209" y="-447.5" font-family="Helvetica,sans-Serif" font-size="10.00">ResourceBundle</text>
</g>
<!-- Node12&#45;&gt;Node3 -->
<g id="edge28" class="edge"><title>Node12&#45;&gt;Node3</title>
<path fill="none" stroke="#9a32cd" stroke-dasharray="5,2" d="M265.788,-439.5C328.024,-427.72 420.521,-409.987 424,-408 467.567,-383.114 501.654,-331.195 514.483,-309.67"/>
<polygon fill="#9a32cd" stroke="#9a32cd" points="264.871,-436.111 255.695,-441.408 266.172,-442.989 264.871,-436.111"/>
<text text-anchor="middle" x="369" y="-434" font-family="Helvetica,sans-Serif" font-size="10.00"> myResources</text>
</g>
<!-- Node12&#45;&gt;Node10 -->
<g id="edge11" class="edge"><title>Node12&#45;&gt;Node10</title>
<path fill="none" stroke="#9a32cd" stroke-dasharray="5,2" d="M265.822,-448.754C433.868,-445.141 933.409,-435.443 1096,-444 1145.27,-446.593 1201.81,-453.152 1238.17,-457.837"/>
<polygon fill="#9a32cd" stroke="#9a32cd" points="265.631,-445.257 255.709,-448.973 265.783,-452.256 265.631,-445.257"/>
<text text-anchor="middle" x="801" y="-445" font-family="Helvetica,sans-Serif" font-size="10.00"> myResources</text>
</g>
<!-- Node13 -->
<g id="node13" class="node"><title>Node13</title>
<g id="a_node13"><a xlink:href="../../d4/dd9/classcontroller_1_1_s_logo_controller.html" target="_top" xlink:title="controller.SLogoController">
<polygon fill="white" stroke="black" points="946,-204.5 946,-223.5 1086,-223.5 1086,-204.5 946,-204.5"/>
<text text-anchor="middle" x="1016" y="-211.5" font-family="Helvetica,sans-Serif" font-size="10.00">controller.SLogoController</text>
</a>
</g>
</g>
<!-- Node13&#45;&gt;Node3 -->
<g id="edge36" class="edge"><title>Node13&#45;&gt;Node3</title>
<path fill="none" stroke="#9a32cd" stroke-dasharray="5,2" d="M935.716,-210.518C854.221,-209.204 724.544,-213.461 618,-246 585.812,-255.83 552.508,-277.667 534.836,-290.356"/>
<polygon fill="#9a32cd" stroke="#9a32cd" points="935.837,-214.021 945.903,-210.716 935.972,-207.023 935.837,-214.021"/>
<text text-anchor="middle" x="801" y="-222" font-family="Helvetica,sans-Serif" font-size="10.00"> myController</text>
</g>
<!-- Node13&#45;&gt;Node10 -->
<g id="edge12" class="edge"><title>Node13&#45;&gt;Node10</title>
<path fill="none" stroke="#9a32cd" stroke-dasharray="5,2" d="M1069.86,-226.644C1078.86,-229.747 1087.9,-233.503 1096,-238 1157.96,-272.403 1172.67,-286.92 1216,-343 1244.34,-379.68 1264.88,-431.846 1272.62,-453.257"/>
<polygon fill="#9a32cd" stroke="#9a32cd" points="1070.76,-223.256 1060.16,-223.53 1068.62,-229.921 1070.76,-223.256"/>
<text text-anchor="middle" x="1165" y="-346" font-family="Helvetica,sans-Serif" font-size="10.00"> myController</text>
</g>
<!-- Node13&#45;&gt;Node26 -->
<g id="edge32" class="edge"><title>Node13&#45;&gt;Node26</title>
<path fill="none" stroke="#9a32cd" stroke-dasharray="5,2" d="M1096.37,-210.238C1177.93,-208.699 1307.67,-212.78 1414,-246 1431.23,-251.381 1449.26,-261.57 1461.4,-269.209"/>
<polygon fill="#9a32cd" stroke="#9a32cd" points="1096.09,-206.743 1086.18,-210.464 1096.25,-213.741 1096.09,-206.743"/>
<text text-anchor="middle" x="1277" y="-228" font-family="Helvetica,sans-Serif" font-size="10.00"> myController</text>
</g>
<!-- Node14&#45;&gt;Node13 -->
<g id="edge13" class="edge"><title>Node14&#45;&gt;Node13</title>
<path fill="none" stroke="#9a32cd" stroke-dasharray="5,2" d="M839.89,-154.808C881.936,-169.02 948.822,-191.63 986.598,-204.399"/>
<polygon fill="#9a32cd" stroke="#9a32cd" points="840.879,-151.448 830.285,-151.561 838.637,-158.079 840.879,-151.448"/>
<text text-anchor="middle" x="890" y="-184" font-family="Helvetica,sans-Serif" font-size="10.00"> myParser</text>
</g>
<!-- Node15 -->
<g id="node15" class="node"><title>Node15</title>
<polygon fill="white" stroke="#bfbfbf" points="465,-66 465,-96 577,-96 577,-66 465,-66"/>
<text text-anchor="start" x="473" y="-84" font-family="Helvetica,sans-Serif" font-size="10.00">List&lt; Entry&lt; String,</text>
<text text-anchor="middle" x="521" y="-73" font-family="Helvetica,sans-Serif" font-size="10.00"> Pattern &gt; &gt;</text>
</g>
<!-- Node15&#45;&gt;Node14 -->
<g id="edge15" class="edge"><title>Node15&#45;&gt;Node14</title>
<path fill="none" stroke="#9a32cd" stroke-dasharray="5,2" d="M587.521,-77.9674C631.831,-78.0011 690.979,-82.1707 740,-100 759.597,-107.128 778.709,-122.36 789.915,-132.387"/>
<polygon fill="#9a32cd" stroke="#9a32cd" points="587.426,-74.4678 577.448,-78.0303 587.47,-81.4677 587.426,-74.4678"/>
<text text-anchor="middle" x="679" y="-103" font-family="Helvetica,sans-Serif" font-size="10.00"> myPatterns</text>
</g>
<!-- Node16 -->
<g id="node16" class="node"><title>Node16</title>
<g id="a_node16"><a xlink:href="../../d1/dca/classmodel_1_1_execution_environment.html" target="_top" xlink:title="model.ExecutionEnvironment">
<polygon fill="white" stroke="black" points="442.5,-27.5 442.5,-46.5 599.5,-46.5 599.5,-27.5 442.5,-27.5"/>
<text text-anchor="middle" x="521" y="-34.5" font-family="Helvetica,sans-Serif" font-size="10.00">model.ExecutionEnvironment</text>
</a>
</g>
</g>
<!-- Node16&#45;&gt;Node14 -->
<g id="edge16" class="edge"><title>Node16&#45;&gt;Node14</title>
<path fill="none" stroke="#9a32cd" stroke-dasharray="5,2" d="M609.912,-32.6231C651.736,-34.2187 700.999,-41.7127 740,-64 768.184,-80.1055 787.583,-115.27 795.712,-132.331"/>
<polygon fill="#9a32cd" stroke="#9a32cd" points="609.82,-29.1194 599.728,-32.3438 609.628,-36.1168 609.82,-29.1194"/>
<text text-anchor="middle" x="679" y="-67" font-family="Helvetica,sans-Serif" font-size="10.00"> myExecutionParameters</text>
</g>
<!-- Node17 -->
<g id="node17" class="node"><title>Node17</title>
<polygon fill="white" stroke="#bfbfbf" points="173.5,-49.5 173.5,-68.5 244.5,-68.5 244.5,-49.5 173.5,-49.5"/>
<text text-anchor="middle" x="209" y="-56.5" font-family="Helvetica,sans-Serif" font-size="10.00">Observable</text>
</g>
<!-- Node17&#45;&gt;Node16 -->
<g id="edge17" class="edge"><title>Node17&#45;&gt;Node16</title>
<path fill="none" stroke="midnightblue" d="M254.634,-55.8325C303.641,-52.3545 383.232,-46.7061 442.485,-42.501"/>
<polygon fill="midnightblue" stroke="midnightblue" points="254.386,-52.3411 244.659,-56.5404 254.881,-59.3236 254.386,-52.3411"/>
</g>
<!-- Node18 -->
<g id="node18" class="node"><title>Node18</title>
<polygon fill="white" stroke="#bfbfbf" points="122,-0 122,-30 296,-30 296,-0 122,-0"/>
<text text-anchor="start" x="130" y="-18" font-family="Helvetica,sans-Serif" font-size="10.00">Map&lt; String, model.instructions.</text>
<text text-anchor="middle" x="209" y="-7" font-family="Helvetica,sans-Serif" font-size="10.00">Instruction &gt;</text>
</g>
<!-- Node18&#45;&gt;Node16 -->
<g id="edge18" class="edge"><title>Node18&#45;&gt;Node16</title>
<path fill="none" stroke="#9a32cd" stroke-dasharray="5,2" d="M306.352,-13.3954C343.236,-13.673 385.649,-15.0739 424,-19 441.712,-20.8133 461.045,-24.1672 477.689,-27.4929"/>
<polygon fill="#9a32cd" stroke="#9a32cd" points="306.12,-9.89435 296.103,-13.3458 306.086,-16.8943 306.12,-9.89435"/>
<text text-anchor="middle" x="369" y="-33" font-family="Helvetica,sans-Serif" font-size="10.00"> myVariableMap</text>
<text text-anchor="middle" x="369" y="-22" font-family="Helvetica,sans-Serif" font-size="10.00">myUserInstructionMap</text>
</g>
<!-- Node19 -->
<g id="node19" class="node"><title>Node19</title>
<polygon fill="white" stroke="#bfbfbf" points="460,-153.5 460,-172.5 582,-172.5 582,-153.5 460,-153.5"/>
<text text-anchor="middle" x="521" y="-160.5" font-family="Helvetica,sans-Serif" font-size="10.00">Map&lt; String, String &gt;</text>
</g>
<!-- Node19&#45;&gt;Node14 -->
<g id="edge19" class="edge"><title>Node19&#45;&gt;Node14</title>
<path fill="none" stroke="#9a32cd" stroke-dasharray="5,2" d="M592.404,-157.682C645.772,-153.65 717.145,-148.259 760.78,-144.963"/>
<polygon fill="#9a32cd" stroke="#9a32cd" points="592.03,-154.2 582.322,-158.443 592.557,-161.18 592.03,-154.2"/>
<text text-anchor="middle" x="679" y="-159" font-family="Helvetica,sans-Serif" font-size="10.00"> myCommandMap</text>
</g>
<!-- Node20 -->
<g id="node20" class="node"><title>Node20</title>
<polygon fill="white" stroke="#bfbfbf" points="949,-579 949,-609 1083,-609 1083,-579 949,-579"/>
<text text-anchor="start" x="957" y="-597" font-family="Helvetica,sans-Serif" font-size="10.00">TableView&lt; view.Variable</text>
<text text-anchor="middle" x="1016" y="-586" font-family="Helvetica,sans-Serif" font-size="10.00">View &gt;</text>
</g>
<!-- Node20&#45;&gt;Node10 -->
<g id="edge21" class="edge"><title>Node20&#45;&gt;Node10</title>
<path fill="none" stroke="#9a32cd" stroke-dasharray="5,2" d="M1093.55,-599.402C1134.52,-598.153 1183.16,-589.44 1216,-560 1237.68,-540.562 1217.94,-521.29 1234,-497 1240.52,-487.14 1250.8,-478.75 1259.55,-472.771"/>
<polygon fill="#9a32cd" stroke="#9a32cd" points="1093.26,-595.906 1083.32,-599.567 1093.37,-602.905 1093.26,-595.906"/>
<text text-anchor="middle" x="1165" y="-611" font-family="Helvetica,sans-Serif" font-size="10.00"> turtlePropertiesTable</text>
<text text-anchor="middle" x="1165" y="-600" font-family="Helvetica,sans-Serif" font-size="10.00">variablesTable</text>
</g>
<!-- Node21 -->
<g id="node21" class="node"><title>Node21</title>
<polygon fill="white" stroke="#bfbfbf" points="936.5,-530 936.5,-560 1095.5,-560 1095.5,-530 936.5,-530"/>
<text text-anchor="start" x="944.5" y="-548" font-family="Helvetica,sans-Serif" font-size="10.00">ObservableList&lt; view.Variable</text>
<text text-anchor="middle" x="1016" y="-537" font-family="Helvetica,sans-Serif" font-size="10.00">View &gt;</text>
</g>
<!-- Node21&#45;&gt;Node10 -->
<g id="edge23" class="edge"><title>Node21&#45;&gt;Node10</title>
<path fill="none" stroke="#9a32cd" stroke-dasharray="5,2" d="M1105.7,-546.473C1141.76,-543.73 1182.69,-536.132 1216,-518 1226.8,-512.123 1225.19,-505.569 1234,-497 1243.15,-488.106 1254.43,-479.066 1263,-472.545"/>
<polygon fill="#9a32cd" stroke="#9a32cd" points="1105.42,-542.983 1095.67,-547.122 1105.87,-549.969 1105.42,-542.983"/>
<text text-anchor="middle" x="1165" y="-548" font-family="Helvetica,sans-Serif" font-size="10.00"> variablesList</text>
</g>
<!-- Node22 -->
<g id="node22" class="node"><title>Node22</title>
<polygon fill="white" stroke="#bfbfbf" points="947,-491.5 947,-510.5 1085,-510.5 1085,-491.5 947,-491.5"/>
<text text-anchor="middle" x="1016" y="-498.5" font-family="Helvetica,sans-Serif" font-size="10.00">ObservableList&lt; String &gt;</text>
</g>
<!-- Node22&#45;&gt;Node10 -->
<g id="edge24" class="edge"><title>Node22&#45;&gt;Node10</title>
<path fill="none" stroke="#9a32cd" stroke-dasharray="5,2" d="M1095.19,-494.333C1132.01,-490.589 1176.44,-485.2 1216,-478 1224.13,-476.52 1232.8,-474.573 1240.95,-472.574"/>
<polygon fill="#9a32cd" stroke="#9a32cd" points="1094.62,-490.872 1085.02,-495.345 1095.32,-497.837 1094.62,-490.872"/>
<text text-anchor="middle" x="1165" y="-506" font-family="Helvetica,sans-Serif" font-size="10.00"> commandItems</text>
<text text-anchor="middle" x="1165" y="-495" font-family="Helvetica,sans-Serif" font-size="10.00">historyItems</text>
</g>
<!-- Node23 -->
<g id="node23" class="node"><title>Node23</title>
<polygon fill="white" stroke="#bfbfbf" points="963,-453.5 963,-472.5 1069,-472.5 1069,-453.5 963,-453.5"/>
<text text-anchor="middle" x="1016" y="-460.5" font-family="Helvetica,sans-Serif" font-size="10.00">ListView&lt; String &gt;</text>
</g>
<!-- Node23&#45;&gt;Node10 -->
<g id="edge25" class="edge"><title>Node23&#45;&gt;Node10</title>
<path fill="none" stroke="#9a32cd" stroke-dasharray="5,2" d="M1079.38,-463C1128.94,-463 1196.61,-463 1238.25,-463"/>
<polygon fill="#9a32cd" stroke="#9a32cd" points="1079.1,-459.5 1069.1,-463 1079.1,-466.5 1079.1,-459.5"/>
<text text-anchor="middle" x="1165" y="-466" font-family="Helvetica,sans-Serif" font-size="10.00"> historyList</text>
</g>
<!-- Node24 -->
<g id="node24" class="node"><title>Node24</title>
<polygon fill="white" stroke="#bfbfbf" points="1245.5,-506.5 1245.5,-525.5 1308.5,-525.5 1308.5,-506.5 1245.5,-506.5"/>
<text text-anchor="middle" x="1277" y="-513.5" font-family="Helvetica,sans-Serif" font-size="10.00">Rectangle</text>
</g>
<!-- Node24&#45;&gt;Node5 -->
<g id="edge26" class="edge"><title>Node24&#45;&gt;Node5</title>
<path fill="none" stroke="#9a32cd" stroke-dasharray="5,2" d="M1318.93,-514.617C1346.02,-514.263 1382.27,-514.86 1414,-519 1423.33,-520.218 1433.31,-522.28 1442.46,-524.493"/>
<polygon fill="#9a32cd" stroke="#9a32cd" points="1318.6,-511.122 1308.66,-514.802 1318.72,-518.121 1318.6,-511.122"/>
<text text-anchor="middle" x="1376" y="-522" font-family="Helvetica,sans-Serif" font-size="10.00"> myBackground</text>
</g>
<!-- Node25 -->
<g id="node25" class="node"><title>Node25</title>
<polygon fill="white" stroke="#bfbfbf" points="186.5,-167.5 186.5,-186.5 231.5,-186.5 231.5,-167.5 186.5,-167.5"/>
<text text-anchor="middle" x="209" y="-174.5" font-family="Helvetica,sans-Serif" font-size="10.00">Stage</text>
</g>
<!-- Node25&#45;&gt;Node3 -->
<g id="edge27" class="edge"><title>Node25&#45;&gt;Node3</title>
<path fill="none" stroke="#9a32cd" stroke-dasharray="5,2" d="M241.808,-176.168C285.189,-176.273 364.331,-180.95 424,-210 464.054,-229.5 498.789,-271.513 513.068,-290.427"/>
<polygon fill="#9a32cd" stroke="#9a32cd" points="241.562,-172.669 231.583,-176.228 241.603,-179.669 241.562,-172.669"/>
<text text-anchor="middle" x="369" y="-213" font-family="Helvetica,sans-Serif" font-size="10.00"> myStage</text>
</g>
<!-- Node26&#45;&gt;Node3 -->
<g id="edge29" class="edge"><title>Node26&#45;&gt;Node3</title>
<path fill="none" stroke="#9a32cd" stroke-dasharray="5,2" d="M1433.22,-272.511C1393.19,-267.007 1331.69,-260 1278,-260 800,-260 800,-260 800,-260 714.912,-260 616.655,-278.585 562.716,-290.419"/>
<polygon fill="#9a32cd" stroke="#9a32cd" points="1432.77,-275.983 1443.16,-273.908 1433.74,-269.051 1432.77,-275.983"/>
<text text-anchor="middle" x="1016" y="-263" font-family="Helvetica,sans-Serif" font-size="10.00"> myEditor</text>
</g>
<!-- Node27 -->
<g id="node27" class="node"><title>Node27</title>
<polygon fill="white" stroke="#bfbfbf" points="1256,-165.5 1256,-184.5 1298,-184.5 1298,-165.5 1256,-165.5"/>
<text text-anchor="middle" x="1277" y="-172.5" font-family="Helvetica,sans-Serif" font-size="10.00">HBox</text>
</g>
<!-- Node27&#45;&gt;Node26 -->
<g id="edge30" class="edge"><title>Node27&#45;&gt;Node26</title>
<path fill="none" stroke="midnightblue" d="M1308.71,-176.794C1337.7,-179.688 1381.46,-187.248 1414,-207 1440.23,-222.919 1461.07,-253.714 1470.51,-269.365"/>
<polygon fill="midnightblue" stroke="midnightblue" points="1308.64,-173.275 1298.38,-175.897 1308.04,-180.249 1308.64,-173.275"/>
</g>
<!-- Node28 -->
<g id="node28" class="node"><title>Node28</title>
<polygon fill="white" stroke="#bfbfbf" points="1252.5,-326.5 1252.5,-345.5 1301.5,-345.5 1301.5,-326.5 1252.5,-326.5"/>
<text text-anchor="middle" x="1277" y="-333.5" font-family="Helvetica,sans-Serif" font-size="10.00">Button</text>
</g>
<!-- Node28&#45;&gt;Node26 -->
<g id="edge31" class="edge"><title>Node28&#45;&gt;Node26</title>
<path fill="none" stroke="#9a32cd" stroke-dasharray="5,2" d="M1311.52,-330.913C1339.38,-326.198 1379.83,-318.215 1414,-307 1429.15,-302.028 1445.56,-294.513 1457.69,-288.52"/>
<polygon fill="#9a32cd" stroke="#9a32cd" points="1310.8,-327.484 1301.5,-332.559 1311.94,-334.391 1310.8,-327.484"/>
<text text-anchor="middle" x="1376" y="-329" font-family="Helvetica,sans-Serif" font-size="10.00"> runButton</text>
</g>
<!-- Node29 -->
<g id="node29" class="node"><title>Node29</title>
<polygon fill="white" stroke="#bfbfbf" points="1248,-288.5 1248,-307.5 1306,-307.5 1306,-288.5 1248,-288.5"/>
<text text-anchor="middle" x="1277" y="-295.5" font-family="Helvetica,sans-Serif" font-size="10.00">TextArea</text>
</g>
<!-- Node29&#45;&gt;Node26 -->
<g id="edge33" class="edge"><title>Node29&#45;&gt;Node26</title>
<path fill="none" stroke="#9a32cd" stroke-dasharray="5,2" d="M1316.74,-294.282C1353.67,-290.739 1408.66,-285.462 1443.4,-282.128"/>
<polygon fill="#9a32cd" stroke="#9a32cd" points="1315.99,-290.838 1306.37,-295.278 1316.66,-297.806 1315.99,-290.838"/>
<text text-anchor="middle" x="1376" y="-295" font-family="Helvetica,sans-Serif" font-size="10.00"> textEditor</text>
</g>
<!-- Node30 -->
<g id="node30" class="node"><title>Node30</title>
<polygon fill="white" stroke="#bfbfbf" points="149.5,-395.5 149.5,-414.5 268.5,-414.5 268.5,-395.5 149.5,-395.5"/>
<text text-anchor="middle" x="209" y="-402.5" font-family="Helvetica,sans-Serif" font-size="10.00">Map&lt; String, Node &gt;</text>
</g>
<!-- Node30&#45;&gt;Node3 -->
<g id="edge35" class="edge"><title>Node30&#45;&gt;Node3</title>
<path fill="none" stroke="#9a32cd" stroke-dasharray="5,2" d="M278.768,-397.261C331.103,-390.72 398.358,-380.723 424,-370 459.396,-355.198 494.035,-324.953 510.332,-309.519"/>
<polygon fill="#9a32cd" stroke="#9a32cd" points="278.015,-393.827 268.517,-398.523 278.87,-400.775 278.015,-393.827"/>
<text text-anchor="middle" x="369" y="-396" font-family="Helvetica,sans-Serif" font-size="10.00"> variables</text>
</g>
<!-- Node31 -->
<g id="node31" class="node"><title>Node31</title>
<polygon fill="white" stroke="#bfbfbf" points="168.5,-357.5 168.5,-376.5 249.5,-376.5 249.5,-357.5 168.5,-357.5"/>
<text text-anchor="middle" x="209" y="-364.5" font-family="Helvetica,sans-Serif" font-size="10.00">Dimension2D</text>
</g>
<!-- Node31&#45;&gt;Node3 -->
<g id="edge37" class="edge"><title>Node31&#45;&gt;Node3</title>
<path fill="none" stroke="#9a32cd" stroke-dasharray="5,2" d="M259.973,-361.978C303.683,-356.95 368.653,-347.938 424,-334 449.376,-327.61 477.497,-317.245 496.707,-309.636"/>
<polygon fill="#9a32cd" stroke="#9a32cd" points="259.433,-358.516 249.886,-363.11 260.214,-365.473 259.433,-358.516"/>
<text text-anchor="middle" x="369" y="-358" font-family="Helvetica,sans-Serif" font-size="10.00"> myDimensions</text>
</g>
<!-- Node32 -->
<g id="node32" class="node"><title>Node32</title>
<polygon fill="white" stroke="#bfbfbf" points="185.5,-319.5 185.5,-338.5 232.5,-338.5 232.5,-319.5 185.5,-319.5"/>
<text text-anchor="middle" x="209" y="-326.5" font-family="Helvetica,sans-Serif" font-size="10.00">Scene</text>
</g>
<!-- Node32&#45;&gt;Node3 -->
<g id="edge38" class="edge"><title>Node32&#45;&gt;Node3</title>
<path fill="none" stroke="#9a32cd" stroke-dasharray="5,2" d="M242.576,-325.953C298.359,-320.734 412.244,-310.08 475.372,-304.175"/>
<polygon fill="#9a32cd" stroke="#9a32cd" points="242.175,-322.475 232.544,-326.891 242.827,-329.444 242.175,-322.475"/>
<text text-anchor="middle" x="369" y="-322" font-family="Helvetica,sans-Serif" font-size="10.00"> myScene</text>
</g>
<!-- Node33 -->
<g id="node33" class="node"><title>Node33</title>
<g id="a_node33"><a xlink:href="../../de/d0a/classview_1_1_drawer.html" target="_top" xlink:title="view.Drawer">
<polygon fill="white" stroke="black" points="172.5,-281.5 172.5,-300.5 245.5,-300.5 245.5,-281.5 172.5,-281.5"/>
<text text-anchor="middle" x="209" y="-288.5" font-family="Helvetica,sans-Serif" font-size="10.00">view.Drawer</text>
</a>
</g>
</g>
<!-- Node33&#45;&gt;Node3 -->
<g id="edge40" class="edge"><title>Node33&#45;&gt;Node3</title>
<path fill="none" stroke="#9a32cd" stroke-dasharray="5,2" d="M255.826,-291.415C299.165,-291.912 366.021,-292.949 424,-295 440.679,-295.59 458.976,-296.482 475.082,-297.35"/>
<polygon fill="#9a32cd" stroke="#9a32cd" points="255.641,-287.913 245.603,-291.303 255.564,-294.912 255.641,-287.913"/>
<text text-anchor="middle" x="369" y="-298" font-family="Helvetica,sans-Serif" font-size="10.00"> drawer</text>
</g>
<!-- Node34 -->
<g id="node34" class="node"><title>Node34</title>
<polygon fill="white" stroke="#bfbfbf" points="0.5,-281.5 0.5,-300.5 41.5,-300.5 41.5,-281.5 0.5,-281.5"/>
<text text-anchor="middle" x="21" y="-288.5" font-family="Helvetica,sans-Serif" font-size="10.00">Color</text>
</g>
<!-- Node34&#45;&gt;Node33 -->
<g id="edge41" class="edge"><title>Node34&#45;&gt;Node33</title>
<path fill="none" stroke="#9a32cd" stroke-dasharray="5,2" d="M51.8575,-291C84.6426,-291 137.265,-291 172.23,-291"/>
<polygon fill="#9a32cd" stroke="#9a32cd" points="51.5537,-287.5 41.5537,-291 51.5537,-294.5 51.5537,-287.5"/>
<text text-anchor="middle" x="82" y="-294" font-family="Helvetica,sans-Serif" font-size="10.00"> myColor</text>
</g>
<!-- Node35 -->
<g id="node35" class="node"><title>Node35</title>
<polygon fill="white" stroke="#bfbfbf" points="179.5,-243.5 179.5,-262.5 238.5,-262.5 238.5,-243.5 179.5,-243.5"/>
<text text-anchor="middle" x="209" y="-250.5" font-family="Helvetica,sans-Serif" font-size="10.00">GridPane</text>
</g>
<!-- Node35&#45;&gt;Node3 -->
<g id="edge42" class="edge"><title>Node35&#45;&gt;Node3</title>
<path fill="none" stroke="#9a32cd" stroke-dasharray="5,2" d="M248.557,-256.229C291.544,-260.125 363.044,-267.487 424,-278 443.546,-281.371 465.089,-286.204 482.807,-290.482"/>
<polygon fill="#9a32cd" stroke="#9a32cd" points="248.798,-252.737 238.527,-255.336 248.177,-259.709 248.798,-252.737"/>
<text text-anchor="middle" x="369" y="-281" font-family="Helvetica,sans-Serif" font-size="10.00"> myRoot</text>
</g>
<!-- Node36 -->
<g id="node36" class="node"><title>Node36</title>
<polygon fill="white" stroke="#bfbfbf" points="186,-205.5 186,-224.5 232,-224.5 232,-205.5 186,-205.5"/>
<text text-anchor="middle" x="209" y="-212.5" font-family="Helvetica,sans-Serif" font-size="10.00">Group</text>
</g>
<!-- Node36&#45;&gt;Node3 -->
<g id="edge44" class="edge"><title>Node36&#45;&gt;Node3</title>
<path fill="none" stroke="#9a32cd" stroke-dasharray="5,2" d="M242.187,-216.799C284.76,-219.919 361.679,-228.143 424,-249 454.783,-259.302 487.537,-278.783 505.718,-290.458"/>
<polygon fill="#9a32cd" stroke="#9a32cd" points="242.349,-213.302 232.134,-216.111 241.871,-220.286 242.349,-213.302"/>
<text text-anchor="middle" x="369" y="-252" font-family="Helvetica,sans-Serif" font-size="10.00"> lines</text>
</g>
</g>
</svg>
        <g id="navigator" transform="translate(0 0)" fill="#404254">
                <rect fill="#f2f5e9" fill-opacity="0.5" stroke="#606060" stroke-width=".5" x="0" y="0" width="60" height="60"/>
                <use id="zoomplus" xlink:href="#zoomPlus" x="17" y="9" onmousedown="handleZoom(evt,'in')"/>
                <use id="zoomminus" xlink:href="#zoomMin" x="42" y="9" onmousedown="handleZoom(evt,'out')"/>
                <use id="reset" xlink:href="#resetDef" x="30" y="36" onmousedown="handleReset()"/>
                <g id="arrowUp" xlink:href="#dirArrow" transform="translate(30 24)" onmousedown="handlePan(0,-1)">
                  <use xlink:href="#rim" fill="#404040">
                        <set attributeName="fill" to="#808080" begin="arrowUp.mouseover" end="arrowUp.mouseout"/>
                  </use>
                  <path fill="none" stroke="white" stroke-width="1.5" d="M0,-3.0v7 M-2.5,-0.5L0,-3.0L2.5,-0.5"/>
                </g>
                <g id="arrowRight" xlink:href="#dirArrow" transform="rotate(90) translate(36 -43)" onmousedown="handlePan(1,0)">
                  <use xlink:href="#rim" fill="#404040">
                        <set attributeName="fill" to="#808080" begin="arrowRight.mouseover" end="arrowRight.mouseout"/>
                  </use>
                  <path fill="none" stroke="white" stroke-width="1.5" d="M0,-3.0v7 M-2.5,-0.5L0,-3.0L2.5,-0.5"/>
                </g>
                <g id="arrowDown" xlink:href="#dirArrow" transform="rotate(180) translate(-30 -48)" onmousedown="handlePan(0,1)">
                  <use xlink:href="#rim" fill="#404040">
                        <set attributeName="fill" to="#808080" begin="arrowDown.mouseover" end="arrowDown.mouseout"/>
                  </use>
                  <path fill="none" stroke="white" stroke-width="1.5" d="M0,-3.0v7 M-2.5,-0.5L0,-3.0L2.5,-0.5"/>
                </g>
                <g id="arrowLeft" xlink:href="#dirArrow" transform="rotate(270) translate(-36 17)" onmousedown="handlePan(-1,0)">
                  <use xlink:href="#rim" fill="#404040">
                        <set attributeName="fill" to="#808080" begin="arrowLeft.mouseover" end="arrowLeft.mouseout"/>
                  </use>
                  <path fill="none" stroke="white" stroke-width="1.5" d="M0,-3.0v7 M-2.5,-0.5L0,-3.0L2.5,-0.5"/>
                </g>
        </g>
        <svg viewBox="0 0 15 15" width="100%" height="30px" preserveAspectRatio="xMaxYMin meet">
         <g id="arrow_out" transform="scale(0.3 0.3)">
          <a xlink:href="classcontroller_1_1_main__coll__graph_org.svg" target="_base">
           <rect id="button" ry="5" rx="5" y="6" x="6" height="38" width="38"
                fill="#f2f5e9" fill-opacity="0.5" stroke="#606060" stroke-width="1.0"/>
           <path id="arrow"
             d="M 11.500037,31.436501 C 11.940474,20.09759 22.043105,11.32322 32.158766,21.979434 L 37.068811,17.246167 C 37.068811,17.246167 37.088388,32 37.088388,32 L 22.160133,31.978069 C 22.160133,31.978069 26.997745,27.140456 26.997745,27.140456 C 18.528582,18.264221 13.291696,25.230495 11.500037,31.436501 z"
             style="fill:#404040;"/>
          </a>
         </g>
        </svg>
</svg>
