<?xml version="1.0" encoding="UTF-8" standalone="no"?>
<!DOCTYPE svg PUBLIC "-//W3C//DTD SVG 1.1//EN"
 "http://www.w3.org/Graphics/SVG/1.1/DTD/svg11.dtd">
<!-- Generated by graphviz version 2.36.0 (20140111.2315)
 -->
<!-- Title: model.instructions.FrontEndInstruction Pages: 1 -->
<svg width="1696pt" height="868pt"
 viewBox="0.00 0.00 1696.00 868.00" xmlns="http://www.w3.org/2000/svg" xmlns:xlink="http://www.w3.org/1999/xlink">
<g id="graph0" class="graph" transform="scale(1 1) rotate(0) translate(4 864)">
<title>model.instructions.FrontEndInstruction</title>
<polygon fill="white" stroke="none" points="-4,4 -4,-864 1692,-864 1692,4 -4,4"/>
<!-- Node1 -->
<g id="node1" class="node"><title>Node1</title>
<polygon fill="#bfbfbf" stroke="black" points="1172,-357 1172,-387 1304,-387 1304,-357 1172,-357"/>
<text text-anchor="start" x="1180" y="-375" font-family="Helvetica,sans-Serif" font-size="10.00">model.instructions.Front</text>
<text text-anchor="middle" x="1238" y="-364" font-family="Helvetica,sans-Serif" font-size="10.00">EndInstruction</text>
</g>
<!-- Node2 -->
<g id="node2" class="node"><title>Node2</title>
<g id="a_node2"><a xlink:href="../../d1/dea/classmodel_1_1instructions_1_1_instruction.html" target="_top" xlink:title="model.instructions.Instruction">
<polygon fill="white" stroke="black" points="866,-362.5 866,-381.5 1024,-381.5 1024,-362.5 866,-362.5"/>
<text text-anchor="middle" x="945" y="-369.5" font-family="Helvetica,sans-Serif" font-size="10.00">model.instructions.Instruction</text>
</a>
</g>
</g>
<!-- Node2&#45;&gt;Node1 -->
<g id="edge1" class="edge"><title>Node2&#45;&gt;Node1</title>
<path fill="none" stroke="midnightblue" d="M1034.54,-372C1078.75,-372 1131.3,-372 1171.78,-372"/>
<polygon fill="midnightblue" stroke="midnightblue" points="1034.37,-368.5 1024.37,-372 1034.37,-375.5 1034.37,-368.5"/>
</g>
<!-- Node3 -->
<g id="node3" class="node"><title>Node3</title>
<polygon fill="white" stroke="#bfbfbf" points="371,-246.5 371,-265.5 431,-265.5 431,-246.5 371,-246.5"/>
<text text-anchor="middle" x="401" y="-253.5" font-family="Helvetica,sans-Serif" font-size="10.00">Observer</text>
</g>
<!-- Node3&#45;&gt;Node2 -->
<g id="edge2" class="edge"><title>Node3&#45;&gt;Node2</title>
<path fill="none" stroke="midnightblue" d="M411.735,-274.565C426.496,-300.579 457.199,-347.036 498,-368 565.739,-402.804 764.122,-396.518 840,-390 859.443,-388.33 880.709,-384.934 898.915,-381.537"/>
<polygon fill="midnightblue" stroke="midnightblue" points="414.747,-272.778 406.87,-265.692 408.609,-276.143 414.747,-272.778"/>
</g>
<!-- Node10 -->
<g id="node10" class="node"><title>Node10</title>
<g id="a_node10"><a xlink:href="../../d6/de7/classview_1_1_s_logo_view.html" target="_top" xlink:title="view.SLogoView">
<polygon fill="white" stroke="black" points="618.5,-195.5 618.5,-214.5 709.5,-214.5 709.5,-195.5 618.5,-195.5"/>
<text text-anchor="middle" x="664" y="-202.5" font-family="Helvetica,sans-Serif" font-size="10.00">view.SLogoView</text>
</a>
</g>
</g>
<!-- Node3&#45;&gt;Node10 -->
<g id="edge10" class="edge"><title>Node3&#45;&gt;Node10</title>
<path fill="none" stroke="midnightblue" d="M441.083,-248.363C488.564,-239.085 568.483,-223.469 618.347,-213.725"/>
<polygon fill="midnightblue" stroke="midnightblue" points="440.323,-244.945 431.18,-250.298 441.666,-251.815 440.323,-244.945"/>
</g>
<!-- Node22 -->
<g id="node22" class="node"><title>Node22</title>
<g id="a_node22"><a xlink:href="../../dc/df5/classmodel_1_1_parser.html" target="_top" xlink:title="model.Parser">
<polygon fill="white" stroke="black" points="905,-278.5 905,-297.5 985,-297.5 985,-278.5 905,-278.5"/>
<text text-anchor="middle" x="945" y="-285.5" font-family="Helvetica,sans-Serif" font-size="10.00">model.Parser</text>
</a>
</g>
</g>
<!-- Node3&#45;&gt;Node22 -->
<g id="edge25" class="edge"><title>Node3&#45;&gt;Node22</title>
<path fill="none" stroke="midnightblue" d="M441.228,-258.211C503.055,-261.707 626.944,-268.755 732,-275 792.368,-278.589 862.394,-282.915 904.929,-285.56"/>
<polygon fill="midnightblue" stroke="midnightblue" points="441.319,-254.711 431.137,-257.641 440.924,-261.7 441.319,-254.711"/>
</g>
<!-- Node4 -->
<g id="node4" class="node"><title>Node4</title>
<g id="a_node4"><a xlink:href="../../d1/dca/classmodel_1_1_execution_environment.html" target="_top" xlink:title="model.ExecutionEnvironment">
<polygon fill="white" stroke="black" points="322.5,-441.5 322.5,-460.5 479.5,-460.5 479.5,-441.5 322.5,-441.5"/>
<text text-anchor="middle" x="401" y="-448.5" font-family="Helvetica,sans-Serif" font-size="10.00">model.ExecutionEnvironment</text>
</a>
</g>
</g>
<!-- Node4&#45;&gt;Node2 -->
<g id="edge3" class="edge"><title>Node4&#45;&gt;Node2</title>
<path fill="none" stroke="#9a32cd" stroke-dasharray="5,2" d="M490.001,-459.439C601.637,-468.265 786.142,-475.993 840,-437 857.783,-424.125 841.317,-405.271 858,-391 862.415,-387.223 867.415,-384.149 872.728,-381.652"/>
<polygon fill="#9a32cd" stroke="#9a32cd" points="490.015,-455.928 479.765,-458.61 489.45,-462.906 490.015,-455.928"/>
<text text-anchor="middle" x="664" y="-470" font-family="Helvetica,sans-Serif" font-size="10.00"> myEnvironment</text>
</g>
<!-- Node4&#45;&gt;Node10 -->
<g id="edge41" class="edge"><title>Node4&#45;&gt;Node10</title>
<path fill="none" stroke="#9a32cd" stroke-dasharray="5,2" d="M412.294,-432.123C428.123,-404.249 460.563,-351.452 498,-315 544.373,-269.847 611.621,-231.689 644.075,-214.603"/>
<polygon fill="#9a32cd" stroke="#9a32cd" points="409.052,-430.751 407.235,-441.189 415.165,-434.162 409.052,-430.751"/>
<text text-anchor="middle" x="538" y="-318" font-family="Helvetica,sans-Serif" font-size="10.00"> myEnvironment</text>
</g>
<!-- Node18 -->
<g id="node18" class="node"><title>Node18</title>
<g id="a_node18"><a xlink:href="../../d1/dc7/classview_1_1_side_bar.html" target="_top" xlink:title="view.SideBar">
<polygon fill="white" stroke="black" points="1199.5,-463.5 1199.5,-482.5 1276.5,-482.5 1276.5,-463.5 1199.5,-463.5"/>
<text text-anchor="middle" x="1238" y="-470.5" font-family="Helvetica,sans-Serif" font-size="10.00">view.SideBar</text>
</a>
</g>
</g>
<!-- Node4&#45;&gt;Node18 -->
<g id="edge22" class="edge"><title>Node4&#45;&gt;Node18</title>
<path fill="none" stroke="#9a32cd" stroke-dasharray="5,2" d="M424.79,-466.1C459.827,-488.319 529.83,-528.826 596,-544 784.876,-587.312 839.165,-564.094 1032,-545 1086.12,-539.641 1101.02,-539.942 1152,-521 1178.69,-511.084 1206.96,-493.511 1223.23,-482.601"/>
<polygon fill="#9a32cd" stroke="#9a32cd" points="426.565,-463.081 416.262,-460.613 422.777,-468.967 426.565,-463.081"/>
<text text-anchor="middle" x="795" y="-572" font-family="Helvetica,sans-Serif" font-size="10.00"> myEnvironment</text>
</g>
<!-- Node4&#45;&gt;Node22 -->
<g id="edge27" class="edge"><title>Node4&#45;&gt;Node22</title>
<path fill="none" stroke="#9a32cd" stroke-dasharray="5,2" d="M489.952,-446.452C601.071,-439.209 784.523,-421.812 840,-384 853.165,-375.027 847.437,-364.927 858,-353 878.722,-329.602 909.006,-309.07 927.558,-297.622"/>
<polygon fill="#9a32cd" stroke="#9a32cd" points="489.52,-442.972 479.762,-447.101 489.965,-449.958 489.52,-442.972"/>
<text text-anchor="middle" x="664" y="-441" font-family="Helvetica,sans-Serif" font-size="10.00"> myExecutionParameters</text>
</g>
<!-- Node5 -->
<g id="node5" class="node"><title>Node5</title>
<polygon fill="white" stroke="#bfbfbf" points="51.5,-501.5 51.5,-520.5 122.5,-520.5 122.5,-501.5 51.5,-501.5"/>
<text text-anchor="middle" x="87" y="-508.5" font-family="Helvetica,sans-Serif" font-size="10.00">Observable</text>
</g>
<!-- Node5&#45;&gt;Node4 -->
<g id="edge4" class="edge"><title>Node5&#45;&gt;Node4</title>
<path fill="none" stroke="midnightblue" d="M132.717,-511.151C176.879,-510.351 246.026,-506.537 304,-492 332.478,-484.859 363.357,-470.337 382.194,-460.636"/>
<polygon fill="midnightblue" stroke="midnightblue" points="132.548,-507.652 122.596,-511.289 132.643,-514.652 132.548,-507.652"/>
</g>
<!-- Node6 -->
<g id="node6" class="node"><title>Node6</title>
<polygon fill="white" stroke="#bfbfbf" points="42.5,-463.5 42.5,-482.5 131.5,-482.5 131.5,-463.5 42.5,-463.5"/>
<text text-anchor="middle" x="87" y="-470.5" font-family="Helvetica,sans-Serif" font-size="10.00">Set&lt; Integer &gt;</text>
</g>
<!-- Node6&#45;&gt;Node4 -->
<g id="edge5" class="edge"><title>Node6&#45;&gt;Node4</title>
<path fill="none" stroke="#9a32cd" stroke-dasharray="5,2" d="M141.939,-469.197C191.701,-465.688 266.155,-460.438 322.32,-456.477"/>
<polygon fill="#9a32cd" stroke="#9a32cd" points="141.44,-465.723 131.711,-469.918 141.932,-472.706 141.44,-465.723"/>
<text text-anchor="middle" x="248" y="-480" font-family="Helvetica,sans-Serif" font-size="10.00"> myTurtleList</text>
<text text-anchor="middle" x="248" y="-469" font-family="Helvetica,sans-Serif" font-size="10.00">activeTurtleList</text>
</g>
<!-- Node7 -->
<g id="node7" class="node"><title>Node7</title>
<polygon fill="white" stroke="#bfbfbf" points="0,-414 0,-444 174,-444 174,-414 0,-414"/>
<text text-anchor="start" x="8" y="-432" font-family="Helvetica,sans-Serif" font-size="10.00">Map&lt; String, model.instructions.</text>
<text text-anchor="middle" x="87" y="-421" font-family="Helvetica,sans-Serif" font-size="10.00">Instruction &gt;</text>
</g>
<!-- Node7&#45;&gt;Node4 -->
<g id="edge6" class="edge"><title>Node7&#45;&gt;Node4</title>
<path fill="none" stroke="#9a32cd" stroke-dasharray="5,2" d="M184.559,-435.634C221.877,-438.217 264.929,-441.219 304,-444 310.001,-444.427 316.212,-444.873 322.456,-445.323"/>
<polygon fill="#9a32cd" stroke="#9a32cd" points="184.411,-432.115 174.193,-434.917 183.928,-439.099 184.411,-432.115"/>
<text text-anchor="middle" x="248" y="-447" font-family="Helvetica,sans-Serif" font-size="10.00"> myUserInstructionMap</text>
</g>
<!-- Node8 -->
<g id="node8" class="node"><title>Node8</title>
<polygon fill="white" stroke="#bfbfbf" points="23,-375.5 23,-394.5 151,-394.5 151,-375.5 23,-375.5"/>
<text text-anchor="middle" x="87" y="-382.5" font-family="Helvetica,sans-Serif" font-size="10.00">Map&lt; String, Double &gt;</text>
</g>
<!-- Node8&#45;&gt;Node4 -->
<g id="edge7" class="edge"><title>Node8&#45;&gt;Node4</title>
<path fill="none" stroke="#9a32cd" stroke-dasharray="5,2" d="M161.414,-395.267C203.421,-401.717 256.961,-410.911 304,-422 327.047,-427.433 352.7,-435.278 371.686,-441.439"/>
<polygon fill="#9a32cd" stroke="#9a32cd" points="161.68,-391.768 151.268,-393.729 160.63,-398.689 161.68,-391.768"/>
<text text-anchor="middle" x="248" y="-425" font-family="Helvetica,sans-Serif" font-size="10.00"> myVariableMap</text>
</g>
<!-- Node9 -->
<g id="node9" class="node"><title>Node9</title>
<polygon fill="white" stroke="#bfbfbf" points="596,-505 596,-535 732,-535 732,-505 596,-505"/>
<text text-anchor="start" x="604" y="-523" font-family="Helvetica,sans-Serif" font-size="10.00">List&lt; model.instructions.</text>
<text text-anchor="middle" x="664" y="-512" font-family="Helvetica,sans-Serif" font-size="10.00">Instruction &gt;</text>
</g>
<!-- Node9&#45;&gt;Node2 -->
<g id="edge8" class="edge"><title>Node9&#45;&gt;Node2</title>
<path fill="none" stroke="#9a32cd" stroke-dasharray="5,2" d="M742.354,-524.941C776.571,-522.897 814.701,-514.139 840,-489 871.412,-457.786 827.252,-422.869 858,-391 861.61,-387.259 865.778,-384.176 870.292,-381.643"/>
<polygon fill="#9a32cd" stroke="#9a32cd" points="742.196,-521.444 732.351,-525.359 742.489,-528.438 742.196,-521.444"/>
<text text-anchor="middle" x="795" y="-527" font-family="Helvetica,sans-Serif" font-size="10.00"> myDependencies</text>
</g>
<!-- Node10&#45;&gt;Node2 -->
<g id="edge9" class="edge"><title>Node10&#45;&gt;Node2</title>
<path fill="none" stroke="#9a32cd" stroke-dasharray="5,2" d="M685.005,-221.088C699.982,-234.14 719.894,-253.799 732,-275 746.652,-300.659 728.032,-319.239 750,-339 780.988,-366.875 826.5,-375.676 865.656,-377.253"/>
<polygon fill="#9a32cd" stroke="#9a32cd" points="687.168,-218.333 677.273,-214.548 682.648,-223.678 687.168,-218.333"/>
<text text-anchor="middle" x="795" y="-378" font-family="Helvetica,sans-Serif" font-size="10.00"> myView</text>
</g>
<!-- Node10&#45;&gt;Node22 -->
<g id="edge29" class="edge"><title>Node10&#45;&gt;Node22</title>
<path fill="none" stroke="#9a32cd" stroke-dasharray="5,2" d="M719.944,-199.124C755.213,-197.29 801.456,-198.559 840,-212 880.12,-225.99 917.974,-261.078 934.827,-278.24"/>
<polygon fill="#9a32cd" stroke="#9a32cd" points="719.603,-195.638 709.838,-199.748 720.035,-202.624 719.603,-195.638"/>
<text text-anchor="middle" x="795" y="-215" font-family="Helvetica,sans-Serif" font-size="10.00"> mySLogoView</text>
</g>
<!-- Node11 -->
<g id="node11" class="node"><title>Node11</title>
<g id="a_node11"><a xlink:href="../../da/d64/classview_1_1_workspace.html" target="_top" xlink:title="view.Workspace">
<polygon fill="white" stroke="black" points="1418,-682.5 1418,-701.5 1508,-701.5 1508,-682.5 1418,-682.5"/>
<text text-anchor="middle" x="1463" y="-689.5" font-family="Helvetica,sans-Serif" font-size="10.00">view.Workspace</text>
</a>
</g>
</g>
<!-- Node11&#45;&gt;Node10 -->
<g id="edge11" class="edge"><title>Node11&#45;&gt;Node10</title>
<path fill="none" stroke="#9a32cd" stroke-dasharray="5,2" d="M1455.95,-672.606C1427.82,-582.481 1310.96,-208.791 1306,-205 1223.66,-142.109 943.606,-190.809 840,-190 800.001,-189.688 789.848,-186.511 750,-190 736.863,-191.15 722.714,-193.282 709.801,-195.585"/>
<polygon fill="#9a32cd" stroke="#9a32cd" points="1452.67,-673.852 1458.99,-682.356 1459.36,-671.767 1452.67,-673.852"/>
<text text-anchor="middle" x="1101" y="-179" font-family="Helvetica,sans-Serif" font-size="10.00"> myWorkspace</text>
</g>
<!-- Node34 -->
<g id="node34" class="node"><title>Node34</title>
<g id="a_node34"><a xlink:href="../../de/d0a/classview_1_1_drawer.html" target="_top" xlink:title="view.Drawer">
<polygon fill="white" stroke="black" points="1614.5,-47.5 1614.5,-66.5 1687.5,-66.5 1687.5,-47.5 1614.5,-47.5"/>
<text text-anchor="middle" x="1651" y="-54.5" font-family="Helvetica,sans-Serif" font-size="10.00">view.Drawer</text>
</a>
</g>
</g>
<!-- Node11&#45;&gt;Node34 -->
<g id="edge45" class="edge"><title>Node11&#45;&gt;Node34</title>
<path fill="none" stroke="#9a32cd" stroke-dasharray="5,2" d="M1469.72,-672.487C1498.46,-574.349 1626.66,-136.672 1647.22,-66.5043"/>
<polygon fill="#9a32cd" stroke="#9a32cd" points="1466.3,-671.699 1466.85,-682.28 1473.02,-673.667 1466.3,-671.699"/>
<text text-anchor="middle" x="1561" y="-472" font-family="Helvetica,sans-Serif" font-size="10.00"> myWorkspace</text>
</g>
<!-- Node12 -->
<g id="node12" class="node"><title>Node12</title>
<polygon fill="white" stroke="#bfbfbf" points="1204.5,-726.5 1204.5,-745.5 1271.5,-745.5 1271.5,-726.5 1204.5,-726.5"/>
<text text-anchor="middle" x="1238" y="-733.5" font-family="Helvetica,sans-Serif" font-size="10.00">StackPane</text>
</g>
<!-- Node12&#45;&gt;Node11 -->
<g id="edge12" class="edge"><title>Node12&#45;&gt;Node11</title>
<path fill="none" stroke="midnightblue" d="M1281.86,-728.989C1314.38,-723.499 1360.13,-715.406 1400,-707 1407.8,-705.355 1416.12,-703.449 1424.05,-701.558"/>
<polygon fill="midnightblue" stroke="midnightblue" points="1281.08,-725.572 1271.8,-730.677 1282.24,-732.475 1281.08,-725.572"/>
</g>
<!-- Node13 -->
<g id="node13" class="node"><title>Node13</title>
<polygon fill="white" stroke="#bfbfbf" points="354.5,-592.5 354.5,-611.5 447.5,-611.5 447.5,-592.5 354.5,-592.5"/>
<text text-anchor="middle" x="401" y="-599.5" font-family="Helvetica,sans-Serif" font-size="10.00">ResourceBundle</text>
</g>
<!-- Node13&#45;&gt;Node10 -->
<g id="edge33" class="edge"><title>Node13&#45;&gt;Node10</title>
<path fill="none" stroke="#9a32cd" stroke-dasharray="5,2" d="M415.398,-584.219C447.07,-541.562 527.667,-429.279 578,-326 588.531,-304.392 583.408,-295.475 596,-275 611.158,-250.354 636.192,-227.227 650.989,-214.703"/>
<polygon fill="#9a32cd" stroke="#9a32cd" points="412.428,-582.347 409.248,-592.453 418.036,-586.536 412.428,-582.347"/>
<text text-anchor="middle" x="538" y="-462" font-family="Helvetica,sans-Serif" font-size="10.00"> myResources</text>
</g>
<!-- Node13&#45;&gt;Node11 -->
<g id="edge13" class="edge"><title>Node13&#45;&gt;Node11</title>
<path fill="none" stroke="#9a32cd" stroke-dasharray="5,2" d="M444.376,-614.161C495.68,-627.789 584.925,-648 663,-648 663,-648 663,-648 1239,-648 1309.64,-648 1390.52,-669.512 1432.78,-682.453"/>
<polygon fill="#9a32cd" stroke="#9a32cd" points="445.202,-610.759 434.636,-611.531 443.377,-617.517 445.202,-610.759"/>
<text text-anchor="middle" x="945" y="-651" font-family="Helvetica,sans-Serif" font-size="10.00"> myResources</text>
</g>
<!-- Node13&#45;&gt;Node18 -->
<g id="edge21" class="edge"><title>Node13&#45;&gt;Node18</title>
<path fill="none" stroke="#9a32cd" stroke-dasharray="5,2" d="M457.849,-601.58C568.036,-600.197 821.04,-594.282 1032,-569 1085.84,-562.548 1103.15,-570.527 1152,-547 1185.14,-531.039 1215.45,-498.612 1229.21,-482.511"/>
<polygon fill="#9a32cd" stroke="#9a32cd" points="457.596,-598.082 447.638,-601.7 457.678,-605.082 457.596,-598.082"/>
<text text-anchor="middle" x="795" y="-595" font-family="Helvetica,sans-Serif" font-size="10.00"> myResources</text>
</g>
<!-- Node14 -->
<g id="node14" class="node"><title>Node14</title>
<g id="a_node14"><a xlink:href="../../d8/df7/classview_1_1_turtle_view.html" target="_top" xlink:title="view.TurtleView">
<polygon fill="white" stroke="black" points="1195,-764.5 1195,-783.5 1281,-783.5 1281,-764.5 1195,-764.5"/>
<text text-anchor="middle" x="1238" y="-771.5" font-family="Helvetica,sans-Serif" font-size="10.00">view.TurtleView</text>
</a>
</g>
</g>
<!-- Node14&#45;&gt;Node11 -->
<g id="edge14" class="edge"><title>Node14&#45;&gt;Node11</title>
<path fill="none" stroke="#9a32cd" stroke-dasharray="5,2" d="M1291.07,-762.621C1323.16,-754.759 1364.77,-743.015 1400,-728 1417.18,-720.68 1435.51,-709.578 1447.75,-701.64"/>
<polygon fill="#9a32cd" stroke="#9a32cd" points="1289.91,-759.299 1281.01,-765.037 1291.55,-766.106 1289.91,-759.299"/>
<text text-anchor="middle" x="1362" y="-756" font-family="Helvetica,sans-Serif" font-size="10.00"> myActiveTurtle</text>
</g>
<!-- Node15 -->
<g id="node15" class="node"><title>Node15</title>
<polygon fill="white" stroke="#bfbfbf" points="911,-764.5 911,-783.5 979,-783.5 979,-764.5 911,-764.5"/>
<text text-anchor="middle" x="945" y="-771.5" font-family="Helvetica,sans-Serif" font-size="10.00">ImageView</text>
</g>
<!-- Node15&#45;&gt;Node14 -->
<g id="edge15" class="edge"><title>Node15&#45;&gt;Node14</title>
<path fill="none" stroke="midnightblue" d="M989.27,-774C1044.55,-774 1139.64,-774 1194.53,-774"/>
<polygon fill="midnightblue" stroke="midnightblue" points="989.098,-770.5 979.098,-774 989.098,-777.5 989.098,-770.5"/>
</g>
<!-- Node16 -->
<g id="node16" class="node"><title>Node16</title>
<polygon fill="white" stroke="#bfbfbf" points="1170,-677 1170,-707 1306,-707 1306,-677 1170,-677"/>
<text text-anchor="start" x="1178" y="-695" font-family="Helvetica,sans-Serif" font-size="10.00">Map&lt; Integer, view.Turtle</text>
<text text-anchor="middle" x="1238" y="-684" font-family="Helvetica,sans-Serif" font-size="10.00">View &gt;</text>
</g>
<!-- Node16&#45;&gt;Node11 -->
<g id="edge16" class="edge"><title>Node16&#45;&gt;Node11</title>
<path fill="none" stroke="#9a32cd" stroke-dasharray="5,2" d="M1316.56,-692C1350.44,-692 1388.95,-692 1417.82,-692"/>
<polygon fill="#9a32cd" stroke="#9a32cd" points="1316.21,-688.5 1306.21,-692 1316.21,-695.5 1316.21,-688.5"/>
<text text-anchor="middle" x="1362" y="-695" font-family="Helvetica,sans-Serif" font-size="10.00"> myTurtles</text>
</g>
<!-- Node17 -->
<g id="node17" class="node"><title>Node17</title>
<polygon fill="white" stroke="#bfbfbf" points="1215,-840.5 1215,-859.5 1261,-859.5 1261,-840.5 1215,-840.5"/>
<text text-anchor="middle" x="1238" y="-847.5" font-family="Helvetica,sans-Serif" font-size="10.00">Group</text>
</g>
<!-- Node17&#45;&gt;Node11 -->
<g id="edge17" class="edge"><title>Node17&#45;&gt;Node11</title>
<path fill="none" stroke="#9a32cd" stroke-dasharray="5,2" d="M1271.45,-850.318C1306.61,-849.034 1362.68,-842.062 1400,-813 1437.81,-783.562 1454.64,-724.726 1459.99,-701.626"/>
<polygon fill="#9a32cd" stroke="#9a32cd" points="1271.17,-846.823 1261.26,-850.551 1271.33,-853.821 1271.17,-846.823"/>
<text text-anchor="middle" x="1362" y="-846" font-family="Helvetica,sans-Serif" font-size="10.00"> myLines</text>
</g>
<!-- Node18&#45;&gt;Node10 -->
<g id="edge47" class="edge"><title>Node18&#45;&gt;Node10</title>
<path fill="none" stroke="#9a32cd" stroke-dasharray="5,2" d="M1218.49,-456.334C1203.39,-441.788 1182.57,-419.394 1170,-396 1155.81,-369.595 1170.07,-354.914 1152,-331 1114.36,-281.198 1088.7,-284.125 1032,-258 915.364,-204.255 878.203,-187.485 750,-195 736.947,-195.765 722.824,-197.186 709.909,-198.721"/>
<polygon fill="#9a32cd" stroke="#9a32cd" points="1216.1,-458.895 1225.79,-463.19 1220.89,-453.793 1216.1,-458.895"/>
<text text-anchor="middle" x="945" y="-261" font-family="Helvetica,sans-Serif" font-size="10.00"> mySidebar</text>
</g>
<!-- Node18&#45;&gt;Node11 -->
<g id="edge18" class="edge"><title>Node18&#45;&gt;Node11</title>
<path fill="none" stroke="#9a32cd" stroke-dasharray="5,2" d="M1257.58,-489.335C1288.08,-516.361 1350.33,-572.426 1400,-623 1420.09,-643.452 1442.21,-668.822 1453.83,-682.383"/>
<polygon fill="#9a32cd" stroke="#9a32cd" points="1259.67,-486.51 1249.86,-482.511 1255.03,-491.755 1259.67,-486.51"/>
<text text-anchor="middle" x="1362" y="-626" font-family="Helvetica,sans-Serif" font-size="10.00"> mySidebar</text>
</g>
<!-- Node28 -->
<g id="node28" class="node"><title>Node28</title>
<g id="a_node28"><a xlink:href="../../da/dc8/classview_1_1_editor.html" target="_top" xlink:title="view.Editor">
<polygon fill="white" stroke="black" points="1429.5,-124.5 1429.5,-143.5 1496.5,-143.5 1496.5,-124.5 1429.5,-124.5"/>
<text text-anchor="middle" x="1463" y="-131.5" font-family="Helvetica,sans-Serif" font-size="10.00">view.Editor</text>
</a>
</g>
</g>
<!-- Node18&#45;&gt;Node28 -->
<g id="edge39" class="edge"><title>Node18&#45;&gt;Node28</title>
<path fill="none" stroke="#9a32cd" stroke-dasharray="5,2" d="M1255.88,-455.459C1270.04,-440.323 1290.39,-417.558 1306,-396 1373.36,-302.944 1438.61,-179.394 1456.93,-143.91"/>
<polygon fill="#9a32cd" stroke="#9a32cd" points="1253.05,-453.358 1248.72,-463.027 1258.13,-458.169 1253.05,-453.358"/>
<text text-anchor="middle" x="1362" y="-372" font-family="Helvetica,sans-Serif" font-size="10.00"> mySidebar</text>
</g>
<!-- Node19 -->
<g id="node19" class="node"><title>Node19</title>
<polygon fill="white" stroke="#bfbfbf" points="924.5,-516.5 924.5,-535.5 965.5,-535.5 965.5,-516.5 924.5,-516.5"/>
<text text-anchor="middle" x="945" y="-523.5" font-family="Helvetica,sans-Serif" font-size="10.00">VBox</text>
</g>
<!-- Node19&#45;&gt;Node18 -->
<g id="edge19" class="edge"><title>Node19&#45;&gt;Node18</title>
<path fill="none" stroke="midnightblue" d="M975.98,-523.357C1016.3,-519.478 1090.09,-511.234 1152,-498 1171.1,-493.917 1192.17,-487.732 1208.55,-482.536"/>
<polygon fill="midnightblue" stroke="midnightblue" points="975.399,-519.896 965.769,-524.315 976.052,-526.866 975.399,-519.896"/>
</g>
<!-- Node20 -->
<g id="node20" class="node"><title>Node20</title>
<polygon fill="white" stroke="#bfbfbf" points="858.5,-478.5 858.5,-497.5 1031.5,-497.5 1031.5,-478.5 858.5,-478.5"/>
<text text-anchor="middle" x="945" y="-485.5" font-family="Helvetica,sans-Serif" font-size="10.00">ObservableList&lt; view.Property &gt;</text>
</g>
<!-- Node20&#45;&gt;Node18 -->
<g id="edge20" class="edge"><title>Node20&#45;&gt;Node18</title>
<path fill="none" stroke="#9a32cd" stroke-dasharray="5,2" d="M1041.99,-483.052C1095.75,-480.281 1159.73,-476.983 1199.37,-474.94"/>
<polygon fill="#9a32cd" stroke="#9a32cd" points="1041.54,-479.57 1031.74,-483.581 1041.9,-486.561 1041.54,-479.57"/>
<text text-anchor="middle" x="1101" y="-486" font-family="Helvetica,sans-Serif" font-size="10.00"> variablesList</text>
</g>
<!-- Node21 -->
<g id="node21" class="node"><title>Node21</title>
<polygon fill="white" stroke="#bfbfbf" points="871,-440.5 871,-459.5 1019,-459.5 1019,-440.5 871,-440.5"/>
<text text-anchor="middle" x="945" y="-447.5" font-family="Helvetica,sans-Serif" font-size="10.00">TableView&lt; view.Property &gt;</text>
</g>
<!-- Node21&#45;&gt;Node18 -->
<g id="edge23" class="edge"><title>Node21&#45;&gt;Node18</title>
<path fill="none" stroke="#9a32cd" stroke-dasharray="5,2" d="M1029.6,-446.421C1067.16,-445.94 1111.95,-446.928 1152,-452 1170.1,-454.292 1189.9,-459.049 1205.84,-463.457"/>
<polygon fill="#9a32cd" stroke="#9a32cd" points="1029.15,-442.928 1019.21,-446.593 1029.27,-449.927 1029.15,-442.928"/>
<text text-anchor="middle" x="1101" y="-466" font-family="Helvetica,sans-Serif" font-size="10.00"> turtlePropertiesTable</text>
<text text-anchor="middle" x="1101" y="-455" font-family="Helvetica,sans-Serif" font-size="10.00">variablesTable</text>
</g>
<!-- Node22&#45;&gt;Node10 -->
<g id="edge42" class="edge"><title>Node22&#45;&gt;Node10</title>
<path fill="none" stroke="#9a32cd" stroke-dasharray="5,2" d="M913.41,-274.198C892.929,-265.319 865.204,-253.99 840,-246 815.98,-238.386 752.62,-224.061 709.115,-214.523"/>
<polygon fill="#9a32cd" stroke="#9a32cd" points="912.276,-277.523 922.84,-278.335 915.089,-271.112 912.276,-277.523"/>
<text text-anchor="middle" x="795" y="-249" font-family="Helvetica,sans-Serif" font-size="10.00"> myParser</text>
</g>
<!-- Node22&#45;&gt;Node18 -->
<g id="edge24" class="edge"><title>Node22&#45;&gt;Node18</title>
<path fill="none" stroke="#9a32cd" stroke-dasharray="5,2" d="M980.118,-301.276C1022.47,-318.585 1095.97,-351.375 1152,-391 1183.47,-413.258 1214.56,-447.048 1228.86,-463.428"/>
<polygon fill="#9a32cd" stroke="#9a32cd" points="981.393,-298.017 970.81,-297.517 978.772,-304.507 981.393,-298.017"/>
<text text-anchor="middle" x="1101" y="-394" font-family="Helvetica,sans-Serif" font-size="10.00"> myParser</text>
</g>
<!-- Node22&#45;&gt;Node28 -->
<g id="edge37" class="edge"><title>Node22&#45;&gt;Node28</title>
<path fill="none" stroke="#9a32cd" stroke-dasharray="5,2" d="M994.9,-276.673C1078.85,-256.708 1255.32,-212.462 1400,-161 1414.27,-155.925 1429.9,-149.108 1441.9,-143.594"/>
<polygon fill="#9a32cd" stroke="#9a32cd" points="994.054,-273.277 985.129,-278.986 995.666,-280.088 994.054,-273.277"/>
<text text-anchor="middle" x="1238" y="-234" font-family="Helvetica,sans-Serif" font-size="10.00"> myParser</text>
</g>
<!-- Node23 -->
<g id="node23" class="node"><title>Node23</title>
<polygon fill="white" stroke="#bfbfbf" points="608,-323 608,-353 720,-353 720,-323 608,-323"/>
<text text-anchor="start" x="616" y="-341" font-family="Helvetica,sans-Serif" font-size="10.00">List&lt; Entry&lt; String,</text>
<text text-anchor="middle" x="664" y="-330" font-family="Helvetica,sans-Serif" font-size="10.00"> Pattern &gt; &gt;</text>
</g>
<!-- Node23&#45;&gt;Node22 -->
<g id="edge26" class="edge"><title>Node23&#45;&gt;Node22</title>
<path fill="none" stroke="#9a32cd" stroke-dasharray="5,2" d="M730.189,-327.147C763.134,-321.58 803.72,-314.597 840,-308 861.346,-304.118 885.11,-299.566 904.527,-295.786"/>
<polygon fill="#9a32cd" stroke="#9a32cd" points="729.501,-323.713 720.222,-328.827 730.665,-330.616 729.501,-323.713"/>
<text text-anchor="middle" x="795" y="-327" font-family="Helvetica,sans-Serif" font-size="10.00"> myPatterns</text>
</g>
<!-- Node24 -->
<g id="node24" class="node"><title>Node24</title>
<polygon fill="white" stroke="#bfbfbf" points="603,-284.5 603,-303.5 725,-303.5 725,-284.5 603,-284.5"/>
<text text-anchor="middle" x="664" y="-291.5" font-family="Helvetica,sans-Serif" font-size="10.00">Map&lt; String, String &gt;</text>
</g>
<!-- Node24&#45;&gt;Node22 -->
<g id="edge28" class="edge"><title>Node24&#45;&gt;Node22</title>
<path fill="none" stroke="#9a32cd" stroke-dasharray="5,2" d="M735.342,-292.487C789.064,-291.332 861.103,-289.783 904.952,-288.84"/>
<polygon fill="#9a32cd" stroke="#9a32cd" points="735.118,-288.991 725.195,-292.705 735.268,-295.99 735.118,-288.991"/>
<text text-anchor="middle" x="795" y="-296" font-family="Helvetica,sans-Serif" font-size="10.00"> myCommandMap</text>
</g>
<!-- Node25 -->
<g id="node25" class="node"><title>Node25</title>
<polygon fill="white" stroke="#bfbfbf" points="876,-400.5 876,-419.5 1014,-419.5 1014,-400.5 876,-400.5"/>
<text text-anchor="middle" x="945" y="-407.5" font-family="Helvetica,sans-Serif" font-size="10.00">ObservableList&lt; String &gt;</text>
</g>
<!-- Node25&#45;&gt;Node18 -->
<g id="edge30" class="edge"><title>Node25&#45;&gt;Node18</title>
<path fill="none" stroke="#9a32cd" stroke-dasharray="5,2" d="M1024.55,-405.217C1063.66,-405.073 1111.18,-408.321 1152,-421 1180.91,-429.981 1210.02,-450.983 1225.54,-463.374"/>
<polygon fill="#9a32cd" stroke="#9a32cd" points="1024.23,-401.721 1014.27,-405.333 1024.31,-408.72 1024.23,-401.721"/>
<text text-anchor="middle" x="1101" y="-435" font-family="Helvetica,sans-Serif" font-size="10.00"> commandItems</text>
<text text-anchor="middle" x="1101" y="-424" font-family="Helvetica,sans-Serif" font-size="10.00">historyItems</text>
</g>
<!-- Node26 -->
<g id="node26" class="node"><title>Node26</title>
<polygon fill="white" stroke="#bfbfbf" points="1206.5,-802.5 1206.5,-821.5 1269.5,-821.5 1269.5,-802.5 1206.5,-802.5"/>
<text text-anchor="middle" x="1238" y="-809.5" font-family="Helvetica,sans-Serif" font-size="10.00">Rectangle</text>
</g>
<!-- Node26&#45;&gt;Node11 -->
<g id="edge31" class="edge"><title>Node26&#45;&gt;Node11</title>
<path fill="none" stroke="#9a32cd" stroke-dasharray="5,2" d="M1279.91,-807.849C1314.27,-802.795 1363.46,-791.766 1400,-768 1426.84,-750.546 1447.69,-717.74 1456.88,-701.544"/>
<polygon fill="#9a32cd" stroke="#9a32cd" points="1279.19,-804.414 1269.75,-809.233 1280.14,-811.35 1279.19,-804.414"/>
<text text-anchor="middle" x="1362" y="-801" font-family="Helvetica,sans-Serif" font-size="10.00"> myBackground</text>
</g>
<!-- Node27 -->
<g id="node27" class="node"><title>Node27</title>
<polygon fill="white" stroke="#bfbfbf" points="378.5,-197.5 378.5,-216.5 423.5,-216.5 423.5,-197.5 378.5,-197.5"/>
<text text-anchor="middle" x="401" y="-204.5" font-family="Helvetica,sans-Serif" font-size="10.00">Stage</text>
</g>
<!-- Node27&#45;&gt;Node10 -->
<g id="edge32" class="edge"><title>Node27&#45;&gt;Node10</title>
<path fill="none" stroke="#9a32cd" stroke-dasharray="5,2" d="M433.783,-206.634C452.48,-206.428 476.584,-206.176 498,-206 538.676,-205.665 584.994,-205.394 618.18,-205.219"/>
<polygon fill="#9a32cd" stroke="#9a32cd" points="433.692,-203.135 423.732,-206.747 433.771,-210.134 433.692,-203.135"/>
<text text-anchor="middle" x="538" y="-209" font-family="Helvetica,sans-Serif" font-size="10.00"> myStage</text>
</g>
<!-- Node28&#45;&gt;Node10 -->
<g id="edge34" class="edge"><title>Node28&#45;&gt;Node10</title>
<path fill="none" stroke="#9a32cd" stroke-dasharray="5,2" d="M1418.94,-130.604C1284.45,-120.573 873.876,-94.4669 750,-139 717.65,-150.63 687.892,-179.637 673.712,-195.034"/>
<polygon fill="#9a32cd" stroke="#9a32cd" points="1419.01,-134.119 1429.24,-131.382 1419.54,-127.139 1419.01,-134.119"/>
<text text-anchor="middle" x="1101" y="-119" font-family="Helvetica,sans-Serif" font-size="10.00"> myEditor</text>
</g>
<!-- Node29 -->
<g id="node29" class="node"><title>Node29</title>
<polygon fill="white" stroke="#bfbfbf" points="1217,-67.5 1217,-86.5 1259,-86.5 1259,-67.5 1217,-67.5"/>
<text text-anchor="middle" x="1238" y="-74.5" font-family="Helvetica,sans-Serif" font-size="10.00">HBox</text>
</g>
<!-- Node29&#45;&gt;Node28 -->
<g id="edge35" class="edge"><title>Node29&#45;&gt;Node28</title>
<path fill="none" stroke="midnightblue" d="M1269.4,-78.4485C1302.31,-80.72 1355.99,-86.4878 1400,-101 1417.14,-106.652 1435.18,-116.798 1447.36,-124.354"/>
<polygon fill="midnightblue" stroke="midnightblue" points="1269.28,-74.9341 1259.08,-77.8046 1268.84,-81.9205 1269.28,-74.9341"/>
</g>
<!-- Node30 -->
<g id="node30" class="node"><title>Node30</title>
<polygon fill="white" stroke="#bfbfbf" points="1213.5,-29.5 1213.5,-48.5 1262.5,-48.5 1262.5,-29.5 1213.5,-29.5"/>
<text text-anchor="middle" x="1238" y="-36.5" font-family="Helvetica,sans-Serif" font-size="10.00">Button</text>
</g>
<!-- Node30&#45;&gt;Node28 -->
<g id="edge36" class="edge"><title>Node30&#45;&gt;Node28</title>
<path fill="none" stroke="#9a32cd" stroke-dasharray="5,2" d="M1272.93,-39.6627C1306.95,-41.6284 1359.9,-48.313 1400,-70 1424.77,-83.3931 1445.65,-110.091 1455.66,-124.406"/>
<polygon fill="#9a32cd" stroke="#9a32cd" points="1272.75,-36.1502 1262.59,-39.1773 1272.42,-43.1425 1272.75,-36.1502"/>
<text text-anchor="middle" x="1362" y="-73" font-family="Helvetica,sans-Serif" font-size="10.00"> runButton</text>
</g>
<!-- Node31 -->
<g id="node31" class="node"><title>Node31</title>
<polygon fill="white" stroke="#bfbfbf" points="1209,-143.5 1209,-162.5 1267,-162.5 1267,-143.5 1209,-143.5"/>
<text text-anchor="middle" x="1238" y="-150.5" font-family="Helvetica,sans-Serif" font-size="10.00">TextArea</text>
</g>
<!-- Node31&#45;&gt;Node28 -->
<g id="edge38" class="edge"><title>Node31&#45;&gt;Node28</title>
<path fill="none" stroke="#9a32cd" stroke-dasharray="5,2" d="M1277.29,-149.738C1320.14,-146.087 1388.85,-140.233 1429.29,-136.787"/>
<polygon fill="#9a32cd" stroke="#9a32cd" points="1276.91,-146.257 1267.24,-150.594 1277.5,-153.232 1276.91,-146.257"/>
<text text-anchor="middle" x="1362" y="-149" font-family="Helvetica,sans-Serif" font-size="10.00"> textEditor</text>
</g>
<!-- Node32 -->
<g id="node32" class="node"><title>Node32</title>
<polygon fill="white" stroke="#bfbfbf" points="341.5,-121.5 341.5,-140.5 460.5,-140.5 460.5,-121.5 341.5,-121.5"/>
<text text-anchor="middle" x="401" y="-128.5" font-family="Helvetica,sans-Serif" font-size="10.00">Map&lt; String, Node &gt;</text>
</g>
<!-- Node32&#45;&gt;Node10 -->
<g id="edge40" class="edge"><title>Node32&#45;&gt;Node10</title>
<path fill="none" stroke="#9a32cd" stroke-dasharray="5,2" d="M470.726,-140.83C503.645,-146.506 543.351,-154.777 578,-166 602.096,-173.805 628.389,-186.58 645.253,-195.369"/>
<polygon fill="#9a32cd" stroke="#9a32cd" points="471.182,-137.358 460.74,-139.152 470.022,-144.261 471.182,-137.358"/>
<text text-anchor="middle" x="538" y="-169" font-family="Helvetica,sans-Serif" font-size="10.00"> variables</text>
</g>
<!-- Node33 -->
<g id="node33" class="node"><title>Node33</title>
<polygon fill="white" stroke="#bfbfbf" points="360.5,-159.5 360.5,-178.5 441.5,-178.5 441.5,-159.5 360.5,-159.5"/>
<text text-anchor="middle" x="401" y="-166.5" font-family="Helvetica,sans-Serif" font-size="10.00">Dimension2D</text>
</g>
<!-- Node33&#45;&gt;Node10 -->
<g id="edge43" class="edge"><title>Node33&#45;&gt;Node10</title>
<path fill="none" stroke="#9a32cd" stroke-dasharray="5,2" d="M451.601,-174.678C486.9,-178.847 535.423,-184.835 578,-191 591.173,-192.907 605.46,-195.181 618.495,-197.335"/>
<polygon fill="#9a32cd" stroke="#9a32cd" points="451.893,-171.189 441.553,-173.499 451.076,-178.141 451.893,-171.189"/>
<text text-anchor="middle" x="538" y="-194" font-family="Helvetica,sans-Serif" font-size="10.00"> myDimensions</text>
</g>
<!-- Node34&#45;&gt;Node10 -->
<g id="edge44" class="edge"><title>Node34&#45;&gt;Node10</title>
<path fill="none" stroke="#9a32cd" stroke-dasharray="5,2" d="M1622.58,-42.973C1586.99,-26.0955 1522.5,-0 1464,-0 944,-0 944,-0 944,-0 810.262,-0 698.24,-154.858 671.212,-195.387"/>
<polygon fill="#9a32cd" stroke="#9a32cd" points="1621.3,-46.2414 1631.82,-47.4595 1624.36,-39.9441 1621.3,-46.2414"/>
<text text-anchor="middle" x="1238" y="-3" font-family="Helvetica,sans-Serif" font-size="10.00"> drawer</text>
</g>
<!-- Node35 -->
<g id="node35" class="node"><title>Node35</title>
<polygon fill="white" stroke="#bfbfbf" points="1442.5,-47.5 1442.5,-66.5 1483.5,-66.5 1483.5,-47.5 1442.5,-47.5"/>
<text text-anchor="middle" x="1463" y="-54.5" font-family="Helvetica,sans-Serif" font-size="10.00">Color</text>
</g>
<!-- Node35&#45;&gt;Node34 -->
<g id="edge46" class="edge"><title>Node35&#45;&gt;Node34</title>
<path fill="none" stroke="#9a32cd" stroke-dasharray="5,2" d="M1493.86,-57C1526.64,-57 1579.27,-57 1614.23,-57"/>
<polygon fill="#9a32cd" stroke="#9a32cd" points="1493.55,-53.5001 1483.55,-57 1493.55,-60.5001 1493.55,-53.5001"/>
<text text-anchor="middle" x="1561" y="-60" font-family="Helvetica,sans-Serif" font-size="10.00"> myColor</text>
</g>
</g>
</svg>
