<?xml version="1.0" encoding="UTF-8" standalone="no"?>
<!DOCTYPE svg PUBLIC "-//W3C//DTD SVG 1.1//EN"
 "http://www.w3.org/Graphics/SVG/1.1/DTD/svg11.dtd">
<!-- Generated by graphviz version 2.36.0 (20140111.2315)
 -->
<!-- Title: model.instructions.UserRunningInstruction Pages: 1 -->
<!--zoomable 661 -->
<svg id="main" version="1.1" xmlns="http://www.w3.org/2000/svg" xmlns:xlink="http://www.w3.org/1999/xlink" xml:space="preserve" onload="init(evt)">
<style type="text/css"><![CDATA[
.edge:hover path { stroke: red; }
.edge:hover polygon { stroke: red; fill: red; }
]]></style>
<script type="text/javascript"><![CDATA[
var edges = document.getElementsByTagName('g');
if (edges && edges.length) {
  for (var i=0;i<edges.length;i++) {
    if (edges[i].id.substr(0,4)=='edge') {
      edges[i].setAttribute('class','edge');
    }
  }
}
]]></script>
        <defs>
                <circle id="rim" cx="0" cy="0" r="7"/>
                <circle id="rim2" cx="0" cy="0" r="3.5"/>
                <g id="zoomPlus">
                        <use xlink:href="#rim" fill="#404040">
                                <set attributeName="fill" to="#808080" begin="zoomplus.mouseover" end="zoomplus.mouseout"/>
                        </use>
                        <path d="M-4,0h8M0,-4v8" fill="none" stroke="white" stroke-width="1.5" pointer-events="none"/>
                </g>
                <g id="zoomMin">
                        <use xlink:href="#rim" fill="#404040">
                                <set attributeName="fill" to="#808080" begin="zoomminus.mouseover" end="zoomminus.mouseout"/>
                        </use>
                        <path d="M-4,0h8" fill="none" stroke="white" stroke-width="1.5" pointer-events="none"/>
                </g>
                <g id="dirArrow">
                        <path fill="none" stroke="white" stroke-width="1.5" d="M0,-3.0v7 M-2.5,-0.5L0,-3.0L2.5,-0.5"/>
                </g>
               <g id="resetDef">
                       <use xlink:href="#rim2" fill="#404040">
                               <set attributeName="fill" to="#808080" begin="reset.mouseover" end="reset.mouseout"/>
                       </use>
               </g>
        </defs>

<script type="text/javascript">
var viewWidth = 1508;
var viewHeight = 661;
var sectionId = 'dynsection-1';
</script>
<script xlink:href="../../svgpan.js"/>
<svg id="graph" class="graph">
<g id="viewport">
<title>model.instructions.UserRunningInstruction</title>
<polygon fill="white" stroke="none" points="-4,4 -4,-656.615 1504,-656.615 1504,4 -4,4"/>
<!-- Node1 -->
<g id="node1" class="node"><title>Node1</title>
<polygon fill="#bfbfbf" stroke="black" points="950,-75 950,-105 1118,-105 1118,-75 950,-75"/>
<text text-anchor="start" x="958" y="-93" font-family="Helvetica,sans-Serif" font-size="10.00">model.instructions.UserRunning</text>
<text text-anchor="middle" x="1034" y="-82" font-family="Helvetica,sans-Serif" font-size="10.00">Instruction</text>
</g>
<!-- Node2 -->
<g id="node2" class="node"><title>Node2</title>
<g id="a_node2"><a xlink:href="../../d1/dea/classmodel_1_1instructions_1_1_instruction.html" target="_top" xlink:title="model.instructions.Instruction">
<polygon fill="white" stroke="black" points="646,-80.5 646,-99.5 804,-99.5 804,-80.5 646,-80.5"/>
<text text-anchor="middle" x="725" y="-87.5" font-family="Helvetica,sans-Serif" font-size="10.00">model.instructions.Instruction</text>
</a>
</g>
</g>
<!-- Node2&#45;&gt;Node1 -->
<g id="edge1" class="edge"><title>Node2&#45;&gt;Node1</title>
<path fill="none" stroke="midnightblue" d="M814.348,-90C856.977,-90 907.836,-90 949.772,-90"/>
<polygon fill="midnightblue" stroke="midnightblue" points="814.263,-86.5001 804.263,-90 814.263,-93.5001 814.263,-86.5001"/>
</g>
<!-- Node3 -->
<g id="node3" class="node"><title>Node3</title>
<polygon fill="white" stroke="#bfbfbf" points="57,-156.5 57,-175.5 117,-175.5 117,-156.5 57,-156.5"/>
<text text-anchor="middle" x="87" y="-163.5" font-family="Helvetica,sans-Serif" font-size="10.00">Observer</text>
</g>
<!-- Node3&#45;&gt;Node2 -->
<g id="edge2" class="edge"><title>Node3&#45;&gt;Node2</title>
<path fill="none" stroke="midnightblue" d="M127.155,-160.562C146.636,-157.898 170.548,-154.694 192,-152 353.227,-131.755 542.236,-110.259 645.971,-98.6538"/>
<polygon fill="midnightblue" stroke="midnightblue" points="126.552,-157.111 117.121,-161.939 127.504,-164.046 126.552,-157.111"/>
</g>
<!-- Node9 -->
<g id="node9" class="node"><title>Node9</title>
<g id="a_node9"><a xlink:href="../../d6/de7/classview_1_1_s_logo_view.html" target="_top" xlink:title="view.SLogoView">
<polygon fill="white" stroke="black" points="355.5,-282.5 355.5,-301.5 446.5,-301.5 446.5,-282.5 355.5,-282.5"/>
<text text-anchor="middle" x="401" y="-289.5" font-family="Helvetica,sans-Serif" font-size="10.00">view.SLogoView</text>
</a>
</g>
</g>
<!-- Node3&#45;&gt;Node9 -->
<g id="edge9" class="edge"><title>Node3&#45;&gt;Node9</title>
<path fill="none" stroke="midnightblue" d="M126.768,-178.138C170.454,-192.202 243.293,-216.817 304,-243 332.351,-255.228 364.036,-272.049 382.98,-282.462"/>
<polygon fill="midnightblue" stroke="midnightblue" points="127.7,-174.762 117.109,-175.048 125.567,-181.429 127.7,-174.762"/>
</g>
<!-- Node20 -->
<g id="node20" class="node"><title>Node20</title>
<g id="a_node20"><a xlink:href="../../dc/df5/classmodel_1_1_parser.html" target="_top" xlink:title="model.Parser">
<polygon fill="white" stroke="black" points="685,-235.5 685,-254.5 765,-254.5 765,-235.5 685,-235.5"/>
<text text-anchor="middle" x="725" y="-242.5" font-family="Helvetica,sans-Serif" font-size="10.00">model.Parser</text>
</a>
</g>
</g>
<!-- Node3&#45;&gt;Node20 -->
<g id="edge21" class="edge"><title>Node3&#45;&gt;Node20</title>
<path fill="none" stroke="midnightblue" d="M127.282,-164.374C234.092,-160.375 527.96,-152.288 620,-180 657.718,-191.356 695.234,-220.244 713.142,-235.395"/>
<polygon fill="midnightblue" stroke="midnightblue" points="127.107,-160.878 117.248,-164.759 127.375,-167.873 127.107,-160.878"/>
</g>
<!-- Node4 -->
<g id="node4" class="node"><title>Node4</title>
<g id="a_node4"><a xlink:href="../../d1/dca/classmodel_1_1_execution_environment.html" target="_top" xlink:title="model.ExecutionEnvironment">
<polygon fill="white" stroke="black" points="322.5,-65.5 322.5,-84.5 479.5,-84.5 479.5,-65.5 322.5,-65.5"/>
<text text-anchor="middle" x="401" y="-72.5" font-family="Helvetica,sans-Serif" font-size="10.00">model.ExecutionEnvironment</text>
</a>
</g>
</g>
<!-- Node4&#45;&gt;Node2 -->
<g id="edge3" class="edge"><title>Node4&#45;&gt;Node2</title>
<path fill="none" stroke="#9a32cd" stroke-dasharray="5,2" d="M489.919,-76.9287C529.666,-78.0308 577.217,-79.6688 620,-82 628.408,-82.4582 637.193,-83.0138 645.941,-83.6164"/>
<polygon fill="#9a32cd" stroke="#9a32cd" points="489.816,-73.4247 479.725,-76.653 489.627,-80.4222 489.816,-73.4247"/>
<text text-anchor="middle" x="559" y="-85" font-family="Helvetica,sans-Serif" font-size="10.00"> myEnvironment</text>
</g>
<!-- Node4&#45;&gt;Node20 -->
<g id="edge23" class="edge"><title>Node4&#45;&gt;Node20</title>
<path fill="none" stroke="#9a32cd" stroke-dasharray="5,2" d="M451.891,-87.0905C506.959,-100.959 591.577,-123.975 620,-141 663.372,-166.98 701.866,-214.986 717.083,-235.405"/>
<polygon fill="#9a32cd" stroke="#9a32cd" points="452.523,-83.6408 441.973,-84.6108 450.825,-90.4318 452.523,-83.6408"/>
<text text-anchor="middle" x="559" y="-144" font-family="Helvetica,sans-Serif" font-size="10.00"> myExecutionParameters</text>
</g>
<!-- Node5 -->
<g id="node5" class="node"><title>Node5</title>
<polygon fill="white" stroke="#bfbfbf" points="51.5,-0.5 51.5,-19.5 122.5,-19.5 122.5,-0.5 51.5,-0.5"/>
<text text-anchor="middle" x="87" y="-7.5" font-family="Helvetica,sans-Serif" font-size="10.00">Observable</text>
</g>
<!-- Node5&#45;&gt;Node4 -->
<g id="edge4" class="edge"><title>Node5&#45;&gt;Node4</title>
<path fill="none" stroke="midnightblue" d="M132.884,-18.5447C176.626,-26.9643 244.983,-40.3661 304,-53 322.225,-56.9014 342.334,-61.4689 359.419,-65.428"/>
<polygon fill="midnightblue" stroke="midnightblue" points="133.336,-15.0677 122.855,-16.6188 132.016,-21.9421 133.336,-15.0677"/>
</g>
<!-- Node6 -->
<g id="node6" class="node"><title>Node6</title>
<polygon fill="white" stroke="#bfbfbf" points="0,-77 0,-107 174,-107 174,-77 0,-77"/>
<text text-anchor="start" x="8" y="-95" font-family="Helvetica,sans-Serif" font-size="10.00">Map&lt; String, model.instructions.</text>
<text text-anchor="middle" x="87" y="-84" font-family="Helvetica,sans-Serif" font-size="10.00">Instruction &gt;</text>
</g>
<!-- Node6&#45;&gt;Node4 -->
<g id="edge5" class="edge"><title>Node6&#45;&gt;Node4</title>
<path fill="none" stroke="#9a32cd" stroke-dasharray="5,2" d="M184.305,-86.7526C228.685,-84.3345 280.655,-81.5028 322.461,-79.2249"/>
<polygon fill="#9a32cd" stroke="#9a32cd" points="183.876,-83.2707 174.081,-87.3097 184.257,-90.2603 183.876,-83.2707"/>
<text text-anchor="middle" x="248" y="-90" font-family="Helvetica,sans-Serif" font-size="10.00"> myUserInstructionMap</text>
</g>
<!-- Node7 -->
<g id="node7" class="node"><title>Node7</title>
<polygon fill="white" stroke="#bfbfbf" points="23,-38.5 23,-57.5 151,-57.5 151,-38.5 23,-38.5"/>
<text text-anchor="middle" x="87" y="-45.5" font-family="Helvetica,sans-Serif" font-size="10.00">Map&lt; String, Double &gt;</text>
</g>
<!-- Node7&#45;&gt;Node4 -->
<g id="edge6" class="edge"><title>Node7&#45;&gt;Node4</title>
<path fill="none" stroke="#9a32cd" stroke-dasharray="5,2" d="M161.434,-53.9301C203.232,-57.3529 256.559,-61.7996 304,-66 310.003,-66.5315 316.216,-67.0915 322.461,-67.6614"/>
<polygon fill="#9a32cd" stroke="#9a32cd" points="161.592,-50.4314 151.34,-53.105 161.021,-57.4081 161.592,-50.4314"/>
<text text-anchor="middle" x="248" y="-69" font-family="Helvetica,sans-Serif" font-size="10.00"> myVariableMap</text>
</g>
<!-- Node8 -->
<g id="node8" class="node"><title>Node8</title>
<polygon fill="white" stroke="#bfbfbf" points="333,-16 333,-46 469,-46 469,-16 333,-16"/>
<text text-anchor="start" x="341" y="-34" font-family="Helvetica,sans-Serif" font-size="10.00">List&lt; model.instructions.</text>
<text text-anchor="middle" x="401" y="-23" font-family="Helvetica,sans-Serif" font-size="10.00">Instruction &gt;</text>
</g>
<!-- Node8&#45;&gt;Node2 -->
<g id="edge7" class="edge"><title>Node8&#45;&gt;Node2</title>
<path fill="none" stroke="#9a32cd" stroke-dasharray="5,2" d="M479.238,-40.2657C521.087,-45.806 573.589,-53.5978 620,-63 643.95,-67.8519 670.622,-74.8083 690.958,-80.4449"/>
<polygon fill="#9a32cd" stroke="#9a32cd" points="479.482,-36.768 469.112,-38.9416 478.574,-43.7089 479.482,-36.768"/>
<text text-anchor="middle" x="559" y="-66" font-family="Helvetica,sans-Serif" font-size="10.00"> myDependencies</text>
</g>
<!-- Node9&#45;&gt;Node2 -->
<g id="edge8" class="edge"><title>Node9&#45;&gt;Node2</title>
<path fill="none" stroke="#9a32cd" stroke-dasharray="5,2" d="M416.278,-274.425C433.674,-254.02 464.87,-220.547 498,-200 546.985,-169.62 568.244,-181.373 620,-156 654.562,-139.056 691.937,-113.31 711.083,-99.5169"/>
<polygon fill="#9a32cd" stroke="#9a32cd" points="413.428,-272.376 409.701,-282.294 418.8,-276.865 413.428,-272.376"/>
<text text-anchor="middle" x="559" y="-203" font-family="Helvetica,sans-Serif" font-size="10.00"> myView</text>
</g>
<!-- Node9&#45;&gt;Node20 -->
<g id="edge25" class="edge"><title>Node9&#45;&gt;Node20</title>
<path fill="none" stroke="#9a32cd" stroke-dasharray="5,2" d="M456.711,-289.832C501.117,-287.273 565.134,-281.761 620,-270 628.245,-268.233 629.872,-266.246 638,-264 653.18,-259.805 670.067,-255.91 684.83,-252.753"/>
<polygon fill="#9a32cd" stroke="#9a32cd" points="456.499,-286.338 446.705,-290.378 456.881,-293.328 456.499,-286.338"/>
<text text-anchor="middle" x="559" y="-290" font-family="Helvetica,sans-Serif" font-size="10.00"> mySLogoView</text>
</g>
<!-- Node10 -->
<g id="node10" class="node"><title>Node10</title>
<g id="a_node10"><a xlink:href="../../da/d64/classview_1_1_workspace.html" target="_top" xlink:title="view.Workspace">
<polygon fill="white" stroke="black" points="1230,-474.5 1230,-493.5 1320,-493.5 1320,-474.5 1230,-474.5"/>
<text text-anchor="middle" x="1275" y="-481.5" font-family="Helvetica,sans-Serif" font-size="10.00">view.Workspace</text>
</a>
</g>
</g>
<!-- Node10&#45;&gt;Node9 -->
<g id="edge10" class="edge"><title>Node10&#45;&gt;Node9</title>
<path fill="none" stroke="#9a32cd" stroke-dasharray="5,2" d="M1219.7,-483.133C1189.71,-482.697 1151.8,-482.217 1118,-482 1043.33,-481.521 1024.49,-476.896 950,-482 811.401,-491.496 770.996,-541.148 638,-501 523.257,-466.362 432.121,-338.036 408.174,-301.665"/>
<polygon fill="#9a32cd" stroke="#9a32cd" points="1219.91,-486.636 1229.96,-483.285 1220.01,-479.637 1219.91,-486.636"/>
<text text-anchor="middle" x="881" y="-504" font-family="Helvetica,sans-Serif" font-size="10.00"> myWorkspace</text>
</g>
<!-- Node33 -->
<g id="node33" class="node"><title>Node33</title>
<g id="a_node33"><a xlink:href="../../de/d0a/classview_1_1_drawer.html" target="_top" xlink:title="view.Drawer">
<polygon fill="white" stroke="black" points="1426.5,-474.5 1426.5,-493.5 1499.5,-493.5 1499.5,-474.5 1426.5,-474.5"/>
<text text-anchor="middle" x="1463" y="-481.5" font-family="Helvetica,sans-Serif" font-size="10.00">view.Drawer</text>
</a>
</g>
</g>
<!-- Node10&#45;&gt;Node33 -->
<g id="edge41" class="edge"><title>Node10&#45;&gt;Node33</title>
<path fill="none" stroke="#9a32cd" stroke-dasharray="5,2" d="M1330.28,-484C1361.23,-484 1399.14,-484 1426.33,-484"/>
<polygon fill="#9a32cd" stroke="#9a32cd" points="1330.08,-480.5 1320.08,-484 1330.08,-487.5 1330.08,-480.5"/>
<text text-anchor="middle" x="1373" y="-487" font-family="Helvetica,sans-Serif" font-size="10.00"> myWorkspace</text>
</g>
<!-- Node11 -->
<g id="node11" class="node"><title>Node11</title>
<polygon fill="white" stroke="#bfbfbf" points="1000.5,-540.5 1000.5,-559.5 1067.5,-559.5 1067.5,-540.5 1000.5,-540.5"/>
<text text-anchor="middle" x="1034" y="-547.5" font-family="Helvetica,sans-Serif" font-size="10.00">StackPane</text>
</g>
<!-- Node11&#45;&gt;Node10 -->
<g id="edge11" class="edge"><title>Node11&#45;&gt;Node10</title>
<path fill="none" stroke="midnightblue" d="M1078.02,-542.935C1114.25,-536.414 1167.19,-525.542 1212,-511 1226.74,-506.216 1242.76,-499.187 1254.83,-493.5"/>
<polygon fill="midnightblue" stroke="midnightblue" points="1077.04,-539.553 1067.8,-544.738 1078.26,-546.447 1077.04,-539.553"/>
</g>
<!-- Node12 -->
<g id="node12" class="node"><title>Node12</title>
<g id="a_node12"><a xlink:href="../../d8/df7/classview_1_1_turtle_view.html" target="_top" xlink:title="view.TurtleView">
<polygon fill="white" stroke="black" points="991,-578.5 991,-597.5 1077,-597.5 1077,-578.5 991,-578.5"/>
<text text-anchor="middle" x="1034" y="-585.5" font-family="Helvetica,sans-Serif" font-size="10.00">view.TurtleView</text>
</a>
</g>
</g>
<!-- Node12&#45;&gt;Node10 -->
<g id="edge12" class="edge"><title>Node12&#45;&gt;Node10</title>
<path fill="none" stroke="#9a32cd" stroke-dasharray="5,2" d="M1087.13,-578.467C1123.75,-570.287 1172.95,-556.23 1212,-534 1232.19,-522.506 1252.58,-504.565 1264.21,-493.588"/>
<polygon fill="#9a32cd" stroke="#9a32cd" points="1086.19,-575.089 1077.16,-580.62 1087.67,-581.931 1086.19,-575.089"/>
<text text-anchor="middle" x="1174" y="-568" font-family="Helvetica,sans-Serif" font-size="10.00"> myActiveTurtle</text>
</g>
<!-- Node13 -->
<g id="node13" class="node"><title>Node13</title>
<polygon fill="white" stroke="#bfbfbf" points="691,-586.5 691,-605.5 759,-605.5 759,-586.5 691,-586.5"/>
<text text-anchor="middle" x="725" y="-593.5" font-family="Helvetica,sans-Serif" font-size="10.00">ImageView</text>
</g>
<!-- Node13&#45;&gt;Node12 -->
<g id="edge13" class="edge"><title>Node13&#45;&gt;Node12</title>
<path fill="none" stroke="midnightblue" d="M769.232,-594.873C828.085,-593.34 932.74,-590.613 990.965,-589.095"/>
<polygon fill="midnightblue" stroke="midnightblue" points="769.051,-591.377 759.146,-595.136 769.234,-598.374 769.051,-591.377"/>
</g>
<!-- Node14 -->
<g id="node14" class="node"><title>Node14</title>
<polygon fill="white" stroke="#bfbfbf" points="966,-491 966,-521 1102,-521 1102,-491 966,-491"/>
<text text-anchor="start" x="974" y="-509" font-family="Helvetica,sans-Serif" font-size="10.00">Map&lt; Integer, view.Turtle</text>
<text text-anchor="middle" x="1034" y="-498" font-family="Helvetica,sans-Serif" font-size="10.00">View &gt;</text>
</g>
<!-- Node14&#45;&gt;Node10 -->
<g id="edge14" class="edge"><title>Node14&#45;&gt;Node10</title>
<path fill="none" stroke="#9a32cd" stroke-dasharray="5,2" d="M1112.46,-498.87C1151.35,-495.29 1197.05,-491.084 1229.89,-488.06"/>
<polygon fill="#9a32cd" stroke="#9a32cd" points="1111.85,-495.411 1102.21,-499.813 1112.49,-502.382 1111.85,-495.411"/>
<text text-anchor="middle" x="1174" y="-499" font-family="Helvetica,sans-Serif" font-size="10.00"> myTurtles</text>
</g>
<!-- Node15 -->
<g id="node15" class="node"><title>Node15</title>
<g id="a_node15"><a xlink:href="../../d1/dc7/classview_1_1_side_bar.html" target="_top" xlink:title="view.SideBar">
<polygon fill="white" stroke="black" points="995.5,-373.5 995.5,-392.5 1072.5,-392.5 1072.5,-373.5 995.5,-373.5"/>
<text text-anchor="middle" x="1034" y="-380.5" font-family="Helvetica,sans-Serif" font-size="10.00">view.SideBar</text>
</a>
</g>
</g>
<!-- Node15&#45;&gt;Node9 -->
<g id="edge43" class="edge"><title>Node15&#45;&gt;Node9</title>
<path fill="none" stroke="#9a32cd" stroke-dasharray="5,2" d="M985.023,-387.007C968.261,-388.226 949.311,-389.401 932,-390 886.694,-391.568 875.311,-391.415 830,-390 744.542,-387.332 721.693,-395.483 638,-378 554.975,-360.656 461.879,-320.024 421.942,-301.502"/>
<polygon fill="#9a32cd" stroke="#9a32cd" points="985.433,-390.486 995.143,-386.247 984.909,-383.506 985.433,-390.486"/>
<text text-anchor="middle" x="725" y="-392" font-family="Helvetica,sans-Serif" font-size="10.00"> mySidebar</text>
</g>
<!-- Node15&#45;&gt;Node10 -->
<g id="edge15" class="edge"><title>Node15&#45;&gt;Node10</title>
<path fill="none" stroke="#9a32cd" stroke-dasharray="5,2" d="M1082.94,-379.767C1120.4,-379.382 1172.54,-383.71 1212,-406 1240.62,-422.165 1260.91,-457.301 1269.47,-474.343"/>
<polygon fill="#9a32cd" stroke="#9a32cd" points="1082.71,-376.271 1072.79,-379.99 1082.87,-383.269 1082.71,-376.271"/>
<text text-anchor="middle" x="1174" y="-409" font-family="Helvetica,sans-Serif" font-size="10.00"> mySidebar</text>
</g>
<!-- Node27 -->
<g id="node27" class="node"><title>Node27</title>
<g id="a_node27"><a xlink:href="../../da/dc8/classview_1_1_editor.html" target="_top" xlink:title="view.Editor">
<polygon fill="white" stroke="black" points="1241.5,-262.5 1241.5,-281.5 1308.5,-281.5 1308.5,-262.5 1241.5,-262.5"/>
<text text-anchor="middle" x="1275" y="-269.5" font-family="Helvetica,sans-Serif" font-size="10.00">view.Editor</text>
</a>
</g>
</g>
<!-- Node15&#45;&gt;Node27 -->
<g id="edge36" class="edge"><title>Node15&#45;&gt;Node27</title>
<path fill="none" stroke="#9a32cd" stroke-dasharray="5,2" d="M1082.62,-374.943C1119.68,-367.249 1171.45,-353.298 1212,-330 1234.49,-317.076 1255.36,-294.509 1266.21,-281.666"/>
<polygon fill="#9a32cd" stroke="#9a32cd" points="1081.7,-371.558 1072.58,-376.95 1083.07,-378.422 1081.7,-371.558"/>
<text text-anchor="middle" x="1174" y="-364" font-family="Helvetica,sans-Serif" font-size="10.00"> mySidebar</text>
</g>
<!-- Node16 -->
<g id="node16" class="node"><title>Node16</title>
<polygon fill="white" stroke="#bfbfbf" points="704.5,-434.5 704.5,-453.5 745.5,-453.5 745.5,-434.5 704.5,-434.5"/>
<text text-anchor="middle" x="725" y="-441.5" font-family="Helvetica,sans-Serif" font-size="10.00">VBox</text>
</g>
<!-- Node16&#45;&gt;Node15 -->
<g id="edge16" class="edge"><title>Node16&#45;&gt;Node15</title>
<path fill="none" stroke="midnightblue" d="M755.751,-443.758C796.624,-442.585 871.911,-437.379 932,-416 940.833,-412.857 941.379,-408.684 950,-405 964.394,-398.849 980.943,-394.043 995.458,-390.513"/>
<polygon fill="midnightblue" stroke="midnightblue" points="755.572,-440.261 745.654,-443.985 755.73,-447.26 755.572,-440.261"/>
</g>
<!-- Node17 -->
<g id="node17" class="node"><title>Node17</title>
<polygon fill="white" stroke="#bfbfbf" points="638.5,-349.5 638.5,-368.5 811.5,-368.5 811.5,-349.5 638.5,-349.5"/>
<text text-anchor="middle" x="725" y="-356.5" font-family="Helvetica,sans-Serif" font-size="10.00">ObservableList&lt; view.Property &gt;</text>
</g>
<!-- Node17&#45;&gt;Node15 -->
<g id="edge17" class="edge"><title>Node17&#45;&gt;Node15</title>
<path fill="none" stroke="#9a32cd" stroke-dasharray="5,2" d="M821.563,-366.471C880.26,-371.059 952.205,-376.684 995.231,-380.047"/>
<polygon fill="#9a32cd" stroke="#9a32cd" points="821.759,-362.975 811.517,-365.685 821.213,-369.954 821.759,-362.975"/>
<text text-anchor="middle" x="881" y="-378" font-family="Helvetica,sans-Serif" font-size="10.00"> variablesList</text>
</g>
<!-- Node18 -->
<g id="node18" class="node"><title>Node18</title>
<polygon fill="white" stroke="#bfbfbf" points="40.5,-430.5 40.5,-449.5 133.5,-449.5 133.5,-430.5 40.5,-430.5"/>
<text text-anchor="middle" x="87" y="-437.5" font-family="Helvetica,sans-Serif" font-size="10.00">ResourceBundle</text>
</g>
<!-- Node18&#45;&gt;Node9 -->
<g id="edge30" class="edge"><title>Node18&#45;&gt;Node9</title>
<path fill="none" stroke="#9a32cd" stroke-dasharray="5,2" d="M128.936,-427.381C173.294,-413.001 245.56,-387.5 304,-357 335.94,-340.33 370.149,-315.193 387.838,-301.58"/>
<polygon fill="#9a32cd" stroke="#9a32cd" points="127.821,-424.062 119.368,-430.45 129.96,-430.728 127.821,-424.062"/>
<text text-anchor="middle" x="248" y="-407" font-family="Helvetica,sans-Serif" font-size="10.00"> myResources</text>
</g>
<!-- Node18&#45;&gt;Node15 -->
<g id="edge18" class="edge"><title>Node18&#45;&gt;Node15</title>
<path fill="none" stroke="#9a32cd" stroke-dasharray="5,2" d="M109.27,-456.082C148.674,-484.748 236.792,-543.668 322,-565 535.052,-618.338 596.834,-545.043 812,-501 865.462,-490.057 892.68,-512.841 932,-475 955.146,-452.725 927.37,-427.799 950,-405 961.867,-393.045 979.43,-387.357 995.347,-384.733"/>
<polygon fill="#9a32cd" stroke="#9a32cd" points="110.885,-452.923 100.759,-449.805 106.73,-458.557 110.885,-452.923"/>
<text text-anchor="middle" x="559" y="-584" font-family="Helvetica,sans-Serif" font-size="10.00"> myResources</text>
</g>
<!-- Node19 -->
<g id="node19" class="node"><title>Node19</title>
<polygon fill="white" stroke="#bfbfbf" points="651,-311.5 651,-330.5 799,-330.5 799,-311.5 651,-311.5"/>
<text text-anchor="middle" x="725" y="-318.5" font-family="Helvetica,sans-Serif" font-size="10.00">TableView&lt; view.Property &gt;</text>
</g>
<!-- Node19&#45;&gt;Node15 -->
<g id="edge19" class="edge"><title>Node19&#45;&gt;Node15</title>
<path fill="none" stroke="#9a32cd" stroke-dasharray="5,2" d="M809.775,-324.14C847.548,-326.93 892.457,-332.172 932,-342 961.752,-349.395 994.295,-363.849 1014.18,-373.467"/>
<polygon fill="#9a32cd" stroke="#9a32cd" points="809.539,-320.615 799.321,-323.416 809.056,-327.598 809.539,-320.615"/>
<text text-anchor="middle" x="881" y="-356" font-family="Helvetica,sans-Serif" font-size="10.00"> turtlePropertiesTable</text>
<text text-anchor="middle" x="881" y="-345" font-family="Helvetica,sans-Serif" font-size="10.00">variablesTable</text>
</g>
<!-- Node20&#45;&gt;Node9 -->
<g id="edge38" class="edge"><title>Node20&#45;&gt;Node9</title>
<path fill="none" stroke="#9a32cd" stroke-dasharray="5,2" d="M674.732,-243.449C628.59,-242.974 557.95,-244.765 498,-257 471.233,-262.463 441.929,-274.019 422.828,-282.361"/>
<polygon fill="#9a32cd" stroke="#9a32cd" points="674.717,-246.949 684.766,-243.592 674.817,-239.95 674.717,-246.949"/>
<text text-anchor="middle" x="559" y="-260" font-family="Helvetica,sans-Serif" font-size="10.00"> myParser</text>
</g>
<!-- Node20&#45;&gt;Node15 -->
<g id="edge20" class="edge"><title>Node20&#45;&gt;Node15</title>
<path fill="none" stroke="#9a32cd" stroke-dasharray="5,2" d="M775.648,-241.612C828.985,-239.076 909.179,-238.812 932,-258 958.238,-280.061 929.747,-305.343 950,-333 964.014,-352.137 987.77,-365.361 1006.28,-373.381"/>
<polygon fill="#9a32cd" stroke="#9a32cd" points="775.169,-238.132 765.364,-242.144 775.531,-245.122 775.169,-238.132"/>
<text text-anchor="middle" x="881" y="-261" font-family="Helvetica,sans-Serif" font-size="10.00"> myParser</text>
</g>
<!-- Node20&#45;&gt;Node27 -->
<g id="edge34" class="edge"><title>Node20&#45;&gt;Node27</title>
<path fill="none" stroke="#9a32cd" stroke-dasharray="5,2" d="M775.829,-240.386C792.981,-239.005 812.317,-237.679 830,-237 875.3,-235.26 895.224,-210.493 932,-237 952.523,-251.792 929.477,-276.208 950,-291 1010.57,-334.658 1043.36,-292.984 1118,-291 1159.82,-289.888 1170.56,-291.739 1212,-286 1221.62,-284.668 1231.95,-282.597 1241.37,-280.453"/>
<polygon fill="#9a32cd" stroke="#9a32cd" points="775.142,-236.931 765.467,-241.247 775.722,-243.907 775.142,-236.931"/>
<text text-anchor="middle" x="1034" y="-314" font-family="Helvetica,sans-Serif" font-size="10.00"> myParser</text>
</g>
<!-- Node21 -->
<g id="node21" class="node"><title>Node21</title>
<polygon fill="white" stroke="#bfbfbf" points="345,-526 345,-556 457,-556 457,-526 345,-526"/>
<text text-anchor="start" x="353" y="-544" font-family="Helvetica,sans-Serif" font-size="10.00">List&lt; Entry&lt; String,</text>
<text text-anchor="middle" x="401" y="-533" font-family="Helvetica,sans-Serif" font-size="10.00"> Pattern &gt; &gt;</text>
</g>
<!-- Node21&#45;&gt;Node20 -->
<g id="edge22" class="edge"><title>Node21&#45;&gt;Node20</title>
<path fill="none" stroke="#9a32cd" stroke-dasharray="5,2" d="M459.135,-522.365C510.209,-502.526 582.589,-465.897 620,-408 655.004,-353.827 594.564,-311.679 638,-264 649.739,-251.114 668.077,-245.937 684.809,-244.158"/>
<polygon fill="#9a32cd" stroke="#9a32cd" points="457.656,-519.182 449.54,-525.993 460.132,-525.73 457.656,-519.182"/>
<text text-anchor="middle" x="559" y="-507" font-family="Helvetica,sans-Serif" font-size="10.00"> myPatterns</text>
</g>
<!-- Node22 -->
<g id="node22" class="node"><title>Node22</title>
<polygon fill="white" stroke="#bfbfbf" points="340,-428.5 340,-447.5 462,-447.5 462,-428.5 340,-428.5"/>
<text text-anchor="middle" x="401" y="-435.5" font-family="Helvetica,sans-Serif" font-size="10.00">Map&lt; String, String &gt;</text>
</g>
<!-- Node22&#45;&gt;Node20 -->
<g id="edge24" class="edge"><title>Node22&#45;&gt;Node20</title>
<path fill="none" stroke="#9a32cd" stroke-dasharray="5,2" d="M435.423,-424.439C482.12,-404.032 567.091,-361.396 620,-302 632.43,-288.046 623.386,-275.648 638,-264 651.153,-253.517 668.881,-248.534 684.824,-246.261"/>
<polygon fill="#9a32cd" stroke="#9a32cd" points="433.875,-421.294 426.065,-428.454 436.635,-427.727 433.875,-421.294"/>
<text text-anchor="middle" x="559" y="-396" font-family="Helvetica,sans-Serif" font-size="10.00"> myCommandMap</text>
</g>
<!-- Node23 -->
<g id="node23" class="node"><title>Node23</title>
<polygon fill="white" stroke="#bfbfbf" points="656,-273.5 656,-292.5 794,-292.5 794,-273.5 656,-273.5"/>
<text text-anchor="middle" x="725" y="-280.5" font-family="Helvetica,sans-Serif" font-size="10.00">ObservableList&lt; String &gt;</text>
</g>
<!-- Node23&#45;&gt;Node15 -->
<g id="edge26" class="edge"><title>Node23&#45;&gt;Node15</title>
<path fill="none" stroke="#9a32cd" stroke-dasharray="5,2" d="M798.367,-272.799C840.551,-270.582 892.96,-274.595 932,-300 946.003,-309.112 938.442,-320.936 950,-333 967.224,-350.978 992.274,-364.88 1010.34,-373.411"/>
<polygon fill="#9a32cd" stroke="#9a32cd" points="797.904,-269.321 788.154,-273.466 798.361,-276.306 797.904,-269.321"/>
<text text-anchor="middle" x="881" y="-314" font-family="Helvetica,sans-Serif" font-size="10.00"> commandItems</text>
<text text-anchor="middle" x="881" y="-303" font-family="Helvetica,sans-Serif" font-size="10.00">historyItems</text>
</g>
<!-- Node24 -->
<g id="node24" class="node"><title>Node24</title>
<polygon fill="white" stroke="#bfbfbf" points="672,-472.5 672,-491.5 778,-491.5 778,-472.5 672,-472.5"/>
<text text-anchor="middle" x="725" y="-479.5" font-family="Helvetica,sans-Serif" font-size="10.00">ListView&lt; String &gt;</text>
</g>
<!-- Node24&#45;&gt;Node15 -->
<g id="edge27" class="edge"><title>Node24&#45;&gt;Node15</title>
<path fill="none" stroke="#9a32cd" stroke-dasharray="5,2" d="M787.956,-470.714C846.472,-459.848 926.156,-444.428 932,-440 945.942,-429.435 936.371,-415.964 950,-405 962.777,-394.722 979.898,-389.214 995.271,-386.276"/>
<polygon fill="#9a32cd" stroke="#9a32cd" points="787.227,-467.289 778.031,-472.551 788.501,-474.172 787.227,-467.289"/>
<text text-anchor="middle" x="881" y="-465" font-family="Helvetica,sans-Serif" font-size="10.00"> historyList</text>
</g>
<!-- Node25 -->
<g id="node25" class="node"><title>Node25</title>
<polygon fill="white" stroke="#bfbfbf" points="1002.5,-414.5 1002.5,-433.5 1065.5,-433.5 1065.5,-414.5 1002.5,-414.5"/>
<text text-anchor="middle" x="1034" y="-421.5" font-family="Helvetica,sans-Serif" font-size="10.00">Rectangle</text>
</g>
<!-- Node25&#45;&gt;Node10 -->
<g id="edge28" class="edge"><title>Node25&#45;&gt;Node10</title>
<path fill="none" stroke="#9a32cd" stroke-dasharray="5,2" d="M1075.9,-420.559C1112.7,-418.944 1167.66,-420.261 1212,-437 1233.48,-445.11 1253.77,-463.175 1264.98,-474.397"/>
<polygon fill="#9a32cd" stroke="#9a32cd" points="1075.35,-417.083 1065.55,-421.111 1075.73,-424.073 1075.35,-417.083"/>
<text text-anchor="middle" x="1174" y="-440" font-family="Helvetica,sans-Serif" font-size="10.00"> myBackground</text>
</g>
<!-- Node26 -->
<g id="node26" class="node"><title>Node26</title>
<polygon fill="white" stroke="#bfbfbf" points="64.5,-305.5 64.5,-324.5 109.5,-324.5 109.5,-305.5 64.5,-305.5"/>
<text text-anchor="middle" x="87" y="-312.5" font-family="Helvetica,sans-Serif" font-size="10.00">Stage</text>
</g>
<!-- Node26&#45;&gt;Node9 -->
<g id="edge29" class="edge"><title>Node26&#45;&gt;Node9</title>
<path fill="none" stroke="#9a32cd" stroke-dasharray="5,2" d="M119.977,-312.643C175.9,-308.52 291.57,-299.993 355.356,-295.291"/>
<polygon fill="#9a32cd" stroke="#9a32cd" points="119.655,-309.157 109.939,-313.383 120.17,-316.138 119.655,-309.157"/>
<text text-anchor="middle" x="248" y="-310" font-family="Helvetica,sans-Serif" font-size="10.00"> myStage</text>
</g>
<!-- Node27&#45;&gt;Node9 -->
<g id="edge31" class="edge"><title>Node27&#45;&gt;Node9</title>
<path fill="none" stroke="#9a32cd" stroke-dasharray="5,2" d="M1240.54,-258.141C1236.95,-256.479 1233.38,-254.749 1230,-253 1221.68,-248.686 1220.58,-245.773 1212,-242 1172.21,-224.509 1160.96,-221.637 1118,-215 907.113,-182.418 850.428,-205.772 638,-226 575.703,-231.932 557.829,-222.654 498,-241 466.785,-250.572 433.918,-270.497 415.887,-282.412"/>
<polygon fill="#9a32cd" stroke="#9a32cd" points="1239.41,-261.469 1249.97,-262.347 1242.26,-255.076 1239.41,-261.469"/>
<text text-anchor="middle" x="881" y="-208" font-family="Helvetica,sans-Serif" font-size="10.00"> myEditor</text>
</g>
<!-- Node28 -->
<g id="node28" class="node"><title>Node28</title>
<polygon fill="white" stroke="#bfbfbf" points="1013,-262.5 1013,-281.5 1055,-281.5 1055,-262.5 1013,-262.5"/>
<text text-anchor="middle" x="1034" y="-269.5" font-family="Helvetica,sans-Serif" font-size="10.00">HBox</text>
</g>
<!-- Node28&#45;&gt;Node27 -->
<g id="edge32" class="edge"><title>Node28&#45;&gt;Node27</title>
<path fill="none" stroke="midnightblue" d="M1065.44,-272C1110.57,-272 1194.89,-272 1241.3,-272"/>
<polygon fill="midnightblue" stroke="midnightblue" points="1065.38,-268.5 1055.38,-272 1065.38,-275.5 1065.38,-268.5"/>
</g>
<!-- Node29 -->
<g id="node29" class="node"><title>Node29</title>
<polygon fill="white" stroke="#bfbfbf" points="1009.5,-224.5 1009.5,-243.5 1058.5,-243.5 1058.5,-224.5 1009.5,-224.5"/>
<text text-anchor="middle" x="1034" y="-231.5" font-family="Helvetica,sans-Serif" font-size="10.00">Button</text>
</g>
<!-- Node29&#45;&gt;Node27 -->
<g id="edge33" class="edge"><title>Node29&#45;&gt;Node27</title>
<path fill="none" stroke="#9a32cd" stroke-dasharray="5,2" d="M1068.96,-237.31C1104.72,-241.052 1162.57,-247.838 1212,-257 1221.58,-258.776 1231.9,-261.104 1241.32,-263.394"/>
<polygon fill="#9a32cd" stroke="#9a32cd" points="1068.91,-233.786 1058.6,-236.247 1068.19,-240.75 1068.91,-233.786"/>
<text text-anchor="middle" x="1174" y="-260" font-family="Helvetica,sans-Serif" font-size="10.00"> runButton</text>
</g>
<!-- Node30 -->
<g id="node30" class="node"><title>Node30</title>
<polygon fill="white" stroke="#bfbfbf" points="1005,-148.5 1005,-167.5 1063,-167.5 1063,-148.5 1005,-148.5"/>
<text text-anchor="middle" x="1034" y="-155.5" font-family="Helvetica,sans-Serif" font-size="10.00">TextArea</text>
</g>
<!-- Node30&#45;&gt;Node27 -->
<g id="edge35" class="edge"><title>Node30&#45;&gt;Node27</title>
<path fill="none" stroke="#9a32cd" stroke-dasharray="5,2" d="M1073.12,-148.871C1112.71,-141.83 1174.06,-138.122 1212,-171 1240.2,-195.435 1206.26,-224.214 1230,-253 1233.18,-256.852 1237.28,-259.941 1241.7,-262.415"/>
<polygon fill="#9a32cd" stroke="#9a32cd" points="1072.22,-145.481 1063.06,-150.814 1073.55,-152.354 1072.22,-145.481"/>
<text text-anchor="middle" x="1174" y="-174" font-family="Helvetica,sans-Serif" font-size="10.00"> textEditor</text>
</g>
<!-- Node31 -->
<g id="node31" class="node"><title>Node31</title>
<polygon fill="white" stroke="#bfbfbf" points="27.5,-267.5 27.5,-286.5 146.5,-286.5 146.5,-267.5 27.5,-267.5"/>
<text text-anchor="middle" x="87" y="-274.5" font-family="Helvetica,sans-Serif" font-size="10.00">Map&lt; String, Node &gt;</text>
</g>
<!-- Node31&#45;&gt;Node9 -->
<g id="edge37" class="edge"><title>Node31&#45;&gt;Node9</title>
<path fill="none" stroke="#9a32cd" stroke-dasharray="5,2" d="M156.95,-277.181C199.394,-277.644 254.892,-278.879 304,-282 320.723,-283.063 339.03,-284.821 355.131,-286.57"/>
<polygon fill="#9a32cd" stroke="#9a32cd" points="156.762,-273.679 146.728,-277.082 156.694,-280.679 156.762,-273.679"/>
<text text-anchor="middle" x="248" y="-285" font-family="Helvetica,sans-Serif" font-size="10.00"> variables</text>
</g>
<!-- Node32 -->
<g id="node32" class="node"><title>Node32</title>
<polygon fill="white" stroke="#bfbfbf" points="46.5,-229.5 46.5,-248.5 127.5,-248.5 127.5,-229.5 46.5,-229.5"/>
<text text-anchor="middle" x="87" y="-236.5" font-family="Helvetica,sans-Serif" font-size="10.00">Dimension2D</text>
</g>
<!-- Node32&#45;&gt;Node9 -->
<g id="edge39" class="edge"><title>Node32&#45;&gt;Node9</title>
<path fill="none" stroke="#9a32cd" stroke-dasharray="5,2" d="M137.91,-241.949C181.95,-245.166 247.708,-251.471 304,-263 327.708,-267.856 353.973,-275.988 373.029,-282.407"/>
<polygon fill="#9a32cd" stroke="#9a32cd" points="137.974,-238.445 127.753,-241.234 137.483,-245.427 137.974,-238.445"/>
<text text-anchor="middle" x="248" y="-266" font-family="Helvetica,sans-Serif" font-size="10.00"> myDimensions</text>
</g>
<!-- Node33&#45;&gt;Node9 -->
<g id="edge40" class="edge"><title>Node33&#45;&gt;Node9</title>
<path fill="none" stroke="#9a32cd" stroke-dasharray="5,2" d="M1451.09,-502.412C1425.8,-542.476 1358.95,-634 1276,-634 880,-634 880,-634 880,-634 772.113,-634 719.266,-685.96 638,-615 609.567,-590.173 642.766,-562.108 620,-532 582.945,-482.994 538.512,-513.189 498,-467 482.976,-449.871 490.008,-439.468 480,-419 457.496,-372.975 423.143,-322.173 408.732,-301.516"/>
<polygon fill="#9a32cd" stroke="#9a32cd" points="1454.1,-504.194 1456.36,-493.842 1448.14,-500.528 1454.1,-504.194"/>
<text text-anchor="middle" x="1034" y="-637" font-family="Helvetica,sans-Serif" font-size="10.00"> drawer</text>
</g>
<!-- Node34 -->
<g id="node34" class="node"><title>Node34</title>
<polygon fill="white" stroke="#bfbfbf" points="1254.5,-224.5 1254.5,-243.5 1295.5,-243.5 1295.5,-224.5 1254.5,-224.5"/>
<text text-anchor="middle" x="1275" y="-231.5" font-family="Helvetica,sans-Serif" font-size="10.00">Color</text>
</g>
<!-- Node34&#45;&gt;Node33 -->
<g id="edge42" class="edge"><title>Node34&#45;&gt;Node33</title>
<path fill="none" stroke="#9a32cd" stroke-dasharray="5,2" d="M1305.24,-243.615C1310.5,-246.152 1315.68,-249.255 1320,-253 1397.23,-319.868 1445.56,-439.352 1458.49,-474.206"/>
<polygon fill="#9a32cd" stroke="#9a32cd" points="1306.43,-240.318 1295.86,-239.645 1303.7,-246.764 1306.43,-240.318"/>
<text text-anchor="middle" x="1373" y="-366" font-family="Helvetica,sans-Serif" font-size="10.00"> myColor</text>
</g>
<!-- Node35 -->
<g id="node35" class="node"><title>Node35</title>
<polygon fill="white" stroke="#bfbfbf" points="64,-343.5 64,-362.5 110,-362.5 110,-343.5 64,-343.5"/>
<text text-anchor="middle" x="87" y="-350.5" font-family="Helvetica,sans-Serif" font-size="10.00">Group</text>
</g>
<!-- Node35&#45;&gt;Node9 -->
<g id="edge44" class="edge"><title>Node35&#45;&gt;Node9</title>
<path fill="none" stroke="#9a32cd" stroke-dasharray="5,2" d="M120.327,-349.995C162.821,-345.673 239.623,-336.58 304,-322 327.842,-316.6 354.318,-308.134 373.416,-301.571"/>
<polygon fill="#9a32cd" stroke="#9a32cd" points="119.897,-346.52 110.292,-350.991 120.588,-353.486 119.897,-346.52"/>
<text text-anchor="middle" x="248" y="-345" font-family="Helvetica,sans-Serif" font-size="10.00"> lines</text>
</g>
</g>
</svg>
        <g id="navigator" transform="translate(0 0)" fill="#404254">
                <rect fill="#f2f5e9" fill-opacity="0.5" stroke="#606060" stroke-width=".5" x="0" y="0" width="60" height="60"/>
                <use id="zoomplus" xlink:href="#zoomPlus" x="17" y="9" onmousedown="handleZoom(evt,'in')"/>
                <use id="zoomminus" xlink:href="#zoomMin" x="42" y="9" onmousedown="handleZoom(evt,'out')"/>
                <use id="reset" xlink:href="#resetDef" x="30" y="36" onmousedown="handleReset()"/>
                <g id="arrowUp" xlink:href="#dirArrow" transform="translate(30 24)" onmousedown="handlePan(0,-1)">
                  <use xlink:href="#rim" fill="#404040">
                        <set attributeName="fill" to="#808080" begin="arrowUp.mouseover" end="arrowUp.mouseout"/>
                  </use>
                  <path fill="none" stroke="white" stroke-width="1.5" d="M0,-3.0v7 M-2.5,-0.5L0,-3.0L2.5,-0.5"/>
                </g>
                <g id="arrowRight" xlink:href="#dirArrow" transform="rotate(90) translate(36 -43)" onmousedown="handlePan(1,0)">
                  <use xlink:href="#rim" fill="#404040">
                        <set attributeName="fill" to="#808080" begin="arrowRight.mouseover" end="arrowRight.mouseout"/>
                  </use>
                  <path fill="none" stroke="white" stroke-width="1.5" d="M0,-3.0v7 M-2.5,-0.5L0,-3.0L2.5,-0.5"/>
                </g>
                <g id="arrowDown" xlink:href="#dirArrow" transform="rotate(180) translate(-30 -48)" onmousedown="handlePan(0,1)">
                  <use xlink:href="#rim" fill="#404040">
                        <set attributeName="fill" to="#808080" begin="arrowDown.mouseover" end="arrowDown.mouseout"/>
                  </use>
                  <path fill="none" stroke="white" stroke-width="1.5" d="M0,-3.0v7 M-2.5,-0.5L0,-3.0L2.5,-0.5"/>
                </g>
                <g id="arrowLeft" xlink:href="#dirArrow" transform="rotate(270) translate(-36 17)" onmousedown="handlePan(-1,0)">
                  <use xlink:href="#rim" fill="#404040">
                        <set attributeName="fill" to="#808080" begin="arrowLeft.mouseover" end="arrowLeft.mouseout"/>
                  </use>
                  <path fill="none" stroke="white" stroke-width="1.5" d="M0,-3.0v7 M-2.5,-0.5L0,-3.0L2.5,-0.5"/>
                </g>
        </g>
        <svg viewBox="0 0 15 15" width="100%" height="30px" preserveAspectRatio="xMaxYMin meet">
         <g id="arrow_out" transform="scale(0.3 0.3)">
          <a xlink:href="classmodel_1_1instructions_1_1_user_running_instruction__coll__graph_org.svg" target="_base">
           <rect id="button" ry="5" rx="5" y="6" x="6" height="38" width="38"
                fill="#f2f5e9" fill-opacity="0.5" stroke="#606060" stroke-width="1.0"/>
           <path id="arrow"
             d="M 11.500037,31.436501 C 11.940474,20.09759 22.043105,11.32322 32.158766,21.979434 L 37.068811,17.246167 C 37.068811,17.246167 37.088388,32 37.088388,32 L 22.160133,31.978069 C 22.160133,31.978069 26.997745,27.140456 26.997745,27.140456 C 18.528582,18.264221 13.291696,25.230495 11.500037,31.436501 z"
             style="fill:#404040;"/>
          </a>
         </g>
        </svg>
</svg>
