<?xml version="1.0" encoding="UTF-8" standalone="no"?>
<!DOCTYPE svg PUBLIC "-//W3C//DTD SVG 1.1//EN"
 "http://www.w3.org/Graphics/SVG/1.1/DTD/svg11.dtd">
<!-- Generated by graphviz version 2.36.0 (20140111.2315)
 -->
<!-- Title: model.instructions.UserRunningInstruction Pages: 1 -->
<!--zoomable 646 -->
<svg id="main" version="1.1" xmlns="http://www.w3.org/2000/svg" xmlns:xlink="http://www.w3.org/1999/xlink" xml:space="preserve" onload="init(evt)">
<style type="text/css"><![CDATA[
.edge:hover path { stroke: red; }
.edge:hover polygon { stroke: red; fill: red; }
]]></style>
<script type="text/javascript"><![CDATA[
var edges = document.getElementsByTagName('g');
if (edges && edges.length) {
  for (var i=0;i<edges.length;i++) {
    if (edges[i].id.substr(0,4)=='edge') {
      edges[i].setAttribute('class','edge');
    }
  }
}
]]></script>
        <defs>
                <circle id="rim" cx="0" cy="0" r="7"/>
                <circle id="rim2" cx="0" cy="0" r="3.5"/>
                <g id="zoomPlus">
                        <use xlink:href="#rim" fill="#404040">
                                <set attributeName="fill" to="#808080" begin="zoomplus.mouseover" end="zoomplus.mouseout"/>
                        </use>
                        <path d="M-4,0h8M0,-4v8" fill="none" stroke="white" stroke-width="1.5" pointer-events="none"/>
                </g>
                <g id="zoomMin">
                        <use xlink:href="#rim" fill="#404040">
                                <set attributeName="fill" to="#808080" begin="zoomminus.mouseover" end="zoomminus.mouseout"/>
                        </use>
                        <path d="M-4,0h8" fill="none" stroke="white" stroke-width="1.5" pointer-events="none"/>
                </g>
                <g id="dirArrow">
                        <path fill="none" stroke="white" stroke-width="1.5" d="M0,-3.0v7 M-2.5,-0.5L0,-3.0L2.5,-0.5"/>
                </g>
               <g id="resetDef">
                       <use xlink:href="#rim2" fill="#404040">
                               <set attributeName="fill" to="#808080" begin="reset.mouseover" end="reset.mouseout"/>
                       </use>
               </g>
        </defs>

<script type="text/javascript">
var viewWidth = 1508;
var viewHeight = 646;
var sectionId = 'dynsection-1';
</script>
<script xlink:href="../../svgpan.js"/>
<svg id="graph" class="graph">
<g id="viewport">
<title>model.instructions.UserRunningInstruction</title>
<polygon fill="white" stroke="none" points="-4,4 -4,-642.275 1504,-642.275 1504,4 -4,4"/>
<!-- Node1 -->
<g id="node1" class="node"><title>Node1</title>
<polygon fill="#bfbfbf" stroke="black" points="950,-553.275 950,-583.275 1118,-583.275 1118,-553.275 950,-553.275"/>
<text text-anchor="start" x="958" y="-571.275" font-family="Helvetica,sans-Serif" font-size="10.00">model.instructions.UserRunning</text>
<text text-anchor="middle" x="1034" y="-560.275" font-family="Helvetica,sans-Serif" font-size="10.00">Instruction</text>
</g>
<!-- Node2 -->
<g id="node2" class="node"><title>Node2</title>
<g id="a_node2"><a xlink:href="../../d1/dea/classmodel_1_1instructions_1_1_instruction.html" target="_top" xlink:title="model.instructions.Instruction">
<polygon fill="white" stroke="black" points="646,-554.775 646,-573.775 804,-573.775 804,-554.775 646,-554.775"/>
<text text-anchor="middle" x="725" y="-561.775" font-family="Helvetica,sans-Serif" font-size="10.00">model.instructions.Instruction</text>
</a>
</g>
</g>
<!-- Node2&#45;&gt;Node1 -->
<g id="edge1" class="edge"><title>Node2&#45;&gt;Node1</title>
<path fill="none" stroke="midnightblue" d="M814.348,-565.426C856.977,-565.981 907.836,-566.644 949.772,-567.19"/>
<polygon fill="midnightblue" stroke="midnightblue" points="814.308,-561.925 804.263,-565.294 814.217,-568.925 814.308,-561.925"/>
</g>
<!-- Node3 -->
<g id="node3" class="node"><title>Node3</title>
<polygon fill="white" stroke="#bfbfbf" points="57,-301.775 57,-320.775 117,-320.775 117,-301.775 57,-301.775"/>
<text text-anchor="middle" x="87" y="-308.775" font-family="Helvetica,sans-Serif" font-size="10.00">Observer</text>
</g>
<!-- Node3&#45;&gt;Node2 -->
<g id="edge2" class="edge"><title>Node3&#45;&gt;Node2</title>
<path fill="none" stroke="midnightblue" d="M127.363,-313.392C143.023,-315.83 160.49,-320.704 174,-330.275 186.378,-339.044 180.859,-348.979 192,-359.275 304.412,-463.154 353.745,-466.111 498,-517.275 548.801,-535.293 608.605,-547.351 653.929,-554.739"/>
<polygon fill="midnightblue" stroke="midnightblue" points="127.756,-309.914 117.393,-312.117 126.868,-316.858 127.756,-309.914"/>
</g>
<!-- Node9 -->
<g id="node9" class="node"><title>Node9</title>
<g id="a_node9"><a xlink:href="../../d6/de7/classview_1_1_s_logo_view.html" target="_top" xlink:title="view.SLogoView">
<polygon fill="white" stroke="black" points="355.5,-322.775 355.5,-341.775 446.5,-341.775 446.5,-322.775 355.5,-322.775"/>
<text text-anchor="middle" x="401" y="-329.775" font-family="Helvetica,sans-Serif" font-size="10.00">view.SLogoView</text>
</a>
</g>
</g>
<!-- Node3&#45;&gt;Node9 -->
<g id="edge9" class="edge"><title>Node3&#45;&gt;Node9</title>
<path fill="none" stroke="midnightblue" d="M127.334,-313.922C185.567,-317.842 294.395,-325.167 355.478,-329.278"/>
<polygon fill="midnightblue" stroke="midnightblue" points="127.285,-310.411 117.072,-313.231 126.814,-317.395 127.285,-310.411"/>
</g>
<!-- Node20 -->
<g id="node20" class="node"><title>Node20</title>
<g id="a_node20"><a xlink:href="../../dc/df5/classmodel_1_1_parser.html" target="_top" xlink:title="model.Parser">
<polygon fill="white" stroke="black" points="685,-124.775 685,-143.775 765,-143.775 765,-124.775 685,-124.775"/>
<text text-anchor="middle" x="725" y="-131.775" font-family="Helvetica,sans-Serif" font-size="10.00">model.Parser</text>
</a>
</g>
</g>
<!-- Node3&#45;&gt;Node20 -->
<g id="edge22" class="edge"><title>Node3&#45;&gt;Node20</title>
<path fill="none" stroke="midnightblue" d="M126.938,-302.922C242.291,-277.985 576.889,-204.204 620,-178.275 630.248,-172.111 627.837,-164.577 638,-158.275 652.096,-149.534 669.433,-143.907 684.838,-140.318"/>
<polygon fill="midnightblue" stroke="midnightblue" points="126.143,-299.513 117.106,-305.043 127.62,-306.355 126.143,-299.513"/>
</g>
<!-- Node4 -->
<g id="node4" class="node"><title>Node4</title>
<g id="a_node4"><a xlink:href="../../d1/dca/classmodel_1_1_execution_environment.html" target="_top" xlink:title="model.ExecutionEnvironment">
<polygon fill="white" stroke="black" points="322.5,-549.775 322.5,-568.775 479.5,-568.775 479.5,-549.775 322.5,-549.775"/>
<text text-anchor="middle" x="401" y="-556.775" font-family="Helvetica,sans-Serif" font-size="10.00">model.ExecutionEnvironment</text>
</a>
</g>
</g>
<!-- Node4&#45;&gt;Node2 -->
<g id="edge3" class="edge"><title>Node4&#45;&gt;Node2</title>
<path fill="none" stroke="#9a32cd" stroke-dasharray="5,2" d="M489.755,-560.637C538.493,-561.394 598.611,-562.328 645.74,-563.06"/>
<polygon fill="#9a32cd" stroke="#9a32cd" points="489.59,-557.134 479.537,-560.479 489.481,-564.134 489.59,-557.134"/>
<text text-anchor="middle" x="559" y="-566.275" font-family="Helvetica,sans-Serif" font-size="10.00"> myEnvironment</text>
</g>
<!-- Node4&#45;&gt;Node20 -->
<g id="edge24" class="edge"><title>Node4&#45;&gt;Node20</title>
<path fill="none" stroke="#9a32cd" stroke-dasharray="5,2" d="M420.554,-542.865C463.406,-503.813 569.453,-400.357 620,-290.275 638.662,-249.633 613.392,-228.617 638,-191.275 652.883,-168.69 680.129,-152.917 699.976,-143.778"/>
<polygon fill="#9a32cd" stroke="#9a32cd" points="418.17,-540.301 413.087,-549.597 422.858,-545.5 418.17,-540.301"/>
<text text-anchor="middle" x="559" y="-468.275" font-family="Helvetica,sans-Serif" font-size="10.00"> myExecutionParameters</text>
</g>
<!-- Node5 -->
<g id="node5" class="node"><title>Node5</title>
<polygon fill="white" stroke="#bfbfbf" points="51.5,-530.775 51.5,-549.775 122.5,-549.775 122.5,-530.775 51.5,-530.775"/>
<text text-anchor="middle" x="87" y="-537.775" font-family="Helvetica,sans-Serif" font-size="10.00">Observable</text>
</g>
<!-- Node5&#45;&gt;Node4 -->
<g id="edge4" class="edge"><title>Node5&#45;&gt;Node4</title>
<path fill="none" stroke="midnightblue" d="M132.637,-542.993C182.066,-546.003 262.658,-550.911 322.457,-554.553"/>
<polygon fill="midnightblue" stroke="midnightblue" points="132.776,-539.495 122.582,-542.381 132.35,-546.482 132.776,-539.495"/>
</g>
<!-- Node6 -->
<g id="node6" class="node"><title>Node6</title>
<polygon fill="white" stroke="#bfbfbf" points="0,-607.275 0,-637.275 174,-637.275 174,-607.275 0,-607.275"/>
<text text-anchor="start" x="8" y="-625.275" font-family="Helvetica,sans-Serif" font-size="10.00">Map&lt; String, model.instructions.</text>
<text text-anchor="middle" x="87" y="-614.275" font-family="Helvetica,sans-Serif" font-size="10.00">Instruction &gt;</text>
</g>
<!-- Node6&#45;&gt;Node4 -->
<g id="edge5" class="edge"><title>Node6&#45;&gt;Node4</title>
<path fill="none" stroke="#9a32cd" stroke-dasharray="5,2" d="M184.071,-613.048C222.037,-607.771 265.668,-599.644 304,-587.275 312.512,-584.528 313.602,-581.353 322,-578.275 331.946,-574.63 342.861,-571.474 353.293,-568.839"/>
<polygon fill="#9a32cd" stroke="#9a32cd" points="183.482,-609.596 174.037,-614.396 184.414,-616.534 183.482,-609.596"/>
<text text-anchor="middle" x="248" y="-615.275" font-family="Helvetica,sans-Serif" font-size="10.00"> myUserInstructionMap</text>
</g>
<!-- Node7 -->
<g id="node7" class="node"><title>Node7</title>
<polygon fill="white" stroke="#bfbfbf" points="23,-568.775 23,-587.775 151,-587.775 151,-568.775 23,-568.775"/>
<text text-anchor="middle" x="87" y="-575.775" font-family="Helvetica,sans-Serif" font-size="10.00">Map&lt; String, Double &gt;</text>
</g>
<!-- Node7&#45;&gt;Node4 -->
<g id="edge6" class="edge"><title>Node7&#45;&gt;Node4</title>
<path fill="none" stroke="#9a32cd" stroke-dasharray="5,2" d="M161.23,-573.815C209.637,-570.867 273.011,-567.008 322.303,-564.006"/>
<polygon fill="#9a32cd" stroke="#9a32cd" points="160.907,-570.328 151.138,-574.43 161.332,-577.315 160.907,-570.328"/>
<text text-anchor="middle" x="248" y="-575.275" font-family="Helvetica,sans-Serif" font-size="10.00"> myVariableMap</text>
</g>
<!-- Node8 -->
<g id="node8" class="node"><title>Node8</title>
<polygon fill="white" stroke="#bfbfbf" points="333,-588.275 333,-618.275 469,-618.275 469,-588.275 333,-588.275"/>
<text text-anchor="start" x="341" y="-606.275" font-family="Helvetica,sans-Serif" font-size="10.00">List&lt; model.instructions.</text>
<text text-anchor="middle" x="401" y="-595.275" font-family="Helvetica,sans-Serif" font-size="10.00">Instruction &gt;</text>
</g>
<!-- Node8&#45;&gt;Node2 -->
<g id="edge7" class="edge"><title>Node8&#45;&gt;Node2</title>
<path fill="none" stroke="#9a32cd" stroke-dasharray="5,2" d="M479.397,-594.773C521.08,-590.1 573.377,-584.086 620,-578.275 631.209,-576.878 643.088,-575.336 654.656,-573.802"/>
<polygon fill="#9a32cd" stroke="#9a32cd" points="478.861,-591.311 469.312,-595.901 479.639,-598.268 478.861,-591.311"/>
<text text-anchor="middle" x="559" y="-596.275" font-family="Helvetica,sans-Serif" font-size="10.00"> myDependencies</text>
</g>
<!-- Node9&#45;&gt;Node2 -->
<g id="edge8" class="edge"><title>Node9&#45;&gt;Node2</title>
<path fill="none" stroke="#9a32cd" stroke-dasharray="5,2" d="M408.531,-351.762C420.61,-384.598 449.707,-450.559 498,-483.275 543.682,-514.221 574.95,-474.416 620,-506.275 633.008,-515.474 625.557,-527.325 638,-537.275 647.9,-545.191 660.145,-550.8 672.26,-554.771"/>
<polygon fill="#9a32cd" stroke="#9a32cd" points="411.712,-350.258 405.084,-341.993 405.111,-352.588 411.712,-350.258"/>
<text text-anchor="middle" x="559" y="-509.275" font-family="Helvetica,sans-Serif" font-size="10.00"> myView</text>
</g>
<!-- Node9&#45;&gt;Node20 -->
<g id="edge26" class="edge"><title>Node9&#45;&gt;Node20</title>
<path fill="none" stroke="#9a32cd" stroke-dasharray="5,2" d="M415.268,-314.613C432.083,-293.594 463.11,-259.108 498,-241.275 547.132,-216.163 578.988,-255.187 620,-218.275 640.693,-199.65 618.124,-177.77 638,-158.275 650.394,-146.118 668.404,-140.004 684.744,-136.973"/>
<polygon fill="#9a32cd" stroke="#9a32cd" points="412.346,-312.668 408.962,-322.708 417.869,-316.97 412.346,-312.668"/>
<text text-anchor="middle" x="559" y="-244.275" font-family="Helvetica,sans-Serif" font-size="10.00"> mySLogoView</text>
</g>
<!-- Node10 -->
<g id="node10" class="node"><title>Node10</title>
<g id="a_node10"><a xlink:href="../../da/d64/classview_1_1_workspace.html" target="_top" xlink:title="view.Workspace">
<polygon fill="white" stroke="black" points="1230,-359.775 1230,-378.775 1320,-378.775 1320,-359.775 1230,-359.775"/>
<text text-anchor="middle" x="1275" y="-366.775" font-family="Helvetica,sans-Serif" font-size="10.00">view.Workspace</text>
</a>
</g>
</g>
<!-- Node10&#45;&gt;Node9 -->
<g id="edge10" class="edge"><title>Node10&#45;&gt;Node9</title>
<path fill="none" stroke="#9a32cd" stroke-dasharray="5,2" d="M1219.73,-362.038C1138.8,-352.456 991.553,-340.054 950,-370.275 929.199,-385.403 952.629,-409.913 932,-425.275 876.373,-466.698 689.35,-432.386 620,-433.275 565.782,-433.97 547.828,-454.659 498,-433.275 453.538,-414.193 419.954,-363.281 407.389,-341.92"/>
<polygon fill="#9a32cd" stroke="#9a32cd" points="1219.38,-365.522 1229.73,-363.249 1220.23,-358.573 1219.38,-365.522"/>
<text text-anchor="middle" x="881" y="-449.275" font-family="Helvetica,sans-Serif" font-size="10.00"> myWorkspace</text>
</g>
<!-- Node15 -->
<g id="node15" class="node"><title>Node15</title>
<g id="a_node15"><a xlink:href="../../d1/dc7/classview_1_1_side_bar.html" target="_top" xlink:title="view.SideBar">
<polygon fill="white" stroke="black" points="995.5,-278.775 995.5,-297.775 1072.5,-297.775 1072.5,-278.775 995.5,-278.775"/>
<text text-anchor="middle" x="1034" y="-285.775" font-family="Helvetica,sans-Serif" font-size="10.00">view.SideBar</text>
</a>
</g>
</g>
<!-- Node10&#45;&gt;Node15 -->
<g id="edge17" class="edge"><title>Node10&#45;&gt;Node15</title>
<path fill="none" stroke="#9a32cd" stroke-dasharray="5,2" d="M1233.84,-353.988C1232.47,-352.835 1231.18,-351.599 1230,-350.275 1211.49,-329.479 1234.24,-307.02 1212,-290.275 1169.4,-258.206 1103.24,-268.687 1065.03,-278.773"/>
<polygon fill="#9a32cd" stroke="#9a32cd" points="1232.14,-357.066 1242.4,-359.717 1236.04,-351.248 1232.14,-357.066"/>
<text text-anchor="middle" x="1174" y="-293.275" font-family="Helvetica,sans-Serif" font-size="10.00"> myWorkspace</text>
</g>
<!-- Node33 -->
<g id="node33" class="node"><title>Node33</title>
<g id="a_node33"><a xlink:href="../../de/d0a/classview_1_1_drawer.html" target="_top" xlink:title="view.Drawer">
<polygon fill="white" stroke="black" points="1426.5,-359.775 1426.5,-378.775 1499.5,-378.775 1499.5,-359.775 1426.5,-359.775"/>
<text text-anchor="middle" x="1463" y="-366.775" font-family="Helvetica,sans-Serif" font-size="10.00">view.Drawer</text>
</a>
</g>
</g>
<!-- Node10&#45;&gt;Node33 -->
<g id="edge42" class="edge"><title>Node10&#45;&gt;Node33</title>
<path fill="none" stroke="#9a32cd" stroke-dasharray="5,2" d="M1330.28,-369.275C1361.23,-369.275 1399.14,-369.275 1426.33,-369.275"/>
<polygon fill="#9a32cd" stroke="#9a32cd" points="1330.08,-365.775 1320.08,-369.275 1330.08,-372.775 1330.08,-365.775"/>
<text text-anchor="middle" x="1373" y="-372.275" font-family="Helvetica,sans-Serif" font-size="10.00"> myWorkspace</text>
</g>
<!-- Node11 -->
<g id="node11" class="node"><title>Node11</title>
<polygon fill="white" stroke="#bfbfbf" points="1000.5,-240.775 1000.5,-259.775 1067.5,-259.775 1067.5,-240.775 1000.5,-240.775"/>
<text text-anchor="middle" x="1034" y="-247.775" font-family="Helvetica,sans-Serif" font-size="10.00">StackPane</text>
</g>
<!-- Node11&#45;&gt;Node10 -->
<g id="edge11" class="edge"><title>Node11&#45;&gt;Node10</title>
<path fill="none" stroke="midnightblue" d="M1077.42,-240.927C1117.13,-234.853 1175.63,-233.165 1212,-265.275 1240.95,-290.834 1205.54,-320.393 1230,-350.275 1233.16,-354.138 1237.26,-357.234 1241.68,-359.71"/>
<polygon fill="midnightblue" stroke="midnightblue" points="1076.79,-237.484 1067.51,-242.593 1077.95,-244.387 1076.79,-237.484"/>
</g>
<!-- Node12 -->
<g id="node12" class="node"><title>Node12</title>
<g id="a_node12"><a xlink:href="../../d8/df7/classview_1_1_turtle_view.html" target="_top" xlink:title="view.TurtleView">
<polygon fill="white" stroke="black" points="991,-379.775 991,-398.775 1077,-398.775 1077,-379.775 991,-379.775"/>
<text text-anchor="middle" x="1034" y="-386.775" font-family="Helvetica,sans-Serif" font-size="10.00">view.TurtleView</text>
</a>
</g>
</g>
<!-- Node12&#45;&gt;Node10 -->
<g id="edge12" class="edge"><title>Node12&#45;&gt;Node10</title>
<path fill="none" stroke="#9a32cd" stroke-dasharray="5,2" d="M1087.36,-384.893C1130.01,-381.324 1189.54,-376.342 1229.82,-372.972"/>
<polygon fill="#9a32cd" stroke="#9a32cd" points="1086.85,-381.423 1077.18,-385.745 1087.44,-388.399 1086.85,-381.423"/>
<text text-anchor="middle" x="1174" y="-384.275" font-family="Helvetica,sans-Serif" font-size="10.00"> myActiveTurtle</text>
</g>
<!-- Node13 -->
<g id="node13" class="node"><title>Node13</title>
<polygon fill="white" stroke="#bfbfbf" points="691,-475.775 691,-494.775 759,-494.775 759,-475.775 691,-475.775"/>
<text text-anchor="middle" x="725" y="-482.775" font-family="Helvetica,sans-Serif" font-size="10.00">ImageView</text>
</g>
<!-- Node13&#45;&gt;Node12 -->
<g id="edge13" class="edge"><title>Node13&#45;&gt;Node12</title>
<path fill="none" stroke="midnightblue" d="M769.515,-492.951C815.105,-498.398 886.315,-499.227 932,-462.275 951.669,-446.365 931.268,-425.278 950,-408.275 961.055,-398.24 976.307,-393.166 990.722,-390.7"/>
<polygon fill="midnightblue" stroke="midnightblue" points="769.724,-489.448 759.352,-491.609 768.808,-496.388 769.724,-489.448"/>
</g>
<!-- Node14 -->
<g id="node14" class="node"><title>Node14</title>
<polygon fill="white" stroke="#bfbfbf" points="966,-456.275 966,-486.275 1102,-486.275 1102,-456.275 966,-456.275"/>
<text text-anchor="start" x="974" y="-474.275" font-family="Helvetica,sans-Serif" font-size="10.00">Map&lt; Integer, view.Turtle</text>
<text text-anchor="middle" x="1034" y="-463.275" font-family="Helvetica,sans-Serif" font-size="10.00">View &gt;</text>
</g>
<!-- Node14&#45;&gt;Node10 -->
<g id="edge14" class="edge"><title>Node14&#45;&gt;Node10</title>
<path fill="none" stroke="#9a32cd" stroke-dasharray="5,2" d="M1112.15,-461.545C1144.42,-455.238 1181.43,-444.952 1212,-428.275 1235.22,-415.607 1256.12,-392.031 1266.71,-378.841"/>
<polygon fill="#9a32cd" stroke="#9a32cd" points="1111.5,-458.107 1102.3,-463.378 1112.78,-464.989 1111.5,-458.107"/>
<text text-anchor="middle" x="1174" y="-459.275" font-family="Helvetica,sans-Serif" font-size="10.00"> myTurtles</text>
</g>
<!-- Node15&#45;&gt;Node9 -->
<g id="edge44" class="edge"><title>Node15&#45;&gt;Node9</title>
<path fill="none" stroke="#9a32cd" stroke-dasharray="5,2" d="M985.102,-296.318C968.346,-298.884 949.38,-301.512 932,-303.275 752.763,-321.449 538.189,-328.777 446.78,-331.226"/>
<polygon fill="#9a32cd" stroke="#9a32cd" points="985.876,-299.739 995.215,-294.736 984.794,-292.823 985.876,-299.739"/>
<text text-anchor="middle" x="725" y="-327.275" font-family="Helvetica,sans-Serif" font-size="10.00"> mySidebar</text>
</g>
<!-- Node15&#45;&gt;Node10 -->
<g id="edge15" class="edge"><title>Node15&#45;&gt;Node10</title>
<path fill="none" stroke="#9a32cd" stroke-dasharray="5,2" d="M1082.82,-294.692C1127.69,-301.393 1190.94,-312.795 1212,-326.275 1223.23,-333.463 1219.53,-342.021 1230,-350.275 1234.71,-353.983 1240.24,-357.108 1245.78,-359.685"/>
<polygon fill="#9a32cd" stroke="#9a32cd" points="1083.1,-291.196 1072.7,-293.213 1082.09,-298.122 1083.1,-291.196"/>
<text text-anchor="middle" x="1174" y="-329.275" font-family="Helvetica,sans-Serif" font-size="10.00"> mySidebar</text>
</g>
<!-- Node27 -->
<g id="node27" class="node"><title>Node27</title>
<g id="a_node27"><a xlink:href="../../da/dc8/classview_1_1_editor.html" target="_top" xlink:title="view.Editor">
<polygon fill="white" stroke="black" points="1241.5,-105.775 1241.5,-124.775 1308.5,-124.775 1308.5,-105.775 1241.5,-105.775"/>
<text text-anchor="middle" x="1275" y="-112.775" font-family="Helvetica,sans-Serif" font-size="10.00">view.Editor</text>
</a>
</g>
</g>
<!-- Node15&#45;&gt;Node27 -->
<g id="edge37" class="edge"><title>Node15&#45;&gt;Node27</title>
<path fill="none" stroke="#9a32cd" stroke-dasharray="5,2" d="M1082.61,-281.628C1094.58,-278.826 1107.11,-274.864 1118,-269.275 1121.1,-267.684 1209.54,-188.745 1212,-186.275 1232.77,-165.389 1254.98,-138.772 1266.34,-124.81"/>
<polygon fill="#9a32cd" stroke="#9a32cd" points="1081.79,-278.223 1072.74,-283.719 1083.24,-285.071 1081.79,-278.223"/>
<text text-anchor="middle" x="1174" y="-256.275" font-family="Helvetica,sans-Serif" font-size="10.00"> mySidebar</text>
</g>
<!-- Node16 -->
<g id="node16" class="node"><title>Node16</title>
<polygon fill="white" stroke="#bfbfbf" points="704.5,-238.775 704.5,-257.775 745.5,-257.775 745.5,-238.775 704.5,-238.775"/>
<text text-anchor="middle" x="725" y="-245.775" font-family="Helvetica,sans-Serif" font-size="10.00">VBox</text>
</g>
<!-- Node16&#45;&gt;Node15 -->
<g id="edge16" class="edge"><title>Node16&#45;&gt;Node15</title>
<path fill="none" stroke="midnightblue" d="M755.677,-252.142C811.827,-259.457 933.506,-275.311 995.322,-283.365"/>
<polygon fill="midnightblue" stroke="midnightblue" points="756.04,-248.659 745.671,-250.838 755.135,-255.601 756.04,-248.659"/>
</g>
<!-- Node17 -->
<g id="node17" class="node"><title>Node17</title>
<polygon fill="white" stroke="#bfbfbf" points="638.5,-200.775 638.5,-219.775 811.5,-219.775 811.5,-200.775 638.5,-200.775"/>
<text text-anchor="middle" x="725" y="-207.775" font-family="Helvetica,sans-Serif" font-size="10.00">ObservableList&lt; view.Property &gt;</text>
</g>
<!-- Node17&#45;&gt;Node15 -->
<g id="edge18" class="edge"><title>Node17&#45;&gt;Node15</title>
<path fill="none" stroke="#9a32cd" stroke-dasharray="5,2" d="M821.799,-214.441C858.213,-219.388 898.868,-229.204 932,-248.275 942.654,-254.407 939.479,-262.917 950,-269.275 963.537,-277.456 980.258,-282.117 995.136,-284.772"/>
<polygon fill="#9a32cd" stroke="#9a32cd" points="822.007,-210.94 811.65,-213.172 821.138,-217.886 822.007,-210.94"/>
<text text-anchor="middle" x="881" y="-251.275" font-family="Helvetica,sans-Serif" font-size="10.00"> variablesList</text>
</g>
<!-- Node18 -->
<g id="node18" class="node"><title>Node18</title>
<polygon fill="white" stroke="#bfbfbf" points="40.5,-113.775 40.5,-132.775 133.5,-132.775 133.5,-113.775 40.5,-113.775"/>
<text text-anchor="middle" x="87" y="-120.775" font-family="Helvetica,sans-Serif" font-size="10.00">ResourceBundle</text>
</g>
<!-- Node18&#45;&gt;Node9 -->
<g id="edge31" class="edge"><title>Node18&#45;&gt;Node9</title>
<path fill="none" stroke="#9a32cd" stroke-dasharray="5,2" d="M125.794,-136.403C170.901,-153.17 247.335,-185.135 304,-227.275 343.045,-256.311 378.847,-302.838 393.275,-322.741"/>
<polygon fill="#9a32cd" stroke="#9a32cd" points="126.713,-133.012 116.119,-132.862 124.307,-139.586 126.713,-133.012"/>
<text text-anchor="middle" x="248" y="-230.275" font-family="Helvetica,sans-Serif" font-size="10.00"> myResources</text>
</g>
<!-- Node18&#45;&gt;Node15 -->
<g id="edge19" class="edge"><title>Node18&#45;&gt;Node15</title>
<path fill="none" stroke="#9a32cd" stroke-dasharray="5,2" d="M119.019,-109.702C240.856,-58.7105 691.687,107.815 932,-107.275 958.99,-131.432 925.893,-242.24 950,-269.275 961.314,-281.963 979.212,-287.086 995.496,-288.88"/>
<polygon fill="#9a32cd" stroke="#9a32cd" points="117.379,-106.595 109.535,-113.717 120.109,-113.041 117.379,-106.595"/>
<text text-anchor="middle" x="559" y="-9.27473" font-family="Helvetica,sans-Serif" font-size="10.00"> myResources</text>
</g>
<!-- Node19 -->
<g id="node19" class="node"><title>Node19</title>
<polygon fill="white" stroke="#bfbfbf" points="651,-399.775 651,-418.775 799,-418.775 799,-399.775 651,-399.775"/>
<text text-anchor="middle" x="725" y="-406.775" font-family="Helvetica,sans-Serif" font-size="10.00">TableView&lt; view.Property &gt;</text>
</g>
<!-- Node19&#45;&gt;Node15 -->
<g id="edge20" class="edge"><title>Node19&#45;&gt;Node15</title>
<path fill="none" stroke="#9a32cd" stroke-dasharray="5,2" d="M809.217,-401.476C861.949,-395.863 922.043,-387.956 932,-380.275 948.404,-367.62 936.386,-352.892 950,-337.275 965.834,-319.111 990.116,-305.878 1008.33,-297.775"/>
<polygon fill="#9a32cd" stroke="#9a32cd" points="808.71,-398.01 799.129,-402.532 809.439,-404.972 808.71,-398.01"/>
<text text-anchor="middle" x="881" y="-413.275" font-family="Helvetica,sans-Serif" font-size="10.00"> turtlePropertiesTable</text>
<text text-anchor="middle" x="881" y="-402.275" font-family="Helvetica,sans-Serif" font-size="10.00">variablesTable</text>
</g>
<!-- Node20&#45;&gt;Node9 -->
<g id="edge39" class="edge"><title>Node20&#45;&gt;Node9</title>
<path fill="none" stroke="#9a32cd" stroke-dasharray="5,2" d="M674.748,-138.406C661.159,-141.872 647.545,-147.903 638,-158.275 609.195,-189.574 650.121,-222.24 620,-252.275 580.928,-291.235 549.619,-255.782 498,-275.275 466.085,-287.327 432.678,-309.749 414.916,-322.585"/>
<polygon fill="#9a32cd" stroke="#9a32cd" points="675.529,-141.818 684.579,-136.31 674.069,-134.972 675.529,-141.818"/>
<text text-anchor="middle" x="559" y="-278.275" font-family="Helvetica,sans-Serif" font-size="10.00"> myParser</text>
</g>
<!-- Node20&#45;&gt;Node15 -->
<g id="edge21" class="edge"><title>Node20&#45;&gt;Node15</title>
<path fill="none" stroke="#9a32cd" stroke-dasharray="5,2" d="M764.28,-122.004C810.141,-109.938 886.47,-98.6329 932,-139.275 975.514,-178.118 910.597,-226.266 950,-269.275 961.384,-281.7 979.088,-286.827 995.226,-288.692"/>
<polygon fill="#9a32cd" stroke="#9a32cd" points="763.128,-118.691 754.424,-124.732 764.996,-125.437 763.128,-118.691"/>
<text text-anchor="middle" x="881" y="-142.275" font-family="Helvetica,sans-Serif" font-size="10.00"> myParser</text>
</g>
<!-- Node20&#45;&gt;Node27 -->
<g id="edge35" class="edge"><title>Node20&#45;&gt;Node27</title>
<path fill="none" stroke="#9a32cd" stroke-dasharray="5,2" d="M758.731,-120.996C801.751,-104.325 880.071,-76.6551 950,-66.2747 1023.86,-55.3113 1044.2,-54.9563 1118,-66.2747 1166.82,-73.7623 1221.35,-93.7082 1251.26,-105.718"/>
<polygon fill="#9a32cd" stroke="#9a32cd" points="757.373,-117.768 749.341,-124.678 759.928,-124.285 757.373,-117.768"/>
<text text-anchor="middle" x="1034" y="-69.2747" font-family="Helvetica,sans-Serif" font-size="10.00"> myParser</text>
</g>
<!-- Node21 -->
<g id="node21" class="node"><title>Node21</title>
<polygon fill="white" stroke="#bfbfbf" points="345,-159.275 345,-189.275 457,-189.275 457,-159.275 345,-159.275"/>
<text text-anchor="start" x="353" y="-177.275" font-family="Helvetica,sans-Serif" font-size="10.00">List&lt; Entry&lt; String,</text>
<text text-anchor="middle" x="401" y="-166.275" font-family="Helvetica,sans-Serif" font-size="10.00"> Pattern &gt; &gt;</text>
</g>
<!-- Node21&#45;&gt;Node20 -->
<g id="edge23" class="edge"><title>Node21&#45;&gt;Node20</title>
<path fill="none" stroke="#9a32cd" stroke-dasharray="5,2" d="M467.254,-166.753C510.584,-161.694 568.717,-154.784 620,-148.275 641.327,-145.568 665.089,-142.382 684.51,-139.733"/>
<polygon fill="#9a32cd" stroke="#9a32cd" points="466.657,-163.299 457.129,-167.933 467.467,-170.252 466.657,-163.299"/>
<text text-anchor="middle" x="559" y="-166.275" font-family="Helvetica,sans-Serif" font-size="10.00"> myPatterns</text>
</g>
<!-- Node22 -->
<g id="node22" class="node"><title>Node22</title>
<polygon fill="white" stroke="#bfbfbf" points="340,-120.775 340,-139.775 462,-139.775 462,-120.775 340,-120.775"/>
<text text-anchor="middle" x="401" y="-127.775" font-family="Helvetica,sans-Serif" font-size="10.00">Map&lt; String, String &gt;</text>
</g>
<!-- Node22&#45;&gt;Node20 -->
<g id="edge25" class="edge"><title>Node22&#45;&gt;Node20</title>
<path fill="none" stroke="#9a32cd" stroke-dasharray="5,2" d="M472.39,-131.149C537.597,-131.959 632.209,-133.134 684.877,-133.789"/>
<polygon fill="#9a32cd" stroke="#9a32cd" points="472.231,-127.647 462.188,-131.022 472.144,-134.646 472.231,-127.647"/>
<text text-anchor="middle" x="559" y="-136.275" font-family="Helvetica,sans-Serif" font-size="10.00"> myCommandMap</text>
</g>
<!-- Node23 -->
<g id="node23" class="node"><title>Node23</title>
<polygon fill="white" stroke="#bfbfbf" points="656,-361.775 656,-380.775 794,-380.775 794,-361.775 656,-361.775"/>
<text text-anchor="middle" x="725" y="-368.775" font-family="Helvetica,sans-Serif" font-size="10.00">ObservableList&lt; String &gt;</text>
</g>
<!-- Node23&#45;&gt;Node15 -->
<g id="edge27" class="edge"><title>Node23&#45;&gt;Node15</title>
<path fill="none" stroke="#9a32cd" stroke-dasharray="5,2" d="M801.54,-360.192C849.961,-352.68 908.07,-342.789 932,-335.275 962.815,-325.598 996.407,-308.545 1016.04,-297.858"/>
<polygon fill="#9a32cd" stroke="#9a32cd" points="800.721,-356.776 791.37,-361.757 801.786,-363.695 800.721,-356.776"/>
<text text-anchor="middle" x="881" y="-369.275" font-family="Helvetica,sans-Serif" font-size="10.00"> commandItems</text>
<text text-anchor="middle" x="881" y="-358.275" font-family="Helvetica,sans-Serif" font-size="10.00">historyItems</text>
</g>
<!-- Node24 -->
<g id="node24" class="node"><title>Node24</title>
<polygon fill="white" stroke="#bfbfbf" points="672,-276.775 672,-295.775 778,-295.775 778,-276.775 672,-276.775"/>
<text text-anchor="middle" x="725" y="-283.775" font-family="Helvetica,sans-Serif" font-size="10.00">ListView&lt; String &gt;</text>
</g>
<!-- Node24&#45;&gt;Node15 -->
<g id="edge28" class="edge"><title>Node24&#45;&gt;Node15</title>
<path fill="none" stroke="#9a32cd" stroke-dasharray="5,2" d="M788.138,-286.68C850.188,-287.084 943.551,-287.692 995.221,-288.029"/>
<polygon fill="#9a32cd" stroke="#9a32cd" points="788.101,-283.179 778.078,-286.614 788.055,-290.179 788.101,-283.179"/>
<text text-anchor="middle" x="881" y="-291.275" font-family="Helvetica,sans-Serif" font-size="10.00"> historyList</text>
</g>
<!-- Node25 -->
<g id="node25" class="node"><title>Node25</title>
<polygon fill="white" stroke="#bfbfbf" points="1002.5,-417.775 1002.5,-436.775 1065.5,-436.775 1065.5,-417.775 1002.5,-417.775"/>
<text text-anchor="middle" x="1034" y="-424.775" font-family="Helvetica,sans-Serif" font-size="10.00">Rectangle</text>
</g>
<!-- Node25&#45;&gt;Node10 -->
<g id="edge29" class="edge"><title>Node25&#45;&gt;Node10</title>
<path fill="none" stroke="#9a32cd" stroke-dasharray="5,2" d="M1075.77,-422.924C1112.06,-418.396 1166.32,-410.009 1212,-396.275 1226.95,-391.779 1243.1,-384.667 1255.17,-378.871"/>
<polygon fill="#9a32cd" stroke="#9a32cd" points="1075.08,-419.481 1065.57,-424.153 1075.92,-426.431 1075.08,-419.481"/>
<text text-anchor="middle" x="1174" y="-416.275" font-family="Helvetica,sans-Serif" font-size="10.00"> myBackground</text>
</g>
<!-- Node26 -->
<g id="node26" class="node"><title>Node26</title>
<polygon fill="white" stroke="#bfbfbf" points="64.5,-492.775 64.5,-511.775 109.5,-511.775 109.5,-492.775 64.5,-492.775"/>
<text text-anchor="middle" x="87" y="-499.775" font-family="Helvetica,sans-Serif" font-size="10.00">Stage</text>
</g>
<!-- Node26&#45;&gt;Node9 -->
<g id="edge30" class="edge"><title>Node26&#45;&gt;Node9</title>
<path fill="none" stroke="#9a32cd" stroke-dasharray="5,2" d="M119.551,-497.829C163.871,-490.397 245.664,-472.247 304,-433.275 343.427,-406.935 378.755,-361.724 393.149,-341.978"/>
<polygon fill="#9a32cd" stroke="#9a32cd" points="118.966,-494.378 109.646,-499.415 120.073,-501.29 118.966,-494.378"/>
<text text-anchor="middle" x="248" y="-483.275" font-family="Helvetica,sans-Serif" font-size="10.00"> myStage</text>
</g>
<!-- Node27&#45;&gt;Node9 -->
<g id="edge32" class="edge"><title>Node27&#45;&gt;Node9</title>
<path fill="none" stroke="#9a32cd" stroke-dasharray="5,2" d="M1240.6,-128.312C1231.43,-131.566 1221.42,-134.822 1212,-137.275 1170.99,-147.956 1160.05,-148.042 1118,-153.275 1064.91,-159.881 677.822,-155.546 638,-191.275 606.014,-219.973 650.071,-255.575 620,-286.275 607.921,-298.606 506.7,-316.105 446.52,-325.57"/>
<polygon fill="#9a32cd" stroke="#9a32cd" points="1241.97,-131.541 1250.16,-124.821 1239.56,-124.966 1241.97,-131.541"/>
<text text-anchor="middle" x="881" y="-166.275" font-family="Helvetica,sans-Serif" font-size="10.00"> myEditor</text>
</g>
<!-- Node28 -->
<g id="node28" class="node"><title>Node28</title>
<polygon fill="white" stroke="#bfbfbf" points="1013,-124.775 1013,-143.775 1055,-143.775 1055,-124.775 1013,-124.775"/>
<text text-anchor="middle" x="1034" y="-131.775" font-family="Helvetica,sans-Serif" font-size="10.00">HBox</text>
</g>
<!-- Node28&#45;&gt;Node27 -->
<g id="edge33" class="edge"><title>Node28&#45;&gt;Node27</title>
<path fill="none" stroke="midnightblue" d="M1065.44,-131.855C1110.57,-128.267 1194.89,-121.564 1241.3,-117.875"/>
<polygon fill="midnightblue" stroke="midnightblue" points="1065.07,-128.373 1055.38,-132.655 1065.62,-135.351 1065.07,-128.373"/>
</g>
<!-- Node29 -->
<g id="node29" class="node"><title>Node29</title>
<polygon fill="white" stroke="#bfbfbf" points="1009.5,-1.77473 1009.5,-20.7747 1058.5,-20.7747 1058.5,-1.77473 1009.5,-1.77473"/>
<text text-anchor="middle" x="1034" y="-8.77473" font-family="Helvetica,sans-Serif" font-size="10.00">Button</text>
</g>
<!-- Node29&#45;&gt;Node27 -->
<g id="edge34" class="edge"><title>Node29&#45;&gt;Node27</title>
<path fill="none" stroke="#9a32cd" stroke-dasharray="5,2" d="M1068.99,-7.69721C1106.56,-5.38903 1167.61,-6.64236 1212,-32.2747 1241.91,-49.5432 1261.83,-87.5965 1269.92,-105.544"/>
<polygon fill="#9a32cd" stroke="#9a32cd" points="1068.31,-4.2381 1058.59,-8.46483 1068.82,-11.2191 1068.31,-4.2381"/>
<text text-anchor="middle" x="1174" y="-35.2747" font-family="Helvetica,sans-Serif" font-size="10.00"> runButton</text>
</g>
<!-- Node30 -->
<g id="node30" class="node"><title>Node30</title>
<polygon fill="white" stroke="#bfbfbf" points="1005,-86.7747 1005,-105.775 1063,-105.775 1063,-86.7747 1005,-86.7747"/>
<text text-anchor="middle" x="1034" y="-93.7747" font-family="Helvetica,sans-Serif" font-size="10.00">TextArea</text>
</g>
<!-- Node30&#45;&gt;Node27 -->
<g id="edge36" class="edge"><title>Node30&#45;&gt;Node27</title>
<path fill="none" stroke="#9a32cd" stroke-dasharray="5,2" d="M1073.31,-97.469C1109.21,-98.8179 1164.34,-101.478 1212,-106.275 1221.52,-107.233 1231.83,-108.596 1241.25,-109.972"/>
<polygon fill="#9a32cd" stroke="#9a32cd" points="1073.38,-93.9695 1063.26,-97.1071 1073.13,-100.965 1073.38,-93.9695"/>
<text text-anchor="middle" x="1174" y="-109.275" font-family="Helvetica,sans-Serif" font-size="10.00"> textEditor</text>
</g>
<!-- Node31 -->
<g id="node31" class="node"><title>Node31</title>
<polygon fill="white" stroke="#bfbfbf" points="27.5,-454.775 27.5,-473.775 146.5,-473.775 146.5,-454.775 27.5,-454.775"/>
<text text-anchor="middle" x="87" y="-461.775" font-family="Helvetica,sans-Serif" font-size="10.00">Map&lt; String, Node &gt;</text>
</g>
<!-- Node31&#45;&gt;Node9 -->
<g id="edge38" class="edge"><title>Node31&#45;&gt;Node9</title>
<path fill="none" stroke="#9a32cd" stroke-dasharray="5,2" d="M120.172,-450.664C183.471,-423.883 322.776,-364.946 377.395,-341.838"/>
<polygon fill="#9a32cd" stroke="#9a32cd" points="118.536,-447.555 110.69,-454.675 121.263,-454.002 118.536,-447.555"/>
<text text-anchor="middle" x="248" y="-421.275" font-family="Helvetica,sans-Serif" font-size="10.00"> variables</text>
</g>
<!-- Node32 -->
<g id="node32" class="node"><title>Node32</title>
<polygon fill="white" stroke="#bfbfbf" points="46.5,-339.775 46.5,-358.775 127.5,-358.775 127.5,-339.775 46.5,-339.775"/>
<text text-anchor="middle" x="87" y="-346.775" font-family="Helvetica,sans-Serif" font-size="10.00">Dimension2D</text>
</g>
<!-- Node32&#45;&gt;Node9 -->
<g id="edge40" class="edge"><title>Node32&#45;&gt;Node9</title>
<path fill="none" stroke="#9a32cd" stroke-dasharray="5,2" d="M137.5,-346.578C197.45,-343.311 297.55,-337.857 355.269,-334.712"/>
<polygon fill="#9a32cd" stroke="#9a32cd" points="137.31,-343.083 127.515,-347.122 137.691,-350.072 137.31,-343.083"/>
<text text-anchor="middle" x="248" y="-347.275" font-family="Helvetica,sans-Serif" font-size="10.00"> myDimensions</text>
</g>
<!-- Node33&#45;&gt;Node9 -->
<g id="edge41" class="edge"><title>Node33&#45;&gt;Node9</title>
<path fill="none" stroke="#9a32cd" stroke-dasharray="5,2" d="M1451.56,-387.61C1426.8,-428.438 1360.22,-523.275 1276,-523.275 880,-523.275 880,-523.275 880,-523.275 772.113,-523.275 735.981,-549.433 638,-504.275 627.725,-499.539 629.77,-491.98 620,-486.275 571.394,-457.887 544.962,-483.307 498,-452.275 453.037,-422.563 419.26,-365.026 407.011,-342.074"/>
<polygon fill="#9a32cd" stroke="#9a32cd" points="1454.63,-389.299 1456.7,-378.908 1448.6,-385.741 1454.63,-389.299"/>
<text text-anchor="middle" x="1034" y="-526.275" font-family="Helvetica,sans-Serif" font-size="10.00"> drawer</text>
</g>
<!-- Node34 -->
<g id="node34" class="node"><title>Node34</title>
<polygon fill="white" stroke="#bfbfbf" points="1254.5,-321.775 1254.5,-340.775 1295.5,-340.775 1295.5,-321.775 1254.5,-321.775"/>
<text text-anchor="middle" x="1275" y="-328.775" font-family="Helvetica,sans-Serif" font-size="10.00">Color</text>
</g>
<!-- Node34&#45;&gt;Node33 -->
<g id="edge43" class="edge"><title>Node34&#45;&gt;Node33</title>
<path fill="none" stroke="#9a32cd" stroke-dasharray="5,2" d="M1305.73,-335.598C1332.59,-339.708 1373.14,-346.417 1408,-354.275 1415.02,-355.858 1422.5,-357.78 1429.58,-359.711"/>
<polygon fill="#9a32cd" stroke="#9a32cd" points="1306.21,-332.131 1295.8,-334.103 1305.17,-339.053 1306.21,-332.131"/>
<text text-anchor="middle" x="1373" y="-357.275" font-family="Helvetica,sans-Serif" font-size="10.00"> myColor</text>
</g>
<!-- Node35 -->
<g id="node35" class="node"><title>Node35</title>
<polygon fill="white" stroke="#bfbfbf" points="64,-182.775 64,-201.775 110,-201.775 110,-182.775 64,-182.775"/>
<text text-anchor="middle" x="87" y="-189.775" font-family="Helvetica,sans-Serif" font-size="10.00">Group</text>
</g>
<!-- Node35&#45;&gt;Node9 -->
<g id="edge45" class="edge"><title>Node35&#45;&gt;Node9</title>
<path fill="none" stroke="#9a32cd" stroke-dasharray="5,2" d="M118.884,-206.133C182.109,-234.503 324.871,-298.563 378.817,-322.77"/>
<polygon fill="#9a32cd" stroke="#9a32cd" points="120.002,-202.798 109.445,-201.897 117.136,-209.185 120.002,-202.798"/>
<text text-anchor="middle" x="248" y="-290.275" font-family="Helvetica,sans-Serif" font-size="10.00"> lines</text>
</g>
</g>
</svg>
        <g id="navigator" transform="translate(0 0)" fill="#404254">
                <rect fill="#f2f5e9" fill-opacity="0.5" stroke="#606060" stroke-width=".5" x="0" y="0" width="60" height="60"/>
                <use id="zoomplus" xlink:href="#zoomPlus" x="17" y="9" onmousedown="handleZoom(evt,'in')"/>
                <use id="zoomminus" xlink:href="#zoomMin" x="42" y="9" onmousedown="handleZoom(evt,'out')"/>
                <use id="reset" xlink:href="#resetDef" x="30" y="36" onmousedown="handleReset()"/>
                <g id="arrowUp" xlink:href="#dirArrow" transform="translate(30 24)" onmousedown="handlePan(0,-1)">
                  <use xlink:href="#rim" fill="#404040">
                        <set attributeName="fill" to="#808080" begin="arrowUp.mouseover" end="arrowUp.mouseout"/>
                  </use>
                  <path fill="none" stroke="white" stroke-width="1.5" d="M0,-3.0v7 M-2.5,-0.5L0,-3.0L2.5,-0.5"/>
                </g>
                <g id="arrowRight" xlink:href="#dirArrow" transform="rotate(90) translate(36 -43)" onmousedown="handlePan(1,0)">
                  <use xlink:href="#rim" fill="#404040">
                        <set attributeName="fill" to="#808080" begin="arrowRight.mouseover" end="arrowRight.mouseout"/>
                  </use>
                  <path fill="none" stroke="white" stroke-width="1.5" d="M0,-3.0v7 M-2.5,-0.5L0,-3.0L2.5,-0.5"/>
                </g>
                <g id="arrowDown" xlink:href="#dirArrow" transform="rotate(180) translate(-30 -48)" onmousedown="handlePan(0,1)">
                  <use xlink:href="#rim" fill="#404040">
                        <set attributeName="fill" to="#808080" begin="arrowDown.mouseover" end="arrowDown.mouseout"/>
                  </use>
                  <path fill="none" stroke="white" stroke-width="1.5" d="M0,-3.0v7 M-2.5,-0.5L0,-3.0L2.5,-0.5"/>
                </g>
                <g id="arrowLeft" xlink:href="#dirArrow" transform="rotate(270) translate(-36 17)" onmousedown="handlePan(-1,0)">
                  <use xlink:href="#rim" fill="#404040">
                        <set attributeName="fill" to="#808080" begin="arrowLeft.mouseover" end="arrowLeft.mouseout"/>
                  </use>
                  <path fill="none" stroke="white" stroke-width="1.5" d="M0,-3.0v7 M-2.5,-0.5L0,-3.0L2.5,-0.5"/>
                </g>
        </g>
        <svg viewBox="0 0 15 15" width="100%" height="30px" preserveAspectRatio="xMaxYMin meet">
         <g id="arrow_out" transform="scale(0.3 0.3)">
          <a xlink:href="classmodel_1_1instructions_1_1_user_running_instruction__coll__graph_org.svg" target="_base">
           <rect id="button" ry="5" rx="5" y="6" x="6" height="38" width="38"
                fill="#f2f5e9" fill-opacity="0.5" stroke="#606060" stroke-width="1.0"/>
           <path id="arrow"
             d="M 11.500037,31.436501 C 11.940474,20.09759 22.043105,11.32322 32.158766,21.979434 L 37.068811,17.246167 C 37.068811,17.246167 37.088388,32 37.088388,32 L 22.160133,31.978069 C 22.160133,31.978069 26.997745,27.140456 26.997745,27.140456 C 18.528582,18.264221 13.291696,25.230495 11.500037,31.436501 z"
             style="fill:#404040;"/>
          </a>
         </g>
        </svg>
</svg>
