<?xml version="1.0" encoding="UTF-8" standalone="no"?>
<!DOCTYPE svg PUBLIC "-//W3C//DTD SVG 1.1//EN"
 "http://www.w3.org/Graphics/SVG/1.1/DTD/svg11.dtd">
<!-- Generated by graphviz version 2.36.0 (20140111.2315)
 -->
<!-- Title: model.instructions.UserRunningInstruction Pages: 1 -->
<!--zoomable 793 -->
<svg id="main" version="1.1" xmlns="http://www.w3.org/2000/svg" xmlns:xlink="http://www.w3.org/1999/xlink" xml:space="preserve" onload="init(evt)">
<style type="text/css"><![CDATA[
.edge:hover path { stroke: red; }
.edge:hover polygon { stroke: red; fill: red; }
]]></style>
<script type="text/javascript"><![CDATA[
var edges = document.getElementsByTagName('g');
if (edges && edges.length) {
  for (var i=0;i<edges.length;i++) {
    if (edges[i].id.substr(0,4)=='edge') {
      edges[i].setAttribute('class','edge');
    }
  }
}
]]></script>
        <defs>
                <circle id="rim" cx="0" cy="0" r="7"/>
                <circle id="rim2" cx="0" cy="0" r="3.5"/>
                <g id="zoomPlus">
                        <use xlink:href="#rim" fill="#404040">
                                <set attributeName="fill" to="#808080" begin="zoomplus.mouseover" end="zoomplus.mouseout"/>
                        </use>
                        <path d="M-4,0h8M0,-4v8" fill="none" stroke="white" stroke-width="1.5" pointer-events="none"/>
                </g>
                <g id="zoomMin">
                        <use xlink:href="#rim" fill="#404040">
                                <set attributeName="fill" to="#808080" begin="zoomminus.mouseover" end="zoomminus.mouseout"/>
                        </use>
                        <path d="M-4,0h8" fill="none" stroke="white" stroke-width="1.5" pointer-events="none"/>
                </g>
                <g id="dirArrow">
                        <path fill="none" stroke="white" stroke-width="1.5" d="M0,-3.0v7 M-2.5,-0.5L0,-3.0L2.5,-0.5"/>
                </g>
               <g id="resetDef">
                       <use xlink:href="#rim2" fill="#404040">
                               <set attributeName="fill" to="#808080" begin="reset.mouseover" end="reset.mouseout"/>
                       </use>
               </g>
        </defs>

<script type="text/javascript">
var viewWidth = 1778;
var viewHeight = 793;
var sectionId = 'dynsection-1';
</script>
<script xlink:href="../../svgpan.js"/>
<svg id="graph" class="graph">
<g id="viewport">
<title>model.instructions.UserRunningInstruction</title>
<polygon fill="white" stroke="none" points="-4,4 -4,-789.441 1774,-789.441 1774,4 -4,4"/>
<!-- Node1 -->
<g id="node1" class="node"><title>Node1</title>
<polygon fill="#bfbfbf" stroke="black" points="966,-677.441 966,-707.441 1134,-707.441 1134,-677.441 966,-677.441"/>
<text text-anchor="start" x="974" y="-695.441" font-family="Helvetica,sans-Serif" font-size="10.00">model.instructions.UserRunning</text>
<text text-anchor="middle" x="1050" y="-684.441" font-family="Helvetica,sans-Serif" font-size="10.00">Instruction</text>
</g>
<!-- Node2 -->
<g id="node2" class="node"><title>Node2</title>
<g id="a_node2"><a xlink:href="../../d1/dea/classmodel_1_1instructions_1_1_instruction.html" target="_top" xlink:title="model.instructions.Instruction">
<polygon fill="white" stroke="black" points="646,-561.941 646,-580.941 804,-580.941 804,-561.941 646,-561.941"/>
<text text-anchor="middle" x="725" y="-568.941" font-family="Helvetica,sans-Serif" font-size="10.00">model.instructions.Instruction</text>
</a>
</g>
</g>
<!-- Node2&#45;&gt;Node1 -->
<g id="edge1" class="edge"><title>Node2&#45;&gt;Node1</title>
<path fill="none" stroke="midnightblue" d="M780.446,-584.617C792.078,-589.554 803.427,-596.288 812,-605.441 829.871,-624.523 810.008,-644.596 830,-661.441 867.073,-692.681 920.843,-700.647 965.825,-700.698"/>
<polygon fill="midnightblue" stroke="midnightblue" points="781.694,-581.347 771.104,-581.03 779.185,-587.882 781.694,-581.347"/>
</g>
<!-- Node3 -->
<g id="node3" class="node"><title>Node3</title>
<polygon fill="white" stroke="#bfbfbf" points="57,-410.941 57,-429.941 117,-429.941 117,-410.941 57,-410.941"/>
<text text-anchor="middle" x="87" y="-417.941" font-family="Helvetica,sans-Serif" font-size="10.00">Observer</text>
</g>
<!-- Node3&#45;&gt;Node2 -->
<g id="edge2" class="edge"><title>Node3&#45;&gt;Node2</title>
<path fill="none" stroke="midnightblue" d="M127.324,-431.022C200.197,-450.493 361.257,-492.895 498,-524.441 558.723,-538.45 629.062,-552.782 674.931,-561.875"/>
<polygon fill="midnightblue" stroke="midnightblue" points="127.791,-427.524 117.226,-428.319 125.981,-434.286 127.791,-427.524"/>
</g>
<!-- Node9 -->
<g id="node9" class="node"><title>Node9</title>
<g id="a_node9"><a xlink:href="../../d4/d64/classview_1_1_view_updater.html" target="_top" xlink:title="view.ViewUpdater">
<polygon fill="white" stroke="black" points="351,-410.941 351,-429.941 451,-429.941 451,-410.941 351,-410.941"/>
<text text-anchor="middle" x="401" y="-417.941" font-family="Helvetica,sans-Serif" font-size="10.00">view.ViewUpdater</text>
</a>
</g>
</g>
<!-- Node3&#45;&gt;Node9 -->
<g id="edge9" class="edge"><title>Node3&#45;&gt;Node9</title>
<path fill="none" stroke="midnightblue" d="M127.079,-420.441C183.8,-420.441 288.905,-420.441 350.82,-420.441"/>
<polygon fill="midnightblue" stroke="midnightblue" points="127.072,-416.942 117.072,-420.441 127.072,-423.942 127.072,-416.942"/>
</g>
<!-- Node22 -->
<g id="node22" class="node"><title>Node22</title>
<g id="a_node22"><a xlink:href="../../dc/df5/classmodel_1_1_parser.html" target="_top" xlink:title="model.Parser">
<polygon fill="white" stroke="black" points="685,-173.941 685,-192.941 765,-192.941 765,-173.941 685,-173.941"/>
<text text-anchor="middle" x="725" y="-180.941" font-family="Helvetica,sans-Serif" font-size="10.00">model.Parser</text>
</a>
</g>
</g>
<!-- Node3&#45;&gt;Node22 -->
<g id="edge25" class="edge"><title>Node3&#45;&gt;Node22</title>
<path fill="none" stroke="midnightblue" d="M100.706,-402.566C132.321,-359.756 219.416,-251.706 322,-208.441 386.672,-181.166 597.12,-181.295 684.946,-182.621"/>
<polygon fill="midnightblue" stroke="midnightblue" points="97.7079,-400.738 94.6585,-410.884 103.37,-404.854 97.7079,-400.738"/>
</g>
<!-- Node4 -->
<g id="node4" class="node"><title>Node4</title>
<g id="a_node4"><a xlink:href="../../d1/dca/classmodel_1_1_execution_environment.html" target="_top" xlink:title="model.ExecutionEnvironment">
<polygon fill="white" stroke="black" points="322.5,-618.941 322.5,-637.941 479.5,-637.941 479.5,-618.941 322.5,-618.941"/>
<text text-anchor="middle" x="401" y="-625.941" font-family="Helvetica,sans-Serif" font-size="10.00">model.ExecutionEnvironment</text>
</a>
</g>
</g>
<!-- Node4&#45;&gt;Node2 -->
<g id="edge3" class="edge"><title>Node4&#45;&gt;Node2</title>
<path fill="none" stroke="#9a32cd" stroke-dasharray="5,2" d="M450.787,-616.549C465.875,-613.064 482.582,-609.398 498,-606.441 550.056,-596.459 609.279,-587.37 654.038,-580.957"/>
<polygon fill="#9a32cd" stroke="#9a32cd" points="449.576,-613.238 440.636,-618.923 451.17,-620.054 449.576,-613.238"/>
<text text-anchor="middle" x="559" y="-609.441" font-family="Helvetica,sans-Serif" font-size="10.00"> myEnvironment</text>
</g>
<!-- Node18 -->
<g id="node18" class="node"><title>Node18</title>
<g id="a_node18"><a xlink:href="../../d1/dc7/classview_1_1_side_bar.html" target="_top" xlink:title="view.SideBar">
<polygon fill="white" stroke="black" points="1011.5,-295.941 1011.5,-314.941 1088.5,-314.941 1088.5,-295.941 1011.5,-295.941"/>
<text text-anchor="middle" x="1050" y="-302.941" font-family="Helvetica,sans-Serif" font-size="10.00">view.SideBar</text>
</a>
</g>
</g>
<!-- Node4&#45;&gt;Node18 -->
<g id="edge22" class="edge"><title>Node4&#45;&gt;Node18</title>
<path fill="none" stroke="#9a32cd" stroke-dasharray="5,2" d="M489.993,-633.358C575.076,-635.126 706.286,-629.872 812,-590.441 879.455,-565.281 910.191,-563.709 948,-502.441 986.508,-440.04 921.575,-396.778 966,-338.441 976.898,-324.131 994.962,-316.013 1011.46,-311.415"/>
<polygon fill="#9a32cd" stroke="#9a32cd" points="489.933,-629.855 479.85,-633.109 489.762,-636.853 489.933,-629.855"/>
<text text-anchor="middle" x="725" y="-631.441" font-family="Helvetica,sans-Serif" font-size="10.00"> myEnvironment</text>
</g>
<!-- Node4&#45;&gt;Node22 -->
<g id="edge27" class="edge"><title>Node4&#45;&gt;Node22</title>
<path fill="none" stroke="#9a32cd" stroke-dasharray="5,2" d="M472.008,-613.704C474.926,-611.586 477.618,-609.178 480,-606.441 518.584,-562.112 476.962,-530.316 498,-475.441 532.596,-385.202 582.952,-384.702 620,-295.441 636.139,-256.557 608.624,-232.599 638,-202.441 650.056,-190.065 668.225,-184.912 684.762,-183.018"/>
<polygon fill="#9a32cd" stroke="#9a32cd" points="470.046,-610.8 463.264,-618.94 473.641,-616.806 470.046,-610.8"/>
<text text-anchor="middle" x="559" y="-478.441" font-family="Helvetica,sans-Serif" font-size="10.00"> myExecutionParameters</text>
</g>
<!-- Node25 -->
<g id="node25" class="node"><title>Node25</title>
<g id="a_node25"><a xlink:href="../../d6/de7/classview_1_1_s_logo_view.html" target="_top" xlink:title="view.SLogoView">
<polygon fill="white" stroke="black" points="1678.5,-191.941 1678.5,-210.941 1769.5,-210.941 1769.5,-191.941 1678.5,-191.941"/>
<text text-anchor="middle" x="1724" y="-198.941" font-family="Helvetica,sans-Serif" font-size="10.00">view.SLogoView</text>
</a>
</g>
</g>
<!-- Node4&#45;&gt;Node25 -->
<g id="edge41" class="edge"><title>Node4&#45;&gt;Node25</title>
<path fill="none" stroke="#9a32cd" stroke-dasharray="5,2" d="M421.423,-644.431C469.495,-682.326 599.186,-774.441 724,-774.441 724,-774.441 724,-774.441 1507,-774.441 1610.98,-774.441 1616.15,-691.728 1660,-597.441 1726.05,-455.415 1724.66,-257.144 1723.36,-211.208"/>
<polygon fill="#9a32cd" stroke="#9a32cd" points="423.41,-641.539 413.417,-638.021 419.036,-647.003 423.41,-641.539"/>
<text text-anchor="middle" x="1192" y="-777.441" font-family="Helvetica,sans-Serif" font-size="10.00"> myEnvironment</text>
</g>
<!-- Node5 -->
<g id="node5" class="node"><title>Node5</title>
<polygon fill="white" stroke="#bfbfbf" points="51.5,-608.941 51.5,-627.941 122.5,-627.941 122.5,-608.941 51.5,-608.941"/>
<text text-anchor="middle" x="87" y="-615.941" font-family="Helvetica,sans-Serif" font-size="10.00">Observable</text>
</g>
<!-- Node5&#45;&gt;Node4 -->
<g id="edge4" class="edge"><title>Node5&#45;&gt;Node4</title>
<path fill="none" stroke="midnightblue" d="M132.637,-619.872C182.066,-621.456 262.658,-624.04 322.457,-625.956"/>
<polygon fill="midnightblue" stroke="midnightblue" points="132.689,-616.372 122.582,-619.55 132.464,-623.369 132.689,-616.372"/>
</g>
<!-- Node6 -->
<g id="node6" class="node"><title>Node6</title>
<polygon fill="white" stroke="#bfbfbf" points="42.5,-570.941 42.5,-589.941 131.5,-589.941 131.5,-570.941 42.5,-570.941"/>
<text text-anchor="middle" x="87" y="-577.941" font-family="Helvetica,sans-Serif" font-size="10.00">Set&lt; Integer &gt;</text>
</g>
<!-- Node6&#45;&gt;Node4 -->
<g id="edge5" class="edge"><title>Node6&#45;&gt;Node4</title>
<path fill="none" stroke="#9a32cd" stroke-dasharray="5,2" d="M141.615,-578.078C186.04,-577.609 250.355,-580.403 304,-596.441 312.768,-599.063 313.539,-602.954 322,-606.441 333.837,-611.321 347.115,-615.512 359.313,-618.886"/>
<polygon fill="#9a32cd" stroke="#9a32cd" points="141.551,-574.579 131.61,-578.243 141.666,-581.578 141.551,-574.579"/>
<text text-anchor="middle" x="248" y="-610.441" font-family="Helvetica,sans-Serif" font-size="10.00"> myTurtleList</text>
<text text-anchor="middle" x="248" y="-599.441" font-family="Helvetica,sans-Serif" font-size="10.00">activeTurtleList</text>
</g>
<!-- Node7 -->
<g id="node7" class="node"><title>Node7</title>
<polygon fill="white" stroke="#bfbfbf" points="0,-685.441 0,-715.441 174,-715.441 174,-685.441 0,-685.441"/>
<text text-anchor="start" x="8" y="-703.441" font-family="Helvetica,sans-Serif" font-size="10.00">Map&lt; String, model.instructions.</text>
<text text-anchor="middle" x="87" y="-692.441" font-family="Helvetica,sans-Serif" font-size="10.00">Instruction &gt;</text>
</g>
<!-- Node7&#45;&gt;Node4 -->
<g id="edge6" class="edge"><title>Node7&#45;&gt;Node4</title>
<path fill="none" stroke="#9a32cd" stroke-dasharray="5,2" d="M184.079,-687.052C221.774,-680.887 265.212,-672.646 304,-662.441 329.136,-655.828 357.059,-645.599 376.28,-638.088"/>
<polygon fill="#9a32cd" stroke="#9a32cd" points="183.435,-683.61 174.118,-688.655 184.548,-690.521 183.435,-683.61"/>
<text text-anchor="middle" x="248" y="-689.441" font-family="Helvetica,sans-Serif" font-size="10.00"> myUserInstructionMap</text>
</g>
<!-- Node8 -->
<g id="node8" class="node"><title>Node8</title>
<polygon fill="white" stroke="#bfbfbf" points="23,-646.941 23,-665.941 151,-665.941 151,-646.941 23,-646.941"/>
<text text-anchor="middle" x="87" y="-653.941" font-family="Helvetica,sans-Serif" font-size="10.00">Map&lt; String, Double &gt;</text>
</g>
<!-- Node8&#45;&gt;Node4 -->
<g id="edge7" class="edge"><title>Node8&#45;&gt;Node4</title>
<path fill="none" stroke="#9a32cd" stroke-dasharray="5,2" d="M161.23,-649.87C209.637,-645.525 273.011,-639.838 322.303,-635.414"/>
<polygon fill="#9a32cd" stroke="#9a32cd" points="160.785,-646.395 151.138,-650.775 161.411,-653.367 160.785,-646.395"/>
<text text-anchor="middle" x="248" y="-650.441" font-family="Helvetica,sans-Serif" font-size="10.00"> myVariableMap</text>
</g>
<!-- Node9&#45;&gt;Node2 -->
<g id="edge8" class="edge"><title>Node9&#45;&gt;Node2</title>
<path fill="none" stroke="#9a32cd" stroke-dasharray="5,2" d="M419.449,-436.933C437.621,-453.143 467.627,-477.306 498,-490.441 548.644,-512.344 576.49,-479.508 620,-513.441 635.054,-525.182 623.131,-540.469 638,-552.441 642.764,-556.277 648.139,-559.378 653.817,-561.881"/>
<polygon fill="#9a32cd" stroke="#9a32cd" points="421.721,-434.267 411.975,-430.113 417.003,-439.438 421.721,-434.267"/>
<text text-anchor="middle" x="559" y="-516.441" font-family="Helvetica,sans-Serif" font-size="10.00"> myViewUpdater</text>
</g>
<!-- Node9&#45;&gt;Node22 -->
<g id="edge28" class="edge"><title>Node9&#45;&gt;Node22</title>
<path fill="none" stroke="#9a32cd" stroke-dasharray="5,2" d="M410.351,-401.559C424.382,-371.848 455.39,-314.111 498,-280.441 543.591,-244.416 575.791,-271.151 620,-233.441 632.121,-223.102 625.137,-211.842 638,-202.441 651.457,-192.608 669.045,-187.704 684.807,-185.314"/>
<polygon fill="#9a32cd" stroke="#9a32cd" points="407.093,-400.265 406.105,-410.813 413.456,-403.184 407.093,-400.265"/>
<text text-anchor="middle" x="559" y="-283.441" font-family="Helvetica,sans-Serif" font-size="10.00"> myViewUpdater</text>
</g>
<!-- Node10 -->
<g id="node10" class="node"><title>Node10</title>
<g id="a_node10"><a xlink:href="../../da/d64/classview_1_1_workspace.html" target="_top" xlink:title="view.Workspace">
<polygon fill="white" stroke="black" points="1250,-463.941 1250,-482.941 1340,-482.941 1340,-463.941 1250,-463.941"/>
<text text-anchor="middle" x="1295" y="-470.941" font-family="Helvetica,sans-Serif" font-size="10.00">view.Workspace</text>
</a>
</g>
</g>
<!-- Node10&#45;&gt;Node9 -->
<g id="edge10" class="edge"><title>Node10&#45;&gt;Node9</title>
<path fill="none" stroke="#9a32cd" stroke-dasharray="5,2" d="M1239.66,-473.597C1213.21,-473.633 1180.95,-473.619 1152,-473.441 861.317,-471.664 781.343,-530.376 498,-465.441 467.678,-458.493 435.553,-441.107 417.22,-430.093"/>
<polygon fill="#9a32cd" stroke="#9a32cd" points="1239.87,-477.097 1249.87,-473.58 1239.86,-470.097 1239.87,-477.097"/>
<text text-anchor="middle" x="889" y="-496.441" font-family="Helvetica,sans-Serif" font-size="10.00"> myWorkspace</text>
</g>
<!-- Node10&#45;&gt;Node25 -->
<g id="edge31" class="edge"><title>Node10&#45;&gt;Node25</title>
<path fill="none" stroke="#9a32cd" stroke-dasharray="5,2" d="M1350.52,-472.609C1429.67,-468.393 1576.06,-448.8 1660,-364.441 1704.94,-319.279 1718.54,-238.526 1721.98,-210.964"/>
<polygon fill="#9a32cd" stroke="#9a32cd" points="1350.11,-469.124 1340.28,-473.088 1350.43,-476.117 1350.11,-469.124"/>
<text text-anchor="middle" x="1506" y="-464.441" font-family="Helvetica,sans-Serif" font-size="10.00"> myWorkspace</text>
</g>
<!-- Node33 -->
<g id="node33" class="node"><title>Node33</title>
<g id="a_node33"><a xlink:href="../../de/d0a/classview_1_1_drawer.html" target="_top" xlink:title="view.Drawer">
<polygon fill="white" stroke="black" points="1469.5,-369.941 1469.5,-388.941 1542.5,-388.941 1542.5,-369.941 1469.5,-369.941"/>
<text text-anchor="middle" x="1506" y="-376.941" font-family="Helvetica,sans-Serif" font-size="10.00">view.Drawer</text>
</a>
</g>
</g>
<!-- Node10&#45;&gt;Node33 -->
<g id="edge45" class="edge"><title>Node10&#45;&gt;Node33</title>
<path fill="none" stroke="#9a32cd" stroke-dasharray="5,2" d="M1325.11,-459.672C1335.47,-454.812 1347.23,-449.339 1358,-444.441 1402.2,-424.337 1454.22,-401.534 1483.02,-388.988"/>
<polygon fill="#9a32cd" stroke="#9a32cd" points="1323.61,-456.507 1316.05,-463.93 1326.59,-462.841 1323.61,-456.507"/>
<text text-anchor="middle" x="1393" y="-447.441" font-family="Helvetica,sans-Serif" font-size="10.00"> myWorkspace</text>
</g>
<!-- Node11 -->
<g id="node11" class="node"><title>Node11</title>
<polygon fill="white" stroke="#bfbfbf" points="1016.5,-562.941 1016.5,-581.941 1083.5,-581.941 1083.5,-562.941 1016.5,-562.941"/>
<text text-anchor="middle" x="1050" y="-569.941" font-family="Helvetica,sans-Serif" font-size="10.00">StackPane</text>
</g>
<!-- Node11&#45;&gt;Node10 -->
<g id="edge11" class="edge"><title>Node11&#45;&gt;Node10</title>
<path fill="none" stroke="midnightblue" d="M1093.93,-574.961C1132.42,-575.335 1189.25,-571.093 1232,-547.441 1259.57,-532.188 1280.08,-499.429 1289.04,-483.103"/>
<polygon fill="midnightblue" stroke="midnightblue" points="1093.66,-571.454 1083.59,-574.745 1093.51,-578.453 1093.66,-571.454"/>
</g>
<!-- Node12 -->
<g id="node12" class="node"><title>Node12</title>
<polygon fill="white" stroke="#bfbfbf" points="678.5,-523.941 678.5,-542.941 771.5,-542.941 771.5,-523.941 678.5,-523.941"/>
<text text-anchor="middle" x="725" y="-530.941" font-family="Helvetica,sans-Serif" font-size="10.00">ResourceBundle</text>
</g>
<!-- Node12&#45;&gt;Node10 -->
<g id="edge12" class="edge"><title>Node12&#45;&gt;Node10</title>
<path fill="none" stroke="#9a32cd" stroke-dasharray="5,2" d="M781.664,-536.376C875.917,-539.925 1072.27,-541.153 1232,-501.441 1248.05,-497.452 1265.08,-489.452 1277.23,-483.021"/>
<polygon fill="#9a32cd" stroke="#9a32cd" points="781.633,-532.872 771.501,-535.97 781.353,-539.867 781.633,-532.872"/>
<text text-anchor="middle" x="1050" y="-539.441" font-family="Helvetica,sans-Serif" font-size="10.00"> myResources</text>
</g>
<!-- Node12&#45;&gt;Node18 -->
<g id="edge21" class="edge"><title>Node12&#45;&gt;Node18</title>
<path fill="none" stroke="#9a32cd" stroke-dasharray="5,2" d="M744.635,-516.997C764.706,-499.85 798.072,-472.944 830,-454.441 879.281,-425.883 910.523,-447.333 948,-404.441 968.006,-381.546 945.74,-361.112 966,-338.441 977.676,-325.376 995.216,-317.415 1011.17,-312.598"/>
<polygon fill="#9a32cd" stroke="#9a32cd" points="742.165,-514.506 736.89,-523.695 746.744,-519.801 742.165,-514.506"/>
<text text-anchor="middle" x="889" y="-457.441" font-family="Helvetica,sans-Serif" font-size="10.00"> myResources</text>
</g>
<!-- Node12&#45;&gt;Node25 -->
<g id="edge33" class="edge"><title>Node12&#45;&gt;Node25</title>
<path fill="none" stroke="#9a32cd" stroke-dasharray="5,2" d="M781.417,-543.574C791.712,-546.049 802.279,-548.997 812,-552.441 919.12,-590.399 935.353,-648.441 1049,-648.441 1049,-648.441 1049,-648.441 1507,-648.441 1708.25,-648.441 1722.08,-276.563 1722.95,-211.193"/>
<polygon fill="#9a32cd" stroke="#9a32cd" points="782.197,-540.162 771.668,-541.346 780.637,-546.986 782.197,-540.162"/>
<text text-anchor="middle" x="1295" y="-651.441" font-family="Helvetica,sans-Serif" font-size="10.00"> myResources</text>
</g>
<!-- Node13 -->
<g id="node13" class="node"><title>Node13</title>
<g id="a_node13"><a xlink:href="../../d8/df7/classview_1_1_turtle_view.html" target="_top" xlink:title="view.TurtleView">
<polygon fill="white" stroke="black" points="1007,-726.941 1007,-745.941 1093,-745.941 1093,-726.941 1007,-726.941"/>
<text text-anchor="middle" x="1050" y="-733.941" font-family="Helvetica,sans-Serif" font-size="10.00">view.TurtleView</text>
</a>
</g>
</g>
<!-- Node13&#45;&gt;Node10 -->
<g id="edge13" class="edge"><title>Node13&#45;&gt;Node10</title>
<path fill="none" stroke="#9a32cd" stroke-dasharray="5,2" d="M1102.89,-728.526C1113.59,-725.651 1124.48,-721.744 1134,-716.441 1187.53,-686.612 1197.6,-670.157 1232,-619.441 1263.69,-572.723 1284.38,-507.205 1291.37,-482.954"/>
<polygon fill="#9a32cd" stroke="#9a32cd" points="1102.06,-725.125 1093.17,-730.886 1103.72,-731.928 1102.06,-725.125"/>
<text text-anchor="middle" x="1192" y="-708.441" font-family="Helvetica,sans-Serif" font-size="10.00"> myActiveTurtle</text>
</g>
<!-- Node14 -->
<g id="node14" class="node"><title>Node14</title>
<polygon fill="white" stroke="#bfbfbf" points="691,-726.941 691,-745.941 759,-745.941 759,-726.941 691,-726.941"/>
<text text-anchor="middle" x="725" y="-733.941" font-family="Helvetica,sans-Serif" font-size="10.00">ImageView</text>
</g>
<!-- Node14&#45;&gt;Node13 -->
<g id="edge14" class="edge"><title>Node14&#45;&gt;Node13</title>
<path fill="none" stroke="midnightblue" d="M769.302,-736.441C831.486,-736.441 945.343,-736.441 1006.87,-736.441"/>
<polygon fill="midnightblue" stroke="midnightblue" points="769.049,-732.942 759.049,-736.441 769.049,-739.942 769.049,-732.942"/>
</g>
<!-- Node15 -->
<g id="node15" class="node"><title>Node15</title>
<polygon fill="white" stroke="#bfbfbf" points="671.5,-688.941 671.5,-707.941 778.5,-707.941 778.5,-688.941 671.5,-688.941"/>
<text text-anchor="middle" x="725" y="-695.941" font-family="Helvetica,sans-Serif" font-size="10.00">List&lt; ImageView &gt;</text>
</g>
<!-- Node15&#45;&gt;Node13 -->
<g id="edge15" class="edge"><title>Node15&#45;&gt;Node13</title>
<path fill="none" stroke="#9a32cd" stroke-dasharray="5,2" d="M788.643,-704.186C833.16,-708.451 894.323,-714.678 948,-721.441 967.347,-723.879 988.715,-726.991 1006.8,-729.748"/>
<polygon fill="#9a32cd" stroke="#9a32cd" points="788.842,-700.69 778.555,-703.226 788.178,-707.658 788.842,-700.69"/>
<text text-anchor="middle" x="889" y="-724.441" font-family="Helvetica,sans-Serif" font-size="10.00"> myStamps</text>
</g>
<!-- Node16 -->
<g id="node16" class="node"><title>Node16</title>
<polygon fill="white" stroke="#bfbfbf" points="982,-428.441 982,-458.441 1118,-458.441 1118,-428.441 982,-428.441"/>
<text text-anchor="start" x="990" y="-446.441" font-family="Helvetica,sans-Serif" font-size="10.00">Map&lt; Integer, view.Turtle</text>
<text text-anchor="middle" x="1050" y="-435.441" font-family="Helvetica,sans-Serif" font-size="10.00">View &gt;</text>
</g>
<!-- Node16&#45;&gt;Node10 -->
<g id="edge16" class="edge"><title>Node16&#45;&gt;Node10</title>
<path fill="none" stroke="#9a32cd" stroke-dasharray="5,2" d="M1128.41,-450.348C1160.52,-453.529 1198.12,-457.664 1232,-462.441 1237.74,-463.251 1243.76,-464.196 1249.69,-465.187"/>
<polygon fill="#9a32cd" stroke="#9a32cd" points="1128.48,-446.838 1118.19,-449.348 1127.8,-453.805 1128.48,-446.838"/>
<text text-anchor="middle" x="1192" y="-465.441" font-family="Helvetica,sans-Serif" font-size="10.00"> myTurtles</text>
</g>
<!-- Node17 -->
<g id="node17" class="node"><title>Node17</title>
<polygon fill="white" stroke="#bfbfbf" points="1027,-389.941 1027,-408.941 1073,-408.941 1073,-389.941 1027,-389.941"/>
<text text-anchor="middle" x="1050" y="-396.941" font-family="Helvetica,sans-Serif" font-size="10.00">Group</text>
</g>
<!-- Node17&#45;&gt;Node10 -->
<g id="edge17" class="edge"><title>Node17&#45;&gt;Node10</title>
<path fill="none" stroke="#9a32cd" stroke-dasharray="5,2" d="M1083.21,-403.391C1120.07,-408.587 1181.81,-419.375 1232,-438.441 1249.33,-445.026 1267.64,-455.911 1279.83,-463.796"/>
<polygon fill="#9a32cd" stroke="#9a32cd" points="1083.44,-399.89 1073.06,-402.013 1082.5,-406.826 1083.44,-399.89"/>
<text text-anchor="middle" x="1192" y="-441.441" font-family="Helvetica,sans-Serif" font-size="10.00"> myLines</text>
</g>
<!-- Node18&#45;&gt;Node9 -->
<g id="edge51" class="edge"><title>Node18&#45;&gt;Node9</title>
<path fill="none" stroke="#9a32cd" stroke-dasharray="5,2" d="M1000.87,-300.377C923.346,-293.576 766.496,-285.434 638,-314.441 549.717,-334.371 454.199,-388.598 417.53,-410.784"/>
<polygon fill="#9a32cd" stroke="#9a32cd" points="1001,-303.903 1011.27,-301.324 1001.63,-296.932 1001,-303.903"/>
<text text-anchor="middle" x="725" y="-317.441" font-family="Helvetica,sans-Serif" font-size="10.00"> mySidebar</text>
</g>
<!-- Node18&#45;&gt;Node10 -->
<g id="edge18" class="edge"><title>Node18&#45;&gt;Node10</title>
<path fill="none" stroke="#9a32cd" stroke-dasharray="5,2" d="M1088.53,-318.6C1103.01,-324.132 1119.55,-331.01 1134,-338.441 1180.05,-362.117 1192.92,-367.47 1232,-401.441 1254.66,-421.139 1276.44,-449.22 1287.13,-463.809"/>
<polygon fill="#9a32cd" stroke="#9a32cd" points="1089.47,-315.216 1078.88,-314.995 1087.02,-321.773 1089.47,-315.216"/>
<text text-anchor="middle" x="1192" y="-404.441" font-family="Helvetica,sans-Serif" font-size="10.00"> mySidebar</text>
</g>
<!-- Node18&#45;&gt;Node25 -->
<g id="edge47" class="edge"><title>Node18&#45;&gt;Node25</title>
<path fill="none" stroke="#9a32cd" stroke-dasharray="5,2" d="M1098.65,-299.587C1201.52,-286.685 1451.96,-253.879 1660,-215.441 1667.16,-214.118 1674.75,-212.565 1682.08,-210.983"/>
<polygon fill="#9a32cd" stroke="#9a32cd" points="1098.07,-296.132 1088.58,-300.845 1098.93,-303.078 1098.07,-296.132"/>
<text text-anchor="middle" x="1393" y="-267.441" font-family="Helvetica,sans-Serif" font-size="10.00"> mySidebar</text>
</g>
<!-- Node27 -->
<g id="node27" class="node"><title>Node27</title>
<g id="a_node27"><a xlink:href="../../da/dc8/classview_1_1_editor.html" target="_top" xlink:title="view.Editor">
<polygon fill="white" stroke="black" points="1261.5,-110.941 1261.5,-129.941 1328.5,-129.941 1328.5,-110.941 1261.5,-110.941"/>
<text text-anchor="middle" x="1295" y="-117.941" font-family="Helvetica,sans-Serif" font-size="10.00">view.Editor</text>
</a>
</g>
</g>
<!-- Node18&#45;&gt;Node27 -->
<g id="edge39" class="edge"><title>Node18&#45;&gt;Node27</title>
<path fill="none" stroke="#9a32cd" stroke-dasharray="5,2" d="M1074.58,-289.915C1109.74,-266.48 1177.6,-220.152 1232,-176.441 1251,-161.178 1271.76,-141.831 1283.79,-130.333"/>
<polygon fill="#9a32cd" stroke="#9a32cd" points="1072.36,-287.184 1065.97,-295.631 1076.23,-293.016 1072.36,-287.184"/>
<text text-anchor="middle" x="1192" y="-238.441" font-family="Helvetica,sans-Serif" font-size="10.00"> mySidebar</text>
</g>
<!-- Node19 -->
<g id="node19" class="node"><title>Node19</title>
<polygon fill="white" stroke="#bfbfbf" points="704.5,-249.941 704.5,-268.941 745.5,-268.941 745.5,-249.941 704.5,-249.941"/>
<text text-anchor="middle" x="725" y="-256.941" font-family="Helvetica,sans-Serif" font-size="10.00">VBox</text>
</g>
<!-- Node19&#45;&gt;Node18 -->
<g id="edge19" class="edge"><title>Node19&#45;&gt;Node18</title>
<path fill="none" stroke="midnightblue" d="M755.875,-263.696C814.966,-272.112 946.647,-290.865 1011.47,-300.097"/>
<polygon fill="midnightblue" stroke="midnightblue" points="756.112,-260.195 745.719,-262.25 755.125,-267.125 756.112,-260.195"/>
</g>
<!-- Node20 -->
<g id="node20" class="node"><title>Node20</title>
<polygon fill="white" stroke="#bfbfbf" points="638.5,-211.941 638.5,-230.941 811.5,-230.941 811.5,-211.941 638.5,-211.941"/>
<text text-anchor="middle" x="725" y="-218.941" font-family="Helvetica,sans-Serif" font-size="10.00">ObservableList&lt; view.Property &gt;</text>
</g>
<!-- Node20&#45;&gt;Node18 -->
<g id="edge20" class="edge"><title>Node20&#45;&gt;Node18</title>
<path fill="none" stroke="#9a32cd" stroke-dasharray="5,2" d="M821.476,-232.28C861.155,-238.195 907.344,-246.934 948,-259.441 978.57,-268.846 1011.96,-285.396 1031.66,-295.87"/>
<polygon fill="#9a32cd" stroke="#9a32cd" points="821.935,-228.81 811.536,-230.836 820.929,-235.737 821.935,-228.81"/>
<text text-anchor="middle" x="889" y="-262.441" font-family="Helvetica,sans-Serif" font-size="10.00"> myVariablesList</text>
</g>
<!-- Node21 -->
<g id="node21" class="node"><title>Node21</title>
<polygon fill="white" stroke="#bfbfbf" points="651,-372.941 651,-391.941 799,-391.941 799,-372.941 651,-372.941"/>
<text text-anchor="middle" x="725" y="-379.941" font-family="Helvetica,sans-Serif" font-size="10.00">TableView&lt; view.Property &gt;</text>
</g>
<!-- Node21&#45;&gt;Node18 -->
<g id="edge23" class="edge"><title>Node21&#45;&gt;Node18</title>
<path fill="none" stroke="#9a32cd" stroke-dasharray="5,2" d="M809.264,-379.585C861.872,-376.613 924.25,-370.591 948,-358.441 958.647,-352.995 956.186,-345.275 966,-338.441 980.762,-328.163 999.188,-320.424 1014.93,-315.033"/>
<polygon fill="#9a32cd" stroke="#9a32cd" points="809.026,-376.093 799.227,-380.123 809.4,-383.083 809.026,-376.093"/>
<text text-anchor="middle" x="889" y="-392.441" font-family="Helvetica,sans-Serif" font-size="10.00"> myTurtlePropertiesTable</text>
<text text-anchor="middle" x="889" y="-381.441" font-family="Helvetica,sans-Serif" font-size="10.00">myVariablesTable</text>
</g>
<!-- Node22&#45;&gt;Node18 -->
<g id="edge24" class="edge"><title>Node22&#45;&gt;Node18</title>
<path fill="none" stroke="#9a32cd" stroke-dasharray="5,2" d="M775.508,-190.78C838.524,-200.223 940.216,-215.843 948,-219.441 988.345,-238.094 1025.26,-277.502 1040.99,-295.769"/>
<polygon fill="#9a32cd" stroke="#9a32cd" points="775.774,-187.281 765.367,-189.264 774.739,-194.204 775.774,-187.281"/>
<text text-anchor="middle" x="889" y="-222.441" font-family="Helvetica,sans-Serif" font-size="10.00"> myParser</text>
</g>
<!-- Node22&#45;&gt;Node25 -->
<g id="edge42" class="edge"><title>Node22&#45;&gt;Node25</title>
<path fill="none" stroke="#9a32cd" stroke-dasharray="5,2" d="M742,-166.439C786.205,-121.401 915.592,-2.4415 1049,-2.4415 1049,-2.4415 1049,-2.4415 1507,-2.4415 1576.38,-2.4415 1607.2,11.5713 1660,-33.4415 1710.02,-76.0829 1720.38,-162.561 1722.48,-191.646"/>
<polygon fill="#9a32cd" stroke="#9a32cd" points="739.406,-164.086 734.976,-173.71 744.441,-168.949 739.406,-164.086"/>
<text text-anchor="middle" x="1295" y="-5.4415" font-family="Helvetica,sans-Serif" font-size="10.00"> myParser</text>
</g>
<!-- Node22&#45;&gt;Node27 -->
<g id="edge37" class="edge"><title>Node22&#45;&gt;Node27</title>
<path fill="none" stroke="#9a32cd" stroke-dasharray="5,2" d="M775.444,-179.243C884.869,-169.84 1144.73,-146.862 1232,-133.441 1241.57,-131.97 1251.88,-129.975 1261.3,-127.989"/>
<polygon fill="#9a32cd" stroke="#9a32cd" points="774.999,-175.768 765.334,-180.11 775.597,-182.743 774.999,-175.768"/>
<text text-anchor="middle" x="1050" y="-165.441" font-family="Helvetica,sans-Serif" font-size="10.00"> myParser</text>
</g>
<!-- Node23 -->
<g id="node23" class="node"><title>Node23</title>
<polygon fill="white" stroke="#bfbfbf" points="345,-130.441 345,-160.441 457,-160.441 457,-130.441 345,-130.441"/>
<text text-anchor="start" x="353" y="-148.441" font-family="Helvetica,sans-Serif" font-size="10.00">List&lt; Entry&lt; String,</text>
<text text-anchor="middle" x="401" y="-137.441" font-family="Helvetica,sans-Serif" font-size="10.00"> Pattern &gt; &gt;</text>
</g>
<!-- Node23&#45;&gt;Node22 -->
<g id="edge26" class="edge"><title>Node23&#45;&gt;Node22</title>
<path fill="none" stroke="#9a32cd" stroke-dasharray="5,2" d="M467.399,-149.534C510.789,-152.644 568.935,-157.567 620,-164.441 641.465,-167.331 665.238,-171.594 684.631,-175.35"/>
<polygon fill="#9a32cd" stroke="#9a32cd" points="467.48,-146.031 457.259,-148.821 466.988,-153.014 467.48,-146.031"/>
<text text-anchor="middle" x="559" y="-167.441" font-family="Helvetica,sans-Serif" font-size="10.00"> myPatterns</text>
</g>
<!-- Node24 -->
<g id="node24" class="node"><title>Node24</title>
<polygon fill="white" stroke="#bfbfbf" points="340,-217.941 340,-236.941 462,-236.941 462,-217.941 340,-217.941"/>
<text text-anchor="middle" x="401" y="-224.941" font-family="Helvetica,sans-Serif" font-size="10.00">Map&lt; String, String &gt;</text>
</g>
<!-- Node24&#45;&gt;Node22 -->
<g id="edge29" class="edge"><title>Node24&#45;&gt;Node22</title>
<path fill="none" stroke="#9a32cd" stroke-dasharray="5,2" d="M472.349,-221.144C515.147,-216.953 570.854,-210.86 620,-203.441 641.453,-200.203 665.225,-195.701 684.621,-191.788"/>
<polygon fill="#9a32cd" stroke="#9a32cd" points="471.93,-217.668 462.314,-222.115 472.605,-224.635 471.93,-217.668"/>
<text text-anchor="middle" x="559" y="-221.441" font-family="Helvetica,sans-Serif" font-size="10.00"> myCommandMap</text>
</g>
<!-- Node25&#45;&gt;Node22 -->
<g id="edge30" class="edge"><title>Node25&#45;&gt;Node22</title>
<path fill="none" stroke="#9a32cd" stroke-dasharray="5,2" d="M1668.2,-201.441C1624.54,-201.441 1561.85,-201.441 1507,-201.441 1191,-201.441 1191,-201.441 1191,-201.441 1033.06,-201.441 845.161,-190.944 765.173,-185.982"/>
<polygon fill="#9a32cd" stroke="#9a32cd" points="1668.32,-204.942 1678.32,-201.441 1668.32,-197.942 1668.32,-204.942"/>
<text text-anchor="middle" x="1295" y="-204.441" font-family="Helvetica,sans-Serif" font-size="10.00"> mySLogoView</text>
</g>
<!-- Node26 -->
<g id="node26" class="node"><title>Node26</title>
<polygon fill="white" stroke="#bfbfbf" points="1483.5,-153.941 1483.5,-172.941 1528.5,-172.941 1528.5,-153.941 1483.5,-153.941"/>
<text text-anchor="middle" x="1506" y="-160.941" font-family="Helvetica,sans-Serif" font-size="10.00">Stage</text>
</g>
<!-- Node26&#45;&gt;Node25 -->
<g id="edge32" class="edge"><title>Node26&#45;&gt;Node25</title>
<path fill="none" stroke="#9a32cd" stroke-dasharray="5,2" d="M1538.88,-163.45C1570.13,-164.087 1618.92,-166.767 1660,-176.441 1675,-179.975 1691.15,-186.438 1703.34,-191.908"/>
<polygon fill="#9a32cd" stroke="#9a32cd" points="1538.65,-159.946 1528.6,-163.302 1538.55,-166.945 1538.65,-159.946"/>
<text text-anchor="middle" x="1622" y="-179.441" font-family="Helvetica,sans-Serif" font-size="10.00"> myStage</text>
</g>
<!-- Node27&#45;&gt;Node25 -->
<g id="edge34" class="edge"><title>Node27&#45;&gt;Node25</title>
<path fill="none" stroke="#9a32cd" stroke-dasharray="5,2" d="M1338.93,-117.142C1409.38,-113.485 1552.46,-113.538 1660,-162.441 1678.03,-170.642 1697.17,-183.089 1709.55,-191.707"/>
<polygon fill="#9a32cd" stroke="#9a32cd" points="1338.45,-113.664 1328.66,-117.729 1338.85,-120.652 1338.45,-113.664"/>
<text text-anchor="middle" x="1506" y="-135.441" font-family="Helvetica,sans-Serif" font-size="10.00"> myEditor</text>
</g>
<!-- Node28 -->
<g id="node28" class="node"><title>Node28</title>
<polygon fill="white" stroke="#bfbfbf" points="1029,-106.941 1029,-125.941 1071,-125.941 1071,-106.941 1029,-106.941"/>
<text text-anchor="middle" x="1050" y="-113.941" font-family="Helvetica,sans-Serif" font-size="10.00">HBox</text>
</g>
<!-- Node28&#45;&gt;Node27 -->
<g id="edge35" class="edge"><title>Node28&#45;&gt;Node27</title>
<path fill="none" stroke="midnightblue" d="M1081.54,-116.944C1127.55,-117.702 1214.27,-119.129 1261.44,-119.905"/>
<polygon fill="midnightblue" stroke="midnightblue" points="1081.36,-113.441 1071.3,-116.776 1081.24,-120.44 1081.36,-113.441"/>
</g>
<!-- Node29 -->
<g id="node29" class="node"><title>Node29</title>
<polygon fill="white" stroke="#bfbfbf" points="1025.5,-68.9415 1025.5,-87.9415 1074.5,-87.9415 1074.5,-68.9415 1025.5,-68.9415"/>
<text text-anchor="middle" x="1050" y="-75.9415" font-family="Helvetica,sans-Serif" font-size="10.00">Button</text>
</g>
<!-- Node29&#45;&gt;Node27 -->
<g id="edge36" class="edge"><title>Node29&#45;&gt;Node27</title>
<path fill="none" stroke="#9a32cd" stroke-dasharray="5,2" d="M1084.7,-81.7668C1121.21,-85.6789 1181.09,-92.9928 1232,-103.441 1241.95,-105.484 1252.66,-108.222 1262.33,-110.904"/>
<polygon fill="#9a32cd" stroke="#9a32cd" points="1084.91,-78.2697 1074.6,-80.708 1084.18,-85.2316 1084.91,-78.2697"/>
<text text-anchor="middle" x="1192" y="-106.441" font-family="Helvetica,sans-Serif" font-size="10.00"> runButton</text>
</g>
<!-- Node30 -->
<g id="node30" class="node"><title>Node30</title>
<polygon fill="white" stroke="#bfbfbf" points="1021,-30.9415 1021,-49.9415 1079,-49.9415 1079,-30.9415 1021,-30.9415"/>
<text text-anchor="middle" x="1050" y="-37.9415" font-family="Helvetica,sans-Serif" font-size="10.00">TextArea</text>
</g>
<!-- Node30&#45;&gt;Node27 -->
<g id="edge38" class="edge"><title>Node30&#45;&gt;Node27</title>
<path fill="none" stroke="#9a32cd" stroke-dasharray="5,2" d="M1089.13,-42.9799C1126.77,-46.5831 1185.3,-55.1775 1232,-75.4415 1252.25,-84.2305 1272.31,-100.542 1283.91,-110.926"/>
<polygon fill="#9a32cd" stroke="#9a32cd" points="1089.36,-39.487 1079.09,-42.0904 1088.74,-46.4597 1089.36,-39.487"/>
<text text-anchor="middle" x="1192" y="-78.4415" font-family="Helvetica,sans-Serif" font-size="10.00"> textEditor</text>
</g>
<!-- Node31 -->
<g id="node31" class="node"><title>Node31</title>
<polygon fill="white" stroke="#bfbfbf" points="1446.5,-68.9415 1446.5,-87.9415 1565.5,-87.9415 1565.5,-68.9415 1446.5,-68.9415"/>
<text text-anchor="middle" x="1506" y="-75.9415" font-family="Helvetica,sans-Serif" font-size="10.00">Map&lt; String, Node &gt;</text>
</g>
<!-- Node31&#45;&gt;Node25 -->
<g id="edge40" class="edge"><title>Node31&#45;&gt;Node25</title>
<path fill="none" stroke="#9a32cd" stroke-dasharray="5,2" d="M1575.76,-75.4662C1603.82,-77.2653 1635.38,-83.4203 1660,-99.4415 1694.71,-122.035 1713.53,-171.137 1720.18,-191.883"/>
<polygon fill="#9a32cd" stroke="#9a32cd" points="1575.75,-71.9622 1565.6,-74.9903 1575.42,-78.9545 1575.75,-71.9622"/>
<text text-anchor="middle" x="1622" y="-102.441" font-family="Helvetica,sans-Serif" font-size="10.00"> variables</text>
</g>
<!-- Node32 -->
<g id="node32" class="node"><title>Node32</title>
<polygon fill="white" stroke="#bfbfbf" points="1465.5,-30.9415 1465.5,-49.9415 1546.5,-49.9415 1546.5,-30.9415 1465.5,-30.9415"/>
<text text-anchor="middle" x="1506" y="-37.9415" font-family="Helvetica,sans-Serif" font-size="10.00">Dimension2D</text>
</g>
<!-- Node32&#45;&gt;Node25 -->
<g id="edge43" class="edge"><title>Node32&#45;&gt;Node25</title>
<path fill="none" stroke="#9a32cd" stroke-dasharray="5,2" d="M1556.91,-35.5653C1589.29,-35.0233 1630.75,-39.5613 1660,-61.4415 1704.18,-94.486 1718.1,-165.627 1721.82,-191.65"/>
<polygon fill="#9a32cd" stroke="#9a32cd" points="1556.62,-32.0729 1546.74,-35.9042 1556.85,-39.069 1556.62,-32.0729"/>
<text text-anchor="middle" x="1622" y="-64.4415" font-family="Helvetica,sans-Serif" font-size="10.00"> myDimensions</text>
</g>
<!-- Node33&#45;&gt;Node9 -->
<g id="edge50" class="edge"><title>Node33&#45;&gt;Node9</title>
<path fill="none" stroke="#9a32cd" stroke-dasharray="5,2" d="M1459.21,-377.81C1389.17,-375.405 1251.2,-371.021 1134,-369.441 1059.34,-368.435 1029.74,-330.548 966,-369.441 951.068,-378.553 962.797,-395.112 948,-404.441 906.637,-430.521 577.518,-424.963 451.16,-421.818"/>
<polygon fill="#9a32cd" stroke="#9a32cd" points="1459.34,-381.317 1469.45,-378.165 1459.58,-374.321 1459.34,-381.317"/>
<text text-anchor="middle" x="1050" y="-372.441" font-family="Helvetica,sans-Serif" font-size="10.00"> myDrawer</text>
</g>
<!-- Node33&#45;&gt;Node25 -->
<g id="edge44" class="edge"><title>Node33&#45;&gt;Node25</title>
<path fill="none" stroke="#9a32cd" stroke-dasharray="5,2" d="M1545.04,-366.326C1578.24,-353.459 1626.26,-331.275 1660,-300.441 1689.33,-273.644 1710.53,-230.23 1718.97,-211.061"/>
<polygon fill="#9a32cd" stroke="#9a32cd" points="1543.78,-363.058 1535.66,-369.864 1546.26,-369.607 1543.78,-363.058"/>
<text text-anchor="middle" x="1622" y="-352.441" font-family="Helvetica,sans-Serif" font-size="10.00"> drawer</text>
</g>
<!-- Node34 -->
<g id="node34" class="node"><title>Node34</title>
<polygon fill="white" stroke="#bfbfbf" points="1274.5,-388.941 1274.5,-407.941 1315.5,-407.941 1315.5,-388.941 1274.5,-388.941"/>
<text text-anchor="middle" x="1295" y="-395.941" font-family="Helvetica,sans-Serif" font-size="10.00">Color</text>
</g>
<!-- Node34&#45;&gt;Node33 -->
<g id="edge46" class="edge"><title>Node34&#45;&gt;Node33</title>
<path fill="none" stroke="#9a32cd" stroke-dasharray="5,2" d="M1326.03,-395.711C1363.9,-392.269 1428.91,-386.359 1469.29,-382.688"/>
<polygon fill="#9a32cd" stroke="#9a32cd" points="1325.3,-392.263 1315.66,-396.654 1325.94,-399.234 1325.3,-392.263"/>
<text text-anchor="middle" x="1393" y="-395.441" font-family="Helvetica,sans-Serif" font-size="10.00"> myColor</text>
</g>
<!-- Node35 -->
<g id="node35" class="node"><title>Node35</title>
<polygon fill="white" stroke="#bfbfbf" points="656,-334.941 656,-353.941 794,-353.941 794,-334.941 656,-334.941"/>
<text text-anchor="middle" x="725" y="-341.941" font-family="Helvetica,sans-Serif" font-size="10.00">ObservableList&lt; String &gt;</text>
</g>
<!-- Node35&#45;&gt;Node18 -->
<g id="edge48" class="edge"><title>Node35&#45;&gt;Node18</title>
<path fill="none" stroke="#9a32cd" stroke-dasharray="5,2" d="M804.407,-334.974C870.005,-327.054 960.738,-316.099 1011.23,-310.002"/>
<polygon fill="#9a32cd" stroke="#9a32cd" points="803.614,-331.545 794.105,-336.218 804.453,-338.494 803.614,-331.545"/>
<text text-anchor="middle" x="889" y="-346.441" font-family="Helvetica,sans-Serif" font-size="10.00"> myCommandItems</text>
<text text-anchor="middle" x="889" y="-335.441" font-family="Helvetica,sans-Serif" font-size="10.00">myHistoryItems</text>
</g>
<!-- Node36 -->
<g id="node36" class="node"><title>Node36</title>
<polygon fill="white" stroke="#bfbfbf" points="1018.5,-600.941 1018.5,-619.941 1081.5,-619.941 1081.5,-600.941 1018.5,-600.941"/>
<text text-anchor="middle" x="1050" y="-607.941" font-family="Helvetica,sans-Serif" font-size="10.00">Rectangle</text>
</g>
<!-- Node36&#45;&gt;Node10 -->
<g id="edge49" class="edge"><title>Node36&#45;&gt;Node10</title>
<path fill="none" stroke="#9a32cd" stroke-dasharray="5,2" d="M1091.73,-611.075C1130.96,-609.754 1190.33,-602.483 1232,-573.441 1265.18,-550.314 1284.12,-503.141 1291,-482.953"/>
<polygon fill="#9a32cd" stroke="#9a32cd" points="1091.64,-607.576 1081.72,-611.298 1091.8,-614.574 1091.64,-607.576"/>
<text text-anchor="middle" x="1192" y="-607.441" font-family="Helvetica,sans-Serif" font-size="10.00"> myBackground</text>
</g>
<!-- Node37 -->
<g id="node37" class="node"><title>Node37</title>
<polygon fill="white" stroke="#bfbfbf" points="333,-567.441 333,-597.441 469,-597.441 469,-567.441 333,-567.441"/>
<text text-anchor="start" x="341" y="-585.441" font-family="Helvetica,sans-Serif" font-size="10.00">List&lt; model.instructions.</text>
<text text-anchor="middle" x="401" y="-574.441" font-family="Helvetica,sans-Serif" font-size="10.00">Instruction &gt;</text>
</g>
<!-- Node37&#45;&gt;Node2 -->
<g id="edge52" class="edge"><title>Node37&#45;&gt;Node2</title>
<path fill="none" stroke="#9a32cd" stroke-dasharray="5,2" d="M479.102,-573.733C485.489,-573.218 491.851,-572.775 498,-572.441 547.072,-569.784 602.224,-569.487 645.761,-569.878"/>
<polygon fill="#9a32cd" stroke="#9a32cd" points="478.734,-570.252 469.071,-574.597 479.335,-577.226 478.734,-570.252"/>
<text text-anchor="middle" x="559" y="-575.441" font-family="Helvetica,sans-Serif" font-size="10.00"> myDependencies</text>
</g>
</g>
</svg>
        <g id="navigator" transform="translate(0 0)" fill="#404254">
                <rect fill="#f2f5e9" fill-opacity="0.5" stroke="#606060" stroke-width=".5" x="0" y="0" width="60" height="60"/>
                <use id="zoomplus" xlink:href="#zoomPlus" x="17" y="9" onmousedown="handleZoom(evt,'in')"/>
                <use id="zoomminus" xlink:href="#zoomMin" x="42" y="9" onmousedown="handleZoom(evt,'out')"/>
                <use id="reset" xlink:href="#resetDef" x="30" y="36" onmousedown="handleReset()"/>
                <g id="arrowUp" xlink:href="#dirArrow" transform="translate(30 24)" onmousedown="handlePan(0,-1)">
                  <use xlink:href="#rim" fill="#404040">
                        <set attributeName="fill" to="#808080" begin="arrowUp.mouseover" end="arrowUp.mouseout"/>
                  </use>
                  <path fill="none" stroke="white" stroke-width="1.5" d="M0,-3.0v7 M-2.5,-0.5L0,-3.0L2.5,-0.5"/>
                </g>
                <g id="arrowRight" xlink:href="#dirArrow" transform="rotate(90) translate(36 -43)" onmousedown="handlePan(1,0)">
                  <use xlink:href="#rim" fill="#404040">
                        <set attributeName="fill" to="#808080" begin="arrowRight.mouseover" end="arrowRight.mouseout"/>
                  </use>
                  <path fill="none" stroke="white" stroke-width="1.5" d="M0,-3.0v7 M-2.5,-0.5L0,-3.0L2.5,-0.5"/>
                </g>
                <g id="arrowDown" xlink:href="#dirArrow" transform="rotate(180) translate(-30 -48)" onmousedown="handlePan(0,1)">
                  <use xlink:href="#rim" fill="#404040">
                        <set attributeName="fill" to="#808080" begin="arrowDown.mouseover" end="arrowDown.mouseout"/>
                  </use>
                  <path fill="none" stroke="white" stroke-width="1.5" d="M0,-3.0v7 M-2.5,-0.5L0,-3.0L2.5,-0.5"/>
                </g>
                <g id="arrowLeft" xlink:href="#dirArrow" transform="rotate(270) translate(-36 17)" onmousedown="handlePan(-1,0)">
                  <use xlink:href="#rim" fill="#404040">
                        <set attributeName="fill" to="#808080" begin="arrowLeft.mouseover" end="arrowLeft.mouseout"/>
                  </use>
                  <path fill="none" stroke="white" stroke-width="1.5" d="M0,-3.0v7 M-2.5,-0.5L0,-3.0L2.5,-0.5"/>
                </g>
        </g>
        <svg viewBox="0 0 15 15" width="100%" height="30px" preserveAspectRatio="xMaxYMin meet">
         <g id="arrow_out" transform="scale(0.3 0.3)">
          <a xlink:href="classmodel_1_1instructions_1_1_user_running_instruction__coll__graph_org.svg" target="_base">
           <rect id="button" ry="5" rx="5" y="6" x="6" height="38" width="38"
                fill="#f2f5e9" fill-opacity="0.5" stroke="#606060" stroke-width="1.0"/>
           <path id="arrow"
             d="M 11.500037,31.436501 C 11.940474,20.09759 22.043105,11.32322 32.158766,21.979434 L 37.068811,17.246167 C 37.068811,17.246167 37.088388,32 37.088388,32 L 22.160133,31.978069 C 22.160133,31.978069 26.997745,27.140456 26.997745,27.140456 C 18.528582,18.264221 13.291696,25.230495 11.500037,31.436501 z"
             style="fill:#404040;"/>
          </a>
         </g>
        </svg>
</svg>
