<?xml version="1.0" encoding="UTF-8" standalone="no"?>
<!DOCTYPE svg PUBLIC "-//W3C//DTD SVG 1.1//EN"
 "http://www.w3.org/Graphics/SVG/1.1/DTD/svg11.dtd">
<!-- Generated by graphviz version 2.36.0 (20140111.2315)
 -->
<!-- Title: model.instructions.MovementInstruction.execute Pages: 1 -->
<svg width="1174pt" height="661pt"
 viewBox="0.00 0.00 1174.00 660.50" xmlns="http://www.w3.org/2000/svg" xmlns:xlink="http://www.w3.org/1999/xlink">
<g id="graph0" class="graph" transform="scale(1 1) rotate(0) translate(4 656.502)">
<title>model.instructions.MovementInstruction.execute</title>
<polygon fill="white" stroke="none" points="-4,4 -4,-656.502 1170,-656.502 1170,4 -4,4"/>
<!-- Node1 -->
<g id="node1" class="node"><title>Node1</title>
<polygon fill="#bfbfbf" stroke="black" points="0.5,-532.502 0.5,-562.502 159.5,-562.502 159.5,-532.502 0.5,-532.502"/>
<text text-anchor="start" x="8.5" y="-550.502" font-family="Helvetica,sans-Serif" font-size="10.00">model.instructions.Movement</text>
<text text-anchor="middle" x="80" y="-539.502" font-family="Helvetica,sans-Serif" font-size="10.00">Instruction.execute</text>
</g>
<!-- Node2 -->
<g id="node2" class="node"><title>Node2</title>
<g id="a_node2"><a xlink:href="../../d6/de7/classview_1_1_s_logo_view.html#adc4b93dcbcbac6952cd976e41b68804c" target="_top" xlink:title="view.SLogoView.clearScreen">
<polygon fill="white" stroke="black" points="606,-633.002 606,-652.002 756,-652.002 756,-633.002 606,-633.002"/>
<text text-anchor="middle" x="681" y="-640.002" font-family="Helvetica,sans-Serif" font-size="10.00">view.SLogoView.clearScreen</text>
</a>
</g>
</g>
<!-- Node1&#45;&gt;Node2 -->
<g id="edge1" class="edge"><title>Node1&#45;&gt;Node2</title>
<path fill="none" stroke="midnightblue" d="M114.521,-562.587C137.098,-572.106 167.791,-583.824 196,-590.502 333.609,-623.074 498.106,-635.282 595.552,-639.831"/>
<polygon fill="midnightblue" stroke="midnightblue" points="595.494,-643.332 605.641,-640.286 595.809,-636.339 595.494,-643.332"/>
</g>
<!-- Node8 -->
<g id="node8" class="node"><title>Node8</title>
<g id="a_node8"><a xlink:href="../../d6/de7/classview_1_1_s_logo_view.html#a978a65a0b82bac25044f7e2816a680cc" target="_top" xlink:title="view.SLogoView.setPenUp">
<polygon fill="white" stroke="black" points="611,-595.002 611,-614.002 751,-614.002 751,-595.002 611,-595.002"/>
<text text-anchor="middle" x="681" y="-602.002" font-family="Helvetica,sans-Serif" font-size="10.00">view.SLogoView.setPenUp</text>
</a>
</g>
</g>
<!-- Node1&#45;&gt;Node8 -->
<g id="edge8" class="edge"><title>Node1&#45;&gt;Node8</title>
<path fill="none" stroke="midnightblue" d="M156.909,-562.541C169.913,-564.78 183.318,-566.877 196,-568.502 337.924,-586.686 504.526,-596.586 600.62,-601.191"/>
<polygon fill="midnightblue" stroke="midnightblue" points="600.684,-604.698 610.838,-601.673 601.015,-597.706 600.684,-604.698"/>
</g>
<!-- Node9 -->
<g id="node9" class="node"><title>Node9</title>
<g id="a_node9"><a xlink:href="../../d6/de7/classview_1_1_s_logo_view.html#a0948ea67bfc088f941e2af79727231ad" target="_top" xlink:title="view.SLogoView.setXY">
<polygon fill="white" stroke="black" points="621.5,-557.002 621.5,-576.002 740.5,-576.002 740.5,-557.002 621.5,-557.002"/>
<text text-anchor="middle" x="681" y="-564.002" font-family="Helvetica,sans-Serif" font-size="10.00">view.SLogoView.setXY</text>
</a>
</g>
</g>
<!-- Node1&#45;&gt;Node9 -->
<g id="edge11" class="edge"><title>Node1&#45;&gt;Node9</title>
<path fill="none" stroke="midnightblue" d="M159.617,-549.995C277.656,-553.739 498.764,-560.753 610.939,-564.311"/>
<polygon fill="midnightblue" stroke="midnightblue" points="611.014,-567.815 621.12,-564.634 611.236,-560.819 611.014,-567.815"/>
</g>
<!-- Node10 -->
<g id="node10" class="node"><title>Node10</title>
<g id="a_node10"><a xlink:href="../../d6/de7/classview_1_1_s_logo_view.html#a00710838e28dcb10fe6da3c0ec0c4e20" target="_top" xlink:title="view.SLogoView.showTurtle">
<polygon fill="white" stroke="black" points="609.5,-519.002 609.5,-538.002 752.5,-538.002 752.5,-519.002 609.5,-519.002"/>
<text text-anchor="middle" x="681" y="-526.002" font-family="Helvetica,sans-Serif" font-size="10.00">view.SLogoView.showTurtle</text>
</a>
</g>
</g>
<!-- Node1&#45;&gt;Node10 -->
<g id="edge14" class="edge"><title>Node1&#45;&gt;Node10</title>
<path fill="none" stroke="midnightblue" d="M159.617,-545.008C273.615,-541.392 483.748,-534.727 599.045,-531.069"/>
<polygon fill="midnightblue" stroke="midnightblue" points="599.336,-534.562 609.22,-530.747 599.114,-527.566 599.336,-534.562"/>
</g>
<!-- Node11 -->
<g id="node11" class="node"><title>Node11</title>
<g id="a_node11"><a xlink:href="../../d6/de7/classview_1_1_s_logo_view.html#afa2b659c4d080b5f927978b453633ab2" target="_top" xlink:title="view.SLogoView.towards">
<polygon fill="white" stroke="black" points="210.5,-481.002 210.5,-500.002 341.5,-500.002 341.5,-481.002 210.5,-481.002"/>
<text text-anchor="middle" x="276" y="-488.002" font-family="Helvetica,sans-Serif" font-size="10.00">view.SLogoView.towards</text>
</a>
</g>
</g>
<!-- Node1&#45;&gt;Node11 -->
<g id="edge17" class="edge"><title>Node1&#45;&gt;Node11</title>
<path fill="none" stroke="midnightblue" d="M132.225,-532.451C163.592,-523.235 203.244,-511.584 232.798,-502.901"/>
<polygon fill="midnightblue" stroke="midnightblue" points="233.798,-506.255 242.406,-500.078 231.825,-499.539 233.798,-506.255"/>
</g>
<!-- Node13 -->
<g id="node13" class="node"><title>Node13</title>
<g id="a_node13"><a xlink:href="../../d1/dd3/classmodel_1_1instructions_1_1_movement_instruction.html#a51c776093aeb820937b12e2b89eb2f89" target="_top" xlink:title="model.instructions.Movement\lInstruction.updateView">
<polygon fill="white" stroke="black" points="196.5,-431.502 196.5,-461.502 355.5,-461.502 355.5,-431.502 196.5,-431.502"/>
<text text-anchor="start" x="204.5" y="-449.502" font-family="Helvetica,sans-Serif" font-size="10.00">model.instructions.Movement</text>
<text text-anchor="middle" x="276" y="-438.502" font-family="Helvetica,sans-Serif" font-size="10.00">Instruction.updateView</text>
</a>
</g>
</g>
<!-- Node1&#45;&gt;Node13 -->
<g id="edge21" class="edge"><title>Node1&#45;&gt;Node13</title>
<path fill="none" stroke="midnightblue" d="M100.353,-532.27C122.437,-515.487 160.147,-488.61 196,-471.502 200.668,-469.274 205.583,-467.179 210.583,-465.224"/>
<polygon fill="midnightblue" stroke="midnightblue" points="212.102,-468.393 220.263,-461.636 209.67,-461.83 212.102,-468.393"/>
</g>
<!-- Node3 -->
<g id="node3" class="node"><title>Node3</title>
<g id="a_node3"><a xlink:href="../../da/d64/classview_1_1_workspace.html#ad460da1164f039e5ea9a265d446d13fe" target="_top" xlink:title="view.Workspace.getTurtleMap">
<polygon fill="white" stroke="black" points="1008.5,-563.002 1008.5,-582.002 1163.5,-582.002 1163.5,-563.002 1008.5,-563.002"/>
<text text-anchor="middle" x="1086" y="-570.002" font-family="Helvetica,sans-Serif" font-size="10.00">view.Workspace.getTurtleMap</text>
</a>
</g>
</g>
<!-- Node2&#45;&gt;Node3 -->
<g id="edge2" class="edge"><title>Node2&#45;&gt;Node3</title>
<path fill="none" stroke="midnightblue" d="M756.123,-643.755C814.909,-643.164 898.744,-638.772 970,-621.502 1001.74,-613.808 1035.91,-598.225 1058.68,-586.688"/>
<polygon fill="midnightblue" stroke="midnightblue" points="1060.42,-589.727 1067.7,-582.026 1057.21,-583.508 1060.42,-589.727"/>
</g>
<!-- Node4 -->
<g id="node4" class="node"><title>Node4</title>
<g id="a_node4"><a xlink:href="../../d1/dc7/classview_1_1_side_bar.html#a7d73038dbba05f96990b60664afa2670" target="_top" xlink:title="view.SideBar.updateTurtle\lProperties">
<polygon fill="white" stroke="black" points="812,-475.502 812,-505.502 950,-505.502 950,-475.502 812,-475.502"/>
<text text-anchor="start" x="820" y="-493.502" font-family="Helvetica,sans-Serif" font-size="10.00">view.SideBar.updateTurtle</text>
<text text-anchor="middle" x="881" y="-482.502" font-family="Helvetica,sans-Serif" font-size="10.00">Properties</text>
</a>
</g>
</g>
<!-- Node2&#45;&gt;Node4 -->
<g id="edge3" class="edge"><title>Node2&#45;&gt;Node4</title>
<path fill="none" stroke="midnightblue" d="M734.843,-632.906C742.225,-630.445 749.499,-627.362 756,-623.502 802.984,-595.601 843.122,-544.626 864.191,-514.535"/>
<polygon fill="midnightblue" stroke="midnightblue" points="867.333,-516.142 870.104,-505.916 861.561,-512.182 867.333,-516.142"/>
</g>
<!-- Node4&#45;&gt;Node3 -->
<g id="edge4" class="edge"><title>Node4&#45;&gt;Node3</title>
<path fill="none" stroke="midnightblue" d="M935.25,-505.64C946.991,-509.799 959.153,-514.771 970,-520.502 987.684,-529.844 988.214,-538.355 1006,-547.502 1015.4,-552.338 1025.92,-556.458 1036.14,-559.874"/>
<polygon fill="midnightblue" stroke="midnightblue" points="1035.2,-563.25 1045.79,-562.935 1037.32,-556.577 1035.2,-563.25"/>
</g>
<!-- Node5 -->
<g id="node5" class="node"><title>Node5</title>
<g id="a_node5"><a xlink:href="../../d8/df7/classview_1_1_turtle_view.html#ab5fdc3775e06339f4a68d1b795a81643" target="_top" xlink:title="view.TurtleView.getID">
<polygon fill="white" stroke="black" points="1029,-519.002 1029,-538.002 1143,-538.002 1143,-519.002 1029,-519.002"/>
<text text-anchor="middle" x="1086" y="-526.002" font-family="Helvetica,sans-Serif" font-size="10.00">view.TurtleView.getID</text>
</a>
</g>
</g>
<!-- Node4&#45;&gt;Node5 -->
<g id="edge5" class="edge"><title>Node4&#45;&gt;Node5</title>
<path fill="none" stroke="midnightblue" d="M950.161,-503.261C974.041,-507.731 1000.69,-512.719 1023.95,-517.074"/>
<polygon fill="midnightblue" stroke="midnightblue" points="1023.56,-520.561 1034.03,-518.961 1024.85,-513.681 1023.56,-520.561"/>
</g>
<!-- Node6 -->
<g id="node6" class="node"><title>Node6</title>
<g id="a_node6"><a xlink:href="../../d8/df7/classview_1_1_turtle_view.html#a85b9acc922cc69f27c79bf13e3356e09" target="_top" xlink:title="view.TurtleView.getPenPosition">
<polygon fill="white" stroke="black" points="1006,-481.002 1006,-500.002 1166,-500.002 1166,-481.002 1006,-481.002"/>
<text text-anchor="middle" x="1086" y="-488.002" font-family="Helvetica,sans-Serif" font-size="10.00">view.TurtleView.getPenPosition</text>
</a>
</g>
</g>
<!-- Node4&#45;&gt;Node6 -->
<g id="edge6" class="edge"><title>Node4&#45;&gt;Node6</title>
<path fill="none" stroke="midnightblue" d="M950.161,-490.502C964.667,-490.502 980.194,-490.502 995.364,-490.502"/>
<polygon fill="midnightblue" stroke="midnightblue" points="995.792,-494.002 1005.79,-490.502 995.792,-487.002 995.792,-494.002"/>
</g>
<!-- Node7 -->
<g id="node7" class="node"><title>Node7</title>
<g id="a_node7"><a xlink:href="../../d8/df7/classview_1_1_turtle_view.html#a5f7b22cd8ab69258535b18920a488b63" target="_top" xlink:title="view.TurtleView.isShowing">
<polygon fill="white" stroke="black" points="1018,-443.002 1018,-462.002 1154,-462.002 1154,-443.002 1018,-443.002"/>
<text text-anchor="middle" x="1086" y="-450.002" font-family="Helvetica,sans-Serif" font-size="10.00">view.TurtleView.isShowing</text>
</a>
</g>
</g>
<!-- Node4&#45;&gt;Node7 -->
<g id="edge7" class="edge"><title>Node4&#45;&gt;Node7</title>
<path fill="none" stroke="midnightblue" d="M950.161,-477.742C974.041,-473.272 1000.69,-468.284 1023.95,-463.93"/>
<polygon fill="midnightblue" stroke="midnightblue" points="1024.85,-467.322 1034.03,-462.042 1023.56,-460.442 1024.85,-467.322"/>
</g>
<!-- Node8&#45;&gt;Node3 -->
<g id="edge9" class="edge"><title>Node8&#45;&gt;Node3</title>
<path fill="none" stroke="midnightblue" d="M751.007,-609.26C809.565,-612.105 895.666,-613.476 970,-603.502 996.481,-599.948 1025.53,-592.084 1047.8,-585.167"/>
<polygon fill="midnightblue" stroke="midnightblue" points="1049.06,-588.44 1057.53,-582.074 1046.94,-581.769 1049.06,-588.44"/>
</g>
<!-- Node8&#45;&gt;Node4 -->
<g id="edge10" class="edge"><title>Node8&#45;&gt;Node4</title>
<path fill="none" stroke="midnightblue" d="M730.77,-594.964C739.395,-592.446 748.127,-589.329 756,-585.502 795.004,-566.538 833.667,-534.194 857.194,-512.588"/>
<polygon fill="midnightblue" stroke="midnightblue" points="859.646,-515.087 864.571,-505.707 854.871,-509.968 859.646,-515.087"/>
</g>
<!-- Node9&#45;&gt;Node3 -->
<g id="edge12" class="edge"><title>Node9&#45;&gt;Node3</title>
<path fill="none" stroke="midnightblue" d="M724.329,-576.037C744.674,-580.146 769.478,-584.471 792,-586.502 870.791,-593.606 891.034,-591.291 970,-586.502 982.356,-585.752 995.418,-584.554 1008.13,-583.166"/>
<polygon fill="midnightblue" stroke="midnightblue" points="1008.69,-586.625 1018.23,-582.017 1007.9,-579.67 1008.69,-586.625"/>
</g>
<!-- Node9&#45;&gt;Node4 -->
<g id="edge13" class="edge"><title>Node9&#45;&gt;Node4</title>
<path fill="none" stroke="midnightblue" d="M724.657,-556.942C735.024,-554.238 746,-551.051 756,-547.502 785.568,-537.006 817.725,-522.117 841.881,-510.188"/>
<polygon fill="midnightblue" stroke="midnightblue" points="843.668,-513.208 851.054,-505.611 840.543,-506.944 843.668,-513.208"/>
</g>
<!-- Node10&#45;&gt;Node3 -->
<g id="edge15" class="edge"><title>Node10&#45;&gt;Node3</title>
<path fill="none" stroke="midnightblue" d="M728.676,-538.034C748.179,-541.744 771.12,-545.755 792,-548.502 860.979,-557.575 939.574,-563.791 997.987,-567.619"/>
<polygon fill="midnightblue" stroke="midnightblue" points="998.079,-571.132 1008.28,-568.283 998.529,-564.147 998.079,-571.132"/>
</g>
<!-- Node10&#45;&gt;Node4 -->
<g id="edge16" class="edge"><title>Node10&#45;&gt;Node4</title>
<path fill="none" stroke="midnightblue" d="M731.708,-518.962C752.958,-514.883 778.275,-510.024 801.924,-505.486"/>
<polygon fill="midnightblue" stroke="midnightblue" points="802.779,-508.886 811.94,-503.564 801.459,-502.011 802.779,-508.886"/>
</g>
<!-- Node12 -->
<g id="node12" class="node"><title>Node12</title>
<g id="a_node12"><a xlink:href="../../d6/de7/classview_1_1_s_logo_view.html#ae7ad67f4b629b134cb805842a20f4050" target="_top" xlink:title="view.SLogoView.setHeading">
<polygon fill="white" stroke="black" points="607,-481.002 607,-500.002 755,-500.002 755,-481.002 607,-481.002"/>
<text text-anchor="middle" x="681" y="-488.002" font-family="Helvetica,sans-Serif" font-size="10.00">view.SLogoView.setHeading</text>
</a>
</g>
</g>
<!-- Node11&#45;&gt;Node12 -->
<g id="edge18" class="edge"><title>Node11&#45;&gt;Node12</title>
<path fill="none" stroke="midnightblue" d="M341.749,-490.502C410.919,-490.502 520.794,-490.502 596.443,-490.502"/>
<polygon fill="midnightblue" stroke="midnightblue" points="596.883,-494.002 606.883,-490.502 596.883,-487.002 596.883,-494.002"/>
</g>
<!-- Node12&#45;&gt;Node3 -->
<g id="edge19" class="edge"><title>Node12&#45;&gt;Node3</title>
<path fill="none" stroke="midnightblue" d="M724.518,-500.049C744.905,-504.558 769.69,-509.938 792,-514.502 870.907,-530.643 891.02,-532.718 970,-548.502 989.666,-552.432 1011.19,-556.883 1030.24,-560.876"/>
<polygon fill="midnightblue" stroke="midnightblue" points="1029.75,-564.348 1040.25,-562.979 1031.19,-557.497 1029.75,-564.348"/>
</g>
<!-- Node12&#45;&gt;Node4 -->
<g id="edge20" class="edge"><title>Node12&#45;&gt;Node4</title>
<path fill="none" stroke="midnightblue" d="M755.165,-490.502C770.202,-490.502 786.094,-490.502 801.317,-490.502"/>
<polygon fill="midnightblue" stroke="midnightblue" points="801.73,-494.002 811.73,-490.502 801.73,-487.002 801.73,-494.002"/>
</g>
<!-- Node14 -->
<g id="node14" class="node"><title>Node14</title>
<g id="a_node14"><a xlink:href="../../d6/de7/classview_1_1_s_logo_view.html#a513d723c883c5b96c9fdf1f16f829bc8" target="_top" xlink:title="view.SLogoView.updateWorkspace">
<polygon fill="white" stroke="black" points="392,-437.002 392,-456.002 570,-456.002 570,-437.002 392,-437.002"/>
<text text-anchor="middle" x="481" y="-444.002" font-family="Helvetica,sans-Serif" font-size="10.00">view.SLogoView.updateWorkspace</text>
</a>
</g>
</g>
<!-- Node13&#45;&gt;Node14 -->
<g id="edge22" class="edge"><title>Node13&#45;&gt;Node14</title>
<path fill="none" stroke="midnightblue" d="M355.776,-446.502C364.267,-446.502 372.981,-446.502 381.665,-446.502"/>
<polygon fill="midnightblue" stroke="midnightblue" points="381.83,-450.002 391.83,-446.502 381.83,-443.002 381.83,-450.002"/>
</g>
<!-- Node14&#45;&gt;Node3 -->
<g id="edge44" class="edge"><title>Node14&#45;&gt;Node3</title>
<path fill="none" stroke="midnightblue" d="M570.097,-439.083C692.791,-430.545 907.154,-422.689 970,-465.502 1002.89,-487.91 976.388,-520.906 1006,-547.502 1011.11,-552.087 1017.05,-555.832 1023.35,-558.89"/>
<polygon fill="midnightblue" stroke="midnightblue" points="1022.19,-562.202 1032.76,-562.896 1024.93,-555.761 1022.19,-562.202"/>
</g>
<!-- Node15 -->
<g id="node15" class="node"><title>Node15</title>
<g id="a_node15"><a xlink:href="../../de/d0a/classview_1_1_drawer.html#a6b9f362b8bc763689630b1fe7b5c1887" target="_top" xlink:title="view.Drawer.draw">
<polygon fill="white" stroke="black" points="632,-235.002 632,-254.002 730,-254.002 730,-235.002 632,-235.002"/>
<text text-anchor="middle" x="681" y="-242.002" font-family="Helvetica,sans-Serif" font-size="10.00">view.Drawer.draw</text>
</a>
</g>
</g>
<!-- Node14&#45;&gt;Node15 -->
<g id="edge23" class="edge"><title>Node14&#45;&gt;Node15</title>
<path fill="none" stroke="midnightblue" d="M491.55,-436.759C522.98,-404.693 623.465,-302.178 663.404,-261.433"/>
<polygon fill="midnightblue" stroke="midnightblue" points="666.045,-263.738 670.546,-254.147 661.046,-258.838 666.045,-263.738"/>
</g>
<!-- Node15&#45;&gt;Node4 -->
<g id="edge43" class="edge"><title>Node15&#45;&gt;Node4</title>
<path fill="none" stroke="midnightblue" d="M686.118,-254.077C698.749,-282.69 739.31,-369.122 792,-426.502 807.45,-443.327 827.939,-458.537 845.259,-469.903"/>
<polygon fill="midnightblue" stroke="midnightblue" points="843.674,-473.044 853.984,-475.485 847.446,-467.148 843.674,-473.044"/>
</g>
<!-- Node16 -->
<g id="node16" class="node"><title>Node16</title>
<g id="a_node16"><a xlink:href="../../d6/d06/classmodel_1_1_turtle_command.html#ab30f5c95162492cb8fd19f1fd7350f9f" target="_top" xlink:title="model.TurtleCommand.getTurtleId">
<polygon fill="white" stroke="black" points="792,-349.002 792,-368.002 970,-368.002 970,-349.002 792,-349.002"/>
<text text-anchor="middle" x="881" y="-356.002" font-family="Helvetica,sans-Serif" font-size="10.00">model.TurtleCommand.getTurtleId</text>
</a>
</g>
</g>
<!-- Node15&#45;&gt;Node16 -->
<g id="edge24" class="edge"><title>Node15&#45;&gt;Node16</title>
<path fill="none" stroke="midnightblue" d="M690.001,-254.074C706.772,-273.47 747.739,-317.434 792,-339.502 796.896,-341.942 802.098,-344.071 807.431,-345.927"/>
<polygon fill="midnightblue" stroke="midnightblue" points="806.544,-349.317 817.133,-348.982 808.646,-342.64 806.544,-349.317"/>
</g>
<!-- Node17 -->
<g id="node17" class="node"><title>Node17</title>
<g id="a_node17"><a xlink:href="../../d6/d06/classmodel_1_1_turtle_command.html#ab94da8b47588273eb8db943096f12422" target="_top" xlink:title="model.TurtleCommand.getPolar">
<polygon fill="white" stroke="black" points="797,-311.002 797,-330.002 965,-330.002 965,-311.002 797,-311.002"/>
<text text-anchor="middle" x="881" y="-318.002" font-family="Helvetica,sans-Serif" font-size="10.00">model.TurtleCommand.getPolar</text>
</a>
</g>
</g>
<!-- Node15&#45;&gt;Node17 -->
<g id="edge25" class="edge"><title>Node15&#45;&gt;Node17</title>
<path fill="none" stroke="midnightblue" d="M697.431,-254.183C718.184,-266.802 756.582,-288.759 792,-301.502 799.342,-304.143 807.167,-306.477 815.007,-308.523"/>
<polygon fill="midnightblue" stroke="midnightblue" points="814.365,-311.969 824.911,-310.961 816.038,-305.172 814.365,-311.969"/>
</g>
<!-- Node18 -->
<g id="node18" class="node"><title>Node18</title>
<g id="a_node18"><a xlink:href="../../d1/d0b/classmodel_1_1_polar.html#a8abcb5640caf12d2941533a6e1c04faa" target="_top" xlink:title="model.Polar.getDistance">
<polygon fill="white" stroke="black" points="814,-273.002 814,-292.002 948,-292.002 948,-273.002 814,-273.002"/>
<text text-anchor="middle" x="881" y="-280.002" font-family="Helvetica,sans-Serif" font-size="10.00">model.Polar.getDistance</text>
</a>
</g>
</g>
<!-- Node15&#45;&gt;Node18 -->
<g id="edge26" class="edge"><title>Node15&#45;&gt;Node18</title>
<path fill="none" stroke="midnightblue" d="M730.183,-253.749C757.318,-258.957 791.441,-265.505 820.265,-271.037"/>
<polygon fill="midnightblue" stroke="midnightblue" points="819.739,-274.5 830.219,-272.948 821.058,-267.626 819.739,-274.5"/>
</g>
<!-- Node19 -->
<g id="node19" class="node"><title>Node19</title>
<g id="a_node19"><a xlink:href="../../d1/d0b/classmodel_1_1_polar.html#adbd9afb75cf519b2dd9f1331e406b8c2" target="_top" xlink:title="model.Polar.getAngle">
<polygon fill="white" stroke="black" points="821.5,-235.002 821.5,-254.002 940.5,-254.002 940.5,-235.002 821.5,-235.002"/>
<text text-anchor="middle" x="881" y="-242.002" font-family="Helvetica,sans-Serif" font-size="10.00">model.Polar.getAngle</text>
</a>
</g>
</g>
<!-- Node15&#45;&gt;Node19 -->
<g id="edge27" class="edge"><title>Node15&#45;&gt;Node19</title>
<path fill="none" stroke="midnightblue" d="M730.183,-244.502C754.544,-244.502 784.536,-244.502 811.271,-244.502"/>
<polygon fill="midnightblue" stroke="midnightblue" points="811.339,-248.002 821.339,-244.502 811.339,-241.002 811.339,-248.002"/>
</g>
<!-- Node20 -->
<g id="node20" class="node"><title>Node20</title>
<g id="a_node20"><a xlink:href="../../de/d0a/classview_1_1_drawer.html#ad1636376006d26ed1ca9784e13f96a2a" target="_top" xlink:title="view.Drawer.wrapY">
<polygon fill="white" stroke="black" points="829.5,-71.0016 829.5,-90.0016 932.5,-90.0016 932.5,-71.0016 829.5,-71.0016"/>
<text text-anchor="middle" x="881" y="-78.0016" font-family="Helvetica,sans-Serif" font-size="10.00">view.Drawer.wrapY</text>
</a>
</g>
</g>
<!-- Node15&#45;&gt;Node20 -->
<g id="edge28" class="edge"><title>Node15&#45;&gt;Node20</title>
<path fill="none" stroke="midnightblue" d="M686.305,-234.845C698.596,-208.466 736.569,-134.814 792,-99.5016 800.218,-94.2661 809.653,-90.4538 819.224,-87.6819"/>
<polygon fill="midnightblue" stroke="midnightblue" points="820.368,-91.0028 829.202,-85.154 818.648,-84.2172 820.368,-91.0028"/>
</g>
<!-- Node21 -->
<g id="node21" class="node"><title>Node21</title>
<g id="a_node21"><a xlink:href="../../d8/df7/classview_1_1_turtle_view.html#a5e7cf3c4f078acae07bcbeee264a5581" target="_top" xlink:title="view.TurtleView.move">
<polygon fill="white" stroke="black" points="1028,-52.0016 1028,-71.0016 1144,-71.0016 1144,-52.0016 1028,-52.0016"/>
<text text-anchor="middle" x="1086" y="-59.0016" font-family="Helvetica,sans-Serif" font-size="10.00">view.TurtleView.move</text>
</a>
</g>
</g>
<!-- Node15&#45;&gt;Node21 -->
<g id="edge36" class="edge"><title>Node15&#45;&gt;Node21</title>
<path fill="none" stroke="midnightblue" d="M683.301,-234.59C688.651,-198.365 712.568,-72.6929 792,-23.5016 877.363,29.3627 1003.49,-20.8344 1058.13,-47.392"/>
<polygon fill="midnightblue" stroke="midnightblue" points="1056.67,-50.5713 1067.18,-51.8926 1059.79,-44.3042 1056.67,-50.5713"/>
</g>
<!-- Node22 -->
<g id="node22" class="node"><title>Node22</title>
<g id="a_node22"><a xlink:href="../../d8/df7/classview_1_1_turtle_view.html#a68c8a2962e23e5794fcfbe7ef1968fad" target="_top" xlink:title="view.TurtleView.getPenUp">
<polygon fill="white" stroke="black" points="1018,-128.002 1018,-147.002 1154,-147.002 1154,-128.002 1018,-128.002"/>
<text text-anchor="middle" x="1086" y="-135.002" font-family="Helvetica,sans-Serif" font-size="10.00">view.TurtleView.getPenUp</text>
</a>
</g>
</g>
<!-- Node15&#45;&gt;Node22 -->
<g id="edge37" class="edge"><title>Node15&#45;&gt;Node22</title>
<path fill="none" stroke="midnightblue" d="M693.632,-234.774C712.781,-219.351 752.747,-189.591 792,-175.502 862.283,-150.275 947.381,-141.451 1007.72,-138.532"/>
<polygon fill="midnightblue" stroke="midnightblue" points="1008.1,-142.019 1017.93,-138.083 1007.79,-135.026 1008.1,-142.019"/>
</g>
<!-- Node24 -->
<g id="node24" class="node"><title>Node24</title>
<g id="a_node24"><a xlink:href="../../de/d0a/classview_1_1_drawer.html#a24eafc164d9d0ab08036dc5cf7d72dd4" target="_top" xlink:title="view.Drawer.wrapX">
<polygon fill="white" stroke="black" points="829,-109.002 829,-128.002 933,-128.002 933,-109.002 829,-109.002"/>
<text text-anchor="middle" x="881" y="-116.002" font-family="Helvetica,sans-Serif" font-size="10.00">view.Drawer.wrapX</text>
</a>
</g>
</g>
<!-- Node15&#45;&gt;Node24 -->
<g id="edge32" class="edge"><title>Node15&#45;&gt;Node24</title>
<path fill="none" stroke="midnightblue" d="M689.688,-234.715C706.186,-214.386 747.147,-167.412 792,-142.502 800.323,-137.879 809.589,-134.104 818.898,-131.034"/>
<polygon fill="midnightblue" stroke="midnightblue" points="820.031,-134.348 828.575,-128.083 817.989,-127.652 820.031,-134.348"/>
</g>
<!-- Node25 -->
<g id="node25" class="node"><title>Node25</title>
<g id="a_node25"><a xlink:href="../../d6/d06/classmodel_1_1_turtle_command.html#abb952ce819f91c0f5970c2f2b1c43d73" target="_top" xlink:title="model.TurtleCommand.isRelative">
<polygon fill="white" stroke="black" points="794.5,-33.0016 794.5,-52.0016 967.5,-52.0016 967.5,-33.0016 794.5,-33.0016"/>
<text text-anchor="middle" x="881" y="-40.0016" font-family="Helvetica,sans-Serif" font-size="10.00">model.TurtleCommand.isRelative</text>
</a>
</g>
</g>
<!-- Node15&#45;&gt;Node25 -->
<g id="edge38" class="edge"><title>Node15&#45;&gt;Node25</title>
<path fill="none" stroke="midnightblue" d="M684.833,-234.636C694.279,-203.624 727.79,-107.449 792,-61.5016 794.669,-59.5915 797.493,-57.8669 800.427,-56.3103"/>
<polygon fill="midnightblue" stroke="midnightblue" points="801.899,-59.4861 809.52,-52.1267 798.973,-53.1269 801.899,-59.4861"/>
</g>
<!-- Node26 -->
<g id="node26" class="node"><title>Node26</title>
<g id="a_node26"><a xlink:href="../../d8/df7/classview_1_1_turtle_view.html#a199407b3121d1bc310d7f75cdab2da94" target="_top" xlink:title="view.TurtleView.setRelative\lHeading">
<polygon fill="white" stroke="black" points="811,-387.502 811,-417.502 951,-417.502 951,-387.502 811,-387.502"/>
<text text-anchor="start" x="819" y="-405.502" font-family="Helvetica,sans-Serif" font-size="10.00">view.TurtleView.setRelative</text>
<text text-anchor="middle" x="881" y="-394.502" font-family="Helvetica,sans-Serif" font-size="10.00">Heading</text>
</a>
</g>
</g>
<!-- Node15&#45;&gt;Node26 -->
<g id="edge39" class="edge"><title>Node15&#45;&gt;Node26</title>
<path fill="none" stroke="midnightblue" d="M687.233,-254.236C700.967,-278.838 740.561,-343.926 792,-377.502 795.109,-379.531 798.384,-381.398 801.768,-383.115"/>
<polygon fill="midnightblue" stroke="midnightblue" points="800.396,-386.337 810.945,-387.322 803.313,-379.973 800.396,-386.337"/>
</g>
<!-- Node28 -->
<g id="node28" class="node"><title>Node28</title>
<g id="a_node28"><a xlink:href="../../d8/df7/classview_1_1_turtle_view.html#a166c0ff50e234c0a2725aa1cbc38c933" target="_top" xlink:title="view.TurtleView.setAbsolute\lHeading">
<polygon fill="white" stroke="black" points="808,-185.502 808,-215.502 954,-215.502 954,-185.502 808,-185.502"/>
<text text-anchor="start" x="816" y="-203.502" font-family="Helvetica,sans-Serif" font-size="10.00">view.TurtleView.setAbsolute</text>
<text text-anchor="middle" x="881" y="-192.502" font-family="Helvetica,sans-Serif" font-size="10.00">Heading</text>
</a>
</g>
</g>
<!-- Node15&#45;&gt;Node28 -->
<g id="edge41" class="edge"><title>Node15&#45;&gt;Node28</title>
<path fill="none" stroke="midnightblue" d="M724.963,-234.954C747.554,-229.934 775.95,-223.624 802.247,-217.78"/>
<polygon fill="midnightblue" stroke="midnightblue" points="803.203,-221.153 812.206,-215.567 801.685,-214.32 803.203,-221.153"/>
</g>
<!-- Node20&#45;&gt;Node21 -->
<g id="edge29" class="edge"><title>Node20&#45;&gt;Node21</title>
<path fill="none" stroke="midnightblue" d="M932.702,-75.7561C958.431,-73.3479 990.028,-70.3905 1017.76,-67.795"/>
<polygon fill="midnightblue" stroke="midnightblue" points="1018.15,-71.2735 1027.78,-66.8568 1017.5,-64.304 1018.15,-71.2735"/>
</g>
<!-- Node20&#45;&gt;Node22 -->
<g id="edge30" class="edge"><title>Node20&#45;&gt;Node22</title>
<path fill="none" stroke="midnightblue" d="M932.929,-89.0297C945.251,-91.7647 958.251,-95.2242 970,-99.5016 987,-105.69 989.073,-112.114 1006,-118.502 1012.71,-121.035 1019.88,-123.312 1027.05,-125.335"/>
<polygon fill="midnightblue" stroke="midnightblue" points="1026.23,-128.738 1036.8,-127.935 1028.04,-121.974 1026.23,-128.738"/>
</g>
<!-- Node23 -->
<g id="node23" class="node"><title>Node23</title>
<g id="a_node23"><a xlink:href="../../de/d0a/classview_1_1_drawer.html#a1489f58b0b2c2012d23d546013a47972" target="_top" xlink:title="view.Drawer.drawLine">
<polygon fill="white" stroke="black" points="1027.5,-90.0016 1027.5,-109.002 1144.5,-109.002 1144.5,-90.0016 1027.5,-90.0016"/>
<text text-anchor="middle" x="1086" y="-97.0016" font-family="Helvetica,sans-Serif" font-size="10.00">view.Drawer.drawLine</text>
</a>
</g>
</g>
<!-- Node20&#45;&gt;Node23 -->
<g id="edge31" class="edge"><title>Node20&#45;&gt;Node23</title>
<path fill="none" stroke="midnightblue" d="M932.702,-85.2471C958.327,-87.6454 989.772,-90.5886 1017.42,-93.1765"/>
<polygon fill="midnightblue" stroke="midnightblue" points="1017.14,-96.665 1027.42,-94.1122 1017.79,-89.6955 1017.14,-96.665"/>
</g>
<!-- Node24&#45;&gt;Node21 -->
<g id="edge33" class="edge"><title>Node24&#45;&gt;Node21</title>
<path fill="none" stroke="midnightblue" d="M933.392,-109.871C945.575,-107.152 958.397,-103.725 970,-99.5016 987,-93.3127 989.073,-86.8887 1006,-80.5016 1012.71,-77.9679 1019.88,-75.6909 1027.05,-73.6686"/>
<polygon fill="midnightblue" stroke="midnightblue" points="1028.04,-77.0287 1036.8,-71.0686 1026.23,-70.2653 1028.04,-77.0287"/>
</g>
<!-- Node24&#45;&gt;Node22 -->
<g id="edge34" class="edge"><title>Node24&#45;&gt;Node22</title>
<path fill="none" stroke="midnightblue" d="M933.225,-123.296C955.73,-125.402 982.646,-127.922 1007.52,-130.25"/>
<polygon fill="midnightblue" stroke="midnightblue" points="1007.39,-133.752 1017.67,-131.2 1008.04,-126.783 1007.39,-133.752"/>
</g>
<!-- Node24&#45;&gt;Node23 -->
<g id="edge35" class="edge"><title>Node24&#45;&gt;Node23</title>
<path fill="none" stroke="midnightblue" d="M933.225,-113.707C958.638,-111.329 989.676,-108.424 1017.05,-105.862"/>
<polygon fill="midnightblue" stroke="midnightblue" points="1017.71,-109.315 1027.34,-104.899 1017.05,-102.346 1017.71,-109.315"/>
</g>
<!-- Node27 -->
<g id="node27" class="node"><title>Node27</title>
<g id="a_node27"><a xlink:href="../../d8/df7/classview_1_1_turtle_view.html#aea0727a510b53db67aa4100a6106eb5b" target="_top" xlink:title="view.TurtleView.adjustAngle">
<polygon fill="white" stroke="black" points="1013.5,-292.002 1013.5,-311.002 1158.5,-311.002 1158.5,-292.002 1013.5,-292.002"/>
<text text-anchor="middle" x="1086" y="-299.002" font-family="Helvetica,sans-Serif" font-size="10.00">view.TurtleView.adjustAngle</text>
</a>
</g>
</g>
<!-- Node26&#45;&gt;Node27 -->
<g id="edge40" class="edge"><title>Node26&#45;&gt;Node27</title>
<path fill="none" stroke="midnightblue" d="M944.409,-387.362C953.159,-384.496 961.917,-381.212 970,-377.502 1005.9,-361.018 1043.32,-334.189 1065.37,-317.212"/>
<polygon fill="midnightblue" stroke="midnightblue" points="1067.58,-319.933 1073.3,-311.02 1063.27,-314.416 1067.58,-319.933"/>
</g>
<!-- Node28&#45;&gt;Node27 -->
<g id="edge42" class="edge"><title>Node28&#45;&gt;Node27</title>
<path fill="none" stroke="midnightblue" d="M944.409,-215.641C953.159,-218.507 961.917,-221.791 970,-225.502 1005.9,-241.985 1043.32,-268.814 1065.37,-285.791"/>
<polygon fill="midnightblue" stroke="midnightblue" points="1063.27,-288.587 1073.3,-291.984 1067.58,-283.07 1063.27,-288.587"/>
</g>
</g>
</svg>
