<?xml version="1.0" encoding="UTF-8" standalone="no"?>
<!DOCTYPE svg PUBLIC "-//W3C//DTD SVG 1.1//EN"
 "http://www.w3.org/Graphics/SVG/1.1/DTD/svg11.dtd">
<!-- Generated by graphviz version 2.36.0 (20140111.2315)
 -->
<!-- Title: model.instructions.MovementInstruction.execute Pages: 1 -->
<!--zoomable 746 -->
<svg id="main" version="1.1" xmlns="http://www.w3.org/2000/svg" xmlns:xlink="http://www.w3.org/1999/xlink" xml:space="preserve" onload="init(evt)">
<style type="text/css"><![CDATA[
.edge:hover path { stroke: red; }
.edge:hover polygon { stroke: red; fill: red; }
]]></style>
<script type="text/javascript"><![CDATA[
var edges = document.getElementsByTagName('g');
if (edges && edges.length) {
  for (var i=0;i<edges.length;i++) {
    if (edges[i].id.substr(0,4)=='edge') {
      edges[i].setAttribute('class','edge');
    }
  }
}
]]></script>
        <defs>
                <circle id="rim" cx="0" cy="0" r="7"/>
                <circle id="rim2" cx="0" cy="0" r="3.5"/>
                <g id="zoomPlus">
                        <use xlink:href="#rim" fill="#404040">
                                <set attributeName="fill" to="#808080" begin="zoomplus.mouseover" end="zoomplus.mouseout"/>
                        </use>
                        <path d="M-4,0h8M0,-4v8" fill="none" stroke="white" stroke-width="1.5" pointer-events="none"/>
                </g>
                <g id="zoomMin">
                        <use xlink:href="#rim" fill="#404040">
                                <set attributeName="fill" to="#808080" begin="zoomminus.mouseover" end="zoomminus.mouseout"/>
                        </use>
                        <path d="M-4,0h8" fill="none" stroke="white" stroke-width="1.5" pointer-events="none"/>
                </g>
                <g id="dirArrow">
                        <path fill="none" stroke="white" stroke-width="1.5" d="M0,-3.0v7 M-2.5,-0.5L0,-3.0L2.5,-0.5"/>
                </g>
               <g id="resetDef">
                       <use xlink:href="#rim2" fill="#404040">
                               <set attributeName="fill" to="#808080" begin="reset.mouseover" end="reset.mouseout"/>
                       </use>
               </g>
        </defs>

<script type="text/javascript">
var viewWidth = 1194;
var viewHeight = 746;
var sectionId = 'dynsection-2';
</script>
<script xlink:href="../../svgpan.js"/>
<svg id="graph" class="graph">
<g id="viewport">
<title>model.instructions.MovementInstruction.execute</title>
<polygon fill="white" stroke="none" points="-4,4 -4,-742 1190,-742 1190,4 -4,4"/>
<!-- Node1 -->
<g id="node1" class="node"><title>Node1</title>
<polygon fill="#bfbfbf" stroke="black" points="0.5,-517 0.5,-547 159.5,-547 159.5,-517 0.5,-517"/>
<text text-anchor="start" x="8.5" y="-535" font-family="Helvetica,sans-Serif" font-size="10.00">model.instructions.Movement</text>
<text text-anchor="middle" x="80" y="-524" font-family="Helvetica,sans-Serif" font-size="10.00">Instruction.execute</text>
</g>
<!-- Node2 -->
<g id="node2" class="node"><title>Node2</title>
<g id="a_node2"><a xlink:href="../../d4/d64/classview_1_1_view_updater.html#ace7ce28317856b4b454a798d1af23b38" target="_top" xlink:title="view.ViewUpdater.clearScreen">
<polygon fill="white" stroke="black" points="616.5,-658.5 616.5,-677.5 775.5,-677.5 775.5,-658.5 616.5,-658.5"/>
<text text-anchor="middle" x="696" y="-665.5" font-family="Helvetica,sans-Serif" font-size="10.00">view.ViewUpdater.clearScreen</text>
</a>
</g>
</g>
<!-- Node1&#45;&gt;Node2 -->
<g id="edge1" class="edge"><title>Node1&#45;&gt;Node2</title>
<path fill="none" stroke="midnightblue" d="M104.217,-547.049C126.756,-560.935 162.395,-581.012 196,-592 334.907,-637.419 504.603,-655.915 606.022,-663.291"/>
<polygon fill="midnightblue" stroke="midnightblue" points="606.003,-666.798 616.225,-664.012 606.497,-659.816 606.003,-666.798"/>
</g>
<!-- Node9 -->
<g id="node9" class="node"><title>Node9</title>
<g id="a_node9"><a xlink:href="../../d1/dca/classmodel_1_1_execution_environment.html#a429a18123e450d0e124af2ccf2274b06" target="_top" xlink:title="model.ExecutionEnvironment.get\lActiveTurtle">
<polygon fill="white" stroke="black" points="398,-391 398,-421 574,-421 574,-391 398,-391"/>
<text text-anchor="start" x="406" y="-409" font-family="Helvetica,sans-Serif" font-size="10.00">model.ExecutionEnvironment.get</text>
<text text-anchor="middle" x="486" y="-398" font-family="Helvetica,sans-Serif" font-size="10.00">ActiveTurtle</text>
</a>
</g>
</g>
<!-- Node1&#45;&gt;Node9 -->
<g id="edge9" class="edge"><title>Node1&#45;&gt;Node9</title>
<path fill="none" stroke="midnightblue" d="M91.647,-516.884C109.824,-492.478 149.43,-445.103 196,-425 255.989,-399.104 329.542,-394.602 387.431,-396.448"/>
<polygon fill="midnightblue" stroke="midnightblue" points="387.555,-399.955 397.683,-396.845 387.826,-392.96 387.555,-399.955"/>
</g>
<!-- Node10 -->
<g id="node10" class="node"><title>Node10</title>
<g id="a_node10"><a xlink:href="../../d4/d64/classview_1_1_view_updater.html#ad79c00c54aabbeca7b8a0461fea36c29" target="_top" xlink:title="view.ViewUpdater.setPenUp">
<polygon fill="white" stroke="black" points="621.5,-598.5 621.5,-617.5 770.5,-617.5 770.5,-598.5 621.5,-598.5"/>
<text text-anchor="middle" x="696" y="-605.5" font-family="Helvetica,sans-Serif" font-size="10.00">view.ViewUpdater.setPenUp</text>
</a>
</g>
</g>
<!-- Node1&#45;&gt;Node10 -->
<g id="edge10" class="edge"><title>Node1&#45;&gt;Node10</title>
<path fill="none" stroke="midnightblue" d="M124.176,-547.034C145.536,-553.886 171.855,-561.464 196,-566 340.355,-593.122 511.508,-602.738 611.216,-606.142"/>
<polygon fill="midnightblue" stroke="midnightblue" points="611.123,-609.64 621.233,-606.471 611.353,-602.644 611.123,-609.64"/>
</g>
<!-- Node11 -->
<g id="node11" class="node"><title>Node11</title>
<g id="a_node11"><a xlink:href="../../d4/d64/classview_1_1_view_updater.html#a497cc83cdcb6fdb430bdb78431c5cd20" target="_top" xlink:title="view.ViewUpdater.setXY">
<polygon fill="white" stroke="black" points="632,-560.5 632,-579.5 760,-579.5 760,-560.5 632,-560.5"/>
<text text-anchor="middle" x="696" y="-567.5" font-family="Helvetica,sans-Serif" font-size="10.00">view.ViewUpdater.setXY</text>
</a>
</g>
</g>
<!-- Node1&#45;&gt;Node11 -->
<g id="edge13" class="edge"><title>Node1&#45;&gt;Node11</title>
<path fill="none" stroke="midnightblue" d="M159.795,-542.366C171.905,-543.735 184.276,-545.006 196,-546 347.077,-558.812 524.51,-565.317 621.855,-568.155"/>
<polygon fill="midnightblue" stroke="midnightblue" points="621.788,-571.655 631.885,-568.443 621.989,-564.658 621.788,-571.655"/>
</g>
<!-- Node12 -->
<g id="node12" class="node"><title>Node12</title>
<g id="a_node12"><a xlink:href="../../d4/d64/classview_1_1_view_updater.html#a9797c2f411ad272a0feb84c26836bfd4" target="_top" xlink:title="view.ViewUpdater.showTurtle">
<polygon fill="white" stroke="black" points="620,-522.5 620,-541.5 772,-541.5 772,-522.5 620,-522.5"/>
<text text-anchor="middle" x="696" y="-529.5" font-family="Helvetica,sans-Serif" font-size="10.00">view.ViewUpdater.showTurtle</text>
</a>
</g>
</g>
<!-- Node1&#45;&gt;Node12 -->
<g id="edge16" class="edge"><title>Node1&#45;&gt;Node12</title>
<path fill="none" stroke="midnightblue" d="M159.7,-532C275.252,-532 490.008,-532 609.381,-532"/>
<polygon fill="midnightblue" stroke="midnightblue" points="609.571,-535.5 619.571,-532 609.571,-528.5 609.571,-535.5"/>
</g>
<!-- Node13 -->
<g id="node13" class="node"><title>Node13</title>
<g id="a_node13"><a xlink:href="../../d4/d64/classview_1_1_view_updater.html#ad29dfbb2499161b985c26e01f73ea5ac" target="_top" xlink:title="view.ViewUpdater.towards">
<polygon fill="white" stroke="black" points="206,-484.5 206,-503.5 346,-503.5 346,-484.5 206,-484.5"/>
<text text-anchor="middle" x="276" y="-491.5" font-family="Helvetica,sans-Serif" font-size="10.00">view.ViewUpdater.towards</text>
</a>
</g>
</g>
<!-- Node1&#45;&gt;Node13 -->
<g id="edge19" class="edge"><title>Node1&#45;&gt;Node13</title>
<path fill="none" stroke="midnightblue" d="M157.674,-516.981C177.244,-513.148 197.97,-509.088 216.469,-505.465"/>
<polygon fill="midnightblue" stroke="midnightblue" points="217.355,-508.858 226.495,-503.501 216.009,-501.989 217.355,-508.858"/>
</g>
<!-- Node15 -->
<g id="node15" class="node"><title>Node15</title>
<g id="a_node15"><a xlink:href="../../d1/dd3/classmodel_1_1instructions_1_1_movement_instruction.html#a51c776093aeb820937b12e2b89eb2f89" target="_top" xlink:title="model.instructions.Movement\lInstruction.updateView">
<polygon fill="white" stroke="black" points="196.5,-435 196.5,-465 355.5,-465 355.5,-435 196.5,-435"/>
<text text-anchor="start" x="204.5" y="-453" font-family="Helvetica,sans-Serif" font-size="10.00">model.instructions.Movement</text>
<text text-anchor="middle" x="276" y="-442" font-family="Helvetica,sans-Serif" font-size="10.00">Instruction.updateView</text>
</a>
</g>
</g>
<!-- Node1&#45;&gt;Node15 -->
<g id="edge23" class="edge"><title>Node1&#45;&gt;Node15</title>
<path fill="none" stroke="midnightblue" d="M108.338,-516.959C131.302,-504.69 165.208,-487.418 196,-475 201.779,-472.67 207.863,-470.412 213.985,-468.27"/>
<polygon fill="midnightblue" stroke="midnightblue" points="215.254,-471.535 223.597,-465.004 213.002,-464.907 215.254,-471.535"/>
</g>
<!-- Node3 -->
<g id="node3" class="node"><title>Node3</title>
<g id="a_node3"><a xlink:href="../../da/d64/classview_1_1_workspace.html#ad460da1164f039e5ea9a265d446d13fe" target="_top" xlink:title="view.Workspace.getTurtleMap">
<polygon fill="white" stroke="black" points="1028.5,-538.5 1028.5,-557.5 1183.5,-557.5 1183.5,-538.5 1028.5,-538.5"/>
<text text-anchor="middle" x="1106" y="-545.5" font-family="Helvetica,sans-Serif" font-size="10.00">view.Workspace.getTurtleMap</text>
</a>
</g>
</g>
<!-- Node2&#45;&gt;Node3 -->
<g id="edge2" class="edge"><title>Node2&#45;&gt;Node3</title>
<path fill="none" stroke="midnightblue" d="M729.168,-677.508C787.211,-692.577 910.773,-714.877 990,-659 1025.88,-633.694 992.901,-595.85 1026,-567 1027.77,-565.456 1029.65,-564.033 1031.6,-562.721"/>
<polygon fill="midnightblue" stroke="midnightblue" points="1033.64,-565.592 1040.66,-557.653 1030.22,-559.485 1033.64,-565.592"/>
</g>
<!-- Node4 -->
<g id="node4" class="node"><title>Node4</title>
<g id="a_node4"><a xlink:href="../../da/d64/classview_1_1_workspace.html#af056d219d5078e688731c51fb6da7c7e" target="_top" xlink:title="view.Workspace.clearLines">
<polygon fill="white" stroke="black" points="830.5,-718.5 830.5,-737.5 971.5,-737.5 971.5,-718.5 830.5,-718.5"/>
<text text-anchor="middle" x="901" y="-725.5" font-family="Helvetica,sans-Serif" font-size="10.00">view.Workspace.clearLines</text>
</a>
</g>
</g>
<!-- Node2&#45;&gt;Node4 -->
<g id="edge3" class="edge"><title>Node2&#45;&gt;Node4</title>
<path fill="none" stroke="midnightblue" d="M726.692,-677.628C749.86,-685.059 782.887,-695.476 812,-704 825.697,-708.01 840.657,-712.171 854.292,-715.88"/>
<polygon fill="midnightblue" stroke="midnightblue" points="853.383,-719.26 863.95,-718.492 855.211,-712.503 853.383,-719.26"/>
</g>
<!-- Node5 -->
<g id="node5" class="node"><title>Node5</title>
<g id="a_node5"><a xlink:href="../../d1/dc7/classview_1_1_side_bar.html#a7d73038dbba05f96990b60664afa2670" target="_top" xlink:title="view.SideBar.updateTurtle\lProperties">
<polygon fill="white" stroke="black" points="832,-593 832,-623 970,-623 970,-593 832,-593"/>
<text text-anchor="start" x="840" y="-611" font-family="Helvetica,sans-Serif" font-size="10.00">view.SideBar.updateTurtle</text>
<text text-anchor="middle" x="901" y="-600" font-family="Helvetica,sans-Serif" font-size="10.00">Properties</text>
</a>
</g>
</g>
<!-- Node2&#45;&gt;Node5 -->
<g id="edge4" class="edge"><title>Node2&#45;&gt;Node5</title>
<path fill="none" stroke="midnightblue" d="M729.166,-658.493C758.597,-649.794 802.925,-636.692 839.051,-626.014"/>
<polygon fill="midnightblue" stroke="midnightblue" points="840.406,-629.264 849.004,-623.073 838.422,-622.551 840.406,-629.264"/>
</g>
<!-- Node5&#45;&gt;Node3 -->
<g id="edge5" class="edge"><title>Node5&#45;&gt;Node3</title>
<path fill="none" stroke="midnightblue" d="M946.218,-592.949C975.337,-583.12 1010.79,-571.335 1026,-567 1034.58,-564.556 1043.73,-562.16 1052.66,-559.938"/>
<polygon fill="midnightblue" stroke="midnightblue" points="1053.72,-563.283 1062.6,-557.51 1052.06,-556.483 1053.72,-563.283"/>
</g>
<!-- Node6 -->
<g id="node6" class="node"><title>Node6</title>
<g id="a_node6"><a xlink:href="../../d8/df7/classview_1_1_turtle_view.html#ab5fdc3775e06339f4a68d1b795a81643" target="_top" xlink:title="view.TurtleView.getID">
<polygon fill="white" stroke="black" points="1049,-652.5 1049,-671.5 1163,-671.5 1163,-652.5 1049,-652.5"/>
<text text-anchor="middle" x="1106" y="-659.5" font-family="Helvetica,sans-Serif" font-size="10.00">view.TurtleView.getID</text>
</a>
</g>
</g>
<!-- Node5&#45;&gt;Node6 -->
<g id="edge6" class="edge"><title>Node5&#45;&gt;Node6</title>
<path fill="none" stroke="midnightblue" d="M953.46,-623.011C975.713,-629.376 1002.09,-636.752 1026,-643 1035.02,-645.357 1044.65,-647.763 1053.97,-650.036"/>
<polygon fill="midnightblue" stroke="midnightblue" points="1053.38,-653.494 1063.92,-652.442 1055.02,-646.69 1053.38,-653.494"/>
</g>
<!-- Node7 -->
<g id="node7" class="node"><title>Node7</title>
<g id="a_node7"><a xlink:href="../../d8/df7/classview_1_1_turtle_view.html#a85b9acc922cc69f27c79bf13e3356e09" target="_top" xlink:title="view.TurtleView.getPenPosition">
<polygon fill="white" stroke="black" points="1026,-614.5 1026,-633.5 1186,-633.5 1186,-614.5 1026,-614.5"/>
<text text-anchor="middle" x="1106" y="-621.5" font-family="Helvetica,sans-Serif" font-size="10.00">view.TurtleView.getPenPosition</text>
</a>
</g>
</g>
<!-- Node5&#45;&gt;Node7 -->
<g id="edge7" class="edge"><title>Node5&#45;&gt;Node7</title>
<path fill="none" stroke="midnightblue" d="M970.161,-613.372C984.806,-614.527 1000.49,-615.763 1015.8,-616.97"/>
<polygon fill="midnightblue" stroke="midnightblue" points="1015.55,-620.46 1025.79,-617.757 1016.1,-613.482 1015.55,-620.46"/>
</g>
<!-- Node8 -->
<g id="node8" class="node"><title>Node8</title>
<g id="a_node8"><a xlink:href="../../d8/df7/classview_1_1_turtle_view.html#a5f7b22cd8ab69258535b18920a488b63" target="_top" xlink:title="view.TurtleView.isShowing">
<polygon fill="white" stroke="black" points="1038,-576.5 1038,-595.5 1174,-595.5 1174,-576.5 1038,-576.5"/>
<text text-anchor="middle" x="1106" y="-583.5" font-family="Helvetica,sans-Serif" font-size="10.00">view.TurtleView.isShowing</text>
</a>
</g>
</g>
<!-- Node5&#45;&gt;Node8 -->
<g id="edge8" class="edge"><title>Node5&#45;&gt;Node8</title>
<path fill="none" stroke="midnightblue" d="M970.161,-600.613C988.614,-598.613 1008.72,-596.434 1027.64,-594.384"/>
<polygon fill="midnightblue" stroke="midnightblue" points="1028.14,-597.85 1037.71,-593.293 1027.39,-590.891 1028.14,-597.85"/>
</g>
<!-- Node10&#45;&gt;Node3 -->
<g id="edge11" class="edge"><title>Node10&#45;&gt;Node3</title>
<path fill="none" stroke="midnightblue" d="M718.375,-617.581C769.451,-638.914 900.958,-684.471 990,-632 1018.45,-615.234 999.721,-586.999 1026,-567 1028.37,-565.198 1030.88,-563.564 1033.5,-562.082"/>
<polygon fill="midnightblue" stroke="midnightblue" points="1035.28,-565.112 1042.76,-557.611 1032.23,-558.809 1035.28,-565.112"/>
</g>
<!-- Node10&#45;&gt;Node5 -->
<g id="edge12" class="edge"><title>Node10&#45;&gt;Node5</title>
<path fill="none" stroke="midnightblue" d="M770.575,-608C787.112,-608 804.723,-608 821.455,-608"/>
<polygon fill="midnightblue" stroke="midnightblue" points="821.742,-611.5 831.742,-608 821.742,-604.5 821.742,-611.5"/>
</g>
<!-- Node11&#45;&gt;Node3 -->
<g id="edge14" class="edge"><title>Node11&#45;&gt;Node3</title>
<path fill="none" stroke="midnightblue" d="M760.302,-566.587C829.492,-562.856 940.783,-556.855 1018.12,-552.685"/>
<polygon fill="midnightblue" stroke="midnightblue" points="1018.52,-556.168 1028.32,-552.135 1018.15,-549.178 1018.52,-556.168"/>
</g>
<!-- Node11&#45;&gt;Node5 -->
<g id="edge15" class="edge"><title>Node11&#45;&gt;Node5</title>
<path fill="none" stroke="midnightblue" d="M747.963,-579.54C770.26,-583.714 796.924,-588.705 821.652,-593.334"/>
<polygon fill="midnightblue" stroke="midnightblue" points="821.273,-596.824 831.746,-595.223 822.561,-589.943 821.273,-596.824"/>
</g>
<!-- Node12&#45;&gt;Node3 -->
<g id="edge17" class="edge"><title>Node12&#45;&gt;Node3</title>
<path fill="none" stroke="midnightblue" d="M772.309,-534.953C841.91,-537.683 945.292,-541.737 1018.31,-544.6"/>
<polygon fill="midnightblue" stroke="midnightblue" points="1018.27,-548.101 1028.4,-544.996 1018.54,-541.107 1018.27,-548.101"/>
</g>
<!-- Node12&#45;&gt;Node5 -->
<g id="edge18" class="edge"><title>Node12&#45;&gt;Node5</title>
<path fill="none" stroke="midnightblue" d="M743.388,-541.56C754.208,-544.228 765.603,-547.399 776,-551 805.647,-561.269 837.802,-576.166 861.937,-588.155"/>
<polygon fill="midnightblue" stroke="midnightblue" points="860.593,-591.397 871.1,-592.758 863.735,-585.142 860.593,-591.397"/>
</g>
<!-- Node14 -->
<g id="node14" class="node"><title>Node14</title>
<g id="a_node14"><a xlink:href="../../d4/d64/classview_1_1_view_updater.html#ab8c47e1d6b8bc5c076184e3e0af5e4b2" target="_top" xlink:title="view.ViewUpdater.setHeading">
<polygon fill="white" stroke="black" points="617.5,-484.5 617.5,-503.5 774.5,-503.5 774.5,-484.5 617.5,-484.5"/>
<text text-anchor="middle" x="696" y="-491.5" font-family="Helvetica,sans-Serif" font-size="10.00">view.ViewUpdater.setHeading</text>
</a>
</g>
</g>
<!-- Node13&#45;&gt;Node14 -->
<g id="edge20" class="edge"><title>Node13&#45;&gt;Node14</title>
<path fill="none" stroke="midnightblue" d="M346.024,-494C417.482,-494 529.342,-494 607.084,-494"/>
<polygon fill="midnightblue" stroke="midnightblue" points="607.342,-497.5 617.342,-494 607.342,-490.5 607.342,-497.5"/>
</g>
<!-- Node14&#45;&gt;Node3 -->
<g id="edge21" class="edge"><title>Node14&#45;&gt;Node3</title>
<path fill="none" stroke="midnightblue" d="M769.003,-503.53C840.012,-512.928 948.415,-527.276 1022.77,-537.117"/>
<polygon fill="midnightblue" stroke="midnightblue" points="1022.66,-540.632 1033.03,-538.475 1023.58,-533.693 1022.66,-540.632"/>
</g>
<!-- Node14&#45;&gt;Node5 -->
<g id="edge22" class="edge"><title>Node14&#45;&gt;Node5</title>
<path fill="none" stroke="midnightblue" d="M750.323,-503.593C759.12,-506.083 767.978,-509.175 776,-513 815.148,-531.664 853.775,-564.083 877.255,-585.787"/>
<polygon fill="midnightblue" stroke="midnightblue" points="874.931,-588.406 884.616,-592.702 879.724,-583.304 874.931,-588.406"/>
</g>
<!-- Node15&#45;&gt;Node9 -->
<g id="edge24" class="edge"><title>Node15&#45;&gt;Node9</title>
<path fill="none" stroke="midnightblue" d="M348,-434.981C366.056,-431.161 385.593,-427.028 404.102,-423.113"/>
<polygon fill="midnightblue" stroke="midnightblue" points="404.908,-426.52 413.967,-421.026 403.459,-419.672 404.908,-426.52"/>
</g>
<!-- Node16 -->
<g id="node16" class="node"><title>Node16</title>
<g id="a_node16"><a xlink:href="../../d4/d64/classview_1_1_view_updater.html#adc0790ceed057768bd5a29a470e626d1" target="_top" xlink:title="view.ViewUpdater.updateWorkspace">
<polygon fill="white" stroke="black" points="392.5,-440.5 392.5,-459.5 579.5,-459.5 579.5,-440.5 392.5,-440.5"/>
<text text-anchor="middle" x="486" y="-447.5" font-family="Helvetica,sans-Serif" font-size="10.00">view.ViewUpdater.updateWorkspace</text>
</a>
</g>
</g>
<!-- Node15&#45;&gt;Node16 -->
<g id="edge25" class="edge"><title>Node15&#45;&gt;Node16</title>
<path fill="none" stroke="midnightblue" d="M355.636,-450C364.329,-450 373.274,-450 382.206,-450"/>
<polygon fill="midnightblue" stroke="midnightblue" points="382.273,-453.5 392.273,-450 382.273,-446.5 382.273,-453.5"/>
</g>
<!-- Node16&#45;&gt;Node3 -->
<g id="edge48" class="edge"><title>Node16&#45;&gt;Node3</title>
<path fill="none" stroke="midnightblue" d="M579.663,-452.782C681.611,-457.574 849.635,-470.605 990,-506 1018.9,-513.289 1050.65,-525.197 1073.46,-534.475"/>
<polygon fill="midnightblue" stroke="midnightblue" points="1072.37,-537.815 1082.95,-538.398 1075.05,-531.345 1072.37,-537.815"/>
</g>
<!-- Node17 -->
<g id="node17" class="node"><title>Node17</title>
<g id="a_node17"><a xlink:href="../../da/d64/classview_1_1_workspace.html#a08f0e92c7d15f9c170e406af39ec54a5" target="_top" xlink:title="view.Workspace.getLines">
<polygon fill="white" stroke="black" points="629,-231.5 629,-250.5 763,-250.5 763,-231.5 629,-231.5"/>
<text text-anchor="middle" x="696" y="-238.5" font-family="Helvetica,sans-Serif" font-size="10.00">view.Workspace.getLines</text>
</a>
</g>
</g>
<!-- Node16&#45;&gt;Node17 -->
<g id="edge26" class="edge"><title>Node16&#45;&gt;Node17</title>
<path fill="none" stroke="midnightblue" d="M565.7,-440.404C570.947,-437.633 575.803,-434.211 580,-430 634.525,-375.304 562.141,-315.352 616,-260 617.402,-258.559 618.892,-257.22 620.457,-255.976"/>
<polygon fill="midnightblue" stroke="midnightblue" points="622.373,-258.905 628.838,-250.511 618.55,-253.041 622.373,-258.905"/>
</g>
<!-- Node18 -->
<g id="node18" class="node"><title>Node18</title>
<g id="a_node18"><a xlink:href="../../de/d0a/classview_1_1_drawer.html#a6b9f362b8bc763689630b1fe7b5c1887" target="_top" xlink:title="view.Drawer.draw">
<polygon fill="white" stroke="black" points="647,-269.5 647,-288.5 745,-288.5 745,-269.5 647,-269.5"/>
<text text-anchor="middle" x="696" y="-276.5" font-family="Helvetica,sans-Serif" font-size="10.00">view.Drawer.draw</text>
</a>
</g>
</g>
<!-- Node16&#45;&gt;Node18 -->
<g id="edge27" class="edge"><title>Node16&#45;&gt;Node18</title>
<path fill="none" stroke="midnightblue" d="M557.684,-440.428C565.546,-437.749 573.169,-434.339 580,-430 632.458,-396.681 670.036,-330.506 686.19,-297.965"/>
<polygon fill="midnightblue" stroke="midnightblue" points="689.483,-299.194 690.673,-288.666 683.177,-296.154 689.483,-299.194"/>
</g>
<!-- Node18&#45;&gt;Node5 -->
<g id="edge47" class="edge"><title>Node18&#45;&gt;Node5</title>
<path fill="none" stroke="midnightblue" d="M703.075,-288.846C730.672,-333.572 844.631,-518.265 885.408,-584.35"/>
<polygon fill="midnightblue" stroke="midnightblue" points="882.429,-586.189 890.659,-592.861 888.387,-582.513 882.429,-586.189"/>
</g>
<!-- Node19 -->
<g id="node19" class="node"><title>Node19</title>
<g id="a_node19"><a xlink:href="../../d6/d06/classmodel_1_1_turtle_command.html#ab30f5c95162492cb8fd19f1fd7350f9f" target="_top" xlink:title="model.TurtleCommand.getTurtleId">
<polygon fill="white" stroke="black" points="812,-402.5 812,-421.5 990,-421.5 990,-402.5 812,-402.5"/>
<text text-anchor="middle" x="901" y="-409.5" font-family="Helvetica,sans-Serif" font-size="10.00">model.TurtleCommand.getTurtleId</text>
</a>
</g>
</g>
<!-- Node18&#45;&gt;Node19 -->
<g id="edge28" class="edge"><title>Node18&#45;&gt;Node19</title>
<path fill="none" stroke="midnightblue" d="M703.765,-288.795C719.761,-311.149 762.325,-366.066 812,-393 816.242,-395.3 820.741,-397.322 825.373,-399.099"/>
<polygon fill="midnightblue" stroke="midnightblue" points="824.434,-402.477 835.029,-402.413 826.707,-395.856 824.434,-402.477"/>
</g>
<!-- Node20 -->
<g id="node20" class="node"><title>Node20</title>
<g id="a_node20"><a xlink:href="../../d6/d06/classmodel_1_1_turtle_command.html#ab94da8b47588273eb8db943096f12422" target="_top" xlink:title="model.TurtleCommand.getPolar">
<polygon fill="white" stroke="black" points="817,-364.5 817,-383.5 985,-383.5 985,-364.5 817,-364.5"/>
<text text-anchor="middle" x="901" y="-371.5" font-family="Helvetica,sans-Serif" font-size="10.00">model.TurtleCommand.getPolar</text>
</a>
</g>
</g>
<!-- Node18&#45;&gt;Node20 -->
<g id="edge29" class="edge"><title>Node18&#45;&gt;Node20</title>
<path fill="none" stroke="midnightblue" d="M708.254,-288.544C727.949,-304.742 770.531,-337.55 812,-355 818.098,-357.566 824.585,-359.803 831.166,-361.749"/>
<polygon fill="midnightblue" stroke="midnightblue" points="830.272,-365.133 840.841,-364.398 832.12,-358.382 830.272,-365.133"/>
</g>
<!-- Node21 -->
<g id="node21" class="node"><title>Node21</title>
<g id="a_node21"><a xlink:href="../../d1/d0b/classmodel_1_1_polar.html#a8abcb5640caf12d2941533a6e1c04faa" target="_top" xlink:title="model.Polar.getDistance">
<polygon fill="white" stroke="black" points="834,-326.5 834,-345.5 968,-345.5 968,-326.5 834,-326.5"/>
<text text-anchor="middle" x="901" y="-333.5" font-family="Helvetica,sans-Serif" font-size="10.00">model.Polar.getDistance</text>
</a>
</g>
</g>
<!-- Node18&#45;&gt;Node21 -->
<g id="edge30" class="edge"><title>Node18&#45;&gt;Node21</title>
<path fill="none" stroke="midnightblue" d="M729.683,-288.503C752.682,-295.159 784.196,-304.22 812,-312 825.867,-315.88 840.985,-320.032 854.716,-323.773"/>
<polygon fill="midnightblue" stroke="midnightblue" points="853.864,-327.168 864.432,-326.414 855.701,-320.413 853.864,-327.168"/>
</g>
<!-- Node22 -->
<g id="node22" class="node"><title>Node22</title>
<g id="a_node22"><a xlink:href="../../d1/d0b/classmodel_1_1_polar.html#adbd9afb75cf519b2dd9f1331e406b8c2" target="_top" xlink:title="model.Polar.getAngle">
<polygon fill="white" stroke="black" points="841.5,-250.5 841.5,-269.5 960.5,-269.5 960.5,-250.5 841.5,-250.5"/>
<text text-anchor="middle" x="901" y="-257.5" font-family="Helvetica,sans-Serif" font-size="10.00">model.Polar.getAngle</text>
</a>
</g>
</g>
<!-- Node18&#45;&gt;Node22 -->
<g id="edge31" class="edge"><title>Node18&#45;&gt;Node22</title>
<path fill="none" stroke="midnightblue" d="M745.108,-274.497C770.796,-272.093 802.862,-269.092 831.144,-266.445"/>
<polygon fill="midnightblue" stroke="midnightblue" points="831.743,-269.904 841.373,-265.487 831.091,-262.934 831.743,-269.904"/>
</g>
<!-- Node23 -->
<g id="node23" class="node"><title>Node23</title>
<g id="a_node23"><a xlink:href="../../de/d0a/classview_1_1_drawer.html#ad1636376006d26ed1ca9784e13f96a2a" target="_top" xlink:title="view.Drawer.wrapY">
<polygon fill="white" stroke="black" points="849.5,-174.5 849.5,-193.5 952.5,-193.5 952.5,-174.5 849.5,-174.5"/>
<text text-anchor="middle" x="901" y="-181.5" font-family="Helvetica,sans-Serif" font-size="10.00">view.Drawer.wrapY</text>
</a>
</g>
</g>
<!-- Node18&#45;&gt;Node23 -->
<g id="edge32" class="edge"><title>Node18&#45;&gt;Node23</title>
<path fill="none" stroke="midnightblue" d="M745.083,-273.62C755.951,-270.785 766.941,-266.491 776,-260 800.356,-242.548 787.442,-220.166 812,-203 820.167,-197.291 829.723,-193.248 839.471,-190.394"/>
<polygon fill="midnightblue" stroke="midnightblue" points="840.404,-193.768 849.237,-187.919 838.684,-186.983 840.404,-193.768"/>
</g>
<!-- Node24 -->
<g id="node24" class="node"><title>Node24</title>
<g id="a_node24"><a xlink:href="../../d8/df7/classview_1_1_turtle_view.html#a5e7cf3c4f078acae07bcbeee264a5581" target="_top" xlink:title="view.TurtleView.move">
<polygon fill="white" stroke="black" points="1048,-155.5 1048,-174.5 1164,-174.5 1164,-155.5 1048,-155.5"/>
<text text-anchor="middle" x="1106" y="-162.5" font-family="Helvetica,sans-Serif" font-size="10.00">view.TurtleView.move</text>
</a>
</g>
</g>
<!-- Node18&#45;&gt;Node24 -->
<g id="edge40" class="edge"><title>Node18&#45;&gt;Node24</title>
<path fill="none" stroke="midnightblue" d="M745.26,-275.093C756.37,-272.23 767.427,-267.554 776,-260 809.877,-230.149 774.844,-190.654 812,-165 889.163,-111.723 1007.12,-135.172 1067.11,-152.475"/>
<polygon fill="midnightblue" stroke="midnightblue" points="1066.34,-155.897 1076.92,-155.4 1068.34,-149.189 1066.34,-155.897"/>
</g>
<!-- Node25 -->
<g id="node25" class="node"><title>Node25</title>
<g id="a_node25"><a xlink:href="../../d8/df7/classview_1_1_turtle_view.html#a68c8a2962e23e5794fcfbe7ef1968fad" target="_top" xlink:title="view.TurtleView.getPenUp">
<polygon fill="white" stroke="black" points="1038,-231.5 1038,-250.5 1174,-250.5 1174,-231.5 1038,-231.5"/>
<text text-anchor="middle" x="1106" y="-238.5" font-family="Helvetica,sans-Serif" font-size="10.00">view.TurtleView.getPenUp</text>
</a>
</g>
</g>
<!-- Node18&#45;&gt;Node25 -->
<g id="edge41" class="edge"><title>Node18&#45;&gt;Node25</title>
<path fill="none" stroke="midnightblue" d="M745.077,-283.652C803.43,-288.232 904.623,-292.74 990,-279 1019.11,-274.314 1050.84,-263.358 1073.58,-254.408"/>
<polygon fill="midnightblue" stroke="midnightblue" points="1075.08,-257.577 1083.05,-250.593 1072.47,-251.084 1075.08,-257.577"/>
</g>
<!-- Node27 -->
<g id="node27" class="node"><title>Node27</title>
<g id="a_node27"><a xlink:href="../../de/d0a/classview_1_1_drawer.html#a24eafc164d9d0ab08036dc5cf7d72dd4" target="_top" xlink:title="view.Drawer.wrapX">
<polygon fill="white" stroke="black" points="849,-212.5 849,-231.5 953,-231.5 953,-212.5 849,-212.5"/>
<text text-anchor="middle" x="901" y="-219.5" font-family="Helvetica,sans-Serif" font-size="10.00">view.Drawer.wrapX</text>
</a>
</g>
</g>
<!-- Node18&#45;&gt;Node27 -->
<g id="edge36" class="edge"><title>Node18&#45;&gt;Node27</title>
<path fill="none" stroke="midnightblue" d="M745.204,-269.433C755.512,-266.828 766.233,-263.685 776,-260 792.927,-253.613 795,-247.189 812,-241 820.521,-237.898 829.699,-235.226 838.799,-232.949"/>
<polygon fill="midnightblue" stroke="midnightblue" points="839.681,-236.337 848.608,-230.631 838.071,-229.525 839.681,-236.337"/>
</g>
<!-- Node28 -->
<g id="node28" class="node"><title>Node28</title>
<g id="a_node28"><a xlink:href="../../d6/d06/classmodel_1_1_turtle_command.html#abb952ce819f91c0f5970c2f2b1c43d73" target="_top" xlink:title="model.TurtleCommand.isRelative">
<polygon fill="white" stroke="black" points="814.5,-98.5 814.5,-117.5 987.5,-117.5 987.5,-98.5 814.5,-98.5"/>
<text text-anchor="middle" x="901" y="-105.5" font-family="Helvetica,sans-Serif" font-size="10.00">model.TurtleCommand.isRelative</text>
</a>
</g>
</g>
<!-- Node18&#45;&gt;Node28 -->
<g id="edge42" class="edge"><title>Node18&#45;&gt;Node28</title>
<path fill="none" stroke="midnightblue" d="M745.326,-275.717C756.566,-272.854 767.666,-268.022 776,-260 818.577,-219.017 770.048,-173.622 812,-132 815.935,-128.096 820.438,-124.812 825.282,-122.049"/>
<polygon fill="midnightblue" stroke="midnightblue" points="826.879,-125.165 834.318,-117.621 823.798,-118.879 826.879,-125.165"/>
</g>
<!-- Node29 -->
<g id="node29" class="node"><title>Node29</title>
<g id="a_node29"><a xlink:href="../../d8/df7/classview_1_1_turtle_view.html#a199407b3121d1bc310d7f75cdab2da94" target="_top" xlink:title="view.TurtleView.setRelative\lHeading">
<polygon fill="white" stroke="black" points="831,-0 831,-30 971,-30 971,-0 831,-0"/>
<text text-anchor="start" x="839" y="-18" font-family="Helvetica,sans-Serif" font-size="10.00">view.TurtleView.setRelative</text>
<text text-anchor="middle" x="901" y="-7" font-family="Helvetica,sans-Serif" font-size="10.00">Heading</text>
</a>
</g>
</g>
<!-- Node18&#45;&gt;Node29 -->
<g id="edge43" class="edge"><title>Node18&#45;&gt;Node29</title>
<path fill="none" stroke="midnightblue" d="M745.149,-276.556C756.663,-273.716 767.939,-268.685 776,-260 843.698,-187.058 745.412,-112.957 812,-39 814.92,-35.7563 818.232,-32.9328 821.817,-30.4768"/>
<polygon fill="midnightblue" stroke="midnightblue" points="823.715,-33.4222 830.622,-25.3878 820.212,-27.3617 823.715,-33.4222"/>
</g>
<!-- Node31 -->
<g id="node31" class="node"><title>Node31</title>
<g id="a_node31"><a xlink:href="../../d8/df7/classview_1_1_turtle_view.html#a166c0ff50e234c0a2725aa1cbc38c933" target="_top" xlink:title="view.TurtleView.setAbsolute\lHeading">
<polygon fill="white" stroke="black" points="828,-49 828,-79 974,-79 974,-49 828,-49"/>
<text text-anchor="start" x="836" y="-67" font-family="Helvetica,sans-Serif" font-size="10.00">view.TurtleView.setAbsolute</text>
<text text-anchor="middle" x="901" y="-56" font-family="Helvetica,sans-Serif" font-size="10.00">Heading</text>
</a>
</g>
</g>
<!-- Node18&#45;&gt;Node31 -->
<g id="edge45" class="edge"><title>Node18&#45;&gt;Node31</title>
<path fill="none" stroke="midnightblue" d="M745.292,-276.2C756.667,-273.345 767.84,-268.396 776,-260 830.129,-204.304 759.017,-145.788 812,-89 814.275,-86.5613 816.769,-84.3545 819.431,-82.3579"/>
<polygon fill="midnightblue" stroke="midnightblue" points="821.319,-85.3052 827.868,-76.9772 817.555,-79.4033 821.319,-85.3052"/>
</g>
<!-- Node23&#45;&gt;Node24 -->
<g id="edge33" class="edge"><title>Node23&#45;&gt;Node24</title>
<path fill="none" stroke="midnightblue" d="M952.702,-179.255C978.431,-176.846 1010.03,-173.889 1037.76,-171.293"/>
<polygon fill="midnightblue" stroke="midnightblue" points="1038.15,-174.772 1047.78,-170.355 1037.5,-167.802 1038.15,-174.772"/>
</g>
<!-- Node23&#45;&gt;Node25 -->
<g id="edge34" class="edge"><title>Node23&#45;&gt;Node25</title>
<path fill="none" stroke="midnightblue" d="M952.929,-192.528C965.251,-195.263 978.251,-198.723 990,-203 1007,-209.189 1009.07,-215.613 1026,-222 1032.71,-224.534 1039.88,-226.811 1047.05,-228.833"/>
<polygon fill="midnightblue" stroke="midnightblue" points="1046.23,-232.236 1056.8,-231.433 1048.04,-225.473 1046.23,-232.236"/>
</g>
<!-- Node26 -->
<g id="node26" class="node"><title>Node26</title>
<g id="a_node26"><a xlink:href="../../de/d0a/classview_1_1_drawer.html#a1489f58b0b2c2012d23d546013a47972" target="_top" xlink:title="view.Drawer.drawLine">
<polygon fill="white" stroke="black" points="1047.5,-193.5 1047.5,-212.5 1164.5,-212.5 1164.5,-193.5 1047.5,-193.5"/>
<text text-anchor="middle" x="1106" y="-200.5" font-family="Helvetica,sans-Serif" font-size="10.00">view.Drawer.drawLine</text>
</a>
</g>
</g>
<!-- Node23&#45;&gt;Node26 -->
<g id="edge35" class="edge"><title>Node23&#45;&gt;Node26</title>
<path fill="none" stroke="midnightblue" d="M952.702,-188.745C978.327,-191.144 1009.77,-194.087 1037.42,-196.675"/>
<polygon fill="midnightblue" stroke="midnightblue" points="1037.14,-200.163 1047.42,-197.611 1037.79,-193.194 1037.14,-200.163"/>
</g>
<!-- Node27&#45;&gt;Node24 -->
<g id="edge37" class="edge"><title>Node27&#45;&gt;Node24</title>
<path fill="none" stroke="midnightblue" d="M953.392,-213.369C965.575,-210.65 978.397,-207.224 990,-203 1007,-196.811 1009.07,-190.387 1026,-184 1032.71,-181.466 1039.88,-179.189 1047.05,-177.167"/>
<polygon fill="midnightblue" stroke="midnightblue" points="1048.04,-180.527 1056.8,-174.567 1046.23,-173.764 1048.04,-180.527"/>
</g>
<!-- Node27&#45;&gt;Node25 -->
<g id="edge38" class="edge"><title>Node27&#45;&gt;Node25</title>
<path fill="none" stroke="midnightblue" d="M953.225,-226.795C975.73,-228.901 1002.65,-231.42 1027.52,-233.748"/>
<polygon fill="midnightblue" stroke="midnightblue" points="1027.39,-237.251 1037.67,-234.698 1028.04,-230.281 1027.39,-237.251"/>
</g>
<!-- Node27&#45;&gt;Node26 -->
<g id="edge39" class="edge"><title>Node27&#45;&gt;Node26</title>
<path fill="none" stroke="midnightblue" d="M953.225,-217.205C978.638,-214.827 1009.68,-211.922 1037.05,-209.36"/>
<polygon fill="midnightblue" stroke="midnightblue" points="1037.71,-212.814 1047.34,-208.397 1037.05,-205.844 1037.71,-212.814"/>
</g>
<!-- Node30 -->
<g id="node30" class="node"><title>Node30</title>
<g id="a_node30"><a xlink:href="../../d8/df7/classview_1_1_turtle_view.html#aea0727a510b53db67aa4100a6106eb5b" target="_top" xlink:title="view.TurtleView.adjustAngle">
<polygon fill="white" stroke="black" points="1033.5,-30.5 1033.5,-49.5 1178.5,-49.5 1178.5,-30.5 1033.5,-30.5"/>
<text text-anchor="middle" x="1106" y="-37.5" font-family="Helvetica,sans-Serif" font-size="10.00">view.TurtleView.adjustAngle</text>
</a>
</g>
</g>
<!-- Node29&#45;&gt;Node30 -->
<g id="edge44" class="edge"><title>Node29&#45;&gt;Node30</title>
<path fill="none" stroke="midnightblue" d="M971.01,-23.4987C987.824,-25.5695 1005.97,-27.8041 1023.31,-29.9398"/>
<polygon fill="midnightblue" stroke="midnightblue" points="1023.06,-33.4352 1033.41,-31.1838 1023.92,-26.4877 1023.06,-33.4352"/>
</g>
<!-- Node31&#45;&gt;Node30 -->
<g id="edge46" class="edge"><title>Node31&#45;&gt;Node30</title>
<path fill="none" stroke="midnightblue" d="M974.142,-55.4709C990.091,-53.5853 1007.1,-51.5746 1023.39,-49.648"/>
<polygon fill="midnightblue" stroke="midnightblue" points="1023.91,-53.1112 1033.43,-48.4612 1023.09,-46.1596 1023.91,-53.1112"/>
</g>
</g>
</svg>
        <g id="navigator" transform="translate(0 0)" fill="#404254">
                <rect fill="#f2f5e9" fill-opacity="0.5" stroke="#606060" stroke-width=".5" x="0" y="0" width="60" height="60"/>
                <use id="zoomplus" xlink:href="#zoomPlus" x="17" y="9" onmousedown="handleZoom(evt,'in')"/>
                <use id="zoomminus" xlink:href="#zoomMin" x="42" y="9" onmousedown="handleZoom(evt,'out')"/>
                <use id="reset" xlink:href="#resetDef" x="30" y="36" onmousedown="handleReset()"/>
                <g id="arrowUp" xlink:href="#dirArrow" transform="translate(30 24)" onmousedown="handlePan(0,-1)">
                  <use xlink:href="#rim" fill="#404040">
                        <set attributeName="fill" to="#808080" begin="arrowUp.mouseover" end="arrowUp.mouseout"/>
                  </use>
                  <path fill="none" stroke="white" stroke-width="1.5" d="M0,-3.0v7 M-2.5,-0.5L0,-3.0L2.5,-0.5"/>
                </g>
                <g id="arrowRight" xlink:href="#dirArrow" transform="rotate(90) translate(36 -43)" onmousedown="handlePan(1,0)">
                  <use xlink:href="#rim" fill="#404040">
                        <set attributeName="fill" to="#808080" begin="arrowRight.mouseover" end="arrowRight.mouseout"/>
                  </use>
                  <path fill="none" stroke="white" stroke-width="1.5" d="M0,-3.0v7 M-2.5,-0.5L0,-3.0L2.5,-0.5"/>
                </g>
                <g id="arrowDown" xlink:href="#dirArrow" transform="rotate(180) translate(-30 -48)" onmousedown="handlePan(0,1)">
                  <use xlink:href="#rim" fill="#404040">
                        <set attributeName="fill" to="#808080" begin="arrowDown.mouseover" end="arrowDown.mouseout"/>
                  </use>
                  <path fill="none" stroke="white" stroke-width="1.5" d="M0,-3.0v7 M-2.5,-0.5L0,-3.0L2.5,-0.5"/>
                </g>
                <g id="arrowLeft" xlink:href="#dirArrow" transform="rotate(270) translate(-36 17)" onmousedown="handlePan(-1,0)">
                  <use xlink:href="#rim" fill="#404040">
                        <set attributeName="fill" to="#808080" begin="arrowLeft.mouseover" end="arrowLeft.mouseout"/>
                  </use>
                  <path fill="none" stroke="white" stroke-width="1.5" d="M0,-3.0v7 M-2.5,-0.5L0,-3.0L2.5,-0.5"/>
                </g>
        </g>
        <svg viewBox="0 0 15 15" width="100%" height="30px" preserveAspectRatio="xMaxYMin meet">
         <g id="arrow_out" transform="scale(0.3 0.3)">
          <a xlink:href="classmodel_1_1instructions_1_1_movement_instruction_a33e802cec8283d190a8daac6e485e3b4_cgraph_org.svg" target="_base">
           <rect id="button" ry="5" rx="5" y="6" x="6" height="38" width="38"
                fill="#f2f5e9" fill-opacity="0.5" stroke="#606060" stroke-width="1.0"/>
           <path id="arrow"
             d="M 11.500037,31.436501 C 11.940474,20.09759 22.043105,11.32322 32.158766,21.979434 L 37.068811,17.246167 C 37.068811,17.246167 37.088388,32 37.088388,32 L 22.160133,31.978069 C 22.160133,31.978069 26.997745,27.140456 26.997745,27.140456 C 18.528582,18.264221 13.291696,25.230495 11.500037,31.436501 z"
             style="fill:#404040;"/>
          </a>
         </g>
        </svg>
</svg>
