<?xml version="1.0" encoding="UTF-8" standalone="no"?>
<!DOCTYPE svg PUBLIC "-//W3C//DTD SVG 1.1//EN"
 "http://www.w3.org/Graphics/SVG/1.1/DTD/svg11.dtd">
<!-- Generated by graphviz version 2.36.0 (20140111.2315)
 -->
<!-- Title: model.instructions.MovementInstruction.updateView Pages: 1 -->
<svg width="922pt" height="469pt"
 viewBox="0.00 0.00 922.00 469.00" xmlns="http://www.w3.org/2000/svg" xmlns:xlink="http://www.w3.org/1999/xlink">
<g id="graph0" class="graph" transform="scale(1 1) rotate(0) translate(4 465)">
<title>model.instructions.MovementInstruction.updateView</title>
<polygon fill="white" stroke="none" points="-4,4 -4,-465 918,-465 918,4 -4,4"/>
<!-- Node1 -->
<g id="node1" class="node"><title>Node1</title>
<polygon fill="#bfbfbf" stroke="black" points="0.5,-243 0.5,-273 159.5,-273 159.5,-243 0.5,-243"/>
<text text-anchor="start" x="8.5" y="-261" font-family="Helvetica,sans-Serif" font-size="10.00">model.instructions.Movement</text>
<text text-anchor="middle" x="80" y="-250" font-family="Helvetica,sans-Serif" font-size="10.00">Instruction.updateView</text>
</g>
<!-- Node2 -->
<g id="node2" class="node"><title>Node2</title>
<g id="a_node2"><a xlink:href="../../d6/de7/classview_1_1_s_logo_view.html#a513d723c883c5b96c9fdf1f16f829bc8" target="_top" xlink:title="view.SLogoView.updateWorkspace">
<polygon fill="white" stroke="black" points="196,-248.5 196,-267.5 374,-267.5 374,-248.5 196,-248.5"/>
<text text-anchor="middle" x="285" y="-255.5" font-family="Helvetica,sans-Serif" font-size="10.00">view.SLogoView.updateWorkspace</text>
</a>
</g>
</g>
<!-- Node1&#45;&gt;Node2 -->
<g id="edge1" class="edge"><title>Node1&#45;&gt;Node2</title>
<path fill="none" stroke="midnightblue" d="M159.776,-258C168.267,-258 176.981,-258 185.665,-258"/>
<polygon fill="midnightblue" stroke="midnightblue" points="185.83,-261.5 195.83,-258 185.83,-254.5 185.83,-261.5"/>
</g>
<!-- Node3 -->
<g id="node3" class="node"><title>Node3</title>
<g id="a_node3"><a xlink:href="../../de/d0a/classview_1_1_drawer.html#a6b9f362b8bc763689630b1fe7b5c1887" target="_top" xlink:title="view.Drawer.draw">
<polygon fill="white" stroke="black" points="410,-248.5 410,-267.5 508,-267.5 508,-248.5 410,-248.5"/>
<text text-anchor="middle" x="459" y="-255.5" font-family="Helvetica,sans-Serif" font-size="10.00">view.Drawer.draw</text>
</a>
</g>
</g>
<!-- Node2&#45;&gt;Node3 -->
<g id="edge2" class="edge"><title>Node2&#45;&gt;Node3</title>
<path fill="none" stroke="midnightblue" d="M374.015,-258C382.616,-258 391.191,-258 399.393,-258"/>
<polygon fill="midnightblue" stroke="midnightblue" points="399.559,-261.5 409.559,-258 399.559,-254.5 399.559,-261.5"/>
</g>
<!-- Node4 -->
<g id="node4" class="node"><title>Node4</title>
<g id="a_node4"><a xlink:href="../../d3/d75/classmodel_1_1turtle_1_1_turtle_command.html#abe0b0e84640746cd35bef5b65e34a129" target="_top" xlink:title="model.turtle.TurtleCommand.get\lTurtleId">
<polygon fill="white" stroke="black" points="544.5,-431 544.5,-461 717.5,-461 717.5,-431 544.5,-431"/>
<text text-anchor="start" x="552.5" y="-449" font-family="Helvetica,sans-Serif" font-size="10.00">model.turtle.TurtleCommand.get</text>
<text text-anchor="middle" x="631" y="-438" font-family="Helvetica,sans-Serif" font-size="10.00">TurtleId</text>
</a>
</g>
</g>
<!-- Node3&#45;&gt;Node4 -->
<g id="edge3" class="edge"><title>Node3&#45;&gt;Node4</title>
<path fill="none" stroke="midnightblue" d="M462.163,-267.781C468.929,-296.042 492.393,-378.5 544,-421 546.048,-422.687 548.205,-424.259 550.447,-425.726"/>
<polygon fill="midnightblue" stroke="midnightblue" points="549.049,-428.958 559.47,-430.873 552.518,-422.878 549.049,-428.958"/>
</g>
<!-- Node5 -->
<g id="node5" class="node"><title>Node5</title>
<g id="a_node5"><a xlink:href="../../d3/d75/classmodel_1_1turtle_1_1_turtle_command.html#aa6e23531cfc94f83a3ef03844c96eb9f" target="_top" xlink:title="model.turtle.TurtleCommand.get\lPolar">
<polygon fill="white" stroke="black" points="544.5,-382 544.5,-412 717.5,-412 717.5,-382 544.5,-382"/>
<text text-anchor="start" x="552.5" y="-400" font-family="Helvetica,sans-Serif" font-size="10.00">model.turtle.TurtleCommand.get</text>
<text text-anchor="middle" x="631" y="-389" font-family="Helvetica,sans-Serif" font-size="10.00">Polar</text>
</a>
</g>
</g>
<!-- Node3&#45;&gt;Node5 -->
<g id="edge4" class="edge"><title>Node3&#45;&gt;Node5</title>
<path fill="none" stroke="midnightblue" d="M464.904,-267.668C476.072,-288.749 505.442,-339.186 544,-367 549.601,-371.04 555.793,-374.575 562.213,-377.659"/>
<polygon fill="midnightblue" stroke="midnightblue" points="561.176,-381.027 571.738,-381.862 564.002,-374.623 561.176,-381.027"/>
</g>
<!-- Node6 -->
<g id="node6" class="node"><title>Node6</title>
<g id="a_node6"><a xlink:href="../../de/d0a/classview_1_1_drawer.html#a42d5b456b04ee116e144c775f7a192e8" target="_top" xlink:title="view.Drawer.wrapY">
<polygon fill="white" stroke="black" points="579.5,-305.5 579.5,-324.5 682.5,-324.5 682.5,-305.5 579.5,-305.5"/>
<text text-anchor="middle" x="631" y="-312.5" font-family="Helvetica,sans-Serif" font-size="10.00">view.Drawer.wrapY</text>
</a>
</g>
</g>
<!-- Node3&#45;&gt;Node6 -->
<g id="edge5" class="edge"><title>Node3&#45;&gt;Node6</title>
<path fill="none" stroke="midnightblue" d="M478.24,-267.585C494.964,-276.049 520.611,-288.22 544,-296 552.03,-298.671 560.607,-301.075 569.12,-303.203"/>
<polygon fill="midnightblue" stroke="midnightblue" points="568.507,-306.655 579.047,-305.574 570.133,-299.847 568.507,-306.655"/>
</g>
<!-- Node7 -->
<g id="node7" class="node"><title>Node7</title>
<g id="a_node7"><a xlink:href="../../d8/df7/classview_1_1_turtle_view.html#a5e7cf3c4f078acae07bcbeee264a5581" target="_top" xlink:title="view.TurtleView.move">
<polygon fill="white" stroke="black" points="776,-324.5 776,-343.5 892,-343.5 892,-324.5 776,-324.5"/>
<text text-anchor="middle" x="834" y="-331.5" font-family="Helvetica,sans-Serif" font-size="10.00">view.TurtleView.move</text>
</a>
</g>
</g>
<!-- Node3&#45;&gt;Node7 -->
<g id="edge13" class="edge"><title>Node3&#45;&gt;Node7</title>
<path fill="none" stroke="midnightblue" d="M466.717,-267.599C479.441,-284.837 508.948,-320.497 544,-334 621.343,-363.796 719.207,-355.138 778.903,-345.247"/>
<polygon fill="midnightblue" stroke="midnightblue" points="779.611,-348.676 788.869,-343.525 778.419,-341.779 779.611,-348.676"/>
</g>
<!-- Node8 -->
<g id="node8" class="node"><title>Node8</title>
<g id="a_node8"><a xlink:href="../../d8/df7/classview_1_1_turtle_view.html#a68c8a2962e23e5794fcfbe7ef1968fad" target="_top" xlink:title="view.TurtleView.getPenUp">
<polygon fill="white" stroke="black" points="766,-248.5 766,-267.5 902,-267.5 902,-248.5 766,-248.5"/>
<text text-anchor="middle" x="834" y="-255.5" font-family="Helvetica,sans-Serif" font-size="10.00">view.TurtleView.getPenUp</text>
</a>
</g>
</g>
<!-- Node3&#45;&gt;Node8 -->
<g id="edge14" class="edge"><title>Node3&#45;&gt;Node8</title>
<path fill="none" stroke="midnightblue" d="M508.381,-258C571.073,-258 681.136,-258 755.529,-258"/>
<polygon fill="midnightblue" stroke="midnightblue" points="755.781,-261.5 765.781,-258 755.781,-254.5 755.781,-261.5"/>
</g>
<!-- Node10 -->
<g id="node10" class="node"><title>Node10</title>
<g id="a_node10"><a xlink:href="../../de/d0a/classview_1_1_drawer.html#a49908b04e4a4d7873d6dc51c60084c17" target="_top" xlink:title="view.Drawer.wrapX">
<polygon fill="white" stroke="black" points="579,-267.5 579,-286.5 683,-286.5 683,-267.5 579,-267.5"/>
<text text-anchor="middle" x="631" y="-274.5" font-family="Helvetica,sans-Serif" font-size="10.00">view.Drawer.wrapX</text>
</a>
</g>
</g>
<!-- Node3&#45;&gt;Node10 -->
<g id="edge9" class="edge"><title>Node3&#45;&gt;Node10</title>
<path fill="none" stroke="midnightblue" d="M508.26,-263.394C527.069,-265.496 548.849,-267.93 568.742,-270.154"/>
<polygon fill="midnightblue" stroke="midnightblue" points="568.621,-273.662 578.948,-271.294 569.398,-266.705 568.621,-273.662"/>
</g>
<!-- Node11 -->
<g id="node11" class="node"><title>Node11</title>
<g id="a_node11"><a xlink:href="../../d3/d75/classmodel_1_1turtle_1_1_turtle_command.html#a5319a5aabe782066e1eef292fe855db6" target="_top" xlink:title="model.turtle.TurtleCommand.is\lRelative">
<polygon fill="white" stroke="black" points="549,-180 549,-210 713,-210 713,-180 549,-180"/>
<text text-anchor="start" x="557" y="-198" font-family="Helvetica,sans-Serif" font-size="10.00">model.turtle.TurtleCommand.is</text>
<text text-anchor="middle" x="631" y="-187" font-family="Helvetica,sans-Serif" font-size="10.00">Relative</text>
</a>
</g>
</g>
<!-- Node3&#45;&gt;Node11 -->
<g id="edge15" class="edge"><title>Node3&#45;&gt;Node11</title>
<path fill="none" stroke="midnightblue" d="M483.803,-248.365C500.569,-241.648 523.579,-232.57 544,-225 554.33,-221.171 565.408,-217.204 576.06,-213.457"/>
<polygon fill="midnightblue" stroke="midnightblue" points="577.406,-216.695 585.69,-210.09 575.095,-210.087 577.406,-216.695"/>
</g>
<!-- Node12 -->
<g id="node12" class="node"><title>Node12</title>
<g id="a_node12"><a xlink:href="../../d8/df7/classview_1_1_turtle_view.html#a199407b3121d1bc310d7f75cdab2da94" target="_top" xlink:title="view.TurtleView.setRelative\lHeading">
<polygon fill="white" stroke="black" points="561,-131 561,-161 701,-161 701,-131 561,-131"/>
<text text-anchor="start" x="569" y="-149" font-family="Helvetica,sans-Serif" font-size="10.00">view.TurtleView.setRelative</text>
<text text-anchor="middle" x="631" y="-138" font-family="Helvetica,sans-Serif" font-size="10.00">Heading</text>
</a>
</g>
</g>
<!-- Node3&#45;&gt;Node12 -->
<g id="edge16" class="edge"><title>Node3&#45;&gt;Node12</title>
<path fill="none" stroke="midnightblue" d="M466.407,-248.445C479.052,-230.339 509.046,-190.972 544,-170 546.858,-168.285 549.842,-166.689 552.912,-165.204"/>
<polygon fill="midnightblue" stroke="midnightblue" points="554.581,-168.294 562.334,-161.074 551.771,-161.883 554.581,-168.294"/>
</g>
<!-- Node14 -->
<g id="node14" class="node"><title>Node14</title>
<g id="a_node14"><a xlink:href="../../d8/df7/classview_1_1_turtle_view.html#a166c0ff50e234c0a2725aa1cbc38c933" target="_top" xlink:title="view.TurtleView.setAbsolute\lHeading">
<polygon fill="white" stroke="black" points="558,-82 558,-112 704,-112 704,-82 558,-82"/>
<text text-anchor="start" x="566" y="-100" font-family="Helvetica,sans-Serif" font-size="10.00">view.TurtleView.setAbsolute</text>
<text text-anchor="middle" x="631" y="-89" font-family="Helvetica,sans-Serif" font-size="10.00">Heading</text>
</a>
</g>
</g>
<!-- Node3&#45;&gt;Node14 -->
<g id="edge18" class="edge"><title>Node3&#45;&gt;Node14</title>
<path fill="none" stroke="midnightblue" d="M463.111,-248.325C471.688,-223.234 498.124,-155.62 544,-121 545.86,-119.596 547.798,-118.275 549.798,-117.031"/>
<polygon fill="midnightblue" stroke="midnightblue" points="551.817,-119.916 558.921,-112.056 548.466,-113.771 551.817,-119.916"/>
</g>
<!-- Node15 -->
<g id="node15" class="node"><title>Node15</title>
<g id="a_node15"><a xlink:href="../../d1/dc7/classview_1_1_side_bar.html#a0e6b8bded054449259862ef89afdc74d" target="_top" xlink:title="view.SideBar.updateTurtle\lProperties">
<polygon fill="white" stroke="black" points="562,-33 562,-63 700,-63 700,-33 562,-33"/>
<text text-anchor="start" x="570" y="-51" font-family="Helvetica,sans-Serif" font-size="10.00">view.SideBar.updateTurtle</text>
<text text-anchor="middle" x="631" y="-40" font-family="Helvetica,sans-Serif" font-size="10.00">Properties</text>
</a>
</g>
</g>
<!-- Node3&#45;&gt;Node15 -->
<g id="edge20" class="edge"><title>Node3&#45;&gt;Node15</title>
<path fill="none" stroke="midnightblue" d="M461.467,-248.181C466.612,-217.277 486.736,-121.158 544,-72 546.729,-69.6572 549.67,-67.542 552.762,-65.6323"/>
<polygon fill="midnightblue" stroke="midnightblue" points="554.663,-68.5843 561.824,-60.7762 551.357,-62.4143 554.663,-68.5843"/>
</g>
<!-- Node6&#45;&gt;Node7 -->
<g id="edge6" class="edge"><title>Node6&#45;&gt;Node7</title>
<path fill="none" stroke="midnightblue" d="M682.721,-319.795C707.883,-322.173 738.615,-325.078 765.716,-327.64"/>
<polygon fill="midnightblue" stroke="midnightblue" points="765.621,-331.146 775.906,-328.603 766.279,-324.177 765.621,-331.146"/>
</g>
<!-- Node6&#45;&gt;Node8 -->
<g id="edge7" class="edge"><title>Node6&#45;&gt;Node8</title>
<path fill="none" stroke="midnightblue" d="M682.673,-306.173C694.445,-303.475 706.803,-300.107 718,-296 734.985,-289.77 737.073,-283.387 754,-277 760.714,-274.466 767.88,-272.189 775.053,-270.167"/>
<polygon fill="midnightblue" stroke="midnightblue" points="776.036,-273.527 784.796,-267.567 774.231,-266.764 776.036,-273.527"/>
</g>
<!-- Node9 -->
<g id="node9" class="node"><title>Node9</title>
<g id="a_node9"><a xlink:href="../../de/d0a/classview_1_1_drawer.html#a1489f58b0b2c2012d23d546013a47972" target="_top" xlink:title="view.Drawer.drawLine">
<polygon fill="white" stroke="black" points="775.5,-286.5 775.5,-305.5 892.5,-305.5 892.5,-286.5 775.5,-286.5"/>
<text text-anchor="middle" x="834" y="-293.5" font-family="Helvetica,sans-Serif" font-size="10.00">view.Drawer.drawLine</text>
</a>
</g>
</g>
<!-- Node6&#45;&gt;Node9 -->
<g id="edge8" class="edge"><title>Node6&#45;&gt;Node9</title>
<path fill="none" stroke="midnightblue" d="M682.721,-310.205C707.677,-307.846 738.111,-304.97 765.049,-302.423"/>
<polygon fill="midnightblue" stroke="midnightblue" points="765.556,-305.891 775.183,-301.465 764.898,-298.922 765.556,-305.891"/>
</g>
<!-- Node10&#45;&gt;Node7 -->
<g id="edge10" class="edge"><title>Node10&#45;&gt;Node7</title>
<path fill="none" stroke="midnightblue" d="M683.127,-285.931C694.762,-288.612 706.946,-291.946 718,-296 734.985,-302.23 737.073,-308.613 754,-315 760.714,-317.534 767.88,-319.811 775.053,-321.833"/>
<polygon fill="midnightblue" stroke="midnightblue" points="774.231,-325.236 784.796,-324.433 776.036,-318.473 774.231,-325.236"/>
</g>
<!-- Node10&#45;&gt;Node8 -->
<g id="edge11" class="edge"><title>Node10&#45;&gt;Node8</title>
<path fill="none" stroke="midnightblue" d="M683.241,-272.156C705.224,-270.078 731.384,-267.606 755.642,-265.312"/>
<polygon fill="midnightblue" stroke="midnightblue" points="756.278,-268.768 765.904,-264.342 755.619,-261.799 756.278,-268.768"/>
</g>
<!-- Node10&#45;&gt;Node9 -->
<g id="edge12" class="edge"><title>Node10&#45;&gt;Node9</title>
<path fill="none" stroke="midnightblue" d="M683.241,-281.844C708.2,-284.203 738.543,-287.071 765.374,-289.607"/>
<polygon fill="midnightblue" stroke="midnightblue" points="765.182,-293.105 775.467,-290.562 765.84,-286.136 765.182,-293.105"/>
</g>
<!-- Node13 -->
<g id="node13" class="node"><title>Node13</title>
<g id="a_node13"><a xlink:href="../../d8/df7/classview_1_1_turtle_view.html#aea0727a510b53db67aa4100a6106eb5b" target="_top" xlink:title="view.TurtleView.adjustAngle">
<polygon fill="white" stroke="black" points="761.5,-125.5 761.5,-144.5 906.5,-144.5 906.5,-125.5 761.5,-125.5"/>
<text text-anchor="middle" x="834" y="-132.5" font-family="Helvetica,sans-Serif" font-size="10.00">view.TurtleView.adjustAngle</text>
</a>
</g>
</g>
<!-- Node12&#45;&gt;Node13 -->
<g id="edge17" class="edge"><title>Node12&#45;&gt;Node13</title>
<path fill="none" stroke="midnightblue" d="M701.173,-142.214C717.254,-141.334 734.524,-140.389 751.095,-139.482"/>
<polygon fill="midnightblue" stroke="midnightblue" points="751.512,-142.965 761.306,-138.924 751.129,-135.975 751.512,-142.965"/>
</g>
<!-- Node14&#45;&gt;Node13 -->
<g id="edge19" class="edge"><title>Node14&#45;&gt;Node13</title>
<path fill="none" stroke="midnightblue" d="M704.282,-110.665C726.726,-114.908 751.213,-119.538 772.747,-123.609"/>
<polygon fill="midnightblue" stroke="midnightblue" points="772.26,-127.079 782.737,-125.497 773.561,-120.201 772.26,-127.079"/>
</g>
<!-- Node16 -->
<g id="node16" class="node"><title>Node16</title>
<g id="a_node16"><a xlink:href="../../d8/df7/classview_1_1_turtle_view.html#ab5fdc3775e06339f4a68d1b795a81643" target="_top" xlink:title="view.TurtleView.getID">
<polygon fill="white" stroke="black" points="777,-76.5 777,-95.5 891,-95.5 891,-76.5 777,-76.5"/>
<text text-anchor="middle" x="834" y="-83.5" font-family="Helvetica,sans-Serif" font-size="10.00">view.TurtleView.getID</text>
</a>
</g>
</g>
<!-- Node15&#45;&gt;Node16 -->
<g id="edge21" class="edge"><title>Node15&#45;&gt;Node16</title>
<path fill="none" stroke="midnightblue" d="M700.049,-60.8651C723.562,-65.3102 749.729,-70.2572 772.587,-74.5787"/>
<polygon fill="midnightblue" stroke="midnightblue" points="772.022,-78.0337 782.498,-76.4524 773.322,-71.1556 772.022,-78.0337"/>
</g>
<!-- Node17 -->
<g id="node17" class="node"><title>Node17</title>
<g id="a_node17"><a xlink:href="../../d8/df7/classview_1_1_turtle_view.html#a85b9acc922cc69f27c79bf13e3356e09" target="_top" xlink:title="view.TurtleView.getPenPosition">
<polygon fill="white" stroke="black" points="754,-38.5 754,-57.5 914,-57.5 914,-38.5 754,-38.5"/>
<text text-anchor="middle" x="834" y="-45.5" font-family="Helvetica,sans-Serif" font-size="10.00">view.TurtleView.getPenPosition</text>
</a>
</g>
</g>
<!-- Node15&#45;&gt;Node17 -->
<g id="edge22" class="edge"><title>Node15&#45;&gt;Node17</title>
<path fill="none" stroke="midnightblue" d="M700.049,-48C714.115,-48 729.13,-48 743.819,-48"/>
<polygon fill="midnightblue" stroke="midnightblue" points="743.92,-51.5001 753.92,-48 743.92,-44.5001 743.92,-51.5001"/>
</g>
<!-- Node18 -->
<g id="node18" class="node"><title>Node18</title>
<g id="a_node18"><a xlink:href="../../d8/df7/classview_1_1_turtle_view.html#a5f7b22cd8ab69258535b18920a488b63" target="_top" xlink:title="view.TurtleView.isShowing">
<polygon fill="white" stroke="black" points="766,-0.5 766,-19.5 902,-19.5 902,-0.5 766,-0.5"/>
<text text-anchor="middle" x="834" y="-7.5" font-family="Helvetica,sans-Serif" font-size="10.00">view.TurtleView.isShowing</text>
</a>
</g>
</g>
<!-- Node15&#45;&gt;Node18 -->
<g id="edge23" class="edge"><title>Node15&#45;&gt;Node18</title>
<path fill="none" stroke="midnightblue" d="M700.049,-35.1349C723.562,-30.6898 749.729,-25.7428 772.587,-21.4213"/>
<polygon fill="midnightblue" stroke="midnightblue" points="773.322,-24.8444 782.498,-19.5476 772.022,-17.9663 773.322,-24.8444"/>
</g>
</g>
</svg>
