<?xml version="1.0" encoding="UTF-8" standalone="no"?>
<!DOCTYPE svg PUBLIC "-//W3C//DTD SVG 1.1//EN"
 "http://www.w3.org/Graphics/SVG/1.1/DTD/svg11.dtd">
<!-- Generated by graphviz version 2.36.0 (20140111.2315)
 -->
<!-- Title: controller.SLogoController.setLanguage Pages: 1 -->
<svg width="622pt" height="38pt"
 viewBox="0.00 0.00 622.00 38.00" xmlns="http://www.w3.org/2000/svg" xmlns:xlink="http://www.w3.org/1999/xlink">
<g id="graph0" class="graph" transform="scale(1 1) rotate(0) translate(4 34)">
<title>controller.SLogoController.setLanguage</title>
<polygon fill="white" stroke="none" points="-4,4 -4,-34 618,-34 618,4 -4,4"/>
<!-- Node1 -->
<g id="node1" class="node"><title>Node1</title>
<polygon fill="#bfbfbf" stroke="black" points="0,-0 0,-30 158,-30 158,-0 0,-0"/>
<text text-anchor="start" x="8" y="-18" font-family="Helvetica,sans-Serif" font-size="10.00">controller.SLogoController.set</text>
<text text-anchor="middle" x="79" y="-7" font-family="Helvetica,sans-Serif" font-size="10.00">Language</text>
</g>
<!-- Node2 -->
<g id="node2" class="node"><title>Node2</title>
<g id="a_node2"><a xlink:href="../../dc/d3c/classview_1_1_customization_bar.html#a7af574ca79d4f78ad3afbb8fb199ef9c" target="_top" xlink:title="view.CustomizationBar.configure\lLanguageOptions">
<polygon fill="white" stroke="black" points="194.5,-0 194.5,-30 365.5,-30 365.5,-0 194.5,-0"/>
<text text-anchor="start" x="202.5" y="-18" font-family="Helvetica,sans-Serif" font-size="10.00">view.CustomizationBar.configure</text>
<text text-anchor="middle" x="280" y="-7" font-family="Helvetica,sans-Serif" font-size="10.00">LanguageOptions</text>
</a>
</g>
</g>
<!-- Node1&#45;&gt;Node2 -->
<g id="edge1" class="edge"><title>Node1&#45;&gt;Node2</title>
<path fill="none" stroke="midnightblue" d="M168.179,-15C176.841,-15 185.619,-15 194.247,-15"/>
<polygon fill="midnightblue" stroke="midnightblue" points="168.079,-11.5001 158.079,-15 168.079,-18.5001 168.079,-11.5001"/>
</g>
<!-- Node3 -->
<g id="node3" class="node"><title>Node3</title>
<g id="a_node3"><a xlink:href="../../dc/d3c/classview_1_1_customization_bar.html#af901579e0b448f2082f884fc92fc51e2" target="_top" xlink:title="view.CustomizationBar.CustomizationBar">
<polygon fill="white" stroke="black" points="402,-5.5 402,-24.5 614,-24.5 614,-5.5 402,-5.5"/>
<text text-anchor="middle" x="508" y="-12.5" font-family="Helvetica,sans-Serif" font-size="10.00">view.CustomizationBar.CustomizationBar</text>
</a>
</g>
</g>
<!-- Node2&#45;&gt;Node3 -->
<g id="edge2" class="edge"><title>Node2&#45;&gt;Node3</title>
<path fill="none" stroke="midnightblue" d="M375.822,-15C384.429,-15 393.181,-15 401.87,-15"/>
<polygon fill="midnightblue" stroke="midnightblue" points="375.797,-11.5001 365.797,-15 375.797,-18.5001 375.797,-11.5001"/>
</g>
</g>
</svg>
