<?xml version="1.0" encoding="UTF-8" standalone="no"?>
<!DOCTYPE svg PUBLIC "-//W3C//DTD SVG 1.1//EN"
 "http://www.w3.org/Graphics/SVG/1.1/DTD/svg11.dtd">
<!-- Generated by graphviz version 2.36.0 (20140111.2315)
 -->
<!-- Title: view.MainView Pages: 1 -->
<svg width="561pt" height="96pt"
 viewBox="0.00 0.00 561.00 96.00" xmlns="http://www.w3.org/2000/svg" xmlns:xlink="http://www.w3.org/1999/xlink">
<g id="graph0" class="graph" transform="scale(1 1) rotate(0) translate(4 92)">
<title>view.MainView</title>
<polygon fill="white" stroke="none" points="-4,4 -4,-92 557,-92 557,4 -4,4"/>
<!-- Node1 -->
<g id="node1" class="node"><title>Node1</title>
<polygon fill="#bfbfbf" stroke="black" points="232.5,-0.5 232.5,-19.5 315.5,-19.5 315.5,-0.5 232.5,-0.5"/>
<text text-anchor="middle" x="274" y="-7.5" font-family="Helvetica,sans-Serif" font-size="10.00">view.MainView</text>
</g>
<!-- Node2 -->
<g id="node2" class="node"><title>Node2</title>
<polygon fill="white" stroke="#bfbfbf" points="-0.5,-68.5 -0.5,-87.5 44.5,-87.5 44.5,-68.5 -0.5,-68.5"/>
<text text-anchor="middle" x="22" y="-75.5" font-family="Helvetica,sans-Serif" font-size="10.00">Stage</text>
</g>
<!-- Node2&#45;&gt;Node1 -->
<g id="edge1" class="edge"><title>Node2&#45;&gt;Node1</title>
<path fill="none" stroke="#9a32cd" stroke-dasharray="5,2" d="M40.466,-62.2145C52.0215,-53.7483 67.5952,-43.7043 83,-38 132.149,-19.8002 192.587,-13.762 232.143,-11.8176"/>
<polygon fill="#9a32cd" stroke="#9a32cd" points="38.3253,-59.4453 32.482,-68.2832 42.5613,-65.0182 38.3253,-59.4453"/>
<text text-anchor="middle" x="106.5" y="-41.5" font-family="Helvetica,sans-Serif" font-size="10.00"> myStage</text>
</g>
<!-- Node3 -->
<g id="node3" class="node"><title>Node3</title>
<polygon fill="white" stroke="#bfbfbf" points="62.5,-68.5 62.5,-87.5 155.5,-87.5 155.5,-68.5 62.5,-68.5"/>
<text text-anchor="middle" x="109" y="-75.5" font-family="Helvetica,sans-Serif" font-size="10.00">ResourceBundle</text>
</g>
<!-- Node3&#45;&gt;Node1 -->
<g id="edge2" class="edge"><title>Node3&#45;&gt;Node1</title>
<path fill="none" stroke="#9a32cd" stroke-dasharray="5,2" d="M122.287,-60.6882C129.648,-52.6915 139.435,-43.6001 150,-38 175.501,-24.483 207.374,-17.7297 232.419,-14.3574"/>
<polygon fill="#9a32cd" stroke="#9a32cd" points="119.476,-58.587 115.564,-68.4331 124.763,-63.1757 119.476,-58.587"/>
<text text-anchor="middle" x="183.5" y="-41.5" font-family="Helvetica,sans-Serif" font-size="10.00"> myResources</text>
</g>
<!-- Node4 -->
<g id="node4" class="node"><title>Node4</title>
<g id="a_node4"><a xlink:href="../../d4/de2/classview_1_1_scene_setter.html" target="_top" xlink:title="view.SceneSetter">
<polygon fill="white" stroke="black" points="173.5,-68.5 173.5,-87.5 272.5,-87.5 272.5,-68.5 173.5,-68.5"/>
<text text-anchor="middle" x="223" y="-75.5" font-family="Helvetica,sans-Serif" font-size="10.00">view.SceneSetter</text>
</a>
</g>
</g>
<!-- Node4&#45;&gt;Node1 -->
<g id="edge3" class="edge"><title>Node4&#45;&gt;Node1</title>
<path fill="none" stroke="#9a32cd" stroke-dasharray="5,2" d="M219.721,-57.8764C219.506,-51.1615 220.413,-43.8422 224,-38 229.11,-29.677 237.746,-23.7534 246.415,-19.6182"/>
<polygon fill="#9a32cd" stroke="#9a32cd" points="216.289,-58.6842 220.866,-68.2392 223.246,-57.9153 216.289,-58.6842"/>
<text text-anchor="middle" x="263.5" y="-41.5" font-family="Helvetica,sans-Serif" font-size="10.00"> mySceneSetter</text>
</g>
<!-- Node5 -->
<g id="node5" class="node"><title>Node5</title>
<polygon fill="white" stroke="#bfbfbf" points="290.5,-68.5 290.5,-87.5 371.5,-87.5 371.5,-68.5 290.5,-68.5"/>
<text text-anchor="middle" x="331" y="-75.5" font-family="Helvetica,sans-Serif" font-size="10.00">Dimension2D</text>
</g>
<!-- Node5&#45;&gt;Node1 -->
<g id="edge4" class="edge"><title>Node5&#45;&gt;Node1</title>
<path fill="none" stroke="#9a32cd" stroke-dasharray="5,2" d="M319.609,-59.5958C314.779,-52.6424 308.907,-44.7096 303,-38 297.182,-31.3912 289.932,-24.6412 284.136,-19.5434"/>
<polygon fill="#9a32cd" stroke="#9a32cd" points="316.961,-61.9295 325.454,-68.2639 322.765,-58.0159 316.961,-61.9295"/>
<text text-anchor="middle" x="350.5" y="-41.5" font-family="Helvetica,sans-Serif" font-size="10.00"> myDimensions</text>
</g>
<!-- Node6 -->
<g id="node6" class="node"><title>Node6</title>
<polygon fill="white" stroke="#bfbfbf" points="395,-68.5 395,-87.5 451,-87.5 451,-68.5 395,-68.5"/>
<text text-anchor="middle" x="423" y="-75.5" font-family="Helvetica,sans-Serif" font-size="10.00">TabPane</text>
</g>
<!-- Node6&#45;&gt;Node1 -->
<g id="edge5" class="edge"><title>Node6&#45;&gt;Node1</title>
<path fill="none" stroke="#9a32cd" stroke-dasharray="5,2" d="M413.199,-59.9364C407.882,-52.1318 400.627,-43.4334 392,-38 369.15,-23.6081 339.508,-16.8615 315.65,-13.7111"/>
<polygon fill="#9a32cd" stroke="#9a32cd" points="410.247,-61.8166 418.517,-68.4386 416.181,-58.1044 410.247,-61.8166"/>
<text text-anchor="middle" x="435" y="-41.5" font-family="Helvetica,sans-Serif" font-size="10.00"> myTabPane</text>
</g>
<!-- Node7 -->
<g id="node7" class="node"><title>Node7</title>
<polygon fill="white" stroke="#bfbfbf" points="481,-68.5 481,-87.5 527,-87.5 527,-68.5 481,-68.5"/>
<text text-anchor="middle" x="504" y="-75.5" font-family="Helvetica,sans-Serif" font-size="10.00">Group</text>
</g>
<!-- Node7&#45;&gt;Node1 -->
<g id="edge6" class="edge"><title>Node7&#45;&gt;Node1</title>
<path fill="none" stroke="#9a32cd" stroke-dasharray="5,2" d="M492.68,-60.1001C486.383,-52.0785 477.834,-43.1427 468,-38 442.311,-24.5662 364.787,-17.0501 315.868,-13.528"/>
<polygon fill="#9a32cd" stroke="#9a32cd" points="489.872,-62.1906 498.582,-68.2229 495.535,-58.0757 489.872,-62.1906"/>
<text text-anchor="middle" x="518" y="-41.5" font-family="Helvetica,sans-Serif" font-size="10.00"> myMainGroup</text>
</g>
</g>
</svg>
