<?xml version="1.0" encoding="UTF-8" standalone="no"?>
<!DOCTYPE svg PUBLIC "-//W3C//DTD SVG 1.1//EN"
 "http://www.w3.org/Graphics/SVG/1.1/DTD/svg11.dtd">
<!-- Generated by graphviz version 2.36.0 (20140111.2315)
 -->
<!-- Title: model.instructions.Instruction.execute Pages: 1 -->
<!--zoomable 153 -->
<svg id="main" version="1.1" xmlns="http://www.w3.org/2000/svg" xmlns:xlink="http://www.w3.org/1999/xlink" xml:space="preserve" onload="init(evt)">
<style type="text/css"><![CDATA[
.edge:hover path { stroke: red; }
.edge:hover polygon { stroke: red; fill: red; }
]]></style>
<script type="text/javascript"><![CDATA[
var edges = document.getElementsByTagName('g');
if (edges && edges.length) {
  for (var i=0;i<edges.length;i++) {
    if (edges[i].id.substr(0,4)=='edge') {
      edges[i].setAttribute('class','edge');
    }
  }
}
]]></script>
        <defs>
                <circle id="rim" cx="0" cy="0" r="7"/>
                <circle id="rim2" cx="0" cy="0" r="3.5"/>
                <g id="zoomPlus">
                        <use xlink:href="#rim" fill="#404040">
                                <set attributeName="fill" to="#808080" begin="zoomplus.mouseover" end="zoomplus.mouseout"/>
                        </use>
                        <path d="M-4,0h8M0,-4v8" fill="none" stroke="white" stroke-width="1.5" pointer-events="none"/>
                </g>
                <g id="zoomMin">
                        <use xlink:href="#rim" fill="#404040">
                                <set attributeName="fill" to="#808080" begin="zoomminus.mouseover" end="zoomminus.mouseout"/>
                        </use>
                        <path d="M-4,0h8" fill="none" stroke="white" stroke-width="1.5" pointer-events="none"/>
                </g>
                <g id="dirArrow">
                        <path fill="none" stroke="white" stroke-width="1.5" d="M0,-3.0v7 M-2.5,-0.5L0,-3.0L2.5,-0.5"/>
                </g>
               <g id="resetDef">
                       <use xlink:href="#rim2" fill="#404040">
                               <set attributeName="fill" to="#808080" begin="reset.mouseover" end="reset.mouseout"/>
                       </use>
               </g>
        </defs>

<script type="text/javascript">
var viewWidth = 792;
var viewHeight = 153;
var sectionId = 'dynsection-2';
</script>
<script xlink:href="../../svgpan.js"/>
<svg id="graph" class="graph">
<g id="viewport">
<title>model.instructions.Instruction.execute</title>
<polygon fill="white" stroke="none" points="-4,4 -4,-149 788,-149 788,4 -4,4"/>
<!-- Node1 -->
<g id="node1" class="node"><title>Node1</title>
<polygon fill="#bfbfbf" stroke="black" points="0,-68.5 0,-87.5 200,-87.5 200,-68.5 0,-68.5"/>
<text text-anchor="middle" x="100" y="-75.5" font-family="Helvetica,sans-Serif" font-size="10.00">model.instructions.Instruction.execute</text>
</g>
<!-- Node2 -->
<g id="node2" class="node"><title>Node2</title>
<g id="a_node2"><a xlink:href="../../d4/d62/classmodel_1_1instructions_1_1_variable.html#a8c3b6503213c45e44be5ca395e63ede6" target="_top" xlink:title="model.instructions.Variable.execute">
<polygon fill="white" stroke="black" points="236,-125.5 236,-144.5 424,-144.5 424,-125.5 236,-125.5"/>
<text text-anchor="middle" x="330" y="-132.5" font-family="Helvetica,sans-Serif" font-size="10.00">model.instructions.Variable.execute</text>
</a>
</g>
</g>
<!-- Node1&#45;&gt;Node2 -->
<g id="edge1" class="edge"><title>Node1&#45;&gt;Node2</title>
<path fill="none" stroke="midnightblue" d="M148.93,-89.9824C191.105,-100.526 251.704,-115.676 290.713,-125.428"/>
<polygon fill="midnightblue" stroke="midnightblue" points="149.712,-86.5705 139.162,-87.5405 148.015,-93.3614 149.712,-86.5705"/>
</g>
<!-- Node3 -->
<g id="node3" class="node"><title>Node3</title>
<g id="a_node3"><a xlink:href="../../d5/dbb/classmodel_1_1instructions_1_1_control_instruction.html#a1c4a55cb8aa53805da8193f686964ca7" target="_top" xlink:title="model.instructions.Control\lInstruction.executeList">
<polygon fill="white" stroke="black" points="460.5,-88 460.5,-118 603.5,-118 603.5,-88 460.5,-88"/>
<text text-anchor="start" x="468.5" y="-106" font-family="Helvetica,sans-Serif" font-size="10.00">model.instructions.Control</text>
<text text-anchor="middle" x="532" y="-95" font-family="Helvetica,sans-Serif" font-size="10.00">Instruction.executeList</text>
</a>
</g>
</g>
<!-- Node1&#45;&gt;Node3 -->
<g id="edge2" class="edge"><title>Node1&#45;&gt;Node3</title>
<path fill="none" stroke="midnightblue" d="M210.615,-84.373C289.172,-88.9403 392.668,-94.9574 460.477,-98.8998"/>
<polygon fill="midnightblue" stroke="midnightblue" points="210.377,-80.8533 200.191,-83.7669 209.971,-87.8415 210.377,-80.8533"/>
</g>
<!-- Node5 -->
<g id="node5" class="node"><title>Node5</title>
<g id="a_node5"><a xlink:href="../../d5/dbb/classmodel_1_1instructions_1_1_control_instruction.html#afdbf98dbab1ed6b6ace9a1773299eb30" target="_top" xlink:title="model.instructions.Control\lInstruction.forLoop">
<polygon fill="white" stroke="black" points="460.5,-39 460.5,-69 603.5,-69 603.5,-39 460.5,-39"/>
<text text-anchor="start" x="468.5" y="-57" font-family="Helvetica,sans-Serif" font-size="10.00">model.instructions.Control</text>
<text text-anchor="middle" x="532" y="-46" font-family="Helvetica,sans-Serif" font-size="10.00">Instruction.forLoop</text>
</a>
</g>
</g>
<!-- Node1&#45;&gt;Node5 -->
<g id="edge4" class="edge"><title>Node1&#45;&gt;Node5</title>
<path fill="none" stroke="midnightblue" d="M210.615,-71.8819C289.172,-67.4974 392.668,-61.7209 460.477,-57.9362"/>
<polygon fill="midnightblue" stroke="midnightblue" points="209.98,-68.4119 200.191,-72.4638 210.37,-75.401 209.98,-68.4119"/>
</g>
<!-- Node6 -->
<g id="node6" class="node"><title>Node6</title>
<g id="a_node6"><a xlink:href="../../d5/dbb/classmodel_1_1instructions_1_1_control_instruction.html#a738157283e6cd27e99b991d1e70258f6" target="_top" xlink:title="model.instructions.Control\lInstruction.makeVariable">
<polygon fill="white" stroke="black" points="258.5,-0 258.5,-30 401.5,-30 401.5,-0 258.5,-0"/>
<text text-anchor="start" x="266.5" y="-18" font-family="Helvetica,sans-Serif" font-size="10.00">model.instructions.Control</text>
<text text-anchor="middle" x="330" y="-7" font-family="Helvetica,sans-Serif" font-size="10.00">Instruction.makeVariable</text>
</a>
</g>
</g>
<!-- Node1&#45;&gt;Node6 -->
<g id="edge6" class="edge"><title>Node1&#45;&gt;Node6</title>
<path fill="none" stroke="midnightblue" d="M145.598,-65.6768C182.504,-55.4791 235.076,-40.9528 274.479,-30.065"/>
<polygon fill="midnightblue" stroke="midnightblue" points="144.335,-62.3946 135.628,-68.4317 146.199,-69.1418 144.335,-62.3946"/>
</g>
<!-- Node4 -->
<g id="node4" class="node"><title>Node4</title>
<g id="a_node4"><a xlink:href="../../d5/dbb/classmodel_1_1instructions_1_1_control_instruction.html#a5ec77a176debc7a35ce9026c808d021e" target="_top" xlink:title="model.instructions.Control\lInstruction.execute">
<polygon fill="white" stroke="black" points="640.5,-39 640.5,-69 783.5,-69 783.5,-39 640.5,-39"/>
<text text-anchor="start" x="648.5" y="-57" font-family="Helvetica,sans-Serif" font-size="10.00">model.instructions.Control</text>
<text text-anchor="middle" x="712" y="-46" font-family="Helvetica,sans-Serif" font-size="10.00">Instruction.execute</text>
</a>
</g>
</g>
<!-- Node3&#45;&gt;Node4 -->
<g id="edge3" class="edge"><title>Node3&#45;&gt;Node4</title>
<path fill="none" stroke="midnightblue" d="M597.738,-85.1788C616.957,-79.8882 637.81,-74.1478 656.323,-69.0516"/>
<polygon fill="midnightblue" stroke="midnightblue" points="596.571,-81.8699 587.858,-87.8986 598.429,-88.6189 596.571,-81.8699"/>
</g>
<!-- Node5&#45;&gt;Node4 -->
<g id="edge5" class="edge"><title>Node5&#45;&gt;Node4</title>
<path fill="none" stroke="midnightblue" d="M613.646,-54C622.599,-54 631.666,-54 640.479,-54"/>
<polygon fill="midnightblue" stroke="midnightblue" points="613.606,-50.5001 603.606,-54 613.606,-57.5001 613.606,-50.5001"/>
</g>
<!-- Node6&#45;&gt;Node4 -->
<g id="edge7" class="edge"><title>Node6&#45;&gt;Node4</title>
<path fill="none" stroke="midnightblue" d="M412.046,-15.3797C466.549,-16.5597 539.878,-19.9388 604,-29 620.811,-31.3756 638.866,-35.1211 655.268,-38.9968"/>
<polygon fill="midnightblue" stroke="midnightblue" points="411.817,-11.8746 401.751,-15.178 411.68,-18.8733 411.817,-11.8746"/>
</g>
<!-- Node6&#45;&gt;Node5 -->
<g id="edge8" class="edge"><title>Node6&#45;&gt;Node5</title>
<path fill="none" stroke="midnightblue" d="M411.495,-30.6964C427.7,-33.8564 444.616,-37.1551 460.45,-40.2428"/>
<polygon fill="midnightblue" stroke="midnightblue" points="411.998,-27.2287 401.513,-28.7499 410.658,-34.0993 411.998,-27.2287"/>
</g>
</g>
</svg>
        <g id="navigator" transform="translate(0 0)" fill="#404254">
                <rect fill="#f2f5e9" fill-opacity="0.5" stroke="#606060" stroke-width=".5" x="0" y="0" width="60" height="60"/>
                <use id="zoomplus" xlink:href="#zoomPlus" x="17" y="9" onmousedown="handleZoom(evt,'in')"/>
                <use id="zoomminus" xlink:href="#zoomMin" x="42" y="9" onmousedown="handleZoom(evt,'out')"/>
                <use id="reset" xlink:href="#resetDef" x="30" y="36" onmousedown="handleReset()"/>
                <g id="arrowUp" xlink:href="#dirArrow" transform="translate(30 24)" onmousedown="handlePan(0,-1)">
                  <use xlink:href="#rim" fill="#404040">
                        <set attributeName="fill" to="#808080" begin="arrowUp.mouseover" end="arrowUp.mouseout"/>
                  </use>
                  <path fill="none" stroke="white" stroke-width="1.5" d="M0,-3.0v7 M-2.5,-0.5L0,-3.0L2.5,-0.5"/>
                </g>
                <g id="arrowRight" xlink:href="#dirArrow" transform="rotate(90) translate(36 -43)" onmousedown="handlePan(1,0)">
                  <use xlink:href="#rim" fill="#404040">
                        <set attributeName="fill" to="#808080" begin="arrowRight.mouseover" end="arrowRight.mouseout"/>
                  </use>
                  <path fill="none" stroke="white" stroke-width="1.5" d="M0,-3.0v7 M-2.5,-0.5L0,-3.0L2.5,-0.5"/>
                </g>
                <g id="arrowDown" xlink:href="#dirArrow" transform="rotate(180) translate(-30 -48)" onmousedown="handlePan(0,1)">
                  <use xlink:href="#rim" fill="#404040">
                        <set attributeName="fill" to="#808080" begin="arrowDown.mouseover" end="arrowDown.mouseout"/>
                  </use>
                  <path fill="none" stroke="white" stroke-width="1.5" d="M0,-3.0v7 M-2.5,-0.5L0,-3.0L2.5,-0.5"/>
                </g>
                <g id="arrowLeft" xlink:href="#dirArrow" transform="rotate(270) translate(-36 17)" onmousedown="handlePan(-1,0)">
                  <use xlink:href="#rim" fill="#404040">
                        <set attributeName="fill" to="#808080" begin="arrowLeft.mouseover" end="arrowLeft.mouseout"/>
                  </use>
                  <path fill="none" stroke="white" stroke-width="1.5" d="M0,-3.0v7 M-2.5,-0.5L0,-3.0L2.5,-0.5"/>
                </g>
        </g>
        <svg viewBox="0 0 15 15" width="100%" height="30px" preserveAspectRatio="xMaxYMin meet">
         <g id="arrow_out" transform="scale(0.3 0.3)">
          <a xlink:href="classmodel_1_1instructions_1_1_instruction_a652dd9af931f204857449f586c290801_icgraph_org.svg" target="_base">
           <rect id="button" ry="5" rx="5" y="6" x="6" height="38" width="38"
                fill="#f2f5e9" fill-opacity="0.5" stroke="#606060" stroke-width="1.0"/>
           <path id="arrow"
             d="M 11.500037,31.436501 C 11.940474,20.09759 22.043105,11.32322 32.158766,21.979434 L 37.068811,17.246167 C 37.068811,17.246167 37.088388,32 37.088388,32 L 22.160133,31.978069 C 22.160133,31.978069 26.997745,27.140456 26.997745,27.140456 C 18.528582,18.264221 13.291696,25.230495 11.500037,31.436501 z"
             style="fill:#404040;"/>
          </a>
         </g>
        </svg>
</svg>
