<?xml version="1.0" encoding="UTF-8" standalone="no"?>
<!DOCTYPE svg PUBLIC "-//W3C//DTD SVG 1.1//EN"
 "http://www.w3.org/Graphics/SVG/1.1/DTD/svg11.dtd">
<!-- Generated by graphviz version 2.36.0 (20140111.2315)
 -->
<!-- Title: model.ExecutionEnvironment.addCommand Pages: 1 -->
<svg width="1298pt" height="96pt"
 viewBox="0.00 0.00 1298.00 96.00" xmlns="http://www.w3.org/2000/svg" xmlns:xlink="http://www.w3.org/1999/xlink">
<g id="graph0" class="graph" transform="scale(1 1) rotate(0) translate(4 92)">
<title>model.ExecutionEnvironment.addCommand</title>
<polygon fill="white" stroke="none" points="-4,4 -4,-92 1294,-92 1294,4 -4,4"/>
<!-- Node1 -->
<g id="node1" class="node"><title>Node1</title>
<polygon fill="#bfbfbf" stroke="black" points="0,-36 0,-66 178,-66 178,-36 0,-36"/>
<text text-anchor="start" x="8" y="-54" font-family="Helvetica,sans-Serif" font-size="10.00">model.ExecutionEnvironment.add</text>
<text text-anchor="middle" x="89" y="-43" font-family="Helvetica,sans-Serif" font-size="10.00">Command</text>
</g>
<!-- Node2 -->
<g id="node2" class="node"><title>Node2</title>
<g id="a_node2"><a xlink:href="../../d5/dbb/classmodel_1_1instructions_1_1_control_instruction.html#a3fb86527d4ea267d661780b12d33344e" target="_top" xlink:title="model.instructions.Control\lInstruction.addToMap">
<polygon fill="white" stroke="black" points="214.5,-58 214.5,-88 357.5,-88 357.5,-58 214.5,-58"/>
<text text-anchor="start" x="222.5" y="-76" font-family="Helvetica,sans-Serif" font-size="10.00">model.instructions.Control</text>
<text text-anchor="middle" x="286" y="-65" font-family="Helvetica,sans-Serif" font-size="10.00">Instruction.addToMap</text>
</a>
</g>
</g>
<!-- Node1&#45;&gt;Node2 -->
<g id="edge1" class="edge"><title>Node1&#45;&gt;Node2</title>
<path fill="none" stroke="midnightblue" d="M188.051,-62.0621C196.887,-63.059 205.717,-64.0553 214.252,-65.0181"/>
<polygon fill="midnightblue" stroke="midnightblue" points="188.416,-58.5812 178.087,-60.938 187.631,-65.5371 188.416,-58.5812"/>
</g>
<!-- Node4 -->
<g id="node4" class="node"><title>Node4</title>
<g id="a_node4"><a xlink:href="../../dc/df5/classmodel_1_1_parser.html#ae83c95a5190fc22b9b70b1a40b76661c" target="_top" xlink:title="model.Parser.makeTree">
<polygon fill="white" stroke="black" points="222,-19.5 222,-38.5 350,-38.5 350,-19.5 222,-19.5"/>
<text text-anchor="middle" x="286" y="-26.5" font-family="Helvetica,sans-Serif" font-size="10.00">model.Parser.makeTree</text>
</a>
</g>
</g>
<!-- Node1&#45;&gt;Node4 -->
<g id="edge3" class="edge"><title>Node1&#45;&gt;Node4</title>
<path fill="none" stroke="midnightblue" d="M188.131,-39.9288C199.576,-38.6376 211.009,-37.3477 221.8,-36.1303"/>
<polygon fill="midnightblue" stroke="midnightblue" points="187.631,-36.4629 178.087,-41.062 188.416,-43.4188 187.631,-36.4629"/>
</g>
<!-- Node3 -->
<g id="node3" class="node"><title>Node3</title>
<g id="a_node3"><a xlink:href="../../d5/dbb/classmodel_1_1instructions_1_1_control_instruction.html#a5ec77a176debc7a35ce9026c808d021e" target="_top" xlink:title="model.instructions.Control\lInstruction.execute">
<polygon fill="white" stroke="black" points="405.5,-58 405.5,-88 548.5,-88 548.5,-58 405.5,-58"/>
<text text-anchor="start" x="413.5" y="-76" font-family="Helvetica,sans-Serif" font-size="10.00">model.instructions.Control</text>
<text text-anchor="middle" x="477" y="-65" font-family="Helvetica,sans-Serif" font-size="10.00">Instruction.execute</text>
</a>
</g>
</g>
<!-- Node2&#45;&gt;Node3 -->
<g id="edge2" class="edge"><title>Node2&#45;&gt;Node3</title>
<path fill="none" stroke="midnightblue" d="M368.012,-73C380.465,-73 393.238,-73 405.44,-73"/>
<polygon fill="midnightblue" stroke="midnightblue" points="367.645,-69.5001 357.645,-73 367.645,-76.5001 367.645,-69.5001"/>
</g>
<!-- Node5 -->
<g id="node5" class="node"><title>Node5</title>
<g id="a_node5"><a xlink:href="../../dc/df5/classmodel_1_1_parser.html#ab83c099e5a13c82b1a12d7eedda6fbf9" target="_top" xlink:title="model.Parser.parseAndExecute">
<polygon fill="white" stroke="black" points="394,-19.5 394,-38.5 560,-38.5 560,-19.5 394,-19.5"/>
<text text-anchor="middle" x="477" y="-26.5" font-family="Helvetica,sans-Serif" font-size="10.00">model.Parser.parseAndExecute</text>
</a>
</g>
</g>
<!-- Node4&#45;&gt;Node5 -->
<g id="edge4" class="edge"><title>Node4&#45;&gt;Node5</title>
<path fill="none" stroke="midnightblue" d="M360.493,-29C371.379,-29 382.656,-29 393.706,-29"/>
<polygon fill="midnightblue" stroke="midnightblue" points="360.197,-25.5001 350.197,-29 360.197,-32.5001 360.197,-25.5001"/>
</g>
<!-- Node6 -->
<g id="node6" class="node"><title>Node6</title>
<g id="a_node6"><a xlink:href="../../d4/dd9/classcontroller_1_1_s_logo_controller.html#a1a88b376059e31c3f311d75fa640d848" target="_top" xlink:title="controller.SLogoController.parse\lInput">
<polygon fill="white" stroke="black" points="596,-14 596,-44 766,-44 766,-14 596,-14"/>
<text text-anchor="start" x="604" y="-32" font-family="Helvetica,sans-Serif" font-size="10.00">controller.SLogoController.parse</text>
<text text-anchor="middle" x="681" y="-21" font-family="Helvetica,sans-Serif" font-size="10.00">Input</text>
</a>
</g>
</g>
<!-- Node5&#45;&gt;Node6 -->
<g id="edge5" class="edge"><title>Node5&#45;&gt;Node6</title>
<path fill="none" stroke="midnightblue" d="M570.184,-29C578.768,-29 587.438,-29 595.943,-29"/>
<polygon fill="midnightblue" stroke="midnightblue" points="570.161,-25.5001 560.161,-29 570.161,-32.5001 570.161,-25.5001"/>
</g>
<!-- Node7 -->
<g id="node7" class="node"><title>Node7</title>
<g id="a_node7"><a xlink:href="../../d1/dc7/classview_1_1_side_bar.html#ac97dbdf731a291e46ba643c78b4c5a93" target="_top" xlink:title="view.SideBar.createHistoryPane">
<polygon fill="white" stroke="black" points="802.5,-38.5 802.5,-57.5 969.5,-57.5 969.5,-38.5 802.5,-38.5"/>
<text text-anchor="middle" x="886" y="-45.5" font-family="Helvetica,sans-Serif" font-size="10.00">view.SideBar.createHistoryPane</text>
</a>
</g>
</g>
<!-- Node6&#45;&gt;Node7 -->
<g id="edge6" class="edge"><title>Node6&#45;&gt;Node7</title>
<path fill="none" stroke="midnightblue" d="M776.221,-37.8187C784.941,-38.6348 793.733,-39.4577 802.337,-40.2631"/>
<polygon fill="midnightblue" stroke="midnightblue" points="776.316,-34.3124 766.033,-36.8652 775.664,-41.2819 776.316,-34.3124"/>
</g>
<!-- Node9 -->
<g id="node9" class="node"><title>Node9</title>
<g id="a_node9"><a xlink:href="../../da/dc8/classview_1_1_editor.html#a149e24d4e5e4464f3fb1601f2717663b" target="_top" xlink:title="view.Editor.parse">
<polygon fill="white" stroke="black" points="838,-0.5 838,-19.5 934,-19.5 934,-0.5 838,-0.5"/>
<text text-anchor="middle" x="886" y="-7.5" font-family="Helvetica,sans-Serif" font-size="10.00">view.Editor.parse</text>
</a>
</g>
</g>
<!-- Node6&#45;&gt;Node9 -->
<g id="edge8" class="edge"><title>Node6&#45;&gt;Node9</title>
<path fill="none" stroke="midnightblue" d="M776.163,-20.1867C797.585,-18.1817 819.444,-16.1357 837.899,-14.4085"/>
<polygon fill="midnightblue" stroke="midnightblue" points="775.664,-16.7181 766.033,-21.1348 776.316,-23.6876 775.664,-16.7181"/>
</g>
<!-- Node8 -->
<g id="node8" class="node"><title>Node8</title>
<g id="a_node8"><a xlink:href="../../d1/dc7/classview_1_1_side_bar.html#a0fa73b1ce839f52ea59de1b5d68d9195" target="_top" xlink:title="view.SideBar.SideBar">
<polygon fill="white" stroke="black" points="1023,-38.5 1023,-57.5 1139,-57.5 1139,-38.5 1023,-38.5"/>
<text text-anchor="middle" x="1081" y="-45.5" font-family="Helvetica,sans-Serif" font-size="10.00">view.SideBar.SideBar</text>
</a>
</g>
</g>
<!-- Node7&#45;&gt;Node8 -->
<g id="edge7" class="edge"><title>Node7&#45;&gt;Node8</title>
<path fill="none" stroke="midnightblue" d="M979.812,-48C994.484,-48 1009.27,-48 1022.81,-48"/>
<polygon fill="midnightblue" stroke="midnightblue" points="979.689,-44.5001 969.689,-48 979.689,-51.5001 979.689,-44.5001"/>
</g>
<!-- Node10 -->
<g id="node10" class="node"><title>Node10</title>
<g id="a_node10"><a xlink:href="../../da/dc8/classview_1_1_editor.html#abd790752cfd8c9f01fb5b27a3680a982" target="_top" xlink:title="view.Editor.createRunButton">
<polygon fill="white" stroke="black" points="1006.5,-0.5 1006.5,-19.5 1155.5,-19.5 1155.5,-0.5 1006.5,-0.5"/>
<text text-anchor="middle" x="1081" y="-7.5" font-family="Helvetica,sans-Serif" font-size="10.00">view.Editor.createRunButton</text>
</a>
</g>
</g>
<!-- Node9&#45;&gt;Node10 -->
<g id="edge9" class="edge"><title>Node9&#45;&gt;Node10</title>
<path fill="none" stroke="midnightblue" d="M944.4,-10C963.791,-10 985.718,-10 1006.2,-10"/>
<polygon fill="midnightblue" stroke="midnightblue" points="944.213,-6.5001 934.213,-10 944.213,-13.5001 944.213,-6.5001"/>
</g>
<!-- Node11 -->
<g id="node11" class="node"><title>Node11</title>
<g id="a_node11"><a xlink:href="../../da/dc8/classview_1_1_editor.html#a3905b799edd56b1c60528737ca88ce28" target="_top" xlink:title="view.Editor.Editor">
<polygon fill="white" stroke="black" points="1192.5,-0.5 1192.5,-19.5 1289.5,-19.5 1289.5,-0.5 1192.5,-0.5"/>
<text text-anchor="middle" x="1241" y="-7.5" font-family="Helvetica,sans-Serif" font-size="10.00">view.Editor.Editor</text>
</a>
</g>
</g>
<!-- Node10&#45;&gt;Node11 -->
<g id="edge10" class="edge"><title>Node10&#45;&gt;Node11</title>
<path fill="none" stroke="midnightblue" d="M1166.07,-10C1175.06,-10 1183.96,-10 1192.3,-10"/>
<polygon fill="midnightblue" stroke="midnightblue" points="1165.91,-6.5001 1155.91,-10 1165.91,-13.5001 1165.91,-6.5001"/>
</g>
</g>
</svg>
