<?xml version="1.0" encoding="UTF-8" standalone="no"?>
<!DOCTYPE svg PUBLIC "-//W3C//DTD SVG 1.1//EN"
 "http://www.w3.org/Graphics/SVG/1.1/DTD/svg11.dtd">
<!-- Generated by graphviz version 2.36.0 (20140111.2315)
 -->
<!-- Title: model.ExecutionEnvironment.addCommand Pages: 1 -->
<svg width="1094pt" height="153pt"
 viewBox="0.00 0.00 1094.00 153.00" xmlns="http://www.w3.org/2000/svg" xmlns:xlink="http://www.w3.org/1999/xlink">
<g id="graph0" class="graph" transform="scale(1 1) rotate(0) translate(4 149)">
<title>model.ExecutionEnvironment.addCommand</title>
<polygon fill="white" stroke="none" points="-4,4 -4,-149 1090,-149 1090,4 -4,4"/>
<!-- Node1 -->
<g id="node1" class="node"><title>Node1</title>
<polygon fill="#bfbfbf" stroke="black" points="0,-74 0,-104 178,-104 178,-74 0,-74"/>
<text text-anchor="start" x="8" y="-92" font-family="Helvetica,sans-Serif" font-size="10.00">model.ExecutionEnvironment.add</text>
<text text-anchor="middle" x="89" y="-81" font-family="Helvetica,sans-Serif" font-size="10.00">Command</text>
</g>
<!-- Node2 -->
<g id="node2" class="node"><title>Node2</title>
<g id="a_node2"><a xlink:href="../../d5/dbb/classmodel_1_1instructions_1_1_control_instruction.html#a3fb86527d4ea267d661780b12d33344e" target="_top" xlink:title="model.instructions.Control\lInstruction.addToMap">
<polygon fill="white" stroke="black" points="214.5,-96 214.5,-126 357.5,-126 357.5,-96 214.5,-96"/>
<text text-anchor="start" x="222.5" y="-114" font-family="Helvetica,sans-Serif" font-size="10.00">model.instructions.Control</text>
<text text-anchor="middle" x="286" y="-103" font-family="Helvetica,sans-Serif" font-size="10.00">Instruction.addToMap</text>
</a>
</g>
</g>
<!-- Node1&#45;&gt;Node2 -->
<g id="edge1" class="edge"><title>Node1&#45;&gt;Node2</title>
<path fill="none" stroke="midnightblue" d="M188.051,-100.062C196.887,-101.059 205.717,-102.055 214.252,-103.018"/>
<polygon fill="midnightblue" stroke="midnightblue" points="188.416,-96.5812 178.087,-98.938 187.631,-103.537 188.416,-96.5812"/>
</g>
<!-- Node4 -->
<g id="node4" class="node"><title>Node4</title>
<g id="a_node4"><a xlink:href="../../dc/df5/classmodel_1_1_parser.html#ae83c95a5190fc22b9b70b1a40b76661c" target="_top" xlink:title="model.Parser.makeTree">
<polygon fill="white" stroke="black" points="222,-57.5 222,-76.5 350,-76.5 350,-57.5 222,-57.5"/>
<text text-anchor="middle" x="286" y="-64.5" font-family="Helvetica,sans-Serif" font-size="10.00">model.Parser.makeTree</text>
</a>
</g>
</g>
<!-- Node1&#45;&gt;Node4 -->
<g id="edge3" class="edge"><title>Node1&#45;&gt;Node4</title>
<path fill="none" stroke="midnightblue" d="M188.131,-77.9288C199.576,-76.6376 211.009,-75.3477 221.8,-74.1303"/>
<polygon fill="midnightblue" stroke="midnightblue" points="187.631,-74.4629 178.087,-79.062 188.416,-81.4188 187.631,-74.4629"/>
</g>
<!-- Node3 -->
<g id="node3" class="node"><title>Node3</title>
<g id="a_node3"><a xlink:href="../../d5/dbb/classmodel_1_1instructions_1_1_control_instruction.html#a5ec77a176debc7a35ce9026c808d021e" target="_top" xlink:title="model.instructions.Control\lInstruction.execute">
<polygon fill="white" stroke="black" points="405.5,-96 405.5,-126 548.5,-126 548.5,-96 405.5,-96"/>
<text text-anchor="start" x="413.5" y="-114" font-family="Helvetica,sans-Serif" font-size="10.00">model.instructions.Control</text>
<text text-anchor="middle" x="477" y="-103" font-family="Helvetica,sans-Serif" font-size="10.00">Instruction.execute</text>
</a>
</g>
</g>
<!-- Node2&#45;&gt;Node3 -->
<g id="edge2" class="edge"><title>Node2&#45;&gt;Node3</title>
<path fill="none" stroke="midnightblue" d="M368.012,-111C380.465,-111 393.238,-111 405.44,-111"/>
<polygon fill="midnightblue" stroke="midnightblue" points="367.645,-107.5 357.645,-111 367.645,-114.5 367.645,-107.5"/>
</g>
<!-- Node5 -->
<g id="node5" class="node"><title>Node5</title>
<g id="a_node5"><a xlink:href="../../dc/df5/classmodel_1_1_parser.html#ab83c099e5a13c82b1a12d7eedda6fbf9" target="_top" xlink:title="model.Parser.parseAndExecute">
<polygon fill="white" stroke="black" points="394,-57.5 394,-76.5 560,-76.5 560,-57.5 394,-57.5"/>
<text text-anchor="middle" x="477" y="-64.5" font-family="Helvetica,sans-Serif" font-size="10.00">model.Parser.parseAndExecute</text>
</a>
</g>
</g>
<!-- Node4&#45;&gt;Node5 -->
<g id="edge4" class="edge"><title>Node4&#45;&gt;Node5</title>
<path fill="none" stroke="midnightblue" d="M360.493,-67C371.379,-67 382.656,-67 393.706,-67"/>
<polygon fill="midnightblue" stroke="midnightblue" points="360.197,-63.5001 350.197,-67 360.197,-70.5001 360.197,-63.5001"/>
</g>
<!-- Node6 -->
<g id="node6" class="node"><title>Node6</title>
<g id="a_node6"><a xlink:href="../../d4/dd9/classcontroller_1_1_s_logo_controller.html#a1a88b376059e31c3f311d75fa640d848" target="_top" xlink:title="controller.SLogoController.parse\lInput">
<polygon fill="white" stroke="black" points="596,-115 596,-145 766,-145 766,-115 596,-115"/>
<text text-anchor="start" x="604" y="-133" font-family="Helvetica,sans-Serif" font-size="10.00">controller.SLogoController.parse</text>
<text text-anchor="middle" x="681" y="-122" font-family="Helvetica,sans-Serif" font-size="10.00">Input</text>
</a>
</g>
</g>
<!-- Node5&#45;&gt;Node6 -->
<g id="edge5" class="edge"><title>Node5&#45;&gt;Node6</title>
<path fill="none" stroke="midnightblue" d="M534.864,-79.1085C543.383,-81.4278 551.99,-84.0632 560,-87 576.795,-93.1581 579.364,-98.4236 596,-105 605.056,-108.58 614.834,-111.932 624.407,-114.947"/>
<polygon fill="midnightblue" stroke="midnightblue" points="535.503,-75.6586 524.945,-76.5321 533.744,-82.4338 535.503,-75.6586"/>
</g>
<!-- Node7 -->
<g id="node7" class="node"><title>Node7</title>
<g id="a_node7"><a xlink:href="../../da/dc8/classview_1_1_editor.html#a149e24d4e5e4464f3fb1601f2717663b" target="_top" xlink:title="view.Editor.parse">
<polygon fill="white" stroke="black" points="633,-76.5 633,-95.5 729,-95.5 729,-76.5 633,-76.5"/>
<text text-anchor="middle" x="681" y="-83.5" font-family="Helvetica,sans-Serif" font-size="10.00">view.Editor.parse</text>
</a>
</g>
</g>
<!-- Node5&#45;&gt;Node7 -->
<g id="edge6" class="edge"><title>Node5&#45;&gt;Node7</title>
<path fill="none" stroke="midnightblue" d="M570.403,-75.6914C592.077,-77.7301 614.284,-79.8188 632.99,-81.5783"/>
<polygon fill="midnightblue" stroke="midnightblue" points="570.445,-72.18 560.161,-74.728 569.789,-79.1492 570.445,-72.18"/>
</g>
<!-- Node10 -->
<g id="node10" class="node"><title>Node10</title>
<g id="a_node10"><a xlink:href="../../d1/dc7/classview_1_1_side_bar.html#a9cca415e486afd24cccdd581f1938b13" target="_top" xlink:title="view.SideBar.SideBar">
<polygon fill="white" stroke="black" points="819,-19.5 819,-38.5 935,-38.5 935,-19.5 819,-19.5"/>
<text text-anchor="middle" x="877" y="-26.5" font-family="Helvetica,sans-Serif" font-size="10.00">view.SideBar.SideBar</text>
</a>
</g>
</g>
<!-- Node5&#45;&gt;Node10 -->
<g id="edge9" class="edge"><title>Node5&#45;&gt;Node10</title>
<path fill="none" stroke="midnightblue" d="M570.609,-58.1579C647.305,-50.8352 753.865,-40.6611 818.708,-34.4701"/>
<polygon fill="midnightblue" stroke="midnightblue" points="570.088,-54.6917 560.466,-59.1264 570.753,-61.66 570.088,-54.6917"/>
</g>
<!-- Node11 -->
<g id="node11" class="node"><title>Node11</title>
<g id="a_node11"><a xlink:href="../../d1/dc7/classview_1_1_side_bar.html#ac97dbdf731a291e46ba643c78b4c5a93" target="_top" xlink:title="view.SideBar.createHistoryPane">
<polygon fill="white" stroke="black" points="597.5,-0.5 597.5,-19.5 764.5,-19.5 764.5,-0.5 597.5,-0.5"/>
<text text-anchor="middle" x="681" y="-7.5" font-family="Helvetica,sans-Serif" font-size="10.00">view.SideBar.createHistoryPane</text>
</a>
</g>
</g>
<!-- Node5&#45;&gt;Node11 -->
<g id="edge10" class="edge"><title>Node5&#45;&gt;Node11</title>
<path fill="none" stroke="midnightblue" d="M521.891,-54.615C559.186,-44.0912 611.956,-29.2007 646.079,-19.5716"/>
<polygon fill="midnightblue" stroke="midnightblue" points="520.484,-51.3752 511.81,-57.4595 522.385,-58.1121 520.484,-51.3752"/>
</g>
<!-- Node8 -->
<g id="node8" class="node"><title>Node8</title>
<g id="a_node8"><a xlink:href="../../da/dc8/classview_1_1_editor.html#abd790752cfd8c9f01fb5b27a3680a982" target="_top" xlink:title="view.Editor.createRunButton">
<polygon fill="white" stroke="black" points="802.5,-76.5 802.5,-95.5 951.5,-95.5 951.5,-76.5 802.5,-76.5"/>
<text text-anchor="middle" x="877" y="-83.5" font-family="Helvetica,sans-Serif" font-size="10.00">view.Editor.createRunButton</text>
</a>
</g>
</g>
<!-- Node7&#45;&gt;Node8 -->
<g id="edge7" class="edge"><title>Node7&#45;&gt;Node8</title>
<path fill="none" stroke="midnightblue" d="M739.48,-86C759.144,-86 781.421,-86 802.191,-86"/>
<polygon fill="midnightblue" stroke="midnightblue" points="739.458,-82.5001 729.458,-86 739.458,-89.5001 739.458,-82.5001"/>
</g>
<!-- Node9 -->
<g id="node9" class="node"><title>Node9</title>
<g id="a_node9"><a xlink:href="../../da/dc8/classview_1_1_editor.html#a5b88172770caabfc64e9b7adaee1a2c5" target="_top" xlink:title="view.Editor.Editor">
<polygon fill="white" stroke="black" points="988.5,-76.5 988.5,-95.5 1085.5,-95.5 1085.5,-76.5 988.5,-76.5"/>
<text text-anchor="middle" x="1037" y="-83.5" font-family="Helvetica,sans-Serif" font-size="10.00">view.Editor.Editor</text>
</a>
</g>
</g>
<!-- Node8&#45;&gt;Node9 -->
<g id="edge8" class="edge"><title>Node8&#45;&gt;Node9</title>
<path fill="none" stroke="midnightblue" d="M962.07,-86C971.056,-86 979.955,-86 988.298,-86"/>
<polygon fill="midnightblue" stroke="midnightblue" points="961.911,-82.5001 951.911,-86 961.911,-89.5001 961.911,-82.5001"/>
</g>
<!-- Node11&#45;&gt;Node10 -->
<g id="edge11" class="edge"><title>Node11&#45;&gt;Node10</title>
<path fill="none" stroke="midnightblue" d="M774.879,-19.0964C789.846,-20.5623 804.945,-22.041 818.746,-23.3927"/>
<polygon fill="midnightblue" stroke="midnightblue" points="774.848,-15.5767 764.555,-18.0853 774.166,-22.5434 774.848,-15.5767"/>
</g>
</g>
</svg>
