<?xml version="1.0" encoding="UTF-8" standalone="no"?>
<!DOCTYPE svg PUBLIC "-//W3C//DTD SVG 1.1//EN"
 "http://www.w3.org/Graphics/SVG/1.1/DTD/svg11.dtd">
<!-- Generated by graphviz version 2.36.0 (20140111.2315)
 -->
<!-- Title: model.ExecutionEnvironment.getUserCommandMap Pages: 1 -->
<svg width="1076pt" height="153pt"
 viewBox="0.00 0.00 1076.00 153.00" xmlns="http://www.w3.org/2000/svg" xmlns:xlink="http://www.w3.org/1999/xlink">
<g id="graph0" class="graph" transform="scale(1 1) rotate(0) translate(4 149)">
<title>model.ExecutionEnvironment.getUserCommandMap</title>
<polygon fill="white" stroke="none" points="-4,4 -4,-149 1072,-149 1072,4 -4,4"/>
<!-- Node1 -->
<g id="node1" class="node"><title>Node1</title>
<polygon fill="#bfbfbf" stroke="black" points="0,-33 0,-63 176,-63 176,-33 0,-33"/>
<text text-anchor="start" x="8" y="-51" font-family="Helvetica,sans-Serif" font-size="10.00">model.ExecutionEnvironment.get</text>
<text text-anchor="middle" x="88" y="-40" font-family="Helvetica,sans-Serif" font-size="10.00">UserCommandMap</text>
</g>
<!-- Node2 -->
<g id="node2" class="node"><title>Node2</title>
<g id="a_node2"><a xlink:href="../../dc/df5/classmodel_1_1_parser.html#ae83c95a5190fc22b9b70b1a40b76661c" target="_top" xlink:title="model.Parser.makeTree">
<polygon fill="white" stroke="black" points="212,-57.5 212,-76.5 340,-76.5 340,-57.5 212,-57.5"/>
<text text-anchor="middle" x="276" y="-64.5" font-family="Helvetica,sans-Serif" font-size="10.00">model.Parser.makeTree</text>
</a>
</g>
</g>
<!-- Node1&#45;&gt;Node2 -->
<g id="edge1" class="edge"><title>Node1&#45;&gt;Node2</title>
<path fill="none" stroke="midnightblue" d="M186.235,-57.9326C194.941,-58.8219 203.598,-59.7062 211.899,-60.5542"/>
<polygon fill="midnightblue" stroke="midnightblue" points="186.313,-54.4225 176.01,-56.8881 185.602,-61.3863 186.313,-54.4225"/>
</g>
<!-- Node10 -->
<g id="node10" class="node"><title>Node10</title>
<g id="a_node10"><a xlink:href="../../d6/de7/classview_1_1_s_logo_view.html#a2c08b9fa590f75ca8f2ec736a8a37e90" target="_top" xlink:title="view.SLogoView.update">
<polygon fill="white" stroke="black" points="212.5,-19.5 212.5,-38.5 339.5,-38.5 339.5,-19.5 212.5,-19.5"/>
<text text-anchor="middle" x="276" y="-26.5" font-family="Helvetica,sans-Serif" font-size="10.00">view.SLogoView.update</text>
</a>
</g>
</g>
<!-- Node1&#45;&gt;Node10 -->
<g id="edge10" class="edge"><title>Node1&#45;&gt;Node10</title>
<path fill="none" stroke="midnightblue" d="M186.106,-38.0806C195.045,-37.1674 203.933,-36.2595 212.44,-35.3905"/>
<polygon fill="midnightblue" stroke="midnightblue" points="185.602,-34.6137 176.01,-39.1119 186.313,-41.5775 185.602,-34.6137"/>
</g>
<!-- Node3 -->
<g id="node3" class="node"><title>Node3</title>
<g id="a_node3"><a xlink:href="../../dc/df5/classmodel_1_1_parser.html#ab83c099e5a13c82b1a12d7eedda6fbf9" target="_top" xlink:title="model.Parser.parseAndExecute">
<polygon fill="white" stroke="black" points="376,-57.5 376,-76.5 542,-76.5 542,-57.5 376,-57.5"/>
<text text-anchor="middle" x="459" y="-64.5" font-family="Helvetica,sans-Serif" font-size="10.00">model.Parser.parseAndExecute</text>
</a>
</g>
</g>
<!-- Node2&#45;&gt;Node3 -->
<g id="edge2" class="edge"><title>Node2&#45;&gt;Node3</title>
<path fill="none" stroke="midnightblue" d="M350.192,-67C358.608,-67 367.231,-67 375.755,-67"/>
<polygon fill="midnightblue" stroke="midnightblue" points="350.051,-63.5001 340.051,-67 350.051,-70.5001 350.051,-63.5001"/>
</g>
<!-- Node4 -->
<g id="node4" class="node"><title>Node4</title>
<g id="a_node4"><a xlink:href="../../d4/dd9/classcontroller_1_1_s_logo_controller.html#a1a88b376059e31c3f311d75fa640d848" target="_top" xlink:title="controller.SLogoController.parse\lInput">
<polygon fill="white" stroke="black" points="578,-115 578,-145 748,-145 748,-115 578,-115"/>
<text text-anchor="start" x="586" y="-133" font-family="Helvetica,sans-Serif" font-size="10.00">controller.SLogoController.parse</text>
<text text-anchor="middle" x="663" y="-122" font-family="Helvetica,sans-Serif" font-size="10.00">Input</text>
</a>
</g>
</g>
<!-- Node3&#45;&gt;Node4 -->
<g id="edge3" class="edge"><title>Node3&#45;&gt;Node4</title>
<path fill="none" stroke="midnightblue" d="M498.77,-79.7252C521.76,-87.2112 551.496,-96.7894 578,-105 588.61,-108.287 599.999,-111.732 610.861,-114.978"/>
<polygon fill="midnightblue" stroke="midnightblue" points="499.631,-76.3247 489.039,-76.5505 497.46,-82.9795 499.631,-76.3247"/>
</g>
<!-- Node5 -->
<g id="node5" class="node"><title>Node5</title>
<g id="a_node5"><a xlink:href="../../da/dc8/classview_1_1_editor.html#a149e24d4e5e4464f3fb1601f2717663b" target="_top" xlink:title="view.Editor.parse">
<polygon fill="white" stroke="black" points="615,-76.5 615,-95.5 711,-95.5 711,-76.5 615,-76.5"/>
<text text-anchor="middle" x="663" y="-83.5" font-family="Helvetica,sans-Serif" font-size="10.00">view.Editor.parse</text>
</a>
</g>
</g>
<!-- Node3&#45;&gt;Node5 -->
<g id="edge4" class="edge"><title>Node3&#45;&gt;Node5</title>
<path fill="none" stroke="midnightblue" d="M552.403,-75.6914C574.077,-77.7301 596.284,-79.8188 614.99,-81.5783"/>
<polygon fill="midnightblue" stroke="midnightblue" points="552.445,-72.18 542.161,-74.728 551.789,-79.1492 552.445,-72.18"/>
</g>
<!-- Node8 -->
<g id="node8" class="node"><title>Node8</title>
<g id="a_node8"><a xlink:href="../../d1/dc7/classview_1_1_side_bar.html#a9cca415e486afd24cccdd581f1938b13" target="_top" xlink:title="view.SideBar.SideBar">
<polygon fill="white" stroke="black" points="801,-19.5 801,-38.5 917,-38.5 917,-19.5 801,-19.5"/>
<text text-anchor="middle" x="859" y="-26.5" font-family="Helvetica,sans-Serif" font-size="10.00">view.SideBar.SideBar</text>
</a>
</g>
</g>
<!-- Node3&#45;&gt;Node8 -->
<g id="edge7" class="edge"><title>Node3&#45;&gt;Node8</title>
<path fill="none" stroke="midnightblue" d="M552.609,-58.1579C629.305,-50.8352 735.865,-40.6611 800.708,-34.4701"/>
<polygon fill="midnightblue" stroke="midnightblue" points="552.088,-54.6917 542.466,-59.1264 552.753,-61.66 552.088,-54.6917"/>
</g>
<!-- Node9 -->
<g id="node9" class="node"><title>Node9</title>
<g id="a_node9"><a xlink:href="../../d1/dc7/classview_1_1_side_bar.html#ac97dbdf731a291e46ba643c78b4c5a93" target="_top" xlink:title="view.SideBar.createHistoryPane">
<polygon fill="white" stroke="black" points="579.5,-0.5 579.5,-19.5 746.5,-19.5 746.5,-0.5 579.5,-0.5"/>
<text text-anchor="middle" x="663" y="-7.5" font-family="Helvetica,sans-Serif" font-size="10.00">view.SideBar.createHistoryPane</text>
</a>
</g>
</g>
<!-- Node3&#45;&gt;Node9 -->
<g id="edge8" class="edge"><title>Node3&#45;&gt;Node9</title>
<path fill="none" stroke="midnightblue" d="M503.891,-54.615C541.186,-44.0912 593.956,-29.2007 628.079,-19.5716"/>
<polygon fill="midnightblue" stroke="midnightblue" points="502.484,-51.3752 493.81,-57.4595 504.385,-58.1121 502.484,-51.3752"/>
</g>
<!-- Node6 -->
<g id="node6" class="node"><title>Node6</title>
<g id="a_node6"><a xlink:href="../../da/dc8/classview_1_1_editor.html#abd790752cfd8c9f01fb5b27a3680a982" target="_top" xlink:title="view.Editor.createRunButton">
<polygon fill="white" stroke="black" points="784.5,-76.5 784.5,-95.5 933.5,-95.5 933.5,-76.5 784.5,-76.5"/>
<text text-anchor="middle" x="859" y="-83.5" font-family="Helvetica,sans-Serif" font-size="10.00">view.Editor.createRunButton</text>
</a>
</g>
</g>
<!-- Node5&#45;&gt;Node6 -->
<g id="edge5" class="edge"><title>Node5&#45;&gt;Node6</title>
<path fill="none" stroke="midnightblue" d="M721.48,-86C741.144,-86 763.421,-86 784.191,-86"/>
<polygon fill="midnightblue" stroke="midnightblue" points="721.458,-82.5001 711.458,-86 721.458,-89.5001 721.458,-82.5001"/>
</g>
<!-- Node7 -->
<g id="node7" class="node"><title>Node7</title>
<g id="a_node7"><a xlink:href="../../da/dc8/classview_1_1_editor.html#a5b88172770caabfc64e9b7adaee1a2c5" target="_top" xlink:title="view.Editor.Editor">
<polygon fill="white" stroke="black" points="970.5,-76.5 970.5,-95.5 1067.5,-95.5 1067.5,-76.5 970.5,-76.5"/>
<text text-anchor="middle" x="1019" y="-83.5" font-family="Helvetica,sans-Serif" font-size="10.00">view.Editor.Editor</text>
</a>
</g>
</g>
<!-- Node6&#45;&gt;Node7 -->
<g id="edge6" class="edge"><title>Node6&#45;&gt;Node7</title>
<path fill="none" stroke="midnightblue" d="M944.07,-86C953.056,-86 961.955,-86 970.298,-86"/>
<polygon fill="midnightblue" stroke="midnightblue" points="943.911,-82.5001 933.911,-86 943.911,-89.5001 943.911,-82.5001"/>
</g>
<!-- Node9&#45;&gt;Node8 -->
<g id="edge9" class="edge"><title>Node9&#45;&gt;Node8</title>
<path fill="none" stroke="midnightblue" d="M756.879,-19.0964C771.846,-20.5623 786.945,-22.041 800.746,-23.3927"/>
<polygon fill="midnightblue" stroke="midnightblue" points="756.848,-15.5767 746.555,-18.0853 756.166,-22.5434 756.848,-15.5767"/>
</g>
</g>
</svg>
