<?xml version="1.0" encoding="UTF-8" standalone="no"?>
<!DOCTYPE svg PUBLIC "-//W3C//DTD SVG 1.1//EN"
 "http://www.w3.org/Graphics/SVG/1.1/DTD/svg11.dtd">
<!-- Generated by graphviz version 2.36.0 (20140111.2315)
 -->
<!-- Title: model.ExecutionEnvironment.getActiveTurtle Pages: 1 -->
<svg width="576pt" height="175pt"
 viewBox="0.00 0.00 576.00 175.00" xmlns="http://www.w3.org/2000/svg" xmlns:xlink="http://www.w3.org/1999/xlink">
<g id="graph0" class="graph" transform="scale(1 1) rotate(0) translate(4 171)">
<title>model.ExecutionEnvironment.getActiveTurtle</title>
<polygon fill="white" stroke="none" points="-4,4 -4,-171 572,-171 572,4 -4,4"/>
<!-- Node1 -->
<g id="node1" class="node"><title>Node1</title>
<polygon fill="#bfbfbf" stroke="black" points="0,-66 0,-96 176,-96 176,-66 0,-66"/>
<text text-anchor="start" x="8" y="-84" font-family="Helvetica,sans-Serif" font-size="10.00">model.ExecutionEnvironment.get</text>
<text text-anchor="middle" x="88" y="-73" font-family="Helvetica,sans-Serif" font-size="10.00">ActiveTurtle</text>
</g>
<!-- Node2 -->
<g id="node2" class="node"><title>Node2</title>
<g id="a_node2"><a xlink:href="../../da/d93/classmodel_1_1instructions_1_1_turtle_request_instruction.html#ae36ffe88cf02c9a5b136317a2fff5b3e" target="_top" xlink:title="model.instructions.Turtle\lRequestInstruction.execute">
<polygon fill="white" stroke="black" points="219,-137 219,-167 365,-167 365,-137 219,-137"/>
<text text-anchor="start" x="227" y="-155" font-family="Helvetica,sans-Serif" font-size="10.00">model.instructions.Turtle</text>
<text text-anchor="middle" x="292" y="-144" font-family="Helvetica,sans-Serif" font-size="10.00">RequestInstruction.execute</text>
</a>
</g>
</g>
<!-- Node1&#45;&gt;Node2 -->
<g id="edge1" class="edge"><title>Node1&#45;&gt;Node2</title>
<path fill="none" stroke="midnightblue" d="M136.986,-99.5987C159.639,-108.211 187.107,-118.413 212,-127 221.655,-130.331 232.032,-133.737 241.986,-136.921"/>
<polygon fill="midnightblue" stroke="midnightblue" points="138.185,-96.3101 127.594,-96.0146 135.689,-102.85 138.185,-96.3101"/>
</g>
<!-- Node3 -->
<g id="node3" class="node"><title>Node3</title>
<g id="a_node3"><a xlink:href="../../dc/dbe/classmodel_1_1instructions_1_1_multiple_turtles_instruction.html#a592a35330637d1bd6edfe4476163e0a1" target="_top" xlink:title="model.instructions.Multiple\lTurtlesInstruction.execute">
<polygon fill="white" stroke="black" points="219.5,-88 219.5,-118 364.5,-118 364.5,-88 219.5,-88"/>
<text text-anchor="start" x="227.5" y="-106" font-family="Helvetica,sans-Serif" font-size="10.00">model.instructions.Multiple</text>
<text text-anchor="middle" x="292" y="-95" font-family="Helvetica,sans-Serif" font-size="10.00">TurtlesInstruction.execute</text>
</a>
</g>
</g>
<!-- Node1&#45;&gt;Node3 -->
<g id="edge2" class="edge"><title>Node1&#45;&gt;Node3</title>
<path fill="none" stroke="midnightblue" d="M186.315,-91.5987C197.439,-92.8102 208.623,-94.0282 219.325,-95.1938"/>
<polygon fill="midnightblue" stroke="midnightblue" points="186.452,-88.093 176.132,-90.4896 185.694,-95.0518 186.452,-88.093"/>
</g>
<!-- Node4 -->
<g id="node4" class="node"><title>Node4</title>
<g id="a_node4"><a xlink:href="../../d1/dd3/classmodel_1_1instructions_1_1_movement_instruction.html#a33e802cec8283d190a8daac6e485e3b4" target="_top" xlink:title="model.instructions.Movement\lInstruction.execute">
<polygon fill="white" stroke="black" points="408.5,-22 408.5,-52 567.5,-52 567.5,-22 408.5,-22"/>
<text text-anchor="start" x="416.5" y="-40" font-family="Helvetica,sans-Serif" font-size="10.00">model.instructions.Movement</text>
<text text-anchor="middle" x="488" y="-29" font-family="Helvetica,sans-Serif" font-size="10.00">Instruction.execute</text>
</a>
</g>
</g>
<!-- Node1&#45;&gt;Node4 -->
<g id="edge3" class="edge"><title>Node1&#45;&gt;Node4</title>
<path fill="none" stroke="midnightblue" d="M186.666,-70.2027C254.855,-62.6643 344.695,-52.7323 408.295,-45.7011"/>
<polygon fill="midnightblue" stroke="midnightblue" points="185.898,-66.7663 176.343,-71.344 186.667,-73.7239 185.898,-66.7663"/>
</g>
<!-- Node5 -->
<g id="node5" class="node"><title>Node5</title>
<g id="a_node5"><a xlink:href="../../d1/dd3/classmodel_1_1instructions_1_1_movement_instruction.html#a51c776093aeb820937b12e2b89eb2f89" target="_top" xlink:title="model.instructions.Movement\lInstruction.updateView">
<polygon fill="white" stroke="black" points="212.5,-0 212.5,-30 371.5,-30 371.5,-0 212.5,-0"/>
<text text-anchor="start" x="220.5" y="-18" font-family="Helvetica,sans-Serif" font-size="10.00">model.instructions.Movement</text>
<text text-anchor="middle" x="292" y="-7" font-family="Helvetica,sans-Serif" font-size="10.00">Instruction.updateView</text>
</a>
</g>
</g>
<!-- Node1&#45;&gt;Node5 -->
<g id="edge4" class="edge"><title>Node1&#45;&gt;Node5</title>
<path fill="none" stroke="midnightblue" d="M144.6,-62.8337C176.072,-52.5508 214.97,-39.8415 244.759,-30.1084"/>
<polygon fill="midnightblue" stroke="midnightblue" points="143.508,-59.5082 135.09,-65.941 145.682,-66.1621 143.508,-59.5082"/>
</g>
<!-- Node5&#45;&gt;Node4 -->
<g id="edge5" class="edge"><title>Node5&#45;&gt;Node4</title>
<path fill="none" stroke="midnightblue" d="M381.608,-25.0484C390.498,-26.0565 399.483,-27.0754 408.26,-28.0708"/>
<polygon fill="midnightblue" stroke="midnightblue" points="381.958,-21.5657 371.628,-23.9165 381.169,-28.5211 381.958,-21.5657"/>
</g>
</g>
</svg>
