<?xml version="1.0" encoding="UTF-8" standalone="no"?>
<!DOCTYPE svg PUBLIC "-//W3C//DTD SVG 1.1//EN"
 "http://www.w3.org/Graphics/SVG/1.1/DTD/svg11.dtd">
<!-- Generated by graphviz version 2.36.0 (20140111.2315)
 -->
<!-- Title: model.ExecutionEnvironment.getUserCommandMap Pages: 1 -->
<svg width="1228pt" height="85pt"
 viewBox="0.00 0.00 1228.00 85.00" xmlns="http://www.w3.org/2000/svg" xmlns:xlink="http://www.w3.org/1999/xlink">
<g id="graph0" class="graph" transform="scale(1 1) rotate(0) translate(4 81)">
<title>model.ExecutionEnvironment.getUserCommandMap</title>
<polygon fill="white" stroke="none" points="-4,4 -4,-81 1224,-81 1224,4 -4,4"/>
<!-- Node1 -->
<g id="node1" class="node"><title>Node1</title>
<polygon fill="#bfbfbf" stroke="black" points="0,-14 0,-44 176,-44 176,-14 0,-14"/>
<text text-anchor="start" x="8" y="-32" font-family="Helvetica,sans-Serif" font-size="10.00">model.ExecutionEnvironment.get</text>
<text text-anchor="middle" x="88" y="-21" font-family="Helvetica,sans-Serif" font-size="10.00">UserCommandMap</text>
</g>
<!-- Node2 -->
<g id="node2" class="node"><title>Node2</title>
<g id="a_node2"><a xlink:href="../../dc/df5/classmodel_1_1_parser.html#ae83c95a5190fc22b9b70b1a40b76661c" target="_top" xlink:title="model.Parser.makeTree">
<polygon fill="white" stroke="black" points="212,-38.5 212,-57.5 340,-57.5 340,-38.5 212,-38.5"/>
<text text-anchor="middle" x="276" y="-45.5" font-family="Helvetica,sans-Serif" font-size="10.00">model.Parser.makeTree</text>
</a>
</g>
</g>
<!-- Node1&#45;&gt;Node2 -->
<g id="edge1" class="edge"><title>Node1&#45;&gt;Node2</title>
<path fill="none" stroke="midnightblue" d="M186.235,-38.9326C194.941,-39.8219 203.598,-40.7062 211.899,-41.5542"/>
<polygon fill="midnightblue" stroke="midnightblue" points="186.313,-35.4225 176.01,-37.8881 185.602,-42.3863 186.313,-35.4225"/>
</g>
<!-- Node9 -->
<g id="node9" class="node"><title>Node9</title>
<g id="a_node9"><a xlink:href="../../d6/de7/classview_1_1_s_logo_view.html#a2c08b9fa590f75ca8f2ec736a8a37e90" target="_top" xlink:title="view.SLogoView.update">
<polygon fill="white" stroke="black" points="212.5,-0.5 212.5,-19.5 339.5,-19.5 339.5,-0.5 212.5,-0.5"/>
<text text-anchor="middle" x="276" y="-7.5" font-family="Helvetica,sans-Serif" font-size="10.00">view.SLogoView.update</text>
</a>
</g>
</g>
<!-- Node1&#45;&gt;Node9 -->
<g id="edge8" class="edge"><title>Node1&#45;&gt;Node9</title>
<path fill="none" stroke="midnightblue" d="M186.106,-19.0806C195.045,-18.1674 203.933,-17.2595 212.44,-16.3905"/>
<polygon fill="midnightblue" stroke="midnightblue" points="185.602,-15.6137 176.01,-20.1119 186.313,-22.5775 185.602,-15.6137"/>
</g>
<!-- Node3 -->
<g id="node3" class="node"><title>Node3</title>
<g id="a_node3"><a xlink:href="../../dc/df5/classmodel_1_1_parser.html#ab83c099e5a13c82b1a12d7eedda6fbf9" target="_top" xlink:title="model.Parser.parseAndExecute">
<polygon fill="white" stroke="black" points="376,-38.5 376,-57.5 542,-57.5 542,-38.5 376,-38.5"/>
<text text-anchor="middle" x="459" y="-45.5" font-family="Helvetica,sans-Serif" font-size="10.00">model.Parser.parseAndExecute</text>
</a>
</g>
</g>
<!-- Node2&#45;&gt;Node3 -->
<g id="edge2" class="edge"><title>Node2&#45;&gt;Node3</title>
<path fill="none" stroke="midnightblue" d="M350.192,-48C358.608,-48 367.231,-48 375.755,-48"/>
<polygon fill="midnightblue" stroke="midnightblue" points="350.051,-44.5001 340.051,-48 350.051,-51.5001 350.051,-44.5001"/>
</g>
<!-- Node4 -->
<g id="node4" class="node"><title>Node4</title>
<g id="a_node4"><a xlink:href="../../d4/dd9/classcontroller_1_1_s_logo_controller.html#a1a88b376059e31c3f311d75fa640d848" target="_top" xlink:title="controller.SLogoController.parse\lInput">
<polygon fill="white" stroke="black" points="578,-33 578,-63 748,-63 748,-33 578,-33"/>
<text text-anchor="start" x="586" y="-51" font-family="Helvetica,sans-Serif" font-size="10.00">controller.SLogoController.parse</text>
<text text-anchor="middle" x="663" y="-40" font-family="Helvetica,sans-Serif" font-size="10.00">Input</text>
</a>
</g>
</g>
<!-- Node3&#45;&gt;Node4 -->
<g id="edge3" class="edge"><title>Node3&#45;&gt;Node4</title>
<path fill="none" stroke="midnightblue" d="M552.184,-48C560.768,-48 569.438,-48 577.943,-48"/>
<polygon fill="midnightblue" stroke="midnightblue" points="552.161,-44.5001 542.161,-48 552.161,-51.5001 552.161,-44.5001"/>
</g>
<!-- Node5 -->
<g id="node5" class="node"><title>Node5</title>
<g id="a_node5"><a xlink:href="../../da/dc8/classview_1_1_editor.html#a149e24d4e5e4464f3fb1601f2717663b" target="_top" xlink:title="view.Editor.parse">
<polygon fill="white" stroke="black" points="794,-57.5 794,-76.5 890,-76.5 890,-57.5 794,-57.5"/>
<text text-anchor="middle" x="842" y="-64.5" font-family="Helvetica,sans-Serif" font-size="10.00">view.Editor.parse</text>
</a>
</g>
</g>
<!-- Node4&#45;&gt;Node5 -->
<g id="edge4" class="edge"><title>Node4&#45;&gt;Node5</title>
<path fill="none" stroke="midnightblue" d="M758.402,-58.1335C770.656,-59.4489 782.758,-60.748 793.763,-61.9294"/>
<polygon fill="midnightblue" stroke="midnightblue" points="758.41,-54.6144 748.094,-57.027 757.663,-61.5744 758.41,-54.6144"/>
</g>
<!-- Node8 -->
<g id="node8" class="node"><title>Node8</title>
<g id="a_node8"><a xlink:href="../../d1/dc7/classview_1_1_side_bar.html#a0fa73b1ce839f52ea59de1b5d68d9195" target="_top" xlink:title="view.SideBar.SideBar">
<polygon fill="white" stroke="black" points="784,-19.5 784,-38.5 900,-38.5 900,-19.5 784,-19.5"/>
<text text-anchor="middle" x="842" y="-26.5" font-family="Helvetica,sans-Serif" font-size="10.00">view.SideBar.SideBar</text>
</a>
</g>
</g>
<!-- Node4&#45;&gt;Node8 -->
<g id="edge7" class="edge"><title>Node4&#45;&gt;Node8</title>
<path fill="none" stroke="midnightblue" d="M758.051,-37.9041C766.859,-36.9586 775.594,-36.021 783.904,-35.129"/>
<polygon fill="midnightblue" stroke="midnightblue" points="757.663,-34.4256 748.094,-38.973 758.41,-41.3856 757.663,-34.4256"/>
</g>
<!-- Node6 -->
<g id="node6" class="node"><title>Node6</title>
<g id="a_node6"><a xlink:href="../../da/dc8/classview_1_1_editor.html#abd790752cfd8c9f01fb5b27a3680a982" target="_top" xlink:title="view.Editor.createRunButton">
<polygon fill="white" stroke="black" points="936.5,-57.5 936.5,-76.5 1085.5,-76.5 1085.5,-57.5 936.5,-57.5"/>
<text text-anchor="middle" x="1011" y="-64.5" font-family="Helvetica,sans-Serif" font-size="10.00">view.Editor.createRunButton</text>
</a>
</g>
</g>
<!-- Node5&#45;&gt;Node6 -->
<g id="edge5" class="edge"><title>Node5&#45;&gt;Node6</title>
<path fill="none" stroke="midnightblue" d="M900.702,-67C912.162,-67 924.34,-67 936.25,-67"/>
<polygon fill="midnightblue" stroke="midnightblue" points="900.409,-63.5001 890.409,-67 900.409,-70.5001 900.409,-63.5001"/>
</g>
<!-- Node7 -->
<g id="node7" class="node"><title>Node7</title>
<g id="a_node7"><a xlink:href="../../da/dc8/classview_1_1_editor.html#a3905b799edd56b1c60528737ca88ce28" target="_top" xlink:title="view.Editor.Editor">
<polygon fill="white" stroke="black" points="1122.5,-57.5 1122.5,-76.5 1219.5,-76.5 1219.5,-57.5 1122.5,-57.5"/>
<text text-anchor="middle" x="1171" y="-64.5" font-family="Helvetica,sans-Serif" font-size="10.00">view.Editor.Editor</text>
</a>
</g>
</g>
<!-- Node6&#45;&gt;Node7 -->
<g id="edge6" class="edge"><title>Node6&#45;&gt;Node7</title>
<path fill="none" stroke="midnightblue" d="M1096.07,-67C1105.06,-67 1113.96,-67 1122.3,-67"/>
<polygon fill="midnightblue" stroke="midnightblue" points="1095.91,-63.5001 1085.91,-67 1095.91,-70.5001 1095.91,-63.5001"/>
</g>
</g>
</svg>
