<?xml version="1.0" encoding="UTF-8" standalone="no"?>
<!DOCTYPE svg PUBLIC "-//W3C//DTD SVG 1.1//EN"
 "http://www.w3.org/Graphics/SVG/1.1/DTD/svg11.dtd">
<!-- Generated by graphviz version 2.36.0 (20140111.2315)
 -->
<!-- Title: view.Drawer Pages: 1 -->
<!--zoomable 724 -->
<svg id="main" version="1.1" xmlns="http://www.w3.org/2000/svg" xmlns:xlink="http://www.w3.org/1999/xlink" xml:space="preserve" onload="init(evt)">
<style type="text/css"><![CDATA[
.edge:hover path { stroke: red; }
.edge:hover polygon { stroke: red; fill: red; }
]]></style>
<script type="text/javascript"><![CDATA[
var edges = document.getElementsByTagName('g');
if (edges && edges.length) {
  for (var i=0;i<edges.length;i++) {
    if (edges[i].id.substr(0,4)=='edge') {
      edges[i].setAttribute('class','edge');
    }
  }
}
]]></script>
        <defs>
                <circle id="rim" cx="0" cy="0" r="7"/>
                <circle id="rim2" cx="0" cy="0" r="3.5"/>
                <g id="zoomPlus">
                        <use xlink:href="#rim" fill="#404040">
                                <set attributeName="fill" to="#808080" begin="zoomplus.mouseover" end="zoomplus.mouseout"/>
                        </use>
                        <path d="M-4,0h8M0,-4v8" fill="none" stroke="white" stroke-width="1.5" pointer-events="none"/>
                </g>
                <g id="zoomMin">
                        <use xlink:href="#rim" fill="#404040">
                                <set attributeName="fill" to="#808080" begin="zoomminus.mouseover" end="zoomminus.mouseout"/>
                        </use>
                        <path d="M-4,0h8" fill="none" stroke="white" stroke-width="1.5" pointer-events="none"/>
                </g>
                <g id="dirArrow">
                        <path fill="none" stroke="white" stroke-width="1.5" d="M0,-3.0v7 M-2.5,-0.5L0,-3.0L2.5,-0.5"/>
                </g>
               <g id="resetDef">
                       <use xlink:href="#rim2" fill="#404040">
                               <set attributeName="fill" to="#808080" begin="reset.mouseover" end="reset.mouseout"/>
                       </use>
               </g>
        </defs>

<script type="text/javascript">
var viewWidth = 1604;
var viewHeight = 724;
var sectionId = 'dynsection-0';
</script>
<script xlink:href="../../svgpan.js"/>
<svg id="graph" class="graph">
<g id="viewport">
<title>view.Drawer</title>
<polygon fill="white" stroke="none" points="-4,4 -4,-720 1600,-720 1600,4 -4,4"/>
<!-- Node1 -->
<g id="node1" class="node"><title>Node1</title>
<polygon fill="#bfbfbf" stroke="black" points="172.5,-158.5 172.5,-177.5 245.5,-177.5 245.5,-158.5 172.5,-158.5"/>
<text text-anchor="middle" x="209" y="-165.5" font-family="Helvetica,sans-Serif" font-size="10.00">view.Drawer</text>
</g>
<!-- Node21 -->
<g id="node21" class="node"><title>Node21</title>
<g id="a_node21"><a xlink:href="../../d6/de7/classview_1_1_s_logo_view.html" target="_top" xlink:title="view.SLogoView">
<polygon fill="white" stroke="black" points="477.5,-465.5 477.5,-484.5 568.5,-484.5 568.5,-465.5 477.5,-465.5"/>
<text text-anchor="middle" x="523" y="-472.5" font-family="Helvetica,sans-Serif" font-size="10.00">view.SLogoView</text>
</a>
</g>
</g>
<!-- Node1&#45;&gt;Node21 -->
<g id="edge35" class="edge"><title>Node1&#45;&gt;Node21</title>
<path fill="none" stroke="#9a32cd" stroke-dasharray="5,2" d="M231.276,-183.629C271.524,-213.697 360.629,-282.683 426,-351 463.645,-390.342 501.063,-443.896 515.633,-465.443"/>
<polygon fill="#9a32cd" stroke="#9a32cd" points="233.349,-180.809 223.234,-177.655 229.174,-186.428 233.349,-180.809"/>
<text text-anchor="middle" x="370" y="-354" font-family="Helvetica,sans-Serif" font-size="10.00"> drawer</text>
</g>
<!-- Node2 -->
<g id="node2" class="node"><title>Node2</title>
<g id="a_node2"><a xlink:href="../../da/d64/classview_1_1_workspace.html" target="_top" xlink:title="view.Workspace">
<polygon fill="white" stroke="black" points="1506,-144.5 1506,-163.5 1596,-163.5 1596,-144.5 1506,-144.5"/>
<text text-anchor="middle" x="1551" y="-151.5" font-family="Helvetica,sans-Serif" font-size="10.00">view.Workspace</text>
</a>
</g>
</g>
<!-- Node2&#45;&gt;Node1 -->
<g id="edge1" class="edge"><title>Node2&#45;&gt;Node1</title>
<path fill="none" stroke="#9a32cd" stroke-dasharray="5,2" d="M1534.84,-136.924C1523.11,-124.616 1505.9,-108.405 1488,-98 1484.5,-95.9641 1347.33,-48 1327,-48 522,-48 522,-48 522,-48 399.256,-48 266.369,-129.907 223.878,-158.383"/>
<polygon fill="#9a32cd" stroke="#9a32cd" points="1532.35,-139.384 1541.71,-144.348 1537.49,-134.63 1532.35,-139.384"/>
<text text-anchor="middle" x="893" y="-51" font-family="Helvetica,sans-Serif" font-size="10.00"> myWorkspace</text>
</g>
<!-- Node7 -->
<g id="node7" class="node"><title>Node7</title>
<g id="a_node7"><a xlink:href="../../d1/dc7/classview_1_1_side_bar.html" target="_top" xlink:title="view.SideBar">
<polygon fill="white" stroke="black" points="1287.5,-346.5 1287.5,-365.5 1364.5,-365.5 1364.5,-346.5 1287.5,-346.5"/>
<text text-anchor="middle" x="1326" y="-353.5" font-family="Helvetica,sans-Serif" font-size="10.00">view.SideBar</text>
</a>
</g>
</g>
<!-- Node2&#45;&gt;Node7 -->
<g id="edge8" class="edge"><title>Node2&#45;&gt;Node7</title>
<path fill="none" stroke="#9a32cd" stroke-dasharray="5,2" d="M1546.58,-173.727C1540.3,-204.243 1524.11,-262.925 1488,-297 1453.79,-329.283 1400.48,-344.191 1364.68,-350.874"/>
<polygon fill="#9a32cd" stroke="#9a32cd" points="1550.03,-174.335 1548.47,-163.856 1543.16,-173.022 1550.03,-174.335"/>
<text text-anchor="middle" x="1450" y="-341" font-family="Helvetica,sans-Serif" font-size="10.00"> myWorkspace</text>
</g>
<!-- Node2&#45;&gt;Node21 -->
<g id="edge23" class="edge"><title>Node2&#45;&gt;Node21</title>
<path fill="none" stroke="#9a32cd" stroke-dasharray="5,2" d="M1522.37,-167.92C1511.84,-172.718 1499.59,-177.708 1488,-181 1253.89,-247.514 1178.53,-187.173 946,-259 774.964,-311.832 589.941,-430.807 538.158,-465.398"/>
<polygon fill="#9a32cd" stroke="#9a32cd" points="1523.94,-171.053 1531.49,-163.622 1520.95,-164.721 1523.94,-171.053"/>
<text text-anchor="middle" x="1033" y="-262" font-family="Helvetica,sans-Serif" font-size="10.00"> myWorkspace</text>
</g>
<!-- Node3 -->
<g id="node3" class="node"><title>Node3</title>
<polygon fill="white" stroke="#bfbfbf" points="1292.5,-0.5 1292.5,-19.5 1359.5,-19.5 1359.5,-0.5 1292.5,-0.5"/>
<text text-anchor="middle" x="1326" y="-7.5" font-family="Helvetica,sans-Serif" font-size="10.00">StackPane</text>
</g>
<!-- Node3&#45;&gt;Node2 -->
<g id="edge2" class="edge"><title>Node3&#45;&gt;Node2</title>
<path fill="none" stroke="midnightblue" d="M1369.86,-6.23527C1404.78,-5.38636 1453.73,-9.48881 1488,-34 1526.72,-61.6954 1543.02,-120.924 1548.11,-144.261"/>
<polygon fill="midnightblue" stroke="midnightblue" points="1369.37,-2.752 1359.51,-6.64058 1369.64,-9.74664 1369.37,-2.752"/>
</g>
<!-- Node4 -->
<g id="node4" class="node"><title>Node4</title>
<g id="a_node4"><a xlink:href="../../d8/df7/classview_1_1_turtle_view.html" target="_top" xlink:title="view.TurtleView">
<polygon fill="white" stroke="black" points="1283,-164.5 1283,-183.5 1369,-183.5 1369,-164.5 1283,-164.5"/>
<text text-anchor="middle" x="1326" y="-171.5" font-family="Helvetica,sans-Serif" font-size="10.00">view.TurtleView</text>
</a>
</g>
</g>
<!-- Node4&#45;&gt;Node2 -->
<g id="edge3" class="edge"><title>Node4&#45;&gt;Node2</title>
<path fill="none" stroke="#9a32cd" stroke-dasharray="5,2" d="M1379.17,-169.321C1417.58,-165.876 1469.25,-161.242 1505.68,-157.975"/>
<polygon fill="#9a32cd" stroke="#9a32cd" points="1378.85,-165.835 1369.21,-170.215 1379.48,-172.807 1378.85,-165.835"/>
<text text-anchor="middle" x="1450" y="-169" font-family="Helvetica,sans-Serif" font-size="10.00"> myActiveTurtle</text>
</g>
<!-- Node5 -->
<g id="node5" class="node"><title>Node5</title>
<polygon fill="white" stroke="#bfbfbf" points="999,-156.5 999,-175.5 1067,-175.5 1067,-156.5 999,-156.5"/>
<text text-anchor="middle" x="1033" y="-163.5" font-family="Helvetica,sans-Serif" font-size="10.00">ImageView</text>
</g>
<!-- Node5&#45;&gt;Node4 -->
<g id="edge4" class="edge"><title>Node5&#45;&gt;Node4</title>
<path fill="none" stroke="midnightblue" d="M1077.27,-167.19C1132.55,-168.709 1227.64,-171.323 1282.53,-172.833"/>
<polygon fill="midnightblue" stroke="midnightblue" points="1077.19,-163.686 1067.1,-166.91 1077,-170.683 1077.19,-163.686"/>
</g>
<!-- Node6 -->
<g id="node6" class="node"><title>Node6</title>
<polygon fill="white" stroke="#bfbfbf" points="1258,-77 1258,-107 1394,-107 1394,-77 1258,-77"/>
<text text-anchor="start" x="1266" y="-95" font-family="Helvetica,sans-Serif" font-size="10.00">Map&lt; Integer, view.Turtle</text>
<text text-anchor="middle" x="1326" y="-84" font-family="Helvetica,sans-Serif" font-size="10.00">View &gt;</text>
</g>
<!-- Node6&#45;&gt;Node2 -->
<g id="edge5" class="edge"><title>Node6&#45;&gt;Node2</title>
<path fill="none" stroke="#9a32cd" stroke-dasharray="5,2" d="M1404.22,-100.16C1431.22,-104.385 1461.41,-110.686 1488,-120 1505.38,-126.087 1523.68,-136.714 1535.85,-144.47"/>
<polygon fill="#9a32cd" stroke="#9a32cd" points="1404.46,-96.6563 1394.05,-98.641 1403.42,-103.58 1404.46,-96.6563"/>
<text text-anchor="middle" x="1450" y="-123" font-family="Helvetica,sans-Serif" font-size="10.00"> myTurtles</text>
</g>
<!-- Node7&#45;&gt;Node2 -->
<g id="edge6" class="edge"><title>Node7&#45;&gt;Node2</title>
<path fill="none" stroke="#9a32cd" stroke-dasharray="5,2" d="M1346.63,-339.64C1363.8,-325.38 1389.44,-304.189 1412,-286 1445.5,-258.986 1456.93,-255.775 1488,-226 1509.44,-205.456 1531.38,-178.207 1542.52,-163.838"/>
<polygon fill="#9a32cd" stroke="#9a32cd" points="1343.94,-337.328 1338.49,-346.414 1348.41,-342.71 1343.94,-337.328"/>
<text text-anchor="middle" x="1450" y="-289" font-family="Helvetica,sans-Serif" font-size="10.00"> mySidebar</text>
</g>
<!-- Node7&#45;&gt;Node21 -->
<g id="edge36" class="edge"><title>Node7&#45;&gt;Node21</title>
<path fill="none" stroke="#9a32cd" stroke-dasharray="5,2" d="M1277.3,-357.403C1205.23,-360.001 1064.42,-366.942 946,-384 801.53,-404.811 632.645,-446.623 560.102,-465.439"/>
<polygon fill="#9a32cd" stroke="#9a32cd" points="1277.55,-360.897 1287.43,-357.051 1277.31,-353.901 1277.55,-360.897"/>
<text text-anchor="middle" x="893" y="-402" font-family="Helvetica,sans-Serif" font-size="10.00"> mySidebar</text>
</g>
<!-- Node23 -->
<g id="node23" class="node"><title>Node23</title>
<g id="a_node23"><a xlink:href="../../da/dc8/classview_1_1_editor.html" target="_top" xlink:title="view.Editor">
<polygon fill="white" stroke="black" points="1517.5,-450.5 1517.5,-469.5 1584.5,-469.5 1584.5,-450.5 1517.5,-450.5"/>
<text text-anchor="middle" x="1551" y="-457.5" font-family="Helvetica,sans-Serif" font-size="10.00">view.Editor</text>
</a>
</g>
</g>
<!-- Node7&#45;&gt;Node23 -->
<g id="edge31" class="edge"><title>Node7&#45;&gt;Node23</title>
<path fill="none" stroke="#9a32cd" stroke-dasharray="5,2" d="M1374.62,-366.712C1407.71,-375.323 1452.14,-389.26 1488,-409 1508.76,-420.426 1529.29,-439.167 1540.74,-450.469"/>
<polygon fill="#9a32cd" stroke="#9a32cd" points="1375.28,-363.271 1364.73,-364.21 1373.57,-370.057 1375.28,-363.271"/>
<text text-anchor="middle" x="1450" y="-412" font-family="Helvetica,sans-Serif" font-size="10.00"> mySidebar</text>
</g>
<!-- Node8 -->
<g id="node8" class="node"><title>Node8</title>
<polygon fill="white" stroke="#bfbfbf" points="1012.5,-279.5 1012.5,-298.5 1053.5,-298.5 1053.5,-279.5 1012.5,-279.5"/>
<text text-anchor="middle" x="1033" y="-286.5" font-family="Helvetica,sans-Serif" font-size="10.00">VBox</text>
</g>
<!-- Node8&#45;&gt;Node7 -->
<g id="edge7" class="edge"><title>Node8&#45;&gt;Node7</title>
<path fill="none" stroke="midnightblue" d="M1063.66,-291.112C1104.13,-294.522 1178.65,-302.691 1240,-320 1263.6,-326.658 1289.35,-338.217 1306.25,-346.44"/>
<polygon fill="midnightblue" stroke="midnightblue" points="1063.9,-287.62 1053.66,-290.308 1063.34,-294.598 1063.9,-287.62"/>
</g>
<!-- Node9 -->
<g id="node9" class="node"><title>Node9</title>
<polygon fill="white" stroke="#bfbfbf" points="946.5,-469.5 946.5,-488.5 1119.5,-488.5 1119.5,-469.5 946.5,-469.5"/>
<text text-anchor="middle" x="1033" y="-476.5" font-family="Helvetica,sans-Serif" font-size="10.00">ObservableList&lt; view.Property &gt;</text>
</g>
<!-- Node9&#45;&gt;Node7 -->
<g id="edge9" class="edge"><title>Node9&#45;&gt;Node7</title>
<path fill="none" stroke="#9a32cd" stroke-dasharray="5,2" d="M1129.85,-479.122C1175.35,-477.169 1223.38,-471.514 1240,-457 1265.17,-435.023 1236.26,-409.377 1258,-384 1265.63,-375.096 1276.56,-368.966 1287.38,-364.77"/>
<polygon fill="#9a32cd" stroke="#9a32cd" points="1129.45,-475.635 1119.59,-479.504 1129.71,-482.63 1129.45,-475.635"/>
<text text-anchor="middle" x="1189" y="-482" font-family="Helvetica,sans-Serif" font-size="10.00"> variablesList</text>
</g>
<!-- Node10 -->
<g id="node10" class="node"><title>Node10</title>
<polygon fill="white" stroke="#bfbfbf" points="162.5,-305.5 162.5,-324.5 255.5,-324.5 255.5,-305.5 162.5,-305.5"/>
<text text-anchor="middle" x="209" y="-312.5" font-family="Helvetica,sans-Serif" font-size="10.00">ResourceBundle</text>
</g>
<!-- Node10&#45;&gt;Node7 -->
<g id="edge10" class="edge"><title>Node10&#45;&gt;Node7</title>
<path fill="none" stroke="#9a32cd" stroke-dasharray="5,2" d="M233.77,-300.326C254.221,-288.513 284.937,-272.659 314,-265 403.595,-241.389 429.346,-251 522,-251 522,-251 522,-251 1034,-251 1127.71,-251 1154.24,-258.227 1240,-296 1269.42,-308.96 1299.02,-332.905 1314.33,-346.293"/>
<polygon fill="#9a32cd" stroke="#9a32cd" points="231.968,-297.325 225.139,-305.426 235.529,-303.352 231.968,-297.325"/>
<text text-anchor="middle" x="800" y="-254" font-family="Helvetica,sans-Serif" font-size="10.00"> myResources</text>
</g>
<!-- Node10&#45;&gt;Node21 -->
<g id="edge25" class="edge"><title>Node10&#45;&gt;Node21</title>
<path fill="none" stroke="#9a32cd" stroke-dasharray="5,2" d="M239.143,-328.928C280.835,-348.967 359.784,-387.343 426,-422 454,-436.655 486.053,-454.589 505.129,-465.388"/>
<polygon fill="#9a32cd" stroke="#9a32cd" points="240.632,-325.76 230.102,-324.589 237.604,-332.071 240.632,-325.76"/>
<text text-anchor="middle" x="370" y="-425" font-family="Helvetica,sans-Serif" font-size="10.00"> myResources</text>
</g>
<!-- Node11 -->
<g id="node11" class="node"><title>Node11</title>
<polygon fill="white" stroke="#bfbfbf" points="959,-431.5 959,-450.5 1107,-450.5 1107,-431.5 959,-431.5"/>
<text text-anchor="middle" x="1033" y="-438.5" font-family="Helvetica,sans-Serif" font-size="10.00">TableView&lt; view.Property &gt;</text>
</g>
<!-- Node11&#45;&gt;Node7 -->
<g id="edge11" class="edge"><title>Node11&#45;&gt;Node7</title>
<path fill="none" stroke="#9a32cd" stroke-dasharray="5,2" d="M1117.17,-436.302C1165.12,-432.254 1219.81,-424.935 1240,-412 1252.46,-404.021 1246.66,-393.504 1258,-384 1267.56,-375.982 1279.75,-369.978 1291.1,-365.629"/>
<polygon fill="#9a32cd" stroke="#9a32cd" points="1116.75,-432.825 1107.06,-437.118 1117.31,-439.803 1116.75,-432.825"/>
<text text-anchor="middle" x="1189" y="-449" font-family="Helvetica,sans-Serif" font-size="10.00"> turtlePropertiesTable</text>
<text text-anchor="middle" x="1189" y="-438" font-family="Helvetica,sans-Serif" font-size="10.00">variablesTable</text>
</g>
<!-- Node12 -->
<g id="node12" class="node"><title>Node12</title>
<g id="a_node12"><a xlink:href="../../d4/dd9/classcontroller_1_1_s_logo_controller.html" target="_top" xlink:title="controller.SLogoController">
<polygon fill="white" stroke="black" points="963,-508.5 963,-527.5 1103,-527.5 1103,-508.5 963,-508.5"/>
<text text-anchor="middle" x="1033" y="-515.5" font-family="Helvetica,sans-Serif" font-size="10.00">controller.SLogoController</text>
</a>
</g>
</g>
<!-- Node12&#45;&gt;Node7 -->
<g id="edge12" class="edge"><title>Node12&#45;&gt;Node7</title>
<path fill="none" stroke="#9a32cd" stroke-dasharray="5,2" d="M1113.18,-512.127C1167.24,-507.361 1230.7,-499.972 1240,-491 1274.71,-457.526 1228.02,-421.775 1258,-384 1265.37,-374.717 1276.36,-368.476 1287.32,-364.295"/>
<polygon fill="#9a32cd" stroke="#9a32cd" points="1112.87,-508.64 1103.21,-512.986 1113.47,-515.615 1112.87,-508.64"/>
<text text-anchor="middle" x="1189" y="-513" font-family="Helvetica,sans-Serif" font-size="10.00"> myController</text>
</g>
<!-- Node12&#45;&gt;Node21 -->
<g id="edge33" class="edge"><title>Node12&#45;&gt;Node21</title>
<path fill="none" stroke="#9a32cd" stroke-dasharray="5,2" d="M952.742,-511.291C844.676,-502.144 654.715,-486.064 568.636,-478.778"/>
<polygon fill="#9a32cd" stroke="#9a32cd" points="952.679,-514.798 962.938,-512.154 953.269,-507.823 952.679,-514.798"/>
<text text-anchor="middle" x="800" y="-505" font-family="Helvetica,sans-Serif" font-size="10.00"> myController</text>
</g>
<!-- Node12&#45;&gt;Node23 -->
<g id="edge29" class="edge"><title>Node12&#45;&gt;Node23</title>
<path fill="none" stroke="#9a32cd" stroke-dasharray="5,2" d="M1113.22,-523.887C1121.58,-524.343 1129.96,-524.73 1138,-525 1294.38,-530.257 1337.68,-530.449 1488,-487 1503.11,-482.632 1519.39,-475.439 1531.48,-469.575"/>
<polygon fill="#9a32cd" stroke="#9a32cd" points="1113.24,-520.382 1103.06,-523.301 1112.84,-527.371 1113.24,-520.382"/>
<text text-anchor="middle" x="1326" y="-531" font-family="Helvetica,sans-Serif" font-size="10.00"> myController</text>
</g>
<!-- Node13 -->
<g id="node13" class="node"><title>Node13</title>
<g id="a_node13"><a xlink:href="../../dc/df5/classmodel_1_1_parser.html" target="_top" xlink:title="model.Parser">
<polygon fill="white" stroke="black" points="760,-569.5 760,-588.5 840,-588.5 840,-569.5 760,-569.5"/>
<text text-anchor="middle" x="800" y="-576.5" font-family="Helvetica,sans-Serif" font-size="10.00">model.Parser</text>
</a>
</g>
</g>
<!-- Node13&#45;&gt;Node12 -->
<g id="edge13" class="edge"><title>Node13&#45;&gt;Node12</title>
<path fill="none" stroke="#9a32cd" stroke-dasharray="5,2" d="M846.904,-566.878C890.633,-555.331 955.584,-538.179 995.779,-527.565"/>
<polygon fill="#9a32cd" stroke="#9a32cd" points="845.869,-563.532 837.094,-569.469 847.656,-570.3 845.869,-563.532"/>
<text text-anchor="middle" x="893" y="-566" font-family="Helvetica,sans-Serif" font-size="10.00"> myParser</text>
</g>
<!-- Node14 -->
<g id="node14" class="node"><title>Node14</title>
<polygon fill="white" stroke="#bfbfbf" points="179,-570.5 179,-589.5 239,-589.5 239,-570.5 179,-570.5"/>
<text text-anchor="middle" x="209" y="-577.5" font-family="Helvetica,sans-Serif" font-size="10.00">Observer</text>
</g>
<!-- Node14&#45;&gt;Node13 -->
<g id="edge14" class="edge"><title>Node14&#45;&gt;Node13</title>
<path fill="none" stroke="midnightblue" d="M249.185,-581.146C322.145,-583.217 483.779,-587.505 620,-589 674.219,-589.595 687.982,-593.703 742,-589 747.805,-588.495 753.906,-587.705 759.87,-586.786"/>
<polygon fill="midnightblue" stroke="midnightblue" points="249.173,-577.645 239.077,-580.858 248.973,-584.642 249.173,-577.645"/>
</g>
<!-- Node14&#45;&gt;Node21 -->
<g id="edge22" class="edge"><title>Node14&#45;&gt;Node21</title>
<path fill="none" stroke="midnightblue" d="M249.226,-579.095C293.69,-576.851 367.578,-569.38 426,-545 435.232,-541.147 485.603,-502.934 509.459,-484.651"/>
<polygon fill="midnightblue" stroke="midnightblue" points="248.959,-575.604 239.123,-579.54 249.267,-582.597 248.959,-575.604"/>
</g>
<!-- Node15 -->
<g id="node15" class="node"><title>Node15</title>
<polygon fill="white" stroke="#bfbfbf" points="467,-544 467,-574 579,-574 579,-544 467,-544"/>
<text text-anchor="start" x="475" y="-562" font-family="Helvetica,sans-Serif" font-size="10.00">List&lt; Entry&lt; String,</text>
<text text-anchor="middle" x="523" y="-551" font-family="Helvetica,sans-Serif" font-size="10.00"> Pattern &gt; &gt;</text>
</g>
<!-- Node15&#45;&gt;Node13 -->
<g id="edge15" class="edge"><title>Node15&#45;&gt;Node13</title>
<path fill="none" stroke="#9a32cd" stroke-dasharray="5,2" d="M589.31,-563.75C642.334,-567.606 715.352,-572.917 759.753,-576.146"/>
<polygon fill="#9a32cd" stroke="#9a32cd" points="589.547,-560.258 579.32,-563.023 589.039,-567.239 589.547,-560.258"/>
<text text-anchor="middle" x="681" y="-578" font-family="Helvetica,sans-Serif" font-size="10.00"> myPatterns</text>
</g>
<!-- Node16 -->
<g id="node16" class="node"><title>Node16</title>
<g id="a_node16"><a xlink:href="../../d1/dca/classmodel_1_1_execution_environment.html" target="_top" xlink:title="model.ExecutionEnvironment">
<polygon fill="white" stroke="black" points="444.5,-631.5 444.5,-650.5 601.5,-650.5 601.5,-631.5 444.5,-631.5"/>
<text text-anchor="middle" x="523" y="-638.5" font-family="Helvetica,sans-Serif" font-size="10.00">model.ExecutionEnvironment</text>
</a>
</g>
</g>
<!-- Node16&#45;&gt;Node13 -->
<g id="edge16" class="edge"><title>Node16&#45;&gt;Node13</title>
<path fill="none" stroke="#9a32cd" stroke-dasharray="5,2" d="M611.779,-640.102C652.396,-637.391 700.687,-630.845 742,-616 759.32,-609.776 776.698,-597.398 787.631,-588.677"/>
<polygon fill="#9a32cd" stroke="#9a32cd" points="611.4,-636.618 601.627,-640.711 611.819,-643.605 611.4,-636.618"/>
<text text-anchor="middle" x="681" y="-643" font-family="Helvetica,sans-Serif" font-size="10.00"> myExecutionParameters</text>
</g>
<!-- Node17 -->
<g id="node17" class="node"><title>Node17</title>
<polygon fill="white" stroke="#bfbfbf" points="173.5,-658.5 173.5,-677.5 244.5,-677.5 244.5,-658.5 173.5,-658.5"/>
<text text-anchor="middle" x="209" y="-665.5" font-family="Helvetica,sans-Serif" font-size="10.00">Observable</text>
</g>
<!-- Node17&#45;&gt;Node16 -->
<g id="edge17" class="edge"><title>Node17&#45;&gt;Node16</title>
<path fill="none" stroke="midnightblue" d="M254.834,-664.803C298.54,-661.608 366.871,-656.406 426,-651 432.007,-650.451 438.224,-649.858 444.471,-649.246"/>
<polygon fill="midnightblue" stroke="midnightblue" points="254.534,-661.315 244.815,-665.532 255.042,-668.297 254.534,-661.315"/>
</g>
<!-- Node18 -->
<g id="node18" class="node"><title>Node18</title>
<polygon fill="white" stroke="#bfbfbf" points="122,-609 122,-639 296,-639 296,-609 122,-609"/>
<text text-anchor="start" x="130" y="-627" font-family="Helvetica,sans-Serif" font-size="10.00">Map&lt; String, model.instructions.</text>
<text text-anchor="middle" x="209" y="-616" font-family="Helvetica,sans-Serif" font-size="10.00">Instruction &gt;</text>
</g>
<!-- Node18&#45;&gt;Node16 -->
<g id="edge18" class="edge"><title>Node18&#45;&gt;Node16</title>
<path fill="none" stroke="#9a32cd" stroke-dasharray="5,2" d="M306.305,-629.247C350.685,-631.666 402.655,-634.497 444.461,-636.775"/>
<polygon fill="#9a32cd" stroke="#9a32cd" points="306.257,-625.74 296.081,-628.69 305.876,-632.729 306.257,-625.74"/>
<text text-anchor="middle" x="370" y="-639" font-family="Helvetica,sans-Serif" font-size="10.00"> myUserInstructionMap</text>
</g>
<!-- Node19 -->
<g id="node19" class="node"><title>Node19</title>
<polygon fill="white" stroke="#bfbfbf" points="145,-696.5 145,-715.5 273,-715.5 273,-696.5 145,-696.5"/>
<text text-anchor="middle" x="209" y="-703.5" font-family="Helvetica,sans-Serif" font-size="10.00">Map&lt; String, Double &gt;</text>
</g>
<!-- Node19&#45;&gt;Node16 -->
<g id="edge19" class="edge"><title>Node19&#45;&gt;Node16</title>
<path fill="none" stroke="#9a32cd" stroke-dasharray="5,2" d="M283.072,-698.901C325.536,-693.446 379.642,-684.19 426,-669 434.5,-666.215 435.602,-663.078 444,-660 453.946,-656.355 464.861,-653.2 475.293,-650.564"/>
<polygon fill="#9a32cd" stroke="#9a32cd" points="282.586,-695.435 273.094,-700.141 283.449,-702.381 282.586,-695.435"/>
<text text-anchor="middle" x="370" y="-697" font-family="Helvetica,sans-Serif" font-size="10.00"> myVariableMap</text>
</g>
<!-- Node20 -->
<g id="node20" class="node"><title>Node20</title>
<polygon fill="white" stroke="#bfbfbf" points="462,-669.5 462,-688.5 584,-688.5 584,-669.5 462,-669.5"/>
<text text-anchor="middle" x="523" y="-676.5" font-family="Helvetica,sans-Serif" font-size="10.00">Map&lt; String, String &gt;</text>
</g>
<!-- Node20&#45;&gt;Node13 -->
<g id="edge20" class="edge"><title>Node20&#45;&gt;Node13</title>
<path fill="none" stroke="#9a32cd" stroke-dasharray="5,2" d="M594.624,-685.063C639.583,-685.716 697.511,-680.382 742,-655 769.075,-639.553 787.241,-605.49 794.894,-588.718"/>
<polygon fill="#9a32cd" stroke="#9a32cd" points="594.45,-681.557 584.366,-684.808 594.276,-688.555 594.45,-681.557"/>
<text text-anchor="middle" x="681" y="-687" font-family="Helvetica,sans-Serif" font-size="10.00"> myCommandMap</text>
</g>
<!-- Node21&#45;&gt;Node13 -->
<g id="edge21" class="edge"><title>Node21&#45;&gt;Node13</title>
<path fill="none" stroke="#9a32cd" stroke-dasharray="5,2" d="M550.166,-489.28C569.133,-499.195 595.624,-512.162 620,-521 672.595,-540.07 689.363,-533.048 742,-552 755.496,-556.859 770.106,-563.816 781.155,-569.45"/>
<polygon fill="#9a32cd" stroke="#9a32cd" points="551.719,-486.141 541.244,-484.55 548.44,-492.326 551.719,-486.141"/>
<text text-anchor="middle" x="681" y="-555" font-family="Helvetica,sans-Serif" font-size="10.00"> mySLogoView</text>
</g>
<!-- Node22 -->
<g id="node22" class="node"><title>Node22</title>
<polygon fill="white" stroke="#bfbfbf" points="186.5,-417.5 186.5,-436.5 231.5,-436.5 231.5,-417.5 186.5,-417.5"/>
<text text-anchor="middle" x="209" y="-424.5" font-family="Helvetica,sans-Serif" font-size="10.00">Stage</text>
</g>
<!-- Node22&#45;&gt;Node21 -->
<g id="edge24" class="edge"><title>Node22&#45;&gt;Node21</title>
<path fill="none" stroke="#9a32cd" stroke-dasharray="5,2" d="M241.807,-429.48C284.087,-433.049 361.028,-440.5 426,-452 446.251,-455.585 468.611,-460.862 486.652,-465.458"/>
<polygon fill="#9a32cd" stroke="#9a32cd" points="241.839,-425.97 231.585,-428.635 241.263,-432.947 241.839,-425.97"/>
<text text-anchor="middle" x="370" y="-455" font-family="Helvetica,sans-Serif" font-size="10.00"> myStage</text>
</g>
<!-- Node23&#45;&gt;Node21 -->
<g id="edge26" class="edge"><title>Node23&#45;&gt;Node21</title>
<path fill="none" stroke="#9a32cd" stroke-dasharray="5,2" d="M1533.45,-476.915C1521.66,-488.166 1504.95,-502.557 1488,-512 1449.57,-533.407 1437.42,-535.93 1394,-543 885.931,-625.734 984.122,-557.848 858,-545 829.266,-542.073 650.515,-502.99 566.96,-484.531"/>
<polygon fill="#9a32cd" stroke="#9a32cd" points="1536.09,-479.231 1540.77,-469.728 1531.19,-474.236 1536.09,-479.231"/>
<text text-anchor="middle" x="1033" y="-587" font-family="Helvetica,sans-Serif" font-size="10.00"> myEditor</text>
</g>
<!-- Node24 -->
<g id="node24" class="node"><title>Node24</title>
<polygon fill="white" stroke="#bfbfbf" points="1305,-393.5 1305,-412.5 1347,-412.5 1347,-393.5 1305,-393.5"/>
<text text-anchor="middle" x="1326" y="-400.5" font-family="Helvetica,sans-Serif" font-size="10.00">HBox</text>
</g>
<!-- Node24&#45;&gt;Node23 -->
<g id="edge27" class="edge"><title>Node24&#45;&gt;Node23</title>
<path fill="none" stroke="midnightblue" d="M1356.91,-409.821C1389.31,-417.31 1442.48,-429.886 1488,-442 1497.86,-444.623 1508.54,-447.656 1518.22,-450.475"/>
<polygon fill="midnightblue" stroke="midnightblue" points="1357.68,-406.408 1347.15,-407.576 1356.11,-413.23 1357.68,-406.408"/>
</g>
<!-- Node25 -->
<g id="node25" class="node"><title>Node25</title>
<polygon fill="white" stroke="#bfbfbf" points="1301.5,-469.5 1301.5,-488.5 1350.5,-488.5 1350.5,-469.5 1301.5,-469.5"/>
<text text-anchor="middle" x="1326" y="-476.5" font-family="Helvetica,sans-Serif" font-size="10.00">Button</text>
</g>
<!-- Node25&#45;&gt;Node23 -->
<g id="edge28" class="edge"><title>Node25&#45;&gt;Node23</title>
<path fill="none" stroke="#9a32cd" stroke-dasharray="5,2" d="M1360.98,-476.105C1403.41,-472.489 1475.51,-466.347 1517.33,-462.784"/>
<polygon fill="#9a32cd" stroke="#9a32cd" points="1360.53,-472.63 1350.86,-476.967 1361.13,-479.605 1360.53,-472.63"/>
<text text-anchor="middle" x="1450" y="-475" font-family="Helvetica,sans-Serif" font-size="10.00"> runButton</text>
</g>
<!-- Node26 -->
<g id="node26" class="node"><title>Node26</title>
<polygon fill="white" stroke="#bfbfbf" points="1297,-431.5 1297,-450.5 1355,-450.5 1355,-431.5 1297,-431.5"/>
<text text-anchor="middle" x="1326" y="-438.5" font-family="Helvetica,sans-Serif" font-size="10.00">TextArea</text>
</g>
<!-- Node26&#45;&gt;Node23 -->
<g id="edge30" class="edge"><title>Node26&#45;&gt;Node23</title>
<path fill="none" stroke="#9a32cd" stroke-dasharray="5,2" d="M1365.3,-442.493C1397.97,-443.978 1446.15,-446.67 1488,-451 1497.52,-451.985 1507.82,-453.356 1517.24,-454.732"/>
<polygon fill="#9a32cd" stroke="#9a32cd" points="1365.41,-438.995 1355.27,-442.053 1365.11,-445.988 1365.41,-438.995"/>
<text text-anchor="middle" x="1450" y="-454" font-family="Helvetica,sans-Serif" font-size="10.00"> textEditor</text>
</g>
<!-- Node27 -->
<g id="node27" class="node"><title>Node27</title>
<polygon fill="white" stroke="#bfbfbf" points="149.5,-531.5 149.5,-550.5 268.5,-550.5 268.5,-531.5 149.5,-531.5"/>
<text text-anchor="middle" x="209" y="-538.5" font-family="Helvetica,sans-Serif" font-size="10.00">Map&lt; String, Node &gt;</text>
</g>
<!-- Node27&#45;&gt;Node21 -->
<g id="edge32" class="edge"><title>Node27&#45;&gt;Node21</title>
<path fill="none" stroke="#9a32cd" stroke-dasharray="5,2" d="M278.833,-534.241C321.593,-529.197 377.467,-521.069 426,-509 451.566,-502.642 479.893,-492.168 499.106,-484.522"/>
<polygon fill="#9a32cd" stroke="#9a32cd" points="278.346,-530.774 268.812,-535.395 279.147,-537.728 278.346,-530.774"/>
<text text-anchor="middle" x="370" y="-533" font-family="Helvetica,sans-Serif" font-size="10.00"> variables</text>
</g>
<!-- Node28 -->
<g id="node28" class="node"><title>Node28</title>
<polygon fill="white" stroke="#bfbfbf" points="168.5,-493.5 168.5,-512.5 249.5,-512.5 249.5,-493.5 168.5,-493.5"/>
<text text-anchor="middle" x="209" y="-500.5" font-family="Helvetica,sans-Serif" font-size="10.00">Dimension2D</text>
</g>
<!-- Node28&#45;&gt;Node21 -->
<g id="edge34" class="edge"><title>Node28&#45;&gt;Node21</title>
<path fill="none" stroke="#9a32cd" stroke-dasharray="5,2" d="M259.5,-498.558C319.45,-493.178 419.55,-484.194 477.269,-479.014"/>
<polygon fill="#9a32cd" stroke="#9a32cd" points="259.162,-495.074 249.515,-499.454 259.788,-502.046 259.162,-495.074"/>
<text text-anchor="middle" x="370" y="-497" font-family="Helvetica,sans-Serif" font-size="10.00"> myDimensions</text>
</g>
<!-- Node29 -->
<g id="node29" class="node"><title>Node29</title>
<polygon fill="white" stroke="#bfbfbf" points="186,-455.5 186,-474.5 232,-474.5 232,-455.5 186,-455.5"/>
<text text-anchor="middle" x="209" y="-462.5" font-family="Helvetica,sans-Serif" font-size="10.00">Group</text>
</g>
<!-- Node29&#45;&gt;Node21 -->
<g id="edge37" class="edge"><title>Node29&#45;&gt;Node21</title>
<path fill="none" stroke="#9a32cd" stroke-dasharray="5,2" d="M242.311,-465.457C284.549,-466.121 360.829,-467.549 426,-470 442.677,-470.627 460.974,-471.527 477.08,-472.391"/>
<polygon fill="#9a32cd" stroke="#9a32cd" points="242.136,-461.954 232.084,-465.301 242.029,-468.953 242.136,-461.954"/>
<text text-anchor="middle" x="370" y="-473" font-family="Helvetica,sans-Serif" font-size="10.00"> lines</text>
</g>
<!-- Node30 -->
<g id="node30" class="node"><title>Node30</title>
<polygon fill="white" stroke="#bfbfbf" points="964,-393.5 964,-412.5 1102,-412.5 1102,-393.5 964,-393.5"/>
<text text-anchor="middle" x="1033" y="-400.5" font-family="Helvetica,sans-Serif" font-size="10.00">ObservableList&lt; String &gt;</text>
</g>
<!-- Node30&#45;&gt;Node7 -->
<g id="edge38" class="edge"><title>Node30&#45;&gt;Node7</title>
<path fill="none" stroke="#9a32cd" stroke-dasharray="5,2" d="M1103.03,-391.85C1160.76,-382.526 1240.93,-369.578 1287.45,-362.065"/>
<polygon fill="#9a32cd" stroke="#9a32cd" points="1102.2,-388.439 1092.89,-393.489 1103.32,-395.35 1102.2,-388.439"/>
<text text-anchor="middle" x="1189" y="-400" font-family="Helvetica,sans-Serif" font-size="10.00"> commandItems</text>
<text text-anchor="middle" x="1189" y="-389" font-family="Helvetica,sans-Serif" font-size="10.00">historyItems</text>
</g>
<!-- Node31 -->
<g id="node31" class="node"><title>Node31</title>
<polygon fill="white" stroke="#bfbfbf" points="980,-317.5 980,-336.5 1086,-336.5 1086,-317.5 980,-317.5"/>
<text text-anchor="middle" x="1033" y="-324.5" font-family="Helvetica,sans-Serif" font-size="10.00">ListView&lt; String &gt;</text>
</g>
<!-- Node31&#45;&gt;Node7 -->
<g id="edge39" class="edge"><title>Node31&#45;&gt;Node7</title>
<path fill="none" stroke="#9a32cd" stroke-dasharray="5,2" d="M1096.52,-323.913C1137.55,-322.942 1192.25,-323.65 1240,-331 1260.22,-334.112 1282.37,-340.739 1298.99,-346.388"/>
<polygon fill="#9a32cd" stroke="#9a32cd" points="1096.3,-320.418 1086.4,-324.193 1096.49,-327.415 1096.3,-320.418"/>
<text text-anchor="middle" x="1189" y="-334" font-family="Helvetica,sans-Serif" font-size="10.00"> historyList</text>
</g>
<!-- Node32 -->
<g id="node32" class="node"><title>Node32</title>
<polygon fill="white" stroke="#bfbfbf" points="1294.5,-126.5 1294.5,-145.5 1357.5,-145.5 1357.5,-126.5 1294.5,-126.5"/>
<text text-anchor="middle" x="1326" y="-133.5" font-family="Helvetica,sans-Serif" font-size="10.00">Rectangle</text>
</g>
<!-- Node32&#45;&gt;Node2 -->
<g id="edge40" class="edge"><title>Node32&#45;&gt;Node2</title>
<path fill="none" stroke="#9a32cd" stroke-dasharray="5,2" d="M1367.79,-134.31C1400.44,-133.545 1447.34,-133.767 1488,-139 1497.34,-140.202 1507.31,-142.259 1516.46,-144.471"/>
<polygon fill="#9a32cd" stroke="#9a32cd" points="1367.61,-130.813 1357.71,-134.587 1367.8,-137.81 1367.61,-130.813"/>
<text text-anchor="middle" x="1450" y="-142" font-family="Helvetica,sans-Serif" font-size="10.00"> myBackground</text>
</g>
<!-- Node33 -->
<g id="node33" class="node"><title>Node33</title>
<polygon fill="white" stroke="#bfbfbf" points="0.5,-158.5 0.5,-177.5 41.5,-177.5 41.5,-158.5 0.5,-158.5"/>
<text text-anchor="middle" x="21" y="-165.5" font-family="Helvetica,sans-Serif" font-size="10.00">Color</text>
</g>
<!-- Node33&#45;&gt;Node1 -->
<g id="edge41" class="edge"><title>Node33&#45;&gt;Node1</title>
<path fill="none" stroke="#9a32cd" stroke-dasharray="5,2" d="M51.8575,-168C84.6426,-168 137.265,-168 172.23,-168"/>
<polygon fill="#9a32cd" stroke="#9a32cd" points="51.5537,-164.5 41.5537,-168 51.5537,-171.5 51.5537,-164.5"/>
<text text-anchor="middle" x="82" y="-171" font-family="Helvetica,sans-Serif" font-size="10.00"> myColor</text>
</g>
</g>
</svg>
        <g id="navigator" transform="translate(0 0)" fill="#404254">
                <rect fill="#f2f5e9" fill-opacity="0.5" stroke="#606060" stroke-width=".5" x="0" y="0" width="60" height="60"/>
                <use id="zoomplus" xlink:href="#zoomPlus" x="17" y="9" onmousedown="handleZoom(evt,'in')"/>
                <use id="zoomminus" xlink:href="#zoomMin" x="42" y="9" onmousedown="handleZoom(evt,'out')"/>
                <use id="reset" xlink:href="#resetDef" x="30" y="36" onmousedown="handleReset()"/>
                <g id="arrowUp" xlink:href="#dirArrow" transform="translate(30 24)" onmousedown="handlePan(0,-1)">
                  <use xlink:href="#rim" fill="#404040">
                        <set attributeName="fill" to="#808080" begin="arrowUp.mouseover" end="arrowUp.mouseout"/>
                  </use>
                  <path fill="none" stroke="white" stroke-width="1.5" d="M0,-3.0v7 M-2.5,-0.5L0,-3.0L2.5,-0.5"/>
                </g>
                <g id="arrowRight" xlink:href="#dirArrow" transform="rotate(90) translate(36 -43)" onmousedown="handlePan(1,0)">
                  <use xlink:href="#rim" fill="#404040">
                        <set attributeName="fill" to="#808080" begin="arrowRight.mouseover" end="arrowRight.mouseout"/>
                  </use>
                  <path fill="none" stroke="white" stroke-width="1.5" d="M0,-3.0v7 M-2.5,-0.5L0,-3.0L2.5,-0.5"/>
                </g>
                <g id="arrowDown" xlink:href="#dirArrow" transform="rotate(180) translate(-30 -48)" onmousedown="handlePan(0,1)">
                  <use xlink:href="#rim" fill="#404040">
                        <set attributeName="fill" to="#808080" begin="arrowDown.mouseover" end="arrowDown.mouseout"/>
                  </use>
                  <path fill="none" stroke="white" stroke-width="1.5" d="M0,-3.0v7 M-2.5,-0.5L0,-3.0L2.5,-0.5"/>
                </g>
                <g id="arrowLeft" xlink:href="#dirArrow" transform="rotate(270) translate(-36 17)" onmousedown="handlePan(-1,0)">
                  <use xlink:href="#rim" fill="#404040">
                        <set attributeName="fill" to="#808080" begin="arrowLeft.mouseover" end="arrowLeft.mouseout"/>
                  </use>
                  <path fill="none" stroke="white" stroke-width="1.5" d="M0,-3.0v7 M-2.5,-0.5L0,-3.0L2.5,-0.5"/>
                </g>
        </g>
        <svg viewBox="0 0 15 15" width="100%" height="30px" preserveAspectRatio="xMaxYMin meet">
         <g id="arrow_out" transform="scale(0.3 0.3)">
          <a xlink:href="classview_1_1_drawer__coll__graph_org.svg" target="_base">
           <rect id="button" ry="5" rx="5" y="6" x="6" height="38" width="38"
                fill="#f2f5e9" fill-opacity="0.5" stroke="#606060" stroke-width="1.0"/>
           <path id="arrow"
             d="M 11.500037,31.436501 C 11.940474,20.09759 22.043105,11.32322 32.158766,21.979434 L 37.068811,17.246167 C 37.068811,17.246167 37.088388,32 37.088388,32 L 22.160133,31.978069 C 22.160133,31.978069 26.997745,27.140456 26.997745,27.140456 C 18.528582,18.264221 13.291696,25.230495 11.500037,31.436501 z"
             style="fill:#404040;"/>
          </a>
         </g>
        </svg>
</svg>
