<?xml version="1.0" encoding="UTF-8" standalone="no"?>
<!DOCTYPE svg PUBLIC "-//W3C//DTD SVG 1.1//EN"
 "http://www.w3.org/Graphics/SVG/1.1/DTD/svg11.dtd">
<!-- Generated by graphviz version 2.36.0 (20140111.2315)
 -->
<!-- Title: view.Drawer Pages: 1 -->
<!--zoomable 778 -->
<svg id="main" version="1.1" xmlns="http://www.w3.org/2000/svg" xmlns:xlink="http://www.w3.org/1999/xlink" xml:space="preserve" onload="init(evt)">
<style type="text/css"><![CDATA[
.edge:hover path { stroke: red; }
.edge:hover polygon { stroke: red; fill: red; }
]]></style>
<script type="text/javascript"><![CDATA[
var edges = document.getElementsByTagName('g');
if (edges && edges.length) {
  for (var i=0;i<edges.length;i++) {
    if (edges[i].id.substr(0,4)=='edge') {
      edges[i].setAttribute('class','edge');
    }
  }
}
]]></script>
        <defs>
                <circle id="rim" cx="0" cy="0" r="7"/>
                <circle id="rim2" cx="0" cy="0" r="3.5"/>
                <g id="zoomPlus">
                        <use xlink:href="#rim" fill="#404040">
                                <set attributeName="fill" to="#808080" begin="zoomplus.mouseover" end="zoomplus.mouseout"/>
                        </use>
                        <path d="M-4,0h8M0,-4v8" fill="none" stroke="white" stroke-width="1.5" pointer-events="none"/>
                </g>
                <g id="zoomMin">
                        <use xlink:href="#rim" fill="#404040">
                                <set attributeName="fill" to="#808080" begin="zoomminus.mouseover" end="zoomminus.mouseout"/>
                        </use>
                        <path d="M-4,0h8" fill="none" stroke="white" stroke-width="1.5" pointer-events="none"/>
                </g>
                <g id="dirArrow">
                        <path fill="none" stroke="white" stroke-width="1.5" d="M0,-3.0v7 M-2.5,-0.5L0,-3.0L2.5,-0.5"/>
                </g>
               <g id="resetDef">
                       <use xlink:href="#rim2" fill="#404040">
                               <set attributeName="fill" to="#808080" begin="reset.mouseover" end="reset.mouseout"/>
                       </use>
               </g>
        </defs>

<script type="text/javascript">
var viewWidth = 1502;
var viewHeight = 778;
var sectionId = 'dynsection-0';
</script>
<script xlink:href="../../svgpan.js"/>
<svg id="graph" class="graph">
<g id="viewport">
<title>view.Drawer</title>
<polygon fill="white" stroke="none" points="-4,4 -4,-774 1498,-774 1498,4 -4,4"/>
<!-- Node1 -->
<g id="node1" class="node"><title>Node1</title>
<polygon fill="#bfbfbf" stroke="black" points="364.5,-527.5 364.5,-546.5 437.5,-546.5 437.5,-527.5 364.5,-527.5"/>
<text text-anchor="middle" x="401" y="-534.5" font-family="Helvetica,sans-Serif" font-size="10.00">view.Drawer</text>
</g>
<!-- Node22 -->
<g id="node22" class="node"><title>Node22</title>
<g id="a_node22"><a xlink:href="../../d6/de7/classview_1_1_s_logo_view.html" target="_top" xlink:title="view.SLogoView">
<polygon fill="white" stroke="black" points="611.5,-384.5 611.5,-403.5 702.5,-403.5 702.5,-384.5 611.5,-384.5"/>
<text text-anchor="middle" x="657" y="-391.5" font-family="Helvetica,sans-Serif" font-size="10.00">view.SLogoView</text>
</a>
</g>
</g>
<!-- Node1&#45;&gt;Node22 -->
<g id="edge38" class="edge"><title>Node1&#45;&gt;Node22</title>
<path fill="none" stroke="#9a32cd" stroke-dasharray="5,2" d="M447.726,-531.583C485.178,-525.448 538.28,-512.732 578,-487 612.488,-464.658 639.692,-422.393 650.699,-403.519"/>
<polygon fill="#9a32cd" stroke="#9a32cd" points="446.951,-528.161 437.601,-533.144 448.018,-535.079 446.951,-528.161"/>
<text text-anchor="middle" x="538" y="-524" font-family="Helvetica,sans-Serif" font-size="10.00"> drawer</text>
</g>
<!-- Node2 -->
<g id="node2" class="node"><title>Node2</title>
<g id="a_node2"><a xlink:href="../../da/d64/classview_1_1_workspace.html" target="_top" xlink:title="view.Workspace">
<polygon fill="white" stroke="black" points="1404,-586.5 1404,-605.5 1494,-605.5 1494,-586.5 1404,-586.5"/>
<text text-anchor="middle" x="1449" y="-593.5" font-family="Helvetica,sans-Serif" font-size="10.00">view.Workspace</text>
</a>
</g>
</g>
<!-- Node2&#45;&gt;Node1 -->
<g id="edge1" class="edge"><title>Node2&#45;&gt;Node1</title>
<path fill="none" stroke="#9a32cd" stroke-dasharray="5,2" d="M1393.59,-594.991C1314.73,-593.368 1164.07,-589.664 1036,-583 807.866,-571.13 534.143,-548.38 437.717,-540.106"/>
<polygon fill="#9a32cd" stroke="#9a32cd" points="1393.7,-598.494 1403.77,-595.197 1393.84,-591.496 1393.7,-598.494"/>
<text text-anchor="middle" x="931" y="-585" font-family="Helvetica,sans-Serif" font-size="10.00"> myWorkspace</text>
</g>
<!-- Node2&#45;&gt;Node22 -->
<g id="edge25" class="edge"><title>Node2&#45;&gt;Node22</title>
<path fill="none" stroke="#9a32cd" stroke-dasharray="5,2" d="M1399.54,-584.424C1394.98,-583.526 1390.41,-582.698 1386,-582 1266.53,-563.084 956.981,-575.193 844,-532 765.88,-502.135 691.916,-429.699 666.926,-403.585"/>
<polygon fill="#9a32cd" stroke="#9a32cd" points="1398.95,-587.877 1409.45,-586.481 1400.37,-581.023 1398.95,-587.877"/>
<text text-anchor="middle" x="1087" y="-571" font-family="Helvetica,sans-Serif" font-size="10.00"> myWorkspace</text>
</g>
<!-- Node3 -->
<g id="node3" class="node"><title>Node3</title>
<polygon fill="white" stroke="#bfbfbf" points="1190.5,-712.5 1190.5,-731.5 1257.5,-731.5 1257.5,-712.5 1190.5,-712.5"/>
<text text-anchor="middle" x="1224" y="-719.5" font-family="Helvetica,sans-Serif" font-size="10.00">StackPane</text>
</g>
<!-- Node3&#45;&gt;Node2 -->
<g id="edge2" class="edge"><title>Node3&#45;&gt;Node2</title>
<path fill="none" stroke="midnightblue" d="M1267.7,-717.968C1302.11,-713.016 1350.45,-702.069 1386,-678 1414.08,-658.991 1434.63,-623.029 1443.36,-605.75"/>
<polygon fill="midnightblue" stroke="midnightblue" points="1266.96,-714.536 1257.5,-719.32 1267.88,-721.476 1266.96,-714.536"/>
</g>
<!-- Node4 -->
<g id="node4" class="node"><title>Node4</title>
<polygon fill="white" stroke="#bfbfbf" points="354.5,-97.5 354.5,-116.5 447.5,-116.5 447.5,-97.5 354.5,-97.5"/>
<text text-anchor="middle" x="401" y="-104.5" font-family="Helvetica,sans-Serif" font-size="10.00">ResourceBundle</text>
</g>
<!-- Node4&#45;&gt;Node2 -->
<g id="edge3" class="edge"><title>Node4&#45;&gt;Node2</title>
<path fill="none" stroke="#9a32cd" stroke-dasharray="5,2" d="M453.919,-95.4487C468.136,-92.7833 483.598,-90.3385 498,-89 728.162,-67.6087 792.975,-46.1238 1018,-99 1039.88,-104.141 1372.14,-249.306 1386,-267 1426.68,-318.937 1443.96,-537.45 1447.36,-586.29"/>
<polygon fill="#9a32cd" stroke="#9a32cd" points="452.966,-92.0684 443.819,-97.4158 454.304,-98.9393 452.966,-92.0684"/>
<text text-anchor="middle" x="931" y="-102" font-family="Helvetica,sans-Serif" font-size="10.00"> myResources</text>
</g>
<!-- Node9 -->
<g id="node9" class="node"><title>Node9</title>
<g id="a_node9"><a xlink:href="../../d1/dc7/classview_1_1_side_bar.html" target="_top" xlink:title="view.SideBar">
<polygon fill="white" stroke="black" points="1185.5,-361.5 1185.5,-380.5 1262.5,-380.5 1262.5,-361.5 1185.5,-361.5"/>
<text text-anchor="middle" x="1224" y="-368.5" font-family="Helvetica,sans-Serif" font-size="10.00">view.SideBar</text>
</a>
</g>
</g>
<!-- Node4&#45;&gt;Node9 -->
<g id="edge11" class="edge"><title>Node4&#45;&gt;Node9</title>
<path fill="none" stroke="#9a32cd" stroke-dasharray="5,2" d="M457.591,-100.113C590.692,-86.7872 931.895,-71.7622 1138,-235 1182.74,-270.439 1210.33,-336.33 1219.55,-361.177"/>
<polygon fill="#9a32cd" stroke="#9a32cd" points="457.203,-96.634 447.618,-101.147 457.926,-103.597 457.203,-96.634"/>
<text text-anchor="middle" x="781" y="-112" font-family="Helvetica,sans-Serif" font-size="10.00"> myResources</text>
</g>
<!-- Node4&#45;&gt;Node22 -->
<g id="edge27" class="edge"><title>Node4&#45;&gt;Node22</title>
<path fill="none" stroke="#9a32cd" stroke-dasharray="5,2" d="M421.22,-123.456C454.968,-152.836 526.205,-217.061 578,-279 608.487,-315.458 638.242,-363.905 650.339,-384.3"/>
<polygon fill="#9a32cd" stroke="#9a32cd" points="423.335,-120.657 413.483,-116.759 418.754,-125.95 423.335,-120.657"/>
<text text-anchor="middle" x="538" y="-282" font-family="Helvetica,sans-Serif" font-size="10.00"> myResources</text>
</g>
<!-- Node5 -->
<g id="node5" class="node"><title>Node5</title>
<g id="a_node5"><a xlink:href="../../d8/df7/classview_1_1_turtle_view.html" target="_top" xlink:title="view.TurtleView">
<polygon fill="white" stroke="black" points="1181,-750.5 1181,-769.5 1267,-769.5 1267,-750.5 1181,-750.5"/>
<text text-anchor="middle" x="1224" y="-757.5" font-family="Helvetica,sans-Serif" font-size="10.00">view.TurtleView</text>
</a>
</g>
</g>
<!-- Node5&#45;&gt;Node2 -->
<g id="edge4" class="edge"><title>Node5&#45;&gt;Node2</title>
<path fill="none" stroke="#9a32cd" stroke-dasharray="5,2" d="M1277.55,-753.483C1311.7,-746.918 1355.4,-733.852 1386,-708 1419.96,-679.316 1438.7,-627.092 1445.27,-605.616"/>
<polygon fill="#9a32cd" stroke="#9a32cd" points="1276.51,-750.113 1267.29,-755.319 1277.75,-757.004 1276.51,-750.113"/>
<text text-anchor="middle" x="1348" y="-747" font-family="Helvetica,sans-Serif" font-size="10.00"> myActiveTurtle</text>
</g>
<!-- Node6 -->
<g id="node6" class="node"><title>Node6</title>
<polygon fill="white" stroke="#bfbfbf" points="897,-750.5 897,-769.5 965,-769.5 965,-750.5 897,-750.5"/>
<text text-anchor="middle" x="931" y="-757.5" font-family="Helvetica,sans-Serif" font-size="10.00">ImageView</text>
</g>
<!-- Node6&#45;&gt;Node5 -->
<g id="edge5" class="edge"><title>Node6&#45;&gt;Node5</title>
<path fill="none" stroke="midnightblue" d="M975.27,-760C1030.55,-760 1125.64,-760 1180.53,-760"/>
<polygon fill="midnightblue" stroke="midnightblue" points="975.098,-756.5 965.098,-760 975.098,-763.5 975.098,-756.5"/>
</g>
<!-- Node7 -->
<g id="node7" class="node"><title>Node7</title>
<polygon fill="white" stroke="#bfbfbf" points="1156,-663 1156,-693 1292,-693 1292,-663 1156,-663"/>
<text text-anchor="start" x="1164" y="-681" font-family="Helvetica,sans-Serif" font-size="10.00">Map&lt; Integer, view.Turtle</text>
<text text-anchor="middle" x="1224" y="-670" font-family="Helvetica,sans-Serif" font-size="10.00">View &gt;</text>
</g>
<!-- Node7&#45;&gt;Node2 -->
<g id="edge6" class="edge"><title>Node7&#45;&gt;Node2</title>
<path fill="none" stroke="#9a32cd" stroke-dasharray="5,2" d="M1302.03,-664.646C1329.26,-658.433 1359.64,-649.753 1386,-638 1405,-629.528 1424.47,-615.24 1436.4,-605.715"/>
<polygon fill="#9a32cd" stroke="#9a32cd" points="1301.17,-661.252 1292.16,-666.824 1302.67,-668.088 1301.17,-661.252"/>
<text text-anchor="middle" x="1348" y="-666" font-family="Helvetica,sans-Serif" font-size="10.00"> myTurtles</text>
</g>
<!-- Node8 -->
<g id="node8" class="node"><title>Node8</title>
<polygon fill="white" stroke="#bfbfbf" points="1201,-624.5 1201,-643.5 1247,-643.5 1247,-624.5 1201,-624.5"/>
<text text-anchor="middle" x="1224" y="-631.5" font-family="Helvetica,sans-Serif" font-size="10.00">Group</text>
</g>
<!-- Node8&#45;&gt;Node2 -->
<g id="edge7" class="edge"><title>Node8&#45;&gt;Node2</title>
<path fill="none" stroke="#9a32cd" stroke-dasharray="5,2" d="M1257.51,-629.873C1290.12,-625.566 1341.7,-618.291 1386,-610 1393.05,-608.68 1400.52,-607.128 1407.74,-605.547"/>
<polygon fill="#9a32cd" stroke="#9a32cd" points="1256.69,-626.451 1247.22,-631.217 1257.59,-633.393 1256.69,-626.451"/>
<text text-anchor="middle" x="1348" y="-626" font-family="Helvetica,sans-Serif" font-size="10.00"> myLines</text>
</g>
<!-- Node9&#45;&gt;Node2 -->
<g id="edge8" class="edge"><title>Node9&#45;&gt;Node2</title>
<path fill="none" stroke="#9a32cd" stroke-dasharray="5,2" d="M1248.1,-386.384C1281.15,-409.101 1342.69,-454.127 1386,-502 1411.05,-529.689 1433.23,-568.386 1442.88,-586.252"/>
<polygon fill="#9a32cd" stroke="#9a32cd" points="1249.81,-383.315 1239.58,-380.584 1245.88,-389.103 1249.81,-383.315"/>
<text text-anchor="middle" x="1348" y="-505" font-family="Helvetica,sans-Serif" font-size="10.00"> mySidebar</text>
</g>
<!-- Node9&#45;&gt;Node22 -->
<g id="edge39" class="edge"><title>Node9&#45;&gt;Node22</title>
<path fill="none" stroke="#9a32cd" stroke-dasharray="5,2" d="M1182.01,-383.335C1168.14,-387.177 1152.48,-391.15 1138,-394 980.398,-425.015 788.009,-409.326 702.562,-399.68"/>
<polygon fill="#9a32cd" stroke="#9a32cd" points="1183.09,-386.667 1191.76,-380.578 1181.19,-379.931 1183.09,-386.667"/>
<text text-anchor="middle" x="931" y="-416" font-family="Helvetica,sans-Serif" font-size="10.00"> mySidebar</text>
</g>
<!-- Node24 -->
<g id="node24" class="node"><title>Node24</title>
<g id="a_node24"><a xlink:href="../../da/dc8/classview_1_1_editor.html" target="_top" xlink:title="view.Editor">
<polygon fill="white" stroke="black" points="1415.5,-103.5 1415.5,-122.5 1482.5,-122.5 1482.5,-103.5 1415.5,-103.5"/>
<text text-anchor="middle" x="1449" y="-110.5" font-family="Helvetica,sans-Serif" font-size="10.00">view.Editor</text>
</a>
</g>
</g>
<!-- Node9&#45;&gt;Node24 -->
<g id="edge33" class="edge"><title>Node9&#45;&gt;Node24</title>
<path fill="none" stroke="#9a32cd" stroke-dasharray="5,2" d="M1259.61,-357.36C1295.68,-341.542 1351.64,-312.252 1386,-271 1425.22,-223.904 1441.64,-149.034 1446.42,-122.614"/>
<polygon fill="#9a32cd" stroke="#9a32cd" points="1257.82,-354.318 1250,-361.463 1260.57,-360.756 1257.82,-354.318"/>
<text text-anchor="middle" x="1348" y="-335" font-family="Helvetica,sans-Serif" font-size="10.00"> mySidebar</text>
</g>
<!-- Node10 -->
<g id="node10" class="node"><title>Node10</title>
<polygon fill="white" stroke="#bfbfbf" points="910.5,-380.5 910.5,-399.5 951.5,-399.5 951.5,-380.5 910.5,-380.5"/>
<text text-anchor="middle" x="931" y="-387.5" font-family="Helvetica,sans-Serif" font-size="10.00">VBox</text>
</g>
<!-- Node10&#45;&gt;Node9 -->
<g id="edge9" class="edge"><title>Node10&#45;&gt;Node9</title>
<path fill="none" stroke="midnightblue" d="M961.691,-388.061C1014.99,-384.582 1126.77,-377.283 1185.36,-373.458"/>
<polygon fill="midnightblue" stroke="midnightblue" points="961.296,-384.58 951.545,-388.724 961.752,-391.565 961.296,-384.58"/>
</g>
<!-- Node11 -->
<g id="node11" class="node"><title>Node11</title>
<polygon fill="white" stroke="#bfbfbf" points="844.5,-342.5 844.5,-361.5 1017.5,-361.5 1017.5,-342.5 844.5,-342.5"/>
<text text-anchor="middle" x="931" y="-349.5" font-family="Helvetica,sans-Serif" font-size="10.00">ObservableList&lt; view.Property &gt;</text>
</g>
<!-- Node11&#45;&gt;Node9 -->
<g id="edge10" class="edge"><title>Node11&#45;&gt;Node9</title>
<path fill="none" stroke="#9a32cd" stroke-dasharray="5,2" d="M1027.66,-355.509C1062.43,-357.083 1102.01,-359.224 1138,-362 1153.54,-363.199 1170.63,-364.928 1185.38,-366.551"/>
<polygon fill="#9a32cd" stroke="#9a32cd" points="1027.66,-352.005 1017.51,-355.059 1027.35,-358.998 1027.66,-352.005"/>
<text text-anchor="middle" x="1087" y="-365" font-family="Helvetica,sans-Serif" font-size="10.00"> variablesList</text>
</g>
<!-- Node12 -->
<g id="node12" class="node"><title>Node12</title>
<g id="a_node12"><a xlink:href="../../d1/dca/classmodel_1_1_execution_environment.html" target="_top" xlink:title="model.ExecutionEnvironment">
<polygon fill="white" stroke="black" points="322.5,-308.5 322.5,-327.5 479.5,-327.5 479.5,-308.5 322.5,-308.5"/>
<text text-anchor="middle" x="401" y="-315.5" font-family="Helvetica,sans-Serif" font-size="10.00">model.ExecutionEnvironment</text>
</a>
</g>
</g>
<!-- Node12&#45;&gt;Node9 -->
<g id="edge12" class="edge"><title>Node12&#45;&gt;Node9</title>
<path fill="none" stroke="#9a32cd" stroke-dasharray="5,2" d="M490.016,-315.542C575.802,-313.677 709.917,-312.172 826,-317 911.555,-320.559 932.988,-322.742 1018,-333 1071.61,-339.469 1084.96,-341.883 1138,-352 1153.6,-354.975 1170.7,-358.706 1185.45,-362.072"/>
<polygon fill="#9a32cd" stroke="#9a32cd" points="489.717,-312.047 479.798,-315.77 489.874,-319.046 489.717,-312.047"/>
<text text-anchor="middle" x="781" y="-320" font-family="Helvetica,sans-Serif" font-size="10.00"> myEnvironment</text>
</g>
<!-- Node18 -->
<g id="node18" class="node"><title>Node18</title>
<g id="a_node18"><a xlink:href="../../dc/df5/classmodel_1_1_parser.html" target="_top" xlink:title="model.Parser">
<polygon fill="white" stroke="black" points="891,-210.5 891,-229.5 971,-229.5 971,-210.5 891,-210.5"/>
<text text-anchor="middle" x="931" y="-217.5" font-family="Helvetica,sans-Serif" font-size="10.00">model.Parser</text>
</a>
</g>
</g>
<!-- Node12&#45;&gt;Node18 -->
<g id="edge21" class="edge"><title>Node12&#45;&gt;Node18</title>
<path fill="none" stroke="#9a32cd" stroke-dasharray="5,2" d="M428.517,-303.671C465.023,-284.748 533.371,-252.168 596,-238 700.499,-214.359 827.856,-215.445 890.846,-217.896"/>
<polygon fill="#9a32cd" stroke="#9a32cd" points="426.748,-300.647 419.52,-308.394 430.001,-306.845 426.748,-300.647"/>
<text text-anchor="middle" x="657" y="-241" font-family="Helvetica,sans-Serif" font-size="10.00"> myExecutionParameters</text>
</g>
<!-- Node12&#45;&gt;Node22 -->
<g id="edge35" class="edge"><title>Node12&#45;&gt;Node22</title>
<path fill="none" stroke="#9a32cd" stroke-dasharray="5,2" d="M434.807,-331.333C453.211,-338.551 476.689,-347.329 498,-354 536.481,-366.045 581.078,-377.075 613.058,-384.487"/>
<polygon fill="#9a32cd" stroke="#9a32cd" points="436.004,-328.043 425.418,-327.614 433.426,-334.551 436.004,-328.043"/>
<text text-anchor="middle" x="538" y="-379" font-family="Helvetica,sans-Serif" font-size="10.00"> myEnvironment</text>
</g>
<!-- Node13 -->
<g id="node13" class="node"><title>Node13</title>
<polygon fill="white" stroke="#bfbfbf" points="51.5,-248.5 51.5,-267.5 122.5,-267.5 122.5,-248.5 51.5,-248.5"/>
<text text-anchor="middle" x="87" y="-255.5" font-family="Helvetica,sans-Serif" font-size="10.00">Observable</text>
</g>
<!-- Node13&#45;&gt;Node12 -->
<g id="edge13" class="edge"><title>Node13&#45;&gt;Node12</title>
<path fill="none" stroke="midnightblue" d="M132.487,-266.555C190.132,-277.641 290.341,-296.912 350.388,-308.459"/>
<polygon fill="midnightblue" stroke="midnightblue" points="133.063,-263.102 122.582,-264.65 131.741,-269.976 133.063,-263.102"/>
</g>
<!-- Node14 -->
<g id="node14" class="node"><title>Node14</title>
<polygon fill="white" stroke="#bfbfbf" points="42.5,-374.5 42.5,-393.5 131.5,-393.5 131.5,-374.5 42.5,-374.5"/>
<text text-anchor="middle" x="87" y="-381.5" font-family="Helvetica,sans-Serif" font-size="10.00">Set&lt; Integer &gt;</text>
</g>
<!-- Node14&#45;&gt;Node12 -->
<g id="edge14" class="edge"><title>Node14&#45;&gt;Node12</title>
<path fill="none" stroke="#9a32cd" stroke-dasharray="5,2" d="M141.972,-377.109C185.917,-370.995 249.393,-361.017 304,-348 327.61,-342.372 353.883,-334.011 372.967,-327.544"/>
<polygon fill="#9a32cd" stroke="#9a32cd" points="141.225,-373.678 131.794,-378.504 142.176,-380.613 141.225,-373.678"/>
<text text-anchor="middle" x="248" y="-384" font-family="Helvetica,sans-Serif" font-size="10.00"> myTurtleList</text>
<text text-anchor="middle" x="248" y="-373" font-family="Helvetica,sans-Serif" font-size="10.00">activeTurtleList</text>
</g>
<!-- Node15 -->
<g id="node15" class="node"><title>Node15</title>
<polygon fill="white" stroke="#bfbfbf" points="0,-325 0,-355 174,-355 174,-325 0,-325"/>
<text text-anchor="start" x="8" y="-343" font-family="Helvetica,sans-Serif" font-size="10.00">Map&lt; String, model.instructions.</text>
<text text-anchor="middle" x="87" y="-332" font-family="Helvetica,sans-Serif" font-size="10.00">Instruction &gt;</text>
</g>
<!-- Node15&#45;&gt;Node12 -->
<g id="edge15" class="edge"><title>Node15&#45;&gt;Node12</title>
<path fill="none" stroke="#9a32cd" stroke-dasharray="5,2" d="M184.305,-333.209C228.685,-330.08 280.655,-326.415 322.461,-323.468"/>
<polygon fill="#9a32cd" stroke="#9a32cd" points="183.81,-329.735 174.081,-333.93 184.303,-336.718 183.81,-329.735"/>
<text text-anchor="middle" x="248" y="-336" font-family="Helvetica,sans-Serif" font-size="10.00"> myUserInstructionMap</text>
</g>
<!-- Node16 -->
<g id="node16" class="node"><title>Node16</title>
<polygon fill="white" stroke="#bfbfbf" points="23,-286.5 23,-305.5 151,-305.5 151,-286.5 23,-286.5"/>
<text text-anchor="middle" x="87" y="-293.5" font-family="Helvetica,sans-Serif" font-size="10.00">Map&lt; String, Double &gt;</text>
</g>
<!-- Node16&#45;&gt;Node12 -->
<g id="edge16" class="edge"><title>Node16&#45;&gt;Node12</title>
<path fill="none" stroke="#9a32cd" stroke-dasharray="5,2" d="M161.422,-301.036C203.216,-303.918 256.544,-307.622 304,-311 310.001,-311.427 316.212,-311.873 322.456,-312.323"/>
<polygon fill="#9a32cd" stroke="#9a32cd" points="161.546,-297.536 151.329,-300.34 161.065,-304.519 161.546,-297.536"/>
<text text-anchor="middle" x="248" y="-314" font-family="Helvetica,sans-Serif" font-size="10.00"> myVariableMap</text>
</g>
<!-- Node17 -->
<g id="node17" class="node"><title>Node17</title>
<polygon fill="white" stroke="#bfbfbf" points="857,-503.5 857,-522.5 1005,-522.5 1005,-503.5 857,-503.5"/>
<text text-anchor="middle" x="931" y="-510.5" font-family="Helvetica,sans-Serif" font-size="10.00">TableView&lt; view.Property &gt;</text>
</g>
<!-- Node17&#45;&gt;Node9 -->
<g id="edge17" class="edge"><title>Node17&#45;&gt;Node9</title>
<path fill="none" stroke="#9a32cd" stroke-dasharray="5,2" d="M1015.14,-511.001C1062.93,-508.531 1117.44,-503.062 1138,-491 1182.92,-464.651 1210.23,-404.094 1219.46,-380.581"/>
<polygon fill="#9a32cd" stroke="#9a32cd" points="1014.89,-507.509 1005.06,-511.483 1015.22,-514.501 1014.89,-507.509"/>
<text text-anchor="middle" x="1087" y="-524" font-family="Helvetica,sans-Serif" font-size="10.00"> turtlePropertiesTable</text>
<text text-anchor="middle" x="1087" y="-513" font-family="Helvetica,sans-Serif" font-size="10.00">variablesTable</text>
</g>
<!-- Node18&#45;&gt;Node9 -->
<g id="edge18" class="edge"><title>Node18&#45;&gt;Node9</title>
<path fill="none" stroke="#9a32cd" stroke-dasharray="5,2" d="M958.251,-234.335C978.888,-245.116 1008.62,-259.591 1036,-269 1079.95,-284.105 1096.89,-270.322 1138,-292 1171.68,-309.762 1201.96,-344.357 1215.5,-361.249"/>
<polygon fill="#9a32cd" stroke="#9a32cd" points="959.652,-231.117 949.177,-229.526 956.374,-237.301 959.652,-231.117"/>
<text text-anchor="middle" x="1087" y="-295" font-family="Helvetica,sans-Serif" font-size="10.00"> myParser</text>
</g>
<!-- Node18&#45;&gt;Node22 -->
<g id="edge36" class="edge"><title>Node18&#45;&gt;Node22</title>
<path fill="none" stroke="#9a32cd" stroke-dasharray="5,2" d="M899.356,-233.635C878.852,-242.444 851.122,-253.758 826,-262 786.772,-274.87 770.076,-261.69 736,-285 697.588,-311.276 671.587,-363.024 662.05,-384.406"/>
<polygon fill="#9a32cd" stroke="#9a32cd" points="901.019,-236.729 908.799,-229.536 898.232,-230.307 901.019,-236.729"/>
<text text-anchor="middle" x="781" y="-288" font-family="Helvetica,sans-Serif" font-size="10.00"> myParser</text>
</g>
<!-- Node18&#45;&gt;Node24 -->
<g id="edge31" class="edge"><title>Node18&#45;&gt;Node24</title>
<path fill="none" stroke="#9a32cd" stroke-dasharray="5,2" d="M952.975,-204.55C991.058,-177.57 1075.13,-122.847 1156,-103 1247.87,-80.4514 1360.86,-96.0642 1415.44,-106.203"/>
<polygon fill="#9a32cd" stroke="#9a32cd" points="950.809,-201.796 944.728,-210.472 954.892,-207.482 950.809,-201.796"/>
<text text-anchor="middle" x="1224" y="-106" font-family="Helvetica,sans-Serif" font-size="10.00"> myParser</text>
</g>
<!-- Node19 -->
<g id="node19" class="node"><title>Node19</title>
<polygon fill="white" stroke="#bfbfbf" points="371,-221.5 371,-240.5 431,-240.5 431,-221.5 371,-221.5"/>
<text text-anchor="middle" x="401" y="-228.5" font-family="Helvetica,sans-Serif" font-size="10.00">Observer</text>
</g>
<!-- Node19&#45;&gt;Node18 -->
<g id="edge19" class="edge"><title>Node19&#45;&gt;Node18</title>
<path fill="none" stroke="midnightblue" d="M431.821,-217.471C450.424,-209.786 475.105,-200.935 498,-197 641.231,-172.385 814.749,-198.122 890.937,-212.155"/>
<polygon fill="midnightblue" stroke="midnightblue" points="430.258,-214.333 422.425,-221.467 432.997,-220.774 430.258,-214.333"/>
</g>
<!-- Node19&#45;&gt;Node22 -->
<g id="edge24" class="edge"><title>Node19&#45;&gt;Node22</title>
<path fill="none" stroke="midnightblue" d="M425.623,-246.16C477.152,-279.227 598.431,-357.056 640.951,-384.343"/>
<polygon fill="midnightblue" stroke="midnightblue" points="427.435,-243.164 417.128,-240.708 423.654,-249.055 427.435,-243.164"/>
</g>
<!-- Node20 -->
<g id="node20" class="node"><title>Node20</title>
<polygon fill="white" stroke="#bfbfbf" points="601,-259 601,-289 713,-289 713,-259 601,-259"/>
<text text-anchor="start" x="609" y="-277" font-family="Helvetica,sans-Serif" font-size="10.00">List&lt; Entry&lt; String,</text>
<text text-anchor="middle" x="657" y="-266" font-family="Helvetica,sans-Serif" font-size="10.00"> Pattern &gt; &gt;</text>
</g>
<!-- Node20&#45;&gt;Node18 -->
<g id="edge20" class="edge"><title>Node20&#45;&gt;Node18</title>
<path fill="none" stroke="#9a32cd" stroke-dasharray="5,2" d="M715.552,-256.129C722.41,-254.267 729.339,-252.508 736,-251 789.06,-238.99 851.31,-229.912 890.702,-224.774"/>
<polygon fill="#9a32cd" stroke="#9a32cd" points="714.284,-252.849 705.596,-258.913 716.169,-259.591 714.284,-252.849"/>
<text text-anchor="middle" x="781" y="-254" font-family="Helvetica,sans-Serif" font-size="10.00"> myPatterns</text>
</g>
<!-- Node21 -->
<g id="node21" class="node"><title>Node21</title>
<polygon fill="white" stroke="#bfbfbf" points="596,-135.5 596,-154.5 718,-154.5 718,-135.5 596,-135.5"/>
<text text-anchor="middle" x="657" y="-142.5" font-family="Helvetica,sans-Serif" font-size="10.00">Map&lt; String, String &gt;</text>
</g>
<!-- Node21&#45;&gt;Node18 -->
<g id="edge22" class="edge"><title>Node21&#45;&gt;Node18</title>
<path fill="none" stroke="#9a32cd" stroke-dasharray="5,2" d="M728.514,-143.319C759.094,-144.398 794.937,-148.138 826,-158 862.464,-169.576 899.646,-196.029 918.095,-210.355"/>
<polygon fill="#9a32cd" stroke="#9a32cd" points="728.449,-139.816 718.36,-143.05 728.263,-146.813 728.449,-139.816"/>
<text text-anchor="middle" x="781" y="-161" font-family="Helvetica,sans-Serif" font-size="10.00"> myCommandMap</text>
</g>
<!-- Node22&#45;&gt;Node18 -->
<g id="edge23" class="edge"><title>Node22&#45;&gt;Node18</title>
<path fill="none" stroke="#9a32cd" stroke-dasharray="5,2" d="M682.304,-379.334C697.355,-370.735 717.316,-360.184 736,-353 774.535,-338.183 796.976,-359.362 826,-330 849.795,-305.928 822.027,-281.746 844,-256 855.873,-242.088 874.021,-233.443 890.59,-228.126"/>
<polygon fill="#9a32cd" stroke="#9a32cd" points="680.503,-376.333 673.621,-384.389 684.024,-382.382 680.503,-376.333"/>
<text text-anchor="middle" x="781" y="-356" font-family="Helvetica,sans-Serif" font-size="10.00"> mySLogoView</text>
</g>
<!-- Node23 -->
<g id="node23" class="node"><title>Node23</title>
<polygon fill="white" stroke="#bfbfbf" points="378.5,-398.5 378.5,-417.5 423.5,-417.5 423.5,-398.5 378.5,-398.5"/>
<text text-anchor="middle" x="401" y="-405.5" font-family="Helvetica,sans-Serif" font-size="10.00">Stage</text>
</g>
<!-- Node23&#45;&gt;Node22 -->
<g id="edge26" class="edge"><title>Node23&#45;&gt;Node22</title>
<path fill="none" stroke="#9a32cd" stroke-dasharray="5,2" d="M433.658,-406.255C478.37,-403.791 560.235,-399.278 611.179,-396.47"/>
<polygon fill="#9a32cd" stroke="#9a32cd" points="433.448,-402.761 423.656,-406.806 433.833,-409.751 433.448,-402.761"/>
<text text-anchor="middle" x="538" y="-406" font-family="Helvetica,sans-Serif" font-size="10.00"> myStage</text>
</g>
<!-- Node24&#45;&gt;Node22 -->
<g id="edge28" class="edge"><title>Node24&#45;&gt;Node22</title>
<path fill="none" stroke="#9a32cd" stroke-dasharray="5,2" d="M1418.03,-126.704C1407.93,-131.145 1396.55,-135.963 1386,-140 1299.13,-173.234 892.585,-290.98 844,-333 831.95,-343.422 839.052,-354.864 826,-364 789.834,-389.316 738.856,-395.325 702.559,-395.926"/>
<polygon fill="#9a32cd" stroke="#9a32cd" points="1419.53,-129.866 1427.24,-122.6 1416.69,-123.471 1419.53,-129.866"/>
<text text-anchor="middle" x="1087" y="-256" font-family="Helvetica,sans-Serif" font-size="10.00"> myEditor</text>
</g>
<!-- Node25 -->
<g id="node25" class="node"><title>Node25</title>
<polygon fill="white" stroke="#bfbfbf" points="1203,-0.5 1203,-19.5 1245,-19.5 1245,-0.5 1203,-0.5"/>
<text text-anchor="middle" x="1224" y="-7.5" font-family="Helvetica,sans-Serif" font-size="10.00">HBox</text>
</g>
<!-- Node25&#45;&gt;Node24 -->
<g id="edge29" class="edge"><title>Node25&#45;&gt;Node24</title>
<path fill="none" stroke="midnightblue" d="M1255.35,-11.9962C1289.2,-15.3512 1344.63,-24.2907 1386,-48 1410.63,-62.1128 1431.57,-89.0121 1441.63,-103.384"/>
<polygon fill="midnightblue" stroke="midnightblue" points="1255.43,-8.48996 1245.16,-11.0915 1254.81,-15.4625 1255.43,-8.48996"/>
</g>
<!-- Node26 -->
<g id="node26" class="node"><title>Node26</title>
<polygon fill="white" stroke="#bfbfbf" points="1199.5,-123.5 1199.5,-142.5 1248.5,-142.5 1248.5,-123.5 1199.5,-123.5"/>
<text text-anchor="middle" x="1224" y="-130.5" font-family="Helvetica,sans-Serif" font-size="10.00">Button</text>
</g>
<!-- Node26&#45;&gt;Node24 -->
<g id="edge30" class="edge"><title>Node26&#45;&gt;Node24</title>
<path fill="none" stroke="#9a32cd" stroke-dasharray="5,2" d="M1258.98,-129.953C1301.41,-126.147 1373.51,-119.681 1415.33,-115.93"/>
<polygon fill="#9a32cd" stroke="#9a32cd" points="1258.51,-126.48 1248.86,-130.86 1259.14,-133.452 1258.51,-126.48"/>
<text text-anchor="middle" x="1348" y="-128" font-family="Helvetica,sans-Serif" font-size="10.00"> runButton</text>
</g>
<!-- Node27 -->
<g id="node27" class="node"><title>Node27</title>
<polygon fill="white" stroke="#bfbfbf" points="1195,-38.5 1195,-57.5 1253,-57.5 1253,-38.5 1195,-38.5"/>
<text text-anchor="middle" x="1224" y="-45.5" font-family="Helvetica,sans-Serif" font-size="10.00">TextArea</text>
</g>
<!-- Node27&#45;&gt;Node24 -->
<g id="edge32" class="edge"><title>Node27&#45;&gt;Node24</title>
<path fill="none" stroke="#9a32cd" stroke-dasharray="5,2" d="M1263.34,-47.8412C1296.8,-48.8935 1346.1,-53.364 1386,-69 1406.4,-76.9935 1426.41,-93.1212 1437.96,-103.473"/>
<polygon fill="#9a32cd" stroke="#9a32cd" points="1263.15,-44.3359 1253.07,-47.6098 1262.99,-51.3342 1263.15,-44.3359"/>
<text text-anchor="middle" x="1348" y="-72" font-family="Helvetica,sans-Serif" font-size="10.00"> textEditor</text>
</g>
<!-- Node28 -->
<g id="node28" class="node"><title>Node28</title>
<polygon fill="white" stroke="#bfbfbf" points="341.5,-474.5 341.5,-493.5 460.5,-493.5 460.5,-474.5 341.5,-474.5"/>
<text text-anchor="middle" x="401" y="-481.5" font-family="Helvetica,sans-Serif" font-size="10.00">Map&lt; String, Node &gt;</text>
</g>
<!-- Node28&#45;&gt;Node22 -->
<g id="edge34" class="edge"><title>Node28&#45;&gt;Node22</title>
<path fill="none" stroke="#9a32cd" stroke-dasharray="5,2" d="M470.946,-476.471C504.245,-471.205 544.209,-462.432 578,-448 604.355,-436.744 630.918,-415.842 645.23,-403.607"/>
<polygon fill="#9a32cd" stroke="#9a32cd" points="470.206,-473.043 460.84,-477.995 471.25,-479.965 470.206,-473.043"/>
<text text-anchor="middle" x="538" y="-475" font-family="Helvetica,sans-Serif" font-size="10.00"> variables</text>
</g>
<!-- Node29 -->
<g id="node29" class="node"><title>Node29</title>
<polygon fill="white" stroke="#bfbfbf" points="360.5,-436.5 360.5,-455.5 441.5,-455.5 441.5,-436.5 360.5,-436.5"/>
<text text-anchor="middle" x="401" y="-443.5" font-family="Helvetica,sans-Serif" font-size="10.00">Dimension2D</text>
</g>
<!-- Node29&#45;&gt;Node22 -->
<g id="edge37" class="edge"><title>Node29&#45;&gt;Node22</title>
<path fill="none" stroke="#9a32cd" stroke-dasharray="5,2" d="M451.893,-439.968C487.328,-435.221 535.894,-427.776 578,-418 594.975,-414.059 613.645,-408.364 628.462,-403.511"/>
<polygon fill="#9a32cd" stroke="#9a32cd" points="451.26,-436.52 441.802,-441.294 452.173,-443.461 451.26,-436.52"/>
<text text-anchor="middle" x="538" y="-436" font-family="Helvetica,sans-Serif" font-size="10.00"> myDimensions</text>
</g>
<!-- Node30 -->
<g id="node30" class="node"><title>Node30</title>
<polygon fill="white" stroke="#bfbfbf" points="862,-465.5 862,-484.5 1000,-484.5 1000,-465.5 862,-465.5"/>
<text text-anchor="middle" x="931" y="-472.5" font-family="Helvetica,sans-Serif" font-size="10.00">ObservableList&lt; String &gt;</text>
</g>
<!-- Node30&#45;&gt;Node9 -->
<g id="edge40" class="edge"><title>Node30&#45;&gt;Node9</title>
<path fill="none" stroke="#9a32cd" stroke-dasharray="5,2" d="M1010.33,-468.659C1058.69,-463.846 1115.64,-456.293 1138,-446 1171.79,-430.446 1202.02,-396.979 1215.52,-380.527"/>
<polygon fill="#9a32cd" stroke="#9a32cd" points="1009.77,-465.197 1000.15,-469.645 1010.44,-472.165 1009.77,-465.197"/>
<text text-anchor="middle" x="1087" y="-480" font-family="Helvetica,sans-Serif" font-size="10.00"> commandItems</text>
<text text-anchor="middle" x="1087" y="-469" font-family="Helvetica,sans-Serif" font-size="10.00">historyItems</text>
</g>
<!-- Node31 -->
<g id="node31" class="node"><title>Node31</title>
<polygon fill="white" stroke="#bfbfbf" points="1192.5,-510.5 1192.5,-529.5 1255.5,-529.5 1255.5,-510.5 1192.5,-510.5"/>
<text text-anchor="middle" x="1224" y="-517.5" font-family="Helvetica,sans-Serif" font-size="10.00">Rectangle</text>
</g>
<!-- Node31&#45;&gt;Node2 -->
<g id="edge41" class="edge"><title>Node31&#45;&gt;Node2</title>
<path fill="none" stroke="#9a32cd" stroke-dasharray="5,2" d="M1265.67,-515.667C1299.47,-513.804 1348.01,-515.254 1386,-533 1411.3,-544.82 1431.97,-571.676 1441.8,-586.214"/>
<polygon fill="#9a32cd" stroke="#9a32cd" points="1265.42,-512.175 1255.68,-516.337 1265.89,-519.16 1265.42,-512.175"/>
<text text-anchor="middle" x="1348" y="-536" font-family="Helvetica,sans-Serif" font-size="10.00"> myBackground</text>
</g>
<!-- Node32 -->
<g id="node32" class="node"><title>Node32</title>
<polygon fill="white" stroke="#bfbfbf" points="66.5,-527.5 66.5,-546.5 107.5,-546.5 107.5,-527.5 66.5,-527.5"/>
<text text-anchor="middle" x="87" y="-534.5" font-family="Helvetica,sans-Serif" font-size="10.00">Color</text>
</g>
<!-- Node32&#45;&gt;Node1 -->
<g id="edge42" class="edge"><title>Node32&#45;&gt;Node1</title>
<path fill="none" stroke="#9a32cd" stroke-dasharray="5,2" d="M117.78,-537C175.502,-537 302.376,-537 364.421,-537"/>
<polygon fill="#9a32cd" stroke="#9a32cd" points="117.517,-533.5 107.517,-537 117.517,-540.5 117.517,-533.5"/>
<text text-anchor="middle" x="248" y="-540" font-family="Helvetica,sans-Serif" font-size="10.00"> myColor</text>
</g>
</g>
</svg>
        <g id="navigator" transform="translate(0 0)" fill="#404254">
                <rect fill="#f2f5e9" fill-opacity="0.5" stroke="#606060" stroke-width=".5" x="0" y="0" width="60" height="60"/>
                <use id="zoomplus" xlink:href="#zoomPlus" x="17" y="9" onmousedown="handleZoom(evt,'in')"/>
                <use id="zoomminus" xlink:href="#zoomMin" x="42" y="9" onmousedown="handleZoom(evt,'out')"/>
                <use id="reset" xlink:href="#resetDef" x="30" y="36" onmousedown="handleReset()"/>
                <g id="arrowUp" xlink:href="#dirArrow" transform="translate(30 24)" onmousedown="handlePan(0,-1)">
                  <use xlink:href="#rim" fill="#404040">
                        <set attributeName="fill" to="#808080" begin="arrowUp.mouseover" end="arrowUp.mouseout"/>
                  </use>
                  <path fill="none" stroke="white" stroke-width="1.5" d="M0,-3.0v7 M-2.5,-0.5L0,-3.0L2.5,-0.5"/>
                </g>
                <g id="arrowRight" xlink:href="#dirArrow" transform="rotate(90) translate(36 -43)" onmousedown="handlePan(1,0)">
                  <use xlink:href="#rim" fill="#404040">
                        <set attributeName="fill" to="#808080" begin="arrowRight.mouseover" end="arrowRight.mouseout"/>
                  </use>
                  <path fill="none" stroke="white" stroke-width="1.5" d="M0,-3.0v7 M-2.5,-0.5L0,-3.0L2.5,-0.5"/>
                </g>
                <g id="arrowDown" xlink:href="#dirArrow" transform="rotate(180) translate(-30 -48)" onmousedown="handlePan(0,1)">
                  <use xlink:href="#rim" fill="#404040">
                        <set attributeName="fill" to="#808080" begin="arrowDown.mouseover" end="arrowDown.mouseout"/>
                  </use>
                  <path fill="none" stroke="white" stroke-width="1.5" d="M0,-3.0v7 M-2.5,-0.5L0,-3.0L2.5,-0.5"/>
                </g>
                <g id="arrowLeft" xlink:href="#dirArrow" transform="rotate(270) translate(-36 17)" onmousedown="handlePan(-1,0)">
                  <use xlink:href="#rim" fill="#404040">
                        <set attributeName="fill" to="#808080" begin="arrowLeft.mouseover" end="arrowLeft.mouseout"/>
                  </use>
                  <path fill="none" stroke="white" stroke-width="1.5" d="M0,-3.0v7 M-2.5,-0.5L0,-3.0L2.5,-0.5"/>
                </g>
        </g>
        <svg viewBox="0 0 15 15" width="100%" height="30px" preserveAspectRatio="xMaxYMin meet">
         <g id="arrow_out" transform="scale(0.3 0.3)">
          <a xlink:href="classview_1_1_drawer__coll__graph_org.svg" target="_base">
           <rect id="button" ry="5" rx="5" y="6" x="6" height="38" width="38"
                fill="#f2f5e9" fill-opacity="0.5" stroke="#606060" stroke-width="1.0"/>
           <path id="arrow"
             d="M 11.500037,31.436501 C 11.940474,20.09759 22.043105,11.32322 32.158766,21.979434 L 37.068811,17.246167 C 37.068811,17.246167 37.088388,32 37.088388,32 L 22.160133,31.978069 C 22.160133,31.978069 26.997745,27.140456 26.997745,27.140456 C 18.528582,18.264221 13.291696,25.230495 11.500037,31.436501 z"
             style="fill:#404040;"/>
          </a>
         </g>
        </svg>
</svg>
