<?xml version="1.0" encoding="UTF-8" standalone="no"?>
<!DOCTYPE svg PUBLIC "-//W3C//DTD SVG 1.1//EN"
 "http://www.w3.org/Graphics/SVG/1.1/DTD/svg11.dtd">
<!-- Generated by graphviz version 2.36.0 (20140111.2315)
 -->
<!-- Title: view.Drawer Pages: 1 -->
<!--zoomable 749 -->
<svg id="main" version="1.1" xmlns="http://www.w3.org/2000/svg" xmlns:xlink="http://www.w3.org/1999/xlink" xml:space="preserve" onload="init(evt)">
<style type="text/css"><![CDATA[
.edge:hover path { stroke: red; }
.edge:hover polygon { stroke: red; fill: red; }
]]></style>
<script type="text/javascript"><![CDATA[
var edges = document.getElementsByTagName('g');
if (edges && edges.length) {
  for (var i=0;i<edges.length;i++) {
    if (edges[i].id.substr(0,4)=='edge') {
      edges[i].setAttribute('class','edge');
    }
  }
}
]]></script>
        <defs>
                <circle id="rim" cx="0" cy="0" r="7"/>
                <circle id="rim2" cx="0" cy="0" r="3.5"/>
                <g id="zoomPlus">
                        <use xlink:href="#rim" fill="#404040">
                                <set attributeName="fill" to="#808080" begin="zoomplus.mouseover" end="zoomplus.mouseout"/>
                        </use>
                        <path d="M-4,0h8M0,-4v8" fill="none" stroke="white" stroke-width="1.5" pointer-events="none"/>
                </g>
                <g id="zoomMin">
                        <use xlink:href="#rim" fill="#404040">
                                <set attributeName="fill" to="#808080" begin="zoomminus.mouseover" end="zoomminus.mouseout"/>
                        </use>
                        <path d="M-4,0h8" fill="none" stroke="white" stroke-width="1.5" pointer-events="none"/>
                </g>
                <g id="dirArrow">
                        <path fill="none" stroke="white" stroke-width="1.5" d="M0,-3.0v7 M-2.5,-0.5L0,-3.0L2.5,-0.5"/>
                </g>
               <g id="resetDef">
                       <use xlink:href="#rim2" fill="#404040">
                               <set attributeName="fill" to="#808080" begin="reset.mouseover" end="reset.mouseout"/>
                       </use>
               </g>
        </defs>

<script type="text/javascript">
var viewWidth = 1668;
var viewHeight = 749;
var sectionId = 'dynsection-0';
</script>
<script xlink:href="../../svgpan.js"/>
<svg id="graph" class="graph">
<g id="viewport">
<title>view.Drawer</title>
<polygon fill="white" stroke="none" points="-4,4 -4,-745 1664,-745 1664,4 -4,4"/>
<!-- Node1 -->
<g id="node1" class="node"><title>Node1</title>
<polygon fill="#bfbfbf" stroke="black" points="172.5,-104.5 172.5,-123.5 245.5,-123.5 245.5,-104.5 172.5,-104.5"/>
<text text-anchor="middle" x="209" y="-111.5" font-family="Helvetica,sans-Serif" font-size="10.00">view.Drawer</text>
</g>
<!-- Node21 -->
<g id="node21" class="node"><title>Node21</title>
<g id="a_node21"><a xlink:href="../../d4/d64/classview_1_1_view_updater.html" target="_top" xlink:title="view.ViewUpdater">
<polygon fill="white" stroke="black" points="473,-466.5 473,-485.5 573,-485.5 573,-466.5 473,-466.5"/>
<text text-anchor="middle" x="523" y="-473.5" font-family="Helvetica,sans-Serif" font-size="10.00">view.ViewUpdater</text>
</a>
</g>
</g>
<!-- Node1&#45;&gt;Node21 -->
<g id="edge25" class="edge"><title>Node1&#45;&gt;Node21</title>
<path fill="none" stroke="#9a32cd" stroke-dasharray="5,2" d="M224.93,-131.323C280.133,-195.372 471.671,-417.605 513.774,-466.456"/>
<polygon fill="#9a32cd" stroke="#9a32cd" points="227.525,-128.972 218.345,-123.683 222.223,-133.542 227.525,-128.972"/>
<text text-anchor="middle" x="370" y="-362" font-family="Helvetica,sans-Serif" font-size="10.00"> myDrawer</text>
</g>
<!-- Node23 -->
<g id="node23" class="node"><title>Node23</title>
<g id="a_node23"><a xlink:href="../../d6/de7/classview_1_1_s_logo_view.html" target="_top" xlink:title="view.SLogoView">
<polygon fill="white" stroke="black" points="1568.5,-353.5 1568.5,-372.5 1659.5,-372.5 1659.5,-353.5 1568.5,-353.5"/>
<text text-anchor="middle" x="1614" y="-360.5" font-family="Helvetica,sans-Serif" font-size="10.00">view.SLogoView</text>
</a>
</g>
</g>
<!-- Node1&#45;&gt;Node23 -->
<g id="edge42" class="edge"><title>Node1&#45;&gt;Node23</title>
<path fill="none" stroke="#9a32cd" stroke-dasharray="5,2" d="M233.078,-99.1741C283.411,-68.3098 407.719,-0 522,-0 522,-0 522,-0 1397,-0 1566.4,-0 1605.96,-295.563 1612.07,-353.291"/>
<polygon fill="#9a32cd" stroke="#9a32cd" points="231.2,-96.2206 224.56,-104.477 234.899,-102.163 231.2,-96.2206"/>
<text text-anchor="middle" x="1011" y="-3" font-family="Helvetica,sans-Serif" font-size="10.00"> drawer</text>
</g>
<!-- Node2 -->
<g id="node2" class="node"><title>Node2</title>
<g id="a_node2"><a xlink:href="../../da/d64/classview_1_1_workspace.html" target="_top" xlink:title="view.Workspace">
<polygon fill="white" stroke="black" points="1351,-264.5 1351,-283.5 1441,-283.5 1441,-264.5 1351,-264.5"/>
<text text-anchor="middle" x="1396" y="-271.5" font-family="Helvetica,sans-Serif" font-size="10.00">view.Workspace</text>
</a>
</g>
</g>
<!-- Node2&#45;&gt;Node1 -->
<g id="edge1" class="edge"><title>Node2&#45;&gt;Node1</title>
<path fill="none" stroke="#9a32cd" stroke-dasharray="5,2" d="M1341.93,-260.588C1339.77,-258.935 1337.77,-257.08 1336,-255 1301.35,-214.25 1356.09,-173.552 1318,-136 1266.57,-85.2993 1229.22,-114 1157,-114 522,-114 522,-114 522,-114 421.792,-114 303.479,-114 245.561,-114"/>
<polygon fill="#9a32cd" stroke="#9a32cd" points="1340.59,-263.868 1350.97,-266.017 1344.2,-257.867 1340.59,-263.868"/>
<text text-anchor="middle" x="847" y="-117" font-family="Helvetica,sans-Serif" font-size="10.00"> myWorkspace</text>
</g>
<!-- Node2&#45;&gt;Node21 -->
<g id="edge24" class="edge"><title>Node2&#45;&gt;Node21</title>
<path fill="none" stroke="#9a32cd" stroke-dasharray="5,2" d="M1345.21,-260.343C1341.99,-258.744 1338.89,-256.969 1336,-255 1325.56,-247.884 1328.65,-239.791 1318,-233 1231.33,-177.753 1189.9,-195.569 1088,-209 938.361,-228.725 895.544,-230.601 760,-297 662.096,-344.96 564.499,-436.243 533.842,-466.205"/>
<polygon fill="#9a32cd" stroke="#9a32cd" points="1343.95,-263.609 1354.51,-264.397 1346.74,-257.192 1343.95,-263.609"/>
<text text-anchor="middle" x="1011" y="-232" font-family="Helvetica,sans-Serif" font-size="10.00"> myWorkspace</text>
</g>
<!-- Node2&#45;&gt;Node23 -->
<g id="edge29" class="edge"><title>Node2&#45;&gt;Node23</title>
<path fill="none" stroke="#9a32cd" stroke-dasharray="5,2" d="M1429.5,-287.391C1473.53,-305.534 1551.07,-337.481 1589.72,-353.409"/>
<polygon fill="#9a32cd" stroke="#9a32cd" points="1430.7,-284.098 1420.12,-283.525 1428.03,-290.57 1430.7,-284.098"/>
<text text-anchor="middle" x="1512" y="-340" font-family="Helvetica,sans-Serif" font-size="10.00"> myWorkspace</text>
</g>
<!-- Node3 -->
<g id="node3" class="node"><title>Node3</title>
<polygon fill="white" stroke="#bfbfbf" points="1122.5,-66.5 1122.5,-85.5 1189.5,-85.5 1189.5,-66.5 1122.5,-66.5"/>
<text text-anchor="middle" x="1156" y="-73.5" font-family="Helvetica,sans-Serif" font-size="10.00">StackPane</text>
</g>
<!-- Node3&#45;&gt;Node2 -->
<g id="edge2" class="edge"><title>Node3&#45;&gt;Node2</title>
<path fill="none" stroke="midnightblue" d="M1200.01,-69.4105C1236.66,-66.4483 1288.03,-69.0467 1318,-100 1366.24,-149.826 1291.99,-201.399 1336,-255 1339.96,-259.824 1345.15,-263.437 1350.82,-266.141"/>
<polygon fill="midnightblue" stroke="midnightblue" points="1199.23,-65.97 1189.62,-70.4284 1199.91,-72.9367 1199.23,-65.97"/>
</g>
<!-- Node4 -->
<g id="node4" class="node"><title>Node4</title>
<polygon fill="white" stroke="#bfbfbf" points="800.5,-306.5 800.5,-325.5 893.5,-325.5 893.5,-306.5 800.5,-306.5"/>
<text text-anchor="middle" x="847" y="-313.5" font-family="Helvetica,sans-Serif" font-size="10.00">ResourceBundle</text>
</g>
<!-- Node4&#45;&gt;Node2 -->
<g id="edge3" class="edge"><title>Node4&#45;&gt;Node2</title>
<path fill="none" stroke="#9a32cd" stroke-dasharray="5,2" d="M903.83,-306.593C952.351,-298.833 1024.61,-288.272 1088,-283 1181.39,-275.233 1291.24,-273.889 1350.94,-273.809"/>
<polygon fill="#9a32cd" stroke="#9a32cd" points="903.162,-303.155 893.848,-308.204 904.277,-310.066 903.162,-303.155"/>
<text text-anchor="middle" x="1156" y="-286" font-family="Helvetica,sans-Serif" font-size="10.00"> myResources</text>
</g>
<!-- Node9 -->
<g id="node9" class="node"><title>Node9</title>
<g id="a_node9"><a xlink:href="../../d1/dc7/classview_1_1_side_bar.html" target="_top" xlink:title="view.SideBar">
<polygon fill="white" stroke="black" points="1117.5,-480.5 1117.5,-499.5 1194.5,-499.5 1194.5,-480.5 1117.5,-480.5"/>
<text text-anchor="middle" x="1156" y="-487.5" font-family="Helvetica,sans-Serif" font-size="10.00">view.SideBar</text>
</a>
</g>
</g>
<!-- Node4&#45;&gt;Node9 -->
<g id="edge11" class="edge"><title>Node4&#45;&gt;Node9</title>
<path fill="none" stroke="#9a32cd" stroke-dasharray="5,2" d="M903.64,-321.862C965.537,-328.908 1058.42,-341.257 1070,-353 1107.25,-390.77 1052.9,-431.218 1088,-471 1095.52,-479.522 1106.55,-484.348 1117.5,-487.042"/>
<polygon fill="#9a32cd" stroke="#9a32cd" points="903.938,-318.373 893.61,-320.735 903.157,-325.33 903.938,-318.373"/>
<text text-anchor="middle" x="1011" y="-356" font-family="Helvetica,sans-Serif" font-size="10.00"> myResources</text>
</g>
<!-- Node4&#45;&gt;Node23 -->
<g id="edge31" class="edge"><title>Node4&#45;&gt;Node23</title>
<path fill="none" stroke="#9a32cd" stroke-dasharray="5,2" d="M903.772,-311.105C949.739,-309.03 1015.93,-310.614 1070,-330 1079.29,-333.33 1078.67,-339.786 1088,-343 1176.07,-373.342 1457.8,-367.998 1568.11,-364.598"/>
<polygon fill="#9a32cd" stroke="#9a32cd" points="903.507,-307.614 893.704,-311.633 903.874,-314.605 903.507,-307.614"/>
<text text-anchor="middle" x="1280" y="-370" font-family="Helvetica,sans-Serif" font-size="10.00"> myResources</text>
</g>
<!-- Node5 -->
<g id="node5" class="node"><title>Node5</title>
<g id="a_node5"><a xlink:href="../../d8/df7/classview_1_1_turtle_view.html" target="_top" xlink:title="view.TurtleView">
<polygon fill="white" stroke="black" points="1113,-28.5 1113,-47.5 1199,-47.5 1199,-28.5 1113,-28.5"/>
<text text-anchor="middle" x="1156" y="-35.5" font-family="Helvetica,sans-Serif" font-size="10.00">view.TurtleView</text>
</a>
</g>
</g>
<!-- Node5&#45;&gt;Node2 -->
<g id="edge4" class="edge"><title>Node5&#45;&gt;Node2</title>
<path fill="none" stroke="#9a32cd" stroke-dasharray="5,2" d="M1209.43,-28.0156C1245.02,-24.5164 1290.45,-27.02 1318,-55 1349.31,-86.7967 1308.13,-220.148 1336,-255 1339.9,-259.875 1345.06,-263.516 1350.71,-266.232"/>
<polygon fill="#9a32cd" stroke="#9a32cd" points="1208.73,-24.5732 1199.2,-29.2086 1209.54,-31.526 1208.73,-24.5732"/>
<text text-anchor="middle" x="1280" y="-58" font-family="Helvetica,sans-Serif" font-size="10.00"> myActiveTurtle</text>
</g>
<!-- Node6 -->
<g id="node6" class="node"><title>Node6</title>
<polygon fill="white" stroke="#bfbfbf" points="813,-28.5 813,-47.5 881,-47.5 881,-28.5 813,-28.5"/>
<text text-anchor="middle" x="847" y="-35.5" font-family="Helvetica,sans-Serif" font-size="10.00">ImageView</text>
</g>
<!-- Node6&#45;&gt;Node5 -->
<g id="edge5" class="edge"><title>Node6&#45;&gt;Node5</title>
<path fill="none" stroke="midnightblue" d="M891.232,-38C950.085,-38 1054.74,-38 1112.97,-38"/>
<polygon fill="midnightblue" stroke="midnightblue" points="891.146,-34.5001 881.146,-38 891.146,-41.5001 891.146,-34.5001"/>
</g>
<!-- Node7 -->
<g id="node7" class="node"><title>Node7</title>
<polygon fill="white" stroke="#bfbfbf" points="1088,-304 1088,-334 1224,-334 1224,-304 1088,-304"/>
<text text-anchor="start" x="1096" y="-322" font-family="Helvetica,sans-Serif" font-size="10.00">Map&lt; Integer, view.Turtle</text>
<text text-anchor="middle" x="1156" y="-311" font-family="Helvetica,sans-Serif" font-size="10.00">View &gt;</text>
</g>
<!-- Node7&#45;&gt;Node2 -->
<g id="edge6" class="edge"><title>Node7&#45;&gt;Node2</title>
<path fill="none" stroke="#9a32cd" stroke-dasharray="5,2" d="M1234.41,-304.363C1272.98,-297.07 1318.22,-288.517 1350.83,-282.351"/>
<polygon fill="#9a32cd" stroke="#9a32cd" points="1233.42,-300.988 1224.25,-306.285 1234.72,-307.866 1233.42,-300.988"/>
<text text-anchor="middle" x="1280" y="-305" font-family="Helvetica,sans-Serif" font-size="10.00"> myTurtles</text>
</g>
<!-- Node8 -->
<g id="node8" class="node"><title>Node8</title>
<polygon fill="white" stroke="#bfbfbf" points="1133,-218.5 1133,-237.5 1179,-237.5 1179,-218.5 1133,-218.5"/>
<text text-anchor="middle" x="1156" y="-225.5" font-family="Helvetica,sans-Serif" font-size="10.00">Group</text>
</g>
<!-- Node8&#45;&gt;Node2 -->
<g id="edge7" class="edge"><title>Node8&#45;&gt;Node2</title>
<path fill="none" stroke="#9a32cd" stroke-dasharray="5,2" d="M1189.45,-230.39C1222.19,-233.232 1274.06,-238.911 1318,-249 1326.22,-250.887 1327.99,-252.374 1336,-255 1345.51,-258.116 1355.9,-261.476 1365.27,-264.491"/>
<polygon fill="#9a32cd" stroke="#9a32cd" points="1189.37,-226.872 1179.11,-229.533 1188.79,-233.848 1189.37,-226.872"/>
<text text-anchor="middle" x="1280" y="-252" font-family="Helvetica,sans-Serif" font-size="10.00"> myLines</text>
</g>
<!-- Node9&#45;&gt;Node2 -->
<g id="edge8" class="edge"><title>Node9&#45;&gt;Node2</title>
<path fill="none" stroke="#9a32cd" stroke-dasharray="5,2" d="M1204.37,-478.573C1211.08,-476.379 1217.8,-473.858 1224,-471 1232.73,-466.973 1233.98,-464.309 1242,-459 1275.71,-436.675 1290.33,-438.484 1318,-409 1355.48,-369.058 1381.94,-307.574 1391.28,-283.827"/>
<polygon fill="#9a32cd" stroke="#9a32cd" points="1203.15,-475.288 1194.6,-481.555 1205.19,-481.983 1203.15,-475.288"/>
<text text-anchor="middle" x="1280" y="-462" font-family="Helvetica,sans-Serif" font-size="10.00"> mySidebar</text>
</g>
<!-- Node9&#45;&gt;Node21 -->
<g id="edge26" class="edge"><title>Node9&#45;&gt;Node21</title>
<path fill="none" stroke="#9a32cd" stroke-dasharray="5,2" d="M1107.13,-488.938C990.296,-486.346 691.502,-479.716 573.251,-477.093"/>
<polygon fill="#9a32cd" stroke="#9a32cd" points="1107.13,-492.439 1117.2,-489.161 1107.28,-485.44 1107.13,-492.439"/>
<text text-anchor="middle" x="847" y="-489" font-family="Helvetica,sans-Serif" font-size="10.00"> mySidebar</text>
</g>
<!-- Node9&#45;&gt;Node23 -->
<g id="edge43" class="edge"><title>Node9&#45;&gt;Node23</title>
<path fill="none" stroke="#9a32cd" stroke-dasharray="5,2" d="M1204.87,-495.597C1264.72,-501.077 1369.78,-505.665 1456,-483 1500.25,-471.366 1513.73,-468.903 1550,-441 1575.8,-421.151 1597.52,-388.68 1607.36,-372.619"/>
<polygon fill="#9a32cd" stroke="#9a32cd" points="1204.89,-492.082 1194.6,-494.606 1204.21,-499.05 1204.89,-492.082"/>
<text text-anchor="middle" x="1396" y="-503" font-family="Helvetica,sans-Serif" font-size="10.00"> mySidebar</text>
</g>
<!-- Node25 -->
<g id="node25" class="node"><title>Node25</title>
<g id="a_node25"><a xlink:href="../../da/dc8/classview_1_1_editor.html" target="_top" xlink:title="view.Editor">
<polygon fill="white" stroke="black" points="1362.5,-454.5 1362.5,-473.5 1429.5,-473.5 1429.5,-454.5 1362.5,-454.5"/>
<text text-anchor="middle" x="1396" y="-461.5" font-family="Helvetica,sans-Serif" font-size="10.00">view.Editor</text>
</a>
</g>
</g>
<!-- Node9&#45;&gt;Node25 -->
<g id="edge37" class="edge"><title>Node9&#45;&gt;Node25</title>
<path fill="none" stroke="#9a32cd" stroke-dasharray="5,2" d="M1204.91,-484.766C1251.74,-479.651 1321.73,-472.004 1362.44,-467.557"/>
<polygon fill="#9a32cd" stroke="#9a32cd" points="1204.27,-481.315 1194.71,-485.88 1205.03,-488.273 1204.27,-481.315"/>
<text text-anchor="middle" x="1280" y="-484" font-family="Helvetica,sans-Serif" font-size="10.00"> mySidebar</text>
</g>
<!-- Node10 -->
<g id="node10" class="node"><title>Node10</title>
<polygon fill="white" stroke="#bfbfbf" points="826.5,-358.5 826.5,-377.5 867.5,-377.5 867.5,-358.5 826.5,-358.5"/>
<text text-anchor="middle" x="847" y="-365.5" font-family="Helvetica,sans-Serif" font-size="10.00">VBox</text>
</g>
<!-- Node10&#45;&gt;Node9 -->
<g id="edge9" class="edge"><title>Node10&#45;&gt;Node9</title>
<path fill="none" stroke="midnightblue" d="M878.047,-366.948C932.006,-365.714 1042.29,-366.382 1070,-391 1097.25,-415.205 1062.95,-444.531 1088,-471 1095.65,-479.079 1106.45,-483.805 1117.15,-486.544"/>
<polygon fill="midnightblue" stroke="midnightblue" points="877.645,-363.458 867.742,-367.223 877.832,-370.455 877.645,-363.458"/>
</g>
<!-- Node11 -->
<g id="node11" class="node"><title>Node11</title>
<polygon fill="white" stroke="#bfbfbf" points="760.5,-566.5 760.5,-585.5 933.5,-585.5 933.5,-566.5 760.5,-566.5"/>
<text text-anchor="middle" x="847" y="-573.5" font-family="Helvetica,sans-Serif" font-size="10.00">ObservableList&lt; view.Property &gt;</text>
</g>
<!-- Node11&#45;&gt;Node9 -->
<g id="edge10" class="edge"><title>Node11&#45;&gt;Node9</title>
<path fill="none" stroke="#9a32cd" stroke-dasharray="5,2" d="M892.389,-563.834C910.774,-558.963 932.354,-553.461 952,-549 1004.11,-537.17 1018.9,-541.615 1070,-526 1093.14,-518.928 1118.56,-507.674 1135.51,-499.632"/>
<polygon fill="#9a32cd" stroke="#9a32cd" points="891.295,-560.504 882.536,-566.465 893.101,-567.267 891.295,-560.504"/>
<text text-anchor="middle" x="1011" y="-552" font-family="Helvetica,sans-Serif" font-size="10.00"> myVariablesList</text>
</g>
<!-- Node12 -->
<g id="node12" class="node"><title>Node12</title>
<g id="a_node12"><a xlink:href="../../d1/dca/classmodel_1_1_execution_environment.html" target="_top" xlink:title="model.ExecutionEnvironment">
<polygon fill="white" stroke="black" points="444.5,-655.5 444.5,-674.5 601.5,-674.5 601.5,-655.5 444.5,-655.5"/>
<text text-anchor="middle" x="523" y="-662.5" font-family="Helvetica,sans-Serif" font-size="10.00">model.ExecutionEnvironment</text>
</a>
</g>
</g>
<!-- Node12&#45;&gt;Node9 -->
<g id="edge12" class="edge"><title>Node12&#45;&gt;Node9</title>
<path fill="none" stroke="#9a32cd" stroke-dasharray="5,2" d="M594.11,-651.056C596.867,-649.539 599.513,-647.859 602,-646 614.761,-636.462 608.208,-625.714 620,-615 664.158,-574.88 690.461,-589.053 742,-559 750.525,-554.029 750.847,-549.689 760,-546 776.522,-539.34 1021.64,-507.212 1117.23,-494.856"/>
<polygon fill="#9a32cd" stroke="#9a32cd" points="592.529,-647.932 584.983,-655.368 595.519,-654.261 592.529,-647.932"/>
<text text-anchor="middle" x="847" y="-549" font-family="Helvetica,sans-Serif" font-size="10.00"> myEnvironment</text>
</g>
<!-- Node18 -->
<g id="node18" class="node"><title>Node18</title>
<g id="a_node18"><a xlink:href="../../dc/df5/classmodel_1_1_parser.html" target="_top" xlink:title="model.Parser">
<polygon fill="white" stroke="black" points="807,-604.5 807,-623.5 887,-623.5 887,-604.5 807,-604.5"/>
<text text-anchor="middle" x="847" y="-611.5" font-family="Helvetica,sans-Serif" font-size="10.00">model.Parser</text>
</a>
</g>
</g>
<!-- Node12&#45;&gt;Node18 -->
<g id="edge21" class="edge"><title>Node12&#45;&gt;Node18</title>
<path fill="none" stroke="#9a32cd" stroke-dasharray="5,2" d="M611.694,-656.236C651.594,-651.711 699.331,-645.545 742,-638 764.261,-634.064 788.925,-628.429 808.644,-623.608"/>
<polygon fill="#9a32cd" stroke="#9a32cd" points="611.275,-652.761 601.727,-657.351 612.054,-659.718 611.275,-652.761"/>
<text text-anchor="middle" x="681" y="-658" font-family="Helvetica,sans-Serif" font-size="10.00"> myExecutionParameters</text>
</g>
<!-- Node12&#45;&gt;Node23 -->
<g id="edge39" class="edge"><title>Node12&#45;&gt;Node23</title>
<path fill="none" stroke="#9a32cd" stroke-dasharray="5,2" d="M569.282,-677.01C631.265,-692.368 746.228,-717 846,-717 846,-717 846,-717 1397,-717 1562.95,-717 1605.17,-430.011 1611.94,-372.837"/>
<polygon fill="#9a32cd" stroke="#9a32cd" points="569.986,-673.579 559.435,-674.538 568.281,-680.368 569.986,-673.579"/>
<text text-anchor="middle" x="1156" y="-720" font-family="Helvetica,sans-Serif" font-size="10.00"> myEnvironment</text>
</g>
<!-- Node13 -->
<g id="node13" class="node"><title>Node13</title>
<polygon fill="white" stroke="#bfbfbf" points="173.5,-683.5 173.5,-702.5 244.5,-702.5 244.5,-683.5 173.5,-683.5"/>
<text text-anchor="middle" x="209" y="-690.5" font-family="Helvetica,sans-Serif" font-size="10.00">Observable</text>
</g>
<!-- Node13&#45;&gt;Node12 -->
<g id="edge13" class="edge"><title>Node13&#45;&gt;Node12</title>
<path fill="none" stroke="midnightblue" d="M254.895,-691.14C298.646,-689.079 367.009,-685.203 426,-679 437.642,-677.776 450.038,-676.185 461.921,-674.516"/>
<polygon fill="midnightblue" stroke="midnightblue" points="254.693,-687.645 244.864,-691.6 255.015,-694.638 254.693,-687.645"/>
</g>
<!-- Node14 -->
<g id="node14" class="node"><title>Node14</title>
<polygon fill="white" stroke="#bfbfbf" points="164.5,-645.5 164.5,-664.5 253.5,-664.5 253.5,-645.5 164.5,-645.5"/>
<text text-anchor="middle" x="209" y="-652.5" font-family="Helvetica,sans-Serif" font-size="10.00">Set&lt; Integer &gt;</text>
</g>
<!-- Node14&#45;&gt;Node12 -->
<g id="edge14" class="edge"><title>Node14&#45;&gt;Node12</title>
<path fill="none" stroke="#9a32cd" stroke-dasharray="5,2" d="M264.002,-654.395C307.714,-654.172 370.857,-654.451 426,-657 432.014,-657.278 438.236,-657.636 444.487,-658.046"/>
<polygon fill="#9a32cd" stroke="#9a32cd" points="263.856,-650.896 253.878,-654.458 263.899,-657.896 263.856,-650.896"/>
<text text-anchor="middle" x="370" y="-671" font-family="Helvetica,sans-Serif" font-size="10.00"> myTurtleList</text>
<text text-anchor="middle" x="370" y="-660" font-family="Helvetica,sans-Serif" font-size="10.00">activeTurtleList</text>
</g>
<!-- Node15 -->
<g id="node15" class="node"><title>Node15</title>
<polygon fill="white" stroke="#bfbfbf" points="122,-596 122,-626 296,-626 296,-596 122,-596"/>
<text text-anchor="start" x="130" y="-614" font-family="Helvetica,sans-Serif" font-size="10.00">Map&lt; String, model.instructions.</text>
<text text-anchor="middle" x="209" y="-603" font-family="Helvetica,sans-Serif" font-size="10.00">Instruction &gt;</text>
</g>
<!-- Node15&#45;&gt;Node12 -->
<g id="edge15" class="edge"><title>Node15&#45;&gt;Node12</title>
<path fill="none" stroke="#9a32cd" stroke-dasharray="5,2" d="M306.037,-619.966C343.727,-624.504 387.172,-631.007 426,-640 434.215,-641.903 435.896,-643.667 444,-646 455.652,-649.355 468.393,-652.624 480.137,-655.478"/>
<polygon fill="#9a32cd" stroke="#9a32cd" points="306.419,-616.487 296.079,-618.796 305.602,-623.439 306.419,-616.487"/>
<text text-anchor="middle" x="370" y="-643" font-family="Helvetica,sans-Serif" font-size="10.00"> myUserInstructionMap</text>
</g>
<!-- Node16 -->
<g id="node16" class="node"><title>Node16</title>
<polygon fill="white" stroke="#bfbfbf" points="145,-721.5 145,-740.5 273,-740.5 273,-721.5 145,-721.5"/>
<text text-anchor="middle" x="209" y="-728.5" font-family="Helvetica,sans-Serif" font-size="10.00">Map&lt; String, Double &gt;</text>
</g>
<!-- Node16&#45;&gt;Node12 -->
<g id="edge16" class="edge"><title>Node16&#45;&gt;Node12</title>
<path fill="none" stroke="#9a32cd" stroke-dasharray="5,2" d="M283.603,-723.082C325.672,-717.73 379.209,-709.518 426,-698 450.985,-691.85 478.696,-681.981 497.897,-674.636"/>
<polygon fill="#9a32cd" stroke="#9a32cd" points="282.932,-719.638 273.441,-724.347 283.797,-726.585 282.932,-719.638"/>
<text text-anchor="middle" x="370" y="-721" font-family="Helvetica,sans-Serif" font-size="10.00"> myVariableMap</text>
</g>
<!-- Node17 -->
<g id="node17" class="node"><title>Node17</title>
<polygon fill="white" stroke="#bfbfbf" points="773,-434.5 773,-453.5 921,-453.5 921,-434.5 773,-434.5"/>
<text text-anchor="middle" x="847" y="-441.5" font-family="Helvetica,sans-Serif" font-size="10.00">TableView&lt; view.Property &gt;</text>
</g>
<!-- Node17&#45;&gt;Node9 -->
<g id="edge17" class="edge"><title>Node17&#45;&gt;Node9</title>
<path fill="none" stroke="#9a32cd" stroke-dasharray="5,2" d="M931.208,-434.251C974.238,-432.5 1026.67,-435.635 1070,-454 1080.13,-458.295 1078.43,-465.565 1088,-471 1096.94,-476.076 1107.32,-479.876 1117.22,-482.687"/>
<polygon fill="#9a32cd" stroke="#9a32cd" points="930.862,-430.764 921.05,-434.761 931.213,-437.755 930.862,-430.764"/>
<text text-anchor="middle" x="1011" y="-468" font-family="Helvetica,sans-Serif" font-size="10.00"> myTurtlePropertiesTable</text>
<text text-anchor="middle" x="1011" y="-457" font-family="Helvetica,sans-Serif" font-size="10.00">myVariablesTable</text>
</g>
<!-- Node18&#45;&gt;Node9 -->
<g id="edge18" class="edge"><title>Node18&#45;&gt;Node9</title>
<path fill="none" stroke="#9a32cd" stroke-dasharray="5,2" d="M897.181,-606.413C909.486,-603.632 922.46,-599.916 934,-595 942.846,-591.232 943.108,-586.658 952,-583 1001.41,-562.674 1026.47,-590.985 1070,-560 1082.98,-550.761 1076.74,-540.272 1088,-529 1100.65,-516.336 1118.24,-506.304 1132.22,-499.587"/>
<polygon fill="#9a32cd" stroke="#9a32cd" points="896.119,-603.059 887.048,-608.535 897.553,-609.911 896.119,-603.059"/>
<text text-anchor="middle" x="1011" y="-586" font-family="Helvetica,sans-Serif" font-size="10.00"> myParser</text>
</g>
<!-- Node18&#45;&gt;Node23 -->
<g id="edge40" class="edge"><title>Node18&#45;&gt;Node23</title>
<path fill="none" stroke="#9a32cd" stroke-dasharray="5,2" d="M883.198,-626.826C903.095,-633.395 928.601,-640.693 952,-644 1175.41,-675.579 1253.5,-682.527 1456,-583 1501.58,-560.595 1518.22,-557.625 1550,-518 1587.62,-471.092 1605.59,-398.7 1611.09,-372.706"/>
<polygon fill="#9a32cd" stroke="#9a32cd" points="884.225,-623.479 873.631,-623.582 881.977,-630.108 884.225,-623.479"/>
<text text-anchor="middle" x="1280" y="-662" font-family="Helvetica,sans-Serif" font-size="10.00"> myParser</text>
</g>
<!-- Node18&#45;&gt;Node25 -->
<g id="edge35" class="edge"><title>Node18&#45;&gt;Node25</title>
<path fill="none" stroke="#9a32cd" stroke-dasharray="5,2" d="M897.195,-612.987C1005.54,-609.685 1259.75,-595.715 1318,-537 1337.01,-517.838 1316.43,-497.583 1336,-479 1343.13,-472.233 1352.86,-468.403 1362.37,-466.269"/>
<polygon fill="#9a32cd" stroke="#9a32cd" points="897.073,-609.489 887.177,-613.275 897.274,-616.486 897.073,-609.489"/>
<text text-anchor="middle" x="1156" y="-604" font-family="Helvetica,sans-Serif" font-size="10.00"> myParser</text>
</g>
<!-- Node19 -->
<g id="node19" class="node"><title>Node19</title>
<polygon fill="white" stroke="#bfbfbf" points="179,-527.5 179,-546.5 239,-546.5 239,-527.5 179,-527.5"/>
<text text-anchor="middle" x="209" y="-534.5" font-family="Helvetica,sans-Serif" font-size="10.00">Observer</text>
</g>
<!-- Node19&#45;&gt;Node18 -->
<g id="edge19" class="edge"><title>Node19&#45;&gt;Node18</title>
<path fill="none" stroke="midnightblue" d="M249.441,-541.775C363.516,-555.586 692.921,-595.467 806.752,-609.248"/>
<polygon fill="midnightblue" stroke="midnightblue" points="249.748,-538.287 239.4,-540.559 248.907,-545.236 249.748,-538.287"/>
</g>
<!-- Node19&#45;&gt;Node21 -->
<g id="edge23" class="edge"><title>Node19&#45;&gt;Node21</title>
<path fill="none" stroke="midnightblue" d="M249.109,-529.354C306.007,-518.229 411.548,-497.595 473.377,-485.506"/>
<polygon fill="midnightblue" stroke="midnightblue" points="248.215,-525.962 239.072,-531.316 249.558,-532.832 248.215,-525.962"/>
</g>
<!-- Node20 -->
<g id="node20" class="node"><title>Node20</title>
<polygon fill="white" stroke="#bfbfbf" points="467,-510 467,-540 579,-540 579,-510 467,-510"/>
<text text-anchor="start" x="475" y="-528" font-family="Helvetica,sans-Serif" font-size="10.00">List&lt; Entry&lt; String,</text>
<text text-anchor="middle" x="523" y="-517" font-family="Helvetica,sans-Serif" font-size="10.00"> Pattern &gt; &gt;</text>
</g>
<!-- Node20&#45;&gt;Node18 -->
<g id="edge20" class="edge"><title>Node20&#45;&gt;Node18</title>
<path fill="none" stroke="#9a32cd" stroke-dasharray="5,2" d="M589.32,-523.112C644.761,-522.85 718.889,-526.092 742,-544 761.001,-558.723 742,-579.07 760,-595 772.71,-606.248 790.566,-611.314 806.717,-613.445"/>
<polygon fill="#9a32cd" stroke="#9a32cd" points="589.171,-519.613 579.201,-523.198 589.231,-526.612 589.171,-519.613"/>
<text text-anchor="middle" x="681" y="-547" font-family="Helvetica,sans-Serif" font-size="10.00"> myPatterns</text>
</g>
<!-- Node21&#45;&gt;Node18 -->
<g id="edge22" class="edge"><title>Node21&#45;&gt;Node18</title>
<path fill="none" stroke="#9a32cd" stroke-dasharray="5,2" d="M583.203,-483.276C645.756,-491.216 736.212,-503.527 742,-509 770.376,-535.828 732.541,-567.234 760,-595 772.15,-607.285 790.33,-612.427 806.849,-614.338"/>
<polygon fill="#9a32cd" stroke="#9a32cd" points="583.394,-479.772 573.035,-481.992 582.518,-486.717 583.394,-479.772"/>
<text text-anchor="middle" x="681" y="-512" font-family="Helvetica,sans-Serif" font-size="10.00"> myViewUpdater</text>
</g>
<!-- Node22 -->
<g id="node22" class="node"><title>Node22</title>
<polygon fill="white" stroke="#bfbfbf" points="462,-617.5 462,-636.5 584,-636.5 584,-617.5 462,-617.5"/>
<text text-anchor="middle" x="523" y="-624.5" font-family="Helvetica,sans-Serif" font-size="10.00">Map&lt; String, String &gt;</text>
</g>
<!-- Node22&#45;&gt;Node18 -->
<g id="edge27" class="edge"><title>Node22&#45;&gt;Node18</title>
<path fill="none" stroke="#9a32cd" stroke-dasharray="5,2" d="M594.39,-624.158C659.597,-621.526 754.209,-617.706 806.877,-615.579"/>
<polygon fill="#9a32cd" stroke="#9a32cd" points="594.039,-620.669 584.188,-624.57 594.321,-627.664 594.039,-620.669"/>
<text text-anchor="middle" x="681" y="-626" font-family="Helvetica,sans-Serif" font-size="10.00"> myCommandMap</text>
</g>
<!-- Node23&#45;&gt;Node18 -->
<g id="edge28" class="edge"><title>Node23&#45;&gt;Node18</title>
<path fill="none" stroke="#9a32cd" stroke-dasharray="5,2" d="M1606.47,-382.204C1597.32,-406.51 1578.55,-448.301 1550,-474 1432.54,-579.735 1378.4,-582.277 1224,-616 1103.46,-642.327 955.965,-628.69 887.014,-619.749"/>
<polygon fill="#9a32cd" stroke="#9a32cd" points="1609.8,-383.265 1609.9,-372.67 1603.22,-380.896 1609.8,-383.265"/>
<text text-anchor="middle" x="1280" y="-615" font-family="Helvetica,sans-Serif" font-size="10.00"> mySLogoView</text>
</g>
<!-- Node24 -->
<g id="node24" class="node"><title>Node24</title>
<polygon fill="white" stroke="#bfbfbf" points="1373.5,-226.5 1373.5,-245.5 1418.5,-245.5 1418.5,-226.5 1373.5,-226.5"/>
<text text-anchor="middle" x="1396" y="-233.5" font-family="Helvetica,sans-Serif" font-size="10.00">Stage</text>
</g>
<!-- Node24&#45;&gt;Node23 -->
<g id="edge30" class="edge"><title>Node24&#45;&gt;Node23</title>
<path fill="none" stroke="#9a32cd" stroke-dasharray="5,2" d="M1428.54,-242.759C1461.13,-250.832 1512.4,-266.658 1550,-293 1574.37,-310.073 1595.93,-338.251 1606.36,-353.114"/>
<polygon fill="#9a32cd" stroke="#9a32cd" points="1429.2,-239.318 1418.66,-240.407 1427.58,-246.127 1429.2,-239.318"/>
<text text-anchor="middle" x="1512" y="-296" font-family="Helvetica,sans-Serif" font-size="10.00"> myStage</text>
</g>
<!-- Node25&#45;&gt;Node23 -->
<g id="edge32" class="edge"><title>Node25&#45;&gt;Node23</title>
<path fill="none" stroke="#9a32cd" stroke-dasharray="5,2" d="M1426.45,-450.227C1470.94,-429.426 1554.14,-390.522 1592.58,-372.55"/>
<polygon fill="#9a32cd" stroke="#9a32cd" points="1424.9,-447.092 1417.32,-454.498 1427.86,-453.433 1424.9,-447.092"/>
<text text-anchor="middle" x="1512" y="-429" font-family="Helvetica,sans-Serif" font-size="10.00"> myEditor</text>
</g>
<!-- Node26 -->
<g id="node26" class="node"><title>Node26</title>
<polygon fill="white" stroke="#bfbfbf" points="1135,-442.5 1135,-461.5 1177,-461.5 1177,-442.5 1135,-442.5"/>
<text text-anchor="middle" x="1156" y="-449.5" font-family="Helvetica,sans-Serif" font-size="10.00">HBox</text>
</g>
<!-- Node26&#45;&gt;Node25 -->
<g id="edge33" class="edge"><title>Node26&#45;&gt;Node25</title>
<path fill="none" stroke="midnightblue" d="M1187.31,-453.528C1232.25,-455.794 1316.22,-460.028 1362.43,-462.358"/>
<polygon fill="midnightblue" stroke="midnightblue" points="1187.46,-450.031 1177.29,-453.023 1187.1,-457.022 1187.46,-450.031"/>
</g>
<!-- Node27 -->
<g id="node27" class="node"><title>Node27</title>
<polygon fill="white" stroke="#bfbfbf" points="1131.5,-391.5 1131.5,-410.5 1180.5,-410.5 1180.5,-391.5 1131.5,-391.5"/>
<text text-anchor="middle" x="1156" y="-398.5" font-family="Helvetica,sans-Serif" font-size="10.00">Button</text>
</g>
<!-- Node27&#45;&gt;Node25 -->
<g id="edge34" class="edge"><title>Node27&#45;&gt;Node25</title>
<path fill="none" stroke="#9a32cd" stroke-dasharray="5,2" d="M1190.71,-393.421C1224.13,-387.487 1276.24,-382.553 1318,-398 1348.71,-409.362 1375.44,-439.055 1387.77,-454.443"/>
<polygon fill="#9a32cd" stroke="#9a32cd" points="1189.71,-390.047 1180.55,-395.359 1191.03,-396.923 1189.71,-390.047"/>
<text text-anchor="middle" x="1280" y="-401" font-family="Helvetica,sans-Serif" font-size="10.00"> runButton</text>
</g>
<!-- Node28 -->
<g id="node28" class="node"><title>Node28</title>
<polygon fill="white" stroke="#bfbfbf" points="1127,-538.5 1127,-557.5 1185,-557.5 1185,-538.5 1127,-538.5"/>
<text text-anchor="middle" x="1156" y="-545.5" font-family="Helvetica,sans-Serif" font-size="10.00">TextArea</text>
</g>
<!-- Node28&#45;&gt;Node25 -->
<g id="edge36" class="edge"><title>Node28&#45;&gt;Node25</title>
<path fill="none" stroke="#9a32cd" stroke-dasharray="5,2" d="M1194.81,-536.742C1227.63,-526.744 1276.29,-511.374 1318,-496 1336.88,-489.041 1357.96,-480.205 1373.28,-473.582"/>
<polygon fill="#9a32cd" stroke="#9a32cd" points="1193.71,-533.417 1185.16,-539.666 1195.74,-540.116 1193.71,-533.417"/>
<text text-anchor="middle" x="1280" y="-525" font-family="Helvetica,sans-Serif" font-size="10.00"> textEditor</text>
</g>
<!-- Node29 -->
<g id="node29" class="node"><title>Node29</title>
<polygon fill="white" stroke="#bfbfbf" points="1336.5,-188.5 1336.5,-207.5 1455.5,-207.5 1455.5,-188.5 1336.5,-188.5"/>
<text text-anchor="middle" x="1396" y="-195.5" font-family="Helvetica,sans-Serif" font-size="10.00">Map&lt; String, Node &gt;</text>
</g>
<!-- Node29&#45;&gt;Node23 -->
<g id="edge38" class="edge"><title>Node29&#45;&gt;Node23</title>
<path fill="none" stroke="#9a32cd" stroke-dasharray="5,2" d="M1465.51,-205.607C1494.12,-211.657 1526.17,-222.516 1550,-242 1587.04,-272.282 1604.85,-330.112 1610.72,-353.162"/>
<polygon fill="#9a32cd" stroke="#9a32cd" points="1466.04,-202.144 1455.55,-203.661 1464.69,-209.014 1466.04,-202.144"/>
<text text-anchor="middle" x="1512" y="-245" font-family="Helvetica,sans-Serif" font-size="10.00"> variables</text>
</g>
<!-- Node30 -->
<g id="node30" class="node"><title>Node30</title>
<polygon fill="white" stroke="#bfbfbf" points="1355.5,-150.5 1355.5,-169.5 1436.5,-169.5 1436.5,-150.5 1355.5,-150.5"/>
<text text-anchor="middle" x="1396" y="-157.5" font-family="Helvetica,sans-Serif" font-size="10.00">Dimension2D</text>
</g>
<!-- Node30&#45;&gt;Node23 -->
<g id="edge41" class="edge"><title>Node30&#45;&gt;Node23</title>
<path fill="none" stroke="#9a32cd" stroke-dasharray="5,2" d="M1447.11,-159.335C1479.95,-161.488 1521.85,-169.495 1550,-194 1599.83,-237.382 1610.32,-324.059 1612.46,-353.191"/>
<polygon fill="#9a32cd" stroke="#9a32cd" points="1446.95,-155.824 1436.79,-158.829 1446.61,-162.815 1446.95,-155.824"/>
<text text-anchor="middle" x="1512" y="-197" font-family="Helvetica,sans-Serif" font-size="10.00"> myDimensions</text>
</g>
<!-- Node31 -->
<g id="node31" class="node"><title>Node31</title>
<polygon fill="white" stroke="#bfbfbf" points="778,-396.5 778,-415.5 916,-415.5 916,-396.5 778,-396.5"/>
<text text-anchor="middle" x="847" y="-403.5" font-family="Helvetica,sans-Serif" font-size="10.00">ObservableList&lt; String &gt;</text>
</g>
<!-- Node31&#45;&gt;Node9 -->
<g id="edge44" class="edge"><title>Node31&#45;&gt;Node9</title>
<path fill="none" stroke="#9a32cd" stroke-dasharray="5,2" d="M926.115,-397.119C980.846,-392.649 1047.99,-391.24 1070,-408 1093.17,-425.641 1067.39,-450.429 1088,-471 1095.87,-478.858 1106.74,-483.521 1117.43,-486.272"/>
<polygon fill="#9a32cd" stroke="#9a32cd" points="925.717,-393.641 916.054,-397.986 926.317,-400.615 925.717,-393.641"/>
<text text-anchor="middle" x="1011" y="-422" font-family="Helvetica,sans-Serif" font-size="10.00"> myCommandItems</text>
<text text-anchor="middle" x="1011" y="-411" font-family="Helvetica,sans-Serif" font-size="10.00">myHistoryItems</text>
</g>
<!-- Node32 -->
<g id="node32" class="node"><title>Node32</title>
<polygon fill="white" stroke="#bfbfbf" points="1124.5,-142.5 1124.5,-161.5 1187.5,-161.5 1187.5,-142.5 1124.5,-142.5"/>
<text text-anchor="middle" x="1156" y="-149.5" font-family="Helvetica,sans-Serif" font-size="10.00">Rectangle</text>
</g>
<!-- Node32&#45;&gt;Node2 -->
<g id="edge45" class="edge"><title>Node32&#45;&gt;Node2</title>
<path fill="none" stroke="#9a32cd" stroke-dasharray="5,2" d="M1197.75,-142.906C1233.84,-137.428 1285.68,-136.248 1318,-165 1348.48,-192.111 1308.85,-224.557 1336,-255 1340.08,-259.578 1345.27,-263.059 1350.87,-265.705"/>
<polygon fill="#9a32cd" stroke="#9a32cd" points="1196.83,-139.511 1187.56,-144.63 1198,-146.414 1196.83,-139.511"/>
<text text-anchor="middle" x="1280" y="-168" font-family="Helvetica,sans-Serif" font-size="10.00"> myBackground</text>
</g>
<!-- Node33 -->
<g id="node33" class="node"><title>Node33</title>
<polygon fill="white" stroke="#bfbfbf" points="0.5,-104.5 0.5,-123.5 41.5,-123.5 41.5,-104.5 0.5,-104.5"/>
<text text-anchor="middle" x="21" y="-111.5" font-family="Helvetica,sans-Serif" font-size="10.00">Color</text>
</g>
<!-- Node33&#45;&gt;Node1 -->
<g id="edge46" class="edge"><title>Node33&#45;&gt;Node1</title>
<path fill="none" stroke="#9a32cd" stroke-dasharray="5,2" d="M51.8575,-114C84.6426,-114 137.265,-114 172.23,-114"/>
<polygon fill="#9a32cd" stroke="#9a32cd" points="51.5537,-110.5 41.5537,-114 51.5537,-117.5 51.5537,-110.5"/>
<text text-anchor="middle" x="82" y="-117" font-family="Helvetica,sans-Serif" font-size="10.00"> myColor</text>
</g>
</g>
</svg>
        <g id="navigator" transform="translate(0 0)" fill="#404254">
                <rect fill="#f2f5e9" fill-opacity="0.5" stroke="#606060" stroke-width=".5" x="0" y="0" width="60" height="60"/>
                <use id="zoomplus" xlink:href="#zoomPlus" x="17" y="9" onmousedown="handleZoom(evt,'in')"/>
                <use id="zoomminus" xlink:href="#zoomMin" x="42" y="9" onmousedown="handleZoom(evt,'out')"/>
                <use id="reset" xlink:href="#resetDef" x="30" y="36" onmousedown="handleReset()"/>
                <g id="arrowUp" xlink:href="#dirArrow" transform="translate(30 24)" onmousedown="handlePan(0,-1)">
                  <use xlink:href="#rim" fill="#404040">
                        <set attributeName="fill" to="#808080" begin="arrowUp.mouseover" end="arrowUp.mouseout"/>
                  </use>
                  <path fill="none" stroke="white" stroke-width="1.5" d="M0,-3.0v7 M-2.5,-0.5L0,-3.0L2.5,-0.5"/>
                </g>
                <g id="arrowRight" xlink:href="#dirArrow" transform="rotate(90) translate(36 -43)" onmousedown="handlePan(1,0)">
                  <use xlink:href="#rim" fill="#404040">
                        <set attributeName="fill" to="#808080" begin="arrowRight.mouseover" end="arrowRight.mouseout"/>
                  </use>
                  <path fill="none" stroke="white" stroke-width="1.5" d="M0,-3.0v7 M-2.5,-0.5L0,-3.0L2.5,-0.5"/>
                </g>
                <g id="arrowDown" xlink:href="#dirArrow" transform="rotate(180) translate(-30 -48)" onmousedown="handlePan(0,1)">
                  <use xlink:href="#rim" fill="#404040">
                        <set attributeName="fill" to="#808080" begin="arrowDown.mouseover" end="arrowDown.mouseout"/>
                  </use>
                  <path fill="none" stroke="white" stroke-width="1.5" d="M0,-3.0v7 M-2.5,-0.5L0,-3.0L2.5,-0.5"/>
                </g>
                <g id="arrowLeft" xlink:href="#dirArrow" transform="rotate(270) translate(-36 17)" onmousedown="handlePan(-1,0)">
                  <use xlink:href="#rim" fill="#404040">
                        <set attributeName="fill" to="#808080" begin="arrowLeft.mouseover" end="arrowLeft.mouseout"/>
                  </use>
                  <path fill="none" stroke="white" stroke-width="1.5" d="M0,-3.0v7 M-2.5,-0.5L0,-3.0L2.5,-0.5"/>
                </g>
        </g>
        <svg viewBox="0 0 15 15" width="100%" height="30px" preserveAspectRatio="xMaxYMin meet">
         <g id="arrow_out" transform="scale(0.3 0.3)">
          <a xlink:href="classview_1_1_drawer__coll__graph_org.svg" target="_base">
           <rect id="button" ry="5" rx="5" y="6" x="6" height="38" width="38"
                fill="#f2f5e9" fill-opacity="0.5" stroke="#606060" stroke-width="1.0"/>
           <path id="arrow"
             d="M 11.500037,31.436501 C 11.940474,20.09759 22.043105,11.32322 32.158766,21.979434 L 37.068811,17.246167 C 37.068811,17.246167 37.088388,32 37.088388,32 L 22.160133,31.978069 C 22.160133,31.978069 26.997745,27.140456 26.997745,27.140456 C 18.528582,18.264221 13.291696,25.230495 11.500037,31.436501 z"
             style="fill:#404040;"/>
          </a>
         </g>
        </svg>
</svg>
