<?xml version="1.0" encoding="UTF-8" standalone="no"?>
<!DOCTYPE svg PUBLIC "-//W3C//DTD SVG 1.1//EN"
 "http://www.w3.org/Graphics/SVG/1.1/DTD/svg11.dtd">
<!-- Generated by graphviz version 2.36.0 (20140111.2315)
 -->
<!-- Title: model.instructions.BooleanInstruction Pages: 1 -->
<!--zoomable 668 -->
<svg id="main" version="1.1" xmlns="http://www.w3.org/2000/svg" xmlns:xlink="http://www.w3.org/1999/xlink" xml:space="preserve" onload="init(evt)">
<style type="text/css"><![CDATA[
.edge:hover path { stroke: red; }
.edge:hover polygon { stroke: red; fill: red; }
]]></style>
<script type="text/javascript"><![CDATA[
var edges = document.getElementsByTagName('g');
if (edges && edges.length) {
  for (var i=0;i<edges.length;i++) {
    if (edges[i].id.substr(0,4)=='edge') {
      edges[i].setAttribute('class','edge');
    }
  }
}
]]></script>
        <defs>
                <circle id="rim" cx="0" cy="0" r="7"/>
                <circle id="rim2" cx="0" cy="0" r="3.5"/>
                <g id="zoomPlus">
                        <use xlink:href="#rim" fill="#404040">
                                <set attributeName="fill" to="#808080" begin="zoomplus.mouseover" end="zoomplus.mouseout"/>
                        </use>
                        <path d="M-4,0h8M0,-4v8" fill="none" stroke="white" stroke-width="1.5" pointer-events="none"/>
                </g>
                <g id="zoomMin">
                        <use xlink:href="#rim" fill="#404040">
                                <set attributeName="fill" to="#808080" begin="zoomminus.mouseover" end="zoomminus.mouseout"/>
                        </use>
                        <path d="M-4,0h8" fill="none" stroke="white" stroke-width="1.5" pointer-events="none"/>
                </g>
                <g id="dirArrow">
                        <path fill="none" stroke="white" stroke-width="1.5" d="M0,-3.0v7 M-2.5,-0.5L0,-3.0L2.5,-0.5"/>
                </g>
               <g id="resetDef">
                       <use xlink:href="#rim2" fill="#404040">
                               <set attributeName="fill" to="#808080" begin="reset.mouseover" end="reset.mouseout"/>
                       </use>
               </g>
        </defs>

<script type="text/javascript">
var viewWidth = 1488;
var viewHeight = 668;
var sectionId = 'dynsection-1';
</script>
<script xlink:href="../../svgpan.js"/>
<svg id="graph" class="graph">
<g id="viewport">
<title>model.instructions.BooleanInstruction</title>
<polygon fill="white" stroke="none" points="-4,4 -4,-664 1484,-664 1484,4 -4,4"/>
<!-- Node1 -->
<g id="node1" class="node"><title>Node1</title>
<polygon fill="#bfbfbf" stroke="black" points="950.5,-27 950.5,-57 1097.5,-57 1097.5,-27 950.5,-27"/>
<text text-anchor="start" x="958.5" y="-45" font-family="Helvetica,sans-Serif" font-size="10.00">model.instructions.Boolean</text>
<text text-anchor="middle" x="1024" y="-34" font-family="Helvetica,sans-Serif" font-size="10.00">Instruction</text>
</g>
<!-- Node2 -->
<g id="node2" class="node"><title>Node2</title>
<g id="a_node2"><a xlink:href="../../d1/dea/classmodel_1_1instructions_1_1_instruction.html" target="_top" xlink:title="model.instructions.Instruction">
<polygon fill="white" stroke="black" points="646,-32.5 646,-51.5 804,-51.5 804,-32.5 646,-32.5"/>
<text text-anchor="middle" x="725" y="-39.5" font-family="Helvetica,sans-Serif" font-size="10.00">model.instructions.Instruction</text>
</a>
</g>
</g>
<!-- Node2&#45;&gt;Node1 -->
<g id="edge1" class="edge"><title>Node2&#45;&gt;Node1</title>
<path fill="none" stroke="midnightblue" d="M814.295,-42C857.664,-42 909.281,-42 950.331,-42"/>
<polygon fill="midnightblue" stroke="midnightblue" points="814.033,-38.5001 804.033,-42 814.033,-45.5001 814.033,-38.5001"/>
</g>
<!-- Node3 -->
<g id="node3" class="node"><title>Node3</title>
<polygon fill="white" stroke="#bfbfbf" points="57,-162.5 57,-181.5 117,-181.5 117,-162.5 57,-162.5"/>
<text text-anchor="middle" x="87" y="-169.5" font-family="Helvetica,sans-Serif" font-size="10.00">Observer</text>
</g>
<!-- Node3&#45;&gt;Node2 -->
<g id="edge2" class="edge"><title>Node3&#45;&gt;Node2</title>
<path fill="none" stroke="midnightblue" d="M127.164,-164.776C146.648,-161.2 170.559,-156.837 192,-153 382.101,-118.98 440.709,-149.765 620,-78 628.926,-74.4271 629.261,-70.0088 638,-66 650.962,-60.0541 665.715,-55.2822 679.297,-51.6084"/>
<polygon fill="midnightblue" stroke="midnightblue" points="126.331,-161.37 117.128,-166.62 127.596,-168.255 126.331,-161.37"/>
</g>
<!-- Node9 -->
<g id="node9" class="node"><title>Node9</title>
<g id="a_node9"><a xlink:href="../../d6/de7/classview_1_1_s_logo_view.html" target="_top" xlink:title="view.SLogoView">
<polygon fill="white" stroke="black" points="355.5,-357.5 355.5,-376.5 446.5,-376.5 446.5,-357.5 355.5,-357.5"/>
<text text-anchor="middle" x="401" y="-364.5" font-family="Helvetica,sans-Serif" font-size="10.00">view.SLogoView</text>
</a>
</g>
</g>
<!-- Node3&#45;&gt;Node9 -->
<g id="edge9" class="edge"><title>Node3&#45;&gt;Node9</title>
<path fill="none" stroke="midnightblue" d="M112.094,-187.059C173.35,-225.344 333.775,-325.609 384.434,-357.272"/>
<polygon fill="midnightblue" stroke="midnightblue" points="113.807,-184.002 103.472,-181.67 110.097,-189.938 113.807,-184.002"/>
</g>
<!-- Node20 -->
<g id="node20" class="node"><title>Node20</title>
<g id="a_node20"><a xlink:href="../../dc/df5/classmodel_1_1_parser.html" target="_top" xlink:title="model.Parser">
<polygon fill="white" stroke="black" points="685,-229.5 685,-248.5 765,-248.5 765,-229.5 685,-229.5"/>
<text text-anchor="middle" x="725" y="-236.5" font-family="Helvetica,sans-Serif" font-size="10.00">model.Parser</text>
</a>
</g>
</g>
<!-- Node3&#45;&gt;Node20 -->
<g id="edge22" class="edge"><title>Node3&#45;&gt;Node20</title>
<path fill="none" stroke="midnightblue" d="M127.097,-167.23C216.225,-157.602 440.619,-140.424 620,-186 654.764,-194.833 691.173,-216.788 710.333,-229.497"/>
<polygon fill="midnightblue" stroke="midnightblue" points="126.71,-163.752 117.158,-168.334 127.483,-170.709 126.71,-163.752"/>
</g>
<!-- Node4 -->
<g id="node4" class="node"><title>Node4</title>
<g id="a_node4"><a xlink:href="../../d1/dca/classmodel_1_1_execution_environment.html" target="_top" xlink:title="model.ExecutionEnvironment">
<polygon fill="white" stroke="black" points="322.5,-63.5 322.5,-82.5 479.5,-82.5 479.5,-63.5 322.5,-63.5"/>
<text text-anchor="middle" x="401" y="-70.5" font-family="Helvetica,sans-Serif" font-size="10.00">model.ExecutionEnvironment</text>
</a>
</g>
</g>
<!-- Node4&#45;&gt;Node2 -->
<g id="edge3" class="edge"><title>Node4&#45;&gt;Node2</title>
<path fill="none" stroke="#9a32cd" stroke-dasharray="5,2" d="M489.726,-63.8216C492.516,-63.5426 495.28,-63.2681 498,-63 547.117,-58.16 602.271,-53.0292 645.797,-49.0507"/>
<polygon fill="#9a32cd" stroke="#9a32cd" points="489.136,-60.3632 479.538,-64.8483 489.838,-67.328 489.136,-60.3632"/>
<text text-anchor="middle" x="559" y="-66" font-family="Helvetica,sans-Serif" font-size="10.00"> myEnvironment</text>
</g>
<!-- Node15 -->
<g id="node15" class="node"><title>Node15</title>
<g id="a_node15"><a xlink:href="../../d1/dc7/classview_1_1_side_bar.html" target="_top" xlink:title="view.SideBar">
<polygon fill="white" stroke="black" points="985.5,-358.5 985.5,-377.5 1062.5,-377.5 1062.5,-358.5 985.5,-358.5"/>
<text text-anchor="middle" x="1024" y="-365.5" font-family="Helvetica,sans-Serif" font-size="10.00">view.SideBar</text>
</a>
</g>
</g>
<!-- Node4&#45;&gt;Node15 -->
<g id="edge19" class="edge"><title>Node4&#45;&gt;Node15</title>
<path fill="none" stroke="#9a32cd" stroke-dasharray="5,2" d="M489.672,-80.4259C529.765,-84.9009 577.661,-91.7721 620,-102 763.066,-136.56 838.503,-99.3314 932,-213 966.538,-254.99 917.474,-290.433 950,-334 958.615,-345.539 972.115,-353.297 985.174,-358.448"/>
<polygon fill="#9a32cd" stroke="#9a32cd" points="489.975,-76.9382 479.656,-79.3392 489.22,-83.8974 489.975,-76.9382"/>
<text text-anchor="middle" x="725" y="-135" font-family="Helvetica,sans-Serif" font-size="10.00"> myEnvironment</text>
</g>
<!-- Node4&#45;&gt;Node20 -->
<g id="edge24" class="edge"><title>Node4&#45;&gt;Node20</title>
<path fill="none" stroke="#9a32cd" stroke-dasharray="5,2" d="M442.199,-85.6956C500.753,-104.332 604.273,-137.875 620,-147 660.242,-170.349 698.918,-210.783 715.516,-229.269"/>
<polygon fill="#9a32cd" stroke="#9a32cd" points="443.104,-82.3109 432.514,-82.6185 440.985,-88.9823 443.104,-82.3109"/>
<text text-anchor="middle" x="559" y="-150" font-family="Helvetica,sans-Serif" font-size="10.00"> myExecutionParameters</text>
</g>
<!-- Node5 -->
<g id="node5" class="node"><title>Node5</title>
<polygon fill="white" stroke="#bfbfbf" points="51.5,-0.5 51.5,-19.5 122.5,-19.5 122.5,-0.5 51.5,-0.5"/>
<text text-anchor="middle" x="87" y="-7.5" font-family="Helvetica,sans-Serif" font-size="10.00">Observable</text>
</g>
<!-- Node5&#45;&gt;Node4 -->
<g id="edge4" class="edge"><title>Node5&#45;&gt;Node4</title>
<path fill="none" stroke="midnightblue" d="M132.829,-18.8037C176.532,-27.4147 244.861,-40.9534 304,-53 320.515,-56.3641 338.614,-60.1173 354.601,-63.4556"/>
<polygon fill="midnightblue" stroke="midnightblue" points="133.299,-15.329 122.811,-16.8311 131.946,-22.1971 133.299,-15.329"/>
</g>
<!-- Node6 -->
<g id="node6" class="node"><title>Node6</title>
<polygon fill="white" stroke="#bfbfbf" points="0,-77 0,-107 174,-107 174,-77 0,-77"/>
<text text-anchor="start" x="8" y="-95" font-family="Helvetica,sans-Serif" font-size="10.00">Map&lt; String, model.instructions.</text>
<text text-anchor="middle" x="87" y="-84" font-family="Helvetica,sans-Serif" font-size="10.00">Instruction &gt;</text>
</g>
<!-- Node6&#45;&gt;Node4 -->
<g id="edge5" class="edge"><title>Node6&#45;&gt;Node4</title>
<path fill="none" stroke="#9a32cd" stroke-dasharray="5,2" d="M184.305,-86.1352C228.685,-83.4326 280.655,-80.2678 322.461,-77.7219"/>
<polygon fill="#9a32cd" stroke="#9a32cd" points="183.85,-82.6564 174.081,-86.7579 184.276,-89.6435 183.85,-82.6564"/>
<text text-anchor="middle" x="248" y="-89" font-family="Helvetica,sans-Serif" font-size="10.00"> myUserInstructionMap</text>
</g>
<!-- Node7 -->
<g id="node7" class="node"><title>Node7</title>
<polygon fill="white" stroke="#bfbfbf" points="23,-38.5 23,-57.5 151,-57.5 151,-38.5 23,-38.5"/>
<text text-anchor="middle" x="87" y="-45.5" font-family="Helvetica,sans-Serif" font-size="10.00">Map&lt; String, Double &gt;</text>
</g>
<!-- Node7&#45;&gt;Node4 -->
<g id="edge6" class="edge"><title>Node7&#45;&gt;Node4</title>
<path fill="none" stroke="#9a32cd" stroke-dasharray="5,2" d="M161.424,-53.6945C203.219,-56.9571 256.547,-61.1555 304,-65 310.001,-65.4862 316.213,-65.9939 322.457,-66.5073"/>
<polygon fill="#9a32cd" stroke="#9a32cd" points="161.573,-50.1956 151.331,-52.9073 161.029,-57.1744 161.573,-50.1956"/>
<text text-anchor="middle" x="248" y="-68" font-family="Helvetica,sans-Serif" font-size="10.00"> myVariableMap</text>
</g>
<!-- Node8 -->
<g id="node8" class="node"><title>Node8</title>
<polygon fill="white" stroke="#bfbfbf" points="333,-13 333,-43 469,-43 469,-13 333,-13"/>
<text text-anchor="start" x="341" y="-31" font-family="Helvetica,sans-Serif" font-size="10.00">List&lt; model.instructions.</text>
<text text-anchor="middle" x="401" y="-20" font-family="Helvetica,sans-Serif" font-size="10.00">Instruction &gt;</text>
</g>
<!-- Node8&#45;&gt;Node2 -->
<g id="edge7" class="edge"><title>Node8&#45;&gt;Node2</title>
<path fill="none" stroke="#9a32cd" stroke-dasharray="5,2" d="M479.43,-26.1043C521.123,-25.6509 573.419,-25.9927 620,-29 632.166,-29.7854 645.088,-31.0502 657.536,-32.4896"/>
<polygon fill="#9a32cd" stroke="#9a32cd" points="479.298,-22.6056 469.343,-26.2317 479.386,-29.6051 479.298,-22.6056"/>
<text text-anchor="middle" x="559" y="-32" font-family="Helvetica,sans-Serif" font-size="10.00"> myDependencies</text>
</g>
<!-- Node9&#45;&gt;Node2 -->
<g id="edge8" class="edge"><title>Node9&#45;&gt;Node2</title>
<path fill="none" stroke="#9a32cd" stroke-dasharray="5,2" d="M427.749,-351.952C445.142,-340.451 467.188,-323.021 480,-302 499.193,-270.51 475.113,-249.917 498,-221 535.379,-173.772 583.413,-209.844 620,-162 646.37,-127.517 608.665,-97.9985 638,-66 643.761,-59.7156 651.017,-55.0238 658.858,-51.5303"/>
<polygon fill="#9a32cd" stroke="#9a32cd" points="425.716,-349.097 419.151,-357.414 429.469,-355.006 425.716,-349.097"/>
<text text-anchor="middle" x="559" y="-224" font-family="Helvetica,sans-Serif" font-size="10.00"> myView</text>
</g>
<!-- Node9&#45;&gt;Node20 -->
<g id="edge26" class="edge"><title>Node9&#45;&gt;Node20</title>
<path fill="none" stroke="#9a32cd" stroke-dasharray="5,2" d="M446.28,-354.793C462.492,-350.502 481.021,-345.807 498,-342 551.841,-329.929 578.629,-355.51 620,-319 639.601,-301.701 619.159,-281.123 638,-263 650.512,-250.965 668.537,-244.866 684.856,-241.814"/>
<polygon fill="#9a32cd" stroke="#9a32cd" points="445.278,-351.437 436.52,-357.4 447.085,-358.2 445.278,-351.437"/>
<text text-anchor="middle" x="559" y="-345" font-family="Helvetica,sans-Serif" font-size="10.00"> mySLogoView</text>
</g>
<!-- Node10 -->
<g id="node10" class="node"><title>Node10</title>
<g id="a_node10"><a xlink:href="../../da/d64/classview_1_1_workspace.html" target="_top" xlink:title="view.Workspace">
<polygon fill="white" stroke="black" points="1210,-516.5 1210,-535.5 1300,-535.5 1300,-516.5 1210,-516.5"/>
<text text-anchor="middle" x="1255" y="-523.5" font-family="Helvetica,sans-Serif" font-size="10.00">view.Workspace</text>
</a>
</g>
</g>
<!-- Node10&#45;&gt;Node9 -->
<g id="edge10" class="edge"><title>Node10&#45;&gt;Node9</title>
<path fill="none" stroke="#9a32cd" stroke-dasharray="5,2" d="M1240.52,-543.819C1229.1,-557.662 1211.5,-576.259 1192,-587 1154.42,-607.705 1140.62,-604.079 1098,-609 894.905,-632.45 826.882,-687.238 638,-609 627.547,-604.67 629.899,-596.479 620,-591 571.326,-564.061 541.589,-597.567 498,-563 434.171,-512.382 409.842,-408.54 403.687,-376.577"/>
<polygon fill="#9a32cd" stroke="#9a32cd" points="1243.31,-545.931 1246.8,-535.926 1237.83,-541.574 1243.31,-545.931"/>
<text text-anchor="middle" x="881" y="-652" font-family="Helvetica,sans-Serif" font-size="10.00"> myWorkspace</text>
</g>
<!-- Node32 -->
<g id="node32" class="node"><title>Node32</title>
<g id="a_node32"><a xlink:href="../../de/d0a/classview_1_1_drawer.html" target="_top" xlink:title="view.Drawer">
<polygon fill="white" stroke="black" points="1406.5,-415.5 1406.5,-434.5 1479.5,-434.5 1479.5,-415.5 1406.5,-415.5"/>
<text text-anchor="middle" x="1443" y="-422.5" font-family="Helvetica,sans-Serif" font-size="10.00">view.Drawer</text>
</a>
</g>
</g>
<!-- Node10&#45;&gt;Node32 -->
<g id="edge41" class="edge"><title>Node10&#45;&gt;Node32</title>
<path fill="none" stroke="#9a32cd" stroke-dasharray="5,2" d="M1282.58,-511.567C1321.17,-490.613 1391.66,-452.333 1424.41,-434.55"/>
<polygon fill="#9a32cd" stroke="#9a32cd" points="1280.62,-508.65 1273.5,-516.498 1283.96,-514.802 1280.62,-508.65"/>
<text text-anchor="middle" x="1353" y="-493" font-family="Helvetica,sans-Serif" font-size="10.00"> myWorkspace</text>
</g>
<!-- Node11 -->
<g id="node11" class="node"><title>Node11</title>
<polygon fill="white" stroke="#bfbfbf" points="990.5,-542.5 990.5,-561.5 1057.5,-561.5 1057.5,-542.5 990.5,-542.5"/>
<text text-anchor="middle" x="1024" y="-549.5" font-family="Helvetica,sans-Serif" font-size="10.00">StackPane</text>
</g>
<!-- Node11&#45;&gt;Node10 -->
<g id="edge11" class="edge"><title>Node11&#45;&gt;Node10</title>
<path fill="none" stroke="midnightblue" d="M1067.68,-548.162C1101.45,-545.002 1149.8,-540.209 1192,-535 1197.72,-534.294 1203.73,-533.494 1209.66,-532.67"/>
<polygon fill="midnightblue" stroke="midnightblue" points="1067.32,-544.68 1057.69,-549.089 1067.97,-551.65 1067.32,-544.68"/>
</g>
<!-- Node12 -->
<g id="node12" class="node"><title>Node12</title>
<g id="a_node12"><a xlink:href="../../d8/df7/classview_1_1_turtle_view.html" target="_top" xlink:title="view.TurtleView">
<polygon fill="white" stroke="black" points="981,-580.5 981,-599.5 1067,-599.5 1067,-580.5 981,-580.5"/>
<text text-anchor="middle" x="1024" y="-587.5" font-family="Helvetica,sans-Serif" font-size="10.00">view.TurtleView</text>
</a>
</g>
</g>
<!-- Node12&#45;&gt;Node10 -->
<g id="edge12" class="edge"><title>Node12&#45;&gt;Node10</title>
<path fill="none" stroke="#9a32cd" stroke-dasharray="5,2" d="M1077.09,-581.137C1110.39,-574.819 1154.25,-565.275 1192,-553 1206.63,-548.244 1222.52,-541.286 1234.55,-535.624"/>
<polygon fill="#9a32cd" stroke="#9a32cd" points="1076.31,-577.723 1067.12,-582.994 1077.59,-584.605 1076.31,-577.723"/>
<text text-anchor="middle" x="1154" y="-575" font-family="Helvetica,sans-Serif" font-size="10.00"> myActiveTurtle</text>
</g>
<!-- Node13 -->
<g id="node13" class="node"><title>Node13</title>
<polygon fill="white" stroke="#bfbfbf" points="691,-580.5 691,-599.5 759,-599.5 759,-580.5 691,-580.5"/>
<text text-anchor="middle" x="725" y="-587.5" font-family="Helvetica,sans-Serif" font-size="10.00">ImageView</text>
</g>
<!-- Node13&#45;&gt;Node12 -->
<g id="edge13" class="edge"><title>Node13&#45;&gt;Node12</title>
<path fill="none" stroke="midnightblue" d="M769.288,-590C826.017,-590 924.867,-590 980.967,-590"/>
<polygon fill="midnightblue" stroke="midnightblue" points="769.205,-586.5 759.205,-590 769.205,-593.5 769.205,-586.5"/>
</g>
<!-- Node14 -->
<g id="node14" class="node"><title>Node14</title>
<polygon fill="white" stroke="#bfbfbf" points="956,-493 956,-523 1092,-523 1092,-493 956,-493"/>
<text text-anchor="start" x="964" y="-511" font-family="Helvetica,sans-Serif" font-size="10.00">Map&lt; Integer, view.Turtle</text>
<text text-anchor="middle" x="1024" y="-500" font-family="Helvetica,sans-Serif" font-size="10.00">View &gt;</text>
</g>
<!-- Node14&#45;&gt;Node10 -->
<g id="edge14" class="edge"><title>Node14&#45;&gt;Node10</title>
<path fill="none" stroke="#9a32cd" stroke-dasharray="5,2" d="M1102.13,-514.063C1138.06,-516.887 1179.49,-520.144 1210,-522.541"/>
<polygon fill="#9a32cd" stroke="#9a32cd" points="1102.4,-510.573 1092.16,-513.279 1101.86,-517.552 1102.4,-510.573"/>
<text text-anchor="middle" x="1154" y="-523" font-family="Helvetica,sans-Serif" font-size="10.00"> myTurtles</text>
</g>
<!-- Node15&#45;&gt;Node9 -->
<g id="edge43" class="edge"><title>Node15&#45;&gt;Node9</title>
<path fill="none" stroke="#9a32cd" stroke-dasharray="5,2" d="M992.943,-381.754C975.521,-389.081 952.949,-397.489 932,-402 750.801,-441.013 527.412,-397.187 439.788,-376.555"/>
<polygon fill="#9a32cd" stroke="#9a32cd" points="994.762,-384.781 1002.56,-377.603 991.987,-378.355 994.762,-384.781"/>
<text text-anchor="middle" x="725" y="-421" font-family="Helvetica,sans-Serif" font-size="10.00"> mySidebar</text>
</g>
<!-- Node15&#45;&gt;Node10 -->
<g id="edge15" class="edge"><title>Node15&#45;&gt;Node10</title>
<path fill="none" stroke="#9a32cd" stroke-dasharray="5,2" d="M1056.25,-381.781C1069.36,-387.872 1084.64,-395.374 1098,-403 1141.68,-427.936 1152.89,-434.387 1192,-466 1212.04,-482.195 1233.14,-503.713 1244.83,-516.09"/>
<polygon fill="#9a32cd" stroke="#9a32cd" points="1057.69,-378.591 1047.14,-377.614 1054.78,-384.957 1057.69,-378.591"/>
<text text-anchor="middle" x="1154" y="-469" font-family="Helvetica,sans-Serif" font-size="10.00"> mySidebar</text>
</g>
<!-- Node26 -->
<g id="node26" class="node"><title>Node26</title>
<g id="a_node26"><a xlink:href="../../da/dc8/classview_1_1_editor.html" target="_top" xlink:title="view.Editor">
<polygon fill="white" stroke="black" points="1221.5,-248.5 1221.5,-267.5 1288.5,-267.5 1288.5,-248.5 1221.5,-248.5"/>
<text text-anchor="middle" x="1255" y="-255.5" font-family="Helvetica,sans-Serif" font-size="10.00">view.Editor</text>
</a>
</g>
</g>
<!-- Node15&#45;&gt;Node26 -->
<g id="edge36" class="edge"><title>Node15&#45;&gt;Node26</title>
<path fill="none" stroke="#9a32cd" stroke-dasharray="5,2" d="M1072.58,-358.281C1107.26,-349.882 1154.53,-335.635 1192,-314 1213.86,-301.379 1234.64,-280.044 1245.72,-267.671"/>
<polygon fill="#9a32cd" stroke="#9a32cd" points="1071.63,-354.908 1062.69,-360.599 1073.23,-361.723 1071.63,-354.908"/>
<text text-anchor="middle" x="1154" y="-349" font-family="Helvetica,sans-Serif" font-size="10.00"> mySidebar</text>
</g>
<!-- Node16 -->
<g id="node16" class="node"><title>Node16</title>
<polygon fill="white" stroke="#bfbfbf" points="704.5,-504.5 704.5,-523.5 745.5,-523.5 745.5,-504.5 704.5,-504.5"/>
<text text-anchor="middle" x="725" y="-511.5" font-family="Helvetica,sans-Serif" font-size="10.00">VBox</text>
</g>
<!-- Node16&#45;&gt;Node15 -->
<g id="edge16" class="edge"><title>Node16&#45;&gt;Node15</title>
<path fill="none" stroke="midnightblue" d="M755.633,-520.247C800.017,-527.72 883.691,-534.233 932,-490 961.122,-463.335 925.67,-434.099 950,-403 959.353,-391.045 973.807,-382.947 987.393,-377.581"/>
<polygon fill="midnightblue" stroke="midnightblue" points="756.219,-516.796 745.755,-518.456 754.97,-523.684 756.219,-516.796"/>
</g>
<!-- Node17 -->
<g id="node17" class="node"><title>Node17</title>
<polygon fill="white" stroke="#bfbfbf" points="638.5,-381.5 638.5,-400.5 811.5,-400.5 811.5,-381.5 638.5,-381.5"/>
<text text-anchor="middle" x="725" y="-388.5" font-family="Helvetica,sans-Serif" font-size="10.00">ObservableList&lt; view.Property &gt;</text>
</g>
<!-- Node17&#45;&gt;Node15 -->
<g id="edge17" class="edge"><title>Node17&#45;&gt;Node15</title>
<path fill="none" stroke="#9a32cd" stroke-dasharray="5,2" d="M821.679,-386.665C856.452,-384.763 896.033,-382.218 932,-379 949.594,-377.426 969.039,-375.149 985.422,-373.074"/>
<polygon fill="#9a32cd" stroke="#9a32cd" points="821.328,-383.179 811.53,-387.209 821.703,-390.168 821.328,-383.179"/>
<text text-anchor="middle" x="881" y="-390" font-family="Helvetica,sans-Serif" font-size="10.00"> variablesList</text>
</g>
<!-- Node18 -->
<g id="node18" class="node"><title>Node18</title>
<polygon fill="white" stroke="#bfbfbf" points="40.5,-504.5 40.5,-523.5 133.5,-523.5 133.5,-504.5 40.5,-504.5"/>
<text text-anchor="middle" x="87" y="-511.5" font-family="Helvetica,sans-Serif" font-size="10.00">ResourceBundle</text>
</g>
<!-- Node18&#45;&gt;Node9 -->
<g id="edge30" class="edge"><title>Node18&#45;&gt;Node9</title>
<path fill="none" stroke="#9a32cd" stroke-dasharray="5,2" d="M127.2,-501.213C171.274,-486.238 244.461,-459.557 304,-429 335.066,-413.056 368.791,-389.73 386.836,-376.709"/>
<polygon fill="#9a32cd" stroke="#9a32cd" points="125.811,-497.988 117.451,-504.496 128.045,-504.622 125.811,-497.988"/>
<text text-anchor="middle" x="248" y="-480" font-family="Helvetica,sans-Serif" font-size="10.00"> myResources</text>
</g>
<!-- Node18&#45;&gt;Node15 -->
<g id="edge18" class="edge"><title>Node18&#45;&gt;Node15</title>
<path fill="none" stroke="#9a32cd" stroke-dasharray="5,2" d="M143.642,-508.455C187.272,-504.078 249.517,-497.768 304,-492 583.231,-462.441 682.129,-551.094 932,-423 942.642,-417.545 940.426,-410.166 950,-403 964.29,-392.304 982.368,-383.607 996.958,-377.557"/>
<polygon fill="#9a32cd" stroke="#9a32cd" points="143.122,-504.99 133.521,-509.469 143.82,-511.955 143.122,-504.99"/>
<text text-anchor="middle" x="559" y="-497" font-family="Helvetica,sans-Serif" font-size="10.00"> myResources</text>
</g>
<!-- Node19 -->
<g id="node19" class="node"><title>Node19</title>
<polygon fill="white" stroke="#bfbfbf" points="651,-343.5 651,-362.5 799,-362.5 799,-343.5 651,-343.5"/>
<text text-anchor="middle" x="725" y="-350.5" font-family="Helvetica,sans-Serif" font-size="10.00">TableView&lt; view.Property &gt;</text>
</g>
<!-- Node19&#45;&gt;Node15 -->
<g id="edge20" class="edge"><title>Node19&#45;&gt;Node15</title>
<path fill="none" stroke="#9a32cd" stroke-dasharray="5,2" d="M809.391,-352.71C846.906,-353.071 891.718,-354.182 932,-357 949.621,-358.233 969.07,-360.465 985.448,-362.597"/>
<polygon fill="#9a32cd" stroke="#9a32cd" points="809.04,-349.207 799.013,-352.627 808.985,-356.207 809.04,-349.207"/>
<text text-anchor="middle" x="881" y="-371" font-family="Helvetica,sans-Serif" font-size="10.00"> turtlePropertiesTable</text>
<text text-anchor="middle" x="881" y="-360" font-family="Helvetica,sans-Serif" font-size="10.00">variablesTable</text>
</g>
<!-- Node20&#45;&gt;Node9 -->
<g id="edge38" class="edge"><title>Node20&#45;&gt;Node9</title>
<path fill="none" stroke="#9a32cd" stroke-dasharray="5,2" d="M674.765,-248.094C662.254,-251.631 649.194,-256.459 638,-263 628.231,-268.707 629.962,-275.638 620,-281 571.262,-307.232 549.316,-285.26 498,-306 465.229,-319.245 431.351,-343.791 413.936,-357.359"/>
<polygon fill="#9a32cd" stroke="#9a32cd" points="675.839,-251.431 684.635,-245.526 674.076,-244.657 675.839,-251.431"/>
<text text-anchor="middle" x="559" y="-309" font-family="Helvetica,sans-Serif" font-size="10.00"> myParser</text>
</g>
<!-- Node20&#45;&gt;Node15 -->
<g id="edge21" class="edge"><title>Node20&#45;&gt;Node15</title>
<path fill="none" stroke="#9a32cd" stroke-dasharray="5,2" d="M765.379,-226.81C810.995,-215.353 885.785,-205.166 932,-244 963.23,-270.243 924.792,-301.929 950,-334 958.985,-345.431 972.718,-353.186 985.858,-358.365"/>
<polygon fill="#9a32cd" stroke="#9a32cd" points="764.326,-223.468 755.554,-229.411 766.117,-230.235 764.326,-223.468"/>
<text text-anchor="middle" x="881" y="-247" font-family="Helvetica,sans-Serif" font-size="10.00"> myParser</text>
</g>
<!-- Node20&#45;&gt;Node26 -->
<g id="edge34" class="edge"><title>Node20&#45;&gt;Node26</title>
<path fill="none" stroke="#9a32cd" stroke-dasharray="5,2" d="M756.471,-225.505C820.085,-199.075 971.6,-145.225 1098,-171 1142.49,-180.072 1152.72,-188.225 1192,-211 1211.16,-222.112 1231.22,-238.276 1243.16,-248.458"/>
<polygon fill="#9a32cd" stroke="#9a32cd" points="754.881,-222.378 747.033,-229.495 757.607,-228.825 754.881,-222.378"/>
<text text-anchor="middle" x="1024" y="-174" font-family="Helvetica,sans-Serif" font-size="10.00"> myParser</text>
</g>
<!-- Node21 -->
<g id="node21" class="node"><title>Node21</title>
<polygon fill="white" stroke="#bfbfbf" points="345,-263 345,-293 457,-293 457,-263 345,-263"/>
<text text-anchor="start" x="353" y="-281" font-family="Helvetica,sans-Serif" font-size="10.00">List&lt; Entry&lt; String,</text>
<text text-anchor="middle" x="401" y="-270" font-family="Helvetica,sans-Serif" font-size="10.00"> Pattern &gt; &gt;</text>
</g>
<!-- Node21&#45;&gt;Node20 -->
<g id="edge23" class="edge"><title>Node21&#45;&gt;Node20</title>
<path fill="none" stroke="#9a32cd" stroke-dasharray="5,2" d="M467.519,-270.064C532.679,-262.172 630.507,-250.324 684.567,-243.776"/>
<polygon fill="#9a32cd" stroke="#9a32cd" points="466.86,-266.619 457.354,-271.296 467.702,-273.568 466.86,-266.619"/>
<text text-anchor="middle" x="559" y="-269" font-family="Helvetica,sans-Serif" font-size="10.00"> myPatterns</text>
</g>
<!-- Node22 -->
<g id="node22" class="node"><title>Node22</title>
<polygon fill="white" stroke="#bfbfbf" points="340,-224.5 340,-243.5 462,-243.5 462,-224.5 340,-224.5"/>
<text text-anchor="middle" x="401" y="-231.5" font-family="Helvetica,sans-Serif" font-size="10.00">Map&lt; String, String &gt;</text>
</g>
<!-- Node22&#45;&gt;Node20 -->
<g id="edge25" class="edge"><title>Node22&#45;&gt;Node20</title>
<path fill="none" stroke="#9a32cd" stroke-dasharray="5,2" d="M472.39,-235.093C537.597,-236.106 632.209,-237.575 684.877,-238.393"/>
<polygon fill="#9a32cd" stroke="#9a32cd" points="472.241,-231.59 462.188,-234.935 472.132,-238.59 472.241,-231.59"/>
<text text-anchor="middle" x="559" y="-241" font-family="Helvetica,sans-Serif" font-size="10.00"> myCommandMap</text>
</g>
<!-- Node23 -->
<g id="node23" class="node"><title>Node23</title>
<polygon fill="white" stroke="#bfbfbf" points="656,-305.5 656,-324.5 794,-324.5 794,-305.5 656,-305.5"/>
<text text-anchor="middle" x="725" y="-312.5" font-family="Helvetica,sans-Serif" font-size="10.00">ObservableList&lt; String &gt;</text>
</g>
<!-- Node23&#45;&gt;Node15 -->
<g id="edge27" class="edge"><title>Node23&#45;&gt;Node15</title>
<path fill="none" stroke="#9a32cd" stroke-dasharray="5,2" d="M804.395,-312.901C843.273,-313.535 890.641,-316.846 932,-327 939.278,-328.787 978.277,-346.883 1002.8,-358.429"/>
<polygon fill="#9a32cd" stroke="#9a32cd" points="804.223,-309.399 794.186,-312.792 804.148,-316.398 804.223,-309.399"/>
<text text-anchor="middle" x="881" y="-341" font-family="Helvetica,sans-Serif" font-size="10.00"> commandItems</text>
<text text-anchor="middle" x="881" y="-330" font-family="Helvetica,sans-Serif" font-size="10.00">historyItems</text>
</g>
<!-- Node24 -->
<g id="node24" class="node"><title>Node24</title>
<polygon fill="white" stroke="#bfbfbf" points="992.5,-454.5 992.5,-473.5 1055.5,-473.5 1055.5,-454.5 992.5,-454.5"/>
<text text-anchor="middle" x="1024" y="-461.5" font-family="Helvetica,sans-Serif" font-size="10.00">Rectangle</text>
</g>
<!-- Node24&#45;&gt;Node10 -->
<g id="edge28" class="edge"><title>Node24&#45;&gt;Node10</title>
<path fill="none" stroke="#9a32cd" stroke-dasharray="5,2" d="M1065.68,-470.597C1099.83,-476.65 1149.69,-486.695 1192,-500 1206.36,-504.517 1221.99,-511.084 1233.97,-516.487"/>
<polygon fill="#9a32cd" stroke="#9a32cd" points="1066.06,-467.111 1055.61,-468.847 1064.86,-474.008 1066.06,-467.111"/>
<text text-anchor="middle" x="1154" y="-503" font-family="Helvetica,sans-Serif" font-size="10.00"> myBackground</text>
</g>
<!-- Node25 -->
<g id="node25" class="node"><title>Node25</title>
<polygon fill="white" stroke="#bfbfbf" points="64.5,-376.5 64.5,-395.5 109.5,-395.5 109.5,-376.5 64.5,-376.5"/>
<text text-anchor="middle" x="87" y="-383.5" font-family="Helvetica,sans-Serif" font-size="10.00">Stage</text>
</g>
<!-- Node25&#45;&gt;Node9 -->
<g id="edge29" class="edge"><title>Node25&#45;&gt;Node9</title>
<path fill="none" stroke="#9a32cd" stroke-dasharray="5,2" d="M119.977,-384.053C175.9,-380.647 291.57,-373.603 355.356,-369.719"/>
<polygon fill="#9a32cd" stroke="#9a32cd" points="119.708,-380.562 109.939,-384.664 120.134,-387.55 119.708,-380.562"/>
<text text-anchor="middle" x="248" y="-383" font-family="Helvetica,sans-Serif" font-size="10.00"> myStage</text>
</g>
<!-- Node26&#45;&gt;Node9 -->
<g id="edge31" class="edge"><title>Node26&#45;&gt;Node9</title>
<path fill="none" stroke="#9a32cd" stroke-dasharray="5,2" d="M1210.77,-261.603C1204.48,-262.094 1198.07,-262.574 1192,-263 1130.49,-267.312 686.631,-258.085 638,-296 617.049,-312.335 640.913,-336.617 620,-353 568.799,-393.11 488.362,-385.762 440.839,-376.541"/>
<polygon fill="#9a32cd" stroke="#9a32cd" points="1211.5,-265.056 1221.19,-260.775 1210.94,-258.078 1211.5,-265.056"/>
<text text-anchor="middle" x="881" y="-273" font-family="Helvetica,sans-Serif" font-size="10.00"> myEditor</text>
</g>
<!-- Node27 -->
<g id="node27" class="node"><title>Node27</title>
<polygon fill="white" stroke="#bfbfbf" points="1003,-305.5 1003,-324.5 1045,-324.5 1045,-305.5 1003,-305.5"/>
<text text-anchor="middle" x="1024" y="-312.5" font-family="Helvetica,sans-Serif" font-size="10.00">HBox</text>
</g>
<!-- Node27&#45;&gt;Node26 -->
<g id="edge32" class="edge"><title>Node27&#45;&gt;Node26</title>
<path fill="none" stroke="midnightblue" d="M1055.25,-313.789C1089.26,-311.716 1145.77,-306.11 1192,-291 1209.15,-285.393 1227.2,-275.24 1239.37,-267.67"/>
<polygon fill="midnightblue" stroke="midnightblue" points="1054.84,-310.307 1045.04,-314.346 1055.22,-317.296 1054.84,-310.307"/>
</g>
<!-- Node28 -->
<g id="node28" class="node"><title>Node28</title>
<polygon fill="white" stroke="#bfbfbf" points="999.5,-229.5 999.5,-248.5 1048.5,-248.5 1048.5,-229.5 999.5,-229.5"/>
<text text-anchor="middle" x="1024" y="-236.5" font-family="Helvetica,sans-Serif" font-size="10.00">Button</text>
</g>
<!-- Node28&#45;&gt;Node26 -->
<g id="edge33" class="edge"><title>Node28&#45;&gt;Node26</title>
<path fill="none" stroke="#9a32cd" stroke-dasharray="5,2" d="M1058.75,-241.44C1092.49,-243.924 1145.86,-247.972 1192,-252 1201.48,-252.828 1211.77,-253.795 1221.19,-254.709"/>
<polygon fill="#9a32cd" stroke="#9a32cd" points="1058.75,-237.931 1048.52,-240.691 1058.24,-244.912 1058.75,-237.931"/>
<text text-anchor="middle" x="1154" y="-255" font-family="Helvetica,sans-Serif" font-size="10.00"> runButton</text>
</g>
<!-- Node29 -->
<g id="node29" class="node"><title>Node29</title>
<polygon fill="white" stroke="#bfbfbf" points="995,-191.5 995,-210.5 1053,-210.5 1053,-191.5 995,-191.5"/>
<text text-anchor="middle" x="1024" y="-198.5" font-family="Helvetica,sans-Serif" font-size="10.00">TextArea</text>
</g>
<!-- Node29&#45;&gt;Node26 -->
<g id="edge35" class="edge"><title>Node29&#45;&gt;Node26</title>
<path fill="none" stroke="#9a32cd" stroke-dasharray="5,2" d="M1063.3,-205.3C1097.54,-209.75 1148.82,-217.916 1192,-231 1206.94,-235.528 1223.09,-242.639 1235.16,-248.427"/>
<polygon fill="#9a32cd" stroke="#9a32cd" points="1063.6,-201.811 1053.25,-204.037 1062.73,-208.757 1063.6,-201.811"/>
<text text-anchor="middle" x="1154" y="-234" font-family="Helvetica,sans-Serif" font-size="10.00"> textEditor</text>
</g>
<!-- Node30 -->
<g id="node30" class="node"><title>Node30</title>
<polygon fill="white" stroke="#bfbfbf" points="27.5,-338.5 27.5,-357.5 146.5,-357.5 146.5,-338.5 27.5,-338.5"/>
<text text-anchor="middle" x="87" y="-345.5" font-family="Helvetica,sans-Serif" font-size="10.00">Map&lt; String, Node &gt;</text>
</g>
<!-- Node30&#45;&gt;Node9 -->
<g id="edge37" class="edge"><title>Node30&#45;&gt;Node9</title>
<path fill="none" stroke="#9a32cd" stroke-dasharray="5,2" d="M156.922,-350.943C199.356,-352.895 254.853,-355.702 304,-359 320.687,-360.12 338.986,-361.586 355.091,-362.956"/>
<polygon fill="#9a32cd" stroke="#9a32cd" points="156.852,-347.436 146.703,-350.477 156.533,-354.429 156.852,-347.436"/>
<text text-anchor="middle" x="248" y="-362" font-family="Helvetica,sans-Serif" font-size="10.00"> variables</text>
</g>
<!-- Node31 -->
<g id="node31" class="node"><title>Node31</title>
<polygon fill="white" stroke="#bfbfbf" points="46.5,-300.5 46.5,-319.5 127.5,-319.5 127.5,-300.5 46.5,-300.5"/>
<text text-anchor="middle" x="87" y="-307.5" font-family="Helvetica,sans-Serif" font-size="10.00">Dimension2D</text>
</g>
<!-- Node31&#45;&gt;Node9 -->
<g id="edge39" class="edge"><title>Node31&#45;&gt;Node9</title>
<path fill="none" stroke="#9a32cd" stroke-dasharray="5,2" d="M137.902,-314.121C181.937,-318.313 247.692,-325.931 304,-338 327.493,-343.035 353.554,-351.069 372.588,-357.405"/>
<polygon fill="#9a32cd" stroke="#9a32cd" points="138.027,-310.617 127.747,-313.178 137.38,-317.587 138.027,-310.617"/>
<text text-anchor="middle" x="248" y="-341" font-family="Helvetica,sans-Serif" font-size="10.00"> myDimensions</text>
</g>
<!-- Node32&#45;&gt;Node9 -->
<g id="edge40" class="edge"><title>Node32&#45;&gt;Node9</title>
<path fill="none" stroke="#9a32cd" stroke-dasharray="5,2" d="M1396.2,-422.648C1280.6,-417.153 983.793,-405.965 950,-434 919.611,-459.211 961.339,-494.574 932,-521 883.416,-564.762 700.34,-552.729 638,-533 536.275,-500.807 440.45,-407.267 411.128,-376.752"/>
<polygon fill="#9a32cd" stroke="#9a32cd" points="1396.32,-426.158 1406.48,-423.144 1396.66,-419.166 1396.32,-426.158"/>
<text text-anchor="middle" x="1024" y="-437" font-family="Helvetica,sans-Serif" font-size="10.00"> drawer</text>
</g>
<!-- Node33 -->
<g id="node33" class="node"><title>Node33</title>
<polygon fill="white" stroke="#bfbfbf" points="1234.5,-377.5 1234.5,-396.5 1275.5,-396.5 1275.5,-377.5 1234.5,-377.5"/>
<text text-anchor="middle" x="1255" y="-384.5" font-family="Helvetica,sans-Serif" font-size="10.00">Color</text>
</g>
<!-- Node33&#45;&gt;Node32 -->
<g id="edge42" class="edge"><title>Node33&#45;&gt;Node32</title>
<path fill="none" stroke="#9a32cd" stroke-dasharray="5,2" d="M1285.61,-387.102C1312.71,-387.853 1353.67,-390.652 1388,-400 1400.96,-403.529 1414.68,-409.921 1425.05,-415.358"/>
<polygon fill="#9a32cd" stroke="#9a32cd" points="1285.67,-383.602 1275.6,-386.901 1285.53,-390.601 1285.67,-383.602"/>
<text text-anchor="middle" x="1353" y="-403" font-family="Helvetica,sans-Serif" font-size="10.00"> myColor</text>
</g>
<!-- Node34 -->
<g id="node34" class="node"><title>Node34</title>
<polygon fill="white" stroke="#bfbfbf" points="64,-414.5 64,-433.5 110,-433.5 110,-414.5 64,-414.5"/>
<text text-anchor="middle" x="87" y="-421.5" font-family="Helvetica,sans-Serif" font-size="10.00">Group</text>
</g>
<!-- Node34&#45;&gt;Node9 -->
<g id="edge44" class="edge"><title>Node34&#45;&gt;Node9</title>
<path fill="none" stroke="#9a32cd" stroke-dasharray="5,2" d="M120.291,-421.193C162.746,-417.156 239.505,-408.654 304,-395 326.929,-390.146 352.372,-382.625 371.301,-376.599"/>
<polygon fill="#9a32cd" stroke="#9a32cd" points="119.899,-417.715 110.265,-422.124 120.546,-424.685 119.899,-417.715"/>
<text text-anchor="middle" x="248" y="-417" font-family="Helvetica,sans-Serif" font-size="10.00"> lines</text>
</g>
</g>
</svg>
        <g id="navigator" transform="translate(0 0)" fill="#404254">
                <rect fill="#f2f5e9" fill-opacity="0.5" stroke="#606060" stroke-width=".5" x="0" y="0" width="60" height="60"/>
                <use id="zoomplus" xlink:href="#zoomPlus" x="17" y="9" onmousedown="handleZoom(evt,'in')"/>
                <use id="zoomminus" xlink:href="#zoomMin" x="42" y="9" onmousedown="handleZoom(evt,'out')"/>
                <use id="reset" xlink:href="#resetDef" x="30" y="36" onmousedown="handleReset()"/>
                <g id="arrowUp" xlink:href="#dirArrow" transform="translate(30 24)" onmousedown="handlePan(0,-1)">
                  <use xlink:href="#rim" fill="#404040">
                        <set attributeName="fill" to="#808080" begin="arrowUp.mouseover" end="arrowUp.mouseout"/>
                  </use>
                  <path fill="none" stroke="white" stroke-width="1.5" d="M0,-3.0v7 M-2.5,-0.5L0,-3.0L2.5,-0.5"/>
                </g>
                <g id="arrowRight" xlink:href="#dirArrow" transform="rotate(90) translate(36 -43)" onmousedown="handlePan(1,0)">
                  <use xlink:href="#rim" fill="#404040">
                        <set attributeName="fill" to="#808080" begin="arrowRight.mouseover" end="arrowRight.mouseout"/>
                  </use>
                  <path fill="none" stroke="white" stroke-width="1.5" d="M0,-3.0v7 M-2.5,-0.5L0,-3.0L2.5,-0.5"/>
                </g>
                <g id="arrowDown" xlink:href="#dirArrow" transform="rotate(180) translate(-30 -48)" onmousedown="handlePan(0,1)">
                  <use xlink:href="#rim" fill="#404040">
                        <set attributeName="fill" to="#808080" begin="arrowDown.mouseover" end="arrowDown.mouseout"/>
                  </use>
                  <path fill="none" stroke="white" stroke-width="1.5" d="M0,-3.0v7 M-2.5,-0.5L0,-3.0L2.5,-0.5"/>
                </g>
                <g id="arrowLeft" xlink:href="#dirArrow" transform="rotate(270) translate(-36 17)" onmousedown="handlePan(-1,0)">
                  <use xlink:href="#rim" fill="#404040">
                        <set attributeName="fill" to="#808080" begin="arrowLeft.mouseover" end="arrowLeft.mouseout"/>
                  </use>
                  <path fill="none" stroke="white" stroke-width="1.5" d="M0,-3.0v7 M-2.5,-0.5L0,-3.0L2.5,-0.5"/>
                </g>
        </g>
        <svg viewBox="0 0 15 15" width="100%" height="30px" preserveAspectRatio="xMaxYMin meet">
         <g id="arrow_out" transform="scale(0.3 0.3)">
          <a xlink:href="classmodel_1_1instructions_1_1_boolean_instruction__coll__graph_org.svg" target="_base">
           <rect id="button" ry="5" rx="5" y="6" x="6" height="38" width="38"
                fill="#f2f5e9" fill-opacity="0.5" stroke="#606060" stroke-width="1.0"/>
           <path id="arrow"
             d="M 11.500037,31.436501 C 11.940474,20.09759 22.043105,11.32322 32.158766,21.979434 L 37.068811,17.246167 C 37.068811,17.246167 37.088388,32 37.088388,32 L 22.160133,31.978069 C 22.160133,31.978069 26.997745,27.140456 26.997745,27.140456 C 18.528582,18.264221 13.291696,25.230495 11.500037,31.436501 z"
             style="fill:#404040;"/>
          </a>
         </g>
        </svg>
</svg>
