<?xml version="1.0" encoding="UTF-8" standalone="no"?>
<!DOCTYPE svg PUBLIC "-//W3C//DTD SVG 1.1//EN"
 "http://www.w3.org/Graphics/SVG/1.1/DTD/svg11.dtd">
<!-- Generated by graphviz version 2.36.0 (20140111.2315)
 -->
<!-- Title: view.MainView.configureTopMenu Pages: 1 -->
<svg width="1654pt" height="237pt"
 viewBox="0.00 0.00 1654.00 237.00" xmlns="http://www.w3.org/2000/svg" xmlns:xlink="http://www.w3.org/1999/xlink">
<g id="graph0" class="graph" transform="scale(1 1) rotate(0) translate(4 233)">
<title>view.MainView.configureTopMenu</title>
<polygon fill="white" stroke="none" points="-4,4 -4,-233 1650,-233 1650,4 -4,4"/>
<!-- Node1 -->
<g id="node1" class="node"><title>Node1</title>
<polygon fill="#bfbfbf" stroke="black" points="0,-174.5 0,-193.5 172,-193.5 172,-174.5 0,-174.5"/>
<text text-anchor="middle" x="86" y="-181.5" font-family="Helvetica,sans-Serif" font-size="10.00">view.MainView.configureTopMenu</text>
</g>
<!-- Node2 -->
<g id="node2" class="node"><title>Node2</title>
<g id="a_node2"><a xlink:href="../../d1/d75/classview_1_1_main_view.html#aa4922565e9617cd3337f4bee8fab92c1" target="_top" xlink:title="view.MainView.displayPage">
<polygon fill="white" stroke="black" points="208,-193.5 208,-212.5 350,-212.5 350,-193.5 208,-193.5"/>
<text text-anchor="middle" x="279" y="-200.5" font-family="Helvetica,sans-Serif" font-size="10.00">view.MainView.displayPage</text>
</a>
</g>
</g>
<!-- Node1&#45;&gt;Node2 -->
<g id="edge1" class="edge"><title>Node1&#45;&gt;Node2</title>
<path fill="none" stroke="midnightblue" d="M172.166,-192.472C180.653,-193.316 189.25,-194.171 197.685,-195.011"/>
<polygon fill="midnightblue" stroke="midnightblue" points="197.577,-198.517 207.874,-196.024 198.27,-191.551 197.577,-198.517"/>
</g>
<!-- Node4 -->
<g id="node4" class="node"><title>Node4</title>
<g id="a_node4"><a xlink:href="../../d1/d75/classview_1_1_main_view.html#a39a2b399924a553ccd89dd2a2e6ea208" target="_top" xlink:title="view.MainView.newTab">
<polygon fill="white" stroke="black" points="219,-155.5 219,-174.5 339,-174.5 339,-155.5 219,-155.5"/>
<text text-anchor="middle" x="279" y="-162.5" font-family="Helvetica,sans-Serif" font-size="10.00">view.MainView.newTab</text>
</a>
</g>
</g>
<!-- Node1&#45;&gt;Node4 -->
<g id="edge3" class="edge"><title>Node1&#45;&gt;Node4</title>
<path fill="none" stroke="midnightblue" d="M172.166,-175.528C184.323,-174.319 196.705,-173.087 208.514,-171.912"/>
<polygon fill="midnightblue" stroke="midnightblue" points="209.118,-175.369 218.723,-170.897 208.425,-168.404 209.118,-175.369"/>
</g>
<!-- Node3 -->
<g id="node3" class="node"><title>Node3</title>
<g id="a_node3"><a xlink:href="../../d4/de2/classview_1_1_scene_setter.html#a475ae9393b2e2aec0f59ce044b08978c" target="_top" xlink:title="view.SceneSetter.setupScene">
<polygon fill="white" stroke="black" points="386,-193.5 386,-212.5 544,-212.5 544,-193.5 386,-193.5"/>
<text text-anchor="middle" x="465" y="-200.5" font-family="Helvetica,sans-Serif" font-size="10.00">view.SceneSetter.setupScene</text>
</a>
</g>
</g>
<!-- Node2&#45;&gt;Node3 -->
<g id="edge2" class="edge"><title>Node2&#45;&gt;Node3</title>
<path fill="none" stroke="midnightblue" d="M350.087,-203C358.482,-203 367.135,-203 375.744,-203"/>
<polygon fill="midnightblue" stroke="midnightblue" points="375.812,-206.5 385.812,-203 375.812,-199.5 375.812,-206.5"/>
</g>
<!-- Node5 -->
<g id="node5" class="node"><title>Node5</title>
<g id="a_node5"><a xlink:href="../../d6/de7/classview_1_1_s_logo_view.html#ae0050481c9168dd8eeb434d9aa79b047" target="_top" xlink:title="view.SLogoView.configureUI">
<polygon fill="white" stroke="black" points="391.5,-155.5 391.5,-174.5 538.5,-174.5 538.5,-155.5 391.5,-155.5"/>
<text text-anchor="middle" x="465" y="-162.5" font-family="Helvetica,sans-Serif" font-size="10.00">view.SLogoView.configureUI</text>
</a>
</g>
</g>
<!-- Node4&#45;&gt;Node5 -->
<g id="edge4" class="edge"><title>Node4&#45;&gt;Node5</title>
<path fill="none" stroke="midnightblue" d="M339.232,-165C352.589,-165 367.006,-165 381.132,-165"/>
<polygon fill="midnightblue" stroke="midnightblue" points="381.349,-168.5 391.349,-165 381.348,-161.5 381.349,-168.5"/>
</g>
<!-- Node6 -->
<g id="node6" class="node"><title>Node6</title>
<g id="a_node6"><a xlink:href="../../d6/de7/classview_1_1_s_logo_view.html#acaf3f13ffb1cb6bbab33a6560cc80757" target="_top" xlink:title="view.SLogoView.setGridPane\lConstraints">
<polygon fill="white" stroke="black" points="580.5,-199 580.5,-229 731.5,-229 731.5,-199 580.5,-199"/>
<text text-anchor="start" x="588.5" y="-217" font-family="Helvetica,sans-Serif" font-size="10.00">view.SLogoView.setGridPane</text>
<text text-anchor="middle" x="656" y="-206" font-family="Helvetica,sans-Serif" font-size="10.00">Constraints</text>
</a>
</g>
</g>
<!-- Node5&#45;&gt;Node6 -->
<g id="edge5" class="edge"><title>Node5&#45;&gt;Node6</title>
<path fill="none" stroke="midnightblue" d="M506.13,-174.572C518.309,-177.531 531.716,-180.844 544,-184 559.067,-187.871 575.247,-192.165 590.466,-196.266"/>
<polygon fill="midnightblue" stroke="midnightblue" points="589.74,-199.695 600.307,-198.927 591.567,-192.938 589.74,-199.695"/>
</g>
<!-- Node7 -->
<g id="node7" class="node"><title>Node7</title>
<g id="a_node7"><a xlink:href="../../d6/de7/classview_1_1_s_logo_view.html#ad24331990b3afa57006b8af7aaaede2c" target="_top" xlink:title="view.SLogoView.setDefault\lWorkspace">
<polygon fill="white" stroke="black" points="584.5,-150 584.5,-180 727.5,-180 727.5,-150 584.5,-150"/>
<text text-anchor="start" x="592.5" y="-168" font-family="Helvetica,sans-Serif" font-size="10.00">view.SLogoView.setDefault</text>
<text text-anchor="middle" x="656" y="-157" font-family="Helvetica,sans-Serif" font-size="10.00">Workspace</text>
</a>
</g>
</g>
<!-- Node5&#45;&gt;Node7 -->
<g id="edge6" class="edge"><title>Node5&#45;&gt;Node7</title>
<path fill="none" stroke="midnightblue" d="M538.532,-165C550.126,-165 562.187,-165 573.963,-165"/>
<polygon fill="midnightblue" stroke="midnightblue" points="574.22,-168.5 584.22,-165 574.22,-161.5 574.22,-168.5"/>
</g>
<!-- Node10 -->
<g id="node10" class="node"><title>Node10</title>
<g id="a_node10"><a xlink:href="../../d6/de7/classview_1_1_s_logo_view.html#acf432f20e1a7dda7bef97f0619fb0fa5" target="_top" xlink:title="view.SLogoView.configure\lAddTurtlesButton">
<polygon fill="white" stroke="black" points="587.5,-101 587.5,-131 724.5,-131 724.5,-101 587.5,-101"/>
<text text-anchor="start" x="595.5" y="-119" font-family="Helvetica,sans-Serif" font-size="10.00">view.SLogoView.configure</text>
<text text-anchor="middle" x="656" y="-108" font-family="Helvetica,sans-Serif" font-size="10.00">AddTurtlesButton</text>
</a>
</g>
</g>
<!-- Node5&#45;&gt;Node10 -->
<g id="edge9" class="edge"><title>Node5&#45;&gt;Node10</title>
<path fill="none" stroke="midnightblue" d="M502.89,-155.436C526.818,-149.232 558.715,-140.963 587.118,-133.599"/>
<polygon fill="midnightblue" stroke="midnightblue" points="588.199,-136.935 597,-131.037 586.442,-130.159 588.199,-136.935"/>
</g>
<!-- Node8 -->
<g id="node8" class="node"><title>Node8</title>
<g id="a_node8"><a xlink:href="../../da/d64/classview_1_1_workspace.html#a803a12ee4aa6dfb05f7e6e141dadc5e9" target="_top" xlink:title="view.Workspace.getGridWidth">
<polygon fill="white" stroke="black" points="770.5,-187.5 770.5,-206.5 925.5,-206.5 925.5,-187.5 770.5,-187.5"/>
<text text-anchor="middle" x="848" y="-194.5" font-family="Helvetica,sans-Serif" font-size="10.00">view.Workspace.getGridWidth</text>
</a>
</g>
</g>
<!-- Node7&#45;&gt;Node8 -->
<g id="edge7" class="edge"><title>Node7&#45;&gt;Node8</title>
<path fill="none" stroke="midnightblue" d="M727.749,-176.916C745.036,-179.827 763.471,-182.932 780.548,-185.808"/>
<polygon fill="midnightblue" stroke="midnightblue" points="779.985,-189.263 790.428,-187.472 781.148,-182.36 779.985,-189.263"/>
</g>
<!-- Node9 -->
<g id="node9" class="node"><title>Node9</title>
<g id="a_node9"><a xlink:href="../../da/d64/classview_1_1_workspace.html#aafa1f230c037c8ce7686fc2bcfca50f6" target="_top" xlink:title="view.Workspace.getGridHeight">
<polygon fill="white" stroke="black" points="768,-149.5 768,-168.5 928,-168.5 928,-149.5 768,-149.5"/>
<text text-anchor="middle" x="848" y="-156.5" font-family="Helvetica,sans-Serif" font-size="10.00">view.Workspace.getGridHeight</text>
</a>
</g>
</g>
<!-- Node7&#45;&gt;Node9 -->
<g id="edge8" class="edge"><title>Node7&#45;&gt;Node9</title>
<path fill="none" stroke="midnightblue" d="M727.749,-162.766C737.561,-162.456 747.743,-162.134 757.837,-161.816"/>
<polygon fill="midnightblue" stroke="midnightblue" points="758,-165.312 767.885,-161.498 757.779,-158.316 758,-165.312"/>
</g>
<!-- Node11 -->
<g id="node11" class="node"><title>Node11</title>
<g id="a_node11"><a xlink:href="../../da/d64/classview_1_1_workspace.html#a58b943798f78aa9414a854dcd54fa7ae" target="_top" xlink:title="view.Workspace.addTurtle">
<polygon fill="white" stroke="black" points="779.5,-106.5 779.5,-125.5 916.5,-125.5 916.5,-106.5 779.5,-106.5"/>
<text text-anchor="middle" x="848" y="-113.5" font-family="Helvetica,sans-Serif" font-size="10.00">view.Workspace.addTurtle</text>
</a>
</g>
</g>
<!-- Node10&#45;&gt;Node11 -->
<g id="edge10" class="edge"><title>Node10&#45;&gt;Node11</title>
<path fill="none" stroke="midnightblue" d="M724.522,-116C738.995,-116 754.398,-116 769.223,-116"/>
<polygon fill="midnightblue" stroke="midnightblue" points="769.376,-119.5 779.376,-116 769.376,-112.5 769.376,-119.5"/>
</g>
<!-- Node12 -->
<g id="node12" class="node"><title>Node12</title>
<g id="a_node12"><a xlink:href="../../da/d64/classview_1_1_workspace.html#a9eea72f983d5e7ad5af85056d927e380" target="_top" xlink:title="view.Workspace.configure\lTurtleEventHandler">
<polygon fill="white" stroke="black" points="964.5,-101 964.5,-131 1101.5,-131 1101.5,-101 964.5,-101"/>
<text text-anchor="start" x="972.5" y="-119" font-family="Helvetica,sans-Serif" font-size="10.00">view.Workspace.configure</text>
<text text-anchor="middle" x="1033" y="-108" font-family="Helvetica,sans-Serif" font-size="10.00">TurtleEventHandler</text>
</a>
</g>
</g>
<!-- Node11&#45;&gt;Node12 -->
<g id="edge11" class="edge"><title>Node11&#45;&gt;Node12</title>
<path fill="none" stroke="midnightblue" d="M916.623,-116C928.793,-116 941.569,-116 954.005,-116"/>
<polygon fill="midnightblue" stroke="midnightblue" points="954.35,-119.5 964.35,-116 954.35,-112.5 954.35,-119.5"/>
</g>
<!-- Node13 -->
<g id="node13" class="node"><title>Node13</title>
<g id="a_node13"><a xlink:href="../../da/d64/classview_1_1_workspace.html#a16bda9a6a7fe7f8d3d7b09108675f9c4" target="_top" xlink:title="view.Workspace.setActive\lTurtle">
<polygon fill="white" stroke="black" points="1138.5,-79 1138.5,-109 1275.5,-109 1275.5,-79 1138.5,-79"/>
<text text-anchor="start" x="1146.5" y="-97" font-family="Helvetica,sans-Serif" font-size="10.00">view.Workspace.setActive</text>
<text text-anchor="middle" x="1207" y="-86" font-family="Helvetica,sans-Serif" font-size="10.00">Turtle</text>
</a>
</g>
</g>
<!-- Node12&#45;&gt;Node13 -->
<g id="edge12" class="edge"><title>Node12&#45;&gt;Node13</title>
<path fill="none" stroke="midnightblue" d="M1101.98,-107.305C1110.55,-106.209 1119.37,-105.08 1128.08,-103.966"/>
<polygon fill="midnightblue" stroke="midnightblue" points="1128.76,-107.408 1138.23,-102.668 1127.87,-100.465 1128.76,-107.408"/>
</g>
<!-- Node15 -->
<g id="node15" class="node"><title>Node15</title>
<g id="a_node15"><a xlink:href="../../d8/df7/classview_1_1_turtle_view.html#ab5fdc3775e06339f4a68d1b795a81643" target="_top" xlink:title="view.TurtleView.getID">
<polygon fill="white" stroke="black" points="1509,-152.5 1509,-171.5 1623,-171.5 1623,-152.5 1509,-152.5"/>
<text text-anchor="middle" x="1566" y="-159.5" font-family="Helvetica,sans-Serif" font-size="10.00">view.TurtleView.getID</text>
</a>
</g>
</g>
<!-- Node12&#45;&gt;Node15 -->
<g id="edge19" class="edge"><title>Node12&#45;&gt;Node15</title>
<path fill="none" stroke="midnightblue" d="M1101.52,-121.849C1203.87,-130.716 1397.1,-147.455 1498.72,-156.258"/>
<polygon fill="midnightblue" stroke="midnightblue" points="1498.59,-159.76 1508.86,-157.136 1499.19,-152.786 1498.59,-159.76"/>
</g>
<!-- Node14 -->
<g id="node14" class="node"><title>Node14</title>
<g id="a_node14"><a xlink:href="../../d1/dc7/classview_1_1_side_bar.html#a0e6b8bded054449259862ef89afdc74d" target="_top" xlink:title="view.SideBar.updateTurtle\lProperties">
<polygon fill="white" stroke="black" points="1312,-79 1312,-109 1450,-109 1450,-79 1312,-79"/>
<text text-anchor="start" x="1320" y="-97" font-family="Helvetica,sans-Serif" font-size="10.00">view.SideBar.updateTurtle</text>
<text text-anchor="middle" x="1381" y="-86" font-family="Helvetica,sans-Serif" font-size="10.00">Properties</text>
</a>
</g>
</g>
<!-- Node13&#45;&gt;Node14 -->
<g id="edge13" class="edge"><title>Node13&#45;&gt;Node14</title>
<path fill="none" stroke="midnightblue" d="M1275.98,-94C1284.48,-94 1293.23,-94 1301.88,-94"/>
<polygon fill="midnightblue" stroke="midnightblue" points="1301.95,-97.5001 1311.95,-94 1301.95,-90.5001 1301.95,-97.5001"/>
</g>
<!-- Node14&#45;&gt;Node15 -->
<g id="edge14" class="edge"><title>Node14&#45;&gt;Node15</title>
<path fill="none" stroke="midnightblue" d="M1410.03,-109.128C1430.6,-119.747 1459.45,-133.664 1486,-143 1493.12,-145.506 1500.72,-147.794 1508.29,-149.847"/>
<polygon fill="midnightblue" stroke="midnightblue" points="1507.61,-153.287 1518.17,-152.408 1509.37,-146.511 1507.61,-153.287"/>
</g>
<!-- Node16 -->
<g id="node16" class="node"><title>Node16</title>
<g id="a_node16"><a xlink:href="../../d8/df7/classview_1_1_turtle_view.html#afa5ff9ad664f5365e08a1940c99b8a59" target="_top" xlink:title="view.TurtleView.getYCoord">
<polygon fill="white" stroke="black" points="1497.5,-114.5 1497.5,-133.5 1634.5,-133.5 1634.5,-114.5 1497.5,-114.5"/>
<text text-anchor="middle" x="1566" y="-121.5" font-family="Helvetica,sans-Serif" font-size="10.00">view.TurtleView.getYCoord</text>
</a>
</g>
</g>
<!-- Node14&#45;&gt;Node16 -->
<g id="edge15" class="edge"><title>Node14&#45;&gt;Node16</title>
<path fill="none" stroke="midnightblue" d="M1450.14,-105.171C1465.48,-107.685 1481.76,-110.354 1497.09,-112.867"/>
<polygon fill="midnightblue" stroke="midnightblue" points="1496.57,-116.328 1507,-114.492 1497.7,-109.421 1496.57,-116.328"/>
</g>
<!-- Node17 -->
<g id="node17" class="node"><title>Node17</title>
<g id="a_node17"><a xlink:href="../../d8/df7/classview_1_1_turtle_view.html#a5da3d4c9dafb77af0db0c589a72eadc8" target="_top" xlink:title="view.TurtleView.getHeading">
<polygon fill="white" stroke="black" points="1494,-76.5 1494,-95.5 1638,-95.5 1638,-76.5 1494,-76.5"/>
<text text-anchor="middle" x="1566" y="-83.5" font-family="Helvetica,sans-Serif" font-size="10.00">view.TurtleView.getHeading</text>
</a>
</g>
</g>
<!-- Node14&#45;&gt;Node17 -->
<g id="edge16" class="edge"><title>Node14&#45;&gt;Node17</title>
<path fill="none" stroke="midnightblue" d="M1450.14,-91.0211C1461.03,-90.5449 1472.4,-90.0481 1483.56,-89.56"/>
<polygon fill="midnightblue" stroke="midnightblue" points="1483.9,-93.0487 1493.74,-89.1152 1483.6,-86.0554 1483.9,-93.0487"/>
</g>
<!-- Node18 -->
<g id="node18" class="node"><title>Node18</title>
<g id="a_node18"><a xlink:href="../../d8/df7/classview_1_1_turtle_view.html#a85b9acc922cc69f27c79bf13e3356e09" target="_top" xlink:title="view.TurtleView.getPenPosition">
<polygon fill="white" stroke="black" points="1486,-38.5 1486,-57.5 1646,-57.5 1646,-38.5 1486,-38.5"/>
<text text-anchor="middle" x="1566" y="-45.5" font-family="Helvetica,sans-Serif" font-size="10.00">view.TurtleView.getPenPosition</text>
</a>
</g>
</g>
<!-- Node14&#45;&gt;Node18 -->
<g id="edge17" class="edge"><title>Node14&#45;&gt;Node18</title>
<path fill="none" stroke="midnightblue" d="M1439.17,-78.9607C1454.38,-75.0145 1470.8,-70.801 1486,-67 1495.34,-64.6635 1505.32,-62.2218 1514.94,-59.8971"/>
<polygon fill="midnightblue" stroke="midnightblue" points="1515.87,-63.2712 1524.78,-57.5262 1514.23,-56.4659 1515.87,-63.2712"/>
</g>
<!-- Node19 -->
<g id="node19" class="node"><title>Node19</title>
<g id="a_node19"><a xlink:href="../../d8/df7/classview_1_1_turtle_view.html#a5f7b22cd8ab69258535b18920a488b63" target="_top" xlink:title="view.TurtleView.isShowing">
<polygon fill="white" stroke="black" points="1498,-0.5 1498,-19.5 1634,-19.5 1634,-0.5 1498,-0.5"/>
<text text-anchor="middle" x="1566" y="-7.5" font-family="Helvetica,sans-Serif" font-size="10.00">view.TurtleView.isShowing</text>
</a>
</g>
</g>
<!-- Node14&#45;&gt;Node19 -->
<g id="edge18" class="edge"><title>Node14&#45;&gt;Node19</title>
<path fill="none" stroke="midnightblue" d="M1401.65,-78.9947C1421.81,-64.2771 1454.59,-42.182 1486,-29 1491.89,-26.5284 1498.17,-24.3367 1504.51,-22.4032"/>
<polygon fill="midnightblue" stroke="midnightblue" points="1505.82,-25.6693 1514.49,-19.5743 1503.92,-18.9347 1505.82,-25.6693"/>
</g>
</g>
</svg>
