<?xml version="1.0" encoding="UTF-8" standalone="no"?>
<!DOCTYPE svg PUBLIC "-//W3C//DTD SVG 1.1//EN"
 "http://www.w3.org/Graphics/SVG/1.1/DTD/svg11.dtd">
<!-- Generated by graphviz version 2.36.0 (20140111.2315)
 -->
<!-- Title: view.MainView.configureTopMenu Pages: 1 -->
<!--zoomable 223 -->
<svg id="main" version="1.1" xmlns="http://www.w3.org/2000/svg" xmlns:xlink="http://www.w3.org/1999/xlink" xml:space="preserve" onload="init(evt)">
<style type="text/css"><![CDATA[
.edge:hover path { stroke: red; }
.edge:hover polygon { stroke: red; fill: red; }
]]></style>
<script type="text/javascript"><![CDATA[
var edges = document.getElementsByTagName('g');
if (edges && edges.length) {
  for (var i=0;i<edges.length;i++) {
    if (edges[i].id.substr(0,4)=='edge') {
      edges[i].setAttribute('class','edge');
    }
  }
}
]]></script>
        <defs>
                <circle id="rim" cx="0" cy="0" r="7"/>
                <circle id="rim2" cx="0" cy="0" r="3.5"/>
                <g id="zoomPlus">
                        <use xlink:href="#rim" fill="#404040">
                                <set attributeName="fill" to="#808080" begin="zoomplus.mouseover" end="zoomplus.mouseout"/>
                        </use>
                        <path d="M-4,0h8M0,-4v8" fill="none" stroke="white" stroke-width="1.5" pointer-events="none"/>
                </g>
                <g id="zoomMin">
                        <use xlink:href="#rim" fill="#404040">
                                <set attributeName="fill" to="#808080" begin="zoomminus.mouseover" end="zoomminus.mouseout"/>
                        </use>
                        <path d="M-4,0h8" fill="none" stroke="white" stroke-width="1.5" pointer-events="none"/>
                </g>
                <g id="dirArrow">
                        <path fill="none" stroke="white" stroke-width="1.5" d="M0,-3.0v7 M-2.5,-0.5L0,-3.0L2.5,-0.5"/>
                </g>
               <g id="resetDef">
                       <use xlink:href="#rim2" fill="#404040">
                               <set attributeName="fill" to="#808080" begin="reset.mouseover" end="reset.mouseout"/>
                       </use>
               </g>
        </defs>

<script type="text/javascript">
var viewWidth = 1938;
var viewHeight = 223;
var sectionId = 'dynsection-6';
</script>
<script xlink:href="../../svgpan.js"/>
<svg id="graph" class="graph">
<g id="viewport">
<title>view.MainView.configureTopMenu</title>
<polygon fill="white" stroke="none" points="-4,4 -4,-219 1934,-219 1934,4 -4,4"/>
<!-- Node1 -->
<g id="node1" class="node"><title>Node1</title>
<polygon fill="#bfbfbf" stroke="black" points="0,-59.5 0,-78.5 172,-78.5 172,-59.5 0,-59.5"/>
<text text-anchor="middle" x="86" y="-66.5" font-family="Helvetica,sans-Serif" font-size="10.00">view.MainView.configureTopMenu</text>
</g>
<!-- Node2 -->
<g id="node2" class="node"><title>Node2</title>
<g id="a_node2"><a xlink:href="../../d1/d75/classview_1_1_main_view.html#a0424800b5057be73f94e16ef2e1e2b33" target="_top" xlink:title="view.MainView.configureFileMenu">
<polygon fill="white" stroke="black" points="209.5,-78.5 209.5,-97.5 380.5,-97.5 380.5,-78.5 209.5,-78.5"/>
<text text-anchor="middle" x="295" y="-85.5" font-family="Helvetica,sans-Serif" font-size="10.00">view.MainView.configureFileMenu</text>
</a>
</g>
</g>
<!-- Node1&#45;&gt;Node2 -->
<g id="edge1" class="edge"><title>Node1&#45;&gt;Node2</title>
<path fill="none" stroke="midnightblue" d="M172.091,-76.8103C181.003,-77.6283 190.103,-78.4636 199.116,-79.2908"/>
<polygon fill="midnightblue" stroke="midnightblue" points="198.961,-82.7913 209.239,-80.22 199.601,-75.8206 198.961,-82.7913"/>
</g>
<!-- Node18 -->
<g id="node18" class="node"><title>Node18</title>
<g id="a_node18"><a xlink:href="../../d1/d75/classview_1_1_main_view.html#a832cf4e9dcfd7b29cf57405cca488493" target="_top" xlink:title="view.MainView.configureInfoMenu">
<polygon fill="white" stroke="black" points="208.5,-40.5 208.5,-59.5 381.5,-59.5 381.5,-40.5 208.5,-40.5"/>
<text text-anchor="middle" x="295" y="-47.5" font-family="Helvetica,sans-Serif" font-size="10.00">view.MainView.configureInfoMenu</text>
</a>
</g>
</g>
<!-- Node1&#45;&gt;Node18 -->
<g id="edge19" class="edge"><title>Node1&#45;&gt;Node18</title>
<path fill="none" stroke="midnightblue" d="M172.091,-61.1897C180.667,-60.4026 189.417,-59.5994 198.095,-58.8028"/>
<polygon fill="midnightblue" stroke="midnightblue" points="198.597,-62.2716 208.236,-57.8721 197.957,-55.3009 198.597,-62.2716"/>
</g>
<!-- Node3 -->
<g id="node3" class="node"><title>Node3</title>
<g id="a_node3"><a xlink:href="../../d1/d75/classview_1_1_main_view.html#a39a2b399924a553ccd89dd2a2e6ea208" target="_top" xlink:title="view.MainView.newTab">
<polygon fill="white" stroke="black" points="429,-78.5 429,-97.5 549,-97.5 549,-78.5 429,-78.5"/>
<text text-anchor="middle" x="489" y="-85.5" font-family="Helvetica,sans-Serif" font-size="10.00">view.MainView.newTab</text>
</a>
</g>
</g>
<!-- Node2&#45;&gt;Node3 -->
<g id="edge2" class="edge"><title>Node2&#45;&gt;Node3</title>
<path fill="none" stroke="midnightblue" d="M380.773,-88C393.487,-88 406.467,-88 418.806,-88"/>
<polygon fill="midnightblue" stroke="midnightblue" points="418.999,-91.5001 428.999,-88 418.999,-84.5001 418.999,-91.5001"/>
</g>
<!-- Node4 -->
<g id="node4" class="node"><title>Node4</title>
<g id="a_node4"><a xlink:href="../../d6/de7/classview_1_1_s_logo_view.html#ae0050481c9168dd8eeb434d9aa79b047" target="_top" xlink:title="view.SLogoView.configureUI">
<polygon fill="white" stroke="black" points="601.5,-78.5 601.5,-97.5 748.5,-97.5 748.5,-78.5 601.5,-78.5"/>
<text text-anchor="middle" x="675" y="-85.5" font-family="Helvetica,sans-Serif" font-size="10.00">view.SLogoView.configureUI</text>
</a>
</g>
</g>
<!-- Node3&#45;&gt;Node4 -->
<g id="edge3" class="edge"><title>Node3&#45;&gt;Node4</title>
<path fill="none" stroke="midnightblue" d="M549.232,-88C562.589,-88 577.006,-88 591.132,-88"/>
<polygon fill="midnightblue" stroke="midnightblue" points="591.349,-91.5001 601.349,-88 591.348,-84.5001 591.349,-91.5001"/>
</g>
<!-- Node5 -->
<g id="node5" class="node"><title>Node5</title>
<g id="a_node5"><a xlink:href="../../d6/de7/classview_1_1_s_logo_view.html#acaf3f13ffb1cb6bbab33a6560cc80757" target="_top" xlink:title="view.SLogoView.setGridPane\lConstraints">
<polygon fill="white" stroke="black" points="790.5,-98 790.5,-128 941.5,-128 941.5,-98 790.5,-98"/>
<text text-anchor="start" x="798.5" y="-116" font-family="Helvetica,sans-Serif" font-size="10.00">view.SLogoView.setGridPane</text>
<text text-anchor="middle" x="866" y="-105" font-family="Helvetica,sans-Serif" font-size="10.00">Constraints</text>
</a>
</g>
</g>
<!-- Node4&#45;&gt;Node5 -->
<g id="edge4" class="edge"><title>Node4&#45;&gt;Node5</title>
<path fill="none" stroke="midnightblue" d="M747.992,-97.5227C758.506,-98.9135 769.415,-100.356 780.156,-101.777"/>
<polygon fill="midnightblue" stroke="midnightblue" points="780.011,-105.288 790.384,-103.13 780.929,-98.3489 780.011,-105.288"/>
</g>
<!-- Node6 -->
<g id="node6" class="node"><title>Node6</title>
<g id="a_node6"><a xlink:href="../../d6/de7/classview_1_1_s_logo_view.html#acf432f20e1a7dda7bef97f0619fb0fa5" target="_top" xlink:title="view.SLogoView.configure\lAddTurtlesButton">
<polygon fill="white" stroke="black" points="797.5,-49 797.5,-79 934.5,-79 934.5,-49 797.5,-49"/>
<text text-anchor="start" x="805.5" y="-67" font-family="Helvetica,sans-Serif" font-size="10.00">view.SLogoView.configure</text>
<text text-anchor="middle" x="866" y="-56" font-family="Helvetica,sans-Serif" font-size="10.00">AddTurtlesButton</text>
</a>
</g>
</g>
<!-- Node4&#45;&gt;Node6 -->
<g id="edge5" class="edge"><title>Node4&#45;&gt;Node6</title>
<path fill="none" stroke="midnightblue" d="M748.532,-78.7896C761.182,-77.1833 774.387,-75.5064 787.172,-73.8829"/>
<polygon fill="midnightblue" stroke="midnightblue" points="787.838,-77.3266 797.317,-72.5946 786.956,-70.3823 787.838,-77.3266"/>
</g>
<!-- Node7 -->
<g id="node7" class="node"><title>Node7</title>
<g id="a_node7"><a xlink:href="../../da/d64/classview_1_1_workspace.html#a4abde41a3048fa8f64ddfec40c8ffdb7" target="_top" xlink:title="view.Workspace.addTurtle">
<polygon fill="white" stroke="black" points="978.5,-54.5 978.5,-73.5 1115.5,-73.5 1115.5,-54.5 978.5,-54.5"/>
<text text-anchor="middle" x="1047" y="-61.5" font-family="Helvetica,sans-Serif" font-size="10.00">view.Workspace.addTurtle</text>
</a>
</g>
</g>
<!-- Node6&#45;&gt;Node7 -->
<g id="edge6" class="edge"><title>Node6&#45;&gt;Node7</title>
<path fill="none" stroke="midnightblue" d="M934.672,-64C945.587,-64 956.964,-64 968.097,-64"/>
<polygon fill="midnightblue" stroke="midnightblue" points="968.232,-67.5001 978.232,-64 968.232,-60.5001 968.232,-67.5001"/>
</g>
<!-- Node8 -->
<g id="node8" class="node"><title>Node8</title>
<g id="a_node8"><a xlink:href="../../da/d64/classview_1_1_workspace.html#a9eea72f983d5e7ad5af85056d927e380" target="_top" xlink:title="view.Workspace.configure\lTurtleEventHandler">
<polygon fill="white" stroke="black" points="1172.5,-98 1172.5,-128 1309.5,-128 1309.5,-98 1172.5,-98"/>
<text text-anchor="start" x="1180.5" y="-116" font-family="Helvetica,sans-Serif" font-size="10.00">view.Workspace.configure</text>
<text text-anchor="middle" x="1241" y="-105" font-family="Helvetica,sans-Serif" font-size="10.00">TurtleEventHandler</text>
</a>
</g>
</g>
<!-- Node7&#45;&gt;Node8 -->
<g id="edge7" class="edge"><title>Node7&#45;&gt;Node8</title>
<path fill="none" stroke="midnightblue" d="M1085.48,-73.564C1109.78,-79.7676 1142.19,-88.0371 1171.04,-95.401"/>
<polygon fill="midnightblue" stroke="midnightblue" points="1170.52,-98.8814 1181.08,-97.963 1172.26,-92.0988 1170.52,-98.8814"/>
</g>
<!-- Node15 -->
<g id="node15" class="node"><title>Node15</title>
<g id="a_node15"><a xlink:href="../../d1/dca/classmodel_1_1_execution_environment.html#a96986e0e8de018fd9b1b2bf79de862e1" target="_top" xlink:title="model.ExecutionEnvironment.add\lTurtle">
<polygon fill="white" stroke="black" points="1152,-49 1152,-79 1330,-79 1330,-49 1152,-49"/>
<text text-anchor="start" x="1160" y="-67" font-family="Helvetica,sans-Serif" font-size="10.00">model.ExecutionEnvironment.add</text>
<text text-anchor="middle" x="1241" y="-56" font-family="Helvetica,sans-Serif" font-size="10.00">Turtle</text>
</a>
</g>
</g>
<!-- Node7&#45;&gt;Node15 -->
<g id="edge15" class="edge"><title>Node7&#45;&gt;Node15</title>
<path fill="none" stroke="midnightblue" d="M1115.69,-64C1124.07,-64 1132.77,-64 1141.49,-64"/>
<polygon fill="midnightblue" stroke="midnightblue" points="1141.73,-67.5001 1151.73,-64 1141.73,-60.5001 1141.73,-67.5001"/>
</g>
<!-- Node17 -->
<g id="node17" class="node"><title>Node17</title>
<g id="a_node17"><a xlink:href="../../d1/dca/classmodel_1_1_execution_environment.html#a472ef4da5205b0e95ec51fdbf52f654a" target="_top" xlink:title="model.ExecutionEnvironment.set\lActiveTurtle">
<polygon fill="white" stroke="black" points="1153.5,-0 1153.5,-30 1328.5,-30 1328.5,-0 1153.5,-0"/>
<text text-anchor="start" x="1161.5" y="-18" font-family="Helvetica,sans-Serif" font-size="10.00">model.ExecutionEnvironment.set</text>
<text text-anchor="middle" x="1241" y="-7" font-family="Helvetica,sans-Serif" font-size="10.00">ActiveTurtle</text>
</a>
</g>
</g>
<!-- Node7&#45;&gt;Node17 -->
<g id="edge17" class="edge"><title>Node7&#45;&gt;Node17</title>
<path fill="none" stroke="midnightblue" d="M1085.48,-54.436C1109.78,-48.2324 1142.19,-39.9629 1171.04,-32.599"/>
<polygon fill="midnightblue" stroke="midnightblue" points="1172.26,-35.9012 1181.08,-30.037 1170.52,-29.1186 1172.26,-35.9012"/>
</g>
<!-- Node9 -->
<g id="node9" class="node"><title>Node9</title>
<g id="a_node9"><a xlink:href="../../da/d64/classview_1_1_workspace.html#a16bda9a6a7fe7f8d3d7b09108675f9c4" target="_top" xlink:title="view.Workspace.setActive\lTurtle">
<polygon fill="white" stroke="black" points="1394.5,-120 1394.5,-150 1531.5,-150 1531.5,-120 1394.5,-120"/>
<text text-anchor="start" x="1402.5" y="-138" font-family="Helvetica,sans-Serif" font-size="10.00">view.Workspace.setActive</text>
<text text-anchor="middle" x="1463" y="-127" font-family="Helvetica,sans-Serif" font-size="10.00">Turtle</text>
</a>
</g>
</g>
<!-- Node8&#45;&gt;Node9 -->
<g id="edge8" class="edge"><title>Node8&#45;&gt;Node9</title>
<path fill="none" stroke="midnightblue" d="M1309.5,-119.75C1333.04,-122.104 1359.65,-124.765 1383.98,-127.198"/>
<polygon fill="midnightblue" stroke="midnightblue" points="1383.95,-130.712 1394.25,-128.225 1384.64,-123.747 1383.95,-130.712"/>
</g>
<!-- Node12 -->
<g id="node12" class="node"><title>Node12</title>
<g id="a_node12"><a xlink:href="../../d8/df7/classview_1_1_turtle_view.html#ab5fdc3775e06339f4a68d1b795a81643" target="_top" xlink:title="view.TurtleView.getID">
<polygon fill="white" stroke="black" points="1793,-81.5 1793,-100.5 1907,-100.5 1907,-81.5 1793,-81.5"/>
<text text-anchor="middle" x="1850" y="-88.5" font-family="Helvetica,sans-Serif" font-size="10.00">view.TurtleView.getID</text>
</a>
</g>
</g>
<!-- Node8&#45;&gt;Node12 -->
<g id="edge14" class="edge"><title>Node8&#45;&gt;Node12</title>
<path fill="none" stroke="midnightblue" d="M1309.57,-110.551C1426.71,-106.305 1666.07,-97.63 1782.48,-93.4111"/>
<polygon fill="midnightblue" stroke="midnightblue" points="1782.81,-96.9015 1792.67,-93.0415 1782.55,-89.9061 1782.81,-96.9015"/>
</g>
<!-- Node10 -->
<g id="node10" class="node"><title>Node10</title>
<g id="a_node10"><a xlink:href="../../d1/dc7/classview_1_1_side_bar.html#a7d73038dbba05f96990b60664afa2670" target="_top" xlink:title="view.SideBar.updateTurtle\lProperties">
<polygon fill="white" stroke="black" points="1596,-120 1596,-150 1734,-150 1734,-120 1596,-120"/>
<text text-anchor="start" x="1604" y="-138" font-family="Helvetica,sans-Serif" font-size="10.00">view.SideBar.updateTurtle</text>
<text text-anchor="middle" x="1665" y="-127" font-family="Helvetica,sans-Serif" font-size="10.00">Properties</text>
</a>
</g>
</g>
<!-- Node9&#45;&gt;Node10 -->
<g id="edge9" class="edge"><title>Node9&#45;&gt;Node10</title>
<path fill="none" stroke="midnightblue" d="M1531.71,-135C1548.95,-135 1567.63,-135 1585.36,-135"/>
<polygon fill="midnightblue" stroke="midnightblue" points="1585.68,-138.5 1595.68,-135 1585.68,-131.5 1585.68,-138.5"/>
</g>
<!-- Node11 -->
<g id="node11" class="node"><title>Node11</title>
<g id="a_node11"><a xlink:href="../../da/d64/classview_1_1_workspace.html#ad460da1164f039e5ea9a265d446d13fe" target="_top" xlink:title="view.Workspace.getTurtleMap">
<polygon fill="white" stroke="black" points="1772.5,-195.5 1772.5,-214.5 1927.5,-214.5 1927.5,-195.5 1772.5,-195.5"/>
<text text-anchor="middle" x="1850" y="-202.5" font-family="Helvetica,sans-Serif" font-size="10.00">view.Workspace.getTurtleMap</text>
</a>
</g>
</g>
<!-- Node10&#45;&gt;Node11 -->
<g id="edge10" class="edge"><title>Node10&#45;&gt;Node11</title>
<path fill="none" stroke="midnightblue" d="M1692.66,-150.105C1713.26,-161.271 1742.76,-176.18 1770,-186 1777.01,-188.528 1784.5,-190.822 1791.96,-192.87"/>
<polygon fill="midnightblue" stroke="midnightblue" points="1791.15,-196.277 1801.71,-195.422 1792.92,-189.505 1791.15,-196.277"/>
</g>
<!-- Node10&#45;&gt;Node12 -->
<g id="edge11" class="edge"><title>Node10&#45;&gt;Node12</title>
<path fill="none" stroke="midnightblue" d="M1728.47,-119.981C1751.72,-114.389 1777.77,-108.126 1799.68,-102.857"/>
<polygon fill="midnightblue" stroke="midnightblue" points="1800.53,-106.253 1809.44,-100.512 1798.9,-99.4472 1800.53,-106.253"/>
</g>
<!-- Node13 -->
<g id="node13" class="node"><title>Node13</title>
<g id="a_node13"><a xlink:href="../../d8/df7/classview_1_1_turtle_view.html#a85b9acc922cc69f27c79bf13e3356e09" target="_top" xlink:title="view.TurtleView.getPenPosition">
<polygon fill="white" stroke="black" points="1770,-157.5 1770,-176.5 1930,-176.5 1930,-157.5 1770,-157.5"/>
<text text-anchor="middle" x="1850" y="-164.5" font-family="Helvetica,sans-Serif" font-size="10.00">view.TurtleView.getPenPosition</text>
</a>
</g>
</g>
<!-- Node10&#45;&gt;Node13 -->
<g id="edge12" class="edge"><title>Node10&#45;&gt;Node13</title>
<path fill="none" stroke="midnightblue" d="M1734.14,-146.916C1750.64,-149.8 1768.22,-152.874 1784.54,-155.727"/>
<polygon fill="midnightblue" stroke="midnightblue" points="1784.06,-159.197 1794.51,-157.472 1785.26,-152.302 1784.06,-159.197"/>
</g>
<!-- Node14 -->
<g id="node14" class="node"><title>Node14</title>
<g id="a_node14"><a xlink:href="../../d8/df7/classview_1_1_turtle_view.html#a5f7b22cd8ab69258535b18920a488b63" target="_top" xlink:title="view.TurtleView.isShowing">
<polygon fill="white" stroke="black" points="1782,-119.5 1782,-138.5 1918,-138.5 1918,-119.5 1782,-119.5"/>
<text text-anchor="middle" x="1850" y="-126.5" font-family="Helvetica,sans-Serif" font-size="10.00">view.TurtleView.isShowing</text>
</a>
</g>
</g>
<!-- Node10&#45;&gt;Node14 -->
<g id="edge13" class="edge"><title>Node10&#45;&gt;Node14</title>
<path fill="none" stroke="midnightblue" d="M1734.14,-132.766C1746.29,-132.368 1759.02,-131.95 1771.41,-131.544"/>
<polygon fill="midnightblue" stroke="midnightblue" points="1771.83,-135.032 1781.71,-131.206 1771.6,-128.036 1771.83,-135.032"/>
</g>
<!-- Node16 -->
<g id="node16" class="node"><title>Node16</title>
<g id="a_node16"><a xlink:href="../../d1/dca/classmodel_1_1_execution_environment.html#a93fd01341f06dfa81727344b120aef66" target="_top" xlink:title="model.ExecutionEnvironment.update\lObserver">
<polygon fill="white" stroke="black" points="1366,-27 1366,-57 1560,-57 1560,-27 1366,-27"/>
<text text-anchor="start" x="1374" y="-45" font-family="Helvetica,sans-Serif" font-size="10.00">model.ExecutionEnvironment.update</text>
<text text-anchor="middle" x="1463" y="-34" font-family="Helvetica,sans-Serif" font-size="10.00">Observer</text>
</a>
</g>
</g>
<!-- Node15&#45;&gt;Node16 -->
<g id="edge16" class="edge"><title>Node15&#45;&gt;Node16</title>
<path fill="none" stroke="midnightblue" d="M1330.21,-55.1785C1338.64,-54.3365 1347.23,-53.4767 1355.8,-52.62"/>
<polygon fill="midnightblue" stroke="midnightblue" points="1356.23,-56.0948 1365.83,-51.617 1355.53,-49.1295 1356.23,-56.0948"/>
</g>
<!-- Node17&#45;&gt;Node16 -->
<g id="edge18" class="edge"><title>Node17&#45;&gt;Node16</title>
<path fill="none" stroke="midnightblue" d="M1328.63,-25.6324C1337.64,-26.7378 1346.87,-27.87 1356.06,-28.9977"/>
<polygon fill="midnightblue" stroke="midnightblue" points="1355.65,-32.4737 1366,-30.218 1356.5,-25.5258 1355.65,-32.4737"/>
</g>
<!-- Node19 -->
<g id="node19" class="node"><title>Node19</title>
<g id="a_node19"><a xlink:href="../../d1/d75/classview_1_1_main_view.html#aa4922565e9617cd3337f4bee8fab92c1" target="_top" xlink:title="view.MainView.displayPage">
<polygon fill="white" stroke="black" points="418,-40.5 418,-59.5 560,-59.5 560,-40.5 418,-40.5"/>
<text text-anchor="middle" x="489" y="-47.5" font-family="Helvetica,sans-Serif" font-size="10.00">view.MainView.displayPage</text>
</a>
</g>
</g>
<!-- Node18&#45;&gt;Node19 -->
<g id="edge20" class="edge"><title>Node18&#45;&gt;Node19</title>
<path fill="none" stroke="midnightblue" d="M381.612,-50C390.309,-50 399.121,-50 407.758,-50"/>
<polygon fill="midnightblue" stroke="midnightblue" points="407.799,-53.5001 417.799,-50 407.799,-46.5001 407.799,-53.5001"/>
</g>
<!-- Node20 -->
<g id="node20" class="node"><title>Node20</title>
<g id="a_node20"><a xlink:href="../../d4/de2/classview_1_1_scene_setter.html#a475ae9393b2e2aec0f59ce044b08978c" target="_top" xlink:title="view.SceneSetter.setupScene">
<polygon fill="white" stroke="black" points="596,-40.5 596,-59.5 754,-59.5 754,-40.5 596,-40.5"/>
<text text-anchor="middle" x="675" y="-47.5" font-family="Helvetica,sans-Serif" font-size="10.00">view.SceneSetter.setupScene</text>
</a>
</g>
</g>
<!-- Node19&#45;&gt;Node20 -->
<g id="edge21" class="edge"><title>Node19&#45;&gt;Node20</title>
<path fill="none" stroke="midnightblue" d="M560.087,-50C568.482,-50 577.135,-50 585.744,-50"/>
<polygon fill="midnightblue" stroke="midnightblue" points="585.812,-53.5001 595.812,-50 585.812,-46.5001 585.812,-53.5001"/>
</g>
</g>
</svg>
        <g id="navigator" transform="translate(0 0)" fill="#404254">
                <rect fill="#f2f5e9" fill-opacity="0.5" stroke="#606060" stroke-width=".5" x="0" y="0" width="60" height="60"/>
                <use id="zoomplus" xlink:href="#zoomPlus" x="17" y="9" onmousedown="handleZoom(evt,'in')"/>
                <use id="zoomminus" xlink:href="#zoomMin" x="42" y="9" onmousedown="handleZoom(evt,'out')"/>
                <use id="reset" xlink:href="#resetDef" x="30" y="36" onmousedown="handleReset()"/>
                <g id="arrowUp" xlink:href="#dirArrow" transform="translate(30 24)" onmousedown="handlePan(0,-1)">
                  <use xlink:href="#rim" fill="#404040">
                        <set attributeName="fill" to="#808080" begin="arrowUp.mouseover" end="arrowUp.mouseout"/>
                  </use>
                  <path fill="none" stroke="white" stroke-width="1.5" d="M0,-3.0v7 M-2.5,-0.5L0,-3.0L2.5,-0.5"/>
                </g>
                <g id="arrowRight" xlink:href="#dirArrow" transform="rotate(90) translate(36 -43)" onmousedown="handlePan(1,0)">
                  <use xlink:href="#rim" fill="#404040">
                        <set attributeName="fill" to="#808080" begin="arrowRight.mouseover" end="arrowRight.mouseout"/>
                  </use>
                  <path fill="none" stroke="white" stroke-width="1.5" d="M0,-3.0v7 M-2.5,-0.5L0,-3.0L2.5,-0.5"/>
                </g>
                <g id="arrowDown" xlink:href="#dirArrow" transform="rotate(180) translate(-30 -48)" onmousedown="handlePan(0,1)">
                  <use xlink:href="#rim" fill="#404040">
                        <set attributeName="fill" to="#808080" begin="arrowDown.mouseover" end="arrowDown.mouseout"/>
                  </use>
                  <path fill="none" stroke="white" stroke-width="1.5" d="M0,-3.0v7 M-2.5,-0.5L0,-3.0L2.5,-0.5"/>
                </g>
                <g id="arrowLeft" xlink:href="#dirArrow" transform="rotate(270) translate(-36 17)" onmousedown="handlePan(-1,0)">
                  <use xlink:href="#rim" fill="#404040">
                        <set attributeName="fill" to="#808080" begin="arrowLeft.mouseover" end="arrowLeft.mouseout"/>
                  </use>
                  <path fill="none" stroke="white" stroke-width="1.5" d="M0,-3.0v7 M-2.5,-0.5L0,-3.0L2.5,-0.5"/>
                </g>
        </g>
        <svg viewBox="0 0 15 15" width="100%" height="30px" preserveAspectRatio="xMaxYMin meet">
         <g id="arrow_out" transform="scale(0.3 0.3)">
          <a xlink:href="classview_1_1_main_view_a200c2c8e08e038e2ea86acc40c17d8d2_cgraph_org.svg" target="_base">
           <rect id="button" ry="5" rx="5" y="6" x="6" height="38" width="38"
                fill="#f2f5e9" fill-opacity="0.5" stroke="#606060" stroke-width="1.0"/>
           <path id="arrow"
             d="M 11.500037,31.436501 C 11.940474,20.09759 22.043105,11.32322 32.158766,21.979434 L 37.068811,17.246167 C 37.068811,17.246167 37.088388,32 37.088388,32 L 22.160133,31.978069 C 22.160133,31.978069 26.997745,27.140456 26.997745,27.140456 C 18.528582,18.264221 13.291696,25.230495 11.500037,31.436501 z"
             style="fill:#404040;"/>
          </a>
         </g>
        </svg>
</svg>
