<?xml version="1.0" encoding="UTF-8" standalone="no"?>
<!DOCTYPE svg PUBLIC "-//W3C//DTD SVG 1.1//EN"
 "http://www.w3.org/Graphics/SVG/1.1/DTD/svg11.dtd">
<!-- Generated by graphviz version 2.36.0 (20140111.2315)
 -->
<!-- Title: view.MainView.MainView Pages: 1 -->
<!--zoomable 217 -->
<svg id="main" version="1.1" xmlns="http://www.w3.org/2000/svg" xmlns:xlink="http://www.w3.org/1999/xlink" xml:space="preserve" onload="init(evt)">
<style type="text/css"><![CDATA[
.edge:hover path { stroke: red; }
.edge:hover polygon { stroke: red; fill: red; }
]]></style>
<script type="text/javascript"><![CDATA[
var edges = document.getElementsByTagName('g');
if (edges && edges.length) {
  for (var i=0;i<edges.length;i++) {
    if (edges[i].id.substr(0,4)=='edge') {
      edges[i].setAttribute('class','edge');
    }
  }
}
]]></script>
        <defs>
                <circle id="rim" cx="0" cy="0" r="7"/>
                <circle id="rim2" cx="0" cy="0" r="3.5"/>
                <g id="zoomPlus">
                        <use xlink:href="#rim" fill="#404040">
                                <set attributeName="fill" to="#808080" begin="zoomplus.mouseover" end="zoomplus.mouseout"/>
                        </use>
                        <path d="M-4,0h8M0,-4v8" fill="none" stroke="white" stroke-width="1.5" pointer-events="none"/>
                </g>
                <g id="zoomMin">
                        <use xlink:href="#rim" fill="#404040">
                                <set attributeName="fill" to="#808080" begin="zoomminus.mouseover" end="zoomminus.mouseout"/>
                        </use>
                        <path d="M-4,0h8" fill="none" stroke="white" stroke-width="1.5" pointer-events="none"/>
                </g>
                <g id="dirArrow">
                        <path fill="none" stroke="white" stroke-width="1.5" d="M0,-3.0v7 M-2.5,-0.5L0,-3.0L2.5,-0.5"/>
                </g>
               <g id="resetDef">
                       <use xlink:href="#rim2" fill="#404040">
                               <set attributeName="fill" to="#808080" begin="reset.mouseover" end="reset.mouseout"/>
                       </use>
               </g>
        </defs>

<script type="text/javascript">
var viewWidth = 1806;
var viewHeight = 217;
var sectionId = 'dynsection-1';
</script>
<script xlink:href="../../svgpan.js"/>
<svg id="graph" class="graph">
<g id="viewport">
<title>view.MainView.MainView</title>
<polygon fill="white" stroke="none" points="-4,4 -4,-213 1802,-213 1802,4 -4,4"/>
<!-- Node1 -->
<g id="node1" class="node"><title>Node1</title>
<polygon fill="#bfbfbf" stroke="black" points="0,-64.5 0,-83.5 130,-83.5 130,-64.5 0,-64.5"/>
<text text-anchor="middle" x="65" y="-71.5" font-family="Helvetica,sans-Serif" font-size="10.00">view.MainView.MainView</text>
</g>
<!-- Node2 -->
<g id="node2" class="node"><title>Node2</title>
<g id="a_node2"><a xlink:href="../../d1/d75/classview_1_1_main_view.html#a200c2c8e08e038e2ea86acc40c17d8d2" target="_top" xlink:title="view.MainView.configureTopMenu">
<polygon fill="white" stroke="black" points="166,-83.5 166,-102.5 338,-102.5 338,-83.5 166,-83.5"/>
<text text-anchor="middle" x="252" y="-90.5" font-family="Helvetica,sans-Serif" font-size="10.00">view.MainView.configureTopMenu</text>
</a>
</g>
</g>
<!-- Node1&#45;&gt;Node2 -->
<g id="edge1" class="edge"><title>Node1&#45;&gt;Node2</title>
<path fill="none" stroke="midnightblue" d="M130.185,-80.592C138.436,-81.4394 147.019,-82.3209 155.636,-83.2059"/>
<polygon fill="midnightblue" stroke="midnightblue" points="155.444,-86.7044 165.749,-84.2445 156.159,-79.7411 155.444,-86.7044"/>
</g>
<!-- Node4 -->
<g id="node4" class="node"><title>Node4</title>
<g id="a_node4"><a xlink:href="../../d4/de2/classview_1_1_scene_setter.html#a475ae9393b2e2aec0f59ce044b08978c" target="_top" xlink:title="view.SceneSetter.setupScene">
<polygon fill="white" stroke="black" points="552,-64.5 552,-83.5 710,-83.5 710,-64.5 552,-64.5"/>
<text text-anchor="middle" x="631" y="-71.5" font-family="Helvetica,sans-Serif" font-size="10.00">view.SceneSetter.setupScene</text>
</a>
</g>
</g>
<!-- Node1&#45;&gt;Node4 -->
<g id="edge18" class="edge"><title>Node1&#45;&gt;Node4</title>
<path fill="none" stroke="midnightblue" d="M130.149,-74C231.183,-74 427.607,-74 541.832,-74"/>
<polygon fill="midnightblue" stroke="midnightblue" points="541.944,-77.5001 551.944,-74 541.944,-70.5001 541.944,-77.5001"/>
</g>
<!-- Node3 -->
<g id="node3" class="node"><title>Node3</title>
<g id="a_node3"><a xlink:href="../../d1/d75/classview_1_1_main_view.html#aa4922565e9617cd3337f4bee8fab92c1" target="_top" xlink:title="view.MainView.displayPage">
<polygon fill="white" stroke="black" points="374,-83.5 374,-102.5 516,-102.5 516,-83.5 374,-83.5"/>
<text text-anchor="middle" x="445" y="-90.5" font-family="Helvetica,sans-Serif" font-size="10.00">view.MainView.displayPage</text>
</a>
</g>
</g>
<!-- Node2&#45;&gt;Node3 -->
<g id="edge2" class="edge"><title>Node2&#45;&gt;Node3</title>
<path fill="none" stroke="midnightblue" d="M338.166,-93C346.653,-93 355.25,-93 363.685,-93"/>
<polygon fill="midnightblue" stroke="midnightblue" points="363.874,-96.5001 373.874,-93 363.874,-89.5001 363.874,-96.5001"/>
</g>
<!-- Node5 -->
<g id="node5" class="node"><title>Node5</title>
<g id="a_node5"><a xlink:href="../../d1/d75/classview_1_1_main_view.html#a39a2b399924a553ccd89dd2a2e6ea208" target="_top" xlink:title="view.MainView.newTab">
<polygon fill="white" stroke="black" points="385,-121.5 385,-140.5 505,-140.5 505,-121.5 385,-121.5"/>
<text text-anchor="middle" x="445" y="-128.5" font-family="Helvetica,sans-Serif" font-size="10.00">view.MainView.newTab</text>
</a>
</g>
</g>
<!-- Node2&#45;&gt;Node5 -->
<g id="edge4" class="edge"><title>Node2&#45;&gt;Node5</title>
<path fill="none" stroke="midnightblue" d="M301.197,-102.589C326.97,-107.716 358.891,-114.067 386.012,-119.463"/>
<polygon fill="midnightblue" stroke="midnightblue" points="385.658,-122.961 396.149,-121.48 387.024,-116.096 385.658,-122.961"/>
</g>
<!-- Node3&#45;&gt;Node4 -->
<g id="edge3" class="edge"><title>Node3&#45;&gt;Node4</title>
<path fill="none" stroke="midnightblue" d="M516.087,-85.7627C524.482,-84.8959 533.135,-84.0024 541.744,-83.1134"/>
<polygon fill="midnightblue" stroke="midnightblue" points="542.225,-86.5825 551.812,-82.0737 541.506,-79.6195 542.225,-86.5825"/>
</g>
<!-- Node6 -->
<g id="node6" class="node"><title>Node6</title>
<g id="a_node6"><a xlink:href="../../d6/de7/classview_1_1_s_logo_view.html#ae0050481c9168dd8eeb434d9aa79b047" target="_top" xlink:title="view.SLogoView.configureUI">
<polygon fill="white" stroke="black" points="557.5,-121.5 557.5,-140.5 704.5,-140.5 704.5,-121.5 557.5,-121.5"/>
<text text-anchor="middle" x="631" y="-128.5" font-family="Helvetica,sans-Serif" font-size="10.00">view.SLogoView.configureUI</text>
</a>
</g>
</g>
<!-- Node5&#45;&gt;Node6 -->
<g id="edge5" class="edge"><title>Node5&#45;&gt;Node6</title>
<path fill="none" stroke="midnightblue" d="M505.232,-131C518.589,-131 533.006,-131 547.132,-131"/>
<polygon fill="midnightblue" stroke="midnightblue" points="547.349,-134.5 557.349,-131 547.348,-127.5 547.349,-134.5"/>
</g>
<!-- Node7 -->
<g id="node7" class="node"><title>Node7</title>
<g id="a_node7"><a xlink:href="../../d6/de7/classview_1_1_s_logo_view.html#acaf3f13ffb1cb6bbab33a6560cc80757" target="_top" xlink:title="view.SLogoView.setGridPane\lConstraints">
<polygon fill="white" stroke="black" points="750.5,-179 750.5,-209 901.5,-209 901.5,-179 750.5,-179"/>
<text text-anchor="start" x="758.5" y="-197" font-family="Helvetica,sans-Serif" font-size="10.00">view.SLogoView.setGridPane</text>
<text text-anchor="middle" x="826" y="-186" font-family="Helvetica,sans-Serif" font-size="10.00">Constraints</text>
</a>
</g>
</g>
<!-- Node6&#45;&gt;Node7 -->
<g id="edge6" class="edge"><title>Node6&#45;&gt;Node7</title>
<path fill="none" stroke="midnightblue" d="M660.539,-140.647C683.574,-148.401 716.833,-159.524 746,-169 752.867,-171.231 760.077,-173.548 767.233,-175.831"/>
<polygon fill="midnightblue" stroke="midnightblue" points="766.329,-179.216 776.919,-178.913 768.451,-172.546 766.329,-179.216"/>
</g>
<!-- Node8 -->
<g id="node8" class="node"><title>Node8</title>
<g id="a_node8"><a xlink:href="../../da/d64/classview_1_1_workspace.html#a803a12ee4aa6dfb05f7e6e141dadc5e9" target="_top" xlink:title="view.Workspace.getGridWidth">
<polygon fill="white" stroke="black" points="748.5,-140.5 748.5,-159.5 903.5,-159.5 903.5,-140.5 748.5,-140.5"/>
<text text-anchor="middle" x="826" y="-147.5" font-family="Helvetica,sans-Serif" font-size="10.00">view.Workspace.getGridWidth</text>
</a>
</g>
</g>
<!-- Node6&#45;&gt;Node8 -->
<g id="edge7" class="edge"><title>Node6&#45;&gt;Node8</title>
<path fill="none" stroke="midnightblue" d="M704.69,-138.156C715.571,-139.227 726.882,-140.341 738.023,-141.438"/>
<polygon fill="midnightblue" stroke="midnightblue" points="737.894,-144.942 748.189,-142.438 738.58,-137.975 737.894,-144.942"/>
</g>
<!-- Node9 -->
<g id="node9" class="node"><title>Node9</title>
<g id="a_node9"><a xlink:href="../../da/d64/classview_1_1_workspace.html#aafa1f230c037c8ce7686fc2bcfca50f6" target="_top" xlink:title="view.Workspace.getGridHeight">
<polygon fill="white" stroke="black" points="746,-102.5 746,-121.5 906,-121.5 906,-102.5 746,-102.5"/>
<text text-anchor="middle" x="826" y="-109.5" font-family="Helvetica,sans-Serif" font-size="10.00">view.Workspace.getGridHeight</text>
</a>
</g>
</g>
<!-- Node6&#45;&gt;Node9 -->
<g id="edge8" class="edge"><title>Node6&#45;&gt;Node9</title>
<path fill="none" stroke="midnightblue" d="M704.69,-123.844C714.893,-122.84 725.475,-121.798 735.939,-120.768"/>
<polygon fill="midnightblue" stroke="midnightblue" points="736.311,-124.248 745.92,-119.785 735.625,-117.282 736.311,-124.248"/>
</g>
<!-- Node10 -->
<g id="node10" class="node"><title>Node10</title>
<g id="a_node10"><a xlink:href="../../d6/de7/classview_1_1_s_logo_view.html#acf432f20e1a7dda7bef97f0619fb0fa5" target="_top" xlink:title="view.SLogoView.configure\lAddTurtlesButton">
<polygon fill="white" stroke="black" points="757.5,-53 757.5,-83 894.5,-83 894.5,-53 757.5,-53"/>
<text text-anchor="start" x="765.5" y="-71" font-family="Helvetica,sans-Serif" font-size="10.00">view.SLogoView.configure</text>
<text text-anchor="middle" x="826" y="-60" font-family="Helvetica,sans-Serif" font-size="10.00">AddTurtlesButton</text>
</a>
</g>
</g>
<!-- Node6&#45;&gt;Node10 -->
<g id="edge9" class="edge"><title>Node6&#45;&gt;Node10</title>
<path fill="none" stroke="midnightblue" d="M660.539,-121.353C683.574,-113.599 716.833,-102.476 746,-93 752.867,-90.7692 760.077,-88.4523 767.233,-86.1687"/>
<polygon fill="midnightblue" stroke="midnightblue" points="768.451,-89.454 776.919,-83.0866 766.329,-82.7836 768.451,-89.454"/>
</g>
<!-- Node11 -->
<g id="node11" class="node"><title>Node11</title>
<g id="a_node11"><a xlink:href="../../da/d64/classview_1_1_workspace.html#a58b943798f78aa9414a854dcd54fa7ae" target="_top" xlink:title="view.Workspace.addTurtle">
<polygon fill="white" stroke="black" points="942.5,-58.5 942.5,-77.5 1079.5,-77.5 1079.5,-58.5 942.5,-58.5"/>
<text text-anchor="middle" x="1011" y="-65.5" font-family="Helvetica,sans-Serif" font-size="10.00">view.Workspace.addTurtle</text>
</a>
</g>
</g>
<!-- Node10&#45;&gt;Node11 -->
<g id="edge10" class="edge"><title>Node10&#45;&gt;Node11</title>
<path fill="none" stroke="midnightblue" d="M894.623,-68C906.793,-68 919.569,-68 932.005,-68"/>
<polygon fill="midnightblue" stroke="midnightblue" points="932.35,-71.5001 942.35,-68 932.35,-64.5001 932.35,-71.5001"/>
</g>
<!-- Node12 -->
<g id="node12" class="node"><title>Node12</title>
<g id="a_node12"><a xlink:href="../../da/d64/classview_1_1_workspace.html#a9eea72f983d5e7ad5af85056d927e380" target="_top" xlink:title="view.Workspace.configure\lTurtleEventHandler">
<polygon fill="white" stroke="black" points="1116.5,-53 1116.5,-83 1253.5,-83 1253.5,-53 1116.5,-53"/>
<text text-anchor="start" x="1124.5" y="-71" font-family="Helvetica,sans-Serif" font-size="10.00">view.Workspace.configure</text>
<text text-anchor="middle" x="1185" y="-60" font-family="Helvetica,sans-Serif" font-size="10.00">TurtleEventHandler</text>
</a>
</g>
</g>
<!-- Node11&#45;&gt;Node12 -->
<g id="edge11" class="edge"><title>Node11&#45;&gt;Node12</title>
<path fill="none" stroke="midnightblue" d="M1079.98,-68C1088.55,-68 1097.37,-68 1106.08,-68"/>
<polygon fill="midnightblue" stroke="midnightblue" points="1106.23,-71.5001 1116.23,-68 1106.23,-64.5001 1106.23,-71.5001"/>
</g>
<!-- Node13 -->
<g id="node13" class="node"><title>Node13</title>
<g id="a_node13"><a xlink:href="../../da/d64/classview_1_1_workspace.html#a16bda9a6a7fe7f8d3d7b09108675f9c4" target="_top" xlink:title="view.Workspace.setActive\lTurtle">
<polygon fill="white" stroke="black" points="1290.5,-31 1290.5,-61 1427.5,-61 1427.5,-31 1290.5,-31"/>
<text text-anchor="start" x="1298.5" y="-49" font-family="Helvetica,sans-Serif" font-size="10.00">view.Workspace.setActive</text>
<text text-anchor="middle" x="1359" y="-38" font-family="Helvetica,sans-Serif" font-size="10.00">Turtle</text>
</a>
</g>
</g>
<!-- Node12&#45;&gt;Node13 -->
<g id="edge12" class="edge"><title>Node12&#45;&gt;Node13</title>
<path fill="none" stroke="midnightblue" d="M1253.98,-59.305C1262.55,-58.2087 1271.37,-57.0804 1280.08,-55.9663"/>
<polygon fill="midnightblue" stroke="midnightblue" points="1280.76,-59.4084 1290.23,-54.6678 1279.87,-52.4649 1280.76,-59.4084"/>
</g>
<!-- Node15 -->
<g id="node15" class="node"><title>Node15</title>
<g id="a_node15"><a xlink:href="../../d8/df7/classview_1_1_turtle_view.html#ab5fdc3775e06339f4a68d1b795a81643" target="_top" xlink:title="view.TurtleView.getID">
<polygon fill="white" stroke="black" points="1661,-77.5 1661,-96.5 1775,-96.5 1775,-77.5 1661,-77.5"/>
<text text-anchor="middle" x="1718" y="-84.5" font-family="Helvetica,sans-Serif" font-size="10.00">view.TurtleView.getID</text>
</a>
</g>
</g>
<!-- Node12&#45;&gt;Node15 -->
<g id="edge17" class="edge"><title>Node12&#45;&gt;Node15</title>
<path fill="none" stroke="midnightblue" d="M1253.52,-70.416C1355.87,-74.0783 1549.1,-80.9924 1650.72,-84.6283"/>
<polygon fill="midnightblue" stroke="midnightblue" points="1650.74,-88.1311 1660.86,-84.9911 1650.99,-81.1356 1650.74,-88.1311"/>
</g>
<!-- Node14 -->
<g id="node14" class="node"><title>Node14</title>
<g id="a_node14"><a xlink:href="../../d1/dc7/classview_1_1_side_bar.html#a0e6b8bded054449259862ef89afdc74d" target="_top" xlink:title="view.SideBar.updateTurtle\lProperties">
<polygon fill="white" stroke="black" points="1464,-31 1464,-61 1602,-61 1602,-31 1464,-31"/>
<text text-anchor="start" x="1472" y="-49" font-family="Helvetica,sans-Serif" font-size="10.00">view.SideBar.updateTurtle</text>
<text text-anchor="middle" x="1533" y="-38" font-family="Helvetica,sans-Serif" font-size="10.00">Properties</text>
</a>
</g>
</g>
<!-- Node13&#45;&gt;Node14 -->
<g id="edge13" class="edge"><title>Node13&#45;&gt;Node14</title>
<path fill="none" stroke="midnightblue" d="M1427.98,-46C1436.48,-46 1445.23,-46 1453.88,-46"/>
<polygon fill="midnightblue" stroke="midnightblue" points="1453.95,-49.5001 1463.95,-46 1453.95,-42.5001 1453.95,-49.5001"/>
</g>
<!-- Node14&#45;&gt;Node15 -->
<g id="edge14" class="edge"><title>Node14&#45;&gt;Node15</title>
<path fill="none" stroke="midnightblue" d="M1601.1,-61.0341C1621.95,-65.7049 1644.62,-70.7842 1664.34,-75.2015"/>
<polygon fill="midnightblue" stroke="midnightblue" points="1663.83,-78.6745 1674.35,-77.4455 1665.36,-71.8439 1663.83,-78.6745"/>
</g>
<!-- Node16 -->
<g id="node16" class="node"><title>Node16</title>
<g id="a_node16"><a xlink:href="../../d8/df7/classview_1_1_turtle_view.html#a85b9acc922cc69f27c79bf13e3356e09" target="_top" xlink:title="view.TurtleView.getPenPosition">
<polygon fill="white" stroke="black" points="1638,-0.5 1638,-19.5 1798,-19.5 1798,-0.5 1638,-0.5"/>
<text text-anchor="middle" x="1718" y="-7.5" font-family="Helvetica,sans-Serif" font-size="10.00">view.TurtleView.getPenPosition</text>
</a>
</g>
</g>
<!-- Node14&#45;&gt;Node16 -->
<g id="edge15" class="edge"><title>Node14&#45;&gt;Node16</title>
<path fill="none" stroke="midnightblue" d="M1602.14,-32.5949C1620.66,-28.9517 1640.55,-25.0393 1658.49,-21.5109"/>
<polygon fill="midnightblue" stroke="midnightblue" points="1659.37,-24.9033 1668.51,-19.5388 1658.02,-18.0349 1659.37,-24.9033"/>
</g>
<!-- Node17 -->
<g id="node17" class="node"><title>Node17</title>
<g id="a_node17"><a xlink:href="../../d8/df7/classview_1_1_turtle_view.html#a5f7b22cd8ab69258535b18920a488b63" target="_top" xlink:title="view.TurtleView.isShowing">
<polygon fill="white" stroke="black" points="1650,-38.5 1650,-57.5 1786,-57.5 1786,-38.5 1650,-38.5"/>
<text text-anchor="middle" x="1718" y="-45.5" font-family="Helvetica,sans-Serif" font-size="10.00">view.TurtleView.isShowing</text>
</a>
</g>
</g>
<!-- Node14&#45;&gt;Node17 -->
<g id="edge16" class="edge"><title>Node14&#45;&gt;Node17</title>
<path fill="none" stroke="midnightblue" d="M1602.14,-46.7447C1614.29,-46.8775 1627.02,-47.0167 1639.41,-47.152"/>
<polygon fill="midnightblue" stroke="midnightblue" points="1639.68,-50.655 1649.71,-47.2646 1639.75,-43.6555 1639.68,-50.655"/>
</g>
</g>
</svg>
        <g id="navigator" transform="translate(0 0)" fill="#404254">
                <rect fill="#f2f5e9" fill-opacity="0.5" stroke="#606060" stroke-width=".5" x="0" y="0" width="60" height="60"/>
                <use id="zoomplus" xlink:href="#zoomPlus" x="17" y="9" onmousedown="handleZoom(evt,'in')"/>
                <use id="zoomminus" xlink:href="#zoomMin" x="42" y="9" onmousedown="handleZoom(evt,'out')"/>
                <use id="reset" xlink:href="#resetDef" x="30" y="36" onmousedown="handleReset()"/>
                <g id="arrowUp" xlink:href="#dirArrow" transform="translate(30 24)" onmousedown="handlePan(0,-1)">
                  <use xlink:href="#rim" fill="#404040">
                        <set attributeName="fill" to="#808080" begin="arrowUp.mouseover" end="arrowUp.mouseout"/>
                  </use>
                  <path fill="none" stroke="white" stroke-width="1.5" d="M0,-3.0v7 M-2.5,-0.5L0,-3.0L2.5,-0.5"/>
                </g>
                <g id="arrowRight" xlink:href="#dirArrow" transform="rotate(90) translate(36 -43)" onmousedown="handlePan(1,0)">
                  <use xlink:href="#rim" fill="#404040">
                        <set attributeName="fill" to="#808080" begin="arrowRight.mouseover" end="arrowRight.mouseout"/>
                  </use>
                  <path fill="none" stroke="white" stroke-width="1.5" d="M0,-3.0v7 M-2.5,-0.5L0,-3.0L2.5,-0.5"/>
                </g>
                <g id="arrowDown" xlink:href="#dirArrow" transform="rotate(180) translate(-30 -48)" onmousedown="handlePan(0,1)">
                  <use xlink:href="#rim" fill="#404040">
                        <set attributeName="fill" to="#808080" begin="arrowDown.mouseover" end="arrowDown.mouseout"/>
                  </use>
                  <path fill="none" stroke="white" stroke-width="1.5" d="M0,-3.0v7 M-2.5,-0.5L0,-3.0L2.5,-0.5"/>
                </g>
                <g id="arrowLeft" xlink:href="#dirArrow" transform="rotate(270) translate(-36 17)" onmousedown="handlePan(-1,0)">
                  <use xlink:href="#rim" fill="#404040">
                        <set attributeName="fill" to="#808080" begin="arrowLeft.mouseover" end="arrowLeft.mouseout"/>
                  </use>
                  <path fill="none" stroke="white" stroke-width="1.5" d="M0,-3.0v7 M-2.5,-0.5L0,-3.0L2.5,-0.5"/>
                </g>
        </g>
        <svg viewBox="0 0 15 15" width="100%" height="30px" preserveAspectRatio="xMaxYMin meet">
         <g id="arrow_out" transform="scale(0.3 0.3)">
          <a xlink:href="classview_1_1_main_view_a9e27015c007bed90f32c79fc1187083f_cgraph_org.svg" target="_base">
           <rect id="button" ry="5" rx="5" y="6" x="6" height="38" width="38"
                fill="#f2f5e9" fill-opacity="0.5" stroke="#606060" stroke-width="1.0"/>
           <path id="arrow"
             d="M 11.500037,31.436501 C 11.940474,20.09759 22.043105,11.32322 32.158766,21.979434 L 37.068811,17.246167 C 37.068811,17.246167 37.088388,32 37.088388,32 L 22.160133,31.978069 C 22.160133,31.978069 26.997745,27.140456 26.997745,27.140456 C 18.528582,18.264221 13.291696,25.230495 11.500037,31.436501 z"
             style="fill:#404040;"/>
          </a>
         </g>
        </svg>
</svg>
