<?xml version="1.0" encoding="UTF-8" standalone="no"?>
<!DOCTYPE svg PUBLIC "-//W3C//DTD SVG 1.1//EN"
 "http://www.w3.org/Graphics/SVG/1.1/DTD/svg11.dtd">
<!-- Generated by graphviz version 2.36.0 (20140111.2315)
 -->
<!-- Title: view.MainView.configureFileMenu Pages: 1 -->
<svg width="1696pt" height="224pt"
 viewBox="0.00 0.00 1696.00 224.00" xmlns="http://www.w3.org/2000/svg" xmlns:xlink="http://www.w3.org/1999/xlink">
<g id="graph0" class="graph" transform="scale(1 1) rotate(0) translate(4 220)">
<title>view.MainView.configureFileMenu</title>
<polygon fill="white" stroke="none" points="-4,4 -4,-220 1692,-220 1692,4 -4,4"/>
<!-- Node1 -->
<g id="node1" class="node"><title>Node1</title>
<polygon fill="#bfbfbf" stroke="black" points="0.5,-55.5 0.5,-74.5 171.5,-74.5 171.5,-55.5 0.5,-55.5"/>
<text text-anchor="middle" x="86" y="-62.5" font-family="Helvetica,sans-Serif" font-size="10.00">view.MainView.configureFileMenu</text>
</g>
<!-- Node2 -->
<g id="node2" class="node"><title>Node2</title>
<g id="a_node2"><a xlink:href="../../d1/d75/classview_1_1_main_view.html#a39a2b399924a553ccd89dd2a2e6ea208" target="_top" xlink:title="view.MainView.newTab">
<polygon fill="white" stroke="black" points="208,-55.5 208,-74.5 328,-74.5 328,-55.5 208,-55.5"/>
<text text-anchor="middle" x="268" y="-62.5" font-family="Helvetica,sans-Serif" font-size="10.00">view.MainView.newTab</text>
</a>
</g>
</g>
<!-- Node1&#45;&gt;Node2 -->
<g id="edge1" class="edge"><title>Node1&#45;&gt;Node2</title>
<path fill="none" stroke="midnightblue" d="M171.729,-65C180.416,-65 189.168,-65 197.661,-65"/>
<polygon fill="midnightblue" stroke="midnightblue" points="197.87,-68.5001 207.87,-65 197.87,-61.5001 197.87,-68.5001"/>
</g>
<!-- Node3 -->
<g id="node3" class="node"><title>Node3</title>
<g id="a_node3"><a xlink:href="../../d6/de7/classview_1_1_s_logo_view.html#ae0050481c9168dd8eeb434d9aa79b047" target="_top" xlink:title="view.SLogoView.configureUI">
<polygon fill="white" stroke="black" points="364.5,-55.5 364.5,-74.5 511.5,-74.5 511.5,-55.5 364.5,-55.5"/>
<text text-anchor="middle" x="438" y="-62.5" font-family="Helvetica,sans-Serif" font-size="10.00">view.SLogoView.configureUI</text>
</a>
</g>
</g>
<!-- Node2&#45;&gt;Node3 -->
<g id="edge2" class="edge"><title>Node2&#45;&gt;Node3</title>
<path fill="none" stroke="midnightblue" d="M328.231,-65C336.65,-65 345.434,-65 354.201,-65"/>
<polygon fill="midnightblue" stroke="midnightblue" points="354.462,-68.5001 364.461,-65 354.461,-61.5001 354.462,-68.5001"/>
</g>
<!-- Node4 -->
<g id="node4" class="node"><title>Node4</title>
<g id="a_node4"><a xlink:href="../../d6/de7/classview_1_1_s_logo_view.html#acaf3f13ffb1cb6bbab33a6560cc80757" target="_top" xlink:title="view.SLogoView.setGridPane\lConstraints">
<polygon fill="white" stroke="black" points="548.5,-99 548.5,-129 699.5,-129 699.5,-99 548.5,-99"/>
<text text-anchor="start" x="556.5" y="-117" font-family="Helvetica,sans-Serif" font-size="10.00">view.SLogoView.setGridPane</text>
<text text-anchor="middle" x="624" y="-106" font-family="Helvetica,sans-Serif" font-size="10.00">Constraints</text>
</a>
</g>
</g>
<!-- Node3&#45;&gt;Node4 -->
<g id="edge3" class="edge"><title>Node3&#45;&gt;Node4</title>
<path fill="none" stroke="midnightblue" d="M474.914,-74.564C498.107,-80.7405 528.991,-88.9649 556.551,-96.3045"/>
<polygon fill="midnightblue" stroke="midnightblue" points="555.971,-99.7717 566.535,-98.963 557.772,-93.0075 555.971,-99.7717"/>
</g>
<!-- Node5 -->
<g id="node5" class="node"><title>Node5</title>
<g id="a_node5"><a xlink:href="../../d6/de7/classview_1_1_s_logo_view.html#acf432f20e1a7dda7bef97f0619fb0fa5" target="_top" xlink:title="view.SLogoView.configure\lAddTurtlesButton">
<polygon fill="white" stroke="black" points="555.5,-50 555.5,-80 692.5,-80 692.5,-50 555.5,-50"/>
<text text-anchor="start" x="563.5" y="-68" font-family="Helvetica,sans-Serif" font-size="10.00">view.SLogoView.configure</text>
<text text-anchor="middle" x="624" y="-57" font-family="Helvetica,sans-Serif" font-size="10.00">AddTurtlesButton</text>
</a>
</g>
</g>
<!-- Node3&#45;&gt;Node5 -->
<g id="edge4" class="edge"><title>Node3&#45;&gt;Node5</title>
<path fill="none" stroke="midnightblue" d="M511.722,-65C522.72,-65 534.102,-65 545.202,-65"/>
<polygon fill="midnightblue" stroke="midnightblue" points="545.298,-68.5001 555.298,-65 545.298,-61.5001 545.298,-68.5001"/>
</g>
<!-- Node17 -->
<g id="node17" class="node"><title>Node17</title>
<g id="a_node17"><a xlink:href="../../d6/de7/classview_1_1_s_logo_view.html#a31631c7a3cc6121d871884bc396cf934" target="_top" xlink:title="view.SLogoView.createNew\lParser">
<polygon fill="white" stroke="black" points="552,-1 552,-31 696,-31 696,-1 552,-1"/>
<text text-anchor="start" x="560" y="-19" font-family="Helvetica,sans-Serif" font-size="10.00">view.SLogoView.createNew</text>
<text text-anchor="middle" x="624" y="-8" font-family="Helvetica,sans-Serif" font-size="10.00">Parser</text>
</a>
</g>
</g>
<!-- Node3&#45;&gt;Node17 -->
<g id="edge18" class="edge"><title>Node3&#45;&gt;Node17</title>
<path fill="none" stroke="midnightblue" d="M474.914,-55.436C498.107,-49.2595 528.991,-41.0351 556.551,-33.6955"/>
<polygon fill="midnightblue" stroke="midnightblue" points="557.772,-36.9925 566.535,-31.037 555.971,-30.2283 557.772,-36.9925"/>
</g>
<!-- Node6 -->
<g id="node6" class="node"><title>Node6</title>
<g id="a_node6"><a xlink:href="../../da/d64/classview_1_1_workspace.html#a4abde41a3048fa8f64ddfec40c8ffdb7" target="_top" xlink:title="view.Workspace.addTurtle">
<polygon fill="white" stroke="black" points="736.5,-55.5 736.5,-74.5 873.5,-74.5 873.5,-55.5 736.5,-55.5"/>
<text text-anchor="middle" x="805" y="-62.5" font-family="Helvetica,sans-Serif" font-size="10.00">view.Workspace.addTurtle</text>
</a>
</g>
</g>
<!-- Node5&#45;&gt;Node6 -->
<g id="edge5" class="edge"><title>Node5&#45;&gt;Node6</title>
<path fill="none" stroke="midnightblue" d="M692.672,-65C703.587,-65 714.964,-65 726.097,-65"/>
<polygon fill="midnightblue" stroke="midnightblue" points="726.232,-68.5001 736.232,-65 726.232,-61.5001 726.232,-68.5001"/>
</g>
<!-- Node7 -->
<g id="node7" class="node"><title>Node7</title>
<g id="a_node7"><a xlink:href="../../da/d64/classview_1_1_workspace.html#a9eea72f983d5e7ad5af85056d927e380" target="_top" xlink:title="view.Workspace.configure\lTurtleEventHandler">
<polygon fill="white" stroke="black" points="930.5,-99 930.5,-129 1067.5,-129 1067.5,-99 930.5,-99"/>
<text text-anchor="start" x="938.5" y="-117" font-family="Helvetica,sans-Serif" font-size="10.00">view.Workspace.configure</text>
<text text-anchor="middle" x="999" y="-106" font-family="Helvetica,sans-Serif" font-size="10.00">TurtleEventHandler</text>
</a>
</g>
</g>
<!-- Node6&#45;&gt;Node7 -->
<g id="edge6" class="edge"><title>Node6&#45;&gt;Node7</title>
<path fill="none" stroke="midnightblue" d="M843.475,-74.564C867.783,-80.7676 900.186,-89.0371 929.041,-96.401"/>
<polygon fill="midnightblue" stroke="midnightblue" points="928.525,-99.8814 939.08,-98.963 930.256,-93.0988 928.525,-99.8814"/>
</g>
<!-- Node14 -->
<g id="node14" class="node"><title>Node14</title>
<g id="a_node14"><a xlink:href="../../d1/dca/classmodel_1_1_execution_environment.html#a96986e0e8de018fd9b1b2bf79de862e1" target="_top" xlink:title="model.ExecutionEnvironment.add\lTurtle">
<polygon fill="white" stroke="black" points="910,-50 910,-80 1088,-80 1088,-50 910,-50"/>
<text text-anchor="start" x="918" y="-68" font-family="Helvetica,sans-Serif" font-size="10.00">model.ExecutionEnvironment.add</text>
<text text-anchor="middle" x="999" y="-57" font-family="Helvetica,sans-Serif" font-size="10.00">Turtle</text>
</a>
</g>
</g>
<!-- Node6&#45;&gt;Node14 -->
<g id="edge14" class="edge"><title>Node6&#45;&gt;Node14</title>
<path fill="none" stroke="midnightblue" d="M873.692,-65C882.073,-65 890.77,-65 899.494,-65"/>
<polygon fill="midnightblue" stroke="midnightblue" points="899.731,-68.5001 909.731,-65 899.731,-61.5001 899.731,-68.5001"/>
</g>
<!-- Node16 -->
<g id="node16" class="node"><title>Node16</title>
<g id="a_node16"><a xlink:href="../../d1/dca/classmodel_1_1_execution_environment.html#a472ef4da5205b0e95ec51fdbf52f654a" target="_top" xlink:title="model.ExecutionEnvironment.set\lActiveTurtle">
<polygon fill="white" stroke="black" points="911.5,-1 911.5,-31 1086.5,-31 1086.5,-1 911.5,-1"/>
<text text-anchor="start" x="919.5" y="-19" font-family="Helvetica,sans-Serif" font-size="10.00">model.ExecutionEnvironment.set</text>
<text text-anchor="middle" x="999" y="-8" font-family="Helvetica,sans-Serif" font-size="10.00">ActiveTurtle</text>
</a>
</g>
</g>
<!-- Node6&#45;&gt;Node16 -->
<g id="edge16" class="edge"><title>Node6&#45;&gt;Node16</title>
<path fill="none" stroke="midnightblue" d="M843.475,-55.436C867.783,-49.2324 900.186,-40.9629 929.041,-33.599"/>
<polygon fill="midnightblue" stroke="midnightblue" points="930.256,-36.9012 939.08,-31.037 928.525,-30.1186 930.256,-36.9012"/>
</g>
<!-- Node8 -->
<g id="node8" class="node"><title>Node8</title>
<g id="a_node8"><a xlink:href="../../da/d64/classview_1_1_workspace.html#a16bda9a6a7fe7f8d3d7b09108675f9c4" target="_top" xlink:title="view.Workspace.setActive\lTurtle">
<polygon fill="white" stroke="black" points="1152.5,-121 1152.5,-151 1289.5,-151 1289.5,-121 1152.5,-121"/>
<text text-anchor="start" x="1160.5" y="-139" font-family="Helvetica,sans-Serif" font-size="10.00">view.Workspace.setActive</text>
<text text-anchor="middle" x="1221" y="-128" font-family="Helvetica,sans-Serif" font-size="10.00">Turtle</text>
</a>
</g>
</g>
<!-- Node7&#45;&gt;Node8 -->
<g id="edge7" class="edge"><title>Node7&#45;&gt;Node8</title>
<path fill="none" stroke="midnightblue" d="M1067.5,-120.75C1091.04,-123.104 1117.65,-125.765 1141.98,-128.198"/>
<polygon fill="midnightblue" stroke="midnightblue" points="1141.95,-131.712 1152.25,-129.225 1142.64,-124.747 1141.95,-131.712"/>
</g>
<!-- Node11 -->
<g id="node11" class="node"><title>Node11</title>
<g id="a_node11"><a xlink:href="../../d8/df7/classview_1_1_turtle_view.html#ab5fdc3775e06339f4a68d1b795a81643" target="_top" xlink:title="view.TurtleView.getID">
<polygon fill="white" stroke="black" points="1551,-82.5 1551,-101.5 1665,-101.5 1665,-82.5 1551,-82.5"/>
<text text-anchor="middle" x="1608" y="-89.5" font-family="Helvetica,sans-Serif" font-size="10.00">view.TurtleView.getID</text>
</a>
</g>
</g>
<!-- Node7&#45;&gt;Node11 -->
<g id="edge13" class="edge"><title>Node7&#45;&gt;Node11</title>
<path fill="none" stroke="midnightblue" d="M1067.57,-111.551C1184.71,-107.305 1424.07,-98.63 1540.48,-94.4111"/>
<polygon fill="midnightblue" stroke="midnightblue" points="1540.81,-97.9015 1550.67,-94.0415 1540.55,-90.9061 1540.81,-97.9015"/>
</g>
<!-- Node9 -->
<g id="node9" class="node"><title>Node9</title>
<g id="a_node9"><a xlink:href="../../d1/dc7/classview_1_1_side_bar.html#a7d73038dbba05f96990b60664afa2670" target="_top" xlink:title="view.SideBar.updateTurtle\lProperties">
<polygon fill="white" stroke="black" points="1354,-121 1354,-151 1492,-151 1492,-121 1354,-121"/>
<text text-anchor="start" x="1362" y="-139" font-family="Helvetica,sans-Serif" font-size="10.00">view.SideBar.updateTurtle</text>
<text text-anchor="middle" x="1423" y="-128" font-family="Helvetica,sans-Serif" font-size="10.00">Properties</text>
</a>
</g>
</g>
<!-- Node8&#45;&gt;Node9 -->
<g id="edge8" class="edge"><title>Node8&#45;&gt;Node9</title>
<path fill="none" stroke="midnightblue" d="M1289.71,-136C1306.95,-136 1325.63,-136 1343.36,-136"/>
<polygon fill="midnightblue" stroke="midnightblue" points="1343.68,-139.5 1353.68,-136 1343.68,-132.5 1343.68,-139.5"/>
</g>
<!-- Node10 -->
<g id="node10" class="node"><title>Node10</title>
<g id="a_node10"><a xlink:href="../../da/d64/classview_1_1_workspace.html#ad460da1164f039e5ea9a265d446d13fe" target="_top" xlink:title="view.Workspace.getTurtleMap">
<polygon fill="white" stroke="black" points="1530.5,-196.5 1530.5,-215.5 1685.5,-215.5 1685.5,-196.5 1530.5,-196.5"/>
<text text-anchor="middle" x="1608" y="-203.5" font-family="Helvetica,sans-Serif" font-size="10.00">view.Workspace.getTurtleMap</text>
</a>
</g>
</g>
<!-- Node9&#45;&gt;Node10 -->
<g id="edge9" class="edge"><title>Node9&#45;&gt;Node10</title>
<path fill="none" stroke="midnightblue" d="M1450.66,-151.105C1471.26,-162.271 1500.76,-177.18 1528,-187 1535.01,-189.528 1542.5,-191.822 1549.96,-193.87"/>
<polygon fill="midnightblue" stroke="midnightblue" points="1549.15,-197.277 1559.71,-196.422 1550.92,-190.505 1549.15,-197.277"/>
</g>
<!-- Node9&#45;&gt;Node11 -->
<g id="edge10" class="edge"><title>Node9&#45;&gt;Node11</title>
<path fill="none" stroke="midnightblue" d="M1486.47,-120.981C1509.72,-115.389 1535.77,-109.126 1557.68,-103.857"/>
<polygon fill="midnightblue" stroke="midnightblue" points="1558.53,-107.253 1567.44,-101.512 1556.9,-100.447 1558.53,-107.253"/>
</g>
<!-- Node12 -->
<g id="node12" class="node"><title>Node12</title>
<g id="a_node12"><a xlink:href="../../d8/df7/classview_1_1_turtle_view.html#a85b9acc922cc69f27c79bf13e3356e09" target="_top" xlink:title="view.TurtleView.getPenPosition">
<polygon fill="white" stroke="black" points="1528,-158.5 1528,-177.5 1688,-177.5 1688,-158.5 1528,-158.5"/>
<text text-anchor="middle" x="1608" y="-165.5" font-family="Helvetica,sans-Serif" font-size="10.00">view.TurtleView.getPenPosition</text>
</a>
</g>
</g>
<!-- Node9&#45;&gt;Node12 -->
<g id="edge11" class="edge"><title>Node9&#45;&gt;Node12</title>
<path fill="none" stroke="midnightblue" d="M1492.14,-147.916C1508.64,-150.8 1526.22,-153.874 1542.54,-156.727"/>
<polygon fill="midnightblue" stroke="midnightblue" points="1542.06,-160.197 1552.51,-158.472 1543.26,-153.302 1542.06,-160.197"/>
</g>
<!-- Node13 -->
<g id="node13" class="node"><title>Node13</title>
<g id="a_node13"><a xlink:href="../../d8/df7/classview_1_1_turtle_view.html#a5f7b22cd8ab69258535b18920a488b63" target="_top" xlink:title="view.TurtleView.isShowing">
<polygon fill="white" stroke="black" points="1540,-120.5 1540,-139.5 1676,-139.5 1676,-120.5 1540,-120.5"/>
<text text-anchor="middle" x="1608" y="-127.5" font-family="Helvetica,sans-Serif" font-size="10.00">view.TurtleView.isShowing</text>
</a>
</g>
</g>
<!-- Node9&#45;&gt;Node13 -->
<g id="edge12" class="edge"><title>Node9&#45;&gt;Node13</title>
<path fill="none" stroke="midnightblue" d="M1492.14,-133.766C1504.29,-133.368 1517.02,-132.95 1529.41,-132.544"/>
<polygon fill="midnightblue" stroke="midnightblue" points="1529.83,-136.032 1539.71,-132.206 1529.6,-129.036 1529.83,-136.032"/>
</g>
<!-- Node15 -->
<g id="node15" class="node"><title>Node15</title>
<g id="a_node15"><a xlink:href="../../d1/dca/classmodel_1_1_execution_environment.html#a93fd01341f06dfa81727344b120aef66" target="_top" xlink:title="model.ExecutionEnvironment.update\lObserver">
<polygon fill="white" stroke="black" points="1124,-28 1124,-58 1318,-58 1318,-28 1124,-28"/>
<text text-anchor="start" x="1132" y="-46" font-family="Helvetica,sans-Serif" font-size="10.00">model.ExecutionEnvironment.update</text>
<text text-anchor="middle" x="1221" y="-35" font-family="Helvetica,sans-Serif" font-size="10.00">Observer</text>
</a>
</g>
</g>
<!-- Node14&#45;&gt;Node15 -->
<g id="edge15" class="edge"><title>Node14&#45;&gt;Node15</title>
<path fill="none" stroke="midnightblue" d="M1088.21,-56.1785C1096.64,-55.3365 1105.23,-54.4767 1113.8,-53.62"/>
<polygon fill="midnightblue" stroke="midnightblue" points="1114.23,-57.0948 1123.83,-52.617 1113.53,-50.1295 1114.23,-57.0948"/>
</g>
<!-- Node16&#45;&gt;Node15 -->
<g id="edge17" class="edge"><title>Node16&#45;&gt;Node15</title>
<path fill="none" stroke="midnightblue" d="M1086.63,-26.6324C1095.64,-27.7378 1104.87,-28.87 1114.06,-29.9977"/>
<polygon fill="midnightblue" stroke="midnightblue" points="1113.65,-33.4737 1124,-31.218 1114.5,-26.5258 1113.65,-33.4737"/>
</g>
</g>
</svg>
