<?xml version="1.0" encoding="UTF-8" standalone="no"?>
<!DOCTYPE svg PUBLIC "-//W3C//DTD SVG 1.1//EN"
 "http://www.w3.org/Graphics/SVG/1.1/DTD/svg11.dtd">
<!-- Generated by graphviz version 2.36.0 (20140111.2315)
 -->
<!-- Title: view.MainView.initRowConstraints Pages: 1 -->
<svg width="2148pt" height="223pt"
 viewBox="0.00 0.00 2148.00 223.00" xmlns="http://www.w3.org/2000/svg" xmlns:xlink="http://www.w3.org/1999/xlink">
<g id="graph0" class="graph" transform="scale(1 1) rotate(0) translate(4 219)">
<title>view.MainView.initRowConstraints</title>
<polygon fill="white" stroke="none" points="-4,4 -4,-219 2144,-219 2144,4 -4,4"/>
<!-- Node1 -->
<g id="node1" class="node"><title>Node1</title>
<polygon fill="#bfbfbf" stroke="black" points="0.5,-59.5 0.5,-78.5 173.5,-78.5 173.5,-59.5 0.5,-59.5"/>
<text text-anchor="middle" x="87" y="-66.5" font-family="Helvetica,sans-Serif" font-size="10.00">view.MainView.initRowConstraints</text>
</g>
<!-- Node2 -->
<g id="node2" class="node"><title>Node2</title>
<g id="a_node2"><a xlink:href="../../d1/d75/classview_1_1_main_view.html#a200c2c8e08e038e2ea86acc40c17d8d2" target="_top" xlink:title="view.MainView.configureTopMenu">
<polygon fill="white" stroke="black" points="210,-59.5 210,-78.5 382,-78.5 382,-59.5 210,-59.5"/>
<text text-anchor="middle" x="296" y="-66.5" font-family="Helvetica,sans-Serif" font-size="10.00">view.MainView.configureTopMenu</text>
</a>
</g>
</g>
<!-- Node1&#45;&gt;Node2 -->
<g id="edge1" class="edge"><title>Node1&#45;&gt;Node2</title>
<path fill="none" stroke="midnightblue" d="M173.689,-69C182.243,-69 190.964,-69 199.609,-69"/>
<polygon fill="midnightblue" stroke="midnightblue" points="199.709,-72.5001 209.709,-69 199.709,-65.5001 199.709,-72.5001"/>
</g>
<!-- Node3 -->
<g id="node3" class="node"><title>Node3</title>
<g id="a_node3"><a xlink:href="../../d1/d75/classview_1_1_main_view.html#a0424800b5057be73f94e16ef2e1e2b33" target="_top" xlink:title="view.MainView.configureFileMenu">
<polygon fill="white" stroke="black" points="419.5,-78.5 419.5,-97.5 590.5,-97.5 590.5,-78.5 419.5,-78.5"/>
<text text-anchor="middle" x="505" y="-85.5" font-family="Helvetica,sans-Serif" font-size="10.00">view.MainView.configureFileMenu</text>
</a>
</g>
</g>
<!-- Node2&#45;&gt;Node3 -->
<g id="edge2" class="edge"><title>Node2&#45;&gt;Node3</title>
<path fill="none" stroke="midnightblue" d="M382.091,-76.8103C391.003,-77.6283 400.103,-78.4636 409.116,-79.2908"/>
<polygon fill="midnightblue" stroke="midnightblue" points="408.961,-82.7913 419.239,-80.22 409.601,-75.8206 408.961,-82.7913"/>
</g>
<!-- Node19 -->
<g id="node19" class="node"><title>Node19</title>
<g id="a_node19"><a xlink:href="../../d1/d75/classview_1_1_main_view.html#a832cf4e9dcfd7b29cf57405cca488493" target="_top" xlink:title="view.MainView.configureInfoMenu">
<polygon fill="white" stroke="black" points="418.5,-40.5 418.5,-59.5 591.5,-59.5 591.5,-40.5 418.5,-40.5"/>
<text text-anchor="middle" x="505" y="-47.5" font-family="Helvetica,sans-Serif" font-size="10.00">view.MainView.configureInfoMenu</text>
</a>
</g>
</g>
<!-- Node2&#45;&gt;Node19 -->
<g id="edge20" class="edge"><title>Node2&#45;&gt;Node19</title>
<path fill="none" stroke="midnightblue" d="M382.091,-61.1897C390.667,-60.4026 399.417,-59.5994 408.095,-58.8028"/>
<polygon fill="midnightblue" stroke="midnightblue" points="408.597,-62.2716 418.236,-57.8721 407.957,-55.3009 408.597,-62.2716"/>
</g>
<!-- Node4 -->
<g id="node4" class="node"><title>Node4</title>
<g id="a_node4"><a xlink:href="../../d1/d75/classview_1_1_main_view.html#a39a2b399924a553ccd89dd2a2e6ea208" target="_top" xlink:title="view.MainView.newTab">
<polygon fill="white" stroke="black" points="639,-78.5 639,-97.5 759,-97.5 759,-78.5 639,-78.5"/>
<text text-anchor="middle" x="699" y="-85.5" font-family="Helvetica,sans-Serif" font-size="10.00">view.MainView.newTab</text>
</a>
</g>
</g>
<!-- Node3&#45;&gt;Node4 -->
<g id="edge3" class="edge"><title>Node3&#45;&gt;Node4</title>
<path fill="none" stroke="midnightblue" d="M590.773,-88C603.487,-88 616.467,-88 628.806,-88"/>
<polygon fill="midnightblue" stroke="midnightblue" points="628.999,-91.5001 638.999,-88 628.999,-84.5001 628.999,-91.5001"/>
</g>
<!-- Node5 -->
<g id="node5" class="node"><title>Node5</title>
<g id="a_node5"><a xlink:href="../../d6/de7/classview_1_1_s_logo_view.html#ae0050481c9168dd8eeb434d9aa79b047" target="_top" xlink:title="view.SLogoView.configureUI">
<polygon fill="white" stroke="black" points="811.5,-78.5 811.5,-97.5 958.5,-97.5 958.5,-78.5 811.5,-78.5"/>
<text text-anchor="middle" x="885" y="-85.5" font-family="Helvetica,sans-Serif" font-size="10.00">view.SLogoView.configureUI</text>
</a>
</g>
</g>
<!-- Node4&#45;&gt;Node5 -->
<g id="edge4" class="edge"><title>Node4&#45;&gt;Node5</title>
<path fill="none" stroke="midnightblue" d="M759.232,-88C772.589,-88 787.006,-88 801.132,-88"/>
<polygon fill="midnightblue" stroke="midnightblue" points="801.349,-91.5001 811.349,-88 801.348,-84.5001 801.349,-91.5001"/>
</g>
<!-- Node6 -->
<g id="node6" class="node"><title>Node6</title>
<g id="a_node6"><a xlink:href="../../d6/de7/classview_1_1_s_logo_view.html#acaf3f13ffb1cb6bbab33a6560cc80757" target="_top" xlink:title="view.SLogoView.setGridPane\lConstraints">
<polygon fill="white" stroke="black" points="1000.5,-98 1000.5,-128 1151.5,-128 1151.5,-98 1000.5,-98"/>
<text text-anchor="start" x="1008.5" y="-116" font-family="Helvetica,sans-Serif" font-size="10.00">view.SLogoView.setGridPane</text>
<text text-anchor="middle" x="1076" y="-105" font-family="Helvetica,sans-Serif" font-size="10.00">Constraints</text>
</a>
</g>
</g>
<!-- Node5&#45;&gt;Node6 -->
<g id="edge5" class="edge"><title>Node5&#45;&gt;Node6</title>
<path fill="none" stroke="midnightblue" d="M957.992,-97.5227C968.506,-98.9135 979.415,-100.356 990.156,-101.777"/>
<polygon fill="midnightblue" stroke="midnightblue" points="990.011,-105.288 1000.38,-103.13 990.929,-98.3489 990.011,-105.288"/>
</g>
<!-- Node7 -->
<g id="node7" class="node"><title>Node7</title>
<g id="a_node7"><a xlink:href="../../d6/de7/classview_1_1_s_logo_view.html#acf432f20e1a7dda7bef97f0619fb0fa5" target="_top" xlink:title="view.SLogoView.configure\lAddTurtlesButton">
<polygon fill="white" stroke="black" points="1007.5,-49 1007.5,-79 1144.5,-79 1144.5,-49 1007.5,-49"/>
<text text-anchor="start" x="1015.5" y="-67" font-family="Helvetica,sans-Serif" font-size="10.00">view.SLogoView.configure</text>
<text text-anchor="middle" x="1076" y="-56" font-family="Helvetica,sans-Serif" font-size="10.00">AddTurtlesButton</text>
</a>
</g>
</g>
<!-- Node5&#45;&gt;Node7 -->
<g id="edge6" class="edge"><title>Node5&#45;&gt;Node7</title>
<path fill="none" stroke="midnightblue" d="M958.532,-78.7896C971.182,-77.1833 984.387,-75.5064 997.172,-73.8829"/>
<polygon fill="midnightblue" stroke="midnightblue" points="997.838,-77.3266 1007.32,-72.5946 996.956,-70.3823 997.838,-77.3266"/>
</g>
<!-- Node8 -->
<g id="node8" class="node"><title>Node8</title>
<g id="a_node8"><a xlink:href="../../da/d64/classview_1_1_workspace.html#a4abde41a3048fa8f64ddfec40c8ffdb7" target="_top" xlink:title="view.Workspace.addTurtle">
<polygon fill="white" stroke="black" points="1188.5,-54.5 1188.5,-73.5 1325.5,-73.5 1325.5,-54.5 1188.5,-54.5"/>
<text text-anchor="middle" x="1257" y="-61.5" font-family="Helvetica,sans-Serif" font-size="10.00">view.Workspace.addTurtle</text>
</a>
</g>
</g>
<!-- Node7&#45;&gt;Node8 -->
<g id="edge7" class="edge"><title>Node7&#45;&gt;Node8</title>
<path fill="none" stroke="midnightblue" d="M1144.67,-64C1155.59,-64 1166.96,-64 1178.1,-64"/>
<polygon fill="midnightblue" stroke="midnightblue" points="1178.23,-67.5001 1188.23,-64 1178.23,-60.5001 1178.23,-67.5001"/>
</g>
<!-- Node9 -->
<g id="node9" class="node"><title>Node9</title>
<g id="a_node9"><a xlink:href="../../da/d64/classview_1_1_workspace.html#a9eea72f983d5e7ad5af85056d927e380" target="_top" xlink:title="view.Workspace.configure\lTurtleEventHandler">
<polygon fill="white" stroke="black" points="1382.5,-98 1382.5,-128 1519.5,-128 1519.5,-98 1382.5,-98"/>
<text text-anchor="start" x="1390.5" y="-116" font-family="Helvetica,sans-Serif" font-size="10.00">view.Workspace.configure</text>
<text text-anchor="middle" x="1451" y="-105" font-family="Helvetica,sans-Serif" font-size="10.00">TurtleEventHandler</text>
</a>
</g>
</g>
<!-- Node8&#45;&gt;Node9 -->
<g id="edge8" class="edge"><title>Node8&#45;&gt;Node9</title>
<path fill="none" stroke="midnightblue" d="M1295.48,-73.564C1319.78,-79.7676 1352.19,-88.0371 1381.04,-95.401"/>
<polygon fill="midnightblue" stroke="midnightblue" points="1380.52,-98.8814 1391.08,-97.963 1382.26,-92.0988 1380.52,-98.8814"/>
</g>
<!-- Node16 -->
<g id="node16" class="node"><title>Node16</title>
<g id="a_node16"><a xlink:href="../../d1/dca/classmodel_1_1_execution_environment.html#a96986e0e8de018fd9b1b2bf79de862e1" target="_top" xlink:title="model.ExecutionEnvironment.add\lTurtle">
<polygon fill="white" stroke="black" points="1362,-49 1362,-79 1540,-79 1540,-49 1362,-49"/>
<text text-anchor="start" x="1370" y="-67" font-family="Helvetica,sans-Serif" font-size="10.00">model.ExecutionEnvironment.add</text>
<text text-anchor="middle" x="1451" y="-56" font-family="Helvetica,sans-Serif" font-size="10.00">Turtle</text>
</a>
</g>
</g>
<!-- Node8&#45;&gt;Node16 -->
<g id="edge16" class="edge"><title>Node8&#45;&gt;Node16</title>
<path fill="none" stroke="midnightblue" d="M1325.69,-64C1334.07,-64 1342.77,-64 1351.49,-64"/>
<polygon fill="midnightblue" stroke="midnightblue" points="1351.73,-67.5001 1361.73,-64 1351.73,-60.5001 1351.73,-67.5001"/>
</g>
<!-- Node18 -->
<g id="node18" class="node"><title>Node18</title>
<g id="a_node18"><a xlink:href="../../d1/dca/classmodel_1_1_execution_environment.html#a472ef4da5205b0e95ec51fdbf52f654a" target="_top" xlink:title="model.ExecutionEnvironment.set\lActiveTurtle">
<polygon fill="white" stroke="black" points="1363.5,-0 1363.5,-30 1538.5,-30 1538.5,-0 1363.5,-0"/>
<text text-anchor="start" x="1371.5" y="-18" font-family="Helvetica,sans-Serif" font-size="10.00">model.ExecutionEnvironment.set</text>
<text text-anchor="middle" x="1451" y="-7" font-family="Helvetica,sans-Serif" font-size="10.00">ActiveTurtle</text>
</a>
</g>
</g>
<!-- Node8&#45;&gt;Node18 -->
<g id="edge18" class="edge"><title>Node8&#45;&gt;Node18</title>
<path fill="none" stroke="midnightblue" d="M1295.48,-54.436C1319.78,-48.2324 1352.19,-39.9629 1381.04,-32.599"/>
<polygon fill="midnightblue" stroke="midnightblue" points="1382.26,-35.9012 1391.08,-30.037 1380.52,-29.1186 1382.26,-35.9012"/>
</g>
<!-- Node10 -->
<g id="node10" class="node"><title>Node10</title>
<g id="a_node10"><a xlink:href="../../da/d64/classview_1_1_workspace.html#a16bda9a6a7fe7f8d3d7b09108675f9c4" target="_top" xlink:title="view.Workspace.setActive\lTurtle">
<polygon fill="white" stroke="black" points="1604.5,-120 1604.5,-150 1741.5,-150 1741.5,-120 1604.5,-120"/>
<text text-anchor="start" x="1612.5" y="-138" font-family="Helvetica,sans-Serif" font-size="10.00">view.Workspace.setActive</text>
<text text-anchor="middle" x="1673" y="-127" font-family="Helvetica,sans-Serif" font-size="10.00">Turtle</text>
</a>
</g>
</g>
<!-- Node9&#45;&gt;Node10 -->
<g id="edge9" class="edge"><title>Node9&#45;&gt;Node10</title>
<path fill="none" stroke="midnightblue" d="M1519.5,-119.75C1543.04,-122.104 1569.65,-124.765 1593.98,-127.198"/>
<polygon fill="midnightblue" stroke="midnightblue" points="1593.95,-130.712 1604.25,-128.225 1594.64,-123.747 1593.95,-130.712"/>
</g>
<!-- Node13 -->
<g id="node13" class="node"><title>Node13</title>
<g id="a_node13"><a xlink:href="../../d8/df7/classview_1_1_turtle_view.html#ab5fdc3775e06339f4a68d1b795a81643" target="_top" xlink:title="view.TurtleView.getID">
<polygon fill="white" stroke="black" points="2003,-81.5 2003,-100.5 2117,-100.5 2117,-81.5 2003,-81.5"/>
<text text-anchor="middle" x="2060" y="-88.5" font-family="Helvetica,sans-Serif" font-size="10.00">view.TurtleView.getID</text>
</a>
</g>
</g>
<!-- Node9&#45;&gt;Node13 -->
<g id="edge15" class="edge"><title>Node9&#45;&gt;Node13</title>
<path fill="none" stroke="midnightblue" d="M1519.57,-110.551C1636.71,-106.305 1876.07,-97.63 1992.48,-93.4111"/>
<polygon fill="midnightblue" stroke="midnightblue" points="1992.81,-96.9015 2002.67,-93.0415 1992.55,-89.9061 1992.81,-96.9015"/>
</g>
<!-- Node11 -->
<g id="node11" class="node"><title>Node11</title>
<g id="a_node11"><a xlink:href="../../d1/dc7/classview_1_1_side_bar.html#a7d73038dbba05f96990b60664afa2670" target="_top" xlink:title="view.SideBar.updateTurtle\lProperties">
<polygon fill="white" stroke="black" points="1806,-120 1806,-150 1944,-150 1944,-120 1806,-120"/>
<text text-anchor="start" x="1814" y="-138" font-family="Helvetica,sans-Serif" font-size="10.00">view.SideBar.updateTurtle</text>
<text text-anchor="middle" x="1875" y="-127" font-family="Helvetica,sans-Serif" font-size="10.00">Properties</text>
</a>
</g>
</g>
<!-- Node10&#45;&gt;Node11 -->
<g id="edge10" class="edge"><title>Node10&#45;&gt;Node11</title>
<path fill="none" stroke="midnightblue" d="M1741.71,-135C1758.95,-135 1777.63,-135 1795.36,-135"/>
<polygon fill="midnightblue" stroke="midnightblue" points="1795.68,-138.5 1805.68,-135 1795.68,-131.5 1795.68,-138.5"/>
</g>
<!-- Node12 -->
<g id="node12" class="node"><title>Node12</title>
<g id="a_node12"><a xlink:href="../../da/d64/classview_1_1_workspace.html#ad460da1164f039e5ea9a265d446d13fe" target="_top" xlink:title="view.Workspace.getTurtleMap">
<polygon fill="white" stroke="black" points="1982.5,-195.5 1982.5,-214.5 2137.5,-214.5 2137.5,-195.5 1982.5,-195.5"/>
<text text-anchor="middle" x="2060" y="-202.5" font-family="Helvetica,sans-Serif" font-size="10.00">view.Workspace.getTurtleMap</text>
</a>
</g>
</g>
<!-- Node11&#45;&gt;Node12 -->
<g id="edge11" class="edge"><title>Node11&#45;&gt;Node12</title>
<path fill="none" stroke="midnightblue" d="M1902.66,-150.105C1923.26,-161.271 1952.76,-176.18 1980,-186 1987.01,-188.528 1994.5,-190.822 2001.96,-192.87"/>
<polygon fill="midnightblue" stroke="midnightblue" points="2001.15,-196.277 2011.71,-195.422 2002.92,-189.505 2001.15,-196.277"/>
</g>
<!-- Node11&#45;&gt;Node13 -->
<g id="edge12" class="edge"><title>Node11&#45;&gt;Node13</title>
<path fill="none" stroke="midnightblue" d="M1938.47,-119.981C1961.72,-114.389 1987.77,-108.126 2009.68,-102.857"/>
<polygon fill="midnightblue" stroke="midnightblue" points="2010.53,-106.253 2019.44,-100.512 2008.9,-99.4472 2010.53,-106.253"/>
</g>
<!-- Node14 -->
<g id="node14" class="node"><title>Node14</title>
<g id="a_node14"><a xlink:href="../../d8/df7/classview_1_1_turtle_view.html#a85b9acc922cc69f27c79bf13e3356e09" target="_top" xlink:title="view.TurtleView.getPenPosition">
<polygon fill="white" stroke="black" points="1980,-157.5 1980,-176.5 2140,-176.5 2140,-157.5 1980,-157.5"/>
<text text-anchor="middle" x="2060" y="-164.5" font-family="Helvetica,sans-Serif" font-size="10.00">view.TurtleView.getPenPosition</text>
</a>
</g>
</g>
<!-- Node11&#45;&gt;Node14 -->
<g id="edge13" class="edge"><title>Node11&#45;&gt;Node14</title>
<path fill="none" stroke="midnightblue" d="M1944.14,-146.916C1960.64,-149.8 1978.22,-152.874 1994.54,-155.727"/>
<polygon fill="midnightblue" stroke="midnightblue" points="1994.06,-159.197 2004.51,-157.472 1995.26,-152.302 1994.06,-159.197"/>
</g>
<!-- Node15 -->
<g id="node15" class="node"><title>Node15</title>
<g id="a_node15"><a xlink:href="../../d8/df7/classview_1_1_turtle_view.html#a5f7b22cd8ab69258535b18920a488b63" target="_top" xlink:title="view.TurtleView.isShowing">
<polygon fill="white" stroke="black" points="1992,-119.5 1992,-138.5 2128,-138.5 2128,-119.5 1992,-119.5"/>
<text text-anchor="middle" x="2060" y="-126.5" font-family="Helvetica,sans-Serif" font-size="10.00">view.TurtleView.isShowing</text>
</a>
</g>
</g>
<!-- Node11&#45;&gt;Node15 -->
<g id="edge14" class="edge"><title>Node11&#45;&gt;Node15</title>
<path fill="none" stroke="midnightblue" d="M1944.14,-132.766C1956.29,-132.368 1969.02,-131.95 1981.41,-131.544"/>
<polygon fill="midnightblue" stroke="midnightblue" points="1981.83,-135.032 1991.71,-131.206 1981.6,-128.036 1981.83,-135.032"/>
</g>
<!-- Node17 -->
<g id="node17" class="node"><title>Node17</title>
<g id="a_node17"><a xlink:href="../../d1/dca/classmodel_1_1_execution_environment.html#a93fd01341f06dfa81727344b120aef66" target="_top" xlink:title="model.ExecutionEnvironment.update\lObserver">
<polygon fill="white" stroke="black" points="1576,-27 1576,-57 1770,-57 1770,-27 1576,-27"/>
<text text-anchor="start" x="1584" y="-45" font-family="Helvetica,sans-Serif" font-size="10.00">model.ExecutionEnvironment.update</text>
<text text-anchor="middle" x="1673" y="-34" font-family="Helvetica,sans-Serif" font-size="10.00">Observer</text>
</a>
</g>
</g>
<!-- Node16&#45;&gt;Node17 -->
<g id="edge17" class="edge"><title>Node16&#45;&gt;Node17</title>
<path fill="none" stroke="midnightblue" d="M1540.21,-55.1785C1548.64,-54.3365 1557.23,-53.4767 1565.8,-52.62"/>
<polygon fill="midnightblue" stroke="midnightblue" points="1566.23,-56.0948 1575.83,-51.617 1565.53,-49.1295 1566.23,-56.0948"/>
</g>
<!-- Node18&#45;&gt;Node17 -->
<g id="edge19" class="edge"><title>Node18&#45;&gt;Node17</title>
<path fill="none" stroke="midnightblue" d="M1538.63,-25.6324C1547.64,-26.7378 1556.87,-27.87 1566.06,-28.9977"/>
<polygon fill="midnightblue" stroke="midnightblue" points="1565.65,-32.4737 1576,-30.218 1566.5,-25.5258 1565.65,-32.4737"/>
</g>
<!-- Node20 -->
<g id="node20" class="node"><title>Node20</title>
<g id="a_node20"><a xlink:href="../../d1/d75/classview_1_1_main_view.html#aa4922565e9617cd3337f4bee8fab92c1" target="_top" xlink:title="view.MainView.displayPage">
<polygon fill="white" stroke="black" points="628,-40.5 628,-59.5 770,-59.5 770,-40.5 628,-40.5"/>
<text text-anchor="middle" x="699" y="-47.5" font-family="Helvetica,sans-Serif" font-size="10.00">view.MainView.displayPage</text>
</a>
</g>
</g>
<!-- Node19&#45;&gt;Node20 -->
<g id="edge21" class="edge"><title>Node19&#45;&gt;Node20</title>
<path fill="none" stroke="midnightblue" d="M591.612,-50C600.309,-50 609.121,-50 617.758,-50"/>
<polygon fill="midnightblue" stroke="midnightblue" points="617.799,-53.5001 627.799,-50 617.799,-46.5001 617.799,-53.5001"/>
</g>
<!-- Node21 -->
<g id="node21" class="node"><title>Node21</title>
<g id="a_node21"><a xlink:href="../../d4/de2/classview_1_1_scene_setter.html#a475ae9393b2e2aec0f59ce044b08978c" target="_top" xlink:title="view.SceneSetter.setupScene">
<polygon fill="white" stroke="black" points="806,-40.5 806,-59.5 964,-59.5 964,-40.5 806,-40.5"/>
<text text-anchor="middle" x="885" y="-47.5" font-family="Helvetica,sans-Serif" font-size="10.00">view.SceneSetter.setupScene</text>
</a>
</g>
</g>
<!-- Node20&#45;&gt;Node21 -->
<g id="edge22" class="edge"><title>Node20&#45;&gt;Node21</title>
<path fill="none" stroke="midnightblue" d="M770.087,-50C778.482,-50 787.135,-50 795.744,-50"/>
<polygon fill="midnightblue" stroke="midnightblue" points="795.812,-53.5001 805.812,-50 795.812,-46.5001 795.812,-53.5001"/>
</g>
</g>
</svg>
