<?xml version="1.0" encoding="UTF-8" standalone="no"?>
<!DOCTYPE svg PUBLIC "-//W3C//DTD SVG 1.1//EN"
 "http://www.w3.org/Graphics/SVG/1.1/DTD/svg11.dtd">
<!-- Generated by graphviz version 2.36.0 (20140111.2315)
 -->
<!-- Title: view.VariableView.getValue Pages: 1 -->
<svg width="546pt" height="104pt"
 viewBox="0.00 0.00 546.00 104.00" xmlns="http://www.w3.org/2000/svg" xmlns:xlink="http://www.w3.org/1999/xlink">
<g id="graph0" class="graph" transform="scale(1 1) rotate(0) translate(4 100)">
<title>view.VariableView.getValue</title>
<polygon fill="white" stroke="none" points="-4,4 -4,-100 542,-100 542,4 -4,4"/>
<!-- Node1 -->
<g id="node1" class="node"><title>Node1</title>
<polygon fill="#bfbfbf" stroke="black" points="0.5,-38.5 0.5,-57.5 143.5,-57.5 143.5,-38.5 0.5,-38.5"/>
<text text-anchor="middle" x="72" y="-45.5" font-family="Helvetica,sans-Serif" font-size="10.00">view.VariableView.getValue</text>
</g>
<!-- Node2 -->
<g id="node2" class="node"><title>Node2</title>
<g id="a_node2"><a xlink:href="../../d1/dc7/classview_1_1_side_bar.html#a2dc05802f4e11129fd7d9e07d8b026e1" target="_top" xlink:title="view.SideBar.updateVariable">
<polygon fill="white" stroke="black" points="180.5,-38.5 180.5,-57.5 331.5,-57.5 331.5,-38.5 180.5,-38.5"/>
<text text-anchor="middle" x="256" y="-45.5" font-family="Helvetica,sans-Serif" font-size="10.00">view.SideBar.updateVariable</text>
</a>
</g>
</g>
<!-- Node1&#45;&gt;Node2 -->
<g id="edge1" class="edge"><title>Node1&#45;&gt;Node2</title>
<path fill="none" stroke="midnightblue" d="M153.842,-48C162.61,-48 171.506,-48 180.198,-48"/>
<polygon fill="midnightblue" stroke="midnightblue" points="153.626,-44.5001 143.626,-48 153.626,-51.5001 153.626,-44.5001"/>
</g>
<!-- Node3 -->
<g id="node3" class="node"><title>Node3</title>
<g id="a_node3"><a xlink:href="../../d6/de7/classview_1_1_s_logo_view.html#a2c08b9fa590f75ca8f2ec736a8a37e90" target="_top" xlink:title="view.SLogoView.update">
<polygon fill="white" stroke="black" points="389.5,-76.5 389.5,-95.5 516.5,-95.5 516.5,-76.5 389.5,-76.5"/>
<text text-anchor="middle" x="453" y="-83.5" font-family="Helvetica,sans-Serif" font-size="10.00">view.SLogoView.update</text>
</a>
</g>
</g>
<!-- Node2&#45;&gt;Node3 -->
<g id="edge2" class="edge"><title>Node2&#45;&gt;Node3</title>
<path fill="none" stroke="midnightblue" d="M315.959,-59.4894C343.782,-64.9114 376.596,-71.3058 403.025,-76.4561"/>
<polygon fill="midnightblue" stroke="midnightblue" points="316.44,-56.0174 305.955,-57.54 315.101,-62.8882 316.44,-56.0174"/>
</g>
<!-- Node4 -->
<g id="node4" class="node"><title>Node4</title>
<g id="a_node4"><a xlink:href="../../d6/de7/classview_1_1_s_logo_view.html#ab28315aa0d8f648072e5f727d078d218" target="_top" xlink:title="view.SLogoView.updateVariable">
<polygon fill="white" stroke="black" points="370.5,-38.5 370.5,-57.5 535.5,-57.5 535.5,-38.5 370.5,-38.5"/>
<text text-anchor="middle" x="453" y="-45.5" font-family="Helvetica,sans-Serif" font-size="10.00">view.SLogoView.updateVariable</text>
</a>
</g>
</g>
<!-- Node2&#45;&gt;Node4 -->
<g id="edge3" class="edge"><title>Node2&#45;&gt;Node4</title>
<path fill="none" stroke="midnightblue" d="M341.765,-48C351.248,-48 360.895,-48 370.339,-48"/>
<polygon fill="midnightblue" stroke="midnightblue" points="341.556,-44.5001 331.556,-48 341.556,-51.5001 341.556,-44.5001"/>
</g>
<!-- Node5 -->
<g id="node5" class="node"><title>Node5</title>
<g id="a_node5"><a xlink:href="../../d6/de7/classview_1_1_s_logo_view.html#aba44200de8094d8957a326b999b1168a" target="_top" xlink:title="view.SLogoView.updateVariables">
<polygon fill="white" stroke="black" points="368,-0.5 368,-19.5 538,-19.5 538,-0.5 368,-0.5"/>
<text text-anchor="middle" x="453" y="-7.5" font-family="Helvetica,sans-Serif" font-size="10.00">view.SLogoView.updateVariables</text>
</a>
</g>
</g>
<!-- Node2&#45;&gt;Node5 -->
<g id="edge4" class="edge"><title>Node2&#45;&gt;Node5</title>
<path fill="none" stroke="midnightblue" d="M315.959,-36.5106C343.782,-31.0886 376.596,-24.6942 403.025,-19.5439"/>
<polygon fill="midnightblue" stroke="midnightblue" points="315.101,-33.1118 305.955,-38.46 316.44,-39.9826 315.101,-33.1118"/>
</g>
</g>
</svg>
