<?xml version="1.0" encoding="UTF-8" standalone="no"?>
<!DOCTYPE svg PUBLIC "-//W3C//DTD SVG 1.1//EN"
 "http://www.w3.org/Graphics/SVG/1.1/DTD/svg11.dtd">
<!-- Generated by graphviz version 2.36.0 (20140111.2315)
 -->
<!-- Title: view.SideBar.SideBar Pages: 1 -->
<!--zoomable 417 -->
<svg id="main" version="1.1" xmlns="http://www.w3.org/2000/svg" xmlns:xlink="http://www.w3.org/1999/xlink" xml:space="preserve" onload="init(evt)">
<style type="text/css"><![CDATA[
.edge:hover path { stroke: red; }
.edge:hover polygon { stroke: red; fill: red; }
]]></style>
<script type="text/javascript"><![CDATA[
var edges = document.getElementsByTagName('g');
if (edges && edges.length) {
  for (var i=0;i<edges.length;i++) {
    if (edges[i].id.substr(0,4)=='edge') {
      edges[i].setAttribute('class','edge');
    }
  }
}
]]></script>
        <defs>
                <circle id="rim" cx="0" cy="0" r="7"/>
                <circle id="rim2" cx="0" cy="0" r="3.5"/>
                <g id="zoomPlus">
                        <use xlink:href="#rim" fill="#404040">
                                <set attributeName="fill" to="#808080" begin="zoomplus.mouseover" end="zoomplus.mouseout"/>
                        </use>
                        <path d="M-4,0h8M0,-4v8" fill="none" stroke="white" stroke-width="1.5" pointer-events="none"/>
                </g>
                <g id="zoomMin">
                        <use xlink:href="#rim" fill="#404040">
                                <set attributeName="fill" to="#808080" begin="zoomminus.mouseover" end="zoomminus.mouseout"/>
                        </use>
                        <path d="M-4,0h8" fill="none" stroke="white" stroke-width="1.5" pointer-events="none"/>
                </g>
                <g id="dirArrow">
                        <path fill="none" stroke="white" stroke-width="1.5" d="M0,-3.0v7 M-2.5,-0.5L0,-3.0L2.5,-0.5"/>
                </g>
               <g id="resetDef">
                       <use xlink:href="#rim2" fill="#404040">
                               <set attributeName="fill" to="#808080" begin="reset.mouseover" end="reset.mouseout"/>
                       </use>
               </g>
        </defs>

<script type="text/javascript">
var viewWidth = 1140;
var viewHeight = 417;
var sectionId = 'dynsection-2';
</script>
<script xlink:href="../../svgpan.js"/>
<svg id="graph" class="graph">
<g id="viewport">
<title>view.SideBar.SideBar</title>
<polygon fill="white" stroke="none" points="-4,4 -4,-413 1136,-413 1136,4 -4,4"/>
<!-- Node1 -->
<g id="node1" class="node"><title>Node1</title>
<polygon fill="#bfbfbf" stroke="black" points="0,-141.5 0,-160.5 116,-160.5 116,-141.5 0,-141.5"/>
<text text-anchor="middle" x="58" y="-148.5" font-family="Helvetica,sans-Serif" font-size="10.00">view.SideBar.SideBar</text>
</g>
<!-- Node2 -->
<g id="node2" class="node"><title>Node2</title>
<g id="a_node2"><a xlink:href="../../d1/dc7/classview_1_1_side_bar.html#a9e70a3dcc846be90d42957e25220b3b3" target="_top" xlink:title="view.SideBar.createTitleText">
<polygon fill="white" stroke="black" points="163,-210.5 163,-229.5 311,-229.5 311,-210.5 163,-210.5"/>
<text text-anchor="middle" x="237" y="-217.5" font-family="Helvetica,sans-Serif" font-size="10.00">view.SideBar.createTitleText</text>
</a>
</g>
</g>
<!-- Node1&#45;&gt;Node2 -->
<g id="edge1" class="edge"><title>Node1&#45;&gt;Node2</title>
<path fill="none" stroke="midnightblue" d="M74.2382,-160.568C92.2159,-171.485 123.298,-189.219 152,-200 159.868,-202.955 168.318,-205.575 176.718,-207.865"/>
<polygon fill="midnightblue" stroke="midnightblue" points="175.96,-211.285 186.518,-210.402 177.715,-204.508 175.96,-211.285"/>
</g>
<!-- Node3 -->
<g id="node3" class="node"><title>Node3</title>
<g id="a_node3"><a xlink:href="../../d1/dc7/classview_1_1_side_bar.html#ac9876e2d91b1407105ca9e7869ef4057" target="_top" xlink:title="view.SideBar.createTurtle\lPropertiesTable">
<polygon fill="white" stroke="black" points="169.5,-161 169.5,-191 304.5,-191 304.5,-161 169.5,-161"/>
<text text-anchor="start" x="177.5" y="-179" font-family="Helvetica,sans-Serif" font-size="10.00">view.SideBar.createTurtle</text>
<text text-anchor="middle" x="237" y="-168" font-family="Helvetica,sans-Serif" font-size="10.00">PropertiesTable</text>
</a>
</g>
</g>
<!-- Node1&#45;&gt;Node3 -->
<g id="edge2" class="edge"><title>Node1&#45;&gt;Node3</title>
<path fill="none" stroke="midnightblue" d="M116.467,-159.117C130.032,-161.033 144.711,-163.106 158.984,-165.122"/>
<polygon fill="midnightblue" stroke="midnightblue" points="158.893,-168.644 169.284,-166.577 159.872,-161.713 158.893,-168.644"/>
</g>
<!-- Node4 -->
<g id="node4" class="node"><title>Node4</title>
<g id="a_node4"><a xlink:href="../../d4/dd9/classcontroller_1_1_s_logo_controller.html#a1a88b376059e31c3f311d75fa640d848" target="_top" xlink:title="controller.SLogoController.parse\lInput">
<polygon fill="white" stroke="black" points="152,-112 152,-142 322,-142 322,-112 152,-112"/>
<text text-anchor="start" x="160" y="-130" font-family="Helvetica,sans-Serif" font-size="10.00">controller.SLogoController.parse</text>
<text text-anchor="middle" x="237" y="-119" font-family="Helvetica,sans-Serif" font-size="10.00">Input</text>
</a>
</g>
</g>
<!-- Node1&#45;&gt;Node4 -->
<g id="edge3" class="edge"><title>Node1&#45;&gt;Node4</title>
<path fill="none" stroke="midnightblue" d="M116.467,-143.208C124.593,-142.106 133.118,-140.95 141.717,-139.784"/>
<polygon fill="midnightblue" stroke="midnightblue" points="142.386,-143.226 151.825,-138.414 141.446,-136.289 142.386,-143.226"/>
</g>
<!-- Node18 -->
<g id="node18" class="node"><title>Node18</title>
<g id="a_node18"><a xlink:href="../../d1/dc7/classview_1_1_side_bar.html#a3280622f8ee5f57ff2109da71b606d79" target="_top" xlink:title="view.SideBar.setDimension\lRestrictions">
<polygon fill="white" stroke="black" points="164.5,-63 164.5,-93 309.5,-93 309.5,-63 164.5,-63"/>
<text text-anchor="start" x="172.5" y="-81" font-family="Helvetica,sans-Serif" font-size="10.00">view.SideBar.setDimension</text>
<text text-anchor="middle" x="237" y="-70" font-family="Helvetica,sans-Serif" font-size="10.00">Restrictions</text>
</a>
</g>
</g>
<!-- Node1&#45;&gt;Node18 -->
<g id="edge19" class="edge"><title>Node1&#45;&gt;Node18</title>
<path fill="none" stroke="midnightblue" d="M75.3577,-141.362C93.5953,-130.903 124.191,-114.2 152,-103 157.835,-100.65 163.977,-98.4069 170.173,-96.2975"/>
<polygon fill="midnightblue" stroke="midnightblue" points="171.511,-99.5422 179.919,-93.0968 169.326,-92.8917 171.511,-99.5422"/>
</g>
<!-- Node5 -->
<g id="node5" class="node"><title>Node5</title>
<g id="a_node5"><a xlink:href="../../dc/df5/classmodel_1_1_parser.html#ab83c099e5a13c82b1a12d7eedda6fbf9" target="_top" xlink:title="model.Parser.parseAndExecute">
<polygon fill="white" stroke="black" points="358,-117.5 358,-136.5 524,-136.5 524,-117.5 358,-117.5"/>
<text text-anchor="middle" x="441" y="-124.5" font-family="Helvetica,sans-Serif" font-size="10.00">model.Parser.parseAndExecute</text>
</a>
</g>
</g>
<!-- Node4&#45;&gt;Node5 -->
<g id="edge4" class="edge"><title>Node4&#45;&gt;Node5</title>
<path fill="none" stroke="midnightblue" d="M322.203,-127C330.592,-127 339.14,-127 347.607,-127"/>
<polygon fill="midnightblue" stroke="midnightblue" points="347.878,-130.5 357.878,-127 347.878,-123.5 347.878,-130.5"/>
</g>
<!-- Node6 -->
<g id="node6" class="node"><title>Node6</title>
<g id="a_node6"><a xlink:href="../../dc/df5/classmodel_1_1_parser.html#ae83c95a5190fc22b9b70b1a40b76661c" target="_top" xlink:title="model.Parser.makeTree">
<polygon fill="white" stroke="black" points="560,-169.5 560,-188.5 688,-188.5 688,-169.5 560,-169.5"/>
<text text-anchor="middle" x="624" y="-176.5" font-family="Helvetica,sans-Serif" font-size="10.00">model.Parser.makeTree</text>
</a>
</g>
</g>
<!-- Node5&#45;&gt;Node6 -->
<g id="edge5" class="edge"><title>Node5&#45;&gt;Node6</title>
<path fill="none" stroke="midnightblue" d="M475.198,-136.538C504.575,-144.977 547.636,-157.349 579.71,-166.563"/>
<polygon fill="midnightblue" stroke="midnightblue" points="579.129,-170.038 589.706,-169.435 581.062,-163.31 579.129,-170.038"/>
</g>
<!-- Node16 -->
<g id="node16" class="node"><title>Node16</title>
<g id="a_node16"><a xlink:href="../../d6/de7/classview_1_1_s_logo_view.html#acf8498d7311bed1575638cca1c3f8777" target="_top" xlink:title="view.SLogoView.openDialog">
<polygon fill="white" stroke="black" points="739.5,-0.5 739.5,-19.5 886.5,-19.5 886.5,-0.5 739.5,-0.5"/>
<text text-anchor="middle" x="813" y="-7.5" font-family="Helvetica,sans-Serif" font-size="10.00">view.SLogoView.openDialog</text>
</a>
</g>
</g>
<!-- Node5&#45;&gt;Node16 -->
<g id="edge18" class="edge"><title>Node5&#45;&gt;Node16</title>
<path fill="none" stroke="midnightblue" d="M466.2,-117.465C514.582,-98.6551 626.938,-56.2343 724,-29 733.27,-26.3989 743.175,-23.9494 752.871,-21.7293"/>
<polygon fill="midnightblue" stroke="midnightblue" points="753.866,-25.0935 762.865,-19.5019 752.343,-18.2611 753.866,-25.0935"/>
</g>
<!-- Node7 -->
<g id="node7" class="node"><title>Node7</title>
<g id="a_node7"><a xlink:href="../../d2/d19/classmodel_1_1_node.html#a59dd0ae47774a51a1590d7fd205b14d5" target="_top" xlink:title="model.Node.addChild">
<polygon fill="white" stroke="black" points="753.5,-389.5 753.5,-408.5 872.5,-408.5 872.5,-389.5 753.5,-389.5"/>
<text text-anchor="middle" x="813" y="-396.5" font-family="Helvetica,sans-Serif" font-size="10.00">model.Node.addChild</text>
</a>
</g>
</g>
<!-- Node6&#45;&gt;Node7 -->
<g id="edge6" class="edge"><title>Node6&#45;&gt;Node7</title>
<path fill="none" stroke="midnightblue" d="M626.77,-188.78C633.214,-221.42 658.571,-327.448 724,-379 729.838,-383.6 736.534,-387.181 743.57,-389.965"/>
<polygon fill="midnightblue" stroke="midnightblue" points="742.731,-393.376 753.325,-393.285 744.987,-386.75 742.731,-393.376"/>
</g>
<!-- Node8 -->
<g id="node8" class="node"><title>Node8</title>
<g id="a_node8"><a xlink:href="../../d1/dca/classmodel_1_1_execution_environment.html#a83ef2b9eaef50b67c0b978f2abb8200c" target="_top" xlink:title="model.ExecutionEnvironment.add\lCommand">
<polygon fill="white" stroke="black" points="724,-340 724,-370 902,-370 902,-340 724,-340"/>
<text text-anchor="start" x="732" y="-358" font-family="Helvetica,sans-Serif" font-size="10.00">model.ExecutionEnvironment.add</text>
<text text-anchor="middle" x="813" y="-347" font-family="Helvetica,sans-Serif" font-size="10.00">Command</text>
</a>
</g>
</g>
<!-- Node6&#45;&gt;Node8 -->
<g id="edge7" class="edge"><title>Node6&#45;&gt;Node8</title>
<path fill="none" stroke="midnightblue" d="M628.594,-188.863C638.94,-215.84 671.455,-291.395 724,-330 726.542,-331.867 729.219,-333.596 731.995,-335.195"/>
<polygon fill="midnightblue" stroke="midnightblue" points="730.656,-338.441 741.153,-339.877 733.842,-332.208 730.656,-338.441"/>
</g>
<!-- Node10 -->
<g id="node10" class="node"><title>Node10</title>
<g id="a_node10"><a xlink:href="../../d2/d19/classmodel_1_1_node.html#a30a55e40eef5514f8201573584ca9aea" target="_top" xlink:title="model.Node.getChildren">
<polygon fill="white" stroke="black" points="746.5,-301.5 746.5,-320.5 879.5,-320.5 879.5,-301.5 746.5,-301.5"/>
<text text-anchor="middle" x="813" y="-308.5" font-family="Helvetica,sans-Serif" font-size="10.00">model.Node.getChildren</text>
</a>
</g>
</g>
<!-- Node6&#45;&gt;Node10 -->
<g id="edge9" class="edge"><title>Node6&#45;&gt;Node10</title>
<path fill="none" stroke="midnightblue" d="M630.532,-188.604C643.69,-210.524 679.131,-264.396 724,-291 728.435,-293.629 733.183,-295.913 738.092,-297.897"/>
<polygon fill="midnightblue" stroke="midnightblue" points="737.093,-301.258 747.688,-301.354 739.466,-294.672 737.093,-301.258"/>
</g>
<!-- Node11 -->
<g id="node11" class="node"><title>Node11</title>
<g id="a_node11"><a xlink:href="../../d1/dca/classmodel_1_1_execution_environment.html#a296a88c7bb936eb502efc9d212bfe6db" target="_top" xlink:title="model.ExecutionEnvironment.get\lCommand">
<polygon fill="white" stroke="black" points="725,-252 725,-282 901,-282 901,-252 725,-252"/>
<text text-anchor="start" x="733" y="-270" font-family="Helvetica,sans-Serif" font-size="10.00">model.ExecutionEnvironment.get</text>
<text text-anchor="middle" x="813" y="-259" font-family="Helvetica,sans-Serif" font-size="10.00">Command</text>
</a>
</g>
</g>
<!-- Node6&#45;&gt;Node11 -->
<g id="edge10" class="edge"><title>Node6&#45;&gt;Node11</title>
<path fill="none" stroke="midnightblue" d="M637.451,-188.618C655.584,-202.218 690.729,-227.072 724,-242 729.291,-244.374 734.864,-246.58 740.529,-248.616"/>
<polygon fill="midnightblue" stroke="midnightblue" points="739.524,-251.971 750.118,-251.884 741.782,-245.346 739.524,-251.971"/>
</g>
<!-- Node12 -->
<g id="node12" class="node"><title>Node12</title>
<g id="a_node12"><a xlink:href="../../d2/d19/classmodel_1_1_node.html#a3036121af674a3a8ff49e82bd77ab5a4" target="_top" xlink:title="model.Node.getInstruction">
<polygon fill="white" stroke="black" points="741,-213.5 741,-232.5 885,-232.5 885,-213.5 741,-213.5"/>
<text text-anchor="middle" x="813" y="-220.5" font-family="Helvetica,sans-Serif" font-size="10.00">model.Node.getInstruction</text>
</a>
</g>
</g>
<!-- Node6&#45;&gt;Node12 -->
<g id="edge11" class="edge"><title>Node6&#45;&gt;Node12</title>
<path fill="none" stroke="midnightblue" d="M663.996,-188.59C682.212,-193.035 704.2,-198.35 724,-203 735.443,-205.687 747.737,-208.517 759.4,-211.175"/>
<polygon fill="midnightblue" stroke="midnightblue" points="758.923,-214.656 769.45,-213.459 760.474,-207.83 758.923,-214.656"/>
</g>
<!-- Node13 -->
<g id="node13" class="node"><title>Node13</title>
<g id="a_node13"><a xlink:href="../../d1/dea/classmodel_1_1instructions_1_1_instruction.html#afd4726dcbdbf559356c38970061d9b79" target="_top" xlink:title="model.instructions.Instruction.get\lNumberOfArguments">
<polygon fill="white" stroke="black" points="724.5,-164 724.5,-194 901.5,-194 901.5,-164 724.5,-164"/>
<text text-anchor="start" x="732.5" y="-182" font-family="Helvetica,sans-Serif" font-size="10.00">model.instructions.Instruction.get</text>
<text text-anchor="middle" x="813" y="-171" font-family="Helvetica,sans-Serif" font-size="10.00">NumberOfArguments</text>
</a>
</g>
</g>
<!-- Node6&#45;&gt;Node13 -->
<g id="edge12" class="edge"><title>Node6&#45;&gt;Node13</title>
<path fill="none" stroke="midnightblue" d="M688.049,-179C696.523,-179 705.372,-179 714.272,-179"/>
<polygon fill="midnightblue" stroke="midnightblue" points="714.325,-182.5 724.325,-179 714.325,-175.5 714.325,-182.5"/>
</g>
<!-- Node14 -->
<g id="node14" class="node"><title>Node14</title>
<g id="a_node14"><a xlink:href="../../d1/dca/classmodel_1_1_execution_environment.html#a7eac9bbab890abbeb7db1a095fca5fc8" target="_top" xlink:title="model.ExecutionEnvironment.get\lUserCommandMap">
<polygon fill="white" stroke="black" points="725,-115 725,-145 901,-145 901,-115 725,-115"/>
<text text-anchor="start" x="733" y="-133" font-family="Helvetica,sans-Serif" font-size="10.00">model.ExecutionEnvironment.get</text>
<text text-anchor="middle" x="813" y="-122" font-family="Helvetica,sans-Serif" font-size="10.00">UserCommandMap</text>
</a>
</g>
</g>
<!-- Node6&#45;&gt;Node14 -->
<g id="edge13" class="edge"><title>Node6&#45;&gt;Node14</title>
<path fill="none" stroke="midnightblue" d="M661.499,-169.436C685.174,-163.232 716.733,-154.963 744.836,-147.599"/>
<polygon fill="midnightblue" stroke="midnightblue" points="745.828,-150.957 754.614,-145.037 744.053,-144.186 745.828,-150.957"/>
</g>
<!-- Node15 -->
<g id="node15" class="node"><title>Node15</title>
<g id="a_node15"><a xlink:href="../../dc/df5/classmodel_1_1_parser.html#ae24603572f6f919b363a7cef0cbe45c0" target="_top" xlink:title="model.Parser.match">
<polygon fill="white" stroke="black" points="978.5,-57.5 978.5,-76.5 1091.5,-76.5 1091.5,-57.5 978.5,-57.5"/>
<text text-anchor="middle" x="1035" y="-64.5" font-family="Helvetica,sans-Serif" font-size="10.00">model.Parser.match</text>
</a>
</g>
</g>
<!-- Node6&#45;&gt;Node15 -->
<g id="edge14" class="edge"><title>Node6&#45;&gt;Node15</title>
<path fill="none" stroke="midnightblue" d="M634.354,-169.438C650.804,-153.286 686.721,-120.901 724,-106 803.964,-74.0372 903.969,-66.7189 968.406,-65.771"/>
<polygon fill="midnightblue" stroke="midnightblue" points="968.469,-69.2707 978.434,-65.6708 968.399,-62.271 968.469,-69.2707"/>
</g>
<!-- Node6&#45;&gt;Node16 -->
<g id="edge15" class="edge"><title>Node6&#45;&gt;Node16</title>
<path fill="none" stroke="midnightblue" d="M632.263,-169.306C644.278,-153.147 668.864,-119.557 688,-90 705.109,-63.5746 698.473,-47.4227 724,-29 726.662,-27.0792 729.479,-25.3456 732.408,-23.7816"/>
<polygon fill="midnightblue" stroke="midnightblue" points="733.882,-26.9559 741.488,-19.58 730.942,-20.603 733.882,-26.9559"/>
</g>
<!-- Node17 -->
<g id="node17" class="node"><title>Node17</title>
<g id="a_node17"><a xlink:href="../../dc/df5/classmodel_1_1_parser.html#a367f66d63cda3e0b2733b078c20a1f73" target="_top" xlink:title="model.Parser.testMatches">
<polygon fill="white" stroke="black" points="742.5,-38.5 742.5,-57.5 883.5,-57.5 883.5,-38.5 742.5,-38.5"/>
<text text-anchor="middle" x="813" y="-45.5" font-family="Helvetica,sans-Serif" font-size="10.00">model.Parser.testMatches</text>
</a>
</g>
</g>
<!-- Node6&#45;&gt;Node17 -->
<g id="edge16" class="edge"><title>Node6&#45;&gt;Node17</title>
<path fill="none" stroke="midnightblue" d="M631.134,-169.333C645.003,-148.287 680.939,-98.119 724,-72 731.575,-67.4054 740.042,-63.6727 748.649,-60.6448"/>
<polygon fill="midnightblue" stroke="midnightblue" points="749.936,-63.9077 758.386,-57.5171 747.795,-57.243 749.936,-63.9077"/>
</g>
<!-- Node9 -->
<g id="node9" class="node"><title>Node9</title>
<g id="a_node9"><a xlink:href="../../d1/dca/classmodel_1_1_execution_environment.html#a93fd01341f06dfa81727344b120aef66" target="_top" xlink:title="model.ExecutionEnvironment.update\lObserver">
<polygon fill="white" stroke="black" points="938,-340 938,-370 1132,-370 1132,-340 938,-340"/>
<text text-anchor="start" x="946" y="-358" font-family="Helvetica,sans-Serif" font-size="10.00">model.ExecutionEnvironment.update</text>
<text text-anchor="middle" x="1035" y="-347" font-family="Helvetica,sans-Serif" font-size="10.00">Observer</text>
</a>
</g>
</g>
<!-- Node8&#45;&gt;Node9 -->
<g id="edge8" class="edge"><title>Node8&#45;&gt;Node9</title>
<path fill="none" stroke="midnightblue" d="M902.215,-355C910.635,-355 919.233,-355 927.8,-355"/>
<polygon fill="midnightblue" stroke="midnightblue" points="927.83,-358.5 937.83,-355 927.83,-351.5 927.83,-358.5"/>
</g>
<!-- Node17&#45;&gt;Node15 -->
<g id="edge17" class="edge"><title>Node17&#45;&gt;Node15</title>
<path fill="none" stroke="midnightblue" d="M883.609,-54.0117C910.734,-56.3543 941.664,-59.0255 968.392,-61.3339"/>
<polygon fill="midnightblue" stroke="midnightblue" points="968.15,-64.8259 978.414,-62.1994 968.752,-57.8518 968.15,-64.8259"/>
</g>
</g>
</svg>
        <g id="navigator" transform="translate(0 0)" fill="#404254">
                <rect fill="#f2f5e9" fill-opacity="0.5" stroke="#606060" stroke-width=".5" x="0" y="0" width="60" height="60"/>
                <use id="zoomplus" xlink:href="#zoomPlus" x="17" y="9" onmousedown="handleZoom(evt,'in')"/>
                <use id="zoomminus" xlink:href="#zoomMin" x="42" y="9" onmousedown="handleZoom(evt,'out')"/>
                <use id="reset" xlink:href="#resetDef" x="30" y="36" onmousedown="handleReset()"/>
                <g id="arrowUp" xlink:href="#dirArrow" transform="translate(30 24)" onmousedown="handlePan(0,-1)">
                  <use xlink:href="#rim" fill="#404040">
                        <set attributeName="fill" to="#808080" begin="arrowUp.mouseover" end="arrowUp.mouseout"/>
                  </use>
                  <path fill="none" stroke="white" stroke-width="1.5" d="M0,-3.0v7 M-2.5,-0.5L0,-3.0L2.5,-0.5"/>
                </g>
                <g id="arrowRight" xlink:href="#dirArrow" transform="rotate(90) translate(36 -43)" onmousedown="handlePan(1,0)">
                  <use xlink:href="#rim" fill="#404040">
                        <set attributeName="fill" to="#808080" begin="arrowRight.mouseover" end="arrowRight.mouseout"/>
                  </use>
                  <path fill="none" stroke="white" stroke-width="1.5" d="M0,-3.0v7 M-2.5,-0.5L0,-3.0L2.5,-0.5"/>
                </g>
                <g id="arrowDown" xlink:href="#dirArrow" transform="rotate(180) translate(-30 -48)" onmousedown="handlePan(0,1)">
                  <use xlink:href="#rim" fill="#404040">
                        <set attributeName="fill" to="#808080" begin="arrowDown.mouseover" end="arrowDown.mouseout"/>
                  </use>
                  <path fill="none" stroke="white" stroke-width="1.5" d="M0,-3.0v7 M-2.5,-0.5L0,-3.0L2.5,-0.5"/>
                </g>
                <g id="arrowLeft" xlink:href="#dirArrow" transform="rotate(270) translate(-36 17)" onmousedown="handlePan(-1,0)">
                  <use xlink:href="#rim" fill="#404040">
                        <set attributeName="fill" to="#808080" begin="arrowLeft.mouseover" end="arrowLeft.mouseout"/>
                  </use>
                  <path fill="none" stroke="white" stroke-width="1.5" d="M0,-3.0v7 M-2.5,-0.5L0,-3.0L2.5,-0.5"/>
                </g>
        </g>
        <svg viewBox="0 0 15 15" width="100%" height="30px" preserveAspectRatio="xMaxYMin meet">
         <g id="arrow_out" transform="scale(0.3 0.3)">
          <a xlink:href="classview_1_1_side_bar_a0fa73b1ce839f52ea59de1b5d68d9195_cgraph_org.svg" target="_base">
           <rect id="button" ry="5" rx="5" y="6" x="6" height="38" width="38"
                fill="#f2f5e9" fill-opacity="0.5" stroke="#606060" stroke-width="1.0"/>
           <path id="arrow"
             d="M 11.500037,31.436501 C 11.940474,20.09759 22.043105,11.32322 32.158766,21.979434 L 37.068811,17.246167 C 37.068811,17.246167 37.088388,32 37.088388,32 L 22.160133,31.978069 C 22.160133,31.978069 26.997745,27.140456 26.997745,27.140456 C 18.528582,18.264221 13.291696,25.230495 11.500037,31.436501 z"
             style="fill:#404040;"/>
          </a>
         </g>
        </svg>
</svg>
