<?xml version="1.0" encoding="UTF-8" standalone="no"?>
<!DOCTYPE svg PUBLIC "-//W3C//DTD SVG 1.1//EN"
 "http://www.w3.org/Graphics/SVG/1.1/DTD/svg11.dtd">
<!-- Generated by graphviz version 2.36.0 (20140111.2315)
 -->
<!-- Title: view.SideBar.updateTurtleProperties Pages: 1 -->
<!--zoomable 311 -->
<svg id="main" version="1.1" xmlns="http://www.w3.org/2000/svg" xmlns:xlink="http://www.w3.org/1999/xlink" xml:space="preserve" onload="init(evt)">
<style type="text/css"><![CDATA[
.edge:hover path { stroke: red; }
.edge:hover polygon { stroke: red; fill: red; }
]]></style>
<script type="text/javascript"><![CDATA[
var edges = document.getElementsByTagName('g');
if (edges && edges.length) {
  for (var i=0;i<edges.length;i++) {
    if (edges[i].id.substr(0,4)=='edge') {
      edges[i].setAttribute('class','edge');
    }
  }
}
]]></script>
        <defs>
                <circle id="rim" cx="0" cy="0" r="7"/>
                <circle id="rim2" cx="0" cy="0" r="3.5"/>
                <g id="zoomPlus">
                        <use xlink:href="#rim" fill="#404040">
                                <set attributeName="fill" to="#808080" begin="zoomplus.mouseover" end="zoomplus.mouseout"/>
                        </use>
                        <path d="M-4,0h8M0,-4v8" fill="none" stroke="white" stroke-width="1.5" pointer-events="none"/>
                </g>
                <g id="zoomMin">
                        <use xlink:href="#rim" fill="#404040">
                                <set attributeName="fill" to="#808080" begin="zoomminus.mouseover" end="zoomminus.mouseout"/>
                        </use>
                        <path d="M-4,0h8" fill="none" stroke="white" stroke-width="1.5" pointer-events="none"/>
                </g>
                <g id="dirArrow">
                        <path fill="none" stroke="white" stroke-width="1.5" d="M0,-3.0v7 M-2.5,-0.5L0,-3.0L2.5,-0.5"/>
                </g>
               <g id="resetDef">
                       <use xlink:href="#rim2" fill="#404040">
                               <set attributeName="fill" to="#808080" begin="reset.mouseover" end="reset.mouseout"/>
                       </use>
               </g>
        </defs>

<script type="text/javascript">
var viewWidth = 2068;
var viewHeight = 311;
var sectionId = 'dynsection-18';
</script>
<script xlink:href="../../svgpan.js"/>
<svg id="graph" class="graph">
<g id="viewport">
<title>view.SideBar.updateTurtleProperties</title>
<polygon fill="white" stroke="none" points="-4,4 -4,-307 2064,-307 2064,4 -4,4"/>
<!-- Node1 -->
<g id="node1" class="node"><title>Node1</title>
<polygon fill="#bfbfbf" stroke="black" points="0,-109 0,-139 138,-139 138,-109 0,-109"/>
<text text-anchor="start" x="8" y="-127" font-family="Helvetica,sans-Serif" font-size="10.00">view.SideBar.updateTurtle</text>
<text text-anchor="middle" x="69" y="-116" font-family="Helvetica,sans-Serif" font-size="10.00">Properties</text>
</g>
<!-- Node2 -->
<g id="node2" class="node"><title>Node2</title>
<g id="a_node2"><a xlink:href="../../d6/de7/classview_1_1_s_logo_view.html#adc4b93dcbcbac6952cd976e41b68804c" target="_top" xlink:title="view.SLogoView.clearScreen">
<polygon fill="white" stroke="black" points="577,-202.5 577,-221.5 727,-221.5 727,-202.5 577,-202.5"/>
<text text-anchor="middle" x="652" y="-209.5" font-family="Helvetica,sans-Serif" font-size="10.00">view.SLogoView.clearScreen</text>
</a>
</g>
</g>
<!-- Node1&#45;&gt;Node2 -->
<g id="edge1" class="edge"><title>Node1&#45;&gt;Node2</title>
<path fill="none" stroke="midnightblue" d="M99.014,-144.84C119.049,-158.022 146.873,-174.03 174,-182 311.926,-222.524 481.634,-221.938 576.936,-217.325"/>
<polygon fill="midnightblue" stroke="midnightblue" points="100.907,-141.895 90.6589,-139.208 96.9949,-147.7 100.907,-141.895"/>
</g>
<!-- Node4 -->
<g id="node4" class="node"><title>Node4</title>
<g id="a_node4"><a xlink:href="../../de/d0a/classview_1_1_drawer.html#a6b9f362b8bc763689630b1fe7b5c1887" target="_top" xlink:title="view.Drawer.draw">
<polygon fill="white" stroke="black" points="199,-153.5 199,-172.5 297,-172.5 297,-153.5 199,-153.5"/>
<text text-anchor="middle" x="248" y="-160.5" font-family="Helvetica,sans-Serif" font-size="10.00">view.Drawer.draw</text>
</a>
</g>
</g>
<!-- Node1&#45;&gt;Node4 -->
<g id="edge3" class="edge"><title>Node1&#45;&gt;Node4</title>
<path fill="none" stroke="midnightblue" d="M148.079,-141.204C167.159,-145.408 186.895,-149.757 203.672,-153.453"/>
<polygon fill="midnightblue" stroke="midnightblue" points="148.699,-137.756 138.18,-139.023 147.192,-144.592 148.699,-137.756"/>
</g>
<!-- Node7 -->
<g id="node7" class="node"><title>Node7</title>
<g id="a_node7"><a xlink:href="../../da/d64/classview_1_1_workspace.html#a16bda9a6a7fe7f8d3d7b09108675f9c4" target="_top" xlink:title="view.Workspace.setActive\lTurtle">
<polygon fill="white" stroke="black" points="179.5,-234 179.5,-264 316.5,-264 316.5,-234 179.5,-234"/>
<text text-anchor="start" x="187.5" y="-252" font-family="Helvetica,sans-Serif" font-size="10.00">view.Workspace.setActive</text>
<text text-anchor="middle" x="248" y="-241" font-family="Helvetica,sans-Serif" font-size="10.00">Turtle</text>
</a>
</g>
</g>
<!-- Node1&#45;&gt;Node7 -->
<g id="edge7" class="edge"><title>Node1&#45;&gt;Node7</title>
<path fill="none" stroke="midnightblue" d="M91.4186,-146.458C111.412,-166.524 142.776,-195.791 174,-216 184.509,-222.801 196.651,-228.899 207.979,-233.947"/>
<polygon fill="midnightblue" stroke="midnightblue" points="93.8438,-143.932 84.3368,-139.256 88.8525,-148.84 93.8438,-143.932"/>
</g>
<!-- Node19 -->
<g id="node19" class="node"><title>Node19</title>
<g id="a_node19"><a xlink:href="../../d6/de7/classview_1_1_s_logo_view.html#ae7ad67f4b629b134cb805842a20f4050" target="_top" xlink:title="view.SLogoView.setHeading">
<polygon fill="white" stroke="black" points="174,-38.5 174,-57.5 322,-57.5 322,-38.5 174,-38.5"/>
<text text-anchor="middle" x="248" y="-45.5" font-family="Helvetica,sans-Serif" font-size="10.00">view.SLogoView.setHeading</text>
</a>
</g>
</g>
<!-- Node1&#45;&gt;Node19 -->
<g id="edge21" class="edge"><title>Node1&#45;&gt;Node19</title>
<path fill="none" stroke="midnightblue" d="M102.267,-103.607C122.308,-91.6346 148.942,-76.9502 174,-67 183.25,-63.3268 193.442,-60.16 203.201,-57.5227"/>
<polygon fill="midnightblue" stroke="midnightblue" points="100.289,-100.713 93.5521,-108.89 103.918,-106.699 100.289,-100.713"/>
</g>
<!-- Node21 -->
<g id="node21" class="node"><title>Node21</title>
<g id="a_node21"><a xlink:href="../../d6/de7/classview_1_1_s_logo_view.html#a978a65a0b82bac25044f7e2816a680cc" target="_top" xlink:title="view.SLogoView.setPenUp">
<polygon fill="white" stroke="black" points="377,-0.5 377,-19.5 517,-19.5 517,-0.5 377,-0.5"/>
<text text-anchor="middle" x="447" y="-7.5" font-family="Helvetica,sans-Serif" font-size="10.00">view.SLogoView.setPenUp</text>
</a>
</g>
</g>
<!-- Node1&#45;&gt;Node21 -->
<g id="edge24" class="edge"><title>Node1&#45;&gt;Node21</title>
<path fill="none" stroke="midnightblue" d="M87.3157,-100.957C105.928,-78.1724 137.767,-44.5318 174,-29 238.719,-1.25734 320.061,0.660183 376.858,-2.6024"/>
<polygon fill="midnightblue" stroke="midnightblue" points="84.5583,-98.8011 81.0735,-108.806 90.0371,-103.158 84.5583,-98.8011"/>
</g>
<!-- Node22 -->
<g id="node22" class="node"><title>Node22</title>
<g id="a_node22"><a xlink:href="../../d6/de7/classview_1_1_s_logo_view.html#a0948ea67bfc088f941e2af79727231ad" target="_top" xlink:title="view.SLogoView.setXY">
<polygon fill="white" stroke="black" points="592.5,-114.5 592.5,-133.5 711.5,-133.5 711.5,-114.5 592.5,-114.5"/>
<text text-anchor="middle" x="652" y="-121.5" font-family="Helvetica,sans-Serif" font-size="10.00">view.SLogoView.setXY</text>
</a>
</g>
</g>
<!-- Node1&#45;&gt;Node22 -->
<g id="edge26" class="edge"><title>Node1&#45;&gt;Node22</title>
<path fill="none" stroke="midnightblue" d="M148.12,-124C266.122,-124 487.194,-124 592.43,-124"/>
<polygon fill="midnightblue" stroke="midnightblue" points="148.071,-120.5 138.071,-124 148.071,-127.5 148.071,-120.5"/>
</g>
<!-- Node23 -->
<g id="node23" class="node"><title>Node23</title>
<g id="a_node23"><a xlink:href="../../d6/de7/classview_1_1_s_logo_view.html#a00710838e28dcb10fe6da3c0ec0c4e20" target="_top" xlink:title="view.SLogoView.showTurtle">
<polygon fill="white" stroke="black" points="176.5,-76.5 176.5,-95.5 319.5,-95.5 319.5,-76.5 176.5,-76.5"/>
<text text-anchor="middle" x="248" y="-83.5" font-family="Helvetica,sans-Serif" font-size="10.00">view.SLogoView.showTurtle</text>
</a>
</g>
</g>
<!-- Node1&#45;&gt;Node23 -->
<g id="edge28" class="edge"><title>Node1&#45;&gt;Node23</title>
<path fill="none" stroke="midnightblue" d="M148.16,-107.22C166.819,-103.214 186.099,-99.0748 202.622,-95.5275"/>
<polygon fill="midnightblue" stroke="midnightblue" points="147.222,-103.841 138.18,-109.363 148.692,-110.685 147.222,-103.841"/>
</g>
<!-- Node3 -->
<g id="node3" class="node"><title>Node3</title>
<g id="a_node3"><a xlink:href="../../d1/dd3/classmodel_1_1instructions_1_1_movement_instruction.html#a33e802cec8283d190a8daac6e485e3b4" target="_top" xlink:title="model.instructions.Movement\lInstruction.execute">
<polygon fill="white" stroke="black" points="768.5,-90 768.5,-120 927.5,-120 927.5,-90 768.5,-90"/>
<text text-anchor="start" x="776.5" y="-108" font-family="Helvetica,sans-Serif" font-size="10.00">model.instructions.Movement</text>
<text text-anchor="middle" x="848" y="-97" font-family="Helvetica,sans-Serif" font-size="10.00">Instruction.execute</text>
</a>
</g>
</g>
<!-- Node2&#45;&gt;Node3 -->
<g id="edge2" class="edge"><title>Node2&#45;&gt;Node3</title>
<path fill="none" stroke="midnightblue" d="M712.991,-199.536C719.542,-197.379 726.002,-194.881 732,-192 771.266,-173.139 810.282,-139.725 831.248,-120.255"/>
<polygon fill="midnightblue" stroke="midnightblue" points="711.923,-196.203 703.373,-202.459 713.958,-202.9 711.923,-196.203"/>
</g>
<!-- Node5 -->
<g id="node5" class="node"><title>Node5</title>
<g id="a_node5"><a xlink:href="../../d6/de7/classview_1_1_s_logo_view.html#ae9c11c883a794eb50ed92ed27dbc039a" target="_top" xlink:title="view.SLogoView.updateWorkspace">
<polygon fill="white" stroke="black" points="358,-154.5 358,-173.5 536,-173.5 536,-154.5 358,-154.5"/>
<text text-anchor="middle" x="447" y="-161.5" font-family="Helvetica,sans-Serif" font-size="10.00">view.SLogoView.updateWorkspace</text>
</a>
</g>
</g>
<!-- Node4&#45;&gt;Node5 -->
<g id="edge4" class="edge"><title>Node4&#45;&gt;Node5</title>
<path fill="none" stroke="midnightblue" d="M307.364,-163.296C323.244,-163.377 340.804,-163.466 357.938,-163.553"/>
<polygon fill="midnightblue" stroke="midnightblue" points="307.209,-159.796 297.192,-163.245 307.174,-166.795 307.209,-159.796"/>
</g>
<!-- Node6 -->
<g id="node6" class="node"><title>Node6</title>
<g id="a_node6"><a xlink:href="../../d1/dd3/classmodel_1_1instructions_1_1_movement_instruction.html#a51c776093aeb820937b12e2b89eb2f89" target="_top" xlink:title="model.instructions.Movement\lInstruction.updateView">
<polygon fill="white" stroke="black" points="572.5,-153 572.5,-183 731.5,-183 731.5,-153 572.5,-153"/>
<text text-anchor="start" x="580.5" y="-171" font-family="Helvetica,sans-Serif" font-size="10.00">model.instructions.Movement</text>
<text text-anchor="middle" x="652" y="-160" font-family="Helvetica,sans-Serif" font-size="10.00">Instruction.updateView</text>
</a>
</g>
</g>
<!-- Node5&#45;&gt;Node6 -->
<g id="edge5" class="edge"><title>Node5&#45;&gt;Node6</title>
<path fill="none" stroke="midnightblue" d="M546.4,-165.939C555.155,-166.111 563.94,-166.285 572.495,-166.453"/>
<polygon fill="midnightblue" stroke="midnightblue" points="546.22,-162.435 536.153,-165.737 546.082,-169.433 546.22,-162.435"/>
</g>
<!-- Node6&#45;&gt;Node3 -->
<g id="edge6" class="edge"><title>Node6&#45;&gt;Node3</title>
<path fill="none" stroke="midnightblue" d="M710.762,-149.814C717.918,-147.533 725.131,-145.222 732,-143 755.108,-135.526 780.773,-127.061 801.985,-120.021"/>
<polygon fill="midnightblue" stroke="midnightblue" points="709.544,-146.528 701.075,-152.893 711.665,-153.199 709.544,-146.528"/>
</g>
<!-- Node8 -->
<g id="node8" class="node"><title>Node8</title>
<g id="a_node8"><a xlink:href="../../da/d64/classview_1_1_workspace.html#abbd85b844575ebab6643ba4ddc5a1612" target="_top" xlink:title="view.Workspace.Workspace">
<polygon fill="white" stroke="black" points="776,-283.5 776,-302.5 920,-302.5 920,-283.5 776,-283.5"/>
<text text-anchor="middle" x="848" y="-290.5" font-family="Helvetica,sans-Serif" font-size="10.00">view.Workspace.Workspace</text>
</a>
</g>
</g>
<!-- Node7&#45;&gt;Node8 -->
<g id="edge8" class="edge"><title>Node7&#45;&gt;Node8</title>
<path fill="none" stroke="midnightblue" d="M318.26,-266.161C331.387,-268.869 345.06,-271.324 358,-273 505.671,-292.126 680.323,-294.439 775.811,-293.994"/>
<polygon fill="midnightblue" stroke="midnightblue" points="318.86,-262.711 308.35,-264.05 317.401,-269.557 318.86,-262.711"/>
</g>
<!-- Node9 -->
<g id="node9" class="node"><title>Node9</title>
<g id="a_node9"><a xlink:href="../../da/d64/classview_1_1_workspace.html#a9eea72f983d5e7ad5af85056d927e380" target="_top" xlink:title="view.Workspace.configure\lTurtleEventHandler">
<polygon fill="white" stroke="black" points="378.5,-234 378.5,-264 515.5,-264 515.5,-234 378.5,-234"/>
<text text-anchor="start" x="386.5" y="-252" font-family="Helvetica,sans-Serif" font-size="10.00">view.Workspace.configure</text>
<text text-anchor="middle" x="447" y="-241" font-family="Helvetica,sans-Serif" font-size="10.00">TurtleEventHandler</text>
</a>
</g>
</g>
<!-- Node7&#45;&gt;Node9 -->
<g id="edge9" class="edge"><title>Node7&#45;&gt;Node9</title>
<path fill="none" stroke="midnightblue" d="M326.949,-249C343.904,-249 361.71,-249 378.233,-249"/>
<polygon fill="midnightblue" stroke="midnightblue" points="326.521,-245.5 316.521,-249 326.521,-252.5 326.521,-245.5"/>
</g>
<!-- Node10 -->
<g id="node10" class="node"><title>Node10</title>
<g id="a_node10"><a xlink:href="../../da/d64/classview_1_1_workspace.html#a58b943798f78aa9414a854dcd54fa7ae" target="_top" xlink:title="view.Workspace.addTurtle">
<polygon fill="white" stroke="black" points="583.5,-240.5 583.5,-259.5 720.5,-259.5 720.5,-240.5 583.5,-240.5"/>
<text text-anchor="middle" x="652" y="-247.5" font-family="Helvetica,sans-Serif" font-size="10.00">view.Workspace.addTurtle</text>
</a>
</g>
</g>
<!-- Node9&#45;&gt;Node10 -->
<g id="edge10" class="edge"><title>Node9&#45;&gt;Node10</title>
<path fill="none" stroke="midnightblue" d="M525.706,-249.383C544.7,-249.476 564.872,-249.576 583.353,-249.667"/>
<polygon fill="midnightblue" stroke="midnightblue" points="525.613,-245.882 515.596,-249.333 525.579,-252.882 525.613,-245.882"/>
</g>
<!-- Node10&#45;&gt;Node8 -->
<g id="edge20" class="edge"><title>Node10&#45;&gt;Node8</title>
<path fill="none" stroke="midnightblue" d="M706.185,-261.788C736.969,-268.612 775.208,-277.087 804.065,-283.484"/>
<polygon fill="midnightblue" stroke="midnightblue" points="706.575,-258.29 696.055,-259.543 705.061,-265.124 706.575,-258.29"/>
</g>
<!-- Node11 -->
<g id="node11" class="node"><title>Node11</title>
<g id="a_node11"><a xlink:href="../../d6/de7/classview_1_1_s_logo_view.html#acf432f20e1a7dda7bef97f0619fb0fa5" target="_top" xlink:title="view.SLogoView.configure\lAddTurtlesButton">
<polygon fill="white" stroke="black" points="779.5,-234 779.5,-264 916.5,-264 916.5,-234 779.5,-234"/>
<text text-anchor="start" x="787.5" y="-252" font-family="Helvetica,sans-Serif" font-size="10.00">view.SLogoView.configure</text>
<text text-anchor="middle" x="848" y="-241" font-family="Helvetica,sans-Serif" font-size="10.00">AddTurtlesButton</text>
</a>
</g>
</g>
<!-- Node10&#45;&gt;Node11 -->
<g id="edge11" class="edge"><title>Node10&#45;&gt;Node11</title>
<path fill="none" stroke="midnightblue" d="M730.979,-249.598C746.99,-249.516 763.722,-249.429 779.334,-249.349"/>
<polygon fill="midnightblue" stroke="midnightblue" points="730.561,-246.1 720.579,-249.652 730.597,-253.1 730.561,-246.1"/>
</g>
<!-- Node12 -->
<g id="node12" class="node"><title>Node12</title>
<g id="a_node12"><a xlink:href="../../d6/de7/classview_1_1_s_logo_view.html#ae0050481c9168dd8eeb434d9aa79b047" target="_top" xlink:title="view.SLogoView.configureUI">
<polygon fill="white" stroke="black" points="964.5,-239.5 964.5,-258.5 1111.5,-258.5 1111.5,-239.5 964.5,-239.5"/>
<text text-anchor="middle" x="1038" y="-246.5" font-family="Helvetica,sans-Serif" font-size="10.00">view.SLogoView.configureUI</text>
</a>
</g>
</g>
<!-- Node11&#45;&gt;Node12 -->
<g id="edge12" class="edge"><title>Node11&#45;&gt;Node12</title>
<path fill="none" stroke="midnightblue" d="M926.891,-249C939.266,-249 952.024,-249 964.274,-249"/>
<polygon fill="midnightblue" stroke="midnightblue" points="926.607,-245.5 916.607,-249 926.607,-252.5 926.607,-245.5"/>
</g>
<!-- Node13 -->
<g id="node13" class="node"><title>Node13</title>
<g id="a_node13"><a xlink:href="../../d1/d75/classview_1_1_main_view.html#ade3718ede33fa2086649c8b3cf75d2f9" target="_top" xlink:title="view.MainView.initTabs">
<polygon fill="white" stroke="black" points="1329.5,-258.5 1329.5,-277.5 1450.5,-277.5 1450.5,-258.5 1329.5,-258.5"/>
<text text-anchor="middle" x="1390" y="-265.5" font-family="Helvetica,sans-Serif" font-size="10.00">view.MainView.initTabs</text>
</a>
</g>
</g>
<!-- Node12&#45;&gt;Node13 -->
<g id="edge13" class="edge"><title>Node12&#45;&gt;Node13</title>
<path fill="none" stroke="midnightblue" d="M1121.56,-253.482C1185.37,-256.946 1272.18,-261.658 1329.36,-264.762"/>
<polygon fill="midnightblue" stroke="midnightblue" points="1121.7,-249.984 1111.52,-252.937 1121.32,-256.974 1121.7,-249.984"/>
</g>
<!-- Node15 -->
<g id="node15" class="node"><title>Node15</title>
<g id="a_node15"><a xlink:href="../../d1/d75/classview_1_1_main_view.html#a39a2b399924a553ccd89dd2a2e6ea208" target="_top" xlink:title="view.MainView.newTab">
<polygon fill="white" stroke="black" points="1148,-220.5 1148,-239.5 1268,-239.5 1268,-220.5 1148,-220.5"/>
<text text-anchor="middle" x="1208" y="-227.5" font-family="Helvetica,sans-Serif" font-size="10.00">view.MainView.newTab</text>
</a>
</g>
</g>
<!-- Node12&#45;&gt;Node15 -->
<g id="edge15" class="edge"><title>Node12&#45;&gt;Node15</title>
<path fill="none" stroke="midnightblue" d="M1121.65,-239.652C1130.49,-238.653 1139.34,-237.652 1147.82,-236.693"/>
<polygon fill="midnightblue" stroke="midnightblue" points="1121.25,-236.175 1111.71,-240.777 1122.04,-243.131 1121.25,-236.175"/>
</g>
<!-- Node14 -->
<g id="node14" class="node"><title>Node14</title>
<g id="a_node14"><a xlink:href="../../d1/d75/classview_1_1_main_view.html#a9e27015c007bed90f32c79fc1187083f" target="_top" xlink:title="view.MainView.MainView">
<polygon fill="white" stroke="black" points="1930,-239.5 1930,-258.5 2060,-258.5 2060,-239.5 1930,-239.5"/>
<text text-anchor="middle" x="1995" y="-246.5" font-family="Helvetica,sans-Serif" font-size="10.00">view.MainView.MainView</text>
</a>
</g>
</g>
<!-- Node13&#45;&gt;Node14 -->
<g id="edge14" class="edge"><title>Node13&#45;&gt;Node14</title>
<path fill="none" stroke="midnightblue" d="M1460.74,-265.803C1578.6,-262.089 1815.48,-254.625 1929.62,-251.029"/>
<polygon fill="midnightblue" stroke="midnightblue" points="1460.63,-262.304 1450.75,-266.117 1460.85,-269.301 1460.63,-262.304"/>
</g>
<!-- Node16 -->
<g id="node16" class="node"><title>Node16</title>
<g id="a_node16"><a xlink:href="../../d1/d75/classview_1_1_main_view.html#a0424800b5057be73f94e16ef2e1e2b33" target="_top" xlink:title="view.MainView.configureFileMenu">
<polygon fill="white" stroke="black" points="1304.5,-220.5 1304.5,-239.5 1475.5,-239.5 1475.5,-220.5 1304.5,-220.5"/>
<text text-anchor="middle" x="1390" y="-227.5" font-family="Helvetica,sans-Serif" font-size="10.00">view.MainView.configureFileMenu</text>
</a>
</g>
</g>
<!-- Node15&#45;&gt;Node16 -->
<g id="edge16" class="edge"><title>Node15&#45;&gt;Node16</title>
<path fill="none" stroke="midnightblue" d="M1278.55,-230C1286.96,-230 1295.62,-230 1304.22,-230"/>
<polygon fill="midnightblue" stroke="midnightblue" points="1278.44,-226.5 1268.44,-230 1278.44,-233.5 1278.44,-226.5"/>
</g>
<!-- Node17 -->
<g id="node17" class="node"><title>Node17</title>
<g id="a_node17"><a xlink:href="../../d1/d75/classview_1_1_main_view.html#a200c2c8e08e038e2ea86acc40c17d8d2" target="_top" xlink:title="view.MainView.configureTopMenu">
<polygon fill="white" stroke="black" points="1512,-220.5 1512,-239.5 1684,-239.5 1684,-220.5 1512,-220.5"/>
<text text-anchor="middle" x="1598" y="-227.5" font-family="Helvetica,sans-Serif" font-size="10.00">view.MainView.configureTopMenu</text>
</a>
</g>
</g>
<!-- Node16&#45;&gt;Node17 -->
<g id="edge17" class="edge"><title>Node16&#45;&gt;Node17</title>
<path fill="none" stroke="midnightblue" d="M1485.86,-230C1494.57,-230 1503.36,-230 1511.98,-230"/>
<polygon fill="midnightblue" stroke="midnightblue" points="1485.68,-226.5 1475.68,-230 1485.68,-233.5 1485.68,-226.5"/>
</g>
<!-- Node18 -->
<g id="node18" class="node"><title>Node18</title>
<g id="a_node18"><a xlink:href="../../d1/d75/classview_1_1_main_view.html#aff9e267e9368512a16e425f08d7b3ea0" target="_top" xlink:title="view.MainView.initRowConstraints">
<polygon fill="white" stroke="black" points="1720.5,-220.5 1720.5,-239.5 1893.5,-239.5 1893.5,-220.5 1720.5,-220.5"/>
<text text-anchor="middle" x="1807" y="-227.5" font-family="Helvetica,sans-Serif" font-size="10.00">view.MainView.initRowConstraints</text>
</a>
</g>
</g>
<!-- Node17&#45;&gt;Node18 -->
<g id="edge18" class="edge"><title>Node17&#45;&gt;Node18</title>
<path fill="none" stroke="midnightblue" d="M1694.22,-230C1702.9,-230 1711.65,-230 1720.24,-230"/>
<polygon fill="midnightblue" stroke="midnightblue" points="1694.09,-226.5 1684.09,-230 1694.09,-233.5 1694.09,-226.5"/>
</g>
<!-- Node18&#45;&gt;Node14 -->
<g id="edge19" class="edge"><title>Node18&#45;&gt;Node14</title>
<path fill="none" stroke="midnightblue" d="M1903.68,-239.774C1912.57,-240.682 1921.43,-241.587 1929.92,-242.455"/>
<polygon fill="midnightblue" stroke="midnightblue" points="1903.95,-236.284 1893.65,-238.749 1903.24,-243.247 1903.95,-236.284"/>
</g>
<!-- Node20 -->
<g id="node20" class="node"><title>Node20</title>
<g id="a_node20"><a xlink:href="../../d6/de7/classview_1_1_s_logo_view.html#afa2b659c4d080b5f927978b453633ab2" target="_top" xlink:title="view.SLogoView.towards">
<polygon fill="white" stroke="black" points="381.5,-38.5 381.5,-57.5 512.5,-57.5 512.5,-38.5 381.5,-38.5"/>
<text text-anchor="middle" x="447" y="-45.5" font-family="Helvetica,sans-Serif" font-size="10.00">view.SLogoView.towards</text>
</a>
</g>
</g>
<!-- Node19&#45;&gt;Node20 -->
<g id="edge22" class="edge"><title>Node19&#45;&gt;Node20</title>
<path fill="none" stroke="midnightblue" d="M332.235,-48C348.7,-48 365.748,-48 381.479,-48"/>
<polygon fill="midnightblue" stroke="midnightblue" points="332.076,-44.5001 322.076,-48 332.076,-51.5001 332.076,-44.5001"/>
</g>
<!-- Node20&#45;&gt;Node3 -->
<g id="edge23" class="edge"><title>Node20&#45;&gt;Node3</title>
<path fill="none" stroke="midnightblue" d="M522.874,-50.342C580.446,-53.1016 661.76,-59.0821 732,-72 755.493,-76.3205 781.085,-83.4187 802.151,-89.927"/>
<polygon fill="midnightblue" stroke="midnightblue" points="522.917,-46.8404 512.768,-49.879 522.597,-53.8331 522.917,-46.8404"/>
</g>
<!-- Node21&#45;&gt;Node3 -->
<g id="edge25" class="edge"><title>Node21&#45;&gt;Node3</title>
<path fill="none" stroke="midnightblue" d="M527.421,-14.6589C585.156,-19.6083 664.658,-29.6828 732,-50 764.206,-59.7164 798.709,-77.2842 821.428,-89.9545"/>
<polygon fill="midnightblue" stroke="midnightblue" points="527.519,-11.1551 517.265,-13.8217 526.943,-18.1314 527.519,-11.1551"/>
</g>
<!-- Node22&#45;&gt;Node3 -->
<g id="edge27" class="edge"><title>Node22&#45;&gt;Node3</title>
<path fill="none" stroke="midnightblue" d="M721.967,-117.246C737.005,-115.773 753.027,-114.204 768.407,-112.697"/>
<polygon fill="midnightblue" stroke="midnightblue" points="721.344,-113.79 711.733,-118.248 722.026,-120.756 721.344,-113.79"/>
</g>
<!-- Node23&#45;&gt;Node3 -->
<g id="edge29" class="edge"><title>Node23&#45;&gt;Node3</title>
<path fill="none" stroke="midnightblue" d="M329.808,-88.5675C444.9,-92.2242 654.664,-98.889 768.483,-102.505"/>
<polygon fill="midnightblue" stroke="midnightblue" points="329.758,-85.0642 319.651,-88.2448 329.535,-92.0607 329.758,-85.0642"/>
</g>
</g>
</svg>
        <g id="navigator" transform="translate(0 0)" fill="#404254">
                <rect fill="#f2f5e9" fill-opacity="0.5" stroke="#606060" stroke-width=".5" x="0" y="0" width="60" height="60"/>
                <use id="zoomplus" xlink:href="#zoomPlus" x="17" y="9" onmousedown="handleZoom(evt,'in')"/>
                <use id="zoomminus" xlink:href="#zoomMin" x="42" y="9" onmousedown="handleZoom(evt,'out')"/>
                <use id="reset" xlink:href="#resetDef" x="30" y="36" onmousedown="handleReset()"/>
                <g id="arrowUp" xlink:href="#dirArrow" transform="translate(30 24)" onmousedown="handlePan(0,-1)">
                  <use xlink:href="#rim" fill="#404040">
                        <set attributeName="fill" to="#808080" begin="arrowUp.mouseover" end="arrowUp.mouseout"/>
                  </use>
                  <path fill="none" stroke="white" stroke-width="1.5" d="M0,-3.0v7 M-2.5,-0.5L0,-3.0L2.5,-0.5"/>
                </g>
                <g id="arrowRight" xlink:href="#dirArrow" transform="rotate(90) translate(36 -43)" onmousedown="handlePan(1,0)">
                  <use xlink:href="#rim" fill="#404040">
                        <set attributeName="fill" to="#808080" begin="arrowRight.mouseover" end="arrowRight.mouseout"/>
                  </use>
                  <path fill="none" stroke="white" stroke-width="1.5" d="M0,-3.0v7 M-2.5,-0.5L0,-3.0L2.5,-0.5"/>
                </g>
                <g id="arrowDown" xlink:href="#dirArrow" transform="rotate(180) translate(-30 -48)" onmousedown="handlePan(0,1)">
                  <use xlink:href="#rim" fill="#404040">
                        <set attributeName="fill" to="#808080" begin="arrowDown.mouseover" end="arrowDown.mouseout"/>
                  </use>
                  <path fill="none" stroke="white" stroke-width="1.5" d="M0,-3.0v7 M-2.5,-0.5L0,-3.0L2.5,-0.5"/>
                </g>
                <g id="arrowLeft" xlink:href="#dirArrow" transform="rotate(270) translate(-36 17)" onmousedown="handlePan(-1,0)">
                  <use xlink:href="#rim" fill="#404040">
                        <set attributeName="fill" to="#808080" begin="arrowLeft.mouseover" end="arrowLeft.mouseout"/>
                  </use>
                  <path fill="none" stroke="white" stroke-width="1.5" d="M0,-3.0v7 M-2.5,-0.5L0,-3.0L2.5,-0.5"/>
                </g>
        </g>
        <svg viewBox="0 0 15 15" width="100%" height="30px" preserveAspectRatio="xMaxYMin meet">
         <g id="arrow_out" transform="scale(0.3 0.3)">
          <a xlink:href="classview_1_1_side_bar_a7d73038dbba05f96990b60664afa2670_icgraph_org.svg" target="_base">
           <rect id="button" ry="5" rx="5" y="6" x="6" height="38" width="38"
                fill="#f2f5e9" fill-opacity="0.5" stroke="#606060" stroke-width="1.0"/>
           <path id="arrow"
             d="M 11.500037,31.436501 C 11.940474,20.09759 22.043105,11.32322 32.158766,21.979434 L 37.068811,17.246167 C 37.068811,17.246167 37.088388,32 37.088388,32 L 22.160133,31.978069 C 22.160133,31.978069 26.997745,27.140456 26.997745,27.140456 C 18.528582,18.264221 13.291696,25.230495 11.500037,31.436501 z"
             style="fill:#404040;"/>
          </a>
         </g>
        </svg>
</svg>
