<?xml version="1.0" encoding="UTF-8" standalone="no"?>
<!DOCTYPE svg PUBLIC "-//W3C//DTD SVG 1.1//EN"
 "http://www.w3.org/Graphics/SVG/1.1/DTD/svg11.dtd">
<!-- Generated by graphviz version 2.36.0 (20140111.2315)
 -->
<!-- Title: view.SideBar.createVariablesPane Pages: 1 -->
<svg width="368pt" height="142pt"
 viewBox="0.00 0.00 368.00 142.00" xmlns="http://www.w3.org/2000/svg" xmlns:xlink="http://www.w3.org/1999/xlink">
<g id="graph0" class="graph" transform="scale(1 1) rotate(0) translate(4 138)">
<title>view.SideBar.createVariablesPane</title>
<polygon fill="white" stroke="none" points="-4,4 -4,-138 364,-138 364,4 -4,4"/>
<!-- Node1 -->
<g id="node1" class="node"><title>Node1</title>
<polygon fill="#bfbfbf" stroke="black" points="0,-57.5 0,-76.5 176,-76.5 176,-57.5 0,-57.5"/>
<text text-anchor="middle" x="88" y="-64.5" font-family="Helvetica,sans-Serif" font-size="10.00">view.SideBar.createVariablesPane</text>
</g>
<!-- Node2 -->
<g id="node2" class="node"><title>Node2</title>
<g id="a_node2"><a xlink:href="../../d1/dc7/classview_1_1_side_bar.html#a9e70a3dcc846be90d42957e25220b3b3" target="_top" xlink:title="view.SideBar.createTitleText">
<polygon fill="white" stroke="black" points="212,-114.5 212,-133.5 360,-133.5 360,-114.5 212,-114.5"/>
<text text-anchor="middle" x="286" y="-121.5" font-family="Helvetica,sans-Serif" font-size="10.00">view.SideBar.createTitleText</text>
</a>
</g>
</g>
<!-- Node1&#45;&gt;Node2 -->
<g id="edge1" class="edge"><title>Node1&#45;&gt;Node2</title>
<path fill="none" stroke="midnightblue" d="M118.714,-76.591C143.557,-84.5107 179.969,-95.8887 212,-105 220.148,-107.318 228.839,-109.677 237.279,-111.91"/>
<polygon fill="midnightblue" stroke="midnightblue" points="236.463,-115.314 247.024,-114.462 238.237,-108.542 236.463,-115.314"/>
</g>
<!-- Node3 -->
<g id="node3" class="node"><title>Node3</title>
<g id="a_node3"><a xlink:href="../../d6/d58/classview_1_1_property.html#a51a9b0be72a7421596996f752b75ad93" target="_top" xlink:title="view.Property.getName">
<polygon fill="white" stroke="black" points="223,-76.5 223,-95.5 349,-95.5 349,-76.5 223,-76.5"/>
<text text-anchor="middle" x="286" y="-83.5" font-family="Helvetica,sans-Serif" font-size="10.00">view.Property.getName</text>
</a>
</g>
</g>
<!-- Node1&#45;&gt;Node3 -->
<g id="edge2" class="edge"><title>Node1&#45;&gt;Node3</title>
<path fill="none" stroke="midnightblue" d="M176.11,-75.4443C188.288,-76.6248 200.692,-77.8273 212.56,-78.9777"/>
<polygon fill="midnightblue" stroke="midnightblue" points="212.54,-82.4921 222.831,-79.9734 213.215,-75.5248 212.54,-82.4921"/>
</g>
<!-- Node4 -->
<g id="node4" class="node"><title>Node4</title>
<g id="a_node4"><a xlink:href="../../d6/d58/classview_1_1_property.html#ac169f9069f86f72b224cf0b1ccdd1c3c" target="_top" xlink:title="view.Property.getValue">
<polygon fill="white" stroke="black" points="224.5,-38.5 224.5,-57.5 347.5,-57.5 347.5,-38.5 224.5,-38.5"/>
<text text-anchor="middle" x="286" y="-45.5" font-family="Helvetica,sans-Serif" font-size="10.00">view.Property.getValue</text>
</a>
</g>
</g>
<!-- Node1&#45;&gt;Node4 -->
<g id="edge3" class="edge"><title>Node1&#45;&gt;Node4</title>
<path fill="none" stroke="midnightblue" d="M176.11,-58.5557C188.81,-57.3245 201.757,-56.0695 214.084,-54.8745"/>
<polygon fill="midnightblue" stroke="midnightblue" points="214.658,-58.3354 224.273,-53.8868 213.982,-51.3681 214.658,-58.3354"/>
</g>
<!-- Node5 -->
<g id="node5" class="node"><title>Node5</title>
<g id="a_node5"><a xlink:href="../../d6/d58/classview_1_1_property.html#a41be10018dd84f1c75b075364f2d51a8" target="_top" xlink:title="view.Property.setName">
<polygon fill="white" stroke="black" points="223.5,-0.5 223.5,-19.5 348.5,-19.5 348.5,-0.5 223.5,-0.5"/>
<text text-anchor="middle" x="286" y="-7.5" font-family="Helvetica,sans-Serif" font-size="10.00">view.Property.setName</text>
</a>
</g>
</g>
<!-- Node1&#45;&gt;Node5 -->
<g id="edge4" class="edge"><title>Node1&#45;&gt;Node5</title>
<path fill="none" stroke="midnightblue" d="M118.714,-57.409C143.557,-49.4893 179.969,-38.1113 212,-29 220.148,-26.6822 228.839,-24.3227 237.279,-22.0904"/>
<polygon fill="midnightblue" stroke="midnightblue" points="238.237,-25.4578 247.024,-19.5385 236.463,-18.6861 238.237,-25.4578"/>
</g>
</g>
</svg>
