<?xml version="1.0" encoding="UTF-8" standalone="no"?>
<!DOCTYPE svg PUBLIC "-//W3C//DTD SVG 1.1//EN"
 "http://www.w3.org/Graphics/SVG/1.1/DTD/svg11.dtd">
<!-- Generated by graphviz version 2.36.0 (20140111.2315)
 -->
<!-- Title: view.SideBar.updateCommand Pages: 1 -->
<svg width="550pt" height="28pt"
 viewBox="0.00 0.00 550.00 28.00" xmlns="http://www.w3.org/2000/svg" xmlns:xlink="http://www.w3.org/1999/xlink">
<g id="graph0" class="graph" transform="scale(1 1) rotate(0) translate(4 24)">
<title>view.SideBar.updateCommand</title>
<polygon fill="white" stroke="none" points="-4,4 -4,-24 546,-24 546,4 -4,4"/>
<!-- Node1 -->
<g id="node1" class="node"><title>Node1</title>
<polygon fill="#bfbfbf" stroke="black" points="0.5,-0.5 0.5,-19.5 163.5,-19.5 163.5,-0.5 0.5,-0.5"/>
<text text-anchor="middle" x="82" y="-7.5" font-family="Helvetica,sans-Serif" font-size="10.00">view.SideBar.updateCommand</text>
</g>
<!-- Node2 -->
<g id="node2" class="node"><title>Node2</title>
<g id="a_node2"><a xlink:href="../../d6/de7/classview_1_1_s_logo_view.html#ad5c465555f7c4fb13fcb0c67050ff52f" target="_top" xlink:title="view.SLogoView.updateCommand">
<polygon fill="white" stroke="black" points="200.5,-0.5 200.5,-19.5 377.5,-19.5 377.5,-0.5 200.5,-0.5"/>
<text text-anchor="middle" x="289" y="-7.5" font-family="Helvetica,sans-Serif" font-size="10.00">view.SLogoView.updateCommand</text>
</a>
</g>
</g>
<!-- Node1&#45;&gt;Node2 -->
<g id="edge1" class="edge"><title>Node1&#45;&gt;Node2</title>
<path fill="none" stroke="midnightblue" d="M173.926,-10C182.672,-10 191.531,-10 200.246,-10"/>
<polygon fill="midnightblue" stroke="midnightblue" points="173.727,-6.5001 163.727,-10 173.727,-13.5001 173.727,-6.5001"/>
</g>
<!-- Node3 -->
<g id="node3" class="node"><title>Node3</title>
<g id="a_node3"><a xlink:href="../../d6/de7/classview_1_1_s_logo_view.html#a2c08b9fa590f75ca8f2ec736a8a37e90" target="_top" xlink:title="view.SLogoView.update">
<polygon fill="white" stroke="black" points="414.5,-0.5 414.5,-19.5 541.5,-19.5 541.5,-0.5 414.5,-0.5"/>
<text text-anchor="middle" x="478" y="-7.5" font-family="Helvetica,sans-Serif" font-size="10.00">view.SLogoView.update</text>
</a>
</g>
</g>
<!-- Node2&#45;&gt;Node3 -->
<g id="edge2" class="edge"><title>Node2&#45;&gt;Node3</title>
<path fill="none" stroke="midnightblue" d="M387.883,-10C396.852,-10 405.768,-10 414.298,-10"/>
<polygon fill="midnightblue" stroke="midnightblue" points="387.751,-6.5001 377.751,-10 387.751,-13.5001 387.751,-6.5001"/>
</g>
</g>
</svg>
