<?xml version="1.0" encoding="UTF-8" standalone="no"?>
<!DOCTYPE svg PUBLIC "-//W3C//DTD SVG 1.1//EN"
 "http://www.w3.org/Graphics/SVG/1.1/DTD/svg11.dtd">
<!-- Generated by graphviz version 2.36.0 (20140111.2315)
 -->
<!-- Title: model.Node Pages: 1 -->
<!--zoomable 706 -->
<svg id="main" version="1.1" xmlns="http://www.w3.org/2000/svg" xmlns:xlink="http://www.w3.org/1999/xlink" xml:space="preserve" onload="init(evt)">
<style type="text/css"><![CDATA[
.edge:hover path { stroke: red; }
.edge:hover polygon { stroke: red; fill: red; }
]]></style>
<script type="text/javascript"><![CDATA[
var edges = document.getElementsByTagName('g');
if (edges && edges.length) {
  for (var i=0;i<edges.length;i++) {
    if (edges[i].id.substr(0,4)=='edge') {
      edges[i].setAttribute('class','edge');
    }
  }
}
]]></script>
        <defs>
                <circle id="rim" cx="0" cy="0" r="7"/>
                <circle id="rim2" cx="0" cy="0" r="3.5"/>
                <g id="zoomPlus">
                        <use xlink:href="#rim" fill="#404040">
                                <set attributeName="fill" to="#808080" begin="zoomplus.mouseover" end="zoomplus.mouseout"/>
                        </use>
                        <path d="M-4,0h8M0,-4v8" fill="none" stroke="white" stroke-width="1.5" pointer-events="none"/>
                </g>
                <g id="zoomMin">
                        <use xlink:href="#rim" fill="#404040">
                                <set attributeName="fill" to="#808080" begin="zoomminus.mouseover" end="zoomminus.mouseout"/>
                        </use>
                        <path d="M-4,0h8" fill="none" stroke="white" stroke-width="1.5" pointer-events="none"/>
                </g>
                <g id="dirArrow">
                        <path fill="none" stroke="white" stroke-width="1.5" d="M0,-3.0v7 M-2.5,-0.5L0,-3.0L2.5,-0.5"/>
                </g>
               <g id="resetDef">
                       <use xlink:href="#rim2" fill="#404040">
                               <set attributeName="fill" to="#808080" begin="reset.mouseover" end="reset.mouseout"/>
                       </use>
               </g>
        </defs>

<script type="text/javascript">
var viewWidth = 1690;
var viewHeight = 706;
var sectionId = 'dynsection-0';
</script>
<script xlink:href="../../svgpan.js"/>
<svg id="graph" class="graph">
<g id="viewport">
<title>model.Node</title>
<polygon fill="white" stroke="none" points="-4,4 -4,-702 1686,-702 1686,4 -4,4"/>
<!-- Node1 -->
<g id="node1" class="node"><title>Node1</title>
<polygon fill="#bfbfbf" stroke="black" points="951.5,-449.5 951.5,-468.5 1026.5,-468.5 1026.5,-449.5 951.5,-449.5"/>
<text text-anchor="middle" x="989" y="-456.5" font-family="Helvetica,sans-Serif" font-size="10.00">model.Node</text>
</g>
<!-- Node2 -->
<g id="node2" class="node"><title>Node2</title>
<polygon fill="white" stroke="#bfbfbf" points="660,-495.5 660,-514.5 774,-514.5 774,-495.5 660,-495.5"/>
<text text-anchor="middle" x="717" y="-502.5" font-family="Helvetica,sans-Serif" font-size="10.00">List&lt; model.Node &gt;</text>
</g>
<!-- Node2&#45;&gt;Node1 -->
<g id="edge1" class="edge"><title>Node2&#45;&gt;Node1</title>
<path fill="none" stroke="#9a32cd" stroke-dasharray="5,2" d="M784.243,-495.162C814.673,-490.505 851.211,-484.719 884,-479 906.46,-475.083 931.562,-470.268 951.478,-466.344"/>
<polygon fill="#9a32cd" stroke="#9a32cd" points="783.53,-491.73 774.171,-496.697 784.584,-498.65 783.53,-491.73"/>
<text text-anchor="middle" x="849" y="-494" font-family="Helvetica,sans-Serif" font-size="10.00"> myChildren</text>
</g>
<!-- Node3 -->
<g id="node3" class="node"><title>Node3</title>
<g id="a_node3"><a xlink:href="../../d1/dea/classmodel_1_1instructions_1_1_instruction.html" target="_top" xlink:title="model.instructions.Instruction">
<polygon fill="white" stroke="black" points="638,-457.5 638,-476.5 796,-476.5 796,-457.5 638,-457.5"/>
<text text-anchor="middle" x="717" y="-464.5" font-family="Helvetica,sans-Serif" font-size="10.00">model.instructions.Instruction</text>
</a>
</g>
</g>
<!-- Node3&#45;&gt;Node1 -->
<g id="edge2" class="edge"><title>Node3&#45;&gt;Node1</title>
<path fill="none" stroke="#9a32cd" stroke-dasharray="5,2" d="M806.128,-464.389C855.377,-462.93 914.127,-461.189 951.253,-460.089"/>
<polygon fill="#9a32cd" stroke="#9a32cd" points="805.987,-460.891 796.095,-464.686 806.194,-467.888 805.987,-460.891"/>
<text text-anchor="middle" x="849" y="-467" font-family="Helvetica,sans-Serif" font-size="10.00"> myInstruction</text>
</g>
<!-- Node4 -->
<g id="node4" class="node"><title>Node4</title>
<polygon fill="white" stroke="#bfbfbf" points="57,-436.5 57,-455.5 117,-455.5 117,-436.5 57,-436.5"/>
<text text-anchor="middle" x="87" y="-443.5" font-family="Helvetica,sans-Serif" font-size="10.00">Observer</text>
</g>
<!-- Node4&#45;&gt;Node3 -->
<g id="edge3" class="edge"><title>Node4&#45;&gt;Node3</title>
<path fill="none" stroke="midnightblue" d="M127.112,-450.906C146.583,-453.153 170.498,-455.617 192,-457 349.994,-467.161 535.29,-468.129 637.785,-467.707"/>
<polygon fill="midnightblue" stroke="midnightblue" points="127.425,-447.419 117.084,-449.724 126.605,-454.371 127.425,-447.419"/>
</g>
<!-- Node10 -->
<g id="node10" class="node"><title>Node10</title>
<g id="a_node10"><a xlink:href="../../d6/de7/classview_1_1_s_logo_view.html" target="_top" xlink:title="view.SLogoView">
<polygon fill="white" stroke="black" points="355.5,-261.5 355.5,-280.5 446.5,-280.5 446.5,-261.5 355.5,-261.5"/>
<text text-anchor="middle" x="401" y="-268.5" font-family="Helvetica,sans-Serif" font-size="10.00">view.SLogoView</text>
</a>
</g>
</g>
<!-- Node4&#45;&gt;Node10 -->
<g id="edge10" class="edge"><title>Node4&#45;&gt;Node10</title>
<path fill="none" stroke="midnightblue" d="M127.199,-439.084C182.649,-428.515 279.941,-406.831 304,-381 328.839,-354.332 298.176,-328.579 322,-301 330.631,-291.009 342.982,-284.33 355.317,-279.871"/>
<polygon fill="midnightblue" stroke="midnightblue" points="126.544,-435.645 117.359,-440.926 127.832,-442.526 126.544,-435.645"/>
</g>
<!-- Node22 -->
<g id="node22" class="node"><title>Node22</title>
<g id="a_node22"><a xlink:href="../../dc/df5/classmodel_1_1_parser.html" target="_top" xlink:title="model.Parser">
<polygon fill="white" stroke="black" points="677,-358.5 677,-377.5 757,-377.5 757,-358.5 677,-358.5"/>
<text text-anchor="middle" x="717" y="-365.5" font-family="Helvetica,sans-Serif" font-size="10.00">model.Parser</text>
</a>
</g>
</g>
<!-- Node4&#45;&gt;Node22 -->
<g id="edge24" class="edge"><title>Node4&#45;&gt;Node22</title>
<path fill="none" stroke="midnightblue" d="M127.416,-443.482C215.945,-437.471 437.117,-420.467 620,-390 639.734,-386.713 661.482,-381.835 679.281,-377.507"/>
<polygon fill="midnightblue" stroke="midnightblue" points="127.033,-440 117.289,-444.161 127.501,-446.984 127.033,-440"/>
</g>
<!-- Node5 -->
<g id="node5" class="node"><title>Node5</title>
<g id="a_node5"><a xlink:href="../../d1/dca/classmodel_1_1_execution_environment.html" target="_top" xlink:title="model.ExecutionEnvironment">
<polygon fill="white" stroke="black" points="322.5,-519.5 322.5,-538.5 479.5,-538.5 479.5,-519.5 322.5,-519.5"/>
<text text-anchor="middle" x="401" y="-526.5" font-family="Helvetica,sans-Serif" font-size="10.00">model.ExecutionEnvironment</text>
</a>
</g>
</g>
<!-- Node5&#45;&gt;Node3 -->
<g id="edge4" class="edge"><title>Node5&#45;&gt;Node3</title>
<path fill="none" stroke="#9a32cd" stroke-dasharray="5,2" d="M489.635,-533.008C540.461,-533.722 598.554,-531.279 620,-518 633.874,-509.41 624.997,-495.858 638,-486 643.109,-482.127 648.901,-479.032 654.964,-476.561"/>
<polygon fill="#9a32cd" stroke="#9a32cd" points="489.642,-529.508 479.58,-532.825 489.514,-536.506 489.642,-529.508"/>
<text text-anchor="middle" x="559" y="-537" font-family="Helvetica,sans-Serif" font-size="10.00"> myEnvironment</text>
</g>
<!-- Node5&#45;&gt;Node22 -->
<g id="edge26" class="edge"><title>Node5&#45;&gt;Node22</title>
<path fill="none" stroke="#9a32cd" stroke-dasharray="5,2" d="M448.296,-516.834C508.572,-500.619 607.724,-472.519 620,-460 639.791,-439.817 618.946,-419.879 638,-399 648.216,-387.806 663.004,-380.591 676.964,-375.969"/>
<polygon fill="#9a32cd" stroke="#9a32cd" points="447.367,-513.459 438.613,-519.427 449.178,-520.221 447.367,-513.459"/>
<text text-anchor="middle" x="559" y="-507" font-family="Helvetica,sans-Serif" font-size="10.00"> myExecutionParameters</text>
</g>
<!-- Node6 -->
<g id="node6" class="node"><title>Node6</title>
<polygon fill="white" stroke="#bfbfbf" points="51.5,-481.5 51.5,-500.5 122.5,-500.5 122.5,-481.5 51.5,-481.5"/>
<text text-anchor="middle" x="87" y="-488.5" font-family="Helvetica,sans-Serif" font-size="10.00">Observable</text>
</g>
<!-- Node6&#45;&gt;Node5 -->
<g id="edge5" class="edge"><title>Node6&#45;&gt;Node5</title>
<path fill="none" stroke="midnightblue" d="M132.637,-496.437C182.066,-502.457 262.658,-512.272 322.457,-519.556"/>
<polygon fill="midnightblue" stroke="midnightblue" points="132.931,-492.947 122.582,-495.212 132.085,-499.895 132.931,-492.947"/>
</g>
<!-- Node7 -->
<g id="node7" class="node"><title>Node7</title>
<polygon fill="white" stroke="#bfbfbf" points="0,-558 0,-588 174,-588 174,-558 0,-558"/>
<text text-anchor="start" x="8" y="-576" font-family="Helvetica,sans-Serif" font-size="10.00">Map&lt; String, model.instructions.</text>
<text text-anchor="middle" x="87" y="-565" font-family="Helvetica,sans-Serif" font-size="10.00">Instruction &gt;</text>
</g>
<!-- Node7&#45;&gt;Node5 -->
<g id="edge6" class="edge"><title>Node7&#45;&gt;Node5</title>
<path fill="none" stroke="#9a32cd" stroke-dasharray="5,2" d="M184.186,-559.435C232.213,-552.662 289.154,-544.632 332.485,-538.521"/>
<polygon fill="#9a32cd" stroke="#9a32cd" points="183.495,-555.998 174.081,-560.86 184.472,-562.93 183.495,-555.998"/>
<text text-anchor="middle" x="248" y="-561" font-family="Helvetica,sans-Serif" font-size="10.00"> myUserInstructionMap</text>
</g>
<!-- Node8 -->
<g id="node8" class="node"><title>Node8</title>
<polygon fill="white" stroke="#bfbfbf" points="23,-519.5 23,-538.5 151,-538.5 151,-519.5 23,-519.5"/>
<text text-anchor="middle" x="87" y="-526.5" font-family="Helvetica,sans-Serif" font-size="10.00">Map&lt; String, Double &gt;</text>
</g>
<!-- Node8&#45;&gt;Node5 -->
<g id="edge7" class="edge"><title>Node8&#45;&gt;Node5</title>
<path fill="none" stroke="#9a32cd" stroke-dasharray="5,2" d="M161.23,-529C209.637,-529 273.011,-529 322.303,-529"/>
<polygon fill="#9a32cd" stroke="#9a32cd" points="161.138,-525.5 151.138,-529 161.138,-532.5 161.138,-525.5"/>
<text text-anchor="middle" x="248" y="-532" font-family="Helvetica,sans-Serif" font-size="10.00"> myVariableMap</text>
</g>
<!-- Node9 -->
<g id="node9" class="node"><title>Node9</title>
<polygon fill="white" stroke="#bfbfbf" points="333,-559 333,-589 469,-589 469,-559 333,-559"/>
<text text-anchor="start" x="341" y="-577" font-family="Helvetica,sans-Serif" font-size="10.00">List&lt; model.instructions.</text>
<text text-anchor="middle" x="401" y="-566" font-family="Helvetica,sans-Serif" font-size="10.00">Instruction &gt;</text>
</g>
<!-- Node9&#45;&gt;Node3 -->
<g id="edge8" class="edge"><title>Node9&#45;&gt;Node3</title>
<path fill="none" stroke="#9a32cd" stroke-dasharray="5,2" d="M479.484,-573.994C533.394,-572.374 599.187,-566.65 620,-549 642.21,-530.166 617.007,-506.182 638,-486 642.019,-482.136 646.686,-479.016 651.701,-476.501"/>
<polygon fill="#9a32cd" stroke="#9a32cd" points="479.13,-570.501 469.224,-574.258 479.31,-577.499 479.13,-570.501"/>
<text text-anchor="middle" x="559" y="-577" font-family="Helvetica,sans-Serif" font-size="10.00"> myDependencies</text>
</g>
<!-- Node10&#45;&gt;Node3 -->
<g id="edge9" class="edge"><title>Node10&#45;&gt;Node3</title>
<path fill="none" stroke="#9a32cd" stroke-dasharray="5,2" d="M434.689,-284.135C453.057,-291.119 476.538,-299.396 498,-305 551.235,-318.901 581.256,-286.935 620,-326 654.884,-361.174 606.952,-397.397 638,-436 646.037,-445.992 657.765,-452.778 669.697,-457.381"/>
<polygon fill="#9a32cd" stroke="#9a32cd" points="435.912,-280.856 425.323,-280.518 433.39,-287.386 435.912,-280.856"/>
<text text-anchor="middle" x="559" y="-329" font-family="Helvetica,sans-Serif" font-size="10.00"> myView</text>
</g>
<!-- Node10&#45;&gt;Node22 -->
<g id="edge28" class="edge"><title>Node10&#45;&gt;Node22</title>
<path fill="none" stroke="#9a32cd" stroke-dasharray="5,2" d="M456.96,-273.387C511.631,-276.369 591.373,-282.536 620,-294 638.949,-301.589 684.309,-340.172 705.169,-358.416"/>
<polygon fill="#9a32cd" stroke="#9a32cd" points="456.893,-269.879 446.723,-272.85 456.525,-276.869 456.893,-269.879"/>
<text text-anchor="middle" x="559" y="-297" font-family="Helvetica,sans-Serif" font-size="10.00"> mySLogoView</text>
</g>
<!-- Node11 -->
<g id="node11" class="node"><title>Node11</title>
<g id="a_node11"><a xlink:href="../../da/d64/classview_1_1_workspace.html" target="_top" xlink:title="view.Workspace">
<polygon fill="white" stroke="black" points="1412,-316.5 1412,-335.5 1502,-335.5 1502,-316.5 1412,-316.5"/>
<text text-anchor="middle" x="1457" y="-323.5" font-family="Helvetica,sans-Serif" font-size="10.00">view.Workspace</text>
</a>
</g>
</g>
<!-- Node11&#45;&gt;Node10 -->
<g id="edge11" class="edge"><title>Node11&#45;&gt;Node10</title>
<path fill="none" stroke="#9a32cd" stroke-dasharray="5,2" d="M1432.6,-310.809C1403.09,-292.647 1350.14,-263.289 1300,-252 1262.71,-243.604 1252.22,-251.76 1214,-252 895.759,-254 815.709,-242.495 498,-261 481.272,-261.974 462.964,-263.713 446.863,-265.471"/>
<polygon fill="#9a32cd" stroke="#9a32cd" points="1430.99,-313.931 1441.32,-316.275 1434.7,-307.999 1430.99,-313.931"/>
<text text-anchor="middle" x="989" y="-256" font-family="Helvetica,sans-Serif" font-size="10.00"> myWorkspace</text>
</g>
<!-- Node16 -->
<g id="node16" class="node"><title>Node16</title>
<g id="a_node16"><a xlink:href="../../d1/dc7/classview_1_1_side_bar.html" target="_top" xlink:title="view.SideBar">
<polygon fill="white" stroke="black" points="1218.5,-421.5 1218.5,-440.5 1295.5,-440.5 1295.5,-421.5 1218.5,-421.5"/>
<text text-anchor="middle" x="1257" y="-428.5" font-family="Helvetica,sans-Serif" font-size="10.00">view.SideBar</text>
</a>
</g>
</g>
<!-- Node11&#45;&gt;Node16 -->
<g id="edge18" class="edge"><title>Node11&#45;&gt;Node16</title>
<path fill="none" stroke="#9a32cd" stroke-dasharray="5,2" d="M1448.99,-345.106C1439.91,-366.828 1421.88,-401.417 1394,-418 1364.34,-435.641 1324.46,-437.428 1295.56,-435.685"/>
<polygon fill="#9a32cd" stroke="#9a32cd" points="1452.32,-346.199 1452.73,-335.612 1445.81,-343.635 1452.32,-346.199"/>
<text text-anchor="middle" x="1356" y="-440" font-family="Helvetica,sans-Serif" font-size="10.00"> myWorkspace</text>
</g>
<!-- Node35 -->
<g id="node35" class="node"><title>Node35</title>
<g id="a_node35"><a xlink:href="../../de/d0a/classview_1_1_drawer.html" target="_top" xlink:title="view.Drawer">
<polygon fill="white" stroke="black" points="1608.5,-47.5 1608.5,-66.5 1681.5,-66.5 1681.5,-47.5 1608.5,-47.5"/>
<text text-anchor="middle" x="1645" y="-54.5" font-family="Helvetica,sans-Serif" font-size="10.00">view.Drawer</text>
</a>
</g>
</g>
<!-- Node11&#45;&gt;Node35 -->
<g id="edge46" class="edge"><title>Node11&#45;&gt;Node35</title>
<path fill="none" stroke="#9a32cd" stroke-dasharray="5,2" d="M1470.32,-308.184C1506.2,-256.291 1609.82,-106.428 1637.27,-66.7402"/>
<polygon fill="#9a32cd" stroke="#9a32cd" points="1467.43,-306.21 1464.62,-316.426 1473.19,-310.191 1467.43,-306.21"/>
<text text-anchor="middle" x="1555" y="-235" font-family="Helvetica,sans-Serif" font-size="10.00"> myWorkspace</text>
</g>
<!-- Node12 -->
<g id="node12" class="node"><title>Node12</title>
<polygon fill="white" stroke="#bfbfbf" points="1223.5,-341.5 1223.5,-360.5 1290.5,-360.5 1290.5,-341.5 1223.5,-341.5"/>
<text text-anchor="middle" x="1257" y="-348.5" font-family="Helvetica,sans-Serif" font-size="10.00">StackPane</text>
</g>
<!-- Node12&#45;&gt;Node11 -->
<g id="edge12" class="edge"><title>Node12&#45;&gt;Node11</title>
<path fill="none" stroke="midnightblue" d="M1300.87,-345.587C1333.64,-341.449 1378.66,-335.765 1411.76,-331.586"/>
<polygon fill="midnightblue" stroke="midnightblue" points="1300.18,-342.147 1290.7,-346.872 1301.06,-349.091 1300.18,-342.147"/>
</g>
<!-- Node13 -->
<g id="node13" class="node"><title>Node13</title>
<g id="a_node13"><a xlink:href="../../d8/df7/classview_1_1_turtle_view.html" target="_top" xlink:title="view.TurtleView">
<polygon fill="white" stroke="black" points="1214,-180.5 1214,-199.5 1300,-199.5 1300,-180.5 1214,-180.5"/>
<text text-anchor="middle" x="1257" y="-187.5" font-family="Helvetica,sans-Serif" font-size="10.00">view.TurtleView</text>
</a>
</g>
</g>
<!-- Node13&#45;&gt;Node11 -->
<g id="edge13" class="edge"><title>Node13&#45;&gt;Node11</title>
<path fill="none" stroke="#9a32cd" stroke-dasharray="5,2" d="M1310.31,-183.554C1337.45,-182.878 1369.87,-186.503 1394,-203 1434.27,-230.529 1449.73,-292.29 1454.35,-316.244"/>
<polygon fill="#9a32cd" stroke="#9a32cd" points="1310.03,-180.063 1300.2,-184.006 1310.35,-187.056 1310.03,-180.063"/>
<text text-anchor="middle" x="1356" y="-206" font-family="Helvetica,sans-Serif" font-size="10.00"> myActiveTurtle</text>
</g>
<!-- Node14 -->
<g id="node14" class="node"><title>Node14</title>
<polygon fill="white" stroke="#bfbfbf" points="955,-148.5 955,-167.5 1023,-167.5 1023,-148.5 955,-148.5"/>
<text text-anchor="middle" x="989" y="-155.5" font-family="Helvetica,sans-Serif" font-size="10.00">ImageView</text>
</g>
<!-- Node14&#45;&gt;Node13 -->
<g id="edge14" class="edge"><title>Node14&#45;&gt;Node13</title>
<path fill="none" stroke="midnightblue" d="M1033.27,-163.206C1083.05,-169.194 1164.25,-178.962 1213.64,-184.904"/>
<polygon fill="midnightblue" stroke="midnightblue" points="1033.5,-159.708 1023.15,-161.988 1032.66,-166.658 1033.5,-159.708"/>
</g>
<!-- Node15 -->
<g id="node15" class="node"><title>Node15</title>
<polygon fill="white" stroke="#bfbfbf" points="19,-608 19,-638 155,-638 155,-608 19,-608"/>
<text text-anchor="start" x="27" y="-626" font-family="Helvetica,sans-Serif" font-size="10.00">Map&lt; Integer, view.Turtle</text>
<text text-anchor="middle" x="87" y="-615" font-family="Helvetica,sans-Serif" font-size="10.00">View &gt;</text>
</g>
<!-- Node15&#45;&gt;Node10 -->
<g id="edge44" class="edge"><title>Node15&#45;&gt;Node10</title>
<path fill="none" stroke="#9a32cd" stroke-dasharray="5,2" d="M159.684,-605.607C170.506,-603.028 181.543,-600.424 192,-598 241.686,-586.484 270.808,-611.724 304,-573 343.423,-527.007 286.075,-349.774 322,-301 330.002,-290.136 342.484,-283.206 355.135,-278.786"/>
<polygon fill="#9a32cd" stroke="#9a32cd" points="158.741,-602.233 149.828,-607.962 160.368,-609.042 158.741,-602.233"/>
<text text-anchor="middle" x="248" y="-601" font-family="Helvetica,sans-Serif" font-size="10.00"> myTurtles</text>
</g>
<!-- Node15&#45;&gt;Node11 -->
<g id="edge15" class="edge"><title>Node15&#45;&gt;Node11</title>
<path fill="none" stroke="#9a32cd" stroke-dasharray="5,2" d="M142.265,-641.085C203.967,-660.01 308.076,-687 400,-687 400,-687 400,-687 1258,-687 1423.12,-687 1451.47,-393.065 1455.43,-335.656"/>
<polygon fill="#9a32cd" stroke="#9a32cd" points="142.952,-637.633 132.363,-638.005 140.873,-644.317 142.952,-637.633"/>
<text text-anchor="middle" x="849" y="-690" font-family="Helvetica,sans-Serif" font-size="10.00"> myTurtles</text>
</g>
<!-- Node15&#45;&gt;Node16 -->
<g id="edge29" class="edge"><title>Node15&#45;&gt;Node16</title>
<path fill="none" stroke="#9a32cd" stroke-dasharray="5,2" d="M165.326,-620.543C409.935,-612.492 1153.32,-585.762 1196,-557 1237.19,-529.245 1250.89,-465.144 1254.71,-440.705"/>
<polygon fill="#9a32cd" stroke="#9a32cd" points="164.977,-617.053 155.097,-620.879 165.207,-624.049 164.977,-617.053"/>
<text text-anchor="middle" x="717" y="-606" font-family="Helvetica,sans-Serif" font-size="10.00"> myTurtles</text>
</g>
<!-- Node16&#45;&gt;Node10 -->
<g id="edge48" class="edge"><title>Node16&#45;&gt;Node10</title>
<path fill="none" stroke="#9a32cd" stroke-dasharray="5,2" d="M1242.39,-413.334C1233.62,-401.478 1222.35,-385.288 1214,-370 1204.07,-351.815 1211.72,-340.499 1196,-327 1154.3,-291.179 1130.17,-306.399 1076,-297 841.785,-256.359 555.21,-263.823 446.588,-268.656"/>
<polygon fill="#9a32cd" stroke="#9a32cd" points="1239.7,-415.585 1248.51,-421.468 1245.29,-411.374 1239.7,-415.585"/>
<text text-anchor="middle" x="849" y="-277" font-family="Helvetica,sans-Serif" font-size="10.00"> mySidebar</text>
</g>
<!-- Node16&#45;&gt;Node11 -->
<g id="edge16" class="edge"><title>Node16&#45;&gt;Node11</title>
<path fill="none" stroke="#9a32cd" stroke-dasharray="5,2" d="M1289.99,-417.611C1298.99,-414.005 1308.83,-410.216 1318,-407 1351.3,-395.325 1363.43,-401.626 1394,-384 1416.47,-371.043 1437.35,-348.488 1448.2,-335.656"/>
<polygon fill="#9a32cd" stroke="#9a32cd" points="1288.57,-414.409 1280.62,-421.415 1291.2,-420.895 1288.57,-414.409"/>
<text text-anchor="middle" x="1356" y="-410" font-family="Helvetica,sans-Serif" font-size="10.00"> mySidebar</text>
</g>
<!-- Node29 -->
<g id="node29" class="node"><title>Node29</title>
<g id="a_node29"><a xlink:href="../../da/dc8/classview_1_1_editor.html" target="_top" xlink:title="view.Editor">
<polygon fill="white" stroke="black" points="1423.5,-123.5 1423.5,-142.5 1490.5,-142.5 1490.5,-123.5 1423.5,-123.5"/>
<text text-anchor="middle" x="1457" y="-130.5" font-family="Helvetica,sans-Serif" font-size="10.00">view.Editor</text>
</a>
</g>
</g>
<!-- Node16&#45;&gt;Node29 -->
<g id="edge40" class="edge"><title>Node16&#45;&gt;Node29</title>
<path fill="none" stroke="#9a32cd" stroke-dasharray="5,2" d="M1272.98,-413.582C1284.48,-400.84 1301.2,-383.643 1318,-371 1348.84,-347.794 1369.55,-358.859 1394,-329 1442.16,-270.185 1453.1,-173.556 1455.42,-142.754"/>
<polygon fill="#9a32cd" stroke="#9a32cd" points="1270.22,-411.411 1266.22,-421.22 1275.47,-416.049 1270.22,-411.411"/>
<text text-anchor="middle" x="1356" y="-374" font-family="Helvetica,sans-Serif" font-size="10.00"> mySidebar</text>
</g>
<!-- Node17 -->
<g id="node17" class="node"><title>Node17</title>
<polygon fill="white" stroke="#bfbfbf" points="968.5,-639.5 968.5,-658.5 1009.5,-658.5 1009.5,-639.5 968.5,-639.5"/>
<text text-anchor="middle" x="989" y="-646.5" font-family="Helvetica,sans-Serif" font-size="10.00">VBox</text>
</g>
<!-- Node17&#45;&gt;Node16 -->
<g id="edge17" class="edge"><title>Node17&#45;&gt;Node16</title>
<path fill="none" stroke="midnightblue" d="M1019.6,-656.545C1063.31,-665.786 1145.38,-675.626 1196,-635 1227.6,-609.64 1249.12,-477.793 1254.62,-440.712"/>
<polygon fill="midnightblue" stroke="midnightblue" points="1020.14,-653.078 1009.61,-654.3 1018.6,-659.908 1020.14,-653.078"/>
</g>
<!-- Node18 -->
<g id="node18" class="node"><title>Node18</title>
<polygon fill="white" stroke="#bfbfbf" points="902.5,-601.5 902.5,-620.5 1075.5,-620.5 1075.5,-601.5 902.5,-601.5"/>
<text text-anchor="middle" x="989" y="-608.5" font-family="Helvetica,sans-Serif" font-size="10.00">ObservableList&lt; view.Property &gt;</text>
</g>
<!-- Node18&#45;&gt;Node16 -->
<g id="edge19" class="edge"><title>Node18&#45;&gt;Node16</title>
<path fill="none" stroke="#9a32cd" stroke-dasharray="5,2" d="M1085.56,-620.129C1123.39,-618.913 1165.12,-610.957 1196,-587 1244.15,-549.648 1253.68,-468.602 1255.55,-440.682"/>
<polygon fill="#9a32cd" stroke="#9a32cd" points="1085.46,-616.63 1075.53,-620.3 1085.58,-623.629 1085.46,-616.63"/>
<text text-anchor="middle" x="1145" y="-623" font-family="Helvetica,sans-Serif" font-size="10.00"> variablesList</text>
</g>
<!-- Node19 -->
<g id="node19" class="node"><title>Node19</title>
<polygon fill="white" stroke="#bfbfbf" points="40.5,-375.5 40.5,-394.5 133.5,-394.5 133.5,-375.5 40.5,-375.5"/>
<text text-anchor="middle" x="87" y="-382.5" font-family="Helvetica,sans-Serif" font-size="10.00">ResourceBundle</text>
</g>
<!-- Node19&#45;&gt;Node10 -->
<g id="edge34" class="edge"><title>Node19&#45;&gt;Node10</title>
<path fill="none" stroke="#9a32cd" stroke-dasharray="5,2" d="M143.634,-377.142C189.444,-368.73 254.648,-352.149 304,-321 314.113,-314.617 312.147,-307.778 322,-301 334.91,-292.119 350.809,-285.392 364.878,-280.582"/>
<polygon fill="#9a32cd" stroke="#9a32cd" points="142.829,-373.73 133.589,-378.914 144.045,-380.624 142.829,-373.73"/>
<text text-anchor="middle" x="248" y="-369" font-family="Helvetica,sans-Serif" font-size="10.00"> myResources</text>
</g>
<!-- Node19&#45;&gt;Node16 -->
<g id="edge20" class="edge"><title>Node19&#45;&gt;Node16</title>
<path fill="none" stroke="#9a32cd" stroke-dasharray="5,2" d="M143.968,-387.204C347.879,-395.235 1047.99,-422.808 1218.39,-429.519"/>
<polygon fill="#9a32cd" stroke="#9a32cd" points="143.917,-383.7 133.787,-386.803 143.641,-390.694 143.917,-383.7"/>
<text text-anchor="middle" x="717" y="-416" font-family="Helvetica,sans-Serif" font-size="10.00"> myResources</text>
</g>
<!-- Node20 -->
<g id="node20" class="node"><title>Node20</title>
<polygon fill="white" stroke="#bfbfbf" points="915,-525.5 915,-544.5 1063,-544.5 1063,-525.5 915,-525.5"/>
<text text-anchor="middle" x="989" y="-532.5" font-family="Helvetica,sans-Serif" font-size="10.00">TableView&lt; view.Property &gt;</text>
</g>
<!-- Node20&#45;&gt;Node16 -->
<g id="edge21" class="edge"><title>Node20&#45;&gt;Node16</title>
<path fill="none" stroke="#9a32cd" stroke-dasharray="5,2" d="M1073.22,-533.658C1112.55,-529.924 1158.9,-520.833 1196,-500 1221.47,-485.698 1241.32,-456.31 1250.48,-440.91"/>
<polygon fill="#9a32cd" stroke="#9a32cd" points="1072.79,-530.182 1063.12,-534.516 1073.38,-537.157 1072.79,-530.182"/>
<text text-anchor="middle" x="1145" y="-545" font-family="Helvetica,sans-Serif" font-size="10.00"> turtlePropertiesTable</text>
<text text-anchor="middle" x="1145" y="-534" font-family="Helvetica,sans-Serif" font-size="10.00">variablesTable</text>
</g>
<!-- Node21 -->
<g id="node21" class="node"><title>Node21</title>
<g id="a_node21"><a xlink:href="../../d4/dd9/classcontroller_1_1_s_logo_controller.html" target="_top" xlink:title="controller.SLogoController">
<polygon fill="white" stroke="black" points="919,-306.5 919,-325.5 1059,-325.5 1059,-306.5 919,-306.5"/>
<text text-anchor="middle" x="989" y="-313.5" font-family="Helvetica,sans-Serif" font-size="10.00">controller.SLogoController</text>
</a>
</g>
</g>
<!-- Node21&#45;&gt;Node10 -->
<g id="edge42" class="edge"><title>Node21&#45;&gt;Node10</title>
<path fill="none" stroke="#9a32cd" stroke-dasharray="5,2" d="M911.835,-305.058C837.553,-294.919 721.282,-280.46 620,-274 560.128,-270.181 490.827,-269.941 446.724,-270.312"/>
<polygon fill="#9a32cd" stroke="#9a32cd" points="911.648,-308.565 922.032,-306.458 912.601,-301.63 911.648,-308.565"/>
<text text-anchor="middle" x="717" y="-294" font-family="Helvetica,sans-Serif" font-size="10.00"> myController</text>
</g>
<!-- Node21&#45;&gt;Node16 -->
<g id="edge22" class="edge"><title>Node21&#45;&gt;Node16</title>
<path fill="none" stroke="#9a32cd" stroke-dasharray="5,2" d="M1069.19,-324.174C1109.32,-330.97 1157.55,-343.379 1196,-366 1220.09,-380.172 1240.25,-407.046 1249.9,-421.399"/>
<polygon fill="#9a32cd" stroke="#9a32cd" points="1069.61,-320.695 1059.18,-322.564 1068.5,-327.607 1069.61,-320.695"/>
<text text-anchor="middle" x="1145" y="-369" font-family="Helvetica,sans-Serif" font-size="10.00"> myController</text>
</g>
<!-- Node21&#45;&gt;Node29 -->
<g id="edge38" class="edge"><title>Node21&#45;&gt;Node29</title>
<path fill="none" stroke="#9a32cd" stroke-dasharray="5,2" d="M1061.29,-304.78C1162.08,-287.909 1339.98,-254.114 1394,-218 1423.15,-198.509 1443.45,-160.442 1451.78,-142.627"/>
<polygon fill="#9a32cd" stroke="#9a32cd" points="1060.48,-301.367 1051.19,-306.458 1061.62,-308.273 1060.48,-301.367"/>
<text text-anchor="middle" x="1257" y="-278" font-family="Helvetica,sans-Serif" font-size="10.00"> myController</text>
</g>
<!-- Node22&#45;&gt;Node21 -->
<g id="edge23" class="edge"><title>Node22&#45;&gt;Node21</title>
<path fill="none" stroke="#9a32cd" stroke-dasharray="5,2" d="M767.239,-358.517C815.89,-349.147 889.901,-334.893 938.605,-325.513"/>
<polygon fill="#9a32cd" stroke="#9a32cd" points="766.418,-355.111 757.26,-360.439 767.742,-361.984 766.418,-355.111"/>
<text text-anchor="middle" x="849" y="-352" font-family="Helvetica,sans-Serif" font-size="10.00"> myParser</text>
</g>
<!-- Node23 -->
<g id="node23" class="node"><title>Node23</title>
<polygon fill="white" stroke="#bfbfbf" points="345,-349 345,-379 457,-379 457,-349 345,-349"/>
<text text-anchor="start" x="353" y="-367" font-family="Helvetica,sans-Serif" font-size="10.00">List&lt; Entry&lt; String,</text>
<text text-anchor="middle" x="401" y="-356" font-family="Helvetica,sans-Serif" font-size="10.00"> Pattern &gt; &gt;</text>
</g>
<!-- Node23&#45;&gt;Node22 -->
<g id="edge25" class="edge"><title>Node23&#45;&gt;Node22</title>
<path fill="none" stroke="#9a32cd" stroke-dasharray="5,2" d="M467.203,-370.94C477.496,-371.796 488.03,-372.534 498,-373 560.585,-375.927 633.361,-372.98 676.994,-370.53"/>
<polygon fill="#9a32cd" stroke="#9a32cd" points="467.286,-367.434 457.019,-370.049 466.675,-374.407 467.286,-367.434"/>
<text text-anchor="middle" x="559" y="-378" font-family="Helvetica,sans-Serif" font-size="10.00"> myPatterns</text>
</g>
<!-- Node24 -->
<g id="node24" class="node"><title>Node24</title>
<polygon fill="white" stroke="#bfbfbf" points="340,-310.5 340,-329.5 462,-329.5 462,-310.5 340,-310.5"/>
<text text-anchor="middle" x="401" y="-317.5" font-family="Helvetica,sans-Serif" font-size="10.00">Map&lt; String, String &gt;</text>
</g>
<!-- Node24&#45;&gt;Node22 -->
<g id="edge27" class="edge"><title>Node24&#45;&gt;Node22</title>
<path fill="none" stroke="#9a32cd" stroke-dasharray="5,2" d="M457.28,-331.56C470.586,-334.171 484.776,-336.814 498,-339 560.343,-349.305 633.19,-358.407 676.904,-363.553"/>
<polygon fill="#9a32cd" stroke="#9a32cd" points="457.799,-328.095 447.309,-329.578 456.434,-334.961 457.799,-328.095"/>
<text text-anchor="middle" x="559" y="-360" font-family="Helvetica,sans-Serif" font-size="10.00"> myCommandMap</text>
</g>
<!-- Node25 -->
<g id="node25" class="node"><title>Node25</title>
<polygon fill="white" stroke="#bfbfbf" points="920,-487.5 920,-506.5 1058,-506.5 1058,-487.5 920,-487.5"/>
<text text-anchor="middle" x="989" y="-494.5" font-family="Helvetica,sans-Serif" font-size="10.00">ObservableList&lt; String &gt;</text>
</g>
<!-- Node25&#45;&gt;Node16 -->
<g id="edge30" class="edge"><title>Node25&#45;&gt;Node16</title>
<path fill="none" stroke="#9a32cd" stroke-dasharray="5,2" d="M1044.57,-485.271C1055.02,-482.932 1065.86,-480.443 1076,-478 1126.55,-465.82 1184.71,-450.371 1220.92,-440.582"/>
<polygon fill="#9a32cd" stroke="#9a32cd" points="1043.71,-481.876 1034.71,-487.46 1045.23,-488.71 1043.71,-481.876"/>
<text text-anchor="middle" x="1145" y="-488" font-family="Helvetica,sans-Serif" font-size="10.00"> commandItems</text>
<text text-anchor="middle" x="1145" y="-477" font-family="Helvetica,sans-Serif" font-size="10.00">historyItems</text>
</g>
<!-- Node26 -->
<g id="node26" class="node"><title>Node26</title>
<polygon fill="white" stroke="#bfbfbf" points="936,-373.5 936,-392.5 1042,-392.5 1042,-373.5 936,-373.5"/>
<text text-anchor="middle" x="989" y="-380.5" font-family="Helvetica,sans-Serif" font-size="10.00">ListView&lt; String &gt;</text>
</g>
<!-- Node26&#45;&gt;Node16 -->
<g id="edge31" class="edge"><title>Node26&#45;&gt;Node16</title>
<path fill="none" stroke="#9a32cd" stroke-dasharray="5,2" d="M1052.65,-379.534C1094.17,-379.024 1149.39,-381.807 1196,-396 1213.77,-401.409 1231.87,-412.976 1243.48,-421.335"/>
<polygon fill="#9a32cd" stroke="#9a32cd" points="1052.33,-376.039 1042.4,-379.73 1052.46,-383.038 1052.33,-376.039"/>
<text text-anchor="middle" x="1145" y="-399" font-family="Helvetica,sans-Serif" font-size="10.00"> historyList</text>
</g>
<!-- Node27 -->
<g id="node27" class="node"><title>Node27</title>
<polygon fill="white" stroke="#bfbfbf" points="1225.5,-303.5 1225.5,-322.5 1288.5,-322.5 1288.5,-303.5 1225.5,-303.5"/>
<text text-anchor="middle" x="1257" y="-310.5" font-family="Helvetica,sans-Serif" font-size="10.00">Rectangle</text>
</g>
<!-- Node27&#45;&gt;Node11 -->
<g id="edge32" class="edge"><title>Node27&#45;&gt;Node11</title>
<path fill="none" stroke="#9a32cd" stroke-dasharray="5,2" d="M1298.86,-311.349C1325.92,-310.735 1362.16,-310.829 1394,-314 1399.89,-314.587 1406.06,-315.46 1412.12,-316.473"/>
<polygon fill="#9a32cd" stroke="#9a32cd" points="1298.51,-307.857 1288.6,-311.625 1298.69,-314.854 1298.51,-307.857"/>
<text text-anchor="middle" x="1356" y="-317" font-family="Helvetica,sans-Serif" font-size="10.00"> myBackground</text>
</g>
<!-- Node28 -->
<g id="node28" class="node"><title>Node28</title>
<polygon fill="white" stroke="#bfbfbf" points="64.5,-230.5 64.5,-249.5 109.5,-249.5 109.5,-230.5 64.5,-230.5"/>
<text text-anchor="middle" x="87" y="-237.5" font-family="Helvetica,sans-Serif" font-size="10.00">Stage</text>
</g>
<!-- Node28&#45;&gt;Node10 -->
<g id="edge33" class="edge"><title>Node28&#45;&gt;Node10</title>
<path fill="none" stroke="#9a32cd" stroke-dasharray="5,2" d="M120.003,-242.447C162.201,-245.757 238.744,-252.054 304,-259 320.702,-260.778 339.004,-262.998 355.107,-265.043"/>
<polygon fill="#9a32cd" stroke="#9a32cd" points="120.035,-238.939 109.794,-241.652 119.492,-245.918 120.035,-238.939"/>
<text text-anchor="middle" x="248" y="-262" font-family="Helvetica,sans-Serif" font-size="10.00"> myStage</text>
</g>
<!-- Node29&#45;&gt;Node10 -->
<g id="edge35" class="edge"><title>Node29&#45;&gt;Node10</title>
<path fill="none" stroke="#9a32cd" stroke-dasharray="5,2" d="M1413.22,-126.511C1373.19,-121.007 1311.69,-114 1258,-114 716,-114 716,-114 716,-114 583.437,-114 449.471,-227.328 412.175,-261.415"/>
<polygon fill="#9a32cd" stroke="#9a32cd" points="1412.77,-129.983 1423.16,-127.908 1413.74,-123.051 1412.77,-129.983"/>
<text text-anchor="middle" x="989" y="-117" font-family="Helvetica,sans-Serif" font-size="10.00"> myEditor</text>
</g>
<!-- Node30 -->
<g id="node30" class="node"><title>Node30</title>
<polygon fill="white" stroke="#bfbfbf" points="1236,-28.5 1236,-47.5 1278,-47.5 1278,-28.5 1236,-28.5"/>
<text text-anchor="middle" x="1257" y="-35.5" font-family="Helvetica,sans-Serif" font-size="10.00">HBox</text>
</g>
<!-- Node30&#45;&gt;Node29 -->
<g id="edge36" class="edge"><title>Node30&#45;&gt;Node29</title>
<path fill="none" stroke="midnightblue" d="M1288.36,-40.9395C1317.1,-44.7615 1360.68,-53.3152 1394,-72 1417.44,-85.1477 1438.26,-109.503 1448.77,-123.124"/>
<polygon fill="midnightblue" stroke="midnightblue" points="1288.48,-37.4277 1278.13,-39.6951 1287.63,-44.3765 1288.48,-37.4277"/>
</g>
<!-- Node31 -->
<g id="node31" class="node"><title>Node31</title>
<polygon fill="white" stroke="#bfbfbf" points="1232.5,-142.5 1232.5,-161.5 1281.5,-161.5 1281.5,-142.5 1232.5,-142.5"/>
<text text-anchor="middle" x="1257" y="-149.5" font-family="Helvetica,sans-Serif" font-size="10.00">Button</text>
</g>
<!-- Node31&#45;&gt;Node29 -->
<g id="edge37" class="edge"><title>Node31&#45;&gt;Node29</title>
<path fill="none" stroke="#9a32cd" stroke-dasharray="5,2" d="M1292.13,-148.725C1328.99,-145.188 1387.28,-139.595 1423.49,-136.12"/>
<polygon fill="#9a32cd" stroke="#9a32cd" points="1291.5,-145.269 1281.88,-149.708 1292.17,-152.237 1291.5,-145.269"/>
<text text-anchor="middle" x="1356" y="-149" font-family="Helvetica,sans-Serif" font-size="10.00"> runButton</text>
</g>
<!-- Node32 -->
<g id="node32" class="node"><title>Node32</title>
<polygon fill="white" stroke="#bfbfbf" points="1228,-66.5 1228,-85.5 1286,-85.5 1286,-66.5 1228,-66.5"/>
<text text-anchor="middle" x="1257" y="-73.5" font-family="Helvetica,sans-Serif" font-size="10.00">TextArea</text>
</g>
<!-- Node32&#45;&gt;Node29 -->
<g id="edge39" class="edge"><title>Node32&#45;&gt;Node29</title>
<path fill="none" stroke="#9a32cd" stroke-dasharray="5,2" d="M1296.18,-74.4501C1324.11,-74.5434 1362.46,-77.264 1394,-89 1414.53,-96.6414 1434.51,-112.874 1446.01,-123.342"/>
<polygon fill="#9a32cd" stroke="#9a32cd" points="1296,-70.9513 1286.03,-74.5296 1296.05,-77.9511 1296,-70.9513"/>
<text text-anchor="middle" x="1356" y="-92" font-family="Helvetica,sans-Serif" font-size="10.00"> textEditor</text>
</g>
<!-- Node33 -->
<g id="node33" class="node"><title>Node33</title>
<polygon fill="white" stroke="#bfbfbf" points="27.5,-192.5 27.5,-211.5 146.5,-211.5 146.5,-192.5 27.5,-192.5"/>
<text text-anchor="middle" x="87" y="-199.5" font-family="Helvetica,sans-Serif" font-size="10.00">Map&lt; String, Node &gt;</text>
</g>
<!-- Node33&#45;&gt;Node10 -->
<g id="edge41" class="edge"><title>Node33&#45;&gt;Node10</title>
<path fill="none" stroke="#9a32cd" stroke-dasharray="5,2" d="M156.953,-208.29C199.758,-213.158 255.637,-221.265 304,-234 330.6,-241.004 359.937,-252.971 379.092,-261.395"/>
<polygon fill="#9a32cd" stroke="#9a32cd" points="157.245,-204.801 146.921,-207.181 156.476,-211.759 157.245,-204.801"/>
<text text-anchor="middle" x="248" y="-237" font-family="Helvetica,sans-Serif" font-size="10.00"> variables</text>
</g>
<!-- Node34 -->
<g id="node34" class="node"><title>Node34</title>
<polygon fill="white" stroke="#bfbfbf" points="46.5,-306.5 46.5,-325.5 127.5,-325.5 127.5,-306.5 46.5,-306.5"/>
<text text-anchor="middle" x="87" y="-313.5" font-family="Helvetica,sans-Serif" font-size="10.00">Dimension2D</text>
</g>
<!-- Node34&#45;&gt;Node10 -->
<g id="edge43" class="edge"><title>Node34&#45;&gt;Node10</title>
<path fill="none" stroke="#9a32cd" stroke-dasharray="5,2" d="M137.683,-311.534C181.577,-307.283 247.247,-300.177 304,-291 321.815,-288.119 341.335,-284.195 358.095,-280.586"/>
<polygon fill="#9a32cd" stroke="#9a32cd" points="137.184,-308.065 127.562,-312.501 137.85,-315.034 137.184,-308.065"/>
<text text-anchor="middle" x="248" y="-309" font-family="Helvetica,sans-Serif" font-size="10.00"> myDimensions</text>
</g>
<!-- Node35&#45;&gt;Node10 -->
<g id="edge45" class="edge"><title>Node35&#45;&gt;Node10</title>
<path fill="none" stroke="#9a32cd" stroke-dasharray="5,2" d="M1616.58,-42.973C1580.99,-26.0955 1516.5,-0 1458,-0 716,-0 716,-0 716,-0 552.539,-0 432.077,-213.079 406.883,-261.355"/>
<polygon fill="#9a32cd" stroke="#9a32cd" points="1615.3,-46.2414 1625.82,-47.4595 1618.36,-39.9441 1615.3,-46.2414"/>
<text text-anchor="middle" x="1145" y="-3" font-family="Helvetica,sans-Serif" font-size="10.00"> drawer</text>
</g>
<!-- Node36 -->
<g id="node36" class="node"><title>Node36</title>
<polygon fill="white" stroke="#bfbfbf" points="1436.5,-47.5 1436.5,-66.5 1477.5,-66.5 1477.5,-47.5 1436.5,-47.5"/>
<text text-anchor="middle" x="1457" y="-54.5" font-family="Helvetica,sans-Serif" font-size="10.00">Color</text>
</g>
<!-- Node36&#45;&gt;Node35 -->
<g id="edge47" class="edge"><title>Node36&#45;&gt;Node35</title>
<path fill="none" stroke="#9a32cd" stroke-dasharray="5,2" d="M1487.86,-57C1520.64,-57 1573.27,-57 1608.23,-57"/>
<polygon fill="#9a32cd" stroke="#9a32cd" points="1487.55,-53.5001 1477.55,-57 1487.55,-60.5001 1487.55,-53.5001"/>
<text text-anchor="middle" x="1555" y="-60" font-family="Helvetica,sans-Serif" font-size="10.00"> myColor</text>
</g>
<!-- Node37 -->
<g id="node37" class="node"><title>Node37</title>
<polygon fill="white" stroke="#bfbfbf" points="64,-268.5 64,-287.5 110,-287.5 110,-268.5 64,-268.5"/>
<text text-anchor="middle" x="87" y="-275.5" font-family="Helvetica,sans-Serif" font-size="10.00">Group</text>
</g>
<!-- Node37&#45;&gt;Node10 -->
<g id="edge49" class="edge"><title>Node37&#45;&gt;Node10</title>
<path fill="none" stroke="#9a32cd" stroke-dasharray="5,2" d="M120.521,-277.27C176.621,-276.012 291.669,-273.431 355.267,-272.004"/>
<polygon fill="#9a32cd" stroke="#9a32cd" points="120.357,-273.773 110.438,-277.497 120.514,-280.771 120.357,-273.773"/>
<text text-anchor="middle" x="248" y="-279" font-family="Helvetica,sans-Serif" font-size="10.00"> lines</text>
</g>
</g>
</svg>
        <g id="navigator" transform="translate(0 0)" fill="#404254">
                <rect fill="#f2f5e9" fill-opacity="0.5" stroke="#606060" stroke-width=".5" x="0" y="0" width="60" height="60"/>
                <use id="zoomplus" xlink:href="#zoomPlus" x="17" y="9" onmousedown="handleZoom(evt,'in')"/>
                <use id="zoomminus" xlink:href="#zoomMin" x="42" y="9" onmousedown="handleZoom(evt,'out')"/>
                <use id="reset" xlink:href="#resetDef" x="30" y="36" onmousedown="handleReset()"/>
                <g id="arrowUp" xlink:href="#dirArrow" transform="translate(30 24)" onmousedown="handlePan(0,-1)">
                  <use xlink:href="#rim" fill="#404040">
                        <set attributeName="fill" to="#808080" begin="arrowUp.mouseover" end="arrowUp.mouseout"/>
                  </use>
                  <path fill="none" stroke="white" stroke-width="1.5" d="M0,-3.0v7 M-2.5,-0.5L0,-3.0L2.5,-0.5"/>
                </g>
                <g id="arrowRight" xlink:href="#dirArrow" transform="rotate(90) translate(36 -43)" onmousedown="handlePan(1,0)">
                  <use xlink:href="#rim" fill="#404040">
                        <set attributeName="fill" to="#808080" begin="arrowRight.mouseover" end="arrowRight.mouseout"/>
                  </use>
                  <path fill="none" stroke="white" stroke-width="1.5" d="M0,-3.0v7 M-2.5,-0.5L0,-3.0L2.5,-0.5"/>
                </g>
                <g id="arrowDown" xlink:href="#dirArrow" transform="rotate(180) translate(-30 -48)" onmousedown="handlePan(0,1)">
                  <use xlink:href="#rim" fill="#404040">
                        <set attributeName="fill" to="#808080" begin="arrowDown.mouseover" end="arrowDown.mouseout"/>
                  </use>
                  <path fill="none" stroke="white" stroke-width="1.5" d="M0,-3.0v7 M-2.5,-0.5L0,-3.0L2.5,-0.5"/>
                </g>
                <g id="arrowLeft" xlink:href="#dirArrow" transform="rotate(270) translate(-36 17)" onmousedown="handlePan(-1,0)">
                  <use xlink:href="#rim" fill="#404040">
                        <set attributeName="fill" to="#808080" begin="arrowLeft.mouseover" end="arrowLeft.mouseout"/>
                  </use>
                  <path fill="none" stroke="white" stroke-width="1.5" d="M0,-3.0v7 M-2.5,-0.5L0,-3.0L2.5,-0.5"/>
                </g>
        </g>
        <svg viewBox="0 0 15 15" width="100%" height="30px" preserveAspectRatio="xMaxYMin meet">
         <g id="arrow_out" transform="scale(0.3 0.3)">
          <a xlink:href="classmodel_1_1_node__coll__graph_org.svg" target="_base">
           <rect id="button" ry="5" rx="5" y="6" x="6" height="38" width="38"
                fill="#f2f5e9" fill-opacity="0.5" stroke="#606060" stroke-width="1.0"/>
           <path id="arrow"
             d="M 11.500037,31.436501 C 11.940474,20.09759 22.043105,11.32322 32.158766,21.979434 L 37.068811,17.246167 C 37.068811,17.246167 37.088388,32 37.088388,32 L 22.160133,31.978069 C 22.160133,31.978069 26.997745,27.140456 26.997745,27.140456 C 18.528582,18.264221 13.291696,25.230495 11.500037,31.436501 z"
             style="fill:#404040;"/>
          </a>
         </g>
        </svg>
</svg>
