<?xml version="1.0" encoding="UTF-8" standalone="no"?>
<!DOCTYPE svg PUBLIC "-//W3C//DTD SVG 1.1//EN"
 "http://www.w3.org/Graphics/SVG/1.1/DTD/svg11.dtd">
<!-- Generated by graphviz version 2.36.0 (20140111.2315)
 -->
<!-- Title: model.Node Pages: 1 -->
<!--zoomable 647 -->
<svg id="main" version="1.1" xmlns="http://www.w3.org/2000/svg" xmlns:xlink="http://www.w3.org/1999/xlink" xml:space="preserve" onload="init(evt)">
<style type="text/css"><![CDATA[
.edge:hover path { stroke: red; }
.edge:hover polygon { stroke: red; fill: red; }
]]></style>
<script type="text/javascript"><![CDATA[
var edges = document.getElementsByTagName('g');
if (edges && edges.length) {
  for (var i=0;i<edges.length;i++) {
    if (edges[i].id.substr(0,4)=='edge') {
      edges[i].setAttribute('class','edge');
    }
  }
}
]]></script>
        <defs>
                <circle id="rim" cx="0" cy="0" r="7"/>
                <circle id="rim2" cx="0" cy="0" r="3.5"/>
                <g id="zoomPlus">
                        <use xlink:href="#rim" fill="#404040">
                                <set attributeName="fill" to="#808080" begin="zoomplus.mouseover" end="zoomplus.mouseout"/>
                        </use>
                        <path d="M-4,0h8M0,-4v8" fill="none" stroke="white" stroke-width="1.5" pointer-events="none"/>
                </g>
                <g id="zoomMin">
                        <use xlink:href="#rim" fill="#404040">
                                <set attributeName="fill" to="#808080" begin="zoomminus.mouseover" end="zoomminus.mouseout"/>
                        </use>
                        <path d="M-4,0h8" fill="none" stroke="white" stroke-width="1.5" pointer-events="none"/>
                </g>
                <g id="dirArrow">
                        <path fill="none" stroke="white" stroke-width="1.5" d="M0,-3.0v7 M-2.5,-0.5L0,-3.0L2.5,-0.5"/>
                </g>
               <g id="resetDef">
                       <use xlink:href="#rim2" fill="#404040">
                               <set attributeName="fill" to="#808080" begin="reset.mouseover" end="reset.mouseout"/>
                       </use>
               </g>
        </defs>

<script type="text/javascript">
var viewWidth = 1476;
var viewHeight = 647;
var sectionId = 'dynsection-0';
</script>
<script xlink:href="../../svgpan.js"/>
<svg id="graph" class="graph">
<g id="viewport">
<title>model.Node</title>
<polygon fill="white" stroke="none" points="-4,4 -4,-643 1472,-643 1472,4 -4,4"/>
<!-- Node1 -->
<g id="node1" class="node"><title>Node1</title>
<polygon fill="#bfbfbf" stroke="black" points="980.5,-458.5 980.5,-477.5 1055.5,-477.5 1055.5,-458.5 980.5,-458.5"/>
<text text-anchor="middle" x="1018" y="-465.5" font-family="Helvetica,sans-Serif" font-size="10.00">model.Node</text>
</g>
<!-- Node2 -->
<g id="node2" class="node"><title>Node2</title>
<polygon fill="white" stroke="#bfbfbf" points="668,-496.5 668,-515.5 782,-515.5 782,-496.5 668,-496.5"/>
<text text-anchor="middle" x="725" y="-503.5" font-family="Helvetica,sans-Serif" font-size="10.00">List&lt; model.Node &gt;</text>
</g>
<!-- Node2&#45;&gt;Node1 -->
<g id="edge1" class="edge"><title>Node2&#45;&gt;Node1</title>
<path fill="none" stroke="#9a32cd" stroke-dasharray="5,2" d="M792.125,-500.289C832.612,-496.457 885.419,-490.86 932,-484 947.896,-481.659 965.353,-478.48 980.289,-475.572"/>
<polygon fill="#9a32cd" stroke="#9a32cd" points="791.74,-496.809 782.109,-501.225 792.391,-503.779 791.74,-496.809"/>
<text text-anchor="middle" x="881" y="-500" font-family="Helvetica,sans-Serif" font-size="10.00"> myChildren</text>
</g>
<!-- Node3 -->
<g id="node3" class="node"><title>Node3</title>
<g id="a_node3"><a xlink:href="../../d1/dea/classmodel_1_1instructions_1_1_instruction.html" target="_top" xlink:title="model.instructions.Instruction">
<polygon fill="white" stroke="black" points="646,-420.5 646,-439.5 804,-439.5 804,-420.5 646,-420.5"/>
<text text-anchor="middle" x="725" y="-427.5" font-family="Helvetica,sans-Serif" font-size="10.00">model.instructions.Instruction</text>
</a>
</g>
</g>
<!-- Node3&#45;&gt;Node1 -->
<g id="edge2" class="edge"><title>Node3&#45;&gt;Node1</title>
<path fill="none" stroke="#9a32cd" stroke-dasharray="5,2" d="M809.056,-440.846C865.555,-448.224 937.558,-457.626 980.315,-463.209"/>
<polygon fill="#9a32cd" stroke="#9a32cd" points="809.425,-437.364 799.056,-439.54 808.519,-444.305 809.425,-437.364"/>
<text text-anchor="middle" x="881" y="-460" font-family="Helvetica,sans-Serif" font-size="10.00"> myInstruction</text>
</g>
<!-- Node4 -->
<g id="node4" class="node"><title>Node4</title>
<polygon fill="white" stroke="#bfbfbf" points="57,-231.5 57,-250.5 117,-250.5 117,-231.5 57,-231.5"/>
<text text-anchor="middle" x="87" y="-238.5" font-family="Helvetica,sans-Serif" font-size="10.00">Observer</text>
</g>
<!-- Node4&#45;&gt;Node3 -->
<g id="edge3" class="edge"><title>Node4&#45;&gt;Node3</title>
<path fill="none" stroke="midnightblue" d="M127.462,-241.063C143.753,-243.09 161.669,-248.212 174,-260 196.288,-281.306 169.435,-305.987 192,-327 200.832,-335.224 537.48,-396.471 670.608,-420.431"/>
<polygon fill="midnightblue" stroke="midnightblue" points="127.336,-237.538 117.065,-240.138 126.716,-244.51 127.336,-237.538"/>
</g>
<!-- Node10 -->
<g id="node10" class="node"><title>Node10</title>
<g id="a_node10"><a xlink:href="../../d6/de7/classview_1_1_s_logo_view.html" target="_top" xlink:title="view.SLogoView">
<polygon fill="white" stroke="black" points="355.5,-305.5 355.5,-324.5 446.5,-324.5 446.5,-305.5 355.5,-305.5"/>
<text text-anchor="middle" x="401" y="-312.5" font-family="Helvetica,sans-Serif" font-size="10.00">view.SLogoView</text>
</a>
</g>
</g>
<!-- Node4&#45;&gt;Node10 -->
<g id="edge10" class="edge"><title>Node4&#45;&gt;Node10</title>
<path fill="none" stroke="midnightblue" d="M127.096,-247.724C170.573,-255.489 242.754,-269.236 304,-285 327.167,-290.963 353.032,-299.135 372.072,-305.445"/>
<polygon fill="midnightblue" stroke="midnightblue" points="127.67,-244.272 117.213,-245.974 126.449,-251.165 127.67,-244.272"/>
</g>
<!-- Node21 -->
<g id="node21" class="node"><title>Node21</title>
<g id="a_node21"><a xlink:href="../../dc/df5/classmodel_1_1_parser.html" target="_top" xlink:title="model.Parser">
<polygon fill="white" stroke="black" points="685,-93.5 685,-112.5 765,-112.5 765,-93.5 685,-93.5"/>
<text text-anchor="middle" x="725" y="-100.5" font-family="Helvetica,sans-Serif" font-size="10.00">model.Parser</text>
</a>
</g>
</g>
<!-- Node4&#45;&gt;Node21 -->
<g id="edge22" class="edge"><title>Node4&#45;&gt;Node21</title>
<path fill="none" stroke="midnightblue" d="M127.207,-230.051C199.887,-210.021 360.646,-166.971 498,-139 563.016,-125.76 639.381,-114.474 684.621,-108.227"/>
<polygon fill="midnightblue" stroke="midnightblue" points="125.842,-226.797 117.136,-232.834 127.707,-233.544 125.842,-226.797"/>
</g>
<!-- Node5 -->
<g id="node5" class="node"><title>Node5</title>
<g id="a_node5"><a xlink:href="../../d1/dca/classmodel_1_1_execution_environment.html" target="_top" xlink:title="model.ExecutionEnvironment">
<polygon fill="white" stroke="black" points="322.5,-89.5 322.5,-108.5 479.5,-108.5 479.5,-89.5 322.5,-89.5"/>
<text text-anchor="middle" x="401" y="-96.5" font-family="Helvetica,sans-Serif" font-size="10.00">model.ExecutionEnvironment</text>
</a>
</g>
</g>
<!-- Node5&#45;&gt;Node3 -->
<g id="edge4" class="edge"><title>Node5&#45;&gt;Node3</title>
<path fill="none" stroke="#9a32cd" stroke-dasharray="5,2" d="M419.069,-115.569C437.139,-132.098 467.251,-156.868 498,-170 548.598,-191.61 582.861,-150.406 620,-191 653.111,-227.191 605.748,-374.041 638,-411 641.217,-414.687 644.974,-417.748 649.085,-420.284"/>
<polygon fill="#9a32cd" stroke="#9a32cd" points="421.346,-112.906 411.654,-108.626 416.561,-118.016 421.346,-112.906"/>
<text text-anchor="middle" x="559" y="-194" font-family="Helvetica,sans-Serif" font-size="10.00"> myEnvironment</text>
</g>
<!-- Node5&#45;&gt;Node21 -->
<g id="edge24" class="edge"><title>Node5&#45;&gt;Node21</title>
<path fill="none" stroke="#9a32cd" stroke-dasharray="5,2" d="M489.885,-98.9181C529.626,-99.0059 577.181,-99.2843 620,-100 641.492,-100.359 665.475,-101.033 684.99,-101.651"/>
<polygon fill="#9a32cd" stroke="#9a32cd" points="489.7,-95.4178 479.693,-98.8993 489.687,-102.418 489.7,-95.4178"/>
<text text-anchor="middle" x="559" y="-103" font-family="Helvetica,sans-Serif" font-size="10.00"> myExecutionParameters</text>
</g>
<!-- Node6 -->
<g id="node6" class="node"><title>Node6</title>
<polygon fill="white" stroke="#bfbfbf" points="51.5,-24.5 51.5,-43.5 122.5,-43.5 122.5,-24.5 51.5,-24.5"/>
<text text-anchor="middle" x="87" y="-31.5" font-family="Helvetica,sans-Serif" font-size="10.00">Observable</text>
</g>
<!-- Node6&#45;&gt;Node5 -->
<g id="edge5" class="edge"><title>Node6&#45;&gt;Node5</title>
<path fill="none" stroke="midnightblue" d="M132.884,-42.5447C176.626,-50.9643 244.983,-64.3661 304,-77 322.225,-80.9014 342.334,-85.4689 359.419,-89.428"/>
<polygon fill="midnightblue" stroke="midnightblue" points="133.336,-39.0677 122.855,-40.6188 132.016,-45.9421 133.336,-39.0677"/>
</g>
<!-- Node7 -->
<g id="node7" class="node"><title>Node7</title>
<polygon fill="white" stroke="#bfbfbf" points="0,-101 0,-131 174,-131 174,-101 0,-101"/>
<text text-anchor="start" x="8" y="-119" font-family="Helvetica,sans-Serif" font-size="10.00">Map&lt; String, model.instructions.</text>
<text text-anchor="middle" x="87" y="-108" font-family="Helvetica,sans-Serif" font-size="10.00">Instruction &gt;</text>
</g>
<!-- Node7&#45;&gt;Node5 -->
<g id="edge6" class="edge"><title>Node7&#45;&gt;Node5</title>
<path fill="none" stroke="#9a32cd" stroke-dasharray="5,2" d="M184.305,-110.753C228.685,-108.334 280.655,-105.503 322.461,-103.225"/>
<polygon fill="#9a32cd" stroke="#9a32cd" points="183.876,-107.271 174.081,-111.31 184.257,-114.26 183.876,-107.271"/>
<text text-anchor="middle" x="248" y="-114" font-family="Helvetica,sans-Serif" font-size="10.00"> myUserInstructionMap</text>
</g>
<!-- Node8 -->
<g id="node8" class="node"><title>Node8</title>
<polygon fill="white" stroke="#bfbfbf" points="23,-62.5 23,-81.5 151,-81.5 151,-62.5 23,-62.5"/>
<text text-anchor="middle" x="87" y="-69.5" font-family="Helvetica,sans-Serif" font-size="10.00">Map&lt; String, Double &gt;</text>
</g>
<!-- Node8&#45;&gt;Node5 -->
<g id="edge7" class="edge"><title>Node8&#45;&gt;Node5</title>
<path fill="none" stroke="#9a32cd" stroke-dasharray="5,2" d="M161.434,-77.9301C203.232,-81.3529 256.559,-85.7996 304,-90 310.003,-90.5315 316.216,-91.0915 322.461,-91.6614"/>
<polygon fill="#9a32cd" stroke="#9a32cd" points="161.592,-74.4314 151.34,-77.105 161.021,-81.4081 161.592,-74.4314"/>
<text text-anchor="middle" x="248" y="-93" font-family="Helvetica,sans-Serif" font-size="10.00"> myVariableMap</text>
</g>
<!-- Node9 -->
<g id="node9" class="node"><title>Node9</title>
<polygon fill="white" stroke="#bfbfbf" points="333,-409 333,-439 469,-439 469,-409 333,-409"/>
<text text-anchor="start" x="341" y="-427" font-family="Helvetica,sans-Serif" font-size="10.00">List&lt; model.instructions.</text>
<text text-anchor="middle" x="401" y="-416" font-family="Helvetica,sans-Serif" font-size="10.00">Instruction &gt;</text>
</g>
<!-- Node9&#45;&gt;Node3 -->
<g id="edge8" class="edge"><title>Node9&#45;&gt;Node3</title>
<path fill="none" stroke="#9a32cd" stroke-dasharray="5,2" d="M479.307,-425.44C529.736,-426.38 595.34,-427.603 645.923,-428.545"/>
<polygon fill="#9a32cd" stroke="#9a32cd" points="479.173,-421.937 469.11,-425.25 479.043,-428.936 479.173,-421.937"/>
<text text-anchor="middle" x="559" y="-432" font-family="Helvetica,sans-Serif" font-size="10.00"> myDependencies</text>
</g>
<!-- Node10&#45;&gt;Node3 -->
<g id="edge9" class="edge"><title>Node10&#45;&gt;Node3</title>
<path fill="none" stroke="#9a32cd" stroke-dasharray="5,2" d="M455.393,-303.968C504.15,-297.209 575.251,-296.157 620,-335 646.214,-357.754 613.27,-386.641 638,-411 641.813,-414.756 646.19,-417.839 650.907,-420.365"/>
<polygon fill="#9a32cd" stroke="#9a32cd" points="454.711,-300.532 445.345,-305.485 455.756,-307.453 454.711,-300.532"/>
<text text-anchor="middle" x="559" y="-338" font-family="Helvetica,sans-Serif" font-size="10.00"> myView</text>
</g>
<!-- Node10&#45;&gt;Node21 -->
<g id="edge26" class="edge"><title>Node10&#45;&gt;Node21</title>
<path fill="none" stroke="#9a32cd" stroke-dasharray="5,2" d="M415.662,-297.615C432.665,-277.269 463.681,-244.181 498,-227 547.34,-202.3 579.857,-241.856 620,-204 643.998,-181.37 615.631,-156.241 638,-132 650.075,-118.915 668.246,-111.731 684.779,-107.789"/>
<polygon fill="#9a32cd" stroke="#9a32cd" points="412.865,-295.506 409.263,-305.47 418.292,-299.927 412.865,-295.506"/>
<text text-anchor="middle" x="559" y="-230" font-family="Helvetica,sans-Serif" font-size="10.00"> mySLogoView</text>
</g>
<!-- Node11 -->
<g id="node11" class="node"><title>Node11</title>
<g id="a_node11"><a xlink:href="../../da/d64/classview_1_1_workspace.html" target="_top" xlink:title="view.Workspace">
<polygon fill="white" stroke="black" points="1198,-458.5 1198,-477.5 1288,-477.5 1288,-458.5 1198,-458.5"/>
<text text-anchor="middle" x="1243" y="-465.5" font-family="Helvetica,sans-Serif" font-size="10.00">view.Workspace</text>
</a>
</g>
</g>
<!-- Node11&#45;&gt;Node10 -->
<g id="edge11" class="edge"><title>Node11&#45;&gt;Node10</title>
<path fill="none" stroke="#9a32cd" stroke-dasharray="5,2" d="M1231.95,-486.565C1221.4,-504.204 1203.13,-530.044 1180,-544 1143.51,-566.022 1128.41,-558.757 1086,-563 986.939,-572.911 712.721,-628.788 638,-563 590.584,-521.252 656.745,-473.39 620,-422 596.091,-388.562 482.119,-343.982 429.162,-324.635"/>
<polygon fill="#9a32cd" stroke="#9a32cd" points="1235.07,-488.155 1237,-477.737 1229,-484.679 1235.07,-488.155"/>
<text text-anchor="middle" x="881" y="-596" font-family="Helvetica,sans-Serif" font-size="10.00"> myWorkspace</text>
</g>
<!-- Node34 -->
<g id="node34" class="node"><title>Node34</title>
<g id="a_node34"><a xlink:href="../../de/d0a/classview_1_1_drawer.html" target="_top" xlink:title="view.Drawer">
<polygon fill="white" stroke="black" points="1394.5,-458.5 1394.5,-477.5 1467.5,-477.5 1467.5,-458.5 1394.5,-458.5"/>
<text text-anchor="middle" x="1431" y="-465.5" font-family="Helvetica,sans-Serif" font-size="10.00">view.Drawer</text>
</a>
</g>
</g>
<!-- Node11&#45;&gt;Node34 -->
<g id="edge42" class="edge"><title>Node11&#45;&gt;Node34</title>
<path fill="none" stroke="#9a32cd" stroke-dasharray="5,2" d="M1298.28,-468C1329.23,-468 1367.14,-468 1394.33,-468"/>
<polygon fill="#9a32cd" stroke="#9a32cd" points="1298.08,-464.5 1288.08,-468 1298.08,-471.5 1298.08,-464.5"/>
<text text-anchor="middle" x="1341" y="-471" font-family="Helvetica,sans-Serif" font-size="10.00"> myWorkspace</text>
</g>
<!-- Node12 -->
<g id="node12" class="node"><title>Node12</title>
<polygon fill="white" stroke="#bfbfbf" points="984.5,-420.5 984.5,-439.5 1051.5,-439.5 1051.5,-420.5 984.5,-420.5"/>
<text text-anchor="middle" x="1018" y="-427.5" font-family="Helvetica,sans-Serif" font-size="10.00">StackPane</text>
</g>
<!-- Node12&#45;&gt;Node11 -->
<g id="edge12" class="edge"><title>Node12&#45;&gt;Node11</title>
<path fill="none" stroke="midnightblue" d="M1061.91,-437.312C1100.96,-443.966 1158.36,-453.747 1197.8,-460.469"/>
<polygon fill="midnightblue" stroke="midnightblue" points="1062.35,-433.837 1051.9,-435.607 1061.17,-440.737 1062.35,-433.837"/>
</g>
<!-- Node13 -->
<g id="node13" class="node"><title>Node13</title>
<g id="a_node13"><a xlink:href="../../d8/df7/classview_1_1_turtle_view.html" target="_top" xlink:title="view.TurtleView">
<polygon fill="white" stroke="black" points="975,-534.5 975,-553.5 1061,-553.5 1061,-534.5 975,-534.5"/>
<text text-anchor="middle" x="1018" y="-541.5" font-family="Helvetica,sans-Serif" font-size="10.00">view.TurtleView</text>
</a>
</g>
</g>
<!-- Node13&#45;&gt;Node11 -->
<g id="edge13" class="edge"><title>Node13&#45;&gt;Node11</title>
<path fill="none" stroke="#9a32cd" stroke-dasharray="5,2" d="M1071.25,-536.02C1103.4,-530.055 1145.02,-520.413 1180,-506 1197.98,-498.594 1216.76,-486.347 1228.88,-477.763"/>
<polygon fill="#9a32cd" stroke="#9a32cd" points="1070.38,-532.619 1061.16,-537.829 1071.62,-539.509 1070.38,-532.619"/>
<text text-anchor="middle" x="1142" y="-532" font-family="Helvetica,sans-Serif" font-size="10.00"> myActiveTurtle</text>
</g>
<!-- Node14 -->
<g id="node14" class="node"><title>Node14</title>
<polygon fill="white" stroke="#bfbfbf" points="691,-534.5 691,-553.5 759,-553.5 759,-534.5 691,-534.5"/>
<text text-anchor="middle" x="725" y="-541.5" font-family="Helvetica,sans-Serif" font-size="10.00">ImageView</text>
</g>
<!-- Node14&#45;&gt;Node13 -->
<g id="edge14" class="edge"><title>Node14&#45;&gt;Node13</title>
<path fill="none" stroke="midnightblue" d="M769.27,-544C824.553,-544 919.638,-544 974.533,-544"/>
<polygon fill="midnightblue" stroke="midnightblue" points="769.098,-540.5 759.098,-544 769.098,-547.5 769.098,-540.5"/>
</g>
<!-- Node15 -->
<g id="node15" class="node"><title>Node15</title>
<polygon fill="white" stroke="#bfbfbf" points="950,-371 950,-401 1086,-401 1086,-371 950,-371"/>
<text text-anchor="start" x="958" y="-389" font-family="Helvetica,sans-Serif" font-size="10.00">Map&lt; Integer, view.Turtle</text>
<text text-anchor="middle" x="1018" y="-378" font-family="Helvetica,sans-Serif" font-size="10.00">View &gt;</text>
</g>
<!-- Node15&#45;&gt;Node11 -->
<g id="edge15" class="edge"><title>Node15&#45;&gt;Node11</title>
<path fill="none" stroke="#9a32cd" stroke-dasharray="5,2" d="M1095.98,-403.071C1123.08,-410.234 1153.4,-419.585 1180,-431 1197.51,-438.512 1216.08,-450.148 1228.29,-458.362"/>
<polygon fill="#9a32cd" stroke="#9a32cd" points="1096.72,-399.645 1086.16,-400.531 1094.97,-406.423 1096.72,-399.645"/>
<text text-anchor="middle" x="1142" y="-434" font-family="Helvetica,sans-Serif" font-size="10.00"> myTurtles</text>
</g>
<!-- Node16 -->
<g id="node16" class="node"><title>Node16</title>
<g id="a_node16"><a xlink:href="../../d1/dc7/classview_1_1_side_bar.html" target="_top" xlink:title="view.SideBar">
<polygon fill="white" stroke="black" points="979.5,-290.5 979.5,-309.5 1056.5,-309.5 1056.5,-290.5 979.5,-290.5"/>
<text text-anchor="middle" x="1018" y="-297.5" font-family="Helvetica,sans-Serif" font-size="10.00">view.SideBar</text>
</a>
</g>
</g>
<!-- Node16&#45;&gt;Node10 -->
<g id="edge44" class="edge"><title>Node16&#45;&gt;Node10</title>
<path fill="none" stroke="#9a32cd" stroke-dasharray="5,2" d="M969.238,-295.367C877.447,-287.425 670.232,-274.154 498,-297 481.19,-299.23 462.865,-302.464 446.772,-305.578"/>
<polygon fill="#9a32cd" stroke="#9a32cd" points="969.059,-298.865 979.328,-296.259 969.675,-291.892 969.059,-298.865"/>
<text text-anchor="middle" x="725" y="-289" font-family="Helvetica,sans-Serif" font-size="10.00"> mySidebar</text>
</g>
<!-- Node16&#45;&gt;Node11 -->
<g id="edge16" class="edge"><title>Node16&#45;&gt;Node11</title>
<path fill="none" stroke="#9a32cd" stroke-dasharray="5,2" d="M1051.27,-313.789C1085.49,-329.378 1140,-357.061 1180,-391 1204.08,-411.433 1225.57,-442.272 1235.76,-458.002"/>
<polygon fill="#9a32cd" stroke="#9a32cd" points="1052.32,-310.425 1041.77,-309.532 1049.46,-316.814 1052.32,-310.425"/>
<text text-anchor="middle" x="1142" y="-394" font-family="Helvetica,sans-Serif" font-size="10.00"> mySidebar</text>
</g>
<!-- Node28 -->
<g id="node28" class="node"><title>Node28</title>
<g id="a_node28"><a xlink:href="../../da/dc8/classview_1_1_editor.html" target="_top" xlink:title="view.Editor">
<polygon fill="white" stroke="black" points="1209.5,-123.5 1209.5,-142.5 1276.5,-142.5 1276.5,-123.5 1209.5,-123.5"/>
<text text-anchor="middle" x="1243" y="-130.5" font-family="Helvetica,sans-Serif" font-size="10.00">view.Editor</text>
</a>
</g>
</g>
<!-- Node16&#45;&gt;Node28 -->
<g id="edge37" class="edge"><title>Node16&#45;&gt;Node28</title>
<path fill="none" stroke="#9a32cd" stroke-dasharray="5,2" d="M1039.96,-284.3C1085.54,-250.173 1192.48,-170.084 1229.29,-142.519"/>
<polygon fill="#9a32cd" stroke="#9a32cd" points="1037.86,-281.504 1031.95,-290.3 1042.06,-287.107 1037.86,-281.504"/>
<text text-anchor="middle" x="1142" y="-235" font-family="Helvetica,sans-Serif" font-size="10.00"> mySidebar</text>
</g>
<!-- Node17 -->
<g id="node17" class="node"><title>Node17</title>
<polygon fill="white" stroke="#bfbfbf" points="704.5,-344.5 704.5,-363.5 745.5,-363.5 745.5,-344.5 704.5,-344.5"/>
<text text-anchor="middle" x="725" y="-351.5" font-family="Helvetica,sans-Serif" font-size="10.00">VBox</text>
</g>
<!-- Node17&#45;&gt;Node16 -->
<g id="edge17" class="edge"><title>Node17&#45;&gt;Node16</title>
<path fill="none" stroke="midnightblue" d="M755.72,-351.195C795.978,-347.083 869.945,-338.418 932,-325 951.094,-320.871 972.162,-314.686 988.547,-309.501"/>
<polygon fill="midnightblue" stroke="midnightblue" points="755.37,-347.713 745.767,-352.189 756.066,-354.678 755.37,-347.713"/>
</g>
<!-- Node18 -->
<g id="node18" class="node"><title>Node18</title>
<polygon fill="white" stroke="#bfbfbf" points="638.5,-306.5 638.5,-325.5 811.5,-325.5 811.5,-306.5 638.5,-306.5"/>
<text text-anchor="middle" x="725" y="-313.5" font-family="Helvetica,sans-Serif" font-size="10.00">ObservableList&lt; view.Property &gt;</text>
</g>
<!-- Node18&#45;&gt;Node16 -->
<g id="edge18" class="edge"><title>Node18&#45;&gt;Node16</title>
<path fill="none" stroke="#9a32cd" stroke-dasharray="5,2" d="M821.992,-310.722C875.745,-307.767 939.734,-304.248 979.367,-302.069"/>
<polygon fill="#9a32cd" stroke="#9a32cd" points="821.528,-307.242 811.736,-311.286 821.913,-314.232 821.528,-307.242"/>
<text text-anchor="middle" x="881" y="-313" font-family="Helvetica,sans-Serif" font-size="10.00"> variablesList</text>
</g>
<!-- Node19 -->
<g id="node19" class="node"><title>Node19</title>
<polygon fill="white" stroke="#bfbfbf" points="40.5,-448.5 40.5,-467.5 133.5,-467.5 133.5,-448.5 40.5,-448.5"/>
<text text-anchor="middle" x="87" y="-455.5" font-family="Helvetica,sans-Serif" font-size="10.00">ResourceBundle</text>
</g>
<!-- Node19&#45;&gt;Node10 -->
<g id="edge31" class="edge"><title>Node19&#45;&gt;Node10</title>
<path fill="none" stroke="#9a32cd" stroke-dasharray="5,2" d="M143.5,-449.579C198.003,-440.662 276.81,-425.848 304,-411 324.79,-399.647 372.114,-346.941 391.489,-324.817"/>
<polygon fill="#9a32cd" stroke="#9a32cd" points="142.938,-446.124 133.624,-451.174 144.054,-453.034 142.938,-446.124"/>
<text text-anchor="middle" x="248" y="-444" font-family="Helvetica,sans-Serif" font-size="10.00"> myResources</text>
</g>
<!-- Node19&#45;&gt;Node16 -->
<g id="edge19" class="edge"><title>Node19&#45;&gt;Node16</title>
<path fill="none" stroke="#9a32cd" stroke-dasharray="5,2" d="M144.022,-465.454C266.971,-480.055 568.869,-506.268 812,-449 869.658,-435.419 888.268,-430.955 932,-391 943.479,-380.512 940.146,-373.029 950,-361 966.648,-340.678 990.087,-320.911 1004.37,-309.623"/>
<polygon fill="#9a32cd" stroke="#9a32cd" points="144.081,-461.936 133.733,-464.209 143.24,-468.885 144.081,-461.936"/>
<text text-anchor="middle" x="559" y="-487" font-family="Helvetica,sans-Serif" font-size="10.00"> myResources</text>
</g>
<!-- Node20 -->
<g id="node20" class="node"><title>Node20</title>
<polygon fill="white" stroke="#bfbfbf" points="651,-221.5 651,-240.5 799,-240.5 799,-221.5 651,-221.5"/>
<text text-anchor="middle" x="725" y="-228.5" font-family="Helvetica,sans-Serif" font-size="10.00">TableView&lt; view.Property &gt;</text>
</g>
<!-- Node20&#45;&gt;Node16 -->
<g id="edge20" class="edge"><title>Node20&#45;&gt;Node16</title>
<path fill="none" stroke="#9a32cd" stroke-dasharray="5,2" d="M809.225,-228.5C847.46,-229.603 892.896,-234.149 932,-247 960.912,-256.502 990.017,-277.78 1005.54,-290.294"/>
<polygon fill="#9a32cd" stroke="#9a32cd" points="809.23,-225 799.157,-228.283 809.079,-231.998 809.23,-225"/>
<text text-anchor="middle" x="881" y="-261" font-family="Helvetica,sans-Serif" font-size="10.00"> turtlePropertiesTable</text>
<text text-anchor="middle" x="881" y="-250" font-family="Helvetica,sans-Serif" font-size="10.00">variablesTable</text>
</g>
<!-- Node21&#45;&gt;Node10 -->
<g id="edge39" class="edge"><title>Node21&#45;&gt;Node10</title>
<path fill="none" stroke="#9a32cd" stroke-dasharray="5,2" d="M687.34,-115.827C667.56,-122.444 642.628,-130.299 620,-136 566.495,-149.48 543.454,-127.72 498,-159 442.986,-196.859 413.63,-277.58 404.856,-305.367"/>
<polygon fill="#9a32cd" stroke="#9a32cd" points="688.538,-119.117 696.888,-112.596 686.294,-112.486 688.538,-119.117"/>
<text text-anchor="middle" x="559" y="-162" font-family="Helvetica,sans-Serif" font-size="10.00"> myParser</text>
</g>
<!-- Node21&#45;&gt;Node16 -->
<g id="edge21" class="edge"><title>Node21&#45;&gt;Node16</title>
<path fill="none" stroke="#9a32cd" stroke-dasharray="5,2" d="M756.592,-116.794C777.075,-125.669 804.8,-136.998 830,-145 874.387,-159.094 893.912,-142.2 932,-169 943.751,-177.269 994.332,-261.681 1011.37,-290.453"/>
<polygon fill="#9a32cd" stroke="#9a32cd" points="757.726,-113.469 747.162,-112.659 754.915,-119.88 757.726,-113.469"/>
<text text-anchor="middle" x="881" y="-172" font-family="Helvetica,sans-Serif" font-size="10.00"> myParser</text>
</g>
<!-- Node21&#45;&gt;Node28 -->
<g id="edge35" class="edge"><title>Node21&#45;&gt;Node28</title>
<path fill="none" stroke="#9a32cd" stroke-dasharray="5,2" d="M775.407,-102.085C844.84,-101.164 975.206,-100.767 1086,-108 1127.97,-110.74 1138.54,-111.913 1180,-119 1189.57,-120.636 1199.89,-122.802 1209.31,-124.939"/>
<polygon fill="#9a32cd" stroke="#9a32cd" points="775.155,-98.5885 765.206,-102.23 775.255,-105.588 775.155,-98.5885"/>
<text text-anchor="middle" x="1018" y="-111" font-family="Helvetica,sans-Serif" font-size="10.00"> myParser</text>
</g>
<!-- Node22 -->
<g id="node22" class="node"><title>Node22</title>
<polygon fill="white" stroke="#bfbfbf" points="345,-40 345,-70 457,-70 457,-40 345,-40"/>
<text text-anchor="start" x="353" y="-58" font-family="Helvetica,sans-Serif" font-size="10.00">List&lt; Entry&lt; String,</text>
<text text-anchor="middle" x="401" y="-47" font-family="Helvetica,sans-Serif" font-size="10.00"> Pattern &gt; &gt;</text>
</g>
<!-- Node22&#45;&gt;Node21 -->
<g id="edge23" class="edge"><title>Node22&#45;&gt;Node21</title>
<path fill="none" stroke="#9a32cd" stroke-dasharray="5,2" d="M467.342,-62.853C510.709,-68.2713 568.849,-75.9302 620,-84 641.394,-87.3752 665.161,-91.6756 684.569,-95.3313"/>
<polygon fill="#9a32cd" stroke="#9a32cd" points="467.563,-59.3537 457.208,-61.594 466.7,-66.3003 467.563,-59.3537"/>
<text text-anchor="middle" x="559" y="-87" font-family="Helvetica,sans-Serif" font-size="10.00"> myPatterns</text>
</g>
<!-- Node23 -->
<g id="node23" class="node"><title>Node23</title>
<polygon fill="white" stroke="#bfbfbf" points="340,-1.5 340,-20.5 462,-20.5 462,-1.5 340,-1.5"/>
<text text-anchor="middle" x="401" y="-8.5" font-family="Helvetica,sans-Serif" font-size="10.00">Map&lt; String, String &gt;</text>
</g>
<!-- Node23&#45;&gt;Node21 -->
<g id="edge25" class="edge"><title>Node23&#45;&gt;Node21</title>
<path fill="none" stroke="#9a32cd" stroke-dasharray="5,2" d="M472.423,-19.8581C515.705,-26.4523 571.891,-37.0978 620,-53 652.337,-63.6887 687.588,-82.2304 707.623,-93.4819"/>
<polygon fill="#9a32cd" stroke="#9a32cd" points="472.679,-16.3578 462.273,-18.3497 471.65,-23.2818 472.679,-16.3578"/>
<text text-anchor="middle" x="559" y="-56" font-family="Helvetica,sans-Serif" font-size="10.00"> myCommandMap</text>
</g>
<!-- Node24 -->
<g id="node24" class="node"><title>Node24</title>
<polygon fill="white" stroke="#bfbfbf" points="656,-183.5 656,-202.5 794,-202.5 794,-183.5 656,-183.5"/>
<text text-anchor="middle" x="725" y="-190.5" font-family="Helvetica,sans-Serif" font-size="10.00">ObservableList&lt; String &gt;</text>
</g>
<!-- Node24&#45;&gt;Node16 -->
<g id="edge27" class="edge"><title>Node24&#45;&gt;Node16</title>
<path fill="none" stroke="#9a32cd" stroke-dasharray="5,2" d="M804.202,-183.261C844.27,-181.634 892.751,-185.054 932,-204 971.694,-223.161 1000.83,-270.11 1012,-290.4"/>
<polygon fill="#9a32cd" stroke="#9a32cd" points="804.013,-179.766 794.207,-183.777 804.374,-186.757 804.013,-179.766"/>
<text text-anchor="middle" x="881" y="-218" font-family="Helvetica,sans-Serif" font-size="10.00"> commandItems</text>
<text text-anchor="middle" x="881" y="-207" font-family="Helvetica,sans-Serif" font-size="10.00">historyItems</text>
</g>
<!-- Node25 -->
<g id="node25" class="node"><title>Node25</title>
<polygon fill="white" stroke="#bfbfbf" points="672,-382.5 672,-401.5 778,-401.5 778,-382.5 672,-382.5"/>
<text text-anchor="middle" x="725" y="-389.5" font-family="Helvetica,sans-Serif" font-size="10.00">ListView&lt; String &gt;</text>
</g>
<!-- Node25&#45;&gt;Node16 -->
<g id="edge28" class="edge"><title>Node25&#45;&gt;Node16</title>
<path fill="none" stroke="#9a32cd" stroke-dasharray="5,2" d="M788.034,-383.786C829.669,-377.062 885.243,-365.719 932,-348 958.624,-337.91 986.91,-320.392 1003.21,-309.54"/>
<polygon fill="#9a32cd" stroke="#9a32cd" points="787.369,-380.347 778.032,-385.355 788.454,-387.262 787.369,-380.347"/>
<text text-anchor="middle" x="881" y="-379" font-family="Helvetica,sans-Serif" font-size="10.00"> historyList</text>
</g>
<!-- Node26 -->
<g id="node26" class="node"><title>Node26</title>
<polygon fill="white" stroke="#bfbfbf" points="986.5,-496.5 986.5,-515.5 1049.5,-515.5 1049.5,-496.5 986.5,-496.5"/>
<text text-anchor="middle" x="1018" y="-503.5" font-family="Helvetica,sans-Serif" font-size="10.00">Rectangle</text>
</g>
<!-- Node26&#45;&gt;Node11 -->
<g id="edge29" class="edge"><title>Node26&#45;&gt;Node11</title>
<path fill="none" stroke="#9a32cd" stroke-dasharray="5,2" d="M1059.49,-499.1C1098.5,-492.453 1157.36,-482.424 1197.62,-475.563"/>
<polygon fill="#9a32cd" stroke="#9a32cd" points="1058.81,-495.666 1049.54,-500.796 1059.99,-502.566 1058.81,-495.666"/>
<text text-anchor="middle" x="1142" y="-494" font-family="Helvetica,sans-Serif" font-size="10.00"> myBackground</text>
</g>
<!-- Node27 -->
<g id="node27" class="node"><title>Node27</title>
<polygon fill="white" stroke="#bfbfbf" points="64.5,-362.5 64.5,-381.5 109.5,-381.5 109.5,-362.5 64.5,-362.5"/>
<text text-anchor="middle" x="87" y="-369.5" font-family="Helvetica,sans-Serif" font-size="10.00">Stage</text>
</g>
<!-- Node27&#45;&gt;Node10 -->
<g id="edge30" class="edge"><title>Node27&#45;&gt;Node10</title>
<path fill="none" stroke="#9a32cd" stroke-dasharray="5,2" d="M119.977,-366.158C175.9,-355.941 291.57,-334.809 355.356,-323.156"/>
<polygon fill="#9a32cd" stroke="#9a32cd" points="119.147,-362.752 109.939,-367.992 120.405,-369.638 119.147,-362.752"/>
<text text-anchor="middle" x="248" y="-355" font-family="Helvetica,sans-Serif" font-size="10.00"> myStage</text>
</g>
<!-- Node28&#45;&gt;Node10 -->
<g id="edge32" class="edge"><title>Node28&#45;&gt;Node10</title>
<path fill="none" stroke="#9a32cd" stroke-dasharray="5,2" d="M1199.29,-129.816C1124.29,-124.911 964.14,-117.5 830,-132 743.155,-141.388 701.556,-114.076 638,-174 616.501,-194.27 640.2,-216.435 620,-238 616.604,-241.625 488.053,-285.705 429.977,-305.492"/>
<polygon fill="#9a32cd" stroke="#9a32cd" points="1199.08,-133.31 1209.29,-130.489 1199.55,-126.326 1199.08,-133.31"/>
<text text-anchor="middle" x="881" y="-135" font-family="Helvetica,sans-Serif" font-size="10.00"> myEditor</text>
</g>
<!-- Node29 -->
<g id="node29" class="node"><title>Node29</title>
<polygon fill="white" stroke="#bfbfbf" points="997,-161.5 997,-180.5 1039,-180.5 1039,-161.5 997,-161.5"/>
<text text-anchor="middle" x="1018" y="-168.5" font-family="Helvetica,sans-Serif" font-size="10.00">HBox</text>
</g>
<!-- Node29&#45;&gt;Node28 -->
<g id="edge33" class="edge"><title>Node29&#45;&gt;Node28</title>
<path fill="none" stroke="midnightblue" d="M1049.34,-167.16C1081.79,-162.893 1134.7,-155.478 1180,-147 1189.54,-145.213 1199.85,-143.001 1209.27,-140.866"/>
<polygon fill="midnightblue" stroke="midnightblue" points="1048.63,-163.723 1039.16,-168.483 1049.53,-170.665 1048.63,-163.723"/>
</g>
<!-- Node30 -->
<g id="node30" class="node"><title>Node30</title>
<polygon fill="white" stroke="#bfbfbf" points="993.5,-38.5 993.5,-57.5 1042.5,-57.5 1042.5,-38.5 993.5,-38.5"/>
<text text-anchor="middle" x="1018" y="-45.5" font-family="Helvetica,sans-Serif" font-size="10.00">Button</text>
</g>
<!-- Node30&#45;&gt;Node28 -->
<g id="edge34" class="edge"><title>Node30&#45;&gt;Node28</title>
<path fill="none" stroke="#9a32cd" stroke-dasharray="5,2" d="M1052.85,-43.1546C1088.27,-40.0175 1143.67,-40.8078 1180,-69 1197.02,-82.2069 1182.98,-98.5633 1198,-114 1201.71,-117.816 1206.32,-120.912 1211.14,-123.409"/>
<polygon fill="#9a32cd" stroke="#9a32cd" points="1052.13,-39.711 1042.55,-44.2283 1052.85,-46.6733 1052.13,-39.711"/>
<text text-anchor="middle" x="1142" y="-72" font-family="Helvetica,sans-Serif" font-size="10.00"> runButton</text>
</g>
<!-- Node31 -->
<g id="node31" class="node"><title>Node31</title>
<polygon fill="white" stroke="#bfbfbf" points="989,-0.5 989,-19.5 1047,-19.5 1047,-0.5 989,-0.5"/>
<text text-anchor="middle" x="1018" y="-7.5" font-family="Helvetica,sans-Serif" font-size="10.00">TextArea</text>
</g>
<!-- Node31&#45;&gt;Node28 -->
<g id="edge36" class="edge"><title>Node31&#45;&gt;Node28</title>
<path fill="none" stroke="#9a32cd" stroke-dasharray="5,2" d="M1057.34,-3.03461C1093.58,1.18955 1147.17,0.961841 1180,-29 1208.52,-55.0321 1173.54,-84.118 1198,-114 1201.16,-117.863 1205.26,-120.959 1209.68,-123.436"/>
<polygon fill="#9a32cd" stroke="#9a32cd" points="1056.6,0.397882 1047.15,-4.39136 1057.52,-6.54089 1056.6,0.397882"/>
<text text-anchor="middle" x="1142" y="-32" font-family="Helvetica,sans-Serif" font-size="10.00"> textEditor</text>
</g>
<!-- Node32 -->
<g id="node32" class="node"><title>Node32</title>
<polygon fill="white" stroke="#bfbfbf" points="27.5,-307.5 27.5,-326.5 146.5,-326.5 146.5,-307.5 27.5,-307.5"/>
<text text-anchor="middle" x="87" y="-314.5" font-family="Helvetica,sans-Serif" font-size="10.00">Map&lt; String, Node &gt;</text>
</g>
<!-- Node32&#45;&gt;Node10 -->
<g id="edge38" class="edge"><title>Node32&#45;&gt;Node10</title>
<path fill="none" stroke="#9a32cd" stroke-dasharray="5,2" d="M156.899,-316.558C217.301,-316.171 303.343,-315.62 355.212,-315.287"/>
<polygon fill="#9a32cd" stroke="#9a32cd" points="156.662,-313.06 146.685,-316.624 156.707,-320.06 156.662,-313.06"/>
<text text-anchor="middle" x="248" y="-320" font-family="Helvetica,sans-Serif" font-size="10.00"> variables</text>
</g>
<!-- Node33 -->
<g id="node33" class="node"><title>Node33</title>
<polygon fill="white" stroke="#bfbfbf" points="46.5,-269.5 46.5,-288.5 127.5,-288.5 127.5,-269.5 46.5,-269.5"/>
<text text-anchor="middle" x="87" y="-276.5" font-family="Helvetica,sans-Serif" font-size="10.00">Dimension2D</text>
</g>
<!-- Node33&#45;&gt;Node10 -->
<g id="edge40" class="edge"><title>Node33&#45;&gt;Node10</title>
<path fill="none" stroke="#9a32cd" stroke-dasharray="5,2" d="M137.977,-283.471C181.8,-287.54 247.203,-293.97 304,-301 320.715,-303.069 339.02,-305.658 355.122,-308.045"/>
<polygon fill="#9a32cd" stroke="#9a32cd" points="138.148,-279.972 127.869,-282.539 137.505,-286.943 138.148,-279.972"/>
<text text-anchor="middle" x="248" y="-304" font-family="Helvetica,sans-Serif" font-size="10.00"> myDimensions</text>
</g>
<!-- Node34&#45;&gt;Node10 -->
<g id="edge41" class="edge"><title>Node34&#45;&gt;Node10</title>
<path fill="none" stroke="#9a32cd" stroke-dasharray="5,2" d="M1420.08,-486.466C1395.99,-528.558 1329.97,-628 1244,-628 724,-628 724,-628 724,-628 608.344,-628 561.266,-595.818 498,-499 473.297,-461.197 500.179,-439.399 480,-399 464.082,-367.131 432.29,-338.761 414.605,-324.577"/>
<polygon fill="#9a32cd" stroke="#9a32cd" points="1423.25,-487.969 1425.06,-477.53 1417.14,-484.564 1423.25,-487.969"/>
<text text-anchor="middle" x="1018" y="-631" font-family="Helvetica,sans-Serif" font-size="10.00"> drawer</text>
</g>
<!-- Node35 -->
<g id="node35" class="node"><title>Node35</title>
<polygon fill="white" stroke="#bfbfbf" points="1222.5,-85.5 1222.5,-104.5 1263.5,-104.5 1263.5,-85.5 1222.5,-85.5"/>
<text text-anchor="middle" x="1243" y="-92.5" font-family="Helvetica,sans-Serif" font-size="10.00">Color</text>
</g>
<!-- Node35&#45;&gt;Node34 -->
<g id="edge43" class="edge"><title>Node35&#45;&gt;Node34</title>
<path fill="none" stroke="#9a32cd" stroke-dasharray="5,2" d="M1273.49,-103.908C1278.8,-106.517 1283.94,-109.828 1288,-114 1391.97,-220.721 1422.87,-413.303 1428.83,-458.379"/>
<polygon fill="#9a32cd" stroke="#9a32cd" points="1274.51,-100.54 1263.93,-99.9357 1271.82,-107.004 1274.51,-100.54"/>
<text text-anchor="middle" x="1341" y="-257" font-family="Helvetica,sans-Serif" font-size="10.00"> myColor</text>
</g>
<!-- Node36 -->
<g id="node36" class="node"><title>Node36</title>
<polygon fill="white" stroke="#bfbfbf" points="64,-400.5 64,-419.5 110,-419.5 110,-400.5 64,-400.5"/>
<text text-anchor="middle" x="87" y="-407.5" font-family="Helvetica,sans-Serif" font-size="10.00">Group</text>
</g>
<!-- Node36&#45;&gt;Node10 -->
<g id="edge45" class="edge"><title>Node36&#45;&gt;Node10</title>
<path fill="none" stroke="#9a32cd" stroke-dasharray="5,2" d="M120.172,-406.648C163.097,-401.494 241.007,-389.742 304,-367 334.665,-355.929 367.46,-336.261 385.68,-324.546"/>
<polygon fill="#9a32cd" stroke="#9a32cd" points="119.575,-403.193 110.043,-407.819 120.378,-410.147 119.575,-403.193"/>
<text text-anchor="middle" x="248" y="-399" font-family="Helvetica,sans-Serif" font-size="10.00"> lines</text>
</g>
</g>
</svg>
        <g id="navigator" transform="translate(0 0)" fill="#404254">
                <rect fill="#f2f5e9" fill-opacity="0.5" stroke="#606060" stroke-width=".5" x="0" y="0" width="60" height="60"/>
                <use id="zoomplus" xlink:href="#zoomPlus" x="17" y="9" onmousedown="handleZoom(evt,'in')"/>
                <use id="zoomminus" xlink:href="#zoomMin" x="42" y="9" onmousedown="handleZoom(evt,'out')"/>
                <use id="reset" xlink:href="#resetDef" x="30" y="36" onmousedown="handleReset()"/>
                <g id="arrowUp" xlink:href="#dirArrow" transform="translate(30 24)" onmousedown="handlePan(0,-1)">
                  <use xlink:href="#rim" fill="#404040">
                        <set attributeName="fill" to="#808080" begin="arrowUp.mouseover" end="arrowUp.mouseout"/>
                  </use>
                  <path fill="none" stroke="white" stroke-width="1.5" d="M0,-3.0v7 M-2.5,-0.5L0,-3.0L2.5,-0.5"/>
                </g>
                <g id="arrowRight" xlink:href="#dirArrow" transform="rotate(90) translate(36 -43)" onmousedown="handlePan(1,0)">
                  <use xlink:href="#rim" fill="#404040">
                        <set attributeName="fill" to="#808080" begin="arrowRight.mouseover" end="arrowRight.mouseout"/>
                  </use>
                  <path fill="none" stroke="white" stroke-width="1.5" d="M0,-3.0v7 M-2.5,-0.5L0,-3.0L2.5,-0.5"/>
                </g>
                <g id="arrowDown" xlink:href="#dirArrow" transform="rotate(180) translate(-30 -48)" onmousedown="handlePan(0,1)">
                  <use xlink:href="#rim" fill="#404040">
                        <set attributeName="fill" to="#808080" begin="arrowDown.mouseover" end="arrowDown.mouseout"/>
                  </use>
                  <path fill="none" stroke="white" stroke-width="1.5" d="M0,-3.0v7 M-2.5,-0.5L0,-3.0L2.5,-0.5"/>
                </g>
                <g id="arrowLeft" xlink:href="#dirArrow" transform="rotate(270) translate(-36 17)" onmousedown="handlePan(-1,0)">
                  <use xlink:href="#rim" fill="#404040">
                        <set attributeName="fill" to="#808080" begin="arrowLeft.mouseover" end="arrowLeft.mouseout"/>
                  </use>
                  <path fill="none" stroke="white" stroke-width="1.5" d="M0,-3.0v7 M-2.5,-0.5L0,-3.0L2.5,-0.5"/>
                </g>
        </g>
        <svg viewBox="0 0 15 15" width="100%" height="30px" preserveAspectRatio="xMaxYMin meet">
         <g id="arrow_out" transform="scale(0.3 0.3)">
          <a xlink:href="classmodel_1_1_node__coll__graph_org.svg" target="_base">
           <rect id="button" ry="5" rx="5" y="6" x="6" height="38" width="38"
                fill="#f2f5e9" fill-opacity="0.5" stroke="#606060" stroke-width="1.0"/>
           <path id="arrow"
             d="M 11.500037,31.436501 C 11.940474,20.09759 22.043105,11.32322 32.158766,21.979434 L 37.068811,17.246167 C 37.068811,17.246167 37.088388,32 37.088388,32 L 22.160133,31.978069 C 22.160133,31.978069 26.997745,27.140456 26.997745,27.140456 C 18.528582,18.264221 13.291696,25.230495 11.500037,31.436501 z"
             style="fill:#404040;"/>
          </a>
         </g>
        </svg>
</svg>
