<?xml version="1.0" encoding="UTF-8" standalone="no"?>
<!DOCTYPE svg PUBLIC "-//W3C//DTD SVG 1.1//EN"
 "http://www.w3.org/Graphics/SVG/1.1/DTD/svg11.dtd">
<!-- Generated by graphviz version 2.36.0 (20140111.2315)
 -->
<!-- Title: model.Node Pages: 1 -->
<!--zoomable 708 -->
<svg id="main" version="1.1" xmlns="http://www.w3.org/2000/svg" xmlns:xlink="http://www.w3.org/1999/xlink" xml:space="preserve" onload="init(evt)">
<style type="text/css"><![CDATA[
.edge:hover path { stroke: red; }
.edge:hover polygon { stroke: red; fill: red; }
]]></style>
<script type="text/javascript"><![CDATA[
var edges = document.getElementsByTagName('g');
if (edges && edges.length) {
  for (var i=0;i<edges.length;i++) {
    if (edges[i].id.substr(0,4)=='edge') {
      edges[i].setAttribute('class','edge');
    }
  }
}
]]></script>
        <defs>
                <circle id="rim" cx="0" cy="0" r="7"/>
                <circle id="rim2" cx="0" cy="0" r="3.5"/>
                <g id="zoomPlus">
                        <use xlink:href="#rim" fill="#404040">
                                <set attributeName="fill" to="#808080" begin="zoomplus.mouseover" end="zoomplus.mouseout"/>
                        </use>
                        <path d="M-4,0h8M0,-4v8" fill="none" stroke="white" stroke-width="1.5" pointer-events="none"/>
                </g>
                <g id="zoomMin">
                        <use xlink:href="#rim" fill="#404040">
                                <set attributeName="fill" to="#808080" begin="zoomminus.mouseover" end="zoomminus.mouseout"/>
                        </use>
                        <path d="M-4,0h8" fill="none" stroke="white" stroke-width="1.5" pointer-events="none"/>
                </g>
                <g id="dirArrow">
                        <path fill="none" stroke="white" stroke-width="1.5" d="M0,-3.0v7 M-2.5,-0.5L0,-3.0L2.5,-0.5"/>
                </g>
               <g id="resetDef">
                       <use xlink:href="#rim2" fill="#404040">
                               <set attributeName="fill" to="#808080" begin="reset.mouseover" end="reset.mouseout"/>
                       </use>
               </g>
        </defs>

<script type="text/javascript">
var viewWidth = 1476;
var viewHeight = 708;
var sectionId = 'dynsection-0';
</script>
<script xlink:href="../../svgpan.js"/>
<svg id="graph" class="graph">
<g id="viewport">
<title>model.Node</title>
<polygon fill="white" stroke="none" points="-4,4 -4,-704 1472,-704 1472,4 -4,4"/>
<!-- Node1 -->
<g id="node1" class="node"><title>Node1</title>
<polygon fill="#bfbfbf" stroke="black" points="980.5,-227.5 980.5,-246.5 1055.5,-246.5 1055.5,-227.5 980.5,-227.5"/>
<text text-anchor="middle" x="1018" y="-234.5" font-family="Helvetica,sans-Serif" font-size="10.00">model.Node</text>
</g>
<!-- Node2 -->
<g id="node2" class="node"><title>Node2</title>
<polygon fill="white" stroke="#bfbfbf" points="668,-227.5 668,-246.5 782,-246.5 782,-227.5 668,-227.5"/>
<text text-anchor="middle" x="725" y="-234.5" font-family="Helvetica,sans-Serif" font-size="10.00">List&lt; model.Node &gt;</text>
</g>
<!-- Node2&#45;&gt;Node1 -->
<g id="edge1" class="edge"><title>Node2&#45;&gt;Node1</title>
<path fill="none" stroke="#9a32cd" stroke-dasharray="5,2" d="M792.332,-237C850.63,-237 933.308,-237 980.403,-237"/>
<polygon fill="#9a32cd" stroke="#9a32cd" points="792.108,-233.5 782.108,-237 792.108,-240.5 792.108,-233.5"/>
<text text-anchor="middle" x="881" y="-240" font-family="Helvetica,sans-Serif" font-size="10.00"> myChildren</text>
</g>
<!-- Node3 -->
<g id="node3" class="node"><title>Node3</title>
<g id="a_node3"><a xlink:href="../../d1/dea/classmodel_1_1instructions_1_1_instruction.html" target="_top" xlink:title="model.instructions.Instruction">
<polygon fill="white" stroke="black" points="646,-189.5 646,-208.5 804,-208.5 804,-189.5 646,-189.5"/>
<text text-anchor="middle" x="725" y="-196.5" font-family="Helvetica,sans-Serif" font-size="10.00">model.instructions.Instruction</text>
</a>
</g>
</g>
<!-- Node3&#45;&gt;Node1 -->
<g id="edge2" class="edge"><title>Node3&#45;&gt;Node1</title>
<path fill="none" stroke="#9a32cd" stroke-dasharray="5,2" d="M814.515,-207.638C850.968,-211.518 893.581,-216.471 932,-222 947.87,-224.284 965.323,-227.279 980.264,-229.992"/>
<polygon fill="#9a32cd" stroke="#9a32cd" points="814.717,-204.14 804.405,-206.572 813.983,-211.101 814.717,-204.14"/>
<text text-anchor="middle" x="881" y="-225" font-family="Helvetica,sans-Serif" font-size="10.00"> myInstruction</text>
</g>
<!-- Node4 -->
<g id="node4" class="node"><title>Node4</title>
<polygon fill="white" stroke="#bfbfbf" points="57,-181.5 57,-200.5 117,-200.5 117,-181.5 57,-181.5"/>
<text text-anchor="middle" x="87" y="-188.5" font-family="Helvetica,sans-Serif" font-size="10.00">Observer</text>
</g>
<!-- Node4&#45;&gt;Node3 -->
<g id="edge3" class="edge"><title>Node4&#45;&gt;Node3</title>
<path fill="none" stroke="midnightblue" d="M127.687,-191.499C230.904,-192.798 509.21,-196.298 645.979,-198.019"/>
<polygon fill="midnightblue" stroke="midnightblue" points="127.443,-187.996 117.4,-191.37 127.355,-194.995 127.443,-187.996"/>
</g>
<!-- Node10 -->
<g id="node10" class="node"><title>Node10</title>
<g id="a_node10"><a xlink:href="../../d6/de7/classview_1_1_s_logo_view.html" target="_top" xlink:title="view.SLogoView">
<polygon fill="white" stroke="black" points="355.5,-342.5 355.5,-361.5 446.5,-361.5 446.5,-342.5 355.5,-342.5"/>
<text text-anchor="middle" x="401" y="-349.5" font-family="Helvetica,sans-Serif" font-size="10.00">view.SLogoView</text>
</a>
</g>
</g>
<!-- Node4&#45;&gt;Node10 -->
<g id="edge10" class="edge"><title>Node4&#45;&gt;Node10</title>
<path fill="none" stroke="midnightblue" d="M115.942,-205.297C157.134,-226.389 236.571,-267.115 304,-302 331.038,-315.988 362.3,-332.295 381.612,-342.385"/>
<polygon fill="midnightblue" stroke="midnightblue" points="117.294,-202.058 106.798,-200.616 114.104,-208.289 117.294,-202.058"/>
</g>
<!-- Node21 -->
<g id="node21" class="node"><title>Node21</title>
<g id="a_node21"><a xlink:href="../../dc/df5/classmodel_1_1_parser.html" target="_top" xlink:title="model.Parser">
<polygon fill="white" stroke="black" points="685,-107.5 685,-126.5 765,-126.5 765,-107.5 685,-107.5"/>
<text text-anchor="middle" x="725" y="-114.5" font-family="Helvetica,sans-Serif" font-size="10.00">model.Parser</text>
</a>
</g>
</g>
<!-- Node4&#45;&gt;Node21 -->
<g id="edge23" class="edge"><title>Node4&#45;&gt;Node21</title>
<path fill="none" stroke="midnightblue" d="M127.385,-188.652C215.849,-183.052 436.899,-167.226 620,-139 641.523,-135.682 665.3,-130.749 684.681,-126.394"/>
<polygon fill="midnightblue" stroke="midnightblue" points="127.027,-185.168 117.265,-189.285 127.464,-192.154 127.027,-185.168"/>
</g>
<!-- Node5 -->
<g id="node5" class="node"><title>Node5</title>
<g id="a_node5"><a xlink:href="../../d1/dca/classmodel_1_1_execution_environment.html" target="_top" xlink:title="model.ExecutionEnvironment">
<polygon fill="white" stroke="black" points="322.5,-87.5 322.5,-106.5 479.5,-106.5 479.5,-87.5 322.5,-87.5"/>
<text text-anchor="middle" x="401" y="-94.5" font-family="Helvetica,sans-Serif" font-size="10.00">model.ExecutionEnvironment</text>
</a>
</g>
</g>
<!-- Node5&#45;&gt;Node3 -->
<g id="edge4" class="edge"><title>Node5&#45;&gt;Node3</title>
<path fill="none" stroke="#9a32cd" stroke-dasharray="5,2" d="M442.015,-109.656C485.742,-123.488 557.859,-146.307 620,-166 644.92,-173.897 673.194,-182.87 693.965,-189.463"/>
<polygon fill="#9a32cd" stroke="#9a32cd" points="442.921,-106.272 432.331,-106.593 440.81,-112.946 442.921,-106.272"/>
<text text-anchor="middle" x="559" y="-169" font-family="Helvetica,sans-Serif" font-size="10.00"> myEnvironment</text>
</g>
<!-- Node5&#45;&gt;Node21 -->
<g id="edge25" class="edge"><title>Node5&#45;&gt;Node21</title>
<path fill="none" stroke="#9a32cd" stroke-dasharray="5,2" d="M489.728,-94.1467C492.517,-94.0917 495.28,-94.0425 498,-94 552.216,-93.1531 566.099,-88.1109 620,-94 643.53,-96.5708 669.53,-102.321 689.647,-107.428"/>
<polygon fill="#9a32cd" stroke="#9a32cd" points="489.462,-90.6516 479.54,-94.369 489.614,-97.6499 489.462,-90.6516"/>
<text text-anchor="middle" x="559" y="-97" font-family="Helvetica,sans-Serif" font-size="10.00"> myExecutionParameters</text>
</g>
<!-- Node6 -->
<g id="node6" class="node"><title>Node6</title>
<polygon fill="white" stroke="#bfbfbf" points="51.5,-40.5 51.5,-59.5 122.5,-59.5 122.5,-40.5 51.5,-40.5"/>
<text text-anchor="middle" x="87" y="-47.5" font-family="Helvetica,sans-Serif" font-size="10.00">Observable</text>
</g>
<!-- Node6&#45;&gt;Node5 -->
<g id="edge5" class="edge"><title>Node6&#45;&gt;Node5</title>
<path fill="none" stroke="midnightblue" d="M132.773,-56.7447C186.251,-64.8006 276.066,-78.3304 336.648,-87.4566"/>
<polygon fill="midnightblue" stroke="midnightblue" points="132.991,-53.2381 122.582,-55.2094 131.949,-60.16 132.991,-53.2381"/>
</g>
<!-- Node7 -->
<g id="node7" class="node"><title>Node7</title>
<polygon fill="white" stroke="#bfbfbf" points="0,-117 0,-147 174,-147 174,-117 0,-117"/>
<text text-anchor="start" x="8" y="-135" font-family="Helvetica,sans-Serif" font-size="10.00">Map&lt; String, model.instructions.</text>
<text text-anchor="middle" x="87" y="-124" font-family="Helvetica,sans-Serif" font-size="10.00">Instruction &gt;</text>
</g>
<!-- Node7&#45;&gt;Node5 -->
<g id="edge6" class="edge"><title>Node7&#45;&gt;Node5</title>
<path fill="none" stroke="#9a32cd" stroke-dasharray="5,2" d="M184.025,-121.228C228.466,-116.243 280.567,-110.398 322.461,-105.698"/>
<polygon fill="#9a32cd" stroke="#9a32cd" points="183.629,-117.75 174.081,-122.343 184.409,-124.707 183.629,-117.75"/>
<text text-anchor="middle" x="248" y="-123" font-family="Helvetica,sans-Serif" font-size="10.00"> myUserInstructionMap</text>
</g>
<!-- Node8 -->
<g id="node8" class="node"><title>Node8</title>
<polygon fill="white" stroke="#bfbfbf" points="23,-78.5 23,-97.5 151,-97.5 151,-78.5 23,-78.5"/>
<text text-anchor="middle" x="87" y="-85.5" font-family="Helvetica,sans-Serif" font-size="10.00">Map&lt; String, Double &gt;</text>
</g>
<!-- Node8&#45;&gt;Node5 -->
<g id="edge7" class="edge"><title>Node8&#45;&gt;Node5</title>
<path fill="none" stroke="#9a32cd" stroke-dasharray="5,2" d="M161.419,-89.9762C203.213,-91.117 256.541,-92.5993 304,-94 310,-94.1771 316.211,-94.3637 322.456,-94.5537"/>
<polygon fill="#9a32cd" stroke="#9a32cd" points="161.418,-86.475 151.327,-89.7013 161.227,-93.4724 161.418,-86.475"/>
<text text-anchor="middle" x="248" y="-97" font-family="Helvetica,sans-Serif" font-size="10.00"> myVariableMap</text>
</g>
<!-- Node9 -->
<g id="node9" class="node"><title>Node9</title>
<polygon fill="white" stroke="#bfbfbf" points="333,-220 333,-250 469,-250 469,-220 333,-220"/>
<text text-anchor="start" x="341" y="-238" font-family="Helvetica,sans-Serif" font-size="10.00">List&lt; model.instructions.</text>
<text text-anchor="middle" x="401" y="-227" font-family="Helvetica,sans-Serif" font-size="10.00">Instruction &gt;</text>
</g>
<!-- Node9&#45;&gt;Node3 -->
<g id="edge8" class="edge"><title>Node9&#45;&gt;Node3</title>
<path fill="none" stroke="#9a32cd" stroke-dasharray="5,2" d="M479.307,-226.357C529.736,-220.719 595.34,-213.384 645.923,-207.729"/>
<polygon fill="#9a32cd" stroke="#9a32cd" points="478.659,-222.908 469.11,-227.497 479.437,-229.864 478.659,-222.908"/>
<text text-anchor="middle" x="559" y="-227" font-family="Helvetica,sans-Serif" font-size="10.00"> myDependencies</text>
</g>
<!-- Node10&#45;&gt;Node3 -->
<g id="edge9" class="edge"><title>Node10&#45;&gt;Node3</title>
<path fill="none" stroke="#9a32cd" stroke-dasharray="5,2" d="M446.28,-339.793C462.492,-335.502 481.021,-330.807 498,-327 551.841,-314.929 580.596,-342.624 620,-304 647.887,-276.664 610.541,-245.766 638,-218 641.763,-214.195 646.105,-211.075 650.796,-208.524"/>
<polygon fill="#9a32cd" stroke="#9a32cd" points="445.278,-336.437 436.52,-342.4 447.085,-343.2 445.278,-336.437"/>
<text text-anchor="middle" x="559" y="-330" font-family="Helvetica,sans-Serif" font-size="10.00"> myView</text>
</g>
<!-- Node10&#45;&gt;Node21 -->
<g id="edge27" class="edge"><title>Node10&#45;&gt;Node21</title>
<path fill="none" stroke="#9a32cd" stroke-dasharray="5,2" d="M414.956,-334.232C431.629,-312.775 462.686,-277.292 498,-259 546.995,-233.622 578.629,-272.51 620,-236 639.601,-218.701 622.709,-201.204 638,-180 655.429,-155.831 684.951,-137.144 704.461,-126.603"/>
<polygon fill="#9a32cd" stroke="#9a32cd" points="412.154,-332.134 408.911,-342.22 417.736,-336.359 412.154,-332.134"/>
<text text-anchor="middle" x="559" y="-262" font-family="Helvetica,sans-Serif" font-size="10.00"> mySLogoView</text>
</g>
<!-- Node11 -->
<g id="node11" class="node"><title>Node11</title>
<g id="a_node11"><a xlink:href="../../da/d64/classview_1_1_workspace.html" target="_top" xlink:title="view.Workspace">
<polygon fill="white" stroke="black" points="1198,-519.5 1198,-538.5 1288,-538.5 1288,-519.5 1198,-519.5"/>
<text text-anchor="middle" x="1243" y="-526.5" font-family="Helvetica,sans-Serif" font-size="10.00">view.Workspace</text>
</a>
</g>
</g>
<!-- Node11&#45;&gt;Node10 -->
<g id="edge11" class="edge"><title>Node11&#45;&gt;Node10</title>
<path fill="none" stroke="#9a32cd" stroke-dasharray="5,2" d="M1188.74,-540.537C1081.13,-561.424 831.589,-597.502 638,-531 533.435,-495.08 438.047,-393.239 410.175,-361.539"/>
<polygon fill="#9a32cd" stroke="#9a32cd" points="1189.57,-543.94 1198.7,-538.567 1188.21,-537.073 1189.57,-543.94"/>
<text text-anchor="middle" x="881" y="-572" font-family="Helvetica,sans-Serif" font-size="10.00"> myWorkspace</text>
</g>
<!-- Node16 -->
<g id="node16" class="node"><title>Node16</title>
<g id="a_node16"><a xlink:href="../../d1/dc7/classview_1_1_side_bar.html" target="_top" xlink:title="view.SideBar">
<polygon fill="white" stroke="black" points="979.5,-392.5 979.5,-411.5 1056.5,-411.5 1056.5,-392.5 979.5,-392.5"/>
<text text-anchor="middle" x="1018" y="-399.5" font-family="Helvetica,sans-Serif" font-size="10.00">view.SideBar</text>
</a>
</g>
</g>
<!-- Node11&#45;&gt;Node16 -->
<g id="edge18" class="edge"><title>Node11&#45;&gt;Node16</title>
<path fill="none" stroke="#9a32cd" stroke-dasharray="5,2" d="M1201.05,-513.341C1199.95,-512.297 1198.93,-511.185 1198,-510 1168.97,-473.152 1215.51,-436.653 1180,-406 1144.13,-375.032 1085.18,-383.319 1049.43,-392.454"/>
<polygon fill="#9a32cd" stroke="#9a32cd" points="1198.99,-516.169 1209.11,-519.287 1203.14,-510.535 1198.99,-516.169"/>
<text text-anchor="middle" x="1142" y="-409" font-family="Helvetica,sans-Serif" font-size="10.00"> myWorkspace</text>
</g>
<!-- Node34 -->
<g id="node34" class="node"><title>Node34</title>
<g id="a_node34"><a xlink:href="../../de/d0a/classview_1_1_drawer.html" target="_top" xlink:title="view.Drawer">
<polygon fill="white" stroke="black" points="1394.5,-519.5 1394.5,-538.5 1467.5,-538.5 1467.5,-519.5 1394.5,-519.5"/>
<text text-anchor="middle" x="1431" y="-526.5" font-family="Helvetica,sans-Serif" font-size="10.00">view.Drawer</text>
</a>
</g>
</g>
<!-- Node11&#45;&gt;Node34 -->
<g id="edge43" class="edge"><title>Node11&#45;&gt;Node34</title>
<path fill="none" stroke="#9a32cd" stroke-dasharray="5,2" d="M1298.28,-529C1329.23,-529 1367.14,-529 1394.33,-529"/>
<polygon fill="#9a32cd" stroke="#9a32cd" points="1298.08,-525.5 1288.08,-529 1298.08,-532.5 1298.08,-525.5"/>
<text text-anchor="middle" x="1341" y="-532" font-family="Helvetica,sans-Serif" font-size="10.00"> myWorkspace</text>
</g>
<!-- Node12 -->
<g id="node12" class="node"><title>Node12</title>
<polygon fill="white" stroke="#bfbfbf" points="984.5,-579.5 984.5,-598.5 1051.5,-598.5 1051.5,-579.5 984.5,-579.5"/>
<text text-anchor="middle" x="1018" y="-586.5" font-family="Helvetica,sans-Serif" font-size="10.00">StackPane</text>
</g>
<!-- Node12&#45;&gt;Node11 -->
<g id="edge12" class="edge"><title>Node12&#45;&gt;Node11</title>
<path fill="none" stroke="midnightblue" d="M1061.86,-587.01C1094.92,-584.436 1141.37,-578.534 1180,-565 1198.09,-558.662 1216.85,-546.921 1228.93,-538.572"/>
<polygon fill="midnightblue" stroke="midnightblue" points="1061.36,-583.537 1051.63,-587.734 1061.85,-590.52 1061.36,-583.537"/>
</g>
<!-- Node13 -->
<g id="node13" class="node"><title>Node13</title>
<g id="a_node13"><a xlink:href="../../d8/df7/classview_1_1_turtle_view.html" target="_top" xlink:title="view.TurtleView">
<polygon fill="white" stroke="black" points="975,-617.5 975,-636.5 1061,-636.5 1061,-617.5 975,-617.5"/>
<text text-anchor="middle" x="1018" y="-624.5" font-family="Helvetica,sans-Serif" font-size="10.00">view.TurtleView</text>
</a>
</g>
</g>
<!-- Node13&#45;&gt;Node11 -->
<g id="edge13" class="edge"><title>Node13&#45;&gt;Node11</title>
<path fill="none" stroke="#9a32cd" stroke-dasharray="5,2" d="M1071.41,-620.85C1104.14,-615.387 1146.32,-605.304 1180,-587 1202.79,-574.613 1223.55,-551.844 1234.3,-538.823"/>
<polygon fill="#9a32cd" stroke="#9a32cd" points="1070.47,-617.455 1061.13,-622.466 1071.55,-624.37 1070.47,-617.455"/>
<text text-anchor="middle" x="1142" y="-616" font-family="Helvetica,sans-Serif" font-size="10.00"> myActiveTurtle</text>
</g>
<!-- Node14 -->
<g id="node14" class="node"><title>Node14</title>
<polygon fill="white" stroke="#bfbfbf" points="691,-617.5 691,-636.5 759,-636.5 759,-617.5 691,-617.5"/>
<text text-anchor="middle" x="725" y="-624.5" font-family="Helvetica,sans-Serif" font-size="10.00">ImageView</text>
</g>
<!-- Node14&#45;&gt;Node13 -->
<g id="edge14" class="edge"><title>Node14&#45;&gt;Node13</title>
<path fill="none" stroke="midnightblue" d="M769.27,-627C824.553,-627 919.638,-627 974.533,-627"/>
<polygon fill="midnightblue" stroke="midnightblue" points="769.098,-623.5 759.098,-627 769.098,-630.5 769.098,-623.5"/>
</g>
<!-- Node15 -->
<g id="node15" class="node"><title>Node15</title>
<polygon fill="white" stroke="#bfbfbf" points="950,-492 950,-522 1086,-522 1086,-492 950,-492"/>
<text text-anchor="start" x="958" y="-510" font-family="Helvetica,sans-Serif" font-size="10.00">Map&lt; Integer, view.Turtle</text>
<text text-anchor="middle" x="1018" y="-499" font-family="Helvetica,sans-Serif" font-size="10.00">View &gt;</text>
</g>
<!-- Node15&#45;&gt;Node11 -->
<g id="edge15" class="edge"><title>Node15&#45;&gt;Node11</title>
<path fill="none" stroke="#9a32cd" stroke-dasharray="5,2" d="M1096.56,-514.652C1130.44,-517.994 1168.95,-521.793 1197.82,-524.642"/>
<polygon fill="#9a32cd" stroke="#9a32cd" points="1096.51,-511.129 1086.21,-513.631 1095.82,-518.096 1096.51,-511.129"/>
<text text-anchor="middle" x="1142" y="-525" font-family="Helvetica,sans-Serif" font-size="10.00"> myTurtles</text>
</g>
<!-- Node16&#45;&gt;Node10 -->
<g id="edge45" class="edge"><title>Node16&#45;&gt;Node10</title>
<path fill="none" stroke="#9a32cd" stroke-dasharray="5,2" d="M969.408,-399.904C877.905,-395.606 671.159,-384.605 498,-366 481.253,-364.201 462.942,-361.671 446.843,-359.256"/>
<polygon fill="#9a32cd" stroke="#9a32cd" points="969.313,-403.403 979.465,-400.371 969.638,-396.411 969.313,-403.403"/>
<text text-anchor="middle" x="725" y="-395" font-family="Helvetica,sans-Serif" font-size="10.00"> mySidebar</text>
</g>
<!-- Node16&#45;&gt;Node11 -->
<g id="edge16" class="edge"><title>Node16&#45;&gt;Node11</title>
<path fill="none" stroke="#9a32cd" stroke-dasharray="5,2" d="M1066.68,-410.096C1102.05,-418.367 1149.27,-434.498 1180,-465 1195.29,-480.174 1182.98,-494.563 1198,-510 1201.71,-513.816 1206.32,-516.912 1211.14,-519.409"/>
<polygon fill="#9a32cd" stroke="#9a32cd" points="1067.1,-406.605 1056.58,-407.871 1065.59,-413.441 1067.1,-406.605"/>
<text text-anchor="middle" x="1142" y="-468" font-family="Helvetica,sans-Serif" font-size="10.00"> mySidebar</text>
</g>
<!-- Node28 -->
<g id="node28" class="node"><title>Node28</title>
<g id="a_node28"><a xlink:href="../../da/dc8/classview_1_1_editor.html" target="_top" xlink:title="view.Editor">
<polygon fill="white" stroke="black" points="1209.5,-170.5 1209.5,-189.5 1276.5,-189.5 1276.5,-170.5 1209.5,-170.5"/>
<text text-anchor="middle" x="1243" y="-177.5" font-family="Helvetica,sans-Serif" font-size="10.00">view.Editor</text>
</a>
</g>
</g>
<!-- Node16&#45;&gt;Node28 -->
<g id="edge38" class="edge"><title>Node16&#45;&gt;Node28</title>
<path fill="none" stroke="#9a32cd" stroke-dasharray="5,2" d="M1046.96,-387.469C1081.5,-368.461 1140.52,-332.415 1180,-289 1208.86,-257.27 1230.02,-209.827 1238.24,-189.644"/>
<polygon fill="#9a32cd" stroke="#9a32cd" points="1045.03,-384.532 1037.9,-392.37 1048.36,-390.689 1045.03,-384.532"/>
<text text-anchor="middle" x="1142" y="-355" font-family="Helvetica,sans-Serif" font-size="10.00"> mySidebar</text>
</g>
<!-- Node17 -->
<g id="node17" class="node"><title>Node17</title>
<polygon fill="white" stroke="#bfbfbf" points="704.5,-341.5 704.5,-360.5 745.5,-360.5 745.5,-341.5 704.5,-341.5"/>
<text text-anchor="middle" x="725" y="-348.5" font-family="Helvetica,sans-Serif" font-size="10.00">VBox</text>
</g>
<!-- Node17&#45;&gt;Node16 -->
<g id="edge17" class="edge"><title>Node17&#45;&gt;Node16</title>
<path fill="none" stroke="midnightblue" d="M755.585,-354.972C795.69,-360.498 869.486,-371.171 932,-383 947.6,-385.952 964.703,-389.679 979.451,-393.048"/>
<polygon fill="midnightblue" stroke="midnightblue" points="756.054,-351.504 745.672,-353.616 755.106,-358.439 756.054,-351.504"/>
</g>
<!-- Node18 -->
<g id="node18" class="node"><title>Node18</title>
<polygon fill="white" stroke="#bfbfbf" points="638.5,-303.5 638.5,-322.5 811.5,-322.5 811.5,-303.5 638.5,-303.5"/>
<text text-anchor="middle" x="725" y="-310.5" font-family="Helvetica,sans-Serif" font-size="10.00">ObservableList&lt; view.Property &gt;</text>
</g>
<!-- Node18&#45;&gt;Node16 -->
<g id="edge19" class="edge"><title>Node18&#45;&gt;Node16</title>
<path fill="none" stroke="#9a32cd" stroke-dasharray="5,2" d="M821.875,-323.404C857.245,-329.12 897.168,-337.833 932,-351 959.527,-361.406 988.205,-380.665 1004.21,-392.308"/>
<polygon fill="#9a32cd" stroke="#9a32cd" points="821.962,-319.875 811.543,-321.797 820.886,-326.792 821.962,-319.875"/>
<text text-anchor="middle" x="881" y="-354" font-family="Helvetica,sans-Serif" font-size="10.00"> variablesList</text>
</g>
<!-- Node19 -->
<g id="node19" class="node"><title>Node19</title>
<polygon fill="white" stroke="#bfbfbf" points="40.5,-557.5 40.5,-576.5 133.5,-576.5 133.5,-557.5 40.5,-557.5"/>
<text text-anchor="middle" x="87" y="-564.5" font-family="Helvetica,sans-Serif" font-size="10.00">ResourceBundle</text>
</g>
<!-- Node19&#45;&gt;Node10 -->
<g id="edge32" class="edge"><title>Node19&#45;&gt;Node10</title>
<path fill="none" stroke="#9a32cd" stroke-dasharray="5,2" d="M110.253,-551.666C170.693,-510.016 336.669,-395.642 385.997,-361.65"/>
<polygon fill="#9a32cd" stroke="#9a32cd" points="108.057,-548.928 101.809,-557.484 112.029,-554.692 108.057,-548.928"/>
<text text-anchor="middle" x="248" y="-494" font-family="Helvetica,sans-Serif" font-size="10.00"> myResources</text>
</g>
<!-- Node19&#45;&gt;Node16 -->
<g id="edge20" class="edge"><title>Node19&#45;&gt;Node16</title>
<path fill="none" stroke="#9a32cd" stroke-dasharray="5,2" d="M117.982,-580.943C198.298,-616.717 425.412,-707.545 620,-687 767.433,-671.434 851.791,-693.681 932,-569 962.367,-521.796 919.384,-491.043 950,-444 959.735,-429.042 976.86,-418.445 991.36,-411.637"/>
<polygon fill="#9a32cd" stroke="#9a32cd" points="119.052,-577.586 108.497,-576.668 116.175,-583.968 119.052,-577.586"/>
<text text-anchor="middle" x="559" y="-692" font-family="Helvetica,sans-Serif" font-size="10.00"> myResources</text>
</g>
<!-- Node20 -->
<g id="node20" class="node"><title>Node20</title>
<polygon fill="white" stroke="#bfbfbf" points="651,-502.5 651,-521.5 799,-521.5 799,-502.5 651,-502.5"/>
<text text-anchor="middle" x="725" y="-509.5" font-family="Helvetica,sans-Serif" font-size="10.00">TableView&lt; view.Property &gt;</text>
</g>
<!-- Node20&#45;&gt;Node16 -->
<g id="edge21" class="edge"><title>Node20&#45;&gt;Node16</title>
<path fill="none" stroke="#9a32cd" stroke-dasharray="5,2" d="M809.44,-510.257C857.814,-507.661 912.854,-501.482 932,-487 948.524,-474.502 936.595,-459.797 950,-444 962.08,-429.764 980.234,-418.8 994.599,-411.65"/>
<polygon fill="#9a32cd" stroke="#9a32cd" points="809.051,-506.772 799.235,-510.758 809.394,-513.763 809.051,-506.772"/>
<text text-anchor="middle" x="881" y="-522" font-family="Helvetica,sans-Serif" font-size="10.00"> turtlePropertiesTable</text>
<text text-anchor="middle" x="881" y="-511" font-family="Helvetica,sans-Serif" font-size="10.00">variablesTable</text>
</g>
<!-- Node21&#45;&gt;Node10 -->
<g id="edge40" class="edge"><title>Node21&#45;&gt;Node10</title>
<path fill="none" stroke="#9a32cd" stroke-dasharray="5,2" d="M694.219,-131.412C675.186,-142.172 651.604,-158.681 638,-180 616.057,-214.387 649.23,-241.547 620,-270 580.575,-308.377 549.331,-271.193 498,-291 464.839,-303.796 430.85,-328.755 413.591,-342.447"/>
<polygon fill="#9a32cd" stroke="#9a32cd" points="696,-134.428 703.134,-126.596 692.672,-128.27 696,-134.428"/>
<text text-anchor="middle" x="559" y="-294" font-family="Helvetica,sans-Serif" font-size="10.00"> myParser</text>
</g>
<!-- Node21&#45;&gt;Node16 -->
<g id="edge22" class="edge"><title>Node21&#45;&gt;Node16</title>
<path fill="none" stroke="#9a32cd" stroke-dasharray="5,2" d="M775.051,-123.006C821.739,-131.281 890.809,-150.597 932,-195 951.224,-215.723 940.08,-229.531 950,-256 969.771,-308.752 1000.06,-369.157 1011.95,-392.293"/>
<polygon fill="#9a32cd" stroke="#9a32cd" points="775.594,-119.548 765.155,-121.357 774.444,-126.453 775.594,-119.548"/>
<text text-anchor="middle" x="881" y="-198" font-family="Helvetica,sans-Serif" font-size="10.00"> myParser</text>
</g>
<!-- Node21&#45;&gt;Node28 -->
<g id="edge36" class="edge"><title>Node21&#45;&gt;Node28</title>
<path fill="none" stroke="#9a32cd" stroke-dasharray="5,2" d="M772.62,-105.221C841.952,-89.6385 975.89,-67.0066 1086,-93 1145.15,-106.964 1205.17,-150.544 1230.06,-170.204"/>
<polygon fill="#9a32cd" stroke="#9a32cd" points="771.831,-101.811 762.87,-107.462 773.4,-108.633 771.831,-101.811"/>
<text text-anchor="middle" x="1018" y="-96" font-family="Helvetica,sans-Serif" font-size="10.00"> myParser</text>
</g>
<!-- Node22 -->
<g id="node22" class="node"><title>Node22</title>
<polygon fill="white" stroke="#bfbfbf" points="345,-0 345,-30 457,-30 457,-0 345,-0"/>
<text text-anchor="start" x="353" y="-18" font-family="Helvetica,sans-Serif" font-size="10.00">List&lt; Entry&lt; String,</text>
<text text-anchor="middle" x="401" y="-7" font-family="Helvetica,sans-Serif" font-size="10.00"> Pattern &gt; &gt;</text>
</g>
<!-- Node22&#45;&gt;Node21 -->
<g id="edge24" class="edge"><title>Node22&#45;&gt;Node21</title>
<path fill="none" stroke="#9a32cd" stroke-dasharray="5,2" d="M467.095,-17.006C511.464,-20.1709 570.849,-27.9876 620,-47 657.756,-61.6045 695.549,-91.9393 713.394,-107.437"/>
<polygon fill="#9a32cd" stroke="#9a32cd" points="467.219,-13.5068 457.012,-16.348 466.763,-20.4919 467.219,-13.5068"/>
<text text-anchor="middle" x="559" y="-50" font-family="Helvetica,sans-Serif" font-size="10.00"> myPatterns</text>
</g>
<!-- Node23 -->
<g id="node23" class="node"><title>Node23</title>
<polygon fill="white" stroke="#bfbfbf" points="340,-49.5 340,-68.5 462,-68.5 462,-49.5 340,-49.5"/>
<text text-anchor="middle" x="401" y="-56.5" font-family="Helvetica,sans-Serif" font-size="10.00">Map&lt; String, String &gt;</text>
</g>
<!-- Node23&#45;&gt;Node21 -->
<g id="edge26" class="edge"><title>Node23&#45;&gt;Node21</title>
<path fill="none" stroke="#9a32cd" stroke-dasharray="5,2" d="M472.483,-59.7526C515.557,-61.4582 571.504,-65.9117 620,-77 650.362,-83.942 683.669,-97.9732 704.207,-107.431"/>
<polygon fill="#9a32cd" stroke="#9a32cd" points="472.5,-56.2511 462.382,-59.3934 472.251,-63.2467 472.5,-56.2511"/>
<text text-anchor="middle" x="559" y="-80" font-family="Helvetica,sans-Serif" font-size="10.00"> myCommandMap</text>
</g>
<!-- Node24 -->
<g id="node24" class="node"><title>Node24</title>
<polygon fill="white" stroke="#bfbfbf" points="656,-464.5 656,-483.5 794,-483.5 794,-464.5 656,-464.5"/>
<text text-anchor="middle" x="725" y="-471.5" font-family="Helvetica,sans-Serif" font-size="10.00">ObservableList&lt; String &gt;</text>
</g>
<!-- Node24&#45;&gt;Node16 -->
<g id="edge28" class="edge"><title>Node24&#45;&gt;Node16</title>
<path fill="none" stroke="#9a32cd" stroke-dasharray="5,2" d="M804.419,-465.226C843.303,-459.732 890.669,-451.308 932,-439 955.755,-431.926 981.689,-419.974 998.584,-411.572"/>
<polygon fill="#9a32cd" stroke="#9a32cd" points="803.639,-461.8 794.208,-466.629 804.592,-468.735 803.639,-461.8"/>
<text text-anchor="middle" x="881" y="-476" font-family="Helvetica,sans-Serif" font-size="10.00"> commandItems</text>
<text text-anchor="middle" x="881" y="-465" font-family="Helvetica,sans-Serif" font-size="10.00">historyItems</text>
</g>
<!-- Node25 -->
<g id="node25" class="node"><title>Node25</title>
<polygon fill="white" stroke="#bfbfbf" points="672,-426.5 672,-445.5 778,-445.5 778,-426.5 672,-426.5"/>
<text text-anchor="middle" x="725" y="-433.5" font-family="Helvetica,sans-Serif" font-size="10.00">ListView&lt; String &gt;</text>
</g>
<!-- Node25&#45;&gt;Node16 -->
<g id="edge29" class="edge"><title>Node25&#45;&gt;Node16</title>
<path fill="none" stroke="#9a32cd" stroke-dasharray="5,2" d="M788.174,-428.736C846.198,-421.956 930.89,-412.061 979.306,-406.404"/>
<polygon fill="#9a32cd" stroke="#9a32cd" points="787.551,-425.285 778.025,-429.921 788.364,-432.237 787.551,-425.285"/>
<text text-anchor="middle" x="881" y="-427" font-family="Helvetica,sans-Serif" font-size="10.00"> historyList</text>
</g>
<!-- Node26 -->
<g id="node26" class="node"><title>Node26</title>
<polygon fill="white" stroke="#bfbfbf" points="986.5,-453.5 986.5,-472.5 1049.5,-472.5 1049.5,-453.5 986.5,-453.5"/>
<text text-anchor="middle" x="1018" y="-460.5" font-family="Helvetica,sans-Serif" font-size="10.00">Rectangle</text>
</g>
<!-- Node26&#45;&gt;Node11 -->
<g id="edge30" class="edge"><title>Node26&#45;&gt;Node11</title>
<path fill="none" stroke="#9a32cd" stroke-dasharray="5,2" d="M1059.76,-469.909C1092.77,-476.145 1140.17,-486.562 1180,-501 1188.41,-504.048 1189.89,-506.226 1198,-510 1204.79,-513.16 1212.24,-516.447 1219.05,-519.38"/>
<polygon fill="#9a32cd" stroke="#9a32cd" points="1060.05,-466.403 1049.58,-468.031 1058.78,-473.287 1060.05,-466.403"/>
<text text-anchor="middle" x="1142" y="-504" font-family="Helvetica,sans-Serif" font-size="10.00"> myBackground</text>
</g>
<!-- Node27 -->
<g id="node27" class="node"><title>Node27</title>
<polygon fill="white" stroke="#bfbfbf" points="64.5,-361.5 64.5,-380.5 109.5,-380.5 109.5,-361.5 64.5,-361.5"/>
<text text-anchor="middle" x="87" y="-368.5" font-family="Helvetica,sans-Serif" font-size="10.00">Stage</text>
</g>
<!-- Node27&#45;&gt;Node10 -->
<g id="edge31" class="edge"><title>Node27&#45;&gt;Node10</title>
<path fill="none" stroke="#9a32cd" stroke-dasharray="5,2" d="M119.977,-369.053C175.9,-365.647 291.57,-358.603 355.356,-354.719"/>
<polygon fill="#9a32cd" stroke="#9a32cd" points="119.708,-365.562 109.939,-369.664 120.134,-372.55 119.708,-365.562"/>
<text text-anchor="middle" x="248" y="-368" font-family="Helvetica,sans-Serif" font-size="10.00"> myStage</text>
</g>
<!-- Node28&#45;&gt;Node10 -->
<g id="edge33" class="edge"><title>Node28&#45;&gt;Node10</title>
<path fill="none" stroke="#9a32cd" stroke-dasharray="5,2" d="M1218.48,-194.904C1188.86,-212.846 1135.79,-242.274 1086,-256 989.68,-282.552 718.523,-234.851 638,-294 620.972,-306.508 637.155,-325.667 620,-338 593.21,-357.26 502.127,-356.806 446.526,-354.539"/>
<polygon fill="#9a32cd" stroke="#9a32cd" points="1220.56,-197.737 1227.24,-189.517 1216.89,-191.774 1220.56,-197.737"/>
<text text-anchor="middle" x="881" y="-268" font-family="Helvetica,sans-Serif" font-size="10.00"> myEditor</text>
</g>
<!-- Node29 -->
<g id="node29" class="node"><title>Node29</title>
<polygon fill="white" stroke="#bfbfbf" points="997,-113.5 997,-132.5 1039,-132.5 1039,-113.5 997,-113.5"/>
<text text-anchor="middle" x="1018" y="-120.5" font-family="Helvetica,sans-Serif" font-size="10.00">HBox</text>
</g>
<!-- Node29&#45;&gt;Node28 -->
<g id="edge34" class="edge"><title>Node29&#45;&gt;Node28</title>
<path fill="none" stroke="midnightblue" d="M1048.91,-129.821C1081.31,-137.31 1134.48,-149.886 1180,-162 1189.86,-164.623 1200.54,-167.656 1210.22,-170.475"/>
<polygon fill="midnightblue" stroke="midnightblue" points="1049.68,-126.408 1039.15,-127.576 1048.11,-133.23 1049.68,-126.408"/>
</g>
<!-- Node30 -->
<g id="node30" class="node"><title>Node30</title>
<polygon fill="white" stroke="#bfbfbf" points="993.5,-189.5 993.5,-208.5 1042.5,-208.5 1042.5,-189.5 993.5,-189.5"/>
<text text-anchor="middle" x="1018" y="-196.5" font-family="Helvetica,sans-Serif" font-size="10.00">Button</text>
</g>
<!-- Node30&#45;&gt;Node28 -->
<g id="edge35" class="edge"><title>Node30&#45;&gt;Node28</title>
<path fill="none" stroke="#9a32cd" stroke-dasharray="5,2" d="M1052.98,-196.105C1095.41,-192.489 1167.51,-186.347 1209.33,-182.784"/>
<polygon fill="#9a32cd" stroke="#9a32cd" points="1052.53,-192.63 1042.86,-196.967 1053.13,-199.605 1052.53,-192.63"/>
<text text-anchor="middle" x="1142" y="-195" font-family="Helvetica,sans-Serif" font-size="10.00"> runButton</text>
</g>
<!-- Node31 -->
<g id="node31" class="node"><title>Node31</title>
<polygon fill="white" stroke="#bfbfbf" points="989,-151.5 989,-170.5 1047,-170.5 1047,-151.5 989,-151.5"/>
<text text-anchor="middle" x="1018" y="-158.5" font-family="Helvetica,sans-Serif" font-size="10.00">TextArea</text>
</g>
<!-- Node31&#45;&gt;Node28 -->
<g id="edge37" class="edge"><title>Node31&#45;&gt;Node28</title>
<path fill="none" stroke="#9a32cd" stroke-dasharray="5,2" d="M1057.3,-162.493C1089.97,-163.978 1138.15,-166.67 1180,-171 1189.52,-171.985 1199.82,-173.356 1209.24,-174.732"/>
<polygon fill="#9a32cd" stroke="#9a32cd" points="1057.41,-158.995 1047.27,-162.053 1057.11,-165.988 1057.41,-158.995"/>
<text text-anchor="middle" x="1142" y="-174" font-family="Helvetica,sans-Serif" font-size="10.00"> textEditor</text>
</g>
<!-- Node32 -->
<g id="node32" class="node"><title>Node32</title>
<polygon fill="white" stroke="#bfbfbf" points="27.5,-323.5 27.5,-342.5 146.5,-342.5 146.5,-323.5 27.5,-323.5"/>
<text text-anchor="middle" x="87" y="-330.5" font-family="Helvetica,sans-Serif" font-size="10.00">Map&lt; String, Node &gt;</text>
</g>
<!-- Node32&#45;&gt;Node10 -->
<g id="edge39" class="edge"><title>Node32&#45;&gt;Node10</title>
<path fill="none" stroke="#9a32cd" stroke-dasharray="5,2" d="M156.922,-335.943C199.356,-337.895 254.853,-340.702 304,-344 320.687,-345.12 338.986,-346.586 355.091,-347.956"/>
<polygon fill="#9a32cd" stroke="#9a32cd" points="156.852,-332.436 146.703,-335.477 156.533,-339.429 156.852,-332.436"/>
<text text-anchor="middle" x="248" y="-347" font-family="Helvetica,sans-Serif" font-size="10.00"> variables</text>
</g>
<!-- Node33 -->
<g id="node33" class="node"><title>Node33</title>
<polygon fill="white" stroke="#bfbfbf" points="46.5,-285.5 46.5,-304.5 127.5,-304.5 127.5,-285.5 46.5,-285.5"/>
<text text-anchor="middle" x="87" y="-292.5" font-family="Helvetica,sans-Serif" font-size="10.00">Dimension2D</text>
</g>
<!-- Node33&#45;&gt;Node10 -->
<g id="edge41" class="edge"><title>Node33&#45;&gt;Node10</title>
<path fill="none" stroke="#9a32cd" stroke-dasharray="5,2" d="M137.902,-299.121C181.937,-303.313 247.692,-310.931 304,-323 327.493,-328.035 353.554,-336.069 372.588,-342.405"/>
<polygon fill="#9a32cd" stroke="#9a32cd" points="138.027,-295.617 127.747,-298.178 137.38,-302.587 138.027,-295.617"/>
<text text-anchor="middle" x="248" y="-326" font-family="Helvetica,sans-Serif" font-size="10.00"> myDimensions</text>
</g>
<!-- Node34&#45;&gt;Node10 -->
<g id="edge42" class="edge"><title>Node34&#45;&gt;Node10</title>
<path fill="none" stroke="#9a32cd" stroke-dasharray="5,2" d="M1418.22,-547.706C1392.04,-586.682 1324.94,-673 1244,-673 724,-673 724,-673 724,-673 542.842,-673 427.708,-415.017 405.813,-361.607"/>
<polygon fill="#9a32cd" stroke="#9a32cd" points="1421.43,-549.183 1423.97,-538.898 1415.57,-545.354 1421.43,-549.183"/>
<text text-anchor="middle" x="1018" y="-676" font-family="Helvetica,sans-Serif" font-size="10.00"> drawer</text>
</g>
<!-- Node35 -->
<g id="node35" class="node"><title>Node35</title>
<polygon fill="white" stroke="#bfbfbf" points="1222.5,-481.5 1222.5,-500.5 1263.5,-500.5 1263.5,-481.5 1222.5,-481.5"/>
<text text-anchor="middle" x="1243" y="-488.5" font-family="Helvetica,sans-Serif" font-size="10.00">Color</text>
</g>
<!-- Node35&#45;&gt;Node34 -->
<g id="edge44" class="edge"><title>Node35&#45;&gt;Node34</title>
<path fill="none" stroke="#9a32cd" stroke-dasharray="5,2" d="M1273.73,-495.324C1300.59,-499.433 1341.14,-506.142 1376,-514 1383.02,-515.583 1390.5,-517.505 1397.58,-519.436"/>
<polygon fill="#9a32cd" stroke="#9a32cd" points="1274.21,-491.857 1263.8,-493.828 1273.17,-498.779 1274.21,-491.857"/>
<text text-anchor="middle" x="1341" y="-517" font-family="Helvetica,sans-Serif" font-size="10.00"> myColor</text>
</g>
<!-- Node36 -->
<g id="node36" class="node"><title>Node36</title>
<polygon fill="white" stroke="#bfbfbf" points="64,-399.5 64,-418.5 110,-418.5 110,-399.5 64,-399.5"/>
<text text-anchor="middle" x="87" y="-406.5" font-family="Helvetica,sans-Serif" font-size="10.00">Group</text>
</g>
<!-- Node36&#45;&gt;Node10 -->
<g id="edge46" class="edge"><title>Node36&#45;&gt;Node10</title>
<path fill="none" stroke="#9a32cd" stroke-dasharray="5,2" d="M120.291,-406.193C162.746,-402.156 239.505,-393.654 304,-380 326.929,-375.146 352.372,-367.625 371.301,-361.599"/>
<polygon fill="#9a32cd" stroke="#9a32cd" points="119.899,-402.715 110.265,-407.124 120.546,-409.685 119.899,-402.715"/>
<text text-anchor="middle" x="248" y="-402" font-family="Helvetica,sans-Serif" font-size="10.00"> lines</text>
</g>
</g>
</svg>
        <g id="navigator" transform="translate(0 0)" fill="#404254">
                <rect fill="#f2f5e9" fill-opacity="0.5" stroke="#606060" stroke-width=".5" x="0" y="0" width="60" height="60"/>
                <use id="zoomplus" xlink:href="#zoomPlus" x="17" y="9" onmousedown="handleZoom(evt,'in')"/>
                <use id="zoomminus" xlink:href="#zoomMin" x="42" y="9" onmousedown="handleZoom(evt,'out')"/>
                <use id="reset" xlink:href="#resetDef" x="30" y="36" onmousedown="handleReset()"/>
                <g id="arrowUp" xlink:href="#dirArrow" transform="translate(30 24)" onmousedown="handlePan(0,-1)">
                  <use xlink:href="#rim" fill="#404040">
                        <set attributeName="fill" to="#808080" begin="arrowUp.mouseover" end="arrowUp.mouseout"/>
                  </use>
                  <path fill="none" stroke="white" stroke-width="1.5" d="M0,-3.0v7 M-2.5,-0.5L0,-3.0L2.5,-0.5"/>
                </g>
                <g id="arrowRight" xlink:href="#dirArrow" transform="rotate(90) translate(36 -43)" onmousedown="handlePan(1,0)">
                  <use xlink:href="#rim" fill="#404040">
                        <set attributeName="fill" to="#808080" begin="arrowRight.mouseover" end="arrowRight.mouseout"/>
                  </use>
                  <path fill="none" stroke="white" stroke-width="1.5" d="M0,-3.0v7 M-2.5,-0.5L0,-3.0L2.5,-0.5"/>
                </g>
                <g id="arrowDown" xlink:href="#dirArrow" transform="rotate(180) translate(-30 -48)" onmousedown="handlePan(0,1)">
                  <use xlink:href="#rim" fill="#404040">
                        <set attributeName="fill" to="#808080" begin="arrowDown.mouseover" end="arrowDown.mouseout"/>
                  </use>
                  <path fill="none" stroke="white" stroke-width="1.5" d="M0,-3.0v7 M-2.5,-0.5L0,-3.0L2.5,-0.5"/>
                </g>
                <g id="arrowLeft" xlink:href="#dirArrow" transform="rotate(270) translate(-36 17)" onmousedown="handlePan(-1,0)">
                  <use xlink:href="#rim" fill="#404040">
                        <set attributeName="fill" to="#808080" begin="arrowLeft.mouseover" end="arrowLeft.mouseout"/>
                  </use>
                  <path fill="none" stroke="white" stroke-width="1.5" d="M0,-3.0v7 M-2.5,-0.5L0,-3.0L2.5,-0.5"/>
                </g>
        </g>
        <svg viewBox="0 0 15 15" width="100%" height="30px" preserveAspectRatio="xMaxYMin meet">
         <g id="arrow_out" transform="scale(0.3 0.3)">
          <a xlink:href="classmodel_1_1_node__coll__graph_org.svg" target="_base">
           <rect id="button" ry="5" rx="5" y="6" x="6" height="38" width="38"
                fill="#f2f5e9" fill-opacity="0.5" stroke="#606060" stroke-width="1.0"/>
           <path id="arrow"
             d="M 11.500037,31.436501 C 11.940474,20.09759 22.043105,11.32322 32.158766,21.979434 L 37.068811,17.246167 C 37.068811,17.246167 37.088388,32 37.088388,32 L 22.160133,31.978069 C 22.160133,31.978069 26.997745,27.140456 26.997745,27.140456 C 18.528582,18.264221 13.291696,25.230495 11.500037,31.436501 z"
             style="fill:#404040;"/>
          </a>
         </g>
        </svg>
</svg>
