<?xml version="1.0" encoding="UTF-8" standalone="no"?>
<!DOCTYPE svg PUBLIC "-//W3C//DTD SVG 1.1//EN"
 "http://www.w3.org/Graphics/SVG/1.1/DTD/svg11.dtd">
<!-- Generated by graphviz version 2.36.0 (20140111.2315)
 -->
<!-- Title: model.Parser.match Pages: 1 -->
<svg width="1190pt" height="104pt"
 viewBox="0.00 0.00 1190.00 104.00" xmlns="http://www.w3.org/2000/svg" xmlns:xlink="http://www.w3.org/1999/xlink">
<g id="graph0" class="graph" transform="scale(1 1) rotate(0) translate(4 100)">
<title>model.Parser.match</title>
<polygon fill="white" stroke="none" points="-4,4 -4,-100 1186,-100 1186,4 -4,4"/>
<!-- Node1 -->
<g id="node1" class="node"><title>Node1</title>
<polygon fill="#bfbfbf" stroke="black" points="0.5,-38.5 0.5,-57.5 113.5,-57.5 113.5,-38.5 0.5,-38.5"/>
<text text-anchor="middle" x="57" y="-45.5" font-family="Helvetica,sans-Serif" font-size="10.00">model.Parser.match</text>
</g>
<!-- Node2 -->
<g id="node2" class="node"><title>Node2</title>
<g id="a_node2"><a xlink:href="../../dc/df5/classmodel_1_1_parser.html#ae83c95a5190fc22b9b70b1a40b76661c" target="_top" xlink:title="model.Parser.makeTree">
<polygon fill="white" stroke="black" points="328,-38.5 328,-57.5 456,-57.5 456,-38.5 328,-38.5"/>
<text text-anchor="middle" x="392" y="-45.5" font-family="Helvetica,sans-Serif" font-size="10.00">model.Parser.makeTree</text>
</a>
</g>
</g>
<!-- Node1&#45;&gt;Node2 -->
<g id="edge1" class="edge"><title>Node1&#45;&gt;Node2</title>
<path fill="none" stroke="midnightblue" d="M123.737,-48C183.002,-48 269.566,-48 327.978,-48"/>
<polygon fill="midnightblue" stroke="midnightblue" points="123.737,-44.5001 113.737,-48 123.737,-51.5001 123.737,-44.5001"/>
</g>
<!-- Node9 -->
<g id="node9" class="node"><title>Node9</title>
<g id="a_node9"><a xlink:href="../../dc/df5/classmodel_1_1_parser.html#a367f66d63cda3e0b2733b078c20a1f73" target="_top" xlink:title="model.Parser.testMatches">
<polygon fill="white" stroke="black" points="150.5,-19.5 150.5,-38.5 291.5,-38.5 291.5,-19.5 150.5,-19.5"/>
<text text-anchor="middle" x="221" y="-26.5" font-family="Helvetica,sans-Serif" font-size="10.00">model.Parser.testMatches</text>
</a>
</g>
</g>
<!-- Node1&#45;&gt;Node9 -->
<g id="edge9" class="edge"><title>Node1&#45;&gt;Node9</title>
<path fill="none" stroke="midnightblue" d="M123.876,-40.2738C132.618,-39.2485 141.604,-38.1946 150.407,-37.1622"/>
<polygon fill="midnightblue" stroke="midnightblue" points="123.275,-36.8202 113.751,-41.4613 124.091,-43.7725 123.275,-36.8202"/>
</g>
<!-- Node3 -->
<g id="node3" class="node"><title>Node3</title>
<g id="a_node3"><a xlink:href="../../dc/df5/classmodel_1_1_parser.html#ab83c099e5a13c82b1a12d7eedda6fbf9" target="_top" xlink:title="model.Parser.parseAndExecute">
<polygon fill="white" stroke="black" points="492,-38.5 492,-57.5 658,-57.5 658,-38.5 492,-38.5"/>
<text text-anchor="middle" x="575" y="-45.5" font-family="Helvetica,sans-Serif" font-size="10.00">model.Parser.parseAndExecute</text>
</a>
</g>
</g>
<!-- Node2&#45;&gt;Node3 -->
<g id="edge2" class="edge"><title>Node2&#45;&gt;Node3</title>
<path fill="none" stroke="midnightblue" d="M466.192,-48C474.608,-48 483.231,-48 491.755,-48"/>
<polygon fill="midnightblue" stroke="midnightblue" points="466.051,-44.5001 456.051,-48 466.051,-51.5001 466.051,-44.5001"/>
</g>
<!-- Node4 -->
<g id="node4" class="node"><title>Node4</title>
<g id="a_node4"><a xlink:href="../../da/dc8/classview_1_1_editor.html#a149e24d4e5e4464f3fb1601f2717663b" target="_top" xlink:title="view.Editor.parse">
<polygon fill="white" stroke="black" points="730,-76.5 730,-95.5 826,-95.5 826,-76.5 730,-76.5"/>
<text text-anchor="middle" x="778" y="-83.5" font-family="Helvetica,sans-Serif" font-size="10.00">view.Editor.parse</text>
</a>
</g>
</g>
<!-- Node3&#45;&gt;Node4 -->
<g id="edge3" class="edge"><title>Node3&#45;&gt;Node4</title>
<path fill="none" stroke="midnightblue" d="M636.392,-59.4173C666.374,-65.0857 702.055,-71.8312 729.97,-77.1088"/>
<polygon fill="midnightblue" stroke="midnightblue" points="636.937,-55.9586 626.461,-57.54 635.637,-62.8368 636.937,-55.9586"/>
</g>
<!-- Node7 -->
<g id="node7" class="node"><title>Node7</title>
<g id="a_node7"><a xlink:href="../../d1/dc7/classview_1_1_side_bar.html#a9cca415e486afd24cccdd581f1938b13" target="_top" xlink:title="view.SideBar.SideBar">
<polygon fill="white" stroke="black" points="915,-19.5 915,-38.5 1031,-38.5 1031,-19.5 915,-19.5"/>
<text text-anchor="middle" x="973" y="-26.5" font-family="Helvetica,sans-Serif" font-size="10.00">view.SideBar.SideBar</text>
</a>
</g>
</g>
<!-- Node3&#45;&gt;Node7 -->
<g id="edge6" class="edge"><title>Node3&#45;&gt;Node7</title>
<path fill="none" stroke="midnightblue" d="M668.144,-43.579C744.454,-39.9176 850.479,-34.8306 914.996,-31.735"/>
<polygon fill="midnightblue" stroke="midnightblue" points="667.872,-40.0879 658.051,-44.0632 668.208,-47.0798 667.872,-40.0879"/>
</g>
<!-- Node8 -->
<g id="node8" class="node"><title>Node8</title>
<g id="a_node8"><a xlink:href="../../d1/dc7/classview_1_1_side_bar.html#ac97dbdf731a291e46ba643c78b4c5a93" target="_top" xlink:title="view.SideBar.createHistoryPane">
<polygon fill="white" stroke="black" points="694.5,-0.5 694.5,-19.5 861.5,-19.5 861.5,-0.5 694.5,-0.5"/>
<text text-anchor="middle" x="778" y="-7.5" font-family="Helvetica,sans-Serif" font-size="10.00">view.SideBar.createHistoryPane</text>
</a>
</g>
</g>
<!-- Node3&#45;&gt;Node8 -->
<g id="edge7" class="edge"><title>Node3&#45;&gt;Node8</title>
<path fill="none" stroke="midnightblue" d="M636.396,-36.5819C665.155,-31.1448 699.156,-24.7168 726.518,-19.5439"/>
<polygon fill="midnightblue" stroke="midnightblue" points="635.637,-33.1632 626.461,-38.46 636.937,-40.0414 635.637,-33.1632"/>
</g>
<!-- Node5 -->
<g id="node5" class="node"><title>Node5</title>
<g id="a_node5"><a xlink:href="../../da/dc8/classview_1_1_editor.html#abd790752cfd8c9f01fb5b27a3680a982" target="_top" xlink:title="view.Editor.createRunButton">
<polygon fill="white" stroke="black" points="898.5,-76.5 898.5,-95.5 1047.5,-95.5 1047.5,-76.5 898.5,-76.5"/>
<text text-anchor="middle" x="973" y="-83.5" font-family="Helvetica,sans-Serif" font-size="10.00">view.Editor.createRunButton</text>
</a>
</g>
</g>
<!-- Node4&#45;&gt;Node5 -->
<g id="edge4" class="edge"><title>Node4&#45;&gt;Node5</title>
<path fill="none" stroke="midnightblue" d="M836.4,-86C855.791,-86 877.718,-86 898.198,-86"/>
<polygon fill="midnightblue" stroke="midnightblue" points="836.213,-82.5001 826.213,-86 836.213,-89.5001 836.213,-82.5001"/>
</g>
<!-- Node6 -->
<g id="node6" class="node"><title>Node6</title>
<g id="a_node6"><a xlink:href="../../da/dc8/classview_1_1_editor.html#a5b88172770caabfc64e9b7adaee1a2c5" target="_top" xlink:title="view.Editor.Editor">
<polygon fill="white" stroke="black" points="1084.5,-76.5 1084.5,-95.5 1181.5,-95.5 1181.5,-76.5 1084.5,-76.5"/>
<text text-anchor="middle" x="1133" y="-83.5" font-family="Helvetica,sans-Serif" font-size="10.00">view.Editor.Editor</text>
</a>
</g>
</g>
<!-- Node5&#45;&gt;Node6 -->
<g id="edge5" class="edge"><title>Node5&#45;&gt;Node6</title>
<path fill="none" stroke="midnightblue" d="M1058.07,-86C1067.06,-86 1075.96,-86 1084.3,-86"/>
<polygon fill="midnightblue" stroke="midnightblue" points="1057.91,-82.5001 1047.91,-86 1057.91,-89.5001 1057.91,-82.5001"/>
</g>
<!-- Node8&#45;&gt;Node7 -->
<g id="edge8" class="edge"><title>Node8&#45;&gt;Node7</title>
<path fill="none" stroke="midnightblue" d="M871.812,-19.1369C886.484,-20.5814 901.271,-22.037 914.811,-23.37"/>
<polygon fill="midnightblue" stroke="midnightblue" points="871.984,-15.637 861.689,-18.1404 871.298,-22.6034 871.984,-15.637"/>
</g>
<!-- Node9&#45;&gt;Node2 -->
<g id="edge10" class="edge"><title>Node9&#45;&gt;Node2</title>
<path fill="none" stroke="midnightblue" d="M301.916,-37.9847C310.651,-38.9667 319.452,-39.9561 327.943,-40.9107"/>
<polygon fill="midnightblue" stroke="midnightblue" points="302.043,-34.4769 291.714,-36.8377 301.261,-41.4331 302.043,-34.4769"/>
</g>
</g>
</svg>
