<?xml version="1.0" encoding="UTF-8" standalone="no"?>
<!DOCTYPE svg PUBLIC "-//W3C//DTD SVG 1.1//EN"
 "http://www.w3.org/Graphics/SVG/1.1/DTD/svg11.dtd">
<!-- Generated by graphviz version 2.36.0 (20140111.2315)
 -->
<!-- Title: model.Parser.parseAndExecute Pages: 1 -->
<!--zoomable 459 -->
<svg id="main" version="1.1" xmlns="http://www.w3.org/2000/svg" xmlns:xlink="http://www.w3.org/1999/xlink" xml:space="preserve" onload="init(evt)">
<style type="text/css"><![CDATA[
.edge:hover path { stroke: red; }
.edge:hover polygon { stroke: red; fill: red; }
]]></style>
<script type="text/javascript"><![CDATA[
var edges = document.getElementsByTagName('g');
if (edges && edges.length) {
  for (var i=0;i<edges.length;i++) {
    if (edges[i].id.substr(0,4)=='edge') {
      edges[i].setAttribute('class','edge');
    }
  }
}
]]></script>
        <defs>
                <circle id="rim" cx="0" cy="0" r="7"/>
                <circle id="rim2" cx="0" cy="0" r="3.5"/>
                <g id="zoomPlus">
                        <use xlink:href="#rim" fill="#404040">
                                <set attributeName="fill" to="#808080" begin="zoomplus.mouseover" end="zoomplus.mouseout"/>
                        </use>
                        <path d="M-4,0h8M0,-4v8" fill="none" stroke="white" stroke-width="1.5" pointer-events="none"/>
                </g>
                <g id="zoomMin">
                        <use xlink:href="#rim" fill="#404040">
                                <set attributeName="fill" to="#808080" begin="zoomminus.mouseover" end="zoomminus.mouseout"/>
                        </use>
                        <path d="M-4,0h8" fill="none" stroke="white" stroke-width="1.5" pointer-events="none"/>
                </g>
                <g id="dirArrow">
                        <path fill="none" stroke="white" stroke-width="1.5" d="M0,-3.0v7 M-2.5,-0.5L0,-3.0L2.5,-0.5"/>
                </g>
               <g id="resetDef">
                       <use xlink:href="#rim2" fill="#404040">
                               <set attributeName="fill" to="#808080" begin="reset.mouseover" end="reset.mouseout"/>
                       </use>
               </g>
        </defs>

<script type="text/javascript">
var viewWidth = 830;
var viewHeight = 459;
var sectionId = 'dynsection-10';
</script>
<script xlink:href="../../svgpan.js"/>
<svg id="graph" class="graph">
<g id="viewport">
<title>model.Parser.parseAndExecute</title>
<polygon fill="white" stroke="none" points="-4,4 -4,-455.122 826,-455.122 826,4 -4,4"/>
<!-- Node1 -->
<g id="node1" class="node"><title>Node1</title>
<polygon fill="#bfbfbf" stroke="black" points="0,-147.32 0,-166.32 166,-166.32 166,-147.32 0,-147.32"/>
<text text-anchor="middle" x="83" y="-154.32" font-family="Helvetica,sans-Serif" font-size="10.00">model.Parser.parseAndExecute</text>
</g>
<!-- Node2 -->
<g id="node2" class="node"><title>Node2</title>
<g id="a_node2"><a xlink:href="../../d1/dca/classmodel_1_1_execution_environment.html#abf8338dc619905fbc175bb52b246843e" target="_top" xlink:title="model.ExecutionEnvironment.get\lActiveList">
<polygon fill="white" stroke="black" points="202,-229.82 202,-259.82 378,-259.82 378,-229.82 202,-229.82"/>
<text text-anchor="start" x="210" y="-247.82" font-family="Helvetica,sans-Serif" font-size="10.00">model.ExecutionEnvironment.get</text>
<text text-anchor="middle" x="290" y="-236.82" font-family="Helvetica,sans-Serif" font-size="10.00">ActiveList</text>
</a>
</g>
</g>
<!-- Node1&#45;&gt;Node2 -->
<g id="edge1" class="edge"><title>Node1&#45;&gt;Node2</title>
<path fill="none" stroke="midnightblue" d="M99.5187,-166.477C121.607,-179.9 163.691,-204.292 202,-219.82 207.926,-222.222 214.166,-224.492 220.47,-226.612"/>
<polygon fill="midnightblue" stroke="midnightblue" points="219.803,-230.074 230.394,-229.815 221.953,-223.412 219.803,-230.074"/>
</g>
<!-- Node3 -->
<g id="node3" class="node"><title>Node3</title>
<g id="a_node3"><a xlink:href="../../dc/df5/classmodel_1_1_parser.html#ae83c95a5190fc22b9b70b1a40b76661c" target="_top" xlink:title="model.Parser.makeTree">
<polygon fill="white" stroke="black" points="226,-191.32 226,-210.32 354,-210.32 354,-191.32 226,-191.32"/>
<text text-anchor="middle" x="290" y="-198.32" font-family="Helvetica,sans-Serif" font-size="10.00">model.Parser.makeTree</text>
</a>
</g>
</g>
<!-- Node1&#45;&gt;Node3 -->
<g id="edge2" class="edge"><title>Node1&#45;&gt;Node3</title>
<path fill="none" stroke="midnightblue" d="M128.482,-166.368C159.644,-173.056 201.473,-182.034 234.619,-189.148"/>
<polygon fill="midnightblue" stroke="midnightblue" points="234.093,-192.615 244.605,-191.292 235.562,-185.771 234.093,-192.615"/>
</g>
<!-- Node13 -->
<g id="node13" class="node"><title>Node13</title>
<g id="a_node13"><a xlink:href="../../d6/de7/classview_1_1_s_logo_view.html#acf8498d7311bed1575638cca1c3f8777" target="_top" xlink:title="view.SLogoView.openDialog">
<polygon fill="white" stroke="black" points="429.5,-32.3204 429.5,-51.3204 576.5,-51.3204 576.5,-32.3204 429.5,-32.3204"/>
<text text-anchor="middle" x="503" y="-39.3204" font-family="Helvetica,sans-Serif" font-size="10.00">view.SLogoView.openDialog</text>
</a>
</g>
</g>
<!-- Node1&#45;&gt;Node13 -->
<g id="edge15" class="edge"><title>Node1&#45;&gt;Node13</title>
<path fill="none" stroke="midnightblue" d="M114.286,-147.232C172.168,-129.082 302.652,-88.9997 414,-60.8204 423.99,-58.2922 434.671,-55.8061 445.024,-53.508"/>
<polygon fill="midnightblue" stroke="midnightblue" points="445.796,-56.9221 454.817,-51.367 444.3,-50.0836 445.796,-56.9221"/>
</g>
<!-- Node15 -->
<g id="node15" class="node"><title>Node15</title>
<g id="a_node15"><a xlink:href="../../d1/dca/classmodel_1_1_execution_environment.html#a472ef4da5205b0e95ec51fdbf52f654a" target="_top" xlink:title="model.ExecutionEnvironment.set\lActiveTurtle">
<polygon fill="white" stroke="black" points="202.5,-9.82036 202.5,-39.8204 377.5,-39.8204 377.5,-9.82036 202.5,-9.82036"/>
<text text-anchor="start" x="210.5" y="-27.8204" font-family="Helvetica,sans-Serif" font-size="10.00">model.ExecutionEnvironment.set</text>
<text text-anchor="middle" x="290" y="-16.8204" font-family="Helvetica,sans-Serif" font-size="10.00">ActiveTurtle</text>
</a>
</g>
</g>
<!-- Node1&#45;&gt;Node15 -->
<g id="edge16" class="edge"><title>Node1&#45;&gt;Node15</title>
<path fill="none" stroke="midnightblue" d="M99.0741,-147.114C132.275,-125.736 212.317,-74.1969 257.172,-45.3143"/>
<polygon fill="midnightblue" stroke="midnightblue" points="259.137,-48.2121 265.65,-39.8555 255.347,-42.3266 259.137,-48.2121"/>
</g>
<!-- Node4 -->
<g id="node4" class="node"><title>Node4</title>
<g id="a_node4"><a xlink:href="../../d2/d19/classmodel_1_1_node.html#a59dd0ae47774a51a1590d7fd205b14d5" target="_top" xlink:title="model.Node.addChild">
<polygon fill="white" stroke="black" points="443.5,-345.32 443.5,-364.32 562.5,-364.32 562.5,-345.32 443.5,-345.32"/>
<text text-anchor="middle" x="503" y="-352.32" font-family="Helvetica,sans-Serif" font-size="10.00">model.Node.addChild</text>
</a>
</g>
</g>
<!-- Node3&#45;&gt;Node4 -->
<g id="edge3" class="edge"><title>Node3&#45;&gt;Node4</title>
<path fill="none" stroke="midnightblue" d="M354.331,-207.105C363.038,-210.212 371.281,-214.618 378,-220.82 417.042,-256.86 374.914,-298.829 414,-334.82 419.754,-340.118 426.61,-344.111 433.92,-347.105"/>
<polygon fill="midnightblue" stroke="midnightblue" points="432.778,-350.414 443.372,-350.387 435.074,-343.801 432.778,-350.414"/>
</g>
<!-- Node5 -->
<g id="node5" class="node"><title>Node5</title>
<g id="a_node5"><a xlink:href="../../d1/dca/classmodel_1_1_execution_environment.html#a83ef2b9eaef50b67c0b978f2abb8200c" target="_top" xlink:title="model.ExecutionEnvironment.add\lCommand">
<polygon fill="white" stroke="black" points="414,-295.82 414,-325.82 592,-325.82 592,-295.82 414,-295.82"/>
<text text-anchor="start" x="422" y="-313.82" font-family="Helvetica,sans-Serif" font-size="10.00">model.ExecutionEnvironment.add</text>
<text text-anchor="middle" x="503" y="-302.82" font-family="Helvetica,sans-Serif" font-size="10.00">Command</text>
</a>
</g>
</g>
<!-- Node3&#45;&gt;Node5 -->
<g id="edge4" class="edge"><title>Node3&#45;&gt;Node5</title>
<path fill="none" stroke="midnightblue" d="M354.189,-208.654C362.716,-211.567 370.943,-215.506 378,-220.82 404.38,-240.687 388.134,-265.29 414,-285.82 416.274,-287.625 418.672,-289.3 421.165,-290.854"/>
<polygon fill="midnightblue" stroke="midnightblue" points="419.513,-293.94 429.963,-295.685 422.882,-287.804 419.513,-293.94"/>
</g>
<!-- Node7 -->
<g id="node7" class="node"><title>Node7</title>
<g id="a_node7"><a xlink:href="../../d2/d19/classmodel_1_1_node.html#a30a55e40eef5514f8201573584ca9aea" target="_top" xlink:title="model.Node.getChildren">
<polygon fill="white" stroke="black" points="436.5,-257.32 436.5,-276.32 569.5,-276.32 569.5,-257.32 436.5,-257.32"/>
<text text-anchor="middle" x="503" y="-264.32" font-family="Helvetica,sans-Serif" font-size="10.00">model.Node.getChildren</text>
</a>
</g>
</g>
<!-- Node3&#45;&gt;Node7 -->
<g id="edge6" class="edge"><title>Node3&#45;&gt;Node7</title>
<path fill="none" stroke="midnightblue" d="M347.778,-210.416C358.077,-213.119 368.543,-216.532 378,-220.82 395.975,-228.971 396.015,-238.692 414,-246.82 420.576,-249.793 427.635,-252.343 434.79,-254.526"/>
<polygon fill="midnightblue" stroke="midnightblue" points="433.995,-257.939 444.569,-257.282 435.894,-251.201 433.995,-257.939"/>
</g>
<!-- Node8 -->
<g id="node8" class="node"><title>Node8</title>
<g id="a_node8"><a xlink:href="../../d1/dca/classmodel_1_1_execution_environment.html#a296a88c7bb936eb502efc9d212bfe6db" target="_top" xlink:title="model.ExecutionEnvironment.get\lCommand">
<polygon fill="white" stroke="black" points="415,-207.82 415,-237.82 591,-237.82 591,-207.82 415,-207.82"/>
<text text-anchor="start" x="423" y="-225.82" font-family="Helvetica,sans-Serif" font-size="10.00">model.ExecutionEnvironment.get</text>
<text text-anchor="middle" x="503" y="-214.82" font-family="Helvetica,sans-Serif" font-size="10.00">Command</text>
</a>
</g>
</g>
<!-- Node3&#45;&gt;Node8 -->
<g id="edge7" class="edge"><title>Node3&#45;&gt;Node8</title>
<path fill="none" stroke="midnightblue" d="M354.021,-207.391C369.959,-209.053 387.448,-210.877 404.648,-212.67"/>
<polygon fill="midnightblue" stroke="midnightblue" points="404.418,-216.165 414.727,-213.721 405.144,-209.203 404.418,-216.165"/>
</g>
<!-- Node9 -->
<g id="node9" class="node"><title>Node9</title>
<g id="a_node9"><a xlink:href="../../d2/d19/classmodel_1_1_node.html#a3036121af674a3a8ff49e82bd77ab5a4" target="_top" xlink:title="model.Node.getInstruction">
<polygon fill="white" stroke="black" points="431,-169.32 431,-188.32 575,-188.32 575,-169.32 431,-169.32"/>
<text text-anchor="middle" x="503" y="-176.32" font-family="Helvetica,sans-Serif" font-size="10.00">model.Node.getInstruction</text>
</a>
</g>
</g>
<!-- Node3&#45;&gt;Node9 -->
<g id="edge8" class="edge"><title>Node3&#45;&gt;Node9</title>
<path fill="none" stroke="midnightblue" d="M354.021,-194.249C374.977,-192.064 398.618,-189.6 420.752,-187.292"/>
<polygon fill="midnightblue" stroke="midnightblue" points="421.218,-190.762 430.801,-186.244 420.492,-183.8 421.218,-190.762"/>
</g>
<!-- Node10 -->
<g id="node10" class="node"><title>Node10</title>
<g id="a_node10"><a xlink:href="../../d1/dea/classmodel_1_1instructions_1_1_instruction.html#afd4726dcbdbf559356c38970061d9b79" target="_top" xlink:title="model.instructions.Instruction.get\lNumberOfArguments">
<polygon fill="white" stroke="black" points="414.5,-119.82 414.5,-149.82 591.5,-149.82 591.5,-119.82 414.5,-119.82"/>
<text text-anchor="start" x="422.5" y="-137.82" font-family="Helvetica,sans-Serif" font-size="10.00">model.instructions.Instruction.get</text>
<text text-anchor="middle" x="503" y="-126.82" font-family="Helvetica,sans-Serif" font-size="10.00">NumberOfArguments</text>
</a>
</g>
</g>
<!-- Node3&#45;&gt;Node10 -->
<g id="edge9" class="edge"><title>Node3&#45;&gt;Node10</title>
<path fill="none" stroke="midnightblue" d="M318.73,-191.181C343.584,-182.636 381.092,-169.974 414,-159.82 421.661,-157.457 429.721,-155.053 437.727,-152.718"/>
<polygon fill="midnightblue" stroke="midnightblue" points="438.8,-156.051 447.434,-149.909 436.855,-149.326 438.8,-156.051"/>
</g>
<!-- Node11 -->
<g id="node11" class="node"><title>Node11</title>
<g id="a_node11"><a xlink:href="../../d1/dca/classmodel_1_1_execution_environment.html#a7eac9bbab890abbeb7db1a095fca5fc8" target="_top" xlink:title="model.ExecutionEnvironment.get\lUserCommandMap">
<polygon fill="white" stroke="black" points="415,-70.8204 415,-100.82 591,-100.82 591,-70.8204 415,-70.8204"/>
<text text-anchor="start" x="423" y="-88.8204" font-family="Helvetica,sans-Serif" font-size="10.00">model.ExecutionEnvironment.get</text>
<text text-anchor="middle" x="503" y="-77.8204" font-family="Helvetica,sans-Serif" font-size="10.00">UserCommandMap</text>
</a>
</g>
</g>
<!-- Node3&#45;&gt;Node11 -->
<g id="edge10" class="edge"><title>Node3&#45;&gt;Node11</title>
<path fill="none" stroke="midnightblue" d="M301.344,-191.223C321.504,-173.003 368.111,-133.228 414,-110.82 418.817,-108.468 423.893,-106.302 429.076,-104.313"/>
<polygon fill="midnightblue" stroke="midnightblue" points="430.267,-107.605 438.49,-100.923 427.895,-101.019 430.267,-107.605"/>
</g>
<!-- Node12 -->
<g id="node12" class="node"><title>Node12</title>
<g id="a_node12"><a xlink:href="../../dc/df5/classmodel_1_1_parser.html#ae24603572f6f919b363a7cef0cbe45c0" target="_top" xlink:title="model.Parser.match">
<polygon fill="white" stroke="black" points="668.5,-402.32 668.5,-421.32 781.5,-421.32 781.5,-402.32 668.5,-402.32"/>
<text text-anchor="middle" x="725" y="-409.32" font-family="Helvetica,sans-Serif" font-size="10.00">model.Parser.match</text>
</a>
</g>
</g>
<!-- Node3&#45;&gt;Node12 -->
<g id="edge11" class="edge"><title>Node3&#45;&gt;Node12</title>
<path fill="none" stroke="midnightblue" d="M354.132,-206.09C363.08,-209.301 371.449,-214.004 378,-220.82 437.859,-283.102 347.501,-356.684 414,-411.82 492.884,-477.226 625.91,-445.34 688.905,-424.705"/>
<polygon fill="midnightblue" stroke="midnightblue" points="690.397,-427.895 698.753,-421.381 688.159,-421.262 690.397,-427.895"/>
</g>
<!-- Node3&#45;&gt;Node13 -->
<g id="edge12" class="edge"><title>Node3&#45;&gt;Node13</title>
<path fill="none" stroke="midnightblue" d="M305.754,-191.318C324.385,-178.759 356.589,-155.126 378,-128.82 399.587,-102.299 386.741,-81.4684 414,-60.8204 416.474,-58.9461 419.094,-57.2484 421.822,-55.711"/>
<polygon fill="midnightblue" stroke="midnightblue" points="423.389,-58.8413 430.858,-51.3268 420.333,-52.5435 423.389,-58.8413"/>
</g>
<!-- Node14 -->
<g id="node14" class="node"><title>Node14</title>
<g id="a_node14"><a xlink:href="../../dc/df5/classmodel_1_1_parser.html#a367f66d63cda3e0b2733b078c20a1f73" target="_top" xlink:title="model.Parser.testMatches">
<polygon fill="white" stroke="black" points="432.5,-383.32 432.5,-402.32 573.5,-402.32 573.5,-383.32 432.5,-383.32"/>
<text text-anchor="middle" x="503" y="-390.32" font-family="Helvetica,sans-Serif" font-size="10.00">model.Parser.testMatches</text>
</a>
</g>
</g>
<!-- Node3&#45;&gt;Node14 -->
<g id="edge13" class="edge"><title>Node3&#45;&gt;Node14</title>
<path fill="none" stroke="midnightblue" d="M354.31,-206.506C363.127,-209.679 371.408,-214.262 378,-220.82 427.523,-270.09 364.15,-324.882 414,-373.82 416.785,-376.554 419.864,-378.936 423.152,-381.007"/>
<polygon fill="midnightblue" stroke="midnightblue" points="421.809,-384.255 432.291,-385.797 425.059,-378.055 421.809,-384.255"/>
</g>
<!-- Node6 -->
<g id="node6" class="node"><title>Node6</title>
<g id="a_node6"><a xlink:href="../../d1/dca/classmodel_1_1_execution_environment.html#a93fd01341f06dfa81727344b120aef66" target="_top" xlink:title="model.ExecutionEnvironment.update\lObserver">
<polygon fill="white" stroke="black" points="628,-142.82 628,-172.82 822,-172.82 822,-142.82 628,-142.82"/>
<text text-anchor="start" x="636" y="-160.82" font-family="Helvetica,sans-Serif" font-size="10.00">model.ExecutionEnvironment.update</text>
<text text-anchor="middle" x="725" y="-149.82" font-family="Helvetica,sans-Serif" font-size="10.00">Observer</text>
</a>
</g>
</g>
<!-- Node5&#45;&gt;Node6 -->
<g id="edge5" class="edge"><title>Node5&#45;&gt;Node6</title>
<path fill="none" stroke="midnightblue" d="M570.802,-295.674C578.177,-292.891 585.397,-289.631 592,-285.82 639.812,-258.228 683.262,-209.506 706.426,-180.791"/>
<polygon fill="midnightblue" stroke="midnightblue" points="709.204,-182.921 712.678,-172.912 703.72,-178.57 709.204,-182.921"/>
</g>
<!-- Node14&#45;&gt;Node12 -->
<g id="edge14" class="edge"><title>Node14&#45;&gt;Node12</title>
<path fill="none" stroke="midnightblue" d="M573.609,-398.832C600.734,-401.175 631.664,-403.846 658.392,-406.154"/>
<polygon fill="midnightblue" stroke="midnightblue" points="658.15,-409.646 668.414,-407.02 658.752,-402.672 658.15,-409.646"/>
</g>
<!-- Node15&#45;&gt;Node6 -->
<g id="edge17" class="edge"><title>Node15&#45;&gt;Node6</title>
<path fill="none" stroke="midnightblue" d="M357.903,-9.7728C420.912,1.09057 516.619,8.90096 592,-22.8204 645.623,-45.3854 688.339,-101.549 709.497,-133.879"/>
<polygon fill="midnightblue" stroke="midnightblue" points="706.795,-136.151 715.123,-142.701 712.698,-132.388 706.795,-136.151"/>
</g>
</g>
</svg>
        <g id="navigator" transform="translate(0 0)" fill="#404254">
                <rect fill="#f2f5e9" fill-opacity="0.5" stroke="#606060" stroke-width=".5" x="0" y="0" width="60" height="60"/>
                <use id="zoomplus" xlink:href="#zoomPlus" x="17" y="9" onmousedown="handleZoom(evt,'in')"/>
                <use id="zoomminus" xlink:href="#zoomMin" x="42" y="9" onmousedown="handleZoom(evt,'out')"/>
                <use id="reset" xlink:href="#resetDef" x="30" y="36" onmousedown="handleReset()"/>
                <g id="arrowUp" xlink:href="#dirArrow" transform="translate(30 24)" onmousedown="handlePan(0,-1)">
                  <use xlink:href="#rim" fill="#404040">
                        <set attributeName="fill" to="#808080" begin="arrowUp.mouseover" end="arrowUp.mouseout"/>
                  </use>
                  <path fill="none" stroke="white" stroke-width="1.5" d="M0,-3.0v7 M-2.5,-0.5L0,-3.0L2.5,-0.5"/>
                </g>
                <g id="arrowRight" xlink:href="#dirArrow" transform="rotate(90) translate(36 -43)" onmousedown="handlePan(1,0)">
                  <use xlink:href="#rim" fill="#404040">
                        <set attributeName="fill" to="#808080" begin="arrowRight.mouseover" end="arrowRight.mouseout"/>
                  </use>
                  <path fill="none" stroke="white" stroke-width="1.5" d="M0,-3.0v7 M-2.5,-0.5L0,-3.0L2.5,-0.5"/>
                </g>
                <g id="arrowDown" xlink:href="#dirArrow" transform="rotate(180) translate(-30 -48)" onmousedown="handlePan(0,1)">
                  <use xlink:href="#rim" fill="#404040">
                        <set attributeName="fill" to="#808080" begin="arrowDown.mouseover" end="arrowDown.mouseout"/>
                  </use>
                  <path fill="none" stroke="white" stroke-width="1.5" d="M0,-3.0v7 M-2.5,-0.5L0,-3.0L2.5,-0.5"/>
                </g>
                <g id="arrowLeft" xlink:href="#dirArrow" transform="rotate(270) translate(-36 17)" onmousedown="handlePan(-1,0)">
                  <use xlink:href="#rim" fill="#404040">
                        <set attributeName="fill" to="#808080" begin="arrowLeft.mouseover" end="arrowLeft.mouseout"/>
                  </use>
                  <path fill="none" stroke="white" stroke-width="1.5" d="M0,-3.0v7 M-2.5,-0.5L0,-3.0L2.5,-0.5"/>
                </g>
        </g>
        <svg viewBox="0 0 15 15" width="100%" height="30px" preserveAspectRatio="xMaxYMin meet">
         <g id="arrow_out" transform="scale(0.3 0.3)">
          <a xlink:href="classmodel_1_1_parser_ab83c099e5a13c82b1a12d7eedda6fbf9_cgraph_org.svg" target="_base">
           <rect id="button" ry="5" rx="5" y="6" x="6" height="38" width="38"
                fill="#f2f5e9" fill-opacity="0.5" stroke="#606060" stroke-width="1.0"/>
           <path id="arrow"
             d="M 11.500037,31.436501 C 11.940474,20.09759 22.043105,11.32322 32.158766,21.979434 L 37.068811,17.246167 C 37.068811,17.246167 37.088388,32 37.088388,32 L 22.160133,31.978069 C 22.160133,31.978069 26.997745,27.140456 26.997745,27.140456 C 18.528582,18.264221 13.291696,25.230495 11.500037,31.436501 z"
             style="fill:#404040;"/>
          </a>
         </g>
        </svg>
</svg>
