<?xml version="1.0" encoding="UTF-8" standalone="no"?>
<!DOCTYPE svg PUBLIC "-//W3C//DTD SVG 1.1//EN"
 "http://www.w3.org/Graphics/SVG/1.1/DTD/svg11.dtd">
<!-- Generated by graphviz version 2.36.0 (20140111.2315)
 -->
<!-- Title: model.Parser.makeTree Pages: 1 -->
<svg width="580pt" height="417pt"
 viewBox="0.00 0.00 580.00 417.00" xmlns="http://www.w3.org/2000/svg" xmlns:xlink="http://www.w3.org/1999/xlink">
<g id="graph0" class="graph" transform="scale(1 1) rotate(0) translate(4 413)">
<title>model.Parser.makeTree</title>
<polygon fill="white" stroke="none" points="-4,4 -4,-413 576,-413 576,4 -4,4"/>
<!-- Node1 -->
<g id="node1" class="node"><title>Node1</title>
<polygon fill="#bfbfbf" stroke="black" points="0,-191.5 0,-210.5 128,-210.5 128,-191.5 0,-191.5"/>
<text text-anchor="middle" x="64" y="-198.5" font-family="Helvetica,sans-Serif" font-size="10.00">model.Parser.makeTree</text>
</g>
<!-- Node2 -->
<g id="node2" class="node"><title>Node2</title>
<g id="a_node2"><a xlink:href="../../d2/d19/classmodel_1_1_node.html#a59dd0ae47774a51a1590d7fd205b14d5" target="_top" xlink:title="model.Node.addChild">
<polygon fill="white" stroke="black" points="193.5,-389.5 193.5,-408.5 312.5,-408.5 312.5,-389.5 193.5,-389.5"/>
<text text-anchor="middle" x="253" y="-396.5" font-family="Helvetica,sans-Serif" font-size="10.00">model.Node.addChild</text>
</a>
</g>
</g>
<!-- Node1&#45;&gt;Node2 -->
<g id="edge1" class="edge"><title>Node1&#45;&gt;Node2</title>
<path fill="none" stroke="midnightblue" d="M67.3405,-210.555C75.2205,-240.597 103.738,-333.818 164,-379 169.86,-383.394 176.515,-386.85 183.478,-389.564"/>
<polygon fill="midnightblue" stroke="midnightblue" points="182.525,-392.936 193.12,-392.824 184.767,-386.305 182.525,-392.936"/>
</g>
<!-- Node3 -->
<g id="node3" class="node"><title>Node3</title>
<g id="a_node3"><a xlink:href="../../d1/dca/classmodel_1_1_execution_environment.html#a83ef2b9eaef50b67c0b978f2abb8200c" target="_top" xlink:title="model.ExecutionEnvironment.add\lCommand">
<polygon fill="white" stroke="black" points="164,-340 164,-370 342,-370 342,-340 164,-340"/>
<text text-anchor="start" x="172" y="-358" font-family="Helvetica,sans-Serif" font-size="10.00">model.ExecutionEnvironment.add</text>
<text text-anchor="middle" x="253" y="-347" font-family="Helvetica,sans-Serif" font-size="10.00">Command</text>
</a>
</g>
</g>
<!-- Node1&#45;&gt;Node3 -->
<g id="edge2" class="edge"><title>Node1&#45;&gt;Node3</title>
<path fill="none" stroke="midnightblue" d="M69.6973,-210.801C81.7782,-234.941 116.355,-297.648 164,-330 166.913,-331.978 169.982,-333.801 173.157,-335.481"/>
<polygon fill="midnightblue" stroke="midnightblue" points="171.814,-338.718 182.348,-339.847 174.817,-332.395 171.814,-338.718"/>
</g>
<!-- Node5 -->
<g id="node5" class="node"><title>Node5</title>
<g id="a_node5"><a xlink:href="../../d2/d19/classmodel_1_1_node.html#a30a55e40eef5514f8201573584ca9aea" target="_top" xlink:title="model.Node.getChildren">
<polygon fill="white" stroke="black" points="186.5,-301.5 186.5,-320.5 319.5,-320.5 319.5,-301.5 186.5,-301.5"/>
<text text-anchor="middle" x="253" y="-308.5" font-family="Helvetica,sans-Serif" font-size="10.00">model.Node.getChildren</text>
</a>
</g>
</g>
<!-- Node1&#45;&gt;Node5 -->
<g id="edge4" class="edge"><title>Node1&#45;&gt;Node5</title>
<path fill="none" stroke="midnightblue" d="M72.5768,-210.614C87.7921,-229.223 124.043,-270.165 164,-291 169.47,-293.852 175.339,-296.3 181.355,-298.401"/>
<polygon fill="midnightblue" stroke="midnightblue" points="180.304,-301.739 190.894,-301.424 182.419,-295.066 180.304,-301.739"/>
</g>
<!-- Node6 -->
<g id="node6" class="node"><title>Node6</title>
<g id="a_node6"><a xlink:href="../../d1/dca/classmodel_1_1_execution_environment.html#a296a88c7bb936eb502efc9d212bfe6db" target="_top" xlink:title="model.ExecutionEnvironment.get\lCommand">
<polygon fill="white" stroke="black" points="165,-252 165,-282 341,-282 341,-252 165,-252"/>
<text text-anchor="start" x="173" y="-270" font-family="Helvetica,sans-Serif" font-size="10.00">model.ExecutionEnvironment.get</text>
<text text-anchor="middle" x="253" y="-259" font-family="Helvetica,sans-Serif" font-size="10.00">Command</text>
</a>
</g>
</g>
<!-- Node1&#45;&gt;Node6 -->
<g id="edge5" class="edge"><title>Node1&#45;&gt;Node6</title>
<path fill="none" stroke="midnightblue" d="M85.9694,-210.517C105.823,-219.327 136.59,-232.467 164,-242 170.91,-244.403 178.182,-246.751 185.463,-248.986"/>
<polygon fill="midnightblue" stroke="midnightblue" points="184.778,-252.434 195.363,-251.957 186.791,-245.73 184.778,-252.434"/>
</g>
<!-- Node7 -->
<g id="node7" class="node"><title>Node7</title>
<g id="a_node7"><a xlink:href="../../d2/d19/classmodel_1_1_node.html#a3036121af674a3a8ff49e82bd77ab5a4" target="_top" xlink:title="model.Node.getInstruction">
<polygon fill="white" stroke="black" points="181,-213.5 181,-232.5 325,-232.5 325,-213.5 181,-213.5"/>
<text text-anchor="middle" x="253" y="-220.5" font-family="Helvetica,sans-Serif" font-size="10.00">model.Node.getInstruction</text>
</a>
</g>
</g>
<!-- Node1&#45;&gt;Node7 -->
<g id="edge6" class="edge"><title>Node1&#45;&gt;Node7</title>
<path fill="none" stroke="midnightblue" d="M128.049,-208.418C141.701,-210.024 156.324,-211.744 170.568,-213.42"/>
<polygon fill="midnightblue" stroke="midnightblue" points="170.513,-216.937 180.853,-214.63 171.331,-209.985 170.513,-216.937"/>
</g>
<!-- Node8 -->
<g id="node8" class="node"><title>Node8</title>
<g id="a_node8"><a xlink:href="../../d1/dea/classmodel_1_1instructions_1_1_instruction.html#afd4726dcbdbf559356c38970061d9b79" target="_top" xlink:title="model.instructions.Instruction.get\lNumberOfArguments">
<polygon fill="white" stroke="black" points="164.5,-164 164.5,-194 341.5,-194 341.5,-164 164.5,-164"/>
<text text-anchor="start" x="172.5" y="-182" font-family="Helvetica,sans-Serif" font-size="10.00">model.instructions.Instruction.get</text>
<text text-anchor="middle" x="253" y="-171" font-family="Helvetica,sans-Serif" font-size="10.00">NumberOfArguments</text>
</a>
</g>
</g>
<!-- Node1&#45;&gt;Node8 -->
<g id="edge7" class="edge"><title>Node1&#45;&gt;Node8</title>
<path fill="none" stroke="midnightblue" d="M128.049,-193.582C136.523,-192.586 145.372,-191.544 154.272,-190.497"/>
<polygon fill="midnightblue" stroke="midnightblue" points="154.803,-193.959 164.325,-189.315 153.985,-187.007 154.803,-193.959"/>
</g>
<!-- Node9 -->
<g id="node9" class="node"><title>Node9</title>
<g id="a_node9"><a xlink:href="../../d1/dca/classmodel_1_1_execution_environment.html#a7eac9bbab890abbeb7db1a095fca5fc8" target="_top" xlink:title="model.ExecutionEnvironment.get\lUserCommandMap">
<polygon fill="white" stroke="black" points="165,-115 165,-145 341,-145 341,-115 165,-115"/>
<text text-anchor="start" x="173" y="-133" font-family="Helvetica,sans-Serif" font-size="10.00">model.ExecutionEnvironment.get</text>
<text text-anchor="middle" x="253" y="-122" font-family="Helvetica,sans-Serif" font-size="10.00">UserCommandMap</text>
</a>
</g>
</g>
<!-- Node1&#45;&gt;Node9 -->
<g id="edge8" class="edge"><title>Node1&#45;&gt;Node9</title>
<path fill="none" stroke="midnightblue" d="M83.2388,-191.46C102.826,-181.469 135.044,-165.763 164,-155 170.401,-152.621 177.135,-150.335 183.909,-148.179"/>
<polygon fill="midnightblue" stroke="midnightblue" points="185.305,-151.411 193.828,-145.117 183.241,-144.723 185.305,-151.411"/>
</g>
<!-- Node10 -->
<g id="node10" class="node"><title>Node10</title>
<g id="a_node10"><a xlink:href="../../dc/df5/classmodel_1_1_parser.html#ae24603572f6f919b363a7cef0cbe45c0" target="_top" xlink:title="model.Parser.match">
<polygon fill="white" stroke="black" points="418.5,-38.5 418.5,-57.5 531.5,-57.5 531.5,-38.5 418.5,-38.5"/>
<text text-anchor="middle" x="475" y="-45.5" font-family="Helvetica,sans-Serif" font-size="10.00">model.Parser.match</text>
</a>
</g>
</g>
<!-- Node1&#45;&gt;Node10 -->
<g id="edge9" class="edge"><title>Node1&#45;&gt;Node10</title>
<path fill="none" stroke="midnightblue" d="M71.9228,-191.309C86.5042,-171.694 122.477,-127.347 164,-106 185.408,-94.9941 323.681,-71.7407 408.164,-58.2592"/>
<polygon fill="midnightblue" stroke="midnightblue" points="408.862,-61.6922 418.189,-56.665 407.763,-54.779 408.862,-61.6922"/>
</g>
<!-- Node11 -->
<g id="node11" class="node"><title>Node11</title>
<g id="a_node11"><a xlink:href="../../d6/de7/classview_1_1_s_logo_view.html#acf8498d7311bed1575638cca1c3f8777" target="_top" xlink:title="view.SLogoView.openDialog">
<polygon fill="white" stroke="black" points="179.5,-38.5 179.5,-57.5 326.5,-57.5 326.5,-38.5 179.5,-38.5"/>
<text text-anchor="middle" x="253" y="-45.5" font-family="Helvetica,sans-Serif" font-size="10.00">view.SLogoView.openDialog</text>
</a>
</g>
</g>
<!-- Node1&#45;&gt;Node11 -->
<g id="edge10" class="edge"><title>Node1&#45;&gt;Node11</title>
<path fill="none" stroke="midnightblue" d="M69.6762,-191.168C81.7092,-166.957 116.185,-104.101 164,-72 170.73,-67.4818 178.287,-63.811 186.071,-60.8292"/>
<polygon fill="midnightblue" stroke="midnightblue" points="187.33,-64.0974 195.638,-57.5232 185.043,-57.4812 187.33,-64.0974"/>
</g>
<!-- Node12 -->
<g id="node12" class="node"><title>Node12</title>
<g id="a_node12"><a xlink:href="../../dc/df5/classmodel_1_1_parser.html#a367f66d63cda3e0b2733b078c20a1f73" target="_top" xlink:title="model.Parser.testMatches">
<polygon fill="white" stroke="black" points="182.5,-0.5 182.5,-19.5 323.5,-19.5 323.5,-0.5 182.5,-0.5"/>
<text text-anchor="middle" x="253" y="-7.5" font-family="Helvetica,sans-Serif" font-size="10.00">model.Parser.testMatches</text>
</a>
</g>
</g>
<!-- Node1&#45;&gt;Node12 -->
<g id="edge11" class="edge"><title>Node1&#45;&gt;Node12</title>
<path fill="none" stroke="midnightblue" d="M67.54,-191.32C75.827,-161.76 105.004,-72.0674 164,-29 166.864,-26.9092 169.912,-25.0398 173.088,-23.3689"/>
<polygon fill="midnightblue" stroke="midnightblue" points="174.677,-26.4909 182.333,-19.1667 171.781,-20.1183 174.677,-26.4909"/>
</g>
<!-- Node4 -->
<g id="node4" class="node"><title>Node4</title>
<g id="a_node4"><a xlink:href="../../d1/dca/classmodel_1_1_execution_environment.html#a93fd01341f06dfa81727344b120aef66" target="_top" xlink:title="model.ExecutionEnvironment.update\lObserver">
<polygon fill="white" stroke="black" points="378,-340 378,-370 572,-370 572,-340 378,-340"/>
<text text-anchor="start" x="386" y="-358" font-family="Helvetica,sans-Serif" font-size="10.00">model.ExecutionEnvironment.update</text>
<text text-anchor="middle" x="475" y="-347" font-family="Helvetica,sans-Serif" font-size="10.00">Observer</text>
</a>
</g>
</g>
<!-- Node3&#45;&gt;Node4 -->
<g id="edge3" class="edge"><title>Node3&#45;&gt;Node4</title>
<path fill="none" stroke="midnightblue" d="M342.215,-355C350.635,-355 359.233,-355 367.8,-355"/>
<polygon fill="midnightblue" stroke="midnightblue" points="367.83,-358.5 377.83,-355 367.83,-351.5 367.83,-358.5"/>
</g>
<!-- Node12&#45;&gt;Node10 -->
<g id="edge12" class="edge"><title>Node12&#45;&gt;Node10</title>
<path fill="none" stroke="midnightblue" d="M309.231,-19.54C339.437,-24.7574 377.041,-31.2525 408.695,-36.72"/>
<polygon fill="midnightblue" stroke="midnightblue" points="408.296,-40.2029 418.746,-38.4561 409.488,-33.305 408.296,-40.2029"/>
</g>
</g>
</svg>
