<?xml version="1.0" encoding="UTF-8" standalone="no"?>
<!DOCTYPE svg PUBLIC "-//W3C//DTD SVG 1.1//EN"
 "http://www.w3.org/Graphics/SVG/1.1/DTD/svg11.dtd">
<!-- Generated by graphviz version 2.36.0 (20140111.2315)
 -->
<!-- Title: model.Parser.match Pages: 1 -->
<svg width="1158pt" height="66pt"
 viewBox="0.00 0.00 1158.00 66.00" xmlns="http://www.w3.org/2000/svg" xmlns:xlink="http://www.w3.org/1999/xlink">
<g id="graph0" class="graph" transform="scale(1 1) rotate(0) translate(4 62)">
<title>model.Parser.match</title>
<polygon fill="white" stroke="none" points="-4,4 -4,-62 1154,-62 1154,4 -4,4"/>
<!-- Node1 -->
<g id="node1" class="node"><title>Node1</title>
<polygon fill="#bfbfbf" stroke="black" points="0.5,-19.5 0.5,-38.5 113.5,-38.5 113.5,-19.5 0.5,-19.5"/>
<text text-anchor="middle" x="57" y="-26.5" font-family="Helvetica,sans-Serif" font-size="10.00">model.Parser.match</text>
</g>
<!-- Node2 -->
<g id="node2" class="node"><title>Node2</title>
<g id="a_node2"><a xlink:href="../../dc/df5/classmodel_1_1_parser.html#ae83c95a5190fc22b9b70b1a40b76661c" target="_top" xlink:title="model.Parser.makeTree">
<polygon fill="white" stroke="black" points="328,-19.5 328,-38.5 456,-38.5 456,-19.5 328,-19.5"/>
<text text-anchor="middle" x="392" y="-26.5" font-family="Helvetica,sans-Serif" font-size="10.00">model.Parser.makeTree</text>
</a>
</g>
</g>
<!-- Node1&#45;&gt;Node2 -->
<g id="edge1" class="edge"><title>Node1&#45;&gt;Node2</title>
<path fill="none" stroke="midnightblue" d="M123.737,-29C183.002,-29 269.566,-29 327.978,-29"/>
<polygon fill="midnightblue" stroke="midnightblue" points="123.737,-25.5001 113.737,-29 123.737,-32.5001 123.737,-25.5001"/>
</g>
<!-- Node8 -->
<g id="node8" class="node"><title>Node8</title>
<g id="a_node8"><a xlink:href="../../dc/df5/classmodel_1_1_parser.html#a367f66d63cda3e0b2733b078c20a1f73" target="_top" xlink:title="model.Parser.testMatches">
<polygon fill="white" stroke="black" points="150.5,-0.5 150.5,-19.5 291.5,-19.5 291.5,-0.5 150.5,-0.5"/>
<text text-anchor="middle" x="221" y="-7.5" font-family="Helvetica,sans-Serif" font-size="10.00">model.Parser.testMatches</text>
</a>
</g>
</g>
<!-- Node1&#45;&gt;Node8 -->
<g id="edge7" class="edge"><title>Node1&#45;&gt;Node8</title>
<path fill="none" stroke="midnightblue" d="M123.876,-21.2738C132.618,-20.2485 141.604,-19.1946 150.407,-18.1622"/>
<polygon fill="midnightblue" stroke="midnightblue" points="123.275,-17.8202 113.751,-22.4613 124.091,-24.7725 123.275,-17.8202"/>
</g>
<!-- Node3 -->
<g id="node3" class="node"><title>Node3</title>
<g id="a_node3"><a xlink:href="../../dc/df5/classmodel_1_1_parser.html#ab83c099e5a13c82b1a12d7eedda6fbf9" target="_top" xlink:title="model.Parser.parseAndExecute">
<polygon fill="white" stroke="black" points="492,-19.5 492,-38.5 658,-38.5 658,-19.5 492,-19.5"/>
<text text-anchor="middle" x="575" y="-26.5" font-family="Helvetica,sans-Serif" font-size="10.00">model.Parser.parseAndExecute</text>
</a>
</g>
</g>
<!-- Node2&#45;&gt;Node3 -->
<g id="edge2" class="edge"><title>Node2&#45;&gt;Node3</title>
<path fill="none" stroke="midnightblue" d="M466.192,-29C474.608,-29 483.231,-29 491.755,-29"/>
<polygon fill="midnightblue" stroke="midnightblue" points="466.051,-25.5001 456.051,-29 466.051,-32.5001 466.051,-25.5001"/>
</g>
<!-- Node4 -->
<g id="node4" class="node"><title>Node4</title>
<g id="a_node4"><a xlink:href="../../d4/dd9/classcontroller_1_1_s_logo_controller.html#a1a88b376059e31c3f311d75fa640d848" target="_top" xlink:title="controller.SLogoController.parse\lInput">
<polygon fill="white" stroke="black" points="694,-14 694,-44 864,-44 864,-14 694,-14"/>
<text text-anchor="start" x="702" y="-32" font-family="Helvetica,sans-Serif" font-size="10.00">controller.SLogoController.parse</text>
<text text-anchor="middle" x="779" y="-21" font-family="Helvetica,sans-Serif" font-size="10.00">Input</text>
</a>
</g>
</g>
<!-- Node3&#45;&gt;Node4 -->
<g id="edge3" class="edge"><title>Node3&#45;&gt;Node4</title>
<path fill="none" stroke="midnightblue" d="M668.184,-29C676.768,-29 685.438,-29 693.943,-29"/>
<polygon fill="midnightblue" stroke="midnightblue" points="668.161,-25.5001 658.161,-29 668.161,-32.5001 668.161,-25.5001"/>
</g>
<!-- Node5 -->
<g id="node5" class="node"><title>Node5</title>
<g id="a_node5"><a xlink:href="../../da/dc8/classview_1_1_editor.html#a149e24d4e5e4464f3fb1601f2717663b" target="_top" xlink:title="view.Editor.parse">
<polygon fill="white" stroke="black" points="910,-38.5 910,-57.5 1006,-57.5 1006,-38.5 910,-38.5"/>
<text text-anchor="middle" x="958" y="-45.5" font-family="Helvetica,sans-Serif" font-size="10.00">view.Editor.parse</text>
</a>
</g>
</g>
<!-- Node4&#45;&gt;Node5 -->
<g id="edge4" class="edge"><title>Node4&#45;&gt;Node5</title>
<path fill="none" stroke="midnightblue" d="M874.402,-39.1335C886.656,-40.4489 898.758,-41.748 909.763,-42.9294"/>
<polygon fill="midnightblue" stroke="midnightblue" points="874.41,-35.6144 864.094,-38.027 873.663,-42.5744 874.41,-35.6144"/>
</g>
<!-- Node7 -->
<g id="node7" class="node"><title>Node7</title>
<g id="a_node7"><a xlink:href="../../d1/dc7/classview_1_1_side_bar.html#a715c3a21f73e8d1e00b8f4016a0e3c1d" target="_top" xlink:title="view.SideBar.SideBar">
<polygon fill="white" stroke="black" points="900,-0.5 900,-19.5 1016,-19.5 1016,-0.5 900,-0.5"/>
<text text-anchor="middle" x="958" y="-7.5" font-family="Helvetica,sans-Serif" font-size="10.00">view.SideBar.SideBar</text>
</a>
</g>
</g>
<!-- Node4&#45;&gt;Node7 -->
<g id="edge6" class="edge"><title>Node4&#45;&gt;Node7</title>
<path fill="none" stroke="midnightblue" d="M874.051,-18.9041C882.859,-17.9586 891.594,-17.021 899.904,-16.129"/>
<polygon fill="midnightblue" stroke="midnightblue" points="873.663,-15.4256 864.094,-19.973 874.41,-22.3856 873.663,-15.4256"/>
</g>
<!-- Node6 -->
<g id="node6" class="node"><title>Node6</title>
<g id="a_node6"><a xlink:href="../../da/dc8/classview_1_1_editor.html#a3905b799edd56b1c60528737ca88ce28" target="_top" xlink:title="view.Editor.Editor">
<polygon fill="white" stroke="black" points="1052.5,-38.5 1052.5,-57.5 1149.5,-57.5 1149.5,-38.5 1052.5,-38.5"/>
<text text-anchor="middle" x="1101" y="-45.5" font-family="Helvetica,sans-Serif" font-size="10.00">view.Editor.Editor</text>
</a>
</g>
</g>
<!-- Node5&#45;&gt;Node6 -->
<g id="edge5" class="edge"><title>Node5&#45;&gt;Node6</title>
<path fill="none" stroke="midnightblue" d="M1016.55,-48C1028.35,-48 1040.64,-48 1052.06,-48"/>
<polygon fill="midnightblue" stroke="midnightblue" points="1016.34,-44.5001 1006.34,-48 1016.34,-51.5001 1016.34,-44.5001"/>
</g>
<!-- Node8&#45;&gt;Node2 -->
<g id="edge8" class="edge"><title>Node8&#45;&gt;Node2</title>
<path fill="none" stroke="midnightblue" d="M301.916,-18.9847C310.651,-19.9667 319.452,-20.9561 327.943,-21.9107"/>
<polygon fill="midnightblue" stroke="midnightblue" points="302.043,-15.4769 291.714,-17.8377 301.261,-22.4331 302.043,-15.4769"/>
</g>
</g>
</svg>
