<?xml version="1.0" encoding="UTF-8" standalone="no"?>
<!DOCTYPE svg PUBLIC "-//W3C//DTD SVG 1.1//EN"
 "http://www.w3.org/Graphics/SVG/1.1/DTD/svg11.dtd">
<!-- Generated by graphviz version 2.36.0 (20140111.2315)
 -->
<!-- Title: model.Parser.match Pages: 1 -->
<svg width="1192pt" height="153pt"
 viewBox="0.00 0.00 1192.00 153.00" xmlns="http://www.w3.org/2000/svg" xmlns:xlink="http://www.w3.org/1999/xlink">
<g id="graph0" class="graph" transform="scale(1 1) rotate(0) translate(4 149)">
<title>model.Parser.match</title>
<polygon fill="white" stroke="none" points="-4,4 -4,-149 1188,-149 1188,4 -4,4"/>
<!-- Node1 -->
<g id="node1" class="node"><title>Node1</title>
<polygon fill="#bfbfbf" stroke="black" points="0.5,-57.5 0.5,-76.5 113.5,-76.5 113.5,-57.5 0.5,-57.5"/>
<text text-anchor="middle" x="57" y="-64.5" font-family="Helvetica,sans-Serif" font-size="10.00">model.Parser.match</text>
</g>
<!-- Node2 -->
<g id="node2" class="node"><title>Node2</title>
<g id="a_node2"><a xlink:href="../../dc/df5/classmodel_1_1_parser.html#ae83c95a5190fc22b9b70b1a40b76661c" target="_top" xlink:title="model.Parser.makeTree">
<polygon fill="white" stroke="black" points="328,-57.5 328,-76.5 456,-76.5 456,-57.5 328,-57.5"/>
<text text-anchor="middle" x="392" y="-64.5" font-family="Helvetica,sans-Serif" font-size="10.00">model.Parser.makeTree</text>
</a>
</g>
</g>
<!-- Node1&#45;&gt;Node2 -->
<g id="edge1" class="edge"><title>Node1&#45;&gt;Node2</title>
<path fill="none" stroke="midnightblue" d="M123.737,-67C183.002,-67 269.566,-67 327.978,-67"/>
<polygon fill="midnightblue" stroke="midnightblue" points="123.737,-63.5001 113.737,-67 123.737,-70.5001 123.737,-63.5001"/>
</g>
<!-- Node10 -->
<g id="node10" class="node"><title>Node10</title>
<g id="a_node10"><a xlink:href="../../dc/df5/classmodel_1_1_parser.html#a367f66d63cda3e0b2733b078c20a1f73" target="_top" xlink:title="model.Parser.testMatches">
<polygon fill="white" stroke="black" points="150.5,-38.5 150.5,-57.5 291.5,-57.5 291.5,-38.5 150.5,-38.5"/>
<text text-anchor="middle" x="221" y="-45.5" font-family="Helvetica,sans-Serif" font-size="10.00">model.Parser.testMatches</text>
</a>
</g>
</g>
<!-- Node1&#45;&gt;Node10 -->
<g id="edge10" class="edge"><title>Node1&#45;&gt;Node10</title>
<path fill="none" stroke="midnightblue" d="M123.876,-59.2738C132.618,-58.2485 141.604,-57.1946 150.407,-56.1622"/>
<polygon fill="midnightblue" stroke="midnightblue" points="123.275,-55.8202 113.751,-60.4613 124.091,-62.7725 123.275,-55.8202"/>
</g>
<!-- Node3 -->
<g id="node3" class="node"><title>Node3</title>
<g id="a_node3"><a xlink:href="../../dc/df5/classmodel_1_1_parser.html#ab83c099e5a13c82b1a12d7eedda6fbf9" target="_top" xlink:title="model.Parser.parseAndExecute">
<polygon fill="white" stroke="black" points="492,-57.5 492,-76.5 658,-76.5 658,-57.5 492,-57.5"/>
<text text-anchor="middle" x="575" y="-64.5" font-family="Helvetica,sans-Serif" font-size="10.00">model.Parser.parseAndExecute</text>
</a>
</g>
</g>
<!-- Node2&#45;&gt;Node3 -->
<g id="edge2" class="edge"><title>Node2&#45;&gt;Node3</title>
<path fill="none" stroke="midnightblue" d="M466.192,-67C474.608,-67 483.231,-67 491.755,-67"/>
<polygon fill="midnightblue" stroke="midnightblue" points="466.051,-63.5001 456.051,-67 466.051,-70.5001 466.051,-63.5001"/>
</g>
<!-- Node4 -->
<g id="node4" class="node"><title>Node4</title>
<g id="a_node4"><a xlink:href="../../d4/dd9/classcontroller_1_1_s_logo_controller.html#a1a88b376059e31c3f311d75fa640d848" target="_top" xlink:title="controller.SLogoController.parse\lInput">
<polygon fill="white" stroke="black" points="694,-115 694,-145 864,-145 864,-115 694,-115"/>
<text text-anchor="start" x="702" y="-133" font-family="Helvetica,sans-Serif" font-size="10.00">controller.SLogoController.parse</text>
<text text-anchor="middle" x="779" y="-122" font-family="Helvetica,sans-Serif" font-size="10.00">Input</text>
</a>
</g>
</g>
<!-- Node3&#45;&gt;Node4 -->
<g id="edge3" class="edge"><title>Node3&#45;&gt;Node4</title>
<path fill="none" stroke="midnightblue" d="M614.77,-79.7252C637.76,-87.2112 667.496,-96.7894 694,-105 704.61,-108.287 715.999,-111.732 726.861,-114.978"/>
<polygon fill="midnightblue" stroke="midnightblue" points="615.631,-76.3247 605.039,-76.5505 613.46,-82.9795 615.631,-76.3247"/>
</g>
<!-- Node5 -->
<g id="node5" class="node"><title>Node5</title>
<g id="a_node5"><a xlink:href="../../da/dc8/classview_1_1_editor.html#a149e24d4e5e4464f3fb1601f2717663b" target="_top" xlink:title="view.Editor.parse">
<polygon fill="white" stroke="black" points="731,-76.5 731,-95.5 827,-95.5 827,-76.5 731,-76.5"/>
<text text-anchor="middle" x="779" y="-83.5" font-family="Helvetica,sans-Serif" font-size="10.00">view.Editor.parse</text>
</a>
</g>
</g>
<!-- Node3&#45;&gt;Node5 -->
<g id="edge4" class="edge"><title>Node3&#45;&gt;Node5</title>
<path fill="none" stroke="midnightblue" d="M668.403,-75.6914C690.077,-77.7301 712.284,-79.8188 730.99,-81.5783"/>
<polygon fill="midnightblue" stroke="midnightblue" points="668.445,-72.18 658.161,-74.728 667.789,-79.1492 668.445,-72.18"/>
</g>
<!-- Node8 -->
<g id="node8" class="node"><title>Node8</title>
<g id="a_node8"><a xlink:href="../../d1/dc7/classview_1_1_side_bar.html#a9cca415e486afd24cccdd581f1938b13" target="_top" xlink:title="view.SideBar.SideBar">
<polygon fill="white" stroke="black" points="917,-19.5 917,-38.5 1033,-38.5 1033,-19.5 917,-19.5"/>
<text text-anchor="middle" x="975" y="-26.5" font-family="Helvetica,sans-Serif" font-size="10.00">view.SideBar.SideBar</text>
</a>
</g>
</g>
<!-- Node3&#45;&gt;Node8 -->
<g id="edge7" class="edge"><title>Node3&#45;&gt;Node8</title>
<path fill="none" stroke="midnightblue" d="M668.609,-58.1579C745.305,-50.8352 851.865,-40.6611 916.708,-34.4701"/>
<polygon fill="midnightblue" stroke="midnightblue" points="668.088,-54.6917 658.466,-59.1264 668.753,-61.66 668.088,-54.6917"/>
</g>
<!-- Node9 -->
<g id="node9" class="node"><title>Node9</title>
<g id="a_node9"><a xlink:href="../../d1/dc7/classview_1_1_side_bar.html#ac97dbdf731a291e46ba643c78b4c5a93" target="_top" xlink:title="view.SideBar.createHistoryPane">
<polygon fill="white" stroke="black" points="695.5,-0.5 695.5,-19.5 862.5,-19.5 862.5,-0.5 695.5,-0.5"/>
<text text-anchor="middle" x="779" y="-7.5" font-family="Helvetica,sans-Serif" font-size="10.00">view.SideBar.createHistoryPane</text>
</a>
</g>
</g>
<!-- Node3&#45;&gt;Node9 -->
<g id="edge8" class="edge"><title>Node3&#45;&gt;Node9</title>
<path fill="none" stroke="midnightblue" d="M619.891,-54.615C657.186,-44.0912 709.956,-29.2007 744.079,-19.5716"/>
<polygon fill="midnightblue" stroke="midnightblue" points="618.484,-51.3752 609.81,-57.4595 620.385,-58.1121 618.484,-51.3752"/>
</g>
<!-- Node6 -->
<g id="node6" class="node"><title>Node6</title>
<g id="a_node6"><a xlink:href="../../da/dc8/classview_1_1_editor.html#abd790752cfd8c9f01fb5b27a3680a982" target="_top" xlink:title="view.Editor.createRunButton">
<polygon fill="white" stroke="black" points="900.5,-76.5 900.5,-95.5 1049.5,-95.5 1049.5,-76.5 900.5,-76.5"/>
<text text-anchor="middle" x="975" y="-83.5" font-family="Helvetica,sans-Serif" font-size="10.00">view.Editor.createRunButton</text>
</a>
</g>
</g>
<!-- Node5&#45;&gt;Node6 -->
<g id="edge5" class="edge"><title>Node5&#45;&gt;Node6</title>
<path fill="none" stroke="midnightblue" d="M837.48,-86C857.144,-86 879.421,-86 900.191,-86"/>
<polygon fill="midnightblue" stroke="midnightblue" points="837.458,-82.5001 827.458,-86 837.458,-89.5001 837.458,-82.5001"/>
</g>
<!-- Node7 -->
<g id="node7" class="node"><title>Node7</title>
<g id="a_node7"><a xlink:href="../../da/dc8/classview_1_1_editor.html#a5b88172770caabfc64e9b7adaee1a2c5" target="_top" xlink:title="view.Editor.Editor">
<polygon fill="white" stroke="black" points="1086.5,-76.5 1086.5,-95.5 1183.5,-95.5 1183.5,-76.5 1086.5,-76.5"/>
<text text-anchor="middle" x="1135" y="-83.5" font-family="Helvetica,sans-Serif" font-size="10.00">view.Editor.Editor</text>
</a>
</g>
</g>
<!-- Node6&#45;&gt;Node7 -->
<g id="edge6" class="edge"><title>Node6&#45;&gt;Node7</title>
<path fill="none" stroke="midnightblue" d="M1060.07,-86C1069.06,-86 1077.96,-86 1086.3,-86"/>
<polygon fill="midnightblue" stroke="midnightblue" points="1059.91,-82.5001 1049.91,-86 1059.91,-89.5001 1059.91,-82.5001"/>
</g>
<!-- Node9&#45;&gt;Node8 -->
<g id="edge9" class="edge"><title>Node9&#45;&gt;Node8</title>
<path fill="none" stroke="midnightblue" d="M872.879,-19.0964C887.846,-20.5623 902.945,-22.041 916.746,-23.3927"/>
<polygon fill="midnightblue" stroke="midnightblue" points="872.848,-15.5767 862.555,-18.0853 872.166,-22.5434 872.848,-15.5767"/>
</g>
<!-- Node10&#45;&gt;Node2 -->
<g id="edge11" class="edge"><title>Node10&#45;&gt;Node2</title>
<path fill="none" stroke="midnightblue" d="M301.916,-56.9847C310.651,-57.9667 319.452,-58.9561 327.943,-59.9107"/>
<polygon fill="midnightblue" stroke="midnightblue" points="302.043,-53.4769 291.714,-55.8377 301.261,-60.4331 302.043,-53.4769"/>
</g>
</g>
</svg>
