<?xml version="1.0" encoding="UTF-8" standalone="no"?>
<!DOCTYPE svg PUBLIC "-//W3C//DTD SVG 1.1//EN"
 "http://www.w3.org/Graphics/SVG/1.1/DTD/svg11.dtd">
<!-- Generated by graphviz version 2.36.0 (20140111.2315)
 -->
<!-- Title: model.Parser.makeTree Pages: 1 -->
<svg width="864pt" height="153pt"
 viewBox="0.00 0.00 864.00 153.00" xmlns="http://www.w3.org/2000/svg" xmlns:xlink="http://www.w3.org/1999/xlink">
<g id="graph0" class="graph" transform="scale(1 1) rotate(0) translate(4 149)">
<title>model.Parser.makeTree</title>
<polygon fill="white" stroke="none" points="-4,4 -4,-149 860,-149 860,4 -4,4"/>
<!-- Node1 -->
<g id="node1" class="node"><title>Node1</title>
<polygon fill="#bfbfbf" stroke="black" points="0,-57.5 0,-76.5 128,-76.5 128,-57.5 0,-57.5"/>
<text text-anchor="middle" x="64" y="-64.5" font-family="Helvetica,sans-Serif" font-size="10.00">model.Parser.makeTree</text>
</g>
<!-- Node2 -->
<g id="node2" class="node"><title>Node2</title>
<g id="a_node2"><a xlink:href="../../dc/df5/classmodel_1_1_parser.html#ab83c099e5a13c82b1a12d7eedda6fbf9" target="_top" xlink:title="model.Parser.parseAndExecute">
<polygon fill="white" stroke="black" points="164,-57.5 164,-76.5 330,-76.5 330,-57.5 164,-57.5"/>
<text text-anchor="middle" x="247" y="-64.5" font-family="Helvetica,sans-Serif" font-size="10.00">model.Parser.parseAndExecute</text>
</a>
</g>
</g>
<!-- Node1&#45;&gt;Node2 -->
<g id="edge1" class="edge"><title>Node1&#45;&gt;Node2</title>
<path fill="none" stroke="midnightblue" d="M138.192,-67C146.608,-67 155.231,-67 163.755,-67"/>
<polygon fill="midnightblue" stroke="midnightblue" points="138.051,-63.5001 128.051,-67 138.051,-70.5001 138.051,-63.5001"/>
</g>
<!-- Node3 -->
<g id="node3" class="node"><title>Node3</title>
<g id="a_node3"><a xlink:href="../../d4/dd9/classcontroller_1_1_s_logo_controller.html#a1a88b376059e31c3f311d75fa640d848" target="_top" xlink:title="controller.SLogoController.parse\lInput">
<polygon fill="white" stroke="black" points="366,-115 366,-145 536,-145 536,-115 366,-115"/>
<text text-anchor="start" x="374" y="-133" font-family="Helvetica,sans-Serif" font-size="10.00">controller.SLogoController.parse</text>
<text text-anchor="middle" x="451" y="-122" font-family="Helvetica,sans-Serif" font-size="10.00">Input</text>
</a>
</g>
</g>
<!-- Node2&#45;&gt;Node3 -->
<g id="edge2" class="edge"><title>Node2&#45;&gt;Node3</title>
<path fill="none" stroke="midnightblue" d="M286.77,-79.7252C309.76,-87.2112 339.496,-96.7894 366,-105 376.61,-108.287 387.999,-111.732 398.861,-114.978"/>
<polygon fill="midnightblue" stroke="midnightblue" points="287.631,-76.3247 277.039,-76.5505 285.46,-82.9795 287.631,-76.3247"/>
</g>
<!-- Node4 -->
<g id="node4" class="node"><title>Node4</title>
<g id="a_node4"><a xlink:href="../../da/dc8/classview_1_1_editor.html#a149e24d4e5e4464f3fb1601f2717663b" target="_top" xlink:title="view.Editor.parse">
<polygon fill="white" stroke="black" points="403,-76.5 403,-95.5 499,-95.5 499,-76.5 403,-76.5"/>
<text text-anchor="middle" x="451" y="-83.5" font-family="Helvetica,sans-Serif" font-size="10.00">view.Editor.parse</text>
</a>
</g>
</g>
<!-- Node2&#45;&gt;Node4 -->
<g id="edge3" class="edge"><title>Node2&#45;&gt;Node4</title>
<path fill="none" stroke="midnightblue" d="M340.403,-75.6914C362.077,-77.7301 384.284,-79.8188 402.99,-81.5783"/>
<polygon fill="midnightblue" stroke="midnightblue" points="340.445,-72.18 330.161,-74.728 339.789,-79.1492 340.445,-72.18"/>
</g>
<!-- Node7 -->
<g id="node7" class="node"><title>Node7</title>
<g id="a_node7"><a xlink:href="../../d1/dc7/classview_1_1_side_bar.html#a9cca415e486afd24cccdd581f1938b13" target="_top" xlink:title="view.SideBar.SideBar">
<polygon fill="white" stroke="black" points="589,-19.5 589,-38.5 705,-38.5 705,-19.5 589,-19.5"/>
<text text-anchor="middle" x="647" y="-26.5" font-family="Helvetica,sans-Serif" font-size="10.00">view.SideBar.SideBar</text>
</a>
</g>
</g>
<!-- Node2&#45;&gt;Node7 -->
<g id="edge6" class="edge"><title>Node2&#45;&gt;Node7</title>
<path fill="none" stroke="midnightblue" d="M340.609,-58.1579C417.305,-50.8352 523.865,-40.6611 588.708,-34.4701"/>
<polygon fill="midnightblue" stroke="midnightblue" points="340.088,-54.6917 330.466,-59.1264 340.753,-61.66 340.088,-54.6917"/>
</g>
<!-- Node8 -->
<g id="node8" class="node"><title>Node8</title>
<g id="a_node8"><a xlink:href="../../d1/dc7/classview_1_1_side_bar.html#ac97dbdf731a291e46ba643c78b4c5a93" target="_top" xlink:title="view.SideBar.createHistoryPane">
<polygon fill="white" stroke="black" points="367.5,-0.5 367.5,-19.5 534.5,-19.5 534.5,-0.5 367.5,-0.5"/>
<text text-anchor="middle" x="451" y="-7.5" font-family="Helvetica,sans-Serif" font-size="10.00">view.SideBar.createHistoryPane</text>
</a>
</g>
</g>
<!-- Node2&#45;&gt;Node8 -->
<g id="edge7" class="edge"><title>Node2&#45;&gt;Node8</title>
<path fill="none" stroke="midnightblue" d="M291.891,-54.615C329.186,-44.0912 381.956,-29.2007 416.079,-19.5716"/>
<polygon fill="midnightblue" stroke="midnightblue" points="290.484,-51.3752 281.81,-57.4595 292.385,-58.1121 290.484,-51.3752"/>
</g>
<!-- Node5 -->
<g id="node5" class="node"><title>Node5</title>
<g id="a_node5"><a xlink:href="../../da/dc8/classview_1_1_editor.html#abd790752cfd8c9f01fb5b27a3680a982" target="_top" xlink:title="view.Editor.createRunButton">
<polygon fill="white" stroke="black" points="572.5,-76.5 572.5,-95.5 721.5,-95.5 721.5,-76.5 572.5,-76.5"/>
<text text-anchor="middle" x="647" y="-83.5" font-family="Helvetica,sans-Serif" font-size="10.00">view.Editor.createRunButton</text>
</a>
</g>
</g>
<!-- Node4&#45;&gt;Node5 -->
<g id="edge4" class="edge"><title>Node4&#45;&gt;Node5</title>
<path fill="none" stroke="midnightblue" d="M509.48,-86C529.144,-86 551.421,-86 572.191,-86"/>
<polygon fill="midnightblue" stroke="midnightblue" points="509.458,-82.5001 499.458,-86 509.458,-89.5001 509.458,-82.5001"/>
</g>
<!-- Node6 -->
<g id="node6" class="node"><title>Node6</title>
<g id="a_node6"><a xlink:href="../../da/dc8/classview_1_1_editor.html#a5b88172770caabfc64e9b7adaee1a2c5" target="_top" xlink:title="view.Editor.Editor">
<polygon fill="white" stroke="black" points="758.5,-76.5 758.5,-95.5 855.5,-95.5 855.5,-76.5 758.5,-76.5"/>
<text text-anchor="middle" x="807" y="-83.5" font-family="Helvetica,sans-Serif" font-size="10.00">view.Editor.Editor</text>
</a>
</g>
</g>
<!-- Node5&#45;&gt;Node6 -->
<g id="edge5" class="edge"><title>Node5&#45;&gt;Node6</title>
<path fill="none" stroke="midnightblue" d="M732.07,-86C741.056,-86 749.955,-86 758.298,-86"/>
<polygon fill="midnightblue" stroke="midnightblue" points="731.911,-82.5001 721.911,-86 731.911,-89.5001 731.911,-82.5001"/>
</g>
<!-- Node8&#45;&gt;Node7 -->
<g id="edge8" class="edge"><title>Node8&#45;&gt;Node7</title>
<path fill="none" stroke="midnightblue" d="M544.879,-19.0964C559.846,-20.5623 574.945,-22.041 588.746,-23.3927"/>
<polygon fill="midnightblue" stroke="midnightblue" points="544.848,-15.5767 534.555,-18.0853 544.166,-22.5434 544.848,-15.5767"/>
</g>
</g>
</svg>
