<?xml version="1.0" encoding="UTF-8" standalone="no"?>
<!DOCTYPE svg PUBLIC "-//W3C//DTD SVG 1.1//EN"
 "http://www.w3.org/Graphics/SVG/1.1/DTD/svg11.dtd">
<!-- Generated by graphviz version 2.36.0 (20140111.2315)
 -->
<!-- Title: model.Parser.makePatterns Pages: 1 -->
<svg width="982pt" height="95pt"
 viewBox="0.00 0.00 982.00 95.00" xmlns="http://www.w3.org/2000/svg" xmlns:xlink="http://www.w3.org/1999/xlink">
<g id="graph0" class="graph" transform="scale(1 1) rotate(0) translate(4 91)">
<title>model.Parser.makePatterns</title>
<polygon fill="white" stroke="none" points="-4,4 -4,-91 978,-91 978,4 -4,4"/>
<!-- Node1 -->
<g id="node1" class="node"><title>Node1</title>
<polygon fill="#bfbfbf" stroke="black" points="0.5,-48.5 0.5,-67.5 149.5,-67.5 149.5,-48.5 0.5,-48.5"/>
<text text-anchor="middle" x="75" y="-55.5" font-family="Helvetica,sans-Serif" font-size="10.00">model.Parser.makePatterns</text>
</g>
<!-- Node2 -->
<g id="node2" class="node"><title>Node2</title>
<g id="a_node2"><a xlink:href="../../dc/df5/classmodel_1_1_parser.html#aa777d197a541c6ca6be224c0ce6754a5" target="_top" xlink:title="model.Parser.addAllPatterns">
<polygon fill="white" stroke="black" points="186.5,-48.5 186.5,-67.5 337.5,-67.5 337.5,-48.5 186.5,-48.5"/>
<text text-anchor="middle" x="262" y="-55.5" font-family="Helvetica,sans-Serif" font-size="10.00">model.Parser.addAllPatterns</text>
</a>
</g>
</g>
<!-- Node1&#45;&gt;Node2 -->
<g id="edge1" class="edge"><title>Node1&#45;&gt;Node2</title>
<path fill="none" stroke="midnightblue" d="M159.65,-58C168.566,-58 177.593,-58 186.395,-58"/>
<polygon fill="midnightblue" stroke="midnightblue" points="159.649,-54.5001 149.648,-58 159.648,-61.5001 159.649,-54.5001"/>
</g>
<!-- Node3 -->
<g id="node3" class="node"><title>Node3</title>
<g id="a_node3"><a xlink:href="../../dc/df5/classmodel_1_1_parser.html#a303d64f26ab1dccf9842d2825751ecdb" target="_top" xlink:title="model.Parser.Parser">
<polygon fill="white" stroke="black" points="390,-67.5 390,-86.5 502,-86.5 502,-67.5 390,-67.5"/>
<text text-anchor="middle" x="446" y="-74.5" font-family="Helvetica,sans-Serif" font-size="10.00">model.Parser.Parser</text>
</a>
</g>
</g>
<!-- Node2&#45;&gt;Node3 -->
<g id="edge2" class="edge"><title>Node2&#45;&gt;Node3</title>
<path fill="none" stroke="midnightblue" d="M347.866,-66.8596C362.107,-68.3463 376.55,-69.8541 389.79,-71.2363"/>
<polygon fill="midnightblue" stroke="midnightblue" points="347.861,-63.3402 337.551,-65.7828 347.134,-70.3023 347.861,-63.3402"/>
</g>
<!-- Node4 -->
<g id="node4" class="node"><title>Node4</title>
<g id="a_node4"><a xlink:href="../../dc/df5/classmodel_1_1_parser.html#a25efafa72b39ed9bf714d0f0f161aa28" target="_top" xlink:title="model.Parser.setLanguage">
<polygon fill="white" stroke="black" points="374,-29.5 374,-48.5 518,-48.5 518,-29.5 374,-29.5"/>
<text text-anchor="middle" x="446" y="-36.5" font-family="Helvetica,sans-Serif" font-size="10.00">model.Parser.setLanguage</text>
</a>
</g>
</g>
<!-- Node2&#45;&gt;Node4 -->
<g id="edge3" class="edge"><title>Node2&#45;&gt;Node4</title>
<path fill="none" stroke="midnightblue" d="M347.731,-49.1545C356.448,-48.2444 365.243,-47.3263 373.793,-46.4337"/>
<polygon fill="midnightblue" stroke="midnightblue" points="347.134,-45.6977 337.551,-50.2172 347.861,-52.6598 347.134,-45.6977"/>
</g>
<!-- Node5 -->
<g id="node5" class="node"><title>Node5</title>
<g id="a_node5"><a xlink:href="../../d4/dd9/classcontroller_1_1_s_logo_controller.html#a89c25e25137c85e944d4d1a5a31837cc" target="_top" xlink:title="controller.SLogoController.set\lLanguage">
<polygon fill="white" stroke="black" points="561,-49 561,-79 719,-79 719,-49 561,-49"/>
<text text-anchor="start" x="569" y="-67" font-family="Helvetica,sans-Serif" font-size="10.00">controller.SLogoController.set</text>
<text text-anchor="middle" x="640" y="-56" font-family="Helvetica,sans-Serif" font-size="10.00">Language</text>
</a>
</g>
</g>
<!-- Node4&#45;&gt;Node5 -->
<g id="edge4" class="edge"><title>Node4&#45;&gt;Node5</title>
<path fill="none" stroke="midnightblue" d="M528.413,-49.6007C539.143,-50.9977 550.121,-52.4272 560.795,-53.817"/>
<polygon fill="midnightblue" stroke="midnightblue" points="528.589,-46.0941 518.221,-48.2736 527.685,-53.0355 528.589,-46.0941"/>
</g>
<!-- Node6 -->
<g id="node6" class="node"><title>Node6</title>
<g id="a_node6"><a xlink:href="../../dc/d3c/classview_1_1_customization_bar.html#a7af574ca79d4f78ad3afbb8fb199ef9c" target="_top" xlink:title="view.CustomizationBar.configure\lLanguageOptions">
<polygon fill="white" stroke="black" points="554.5,-0 554.5,-30 725.5,-30 725.5,-0 554.5,-0"/>
<text text-anchor="start" x="562.5" y="-18" font-family="Helvetica,sans-Serif" font-size="10.00">view.CustomizationBar.configure</text>
<text text-anchor="middle" x="640" y="-7" font-family="Helvetica,sans-Serif" font-size="10.00">LanguageOptions</text>
</a>
</g>
</g>
<!-- Node4&#45;&gt;Node6 -->
<g id="edge5" class="edge"><title>Node4&#45;&gt;Node6</title>
<path fill="none" stroke="midnightblue" d="M528.235,-28.8457C536.843,-27.7696 545.614,-26.6733 554.261,-25.5924"/>
<polygon fill="midnightblue" stroke="midnightblue" points="527.709,-25.384 518.221,-30.0974 528.578,-32.3299 527.709,-25.384"/>
</g>
<!-- Node7 -->
<g id="node7" class="node"><title>Node7</title>
<g id="a_node7"><a xlink:href="../../dc/d3c/classview_1_1_customization_bar.html#a592c1745f5c58bda804730c3ff711dd6" target="_top" xlink:title="view.CustomizationBar.CustomizationBar">
<polygon fill="white" stroke="black" points="762,-5.5 762,-24.5 974,-24.5 974,-5.5 762,-5.5"/>
<text text-anchor="middle" x="868" y="-12.5" font-family="Helvetica,sans-Serif" font-size="10.00">view.CustomizationBar.CustomizationBar</text>
</a>
</g>
</g>
<!-- Node6&#45;&gt;Node7 -->
<g id="edge6" class="edge"><title>Node6&#45;&gt;Node7</title>
<path fill="none" stroke="midnightblue" d="M735.822,-15C744.429,-15 753.181,-15 761.87,-15"/>
<polygon fill="midnightblue" stroke="midnightblue" points="735.797,-11.5001 725.797,-15 735.797,-18.5001 735.797,-11.5001"/>
</g>
</g>
</svg>
