<?xml version="1.0" encoding="UTF-8" standalone="no"?>
<!DOCTYPE svg PUBLIC "-//W3C//DTD SVG 1.1//EN"
 "http://www.w3.org/Graphics/SVG/1.1/DTD/svg11.dtd">
<!-- Generated by graphviz version 2.36.0 (20140111.2315)
 -->
<!-- Title: model.instructions.ControlInstruction Pages: 1 -->
<!--zoomable 868 -->
<svg id="main" version="1.1" xmlns="http://www.w3.org/2000/svg" xmlns:xlink="http://www.w3.org/1999/xlink" xml:space="preserve" onload="init(evt)">
<style type="text/css"><![CDATA[
.edge:hover path { stroke: red; }
.edge:hover polygon { stroke: red; fill: red; }
]]></style>
<script type="text/javascript"><![CDATA[
var edges = document.getElementsByTagName('g');
if (edges && edges.length) {
  for (var i=0;i<edges.length;i++) {
    if (edges[i].id.substr(0,4)=='edge') {
      edges[i].setAttribute('class','edge');
    }
  }
}
]]></script>
        <defs>
                <circle id="rim" cx="0" cy="0" r="7"/>
                <circle id="rim2" cx="0" cy="0" r="3.5"/>
                <g id="zoomPlus">
                        <use xlink:href="#rim" fill="#404040">
                                <set attributeName="fill" to="#808080" begin="zoomplus.mouseover" end="zoomplus.mouseout"/>
                        </use>
                        <path d="M-4,0h8M0,-4v8" fill="none" stroke="white" stroke-width="1.5" pointer-events="none"/>
                </g>
                <g id="zoomMin">
                        <use xlink:href="#rim" fill="#404040">
                                <set attributeName="fill" to="#808080" begin="zoomminus.mouseover" end="zoomminus.mouseout"/>
                        </use>
                        <path d="M-4,0h8" fill="none" stroke="white" stroke-width="1.5" pointer-events="none"/>
                </g>
                <g id="dirArrow">
                        <path fill="none" stroke="white" stroke-width="1.5" d="M0,-3.0v7 M-2.5,-0.5L0,-3.0L2.5,-0.5"/>
                </g>
               <g id="resetDef">
                       <use xlink:href="#rim2" fill="#404040">
                               <set attributeName="fill" to="#808080" begin="reset.mouseover" end="reset.mouseout"/>
                       </use>
               </g>
        </defs>

<script type="text/javascript">
var viewWidth = 1704;
var viewHeight = 868;
var sectionId = 'dynsection-1';
</script>
<script xlink:href="../../svgpan.js"/>
<svg id="graph" class="graph">
<g id="viewport">
<title>model.instructions.ControlInstruction</title>
<polygon fill="white" stroke="none" points="-4,4 -4,-864 1700,-864 1700,4 -4,4"/>
<!-- Node1 -->
<g id="node1" class="node"><title>Node1</title>
<polygon fill="#bfbfbf" stroke="black" points="1170.5,-357 1170.5,-387 1313.5,-387 1313.5,-357 1170.5,-357"/>
<text text-anchor="start" x="1178.5" y="-375" font-family="Helvetica,sans-Serif" font-size="10.00">model.instructions.Control</text>
<text text-anchor="middle" x="1242" y="-364" font-family="Helvetica,sans-Serif" font-size="10.00">Instruction</text>
</g>
<!-- Node2 -->
<g id="node2" class="node"><title>Node2</title>
<g id="a_node2"><a xlink:href="../../d1/dea/classmodel_1_1instructions_1_1_instruction.html" target="_top" xlink:title="model.instructions.Instruction">
<polygon fill="white" stroke="black" points="866,-362.5 866,-381.5 1024,-381.5 1024,-362.5 866,-362.5"/>
<text text-anchor="middle" x="945" y="-369.5" font-family="Helvetica,sans-Serif" font-size="10.00">model.instructions.Instruction</text>
</a>
</g>
</g>
<!-- Node2&#45;&gt;Node1 -->
<g id="edge1" class="edge"><title>Node2&#45;&gt;Node1</title>
<path fill="none" stroke="midnightblue" d="M1034.29,-372C1077.82,-372 1129.59,-372 1170.43,-372"/>
<polygon fill="midnightblue" stroke="midnightblue" points="1034.28,-368.5 1024.28,-372 1034.28,-375.5 1034.28,-368.5"/>
</g>
<!-- Node3 -->
<g id="node3" class="node"><title>Node3</title>
<polygon fill="white" stroke="#bfbfbf" points="371,-246.5 371,-265.5 431,-265.5 431,-246.5 371,-246.5"/>
<text text-anchor="middle" x="401" y="-253.5" font-family="Helvetica,sans-Serif" font-size="10.00">Observer</text>
</g>
<!-- Node3&#45;&gt;Node2 -->
<g id="edge2" class="edge"><title>Node3&#45;&gt;Node2</title>
<path fill="none" stroke="midnightblue" d="M411.735,-274.565C426.496,-300.579 457.199,-347.036 498,-368 565.739,-402.804 764.122,-396.518 840,-390 859.443,-388.33 880.709,-384.934 898.915,-381.537"/>
<polygon fill="midnightblue" stroke="midnightblue" points="414.747,-272.778 406.87,-265.692 408.609,-276.143 414.747,-272.778"/>
</g>
<!-- Node10 -->
<g id="node10" class="node"><title>Node10</title>
<g id="a_node10"><a xlink:href="../../d6/de7/classview_1_1_s_logo_view.html" target="_top" xlink:title="view.SLogoView">
<polygon fill="white" stroke="black" points="618.5,-195.5 618.5,-214.5 709.5,-214.5 709.5,-195.5 618.5,-195.5"/>
<text text-anchor="middle" x="664" y="-202.5" font-family="Helvetica,sans-Serif" font-size="10.00">view.SLogoView</text>
</a>
</g>
</g>
<!-- Node3&#45;&gt;Node10 -->
<g id="edge10" class="edge"><title>Node3&#45;&gt;Node10</title>
<path fill="none" stroke="midnightblue" d="M441.083,-248.363C488.564,-239.085 568.483,-223.469 618.347,-213.725"/>
<polygon fill="midnightblue" stroke="midnightblue" points="440.323,-244.945 431.18,-250.298 441.666,-251.815 440.323,-244.945"/>
</g>
<!-- Node22 -->
<g id="node22" class="node"><title>Node22</title>
<g id="a_node22"><a xlink:href="../../dc/df5/classmodel_1_1_parser.html" target="_top" xlink:title="model.Parser">
<polygon fill="white" stroke="black" points="905,-278.5 905,-297.5 985,-297.5 985,-278.5 905,-278.5"/>
<text text-anchor="middle" x="945" y="-285.5" font-family="Helvetica,sans-Serif" font-size="10.00">model.Parser</text>
</a>
</g>
</g>
<!-- Node3&#45;&gt;Node22 -->
<g id="edge25" class="edge"><title>Node3&#45;&gt;Node22</title>
<path fill="none" stroke="midnightblue" d="M441.228,-258.211C503.055,-261.707 626.944,-268.755 732,-275 792.368,-278.589 862.394,-282.915 904.929,-285.56"/>
<polygon fill="midnightblue" stroke="midnightblue" points="441.319,-254.711 431.137,-257.641 440.924,-261.7 441.319,-254.711"/>
</g>
<!-- Node4 -->
<g id="node4" class="node"><title>Node4</title>
<g id="a_node4"><a xlink:href="../../d1/dca/classmodel_1_1_execution_environment.html" target="_top" xlink:title="model.ExecutionEnvironment">
<polygon fill="white" stroke="black" points="322.5,-441.5 322.5,-460.5 479.5,-460.5 479.5,-441.5 322.5,-441.5"/>
<text text-anchor="middle" x="401" y="-448.5" font-family="Helvetica,sans-Serif" font-size="10.00">model.ExecutionEnvironment</text>
</a>
</g>
</g>
<!-- Node4&#45;&gt;Node2 -->
<g id="edge3" class="edge"><title>Node4&#45;&gt;Node2</title>
<path fill="none" stroke="#9a32cd" stroke-dasharray="5,2" d="M490.001,-459.439C601.637,-468.265 786.142,-475.993 840,-437 857.783,-424.125 841.317,-405.271 858,-391 862.415,-387.223 867.415,-384.149 872.728,-381.652"/>
<polygon fill="#9a32cd" stroke="#9a32cd" points="490.015,-455.928 479.765,-458.61 489.45,-462.906 490.015,-455.928"/>
<text text-anchor="middle" x="664" y="-470" font-family="Helvetica,sans-Serif" font-size="10.00"> myEnvironment</text>
</g>
<!-- Node4&#45;&gt;Node10 -->
<g id="edge41" class="edge"><title>Node4&#45;&gt;Node10</title>
<path fill="none" stroke="#9a32cd" stroke-dasharray="5,2" d="M412.294,-432.123C428.123,-404.249 460.563,-351.452 498,-315 544.373,-269.847 611.621,-231.689 644.075,-214.603"/>
<polygon fill="#9a32cd" stroke="#9a32cd" points="409.052,-430.751 407.235,-441.189 415.165,-434.162 409.052,-430.751"/>
<text text-anchor="middle" x="538" y="-318" font-family="Helvetica,sans-Serif" font-size="10.00"> myEnvironment</text>
</g>
<!-- Node18 -->
<g id="node18" class="node"><title>Node18</title>
<g id="a_node18"><a xlink:href="../../d1/dc7/classview_1_1_side_bar.html" target="_top" xlink:title="view.SideBar">
<polygon fill="white" stroke="black" points="1203.5,-463.5 1203.5,-482.5 1280.5,-482.5 1280.5,-463.5 1203.5,-463.5"/>
<text text-anchor="middle" x="1242" y="-470.5" font-family="Helvetica,sans-Serif" font-size="10.00">view.SideBar</text>
</a>
</g>
</g>
<!-- Node4&#45;&gt;Node18 -->
<g id="edge22" class="edge"><title>Node4&#45;&gt;Node18</title>
<path fill="none" stroke="#9a32cd" stroke-dasharray="5,2" d="M424.79,-466.1C459.827,-488.319 529.83,-528.826 596,-544 784.876,-587.312 839.165,-564.094 1032,-545 1086.12,-539.641 1100.83,-539.446 1152,-521 1179.75,-510.998 1209.4,-493.452 1226.52,-482.57"/>
<polygon fill="#9a32cd" stroke="#9a32cd" points="426.565,-463.081 416.262,-460.613 422.777,-468.967 426.565,-463.081"/>
<text text-anchor="middle" x="795" y="-572" font-family="Helvetica,sans-Serif" font-size="10.00"> myEnvironment</text>
</g>
<!-- Node4&#45;&gt;Node22 -->
<g id="edge27" class="edge"><title>Node4&#45;&gt;Node22</title>
<path fill="none" stroke="#9a32cd" stroke-dasharray="5,2" d="M489.952,-446.452C601.071,-439.209 784.523,-421.812 840,-384 853.165,-375.027 847.437,-364.927 858,-353 878.722,-329.602 909.006,-309.07 927.558,-297.622"/>
<polygon fill="#9a32cd" stroke="#9a32cd" points="489.52,-442.972 479.762,-447.101 489.965,-449.958 489.52,-442.972"/>
<text text-anchor="middle" x="664" y="-441" font-family="Helvetica,sans-Serif" font-size="10.00"> myExecutionParameters</text>
</g>
<!-- Node5 -->
<g id="node5" class="node"><title>Node5</title>
<polygon fill="white" stroke="#bfbfbf" points="51.5,-501.5 51.5,-520.5 122.5,-520.5 122.5,-501.5 51.5,-501.5"/>
<text text-anchor="middle" x="87" y="-508.5" font-family="Helvetica,sans-Serif" font-size="10.00">Observable</text>
</g>
<!-- Node5&#45;&gt;Node4 -->
<g id="edge4" class="edge"><title>Node5&#45;&gt;Node4</title>
<path fill="none" stroke="midnightblue" d="M132.717,-511.151C176.879,-510.351 246.026,-506.537 304,-492 332.478,-484.859 363.357,-470.337 382.194,-460.636"/>
<polygon fill="midnightblue" stroke="midnightblue" points="132.548,-507.652 122.596,-511.289 132.643,-514.652 132.548,-507.652"/>
</g>
<!-- Node6 -->
<g id="node6" class="node"><title>Node6</title>
<polygon fill="white" stroke="#bfbfbf" points="42.5,-463.5 42.5,-482.5 131.5,-482.5 131.5,-463.5 42.5,-463.5"/>
<text text-anchor="middle" x="87" y="-470.5" font-family="Helvetica,sans-Serif" font-size="10.00">Set&lt; Integer &gt;</text>
</g>
<!-- Node6&#45;&gt;Node4 -->
<g id="edge5" class="edge"><title>Node6&#45;&gt;Node4</title>
<path fill="none" stroke="#9a32cd" stroke-dasharray="5,2" d="M141.939,-469.197C191.701,-465.688 266.155,-460.438 322.32,-456.477"/>
<polygon fill="#9a32cd" stroke="#9a32cd" points="141.44,-465.723 131.711,-469.918 141.932,-472.706 141.44,-465.723"/>
<text text-anchor="middle" x="248" y="-480" font-family="Helvetica,sans-Serif" font-size="10.00"> myTurtleList</text>
<text text-anchor="middle" x="248" y="-469" font-family="Helvetica,sans-Serif" font-size="10.00">activeTurtleList</text>
</g>
<!-- Node7 -->
<g id="node7" class="node"><title>Node7</title>
<polygon fill="white" stroke="#bfbfbf" points="0,-414 0,-444 174,-444 174,-414 0,-414"/>
<text text-anchor="start" x="8" y="-432" font-family="Helvetica,sans-Serif" font-size="10.00">Map&lt; String, model.instructions.</text>
<text text-anchor="middle" x="87" y="-421" font-family="Helvetica,sans-Serif" font-size="10.00">Instruction &gt;</text>
</g>
<!-- Node7&#45;&gt;Node4 -->
<g id="edge6" class="edge"><title>Node7&#45;&gt;Node4</title>
<path fill="none" stroke="#9a32cd" stroke-dasharray="5,2" d="M184.559,-435.634C221.877,-438.217 264.929,-441.219 304,-444 310.001,-444.427 316.212,-444.873 322.456,-445.323"/>
<polygon fill="#9a32cd" stroke="#9a32cd" points="184.411,-432.115 174.193,-434.917 183.928,-439.099 184.411,-432.115"/>
<text text-anchor="middle" x="248" y="-447" font-family="Helvetica,sans-Serif" font-size="10.00"> myUserInstructionMap</text>
</g>
<!-- Node8 -->
<g id="node8" class="node"><title>Node8</title>
<polygon fill="white" stroke="#bfbfbf" points="23,-375.5 23,-394.5 151,-394.5 151,-375.5 23,-375.5"/>
<text text-anchor="middle" x="87" y="-382.5" font-family="Helvetica,sans-Serif" font-size="10.00">Map&lt; String, Double &gt;</text>
</g>
<!-- Node8&#45;&gt;Node4 -->
<g id="edge7" class="edge"><title>Node8&#45;&gt;Node4</title>
<path fill="none" stroke="#9a32cd" stroke-dasharray="5,2" d="M161.414,-395.267C203.421,-401.717 256.961,-410.911 304,-422 327.047,-427.433 352.7,-435.278 371.686,-441.439"/>
<polygon fill="#9a32cd" stroke="#9a32cd" points="161.68,-391.768 151.268,-393.729 160.63,-398.689 161.68,-391.768"/>
<text text-anchor="middle" x="248" y="-425" font-family="Helvetica,sans-Serif" font-size="10.00"> myVariableMap</text>
</g>
<!-- Node9 -->
<g id="node9" class="node"><title>Node9</title>
<polygon fill="white" stroke="#bfbfbf" points="596,-505 596,-535 732,-535 732,-505 596,-505"/>
<text text-anchor="start" x="604" y="-523" font-family="Helvetica,sans-Serif" font-size="10.00">List&lt; model.instructions.</text>
<text text-anchor="middle" x="664" y="-512" font-family="Helvetica,sans-Serif" font-size="10.00">Instruction &gt;</text>
</g>
<!-- Node9&#45;&gt;Node2 -->
<g id="edge8" class="edge"><title>Node9&#45;&gt;Node2</title>
<path fill="none" stroke="#9a32cd" stroke-dasharray="5,2" d="M742.354,-524.941C776.571,-522.897 814.701,-514.139 840,-489 871.412,-457.786 827.252,-422.869 858,-391 861.61,-387.259 865.778,-384.176 870.292,-381.643"/>
<polygon fill="#9a32cd" stroke="#9a32cd" points="742.196,-521.444 732.351,-525.359 742.489,-528.438 742.196,-521.444"/>
<text text-anchor="middle" x="795" y="-527" font-family="Helvetica,sans-Serif" font-size="10.00"> myDependencies</text>
</g>
<!-- Node10&#45;&gt;Node2 -->
<g id="edge9" class="edge"><title>Node10&#45;&gt;Node2</title>
<path fill="none" stroke="#9a32cd" stroke-dasharray="5,2" d="M685.005,-221.088C699.982,-234.14 719.894,-253.799 732,-275 746.652,-300.659 728.032,-319.239 750,-339 780.988,-366.875 826.5,-375.676 865.656,-377.253"/>
<polygon fill="#9a32cd" stroke="#9a32cd" points="687.168,-218.333 677.273,-214.548 682.648,-223.678 687.168,-218.333"/>
<text text-anchor="middle" x="795" y="-378" font-family="Helvetica,sans-Serif" font-size="10.00"> myView</text>
</g>
<!-- Node10&#45;&gt;Node22 -->
<g id="edge29" class="edge"><title>Node10&#45;&gt;Node22</title>
<path fill="none" stroke="#9a32cd" stroke-dasharray="5,2" d="M719.944,-199.124C755.213,-197.29 801.456,-198.559 840,-212 880.12,-225.99 917.974,-261.078 934.827,-278.24"/>
<polygon fill="#9a32cd" stroke="#9a32cd" points="719.603,-195.638 709.838,-199.748 720.035,-202.624 719.603,-195.638"/>
<text text-anchor="middle" x="795" y="-215" font-family="Helvetica,sans-Serif" font-size="10.00"> mySLogoView</text>
</g>
<!-- Node11 -->
<g id="node11" class="node"><title>Node11</title>
<g id="a_node11"><a xlink:href="../../da/d64/classview_1_1_workspace.html" target="_top" xlink:title="view.Workspace">
<polygon fill="white" stroke="black" points="1426,-682.5 1426,-701.5 1516,-701.5 1516,-682.5 1426,-682.5"/>
<text text-anchor="middle" x="1471" y="-689.5" font-family="Helvetica,sans-Serif" font-size="10.00">view.Workspace</text>
</a>
</g>
</g>
<!-- Node11&#45;&gt;Node10 -->
<g id="edge11" class="edge"><title>Node11&#45;&gt;Node10</title>
<path fill="none" stroke="#9a32cd" stroke-dasharray="5,2" d="M1463.95,-672.606C1435.82,-582.481 1318.97,-208.788 1314,-205 1230.21,-141.082 945.383,-190.823 840,-190 800.001,-189.688 789.848,-186.511 750,-190 736.863,-191.15 722.714,-193.282 709.801,-195.585"/>
<polygon fill="#9a32cd" stroke="#9a32cd" points="1460.67,-673.852 1466.99,-682.355 1467.36,-671.767 1460.67,-673.852"/>
<text text-anchor="middle" x="1101" y="-179" font-family="Helvetica,sans-Serif" font-size="10.00"> myWorkspace</text>
</g>
<!-- Node34 -->
<g id="node34" class="node"><title>Node34</title>
<g id="a_node34"><a xlink:href="../../de/d0a/classview_1_1_drawer.html" target="_top" xlink:title="view.Drawer">
<polygon fill="white" stroke="black" points="1622.5,-47.5 1622.5,-66.5 1695.5,-66.5 1695.5,-47.5 1622.5,-47.5"/>
<text text-anchor="middle" x="1659" y="-54.5" font-family="Helvetica,sans-Serif" font-size="10.00">view.Drawer</text>
</a>
</g>
</g>
<!-- Node11&#45;&gt;Node34 -->
<g id="edge45" class="edge"><title>Node11&#45;&gt;Node34</title>
<path fill="none" stroke="#9a32cd" stroke-dasharray="5,2" d="M1477.72,-672.487C1506.46,-574.349 1634.66,-136.672 1655.22,-66.5043"/>
<polygon fill="#9a32cd" stroke="#9a32cd" points="1474.3,-671.699 1474.85,-682.28 1481.02,-673.667 1474.3,-671.699"/>
<text text-anchor="middle" x="1569" y="-472" font-family="Helvetica,sans-Serif" font-size="10.00"> myWorkspace</text>
</g>
<!-- Node12 -->
<g id="node12" class="node"><title>Node12</title>
<polygon fill="white" stroke="#bfbfbf" points="1208.5,-726.5 1208.5,-745.5 1275.5,-745.5 1275.5,-726.5 1208.5,-726.5"/>
<text text-anchor="middle" x="1242" y="-733.5" font-family="Helvetica,sans-Serif" font-size="10.00">StackPane</text>
</g>
<!-- Node12&#45;&gt;Node11 -->
<g id="edge12" class="edge"><title>Node12&#45;&gt;Node11</title>
<path fill="none" stroke="midnightblue" d="M1285.56,-729.281C1318.97,-723.824 1366.59,-715.64 1408,-707 1415.91,-705.349 1424.36,-703.42 1432.38,-701.505"/>
<polygon fill="midnightblue" stroke="midnightblue" points="1284.99,-725.828 1275.68,-730.884 1286.11,-732.738 1284.99,-725.828"/>
</g>
<!-- Node13 -->
<g id="node13" class="node"><title>Node13</title>
<polygon fill="white" stroke="#bfbfbf" points="354.5,-592.5 354.5,-611.5 447.5,-611.5 447.5,-592.5 354.5,-592.5"/>
<text text-anchor="middle" x="401" y="-599.5" font-family="Helvetica,sans-Serif" font-size="10.00">ResourceBundle</text>
</g>
<!-- Node13&#45;&gt;Node10 -->
<g id="edge33" class="edge"><title>Node13&#45;&gt;Node10</title>
<path fill="none" stroke="#9a32cd" stroke-dasharray="5,2" d="M415.398,-584.219C447.07,-541.562 527.667,-429.279 578,-326 588.531,-304.392 583.408,-295.475 596,-275 611.158,-250.354 636.192,-227.227 650.989,-214.703"/>
<polygon fill="#9a32cd" stroke="#9a32cd" points="412.428,-582.347 409.248,-592.453 418.036,-586.536 412.428,-582.347"/>
<text text-anchor="middle" x="538" y="-462" font-family="Helvetica,sans-Serif" font-size="10.00"> myResources</text>
</g>
<!-- Node13&#45;&gt;Node11 -->
<g id="edge13" class="edge"><title>Node13&#45;&gt;Node11</title>
<path fill="none" stroke="#9a32cd" stroke-dasharray="5,2" d="M444.376,-614.161C495.68,-627.789 584.925,-648 663,-648 663,-648 663,-648 1243,-648 1314.86,-648 1397.21,-669.512 1440.25,-682.453"/>
<polygon fill="#9a32cd" stroke="#9a32cd" points="445.202,-610.759 434.636,-611.531 443.377,-617.517 445.202,-610.759"/>
<text text-anchor="middle" x="945" y="-651" font-family="Helvetica,sans-Serif" font-size="10.00"> myResources</text>
</g>
<!-- Node13&#45;&gt;Node18 -->
<g id="edge21" class="edge"><title>Node13&#45;&gt;Node18</title>
<path fill="none" stroke="#9a32cd" stroke-dasharray="5,2" d="M457.849,-601.58C568.036,-600.197 821.04,-594.282 1032,-569 1085.84,-562.548 1102.88,-569.971 1152,-547 1186.22,-530.995 1218.18,-498.589 1232.74,-482.502"/>
<polygon fill="#9a32cd" stroke="#9a32cd" points="457.596,-598.082 447.638,-601.7 457.678,-605.082 457.596,-598.082"/>
<text text-anchor="middle" x="795" y="-595" font-family="Helvetica,sans-Serif" font-size="10.00"> myResources</text>
</g>
<!-- Node14 -->
<g id="node14" class="node"><title>Node14</title>
<g id="a_node14"><a xlink:href="../../d8/df7/classview_1_1_turtle_view.html" target="_top" xlink:title="view.TurtleView">
<polygon fill="white" stroke="black" points="1199,-764.5 1199,-783.5 1285,-783.5 1285,-764.5 1199,-764.5"/>
<text text-anchor="middle" x="1242" y="-771.5" font-family="Helvetica,sans-Serif" font-size="10.00">view.TurtleView</text>
</a>
</g>
</g>
<!-- Node14&#45;&gt;Node11 -->
<g id="edge14" class="edge"><title>Node14&#45;&gt;Node11</title>
<path fill="none" stroke="#9a32cd" stroke-dasharray="5,2" d="M1294.92,-762.725C1327.99,-754.692 1371.35,-742.567 1408,-727 1424.84,-719.847 1442.93,-709.267 1455.2,-701.613"/>
<polygon fill="#9a32cd" stroke="#9a32cd" points="1293.92,-759.364 1285,-765.085 1295.54,-766.174 1293.92,-759.364"/>
<text text-anchor="middle" x="1370" y="-755" font-family="Helvetica,sans-Serif" font-size="10.00"> myActiveTurtle</text>
</g>
<!-- Node15 -->
<g id="node15" class="node"><title>Node15</title>
<polygon fill="white" stroke="#bfbfbf" points="911,-764.5 911,-783.5 979,-783.5 979,-764.5 911,-764.5"/>
<text text-anchor="middle" x="945" y="-771.5" font-family="Helvetica,sans-Serif" font-size="10.00">ImageView</text>
</g>
<!-- Node15&#45;&gt;Node14 -->
<g id="edge15" class="edge"><title>Node15&#45;&gt;Node14</title>
<path fill="none" stroke="midnightblue" d="M989.27,-774C1045.53,-774 1143.15,-774 1198.85,-774"/>
<polygon fill="midnightblue" stroke="midnightblue" points="989.267,-770.5 979.267,-774 989.267,-777.5 989.267,-770.5"/>
</g>
<!-- Node16 -->
<g id="node16" class="node"><title>Node16</title>
<polygon fill="white" stroke="#bfbfbf" points="1174,-677 1174,-707 1310,-707 1310,-677 1174,-677"/>
<text text-anchor="start" x="1182" y="-695" font-family="Helvetica,sans-Serif" font-size="10.00">Map&lt; Integer, view.Turtle</text>
<text text-anchor="middle" x="1242" y="-684" font-family="Helvetica,sans-Serif" font-size="10.00">View &gt;</text>
</g>
<!-- Node16&#45;&gt;Node11 -->
<g id="edge16" class="edge"><title>Node16&#45;&gt;Node11</title>
<path fill="none" stroke="#9a32cd" stroke-dasharray="5,2" d="M1320.45,-692C1355.65,-692 1396.01,-692 1425.93,-692"/>
<polygon fill="#9a32cd" stroke="#9a32cd" points="1320.19,-688.5 1310.19,-692 1320.19,-695.5 1320.19,-688.5"/>
<text text-anchor="middle" x="1370" y="-695" font-family="Helvetica,sans-Serif" font-size="10.00"> myTurtles</text>
</g>
<!-- Node17 -->
<g id="node17" class="node"><title>Node17</title>
<polygon fill="white" stroke="#bfbfbf" points="1219,-840.5 1219,-859.5 1265,-859.5 1265,-840.5 1219,-840.5"/>
<text text-anchor="middle" x="1242" y="-847.5" font-family="Helvetica,sans-Serif" font-size="10.00">Group</text>
</g>
<!-- Node17&#45;&gt;Node11 -->
<g id="edge17" class="edge"><title>Node17&#45;&gt;Node11</title>
<path fill="none" stroke="#9a32cd" stroke-dasharray="5,2" d="M1275.65,-850.304C1311.63,-849.004 1369.49,-841.895 1408,-812 1445.6,-782.809 1462.56,-724.457 1467.96,-701.547"/>
<polygon fill="#9a32cd" stroke="#9a32cd" points="1275.15,-846.814 1265.23,-850.539 1275.31,-853.812 1275.15,-846.814"/>
<text text-anchor="middle" x="1370" y="-846" font-family="Helvetica,sans-Serif" font-size="10.00"> myLines</text>
</g>
<!-- Node18&#45;&gt;Node10 -->
<g id="edge47" class="edge"><title>Node18&#45;&gt;Node10</title>
<path fill="none" stroke="#9a32cd" stroke-dasharray="5,2" d="M1221.36,-456.539C1205.36,-442.117 1183.29,-419.791 1170,-396 1155.59,-370.205 1169.79,-355.591 1152,-332 1114.27,-281.974 1088.83,-284.395 1032,-258 915.527,-203.902 878.203,-187.485 750,-195 736.947,-195.765 722.824,-197.186 709.909,-198.721"/>
<polygon fill="#9a32cd" stroke="#9a32cd" points="1219.28,-459.365 1229.11,-463.326 1223.89,-454.102 1219.28,-459.365"/>
<text text-anchor="middle" x="945" y="-261" font-family="Helvetica,sans-Serif" font-size="10.00"> mySidebar</text>
</g>
<!-- Node18&#45;&gt;Node11 -->
<g id="edge18" class="edge"><title>Node18&#45;&gt;Node11</title>
<path fill="none" stroke="#9a32cd" stroke-dasharray="5,2" d="M1262.57,-489.651C1294.07,-516.709 1357.6,-572.309 1408,-623 1428.21,-643.329 1450.29,-668.747 1461.87,-682.348"/>
<polygon fill="#9a32cd" stroke="#9a32cd" points="1264.44,-486.648 1254.57,-482.804 1259.89,-491.966 1264.44,-486.648"/>
<text text-anchor="middle" x="1370" y="-626" font-family="Helvetica,sans-Serif" font-size="10.00"> mySidebar</text>
</g>
<!-- Node28 -->
<g id="node28" class="node"><title>Node28</title>
<g id="a_node28"><a xlink:href="../../da/dc8/classview_1_1_editor.html" target="_top" xlink:title="view.Editor">
<polygon fill="white" stroke="black" points="1437.5,-124.5 1437.5,-143.5 1504.5,-143.5 1504.5,-124.5 1437.5,-124.5"/>
<text text-anchor="middle" x="1471" y="-131.5" font-family="Helvetica,sans-Serif" font-size="10.00">view.Editor</text>
</a>
</g>
</g>
<!-- Node18&#45;&gt;Node28 -->
<g id="edge39" class="edge"><title>Node18&#45;&gt;Node28</title>
<path fill="none" stroke="#9a32cd" stroke-dasharray="5,2" d="M1260.58,-456.044C1275.66,-441.017 1297.52,-418.092 1314,-396 1382.69,-303.924 1447.02,-179.693 1465.02,-143.978"/>
<polygon fill="#9a32cd" stroke="#9a32cd" points="1258.04,-453.628 1253.37,-463.136 1262.95,-458.618 1258.04,-453.628"/>
<text text-anchor="middle" x="1370" y="-373" font-family="Helvetica,sans-Serif" font-size="10.00"> mySidebar</text>
</g>
<!-- Node19 -->
<g id="node19" class="node"><title>Node19</title>
<polygon fill="white" stroke="#bfbfbf" points="924.5,-516.5 924.5,-535.5 965.5,-535.5 965.5,-516.5 924.5,-516.5"/>
<text text-anchor="middle" x="945" y="-523.5" font-family="Helvetica,sans-Serif" font-size="10.00">VBox</text>
</g>
<!-- Node19&#45;&gt;Node18 -->
<g id="edge19" class="edge"><title>Node19&#45;&gt;Node18</title>
<path fill="none" stroke="midnightblue" d="M975.956,-523.245C1016.25,-519.24 1090.01,-510.855 1152,-498 1171.8,-493.894 1193.67,-487.774 1210.78,-482.616"/>
<polygon fill="midnightblue" stroke="midnightblue" points="975.367,-519.785 965.753,-524.236 976.044,-526.753 975.367,-519.785"/>
</g>
<!-- Node20 -->
<g id="node20" class="node"><title>Node20</title>
<polygon fill="white" stroke="#bfbfbf" points="858.5,-478.5 858.5,-497.5 1031.5,-497.5 1031.5,-478.5 858.5,-478.5"/>
<text text-anchor="middle" x="945" y="-485.5" font-family="Helvetica,sans-Serif" font-size="10.00">ObservableList&lt; view.Property &gt;</text>
</g>
<!-- Node20&#45;&gt;Node18 -->
<g id="edge20" class="edge"><title>Node20&#45;&gt;Node18</title>
<path fill="none" stroke="#9a32cd" stroke-dasharray="5,2" d="M1041.86,-483.126C1096.85,-480.33 1162.81,-476.976 1203.31,-474.917"/>
<polygon fill="#9a32cd" stroke="#9a32cd" points="1041.53,-479.638 1031.72,-483.641 1041.89,-486.629 1041.53,-479.638"/>
<text text-anchor="middle" x="1101" y="-486" font-family="Helvetica,sans-Serif" font-size="10.00"> variablesList</text>
</g>
<!-- Node21 -->
<g id="node21" class="node"><title>Node21</title>
<polygon fill="white" stroke="#bfbfbf" points="871,-440.5 871,-459.5 1019,-459.5 1019,-440.5 871,-440.5"/>
<text text-anchor="middle" x="945" y="-447.5" font-family="Helvetica,sans-Serif" font-size="10.00">TableView&lt; view.Property &gt;</text>
</g>
<!-- Node21&#45;&gt;Node18 -->
<g id="edge23" class="edge"><title>Node21&#45;&gt;Node18</title>
<path fill="none" stroke="#9a32cd" stroke-dasharray="5,2" d="M1029.58,-446.618C1067.13,-446.175 1111.92,-447.138 1152,-452 1170.91,-454.294 1191.65,-459.052 1208.35,-463.459"/>
<polygon fill="#9a32cd" stroke="#9a32cd" points="1029.13,-443.124 1019.19,-446.778 1029.24,-450.123 1029.13,-443.124"/>
<text text-anchor="middle" x="1101" y="-466" font-family="Helvetica,sans-Serif" font-size="10.00"> turtlePropertiesTable</text>
<text text-anchor="middle" x="1101" y="-455" font-family="Helvetica,sans-Serif" font-size="10.00">variablesTable</text>
</g>
<!-- Node22&#45;&gt;Node10 -->
<g id="edge42" class="edge"><title>Node22&#45;&gt;Node10</title>
<path fill="none" stroke="#9a32cd" stroke-dasharray="5,2" d="M913.41,-274.198C892.929,-265.319 865.204,-253.99 840,-246 815.98,-238.386 752.62,-224.061 709.115,-214.523"/>
<polygon fill="#9a32cd" stroke="#9a32cd" points="912.276,-277.523 922.84,-278.335 915.089,-271.112 912.276,-277.523"/>
<text text-anchor="middle" x="795" y="-249" font-family="Helvetica,sans-Serif" font-size="10.00"> myParser</text>
</g>
<!-- Node22&#45;&gt;Node18 -->
<g id="edge24" class="edge"><title>Node22&#45;&gt;Node18</title>
<path fill="none" stroke="#9a32cd" stroke-dasharray="5,2" d="M979.507,-301.561C1021.59,-319.333 1095.18,-352.879 1152,-392 1184.18,-414.155 1216.84,-447.163 1232.1,-463.347"/>
<polygon fill="#9a32cd" stroke="#9a32cd" points="980.593,-298.222 970.016,-297.597 977.894,-304.681 980.593,-298.222"/>
<text text-anchor="middle" x="1101" y="-395" font-family="Helvetica,sans-Serif" font-size="10.00"> myParser</text>
</g>
<!-- Node22&#45;&gt;Node28 -->
<g id="edge37" class="edge"><title>Node22&#45;&gt;Node28</title>
<path fill="none" stroke="#9a32cd" stroke-dasharray="5,2" d="M995.121,-276.934C1080.3,-257.207 1260.46,-213.106 1408,-161 1422.28,-155.957 1437.91,-149.14 1449.91,-143.618"/>
<polygon fill="#9a32cd" stroke="#9a32cd" points="994.17,-273.561 985.212,-279.218 995.743,-280.382 994.17,-273.561"/>
<text text-anchor="middle" x="1242" y="-236" font-family="Helvetica,sans-Serif" font-size="10.00"> myParser</text>
</g>
<!-- Node23 -->
<g id="node23" class="node"><title>Node23</title>
<polygon fill="white" stroke="#bfbfbf" points="608,-323 608,-353 720,-353 720,-323 608,-323"/>
<text text-anchor="start" x="616" y="-341" font-family="Helvetica,sans-Serif" font-size="10.00">List&lt; Entry&lt; String,</text>
<text text-anchor="middle" x="664" y="-330" font-family="Helvetica,sans-Serif" font-size="10.00"> Pattern &gt; &gt;</text>
</g>
<!-- Node23&#45;&gt;Node22 -->
<g id="edge26" class="edge"><title>Node23&#45;&gt;Node22</title>
<path fill="none" stroke="#9a32cd" stroke-dasharray="5,2" d="M730.189,-327.147C763.134,-321.58 803.72,-314.597 840,-308 861.346,-304.118 885.11,-299.566 904.527,-295.786"/>
<polygon fill="#9a32cd" stroke="#9a32cd" points="729.501,-323.713 720.222,-328.827 730.665,-330.616 729.501,-323.713"/>
<text text-anchor="middle" x="795" y="-327" font-family="Helvetica,sans-Serif" font-size="10.00"> myPatterns</text>
</g>
<!-- Node24 -->
<g id="node24" class="node"><title>Node24</title>
<polygon fill="white" stroke="#bfbfbf" points="603,-284.5 603,-303.5 725,-303.5 725,-284.5 603,-284.5"/>
<text text-anchor="middle" x="664" y="-291.5" font-family="Helvetica,sans-Serif" font-size="10.00">Map&lt; String, String &gt;</text>
</g>
<!-- Node24&#45;&gt;Node22 -->
<g id="edge28" class="edge"><title>Node24&#45;&gt;Node22</title>
<path fill="none" stroke="#9a32cd" stroke-dasharray="5,2" d="M735.342,-292.487C789.064,-291.332 861.103,-289.783 904.952,-288.84"/>
<polygon fill="#9a32cd" stroke="#9a32cd" points="735.118,-288.991 725.195,-292.705 735.268,-295.99 735.118,-288.991"/>
<text text-anchor="middle" x="795" y="-296" font-family="Helvetica,sans-Serif" font-size="10.00"> myCommandMap</text>
</g>
<!-- Node25 -->
<g id="node25" class="node"><title>Node25</title>
<polygon fill="white" stroke="#bfbfbf" points="876,-400.5 876,-419.5 1014,-419.5 1014,-400.5 876,-400.5"/>
<text text-anchor="middle" x="945" y="-407.5" font-family="Helvetica,sans-Serif" font-size="10.00">ObservableList&lt; String &gt;</text>
</g>
<!-- Node25&#45;&gt;Node18 -->
<g id="edge30" class="edge"><title>Node25&#45;&gt;Node18</title>
<path fill="none" stroke="#9a32cd" stroke-dasharray="5,2" d="M1024.44,-405.571C1063.52,-405.514 1111.06,-408.735 1152,-421 1182,-429.987 1212.57,-450.987 1228.92,-463.376"/>
<polygon fill="#9a32cd" stroke="#9a32cd" points="1024.14,-402.074 1014.17,-405.661 1024.2,-409.073 1024.14,-402.074"/>
<text text-anchor="middle" x="1101" y="-435" font-family="Helvetica,sans-Serif" font-size="10.00"> commandItems</text>
<text text-anchor="middle" x="1101" y="-424" font-family="Helvetica,sans-Serif" font-size="10.00">historyItems</text>
</g>
<!-- Node26 -->
<g id="node26" class="node"><title>Node26</title>
<polygon fill="white" stroke="#bfbfbf" points="1210.5,-802.5 1210.5,-821.5 1273.5,-821.5 1273.5,-802.5 1210.5,-802.5"/>
<text text-anchor="middle" x="1242" y="-809.5" font-family="Helvetica,sans-Serif" font-size="10.00">Rectangle</text>
</g>
<!-- Node26&#45;&gt;Node11 -->
<g id="edge31" class="edge"><title>Node26&#45;&gt;Node11</title>
<path fill="none" stroke="#9a32cd" stroke-dasharray="5,2" d="M1283.5,-807.95C1318.75,-802.871 1370.01,-791.614 1408,-767 1434.51,-749.821 1455.37,-717.721 1464.69,-701.665"/>
<polygon fill="#9a32cd" stroke="#9a32cd" points="1283.01,-804.485 1273.56,-809.281 1283.94,-811.423 1283.01,-804.485"/>
<text text-anchor="middle" x="1370" y="-800" font-family="Helvetica,sans-Serif" font-size="10.00"> myBackground</text>
</g>
<!-- Node27 -->
<g id="node27" class="node"><title>Node27</title>
<polygon fill="white" stroke="#bfbfbf" points="378.5,-197.5 378.5,-216.5 423.5,-216.5 423.5,-197.5 378.5,-197.5"/>
<text text-anchor="middle" x="401" y="-204.5" font-family="Helvetica,sans-Serif" font-size="10.00">Stage</text>
</g>
<!-- Node27&#45;&gt;Node10 -->
<g id="edge32" class="edge"><title>Node27&#45;&gt;Node10</title>
<path fill="none" stroke="#9a32cd" stroke-dasharray="5,2" d="M433.783,-206.634C452.48,-206.428 476.584,-206.176 498,-206 538.676,-205.665 584.994,-205.394 618.18,-205.219"/>
<polygon fill="#9a32cd" stroke="#9a32cd" points="433.692,-203.135 423.732,-206.747 433.771,-210.134 433.692,-203.135"/>
<text text-anchor="middle" x="538" y="-209" font-family="Helvetica,sans-Serif" font-size="10.00"> myStage</text>
</g>
<!-- Node28&#45;&gt;Node10 -->
<g id="edge34" class="edge"><title>Node28&#45;&gt;Node10</title>
<path fill="none" stroke="#9a32cd" stroke-dasharray="5,2" d="M1427.32,-130.626C1292.24,-120.518 875.537,-93.8698 750,-139 717.65,-150.63 687.892,-179.637 673.712,-195.034"/>
<polygon fill="#9a32cd" stroke="#9a32cd" points="1427.06,-134.117 1437.3,-131.381 1427.59,-127.137 1427.06,-134.117"/>
<text text-anchor="middle" x="1101" y="-119" font-family="Helvetica,sans-Serif" font-size="10.00"> myEditor</text>
</g>
<!-- Node29 -->
<g id="node29" class="node"><title>Node29</title>
<polygon fill="white" stroke="#bfbfbf" points="1221,-67.5 1221,-86.5 1263,-86.5 1263,-67.5 1221,-67.5"/>
<text text-anchor="middle" x="1242" y="-74.5" font-family="Helvetica,sans-Serif" font-size="10.00">HBox</text>
</g>
<!-- Node29&#45;&gt;Node28 -->
<g id="edge35" class="edge"><title>Node29&#45;&gt;Node28</title>
<path fill="none" stroke="midnightblue" d="M1273.17,-78.2791C1306.8,-80.4124 1362.45,-86.0691 1408,-101 1425.15,-106.622 1443.19,-116.773 1455.36,-124.337"/>
<polygon fill="midnightblue" stroke="midnightblue" points="1273.24,-74.778 1263.06,-77.7031 1272.84,-81.7666 1273.24,-74.778"/>
</g>
<!-- Node30 -->
<g id="node30" class="node"><title>Node30</title>
<polygon fill="white" stroke="#bfbfbf" points="1217.5,-29.5 1217.5,-48.5 1266.5,-48.5 1266.5,-29.5 1217.5,-29.5"/>
<text text-anchor="middle" x="1242" y="-36.5" font-family="Helvetica,sans-Serif" font-size="10.00">Button</text>
</g>
<!-- Node30&#45;&gt;Node28 -->
<g id="edge36" class="edge"><title>Node30&#45;&gt;Node28</title>
<path fill="none" stroke="#9a32cd" stroke-dasharray="5,2" d="M1276.73,-39.4299C1311.55,-41.1787 1366.48,-47.6649 1408,-70 1432.8,-83.3372 1453.67,-110.058 1463.67,-124.392"/>
<polygon fill="#9a32cd" stroke="#9a32cd" points="1276.74,-35.9276 1266.61,-39.0269 1276.46,-42.922 1276.74,-35.9276"/>
<text text-anchor="middle" x="1370" y="-73" font-family="Helvetica,sans-Serif" font-size="10.00"> runButton</text>
</g>
<!-- Node31 -->
<g id="node31" class="node"><title>Node31</title>
<polygon fill="white" stroke="#bfbfbf" points="1213,-143.5 1213,-162.5 1271,-162.5 1271,-143.5 1213,-143.5"/>
<text text-anchor="middle" x="1242" y="-150.5" font-family="Helvetica,sans-Serif" font-size="10.00">TextArea</text>
</g>
<!-- Node31&#45;&gt;Node28 -->
<g id="edge38" class="edge"><title>Node31&#45;&gt;Node28</title>
<path fill="none" stroke="#9a32cd" stroke-dasharray="5,2" d="M1281.27,-149.797C1325.05,-146.132 1396.01,-140.193 1437.31,-136.736"/>
<polygon fill="#9a32cd" stroke="#9a32cd" points="1280.96,-146.31 1271.29,-150.632 1281.55,-153.286 1280.96,-146.31"/>
<text text-anchor="middle" x="1370" y="-149" font-family="Helvetica,sans-Serif" font-size="10.00"> textEditor</text>
</g>
<!-- Node32 -->
<g id="node32" class="node"><title>Node32</title>
<polygon fill="white" stroke="#bfbfbf" points="341.5,-121.5 341.5,-140.5 460.5,-140.5 460.5,-121.5 341.5,-121.5"/>
<text text-anchor="middle" x="401" y="-128.5" font-family="Helvetica,sans-Serif" font-size="10.00">Map&lt; String, Node &gt;</text>
</g>
<!-- Node32&#45;&gt;Node10 -->
<g id="edge40" class="edge"><title>Node32&#45;&gt;Node10</title>
<path fill="none" stroke="#9a32cd" stroke-dasharray="5,2" d="M470.726,-140.83C503.645,-146.506 543.351,-154.777 578,-166 602.096,-173.805 628.389,-186.58 645.253,-195.369"/>
<polygon fill="#9a32cd" stroke="#9a32cd" points="471.182,-137.358 460.74,-139.152 470.022,-144.261 471.182,-137.358"/>
<text text-anchor="middle" x="538" y="-169" font-family="Helvetica,sans-Serif" font-size="10.00"> variables</text>
</g>
<!-- Node33 -->
<g id="node33" class="node"><title>Node33</title>
<polygon fill="white" stroke="#bfbfbf" points="360.5,-159.5 360.5,-178.5 441.5,-178.5 441.5,-159.5 360.5,-159.5"/>
<text text-anchor="middle" x="401" y="-166.5" font-family="Helvetica,sans-Serif" font-size="10.00">Dimension2D</text>
</g>
<!-- Node33&#45;&gt;Node10 -->
<g id="edge43" class="edge"><title>Node33&#45;&gt;Node10</title>
<path fill="none" stroke="#9a32cd" stroke-dasharray="5,2" d="M451.601,-174.678C486.9,-178.847 535.423,-184.835 578,-191 591.173,-192.907 605.46,-195.181 618.495,-197.335"/>
<polygon fill="#9a32cd" stroke="#9a32cd" points="451.893,-171.189 441.553,-173.499 451.076,-178.141 451.893,-171.189"/>
<text text-anchor="middle" x="538" y="-194" font-family="Helvetica,sans-Serif" font-size="10.00"> myDimensions</text>
</g>
<!-- Node34&#45;&gt;Node10 -->
<g id="edge44" class="edge"><title>Node34&#45;&gt;Node10</title>
<path fill="none" stroke="#9a32cd" stroke-dasharray="5,2" d="M1630.58,-42.973C1594.99,-26.0955 1530.5,-0 1472,-0 944,-0 944,-0 944,-0 810.262,-0 698.24,-154.858 671.212,-195.387"/>
<polygon fill="#9a32cd" stroke="#9a32cd" points="1629.3,-46.2414 1639.82,-47.4595 1632.36,-39.9441 1629.3,-46.2414"/>
<text text-anchor="middle" x="1242" y="-3" font-family="Helvetica,sans-Serif" font-size="10.00"> drawer</text>
</g>
<!-- Node35 -->
<g id="node35" class="node"><title>Node35</title>
<polygon fill="white" stroke="#bfbfbf" points="1450.5,-47.5 1450.5,-66.5 1491.5,-66.5 1491.5,-47.5 1450.5,-47.5"/>
<text text-anchor="middle" x="1471" y="-54.5" font-family="Helvetica,sans-Serif" font-size="10.00">Color</text>
</g>
<!-- Node35&#45;&gt;Node34 -->
<g id="edge46" class="edge"><title>Node35&#45;&gt;Node34</title>
<path fill="none" stroke="#9a32cd" stroke-dasharray="5,2" d="M1501.86,-57C1534.64,-57 1587.27,-57 1622.23,-57"/>
<polygon fill="#9a32cd" stroke="#9a32cd" points="1501.55,-53.5001 1491.55,-57 1501.55,-60.5001 1501.55,-53.5001"/>
<text text-anchor="middle" x="1569" y="-60" font-family="Helvetica,sans-Serif" font-size="10.00"> myColor</text>
</g>
</g>
</svg>
        <g id="navigator" transform="translate(0 0)" fill="#404254">
                <rect fill="#f2f5e9" fill-opacity="0.5" stroke="#606060" stroke-width=".5" x="0" y="0" width="60" height="60"/>
                <use id="zoomplus" xlink:href="#zoomPlus" x="17" y="9" onmousedown="handleZoom(evt,'in')"/>
                <use id="zoomminus" xlink:href="#zoomMin" x="42" y="9" onmousedown="handleZoom(evt,'out')"/>
                <use id="reset" xlink:href="#resetDef" x="30" y="36" onmousedown="handleReset()"/>
                <g id="arrowUp" xlink:href="#dirArrow" transform="translate(30 24)" onmousedown="handlePan(0,-1)">
                  <use xlink:href="#rim" fill="#404040">
                        <set attributeName="fill" to="#808080" begin="arrowUp.mouseover" end="arrowUp.mouseout"/>
                  </use>
                  <path fill="none" stroke="white" stroke-width="1.5" d="M0,-3.0v7 M-2.5,-0.5L0,-3.0L2.5,-0.5"/>
                </g>
                <g id="arrowRight" xlink:href="#dirArrow" transform="rotate(90) translate(36 -43)" onmousedown="handlePan(1,0)">
                  <use xlink:href="#rim" fill="#404040">
                        <set attributeName="fill" to="#808080" begin="arrowRight.mouseover" end="arrowRight.mouseout"/>
                  </use>
                  <path fill="none" stroke="white" stroke-width="1.5" d="M0,-3.0v7 M-2.5,-0.5L0,-3.0L2.5,-0.5"/>
                </g>
                <g id="arrowDown" xlink:href="#dirArrow" transform="rotate(180) translate(-30 -48)" onmousedown="handlePan(0,1)">
                  <use xlink:href="#rim" fill="#404040">
                        <set attributeName="fill" to="#808080" begin="arrowDown.mouseover" end="arrowDown.mouseout"/>
                  </use>
                  <path fill="none" stroke="white" stroke-width="1.5" d="M0,-3.0v7 M-2.5,-0.5L0,-3.0L2.5,-0.5"/>
                </g>
                <g id="arrowLeft" xlink:href="#dirArrow" transform="rotate(270) translate(-36 17)" onmousedown="handlePan(-1,0)">
                  <use xlink:href="#rim" fill="#404040">
                        <set attributeName="fill" to="#808080" begin="arrowLeft.mouseover" end="arrowLeft.mouseout"/>
                  </use>
                  <path fill="none" stroke="white" stroke-width="1.5" d="M0,-3.0v7 M-2.5,-0.5L0,-3.0L2.5,-0.5"/>
                </g>
        </g>
        <svg viewBox="0 0 15 15" width="100%" height="30px" preserveAspectRatio="xMaxYMin meet">
         <g id="arrow_out" transform="scale(0.3 0.3)">
          <a xlink:href="classmodel_1_1instructions_1_1_control_instruction__coll__graph_org.svg" target="_base">
           <rect id="button" ry="5" rx="5" y="6" x="6" height="38" width="38"
                fill="#f2f5e9" fill-opacity="0.5" stroke="#606060" stroke-width="1.0"/>
           <path id="arrow"
             d="M 11.500037,31.436501 C 11.940474,20.09759 22.043105,11.32322 32.158766,21.979434 L 37.068811,17.246167 C 37.068811,17.246167 37.088388,32 37.088388,32 L 22.160133,31.978069 C 22.160133,31.978069 26.997745,27.140456 26.997745,27.140456 C 18.528582,18.264221 13.291696,25.230495 11.500037,31.436501 z"
             style="fill:#404040;"/>
          </a>
         </g>
        </svg>
</svg>
