<?xml version="1.0" encoding="UTF-8" standalone="no"?>
<!DOCTYPE svg PUBLIC "-//W3C//DTD SVG 1.1//EN"
 "http://www.w3.org/Graphics/SVG/1.1/DTD/svg11.dtd">
<!-- Generated by graphviz version 2.36.0 (20140111.2315)
 -->
<!-- Title: view.Workspace Pages: 1 -->
<!--zoomable 558 -->
<svg id="main" version="1.1" xmlns="http://www.w3.org/2000/svg" xmlns:xlink="http://www.w3.org/1999/xlink" xml:space="preserve" onload="init(evt)">
<style type="text/css"><![CDATA[
.edge:hover path { stroke: red; }
.edge:hover polygon { stroke: red; fill: red; }
]]></style>
<script type="text/javascript"><![CDATA[
var edges = document.getElementsByTagName('g');
if (edges && edges.length) {
  for (var i=0;i<edges.length;i++) {
    if (edges[i].id.substr(0,4)=='edge') {
      edges[i].setAttribute('class','edge');
    }
  }
}
]]></script>
        <defs>
                <circle id="rim" cx="0" cy="0" r="7"/>
                <circle id="rim2" cx="0" cy="0" r="3.5"/>
                <g id="zoomPlus">
                        <use xlink:href="#rim" fill="#404040">
                                <set attributeName="fill" to="#808080" begin="zoomplus.mouseover" end="zoomplus.mouseout"/>
                        </use>
                        <path d="M-4,0h8M0,-4v8" fill="none" stroke="white" stroke-width="1.5" pointer-events="none"/>
                </g>
                <g id="zoomMin">
                        <use xlink:href="#rim" fill="#404040">
                                <set attributeName="fill" to="#808080" begin="zoomminus.mouseover" end="zoomminus.mouseout"/>
                        </use>
                        <path d="M-4,0h8" fill="none" stroke="white" stroke-width="1.5" pointer-events="none"/>
                </g>
                <g id="dirArrow">
                        <path fill="none" stroke="white" stroke-width="1.5" d="M0,-3.0v7 M-2.5,-0.5L0,-3.0L2.5,-0.5"/>
                </g>
               <g id="resetDef">
                       <use xlink:href="#rim2" fill="#404040">
                               <set attributeName="fill" to="#808080" begin="reset.mouseover" end="reset.mouseout"/>
                       </use>
               </g>
        </defs>

<script type="text/javascript">
var viewWidth = 1576;
var viewHeight = 558;
var sectionId = 'dynsection-1';
</script>
<script xlink:href="../../svgpan.js"/>
<svg id="graph" class="graph">
<g id="viewport">
<title>view.Workspace</title>
<polygon fill="white" stroke="none" points="-4,4 -4,-554 1572,-554 1572,4 -4,4"/>
<!-- Node1 -->
<g id="node1" class="node"><title>Node1</title>
<polygon fill="#bfbfbf" stroke="black" points="396,-426.5 396,-445.5 486,-445.5 486,-426.5 396,-426.5"/>
<text text-anchor="middle" x="441" y="-433.5" font-family="Helvetica,sans-Serif" font-size="10.00">view.Workspace</text>
</g>
<!-- Node6 -->
<g id="node6" class="node"><title>Node6</title>
<g id="a_node6"><a xlink:href="../../d1/dc7/classview_1_1_side_bar.html" target="_top" xlink:title="view.SideBar">
<polygon fill="white" stroke="black" points="666.5,-271.5 666.5,-290.5 743.5,-290.5 743.5,-271.5 666.5,-271.5"/>
<text text-anchor="middle" x="705" y="-278.5" font-family="Helvetica,sans-Serif" font-size="10.00">view.SideBar</text>
</a>
</g>
</g>
<!-- Node1&#45;&gt;Node6 -->
<g id="edge7" class="edge"><title>Node1&#45;&gt;Node6</title>
<path fill="none" stroke="#9a32cd" stroke-dasharray="5,2" d="M496.422,-429.935C553.717,-423.053 637.14,-411.43 648,-401 675.851,-374.252 646.894,-349.558 666,-316 671.769,-305.867 681.478,-297 689.638,-290.726"/>
<polygon fill="#9a32cd" stroke="#9a32cd" points="495.924,-426.469 486.406,-431.121 496.748,-433.42 495.924,-426.469"/>
<text text-anchor="middle" x="597" y="-426" font-family="Helvetica,sans-Serif" font-size="10.00"> myWorkspace</text>
</g>
<!-- Node19 -->
<g id="node19" class="node"><title>Node19</title>
<g id="a_node19"><a xlink:href="../../d6/de7/classview_1_1_s_logo_view.html" target="_top" xlink:title="view.SLogoView">
<polygon fill="white" stroke="black" points="1205.5,-313.5 1205.5,-332.5 1296.5,-332.5 1296.5,-313.5 1205.5,-313.5"/>
<text text-anchor="middle" x="1251" y="-320.5" font-family="Helvetica,sans-Serif" font-size="10.00">view.SLogoView</text>
</a>
</g>
</g>
<!-- Node1&#45;&gt;Node19 -->
<g id="edge21" class="edge"><title>Node1&#45;&gt;Node19</title>
<path fill="none" stroke="#9a32cd" stroke-dasharray="5,2" d="M496.421,-440.139C642.092,-450.355 1037.71,-472.195 1154,-418 1195.87,-398.488 1230.15,-352.749 1243.72,-332.703"/>
<polygon fill="#9a32cd" stroke="#9a32cd" points="496.595,-436.642 486.372,-439.425 496.099,-443.625 496.595,-436.642"/>
<text text-anchor="middle" x="797" y="-457" font-family="Helvetica,sans-Serif" font-size="10.00"> myWorkspace</text>
</g>
<!-- Node27 -->
<g id="node27" class="node"><title>Node27</title>
<g id="a_node27"><a xlink:href="../../de/d0a/classview_1_1_drawer.html" target="_top" xlink:title="view.Drawer">
<polygon fill="white" stroke="black" points="668.5,-485.5 668.5,-504.5 741.5,-504.5 741.5,-485.5 668.5,-485.5"/>
<text text-anchor="middle" x="705" y="-492.5" font-family="Helvetica,sans-Serif" font-size="10.00">view.Drawer</text>
</a>
</g>
</g>
<!-- Node1&#45;&gt;Node27 -->
<g id="edge34" class="edge"><title>Node1&#45;&gt;Node27</title>
<path fill="none" stroke="#9a32cd" stroke-dasharray="5,2" d="M493.166,-447.902C509.989,-451.79 528.788,-456.108 546,-460 587.927,-469.481 636.175,-480.131 668.212,-487.166"/>
<polygon fill="#9a32cd" stroke="#9a32cd" points="493.511,-444.389 482.979,-445.544 491.932,-451.209 493.511,-444.389"/>
<text text-anchor="middle" x="597" y="-486" font-family="Helvetica,sans-Serif" font-size="10.00"> myWorkspace</text>
</g>
<!-- Node2 -->
<g id="node2" class="node"><title>Node2</title>
<polygon fill="white" stroke="#bfbfbf" points="140.5,-488.5 140.5,-507.5 207.5,-507.5 207.5,-488.5 140.5,-488.5"/>
<text text-anchor="middle" x="174" y="-495.5" font-family="Helvetica,sans-Serif" font-size="10.00">StackPane</text>
</g>
<!-- Node2&#45;&gt;Node1 -->
<g id="edge1" class="edge"><title>Node2&#45;&gt;Node1</title>
<path fill="none" stroke="midnightblue" d="M217.708,-491.409C250.321,-486.046 296.265,-477.781 336,-468 362.048,-461.588 391.197,-452.444 411.993,-445.571"/>
<polygon fill="midnightblue" stroke="midnightblue" points="216.923,-487.99 207.613,-493.046 218.044,-494.9 216.923,-487.99"/>
</g>
<!-- Node3 -->
<g id="node3" class="node"><title>Node3</title>
<g id="a_node3"><a xlink:href="../../d8/df7/classview_1_1_turtle_view.html" target="_top" xlink:title="view.TurtleView">
<polygon fill="white" stroke="black" points="131,-450.5 131,-469.5 217,-469.5 217,-450.5 131,-450.5"/>
<text text-anchor="middle" x="174" y="-457.5" font-family="Helvetica,sans-Serif" font-size="10.00">view.TurtleView</text>
</a>
</g>
</g>
<!-- Node3&#45;&gt;Node1 -->
<g id="edge2" class="edge"><title>Node3&#45;&gt;Node1</title>
<path fill="none" stroke="#9a32cd" stroke-dasharray="5,2" d="M227.4,-455.254C276.569,-450.801 349.294,-444.215 395.658,-440.016"/>
<polygon fill="#9a32cd" stroke="#9a32cd" points="226.927,-451.783 217.283,-456.171 227.558,-458.754 226.927,-451.783"/>
<text text-anchor="middle" x="298" y="-456" font-family="Helvetica,sans-Serif" font-size="10.00"> myActiveTurtle</text>
</g>
<!-- Node4 -->
<g id="node4" class="node"><title>Node4</title>
<polygon fill="white" stroke="#bfbfbf" points="0,-450.5 0,-469.5 68,-469.5 68,-450.5 0,-450.5"/>
<text text-anchor="middle" x="34" y="-457.5" font-family="Helvetica,sans-Serif" font-size="10.00">ImageView</text>
</g>
<!-- Node4&#45;&gt;Node3 -->
<g id="edge3" class="edge"><title>Node4&#45;&gt;Node3</title>
<path fill="none" stroke="midnightblue" d="M78.1527,-460C94.936,-460 114.104,-460 130.796,-460"/>
<polygon fill="midnightblue" stroke="midnightblue" points="78.0545,-456.5 68.0544,-460 78.0544,-463.5 78.0545,-456.5"/>
</g>
<!-- Node5 -->
<g id="node5" class="node"><title>Node5</title>
<polygon fill="white" stroke="#bfbfbf" points="106,-401 106,-431 242,-431 242,-401 106,-401"/>
<text text-anchor="start" x="114" y="-419" font-family="Helvetica,sans-Serif" font-size="10.00">Map&lt; Integer, view.Turtle</text>
<text text-anchor="middle" x="174" y="-408" font-family="Helvetica,sans-Serif" font-size="10.00">View &gt;</text>
</g>
<!-- Node5&#45;&gt;Node1 -->
<g id="edge4" class="edge"><title>Node5&#45;&gt;Node1</title>
<path fill="none" stroke="#9a32cd" stroke-dasharray="5,2" d="M252.087,-417.36C278.705,-418.231 308.694,-419.659 336,-422 355.695,-423.689 377.377,-426.461 395.824,-429.094"/>
<polygon fill="#9a32cd" stroke="#9a32cd" points="252.165,-413.861 242.063,-417.053 251.951,-420.857 252.165,-413.861"/>
<text text-anchor="middle" x="298" y="-425" font-family="Helvetica,sans-Serif" font-size="10.00"> myTurtles</text>
</g>
<!-- Node6&#45;&gt;Node1 -->
<g id="edge5" class="edge"><title>Node6&#45;&gt;Node1</title>
<path fill="none" stroke="#9a32cd" stroke-dasharray="5,2" d="M682.541,-297.429C676.559,-302.829 670.48,-309.204 666,-316 652.769,-336.068 665.965,-351.031 648,-367 613.267,-397.874 590.125,-375.421 546,-390 515.256,-400.158 481.221,-416.179 460.729,-426.383"/>
<polygon fill="#9a32cd" stroke="#9a32cd" points="685.098,-299.85 690.477,-290.723 680.58,-294.504 685.098,-299.85"/>
<text text-anchor="middle" x="597" y="-393" font-family="Helvetica,sans-Serif" font-size="10.00"> mySidebar</text>
</g>
<!-- Node6&#45;&gt;Node19 -->
<g id="edge36" class="edge"><title>Node6&#45;&gt;Node19</title>
<path fill="none" stroke="#9a32cd" stroke-dasharray="5,2" d="M753.99,-284.56C816.253,-289.192 928.248,-297.574 1024,-305 1086.98,-309.885 1159.83,-315.72 1205.41,-319.394"/>
<polygon fill="#9a32cd" stroke="#9a32cd" points="753.929,-281.045 743.697,-283.794 753.41,-288.026 753.929,-281.045"/>
<text text-anchor="middle" x="937" y="-308" font-family="Helvetica,sans-Serif" font-size="10.00"> mySidebar</text>
</g>
<!-- Node21 -->
<g id="node21" class="node"><title>Node21</title>
<g id="a_node21"><a xlink:href="../../da/dc8/classview_1_1_editor.html" target="_top" xlink:title="view.Editor">
<polygon fill="white" stroke="black" points="903.5,-325.5 903.5,-344.5 970.5,-344.5 970.5,-325.5 903.5,-325.5"/>
<text text-anchor="middle" x="937" y="-332.5" font-family="Helvetica,sans-Serif" font-size="10.00">view.Editor</text>
</a>
</g>
</g>
<!-- Node6&#45;&gt;Node21 -->
<g id="edge29" class="edge"><title>Node6&#45;&gt;Node21</title>
<path fill="none" stroke="#9a32cd" stroke-dasharray="5,2" d="M753.509,-292.154C798.337,-302.679 864.34,-318.175 903.468,-327.362"/>
<polygon fill="#9a32cd" stroke="#9a32cd" points="754.258,-288.735 743.722,-289.857 752.658,-295.55 754.258,-288.735"/>
<text text-anchor="middle" x="797" y="-313" font-family="Helvetica,sans-Serif" font-size="10.00"> mySidebar</text>
</g>
<!-- Node7 -->
<g id="node7" class="node"><title>Node7</title>
<polygon fill="white" stroke="#bfbfbf" points="420.5,-218.5 420.5,-237.5 461.5,-237.5 461.5,-218.5 420.5,-218.5"/>
<text text-anchor="middle" x="441" y="-225.5" font-family="Helvetica,sans-Serif" font-size="10.00">VBox</text>
</g>
<!-- Node7&#45;&gt;Node6 -->
<g id="edge6" class="edge"><title>Node7&#45;&gt;Node6</title>
<path fill="none" stroke="midnightblue" d="M471.67,-229.704C512.158,-232.585 586.691,-239.875 648,-257 660.836,-260.585 674.603,-266.455 685.274,-271.492"/>
<polygon fill="midnightblue" stroke="midnightblue" points="471.877,-226.21 461.665,-229.033 471.408,-233.194 471.877,-226.21"/>
</g>
<!-- Node8 -->
<g id="node8" class="node"><title>Node8</title>
<polygon fill="white" stroke="#bfbfbf" points="354.5,-180.5 354.5,-199.5 527.5,-199.5 527.5,-180.5 354.5,-180.5"/>
<text text-anchor="middle" x="441" y="-187.5" font-family="Helvetica,sans-Serif" font-size="10.00">ObservableList&lt; view.Property &gt;</text>
</g>
<!-- Node8&#45;&gt;Node6 -->
<g id="edge8" class="edge"><title>Node8&#45;&gt;Node6</title>
<path fill="none" stroke="#9a32cd" stroke-dasharray="5,2" d="M537.623,-192.578C573.832,-196.752 614.392,-205.465 648,-223 670.089,-234.525 688.534,-258.064 697.724,-271.338"/>
<polygon fill="#9a32cd" stroke="#9a32cd" points="537.846,-189.083 527.535,-191.518 537.114,-196.044 537.846,-189.083"/>
<text text-anchor="middle" x="597" y="-226" font-family="Helvetica,sans-Serif" font-size="10.00"> variablesList</text>
</g>
<!-- Node9 -->
<g id="node9" class="node"><title>Node9</title>
<polygon fill="white" stroke="#bfbfbf" points="394.5,-134.5 394.5,-153.5 487.5,-153.5 487.5,-134.5 394.5,-134.5"/>
<text text-anchor="middle" x="441" y="-141.5" font-family="Helvetica,sans-Serif" font-size="10.00">ResourceBundle</text>
</g>
<!-- Node9&#45;&gt;Node6 -->
<g id="edge9" class="edge"><title>Node9&#45;&gt;Node6</title>
<path fill="none" stroke="#9a32cd" stroke-dasharray="5,2" d="M497.816,-148.342C550.368,-153.379 624.433,-163.219 648,-180 680.338,-203.026 696.153,-250.853 701.659,-271.342"/>
<polygon fill="#9a32cd" stroke="#9a32cd" points="497.893,-144.835 487.613,-147.398 497.248,-151.805 497.893,-144.835"/>
<text text-anchor="middle" x="597" y="-183" font-family="Helvetica,sans-Serif" font-size="10.00"> myResources</text>
</g>
<!-- Node9&#45;&gt;Node19 -->
<g id="edge23" class="edge"><title>Node9&#45;&gt;Node19</title>
<path fill="none" stroke="#9a32cd" stroke-dasharray="5,2" d="M497.912,-135.605C624.083,-119.518 936.816,-95.8836 1154,-217 1197.37,-241.185 1231.57,-292.278 1244.45,-313.474"/>
<polygon fill="#9a32cd" stroke="#9a32cd" points="497.18,-132.171 487.72,-136.941 498.09,-139.112 497.18,-132.171"/>
<text text-anchor="middle" x="797" y="-131" font-family="Helvetica,sans-Serif" font-size="10.00"> myResources</text>
</g>
<!-- Node10 -->
<g id="node10" class="node"><title>Node10</title>
<polygon fill="white" stroke="#bfbfbf" points="367,-334.5 367,-353.5 515,-353.5 515,-334.5 367,-334.5"/>
<text text-anchor="middle" x="441" y="-341.5" font-family="Helvetica,sans-Serif" font-size="10.00">TableView&lt; view.Property &gt;</text>
</g>
<!-- Node10&#45;&gt;Node6 -->
<g id="edge10" class="edge"><title>Node10&#45;&gt;Node6</title>
<path fill="none" stroke="#9a32cd" stroke-dasharray="5,2" d="M525.26,-344.235C563.695,-341.966 609.284,-335.826 648,-321 665.852,-314.164 683.264,-300.248 693.813,-290.772"/>
<polygon fill="#9a32cd" stroke="#9a32cd" points="524.945,-340.747 515.138,-344.754 525.304,-347.738 524.945,-340.747"/>
<text text-anchor="middle" x="597" y="-357" font-family="Helvetica,sans-Serif" font-size="10.00"> turtlePropertiesTable</text>
<text text-anchor="middle" x="597" y="-346" font-family="Helvetica,sans-Serif" font-size="10.00">variablesTable</text>
</g>
<!-- Node11 -->
<g id="node11" class="node"><title>Node11</title>
<g id="a_node11"><a xlink:href="../../dc/df5/classmodel_1_1_parser.html" target="_top" xlink:title="model.Parser">
<polygon fill="white" stroke="black" points="1488,-165.5 1488,-184.5 1568,-184.5 1568,-165.5 1488,-165.5"/>
<text text-anchor="middle" x="1528" y="-172.5" font-family="Helvetica,sans-Serif" font-size="10.00">model.Parser</text>
</a>
</g>
</g>
<!-- Node11&#45;&gt;Node6 -->
<g id="edge11" class="edge"><title>Node11&#45;&gt;Node6</title>
<path fill="none" stroke="#9a32cd" stroke-dasharray="5,2" d="M1477.8,-165.999C1363.4,-147.233 1072.3,-112.047 850,-193 796.592,-212.449 741.434,-252.957 717.85,-271.438"/>
<polygon fill="#9a32cd" stroke="#9a32cd" points="1477.55,-169.506 1487.99,-167.704 1478.71,-162.602 1477.55,-169.506"/>
<text text-anchor="middle" x="1098" y="-153" font-family="Helvetica,sans-Serif" font-size="10.00"> myParser</text>
</g>
<!-- Node11&#45;&gt;Node19 -->
<g id="edge31" class="edge"><title>Node11&#45;&gt;Node19</title>
<path fill="none" stroke="#9a32cd" stroke-dasharray="5,2" d="M1520.06,-194.056C1511.5,-214.873 1494.94,-247.686 1470,-266 1418.45,-303.861 1343.82,-316.611 1296.63,-320.882"/>
<polygon fill="#9a32cd" stroke="#9a32cd" points="1523.35,-195.249 1523.72,-184.66 1516.83,-192.709 1523.35,-195.249"/>
<text text-anchor="middle" x="1409" y="-316" font-family="Helvetica,sans-Serif" font-size="10.00"> myParser</text>
</g>
<!-- Node11&#45;&gt;Node21 -->
<g id="edge27" class="edge"><title>Node11&#45;&gt;Node21</title>
<path fill="none" stroke="#9a32cd" stroke-dasharray="5,2" d="M1477.76,-171.782C1367.3,-165.677 1104.54,-157.707 1042,-215 1007.09,-246.984 1057.43,-286.472 1024,-320 1010.3,-333.738 988.802,-337.488 970.727,-337.803"/>
<polygon fill="#9a32cd" stroke="#9a32cd" points="1477.77,-175.289 1487.96,-172.365 1478.17,-168.301 1477.77,-175.289"/>
<text text-anchor="middle" x="1251" y="-178" font-family="Helvetica,sans-Serif" font-size="10.00"> myParser</text>
</g>
<!-- Node12 -->
<g id="node12" class="node"><title>Node12</title>
<polygon fill="white" stroke="#bfbfbf" points="907,-530.5 907,-549.5 967,-549.5 967,-530.5 907,-530.5"/>
<text text-anchor="middle" x="937" y="-537.5" font-family="Helvetica,sans-Serif" font-size="10.00">Observer</text>
</g>
<!-- Node12&#45;&gt;Node11 -->
<g id="edge12" class="edge"><title>Node12&#45;&gt;Node11</title>
<path fill="none" stroke="midnightblue" d="M977.151,-544.4C1021.25,-547.991 1094.53,-549.809 1154,-531 1313.16,-480.661 1365.27,-457.987 1470,-328 1506.81,-282.309 1521.36,-210.474 1525.58,-184.648"/>
<polygon fill="midnightblue" stroke="midnightblue" points="977.399,-540.908 967.129,-543.512 976.781,-547.881 977.399,-540.908"/>
</g>
<!-- Node12&#45;&gt;Node19 -->
<g id="edge20" class="edge"><title>Node12&#45;&gt;Node19</title>
<path fill="none" stroke="midnightblue" d="M977.317,-537.998C1031.72,-534.536 1126.38,-525.8 1154,-506 1216.4,-461.271 1241.56,-363.445 1248.13,-332.549"/>
<polygon fill="midnightblue" stroke="midnightblue" points="976.776,-534.525 967.005,-538.622 977.198,-541.512 976.776,-534.525"/>
</g>
<!-- Node13 -->
<g id="node13" class="node"><title>Node13</title>
<polygon fill="white" stroke="#bfbfbf" points="1195,-93 1195,-123 1307,-123 1307,-93 1195,-93"/>
<text text-anchor="start" x="1203" y="-111" font-family="Helvetica,sans-Serif" font-size="10.00">List&lt; Entry&lt; String,</text>
<text text-anchor="middle" x="1251" y="-100" font-family="Helvetica,sans-Serif" font-size="10.00"> Pattern &gt; &gt;</text>
</g>
<!-- Node13&#45;&gt;Node11 -->
<g id="edge13" class="edge"><title>Node13&#45;&gt;Node11</title>
<path fill="none" stroke="#9a32cd" stroke-dasharray="5,2" d="M1317.16,-103.582C1361.81,-102.938 1421.5,-106.868 1470,-127 1490.31,-135.431 1508.78,-153.832 1518.9,-165.243"/>
<polygon fill="#9a32cd" stroke="#9a32cd" points="1316.93,-100.086 1307.02,-103.81 1317.09,-107.085 1316.93,-100.086"/>
<text text-anchor="middle" x="1409" y="-130" font-family="Helvetica,sans-Serif" font-size="10.00"> myPatterns</text>
</g>
<!-- Node14 -->
<g id="node14" class="node"><title>Node14</title>
<g id="a_node14"><a xlink:href="../../d1/dca/classmodel_1_1_execution_environment.html" target="_top" xlink:title="model.ExecutionEnvironment">
<polygon fill="white" stroke="black" points="1172.5,-54.5 1172.5,-73.5 1329.5,-73.5 1329.5,-54.5 1172.5,-54.5"/>
<text text-anchor="middle" x="1251" y="-61.5" font-family="Helvetica,sans-Serif" font-size="10.00">model.ExecutionEnvironment</text>
</a>
</g>
</g>
<!-- Node14&#45;&gt;Node11 -->
<g id="edge14" class="edge"><title>Node14&#45;&gt;Node11</title>
<path fill="none" stroke="#9a32cd" stroke-dasharray="5,2" d="M1339.82,-57.474C1381.96,-58.3057 1431.52,-65.4147 1470,-89 1499.48,-107.065 1516.9,-146.771 1523.7,-165.221"/>
<polygon fill="#9a32cd" stroke="#9a32cd" points="1339.59,-53.9721 1329.56,-57.3906 1339.53,-60.9719 1339.59,-53.9721"/>
<text text-anchor="middle" x="1409" y="-92" font-family="Helvetica,sans-Serif" font-size="10.00"> myExecutionParameters</text>
</g>
<!-- Node15 -->
<g id="node15" class="node"><title>Node15</title>
<polygon fill="white" stroke="#bfbfbf" points="901.5,-88.5 901.5,-107.5 972.5,-107.5 972.5,-88.5 901.5,-88.5"/>
<text text-anchor="middle" x="937" y="-95.5" font-family="Helvetica,sans-Serif" font-size="10.00">Observable</text>
</g>
<!-- Node15&#45;&gt;Node14 -->
<g id="edge15" class="edge"><title>Node15&#45;&gt;Node14</title>
<path fill="none" stroke="midnightblue" d="M982.838,-93.7345C1026.55,-89.5053 1094.88,-82.7048 1154,-76 1160.93,-75.2145 1168.13,-74.3683 1175.34,-73.5018"/>
<polygon fill="midnightblue" stroke="midnightblue" points="982.436,-90.257 972.818,-94.7007 983.108,-97.2247 982.436,-90.257"/>
</g>
<!-- Node16 -->
<g id="node16" class="node"><title>Node16</title>
<polygon fill="white" stroke="#bfbfbf" points="850,-39 850,-69 1024,-69 1024,-39 850,-39"/>
<text text-anchor="start" x="858" y="-57" font-family="Helvetica,sans-Serif" font-size="10.00">Map&lt; String, model.instructions.</text>
<text text-anchor="middle" x="937" y="-46" font-family="Helvetica,sans-Serif" font-size="10.00">Instruction &gt;</text>
</g>
<!-- Node16&#45;&gt;Node14 -->
<g id="edge16" class="edge"><title>Node16&#45;&gt;Node14</title>
<path fill="none" stroke="#9a32cd" stroke-dasharray="5,2" d="M1034.31,-57.0867C1078.68,-58.5091 1130.65,-60.1748 1172.46,-61.5148"/>
<polygon fill="#9a32cd" stroke="#9a32cd" points="1034.19,-53.5813 1024.08,-56.759 1033.96,-60.5777 1034.19,-53.5813"/>
<text text-anchor="middle" x="1098" y="-64" font-family="Helvetica,sans-Serif" font-size="10.00"> myUserInstructionMap</text>
</g>
<!-- Node17 -->
<g id="node17" class="node"><title>Node17</title>
<polygon fill="white" stroke="#bfbfbf" points="873,-0.5 873,-19.5 1001,-19.5 1001,-0.5 873,-0.5"/>
<text text-anchor="middle" x="937" y="-7.5" font-family="Helvetica,sans-Serif" font-size="10.00">Map&lt; String, Double &gt;</text>
</g>
<!-- Node17&#45;&gt;Node14 -->
<g id="edge17" class="edge"><title>Node17&#45;&gt;Node14</title>
<path fill="none" stroke="#9a32cd" stroke-dasharray="5,2" d="M1011.16,-19.9936C1053.08,-26.0161 1106.62,-34.208 1154,-43 1172.12,-46.3618 1192.03,-50.6247 1209.01,-54.4299"/>
<polygon fill="#9a32cd" stroke="#9a32cd" points="1011.43,-16.4968 1001.03,-18.5489 1010.44,-23.4266 1011.43,-16.4968"/>
<text text-anchor="middle" x="1098" y="-46" font-family="Helvetica,sans-Serif" font-size="10.00"> myVariableMap</text>
</g>
<!-- Node18 -->
<g id="node18" class="node"><title>Node18</title>
<polygon fill="white" stroke="#bfbfbf" points="1190,-16.5 1190,-35.5 1312,-35.5 1312,-16.5 1190,-16.5"/>
<text text-anchor="middle" x="1251" y="-23.5" font-family="Helvetica,sans-Serif" font-size="10.00">Map&lt; String, String &gt;</text>
</g>
<!-- Node18&#45;&gt;Node11 -->
<g id="edge18" class="edge"><title>Node18&#45;&gt;Node11</title>
<path fill="none" stroke="#9a32cd" stroke-dasharray="5,2" d="M1310.24,-15.1973C1357.63,-9.74831 1423.96,-10.098 1470,-43 1511.84,-72.8985 1523.25,-140.152 1526.11,-165.282"/>
<polygon fill="#9a32cd" stroke="#9a32cd" points="1309.61,-11.7491 1300.13,-16.4799 1310.49,-18.6934 1309.61,-11.7491"/>
<text text-anchor="middle" x="1409" y="-46" font-family="Helvetica,sans-Serif" font-size="10.00"> myCommandMap</text>
</g>
<!-- Node19&#45;&gt;Node11 -->
<g id="edge19" class="edge"><title>Node19&#45;&gt;Node11</title>
<path fill="none" stroke="#9a32cd" stroke-dasharray="5,2" d="M1271.2,-306.958C1289.88,-291.964 1319.53,-269.735 1348,-255 1399.06,-228.575 1418.42,-237.385 1470,-212 1485.88,-204.186 1502.72,-192.826 1513.94,-184.758"/>
<polygon fill="#9a32cd" stroke="#9a32cd" points="1268.98,-304.256 1263.44,-313.286 1273.4,-309.683 1268.98,-304.256"/>
<text text-anchor="middle" x="1409" y="-258" font-family="Helvetica,sans-Serif" font-size="10.00"> mySLogoView</text>
</g>
<!-- Node20 -->
<g id="node20" class="node"><title>Node20</title>
<polygon fill="white" stroke="#bfbfbf" points="914.5,-363.5 914.5,-382.5 959.5,-382.5 959.5,-363.5 914.5,-363.5"/>
<text text-anchor="middle" x="937" y="-370.5" font-family="Helvetica,sans-Serif" font-size="10.00">Stage</text>
</g>
<!-- Node20&#45;&gt;Node19 -->
<g id="edge22" class="edge"><title>Node20&#45;&gt;Node19</title>
<path fill="none" stroke="#9a32cd" stroke-dasharray="5,2" d="M969.802,-370.138C1012.08,-366.079 1089.01,-357.81 1154,-346 1174.07,-342.354 1196.22,-337.128 1214.19,-332.578"/>
<polygon fill="#9a32cd" stroke="#9a32cd" points="969.208,-366.678 959.581,-371.101 969.865,-373.647 969.208,-366.678"/>
<text text-anchor="middle" x="1098" y="-366" font-family="Helvetica,sans-Serif" font-size="10.00"> myStage</text>
</g>
<!-- Node21&#45;&gt;Node19 -->
<g id="edge24" class="edge"><title>Node21&#45;&gt;Node19</title>
<path fill="none" stroke="#9a32cd" stroke-dasharray="5,2" d="M980.588,-333.362C1039.49,-331.097 1145.33,-327.026 1205.32,-324.719"/>
<polygon fill="#9a32cd" stroke="#9a32cd" points="980.365,-329.868 970.507,-333.75 980.634,-336.863 980.365,-329.868"/>
<text text-anchor="middle" x="1098" y="-334" font-family="Helvetica,sans-Serif" font-size="10.00"> myEditor</text>
</g>
<!-- Node22 -->
<g id="node22" class="node"><title>Node22</title>
<polygon fill="white" stroke="#bfbfbf" points="684,-325.5 684,-344.5 726,-344.5 726,-325.5 684,-325.5"/>
<text text-anchor="middle" x="705" y="-332.5" font-family="Helvetica,sans-Serif" font-size="10.00">HBox</text>
</g>
<!-- Node22&#45;&gt;Node21 -->
<g id="edge25" class="edge"><title>Node22&#45;&gt;Node21</title>
<path fill="none" stroke="midnightblue" d="M736.197,-335C779.502,-335 858.92,-335 903.477,-335"/>
<polygon fill="midnightblue" stroke="midnightblue" points="736.009,-331.5 726.009,-335 736.009,-338.5 736.009,-331.5"/>
</g>
<!-- Node23 -->
<g id="node23" class="node"><title>Node23</title>
<polygon fill="white" stroke="#bfbfbf" points="680.5,-401.5 680.5,-420.5 729.5,-420.5 729.5,-401.5 680.5,-401.5"/>
<text text-anchor="middle" x="705" y="-408.5" font-family="Helvetica,sans-Serif" font-size="10.00">Button</text>
</g>
<!-- Node23&#45;&gt;Node21 -->
<g id="edge26" class="edge"><title>Node23&#45;&gt;Node21</title>
<path fill="none" stroke="#9a32cd" stroke-dasharray="5,2" d="M739.835,-408.262C766.741,-404.718 804.33,-396.596 832,-378 843.066,-370.563 838.792,-361.222 850,-354 865.81,-343.813 886.281,-339.029 903.284,-336.808"/>
<polygon fill="#9a32cd" stroke="#9a32cd" points="739.258,-404.806 729.733,-409.445 740.073,-411.758 739.258,-404.806"/>
<text text-anchor="middle" x="797" y="-408" font-family="Helvetica,sans-Serif" font-size="10.00"> runButton</text>
</g>
<!-- Node24 -->
<g id="node24" class="node"><title>Node24</title>
<polygon fill="white" stroke="#bfbfbf" points="676,-363.5 676,-382.5 734,-382.5 734,-363.5 676,-363.5"/>
<text text-anchor="middle" x="705" y="-370.5" font-family="Helvetica,sans-Serif" font-size="10.00">TextArea</text>
</g>
<!-- Node24&#45;&gt;Node21 -->
<g id="edge28" class="edge"><title>Node24&#45;&gt;Node21</title>
<path fill="none" stroke="#9a32cd" stroke-dasharray="5,2" d="M744.341,-366.665C788.883,-359.306 861.599,-347.292 903.489,-340.371"/>
<polygon fill="#9a32cd" stroke="#9a32cd" points="743.498,-363.257 734.203,-368.34 744.639,-370.163 743.498,-363.257"/>
<text text-anchor="middle" x="797" y="-366" font-family="Helvetica,sans-Serif" font-size="10.00"> textEditor</text>
</g>
<!-- Node25 -->
<g id="node25" class="node"><title>Node25</title>
<polygon fill="white" stroke="#bfbfbf" points="877.5,-240.5 877.5,-259.5 996.5,-259.5 996.5,-240.5 877.5,-240.5"/>
<text text-anchor="middle" x="937" y="-247.5" font-family="Helvetica,sans-Serif" font-size="10.00">Map&lt; String, Node &gt;</text>
</g>
<!-- Node25&#45;&gt;Node19 -->
<g id="edge30" class="edge"><title>Node25&#45;&gt;Node19</title>
<path fill="none" stroke="#9a32cd" stroke-dasharray="5,2" d="M1006.63,-249.745C1049.78,-251.267 1106.13,-256.367 1154,-271 1185.54,-280.642 1218.56,-301.199 1236.47,-313.38"/>
<polygon fill="#9a32cd" stroke="#9a32cd" points="1006.62,-246.243 996.523,-249.445 1006.42,-253.24 1006.62,-246.243"/>
<text text-anchor="middle" x="1098" y="-274" font-family="Helvetica,sans-Serif" font-size="10.00"> variables</text>
</g>
<!-- Node26 -->
<g id="node26" class="node"><title>Node26</title>
<polygon fill="white" stroke="#bfbfbf" points="896.5,-202.5 896.5,-221.5 977.5,-221.5 977.5,-202.5 896.5,-202.5"/>
<text text-anchor="middle" x="937" y="-209.5" font-family="Helvetica,sans-Serif" font-size="10.00">Dimension2D</text>
</g>
<!-- Node26&#45;&gt;Node19 -->
<g id="edge32" class="edge"><title>Node26&#45;&gt;Node19</title>
<path fill="none" stroke="#9a32cd" stroke-dasharray="5,2" d="M987.987,-214.287C1042.34,-217.387 1125.3,-224.083 1154,-237 1193.59,-254.815 1228.31,-295.017 1242.8,-313.445"/>
<polygon fill="#9a32cd" stroke="#9a32cd" points="988.033,-210.785 977.856,-213.732 987.65,-217.774 988.033,-210.785"/>
<text text-anchor="middle" x="1098" y="-240" font-family="Helvetica,sans-Serif" font-size="10.00"> myDimensions</text>
</g>
<!-- Node27&#45;&gt;Node19 -->
<g id="edge33" class="edge"><title>Node27&#45;&gt;Node19</title>
<path fill="none" stroke="#9a32cd" stroke-dasharray="5,2" d="M751.697,-496.657C851.711,-499.504 1086.46,-501.718 1154,-463 1207.18,-432.514 1237.32,-359.146 1246.75,-332.705"/>
<polygon fill="#9a32cd" stroke="#9a32cd" points="751.699,-493.155 741.598,-496.354 751.489,-500.152 751.699,-493.155"/>
<text text-anchor="middle" x="937" y="-502" font-family="Helvetica,sans-Serif" font-size="10.00"> drawer</text>
</g>
<!-- Node28 -->
<g id="node28" class="node"><title>Node28</title>
<polygon fill="white" stroke="#bfbfbf" points="420.5,-506.5 420.5,-525.5 461.5,-525.5 461.5,-506.5 420.5,-506.5"/>
<text text-anchor="middle" x="441" y="-513.5" font-family="Helvetica,sans-Serif" font-size="10.00">Color</text>
</g>
<!-- Node28&#45;&gt;Node27 -->
<g id="edge35" class="edge"><title>Node28&#45;&gt;Node27</title>
<path fill="none" stroke="#9a32cd" stroke-dasharray="5,2" d="M471.844,-513.608C520.329,-509.722 616.021,-502.052 668.13,-497.875"/>
<polygon fill="#9a32cd" stroke="#9a32cd" points="471.381,-510.134 461.693,-514.422 471.94,-517.111 471.381,-510.134"/>
<text text-anchor="middle" x="597" y="-511" font-family="Helvetica,sans-Serif" font-size="10.00"> myColor</text>
</g>
<!-- Node29 -->
<g id="node29" class="node"><title>Node29</title>
<polygon fill="white" stroke="#bfbfbf" points="914,-401.5 914,-420.5 960,-420.5 960,-401.5 914,-401.5"/>
<text text-anchor="middle" x="937" y="-408.5" font-family="Helvetica,sans-Serif" font-size="10.00">Group</text>
</g>
<!-- Node29&#45;&gt;Node19 -->
<g id="edge37" class="edge"><title>Node29&#45;&gt;Node19</title>
<path fill="none" stroke="#9a32cd" stroke-dasharray="5,2" d="M970.25,-409.759C1013.26,-407.283 1091.27,-399.904 1154,-378 1185.74,-366.919 1218.94,-345.286 1236.78,-332.706"/>
<polygon fill="#9a32cd" stroke="#9a32cd" points="969.903,-406.272 960.099,-410.289 970.268,-413.263 969.903,-406.272"/>
<text text-anchor="middle" x="1098" y="-406" font-family="Helvetica,sans-Serif" font-size="10.00"> lines</text>
</g>
<!-- Node30 -->
<g id="node30" class="node"><title>Node30</title>
<polygon fill="white" stroke="#bfbfbf" points="372,-294.5 372,-313.5 510,-313.5 510,-294.5 372,-294.5"/>
<text text-anchor="middle" x="441" y="-301.5" font-family="Helvetica,sans-Serif" font-size="10.00">ObservableList&lt; String &gt;</text>
</g>
<!-- Node30&#45;&gt;Node6 -->
<g id="edge38" class="edge"><title>Node30&#45;&gt;Node6</title>
<path fill="none" stroke="#9a32cd" stroke-dasharray="5,2" d="M520.258,-297.13C568.483,-292.896 628.156,-287.658 666.157,-284.322"/>
<polygon fill="#9a32cd" stroke="#9a32cd" points="519.809,-293.656 510.153,-298.017 520.421,-300.629 519.809,-293.656"/>
<text text-anchor="middle" x="597" y="-309" font-family="Helvetica,sans-Serif" font-size="10.00"> commandItems</text>
<text text-anchor="middle" x="597" y="-298" font-family="Helvetica,sans-Serif" font-size="10.00">historyItems</text>
</g>
<!-- Node31 -->
<g id="node31" class="node"><title>Node31</title>
<polygon fill="white" stroke="#bfbfbf" points="388,-256.5 388,-275.5 494,-275.5 494,-256.5 388,-256.5"/>
<text text-anchor="middle" x="441" y="-263.5" font-family="Helvetica,sans-Serif" font-size="10.00">ListView&lt; String &gt;</text>
</g>
<!-- Node31&#45;&gt;Node6 -->
<g id="edge39" class="edge"><title>Node31&#45;&gt;Node6</title>
<path fill="none" stroke="#9a32cd" stroke-dasharray="5,2" d="M504.427,-261.78C545.418,-260.045 600.112,-259.698 648,-266 656.582,-267.129 665.718,-269.193 674.067,-271.435"/>
<polygon fill="#9a32cd" stroke="#9a32cd" points="504.141,-258.289 494.314,-262.248 504.465,-265.282 504.141,-258.289"/>
<text text-anchor="middle" x="597" y="-269" font-family="Helvetica,sans-Serif" font-size="10.00"> historyList</text>
</g>
<!-- Node32 -->
<g id="node32" class="node"><title>Node32</title>
<polygon fill="white" stroke="#bfbfbf" points="142.5,-362.5 142.5,-381.5 205.5,-381.5 205.5,-362.5 142.5,-362.5"/>
<text text-anchor="middle" x="174" y="-369.5" font-family="Helvetica,sans-Serif" font-size="10.00">Rectangle</text>
</g>
<!-- Node32&#45;&gt;Node1 -->
<g id="edge40" class="edge"><title>Node32&#45;&gt;Node1</title>
<path fill="none" stroke="#9a32cd" stroke-dasharray="5,2" d="M215.596,-378.462C248.326,-383.997 295.422,-392.693 336,-403 362.438,-409.715 392.04,-419.317 412.88,-426.434"/>
<polygon fill="#9a32cd" stroke="#9a32cd" points="215.94,-374.972 205.501,-376.779 214.789,-381.876 215.94,-374.972"/>
<text text-anchor="middle" x="298" y="-406" font-family="Helvetica,sans-Serif" font-size="10.00"> myBackground</text>
</g>
</g>
</svg>
        <g id="navigator" transform="translate(0 0)" fill="#404254">
                <rect fill="#f2f5e9" fill-opacity="0.5" stroke="#606060" stroke-width=".5" x="0" y="0" width="60" height="60"/>
                <use id="zoomplus" xlink:href="#zoomPlus" x="17" y="9" onmousedown="handleZoom(evt,'in')"/>
                <use id="zoomminus" xlink:href="#zoomMin" x="42" y="9" onmousedown="handleZoom(evt,'out')"/>
                <use id="reset" xlink:href="#resetDef" x="30" y="36" onmousedown="handleReset()"/>
                <g id="arrowUp" xlink:href="#dirArrow" transform="translate(30 24)" onmousedown="handlePan(0,-1)">
                  <use xlink:href="#rim" fill="#404040">
                        <set attributeName="fill" to="#808080" begin="arrowUp.mouseover" end="arrowUp.mouseout"/>
                  </use>
                  <path fill="none" stroke="white" stroke-width="1.5" d="M0,-3.0v7 M-2.5,-0.5L0,-3.0L2.5,-0.5"/>
                </g>
                <g id="arrowRight" xlink:href="#dirArrow" transform="rotate(90) translate(36 -43)" onmousedown="handlePan(1,0)">
                  <use xlink:href="#rim" fill="#404040">
                        <set attributeName="fill" to="#808080" begin="arrowRight.mouseover" end="arrowRight.mouseout"/>
                  </use>
                  <path fill="none" stroke="white" stroke-width="1.5" d="M0,-3.0v7 M-2.5,-0.5L0,-3.0L2.5,-0.5"/>
                </g>
                <g id="arrowDown" xlink:href="#dirArrow" transform="rotate(180) translate(-30 -48)" onmousedown="handlePan(0,1)">
                  <use xlink:href="#rim" fill="#404040">
                        <set attributeName="fill" to="#808080" begin="arrowDown.mouseover" end="arrowDown.mouseout"/>
                  </use>
                  <path fill="none" stroke="white" stroke-width="1.5" d="M0,-3.0v7 M-2.5,-0.5L0,-3.0L2.5,-0.5"/>
                </g>
                <g id="arrowLeft" xlink:href="#dirArrow" transform="rotate(270) translate(-36 17)" onmousedown="handlePan(-1,0)">
                  <use xlink:href="#rim" fill="#404040">
                        <set attributeName="fill" to="#808080" begin="arrowLeft.mouseover" end="arrowLeft.mouseout"/>
                  </use>
                  <path fill="none" stroke="white" stroke-width="1.5" d="M0,-3.0v7 M-2.5,-0.5L0,-3.0L2.5,-0.5"/>
                </g>
        </g>
        <svg viewBox="0 0 15 15" width="100%" height="30px" preserveAspectRatio="xMaxYMin meet">
         <g id="arrow_out" transform="scale(0.3 0.3)">
          <a xlink:href="classview_1_1_workspace__coll__graph_org.svg" target="_base">
           <rect id="button" ry="5" rx="5" y="6" x="6" height="38" width="38"
                fill="#f2f5e9" fill-opacity="0.5" stroke="#606060" stroke-width="1.0"/>
           <path id="arrow"
             d="M 11.500037,31.436501 C 11.940474,20.09759 22.043105,11.32322 32.158766,21.979434 L 37.068811,17.246167 C 37.068811,17.246167 37.088388,32 37.088388,32 L 22.160133,31.978069 C 22.160133,31.978069 26.997745,27.140456 26.997745,27.140456 C 18.528582,18.264221 13.291696,25.230495 11.500037,31.436501 z"
             style="fill:#404040;"/>
          </a>
         </g>
        </svg>
</svg>
