<?xml version="1.0" encoding="UTF-8" standalone="no"?>
<!DOCTYPE svg PUBLIC "-//W3C//DTD SVG 1.1//EN"
 "http://www.w3.org/Graphics/SVG/1.1/DTD/svg11.dtd">
<!-- Generated by graphviz version 2.36.0 (20140111.2315)
 -->
<!-- Title: view.Workspace Pages: 1 -->
<svg width="1708pt" height="571pt"
 viewBox="0.00 0.00 1708.00 571.00" xmlns="http://www.w3.org/2000/svg" xmlns:xlink="http://www.w3.org/1999/xlink">
<g id="graph0" class="graph" transform="scale(1 1) rotate(0) translate(4 567)">
<title>view.Workspace</title>
<polygon fill="white" stroke="none" points="-4,4 -4,-567 1704,-567 1704,4 -4,4"/>
<!-- Node1 -->
<g id="node1" class="node"><title>Node1</title>
<polygon fill="#bfbfbf" stroke="black" points="396,-259.5 396,-278.5 486,-278.5 486,-259.5 396,-259.5"/>
<text text-anchor="middle" x="441" y="-266.5" font-family="Helvetica,sans-Serif" font-size="10.00">view.Workspace</text>
</g>
<!-- Node17 -->
<g id="node17" class="node"><title>Node17</title>
<g id="a_node17"><a xlink:href="../../d6/de7/classview_1_1_s_logo_view.html" target="_top" xlink:title="view.SLogoView">
<polygon fill="white" stroke="black" points="709.5,-317.5 709.5,-336.5 800.5,-336.5 800.5,-317.5 709.5,-317.5"/>
<text text-anchor="middle" x="755" y="-324.5" font-family="Helvetica,sans-Serif" font-size="10.00">view.SLogoView</text>
</a>
</g>
</g>
<!-- Node1&#45;&gt;Node17 -->
<g id="edge18" class="edge"><title>Node1&#45;&gt;Node17</title>
<path fill="none" stroke="#9a32cd" stroke-dasharray="5,2" d="M496.319,-274.788C540.21,-279.946 603.441,-288.465 658,-300 680.359,-304.727 705.184,-311.758 723.987,-317.46"/>
<polygon fill="#9a32cd" stroke="#9a32cd" points="496.485,-271.284 486.15,-273.613 495.682,-278.238 496.485,-271.284"/>
<text text-anchor="middle" x="602" y="-303" font-family="Helvetica,sans-Serif" font-size="10.00"> myWorkspace</text>
</g>
<!-- Node2 -->
<g id="node2" class="node"><title>Node2</title>
<polygon fill="white" stroke="#bfbfbf" points="140.5,-250.5 140.5,-269.5 207.5,-269.5 207.5,-250.5 140.5,-250.5"/>
<text text-anchor="middle" x="174" y="-257.5" font-family="Helvetica,sans-Serif" font-size="10.00">StackPane</text>
</g>
<!-- Node2&#45;&gt;Node1 -->
<g id="edge1" class="edge"><title>Node2&#45;&gt;Node1</title>
<path fill="none" stroke="midnightblue" d="M218.014,-261.461C266.949,-263.123 346.456,-265.823 395.856,-267.501"/>
<polygon fill="midnightblue" stroke="midnightblue" points="217.873,-257.954 207.76,-261.113 217.635,-264.95 217.873,-257.954"/>
</g>
<!-- Node3 -->
<g id="node3" class="node"><title>Node3</title>
<g id="a_node3"><a xlink:href="../../d8/df7/classview_1_1_turtle_view.html" target="_top" xlink:title="view.TurtleView">
<polygon fill="white" stroke="black" points="131,-288.5 131,-307.5 217,-307.5 217,-288.5 131,-288.5"/>
<text text-anchor="middle" x="174" y="-295.5" font-family="Helvetica,sans-Serif" font-size="10.00">view.TurtleView</text>
</a>
</g>
</g>
<!-- Node3&#45;&gt;Node1 -->
<g id="edge2" class="edge"><title>Node3&#45;&gt;Node1</title>
<path fill="none" stroke="#9a32cd" stroke-dasharray="5,2" d="M227.4,-292.266C276.569,-286.885 349.294,-278.926 395.658,-273.853"/>
<polygon fill="#9a32cd" stroke="#9a32cd" points="226.843,-288.806 217.283,-293.373 227.604,-295.764 226.843,-288.806"/>
<text text-anchor="middle" x="298" y="-292" font-family="Helvetica,sans-Serif" font-size="10.00"> myActiveTurtle</text>
</g>
<!-- Node4 -->
<g id="node4" class="node"><title>Node4</title>
<polygon fill="white" stroke="#bfbfbf" points="0,-288.5 0,-307.5 68,-307.5 68,-288.5 0,-288.5"/>
<text text-anchor="middle" x="34" y="-295.5" font-family="Helvetica,sans-Serif" font-size="10.00">ImageView</text>
</g>
<!-- Node4&#45;&gt;Node3 -->
<g id="edge3" class="edge"><title>Node4&#45;&gt;Node3</title>
<path fill="none" stroke="midnightblue" d="M78.1527,-298C94.936,-298 114.104,-298 130.796,-298"/>
<polygon fill="midnightblue" stroke="midnightblue" points="78.0545,-294.5 68.0544,-298 78.0544,-301.5 78.0545,-294.5"/>
</g>
<!-- Node5 -->
<g id="node5" class="node"><title>Node5</title>
<polygon fill="white" stroke="#bfbfbf" points="106,-338 106,-368 242,-368 242,-338 106,-338"/>
<text text-anchor="start" x="114" y="-356" font-family="Helvetica,sans-Serif" font-size="10.00">Map&lt; Integer, view.Turtle</text>
<text text-anchor="middle" x="174" y="-345" font-family="Helvetica,sans-Serif" font-size="10.00">View &gt;</text>
</g>
<!-- Node5&#45;&gt;Node1 -->
<g id="edge4" class="edge"><title>Node5&#45;&gt;Node1</title>
<path fill="none" stroke="#9a32cd" stroke-dasharray="5,2" d="M236.09,-335.068C279.665,-322.17 331.35,-306.607 336,-304 345.336,-298.765 344.467,-292.867 354,-288 366.801,-281.464 381.797,-277.167 395.649,-274.345"/>
<polygon fill="#9a32cd" stroke="#9a32cd" points="234.965,-331.751 226.367,-337.942 236.949,-338.464 234.965,-331.751"/>
<text text-anchor="middle" x="298" y="-331" font-family="Helvetica,sans-Serif" font-size="10.00"> myTurtles</text>
</g>
<!-- Node6 -->
<g id="node6" class="node"><title>Node6</title>
<g id="a_node6"><a xlink:href="../../d1/dc7/classview_1_1_side_bar.html" target="_top" xlink:title="view.SideBar">
<polygon fill="white" stroke="black" points="1462.5,-300.5 1462.5,-319.5 1539.5,-319.5 1539.5,-300.5 1462.5,-300.5"/>
<text text-anchor="middle" x="1501" y="-307.5" font-family="Helvetica,sans-Serif" font-size="10.00">view.SideBar</text>
</a>
</g>
</g>
<!-- Node5&#45;&gt;Node6 -->
<g id="edge36" class="edge"><title>Node5&#45;&gt;Node6</title>
<path fill="none" stroke="#9a32cd" stroke-dasharray="5,2" d="M196.012,-375.622C237.967,-418.199 336.976,-506 440,-506 440,-506 440,-506 1245,-506 1335.3,-506 1375.73,-524.111 1444,-465 1489.21,-425.856 1497.92,-347.316 1499.6,-319.797"/>
<polygon fill="#9a32cd" stroke="#9a32cd" points="198.325,-372.979 188.854,-368.23 193.296,-377.848 198.325,-372.979"/>
<text text-anchor="middle" x="913" y="-509" font-family="Helvetica,sans-Serif" font-size="10.00"> myTurtles</text>
</g>
<!-- Node5&#45;&gt;Node17 -->
<g id="edge30" class="edge"><title>Node5&#45;&gt;Node17</title>
<path fill="none" stroke="#9a32cd" stroke-dasharray="5,2" d="M252.402,-351.665C347.848,-349.698 515.004,-345.212 658,-336 674.705,-334.924 693.008,-333.315 709.111,-331.754"/>
<polygon fill="#9a32cd" stroke="#9a32cd" points="252.186,-348.169 242.259,-351.87 252.328,-355.167 252.186,-348.169"/>
<text text-anchor="middle" x="441" y="-352" font-family="Helvetica,sans-Serif" font-size="10.00"> myTurtles</text>
</g>
<!-- Node6&#45;&gt;Node1 -->
<g id="edge5" class="edge"><title>Node6&#45;&gt;Node1</title>
<path fill="none" stroke="#9a32cd" stroke-dasharray="5,2" d="M1452.26,-315.461C1449.47,-315.673 1446.7,-315.856 1444,-316 1398.73,-318.418 1387.33,-316.764 1342,-316 1262.86,-314.666 1240.89,-328.808 1164,-310 1119.97,-299.231 1116.2,-276.026 1072,-266 960.4,-240.686 610.328,-258.759 486.191,-266.204"/>
<polygon fill="#9a32cd" stroke="#9a32cd" points="1452.73,-318.934 1462.39,-314.587 1452.13,-311.96 1452.73,-318.934"/>
<text text-anchor="middle" x="1032" y="-269" font-family="Helvetica,sans-Serif" font-size="10.00"> mySidebar</text>
</g>
<!-- Node6&#45;&gt;Node17 -->
<g id="edge33" class="edge"><title>Node6&#45;&gt;Node17</title>
<path fill="none" stroke="#9a32cd" stroke-dasharray="5,2" d="M1487.62,-328.074C1477.5,-341.355 1461.96,-358.652 1444,-368 1396.1,-392.934 1377.83,-382.765 1324,-387 1126.04,-402.574 890.234,-357.071 796.916,-336.513"/>
<polygon fill="#9a32cd" stroke="#9a32cd" points="1490.68,-329.816 1493.73,-319.668 1485.02,-325.702 1490.68,-329.816"/>
<text text-anchor="middle" x="1118" y="-390" font-family="Helvetica,sans-Serif" font-size="10.00"> mySidebar</text>
</g>
<!-- Node20 -->
<g id="node20" class="node"><title>Node20</title>
<g id="a_node20"><a xlink:href="../../da/dc8/classview_1_1_editor.html" target="_top" xlink:title="view.Editor">
<polygon fill="white" stroke="black" points="1632.5,-111.5 1632.5,-130.5 1699.5,-130.5 1699.5,-111.5 1632.5,-111.5"/>
<text text-anchor="middle" x="1666" y="-118.5" font-family="Helvetica,sans-Serif" font-size="10.00">view.Editor</text>
</a>
</g>
</g>
<!-- Node6&#45;&gt;Node20 -->
<g id="edge26" class="edge"><title>Node6&#45;&gt;Node20</title>
<path fill="none" stroke="#9a32cd" stroke-dasharray="5,2" d="M1517.07,-292.524C1550.57,-253.677 1630.33,-161.196 1656.51,-130.84"/>
<polygon fill="#9a32cd" stroke="#9a32cd" points="1514.19,-290.509 1510.31,-300.368 1519.49,-295.081 1514.19,-290.509"/>
<text text-anchor="middle" x="1586" y="-247" font-family="Helvetica,sans-Serif" font-size="10.00"> mySidebar</text>
</g>
<!-- Node7 -->
<g id="node7" class="node"><title>Node7</title>
<polygon fill="white" stroke="#bfbfbf" points="1223.5,-358.5 1223.5,-377.5 1264.5,-377.5 1264.5,-358.5 1223.5,-358.5"/>
<text text-anchor="middle" x="1244" y="-365.5" font-family="Helvetica,sans-Serif" font-size="10.00">VBox</text>
</g>
<!-- Node7&#45;&gt;Node6 -->
<g id="edge6" class="edge"><title>Node7&#45;&gt;Node6</title>
<path fill="none" stroke="midnightblue" d="M1274.59,-368.292C1314.24,-367.825 1386.31,-363.945 1444,-344 1460.12,-338.426 1476.58,-327.711 1487.44,-319.793"/>
<polygon fill="midnightblue" stroke="midnightblue" points="1274.52,-364.792 1264.54,-368.344 1274.56,-371.792 1274.52,-364.792"/>
</g>
<!-- Node8 -->
<g id="node8" class="node"><title>Node8</title>
<g id="a_node8"><a xlink:href="../../d4/dd9/classcontroller_1_1_s_logo_controller.html" target="_top" xlink:title="controller.SLogoController">
<polygon fill="white" stroke="black" points="1174,-142.5 1174,-161.5 1314,-161.5 1314,-142.5 1174,-142.5"/>
<text text-anchor="middle" x="1244" y="-149.5" font-family="Helvetica,sans-Serif" font-size="10.00">controller.SLogoController</text>
</a>
</g>
</g>
<!-- Node8&#45;&gt;Node6 -->
<g id="edge7" class="edge"><title>Node8&#45;&gt;Node6</title>
<path fill="none" stroke="#9a32cd" stroke-dasharray="5,2" d="M1324.14,-157.756C1375.35,-162.128 1434.26,-168.633 1444,-176 1485.43,-207.329 1496.44,-275.006 1499.17,-300.247"/>
<polygon fill="#9a32cd" stroke="#9a32cd" points="1324.27,-154.255 1314.01,-156.91 1323.69,-161.23 1324.27,-154.255"/>
<text text-anchor="middle" x="1393" y="-179" font-family="Helvetica,sans-Serif" font-size="10.00"> myController</text>
</g>
<!-- Node8&#45;&gt;Node17 -->
<g id="edge28" class="edge"><title>Node8&#45;&gt;Node17</title>
<path fill="none" stroke="#9a32cd" stroke-dasharray="5,2" d="M1181.6,-165.15C1175.43,-167.619 1169.44,-170.542 1164,-174 1111.07,-207.639 1126.96,-250.789 1072,-281 984.914,-328.869 864.856,-332.255 800.696,-329.983"/>
<polygon fill="#9a32cd" stroke="#9a32cd" points="1183.17,-168.306 1191.4,-161.632 1180.8,-161.718 1183.17,-168.306"/>
<text text-anchor="middle" x="1032" y="-314" font-family="Helvetica,sans-Serif" font-size="10.00"> myController</text>
</g>
<!-- Node8&#45;&gt;Node20 -->
<g id="edge24" class="edge"><title>Node8&#45;&gt;Node20</title>
<path fill="none" stroke="#9a32cd" stroke-dasharray="5,2" d="M1324.56,-146.128C1417.47,-139.27 1566.77,-128.25 1632.34,-123.411"/>
<polygon fill="#9a32cd" stroke="#9a32cd" points="1324.07,-142.654 1314.35,-146.881 1324.58,-149.635 1324.07,-142.654"/>
<text text-anchor="middle" x="1501" y="-139" font-family="Helvetica,sans-Serif" font-size="10.00"> myController</text>
</g>
<!-- Node9 -->
<g id="node9" class="node"><title>Node9</title>
<g id="a_node9"><a xlink:href="../../dc/df5/classmodel_1_1_parser.html" target="_top" xlink:title="model.Parser">
<polygon fill="white" stroke="black" points="992,-134.5 992,-153.5 1072,-153.5 1072,-134.5 992,-134.5"/>
<text text-anchor="middle" x="1032" y="-141.5" font-family="Helvetica,sans-Serif" font-size="10.00">model.Parser</text>
</a>
</g>
</g>
<!-- Node9&#45;&gt;Node8 -->
<g id="edge8" class="edge"><title>Node9&#45;&gt;Node8</title>
<path fill="none" stroke="#9a32cd" stroke-dasharray="5,2" d="M1082.08,-145.87C1109.32,-146.907 1143.65,-148.215 1173.6,-149.356"/>
<polygon fill="#9a32cd" stroke="#9a32cd" points="1082.13,-142.369 1072.01,-145.486 1081.87,-149.364 1082.13,-142.369"/>
<text text-anchor="middle" x="1118" y="-152" font-family="Helvetica,sans-Serif" font-size="10.00"> myParser</text>
</g>
<!-- Node10 -->
<g id="node10" class="node"><title>Node10</title>
<polygon fill="white" stroke="#bfbfbf" points="411,-138.5 411,-157.5 471,-157.5 471,-138.5 411,-138.5"/>
<text text-anchor="middle" x="441" y="-145.5" font-family="Helvetica,sans-Serif" font-size="10.00">Observer</text>
</g>
<!-- Node10&#45;&gt;Node9 -->
<g id="edge9" class="edge"><title>Node10&#45;&gt;Node9</title>
<path fill="none" stroke="midnightblue" d="M481.27,-147.733C588.431,-147.006 885.001,-144.992 991.928,-144.265"/>
<polygon fill="midnightblue" stroke="midnightblue" points="481.185,-144.234 471.209,-147.802 481.232,-151.234 481.185,-144.234"/>
</g>
<!-- Node10&#45;&gt;Node17 -->
<g id="edge17" class="edge"><title>Node10&#45;&gt;Node17</title>
<path fill="none" stroke="midnightblue" d="M481.225,-147.574C527.157,-148.865 603.836,-156.761 658,-192 707.659,-224.309 739.56,-292.036 750.127,-317.26"/>
<polygon fill="midnightblue" stroke="midnightblue" points="481.14,-144.072 471.076,-147.382 481.008,-151.071 481.14,-144.072"/>
</g>
<!-- Node11 -->
<g id="node11" class="node"><title>Node11</title>
<polygon fill="white" stroke="#bfbfbf" points="699,-83 699,-113 811,-113 811,-83 699,-83"/>
<text text-anchor="start" x="707" y="-101" font-family="Helvetica,sans-Serif" font-size="10.00">List&lt; Entry&lt; String,</text>
<text text-anchor="middle" x="755" y="-90" font-family="Helvetica,sans-Serif" font-size="10.00"> Pattern &gt; &gt;</text>
</g>
<!-- Node11&#45;&gt;Node9 -->
<g id="edge10" class="edge"><title>Node11&#45;&gt;Node9</title>
<path fill="none" stroke="#9a32cd" stroke-dasharray="5,2" d="M821.389,-97.6865C865.248,-98.9308 923.929,-103.43 974,-117 988.373,-120.895 1003.56,-128.272 1014.64,-134.332"/>
<polygon fill="#9a32cd" stroke="#9a32cd" points="821.218,-94.1816 811.138,-97.447 821.054,-101.18 821.218,-94.1816"/>
<text text-anchor="middle" x="913" y="-120" font-family="Helvetica,sans-Serif" font-size="10.00"> myPatterns</text>
</g>
<!-- Node12 -->
<g id="node12" class="node"><title>Node12</title>
<g id="a_node12"><a xlink:href="../../d1/dca/classmodel_1_1_execution_environment.html" target="_top" xlink:title="model.ExecutionEnvironment">
<polygon fill="white" stroke="black" points="676.5,-44.5 676.5,-63.5 833.5,-63.5 833.5,-44.5 676.5,-44.5"/>
<text text-anchor="middle" x="755" y="-51.5" font-family="Helvetica,sans-Serif" font-size="10.00">model.ExecutionEnvironment</text>
</a>
</g>
</g>
<!-- Node12&#45;&gt;Node9 -->
<g id="edge11" class="edge"><title>Node12&#45;&gt;Node9</title>
<path fill="none" stroke="#9a32cd" stroke-dasharray="5,2" d="M843.681,-53.5019C885.124,-56.4303 934.13,-64.6498 974,-85 996.58,-96.5254 1015.32,-120.547 1024.64,-134.116"/>
<polygon fill="#9a32cd" stroke="#9a32cd" points="843.789,-50.0021 833.593,-52.8817 843.36,-56.9889 843.789,-50.0021"/>
<text text-anchor="middle" x="913" y="-88" font-family="Helvetica,sans-Serif" font-size="10.00"> myExecutionParameters</text>
</g>
<!-- Node13 -->
<g id="node13" class="node"><title>Node13</title>
<polygon fill="white" stroke="#bfbfbf" points="405.5,-88.5 405.5,-107.5 476.5,-107.5 476.5,-88.5 405.5,-88.5"/>
<text text-anchor="middle" x="441" y="-95.5" font-family="Helvetica,sans-Serif" font-size="10.00">Observable</text>
</g>
<!-- Node13&#45;&gt;Node12 -->
<g id="edge12" class="edge"><title>Node13&#45;&gt;Node12</title>
<path fill="none" stroke="midnightblue" d="M486.845,-92.2653C530.56,-86.6076 598.897,-77.584 658,-69 669.769,-67.2907 682.337,-65.3852 694.37,-63.5213"/>
<polygon fill="midnightblue" stroke="midnightblue" points="486.293,-88.8074 476.824,-93.5591 487.19,-95.7497 486.293,-88.8074"/>
</g>
<!-- Node14 -->
<g id="node14" class="node"><title>Node14</title>
<polygon fill="white" stroke="#bfbfbf" points="354,-39 354,-69 528,-69 528,-39 354,-39"/>
<text text-anchor="start" x="362" y="-57" font-family="Helvetica,sans-Serif" font-size="10.00">Map&lt; String, model.instructions.</text>
<text text-anchor="middle" x="441" y="-46" font-family="Helvetica,sans-Serif" font-size="10.00">Instruction &gt;</text>
</g>
<!-- Node14&#45;&gt;Node12 -->
<g id="edge13" class="edge"><title>Node14&#45;&gt;Node12</title>
<path fill="none" stroke="#9a32cd" stroke-dasharray="5,2" d="M538.305,-54C582.685,-54 634.655,-54 676.461,-54"/>
<polygon fill="#9a32cd" stroke="#9a32cd" points="538.081,-50.5001 528.081,-54 538.081,-57.5001 538.081,-50.5001"/>
<text text-anchor="middle" x="602" y="-57" font-family="Helvetica,sans-Serif" font-size="10.00"> myUserInstructionMap</text>
</g>
<!-- Node15 -->
<g id="node15" class="node"><title>Node15</title>
<polygon fill="white" stroke="#bfbfbf" points="377,-0.5 377,-19.5 505,-19.5 505,-0.5 377,-0.5"/>
<text text-anchor="middle" x="441" y="-7.5" font-family="Helvetica,sans-Serif" font-size="10.00">Map&lt; String, Double &gt;</text>
</g>
<!-- Node15&#45;&gt;Node12 -->
<g id="edge14" class="edge"><title>Node15&#45;&gt;Node12</title>
<path fill="none" stroke="#9a32cd" stroke-dasharray="5,2" d="M515.472,-19.4653C557.283,-24.9517 610.61,-32.1172 658,-39 669.769,-40.7093 682.337,-42.6148 694.37,-44.4787"/>
<polygon fill="#9a32cd" stroke="#9a32cd" points="515.745,-15.9712 505.375,-18.1436 514.836,-22.912 515.745,-15.9712"/>
<text text-anchor="middle" x="602" y="-42" font-family="Helvetica,sans-Serif" font-size="10.00"> myVariableMap</text>
</g>
<!-- Node16 -->
<g id="node16" class="node"><title>Node16</title>
<polygon fill="white" stroke="#bfbfbf" points="694,-170.5 694,-189.5 816,-189.5 816,-170.5 694,-170.5"/>
<text text-anchor="middle" x="755" y="-177.5" font-family="Helvetica,sans-Serif" font-size="10.00">Map&lt; String, String &gt;</text>
</g>
<!-- Node16&#45;&gt;Node9 -->
<g id="edge15" class="edge"><title>Node16&#45;&gt;Node9</title>
<path fill="none" stroke="#9a32cd" stroke-dasharray="5,2" d="M826.397,-174.012C869.213,-169.933 924.921,-163.848 974,-156 979.792,-155.074 985.885,-153.951 991.846,-152.769"/>
<polygon fill="#9a32cd" stroke="#9a32cd" points="825.987,-170.535 816.358,-174.954 826.641,-177.504 825.987,-170.535"/>
<text text-anchor="middle" x="913" y="-175" font-family="Helvetica,sans-Serif" font-size="10.00"> myCommandMap</text>
</g>
<!-- Node17&#45;&gt;Node9 -->
<g id="edge16" class="edge"><title>Node17&#45;&gt;Node9</title>
<path fill="none" stroke="#9a32cd" stroke-dasharray="5,2" d="M780.581,-312.055C821.371,-287.068 905.355,-234.833 974,-187 989.662,-176.086 1007.11,-162.742 1018.52,-153.842"/>
<polygon fill="#9a32cd" stroke="#9a32cd" points="778.57,-309.182 771.863,-317.383 782.221,-315.155 778.57,-309.182"/>
<text text-anchor="middle" x="913" y="-268" font-family="Helvetica,sans-Serif" font-size="10.00"> mySLogoView</text>
</g>
<!-- Node18 -->
<g id="node18" class="node"><title>Node18</title>
<polygon fill="white" stroke="#bfbfbf" points="418.5,-458.5 418.5,-477.5 463.5,-477.5 463.5,-458.5 418.5,-458.5"/>
<text text-anchor="middle" x="441" y="-465.5" font-family="Helvetica,sans-Serif" font-size="10.00">Stage</text>
</g>
<!-- Node18&#45;&gt;Node17 -->
<g id="edge19" class="edge"><title>Node18&#45;&gt;Node17</title>
<path fill="none" stroke="#9a32cd" stroke-dasharray="5,2" d="M473.941,-470.979C518.123,-473.617 599.097,-472.998 658,-441 703.927,-416.051 737.147,-359.496 749.118,-336.747"/>
<polygon fill="#9a32cd" stroke="#9a32cd" points="474.013,-467.475 463.795,-470.276 473.529,-474.459 474.013,-467.475"/>
<text text-anchor="middle" x="602" y="-472" font-family="Helvetica,sans-Serif" font-size="10.00"> myStage</text>
</g>
<!-- Node19 -->
<g id="node19" class="node"><title>Node19</title>
<polygon fill="white" stroke="#bfbfbf" points="394.5,-420.5 394.5,-439.5 487.5,-439.5 487.5,-420.5 394.5,-420.5"/>
<text text-anchor="middle" x="441" y="-427.5" font-family="Helvetica,sans-Serif" font-size="10.00">ResourceBundle</text>
</g>
<!-- Node19&#45;&gt;Node17 -->
<g id="edge20" class="edge"><title>Node19&#45;&gt;Node17</title>
<path fill="none" stroke="#9a32cd" stroke-dasharray="5,2" d="M497.715,-429.956C542.577,-428.135 606.433,-421.443 658,-400 694.346,-384.886 729.082,-352.602 744.971,-336.517"/>
<polygon fill="#9a32cd" stroke="#9a32cd" points="497.469,-426.462 487.592,-430.298 497.705,-433.458 497.469,-426.462"/>
<text text-anchor="middle" x="602" y="-429" font-family="Helvetica,sans-Serif" font-size="10.00"> myResources</text>
</g>
<!-- Node20&#45;&gt;Node17 -->
<g id="edge21" class="edge"><title>Node20&#45;&gt;Node17</title>
<path fill="none" stroke="#9a32cd" stroke-dasharray="5,2" d="M1661.98,-140.911C1648.56,-225.657 1591.1,-552 1502,-552 1031,-552 1031,-552 1031,-552 950.26,-552 916.694,-569.307 852,-521 787.262,-472.661 763.551,-368.681 757.617,-336.615"/>
<polygon fill="#9a32cd" stroke="#9a32cd" points="1665.47,-141.231 1663.55,-130.812 1658.55,-140.156 1665.47,-141.231"/>
<text text-anchor="middle" x="1244" y="-555" font-family="Helvetica,sans-Serif" font-size="10.00"> myEditor</text>
</g>
<!-- Node21 -->
<g id="node21" class="node"><title>Node21</title>
<polygon fill="white" stroke="#bfbfbf" points="1480,-88.5 1480,-107.5 1522,-107.5 1522,-88.5 1480,-88.5"/>
<text text-anchor="middle" x="1501" y="-95.5" font-family="Helvetica,sans-Serif" font-size="10.00">HBox</text>
</g>
<!-- Node21&#45;&gt;Node20 -->
<g id="edge22" class="edge"><title>Node21&#45;&gt;Node20</title>
<path fill="none" stroke="midnightblue" d="M1532.47,-102.3C1560.9,-106.311 1603.17,-112.276 1632.29,-116.385"/>
<polygon fill="midnightblue" stroke="midnightblue" points="1532.71,-98.7981 1522.31,-100.866 1531.73,-105.729 1532.71,-98.7981"/>
</g>
<!-- Node22 -->
<g id="node22" class="node"><title>Node22</title>
<polygon fill="white" stroke="#bfbfbf" points="1476.5,-50.5 1476.5,-69.5 1525.5,-69.5 1525.5,-50.5 1476.5,-50.5"/>
<text text-anchor="middle" x="1501" y="-57.5" font-family="Helvetica,sans-Serif" font-size="10.00">Button</text>
</g>
<!-- Node22&#45;&gt;Node20 -->
<g id="edge23" class="edge"><title>Node22&#45;&gt;Node20</title>
<path fill="none" stroke="#9a32cd" stroke-dasharray="5,2" d="M1535.54,-67.3583C1558.17,-72.8587 1588.45,-81.2696 1614,-92 1626.77,-97.3645 1640.37,-105.214 1650.31,-111.394"/>
<polygon fill="#9a32cd" stroke="#9a32cd" points="1536.26,-63.9324 1525.72,-65.038 1534.65,-70.7447 1536.26,-63.9324"/>
<text text-anchor="middle" x="1586" y="-95" font-family="Helvetica,sans-Serif" font-size="10.00"> runButton</text>
</g>
<!-- Node23 -->
<g id="node23" class="node"><title>Node23</title>
<polygon fill="white" stroke="#bfbfbf" points="1472,-12.5 1472,-31.5 1530,-31.5 1530,-12.5 1472,-12.5"/>
<text text-anchor="middle" x="1501" y="-19.5" font-family="Helvetica,sans-Serif" font-size="10.00">TextArea</text>
</g>
<!-- Node23&#45;&gt;Node20 -->
<g id="edge25" class="edge"><title>Node23&#45;&gt;Node20</title>
<path fill="none" stroke="#9a32cd" stroke-dasharray="5,2" d="M1540.23,-29.0106C1563.09,-34.5106 1591.88,-43.8424 1614,-59 1634.47,-73.0236 1651.13,-97.5201 1659.38,-111.146"/>
<polygon fill="#9a32cd" stroke="#9a32cd" points="1540.72,-25.5328 1530.2,-26.746 1539.18,-32.3612 1540.72,-25.5328"/>
<text text-anchor="middle" x="1586" y="-62" font-family="Helvetica,sans-Serif" font-size="10.00"> textEditor</text>
</g>
<!-- Node24 -->
<g id="node24" class="node"><title>Node24</title>
<polygon fill="white" stroke="#bfbfbf" points="381.5,-382.5 381.5,-401.5 500.5,-401.5 500.5,-382.5 381.5,-382.5"/>
<text text-anchor="middle" x="441" y="-389.5" font-family="Helvetica,sans-Serif" font-size="10.00">Map&lt; String, Node &gt;</text>
</g>
<!-- Node24&#45;&gt;Node17 -->
<g id="edge27" class="edge"><title>Node24&#45;&gt;Node17</title>
<path fill="none" stroke="#9a32cd" stroke-dasharray="5,2" d="M510.624,-388.96C553.532,-385.86 609.64,-379.607 658,-367 685.955,-359.713 716.466,-345.909 735.418,-336.582"/>
<polygon fill="#9a32cd" stroke="#9a32cd" points="510.307,-385.474 500.569,-389.647 510.784,-392.458 510.307,-385.474"/>
<text text-anchor="middle" x="602" y="-388" font-family="Helvetica,sans-Serif" font-size="10.00"> variables</text>
</g>
<!-- Node25 -->
<g id="node25" class="node"><title>Node25</title>
<polygon fill="white" stroke="#bfbfbf" points="400.5,-297.5 400.5,-316.5 481.5,-316.5 481.5,-297.5 400.5,-297.5"/>
<text text-anchor="middle" x="441" y="-304.5" font-family="Helvetica,sans-Serif" font-size="10.00">Dimension2D</text>
</g>
<!-- Node25&#45;&gt;Node17 -->
<g id="edge29" class="edge"><title>Node25&#45;&gt;Node17</title>
<path fill="none" stroke="#9a32cd" stroke-dasharray="5,2" d="M491.5,-310.173C551.45,-314.016 651.55,-320.433 709.269,-324.133"/>
<polygon fill="#9a32cd" stroke="#9a32cd" points="491.718,-306.68 481.515,-309.533 491.271,-313.666 491.718,-306.68"/>
<text text-anchor="middle" x="602" y="-324" font-family="Helvetica,sans-Serif" font-size="10.00"> myDimensions</text>
</g>
<!-- Node26 -->
<g id="node26" class="node"><title>Node26</title>
<g id="a_node26"><a xlink:href="../../de/d0a/classview_1_1_drawer.html" target="_top" xlink:title="view.Drawer">
<polygon fill="white" stroke="black" points="404.5,-221.5 404.5,-240.5 477.5,-240.5 477.5,-221.5 404.5,-221.5"/>
<text text-anchor="middle" x="441" y="-228.5" font-family="Helvetica,sans-Serif" font-size="10.00">view.Drawer</text>
</a>
</g>
</g>
<!-- Node26&#45;&gt;Node17 -->
<g id="edge31" class="edge"><title>Node26&#45;&gt;Node17</title>
<path fill="none" stroke="#9a32cd" stroke-dasharray="5,2" d="M487.767,-233.418C532.441,-236.971 601.713,-245.693 658,-267 690.902,-279.455 724.728,-303.827 742.099,-317.361"/>
<polygon fill="#9a32cd" stroke="#9a32cd" points="487.748,-229.907 477.517,-232.659 487.231,-236.888 487.748,-229.907"/>
<text text-anchor="middle" x="602" y="-270" font-family="Helvetica,sans-Serif" font-size="10.00"> drawer</text>
</g>
<!-- Node27 -->
<g id="node27" class="node"><title>Node27</title>
<polygon fill="white" stroke="#bfbfbf" points="153.5,-174.5 153.5,-193.5 194.5,-193.5 194.5,-174.5 153.5,-174.5"/>
<text text-anchor="middle" x="174" y="-181.5" font-family="Helvetica,sans-Serif" font-size="10.00">Color</text>
</g>
<!-- Node27&#45;&gt;Node26 -->
<g id="edge32" class="edge"><title>Node27&#45;&gt;Node26</title>
<path fill="none" stroke="#9a32cd" stroke-dasharray="5,2" d="M204.782,-177.734C238.563,-172.195 294.356,-167.904 336,-189 347.579,-194.866 343.017,-205.082 354,-212 369.008,-221.453 388.073,-226.24 404.436,-228.649"/>
<polygon fill="#9a32cd" stroke="#9a32cd" points="203.862,-174.343 194.633,-179.546 205.093,-181.234 203.862,-174.343"/>
<text text-anchor="middle" x="298" y="-192" font-family="Helvetica,sans-Serif" font-size="10.00"> myColor</text>
</g>
<!-- Node28 -->
<g id="node28" class="node"><title>Node28</title>
<polygon fill="white" stroke="#bfbfbf" points="418,-183.5 418,-202.5 464,-202.5 464,-183.5 418,-183.5"/>
<text text-anchor="middle" x="441" y="-190.5" font-family="Helvetica,sans-Serif" font-size="10.00">Group</text>
</g>
<!-- Node28&#45;&gt;Node17 -->
<g id="edge34" class="edge"><title>Node28&#45;&gt;Node17</title>
<path fill="none" stroke="#9a32cd" stroke-dasharray="5,2" d="M474.42,-191.605C518.506,-191.069 598.664,-195.019 658,-226 700.461,-248.17 734.668,-296.464 747.988,-317.21"/>
<polygon fill="#9a32cd" stroke="#9a32cd" points="474.207,-188.108 464.282,-191.816 474.353,-195.107 474.207,-188.108"/>
<text text-anchor="middle" x="602" y="-229" font-family="Helvetica,sans-Serif" font-size="10.00"> lines</text>
</g>
<!-- Node29 -->
<g id="node29" class="node"><title>Node29</title>
<polygon fill="white" stroke="#bfbfbf" points="1177,-271 1177,-301 1311,-301 1311,-271 1177,-271"/>
<text text-anchor="start" x="1185" y="-289" font-family="Helvetica,sans-Serif" font-size="10.00">TableView&lt; view.Variable</text>
<text text-anchor="middle" x="1244" y="-278" font-family="Helvetica,sans-Serif" font-size="10.00">View &gt;</text>
</g>
<!-- Node29&#45;&gt;Node6 -->
<g id="edge35" class="edge"><title>Node29&#45;&gt;Node6</title>
<path fill="none" stroke="#9a32cd" stroke-dasharray="5,2" d="M1321.53,-284.835C1358.71,-285.346 1403.9,-287.56 1444,-294 1453.08,-295.459 1462.79,-297.902 1471.52,-300.446"/>
<polygon fill="#9a32cd" stroke="#9a32cd" points="1321.31,-281.332 1311.27,-284.734 1321.24,-288.332 1321.31,-281.332"/>
<text text-anchor="middle" x="1393" y="-308" font-family="Helvetica,sans-Serif" font-size="10.00"> turtlePropertiesTable</text>
<text text-anchor="middle" x="1393" y="-297" font-family="Helvetica,sans-Serif" font-size="10.00">variablesTable</text>
</g>
<!-- Node30 -->
<g id="node30" class="node"><title>Node30</title>
<polygon fill="white" stroke="#bfbfbf" points="1164.5,-222 1164.5,-252 1323.5,-252 1323.5,-222 1164.5,-222"/>
<text text-anchor="start" x="1172.5" y="-240" font-family="Helvetica,sans-Serif" font-size="10.00">ObservableList&lt; view.Variable</text>
<text text-anchor="middle" x="1244" y="-229" font-family="Helvetica,sans-Serif" font-size="10.00">View &gt;</text>
</g>
<!-- Node30&#45;&gt;Node6 -->
<g id="edge37" class="edge"><title>Node30&#45;&gt;Node6</title>
<path fill="none" stroke="#9a32cd" stroke-dasharray="5,2" d="M1334,-243.768C1369.22,-248.592 1409.46,-256.852 1444,-271 1461.32,-278.096 1478.59,-291.288 1489.28,-300.349"/>
<polygon fill="#9a32cd" stroke="#9a32cd" points="1334.1,-240.251 1323.73,-242.438 1333.2,-247.193 1334.1,-240.251"/>
<text text-anchor="middle" x="1393" y="-274" font-family="Helvetica,sans-Serif" font-size="10.00"> variablesList</text>
</g>
<!-- Node31 -->
<g id="node31" class="node"><title>Node31</title>
<polygon fill="white" stroke="#bfbfbf" points="1175,-183.5 1175,-202.5 1313,-202.5 1313,-183.5 1175,-183.5"/>
<text text-anchor="middle" x="1244" y="-190.5" font-family="Helvetica,sans-Serif" font-size="10.00">ObservableList&lt; String &gt;</text>
</g>
<!-- Node31&#45;&gt;Node6 -->
<g id="edge38" class="edge"><title>Node31&#45;&gt;Node6</title>
<path fill="none" stroke="#9a32cd" stroke-dasharray="5,2" d="M1323.39,-188.489C1362.41,-189.823 1408.67,-197.129 1444,-220 1474.12,-239.501 1490.85,-281.513 1497.11,-300.427"/>
<polygon fill="#9a32cd" stroke="#9a32cd" points="1323.18,-184.984 1313.11,-188.268 1323.03,-191.983 1323.18,-184.984"/>
<text text-anchor="middle" x="1393" y="-234" font-family="Helvetica,sans-Serif" font-size="10.00"> commandItems</text>
<text text-anchor="middle" x="1393" y="-223" font-family="Helvetica,sans-Serif" font-size="10.00">historyItems</text>
</g>
<!-- Node32 -->
<g id="node32" class="node"><title>Node32</title>
<polygon fill="white" stroke="#bfbfbf" points="1191,-434.5 1191,-453.5 1297,-453.5 1297,-434.5 1191,-434.5"/>
<text text-anchor="middle" x="1244" y="-441.5" font-family="Helvetica,sans-Serif" font-size="10.00">ListView&lt; String &gt;</text>
</g>
<!-- Node32&#45;&gt;Node6 -->
<g id="edge39" class="edge"><title>Node32&#45;&gt;Node6</title>
<path fill="none" stroke="#9a32cd" stroke-dasharray="5,2" d="M1307.25,-450.92C1349.43,-452.374 1404.47,-447.624 1444,-420 1479.31,-395.326 1493.69,-341.586 1498.25,-319.634"/>
<polygon fill="#9a32cd" stroke="#9a32cd" points="1307.25,-447.416 1297.09,-450.443 1306.92,-454.408 1307.25,-447.416"/>
<text text-anchor="middle" x="1393" y="-453" font-family="Helvetica,sans-Serif" font-size="10.00"> historyList</text>
</g>
<!-- Node33 -->
<g id="node33" class="node"><title>Node33</title>
<polygon fill="white" stroke="#bfbfbf" points="142.5,-212.5 142.5,-231.5 205.5,-231.5 205.5,-212.5 142.5,-212.5"/>
<text text-anchor="middle" x="174" y="-219.5" font-family="Helvetica,sans-Serif" font-size="10.00">Rectangle</text>
</g>
<!-- Node33&#45;&gt;Node1 -->
<g id="edge40" class="edge"><title>Node33&#45;&gt;Node1</title>
<path fill="none" stroke="#9a32cd" stroke-dasharray="5,2" d="M215.682,-228.119C248.278,-233.131 295.152,-240.581 336,-248 355.664,-251.572 377.341,-255.888 395.793,-259.676"/>
<polygon fill="#9a32cd" stroke="#9a32cd" points="216.04,-224.633 205.626,-226.581 214.982,-231.553 216.04,-224.633"/>
<text text-anchor="middle" x="298" y="-251" font-family="Helvetica,sans-Serif" font-size="10.00"> myBackground</text>
</g>
</g>
</svg>
