<?xml version="1.0" encoding="UTF-8" standalone="no"?>
<!DOCTYPE svg PUBLIC "-//W3C//DTD SVG 1.1//EN"
 "http://www.w3.org/Graphics/SVG/1.1/DTD/svg11.dtd">
<!-- Generated by graphviz version 2.36.0 (20140111.2315)
 -->
<!-- Title: view.Workspace Pages: 1 -->
<svg width="2034pt" height="650pt"
 viewBox="0.00 0.00 2034.00 649.99" xmlns="http://www.w3.org/2000/svg" xmlns:xlink="http://www.w3.org/1999/xlink">
<g id="graph0" class="graph" transform="scale(1 1) rotate(0) translate(4 645.993)">
<title>view.Workspace</title>
<polygon fill="white" stroke="none" points="-4,4 -4,-645.993 2030,-645.993 2030,4 -4,4"/>
<!-- Node1 -->
<g id="node1" class="node"><title>Node1</title>
<polygon fill="#bfbfbf" stroke="black" points="354,-318.493 354,-337.493 444,-337.493 444,-318.493 354,-318.493"/>
<text text-anchor="middle" x="399" y="-325.493" font-family="Helvetica,sans-Serif" font-size="10.00">view.Workspace</text>
</g>
<!-- Node20 -->
<g id="node20" class="node"><title>Node20</title>
<g id="a_node20"><a xlink:href="../../d4/d64/classview_1_1_view_updater.html" target="_top" xlink:title="view.ViewUpdater">
<polygon fill="white" stroke="black" points="901,-416.493 901,-435.493 1001,-435.493 1001,-416.493 901,-416.493"/>
<text text-anchor="middle" x="951" y="-423.493" font-family="Helvetica,sans-Serif" font-size="10.00">view.ViewUpdater</text>
</a>
</g>
</g>
<!-- Node1&#45;&gt;Node20 -->
<g id="edge23" class="edge"><title>Node1&#45;&gt;Node20</title>
<path fill="none" stroke="#9a32cd" stroke-dasharray="5,2" d="M454.347,-337.799C456.933,-338.214 459.494,-338.614 462,-338.993 635.607,-365.227 683.908,-344.447 854,-387.993 881.263,-394.973 911.193,-407.684 930.265,-416.471"/>
<polygon fill="#9a32cd" stroke="#9a32cd" points="454.758,-334.319 444.321,-336.141 453.616,-341.226 454.758,-334.319"/>
<text text-anchor="middle" x="637" y="-365.993" font-family="Helvetica,sans-Serif" font-size="10.00"> myWorkspace</text>
</g>
<!-- Node21 -->
<g id="node21" class="node"><title>Node21</title>
<g id="a_node21"><a xlink:href="../../de/d0a/classview_1_1_drawer.html" target="_top" xlink:title="view.Drawer">
<polygon fill="white" stroke="black" points="600.5,-557.493 600.5,-576.493 673.5,-576.493 673.5,-557.493 600.5,-557.493"/>
<text text-anchor="middle" x="637" y="-564.493" font-family="Helvetica,sans-Serif" font-size="10.00">view.Drawer</text>
</a>
</g>
</g>
<!-- Node1&#45;&gt;Node21 -->
<g id="edge25" class="edge"><title>Node1&#45;&gt;Node21</title>
<path fill="none" stroke="#9a32cd" stroke-dasharray="5,2" d="M408.431,-346.876C427.616,-387.745 478.48,-484.978 550,-537.993 564.683,-548.877 583.718,-555.852 600.145,-560.226"/>
<polygon fill="#9a32cd" stroke="#9a32cd" points="411.502,-345.177 404.148,-337.551 405.141,-348.099 411.502,-345.177"/>
<text text-anchor="middle" x="497" y="-522.993" font-family="Helvetica,sans-Serif" font-size="10.00"> myWorkspace</text>
</g>
<!-- Node24 -->
<g id="node24" class="node"><title>Node24</title>
<g id="a_node24"><a xlink:href="../../d6/de7/classview_1_1_s_logo_view.html" target="_top" xlink:title="view.SLogoView">
<polygon fill="white" stroke="black" points="1934.5,-289.493 1934.5,-308.493 2025.5,-308.493 2025.5,-289.493 1934.5,-289.493"/>
<text text-anchor="middle" x="1980" y="-296.493" font-family="Helvetica,sans-Serif" font-size="10.00">view.SLogoView</text>
</a>
</g>
</g>
<!-- Node1&#45;&gt;Node24 -->
<g id="edge30" class="edge"><title>Node1&#45;&gt;Node24</title>
<path fill="none" stroke="#9a32cd" stroke-dasharray="5,2" d="M407.671,-309.044C425.787,-266.741 475.384,-164.156 550,-110.993 582.319,-87.9664 596.317,-86.9931 636,-86.9931 636,-86.9931 636,-86.9931 1763,-86.9931 1831.9,-86.9931 1863.47,-67.3999 1916,-111.993 1971.89,-159.441 1978.36,-258.236 1978.98,-289.376"/>
<polygon fill="#9a32cd" stroke="#9a32cd" points="404.374,-307.858 403.748,-318.434 410.833,-310.557 404.374,-307.858"/>
<text text-anchor="middle" x="1275" y="-89.9931" font-family="Helvetica,sans-Serif" font-size="10.00"> myWorkspace</text>
</g>
<!-- Node2 -->
<g id="node2" class="node"><title>Node2</title>
<polygon fill="white" stroke="#bfbfbf" points="140.5,-206.493 140.5,-225.493 207.5,-225.493 207.5,-206.493 140.5,-206.493"/>
<text text-anchor="middle" x="174" y="-213.493" font-family="Helvetica,sans-Serif" font-size="10.00">StackPane</text>
</g>
<!-- Node2&#45;&gt;Node1 -->
<g id="edge1" class="edge"><title>Node2&#45;&gt;Node1</title>
<path fill="none" stroke="midnightblue" d="M217.647,-222.459C251.62,-229.029 299.387,-241.533 336,-263.993 359.736,-278.554 380.745,-304.279 391.127,-318.27"/>
<polygon fill="midnightblue" stroke="midnightblue" points="218.043,-218.973 207.574,-220.607 216.776,-225.858 218.043,-218.973"/>
</g>
<!-- Node3 -->
<g id="node3" class="node"><title>Node3</title>
<polygon fill="white" stroke="#bfbfbf" points="127.5,-415.493 127.5,-434.493 220.5,-434.493 220.5,-415.493 127.5,-415.493"/>
<text text-anchor="middle" x="174" y="-422.493" font-family="Helvetica,sans-Serif" font-size="10.00">ResourceBundle</text>
</g>
<!-- Node3&#45;&gt;Node1 -->
<g id="edge2" class="edge"><title>Node3&#45;&gt;Node1</title>
<path fill="none" stroke="#9a32cd" stroke-dasharray="5,2" d="M217.312,-412.529C263.161,-398.959 330.559,-378.806 336,-375.993 356.073,-365.616 376.183,-348.514 387.842,-337.772"/>
<polygon fill="#9a32cd" stroke="#9a32cd" points="216.197,-409.208 207.6,-415.4 218.182,-415.921 216.197,-409.208"/>
<text text-anchor="middle" x="298" y="-402.993" font-family="Helvetica,sans-Serif" font-size="10.00"> myResources</text>
</g>
<!-- Node8 -->
<g id="node8" class="node"><title>Node8</title>
<g id="a_node8"><a xlink:href="../../d1/dc7/classview_1_1_side_bar.html" target="_top" xlink:title="view.SideBar">
<polygon fill="white" stroke="black" points="1517.5,-308.493 1517.5,-327.493 1594.5,-327.493 1594.5,-308.493 1517.5,-308.493"/>
<text text-anchor="middle" x="1556" y="-315.493" font-family="Helvetica,sans-Serif" font-size="10.00">view.SideBar</text>
</a>
</g>
</g>
<!-- Node3&#45;&gt;Node8 -->
<g id="edge10" class="edge"><title>Node3&#45;&gt;Node8</title>
<path fill="none" stroke="#9a32cd" stroke-dasharray="5,2" d="M231.069,-423.44C301.403,-421.344 425.686,-417.148 532,-410.993 585.734,-407.882 1445.24,-347.639 1498,-336.993 1508.94,-334.785 1520.69,-331.104 1530.67,-327.566"/>
<polygon fill="#9a32cd" stroke="#9a32cd" points="230.566,-419.954 220.674,-423.747 230.772,-426.95 230.566,-419.954"/>
<text text-anchor="middle" x="798" y="-399.993" font-family="Helvetica,sans-Serif" font-size="10.00"> myResources</text>
</g>
<!-- Node3&#45;&gt;Node24 -->
<g id="edge32" class="edge"><title>Node3&#45;&gt;Node24</title>
<path fill="none" stroke="#9a32cd" stroke-dasharray="5,2" d="M183.958,-443.887C209.554,-494.793 288.288,-630.993 398,-630.993 398,-630.993 398,-630.993 1763,-630.993 1833.4,-630.993 1867.44,-640.968 1916,-589.993 1956.2,-547.792 1974.46,-354.147 1978.24,-308.604"/>
<polygon fill="#9a32cd" stroke="#9a32cd" points="186.976,-442.091 179.432,-434.653 180.691,-445.172 186.976,-442.091"/>
<text text-anchor="middle" x="1109" y="-633.993" font-family="Helvetica,sans-Serif" font-size="10.00"> myResources</text>
</g>
<!-- Node4 -->
<g id="node4" class="node"><title>Node4</title>
<g id="a_node4"><a xlink:href="../../d8/df7/classview_1_1_turtle_view.html" target="_top" xlink:title="view.TurtleView">
<polygon fill="white" stroke="black" points="131,-370.493 131,-389.493 217,-389.493 217,-370.493 131,-370.493"/>
<text text-anchor="middle" x="174" y="-377.493" font-family="Helvetica,sans-Serif" font-size="10.00">view.TurtleView</text>
</a>
</g>
</g>
<!-- Node4&#45;&gt;Node1 -->
<g id="edge3" class="edge"><title>Node4&#45;&gt;Node1</title>
<path fill="none" stroke="#9a32cd" stroke-dasharray="5,2" d="M226.959,-368.211C258.516,-361.016 299.603,-351.578 336,-342.993 343.437,-341.239 351.37,-339.341 358.99,-337.503"/>
<polygon fill="#9a32cd" stroke="#9a32cd" points="226.038,-364.831 217.066,-370.465 227.593,-371.656 226.038,-364.831"/>
<text text-anchor="middle" x="298" y="-363.993" font-family="Helvetica,sans-Serif" font-size="10.00"> myActiveTurtle</text>
</g>
<!-- Node5 -->
<g id="node5" class="node"><title>Node5</title>
<polygon fill="white" stroke="#bfbfbf" points="0,-370.493 0,-389.493 68,-389.493 68,-370.493 0,-370.493"/>
<text text-anchor="middle" x="34" y="-377.493" font-family="Helvetica,sans-Serif" font-size="10.00">ImageView</text>
</g>
<!-- Node5&#45;&gt;Node4 -->
<g id="edge4" class="edge"><title>Node5&#45;&gt;Node4</title>
<path fill="none" stroke="midnightblue" d="M78.1527,-379.993C94.936,-379.993 114.104,-379.993 130.796,-379.993"/>
<polygon fill="midnightblue" stroke="midnightblue" points="78.0545,-376.493 68.0544,-379.993 78.0544,-383.493 78.0545,-376.493"/>
</g>
<!-- Node6 -->
<g id="node6" class="node"><title>Node6</title>
<polygon fill="white" stroke="#bfbfbf" points="106,-320.993 106,-350.993 242,-350.993 242,-320.993 106,-320.993"/>
<text text-anchor="start" x="114" y="-338.993" font-family="Helvetica,sans-Serif" font-size="10.00">Map&lt; Integer, view.Turtle</text>
<text text-anchor="middle" x="174" y="-327.993" font-family="Helvetica,sans-Serif" font-size="10.00">View &gt;</text>
</g>
<!-- Node6&#45;&gt;Node1 -->
<g id="edge5" class="edge"><title>Node6&#45;&gt;Node1</title>
<path fill="none" stroke="#9a32cd" stroke-dasharray="5,2" d="M252.335,-332.294C254.92,-332.19 257.481,-332.089 260,-331.993 291.376,-330.8 326.777,-329.781 353.867,-329.07"/>
<polygon fill="#9a32cd" stroke="#9a32cd" points="252.117,-328.8 242.272,-332.715 252.41,-335.794 252.117,-328.8"/>
<text text-anchor="middle" x="298" y="-334.993" font-family="Helvetica,sans-Serif" font-size="10.00"> myTurtles</text>
</g>
<!-- Node7 -->
<g id="node7" class="node"><title>Node7</title>
<polygon fill="white" stroke="#bfbfbf" points="151,-282.493 151,-301.493 197,-301.493 197,-282.493 151,-282.493"/>
<text text-anchor="middle" x="174" y="-289.493" font-family="Helvetica,sans-Serif" font-size="10.00">Group</text>
</g>
<!-- Node7&#45;&gt;Node1 -->
<g id="edge6" class="edge"><title>Node7&#45;&gt;Node1</title>
<path fill="none" stroke="#9a32cd" stroke-dasharray="5,2" d="M207.494,-296.007C240.082,-300.18 291.655,-307.185 336,-314.993 341.957,-316.042 348.217,-317.24 354.373,-318.475"/>
<polygon fill="#9a32cd" stroke="#9a32cd" points="207.569,-292.488 197.208,-294.703 206.689,-299.433 207.569,-292.488"/>
<text text-anchor="middle" x="298" y="-317.993" font-family="Helvetica,sans-Serif" font-size="10.00"> myLines</text>
</g>
<!-- Node8&#45;&gt;Node1 -->
<g id="edge7" class="edge"><title>Node8&#45;&gt;Node1</title>
<path fill="none" stroke="#9a32cd" stroke-dasharray="5,2" d="M1506.84,-319.935C1451.24,-322.006 1357.02,-324.993 1276,-324.993 636,-324.993 636,-324.993 636,-324.993 569.21,-324.993 491.796,-326.209 444.364,-327.093"/>
<polygon fill="#9a32cd" stroke="#9a32cd" points="1507.24,-323.422 1517.1,-319.547 1506.98,-316.427 1507.24,-323.422"/>
<text text-anchor="middle" x="951" y="-327.993" font-family="Helvetica,sans-Serif" font-size="10.00"> mySidebar</text>
</g>
<!-- Node8&#45;&gt;Node20 -->
<g id="edge27" class="edge"><title>Node8&#45;&gt;Node20</title>
<path fill="none" stroke="#9a32cd" stroke-dasharray="5,2" d="M1520.52,-333.056C1518.92,-334.283 1517.4,-335.595 1516,-336.993 1503.07,-349.928 1512.98,-363.507 1498,-373.993 1457.78,-402.146 1127.96,-418.688 1001.29,-424.055"/>
<polygon fill="#9a32cd" stroke="#9a32cd" points="1522.51,-335.937 1529.06,-327.603 1518.74,-330.039 1522.51,-335.937"/>
<text text-anchor="middle" x="1275" y="-417.993" font-family="Helvetica,sans-Serif" font-size="10.00"> mySidebar</text>
</g>
<!-- Node8&#45;&gt;Node24 -->
<g id="edge44" class="edge"><title>Node8&#45;&gt;Node24</title>
<path fill="none" stroke="#9a32cd" stroke-dasharray="5,2" d="M1604.9,-315.837C1687.15,-312.133 1854.11,-304.616 1934.19,-301.011"/>
<polygon fill="#9a32cd" stroke="#9a32cd" points="1604.65,-312.344 1594.82,-316.29 1604.97,-319.337 1604.65,-312.344"/>
<text text-anchor="middle" x="1762" y="-314.993" font-family="Helvetica,sans-Serif" font-size="10.00"> mySidebar</text>
</g>
<!-- Node26 -->
<g id="node26" class="node"><title>Node26</title>
<g id="a_node26"><a xlink:href="../../da/dc8/classview_1_1_editor.html" target="_top" xlink:title="view.Editor">
<polygon fill="white" stroke="black" points="1728.5,-369.493 1728.5,-388.493 1795.5,-388.493 1795.5,-369.493 1728.5,-369.493"/>
<text text-anchor="middle" x="1762" y="-376.493" font-family="Helvetica,sans-Serif" font-size="10.00">view.Editor</text>
</a>
</g>
</g>
<!-- Node8&#45;&gt;Node26 -->
<g id="edge38" class="edge"><title>Node8&#45;&gt;Node26</title>
<path fill="none" stroke="#9a32cd" stroke-dasharray="5,2" d="M1604.58,-327.45C1628.62,-332.677 1658.11,-339.777 1684,-347.993 1703.23,-354.097 1724.46,-362.796 1739.74,-369.426"/>
<polygon fill="#9a32cd" stroke="#9a32cd" points="1605.15,-323.992 1594.64,-325.327 1603.69,-330.838 1605.15,-323.992"/>
<text text-anchor="middle" x="1649" y="-350.993" font-family="Helvetica,sans-Serif" font-size="10.00"> mySidebar</text>
</g>
<!-- Node9 -->
<g id="node9" class="node"><title>Node9</title>
<polygon fill="white" stroke="#bfbfbf" points="1254.5,-239.493 1254.5,-258.493 1295.5,-258.493 1295.5,-239.493 1254.5,-239.493"/>
<text text-anchor="middle" x="1275" y="-246.493" font-family="Helvetica,sans-Serif" font-size="10.00">VBox</text>
</g>
<!-- Node9&#45;&gt;Node8 -->
<g id="edge8" class="edge"><title>Node9&#45;&gt;Node8</title>
<path fill="none" stroke="midnightblue" d="M1305.77,-247.635C1349.54,-246.695 1433.09,-248.958 1498,-274.993 1516.87,-282.561 1534.95,-298.08 1545.52,-308.256"/>
<polygon fill="midnightblue" stroke="midnightblue" points="1305.43,-244.144 1295.54,-247.931 1305.64,-251.141 1305.43,-244.144"/>
</g>
<!-- Node10 -->
<g id="node10" class="node"><title>Node10</title>
<polygon fill="white" stroke="#bfbfbf" points="1188.5,-201.493 1188.5,-220.493 1361.5,-220.493 1361.5,-201.493 1188.5,-201.493"/>
<text text-anchor="middle" x="1275" y="-208.493" font-family="Helvetica,sans-Serif" font-size="10.00">ObservableList&lt; view.Property &gt;</text>
</g>
<!-- Node10&#45;&gt;Node8 -->
<g id="edge9" class="edge"><title>Node10&#45;&gt;Node8</title>
<path fill="none" stroke="#9a32cd" stroke-dasharray="5,2" d="M1371.79,-204.085C1413.17,-205.293 1460.56,-212.637 1498,-234.993 1526.82,-252.201 1544.47,-290.285 1551.5,-308.251"/>
<polygon fill="#9a32cd" stroke="#9a32cd" points="1371.75,-200.583 1361.69,-203.906 1371.63,-207.582 1371.75,-200.583"/>
<text text-anchor="middle" x="1439" y="-237.993" font-family="Helvetica,sans-Serif" font-size="10.00"> myVariablesList</text>
</g>
<!-- Node11 -->
<g id="node11" class="node"><title>Node11</title>
<g id="a_node11"><a xlink:href="../../d1/dca/classmodel_1_1_execution_environment.html" target="_top" xlink:title="model.ExecutionEnvironment">
<polygon fill="white" stroke="black" points="872.5,-162.493 872.5,-181.493 1029.5,-181.493 1029.5,-162.493 872.5,-162.493"/>
<text text-anchor="middle" x="951" y="-169.493" font-family="Helvetica,sans-Serif" font-size="10.00">model.ExecutionEnvironment</text>
</a>
</g>
</g>
<!-- Node11&#45;&gt;Node8 -->
<g id="edge11" class="edge"><title>Node11&#45;&gt;Node8</title>
<path fill="none" stroke="#9a32cd" stroke-dasharray="5,2" d="M1040.11,-165.373C1175.74,-157.018 1427.45,-149.364 1498,-200.993 1534.83,-227.946 1549.03,-285.211 1553.38,-308.17"/>
<polygon fill="#9a32cd" stroke="#9a32cd" points="1039.51,-161.904 1029.75,-166.027 1039.95,-168.89 1039.51,-161.904"/>
<text text-anchor="middle" x="1275" y="-168.993" font-family="Helvetica,sans-Serif" font-size="10.00"> myEnvironment</text>
</g>
<!-- Node17 -->
<g id="node17" class="node"><title>Node17</title>
<g id="a_node17"><a xlink:href="../../dc/df5/classmodel_1_1_parser.html" target="_top" xlink:title="model.Parser">
<polygon fill="white" stroke="black" points="1235,-482.493 1235,-501.493 1315,-501.493 1315,-482.493 1235,-482.493"/>
<text text-anchor="middle" x="1275" y="-489.493" font-family="Helvetica,sans-Serif" font-size="10.00">model.Parser</text>
</a>
</g>
</g>
<!-- Node11&#45;&gt;Node17 -->
<g id="edge20" class="edge"><title>Node11&#45;&gt;Node17</title>
<path fill="none" stroke="#9a32cd" stroke-dasharray="5,2" d="M970.669,-188.726C1011.73,-226.393 1110.93,-322.216 1170,-419.993 1181.57,-439.139 1171.54,-451.845 1188,-466.993 1200.7,-478.681 1218.55,-484.934 1234.71,-488.267"/>
<polygon fill="#9a32cd" stroke="#9a32cd" points="972.794,-185.928 963.042,-181.787 968.083,-191.106 972.794,-185.928"/>
<text text-anchor="middle" x="1109" y="-422.993" font-family="Helvetica,sans-Serif" font-size="10.00"> myExecutionParameters</text>
</g>
<!-- Node11&#45;&gt;Node24 -->
<g id="edge40" class="edge"><title>Node11&#45;&gt;Node24</title>
<path fill="none" stroke="#9a32cd" stroke-dasharray="5,2" d="M1013.54,-160.998C1024.96,-159.351 1036.82,-157.902 1048,-156.993 1110.02,-151.954 1125.78,-156.215 1188,-155.993 1265.33,-155.717 1284.7,-153.721 1362,-155.993 1422.52,-157.772 1438.29,-153.977 1498,-163.993 1675.28,-193.729 1880.77,-263.798 1952.6,-289.406"/>
<polygon fill="#9a32cd" stroke="#9a32cd" points="1013.02,-157.538 1003.65,-162.488 1014.06,-164.46 1013.02,-157.538"/>
<text text-anchor="middle" x="1556" y="-185.993" font-family="Helvetica,sans-Serif" font-size="10.00"> myEnvironment</text>
</g>
<!-- Node12 -->
<g id="node12" class="node"><title>Node12</title>
<polygon fill="white" stroke="#bfbfbf" points="601.5,-158.493 601.5,-177.493 672.5,-177.493 672.5,-158.493 601.5,-158.493"/>
<text text-anchor="middle" x="637" y="-165.493" font-family="Helvetica,sans-Serif" font-size="10.00">Observable</text>
</g>
<!-- Node12&#45;&gt;Node11 -->
<g id="edge12" class="edge"><title>Node12&#45;&gt;Node11</title>
<path fill="none" stroke="midnightblue" d="M682.637,-168.565C732.066,-169.199 812.658,-170.232 872.457,-170.999"/>
<polygon fill="midnightblue" stroke="midnightblue" points="682.626,-165.065 672.582,-168.436 682.536,-172.064 682.626,-165.065"/>
</g>
<!-- Node13 -->
<g id="node13" class="node"><title>Node13</title>
<polygon fill="white" stroke="#bfbfbf" points="592.5,-120.493 592.5,-139.493 681.5,-139.493 681.5,-120.493 592.5,-120.493"/>
<text text-anchor="middle" x="637" y="-127.493" font-family="Helvetica,sans-Serif" font-size="10.00">Set&lt; Integer &gt;</text>
</g>
<!-- Node13&#45;&gt;Node11 -->
<g id="edge13" class="edge"><title>Node13&#45;&gt;Node11</title>
<path fill="none" stroke="#9a32cd" stroke-dasharray="5,2" d="M691.949,-130.224C735.881,-131.192 799.351,-134.372 854,-143.993 877.766,-148.177 904.026,-156.072 923.065,-162.415"/>
<polygon fill="#9a32cd" stroke="#9a32cd" points="691.839,-126.721 681.774,-130.031 691.706,-133.72 691.839,-126.721"/>
<text text-anchor="middle" x="798" y="-157.993" font-family="Helvetica,sans-Serif" font-size="10.00"> myTurtleList</text>
<text text-anchor="middle" x="798" y="-146.993" font-family="Helvetica,sans-Serif" font-size="10.00">activeTurtleList</text>
</g>
<!-- Node14 -->
<g id="node14" class="node"><title>Node14</title>
<polygon fill="white" stroke="#bfbfbf" points="550,-234.993 550,-264.993 724,-264.993 724,-234.993 550,-234.993"/>
<text text-anchor="start" x="558" y="-252.993" font-family="Helvetica,sans-Serif" font-size="10.00">Map&lt; String, model.instructions.</text>
<text text-anchor="middle" x="637" y="-241.993" font-family="Helvetica,sans-Serif" font-size="10.00">Instruction &gt;</text>
</g>
<!-- Node14&#45;&gt;Node11 -->
<g id="edge14" class="edge"><title>Node14&#45;&gt;Node11</title>
<path fill="none" stroke="#9a32cd" stroke-dasharray="5,2" d="M734.078,-237.026C771.863,-230.793 815.364,-222.197 854,-210.993 880.953,-203.177 910.706,-190.404 929.837,-181.619"/>
<polygon fill="#9a32cd" stroke="#9a32cd" points="733.406,-233.589 724.093,-238.641 734.523,-240.499 733.406,-233.589"/>
<text text-anchor="middle" x="798" y="-238.993" font-family="Helvetica,sans-Serif" font-size="10.00"> myUserInstructionMap</text>
</g>
<!-- Node15 -->
<g id="node15" class="node"><title>Node15</title>
<polygon fill="white" stroke="#bfbfbf" points="573,-196.493 573,-215.493 701,-215.493 701,-196.493 573,-196.493"/>
<text text-anchor="middle" x="637" y="-203.493" font-family="Helvetica,sans-Serif" font-size="10.00">Map&lt; String, Double &gt;</text>
</g>
<!-- Node15&#45;&gt;Node11 -->
<g id="edge15" class="edge"><title>Node15&#45;&gt;Node11</title>
<path fill="none" stroke="#9a32cd" stroke-dasharray="5,2" d="M711.462,-198.931C753.269,-194.807 806.597,-189.369 854,-183.993 860.926,-183.208 868.129,-182.361 875.338,-181.495"/>
<polygon fill="#9a32cd" stroke="#9a32cd" points="710.975,-195.462 701.366,-199.924 711.66,-202.428 710.975,-195.462"/>
<text text-anchor="middle" x="798" y="-198.993" font-family="Helvetica,sans-Serif" font-size="10.00"> myVariableMap</text>
</g>
<!-- Node16 -->
<g id="node16" class="node"><title>Node16</title>
<polygon fill="white" stroke="#bfbfbf" points="1201,-438.493 1201,-457.493 1349,-457.493 1349,-438.493 1201,-438.493"/>
<text text-anchor="middle" x="1275" y="-445.493" font-family="Helvetica,sans-Serif" font-size="10.00">TableView&lt; view.Property &gt;</text>
</g>
<!-- Node16&#45;&gt;Node8 -->
<g id="edge16" class="edge"><title>Node16&#45;&gt;Node8</title>
<path fill="none" stroke="#9a32cd" stroke-dasharray="5,2" d="M1322.4,-435.84C1340.34,-431.286 1361.08,-426.199 1380,-421.993 1432.16,-410.398 1458.56,-435.036 1498,-398.993 1519.18,-379.638 1497.52,-358.939 1516,-336.993 1519.2,-333.191 1523.35,-330.087 1527.73,-327.573"/>
<polygon fill="#9a32cd" stroke="#9a32cd" points="1321.29,-432.511 1312.47,-438.378 1323.02,-439.293 1321.29,-432.511"/>
<text text-anchor="middle" x="1439" y="-435.993" font-family="Helvetica,sans-Serif" font-size="10.00"> myTurtlePropertiesTable</text>
<text text-anchor="middle" x="1439" y="-424.993" font-family="Helvetica,sans-Serif" font-size="10.00">myVariablesTable</text>
</g>
<!-- Node17&#45;&gt;Node8 -->
<g id="edge17" class="edge"><title>Node17&#45;&gt;Node8</title>
<path fill="none" stroke="#9a32cd" stroke-dasharray="5,2" d="M1323.98,-480C1341.56,-475.726 1361.65,-470.986 1380,-466.993 1432.21,-455.635 1460.71,-482.26 1498,-443.993 1531.66,-409.456 1487.12,-375.614 1516,-336.993 1518.89,-333.133 1522.77,-330.015 1526.96,-327.51"/>
<polygon fill="#9a32cd" stroke="#9a32cd" points="1322.83,-476.678 1313.94,-482.453 1324.49,-483.478 1322.83,-476.678"/>
<text text-anchor="middle" x="1439" y="-469.993" font-family="Helvetica,sans-Serif" font-size="10.00"> myParser</text>
</g>
<!-- Node17&#45;&gt;Node24 -->
<g id="edge41" class="edge"><title>Node17&#45;&gt;Node24</title>
<path fill="none" stroke="#9a32cd" stroke-dasharray="5,2" d="M1325.59,-499.809C1389.06,-508.251 1502.05,-518.002 1596,-497.993 1666.84,-482.907 1858.85,-403.427 1916,-363.993 1939.28,-347.927 1960.97,-322.319 1971.8,-308.53"/>
<polygon fill="#9a32cd" stroke="#9a32cd" points="1325.84,-496.311 1315.46,-498.416 1324.89,-503.246 1325.84,-496.311"/>
<text text-anchor="middle" x="1649" y="-495.993" font-family="Helvetica,sans-Serif" font-size="10.00"> myParser</text>
</g>
<!-- Node17&#45;&gt;Node26 -->
<g id="edge36" class="edge"><title>Node17&#45;&gt;Node26</title>
<path fill="none" stroke="#9a32cd" stroke-dasharray="5,2" d="M1325.4,-494.412C1404.81,-496.362 1564.07,-492.179 1684,-436.993 1710.76,-424.68 1737.12,-401.883 1750.98,-388.838"/>
<polygon fill="#9a32cd" stroke="#9a32cd" points="1325.3,-490.908 1315.2,-494.117 1325.09,-497.905 1325.3,-490.908"/>
<text text-anchor="middle" x="1556" y="-485.993" font-family="Helvetica,sans-Serif" font-size="10.00"> myParser</text>
</g>
<!-- Node18 -->
<g id="node18" class="node"><title>Node18</title>
<polygon fill="white" stroke="#bfbfbf" points="607,-509.493 607,-528.493 667,-528.493 667,-509.493 607,-509.493"/>
<text text-anchor="middle" x="637" y="-516.493" font-family="Helvetica,sans-Serif" font-size="10.00">Observer</text>
</g>
<!-- Node18&#45;&gt;Node17 -->
<g id="edge18" class="edge"><title>Node18&#45;&gt;Node17</title>
<path fill="none" stroke="midnightblue" d="M677.284,-523.731C765.979,-533.417 988.188,-551.998 1170,-519.993 1195.41,-515.519 1223.65,-507.732 1244.28,-501.504"/>
<polygon fill="midnightblue" stroke="midnightblue" points="677.468,-520.23 667.141,-522.598 676.69,-527.187 677.468,-520.23"/>
</g>
<!-- Node18&#45;&gt;Node20 -->
<g id="edge22" class="edge"><title>Node18&#45;&gt;Node20</title>
<path fill="none" stroke="midnightblue" d="M675.843,-506.16C721.919,-490.736 802.231,-464.498 872,-444.993 883.812,-441.691 896.72,-438.414 908.575,-435.535"/>
<polygon fill="midnightblue" stroke="midnightblue" points="674.638,-502.873 666.272,-509.373 676.866,-509.509 674.638,-502.873"/>
</g>
<!-- Node19 -->
<g id="node19" class="node"><title>Node19</title>
<polygon fill="white" stroke="#bfbfbf" points="895,-492.993 895,-522.993 1007,-522.993 1007,-492.993 895,-492.993"/>
<text text-anchor="start" x="903" y="-510.993" font-family="Helvetica,sans-Serif" font-size="10.00">List&lt; Entry&lt; String,</text>
<text text-anchor="middle" x="951" y="-499.993" font-family="Helvetica,sans-Serif" font-size="10.00"> Pattern &gt; &gt;</text>
</g>
<!-- Node19&#45;&gt;Node17 -->
<g id="edge19" class="edge"><title>Node19&#45;&gt;Node17</title>
<path fill="none" stroke="#9a32cd" stroke-dasharray="5,2" d="M1017.26,-506.821C1060.6,-505.816 1118.73,-504.032 1170,-500.993 1191.35,-499.728 1215.11,-497.717 1234.53,-495.916"/>
<polygon fill="#9a32cd" stroke="#9a32cd" points="1017.06,-503.325 1007.14,-507.048 1017.21,-510.323 1017.06,-503.325"/>
<text text-anchor="middle" x="1109" y="-507.993" font-family="Helvetica,sans-Serif" font-size="10.00"> myPatterns</text>
</g>
<!-- Node20&#45;&gt;Node17 -->
<g id="edge21" class="edge"><title>Node20&#45;&gt;Node17</title>
<path fill="none" stroke="#9a32cd" stroke-dasharray="5,2" d="M1011.11,-429.574C1055.62,-433.483 1117.7,-441.544 1170,-457.993 1178.53,-460.676 1179.67,-463.731 1188,-466.993 1203.35,-473.003 1220.73,-478.323 1235.83,-482.493"/>
<polygon fill="#9a32cd" stroke="#9a32cd" points="1011.3,-426.077 1001.05,-428.734 1010.72,-433.053 1011.3,-426.077"/>
<text text-anchor="middle" x="1109" y="-460.993" font-family="Helvetica,sans-Serif" font-size="10.00"> myViewUpdater</text>
</g>
<!-- Node21&#45;&gt;Node20 -->
<g id="edge24" class="edge"><title>Node21&#45;&gt;Node20</title>
<path fill="none" stroke="#9a32cd" stroke-dasharray="5,2" d="M678.189,-554.254C692.723,-549.434 709.195,-543.722 724,-537.993 782.836,-515.225 808.28,-524.464 854,-480.993 866.964,-468.667 858.012,-456.144 872,-444.993 880.283,-438.39 890.522,-434.033 900.826,-431.17"/>
<polygon fill="#9a32cd" stroke="#9a32cd" points="676.893,-550.995 668.481,-557.438 679.074,-557.647 676.893,-550.995"/>
<text text-anchor="middle" x="798" y="-533.993" font-family="Helvetica,sans-Serif" font-size="10.00"> myDrawer</text>
</g>
<!-- Node21&#45;&gt;Node24 -->
<g id="edge43" class="edge"><title>Node21&#45;&gt;Node24</title>
<path fill="none" stroke="#9a32cd" stroke-dasharray="5,2" d="M683.986,-573.233C744.756,-580.925 855.2,-592.993 950,-592.993 950,-592.993 950,-592.993 1763,-592.993 1832.66,-592.993 1866.28,-607.778 1916,-558.993 1953.05,-522.644 1973.43,-351.589 1978,-308.743"/>
<polygon fill="#9a32cd" stroke="#9a32cd" points="684.315,-569.746 673.951,-571.945 683.424,-576.689 684.315,-569.746"/>
<text text-anchor="middle" x="1439" y="-595.993" font-family="Helvetica,sans-Serif" font-size="10.00"> drawer</text>
</g>
<!-- Node22 -->
<g id="node22" class="node"><title>Node22</title>
<polygon fill="white" stroke="#bfbfbf" points="378.5,-557.493 378.5,-576.493 419.5,-576.493 419.5,-557.493 378.5,-557.493"/>
<text text-anchor="middle" x="399" y="-564.493" font-family="Helvetica,sans-Serif" font-size="10.00">Color</text>
</g>
<!-- Node22&#45;&gt;Node21 -->
<g id="edge26" class="edge"><title>Node22&#45;&gt;Node21</title>
<path fill="none" stroke="#9a32cd" stroke-dasharray="5,2" d="M429.919,-566.993C473.357,-566.993 553.759,-566.993 600.256,-566.993"/>
<polygon fill="#9a32cd" stroke="#9a32cd" points="429.715,-563.493 419.715,-566.993 429.715,-570.493 429.715,-563.493"/>
<text text-anchor="middle" x="497" y="-569.993" font-family="Helvetica,sans-Serif" font-size="10.00"> myColor</text>
</g>
<!-- Node23 -->
<g id="node23" class="node"><title>Node23</title>
<polygon fill="white" stroke="#bfbfbf" points="890,-454.493 890,-473.493 1012,-473.493 1012,-454.493 890,-454.493"/>
<text text-anchor="middle" x="951" y="-461.493" font-family="Helvetica,sans-Serif" font-size="10.00">Map&lt; String, String &gt;</text>
</g>
<!-- Node23&#45;&gt;Node17 -->
<g id="edge28" class="edge"><title>Node23&#45;&gt;Node17</title>
<path fill="none" stroke="#9a32cd" stroke-dasharray="5,2" d="M1022.39,-470.114C1087.6,-475.784 1182.21,-484.011 1234.88,-488.591"/>
<polygon fill="#9a32cd" stroke="#9a32cd" points="1022.45,-466.606 1012.19,-469.227 1021.85,-473.58 1022.45,-466.606"/>
<text text-anchor="middle" x="1109" y="-484.993" font-family="Helvetica,sans-Serif" font-size="10.00"> myCommandMap</text>
</g>
<!-- Node24&#45;&gt;Node17 -->
<g id="edge29" class="edge"><title>Node24&#45;&gt;Node17</title>
<path fill="none" stroke="#9a32cd" stroke-dasharray="5,2" d="M1976.67,-318.798C1970.19,-370.029 1950.16,-504.757 1916,-530.993 1821.54,-603.548 1497.15,-552.496 1380,-530.993 1349.27,-525.354 1315.79,-511.234 1295.34,-501.625"/>
<polygon fill="#9a32cd" stroke="#9a32cd" points="1980.16,-319.041 1977.91,-308.69 1973.22,-318.19 1980.16,-319.041"/>
<text text-anchor="middle" x="1649" y="-569.993" font-family="Helvetica,sans-Serif" font-size="10.00"> mySLogoView</text>
</g>
<!-- Node25 -->
<g id="node25" class="node"><title>Node25</title>
<polygon fill="white" stroke="#bfbfbf" points="1739.5,-115.493 1739.5,-134.493 1784.5,-134.493 1784.5,-115.493 1739.5,-115.493"/>
<text text-anchor="middle" x="1762" y="-122.493" font-family="Helvetica,sans-Serif" font-size="10.00">Stage</text>
</g>
<!-- Node25&#45;&gt;Node24 -->
<g id="edge31" class="edge"><title>Node25&#45;&gt;Node24</title>
<path fill="none" stroke="#9a32cd" stroke-dasharray="5,2" d="M1794.92,-118.63C1828.46,-113.843 1881.11,-111.947 1916,-137.993 1966.75,-175.88 1976.64,-260.686 1978.55,-289.33"/>
<polygon fill="#9a32cd" stroke="#9a32cd" points="1794.07,-115.221 1784.75,-120.254 1795.17,-122.134 1794.07,-115.221"/>
<text text-anchor="middle" x="1878" y="-140.993" font-family="Helvetica,sans-Serif" font-size="10.00"> myStage</text>
</g>
<!-- Node26&#45;&gt;Node24 -->
<g id="edge33" class="edge"><title>Node26&#45;&gt;Node24</title>
<path fill="none" stroke="#9a32cd" stroke-dasharray="5,2" d="M1798.67,-365.783C1842.19,-349.664 1914.71,-322.803 1953.19,-308.553"/>
<polygon fill="#9a32cd" stroke="#9a32cd" points="1797.22,-362.588 1789.05,-369.343 1799.65,-369.152 1797.22,-362.588"/>
<text text-anchor="middle" x="1878" y="-351.993" font-family="Helvetica,sans-Serif" font-size="10.00"> myEditor</text>
</g>
<!-- Node27 -->
<g id="node27" class="node"><title>Node27</title>
<polygon fill="white" stroke="#bfbfbf" points="1535,-346.493 1535,-365.493 1577,-365.493 1577,-346.493 1535,-346.493"/>
<text text-anchor="middle" x="1556" y="-353.493" font-family="Helvetica,sans-Serif" font-size="10.00">HBox</text>
</g>
<!-- Node27&#45;&gt;Node26 -->
<g id="edge34" class="edge"><title>Node27&#45;&gt;Node26</title>
<path fill="none" stroke="midnightblue" d="M1587.71,-359.455C1625.59,-363.726 1689.71,-370.955 1728.43,-375.32"/>
<polygon fill="midnightblue" stroke="midnightblue" points="1587.64,-355.925 1577.31,-358.282 1586.85,-362.881 1587.64,-355.925"/>
</g>
<!-- Node28 -->
<g id="node28" class="node"><title>Node28</title>
<polygon fill="white" stroke="#bfbfbf" points="1531.5,-422.493 1531.5,-441.493 1580.5,-441.493 1580.5,-422.493 1531.5,-422.493"/>
<text text-anchor="middle" x="1556" y="-429.493" font-family="Helvetica,sans-Serif" font-size="10.00">Button</text>
</g>
<!-- Node28&#45;&gt;Node26 -->
<g id="edge35" class="edge"><title>Node28&#45;&gt;Node26</title>
<path fill="none" stroke="#9a32cd" stroke-dasharray="5,2" d="M1590.6,-425.953C1616.35,-421.06 1652.66,-413.583 1684,-404.993 1701.28,-400.256 1720.37,-393.82 1735.21,-388.537"/>
<polygon fill="#9a32cd" stroke="#9a32cd" points="1589.79,-422.545 1580.6,-427.825 1591.08,-429.426 1589.79,-422.545"/>
<text text-anchor="middle" x="1649" y="-424.993" font-family="Helvetica,sans-Serif" font-size="10.00"> runButton</text>
</g>
<!-- Node29 -->
<g id="node29" class="node"><title>Node29</title>
<polygon fill="white" stroke="#bfbfbf" points="1527,-384.493 1527,-403.493 1585,-403.493 1585,-384.493 1527,-384.493"/>
<text text-anchor="middle" x="1556" y="-391.493" font-family="Helvetica,sans-Serif" font-size="10.00">TextArea</text>
</g>
<!-- Node29&#45;&gt;Node26 -->
<g id="edge37" class="edge"><title>Node29&#45;&gt;Node26</title>
<path fill="none" stroke="#9a32cd" stroke-dasharray="5,2" d="M1595.64,-391.152C1634.08,-388.326 1692.38,-384.039 1728.5,-381.383"/>
<polygon fill="#9a32cd" stroke="#9a32cd" points="1595.08,-387.683 1585.37,-391.907 1595.6,-394.665 1595.08,-387.683"/>
<text text-anchor="middle" x="1649" y="-392.993" font-family="Helvetica,sans-Serif" font-size="10.00"> textEditor</text>
</g>
<!-- Node30 -->
<g id="node30" class="node"><title>Node30</title>
<polygon fill="white" stroke="#bfbfbf" points="1702.5,-39.4931 1702.5,-58.4931 1821.5,-58.4931 1821.5,-39.4931 1702.5,-39.4931"/>
<text text-anchor="middle" x="1762" y="-46.4931" font-family="Helvetica,sans-Serif" font-size="10.00">Map&lt; String, Node &gt;</text>
</g>
<!-- Node30&#45;&gt;Node24 -->
<g id="edge39" class="edge"><title>Node30&#45;&gt;Node24</title>
<path fill="none" stroke="#9a32cd" stroke-dasharray="5,2" d="M1824.93,-38.7441C1855.58,-37.2084 1891.23,-41.2159 1916,-61.9931 1952.29,-92.4289 1973.09,-248.99 1977.91,-289.444"/>
<polygon fill="#9a32cd" stroke="#9a32cd" points="1824.48,-35.2671 1814.75,-39.4612 1824.97,-42.2498 1824.48,-35.2671"/>
<text text-anchor="middle" x="1878" y="-64.9931" font-family="Helvetica,sans-Serif" font-size="10.00"> variables</text>
</g>
<!-- Node31 -->
<g id="node31" class="node"><title>Node31</title>
<polygon fill="white" stroke="#bfbfbf" points="1721.5,-1.49306 1721.5,-20.4931 1802.5,-20.4931 1802.5,-1.49306 1721.5,-1.49306"/>
<text text-anchor="middle" x="1762" y="-8.49306" font-family="Helvetica,sans-Serif" font-size="10.00">Dimension2D</text>
</g>
<!-- Node31&#45;&gt;Node24 -->
<g id="edge42" class="edge"><title>Node31&#45;&gt;Node24</title>
<path fill="none" stroke="#9a32cd" stroke-dasharray="5,2" d="M1812.7,-1.37145C1845.81,2.02943 1888.18,0.166454 1916,-23.9931 1957.6,-60.1265 1974.74,-245.175 1978.28,-289.462"/>
<polygon fill="#9a32cd" stroke="#9a32cd" points="1812.26,2.10042 1802.75,-2.57703 1813.1,-4.84876 1812.26,2.10042"/>
<text text-anchor="middle" x="1878" y="-26.9931" font-family="Helvetica,sans-Serif" font-size="10.00"> myDimensions</text>
</g>
<!-- Node32 -->
<g id="node32" class="node"><title>Node32</title>
<polygon fill="white" stroke="#bfbfbf" points="1206,-277.493 1206,-296.493 1344,-296.493 1344,-277.493 1206,-277.493"/>
<text text-anchor="middle" x="1275" y="-284.493" font-family="Helvetica,sans-Serif" font-size="10.00">ObservableList&lt; String &gt;</text>
</g>
<!-- Node32&#45;&gt;Node8 -->
<g id="edge45" class="edge"><title>Node32&#45;&gt;Node8</title>
<path fill="none" stroke="#9a32cd" stroke-dasharray="5,2" d="M1354.16,-279.037C1397.19,-276.804 1451.21,-277.551 1498,-288.993 1513.53,-292.791 1529.62,-301.492 1540.73,-308.378"/>
<polygon fill="#9a32cd" stroke="#9a32cd" points="1353.81,-275.551 1344.03,-279.628 1354.22,-282.54 1353.81,-275.551"/>
<text text-anchor="middle" x="1439" y="-302.993" font-family="Helvetica,sans-Serif" font-size="10.00"> myCommandItems</text>
<text text-anchor="middle" x="1439" y="-291.993" font-family="Helvetica,sans-Serif" font-size="10.00">myHistoryItems</text>
</g>
<!-- Node33 -->
<g id="node33" class="node"><title>Node33</title>
<polygon fill="white" stroke="#bfbfbf" points="142.5,-244.493 142.5,-263.493 205.5,-263.493 205.5,-244.493 142.5,-244.493"/>
<text text-anchor="middle" x="174" y="-251.493" font-family="Helvetica,sans-Serif" font-size="10.00">Rectangle</text>
</g>
<!-- Node33&#45;&gt;Node1 -->
<g id="edge46" class="edge"><title>Node33&#45;&gt;Node1</title>
<path fill="none" stroke="#9a32cd" stroke-dasharray="5,2" d="M215.871,-258.879C249.132,-263.79 296.813,-272.987 336,-288.993 354.365,-296.494 373.37,-309.336 385.416,-318.223"/>
<polygon fill="#9a32cd" stroke="#9a32cd" points="215.999,-255.363 205.608,-257.432 215.022,-262.294 215.999,-255.363"/>
<text text-anchor="middle" x="298" y="-291.993" font-family="Helvetica,sans-Serif" font-size="10.00"> myBackground</text>
</g>
</g>
</svg>
