<?xml version="1.0" encoding="UTF-8" standalone="no"?>
<!DOCTYPE svg PUBLIC "-//W3C//DTD SVG 1.1//EN"
 "http://www.w3.org/Graphics/SVG/1.1/DTD/svg11.dtd">
<!-- Generated by graphviz version 2.36.0 (20140111.2315)
 -->
<!-- Title: view.Workspace Pages: 1 -->
<svg width="1708pt" height="603pt"
 viewBox="0.00 0.00 1708.00 603.00" xmlns="http://www.w3.org/2000/svg" xmlns:xlink="http://www.w3.org/1999/xlink">
<g id="graph0" class="graph" transform="scale(1 1) rotate(0) translate(4 599)">
<title>view.Workspace</title>
<polygon fill="white" stroke="none" points="-4,4 -4,-599 1704,-599 1704,4 -4,4"/>
<!-- Node1 -->
<g id="node1" class="node"><title>Node1</title>
<polygon fill="#bfbfbf" stroke="black" points="396,-125.5 396,-144.5 486,-144.5 486,-125.5 396,-125.5"/>
<text text-anchor="middle" x="441" y="-132.5" font-family="Helvetica,sans-Serif" font-size="10.00">view.Workspace</text>
</g>
<!-- Node17 -->
<g id="node17" class="node"><title>Node17</title>
<g id="a_node17"><a xlink:href="../../d6/de7/classview_1_1_s_logo_view.html" target="_top" xlink:title="view.SLogoView">
<polygon fill="white" stroke="black" points="709.5,-401.5 709.5,-420.5 800.5,-420.5 800.5,-401.5 709.5,-401.5"/>
<text text-anchor="middle" x="755" y="-408.5" font-family="Helvetica,sans-Serif" font-size="10.00">view.SLogoView</text>
</a>
</g>
</g>
<!-- Node1&#45;&gt;Node17 -->
<g id="edge18" class="edge"><title>Node1&#45;&gt;Node17</title>
<path fill="none" stroke="#9a32cd" stroke-dasharray="5,2" d="M491.241,-147.491C541.603,-162.979 617.963,-194.515 658,-251 687.916,-293.206 646.73,-323.343 676,-366 687.587,-382.887 707.741,-394.275 724.659,-401.369"/>
<polygon fill="#9a32cd" stroke="#9a32cd" points="492.117,-144.1 481.534,-144.605 490.122,-150.81 492.117,-144.1"/>
<text text-anchor="middle" x="602" y="-254" font-family="Helvetica,sans-Serif" font-size="10.00"> myWorkspace</text>
</g>
<!-- Node2 -->
<g id="node2" class="node"><title>Node2</title>
<polygon fill="white" stroke="#bfbfbf" points="140.5,-90.5 140.5,-109.5 207.5,-109.5 207.5,-90.5 140.5,-90.5"/>
<text text-anchor="middle" x="174" y="-97.5" font-family="Helvetica,sans-Serif" font-size="10.00">StackPane</text>
</g>
<!-- Node2&#45;&gt;Node1 -->
<g id="edge1" class="edge"><title>Node2&#45;&gt;Node1</title>
<path fill="none" stroke="midnightblue" d="M217.707,-105.641C266.616,-112.1 346.352,-122.631 395.856,-129.17"/>
<polygon fill="midnightblue" stroke="midnightblue" points="218.132,-102.166 207.76,-104.327 217.216,-109.106 218.132,-102.166"/>
</g>
<!-- Node3 -->
<g id="node3" class="node"><title>Node3</title>
<g id="a_node3"><a xlink:href="../../d8/df7/classview_1_1_turtle_view.html" target="_top" xlink:title="view.TurtleView">
<polygon fill="white" stroke="black" points="131,-52.5 131,-71.5 217,-71.5 217,-52.5 131,-52.5"/>
<text text-anchor="middle" x="174" y="-59.5" font-family="Helvetica,sans-Serif" font-size="10.00">view.TurtleView</text>
</a>
</g>
</g>
<!-- Node3&#45;&gt;Node1 -->
<g id="edge2" class="edge"><title>Node3&#45;&gt;Node1</title>
<path fill="none" stroke="#9a32cd" stroke-dasharray="5,2" d="M227.428,-65.4887C260.35,-69.5317 302.722,-78.2437 336,-97 346.134,-102.711 343.876,-110.271 354,-116 366.642,-123.154 381.745,-127.614 395.741,-130.396"/>
<polygon fill="#9a32cd" stroke="#9a32cd" points="227.422,-61.9663 217.095,-64.3333 226.644,-68.9229 227.422,-61.9663"/>
<text text-anchor="middle" x="298" y="-100" font-family="Helvetica,sans-Serif" font-size="10.00"> myActiveTurtle</text>
</g>
<!-- Node4 -->
<g id="node4" class="node"><title>Node4</title>
<polygon fill="white" stroke="#bfbfbf" points="0,-52.5 0,-71.5 68,-71.5 68,-52.5 0,-52.5"/>
<text text-anchor="middle" x="34" y="-59.5" font-family="Helvetica,sans-Serif" font-size="10.00">ImageView</text>
</g>
<!-- Node4&#45;&gt;Node3 -->
<g id="edge3" class="edge"><title>Node4&#45;&gt;Node3</title>
<path fill="none" stroke="midnightblue" d="M78.1527,-62C94.936,-62 114.104,-62 130.796,-62"/>
<polygon fill="midnightblue" stroke="midnightblue" points="78.0545,-58.5001 68.0544,-62 78.0544,-65.5001 78.0545,-58.5001"/>
</g>
<!-- Node5 -->
<g id="node5" class="node"><title>Node5</title>
<polygon fill="white" stroke="#bfbfbf" points="106,-180 106,-210 242,-210 242,-180 106,-180"/>
<text text-anchor="start" x="114" y="-198" font-family="Helvetica,sans-Serif" font-size="10.00">Map&lt; Integer, view.Turtle</text>
<text text-anchor="middle" x="174" y="-187" font-family="Helvetica,sans-Serif" font-size="10.00">View &gt;</text>
</g>
<!-- Node5&#45;&gt;Node1 -->
<g id="edge4" class="edge"><title>Node5&#45;&gt;Node1</title>
<path fill="none" stroke="#9a32cd" stroke-dasharray="5,2" d="M232.987,-177.157C241.993,-174.614 251.22,-172.14 260,-170 305.931,-158.806 359.143,-148.822 395.734,-142.41"/>
<polygon fill="#9a32cd" stroke="#9a32cd" points="231.978,-173.805 223.333,-179.93 233.911,-180.533 231.978,-173.805"/>
<text text-anchor="middle" x="298" y="-173" font-family="Helvetica,sans-Serif" font-size="10.00"> myTurtles</text>
</g>
<!-- Node6 -->
<g id="node6" class="node"><title>Node6</title>
<g id="a_node6"><a xlink:href="../../d1/dc7/classview_1_1_side_bar.html" target="_top" xlink:title="view.SideBar">
<polygon fill="white" stroke="black" points="1462.5,-305.5 1462.5,-324.5 1539.5,-324.5 1539.5,-305.5 1462.5,-305.5"/>
<text text-anchor="middle" x="1501" y="-312.5" font-family="Helvetica,sans-Serif" font-size="10.00">view.SideBar</text>
</a>
</g>
</g>
<!-- Node5&#45;&gt;Node6 -->
<g id="edge37" class="edge"><title>Node5&#45;&gt;Node6</title>
<path fill="none" stroke="#9a32cd" stroke-dasharray="5,2" d="M252.439,-191.534C437.966,-184.204 922.323,-170.839 1324,-210 1377.97,-215.261 1403.92,-195.48 1444,-232 1465.84,-251.901 1443.18,-273.224 1462,-296 1465.1,-299.752 1469.13,-302.833 1473.4,-305.339"/>
<polygon fill="#9a32cd" stroke="#9a32cd" points="252.091,-188.045 242.239,-191.943 252.371,-195.039 252.091,-188.045"/>
<text text-anchor="middle" x="913" y="-192" font-family="Helvetica,sans-Serif" font-size="10.00"> myTurtles</text>
</g>
<!-- Node5&#45;&gt;Node17 -->
<g id="edge30" class="edge"><title>Node5&#45;&gt;Node17</title>
<path fill="none" stroke="#9a32cd" stroke-dasharray="5,2" d="M184.295,-219.415C205.345,-270.743 262.095,-388.894 354,-435 482.408,-499.419 663.925,-444.296 729.321,-420.57"/>
<polygon fill="#9a32cd" stroke="#9a32cd" points="187.525,-218.066 180.561,-210.081 181.026,-220.666 187.525,-218.066"/>
<text text-anchor="middle" x="441" y="-468" font-family="Helvetica,sans-Serif" font-size="10.00"> myTurtles</text>
</g>
<!-- Node6&#45;&gt;Node1 -->
<g id="edge5" class="edge"><title>Node6&#45;&gt;Node1</title>
<path fill="none" stroke="#9a32cd" stroke-dasharray="5,2" d="M1464.56,-299.053C1463.64,-298.091 1462.78,-297.074 1462,-296 1430.55,-252.735 1480.06,-216.51 1444,-177 1382.6,-109.72 1336.09,-128 1245,-128 754,-128 754,-128 754,-128 658.507,-128 546.616,-131.318 486.169,-133.385"/>
<polygon fill="#9a32cd" stroke="#9a32cd" points="1462.6,-301.966 1472.62,-305.412 1466.94,-296.47 1462.6,-301.966"/>
<text text-anchor="middle" x="1032" y="-131" font-family="Helvetica,sans-Serif" font-size="10.00"> mySidebar</text>
</g>
<!-- Node6&#45;&gt;Node17 -->
<g id="edge34" class="edge"><title>Node6&#45;&gt;Node17</title>
<path fill="none" stroke="#9a32cd" stroke-dasharray="5,2" d="M1486.72,-332.683C1478.97,-343.437 1469.31,-357.632 1462,-371 1452.25,-388.817 1460.43,-401.057 1444,-413 1341.59,-487.455 936.974,-437.222 800.911,-417.755"/>
<polygon fill="#9a32cd" stroke="#9a32cd" points="1489.59,-334.686 1492.68,-324.553 1483.94,-330.544 1489.59,-334.686"/>
<text text-anchor="middle" x="1118" y="-453" font-family="Helvetica,sans-Serif" font-size="10.00"> mySidebar</text>
</g>
<!-- Node20 -->
<g id="node20" class="node"><title>Node20</title>
<g id="a_node20"><a xlink:href="../../da/dc8/classview_1_1_editor.html" target="_top" xlink:title="view.Editor">
<polygon fill="white" stroke="black" points="1632.5,-285.5 1632.5,-304.5 1699.5,-304.5 1699.5,-285.5 1632.5,-285.5"/>
<text text-anchor="middle" x="1666" y="-292.5" font-family="Helvetica,sans-Serif" font-size="10.00">view.Editor</text>
</a>
</g>
</g>
<!-- Node6&#45;&gt;Node20 -->
<g id="edge26" class="edge"><title>Node6&#45;&gt;Node20</title>
<path fill="none" stroke="#9a32cd" stroke-dasharray="5,2" d="M1550.03,-309.107C1576.54,-305.854 1608.77,-301.899 1632.36,-299.005"/>
<polygon fill="#9a32cd" stroke="#9a32cd" points="1549.3,-305.669 1539.81,-310.361 1550.16,-312.617 1549.3,-305.669"/>
<text text-anchor="middle" x="1586" y="-311" font-family="Helvetica,sans-Serif" font-size="10.00"> mySidebar</text>
</g>
<!-- Node7 -->
<g id="node7" class="node"><title>Node7</title>
<polygon fill="white" stroke="#bfbfbf" points="1223.5,-80.5 1223.5,-99.5 1264.5,-99.5 1264.5,-80.5 1223.5,-80.5"/>
<text text-anchor="middle" x="1244" y="-87.5" font-family="Helvetica,sans-Serif" font-size="10.00">VBox</text>
</g>
<!-- Node7&#45;&gt;Node6 -->
<g id="edge6" class="edge"><title>Node7&#45;&gt;Node6</title>
<path fill="none" stroke="midnightblue" d="M1274.5,-83.4508C1318.23,-75.6673 1399.81,-68.8548 1444,-114 1472.43,-143.045 1438.96,-262.523 1462,-296 1464.59,-299.767 1468.16,-302.824 1472.07,-305.293"/>
<polygon fill="midnightblue" stroke="midnightblue" points="1273.66,-80.0478 1264.5,-85.3673 1274.98,-86.9227 1273.66,-80.0478"/>
</g>
<!-- Node8 -->
<g id="node8" class="node"><title>Node8</title>
<g id="a_node8"><a xlink:href="../../d4/dd9/classcontroller_1_1_s_logo_controller.html" target="_top" xlink:title="controller.SLogoController">
<polygon fill="white" stroke="black" points="1174,-395.5 1174,-414.5 1314,-414.5 1314,-395.5 1174,-395.5"/>
<text text-anchor="middle" x="1244" y="-402.5" font-family="Helvetica,sans-Serif" font-size="10.00">controller.SLogoController</text>
</a>
</g>
</g>
<!-- Node8&#45;&gt;Node6 -->
<g id="edge7" class="edge"><title>Node8&#45;&gt;Node6</title>
<path fill="none" stroke="#9a32cd" stroke-dasharray="5,2" d="M1324.07,-400.848C1370.31,-397.308 1423.52,-390.982 1444,-380 1467.89,-367.187 1486.12,-339.739 1494.66,-324.942"/>
<polygon fill="#9a32cd" stroke="#9a32cd" points="1323.73,-397.363 1314.01,-401.583 1324.24,-404.345 1323.73,-397.363"/>
<text text-anchor="middle" x="1393" y="-401" font-family="Helvetica,sans-Serif" font-size="10.00"> myController</text>
</g>
<!-- Node8&#45;&gt;Node17 -->
<g id="edge28" class="edge"><title>Node8&#45;&gt;Node17</title>
<path fill="none" stroke="#9a32cd" stroke-dasharray="5,2" d="M1163.54,-405.979C1060.12,-407.253 882.884,-409.437 800.509,-410.452"/>
<polygon fill="#9a32cd" stroke="#9a32cd" points="1163.67,-409.478 1173.62,-405.855 1163.58,-402.478 1163.67,-409.478"/>
<text text-anchor="middle" x="1032" y="-411" font-family="Helvetica,sans-Serif" font-size="10.00"> myController</text>
</g>
<!-- Node8&#45;&gt;Node20 -->
<g id="edge24" class="edge"><title>Node8&#45;&gt;Node20</title>
<path fill="none" stroke="#9a32cd" stroke-dasharray="5,2" d="M1304.16,-415.973C1344.21,-421.321 1398,-424.424 1444,-413 1530.53,-391.507 1620.2,-328.769 1652.48,-304.625"/>
<polygon fill="#9a32cd" stroke="#9a32cd" points="1304.42,-412.475 1294.03,-414.533 1303.44,-419.405 1304.42,-412.475"/>
<text text-anchor="middle" x="1501" y="-410" font-family="Helvetica,sans-Serif" font-size="10.00"> myController</text>
</g>
<!-- Node9 -->
<g id="node9" class="node"><title>Node9</title>
<g id="a_node9"><a xlink:href="../../dc/df5/classmodel_1_1_parser.html" target="_top" xlink:title="model.Parser">
<polygon fill="white" stroke="black" points="992,-310.5 992,-329.5 1072,-329.5 1072,-310.5 992,-310.5"/>
<text text-anchor="middle" x="1032" y="-317.5" font-family="Helvetica,sans-Serif" font-size="10.00">model.Parser</text>
</a>
</g>
</g>
<!-- Node9&#45;&gt;Node8 -->
<g id="edge8" class="edge"><title>Node9&#45;&gt;Node8</title>
<path fill="none" stroke="#9a32cd" stroke-dasharray="5,2" d="M1058.22,-334.537C1084.09,-348.955 1125.83,-370.88 1164,-385 1174.88,-389.025 1186.9,-392.523 1198.2,-395.419"/>
<polygon fill="#9a32cd" stroke="#9a32cd" points="1059.88,-331.452 1049.45,-329.593 1056.44,-337.551 1059.88,-331.452"/>
<text text-anchor="middle" x="1118" y="-380" font-family="Helvetica,sans-Serif" font-size="10.00"> myParser</text>
</g>
<!-- Node10 -->
<g id="node10" class="node"><title>Node10</title>
<polygon fill="white" stroke="#bfbfbf" points="411,-249.5 411,-268.5 471,-268.5 471,-249.5 411,-249.5"/>
<text text-anchor="middle" x="441" y="-256.5" font-family="Helvetica,sans-Serif" font-size="10.00">Observer</text>
</g>
<!-- Node10&#45;&gt;Node9 -->
<g id="edge9" class="edge"><title>Node10&#45;&gt;Node9</title>
<path fill="none" stroke="midnightblue" d="M481.3,-259.857C552.002,-261.654 705.275,-266.715 834,-279 896.451,-284.96 913.305,-281.133 974,-297 986.595,-300.293 1000.13,-305.671 1010.85,-310.398"/>
<polygon fill="midnightblue" stroke="midnightblue" points="481.161,-256.352 471.078,-259.605 480.989,-263.35 481.161,-256.352"/>
</g>
<!-- Node10&#45;&gt;Node17 -->
<g id="edge17" class="edge"><title>Node10&#45;&gt;Node17</title>
<path fill="none" stroke="midnightblue" d="M481.238,-260.514C536.365,-263.455 632.835,-271.845 658,-295 681.956,-317.043 656.353,-340.043 676,-366 688.643,-382.704 709.421,-394.25 726.354,-401.462"/>
<polygon fill="midnightblue" stroke="midnightblue" points="481.286,-257.012 471.124,-260.01 480.938,-264.003 481.286,-257.012"/>
</g>
<!-- Node11 -->
<g id="node11" class="node"><title>Node11</title>
<polygon fill="white" stroke="#bfbfbf" points="699,-327 699,-357 811,-357 811,-327 699,-327"/>
<text text-anchor="start" x="707" y="-345" font-family="Helvetica,sans-Serif" font-size="10.00">List&lt; Entry&lt; String,</text>
<text text-anchor="middle" x="755" y="-334" font-family="Helvetica,sans-Serif" font-size="10.00"> Pattern &gt; &gt;</text>
</g>
<!-- Node11&#45;&gt;Node9 -->
<g id="edge10" class="edge"><title>Node11&#45;&gt;Node9</title>
<path fill="none" stroke="#9a32cd" stroke-dasharray="5,2" d="M821.31,-336.775C874.334,-332.533 947.352,-326.692 991.753,-323.14"/>
<polygon fill="#9a32cd" stroke="#9a32cd" points="821.009,-333.288 811.32,-337.574 821.567,-340.266 821.009,-333.288"/>
<text text-anchor="middle" x="913" y="-338" font-family="Helvetica,sans-Serif" font-size="10.00"> myPatterns</text>
</g>
<!-- Node12 -->
<g id="node12" class="node"><title>Node12</title>
<g id="a_node12"><a xlink:href="../../d1/dca/classmodel_1_1_execution_environment.html" target="_top" xlink:title="model.ExecutionEnvironment">
<polygon fill="white" stroke="black" points="676.5,-65.5 676.5,-84.5 833.5,-84.5 833.5,-65.5 676.5,-65.5"/>
<text text-anchor="middle" x="755" y="-72.5" font-family="Helvetica,sans-Serif" font-size="10.00">model.ExecutionEnvironment</text>
</a>
</g>
</g>
<!-- Node12&#45;&gt;Node9 -->
<g id="edge11" class="edge"><title>Node12&#45;&gt;Node9</title>
<path fill="none" stroke="#9a32cd" stroke-dasharray="5,2" d="M824.299,-86.8981C872.006,-98.5082 934.065,-120.705 974,-162 1016.37,-205.811 1027.55,-283.397 1030.23,-310.409"/>
<polygon fill="#9a32cd" stroke="#9a32cd" points="824.883,-83.4405 814.349,-84.5783 823.293,-90.2577 824.883,-83.4405"/>
<text text-anchor="middle" x="913" y="-165" font-family="Helvetica,sans-Serif" font-size="10.00"> myExecutionParameters</text>
</g>
<!-- Node13 -->
<g id="node13" class="node"><title>Node13</title>
<polygon fill="white" stroke="#bfbfbf" points="405.5,-49.5 405.5,-68.5 476.5,-68.5 476.5,-49.5 405.5,-49.5"/>
<text text-anchor="middle" x="441" y="-56.5" font-family="Helvetica,sans-Serif" font-size="10.00">Observable</text>
</g>
<!-- Node13&#45;&gt;Node12 -->
<g id="edge12" class="edge"><title>Node13&#45;&gt;Node12</title>
<path fill="none" stroke="midnightblue" d="M486.637,-61.2891C536.066,-63.8239 616.658,-67.9568 676.457,-71.0234"/>
<polygon fill="midnightblue" stroke="midnightblue" points="486.748,-57.7902 476.582,-60.7734 486.389,-64.7811 486.748,-57.7902"/>
</g>
<!-- Node14 -->
<g id="node14" class="node"><title>Node14</title>
<polygon fill="white" stroke="#bfbfbf" points="354,-0 354,-30 528,-30 528,-0 354,-0"/>
<text text-anchor="start" x="362" y="-18" font-family="Helvetica,sans-Serif" font-size="10.00">Map&lt; String, model.instructions.</text>
<text text-anchor="middle" x="441" y="-7" font-family="Helvetica,sans-Serif" font-size="10.00">Instruction &gt;</text>
</g>
<!-- Node14&#45;&gt;Node12 -->
<g id="edge13" class="edge"><title>Node14&#45;&gt;Node12</title>
<path fill="none" stroke="#9a32cd" stroke-dasharray="5,2" d="M537.942,-28.5629C575.529,-34.3935 618.929,-41.7662 658,-50 678.897,-54.4038 702.073,-60.4069 720.418,-65.4268"/>
<polygon fill="#9a32cd" stroke="#9a32cd" points="538.427,-25.0965 528.012,-27.0372 537.364,-32.0153 538.427,-25.0965"/>
<text text-anchor="middle" x="602" y="-53" font-family="Helvetica,sans-Serif" font-size="10.00"> myUserInstructionMap</text>
</g>
<!-- Node15 -->
<g id="node15" class="node"><title>Node15</title>
<polygon fill="white" stroke="#bfbfbf" points="377,-87.5 377,-106.5 505,-106.5 505,-87.5 377,-87.5"/>
<text text-anchor="middle" x="441" y="-94.5" font-family="Helvetica,sans-Serif" font-size="10.00">Map&lt; String, Double &gt;</text>
</g>
<!-- Node15&#45;&gt;Node12 -->
<g id="edge14" class="edge"><title>Node15&#45;&gt;Node12</title>
<path fill="none" stroke="#9a32cd" stroke-dasharray="5,2" d="M515.23,-91.8364C563.637,-88.4231 627.011,-83.9544 676.303,-80.4786"/>
<polygon fill="#9a32cd" stroke="#9a32cd" points="514.867,-88.3532 505.138,-92.548 515.359,-95.3358 514.867,-88.3532"/>
<text text-anchor="middle" x="602" y="-93" font-family="Helvetica,sans-Serif" font-size="10.00"> myVariableMap</text>
</g>
<!-- Node16 -->
<g id="node16" class="node"><title>Node16</title>
<polygon fill="white" stroke="#bfbfbf" points="694,-288.5 694,-307.5 816,-307.5 816,-288.5 694,-288.5"/>
<text text-anchor="middle" x="755" y="-295.5" font-family="Helvetica,sans-Serif" font-size="10.00">Map&lt; String, String &gt;</text>
</g>
<!-- Node16&#45;&gt;Node9 -->
<g id="edge15" class="edge"><title>Node16&#45;&gt;Node9</title>
<path fill="none" stroke="#9a32cd" stroke-dasharray="5,2" d="M826.341,-299.754C869.138,-301.347 924.844,-304.355 974,-310 979.789,-310.665 985.881,-311.542 991.841,-312.5"/>
<polygon fill="#9a32cd" stroke="#9a32cd" points="826.425,-296.255 816.307,-299.398 826.177,-303.251 826.425,-296.255"/>
<text text-anchor="middle" x="913" y="-313" font-family="Helvetica,sans-Serif" font-size="10.00"> myCommandMap</text>
</g>
<!-- Node17&#45;&gt;Node9 -->
<g id="edge16" class="edge"><title>Node17&#45;&gt;Node9</title>
<path fill="none" stroke="#9a32cd" stroke-dasharray="5,2" d="M792.176,-398.1C810.062,-391.938 832.042,-384.686 852,-379 905.6,-363.728 921.819,-369.577 974,-350 988.658,-344.501 1004.33,-336.044 1015.53,-329.509"/>
<polygon fill="#9a32cd" stroke="#9a32cd" points="790.996,-394.805 782.7,-401.395 793.294,-401.417 790.996,-394.805"/>
<text text-anchor="middle" x="913" y="-382" font-family="Helvetica,sans-Serif" font-size="10.00"> mySLogoView</text>
</g>
<!-- Node18 -->
<g id="node18" class="node"><title>Node18</title>
<polygon fill="white" stroke="#bfbfbf" points="418.5,-491.5 418.5,-510.5 463.5,-510.5 463.5,-491.5 418.5,-491.5"/>
<text text-anchor="middle" x="441" y="-498.5" font-family="Helvetica,sans-Serif" font-size="10.00">Stage</text>
</g>
<!-- Node18&#45;&gt;Node17 -->
<g id="edge19" class="edge"><title>Node18&#45;&gt;Node17</title>
<path fill="none" stroke="#9a32cd" stroke-dasharray="5,2" d="M473.79,-501.971C516.903,-502.261 595.679,-499.117 658,-476 692.534,-463.19 726.751,-435.479 743.458,-420.717"/>
<polygon fill="#9a32cd" stroke="#9a32cd" points="473.676,-498.469 463.63,-501.833 473.581,-505.468 473.676,-498.469"/>
<text text-anchor="middle" x="602" y="-501" font-family="Helvetica,sans-Serif" font-size="10.00"> myStage</text>
</g>
<!-- Node19 -->
<g id="node19" class="node"><title>Node19</title>
<polygon fill="white" stroke="#bfbfbf" points="394.5,-406.5 394.5,-425.5 487.5,-425.5 487.5,-406.5 394.5,-406.5"/>
<text text-anchor="middle" x="441" y="-413.5" font-family="Helvetica,sans-Serif" font-size="10.00">ResourceBundle</text>
</g>
<!-- Node19&#45;&gt;Node17 -->
<g id="edge20" class="edge"><title>Node19&#45;&gt;Node17</title>
<path fill="none" stroke="#9a32cd" stroke-dasharray="5,2" d="M497.841,-415.105C558.364,-414.135 653.735,-412.607 709.44,-411.714"/>
<polygon fill="#9a32cd" stroke="#9a32cd" points="497.644,-411.608 487.702,-415.268 497.756,-418.607 497.644,-411.608"/>
<text text-anchor="middle" x="602" y="-417" font-family="Helvetica,sans-Serif" font-size="10.00"> myResources</text>
</g>
<!-- Node20&#45;&gt;Node17 -->
<g id="edge21" class="edge"><title>Node20&#45;&gt;Node17</title>
<path fill="none" stroke="#9a32cd" stroke-dasharray="5,2" d="M1659.52,-314.305C1643.98,-364.457 1594.64,-495 1502,-495 1031,-495 1031,-495 1031,-495 930.16,-495 817.238,-442.7 774.086,-420.636"/>
<polygon fill="#9a32cd" stroke="#9a32cd" points="1662.9,-315.23 1662.4,-304.646 1656.19,-313.23 1662.9,-315.23"/>
<text text-anchor="middle" x="1244" y="-498" font-family="Helvetica,sans-Serif" font-size="10.00"> myEditor</text>
</g>
<!-- Node21 -->
<g id="node21" class="node"><title>Node21</title>
<polygon fill="white" stroke="#bfbfbf" points="1480,-267.5 1480,-286.5 1522,-286.5 1522,-267.5 1480,-267.5"/>
<text text-anchor="middle" x="1501" y="-274.5" font-family="Helvetica,sans-Serif" font-size="10.00">HBox</text>
</g>
<!-- Node21&#45;&gt;Node20 -->
<g id="edge22" class="edge"><title>Node21&#45;&gt;Node20</title>
<path fill="none" stroke="midnightblue" d="M1532.47,-280.365C1560.9,-283.504 1603.17,-288.172 1632.29,-291.388"/>
<polygon fill="midnightblue" stroke="midnightblue" points="1532.64,-276.862 1522.31,-279.243 1531.87,-283.82 1532.64,-276.862"/>
</g>
<!-- Node22 -->
<g id="node22" class="node"><title>Node22</title>
<polygon fill="white" stroke="#bfbfbf" points="1476.5,-229.5 1476.5,-248.5 1525.5,-248.5 1525.5,-229.5 1476.5,-229.5"/>
<text text-anchor="middle" x="1501" y="-236.5" font-family="Helvetica,sans-Serif" font-size="10.00">Button</text>
</g>
<!-- Node22&#45;&gt;Node20 -->
<g id="edge23" class="edge"><title>Node22&#45;&gt;Node20</title>
<path fill="none" stroke="#9a32cd" stroke-dasharray="5,2" d="M1535.41,-246.011C1557.98,-251.217 1588.25,-259.114 1614,-269 1625.88,-273.56 1638.63,-280.06 1648.41,-285.42"/>
<polygon fill="#9a32cd" stroke="#9a32cd" points="1536.14,-242.589 1525.62,-243.811 1534.61,-249.419 1536.14,-242.589"/>
<text text-anchor="middle" x="1586" y="-272" font-family="Helvetica,sans-Serif" font-size="10.00"> runButton</text>
</g>
<!-- Node23 -->
<g id="node23" class="node"><title>Node23</title>
<polygon fill="white" stroke="#bfbfbf" points="1472,-191.5 1472,-210.5 1530,-210.5 1530,-191.5 1472,-191.5"/>
<text text-anchor="middle" x="1501" y="-198.5" font-family="Helvetica,sans-Serif" font-size="10.00">TextArea</text>
</g>
<!-- Node23&#45;&gt;Node20 -->
<g id="edge25" class="edge"><title>Node23&#45;&gt;Node20</title>
<path fill="none" stroke="#9a32cd" stroke-dasharray="5,2" d="M1540.06,-207.882C1562.84,-213.256 1591.63,-222.337 1614,-237 1633.74,-249.938 1650.44,-272.5 1658.95,-285.338"/>
<polygon fill="#9a32cd" stroke="#9a32cd" points="1540.57,-204.412 1530.05,-205.667 1539.06,-211.246 1540.57,-204.412"/>
<text text-anchor="middle" x="1586" y="-240" font-family="Helvetica,sans-Serif" font-size="10.00"> textEditor</text>
</g>
<!-- Node24 -->
<g id="node24" class="node"><title>Node24</title>
<polygon fill="white" stroke="#bfbfbf" points="381.5,-368.5 381.5,-387.5 500.5,-387.5 500.5,-368.5 381.5,-368.5"/>
<text text-anchor="middle" x="441" y="-375.5" font-family="Helvetica,sans-Serif" font-size="10.00">Map&lt; String, Node &gt;</text>
</g>
<!-- Node24&#45;&gt;Node17 -->
<g id="edge27" class="edge"><title>Node24&#45;&gt;Node17</title>
<path fill="none" stroke="#9a32cd" stroke-dasharray="5,2" d="M510.991,-383.06C553.45,-386.424 608.95,-391.271 658,-397 674.729,-398.954 693.037,-401.518 709.138,-403.917"/>
<polygon fill="#9a32cd" stroke="#9a32cd" points="511.008,-379.551 500.765,-382.258 510.461,-386.529 511.008,-379.551"/>
<text text-anchor="middle" x="602" y="-400" font-family="Helvetica,sans-Serif" font-size="10.00"> variables</text>
</g>
<!-- Node25 -->
<g id="node25" class="node"><title>Node25</title>
<polygon fill="white" stroke="#bfbfbf" points="400.5,-330.5 400.5,-349.5 481.5,-349.5 481.5,-330.5 400.5,-330.5"/>
<text text-anchor="middle" x="441" y="-337.5" font-family="Helvetica,sans-Serif" font-size="10.00">Dimension2D</text>
</g>
<!-- Node25&#45;&gt;Node17 -->
<g id="edge29" class="edge"><title>Node25&#45;&gt;Node17</title>
<path fill="none" stroke="#9a32cd" stroke-dasharray="5,2" d="M491.87,-343.153C536.146,-346.839 602.275,-354.529 658,-370 686.115,-377.806 716.837,-392.01 735.766,-401.477"/>
<polygon fill="#9a32cd" stroke="#9a32cd" points="491.905,-339.645 481.659,-342.342 491.35,-346.623 491.905,-339.645"/>
<text text-anchor="middle" x="602" y="-373" font-family="Helvetica,sans-Serif" font-size="10.00"> myDimensions</text>
</g>
<!-- Node26 -->
<g id="node26" class="node"><title>Node26</title>
<polygon fill="white" stroke="#bfbfbf" points="413,-292.5 413,-311.5 469,-311.5 469,-292.5 413,-292.5"/>
<text text-anchor="middle" x="441" y="-299.5" font-family="Helvetica,sans-Serif" font-size="10.00">TabPane</text>
</g>
<!-- Node26&#45;&gt;Node17 -->
<g id="edge31" class="edge"><title>Node26&#45;&gt;Node17</title>
<path fill="none" stroke="#9a32cd" stroke-dasharray="5,2" d="M479.516,-297.797C525.711,-294.62 604.594,-295.912 658,-333 671.722,-342.53 664.329,-354.046 676,-366 691.399,-381.772 713.498,-393.822 730.244,-401.464"/>
<polygon fill="#9a32cd" stroke="#9a32cd" points="479.035,-294.324 469.344,-298.606 479.59,-301.302 479.035,-294.324"/>
<text text-anchor="middle" x="602" y="-336" font-family="Helvetica,sans-Serif" font-size="10.00"> myTabPane</text>
</g>
<!-- Node27 -->
<g id="node27" class="node"><title>Node27</title>
<g id="a_node27"><a xlink:href="../../de/d0a/classview_1_1_drawer.html" target="_top" xlink:title="view.Drawer">
<polygon fill="white" stroke="black" points="404.5,-529.5 404.5,-548.5 477.5,-548.5 477.5,-529.5 404.5,-529.5"/>
<text text-anchor="middle" x="441" y="-536.5" font-family="Helvetica,sans-Serif" font-size="10.00">view.Drawer</text>
</a>
</g>
</g>
<!-- Node27&#45;&gt;Node17 -->
<g id="edge32" class="edge"><title>Node27&#45;&gt;Node17</title>
<path fill="none" stroke="#9a32cd" stroke-dasharray="5,2" d="M487.955,-542.279C533.549,-543.574 604.203,-540.174 658,-513 701.195,-491.181 735.244,-441.649 748.266,-420.673"/>
<polygon fill="#9a32cd" stroke="#9a32cd" points="487.899,-538.775 477.776,-541.9 487.639,-545.77 487.899,-538.775"/>
<text text-anchor="middle" x="602" y="-543" font-family="Helvetica,sans-Serif" font-size="10.00"> drawer</text>
</g>
<!-- Node28 -->
<g id="node28" class="node"><title>Node28</title>
<polygon fill="white" stroke="#bfbfbf" points="153.5,-529.5 153.5,-548.5 194.5,-548.5 194.5,-529.5 153.5,-529.5"/>
<text text-anchor="middle" x="174" y="-536.5" font-family="Helvetica,sans-Serif" font-size="10.00">Color</text>
</g>
<!-- Node28&#45;&gt;Node27 -->
<g id="edge33" class="edge"><title>Node28&#45;&gt;Node27</title>
<path fill="none" stroke="#9a32cd" stroke-dasharray="5,2" d="M205.216,-539C254.409,-539 351.589,-539 404.179,-539"/>
<polygon fill="#9a32cd" stroke="#9a32cd" points="204.918,-535.5 194.918,-539 204.918,-542.5 204.918,-535.5"/>
<text text-anchor="middle" x="298" y="-542" font-family="Helvetica,sans-Serif" font-size="10.00"> myColor</text>
</g>
<!-- Node29 -->
<g id="node29" class="node"><title>Node29</title>
<polygon fill="white" stroke="#bfbfbf" points="418,-567.5 418,-586.5 464,-586.5 464,-567.5 418,-567.5"/>
<text text-anchor="middle" x="441" y="-574.5" font-family="Helvetica,sans-Serif" font-size="10.00">Group</text>
</g>
<!-- Node29&#45;&gt;Node17 -->
<g id="edge35" class="edge"><title>Node29&#45;&gt;Node17</title>
<path fill="none" stroke="#9a32cd" stroke-dasharray="5,2" d="M474.119,-581.78C518.78,-586.74 600.607,-589.571 658,-555 711.792,-522.598 741.738,-447.124 750.92,-420.503"/>
<polygon fill="#9a32cd" stroke="#9a32cd" points="474.476,-578.298 464.126,-580.564 473.63,-585.247 474.476,-578.298"/>
<text text-anchor="middle" x="602" y="-587" font-family="Helvetica,sans-Serif" font-size="10.00"> lines</text>
</g>
<!-- Node30 -->
<g id="node30" class="node"><title>Node30</title>
<polygon fill="white" stroke="#bfbfbf" points="1177,-346 1177,-376 1311,-376 1311,-346 1177,-346"/>
<text text-anchor="start" x="1185" y="-364" font-family="Helvetica,sans-Serif" font-size="10.00">TableView&lt; view.Variable</text>
<text text-anchor="middle" x="1244" y="-353" font-family="Helvetica,sans-Serif" font-size="10.00">View &gt;</text>
</g>
<!-- Node30&#45;&gt;Node6 -->
<g id="edge36" class="edge"><title>Node30&#45;&gt;Node6</title>
<path fill="none" stroke="#9a32cd" stroke-dasharray="5,2" d="M1321.58,-357.082C1358.94,-353.927 1404.29,-348.241 1444,-338 1456.52,-334.772 1469.93,-329.336 1480.5,-324.559"/>
<polygon fill="#9a32cd" stroke="#9a32cd" points="1320.95,-353.621 1311.26,-357.907 1321.51,-360.599 1320.95,-353.621"/>
<text text-anchor="middle" x="1393" y="-368" font-family="Helvetica,sans-Serif" font-size="10.00"> turtlePropertiesTable</text>
<text text-anchor="middle" x="1393" y="-357" font-family="Helvetica,sans-Serif" font-size="10.00">variablesTable</text>
</g>
<!-- Node31 -->
<g id="node31" class="node"><title>Node31</title>
<polygon fill="white" stroke="#bfbfbf" points="1164.5,-258 1164.5,-288 1323.5,-288 1323.5,-258 1164.5,-258"/>
<text text-anchor="start" x="1172.5" y="-276" font-family="Helvetica,sans-Serif" font-size="10.00">ObservableList&lt; view.Variable</text>
<text text-anchor="middle" x="1244" y="-265" font-family="Helvetica,sans-Serif" font-size="10.00">View &gt;</text>
</g>
<!-- Node31&#45;&gt;Node6 -->
<g id="edge38" class="edge"><title>Node31&#45;&gt;Node6</title>
<path fill="none" stroke="#9a32cd" stroke-dasharray="5,2" d="M1333.83,-283.466C1368.36,-288.065 1408.16,-294.018 1444,-301 1450.59,-302.284 1457.57,-303.855 1464.28,-305.474"/>
<polygon fill="#9a32cd" stroke="#9a32cd" points="1334.14,-279.976 1323.77,-282.144 1333.22,-286.917 1334.14,-279.976"/>
<text text-anchor="middle" x="1393" y="-304" font-family="Helvetica,sans-Serif" font-size="10.00"> variablesList</text>
</g>
<!-- Node32 -->
<g id="node32" class="node"><title>Node32</title>
<polygon fill="white" stroke="#bfbfbf" points="1175,-307.5 1175,-326.5 1313,-326.5 1313,-307.5 1175,-307.5"/>
<text text-anchor="middle" x="1244" y="-314.5" font-family="Helvetica,sans-Serif" font-size="10.00">ObservableList&lt; String &gt;</text>
</g>
<!-- Node32&#45;&gt;Node6 -->
<g id="edge39" class="edge"><title>Node32&#45;&gt;Node6</title>
<path fill="none" stroke="#9a32cd" stroke-dasharray="5,2" d="M1323.13,-316.168C1329.51,-316.108 1335.87,-316.051 1342,-316 1383.15,-315.658 1430.32,-315.373 1462.33,-315.196"/>
<polygon fill="#9a32cd" stroke="#9a32cd" points="1323.07,-312.668 1313.1,-316.264 1323.13,-319.668 1323.07,-312.668"/>
<text text-anchor="middle" x="1393" y="-330" font-family="Helvetica,sans-Serif" font-size="10.00"> commandItems</text>
<text text-anchor="middle" x="1393" y="-319" font-family="Helvetica,sans-Serif" font-size="10.00">historyItems</text>
</g>
<!-- Node33 -->
<g id="node33" class="node"><title>Node33</title>
<polygon fill="white" stroke="#bfbfbf" points="1191,-219.5 1191,-238.5 1297,-238.5 1297,-219.5 1191,-219.5"/>
<text text-anchor="middle" x="1244" y="-226.5" font-family="Helvetica,sans-Serif" font-size="10.00">ListView&lt; String &gt;</text>
</g>
<!-- Node33&#45;&gt;Node6 -->
<g id="edge40" class="edge"><title>Node33&#45;&gt;Node6</title>
<path fill="none" stroke="#9a32cd" stroke-dasharray="5,2" d="M1307.16,-230.619C1348.81,-234.327 1403.28,-244.47 1444,-271 1455.47,-278.473 1451.57,-287.125 1462,-296 1466.27,-299.634 1471.35,-302.784 1476.39,-305.419"/>
<polygon fill="#9a32cd" stroke="#9a32cd" points="1307.37,-227.126 1297.13,-229.828 1306.82,-234.104 1307.37,-227.126"/>
<text text-anchor="middle" x="1393" y="-274" font-family="Helvetica,sans-Serif" font-size="10.00"> historyList</text>
</g>
<!-- Node34 -->
<g id="node34" class="node"><title>Node34</title>
<polygon fill="white" stroke="#bfbfbf" points="142.5,-128.5 142.5,-147.5 205.5,-147.5 205.5,-128.5 142.5,-128.5"/>
<text text-anchor="middle" x="174" y="-135.5" font-family="Helvetica,sans-Serif" font-size="10.00">Rectangle</text>
</g>
<!-- Node34&#45;&gt;Node1 -->
<g id="edge41" class="edge"><title>Node34&#45;&gt;Node1</title>
<path fill="none" stroke="#9a32cd" stroke-dasharray="5,2" d="M215.975,-136.887C229.942,-136.547 245.651,-136.209 260,-136 306.402,-135.325 359.539,-135.097 395.983,-135.024"/>
<polygon fill="#9a32cd" stroke="#9a32cd" points="215.595,-133.395 205.685,-137.145 215.77,-140.393 215.595,-133.395"/>
<text text-anchor="middle" x="298" y="-139" font-family="Helvetica,sans-Serif" font-size="10.00"> myBackground</text>
</g>
</g>
</svg>
