<?xml version="1.0" encoding="UTF-8" standalone="no"?>
<!DOCTYPE svg PUBLIC "-//W3C//DTD SVG 1.1//EN"
 "http://www.w3.org/Graphics/SVG/1.1/DTD/svg11.dtd">
<!-- Generated by graphviz version 2.36.0 (20140111.2315)
 -->
<!-- Title: model.Parser Pages: 1 -->
<svg width="1842pt" height="696pt"
 viewBox="0.00 0.00 1842.00 696.00" xmlns="http://www.w3.org/2000/svg" xmlns:xlink="http://www.w3.org/1999/xlink">
<g id="graph0" class="graph" transform="scale(1 1) rotate(0) translate(4 692)">
<title>model.Parser</title>
<polygon fill="white" stroke="none" points="-4,4 -4,-692 1838,-692 1838,4 -4,4"/>
<!-- Node1 -->
<g id="node1" class="node"><title>Node1</title>
<polygon fill="#bfbfbf" stroke="black" points="638,-601.5 638,-620.5 718,-620.5 718,-601.5 638,-601.5"/>
<text text-anchor="middle" x="678" y="-608.5" font-family="Helvetica,sans-Serif" font-size="10.00">model.Parser</text>
</g>
<!-- Node20 -->
<g id="node20" class="node"><title>Node20</title>
<g id="a_node20"><a xlink:href="../../d4/dd9/classcontroller_1_1_s_logo_controller.html" target="_top" xlink:title="controller.SLogoController">
<polygon fill="white" stroke="black" points="821,-554.5 821,-573.5 961,-573.5 961,-554.5 821,-554.5"/>
<text text-anchor="middle" x="891" y="-561.5" font-family="Helvetica,sans-Serif" font-size="10.00">controller.SLogoController</text>
</a>
</g>
</g>
<!-- Node1&#45;&gt;Node20 -->
<g id="edge22" class="edge"><title>Node1&#45;&gt;Node20</title>
<path fill="none" stroke="#9a32cd" stroke-dasharray="5,2" d="M728,-600.085C764.021,-592.062 812.507,-581.261 847.024,-573.573"/>
<polygon fill="#9a32cd" stroke="#9a32cd" points="727.193,-596.679 718.193,-602.27 728.715,-603.512 727.193,-596.679"/>
<text text-anchor="middle" x="761" y="-600" font-family="Helvetica,sans-Serif" font-size="10.00"> myParser</text>
</g>
<!-- Node2 -->
<g id="node2" class="node"><title>Node2</title>
<polygon fill="white" stroke="#bfbfbf" points="371,-668.5 371,-687.5 431,-687.5 431,-668.5 371,-668.5"/>
<text text-anchor="middle" x="401" y="-675.5" font-family="Helvetica,sans-Serif" font-size="10.00">Observer</text>
</g>
<!-- Node2&#45;&gt;Node1 -->
<g id="edge1" class="edge"><title>Node2&#45;&gt;Node1</title>
<path fill="none" stroke="midnightblue" d="M441.414,-675.463C485.835,-671.702 559.712,-662.71 620,-642 635.341,-636.73 651.459,-627.58 662.625,-620.583"/>
<polygon fill="midnightblue" stroke="midnightblue" points="441.01,-671.984 431.321,-676.27 441.568,-678.962 441.01,-671.984"/>
</g>
<!-- Node9 -->
<g id="node9" class="node"><title>Node9</title>
<g id="a_node9"><a xlink:href="../../d6/de7/classview_1_1_s_logo_view.html" target="_top" xlink:title="view.SLogoView">
<polygon fill="white" stroke="black" points="1742.5,-236.5 1742.5,-255.5 1833.5,-255.5 1833.5,-236.5 1742.5,-236.5"/>
<text text-anchor="middle" x="1788" y="-243.5" font-family="Helvetica,sans-Serif" font-size="10.00">view.SLogoView</text>
</a>
</g>
</g>
<!-- Node2&#45;&gt;Node9 -->
<g id="edge9" class="edge"><title>Node2&#45;&gt;Node9</title>
<path fill="none" stroke="midnightblue" d="M441.361,-678.932C494.741,-680.114 593.068,-682 677,-682 677,-682 677,-682 1571,-682 1651.51,-682 1682.11,-653.762 1724,-585 1759.42,-526.847 1781.64,-304.331 1786.15,-255.507"/>
<polygon fill="midnightblue" stroke="midnightblue" points="441.378,-675.432 431.301,-678.706 441.22,-682.43 441.378,-675.432"/>
</g>
<!-- Node3 -->
<g id="node3" class="node"><title>Node3</title>
<polygon fill="white" stroke="#bfbfbf" points="345,-577 345,-607 457,-607 457,-577 345,-577"/>
<text text-anchor="start" x="353" y="-595" font-family="Helvetica,sans-Serif" font-size="10.00">List&lt; Entry&lt; String,</text>
<text text-anchor="middle" x="401" y="-584" font-family="Helvetica,sans-Serif" font-size="10.00"> Pattern &gt; &gt;</text>
</g>
<!-- Node3&#45;&gt;Node1 -->
<g id="edge2" class="edge"><title>Node3&#45;&gt;Node1</title>
<path fill="none" stroke="#9a32cd" stroke-dasharray="5,2" d="M467.479,-590.456C510.903,-590.253 569.056,-591.553 620,-598 626.545,-598.828 633.441,-600.074 640.088,-601.472"/>
<polygon fill="#9a32cd" stroke="#9a32cd" points="467.304,-586.957 457.33,-590.532 467.356,-593.957 467.304,-586.957"/>
<text text-anchor="middle" x="559" y="-601" font-family="Helvetica,sans-Serif" font-size="10.00"> myPatterns</text>
</g>
<!-- Node4 -->
<g id="node4" class="node"><title>Node4</title>
<g id="a_node4"><a xlink:href="../../d1/dca/classmodel_1_1_execution_environment.html" target="_top" xlink:title="model.ExecutionEnvironment">
<polygon fill="white" stroke="black" points="322.5,-538.5 322.5,-557.5 479.5,-557.5 479.5,-538.5 322.5,-538.5"/>
<text text-anchor="middle" x="401" y="-545.5" font-family="Helvetica,sans-Serif" font-size="10.00">model.ExecutionEnvironment</text>
</a>
</g>
</g>
<!-- Node4&#45;&gt;Node1 -->
<g id="edge3" class="edge"><title>Node4&#45;&gt;Node1</title>
<path fill="none" stroke="#9a32cd" stroke-dasharray="5,2" d="M489.716,-550.097C530.319,-553.263 578.618,-560.209 620,-575 636.973,-581.067 654.152,-592.862 665.148,-601.298"/>
<polygon fill="#9a32cd" stroke="#9a32cd" points="489.792,-546.593 479.568,-549.371 489.292,-553.575 489.792,-546.593"/>
<text text-anchor="middle" x="559" y="-578" font-family="Helvetica,sans-Serif" font-size="10.00"> myExecutionParameters</text>
</g>
<!-- Node5 -->
<g id="node5" class="node"><title>Node5</title>
<polygon fill="white" stroke="#bfbfbf" points="51.5,-582.5 51.5,-601.5 122.5,-601.5 122.5,-582.5 51.5,-582.5"/>
<text text-anchor="middle" x="87" y="-589.5" font-family="Helvetica,sans-Serif" font-size="10.00">Observable</text>
</g>
<!-- Node5&#45;&gt;Node4 -->
<g id="edge4" class="edge"><title>Node5&#45;&gt;Node4</title>
<path fill="none" stroke="midnightblue" d="M132.845,-586.265C176.56,-580.608 244.897,-571.584 304,-563 315.769,-561.291 328.337,-559.385 340.37,-557.521"/>
<polygon fill="midnightblue" stroke="midnightblue" points="132.293,-582.807 122.824,-587.559 133.19,-589.75 132.293,-582.807"/>
</g>
<!-- Node6 -->
<g id="node6" class="node"><title>Node6</title>
<polygon fill="white" stroke="#bfbfbf" points="0,-533 0,-563 174,-563 174,-533 0,-533"/>
<text text-anchor="start" x="8" y="-551" font-family="Helvetica,sans-Serif" font-size="10.00">Map&lt; String, model.instructions.</text>
<text text-anchor="middle" x="87" y="-540" font-family="Helvetica,sans-Serif" font-size="10.00">Instruction &gt;</text>
</g>
<!-- Node6&#45;&gt;Node4 -->
<g id="edge5" class="edge"><title>Node6&#45;&gt;Node4</title>
<path fill="none" stroke="#9a32cd" stroke-dasharray="5,2" d="M184.305,-548C228.685,-548 280.655,-548 322.461,-548"/>
<polygon fill="#9a32cd" stroke="#9a32cd" points="184.081,-544.5 174.081,-548 184.081,-551.5 184.081,-544.5"/>
<text text-anchor="middle" x="248" y="-551" font-family="Helvetica,sans-Serif" font-size="10.00"> myUserInstructionMap</text>
</g>
<!-- Node7 -->
<g id="node7" class="node"><title>Node7</title>
<polygon fill="white" stroke="#bfbfbf" points="23,-494.5 23,-513.5 151,-513.5 151,-494.5 23,-494.5"/>
<text text-anchor="middle" x="87" y="-501.5" font-family="Helvetica,sans-Serif" font-size="10.00">Map&lt; String, Double &gt;</text>
</g>
<!-- Node7&#45;&gt;Node4 -->
<g id="edge6" class="edge"><title>Node7&#45;&gt;Node4</title>
<path fill="none" stroke="#9a32cd" stroke-dasharray="5,2" d="M161.472,-513.465C203.283,-518.952 256.61,-526.117 304,-533 315.769,-534.709 328.337,-536.615 340.37,-538.479"/>
<polygon fill="#9a32cd" stroke="#9a32cd" points="161.745,-509.971 151.375,-512.144 160.836,-516.912 161.745,-509.971"/>
<text text-anchor="middle" x="248" y="-536" font-family="Helvetica,sans-Serif" font-size="10.00"> myVariableMap</text>
</g>
<!-- Node8 -->
<g id="node8" class="node"><title>Node8</title>
<polygon fill="white" stroke="#bfbfbf" points="340,-626.5 340,-645.5 462,-645.5 462,-626.5 340,-626.5"/>
<text text-anchor="middle" x="401" y="-633.5" font-family="Helvetica,sans-Serif" font-size="10.00">Map&lt; String, String &gt;</text>
</g>
<!-- Node8&#45;&gt;Node1 -->
<g id="edge7" class="edge"><title>Node8&#45;&gt;Node1</title>
<path fill="none" stroke="#9a32cd" stroke-dasharray="5,2" d="M472.284,-629.611C524.88,-624.829 594.879,-618.466 637.895,-614.555"/>
<polygon fill="#9a32cd" stroke="#9a32cd" points="471.652,-626.153 462.01,-630.545 472.286,-633.125 471.652,-626.153"/>
<text text-anchor="middle" x="559" y="-630" font-family="Helvetica,sans-Serif" font-size="10.00"> myCommandMap</text>
</g>
<!-- Node9&#45;&gt;Node1 -->
<g id="edge8" class="edge"><title>Node9&#45;&gt;Node1</title>
<path fill="none" stroke="#9a32cd" stroke-dasharray="5,2" d="M1785.75,-266.147C1779.52,-347.053 1744.84,-644 1571,-644 890,-644 890,-644 890,-644 828.823,-644 758.853,-630.291 716.839,-620.545"/>
<polygon fill="#9a32cd" stroke="#9a32cd" points="1789.26,-266.059 1786.47,-255.838 1782.28,-265.568 1789.26,-266.059"/>
<text text-anchor="middle" x="1258" y="-647" font-family="Helvetica,sans-Serif" font-size="10.00"> mySLogoView</text>
</g>
<!-- Node10 -->
<g id="node10" class="node"><title>Node10</title>
<g id="a_node10"><a xlink:href="../../da/d64/classview_1_1_workspace.html" target="_top" xlink:title="view.Workspace">
<polygon fill="white" stroke="black" points="1314,-261.5 1314,-280.5 1404,-280.5 1404,-261.5 1314,-261.5"/>
<text text-anchor="middle" x="1359" y="-268.5" font-family="Helvetica,sans-Serif" font-size="10.00">view.Workspace</text>
</a>
</g>
</g>
<!-- Node10&#45;&gt;Node9 -->
<g id="edge10" class="edge"><title>Node10&#45;&gt;Node9</title>
<path fill="none" stroke="#9a32cd" stroke-dasharray="5,2" d="M1414.37,-264.223C1442.82,-260.926 1478.24,-257.207 1510,-255 1591.84,-249.313 1687.54,-247.209 1742.33,-246.438"/>
<polygon fill="#9a32cd" stroke="#9a32cd" points="1413.75,-260.772 1404.23,-265.416 1414.57,-267.724 1413.75,-260.772"/>
<text text-anchor="middle" x="1570" y="-258" font-family="Helvetica,sans-Serif" font-size="10.00"> myWorkspace</text>
</g>
<!-- Node15 -->
<g id="node15" class="node"><title>Node15</title>
<g id="a_node15"><a xlink:href="../../d1/dc7/classview_1_1_side_bar.html" target="_top" xlink:title="view.SideBar">
<polygon fill="white" stroke="black" points="1120.5,-236.5 1120.5,-255.5 1197.5,-255.5 1197.5,-236.5 1120.5,-236.5"/>
<text text-anchor="middle" x="1159" y="-243.5" font-family="Helvetica,sans-Serif" font-size="10.00">view.SideBar</text>
</a>
</g>
</g>
<!-- Node10&#45;&gt;Node15 -->
<g id="edge17" class="edge"><title>Node10&#45;&gt;Node15</title>
<path fill="none" stroke="#9a32cd" stroke-dasharray="5,2" d="M1334.73,-256.143C1323.5,-249.83 1309.54,-243.197 1296,-240 1263.45,-232.317 1225.34,-234.96 1197.75,-238.862"/>
<polygon fill="#9a32cd" stroke="#9a32cd" points="1333.07,-259.225 1343.46,-261.288 1336.62,-253.195 1333.07,-259.225"/>
<text text-anchor="middle" x="1258" y="-243" font-family="Helvetica,sans-Serif" font-size="10.00"> myWorkspace</text>
</g>
<!-- Node31 -->
<g id="node31" class="node"><title>Node31</title>
<g id="a_node31"><a xlink:href="../../de/d0a/classview_1_1_drawer.html" target="_top" xlink:title="view.Drawer">
<polygon fill="white" stroke="black" points="1533.5,-275.5 1533.5,-294.5 1606.5,-294.5 1606.5,-275.5 1533.5,-275.5"/>
<text text-anchor="middle" x="1570" y="-282.5" font-family="Helvetica,sans-Serif" font-size="10.00">view.Drawer</text>
</a>
</g>
</g>
<!-- Node10&#45;&gt;Node31 -->
<g id="edge40" class="edge"><title>Node10&#45;&gt;Node31</title>
<path fill="none" stroke="#9a32cd" stroke-dasharray="5,2" d="M1414.32,-274.639C1451.83,-277.152 1500.65,-280.422 1533.32,-282.61"/>
<polygon fill="#9a32cd" stroke="#9a32cd" points="1414.28,-271.128 1404.07,-273.952 1413.81,-278.113 1414.28,-271.128"/>
<text text-anchor="middle" x="1457" y="-283" font-family="Helvetica,sans-Serif" font-size="10.00"> myWorkspace</text>
</g>
<!-- Node11 -->
<g id="node11" class="node"><title>Node11</title>
<polygon fill="white" stroke="#bfbfbf" points="1125.5,-274.5 1125.5,-293.5 1192.5,-293.5 1192.5,-274.5 1125.5,-274.5"/>
<text text-anchor="middle" x="1159" y="-281.5" font-family="Helvetica,sans-Serif" font-size="10.00">StackPane</text>
</g>
<!-- Node11&#45;&gt;Node10 -->
<g id="edge11" class="edge"><title>Node11&#45;&gt;Node10</title>
<path fill="none" stroke="midnightblue" d="M1202.95,-283.427C1229.74,-282.82 1264.92,-281.571 1296,-279 1301.73,-278.526 1307.75,-277.905 1313.69,-277.219"/>
<polygon fill="midnightblue" stroke="midnightblue" points="1202.68,-279.931 1192.75,-283.636 1202.82,-286.93 1202.68,-279.931"/>
</g>
<!-- Node12 -->
<g id="node12" class="node"><title>Node12</title>
<g id="a_node12"><a xlink:href="../../d8/df7/classview_1_1_turtle_view.html" target="_top" xlink:title="view.TurtleView">
<polygon fill="white" stroke="black" points="1116,-72.5 1116,-91.5 1202,-91.5 1202,-72.5 1116,-72.5"/>
<text text-anchor="middle" x="1159" y="-79.5" font-family="Helvetica,sans-Serif" font-size="10.00">view.TurtleView</text>
</a>
</g>
</g>
<!-- Node12&#45;&gt;Node10 -->
<g id="edge12" class="edge"><title>Node12&#45;&gt;Node10</title>
<path fill="none" stroke="#9a32cd" stroke-dasharray="5,2" d="M1177.55,-98.7478C1217.78,-137.154 1315.69,-230.613 1347.69,-261.16"/>
<polygon fill="#9a32cd" stroke="#9a32cd" points="1179.74,-96.0054 1170.09,-91.6324 1174.91,-101.069 1179.74,-96.0054"/>
<text text-anchor="middle" x="1258" y="-213" font-family="Helvetica,sans-Serif" font-size="10.00"> myActiveTurtle</text>
</g>
<!-- Node13 -->
<g id="node13" class="node"><title>Node13</title>
<polygon fill="white" stroke="#bfbfbf" points="857,-71.5 857,-90.5 925,-90.5 925,-71.5 857,-71.5"/>
<text text-anchor="middle" x="891" y="-78.5" font-family="Helvetica,sans-Serif" font-size="10.00">ImageView</text>
</g>
<!-- Node13&#45;&gt;Node12 -->
<g id="edge13" class="edge"><title>Node13&#45;&gt;Node12</title>
<path fill="none" stroke="midnightblue" d="M935.273,-81.1627C985.051,-81.3498 1066.25,-81.6551 1115.64,-81.8407"/>
<polygon fill="midnightblue" stroke="midnightblue" points="935.164,-77.6623 925.151,-81.1246 935.138,-84.6623 935.164,-77.6623"/>
</g>
<!-- Node14 -->
<g id="node14" class="node"><title>Node14</title>
<polygon fill="white" stroke="#bfbfbf" points="823,-367 823,-397 959,-397 959,-367 823,-367"/>
<text text-anchor="start" x="831" y="-385" font-family="Helvetica,sans-Serif" font-size="10.00">Map&lt; Integer, view.Turtle</text>
<text text-anchor="middle" x="891" y="-374" font-family="Helvetica,sans-Serif" font-size="10.00">View &gt;</text>
</g>
<!-- Node14&#45;&gt;Node9 -->
<g id="edge38" class="edge"><title>Node14&#45;&gt;Node9</title>
<path fill="none" stroke="#9a32cd" stroke-dasharray="5,2" d="M969.202,-390.924C978.226,-391.743 987.31,-392.464 996,-393 1095.38,-399.131 1120.43,-396.111 1220,-397 1253.78,-397.302 1262.48,-401.164 1296,-397 1490.69,-372.816 1545.11,-369.541 1724,-289 1743.56,-280.193 1763.59,-265.313 1775.67,-255.573"/>
<polygon fill="#9a32cd" stroke="#9a32cd" points="969.347,-387.423 959.062,-389.964 968.687,-394.391 969.347,-387.423"/>
<text text-anchor="middle" x="1359" y="-398" font-family="Helvetica,sans-Serif" font-size="10.00"> myTurtles</text>
</g>
<!-- Node14&#45;&gt;Node10 -->
<g id="edge14" class="edge"><title>Node14&#45;&gt;Node10</title>
<path fill="none" stroke="#9a32cd" stroke-dasharray="5,2" d="M969.455,-392.948C1010.4,-394.913 1059.91,-390.912 1098,-368 1111,-360.18 1103.72,-347.907 1116,-339 1182.67,-290.646 1217.43,-319.695 1296,-295 1309.21,-290.847 1323.66,-285.314 1335.28,-280.607"/>
<polygon fill="#9a32cd" stroke="#9a32cd" points="969.437,-389.441 959.243,-392.328 969.012,-396.428 969.437,-389.441"/>
<text text-anchor="middle" x="1159" y="-342" font-family="Helvetica,sans-Serif" font-size="10.00"> myTurtles</text>
</g>
<!-- Node14&#45;&gt;Node15 -->
<g id="edge23" class="edge"><title>Node14&#45;&gt;Node15</title>
<path fill="none" stroke="#9a32cd" stroke-dasharray="5,2" d="M964.434,-364.513C1023.27,-350.24 1096.74,-332.232 1098,-331 1119.75,-309.755 1096.27,-288.135 1116,-265 1119.22,-261.225 1123.34,-258.163 1127.74,-255.692"/>
<polygon fill="#9a32cd" stroke="#9a32cd" points="963.28,-361.191 954.386,-366.948 964.93,-367.994 963.28,-361.191"/>
<text text-anchor="middle" x="1047" y="-359" font-family="Helvetica,sans-Serif" font-size="10.00"> myTurtles</text>
</g>
<!-- Node15&#45;&gt;Node9 -->
<g id="edge42" class="edge"><title>Node15&#45;&gt;Node9</title>
<path fill="none" stroke="#9a32cd" stroke-dasharray="5,2" d="M1204.51,-234.425C1209.71,-233.43 1214.95,-232.581 1220,-232 1253.56,-228.137 1262.23,-231.566 1296,-232 1486.27,-234.445 1533.84,-236.03 1724,-243 1729.91,-243.217 1736.13,-243.475 1742.26,-243.749"/>
<polygon fill="#9a32cd" stroke="#9a32cd" points="1203.73,-231.013 1194.66,-236.491 1205.17,-237.864 1203.73,-231.013"/>
<text text-anchor="middle" x="1457" y="-239" font-family="Helvetica,sans-Serif" font-size="10.00"> mySidebar</text>
</g>
<!-- Node15&#45;&gt;Node10 -->
<g id="edge15" class="edge"><title>Node15&#45;&gt;Node10</title>
<path fill="none" stroke="#9a32cd" stroke-dasharray="5,2" d="M1207.81,-252.037C1240.09,-256.112 1282.39,-261.453 1313.86,-265.427"/>
<polygon fill="#9a32cd" stroke="#9a32cd" points="1208.07,-248.541 1197.71,-250.761 1207.19,-255.486 1208.07,-248.541"/>
<text text-anchor="middle" x="1258" y="-266" font-family="Helvetica,sans-Serif" font-size="10.00"> mySidebar</text>
</g>
<!-- Node25 -->
<g id="node25" class="node"><title>Node25</title>
<g id="a_node25"><a xlink:href="../../da/dc8/classview_1_1_editor.html" target="_top" xlink:title="view.Editor">
<polygon fill="white" stroke="black" points="1325.5,-460.5 1325.5,-479.5 1392.5,-479.5 1392.5,-460.5 1325.5,-460.5"/>
<text text-anchor="middle" x="1359" y="-467.5" font-family="Helvetica,sans-Serif" font-size="10.00">view.Editor</text>
</a>
</g>
</g>
<!-- Node15&#45;&gt;Node25 -->
<g id="edge34" class="edge"><title>Node15&#45;&gt;Node25</title>
<path fill="none" stroke="#9a32cd" stroke-dasharray="5,2" d="M1199.3,-261.979C1200.26,-262.93 1201.17,-263.936 1202,-265 1229.28,-299.881 1196.99,-325.165 1220,-363 1235.68,-388.772 1310.37,-439.133 1342.85,-460.281"/>
<polygon fill="#9a32cd" stroke="#9a32cd" points="1201.05,-258.919 1190.96,-255.707 1196.85,-264.514 1201.05,-258.919"/>
<text text-anchor="middle" x="1258" y="-430" font-family="Helvetica,sans-Serif" font-size="10.00"> mySidebar</text>
</g>
<!-- Node16 -->
<g id="node16" class="node"><title>Node16</title>
<polygon fill="white" stroke="#bfbfbf" points="870.5,-281.5 870.5,-300.5 911.5,-300.5 911.5,-281.5 870.5,-281.5"/>
<text text-anchor="middle" x="891" y="-288.5" font-family="Helvetica,sans-Serif" font-size="10.00">VBox</text>
</g>
<!-- Node16&#45;&gt;Node15 -->
<g id="edge16" class="edge"><title>Node16&#45;&gt;Node15</title>
<path fill="none" stroke="midnightblue" d="M921.741,-289.272C962.075,-286.504 1036.18,-279.905 1098,-266 1109.78,-263.349 1122.52,-259.284 1133.21,-255.509"/>
<polygon fill="midnightblue" stroke="midnightblue" points="921.284,-285.795 911.534,-289.94 921.741,-292.78 921.284,-285.795"/>
</g>
<!-- Node17 -->
<g id="node17" class="node"><title>Node17</title>
<polygon fill="white" stroke="#bfbfbf" points="804.5,-243.5 804.5,-262.5 977.5,-262.5 977.5,-243.5 804.5,-243.5"/>
<text text-anchor="middle" x="891" y="-250.5" font-family="Helvetica,sans-Serif" font-size="10.00">ObservableList&lt; view.Property &gt;</text>
</g>
<!-- Node17&#45;&gt;Node15 -->
<g id="edge18" class="edge"><title>Node17&#45;&gt;Node15</title>
<path fill="none" stroke="#9a32cd" stroke-dasharray="5,2" d="M987.626,-250.484C1033.56,-249.275 1085.97,-247.896 1120.39,-246.99"/>
<polygon fill="#9a32cd" stroke="#9a32cd" points="987.533,-246.985 977.628,-250.747 987.717,-253.982 987.533,-246.985"/>
<text text-anchor="middle" x="1047" y="-254" font-family="Helvetica,sans-Serif" font-size="10.00"> variablesList</text>
</g>
<!-- Node18 -->
<g id="node18" class="node"><title>Node18</title>
<polygon fill="white" stroke="#bfbfbf" points="844.5,-117.5 844.5,-136.5 937.5,-136.5 937.5,-117.5 844.5,-117.5"/>
<text text-anchor="middle" x="891" y="-124.5" font-family="Helvetica,sans-Serif" font-size="10.00">ResourceBundle</text>
</g>
<!-- Node18&#45;&gt;Node9 -->
<g id="edge28" class="edge"><title>Node18&#45;&gt;Node9</title>
<path fill="none" stroke="#9a32cd" stroke-dasharray="5,2" d="M948.058,-121.725C989.524,-118.642 1047.35,-116.059 1098,-120 1350.17,-139.621 1647.41,-210.538 1750.01,-236.441"/>
<polygon fill="#9a32cd" stroke="#9a32cd" points="947.581,-118.251 937.882,-122.516 948.123,-125.23 947.581,-118.251"/>
<text text-anchor="middle" x="1359" y="-164" font-family="Helvetica,sans-Serif" font-size="10.00"> myResources</text>
</g>
<!-- Node18&#45;&gt;Node15 -->
<g id="edge19" class="edge"><title>Node18&#45;&gt;Node15</title>
<path fill="none" stroke="#9a32cd" stroke-dasharray="5,2" d="M948.109,-121.004C992.15,-119.092 1053.29,-122.858 1098,-151 1130.52,-171.469 1148.52,-216.692 1155.09,-236.45"/>
<polygon fill="#9a32cd" stroke="#9a32cd" points="947.658,-117.524 937.864,-121.564 948.04,-124.513 947.658,-117.524"/>
<text text-anchor="middle" x="1047" y="-154" font-family="Helvetica,sans-Serif" font-size="10.00"> myResources</text>
</g>
<!-- Node19 -->
<g id="node19" class="node"><title>Node19</title>
<polygon fill="white" stroke="#bfbfbf" points="817,-205.5 817,-224.5 965,-224.5 965,-205.5 817,-205.5"/>
<text text-anchor="middle" x="891" y="-212.5" font-family="Helvetica,sans-Serif" font-size="10.00">TableView&lt; view.Property &gt;</text>
</g>
<!-- Node19&#45;&gt;Node15 -->
<g id="edge20" class="edge"><title>Node19&#45;&gt;Node15</title>
<path fill="none" stroke="#9a32cd" stroke-dasharray="5,2" d="M975.637,-211.324C1013.38,-211.327 1058.31,-213.655 1098,-222 1112.27,-225.001 1127.52,-231.143 1139.08,-236.462"/>
<polygon fill="#9a32cd" stroke="#9a32cd" points="975.172,-207.826 965.192,-211.382 975.211,-214.826 975.172,-207.826"/>
<text text-anchor="middle" x="1047" y="-236" font-family="Helvetica,sans-Serif" font-size="10.00"> turtlePropertiesTable</text>
<text text-anchor="middle" x="1047" y="-225" font-family="Helvetica,sans-Serif" font-size="10.00">variablesTable</text>
</g>
<!-- Node20&#45;&gt;Node9 -->
<g id="edge36" class="edge"><title>Node20&#45;&gt;Node9</title>
<path fill="none" stroke="#9a32cd" stroke-dasharray="5,2" d="M971.54,-574.167C1014.28,-579.124 1067.93,-584.538 1116,-587 1347.39,-598.848 1410.3,-573.585 1630,-500 1673.22,-485.524 1693.82,-493.16 1724,-459 1778.89,-396.862 1786.02,-288.859 1786.89,-255.859"/>
<polygon fill="#9a32cd" stroke="#9a32cd" points="971.819,-570.676 961.479,-572.985 971.003,-577.628 971.819,-570.676"/>
<text text-anchor="middle" x="1359" y="-587" font-family="Helvetica,sans-Serif" font-size="10.00"> myController</text>
</g>
<!-- Node20&#45;&gt;Node15 -->
<g id="edge21" class="edge"><title>Node20&#45;&gt;Node15</title>
<path fill="none" stroke="#9a32cd" stroke-dasharray="5,2" d="M916.584,-548.902C960.907,-520.25 1053.71,-453.42 1098,-371 1120.62,-328.907 1086.81,-302.835 1116,-265 1118.93,-261.198 1122.8,-258.135 1127,-255.672"/>
<polygon fill="#9a32cd" stroke="#9a32cd" points="914.455,-546.108 907.897,-554.429 918.213,-552.014 914.455,-546.108"/>
<text text-anchor="middle" x="1047" y="-489" font-family="Helvetica,sans-Serif" font-size="10.00"> myController</text>
</g>
<!-- Node20&#45;&gt;Node25 -->
<g id="edge32" class="edge"><title>Node20&#45;&gt;Node25</title>
<path fill="none" stroke="#9a32cd" stroke-dasharray="5,2" d="M969.02,-552.965C1050.79,-540.537 1183.49,-518.323 1296,-490 1307.63,-487.073 1320.25,-483.141 1331.06,-479.538"/>
<polygon fill="#9a32cd" stroke="#9a32cd" points="968.425,-549.515 959.059,-554.469 969.47,-556.437 968.425,-549.515"/>
<text text-anchor="middle" x="1159" y="-530" font-family="Helvetica,sans-Serif" font-size="10.00"> myController</text>
</g>
<!-- Node21 -->
<g id="node21" class="node"><title>Node21</title>
<polygon fill="white" stroke="#bfbfbf" points="822,-163.5 822,-182.5 960,-182.5 960,-163.5 822,-163.5"/>
<text text-anchor="middle" x="891" y="-170.5" font-family="Helvetica,sans-Serif" font-size="10.00">ObservableList&lt; String &gt;</text>
</g>
<!-- Node21&#45;&gt;Node15 -->
<g id="edge24" class="edge"><title>Node21&#45;&gt;Node15</title>
<path fill="none" stroke="#9a32cd" stroke-dasharray="5,2" d="M970.503,-165.143C1010.32,-164.274 1058.49,-168.157 1098,-186 1122.17,-196.914 1142.01,-222.143 1151.67,-236.161"/>
<polygon fill="#9a32cd" stroke="#9a32cd" points="970.186,-161.651 960.304,-165.471 970.412,-168.647 970.186,-161.651"/>
<text text-anchor="middle" x="1047" y="-200" font-family="Helvetica,sans-Serif" font-size="10.00"> commandItems</text>
<text text-anchor="middle" x="1047" y="-189" font-family="Helvetica,sans-Serif" font-size="10.00">historyItems</text>
</g>
<!-- Node22 -->
<g id="node22" class="node"><title>Node22</title>
<polygon fill="white" stroke="#bfbfbf" points="838,-319.5 838,-338.5 944,-338.5 944,-319.5 838,-319.5"/>
<text text-anchor="middle" x="891" y="-326.5" font-family="Helvetica,sans-Serif" font-size="10.00">ListView&lt; String &gt;</text>
</g>
<!-- Node22&#45;&gt;Node15 -->
<g id="edge25" class="edge"><title>Node22&#45;&gt;Node15</title>
<path fill="none" stroke="#9a32cd" stroke-dasharray="5,2" d="M954.403,-321.882C1006,-315.094 1074.48,-303.73 1098,-289 1109.3,-281.923 1105.6,-273.343 1116,-265 1120.62,-261.294 1126.08,-258.143 1131.5,-255.536"/>
<polygon fill="#9a32cd" stroke="#9a32cd" points="953.798,-318.431 944.326,-323.178 954.691,-325.373 953.798,-318.431"/>
<text text-anchor="middle" x="1047" y="-319" font-family="Helvetica,sans-Serif" font-size="10.00"> historyList</text>
</g>
<!-- Node23 -->
<g id="node23" class="node"><title>Node23</title>
<polygon fill="white" stroke="#bfbfbf" points="1127.5,-359.5 1127.5,-378.5 1190.5,-378.5 1190.5,-359.5 1127.5,-359.5"/>
<text text-anchor="middle" x="1159" y="-366.5" font-family="Helvetica,sans-Serif" font-size="10.00">Rectangle</text>
</g>
<!-- Node23&#45;&gt;Node10 -->
<g id="edge26" class="edge"><title>Node23&#45;&gt;Node10</title>
<path fill="none" stroke="#9a32cd" stroke-dasharray="5,2" d="M1200.25,-357.571C1239.65,-346.321 1294.07,-330.595 1296,-329 1309.48,-317.853 1301.67,-306.41 1314,-294 1319.47,-288.496 1326.53,-284.02 1333.39,-280.528"/>
<polygon fill="#9a32cd" stroke="#9a32cd" points="1199.25,-354.216 1190.6,-360.324 1201.17,-360.948 1199.25,-354.216"/>
<text text-anchor="middle" x="1258" y="-355" font-family="Helvetica,sans-Serif" font-size="10.00"> myBackground</text>
</g>
<!-- Node24 -->
<g id="node24" class="node"><title>Node24</title>
<polygon fill="white" stroke="#bfbfbf" points="1547.5,-114.5 1547.5,-133.5 1592.5,-133.5 1592.5,-114.5 1547.5,-114.5"/>
<text text-anchor="middle" x="1570" y="-121.5" font-family="Helvetica,sans-Serif" font-size="10.00">Stage</text>
</g>
<!-- Node24&#45;&gt;Node9 -->
<g id="edge27" class="edge"><title>Node24&#45;&gt;Node9</title>
<path fill="none" stroke="#9a32cd" stroke-dasharray="5,2" d="M1602.73,-118.637C1635.69,-114.799 1687.45,-113.79 1724,-137 1761.09,-160.55 1778.77,-214.314 1784.66,-236.329"/>
<polygon fill="#9a32cd" stroke="#9a32cd" points="1602.19,-115.178 1592.74,-119.956 1603.11,-122.118 1602.19,-115.178"/>
<text text-anchor="middle" x="1686" y="-140" font-family="Helvetica,sans-Serif" font-size="10.00"> myStage</text>
</g>
<!-- Node25&#45;&gt;Node9 -->
<g id="edge29" class="edge"><title>Node25&#45;&gt;Node9</title>
<path fill="none" stroke="#9a32cd" stroke-dasharray="5,2" d="M1402.64,-477.896C1476.74,-489.041 1630.31,-500.404 1724,-425 1778.67,-381.002 1785.98,-286.302 1786.89,-255.73"/>
<polygon fill="#9a32cd" stroke="#9a32cd" points="1403.15,-474.433 1392.72,-476.333 1402.06,-481.347 1403.15,-474.433"/>
<text text-anchor="middle" x="1570" y="-488" font-family="Helvetica,sans-Serif" font-size="10.00"> myEditor</text>
</g>
<!-- Node26 -->
<g id="node26" class="node"><title>Node26</title>
<polygon fill="white" stroke="#bfbfbf" points="1138,-473.5 1138,-492.5 1180,-492.5 1180,-473.5 1138,-473.5"/>
<text text-anchor="middle" x="1159" y="-480.5" font-family="Helvetica,sans-Serif" font-size="10.00">HBox</text>
</g>
<!-- Node26&#45;&gt;Node25 -->
<g id="edge30" class="edge"><title>Node26&#45;&gt;Node25</title>
<path fill="none" stroke="midnightblue" d="M1190.11,-481.023C1226.62,-478.626 1287.9,-474.603 1325.46,-472.136"/>
<polygon fill="midnightblue" stroke="midnightblue" points="1189.82,-477.534 1180.07,-481.682 1190.28,-484.519 1189.82,-477.534"/>
</g>
<!-- Node27 -->
<g id="node27" class="node"><title>Node27</title>
<polygon fill="white" stroke="#bfbfbf" points="1134.5,-435.5 1134.5,-454.5 1183.5,-454.5 1183.5,-435.5 1134.5,-435.5"/>
<text text-anchor="middle" x="1159" y="-442.5" font-family="Helvetica,sans-Serif" font-size="10.00">Button</text>
</g>
<!-- Node27&#45;&gt;Node25 -->
<g id="edge31" class="edge"><title>Node27&#45;&gt;Node25</title>
<path fill="none" stroke="#9a32cd" stroke-dasharray="5,2" d="M1193.94,-447.801C1221.5,-450.242 1261.34,-454.149 1296,-459 1305.53,-460.334 1315.83,-462.05 1325.25,-463.729"/>
<polygon fill="#9a32cd" stroke="#9a32cd" points="1193.91,-444.286 1183.65,-446.907 1193.31,-451.259 1193.91,-444.286"/>
<text text-anchor="middle" x="1258" y="-462" font-family="Helvetica,sans-Serif" font-size="10.00"> runButton</text>
</g>
<!-- Node28 -->
<g id="node28" class="node"><title>Node28</title>
<polygon fill="white" stroke="#bfbfbf" points="1130,-558.5 1130,-577.5 1188,-577.5 1188,-558.5 1130,-558.5"/>
<text text-anchor="middle" x="1159" y="-565.5" font-family="Helvetica,sans-Serif" font-size="10.00">TextArea</text>
</g>
<!-- Node28&#45;&gt;Node25 -->
<g id="edge33" class="edge"><title>Node28&#45;&gt;Node25</title>
<path fill="none" stroke="#9a32cd" stroke-dasharray="5,2" d="M1198.23,-567.762C1226.87,-566.038 1266.11,-560.285 1296,-543 1322.92,-527.436 1343.59,-495.658 1352.78,-479.659"/>
<polygon fill="#9a32cd" stroke="#9a32cd" points="1198.02,-564.268 1188.19,-568.229 1198.35,-571.26 1198.02,-564.268"/>
<text text-anchor="middle" x="1258" y="-568" font-family="Helvetica,sans-Serif" font-size="10.00"> textEditor</text>
</g>
<!-- Node29 -->
<g id="node29" class="node"><title>Node29</title>
<polygon fill="white" stroke="#bfbfbf" points="1510.5,-76.5 1510.5,-95.5 1629.5,-95.5 1629.5,-76.5 1510.5,-76.5"/>
<text text-anchor="middle" x="1570" y="-83.5" font-family="Helvetica,sans-Serif" font-size="10.00">Map&lt; String, Node &gt;</text>
</g>
<!-- Node29&#45;&gt;Node9 -->
<g id="edge35" class="edge"><title>Node29&#45;&gt;Node9</title>
<path fill="none" stroke="#9a32cd" stroke-dasharray="5,2" d="M1640.05,-78.7521C1668.45,-79.2264 1700.19,-84.5925 1724,-102 1769.82,-135.498 1782.77,-209.624 1786.02,-236.244"/>
<polygon fill="#9a32cd" stroke="#9a32cd" points="1639.75,-75.2529 1629.76,-78.7854 1639.77,-82.2529 1639.75,-75.2529"/>
<text text-anchor="middle" x="1686" y="-105" font-family="Helvetica,sans-Serif" font-size="10.00"> variables</text>
</g>
<!-- Node30 -->
<g id="node30" class="node"><title>Node30</title>
<polygon fill="white" stroke="#bfbfbf" points="1529.5,-38.5 1529.5,-57.5 1610.5,-57.5 1610.5,-38.5 1529.5,-38.5"/>
<text text-anchor="middle" x="1570" y="-45.5" font-family="Helvetica,sans-Serif" font-size="10.00">Dimension2D</text>
</g>
<!-- Node30&#45;&gt;Node9 -->
<g id="edge37" class="edge"><title>Node30&#45;&gt;Node9</title>
<path fill="none" stroke="#9a32cd" stroke-dasharray="5,2" d="M1620.78,-40.812C1653.47,-38.8988 1695.34,-42.1436 1724,-65 1779.41,-109.19 1786.23,-205.147 1786.95,-236.136"/>
<polygon fill="#9a32cd" stroke="#9a32cd" points="1620.22,-37.3446 1610.51,-41.5961 1620.75,-44.3242 1620.22,-37.3446"/>
<text text-anchor="middle" x="1686" y="-68" font-family="Helvetica,sans-Serif" font-size="10.00"> myDimensions</text>
</g>
<!-- Node31&#45;&gt;Node9 -->
<g id="edge39" class="edge"><title>Node31&#45;&gt;Node9</title>
<path fill="none" stroke="#9a32cd" stroke-dasharray="5,2" d="M1616.57,-278.247C1647.05,-273.558 1688.03,-266.93 1724,-260 1731.04,-258.643 1738.5,-257.09 1745.73,-255.523"/>
<polygon fill="#9a32cd" stroke="#9a32cd" points="1616.01,-274.791 1606.65,-279.76 1617.07,-281.711 1616.01,-274.791"/>
<text text-anchor="middle" x="1686" y="-277" font-family="Helvetica,sans-Serif" font-size="10.00"> drawer</text>
</g>
<!-- Node32 -->
<g id="node32" class="node"><title>Node32</title>
<polygon fill="white" stroke="#bfbfbf" points="1338.5,-303.5 1338.5,-322.5 1379.5,-322.5 1379.5,-303.5 1338.5,-303.5"/>
<text text-anchor="middle" x="1359" y="-310.5" font-family="Helvetica,sans-Serif" font-size="10.00">Color</text>
</g>
<!-- Node32&#45;&gt;Node31 -->
<g id="edge41" class="edge"><title>Node32&#45;&gt;Node31</title>
<path fill="none" stroke="#9a32cd" stroke-dasharray="5,2" d="M1390.03,-308.977C1427.9,-303.904 1492.91,-295.193 1533.29,-289.785"/>
<polygon fill="#9a32cd" stroke="#9a32cd" points="1389.11,-305.569 1379.66,-310.366 1390.04,-312.507 1389.11,-305.569"/>
<text text-anchor="middle" x="1457" y="-307" font-family="Helvetica,sans-Serif" font-size="10.00"> myColor</text>
</g>
<!-- Node33 -->
<g id="node33" class="node"><title>Node33</title>
<polygon fill="white" stroke="#bfbfbf" points="1547,-0.5 1547,-19.5 1593,-19.5 1593,-0.5 1547,-0.5"/>
<text text-anchor="middle" x="1570" y="-7.5" font-family="Helvetica,sans-Serif" font-size="10.00">Group</text>
</g>
<!-- Node33&#45;&gt;Node9 -->
<g id="edge43" class="edge"><title>Node33&#45;&gt;Node9</title>
<path fill="none" stroke="#9a32cd" stroke-dasharray="5,2" d="M1603.06,-3.80938C1637.07,0.799615 1690.44,2.15663 1724,-26 1757.63,-54.2163 1780.15,-197.671 1785.68,-236.37"/>
<polygon fill="#9a32cd" stroke="#9a32cd" points="1602.53,-0.349933 1593.17,-5.31509 1603.58,-7.27021 1602.53,-0.349933"/>
<text text-anchor="middle" x="1686" y="-29" font-family="Helvetica,sans-Serif" font-size="10.00"> lines</text>
</g>
</g>
</svg>
