<?xml version="1.0" encoding="UTF-8" standalone="no"?>
<!DOCTYPE svg PUBLIC "-//W3C//DTD SVG 1.1//EN"
 "http://www.w3.org/Graphics/SVG/1.1/DTD/svg11.dtd">
<!-- Generated by graphviz version 2.36.0 (20140111.2315)
 -->
<!-- Title: model.Parser Pages: 1 -->
<svg width="1754pt" height="706pt"
 viewBox="0.00 0.00 1754.00 705.85" xmlns="http://www.w3.org/2000/svg" xmlns:xlink="http://www.w3.org/1999/xlink">
<g id="graph0" class="graph" transform="scale(1 1) rotate(0) translate(4 701.845)">
<title>model.Parser</title>
<polygon fill="white" stroke="none" points="-4,4 -4,-701.845 1750,-701.845 1750,4 -4,4"/>
<!-- Node1 -->
<g id="node1" class="node"><title>Node1</title>
<polygon fill="#bfbfbf" stroke="black" points="685,-158.719 685,-177.719 765,-177.719 765,-158.719 685,-158.719"/>
<text text-anchor="middle" x="725" y="-165.719" font-family="Helvetica,sans-Serif" font-size="10.00">model.Parser</text>
</g>
<!-- Node17 -->
<g id="node17" class="node"><title>Node17</title>
<g id="a_node17"><a xlink:href="../../d1/dc7/classview_1_1_side_bar.html" target="_top" xlink:title="view.SideBar">
<polygon fill="white" stroke="black" points="995.5,-295.719 995.5,-314.719 1072.5,-314.719 1072.5,-295.719 995.5,-295.719"/>
<text text-anchor="middle" x="1034" y="-302.719" font-family="Helvetica,sans-Serif" font-size="10.00">view.SideBar</text>
</a>
</g>
</g>
<!-- Node1&#45;&gt;Node17 -->
<g id="edge23" class="edge"><title>Node1&#45;&gt;Node17</title>
<path fill="none" stroke="#9a32cd" stroke-dasharray="5,2" d="M775.219,-173.06C832.739,-179.684 923.226,-193.425 948,-216.219 968.175,-234.782 947.862,-254.662 966,-275.219 974.179,-284.489 985.779,-291.042 997.033,-295.605"/>
<polygon fill="#9a32cd" stroke="#9a32cd" points="775.564,-169.577 765.236,-171.943 774.785,-176.533 775.564,-169.577"/>
<text text-anchor="middle" x="889" y="-219.219" font-family="Helvetica,sans-Serif" font-size="10.00"> myParser</text>
</g>
<!-- Node26 -->
<g id="node26" class="node"><title>Node26</title>
<g id="a_node26"><a xlink:href="../../d6/de7/classview_1_1_s_logo_view.html" target="_top" xlink:title="view.SLogoView">
<polygon fill="white" stroke="black" points="1650.5,-257.719 1650.5,-276.719 1741.5,-276.719 1741.5,-257.719 1650.5,-257.719"/>
<text text-anchor="middle" x="1696" y="-264.719" font-family="Helvetica,sans-Serif" font-size="10.00">view.SLogoView</text>
</a>
</g>
</g>
<!-- Node1&#45;&gt;Node26 -->
<g id="edge43" class="edge"><title>Node1&#45;&gt;Node26</title>
<path fill="none" stroke="#9a32cd" stroke-dasharray="5,2" d="M742.824,-151.527C786.576,-109.974 909.155,-5.21948 1033,-5.21948 1033,-5.21948 1033,-5.21948 1475,-5.21948 1543.9,-5.21948 1576.59,15.6585 1628,-30.2195 1663.41,-61.8217 1687.79,-216.841 1693.64,-257.461"/>
<polygon fill="#9a32cd" stroke="#9a32cd" points="740.353,-149.048 735.589,-158.511 745.215,-154.084 740.353,-149.048"/>
<text text-anchor="middle" x="1263" y="-8.21948" font-family="Helvetica,sans-Serif" font-size="10.00"> myParser</text>
</g>
<!-- Node28 -->
<g id="node28" class="node"><title>Node28</title>
<g id="a_node28"><a xlink:href="../../da/dc8/classview_1_1_editor.html" target="_top" xlink:title="view.Editor">
<polygon fill="white" stroke="black" points="1229.5,-174.719 1229.5,-193.719 1296.5,-193.719 1296.5,-174.719 1229.5,-174.719"/>
<text text-anchor="middle" x="1263" y="-181.719" font-family="Helvetica,sans-Serif" font-size="10.00">view.Editor</text>
</a>
</g>
</g>
<!-- Node1&#45;&gt;Node28 -->
<g id="edge38" class="edge"><title>Node1&#45;&gt;Node28</title>
<path fill="none" stroke="#9a32cd" stroke-dasharray="5,2" d="M763.756,-155.457C831.667,-134.2 978.829,-95.8847 1102,-117.219 1157.79,-126.882 1217.93,-158.486 1245.94,-174.594"/>
<polygon fill="#9a32cd" stroke="#9a32cd" points="762.403,-152.215 753.938,-158.586 764.528,-158.884 762.403,-152.215"/>
<text text-anchor="middle" x="1034" y="-120.219" font-family="Helvetica,sans-Serif" font-size="10.00"> myParser</text>
</g>
<!-- Node2 -->
<g id="node2" class="node"><title>Node2</title>
<polygon fill="white" stroke="#bfbfbf" points="371,-547.719 371,-566.719 431,-566.719 431,-547.719 371,-547.719"/>
<text text-anchor="middle" x="401" y="-554.719" font-family="Helvetica,sans-Serif" font-size="10.00">Observer</text>
</g>
<!-- Node2&#45;&gt;Node1 -->
<g id="edge1" class="edge"><title>Node2&#45;&gt;Node1</title>
<path fill="none" stroke="midnightblue" d="M423.198,-541.304C467.929,-506.423 571.806,-418.315 620,-318.219 642.062,-272.399 606.77,-245.356 638,-205.219 649.478,-190.467 667.999,-181.502 684.918,-176.102"/>
<polygon fill="midnightblue" stroke="midnightblue" points="420.863,-538.685 415.075,-547.558 425.133,-544.231 420.863,-538.685"/>
</g>
<!-- Node9 -->
<g id="node9" class="node"><title>Node9</title>
<g id="a_node9"><a xlink:href="../../d4/d64/classview_1_1_view_updater.html" target="_top" xlink:title="view.ViewUpdater">
<polygon fill="white" stroke="black" points="1646,-519.719 1646,-538.719 1746,-538.719 1746,-519.719 1646,-519.719"/>
<text text-anchor="middle" x="1696" y="-526.719" font-family="Helvetica,sans-Serif" font-size="10.00">view.ViewUpdater</text>
</a>
</g>
</g>
<!-- Node2&#45;&gt;Node9 -->
<g id="edge9" class="edge"><title>Node2&#45;&gt;Node9</title>
<path fill="none" stroke="midnightblue" d="M411.832,-575.519C426.712,-601.179 457.558,-647.074 498,-668.219 587.512,-715.022 622.991,-692.219 724,-692.219 724,-692.219 724,-692.219 1475,-692.219 1578.63,-692.219 1665.3,-574.019 1688.75,-538.928"/>
<polygon fill="midnightblue" stroke="midnightblue" points="414.869,-573.779 406.924,-566.769 408.764,-577.203 414.869,-573.779"/>
</g>
<!-- Node3 -->
<g id="node3" class="node"><title>Node3</title>
<polygon fill="white" stroke="#bfbfbf" points="345,-175.219 345,-205.219 457,-205.219 457,-175.219 345,-175.219"/>
<text text-anchor="start" x="353" y="-193.219" font-family="Helvetica,sans-Serif" font-size="10.00">List&lt; Entry&lt; String,</text>
<text text-anchor="middle" x="401" y="-182.219" font-family="Helvetica,sans-Serif" font-size="10.00"> Pattern &gt; &gt;</text>
</g>
<!-- Node3&#45;&gt;Node1 -->
<g id="edge2" class="edge"><title>Node3&#45;&gt;Node1</title>
<path fill="none" stroke="#9a32cd" stroke-dasharray="5,2" d="M467.519,-185.743C532.679,-181.291 630.507,-174.607 684.567,-170.914"/>
<polygon fill="#9a32cd" stroke="#9a32cd" points="467.092,-182.264 457.354,-186.438 467.569,-189.248 467.092,-182.264"/>
<text text-anchor="middle" x="559" y="-186.219" font-family="Helvetica,sans-Serif" font-size="10.00"> myPatterns</text>
</g>
<!-- Node4 -->
<g id="node4" class="node"><title>Node4</title>
<g id="a_node4"><a xlink:href="../../d1/dca/classmodel_1_1_execution_environment.html" target="_top" xlink:title="model.ExecutionEnvironment">
<polygon fill="white" stroke="black" points="322.5,-377.719 322.5,-396.719 479.5,-396.719 479.5,-377.719 322.5,-377.719"/>
<text text-anchor="middle" x="401" y="-384.719" font-family="Helvetica,sans-Serif" font-size="10.00">model.ExecutionEnvironment</text>
</a>
</g>
</g>
<!-- Node4&#45;&gt;Node1 -->
<g id="edge3" class="edge"><title>Node4&#45;&gt;Node1</title>
<path fill="none" stroke="#9a32cd" stroke-dasharray="5,2" d="M420.313,-370.471C458.531,-336.135 550.511,-256.67 638,-205.219 656.914,-194.096 679.796,-184.415 697.2,-177.749"/>
<polygon fill="#9a32cd" stroke="#9a32cd" points="417.659,-368.152 412.589,-377.456 422.354,-373.344 417.659,-368.152"/>
<text text-anchor="middle" x="559" y="-306.219" font-family="Helvetica,sans-Serif" font-size="10.00"> myExecutionParameters</text>
</g>
<!-- Node4&#45;&gt;Node17 -->
<g id="edge21" class="edge"><title>Node4&#45;&gt;Node17</title>
<path fill="none" stroke="#9a32cd" stroke-dasharray="5,2" d="M489.994,-394.528C599.784,-400.847 792.066,-402.625 948,-355.219 976.338,-346.604 1005.19,-326.799 1020.93,-314.862"/>
<polygon fill="#9a32cd" stroke="#9a32cd" points="490.148,-391.031 479.956,-393.924 489.728,-398.019 490.148,-391.031"/>
<text text-anchor="middle" x="725" y="-401.219" font-family="Helvetica,sans-Serif" font-size="10.00"> myEnvironment</text>
</g>
<!-- Node4&#45;&gt;Node26 -->
<g id="edge42" class="edge"><title>Node4&#45;&gt;Node26</title>
<path fill="none" stroke="#9a32cd" stroke-dasharray="5,2" d="M412.301,-405.843C440.611,-454.822 525.061,-586.79 638,-635.219 827.532,-716.493 896.453,-651.889 1102,-635.219 1232.15,-624.665 1507.58,-572.539 1534,-551.219 1549.49,-538.722 1539.16,-525.424 1552,-510.219 1578.09,-479.329 1603.16,-492.123 1628,-460.219 1674.19,-400.887 1689.83,-307.466 1693.84,-277.106"/>
<polygon fill="#9a32cd" stroke="#9a32cd" points="415.238,-403.926 407.258,-396.956 409.149,-407.381 415.238,-403.926"/>
<text text-anchor="middle" x="1160" y="-637.219" font-family="Helvetica,sans-Serif" font-size="10.00"> myEnvironment</text>
</g>
<!-- Node5 -->
<g id="node5" class="node"><title>Node5</title>
<polygon fill="white" stroke="#bfbfbf" points="51.5,-437.719 51.5,-456.719 122.5,-456.719 122.5,-437.719 51.5,-437.719"/>
<text text-anchor="middle" x="87" y="-444.719" font-family="Helvetica,sans-Serif" font-size="10.00">Observable</text>
</g>
<!-- Node5&#45;&gt;Node4 -->
<g id="edge4" class="edge"><title>Node5&#45;&gt;Node4</title>
<path fill="none" stroke="midnightblue" d="M132.717,-447.37C176.879,-446.57 246.026,-442.757 304,-428.219 332.478,-421.079 363.357,-406.557 382.194,-396.855"/>
<polygon fill="midnightblue" stroke="midnightblue" points="132.548,-443.872 122.596,-447.508 132.643,-450.871 132.548,-443.872"/>
</g>
<!-- Node6 -->
<g id="node6" class="node"><title>Node6</title>
<polygon fill="white" stroke="#bfbfbf" points="42.5,-399.719 42.5,-418.719 131.5,-418.719 131.5,-399.719 42.5,-399.719"/>
<text text-anchor="middle" x="87" y="-406.719" font-family="Helvetica,sans-Serif" font-size="10.00">Set&lt; Integer &gt;</text>
</g>
<!-- Node6&#45;&gt;Node4 -->
<g id="edge5" class="edge"><title>Node6&#45;&gt;Node4</title>
<path fill="none" stroke="#9a32cd" stroke-dasharray="5,2" d="M141.939,-405.416C191.701,-401.907 266.155,-396.657 322.32,-392.697"/>
<polygon fill="#9a32cd" stroke="#9a32cd" points="141.44,-401.943 131.711,-406.137 141.932,-408.925 141.44,-401.943"/>
<text text-anchor="middle" x="248" y="-416.219" font-family="Helvetica,sans-Serif" font-size="10.00"> myTurtleList</text>
<text text-anchor="middle" x="248" y="-405.219" font-family="Helvetica,sans-Serif" font-size="10.00">activeTurtleList</text>
</g>
<!-- Node7 -->
<g id="node7" class="node"><title>Node7</title>
<polygon fill="white" stroke="#bfbfbf" points="0,-350.219 0,-380.219 174,-380.219 174,-350.219 0,-350.219"/>
<text text-anchor="start" x="8" y="-368.219" font-family="Helvetica,sans-Serif" font-size="10.00">Map&lt; String, model.instructions.</text>
<text text-anchor="middle" x="87" y="-357.219" font-family="Helvetica,sans-Serif" font-size="10.00">Instruction &gt;</text>
</g>
<!-- Node7&#45;&gt;Node4 -->
<g id="edge6" class="edge"><title>Node7&#45;&gt;Node4</title>
<path fill="none" stroke="#9a32cd" stroke-dasharray="5,2" d="M184.559,-371.853C221.877,-374.436 264.929,-377.438 304,-380.219 310.001,-380.647 316.212,-381.092 322.456,-381.542"/>
<polygon fill="#9a32cd" stroke="#9a32cd" points="184.411,-368.335 174.193,-371.137 183.928,-375.318 184.411,-368.335"/>
<text text-anchor="middle" x="248" y="-383.219" font-family="Helvetica,sans-Serif" font-size="10.00"> myUserInstructionMap</text>
</g>
<!-- Node8 -->
<g id="node8" class="node"><title>Node8</title>
<polygon fill="white" stroke="#bfbfbf" points="23,-311.719 23,-330.719 151,-330.719 151,-311.719 23,-311.719"/>
<text text-anchor="middle" x="87" y="-318.719" font-family="Helvetica,sans-Serif" font-size="10.00">Map&lt; String, Double &gt;</text>
</g>
<!-- Node8&#45;&gt;Node4 -->
<g id="edge7" class="edge"><title>Node8&#45;&gt;Node4</title>
<path fill="none" stroke="#9a32cd" stroke-dasharray="5,2" d="M161.414,-331.487C203.421,-337.936 256.961,-347.131 304,-358.219 327.047,-363.652 352.7,-371.497 371.686,-377.658"/>
<polygon fill="#9a32cd" stroke="#9a32cd" points="161.68,-327.987 151.268,-329.948 160.63,-334.908 161.68,-327.987"/>
<text text-anchor="middle" x="248" y="-361.219" font-family="Helvetica,sans-Serif" font-size="10.00"> myVariableMap</text>
</g>
<!-- Node9&#45;&gt;Node1 -->
<g id="edge8" class="edge"><title>Node9&#45;&gt;Node1</title>
<path fill="none" stroke="#9a32cd" stroke-dasharray="5,2" d="M1685.36,-510.655C1674.09,-490.654 1653.69,-459.155 1628,-440.219 1620.4,-434.615 1317.05,-327.934 1308,-325.219 1270.55,-313.98 994.378,-269.122 966,-242.219 945.795,-223.065 969.802,-199.534 948,-182.219 895.53,-140.551 812.212,-148.932 763.96,-158.662"/>
<polygon fill="#9a32cd" stroke="#9a32cd" points="1682.28,-512.33 1690.14,-519.445 1688.43,-508.987 1682.28,-512.33"/>
<text text-anchor="middle" x="1263" y="-328.219" font-family="Helvetica,sans-Serif" font-size="10.00"> myViewUpdater</text>
</g>
<!-- Node10 -->
<g id="node10" class="node"><title>Node10</title>
<g id="a_node10"><a xlink:href="../../da/d64/classview_1_1_workspace.html" target="_top" xlink:title="view.Workspace">
<polygon fill="white" stroke="black" points="1218,-482.719 1218,-501.719 1308,-501.719 1308,-482.719 1218,-482.719"/>
<text text-anchor="middle" x="1263" y="-489.719" font-family="Helvetica,sans-Serif" font-size="10.00">view.Workspace</text>
</a>
</g>
</g>
<!-- Node10&#45;&gt;Node9 -->
<g id="edge10" class="edge"><title>Node10&#45;&gt;Node9</title>
<path fill="none" stroke="#9a32cd" stroke-dasharray="5,2" d="M1292.11,-505.983C1302.51,-510.417 1314.55,-514.805 1326,-517.219 1438.58,-540.967 1574.7,-537.312 1646,-533.007"/>
<polygon fill="#9a32cd" stroke="#9a32cd" points="1293.28,-502.671 1282.72,-501.781 1290.42,-509.06 1293.28,-502.671"/>
<text text-anchor="middle" x="1474" y="-539.219" font-family="Helvetica,sans-Serif" font-size="10.00"> myWorkspace</text>
</g>
<!-- Node23 -->
<g id="node23" class="node"><title>Node23</title>
<g id="a_node23"><a xlink:href="../../de/d0a/classview_1_1_drawer.html" target="_top" xlink:title="view.Drawer">
<polygon fill="white" stroke="black" points="1437.5,-447.719 1437.5,-466.719 1510.5,-466.719 1510.5,-447.719 1437.5,-447.719"/>
<text text-anchor="middle" x="1474" y="-454.719" font-family="Helvetica,sans-Serif" font-size="10.00">view.Drawer</text>
</a>
</g>
</g>
<!-- Node10&#45;&gt;Node23 -->
<g id="edge27" class="edge"><title>Node10&#45;&gt;Node23</title>
<path fill="none" stroke="#9a32cd" stroke-dasharray="5,2" d="M1313.98,-480.572C1318.04,-479.736 1322.08,-478.94 1326,-478.219 1363.78,-471.267 1407.38,-465.294 1437.22,-461.515"/>
<polygon fill="#9a32cd" stroke="#9a32cd" points="1312.98,-477.206 1303.93,-482.71 1314.43,-484.053 1312.98,-477.206"/>
<text text-anchor="middle" x="1361" y="-481.219" font-family="Helvetica,sans-Serif" font-size="10.00"> myWorkspace</text>
</g>
<!-- Node10&#45;&gt;Node26 -->
<g id="edge32" class="edge"><title>Node10&#45;&gt;Node26</title>
<path fill="none" stroke="#9a32cd" stroke-dasharray="5,2" d="M1318.24,-496.823C1373.82,-499.753 1462.05,-499.399 1534,-476.219 1580.07,-461.377 1595.87,-457.421 1628,-421.219 1668.06,-376.079 1687.14,-303.25 1692.98,-277.024"/>
<polygon fill="#9a32cd" stroke="#9a32cd" points="1318.44,-493.329 1308.25,-496.243 1318.03,-500.317 1318.44,-493.329"/>
<text text-anchor="middle" x="1474" y="-500.219" font-family="Helvetica,sans-Serif" font-size="10.00"> myWorkspace</text>
</g>
<!-- Node11 -->
<g id="node11" class="node"><title>Node11</title>
<polygon fill="white" stroke="#bfbfbf" points="1000.5,-433.719 1000.5,-452.719 1067.5,-452.719 1067.5,-433.719 1000.5,-433.719"/>
<text text-anchor="middle" x="1034" y="-440.719" font-family="Helvetica,sans-Serif" font-size="10.00">StackPane</text>
</g>
<!-- Node11&#45;&gt;Node10 -->
<g id="edge11" class="edge"><title>Node11&#45;&gt;Node10</title>
<path fill="none" stroke="midnightblue" d="M1077.61,-450.564C1111.04,-456.547 1158.67,-465.561 1200,-475.219 1209.46,-477.429 1219.64,-480.101 1228.98,-482.664"/>
<polygon fill="midnightblue" stroke="midnightblue" points="1078.17,-447.109 1067.71,-448.807 1076.95,-454.001 1078.17,-447.109"/>
</g>
<!-- Node12 -->
<g id="node12" class="node"><title>Node12</title>
<polygon fill="white" stroke="#bfbfbf" points="678.5,-425.719 678.5,-444.719 771.5,-444.719 771.5,-425.719 678.5,-425.719"/>
<text text-anchor="middle" x="725" y="-432.719" font-family="Helvetica,sans-Serif" font-size="10.00">ResourceBundle</text>
</g>
<!-- Node12&#45;&gt;Node10 -->
<g id="edge12" class="edge"><title>Node12&#45;&gt;Node10</title>
<path fill="none" stroke="#9a32cd" stroke-dasharray="5,2" d="M781.573,-443.062C797.222,-445.172 814.266,-447.378 830,-449.219 971.485,-465.779 1139.52,-481.325 1217.79,-488.328"/>
<polygon fill="#9a32cd" stroke="#9a32cd" points="781.899,-439.574 771.519,-441.694 780.956,-446.511 781.899,-439.574"/>
<text text-anchor="middle" x="1034" y="-481.219" font-family="Helvetica,sans-Serif" font-size="10.00"> myResources</text>
</g>
<!-- Node12&#45;&gt;Node17 -->
<g id="edge20" class="edge"><title>Node12&#45;&gt;Node17</title>
<path fill="none" stroke="#9a32cd" stroke-dasharray="5,2" d="M773.976,-423.227C791.56,-418.953 811.646,-414.212 830,-410.219 882.21,-398.862 905.086,-419.051 948,-387.219 961.733,-377.033 954.751,-366.096 966,-353.219 980.121,-337.055 1000.7,-323.354 1015.31,-314.779"/>
<polygon fill="#9a32cd" stroke="#9a32cd" points="772.826,-419.905 763.944,-425.68 774.489,-426.704 772.826,-419.905"/>
<text text-anchor="middle" x="889" y="-413.219" font-family="Helvetica,sans-Serif" font-size="10.00"> myResources</text>
</g>
<!-- Node12&#45;&gt;Node26 -->
<g id="edge34" class="edge"><title>Node12&#45;&gt;Node26</title>
<path fill="none" stroke="#9a32cd" stroke-dasharray="5,2" d="M781.832,-437.832C838.524,-439.419 921.609,-438.487 948,-421.219 962.637,-411.642 951.679,-396.264 966,-386.219 1051.84,-326.012 1096.23,-371.232 1200,-356.219 1247.67,-349.323 1581.04,-297.965 1628,-287.219 1640.54,-284.349 1654.19,-280.427 1665.87,-276.816"/>
<polygon fill="#9a32cd" stroke="#9a32cd" points="781.678,-434.325 771.573,-437.509 781.458,-441.322 781.678,-434.325"/>
<text text-anchor="middle" x="1263" y="-357.219" font-family="Helvetica,sans-Serif" font-size="10.00"> myResources</text>
</g>
<!-- Node13 -->
<g id="node13" class="node"><title>Node13</title>
<g id="a_node13"><a xlink:href="../../d8/df7/classview_1_1_turtle_view.html" target="_top" xlink:title="view.TurtleView">
<polygon fill="white" stroke="black" points="991,-606.719 991,-625.719 1077,-625.719 1077,-606.719 991,-606.719"/>
<text text-anchor="middle" x="1034" y="-613.719" font-family="Helvetica,sans-Serif" font-size="10.00">view.TurtleView</text>
</a>
</g>
</g>
<!-- Node13&#45;&gt;Node10 -->
<g id="edge13" class="edge"><title>Node13&#45;&gt;Node10</title>
<path fill="none" stroke="#9a32cd" stroke-dasharray="5,2" d="M1087.34,-611.025C1121.68,-605.607 1166.31,-594.583 1200,-572.219 1227.82,-553.755 1248.49,-518.631 1257.31,-501.748"/>
<polygon fill="#9a32cd" stroke="#9a32cd" points="1086.42,-607.622 1077.03,-612.534 1087.43,-614.549 1086.42,-607.622"/>
<text text-anchor="middle" x="1160" y="-607.219" font-family="Helvetica,sans-Serif" font-size="10.00"> myActiveTurtle</text>
</g>
<!-- Node14 -->
<g id="node14" class="node"><title>Node14</title>
<polygon fill="white" stroke="#bfbfbf" points="691,-606.719 691,-625.719 759,-625.719 759,-606.719 691,-606.719"/>
<text text-anchor="middle" x="725" y="-613.719" font-family="Helvetica,sans-Serif" font-size="10.00">ImageView</text>
</g>
<!-- Node14&#45;&gt;Node13 -->
<g id="edge14" class="edge"><title>Node14&#45;&gt;Node13</title>
<path fill="none" stroke="midnightblue" d="M769.232,-616.219C828.085,-616.219 932.74,-616.219 990.965,-616.219"/>
<polygon fill="midnightblue" stroke="midnightblue" points="769.146,-612.72 759.146,-616.219 769.146,-619.72 769.146,-612.72"/>
</g>
<!-- Node15 -->
<g id="node15" class="node"><title>Node15</title>
<polygon fill="white" stroke="#bfbfbf" points="966,-557.219 966,-587.219 1102,-587.219 1102,-557.219 966,-557.219"/>
<text text-anchor="start" x="974" y="-575.219" font-family="Helvetica,sans-Serif" font-size="10.00">Map&lt; Integer, view.Turtle</text>
<text text-anchor="middle" x="1034" y="-564.219" font-family="Helvetica,sans-Serif" font-size="10.00">View &gt;</text>
</g>
<!-- Node15&#45;&gt;Node10 -->
<g id="edge15" class="edge"><title>Node15&#45;&gt;Node10</title>
<path fill="none" stroke="#9a32cd" stroke-dasharray="5,2" d="M1111.87,-558.444C1140.21,-551.992 1172.18,-543.063 1200,-531.219 1218.25,-523.448 1237.28,-510.666 1249.36,-501.866"/>
<polygon fill="#9a32cd" stroke="#9a32cd" points="1111.01,-555.048 1102,-560.623 1112.52,-561.883 1111.01,-555.048"/>
<text text-anchor="middle" x="1160" y="-560.219" font-family="Helvetica,sans-Serif" font-size="10.00"> myTurtles</text>
</g>
<!-- Node16 -->
<g id="node16" class="node"><title>Node16</title>
<polygon fill="white" stroke="#bfbfbf" points="1011,-518.719 1011,-537.719 1057,-537.719 1057,-518.719 1011,-518.719"/>
<text text-anchor="middle" x="1034" y="-525.719" font-family="Helvetica,sans-Serif" font-size="10.00">Group</text>
</g>
<!-- Node16&#45;&gt;Node10 -->
<g id="edge16" class="edge"><title>Node16&#45;&gt;Node10</title>
<path fill="none" stroke="#9a32cd" stroke-dasharray="5,2" d="M1067.24,-523.579C1100.53,-518.732 1153.95,-510.792 1200,-503.219 1205.83,-502.262 1211.95,-501.218 1217.99,-500.168"/>
<polygon fill="#9a32cd" stroke="#9a32cd" points="1066.57,-520.14 1057.18,-525.04 1067.58,-527.068 1066.57,-520.14"/>
<text text-anchor="middle" x="1160" y="-519.219" font-family="Helvetica,sans-Serif" font-size="10.00"> myLines</text>
</g>
<!-- Node17&#45;&gt;Node9 -->
<g id="edge29" class="edge"><title>Node17&#45;&gt;Node9</title>
<path fill="none" stroke="#9a32cd" stroke-dasharray="5,2" d="M1082.75,-303.487C1118.63,-304.641 1167.05,-311.727 1200,-338.219 1215.51,-350.691 1202.41,-366.848 1218,-379.219 1329.91,-468.035 1397.42,-396.28 1534,-438.219 1577.57,-451.599 1588.59,-456.327 1628,-479.219 1648.83,-491.32 1670.82,-508.751 1683.7,-519.512"/>
<polygon fill="#9a32cd" stroke="#9a32cd" points="1082.59,-299.984 1072.52,-303.306 1082.46,-306.983 1082.59,-299.984"/>
<text text-anchor="middle" x="1361" y="-430.219" font-family="Helvetica,sans-Serif" font-size="10.00"> mySidebar</text>
</g>
<!-- Node17&#45;&gt;Node10 -->
<g id="edge17" class="edge"><title>Node17&#45;&gt;Node10</title>
<path fill="none" stroke="#9a32cd" stroke-dasharray="5,2" d="M1073.88,-318.469C1111.44,-333.212 1167.33,-360.586 1200,-402.219 1217.19,-424.121 1201.55,-439.755 1218,-462.219 1224.23,-470.724 1233.63,-477.603 1242.15,-482.618"/>
<polygon fill="#9a32cd" stroke="#9a32cd" points="1074.87,-315.1 1064.27,-314.818 1072.38,-321.643 1074.87,-315.1"/>
<text text-anchor="middle" x="1160" y="-405.219" font-family="Helvetica,sans-Serif" font-size="10.00"> mySidebar</text>
</g>
<!-- Node17&#45;&gt;Node26 -->
<g id="edge46" class="edge"><title>Node17&#45;&gt;Node26</title>
<path fill="none" stroke="#9a32cd" stroke-dasharray="5,2" d="M1082.84,-302.298C1119.76,-300.055 1172.11,-296.897 1218,-294.219 1376.98,-284.942 1565.8,-274.393 1650.28,-269.699"/>
<polygon fill="#9a32cd" stroke="#9a32cd" points="1082.62,-298.805 1072.85,-302.906 1083.04,-305.792 1082.62,-298.805"/>
<text text-anchor="middle" x="1361" y="-291.219" font-family="Helvetica,sans-Serif" font-size="10.00"> mySidebar</text>
</g>
<!-- Node17&#45;&gt;Node28 -->
<g id="edge40" class="edge"><title>Node17&#45;&gt;Node28</title>
<path fill="none" stroke="#9a32cd" stroke-dasharray="5,2" d="M1062.19,-290.728C1109.18,-265.677 1204.39,-214.93 1244.04,-193.795"/>
<polygon fill="#9a32cd" stroke="#9a32cd" points="1060.37,-287.73 1053.19,-295.522 1063.66,-293.907 1060.37,-287.73"/>
<text text-anchor="middle" x="1160" y="-262.219" font-family="Helvetica,sans-Serif" font-size="10.00"> mySidebar</text>
</g>
<!-- Node18 -->
<g id="node18" class="node"><title>Node18</title>
<polygon fill="white" stroke="#bfbfbf" points="704.5,-214.719 704.5,-233.719 745.5,-233.719 745.5,-214.719 704.5,-214.719"/>
<text text-anchor="middle" x="725" y="-221.719" font-family="Helvetica,sans-Serif" font-size="10.00">VBox</text>
</g>
<!-- Node18&#45;&gt;Node17 -->
<g id="edge18" class="edge"><title>Node18&#45;&gt;Node17</title>
<path fill="none" stroke="midnightblue" d="M755.883,-224.595C799.789,-226.146 883.503,-232.949 948,-261.219 957.282,-265.288 957.313,-270 966,-275.219 979.219,-283.162 994.91,-290.298 1007.78,-295.616"/>
<polygon fill="midnightblue" stroke="midnightblue" points="755.709,-221.089 745.614,-224.304 755.511,-228.086 755.709,-221.089"/>
</g>
<!-- Node19 -->
<g id="node19" class="node"><title>Node19</title>
<polygon fill="white" stroke="#bfbfbf" points="638.5,-331.719 638.5,-350.719 811.5,-350.719 811.5,-331.719 638.5,-331.719"/>
<text text-anchor="middle" x="725" y="-338.719" font-family="Helvetica,sans-Serif" font-size="10.00">ObservableList&lt; view.Property &gt;</text>
</g>
<!-- Node19&#45;&gt;Node17 -->
<g id="edge19" class="edge"><title>Node19&#45;&gt;Node17</title>
<path fill="none" stroke="#9a32cd" stroke-dasharray="5,2" d="M821.691,-339.92C861.022,-338.271 906.898,-334.91 948,-328.219 966.71,-325.174 987.238,-319.682 1003.43,-314.829"/>
<polygon fill="#9a32cd" stroke="#9a32cd" points="821.433,-336.427 811.576,-340.312 821.704,-343.422 821.433,-336.427"/>
<text text-anchor="middle" x="889" y="-343.219" font-family="Helvetica,sans-Serif" font-size="10.00"> myVariablesList</text>
</g>
<!-- Node20 -->
<g id="node20" class="node"><title>Node20</title>
<polygon fill="white" stroke="#bfbfbf" points="651,-293.719 651,-312.719 799,-312.719 799,-293.719 651,-293.719"/>
<text text-anchor="middle" x="725" y="-300.719" font-family="Helvetica,sans-Serif" font-size="10.00">TableView&lt; view.Property &gt;</text>
</g>
<!-- Node20&#45;&gt;Node17 -->
<g id="edge22" class="edge"><title>Node20&#45;&gt;Node17</title>
<path fill="none" stroke="#9a32cd" stroke-dasharray="5,2" d="M809.476,-303.763C870.142,-304.159 949.38,-304.675 995.387,-304.974"/>
<polygon fill="#9a32cd" stroke="#9a32cd" points="809.167,-300.261 799.144,-303.696 809.121,-307.261 809.167,-300.261"/>
<text text-anchor="middle" x="889" y="-319.219" font-family="Helvetica,sans-Serif" font-size="10.00"> myTurtlePropertiesTable</text>
<text text-anchor="middle" x="889" y="-308.219" font-family="Helvetica,sans-Serif" font-size="10.00">myVariablesTable</text>
</g>
<!-- Node21 -->
<g id="node21" class="node"><title>Node21</title>
<polygon fill="white" stroke="#bfbfbf" points="656,-252.719 656,-271.719 794,-271.719 794,-252.719 656,-252.719"/>
<text text-anchor="middle" x="725" y="-259.719" font-family="Helvetica,sans-Serif" font-size="10.00">ObservableList&lt; String &gt;</text>
</g>
<!-- Node21&#45;&gt;Node17 -->
<g id="edge24" class="edge"><title>Node21&#45;&gt;Node17</title>
<path fill="none" stroke="#9a32cd" stroke-dasharray="5,2" d="M804.135,-263.364C846.941,-265.112 900.748,-269.144 948,-278.219 968.68,-282.191 991.376,-289.563 1008.11,-295.602"/>
<polygon fill="#9a32cd" stroke="#9a32cd" points="804.185,-259.863 794.061,-262.986 803.923,-266.858 804.185,-259.863"/>
<text text-anchor="middle" x="889" y="-292.219" font-family="Helvetica,sans-Serif" font-size="10.00"> myCommandItems</text>
<text text-anchor="middle" x="889" y="-281.219" font-family="Helvetica,sans-Serif" font-size="10.00">myHistoryItems</text>
</g>
<!-- Node22 -->
<g id="node22" class="node"><title>Node22</title>
<polygon fill="white" stroke="#bfbfbf" points="1002.5,-395.719 1002.5,-414.719 1065.5,-414.719 1065.5,-395.719 1002.5,-395.719"/>
<text text-anchor="middle" x="1034" y="-402.719" font-family="Helvetica,sans-Serif" font-size="10.00">Rectangle</text>
</g>
<!-- Node22&#45;&gt;Node10 -->
<g id="edge25" class="edge"><title>Node22&#45;&gt;Node10</title>
<path fill="none" stroke="#9a32cd" stroke-dasharray="5,2" d="M1075.99,-408.603C1110.82,-412.905 1161.21,-422.586 1200,-444.219 1209.88,-449.73 1209.29,-455.001 1218,-462.219 1226.97,-469.652 1237.77,-477.035 1246.42,-482.618"/>
<polygon fill="#9a32cd" stroke="#9a32cd" points="1076.04,-405.086 1065.71,-407.434 1075.25,-412.042 1076.04,-405.086"/>
<text text-anchor="middle" x="1160" y="-447.219" font-family="Helvetica,sans-Serif" font-size="10.00"> myBackground</text>
</g>
<!-- Node23&#45;&gt;Node9 -->
<g id="edge26" class="edge"><title>Node23&#45;&gt;Node9</title>
<path fill="none" stroke="#9a32cd" stroke-dasharray="5,2" d="M1513.86,-469.938C1557.27,-484.145 1626.57,-506.823 1665.66,-519.619"/>
<polygon fill="#9a32cd" stroke="#9a32cd" points="1514.81,-466.565 1504.21,-466.781 1512.63,-473.217 1514.81,-466.565"/>
<text text-anchor="middle" x="1590" y="-509.219" font-family="Helvetica,sans-Serif" font-size="10.00"> myDrawer</text>
</g>
<!-- Node23&#45;&gt;Node26 -->
<g id="edge45" class="edge"><title>Node23&#45;&gt;Node26</title>
<path fill="none" stroke="#9a32cd" stroke-dasharray="5,2" d="M1500.43,-442.513C1532.17,-423.494 1587.24,-388.266 1628,-350.219 1653.32,-326.59 1677.4,-293.194 1688.54,-276.908"/>
<polygon fill="#9a32cd" stroke="#9a32cd" points="1498.57,-439.549 1491.75,-447.658 1502.14,-445.571 1498.57,-439.549"/>
<text text-anchor="middle" x="1590" y="-410.219" font-family="Helvetica,sans-Serif" font-size="10.00"> drawer</text>
</g>
<!-- Node24 -->
<g id="node24" class="node"><title>Node24</title>
<polygon fill="white" stroke="#bfbfbf" points="1242.5,-433.719 1242.5,-452.719 1283.5,-452.719 1283.5,-433.719 1242.5,-433.719"/>
<text text-anchor="middle" x="1263" y="-440.719" font-family="Helvetica,sans-Serif" font-size="10.00">Color</text>
</g>
<!-- Node24&#45;&gt;Node23 -->
<g id="edge28" class="edge"><title>Node24&#45;&gt;Node23</title>
<path fill="none" stroke="#9a32cd" stroke-dasharray="5,2" d="M1293.98,-442.087C1320.78,-441.399 1361.09,-441.16 1396,-444.219 1409.51,-445.403 1424.21,-447.646 1437.11,-449.939"/>
<polygon fill="#9a32cd" stroke="#9a32cd" points="1293.62,-438.596 1283.73,-442.39 1293.83,-445.593 1293.62,-438.596"/>
<text text-anchor="middle" x="1361" y="-447.219" font-family="Helvetica,sans-Serif" font-size="10.00"> myColor</text>
</g>
<!-- Node25 -->
<g id="node25" class="node"><title>Node25</title>
<polygon fill="white" stroke="#bfbfbf" points="340,-136.719 340,-155.719 462,-155.719 462,-136.719 340,-136.719"/>
<text text-anchor="middle" x="401" y="-143.719" font-family="Helvetica,sans-Serif" font-size="10.00">Map&lt; String, String &gt;</text>
</g>
<!-- Node25&#45;&gt;Node1 -->
<g id="edge30" class="edge"><title>Node25&#45;&gt;Node1</title>
<path fill="none" stroke="#9a32cd" stroke-dasharray="5,2" d="M472.39,-151.029C537.597,-155.484 632.209,-161.948 684.877,-165.547"/>
<polygon fill="#9a32cd" stroke="#9a32cd" points="472.403,-147.522 462.188,-150.332 471.926,-154.505 472.403,-147.522"/>
<text text-anchor="middle" x="559" y="-164.219" font-family="Helvetica,sans-Serif" font-size="10.00"> myCommandMap</text>
</g>
<!-- Node26&#45;&gt;Node1 -->
<g id="edge31" class="edge"><title>Node26&#45;&gt;Node1</title>
<path fill="none" stroke="#9a32cd" stroke-dasharray="5,2" d="M1685.98,-248.571C1675.15,-228.315 1655.01,-196.658 1628,-180.219 1591.73,-158.147 1575.94,-169.833 1534,-163.219 1383.93,-139.552 1194.58,-112.399 1102,-107.219 1041.65,-103.843 1026.43,-106.109 966,-107.219 905.525,-108.331 888.368,-96.3577 830,-112.219 794.578,-121.846 757.845,-145.389 738.953,-158.681"/>
<polygon fill="#9a32cd" stroke="#9a32cd" points="1682.86,-250.173 1690.53,-257.482 1689.1,-246.985 1682.86,-250.173"/>
<text text-anchor="middle" x="1263" y="-133.219" font-family="Helvetica,sans-Serif" font-size="10.00"> mySLogoView</text>
</g>
<!-- Node27 -->
<g id="node27" class="node"><title>Node27</title>
<polygon fill="white" stroke="#bfbfbf" points="1451.5,-172.719 1451.5,-191.719 1496.5,-191.719 1496.5,-172.719 1451.5,-172.719"/>
<text text-anchor="middle" x="1474" y="-179.719" font-family="Helvetica,sans-Serif" font-size="10.00">Stage</text>
</g>
<!-- Node27&#45;&gt;Node26 -->
<g id="edge33" class="edge"><title>Node27&#45;&gt;Node26</title>
<path fill="none" stroke="#9a32cd" stroke-dasharray="5,2" d="M1506.89,-181.001C1539.02,-181.021 1589.27,-184.538 1628,-203.219 1654.37,-215.939 1677.11,-242.921 1688.05,-257.457"/>
<polygon fill="#9a32cd" stroke="#9a32cd" points="1506.69,-177.503 1496.72,-181.111 1506.76,-184.502 1506.69,-177.503"/>
<text text-anchor="middle" x="1590" y="-206.219" font-family="Helvetica,sans-Serif" font-size="10.00"> myStage</text>
</g>
<!-- Node28&#45;&gt;Node26 -->
<g id="edge35" class="edge"><title>Node28&#45;&gt;Node26</title>
<path fill="none" stroke="#9a32cd" stroke-dasharray="5,2" d="M1306.58,-192.025C1374.59,-204.552 1511.9,-230.088 1628,-253.219 1635.23,-254.659 1642.88,-256.223 1650.33,-257.765"/>
<polygon fill="#9a32cd" stroke="#9a32cd" points="1307.14,-188.568 1296.67,-190.201 1305.87,-195.453 1307.14,-188.568"/>
<text text-anchor="middle" x="1474" y="-238.219" font-family="Helvetica,sans-Serif" font-size="10.00"> myEditor</text>
</g>
<!-- Node29 -->
<g id="node29" class="node"><title>Node29</title>
<polygon fill="white" stroke="#bfbfbf" points="1013,-175.719 1013,-194.719 1055,-194.719 1055,-175.719 1013,-175.719"/>
<text text-anchor="middle" x="1034" y="-182.719" font-family="Helvetica,sans-Serif" font-size="10.00">HBox</text>
</g>
<!-- Node29&#45;&gt;Node28 -->
<g id="edge36" class="edge"><title>Node29&#45;&gt;Node28</title>
<path fill="none" stroke="midnightblue" d="M1065.27,-183.892C1081.49,-183.245 1101.83,-182.54 1120,-182.219 1155.55,-181.592 1164.45,-181.646 1200,-182.219 1209.48,-182.372 1219.76,-182.656 1229.18,-182.963"/>
<polygon fill="midnightblue" stroke="midnightblue" points="1065.11,-180.395 1055.26,-184.303 1065.4,-187.389 1065.11,-180.395"/>
</g>
<!-- Node30 -->
<g id="node30" class="node"><title>Node30</title>
<polygon fill="white" stroke="#bfbfbf" points="1009.5,-137.719 1009.5,-156.719 1058.5,-156.719 1058.5,-137.719 1009.5,-137.719"/>
<text text-anchor="middle" x="1034" y="-144.719" font-family="Helvetica,sans-Serif" font-size="10.00">Button</text>
</g>
<!-- Node30&#45;&gt;Node28 -->
<g id="edge37" class="edge"><title>Node30&#45;&gt;Node28</title>
<path fill="none" stroke="#9a32cd" stroke-dasharray="5,2" d="M1068.84,-149.856C1102.36,-152.811 1155.03,-158.379 1200,-167.219 1210.08,-169.2 1220.92,-171.953 1230.67,-174.667"/>
<polygon fill="#9a32cd" stroke="#9a32cd" points="1068.93,-146.351 1058.67,-148.988 1068.34,-153.326 1068.93,-146.351"/>
<text text-anchor="middle" x="1160" y="-170.219" font-family="Helvetica,sans-Serif" font-size="10.00"> runButton</text>
</g>
<!-- Node31 -->
<g id="node31" class="node"><title>Node31</title>
<polygon fill="white" stroke="#bfbfbf" points="1005,-213.719 1005,-232.719 1063,-232.719 1063,-213.719 1005,-213.719"/>
<text text-anchor="middle" x="1034" y="-220.719" font-family="Helvetica,sans-Serif" font-size="10.00">TextArea</text>
</g>
<!-- Node31&#45;&gt;Node28 -->
<g id="edge39" class="edge"><title>Node31&#45;&gt;Node28</title>
<path fill="none" stroke="#9a32cd" stroke-dasharray="5,2" d="M1072.88,-212.862C1087.52,-209.123 1104.46,-205.114 1120,-202.219 1157.26,-195.28 1200.52,-190.221 1229.4,-187.264"/>
<polygon fill="#9a32cd" stroke="#9a32cd" points="1071.95,-209.487 1063.15,-215.392 1073.71,-216.261 1071.95,-209.487"/>
<text text-anchor="middle" x="1160" y="-205.219" font-family="Helvetica,sans-Serif" font-size="10.00"> textEditor</text>
</g>
<!-- Node32 -->
<g id="node32" class="node"><title>Node32</title>
<polygon fill="white" stroke="#bfbfbf" points="1414.5,-333.719 1414.5,-352.719 1533.5,-352.719 1533.5,-333.719 1414.5,-333.719"/>
<text text-anchor="middle" x="1474" y="-340.719" font-family="Helvetica,sans-Serif" font-size="10.00">Map&lt; String, Node &gt;</text>
</g>
<!-- Node32&#45;&gt;Node26 -->
<g id="edge41" class="edge"><title>Node32&#45;&gt;Node26</title>
<path fill="none" stroke="#9a32cd" stroke-dasharray="5,2" d="M1543.97,-337.82C1570.97,-333.986 1601.71,-327.43 1628,-316.219 1650.54,-306.61 1672.69,-288.155 1685.03,-276.84"/>
<polygon fill="#9a32cd" stroke="#9a32cd" points="1543.28,-334.381 1533.82,-339.16 1544.19,-341.321 1543.28,-334.381"/>
<text text-anchor="middle" x="1590" y="-339.219" font-family="Helvetica,sans-Serif" font-size="10.00"> variables</text>
</g>
<!-- Node33 -->
<g id="node33" class="node"><title>Node33</title>
<polygon fill="white" stroke="#bfbfbf" points="1433.5,-33.7195 1433.5,-52.7195 1514.5,-52.7195 1514.5,-33.7195 1433.5,-33.7195"/>
<text text-anchor="middle" x="1474" y="-40.7195" font-family="Helvetica,sans-Serif" font-size="10.00">Dimension2D</text>
</g>
<!-- Node33&#45;&gt;Node26 -->
<g id="edge44" class="edge"><title>Node33&#45;&gt;Node26</title>
<path fill="none" stroke="#9a32cd" stroke-dasharray="5,2" d="M1524.84,-34.2685C1557.56,-31.2992 1599.43,-33.3983 1628,-56.2195 1693.16,-108.275 1696,-223.688 1695.35,-257.645"/>
<polygon fill="#9a32cd" stroke="#9a32cd" points="1524.12,-30.8255 1514.56,-35.3908 1524.88,-37.7841 1524.12,-30.8255"/>
<text text-anchor="middle" x="1590" y="-59.2195" font-family="Helvetica,sans-Serif" font-size="10.00"> myDimensions</text>
</g>
</g>
</svg>
