<?xml version="1.0" encoding="UTF-8" standalone="no"?>
<!DOCTYPE svg PUBLIC "-//W3C//DTD SVG 1.1//EN"
 "http://www.w3.org/Graphics/SVG/1.1/DTD/svg11.dtd">
<!-- Generated by graphviz version 2.36.0 (20140111.2315)
 -->
<!-- Title: model.Parser Pages: 1 -->
<svg width="1630pt" height="735pt"
 viewBox="0.00 0.00 1630.00 735.00" xmlns="http://www.w3.org/2000/svg" xmlns:xlink="http://www.w3.org/1999/xlink">
<g id="graph0" class="graph" transform="scale(1 1) rotate(0) translate(4 731)">
<title>model.Parser</title>
<polygon fill="white" stroke="none" points="-4,4 -4,-731 1626,-731 1626,4 -4,4"/>
<!-- Node1 -->
<g id="node1" class="node"><title>Node1</title>
<polygon fill="#bfbfbf" stroke="black" points="636,-479.5 636,-498.5 716,-498.5 716,-479.5 636,-479.5"/>
<text text-anchor="middle" x="676" y="-486.5" font-family="Helvetica,sans-Serif" font-size="10.00">model.Parser</text>
</g>
<!-- Node17 -->
<g id="node17" class="node"><title>Node17</title>
<g id="a_node17"><a xlink:href="../../d4/dd9/classcontroller_1_1_s_logo_controller.html" target="_top" xlink:title="controller.SLogoController">
<polygon fill="white" stroke="black" points="812,-184.5 812,-203.5 952,-203.5 952,-184.5 812,-184.5"/>
<text text-anchor="middle" x="882" y="-191.5" font-family="Helvetica,sans-Serif" font-size="10.00">controller.SLogoController</text>
</a>
</g>
</g>
<!-- Node1&#45;&gt;Node17 -->
<g id="edge18" class="edge"><title>Node1&#45;&gt;Node17</title>
<path fill="none" stroke="#9a32cd" stroke-dasharray="5,2" d="M680.368,-469.348C689.928,-419.619 721.91,-287.789 802,-218 809.241,-211.691 818.103,-207.04 827.241,-203.612"/>
<polygon fill="#9a32cd" stroke="#9a32cd" points="676.884,-468.941 678.53,-479.407 683.77,-470.199 676.884,-468.941"/>
<text text-anchor="middle" x="759" y="-311" font-family="Helvetica,sans-Serif" font-size="10.00"> myParser</text>
</g>
<!-- Node2 -->
<g id="node2" class="node"><title>Node2</title>
<polygon fill="white" stroke="#bfbfbf" points="369,-667.5 369,-686.5 429,-686.5 429,-667.5 369,-667.5"/>
<text text-anchor="middle" x="399" y="-674.5" font-family="Helvetica,sans-Serif" font-size="10.00">Observer</text>
</g>
<!-- Node2&#45;&gt;Node1 -->
<g id="edge1" class="edge"><title>Node2&#45;&gt;Node1</title>
<path fill="none" stroke="midnightblue" d="M424.352,-662.006C465.137,-636.677 549.523,-583.345 618,-534 634.162,-522.354 652.086,-507.942 663.441,-498.615"/>
<polygon fill="midnightblue" stroke="midnightblue" points="422.301,-659.159 415.643,-667.4 425.987,-665.11 422.301,-659.159"/>
</g>
<!-- Node8 -->
<g id="node8" class="node"><title>Node8</title>
<g id="a_node8"><a xlink:href="../../d6/de7/classview_1_1_s_logo_view.html" target="_top" xlink:title="view.SLogoView">
<polygon fill="white" stroke="black" points="1530.5,-266.5 1530.5,-285.5 1621.5,-285.5 1621.5,-266.5 1530.5,-266.5"/>
<text text-anchor="middle" x="1576" y="-273.5" font-family="Helvetica,sans-Serif" font-size="10.00">view.SLogoView</text>
</a>
</g>
</g>
<!-- Node2&#45;&gt;Node8 -->
<g id="edge8" class="edge"><title>Node2&#45;&gt;Node8</title>
<path fill="none" stroke="midnightblue" d="M439.052,-688.678C492,-703.454 589.751,-727 675,-727 675,-727 675,-727 1359,-727 1561.71,-727 1574.33,-351.793 1574.99,-285.839"/>
<polygon fill="midnightblue" stroke="midnightblue" points="439.963,-685.299 429.388,-685.939 438.054,-692.033 439.963,-685.299"/>
</g>
<!-- Node3 -->
<g id="node3" class="node"><title>Node3</title>
<polygon fill="white" stroke="#bfbfbf" points="343,-430 343,-460 455,-460 455,-430 343,-430"/>
<text text-anchor="start" x="351" y="-448" font-family="Helvetica,sans-Serif" font-size="10.00">List&lt; Entry&lt; String,</text>
<text text-anchor="middle" x="399" y="-437" font-family="Helvetica,sans-Serif" font-size="10.00"> Pattern &gt; &gt;</text>
</g>
<!-- Node3&#45;&gt;Node1 -->
<g id="edge2" class="edge"><title>Node3&#45;&gt;Node1</title>
<path fill="none" stroke="#9a32cd" stroke-dasharray="5,2" d="M465.572,-451.557C509.035,-456.434 567.196,-463.977 618,-474 625.73,-475.525 633.967,-477.49 641.706,-479.492"/>
<polygon fill="#9a32cd" stroke="#9a32cd" points="465.737,-448.054 455.413,-450.436 464.969,-455.012 465.737,-448.054"/>
<text text-anchor="middle" x="557" y="-477" font-family="Helvetica,sans-Serif" font-size="10.00"> myPatterns</text>
</g>
<!-- Node4 -->
<g id="node4" class="node"><title>Node4</title>
<g id="a_node4"><a xlink:href="../../d1/dca/classmodel_1_1_execution_environment.html" target="_top" xlink:title="model.ExecutionEnvironment">
<polygon fill="white" stroke="black" points="320.5,-517.5 320.5,-536.5 477.5,-536.5 477.5,-517.5 320.5,-517.5"/>
<text text-anchor="middle" x="399" y="-524.5" font-family="Helvetica,sans-Serif" font-size="10.00">model.ExecutionEnvironment</text>
</a>
</g>
</g>
<!-- Node4&#45;&gt;Node1 -->
<g id="edge3" class="edge"><title>Node4&#45;&gt;Node1</title>
<path fill="none" stroke="#9a32cd" stroke-dasharray="5,2" d="M487.516,-520.01C527.478,-516.141 575.314,-510.558 618,-503 624.923,-501.774 632.256,-500.192 639.273,-498.535"/>
<polygon fill="#9a32cd" stroke="#9a32cd" points="487.158,-516.528 477.533,-520.956 487.819,-523.496 487.158,-516.528"/>
<text text-anchor="middle" x="557" y="-522" font-family="Helvetica,sans-Serif" font-size="10.00"> myExecutionParameters</text>
</g>
<!-- Node5 -->
<g id="node5" class="node"><title>Node5</title>
<polygon fill="white" stroke="#bfbfbf" points="51.5,-539.5 51.5,-558.5 122.5,-558.5 122.5,-539.5 51.5,-539.5"/>
<text text-anchor="middle" x="87" y="-546.5" font-family="Helvetica,sans-Serif" font-size="10.00">Observable</text>
</g>
<!-- Node5&#45;&gt;Node4 -->
<g id="edge4" class="edge"><title>Node5&#45;&gt;Node4</title>
<path fill="none" stroke="midnightblue" d="M132.634,-545.832C181.641,-542.355 261.232,-536.706 320.485,-532.501"/>
<polygon fill="midnightblue" stroke="midnightblue" points="132.386,-542.341 122.659,-546.54 132.881,-549.324 132.386,-542.341"/>
</g>
<!-- Node6 -->
<g id="node6" class="node"><title>Node6</title>
<polygon fill="white" stroke="#bfbfbf" points="0,-490 0,-520 174,-520 174,-490 0,-490"/>
<text text-anchor="start" x="8" y="-508" font-family="Helvetica,sans-Serif" font-size="10.00">Map&lt; String, model.instructions.</text>
<text text-anchor="middle" x="87" y="-497" font-family="Helvetica,sans-Serif" font-size="10.00">Instruction &gt;</text>
</g>
<!-- Node6&#45;&gt;Node4 -->
<g id="edge5" class="edge"><title>Node6&#45;&gt;Node4</title>
<path fill="none" stroke="#9a32cd" stroke-dasharray="5,2" d="M184.352,-503.395C221.236,-503.673 263.649,-505.074 302,-509 319.712,-510.813 339.045,-514.167 355.689,-517.493"/>
<polygon fill="#9a32cd" stroke="#9a32cd" points="184.12,-499.894 174.103,-503.346 184.086,-506.894 184.12,-499.894"/>
<text text-anchor="middle" x="247" y="-523" font-family="Helvetica,sans-Serif" font-size="10.00"> myVariableMap</text>
<text text-anchor="middle" x="247" y="-512" font-family="Helvetica,sans-Serif" font-size="10.00">myUserInstructionMap</text>
</g>
<!-- Node7 -->
<g id="node7" class="node"><title>Node7</title>
<polygon fill="white" stroke="#bfbfbf" points="338,-479.5 338,-498.5 460,-498.5 460,-479.5 338,-479.5"/>
<text text-anchor="middle" x="399" y="-486.5" font-family="Helvetica,sans-Serif" font-size="10.00">Map&lt; String, String &gt;</text>
</g>
<!-- Node7&#45;&gt;Node1 -->
<g id="edge6" class="edge"><title>Node7&#45;&gt;Node1</title>
<path fill="none" stroke="#9a32cd" stroke-dasharray="5,2" d="M470.284,-489C522.88,-489 592.879,-489 635.895,-489"/>
<polygon fill="#9a32cd" stroke="#9a32cd" points="470.01,-485.5 460.01,-489 470.01,-492.5 470.01,-485.5"/>
<text text-anchor="middle" x="557" y="-492" font-family="Helvetica,sans-Serif" font-size="10.00"> myCommandMap</text>
</g>
<!-- Node8&#45;&gt;Node1 -->
<g id="edge7" class="edge"><title>Node8&#45;&gt;Node1</title>
<path fill="none" stroke="#9a32cd" stroke-dasharray="5,2" d="M1566.84,-295.182C1543.12,-347.538 1468.88,-489 1359,-489 881,-489 881,-489 881,-489 823.625,-489 757.173,-489 716.108,-489"/>
<polygon fill="#9a32cd" stroke="#9a32cd" points="1570.18,-296.268 1571.01,-285.706 1563.78,-293.444 1570.18,-296.268"/>
<text text-anchor="middle" x="1143" y="-492" font-family="Helvetica,sans-Serif" font-size="10.00"> mySLogoView</text>
</g>
<!-- Node9 -->
<g id="node9" class="node"><title>Node9</title>
<g id="a_node9"><a xlink:href="../../da/d64/classview_1_1_workspace.html" target="_top" xlink:title="view.Workspace">
<polygon fill="white" stroke="black" points="1313,-583.5 1313,-602.5 1403,-602.5 1403,-583.5 1313,-583.5"/>
<text text-anchor="middle" x="1358" y="-590.5" font-family="Helvetica,sans-Serif" font-size="10.00">view.Workspace</text>
</a>
</g>
</g>
<!-- Node9&#45;&gt;Node8 -->
<g id="edge9" class="edge"><title>Node9&#45;&gt;Node8</title>
<path fill="none" stroke="#9a32cd" stroke-dasharray="5,2" d="M1413.12,-588.113C1446.15,-582.3 1486.74,-569.619 1512,-542 1547.87,-502.777 1569.2,-328.538 1573.97,-285.591"/>
<polygon fill="#9a32cd" stroke="#9a32cd" points="1412.46,-584.673 1403.13,-589.705 1413.56,-591.586 1412.46,-584.673"/>
<text text-anchor="middle" x="1474" y="-586" font-family="Helvetica,sans-Serif" font-size="10.00"> myWorkspace</text>
</g>
<!-- Node10 -->
<g id="node10" class="node"><title>Node10</title>
<polygon fill="white" stroke="#bfbfbf" points="1109.5,-594.5 1109.5,-613.5 1176.5,-613.5 1176.5,-594.5 1109.5,-594.5"/>
<text text-anchor="middle" x="1143" y="-601.5" font-family="Helvetica,sans-Serif" font-size="10.00">StackPane</text>
</g>
<!-- Node10&#45;&gt;Node9 -->
<g id="edge10" class="edge"><title>Node10&#45;&gt;Node9</title>
<path fill="none" stroke="midnightblue" d="M1187.14,-601.772C1223.67,-599.886 1275.81,-597.193 1312.66,-595.29"/>
<polygon fill="midnightblue" stroke="midnightblue" points="1186.62,-598.294 1176.81,-602.305 1186.98,-605.285 1186.62,-598.294"/>
</g>
<!-- Node11 -->
<g id="node11" class="node"><title>Node11</title>
<g id="a_node11"><a xlink:href="../../d8/df7/classview_1_1_turtle_view.html" target="_top" xlink:title="view.TurtleView">
<polygon fill="white" stroke="black" points="1100,-679.5 1100,-698.5 1186,-698.5 1186,-679.5 1100,-679.5"/>
<text text-anchor="middle" x="1143" y="-686.5" font-family="Helvetica,sans-Serif" font-size="10.00">view.TurtleView</text>
</a>
</g>
</g>
<!-- Node11&#45;&gt;Node9 -->
<g id="edge11" class="edge"><title>Node11&#45;&gt;Node9</title>
<path fill="none" stroke="#9a32cd" stroke-dasharray="5,2" d="M1196.22,-686.269C1222.47,-683.226 1254.12,-676.929 1280,-664 1310.26,-648.884 1337.19,-618.253 1349.66,-602.632"/>
<polygon fill="#9a32cd" stroke="#9a32cd" points="1195.66,-682.808 1186.07,-687.317 1196.38,-689.771 1195.66,-682.808"/>
<text text-anchor="middle" x="1242" y="-689" font-family="Helvetica,sans-Serif" font-size="10.00"> myActiveTurtle</text>
</g>
<!-- Node12 -->
<g id="node12" class="node"><title>Node12</title>
<polygon fill="white" stroke="#bfbfbf" points="848,-679.5 848,-698.5 916,-698.5 916,-679.5 848,-679.5"/>
<text text-anchor="middle" x="882" y="-686.5" font-family="Helvetica,sans-Serif" font-size="10.00">ImageView</text>
</g>
<!-- Node12&#45;&gt;Node11 -->
<g id="edge12" class="edge"><title>Node12&#45;&gt;Node11</title>
<path fill="none" stroke="midnightblue" d="M926.178,-689C974.372,-689 1051.85,-689 1099.69,-689"/>
<polygon fill="midnightblue" stroke="midnightblue" points="926.066,-685.5 916.066,-689 926.066,-692.5 926.066,-685.5"/>
</g>
<!-- Node13 -->
<g id="node13" class="node"><title>Node13</title>
<polygon fill="white" stroke="#bfbfbf" points="814,-533 814,-563 950,-563 950,-533 814,-533"/>
<text text-anchor="start" x="822" y="-551" font-family="Helvetica,sans-Serif" font-size="10.00">Map&lt; Integer, view.Turtle</text>
<text text-anchor="middle" x="882" y="-540" font-family="Helvetica,sans-Serif" font-size="10.00">View &gt;</text>
</g>
<!-- Node13&#45;&gt;Node8 -->
<g id="edge37" class="edge"><title>Node13&#45;&gt;Node8</title>
<path fill="none" stroke="#9a32cd" stroke-dasharray="5,2" d="M960.176,-547.384C1118.81,-545.421 1470.18,-537.216 1512,-503 1547.06,-474.316 1568.61,-325.33 1573.79,-285.694"/>
<polygon fill="#9a32cd" stroke="#9a32cd" points="959.969,-543.887 950.011,-547.505 960.052,-550.886 959.969,-543.887"/>
<text text-anchor="middle" x="1242" y="-545" font-family="Helvetica,sans-Serif" font-size="10.00"> myTurtles</text>
</g>
<!-- Node13&#45;&gt;Node9 -->
<g id="edge13" class="edge"><title>Node13&#45;&gt;Node9</title>
<path fill="none" stroke="#9a32cd" stroke-dasharray="5,2" d="M924.828,-567.146C967.742,-585.657 1036.96,-612.413 1100,-623 1137.69,-629.33 1147.83,-625.025 1186,-623 1227.95,-620.775 1238.67,-620.524 1280,-613 1294.81,-610.304 1310.97,-606.278 1324.64,-602.543"/>
<polygon fill="#9a32cd" stroke="#9a32cd" points="926.121,-563.892 915.556,-563.098 923.32,-570.307 926.121,-563.892"/>
<text text-anchor="middle" x="1143" y="-630" font-family="Helvetica,sans-Serif" font-size="10.00"> myTurtles</text>
</g>
<!-- Node14 -->
<g id="node14" class="node"><title>Node14</title>
<g id="a_node14"><a xlink:href="../../d1/dc7/classview_1_1_side_bar.html" target="_top" xlink:title="view.SideBar">
<polygon fill="white" stroke="black" points="1104.5,-352.5 1104.5,-371.5 1181.5,-371.5 1181.5,-352.5 1104.5,-352.5"/>
<text text-anchor="middle" x="1143" y="-359.5" font-family="Helvetica,sans-Serif" font-size="10.00">view.SideBar</text>
</a>
</g>
</g>
<!-- Node13&#45;&gt;Node14 -->
<g id="edge20" class="edge"><title>Node13&#45;&gt;Node14</title>
<path fill="none" stroke="#9a32cd" stroke-dasharray="5,2" d="M941.906,-529.487C984.31,-514.012 1041.03,-488.694 1082,-453 1109.4,-429.134 1129.45,-389.88 1137.76,-371.744"/>
<polygon fill="#9a32cd" stroke="#9a32cd" points="940.514,-526.267 932.272,-532.924 942.866,-532.86 940.514,-526.267"/>
<text text-anchor="middle" x="1031" y="-518" font-family="Helvetica,sans-Serif" font-size="10.00"> myTurtles</text>
</g>
<!-- Node14&#45;&gt;Node8 -->
<g id="edge41" class="edge"><title>Node14&#45;&gt;Node8</title>
<path fill="none" stroke="#9a32cd" stroke-dasharray="5,2" d="M1191.74,-364.034C1263.83,-365.424 1403.57,-361.493 1512,-318 1531.76,-310.072 1551.74,-295.359 1563.75,-285.623"/>
<polygon fill="#9a32cd" stroke="#9a32cd" points="1191.68,-360.532 1181.6,-363.794 1191.52,-367.53 1191.68,-360.532"/>
<text text-anchor="middle" x="1358" y="-365" font-family="Helvetica,sans-Serif" font-size="10.00"> mySidebar</text>
</g>
<!-- Node14&#45;&gt;Node9 -->
<g id="edge14" class="edge"><title>Node14&#45;&gt;Node9</title>
<path fill="none" stroke="#9a32cd" stroke-dasharray="5,2" d="M1176.01,-375.317C1185.01,-378.922 1194.84,-382.729 1204,-386 1237.36,-397.919 1253.82,-386.136 1280,-410 1334.26,-459.462 1351.53,-553.303 1355.8,-583.432"/>
<polygon fill="#9a32cd" stroke="#9a32cd" points="1177.22,-372.032 1166.64,-371.52 1174.59,-378.519 1177.22,-372.032"/>
<text text-anchor="middle" x="1242" y="-413" font-family="Helvetica,sans-Serif" font-size="10.00"> mySidebar</text>
</g>
<!-- Node24 -->
<g id="node24" class="node"><title>Node24</title>
<g id="a_node24"><a xlink:href="../../da/dc8/classview_1_1_editor.html" target="_top" xlink:title="view.Editor">
<polygon fill="white" stroke="black" points="1324.5,-304.5 1324.5,-323.5 1391.5,-323.5 1391.5,-304.5 1324.5,-304.5"/>
<text text-anchor="middle" x="1358" y="-311.5" font-family="Helvetica,sans-Serif" font-size="10.00">view.Editor</text>
</a>
</g>
</g>
<!-- Node14&#45;&gt;Node24 -->
<g id="edge32" class="edge"><title>Node14&#45;&gt;Node24</title>
<path fill="none" stroke="#9a32cd" stroke-dasharray="5,2" d="M1191.54,-350.859C1195.75,-349.886 1199.95,-348.922 1204,-348 1245.52,-338.543 1293.46,-327.942 1324.44,-321.13"/>
<polygon fill="#9a32cd" stroke="#9a32cd" points="1190.71,-347.459 1181.75,-353.127 1192.29,-354.279 1190.71,-347.459"/>
<text text-anchor="middle" x="1242" y="-351" font-family="Helvetica,sans-Serif" font-size="10.00"> mySidebar</text>
</g>
<!-- Node15 -->
<g id="node15" class="node"><title>Node15</title>
<polygon fill="white" stroke="#bfbfbf" points="861.5,-315.5 861.5,-334.5 902.5,-334.5 902.5,-315.5 861.5,-315.5"/>
<text text-anchor="middle" x="882" y="-322.5" font-family="Helvetica,sans-Serif" font-size="10.00">VBox</text>
</g>
<!-- Node15&#45;&gt;Node14 -->
<g id="edge15" class="edge"><title>Node15&#45;&gt;Node14</title>
<path fill="none" stroke="midnightblue" d="M912.834,-329.262C960.215,-336.031 1052.59,-349.227 1104.42,-356.632"/>
<polygon fill="midnightblue" stroke="midnightblue" points="913.288,-325.791 902.893,-327.842 912.298,-332.721 913.288,-325.791"/>
</g>
<!-- Node16 -->
<g id="node16" class="node"><title>Node16</title>
<polygon fill="white" stroke="#bfbfbf" points="835.5,-441.5 835.5,-460.5 928.5,-460.5 928.5,-441.5 835.5,-441.5"/>
<text text-anchor="middle" x="882" y="-448.5" font-family="Helvetica,sans-Serif" font-size="10.00">ResourceBundle</text>
</g>
<!-- Node16&#45;&gt;Node8 -->
<g id="edge26" class="edge"><title>Node16&#45;&gt;Node8</title>
<path fill="none" stroke="#9a32cd" stroke-dasharray="5,2" d="M938.593,-452.804C978.548,-453.593 1033.67,-453.643 1082,-450 1170.69,-443.316 1193.34,-441.02 1280,-421 1342.72,-406.509 1356.96,-397.442 1418,-377 1459.99,-362.94 1474.98,-368.287 1512,-344 1536.49,-327.934 1558,-300.342 1568.39,-285.734"/>
<polygon fill="#9a32cd" stroke="#9a32cd" points="938.593,-449.304 928.518,-452.584 938.439,-456.302 938.593,-449.304"/>
<text text-anchor="middle" x="1242" y="-440" font-family="Helvetica,sans-Serif" font-size="10.00"> myResources</text>
</g>
<!-- Node16&#45;&gt;Node14 -->
<g id="edge16" class="edge"><title>Node16&#45;&gt;Node14</title>
<path fill="none" stroke="#9a32cd" stroke-dasharray="5,2" d="M938.843,-443.951C988.604,-437.067 1057.27,-425.915 1082,-414 1103.36,-403.71 1123.1,-383.773 1133.76,-371.798"/>
<polygon fill="#9a32cd" stroke="#9a32cd" points="938.284,-440.494 928.848,-445.311 939.228,-447.43 938.284,-440.494"/>
<text text-anchor="middle" x="1031" y="-441" font-family="Helvetica,sans-Serif" font-size="10.00"> myResources</text>
</g>
<!-- Node17&#45;&gt;Node8 -->
<g id="edge34" class="edge"><title>Node17&#45;&gt;Node8</title>
<path fill="none" stroke="#9a32cd" stroke-dasharray="5,2" d="M937.934,-182.666C951.615,-180.315 966.291,-178.192 980,-177 1112.98,-165.436 1167.89,-118.561 1280,-191 1292.43,-199.029 1285.8,-210.632 1298,-219 1335.25,-244.55 1462.05,-262.818 1530.43,-271.073"/>
<polygon fill="#9a32cd" stroke="#9a32cd" points="936.926,-179.29 927.699,-184.496 938.159,-186.181 936.926,-179.29"/>
<text text-anchor="middle" x="1242" y="-194" font-family="Helvetica,sans-Serif" font-size="10.00"> myController</text>
</g>
<!-- Node17&#45;&gt;Node14 -->
<g id="edge17" class="edge"><title>Node17&#45;&gt;Node14</title>
<path fill="none" stroke="#9a32cd" stroke-dasharray="5,2" d="M962.251,-199.823C1013.89,-204.384 1073.26,-211.391 1082,-220 1121.37,-258.765 1066.76,-298.872 1100,-343 1102.89,-346.835 1106.73,-349.917 1110.92,-352.386"/>
<polygon fill="#9a32cd" stroke="#9a32cd" points="962.307,-196.315 952.044,-198.944 961.706,-203.289 962.307,-196.315"/>
<text text-anchor="middle" x="1031" y="-223" font-family="Helvetica,sans-Serif" font-size="10.00"> myController</text>
</g>
<!-- Node17&#45;&gt;Node24 -->
<g id="edge30" class="edge"><title>Node17&#45;&gt;Node24</title>
<path fill="none" stroke="#9a32cd" stroke-dasharray="5,2" d="M945.809,-183.102C1033,-171.881 1190.09,-166.426 1280,-252 1295.01,-266.284 1282.74,-280.985 1298,-295 1305.29,-301.697 1314.96,-306.035 1324.36,-308.843"/>
<polygon fill="#9a32cd" stroke="#9a32cd" points="945.231,-179.648 935.79,-184.457 946.169,-186.585 945.231,-179.648"/>
<text text-anchor="middle" x="1143" y="-200" font-family="Helvetica,sans-Serif" font-size="10.00"> myController</text>
</g>
<!-- Node18 -->
<g id="node18" class="node"><title>Node18</title>
<polygon fill="white" stroke="#bfbfbf" points="815,-228 815,-258 949,-258 949,-228 815,-228"/>
<text text-anchor="start" x="823" y="-246" font-family="Helvetica,sans-Serif" font-size="10.00">TableView&lt; view.Variable</text>
<text text-anchor="middle" x="882" y="-235" font-family="Helvetica,sans-Serif" font-size="10.00">View &gt;</text>
</g>
<!-- Node18&#45;&gt;Node14 -->
<g id="edge19" class="edge"><title>Node18&#45;&gt;Node14</title>
<path fill="none" stroke="#9a32cd" stroke-dasharray="5,2" d="M959.708,-233.627C1000.73,-232.95 1049.36,-239.727 1082,-269 1107.2,-291.599 1078.39,-316.944 1100,-343 1103.17,-346.82 1107.26,-349.904 1111.65,-352.384"/>
<polygon fill="#9a32cd" stroke="#9a32cd" points="959.343,-230.136 949.458,-233.95 959.563,-237.133 959.343,-230.136"/>
<text text-anchor="middle" x="1031" y="-283" font-family="Helvetica,sans-Serif" font-size="10.00"> turtlePropertiesTable</text>
<text text-anchor="middle" x="1031" y="-272" font-family="Helvetica,sans-Serif" font-size="10.00">variablesTable</text>
</g>
<!-- Node19 -->
<g id="node19" class="node"><title>Node19</title>
<polygon fill="white" stroke="#bfbfbf" points="802.5,-392 802.5,-422 961.5,-422 961.5,-392 802.5,-392"/>
<text text-anchor="start" x="810.5" y="-410" font-family="Helvetica,sans-Serif" font-size="10.00">ObservableList&lt; view.Variable</text>
<text text-anchor="middle" x="882" y="-399" font-family="Helvetica,sans-Serif" font-size="10.00">View &gt;</text>
</g>
<!-- Node19&#45;&gt;Node14 -->
<g id="edge21" class="edge"><title>Node19&#45;&gt;Node14</title>
<path fill="none" stroke="#9a32cd" stroke-dasharray="5,2" d="M971.695,-399.634C1006.37,-395.773 1046.31,-390.108 1082,-382 1093.67,-379.349 1106.28,-375.33 1116.91,-371.588"/>
<polygon fill="#9a32cd" stroke="#9a32cd" points="971.156,-396.171 961.59,-400.725 971.908,-403.131 971.156,-396.171"/>
<text text-anchor="middle" x="1031" y="-402" font-family="Helvetica,sans-Serif" font-size="10.00"> variablesList</text>
</g>
<!-- Node20 -->
<g id="node20" class="node"><title>Node20</title>
<polygon fill="white" stroke="#bfbfbf" points="813,-353.5 813,-372.5 951,-372.5 951,-353.5 813,-353.5"/>
<text text-anchor="middle" x="882" y="-360.5" font-family="Helvetica,sans-Serif" font-size="10.00">ObservableList&lt; String &gt;</text>
</g>
<!-- Node20&#45;&gt;Node14 -->
<g id="edge22" class="edge"><title>Node20&#45;&gt;Node14</title>
<path fill="none" stroke="#9a32cd" stroke-dasharray="5,2" d="M961.126,-360.374C967.511,-360.223 973.864,-360.095 980,-360 1025.33,-359.299 1036.67,-359.245 1082,-360 1089.19,-360.12 1096.86,-360.32 1104.24,-360.549"/>
<polygon fill="#9a32cd" stroke="#9a32cd" points="961.002,-356.876 951.094,-360.628 961.179,-363.874 961.002,-356.876"/>
<text text-anchor="middle" x="1031" y="-374" font-family="Helvetica,sans-Serif" font-size="10.00"> commandItems</text>
<text text-anchor="middle" x="1031" y="-363" font-family="Helvetica,sans-Serif" font-size="10.00">historyItems</text>
</g>
<!-- Node21 -->
<g id="node21" class="node"><title>Node21</title>
<polygon fill="white" stroke="#bfbfbf" points="829,-277.5 829,-296.5 935,-296.5 935,-277.5 829,-277.5"/>
<text text-anchor="middle" x="882" y="-284.5" font-family="Helvetica,sans-Serif" font-size="10.00">ListView&lt; String &gt;</text>
</g>
<!-- Node21&#45;&gt;Node14 -->
<g id="edge23" class="edge"><title>Node21&#45;&gt;Node14</title>
<path fill="none" stroke="#9a32cd" stroke-dasharray="5,2" d="M945.34,-289.466C986.225,-293.29 1039.73,-302.616 1082,-325 1092,-330.295 1090.7,-336.564 1100,-343 1105.13,-346.551 1111.04,-349.702 1116.77,-352.367"/>
<polygon fill="#9a32cd" stroke="#9a32cd" points="945.492,-285.966 935.232,-288.607 944.9,-292.941 945.492,-285.966"/>
<text text-anchor="middle" x="1031" y="-328" font-family="Helvetica,sans-Serif" font-size="10.00"> historyList</text>
</g>
<!-- Node22 -->
<g id="node22" class="node"><title>Node22</title>
<polygon fill="white" stroke="#bfbfbf" points="1111.5,-556.5 1111.5,-575.5 1174.5,-575.5 1174.5,-556.5 1111.5,-556.5"/>
<text text-anchor="middle" x="1143" y="-563.5" font-family="Helvetica,sans-Serif" font-size="10.00">Rectangle</text>
</g>
<!-- Node22&#45;&gt;Node9 -->
<g id="edge24" class="edge"><title>Node22&#45;&gt;Node9</title>
<path fill="none" stroke="#9a32cd" stroke-dasharray="5,2" d="M1184.76,-571.044C1211.78,-574.4 1248.01,-578.924 1280,-583 1290.56,-584.346 1301.94,-585.814 1312.62,-587.2"/>
<polygon fill="#9a32cd" stroke="#9a32cd" points="1184.88,-567.531 1174.52,-569.773 1184.02,-574.478 1184.88,-567.531"/>
<text text-anchor="middle" x="1242" y="-586" font-family="Helvetica,sans-Serif" font-size="10.00"> myBackground</text>
</g>
<!-- Node23 -->
<g id="node23" class="node"><title>Node23</title>
<polygon fill="white" stroke="#bfbfbf" points="1335.5,-266.5 1335.5,-285.5 1380.5,-285.5 1380.5,-266.5 1335.5,-266.5"/>
<text text-anchor="middle" x="1358" y="-273.5" font-family="Helvetica,sans-Serif" font-size="10.00">Stage</text>
</g>
<!-- Node23&#45;&gt;Node8 -->
<g id="edge25" class="edge"><title>Node23&#45;&gt;Node8</title>
<path fill="none" stroke="#9a32cd" stroke-dasharray="5,2" d="M1390.67,-276C1427.56,-276 1488.74,-276 1530.42,-276"/>
<polygon fill="#9a32cd" stroke="#9a32cd" points="1390.5,-272.5 1380.5,-276 1390.5,-279.5 1390.5,-272.5"/>
<text text-anchor="middle" x="1474" y="-279" font-family="Helvetica,sans-Serif" font-size="10.00"> myStage</text>
</g>
<!-- Node24&#45;&gt;Node8 -->
<g id="edge27" class="edge"><title>Node24&#45;&gt;Node8</title>
<path fill="none" stroke="#9a32cd" stroke-dasharray="5,2" d="M1401.59,-308.054C1432.36,-303.581 1474.85,-297.033 1512,-290 1519.05,-288.666 1526.51,-287.124 1533.73,-285.561"/>
<polygon fill="#9a32cd" stroke="#9a32cd" points="1401.03,-304.599 1391.64,-309.489 1402.03,-311.527 1401.03,-304.599"/>
<text text-anchor="middle" x="1474" y="-306" font-family="Helvetica,sans-Serif" font-size="10.00"> myEditor</text>
</g>
<!-- Node25 -->
<g id="node25" class="node"><title>Node25</title>
<polygon fill="white" stroke="#bfbfbf" points="1122,-314.5 1122,-333.5 1164,-333.5 1164,-314.5 1122,-314.5"/>
<text text-anchor="middle" x="1143" y="-321.5" font-family="Helvetica,sans-Serif" font-size="10.00">HBox</text>
</g>
<!-- Node25&#45;&gt;Node24 -->
<g id="edge28" class="edge"><title>Node25&#45;&gt;Node24</title>
<path fill="none" stroke="midnightblue" d="M1174.17,-322.583C1213.92,-320.718 1283.54,-317.449 1324.44,-315.528"/>
<polygon fill="midnightblue" stroke="midnightblue" points="1173.86,-319.094 1164.04,-323.059 1174.19,-326.086 1173.86,-319.094"/>
</g>
<!-- Node26 -->
<g id="node26" class="node"><title>Node26</title>
<polygon fill="white" stroke="#bfbfbf" points="1118.5,-276.5 1118.5,-295.5 1167.5,-295.5 1167.5,-276.5 1118.5,-276.5"/>
<text text-anchor="middle" x="1143" y="-283.5" font-family="Helvetica,sans-Serif" font-size="10.00">Button</text>
</g>
<!-- Node26&#45;&gt;Node24 -->
<g id="edge29" class="edge"><title>Node26&#45;&gt;Node24</title>
<path fill="none" stroke="#9a32cd" stroke-dasharray="5,2" d="M1177.87,-290.067C1205.4,-293.412 1245.23,-298.344 1280,-303 1294.59,-304.954 1310.71,-307.238 1324.42,-309.217"/>
<polygon fill="#9a32cd" stroke="#9a32cd" points="1177.95,-286.551 1167.6,-288.823 1177.11,-293.5 1177.95,-286.551"/>
<text text-anchor="middle" x="1242" y="-306" font-family="Helvetica,sans-Serif" font-size="10.00"> runButton</text>
</g>
<!-- Node27 -->
<g id="node27" class="node"><title>Node27</title>
<polygon fill="white" stroke="#bfbfbf" points="1114,-238.5 1114,-257.5 1172,-257.5 1172,-238.5 1114,-238.5"/>
<text text-anchor="middle" x="1143" y="-245.5" font-family="Helvetica,sans-Serif" font-size="10.00">TextArea</text>
</g>
<!-- Node27&#45;&gt;Node24 -->
<g id="edge31" class="edge"><title>Node27&#45;&gt;Node24</title>
<path fill="none" stroke="#9a32cd" stroke-dasharray="5,2" d="M1182.51,-251.578C1210.75,-255.41 1249.36,-263.226 1280,-279 1289.52,-283.899 1288.71,-289.69 1298,-295 1306.13,-299.645 1315.55,-303.327 1324.44,-306.164"/>
<polygon fill="#9a32cd" stroke="#9a32cd" points="1182.59,-248.061 1172.23,-250.297 1181.72,-255.007 1182.59,-248.061"/>
<text text-anchor="middle" x="1242" y="-282" font-family="Helvetica,sans-Serif" font-size="10.00"> textEditor</text>
</g>
<!-- Node28 -->
<g id="node28" class="node"><title>Node28</title>
<polygon fill="white" stroke="#bfbfbf" points="1298.5,-190.5 1298.5,-209.5 1417.5,-209.5 1417.5,-190.5 1298.5,-190.5"/>
<text text-anchor="middle" x="1358" y="-197.5" font-family="Helvetica,sans-Serif" font-size="10.00">Map&lt; String, Node &gt;</text>
</g>
<!-- Node28&#45;&gt;Node8 -->
<g id="edge33" class="edge"><title>Node28&#45;&gt;Node8</title>
<path fill="none" stroke="#9a32cd" stroke-dasharray="5,2" d="M1427.98,-195.871C1455.25,-196.746 1486.17,-200.994 1512,-213 1537.53,-224.865 1558.6,-251.702 1568.65,-266.225"/>
<polygon fill="#9a32cd" stroke="#9a32cd" points="1427.79,-192.367 1417.73,-195.691 1427.67,-199.366 1427.79,-192.367"/>
<text text-anchor="middle" x="1474" y="-216" font-family="Helvetica,sans-Serif" font-size="10.00"> variables</text>
</g>
<!-- Node29 -->
<g id="node29" class="node"><title>Node29</title>
<polygon fill="white" stroke="#bfbfbf" points="1317.5,-152.5 1317.5,-171.5 1398.5,-171.5 1398.5,-152.5 1317.5,-152.5"/>
<text text-anchor="middle" x="1358" y="-159.5" font-family="Helvetica,sans-Serif" font-size="10.00">Dimension2D</text>
</g>
<!-- Node29&#45;&gt;Node8 -->
<g id="edge35" class="edge"><title>Node29&#45;&gt;Node8</title>
<path fill="none" stroke="#9a32cd" stroke-dasharray="5,2" d="M1409.12,-158.406C1440.81,-158.465 1481.42,-163.035 1512,-182 1544.72,-202.296 1564.27,-246.615 1571.63,-266.274"/>
<polygon fill="#9a32cd" stroke="#9a32cd" points="1408.69,-154.911 1398.74,-158.544 1408.78,-161.91 1408.69,-154.911"/>
<text text-anchor="middle" x="1474" y="-185" font-family="Helvetica,sans-Serif" font-size="10.00"> myDimensions</text>
</g>
<!-- Node30 -->
<g id="node30" class="node"><title>Node30</title>
<polygon fill="white" stroke="#bfbfbf" points="1334.5,-114.5 1334.5,-133.5 1381.5,-133.5 1381.5,-114.5 1334.5,-114.5"/>
<text text-anchor="middle" x="1358" y="-121.5" font-family="Helvetica,sans-Serif" font-size="10.00">Scene</text>
</g>
<!-- Node30&#45;&gt;Node8 -->
<g id="edge36" class="edge"><title>Node30&#45;&gt;Node8</title>
<path fill="none" stroke="#9a32cd" stroke-dasharray="5,2" d="M1391.83,-120.052C1425.25,-117.822 1476.99,-119.505 1512,-145 1554.02,-175.605 1569.21,-241.781 1573.54,-266.463"/>
<polygon fill="#9a32cd" stroke="#9a32cd" points="1391.35,-116.58 1381.67,-120.888 1391.92,-123.556 1391.35,-116.58"/>
<text text-anchor="middle" x="1474" y="-148" font-family="Helvetica,sans-Serif" font-size="10.00"> myScene</text>
</g>
<!-- Node31 -->
<g id="node31" class="node"><title>Node31</title>
<g id="a_node31"><a xlink:href="../../de/d0a/classview_1_1_drawer.html" target="_top" xlink:title="view.Drawer">
<polygon fill="white" stroke="black" points="1321.5,-76.5 1321.5,-95.5 1394.5,-95.5 1394.5,-76.5 1321.5,-76.5"/>
<text text-anchor="middle" x="1358" y="-83.5" font-family="Helvetica,sans-Serif" font-size="10.00">view.Drawer</text>
</a>
</g>
</g>
<!-- Node31&#45;&gt;Node8 -->
<g id="edge38" class="edge"><title>Node31&#45;&gt;Node8</title>
<path fill="none" stroke="#9a32cd" stroke-dasharray="5,2" d="M1404.9,-80.2795C1438.08,-78.7017 1482.13,-82.1951 1512,-106 1564.18,-147.591 1573.14,-236.881 1574.68,-266.346"/>
<polygon fill="#9a32cd" stroke="#9a32cd" points="1404.3,-76.8112 1394.55,-80.9506 1404.75,-83.7966 1404.3,-76.8112"/>
<text text-anchor="middle" x="1474" y="-109" font-family="Helvetica,sans-Serif" font-size="10.00"> drawer</text>
</g>
<!-- Node32 -->
<g id="node32" class="node"><title>Node32</title>
<polygon fill="white" stroke="#bfbfbf" points="1122.5,-76.5 1122.5,-95.5 1163.5,-95.5 1163.5,-76.5 1122.5,-76.5"/>
<text text-anchor="middle" x="1143" y="-83.5" font-family="Helvetica,sans-Serif" font-size="10.00">Color</text>
</g>
<!-- Node32&#45;&gt;Node31 -->
<g id="edge39" class="edge"><title>Node32&#45;&gt;Node31</title>
<path fill="none" stroke="#9a32cd" stroke-dasharray="5,2" d="M1173.75,-86C1212.4,-86 1279.83,-86 1321.23,-86"/>
<polygon fill="#9a32cd" stroke="#9a32cd" points="1173.66,-82.5001 1163.66,-86 1173.66,-89.5001 1173.66,-82.5001"/>
<text text-anchor="middle" x="1242" y="-89" font-family="Helvetica,sans-Serif" font-size="10.00"> myColor</text>
</g>
<!-- Node33 -->
<g id="node33" class="node"><title>Node33</title>
<polygon fill="white" stroke="#bfbfbf" points="1328.5,-38.5 1328.5,-57.5 1387.5,-57.5 1387.5,-38.5 1328.5,-38.5"/>
<text text-anchor="middle" x="1358" y="-45.5" font-family="Helvetica,sans-Serif" font-size="10.00">GridPane</text>
</g>
<!-- Node33&#45;&gt;Node8 -->
<g id="edge40" class="edge"><title>Node33&#45;&gt;Node8</title>
<path fill="none" stroke="#9a32cd" stroke-dasharray="5,2" d="M1397.75,-41.66C1431.74,-38.3922 1480.53,-39.5889 1512,-66 1574.98,-118.854 1576.53,-232.019 1575.48,-266.092"/>
<polygon fill="#9a32cd" stroke="#9a32cd" points="1397.25,-38.1937 1387.71,-42.7945 1398.04,-45.1494 1397.25,-38.1937"/>
<text text-anchor="middle" x="1474" y="-69" font-family="Helvetica,sans-Serif" font-size="10.00"> myRoot</text>
</g>
<!-- Node34 -->
<g id="node34" class="node"><title>Node34</title>
<polygon fill="white" stroke="#bfbfbf" points="1335,-0.5 1335,-19.5 1381,-19.5 1381,-0.5 1335,-0.5"/>
<text text-anchor="middle" x="1358" y="-7.5" font-family="Helvetica,sans-Serif" font-size="10.00">Group</text>
</g>
<!-- Node34&#45;&gt;Node8 -->
<g id="edge42" class="edge"><title>Node34&#45;&gt;Node8</title>
<path fill="none" stroke="#9a32cd" stroke-dasharray="5,2" d="M1390.95,-3.64235C1425.1,1.17475 1478.8,2.76991 1512,-26 1549.72,-58.6847 1569.53,-224.128 1574.01,-266.238"/>
<polygon fill="#9a32cd" stroke="#9a32cd" points="1390.36,-0.192935 1381.02,-5.21071 1391.45,-7.10717 1390.36,-0.192935"/>
<text text-anchor="middle" x="1474" y="-29" font-family="Helvetica,sans-Serif" font-size="10.00"> lines</text>
</g>
</g>
</svg>
