<?xml version="1.0" encoding="UTF-8" standalone="no"?>
<!DOCTYPE svg PUBLIC "-//W3C//DTD SVG 1.1//EN"
 "http://www.w3.org/Graphics/SVG/1.1/DTD/svg11.dtd">
<!-- Generated by graphviz version 2.36.0 (20140111.2315)
 -->
<!-- Title: model.Parser Pages: 1 -->
<!--zoomable 693 -->
<svg id="main" version="1.1" xmlns="http://www.w3.org/2000/svg" xmlns:xlink="http://www.w3.org/1999/xlink" xml:space="preserve" onload="init(evt)">
<style type="text/css"><![CDATA[
.edge:hover path { stroke: red; }
.edge:hover polygon { stroke: red; fill: red; }
]]></style>
<script type="text/javascript"><![CDATA[
var edges = document.getElementsByTagName('g');
if (edges && edges.length) {
  for (var i=0;i<edges.length;i++) {
    if (edges[i].id.substr(0,4)=='edge') {
      edges[i].setAttribute('class','edge');
    }
  }
}
]]></script>
        <defs>
                <circle id="rim" cx="0" cy="0" r="7"/>
                <circle id="rim2" cx="0" cy="0" r="3.5"/>
                <g id="zoomPlus">
                        <use xlink:href="#rim" fill="#404040">
                                <set attributeName="fill" to="#808080" begin="zoomplus.mouseover" end="zoomplus.mouseout"/>
                        </use>
                        <path d="M-4,0h8M0,-4v8" fill="none" stroke="white" stroke-width="1.5" pointer-events="none"/>
                </g>
                <g id="zoomMin">
                        <use xlink:href="#rim" fill="#404040">
                                <set attributeName="fill" to="#808080" begin="zoomminus.mouseover" end="zoomminus.mouseout"/>
                        </use>
                        <path d="M-4,0h8" fill="none" stroke="white" stroke-width="1.5" pointer-events="none"/>
                </g>
                <g id="dirArrow">
                        <path fill="none" stroke="white" stroke-width="1.5" d="M0,-3.0v7 M-2.5,-0.5L0,-3.0L2.5,-0.5"/>
                </g>
               <g id="resetDef">
                       <use xlink:href="#rim2" fill="#404040">
                               <set attributeName="fill" to="#808080" begin="reset.mouseover" end="reset.mouseout"/>
                       </use>
               </g>
        </defs>

<script type="text/javascript">
var viewWidth = 1730;
var viewHeight = 693;
var sectionId = 'dynsection-1';
</script>
<script xlink:href="../../svgpan.js"/>
<svg id="graph" class="graph">
<g id="viewport">
<title>model.Parser</title>
<polygon fill="white" stroke="none" points="-4,4 -4,-689 1726,-689 1726,4 -4,4"/>
<!-- Node1 -->
<g id="node1" class="node"><title>Node1</title>
<polygon fill="#bfbfbf" stroke="black" points="685,-205.5 685,-224.5 765,-224.5 765,-205.5 685,-205.5"/>
<text text-anchor="middle" x="725" y="-212.5" font-family="Helvetica,sans-Serif" font-size="10.00">model.Parser</text>
</g>
<!-- Node10 -->
<g id="node10" class="node"><title>Node10</title>
<g id="a_node10"><a xlink:href="../../d6/de7/classview_1_1_s_logo_view.html" target="_top" xlink:title="view.SLogoView">
<polygon fill="white" stroke="black" points="1630.5,-232.5 1630.5,-251.5 1721.5,-251.5 1721.5,-232.5 1630.5,-232.5"/>
<text text-anchor="middle" x="1676" y="-239.5" font-family="Helvetica,sans-Serif" font-size="10.00">view.SLogoView</text>
</a>
</g>
</g>
<!-- Node1&#45;&gt;Node10 -->
<g id="edge37" class="edge"><title>Node1&#45;&gt;Node10</title>
<path fill="none" stroke="#9a32cd" stroke-dasharray="5,2" d="M775.633,-216.412C941.115,-221.12 1472.44,-236.237 1630.34,-240.729"/>
<polygon fill="#9a32cd" stroke="#9a32cd" points="775.365,-212.903 765.27,-216.117 775.166,-219.9 775.365,-212.903"/>
<text text-anchor="middle" x="1247" y="-234" font-family="Helvetica,sans-Serif" font-size="10.00"> myParser</text>
</g>
<!-- Node18 -->
<g id="node18" class="node"><title>Node18</title>
<g id="a_node18"><a xlink:href="../../d1/dc7/classview_1_1_side_bar.html" target="_top" xlink:title="view.SideBar">
<polygon fill="white" stroke="black" points="979.5,-300.5 979.5,-319.5 1056.5,-319.5 1056.5,-300.5 979.5,-300.5"/>
<text text-anchor="middle" x="1018" y="-307.5" font-family="Helvetica,sans-Serif" font-size="10.00">view.SideBar</text>
</a>
</g>
</g>
<!-- Node1&#45;&gt;Node18 -->
<g id="edge24" class="edge"><title>Node1&#45;&gt;Node18</title>
<path fill="none" stroke="#9a32cd" stroke-dasharray="5,2" d="M775.397,-218.841C818.12,-223.44 880.886,-233.298 932,-254 960.827,-265.676 990.193,-287.766 1005.73,-300.432"/>
<polygon fill="#9a32cd" stroke="#9a32cd" points="775.559,-215.34 765.255,-217.808 774.849,-222.304 775.559,-215.34"/>
<text text-anchor="middle" x="881" y="-257" font-family="Helvetica,sans-Serif" font-size="10.00"> myParser</text>
</g>
<!-- Node25 -->
<g id="node25" class="node"><title>Node25</title>
<g id="a_node25"><a xlink:href="../../da/dc8/classview_1_1_editor.html" target="_top" xlink:title="view.Editor">
<polygon fill="white" stroke="black" points="1213.5,-158.5 1213.5,-177.5 1280.5,-177.5 1280.5,-158.5 1213.5,-158.5"/>
<text text-anchor="middle" x="1247" y="-165.5" font-family="Helvetica,sans-Serif" font-size="10.00">view.Editor</text>
</a>
</g>
</g>
<!-- Node1&#45;&gt;Node25 -->
<g id="edge32" class="edge"><title>Node1&#45;&gt;Node25</title>
<path fill="none" stroke="#9a32cd" stroke-dasharray="5,2" d="M745.673,-199.22C782.884,-170.502 867.284,-110.667 950,-89 1051.99,-62.2827 1090.28,-79.7005 1184,-128 1201.54,-137.037 1220.41,-149.676 1232.67,-158.314"/>
<polygon fill="#9a32cd" stroke="#9a32cd" points="743.377,-196.572 737.658,-205.491 747.69,-202.085 743.377,-196.572"/>
<text text-anchor="middle" x="1018" y="-92" font-family="Helvetica,sans-Serif" font-size="10.00"> myParser</text>
</g>
<!-- Node2 -->
<g id="node2" class="node"><title>Node2</title>
<polygon fill="white" stroke="#bfbfbf" points="371,-662.5 371,-681.5 431,-681.5 431,-662.5 371,-662.5"/>
<text text-anchor="middle" x="401" y="-669.5" font-family="Helvetica,sans-Serif" font-size="10.00">Observer</text>
</g>
<!-- Node2&#45;&gt;Node1 -->
<g id="edge1" class="edge"><title>Node2&#45;&gt;Node1</title>
<path fill="none" stroke="midnightblue" d="M415.977,-654.088C454.296,-604.129 562.02,-457.854 620,-320 632.955,-289.197 615.761,-271.942 638,-247 649.98,-233.564 668.14,-225.754 684.69,-221.222"/>
<polygon fill="midnightblue" stroke="midnightblue" points="412.999,-652.218 409.657,-662.272 418.539,-656.496 412.999,-652.218"/>
</g>
<!-- Node2&#45;&gt;Node10 -->
<g id="edge10" class="edge"><title>Node2&#45;&gt;Node10</title>
<path fill="none" stroke="midnightblue" d="M441.568,-674.626C502.293,-678.424 622.136,-685 724,-685 724,-685 724,-685 1459,-685 1489.98,-685 1603.07,-591.511 1612,-577 1647.2,-519.791 1669.51,-300.638 1674.11,-251.72"/>
<polygon fill="midnightblue" stroke="midnightblue" points="441.488,-671.114 431.286,-673.974 441.045,-678.1 441.488,-671.114"/>
</g>
<!-- Node3 -->
<g id="node3" class="node"><title>Node3</title>
<polygon fill="white" stroke="#bfbfbf" points="345,-222 345,-252 457,-252 457,-222 345,-222"/>
<text text-anchor="start" x="353" y="-240" font-family="Helvetica,sans-Serif" font-size="10.00">List&lt; Entry&lt; String,</text>
<text text-anchor="middle" x="401" y="-229" font-family="Helvetica,sans-Serif" font-size="10.00"> Pattern &gt; &gt;</text>
</g>
<!-- Node3&#45;&gt;Node1 -->
<g id="edge2" class="edge"><title>Node3&#45;&gt;Node1</title>
<path fill="none" stroke="#9a32cd" stroke-dasharray="5,2" d="M467.519,-232.524C532.679,-228.072 630.507,-221.388 684.567,-217.694"/>
<polygon fill="#9a32cd" stroke="#9a32cd" points="467.092,-229.044 457.354,-233.218 467.569,-236.028 467.092,-229.044"/>
<text text-anchor="middle" x="559" y="-233" font-family="Helvetica,sans-Serif" font-size="10.00"> myPatterns</text>
</g>
<!-- Node4 -->
<g id="node4" class="node"><title>Node4</title>
<g id="a_node4"><a xlink:href="../../d1/dca/classmodel_1_1_execution_environment.html" target="_top" xlink:title="model.ExecutionEnvironment">
<polygon fill="white" stroke="black" points="322.5,-340.5 322.5,-359.5 479.5,-359.5 479.5,-340.5 322.5,-340.5"/>
<text text-anchor="middle" x="401" y="-347.5" font-family="Helvetica,sans-Serif" font-size="10.00">model.ExecutionEnvironment</text>
</a>
</g>
</g>
<!-- Node4&#45;&gt;Node1 -->
<g id="edge3" class="edge"><title>Node4&#45;&gt;Node1</title>
<path fill="none" stroke="#9a32cd" stroke-dasharray="5,2" d="M432.119,-336.217C476.763,-315.932 563.275,-277.182 638,-247 657.646,-239.065 680.091,-230.738 697.124,-224.568"/>
<polygon fill="#9a32cd" stroke="#9a32cd" points="430.641,-333.044 422.989,-340.373 433.541,-339.415 430.641,-333.044"/>
<text text-anchor="middle" x="559" y="-308" font-family="Helvetica,sans-Serif" font-size="10.00"> myExecutionParameters</text>
</g>
<!-- Node4&#45;&gt;Node10 -->
<g id="edge36" class="edge"><title>Node4&#45;&gt;Node10</title>
<path fill="none" stroke="#9a32cd" stroke-dasharray="5,2" d="M412.622,-368.563C441.723,-417.614 527.95,-551.333 638,-616 671.749,-635.831 684.856,-635 724,-635 724,-635 724,-635 1459,-635 1639.62,-635 1670.27,-312.233 1674.42,-251.715"/>
<polygon fill="#9a32cd" stroke="#9a32cd" points="415.499,-366.549 407.431,-359.681 409.455,-370.08 415.499,-366.549"/>
<text text-anchor="middle" x="1144" y="-638" font-family="Helvetica,sans-Serif" font-size="10.00"> myEnvironment</text>
</g>
<!-- Node4&#45;&gt;Node18 -->
<g id="edge22" class="edge"><title>Node4&#45;&gt;Node18</title>
<path fill="none" stroke="#9a32cd" stroke-dasharray="5,2" d="M489.823,-355.317C595.605,-359.933 778.265,-362.185 932,-335 940.304,-333.532 941.942,-331.484 950,-329 960.399,-325.794 971.767,-322.494 982.137,-319.562"/>
<polygon fill="#9a32cd" stroke="#9a32cd" points="489.664,-351.806 479.515,-354.849 489.346,-358.799 489.664,-351.806"/>
<text text-anchor="middle" x="725" y="-362" font-family="Helvetica,sans-Serif" font-size="10.00"> myEnvironment</text>
</g>
<!-- Node5 -->
<g id="node5" class="node"><title>Node5</title>
<polygon fill="white" stroke="#bfbfbf" points="51.5,-400.5 51.5,-419.5 122.5,-419.5 122.5,-400.5 51.5,-400.5"/>
<text text-anchor="middle" x="87" y="-407.5" font-family="Helvetica,sans-Serif" font-size="10.00">Observable</text>
</g>
<!-- Node5&#45;&gt;Node4 -->
<g id="edge4" class="edge"><title>Node5&#45;&gt;Node4</title>
<path fill="none" stroke="midnightblue" d="M132.717,-410.151C176.879,-409.351 246.026,-405.537 304,-391 332.478,-383.859 363.357,-369.337 382.194,-359.636"/>
<polygon fill="midnightblue" stroke="midnightblue" points="132.548,-406.652 122.596,-410.289 132.643,-413.652 132.548,-406.652"/>
</g>
<!-- Node6 -->
<g id="node6" class="node"><title>Node6</title>
<polygon fill="white" stroke="#bfbfbf" points="42.5,-362.5 42.5,-381.5 131.5,-381.5 131.5,-362.5 42.5,-362.5"/>
<text text-anchor="middle" x="87" y="-369.5" font-family="Helvetica,sans-Serif" font-size="10.00">Set&lt; Integer &gt;</text>
</g>
<!-- Node6&#45;&gt;Node4 -->
<g id="edge5" class="edge"><title>Node6&#45;&gt;Node4</title>
<path fill="none" stroke="#9a32cd" stroke-dasharray="5,2" d="M141.939,-368.197C191.701,-364.688 266.155,-359.438 322.32,-355.477"/>
<polygon fill="#9a32cd" stroke="#9a32cd" points="141.44,-364.723 131.711,-368.918 141.932,-371.706 141.44,-364.723"/>
<text text-anchor="middle" x="248" y="-379" font-family="Helvetica,sans-Serif" font-size="10.00"> myTurtleList</text>
<text text-anchor="middle" x="248" y="-368" font-family="Helvetica,sans-Serif" font-size="10.00">activeTurtleList</text>
</g>
<!-- Node7 -->
<g id="node7" class="node"><title>Node7</title>
<polygon fill="white" stroke="#bfbfbf" points="0,-313 0,-343 174,-343 174,-313 0,-313"/>
<text text-anchor="start" x="8" y="-331" font-family="Helvetica,sans-Serif" font-size="10.00">Map&lt; String, model.instructions.</text>
<text text-anchor="middle" x="87" y="-320" font-family="Helvetica,sans-Serif" font-size="10.00">Instruction &gt;</text>
</g>
<!-- Node7&#45;&gt;Node4 -->
<g id="edge6" class="edge"><title>Node7&#45;&gt;Node4</title>
<path fill="none" stroke="#9a32cd" stroke-dasharray="5,2" d="M184.559,-334.634C221.877,-337.217 264.929,-340.219 304,-343 310.001,-343.427 316.212,-343.873 322.456,-344.323"/>
<polygon fill="#9a32cd" stroke="#9a32cd" points="184.411,-331.115 174.193,-333.917 183.928,-338.099 184.411,-331.115"/>
<text text-anchor="middle" x="248" y="-346" font-family="Helvetica,sans-Serif" font-size="10.00"> myUserInstructionMap</text>
</g>
<!-- Node8 -->
<g id="node8" class="node"><title>Node8</title>
<polygon fill="white" stroke="#bfbfbf" points="23,-274.5 23,-293.5 151,-293.5 151,-274.5 23,-274.5"/>
<text text-anchor="middle" x="87" y="-281.5" font-family="Helvetica,sans-Serif" font-size="10.00">Map&lt; String, Double &gt;</text>
</g>
<!-- Node8&#45;&gt;Node4 -->
<g id="edge7" class="edge"><title>Node8&#45;&gt;Node4</title>
<path fill="none" stroke="#9a32cd" stroke-dasharray="5,2" d="M161.414,-294.267C203.421,-300.717 256.961,-309.911 304,-321 327.047,-326.433 352.7,-334.278 371.686,-340.439"/>
<polygon fill="#9a32cd" stroke="#9a32cd" points="161.68,-290.768 151.268,-292.729 160.63,-297.689 161.68,-290.768"/>
<text text-anchor="middle" x="248" y="-324" font-family="Helvetica,sans-Serif" font-size="10.00"> myVariableMap</text>
</g>
<!-- Node9 -->
<g id="node9" class="node"><title>Node9</title>
<polygon fill="white" stroke="#bfbfbf" points="340,-183.5 340,-202.5 462,-202.5 462,-183.5 340,-183.5"/>
<text text-anchor="middle" x="401" y="-190.5" font-family="Helvetica,sans-Serif" font-size="10.00">Map&lt; String, String &gt;</text>
</g>
<!-- Node9&#45;&gt;Node1 -->
<g id="edge8" class="edge"><title>Node9&#45;&gt;Node1</title>
<path fill="none" stroke="#9a32cd" stroke-dasharray="5,2" d="M472.39,-197.809C537.597,-202.264 632.209,-208.729 684.877,-212.327"/>
<polygon fill="#9a32cd" stroke="#9a32cd" points="472.403,-194.302 462.188,-197.112 471.926,-201.286 472.403,-194.302"/>
<text text-anchor="middle" x="559" y="-211" font-family="Helvetica,sans-Serif" font-size="10.00"> myCommandMap</text>
</g>
<!-- Node10&#45;&gt;Node1 -->
<g id="edge9" class="edge"><title>Node10&#45;&gt;Node1</title>
<path fill="none" stroke="#9a32cd" stroke-dasharray="5,2" d="M1659.68,-225.112C1647.81,-213.03 1630.33,-197.315 1612,-188 1606.97,-185.443 1270.91,-86.1413 1086,-73 1025.71,-68.7152 1010.28,-68.5044 950,-73 896.219,-77.0111 877.044,-64.6306 830,-91 780.001,-119.026 743.647,-181.127 730.941,-205.199"/>
<polygon fill="#9a32cd" stroke="#9a32cd" points="1657.2,-227.585 1666.63,-232.423 1662.28,-222.763 1657.2,-227.585"/>
<text text-anchor="middle" x="1247" y="-108" font-family="Helvetica,sans-Serif" font-size="10.00"> mySLogoView</text>
</g>
<!-- Node11 -->
<g id="node11" class="node"><title>Node11</title>
<g id="a_node11"><a xlink:href="../../da/d64/classview_1_1_workspace.html" target="_top" xlink:title="view.Workspace">
<polygon fill="white" stroke="black" points="1202,-381.5 1202,-400.5 1292,-400.5 1292,-381.5 1202,-381.5"/>
<text text-anchor="middle" x="1247" y="-388.5" font-family="Helvetica,sans-Serif" font-size="10.00">view.Workspace</text>
</a>
</g>
</g>
<!-- Node11&#45;&gt;Node10 -->
<g id="edge11" class="edge"><title>Node11&#45;&gt;Node10</title>
<path fill="none" stroke="#9a32cd" stroke-dasharray="5,2" d="M1302.26,-390.332C1376.97,-387.151 1513.45,-373.048 1612,-315 1638.97,-299.112 1660.16,-267.484 1669.62,-251.588"/>
<polygon fill="#9a32cd" stroke="#9a32cd" points="1302,-386.839 1292.14,-390.711 1302.26,-393.834 1302,-386.839"/>
<text text-anchor="middle" x="1458" y="-385" font-family="Helvetica,sans-Serif" font-size="10.00"> myWorkspace</text>
</g>
<!-- Node31 -->
<g id="node31" class="node"><title>Node31</title>
<g id="a_node31"><a xlink:href="../../de/d0a/classview_1_1_drawer.html" target="_top" xlink:title="view.Drawer">
<polygon fill="white" stroke="black" points="1421.5,-253.5 1421.5,-272.5 1494.5,-272.5 1494.5,-253.5 1421.5,-253.5"/>
<text text-anchor="middle" x="1458" y="-260.5" font-family="Helvetica,sans-Serif" font-size="10.00">view.Drawer</text>
</a>
</g>
</g>
<!-- Node11&#45;&gt;Node31 -->
<g id="edge40" class="edge"><title>Node11&#45;&gt;Node31</title>
<path fill="none" stroke="#9a32cd" stroke-dasharray="5,2" d="M1270.62,-375.563C1282.2,-367.871 1296.65,-358.611 1310,-351 1340.21,-333.768 1350.05,-333.681 1380,-316 1403.48,-302.141 1429.3,-283.647 1444.28,-272.57"/>
<polygon fill="#9a32cd" stroke="#9a32cd" points="1268.36,-372.858 1262.01,-381.335 1272.26,-378.672 1268.36,-372.858"/>
<text text-anchor="middle" x="1345" y="-354" font-family="Helvetica,sans-Serif" font-size="10.00"> myWorkspace</text>
</g>
<!-- Node12 -->
<g id="node12" class="node"><title>Node12</title>
<polygon fill="white" stroke="#bfbfbf" points="984.5,-376.5 984.5,-395.5 1051.5,-395.5 1051.5,-376.5 984.5,-376.5"/>
<text text-anchor="middle" x="1018" y="-383.5" font-family="Helvetica,sans-Serif" font-size="10.00">StackPane</text>
</g>
<!-- Node12&#45;&gt;Node11 -->
<g id="edge12" class="edge"><title>Node12&#45;&gt;Node11</title>
<path fill="none" stroke="midnightblue" d="M1061.76,-386.942C1101.8,-387.824 1161.36,-389.136 1201.84,-390.027"/>
<polygon fill="midnightblue" stroke="midnightblue" points="1061.6,-383.438 1051.52,-386.716 1061.44,-390.436 1061.6,-383.438"/>
</g>
<!-- Node13 -->
<g id="node13" class="node"><title>Node13</title>
<polygon fill="white" stroke="#bfbfbf" points="678.5,-460.5 678.5,-479.5 771.5,-479.5 771.5,-460.5 678.5,-460.5"/>
<text text-anchor="middle" x="725" y="-467.5" font-family="Helvetica,sans-Serif" font-size="10.00">ResourceBundle</text>
</g>
<!-- Node13&#45;&gt;Node10 -->
<g id="edge28" class="edge"><title>Node13&#45;&gt;Node10</title>
<path fill="none" stroke="#9a32cd" stroke-dasharray="5,2" d="M752.726,-484.044C803.009,-509.121 915.75,-559 1017,-559 1017,-559 1017,-559 1459,-559 1611.51,-559 1664.01,-305.341 1673.39,-251.835"/>
<polygon fill="#9a32cd" stroke="#9a32cd" points="754.304,-480.92 743.802,-479.525 751.142,-487.165 754.304,-480.92"/>
<text text-anchor="middle" x="1247" y="-562" font-family="Helvetica,sans-Serif" font-size="10.00"> myResources</text>
</g>
<!-- Node13&#45;&gt;Node11 -->
<g id="edge13" class="edge"><title>Node13&#45;&gt;Node11</title>
<path fill="none" stroke="#9a32cd" stroke-dasharray="5,2" d="M781.873,-473.484C870.104,-477.086 1045.86,-476.479 1184,-427 1202.05,-420.536 1220.82,-408.822 1232.91,-400.513"/>
<polygon fill="#9a32cd" stroke="#9a32cd" points="781.957,-469.985 771.812,-473.04 781.647,-476.978 781.957,-469.985"/>
<text text-anchor="middle" x="1018" y="-474" font-family="Helvetica,sans-Serif" font-size="10.00"> myResources</text>
</g>
<!-- Node13&#45;&gt;Node18 -->
<g id="edge21" class="edge"><title>Node13&#45;&gt;Node18</title>
<path fill="none" stroke="#9a32cd" stroke-dasharray="5,2" d="M774.917,-458.091C792.296,-453.899 812.009,-449.191 830,-445 875.26,-434.458 899.646,-455.359 932,-422 961.311,-391.779 921.524,-360.009 950,-329 957.605,-320.718 968.527,-315.946 979.352,-313.226"/>
<polygon fill="#9a32cd" stroke="#9a32cd" points="773.882,-454.74 764.984,-460.491 775.526,-461.544 773.882,-454.74"/>
<text text-anchor="middle" x="881" y="-448" font-family="Helvetica,sans-Serif" font-size="10.00"> myResources</text>
</g>
<!-- Node14 -->
<g id="node14" class="node"><title>Node14</title>
<g id="a_node14"><a xlink:href="../../d8/df7/classview_1_1_turtle_view.html" target="_top" xlink:title="view.TurtleView">
<polygon fill="white" stroke="black" points="975,-587.5 975,-606.5 1061,-606.5 1061,-587.5 975,-587.5"/>
<text text-anchor="middle" x="1018" y="-594.5" font-family="Helvetica,sans-Serif" font-size="10.00">view.TurtleView</text>
</a>
</g>
</g>
<!-- Node14&#45;&gt;Node11 -->
<g id="edge14" class="edge"><title>Node14&#45;&gt;Node11</title>
<path fill="none" stroke="#9a32cd" stroke-dasharray="5,2" d="M1070.8,-585.229C1106.44,-574.833 1152.79,-556.464 1184,-526 1221.84,-489.069 1238.83,-424.716 1244.1,-400.542"/>
<polygon fill="#9a32cd" stroke="#9a32cd" points="1069.74,-581.891 1061.06,-587.954 1071.63,-588.632 1069.74,-581.891"/>
<text text-anchor="middle" x="1144" y="-576" font-family="Helvetica,sans-Serif" font-size="10.00"> myActiveTurtle</text>
</g>
<!-- Node15 -->
<g id="node15" class="node"><title>Node15</title>
<polygon fill="white" stroke="#bfbfbf" points="691,-587.5 691,-606.5 759,-606.5 759,-587.5 691,-587.5"/>
<text text-anchor="middle" x="725" y="-594.5" font-family="Helvetica,sans-Serif" font-size="10.00">ImageView</text>
</g>
<!-- Node15&#45;&gt;Node14 -->
<g id="edge15" class="edge"><title>Node15&#45;&gt;Node14</title>
<path fill="none" stroke="midnightblue" d="M769.27,-597C824.553,-597 919.638,-597 974.533,-597"/>
<polygon fill="midnightblue" stroke="midnightblue" points="769.098,-593.5 759.098,-597 769.098,-600.5 769.098,-593.5"/>
</g>
<!-- Node16 -->
<g id="node16" class="node"><title>Node16</title>
<polygon fill="white" stroke="#bfbfbf" points="950,-500 950,-530 1086,-530 1086,-500 950,-500"/>
<text text-anchor="start" x="958" y="-518" font-family="Helvetica,sans-Serif" font-size="10.00">Map&lt; Integer, view.Turtle</text>
<text text-anchor="middle" x="1018" y="-507" font-family="Helvetica,sans-Serif" font-size="10.00">View &gt;</text>
</g>
<!-- Node16&#45;&gt;Node11 -->
<g id="edge16" class="edge"><title>Node16&#45;&gt;Node11</title>
<path fill="none" stroke="#9a32cd" stroke-dasharray="5,2" d="M1096.39,-513.047C1125.79,-509.216 1158.34,-500.97 1184,-484 1215.56,-463.129 1235.02,-420.093 1242.49,-400.77"/>
<polygon fill="#9a32cd" stroke="#9a32cd" points="1095.67,-509.606 1086.14,-514.225 1096.47,-516.56 1095.67,-509.606"/>
<text text-anchor="middle" x="1144" y="-514" font-family="Helvetica,sans-Serif" font-size="10.00"> myTurtles</text>
</g>
<!-- Node17 -->
<g id="node17" class="node"><title>Node17</title>
<polygon fill="white" stroke="#bfbfbf" points="995,-414.5 995,-433.5 1041,-433.5 1041,-414.5 995,-414.5"/>
<text text-anchor="middle" x="1018" y="-421.5" font-family="Helvetica,sans-Serif" font-size="10.00">Group</text>
</g>
<!-- Node17&#45;&gt;Node11 -->
<g id="edge17" class="edge"><title>Node17&#45;&gt;Node11</title>
<path fill="none" stroke="#9a32cd" stroke-dasharray="5,2" d="M1051.27,-420.115C1084.57,-416.007 1138,-409.143 1184,-402 1189.73,-401.111 1195.74,-400.118 1201.67,-399.103"/>
<polygon fill="#9a32cd" stroke="#9a32cd" points="1050.7,-416.658 1041.19,-421.349 1051.55,-423.606 1050.7,-416.658"/>
<text text-anchor="middle" x="1144" y="-415" font-family="Helvetica,sans-Serif" font-size="10.00"> myLines</text>
</g>
<!-- Node18&#45;&gt;Node10 -->
<g id="edge42" class="edge"><title>Node18&#45;&gt;Node10</title>
<path fill="none" stroke="#9a32cd" stroke-dasharray="5,2" d="M1066.67,-308.451C1155.56,-305.313 1352.6,-297.178 1518,-282 1559.94,-278.151 1571.44,-281.339 1612,-270 1627.91,-265.553 1644.97,-257.764 1657.32,-251.528"/>
<polygon fill="#9a32cd" stroke="#9a32cd" points="1066.5,-304.955 1056.63,-308.801 1066.74,-311.951 1066.5,-304.955"/>
<text text-anchor="middle" x="1345" y="-300" font-family="Helvetica,sans-Serif" font-size="10.00"> mySidebar</text>
</g>
<!-- Node18&#45;&gt;Node11 -->
<g id="edge18" class="edge"><title>Node18&#45;&gt;Node11</title>
<path fill="none" stroke="#9a32cd" stroke-dasharray="5,2" d="M1066.9,-314.663C1100.77,-319.256 1146.62,-328.144 1184,-345 1204.28,-354.147 1224.33,-370.773 1235.92,-381.333"/>
<polygon fill="#9a32cd" stroke="#9a32cd" points="1067.16,-311.168 1056.8,-313.371 1066.27,-318.111 1067.16,-311.168"/>
<text text-anchor="middle" x="1144" y="-348" font-family="Helvetica,sans-Serif" font-size="10.00"> mySidebar</text>
</g>
<!-- Node18&#45;&gt;Node25 -->
<g id="edge34" class="edge"><title>Node18&#45;&gt;Node25</title>
<path fill="none" stroke="#9a32cd" stroke-dasharray="5,2" d="M1042.79,-295.116C1089.41,-265.957 1191.59,-202.035 1230.52,-177.683"/>
<polygon fill="#9a32cd" stroke="#9a32cd" points="1040.87,-292.192 1034.25,-300.462 1044.58,-298.126 1040.87,-292.192"/>
<text text-anchor="middle" x="1144" y="-259" font-family="Helvetica,sans-Serif" font-size="10.00"> mySidebar</text>
</g>
<!-- Node19 -->
<g id="node19" class="node"><title>Node19</title>
<polygon fill="white" stroke="#bfbfbf" points="704.5,-417.5 704.5,-436.5 745.5,-436.5 745.5,-417.5 704.5,-417.5"/>
<text text-anchor="middle" x="725" y="-424.5" font-family="Helvetica,sans-Serif" font-size="10.00">VBox</text>
</g>
<!-- Node19&#45;&gt;Node18 -->
<g id="edge19" class="edge"><title>Node19&#45;&gt;Node18</title>
<path fill="none" stroke="midnightblue" d="M755.665,-426.583C806.32,-425.254 906.504,-419.739 932,-397 955.331,-376.191 928.089,-351.3 950,-329 957.796,-321.066 968.642,-316.381 979.338,-313.634"/>
<polygon fill="midnightblue" stroke="midnightblue" points="755.571,-423.085 745.652,-426.808 755.728,-430.083 755.571,-423.085"/>
</g>
<!-- Node20 -->
<g id="node20" class="node"><title>Node20</title>
<polygon fill="white" stroke="#bfbfbf" points="638.5,-379.5 638.5,-398.5 811.5,-398.5 811.5,-379.5 638.5,-379.5"/>
<text text-anchor="middle" x="725" y="-386.5" font-family="Helvetica,sans-Serif" font-size="10.00">ObservableList&lt; view.Property &gt;</text>
</g>
<!-- Node20&#45;&gt;Node18 -->
<g id="edge20" class="edge"><title>Node20&#45;&gt;Node18</title>
<path fill="none" stroke="#9a32cd" stroke-dasharray="5,2" d="M821.858,-385.326C866.623,-381.945 913.976,-375.456 932,-363 946.066,-353.279 936.706,-339.753 950,-329 958.366,-322.233 969.014,-317.875 979.344,-315.068"/>
<polygon fill="#9a32cd" stroke="#9a32cd" points="821.487,-381.843 811.759,-386.04 821.981,-388.825 821.487,-381.843"/>
<text text-anchor="middle" x="881" y="-388" font-family="Helvetica,sans-Serif" font-size="10.00"> variablesList</text>
</g>
<!-- Node21 -->
<g id="node21" class="node"><title>Node21</title>
<polygon fill="white" stroke="#bfbfbf" points="651,-294.5 651,-313.5 799,-313.5 799,-294.5 651,-294.5"/>
<text text-anchor="middle" x="725" y="-301.5" font-family="Helvetica,sans-Serif" font-size="10.00">TableView&lt; view.Property &gt;</text>
</g>
<!-- Node21&#45;&gt;Node18 -->
<g id="edge23" class="edge"><title>Node21&#45;&gt;Node18</title>
<path fill="none" stroke="#9a32cd" stroke-dasharray="5,2" d="M809.314,-305.718C865.25,-306.871 936.29,-308.336 979.118,-309.219"/>
<polygon fill="#9a32cd" stroke="#9a32cd" points="809.126,-302.213 799.056,-305.506 808.982,-309.212 809.126,-302.213"/>
<text text-anchor="middle" x="881" y="-323" font-family="Helvetica,sans-Serif" font-size="10.00"> turtlePropertiesTable</text>
<text text-anchor="middle" x="881" y="-312" font-family="Helvetica,sans-Serif" font-size="10.00">variablesTable</text>
</g>
<!-- Node22 -->
<g id="node22" class="node"><title>Node22</title>
<polygon fill="white" stroke="#bfbfbf" points="656,-256.5 656,-275.5 794,-275.5 794,-256.5 656,-256.5"/>
<text text-anchor="middle" x="725" y="-263.5" font-family="Helvetica,sans-Serif" font-size="10.00">ObservableList&lt; String &gt;</text>
</g>
<!-- Node22&#45;&gt;Node18 -->
<g id="edge25" class="edge"><title>Node22&#45;&gt;Node18</title>
<path fill="none" stroke="#9a32cd" stroke-dasharray="5,2" d="M804.489,-267.004C843.197,-268.69 890.39,-272.533 932,-281 953.696,-285.415 977.476,-293.855 994.352,-300.496"/>
<polygon fill="#9a32cd" stroke="#9a32cd" points="804.456,-263.5 794.326,-266.602 804.179,-270.495 804.456,-263.5"/>
<text text-anchor="middle" x="881" y="-295" font-family="Helvetica,sans-Serif" font-size="10.00"> commandItems</text>
<text text-anchor="middle" x="881" y="-284" font-family="Helvetica,sans-Serif" font-size="10.00">historyItems</text>
</g>
<!-- Node23 -->
<g id="node23" class="node"><title>Node23</title>
<polygon fill="white" stroke="#bfbfbf" points="986.5,-338.5 986.5,-357.5 1049.5,-357.5 1049.5,-338.5 986.5,-338.5"/>
<text text-anchor="middle" x="1018" y="-345.5" font-family="Helvetica,sans-Serif" font-size="10.00">Rectangle</text>
</g>
<!-- Node23&#45;&gt;Node11 -->
<g id="edge26" class="edge"><title>Node23&#45;&gt;Node11</title>
<path fill="none" stroke="#9a32cd" stroke-dasharray="5,2" d="M1059.97,-352.678C1093.53,-356.875 1142.13,-363.791 1184,-373 1194.62,-375.335 1206.09,-378.485 1216.25,-381.497"/>
<polygon fill="#9a32cd" stroke="#9a32cd" points="1059.98,-349.154 1049.63,-351.412 1059.13,-356.102 1059.98,-349.154"/>
<text text-anchor="middle" x="1144" y="-376" font-family="Helvetica,sans-Serif" font-size="10.00"> myBackground</text>
</g>
<!-- Node24 -->
<g id="node24" class="node"><title>Node24</title>
<polygon fill="white" stroke="#bfbfbf" points="1435.5,-76.5 1435.5,-95.5 1480.5,-95.5 1480.5,-76.5 1435.5,-76.5"/>
<text text-anchor="middle" x="1458" y="-83.5" font-family="Helvetica,sans-Serif" font-size="10.00">Stage</text>
</g>
<!-- Node24&#45;&gt;Node10 -->
<g id="edge27" class="edge"><title>Node24&#45;&gt;Node10</title>
<path fill="none" stroke="#9a32cd" stroke-dasharray="5,2" d="M1490.71,-79.9273C1524.07,-75.3848 1576.57,-73.6918 1612,-99 1657.92,-131.8 1670.81,-205.702 1674.03,-232.263"/>
<polygon fill="#9a32cd" stroke="#9a32cd" points="1489.95,-76.5024 1480.59,-81.4717 1491.01,-83.4222 1489.95,-76.5024"/>
<text text-anchor="middle" x="1574" y="-102" font-family="Helvetica,sans-Serif" font-size="10.00"> myStage</text>
</g>
<!-- Node25&#45;&gt;Node10 -->
<g id="edge29" class="edge"><title>Node25&#45;&gt;Node10</title>
<path fill="none" stroke="#9a32cd" stroke-dasharray="5,2" d="M1291,-168.059C1360.13,-169.232 1499.63,-176.07 1612,-210 1629.26,-215.213 1647.47,-224.99 1659.85,-232.371"/>
<polygon fill="#9a32cd" stroke="#9a32cd" points="1290.97,-164.558 1280.92,-167.92 1290.87,-171.558 1290.97,-164.558"/>
<text text-anchor="middle" x="1458" y="-191" font-family="Helvetica,sans-Serif" font-size="10.00"> myEditor</text>
</g>
<!-- Node26 -->
<g id="node26" class="node"><title>Node26</title>
<polygon fill="white" stroke="#bfbfbf" points="997,-185.5 997,-204.5 1039,-204.5 1039,-185.5 997,-185.5"/>
<text text-anchor="middle" x="1018" y="-192.5" font-family="Helvetica,sans-Serif" font-size="10.00">HBox</text>
</g>
<!-- Node26&#45;&gt;Node25 -->
<g id="edge30" class="edge"><title>Node26&#45;&gt;Node25</title>
<path fill="none" stroke="midnightblue" d="M1049.54,-193.146C1082.74,-190.916 1137.3,-186.624 1184,-180 1193.55,-178.645 1203.86,-176.803 1213.28,-174.97"/>
<polygon fill="midnightblue" stroke="midnightblue" points="1048.89,-189.681 1039.14,-193.824 1049.35,-196.666 1048.89,-189.681"/>
</g>
<!-- Node27 -->
<g id="node27" class="node"><title>Node27</title>
<polygon fill="white" stroke="#bfbfbf" points="993.5,-147.5 993.5,-166.5 1042.5,-166.5 1042.5,-147.5 993.5,-147.5"/>
<text text-anchor="middle" x="1018" y="-154.5" font-family="Helvetica,sans-Serif" font-size="10.00">Button</text>
</g>
<!-- Node27&#45;&gt;Node25 -->
<g id="edge31" class="edge"><title>Node27&#45;&gt;Node25</title>
<path fill="none" stroke="#9a32cd" stroke-dasharray="5,2" d="M1052.91,-158.643C1096.22,-160.742 1170.68,-164.35 1213.37,-166.419"/>
<polygon fill="#9a32cd" stroke="#9a32cd" points="1053.02,-155.145 1042.86,-158.156 1052.68,-162.136 1053.02,-155.145"/>
<text text-anchor="middle" x="1144" y="-168" font-family="Helvetica,sans-Serif" font-size="10.00"> runButton</text>
</g>
<!-- Node28 -->
<g id="node28" class="node"><title>Node28</title>
<polygon fill="white" stroke="#bfbfbf" points="989,-109.5 989,-128.5 1047,-128.5 1047,-109.5 989,-109.5"/>
<text text-anchor="middle" x="1018" y="-116.5" font-family="Helvetica,sans-Serif" font-size="10.00">TextArea</text>
</g>
<!-- Node28&#45;&gt;Node25 -->
<g id="edge33" class="edge"><title>Node28&#45;&gt;Node25</title>
<path fill="none" stroke="#9a32cd" stroke-dasharray="5,2" d="M1057.34,-123.751C1091.01,-128.339 1141.17,-136.184 1184,-147 1196.34,-150.116 1209.75,-154.525 1220.93,-158.499"/>
<polygon fill="#9a32cd" stroke="#9a32cd" points="1057.39,-120.227 1047.01,-122.376 1056.47,-127.166 1057.39,-120.227"/>
<text text-anchor="middle" x="1144" y="-150" font-family="Helvetica,sans-Serif" font-size="10.00"> textEditor</text>
</g>
<!-- Node29 -->
<g id="node29" class="node"><title>Node29</title>
<polygon fill="white" stroke="#bfbfbf" points="1398.5,-38.5 1398.5,-57.5 1517.5,-57.5 1517.5,-38.5 1398.5,-38.5"/>
<text text-anchor="middle" x="1458" y="-45.5" font-family="Helvetica,sans-Serif" font-size="10.00">Map&lt; String, Node &gt;</text>
</g>
<!-- Node29&#45;&gt;Node10 -->
<g id="edge35" class="edge"><title>Node29&#45;&gt;Node10</title>
<path fill="none" stroke="#9a32cd" stroke-dasharray="5,2" d="M1527.58,-39.3889C1556.36,-39.3933 1588.52,-44.5835 1612,-63 1667.22,-106.304 1674.16,-201.465 1674.94,-232.211"/>
<polygon fill="#9a32cd" stroke="#9a32cd" points="1527.49,-35.8899 1517.57,-39.5904 1527.63,-42.8885 1527.49,-35.8899"/>
<text text-anchor="middle" x="1574" y="-66" font-family="Helvetica,sans-Serif" font-size="10.00"> variables</text>
</g>
<!-- Node30 -->
<g id="node30" class="node"><title>Node30</title>
<polygon fill="white" stroke="#bfbfbf" points="1417.5,-0.5 1417.5,-19.5 1498.5,-19.5 1498.5,-0.5 1417.5,-0.5"/>
<text text-anchor="middle" x="1458" y="-7.5" font-family="Helvetica,sans-Serif" font-size="10.00">Dimension2D</text>
</g>
<!-- Node30&#45;&gt;Node10 -->
<g id="edge38" class="edge"><title>Node30&#45;&gt;Node10</title>
<path fill="none" stroke="#9a32cd" stroke-dasharray="5,2" d="M1509.1,-1.57686C1541.93,1.01857 1583.84,-1.61427 1612,-25 1645.35,-52.6924 1668.07,-194.292 1673.66,-232.493"/>
<polygon fill="#9a32cd" stroke="#9a32cd" points="1508.4,1.87144 1498.78,-2.58356 1509.08,-5.09545 1508.4,1.87144"/>
<text text-anchor="middle" x="1574" y="-28" font-family="Helvetica,sans-Serif" font-size="10.00"> myDimensions</text>
</g>
<!-- Node31&#45;&gt;Node10 -->
<g id="edge39" class="edge"><title>Node31&#45;&gt;Node10</title>
<path fill="none" stroke="#9a32cd" stroke-dasharray="5,2" d="M1504.69,-258.558C1541.7,-254.96 1593.54,-249.92 1630.29,-246.347"/>
<polygon fill="#9a32cd" stroke="#9a32cd" points="1504.28,-255.081 1494.67,-259.532 1504.96,-262.048 1504.28,-255.081"/>
<text text-anchor="middle" x="1574" y="-258" font-family="Helvetica,sans-Serif" font-size="10.00"> drawer</text>
</g>
<!-- Node32 -->
<g id="node32" class="node"><title>Node32</title>
<polygon fill="white" stroke="#bfbfbf" points="1226.5,-253.5 1226.5,-272.5 1267.5,-272.5 1267.5,-253.5 1226.5,-253.5"/>
<text text-anchor="middle" x="1247" y="-260.5" font-family="Helvetica,sans-Serif" font-size="10.00">Color</text>
</g>
<!-- Node32&#45;&gt;Node31 -->
<g id="edge41" class="edge"><title>Node32&#45;&gt;Node31</title>
<path fill="none" stroke="#9a32cd" stroke-dasharray="5,2" d="M1278.03,-263C1315.9,-263 1380.91,-263 1421.29,-263"/>
<polygon fill="#9a32cd" stroke="#9a32cd" points="1277.66,-259.5 1267.66,-263 1277.66,-266.5 1277.66,-259.5"/>
<text text-anchor="middle" x="1345" y="-266" font-family="Helvetica,sans-Serif" font-size="10.00"> myColor</text>
</g>
</g>
</svg>
        <g id="navigator" transform="translate(0 0)" fill="#404254">
                <rect fill="#f2f5e9" fill-opacity="0.5" stroke="#606060" stroke-width=".5" x="0" y="0" width="60" height="60"/>
                <use id="zoomplus" xlink:href="#zoomPlus" x="17" y="9" onmousedown="handleZoom(evt,'in')"/>
                <use id="zoomminus" xlink:href="#zoomMin" x="42" y="9" onmousedown="handleZoom(evt,'out')"/>
                <use id="reset" xlink:href="#resetDef" x="30" y="36" onmousedown="handleReset()"/>
                <g id="arrowUp" xlink:href="#dirArrow" transform="translate(30 24)" onmousedown="handlePan(0,-1)">
                  <use xlink:href="#rim" fill="#404040">
                        <set attributeName="fill" to="#808080" begin="arrowUp.mouseover" end="arrowUp.mouseout"/>
                  </use>
                  <path fill="none" stroke="white" stroke-width="1.5" d="M0,-3.0v7 M-2.5,-0.5L0,-3.0L2.5,-0.5"/>
                </g>
                <g id="arrowRight" xlink:href="#dirArrow" transform="rotate(90) translate(36 -43)" onmousedown="handlePan(1,0)">
                  <use xlink:href="#rim" fill="#404040">
                        <set attributeName="fill" to="#808080" begin="arrowRight.mouseover" end="arrowRight.mouseout"/>
                  </use>
                  <path fill="none" stroke="white" stroke-width="1.5" d="M0,-3.0v7 M-2.5,-0.5L0,-3.0L2.5,-0.5"/>
                </g>
                <g id="arrowDown" xlink:href="#dirArrow" transform="rotate(180) translate(-30 -48)" onmousedown="handlePan(0,1)">
                  <use xlink:href="#rim" fill="#404040">
                        <set attributeName="fill" to="#808080" begin="arrowDown.mouseover" end="arrowDown.mouseout"/>
                  </use>
                  <path fill="none" stroke="white" stroke-width="1.5" d="M0,-3.0v7 M-2.5,-0.5L0,-3.0L2.5,-0.5"/>
                </g>
                <g id="arrowLeft" xlink:href="#dirArrow" transform="rotate(270) translate(-36 17)" onmousedown="handlePan(-1,0)">
                  <use xlink:href="#rim" fill="#404040">
                        <set attributeName="fill" to="#808080" begin="arrowLeft.mouseover" end="arrowLeft.mouseout"/>
                  </use>
                  <path fill="none" stroke="white" stroke-width="1.5" d="M0,-3.0v7 M-2.5,-0.5L0,-3.0L2.5,-0.5"/>
                </g>
        </g>
        <svg viewBox="0 0 15 15" width="100%" height="30px" preserveAspectRatio="xMaxYMin meet">
         <g id="arrow_out" transform="scale(0.3 0.3)">
          <a xlink:href="classmodel_1_1_parser__coll__graph_org.svg" target="_base">
           <rect id="button" ry="5" rx="5" y="6" x="6" height="38" width="38"
                fill="#f2f5e9" fill-opacity="0.5" stroke="#606060" stroke-width="1.0"/>
           <path id="arrow"
             d="M 11.500037,31.436501 C 11.940474,20.09759 22.043105,11.32322 32.158766,21.979434 L 37.068811,17.246167 C 37.068811,17.246167 37.088388,32 37.088388,32 L 22.160133,31.978069 C 22.160133,31.978069 26.997745,27.140456 26.997745,27.140456 C 18.528582,18.264221 13.291696,25.230495 11.500037,31.436501 z"
             style="fill:#404040;"/>
          </a>
         </g>
        </svg>
</svg>
