<?xml version="1.0" encoding="UTF-8" standalone="no"?>
<!DOCTYPE svg PUBLIC "-//W3C//DTD SVG 1.1//EN"
 "http://www.w3.org/Graphics/SVG/1.1/DTD/svg11.dtd">
<!-- Generated by graphviz version 2.36.0 (20140111.2315)
 -->
<!-- Title: model.XMLParser.createGrid Pages: 1 -->
<svg width="542pt" height="28pt"
 viewBox="0.00 0.00 542.00 28.00" xmlns="http://www.w3.org/2000/svg" xmlns:xlink="http://www.w3.org/1999/xlink">
<g id="graph0" class="graph" transform="scale(1 1) rotate(0) translate(4 24)">
<title>model.XMLParser.createGrid</title>
<polygon fill="white" stroke="none" points="-4,4 -4,-24 538,-24 538,4 -4,4"/>
<!-- Node1 -->
<g id="node1" class="node"><title>Node1</title>
<polygon fill="#bfbfbf" stroke="black" points="0,-0.5 0,-19.5 152,-19.5 152,-0.5 0,-0.5"/>
<text text-anchor="middle" x="76" y="-7.5" font-family="Helvetica,sans-Serif" font-size="10.00">model.XMLParser.createGrid</text>
</g>
<!-- Node2 -->
<g id="node2" class="node"><title>Node2</title>
<g id="a_node2"><a xlink:href="../../da/d2a/classmodel_1_1_x_m_l_parser.html#a6d1e6a510e2d135f0af6aecdf4309de1" target="_top" xlink:title="model.XMLParser.readSimFile">
<polygon fill="white" stroke="black" points="188.5,-0.5 188.5,-19.5 345.5,-19.5 345.5,-0.5 188.5,-0.5"/>
<text text-anchor="middle" x="267" y="-7.5" font-family="Helvetica,sans-Serif" font-size="10.00">model.XMLParser.readSimFile</text>
</a>
</g>
</g>
<!-- Node1&#45;&gt;Node2 -->
<g id="edge1" class="edge"><title>Node1&#45;&gt;Node2</title>
<path fill="none" stroke="midnightblue" d="M162.312,-10C170.946,-10 179.684,-10 188.233,-10"/>
<polygon fill="midnightblue" stroke="midnightblue" points="162.241,-6.5001 152.241,-10 162.241,-13.5001 162.241,-6.5001"/>
</g>
<!-- Node3 -->
<g id="node3" class="node"><title>Node3</title>
<g id="a_node3"><a xlink:href="../../da/d2a/classmodel_1_1_x_m_l_parser.html#ab035a677986a8d18c321c4f8c134aa94" target="_top" xlink:title="model.XMLParser.XMLParser">
<polygon fill="white" stroke="black" points="382.5,-0.5 382.5,-19.5 533.5,-19.5 533.5,-0.5 382.5,-0.5"/>
<text text-anchor="middle" x="458" y="-7.5" font-family="Helvetica,sans-Serif" font-size="10.00">model.XMLParser.XMLParser</text>
</a>
</g>
</g>
<!-- Node2&#45;&gt;Node3 -->
<g id="edge2" class="edge"><title>Node2&#45;&gt;Node3</title>
<path fill="none" stroke="midnightblue" d="M355.699,-10C364.608,-10 373.598,-10 382.35,-10"/>
<polygon fill="midnightblue" stroke="midnightblue" points="355.692,-6.5001 345.692,-10 355.692,-13.5001 355.692,-6.5001"/>
</g>
</g>
</svg>
