<?xml version="1.0" encoding="UTF-8" standalone="no"?>
<!DOCTYPE svg PUBLIC "-//W3C//DTD SVG 1.1//EN"
 "http://www.w3.org/Graphics/SVG/1.1/DTD/svg11.dtd">
<!-- Generated by graphviz version 2.36.0 (20140111.2315)
 -->
<!-- Title: view.CustomizationBar.changeTurtleImage Pages: 1 -->
<svg width="614pt" height="38pt"
 viewBox="0.00 0.00 614.00 38.00" xmlns="http://www.w3.org/2000/svg" xmlns:xlink="http://www.w3.org/1999/xlink">
<g id="graph0" class="graph" transform="scale(1 1) rotate(0) translate(4 34)">
<title>view.CustomizationBar.changeTurtleImage</title>
<polygon fill="white" stroke="none" points="-4,4 -4,-34 610,-34 610,4 -4,4"/>
<!-- Node1 -->
<g id="node1" class="node"><title>Node1</title>
<polygon fill="#bfbfbf" stroke="black" points="0,-0 0,-30 162,-30 162,-0 0,-0"/>
<text text-anchor="start" x="8" y="-18" font-family="Helvetica,sans-Serif" font-size="10.00">view.CustomizationBar.change</text>
<text text-anchor="middle" x="81" y="-7" font-family="Helvetica,sans-Serif" font-size="10.00">TurtleImage</text>
</g>
<!-- Node2 -->
<g id="node2" class="node"><title>Node2</title>
<g id="a_node2"><a xlink:href="../../dc/d3c/classview_1_1_customization_bar.html#ad98fcd1097211e5f6ef464b20069a3cc" target="_top" xlink:title="view.CustomizationBar.upload\lTurtleFile">
<polygon fill="white" stroke="black" points="198.5,-0 198.5,-30 357.5,-30 357.5,-0 198.5,-0"/>
<text text-anchor="start" x="206.5" y="-18" font-family="Helvetica,sans-Serif" font-size="10.00">view.CustomizationBar.upload</text>
<text text-anchor="middle" x="278" y="-7" font-family="Helvetica,sans-Serif" font-size="10.00">TurtleFile</text>
</a>
</g>
</g>
<!-- Node1&#45;&gt;Node2 -->
<g id="edge1" class="edge"><title>Node1&#45;&gt;Node2</title>
<path fill="none" stroke="midnightblue" d="M172.331,-15C181.041,-15 189.828,-15 198.412,-15"/>
<polygon fill="midnightblue" stroke="midnightblue" points="172.158,-11.5001 162.158,-15 172.158,-18.5001 172.158,-11.5001"/>
</g>
<!-- Node3 -->
<g id="node3" class="node"><title>Node3</title>
<g id="a_node3"><a xlink:href="../../dc/d3c/classview_1_1_customization_bar.html#af901579e0b448f2082f884fc92fc51e2" target="_top" xlink:title="view.CustomizationBar.CustomizationBar">
<polygon fill="white" stroke="black" points="394,-5.5 394,-24.5 606,-24.5 606,-5.5 394,-5.5"/>
<text text-anchor="middle" x="500" y="-12.5" font-family="Helvetica,sans-Serif" font-size="10.00">view.CustomizationBar.CustomizationBar</text>
</a>
</g>
</g>
<!-- Node2&#45;&gt;Node3 -->
<g id="edge2" class="edge"><title>Node2&#45;&gt;Node3</title>
<path fill="none" stroke="midnightblue" d="M368.076,-15C376.579,-15 385.255,-15 393.892,-15"/>
<polygon fill="midnightblue" stroke="midnightblue" points="367.804,-11.5001 357.804,-15 367.804,-18.5001 367.804,-11.5001"/>
</g>
</g>
</svg>
