<?xml version="1.0" encoding="UTF-8" standalone="no"?>
<!DOCTYPE svg PUBLIC "-//W3C//DTD SVG 1.1//EN"
 "http://www.w3.org/Graphics/SVG/1.1/DTD/svg11.dtd">
<!-- Generated by graphviz version 2.36.0 (20140111.2315)
 -->
<!-- Title: view.CustomizationBar.configureLanguageOptions Pages: 1 -->
<svg width="928pt" height="38pt"
 viewBox="0.00 0.00 928.00 38.00" xmlns="http://www.w3.org/2000/svg" xmlns:xlink="http://www.w3.org/1999/xlink">
<g id="graph0" class="graph" transform="scale(1 1) rotate(0) translate(4 34)">
<title>view.CustomizationBar.configureLanguageOptions</title>
<polygon fill="white" stroke="none" points="-4,4 -4,-34 924,-34 924,4 -4,4"/>
<!-- Node1 -->
<g id="node1" class="node"><title>Node1</title>
<polygon fill="#bfbfbf" stroke="black" points="0.5,-0 0.5,-30 171.5,-30 171.5,-0 0.5,-0"/>
<text text-anchor="start" x="8.5" y="-18" font-family="Helvetica,sans-Serif" font-size="10.00">view.CustomizationBar.configure</text>
<text text-anchor="middle" x="86" y="-7" font-family="Helvetica,sans-Serif" font-size="10.00">LanguageOptions</text>
</g>
<!-- Node2 -->
<g id="node2" class="node"><title>Node2</title>
<g id="a_node2"><a xlink:href="../../d4/dd9/classcontroller_1_1_s_logo_controller.html#a89c25e25137c85e944d4d1a5a31837cc" target="_top" xlink:title="controller.SLogoController.set\lLanguage">
<polygon fill="white" stroke="black" points="208,-0 208,-30 366,-30 366,-0 208,-0"/>
<text text-anchor="start" x="216" y="-18" font-family="Helvetica,sans-Serif" font-size="10.00">controller.SLogoController.set</text>
<text text-anchor="middle" x="287" y="-7" font-family="Helvetica,sans-Serif" font-size="10.00">Language</text>
</a>
</g>
</g>
<!-- Node1&#45;&gt;Node2 -->
<g id="edge1" class="edge"><title>Node1&#45;&gt;Node2</title>
<path fill="none" stroke="midnightblue" d="M171.682,-15C180.274,-15 189.017,-15 197.646,-15"/>
<polygon fill="midnightblue" stroke="midnightblue" points="197.709,-18.5001 207.709,-15 197.709,-11.5001 197.709,-18.5001"/>
</g>
<!-- Node3 -->
<g id="node3" class="node"><title>Node3</title>
<g id="a_node3"><a xlink:href="../../dc/df5/classmodel_1_1_parser.html#a25efafa72b39ed9bf714d0f0f161aa28" target="_top" xlink:title="model.Parser.setLanguage">
<polygon fill="white" stroke="black" points="402,-5.5 402,-24.5 546,-24.5 546,-5.5 402,-5.5"/>
<text text-anchor="middle" x="474" y="-12.5" font-family="Helvetica,sans-Serif" font-size="10.00">model.Parser.setLanguage</text>
</a>
</g>
</g>
<!-- Node2&#45;&gt;Node3 -->
<g id="edge2" class="edge"><title>Node2&#45;&gt;Node3</title>
<path fill="none" stroke="midnightblue" d="M366.189,-15C374.602,-15 383.177,-15 391.626,-15"/>
<polygon fill="midnightblue" stroke="midnightblue" points="391.85,-18.5001 401.85,-15 391.85,-11.5001 391.85,-18.5001"/>
</g>
<!-- Node4 -->
<g id="node4" class="node"><title>Node4</title>
<g id="a_node4"><a xlink:href="../../dc/df5/classmodel_1_1_parser.html#aa777d197a541c6ca6be224c0ce6754a5" target="_top" xlink:title="model.Parser.addAllPatterns">
<polygon fill="white" stroke="black" points="582.5,-5.5 582.5,-24.5 733.5,-24.5 733.5,-5.5 582.5,-5.5"/>
<text text-anchor="middle" x="658" y="-12.5" font-family="Helvetica,sans-Serif" font-size="10.00">model.Parser.addAllPatterns</text>
</a>
</g>
</g>
<!-- Node3&#45;&gt;Node4 -->
<g id="edge3" class="edge"><title>Node3&#45;&gt;Node4</title>
<path fill="none" stroke="midnightblue" d="M546.148,-15C554.675,-15 563.447,-15 572.144,-15"/>
<polygon fill="midnightblue" stroke="midnightblue" points="572.299,-18.5001 582.299,-15 572.299,-11.5001 572.299,-18.5001"/>
</g>
<!-- Node5 -->
<g id="node5" class="node"><title>Node5</title>
<g id="a_node5"><a xlink:href="../../dc/df5/classmodel_1_1_parser.html#ab8b41b81d9a6ea903b050ca5a5235004" target="_top" xlink:title="model.Parser.makePatterns">
<polygon fill="white" stroke="black" points="770.5,-5.5 770.5,-24.5 919.5,-24.5 919.5,-5.5 770.5,-5.5"/>
<text text-anchor="middle" x="845" y="-12.5" font-family="Helvetica,sans-Serif" font-size="10.00">model.Parser.makePatterns</text>
</a>
</g>
</g>
<!-- Node4&#45;&gt;Node5 -->
<g id="edge4" class="edge"><title>Node4&#45;&gt;Node5</title>
<path fill="none" stroke="midnightblue" d="M733.713,-15C742.363,-15 751.228,-15 759.99,-15"/>
<polygon fill="midnightblue" stroke="midnightblue" points="760.21,-18.5001 770.21,-15 760.21,-11.5001 760.21,-18.5001"/>
</g>
</g>
</svg>
