<?xml version="1.0" encoding="UTF-8" standalone="no"?>
<!DOCTYPE svg PUBLIC "-//W3C//DTD SVG 1.1//EN"
 "http://www.w3.org/Graphics/SVG/1.1/DTD/svg11.dtd">
<!-- Generated by graphviz version 2.36.0 (20140111.2315)
 -->
<!-- Title: model.instructions.Instruction Pages: 1 -->
<svg width="1476pt" height="622pt"
 viewBox="0.00 0.00 1476.00 622.00" xmlns="http://www.w3.org/2000/svg" xmlns:xlink="http://www.w3.org/1999/xlink">
<g id="graph0" class="graph" transform="scale(1 1) rotate(0) translate(4 618)">
<title>model.instructions.Instruction</title>
<polygon fill="white" stroke="none" points="-4,4 -4,-618 1472,-618 1472,4 -4,4"/>
<!-- Node1 -->
<g id="node1" class="node"><title>Node1</title>
<polygon fill="#bfbfbf" stroke="black" points="646,-248.5 646,-267.5 804,-267.5 804,-248.5 646,-248.5"/>
<text text-anchor="middle" x="725" y="-255.5" font-family="Helvetica,sans-Serif" font-size="10.00">model.instructions.Instruction</text>
</g>
<!-- Node2 -->
<g id="node2" class="node"><title>Node2</title>
<polygon fill="white" stroke="#bfbfbf" points="57,-207.5 57,-226.5 117,-226.5 117,-207.5 57,-207.5"/>
<text text-anchor="middle" x="87" y="-214.5" font-family="Helvetica,sans-Serif" font-size="10.00">Observer</text>
</g>
<!-- Node2&#45;&gt;Node1 -->
<g id="edge1" class="edge"><title>Node2&#45;&gt;Node1</title>
<path fill="none" stroke="midnightblue" d="M127.247,-218.363C197.867,-220.936 351.016,-227.063 480,-236 535.479,-239.844 597.936,-245.5 645.771,-250.115"/>
<polygon fill="midnightblue" stroke="midnightblue" points="127.158,-214.858 117.039,-217.995 126.906,-221.853 127.158,-214.858"/>
</g>
<!-- Node8 -->
<g id="node8" class="node"><title>Node8</title>
<g id="a_node8"><a xlink:href="../../d6/de7/classview_1_1_s_logo_view.html" target="_top" xlink:title="view.SLogoView">
<polygon fill="white" stroke="black" points="355.5,-391.5 355.5,-410.5 446.5,-410.5 446.5,-391.5 355.5,-391.5"/>
<text text-anchor="middle" x="401" y="-398.5" font-family="Helvetica,sans-Serif" font-size="10.00">view.SLogoView</text>
</a>
</g>
</g>
<!-- Node2&#45;&gt;Node8 -->
<g id="edge8" class="edge"><title>Node2&#45;&gt;Node8</title>
<path fill="none" stroke="midnightblue" d="M116.925,-231.101C158.97,-251.916 239.04,-292.763 304,-333 335.08,-352.251 369.632,-377.826 387.605,-391.47"/>
<polygon fill="midnightblue" stroke="midnightblue" points="118.334,-227.893 107.817,-226.611 115.239,-234.172 118.334,-227.893"/>
</g>
<!-- Node20 -->
<g id="node20" class="node"><title>Node20</title>
<g id="a_node20"><a xlink:href="../../dc/df5/classmodel_1_1_parser.html" target="_top" xlink:title="model.Parser">
<polygon fill="white" stroke="black" points="685,-49.5 685,-68.5 765,-68.5 765,-49.5 685,-49.5"/>
<text text-anchor="middle" x="725" y="-56.5" font-family="Helvetica,sans-Serif" font-size="10.00">model.Parser</text>
</a>
</g>
</g>
<!-- Node2&#45;&gt;Node20 -->
<g id="edge22" class="edge"><title>Node2&#45;&gt;Node20</title>
<path fill="none" stroke="midnightblue" d="M127.493,-215.8C244.51,-211.883 583.521,-197.784 620,-165 649.368,-138.606 610.267,-106.107 638,-78 650.135,-65.7006 668.314,-60.5574 684.836,-58.6491"/>
<polygon fill="midnightblue" stroke="midnightblue" points="127.079,-212.312 117.199,-216.138 127.309,-219.308 127.079,-212.312"/>
</g>
<!-- Node3 -->
<g id="node3" class="node"><title>Node3</title>
<g id="a_node3"><a xlink:href="../../d1/dca/classmodel_1_1_execution_environment.html" target="_top" xlink:title="model.ExecutionEnvironment">
<polygon fill="white" stroke="black" points="322.5,-108.5 322.5,-127.5 479.5,-127.5 479.5,-108.5 322.5,-108.5"/>
<text text-anchor="middle" x="401" y="-115.5" font-family="Helvetica,sans-Serif" font-size="10.00">model.ExecutionEnvironment</text>
</a>
</g>
</g>
<!-- Node3&#45;&gt;Node1 -->
<g id="edge2" class="edge"><title>Node3&#45;&gt;Node1</title>
<path fill="none" stroke="#9a32cd" stroke-dasharray="5,2" d="M489.002,-129.634C533.102,-139.583 584.656,-157.991 620,-192 636.118,-207.509 621.055,-224.398 638,-239 642.402,-242.793 647.392,-245.878 652.698,-248.383"/>
<polygon fill="#9a32cd" stroke="#9a32cd" points="489.645,-126.193 479.134,-127.519 488.178,-133.037 489.645,-126.193"/>
<text text-anchor="middle" x="559" y="-195" font-family="Helvetica,sans-Serif" font-size="10.00"> myEnvironment</text>
</g>
<!-- Node15 -->
<g id="node15" class="node"><title>Node15</title>
<g id="a_node15"><a xlink:href="../../d1/dc7/classview_1_1_side_bar.html" target="_top" xlink:title="view.SideBar">
<polygon fill="white" stroke="black" points="979.5,-220.5 979.5,-239.5 1056.5,-239.5 1056.5,-220.5 979.5,-220.5"/>
<text text-anchor="middle" x="1018" y="-227.5" font-family="Helvetica,sans-Serif" font-size="10.00">view.SideBar</text>
</a>
</g>
</g>
<!-- Node3&#45;&gt;Node15 -->
<g id="edge19" class="edge"><title>Node3&#45;&gt;Node15</title>
<path fill="none" stroke="#9a32cd" stroke-dasharray="5,2" d="M489.651,-109.75C531.088,-109.434 580.097,-114.447 620,-134 630.739,-139.262 627.61,-148.079 638,-154 641.749,-156.136 884.287,-203.931 979.358,-222.612"/>
<polygon fill="#9a32cd" stroke="#9a32cd" points="489.501,-106.252 479.566,-109.932 489.627,-113.251 489.501,-106.252"/>
<text text-anchor="middle" x="725" y="-193" font-family="Helvetica,sans-Serif" font-size="10.00"> myEnvironment</text>
</g>
<!-- Node3&#45;&gt;Node20 -->
<g id="edge24" class="edge"><title>Node3&#45;&gt;Node20</title>
<path fill="none" stroke="#9a32cd" stroke-dasharray="5,2" d="M448.727,-106.04C464.339,-102.249 481.868,-98.2124 498,-95 563.073,-82.0421 639.421,-70.6703 684.641,-64.3295"/>
<polygon fill="#9a32cd" stroke="#9a32cd" points="447.655,-102.699 438.779,-108.485 449.325,-109.497 447.655,-102.699"/>
<text text-anchor="middle" x="559" y="-98" font-family="Helvetica,sans-Serif" font-size="10.00"> myExecutionParameters</text>
</g>
<!-- Node4 -->
<g id="node4" class="node"><title>Node4</title>
<polygon fill="white" stroke="#bfbfbf" points="51.5,-106.5 51.5,-125.5 122.5,-125.5 122.5,-106.5 51.5,-106.5"/>
<text text-anchor="middle" x="87" y="-113.5" font-family="Helvetica,sans-Serif" font-size="10.00">Observable</text>
</g>
<!-- Node4&#45;&gt;Node3 -->
<g id="edge3" class="edge"><title>Node4&#45;&gt;Node3</title>
<path fill="none" stroke="midnightblue" d="M132.637,-116.286C182.066,-116.603 262.658,-117.12 322.457,-117.503"/>
<polygon fill="midnightblue" stroke="midnightblue" points="132.604,-112.786 122.582,-116.222 132.559,-119.786 132.604,-112.786"/>
</g>
<!-- Node5 -->
<g id="node5" class="node"><title>Node5</title>
<polygon fill="white" stroke="#bfbfbf" points="0,-57 0,-87 174,-87 174,-57 0,-57"/>
<text text-anchor="start" x="8" y="-75" font-family="Helvetica,sans-Serif" font-size="10.00">Map&lt; String, model.instructions.</text>
<text text-anchor="middle" x="87" y="-64" font-family="Helvetica,sans-Serif" font-size="10.00">Instruction &gt;</text>
</g>
<!-- Node5&#45;&gt;Node3 -->
<g id="edge4" class="edge"><title>Node5&#45;&gt;Node3</title>
<path fill="none" stroke="#9a32cd" stroke-dasharray="5,2" d="M184.39,-84.8178C221.774,-89.9383 264.916,-96.0299 304,-102 317.112,-104.003 331.209,-106.282 344.455,-108.479"/>
<polygon fill="#9a32cd" stroke="#9a32cd" points="184.388,-81.2851 174.006,-83.4002 183.441,-88.2208 184.388,-81.2851"/>
<text text-anchor="middle" x="248" y="-105" font-family="Helvetica,sans-Serif" font-size="10.00"> myUserInstructionMap</text>
</g>
<!-- Node6 -->
<g id="node6" class="node"><title>Node6</title>
<polygon fill="white" stroke="#bfbfbf" points="23,-144.5 23,-163.5 151,-163.5 151,-144.5 23,-144.5"/>
<text text-anchor="middle" x="87" y="-151.5" font-family="Helvetica,sans-Serif" font-size="10.00">Map&lt; String, Double &gt;</text>
</g>
<!-- Node6&#45;&gt;Node3 -->
<g id="edge5" class="edge"><title>Node6&#45;&gt;Node3</title>
<path fill="none" stroke="#9a32cd" stroke-dasharray="5,2" d="M161.477,-146.701C203.288,-142.416 256.615,-136.73 304,-131 312.933,-129.92 322.325,-128.723 331.594,-127.506"/>
<polygon fill="#9a32cd" stroke="#9a32cd" points="160.972,-143.234 151.379,-147.732 161.683,-150.198 160.972,-143.234"/>
<text text-anchor="middle" x="248" y="-147" font-family="Helvetica,sans-Serif" font-size="10.00"> myVariableMap</text>
</g>
<!-- Node7 -->
<g id="node7" class="node"><title>Node7</title>
<polygon fill="white" stroke="#bfbfbf" points="333,-246 333,-276 469,-276 469,-246 333,-246"/>
<text text-anchor="start" x="341" y="-264" font-family="Helvetica,sans-Serif" font-size="10.00">List&lt; model.instructions.</text>
<text text-anchor="middle" x="401" y="-253" font-family="Helvetica,sans-Serif" font-size="10.00">Instruction &gt;</text>
</g>
<!-- Node7&#45;&gt;Node1 -->
<g id="edge6" class="edge"><title>Node7&#45;&gt;Node1</title>
<path fill="none" stroke="#9a32cd" stroke-dasharray="5,2" d="M479.307,-260.28C529.736,-259.81 595.34,-259.199 645.923,-258.727"/>
<polygon fill="#9a32cd" stroke="#9a32cd" points="479.077,-256.782 469.11,-260.375 479.142,-263.781 479.077,-256.782"/>
<text text-anchor="middle" x="559" y="-264" font-family="Helvetica,sans-Serif" font-size="10.00"> myDependencies</text>
</g>
<!-- Node8&#45;&gt;Node1 -->
<g id="edge7" class="edge"><title>Node8&#45;&gt;Node1</title>
<path fill="none" stroke="#9a32cd" stroke-dasharray="5,2" d="M456.684,-397.585C517.152,-393.327 607.709,-385.332 620,-375 641.311,-357.085 621.408,-337.356 638,-315 654.333,-292.993 681.861,-276.931 701.369,-267.569"/>
<polygon fill="#9a32cd" stroke="#9a32cd" points="456.249,-394.107 446.513,-398.286 456.73,-401.09 456.249,-394.107"/>
<text text-anchor="middle" x="559" y="-397" font-family="Helvetica,sans-Serif" font-size="10.00"> myView</text>
</g>
<!-- Node8&#45;&gt;Node20 -->
<g id="edge26" class="edge"><title>Node8&#45;&gt;Node20</title>
<path fill="none" stroke="#9a32cd" stroke-dasharray="5,2" d="M419.112,-384.531C437.217,-368.082 467.356,-343.376 498,-330 548.57,-307.926 583.144,-348.063 620,-307 654.096,-269.011 604.499,-116.514 638,-78 649.54,-64.7327 668.067,-59.5511 684.974,-57.868"/>
<polygon fill="#9a32cd" stroke="#9a32cd" points="416.624,-382.066 411.682,-391.437 421.389,-387.193 416.624,-382.066"/>
<text text-anchor="middle" x="559" y="-333" font-family="Helvetica,sans-Serif" font-size="10.00"> mySLogoView</text>
</g>
<!-- Node9 -->
<g id="node9" class="node"><title>Node9</title>
<g id="a_node9"><a xlink:href="../../da/d64/classview_1_1_workspace.html" target="_top" xlink:title="view.Workspace">
<polygon fill="white" stroke="black" points="1198,-427.5 1198,-446.5 1288,-446.5 1288,-427.5 1198,-427.5"/>
<text text-anchor="middle" x="1243" y="-434.5" font-family="Helvetica,sans-Serif" font-size="10.00">view.Workspace</text>
</a>
</g>
</g>
<!-- Node9&#45;&gt;Node8 -->
<g id="edge9" class="edge"><title>Node9&#45;&gt;Node8</title>
<path fill="none" stroke="#9a32cd" stroke-dasharray="5,2" d="M1231.76,-455.264C1221.07,-472.676 1202.69,-498.351 1180,-513 1143.68,-536.445 1128.87,-532.397 1086,-538 888.033,-563.876 833.604,-544.995 638,-505 574.228,-491.961 557.11,-489.254 498,-462 466.26,-447.365 432.518,-423.807 414.716,-410.661"/>
<polygon fill="#9a32cd" stroke="#9a32cd" points="1234.83,-456.955 1236.89,-446.563 1228.8,-453.4 1234.83,-456.955"/>
<text text-anchor="middle" x="881" y="-552" font-family="Helvetica,sans-Serif" font-size="10.00"> myWorkspace</text>
</g>
<!-- Node32 -->
<g id="node32" class="node"><title>Node32</title>
<g id="a_node32"><a xlink:href="../../de/d0a/classview_1_1_drawer.html" target="_top" xlink:title="view.Drawer">
<polygon fill="white" stroke="black" points="1394.5,-427.5 1394.5,-446.5 1467.5,-446.5 1467.5,-427.5 1394.5,-427.5"/>
<text text-anchor="middle" x="1431" y="-434.5" font-family="Helvetica,sans-Serif" font-size="10.00">view.Drawer</text>
</a>
</g>
</g>
<!-- Node9&#45;&gt;Node32 -->
<g id="edge41" class="edge"><title>Node9&#45;&gt;Node32</title>
<path fill="none" stroke="#9a32cd" stroke-dasharray="5,2" d="M1298.28,-437C1329.23,-437 1367.14,-437 1394.33,-437"/>
<polygon fill="#9a32cd" stroke="#9a32cd" points="1298.08,-433.5 1288.08,-437 1298.08,-440.5 1298.08,-433.5"/>
<text text-anchor="middle" x="1341" y="-440" font-family="Helvetica,sans-Serif" font-size="10.00"> myWorkspace</text>
</g>
<!-- Node10 -->
<g id="node10" class="node"><title>Node10</title>
<polygon fill="white" stroke="#bfbfbf" points="984.5,-471.5 984.5,-490.5 1051.5,-490.5 1051.5,-471.5 984.5,-471.5"/>
<text text-anchor="middle" x="1018" y="-478.5" font-family="Helvetica,sans-Serif" font-size="10.00">StackPane</text>
</g>
<!-- Node10&#45;&gt;Node9 -->
<g id="edge10" class="edge"><title>Node10&#45;&gt;Node9</title>
<path fill="none" stroke="midnightblue" d="M1061.86,-473.989C1094.38,-468.499 1140.13,-460.406 1180,-452 1187.8,-450.355 1196.12,-448.449 1204.05,-446.558"/>
<polygon fill="midnightblue" stroke="midnightblue" points="1061.08,-470.572 1051.8,-475.677 1062.24,-477.475 1061.08,-470.572"/>
</g>
<!-- Node11 -->
<g id="node11" class="node"><title>Node11</title>
<g id="a_node11"><a xlink:href="../../d8/df7/classview_1_1_turtle_view.html" target="_top" xlink:title="view.TurtleView">
<polygon fill="white" stroke="black" points="975,-345.5 975,-364.5 1061,-364.5 1061,-345.5 975,-345.5"/>
<text text-anchor="middle" x="1018" y="-352.5" font-family="Helvetica,sans-Serif" font-size="10.00">view.TurtleView</text>
</a>
</g>
</g>
<!-- Node11&#45;&gt;Node9 -->
<g id="edge11" class="edge"><title>Node11&#45;&gt;Node9</title>
<path fill="none" stroke="#9a32cd" stroke-dasharray="5,2" d="M1071.27,-362.095C1103.61,-367.744 1145.4,-377.364 1180,-393 1199.73,-401.915 1219.62,-417.465 1231.38,-427.491"/>
<polygon fill="#9a32cd" stroke="#9a32cd" points="1071.57,-358.596 1061.13,-360.399 1070.41,-365.5 1071.57,-358.596"/>
<text text-anchor="middle" x="1142" y="-396" font-family="Helvetica,sans-Serif" font-size="10.00"> myActiveTurtle</text>
</g>
<!-- Node12 -->
<g id="node12" class="node"><title>Node12</title>
<polygon fill="white" stroke="#bfbfbf" points="691,-476.5 691,-495.5 759,-495.5 759,-476.5 691,-476.5"/>
<text text-anchor="middle" x="725" y="-483.5" font-family="Helvetica,sans-Serif" font-size="10.00">ImageView</text>
</g>
<!-- Node12&#45;&gt;Node11 -->
<g id="edge12" class="edge"><title>Node12&#45;&gt;Node11</title>
<path fill="none" stroke="midnightblue" d="M769.386,-493.812C815.734,-499.474 888.396,-500.216 932,-460 960.705,-433.525 923.37,-402.562 950,-374 956.596,-366.925 965.612,-362.417 974.892,-359.562"/>
<polygon fill="midnightblue" stroke="midnightblue" points="769.723,-490.326 759.345,-492.459 768.788,-497.263 769.723,-490.326"/>
</g>
<!-- Node13 -->
<g id="node13" class="node"><title>Node13</title>
<polygon fill="white" stroke="#bfbfbf" points="950,-422 950,-452 1086,-452 1086,-422 950,-422"/>
<text text-anchor="start" x="958" y="-440" font-family="Helvetica,sans-Serif" font-size="10.00">Map&lt; Integer, view.Turtle</text>
<text text-anchor="middle" x="1018" y="-429" font-family="Helvetica,sans-Serif" font-size="10.00">View &gt;</text>
</g>
<!-- Node13&#45;&gt;Node9 -->
<g id="edge13" class="edge"><title>Node13&#45;&gt;Node9</title>
<path fill="none" stroke="#9a32cd" stroke-dasharray="5,2" d="M1096.56,-437C1130.44,-437 1168.95,-437 1197.82,-437"/>
<polygon fill="#9a32cd" stroke="#9a32cd" points="1096.21,-433.5 1086.21,-437 1096.21,-440.5 1096.21,-433.5"/>
<text text-anchor="middle" x="1142" y="-440" font-family="Helvetica,sans-Serif" font-size="10.00"> myTurtles</text>
</g>
<!-- Node14 -->
<g id="node14" class="node"><title>Node14</title>
<polygon fill="white" stroke="#bfbfbf" points="995,-383.5 995,-402.5 1041,-402.5 1041,-383.5 995,-383.5"/>
<text text-anchor="middle" x="1018" y="-390.5" font-family="Helvetica,sans-Serif" font-size="10.00">Group</text>
</g>
<!-- Node14&#45;&gt;Node9 -->
<g id="edge14" class="edge"><title>Node14&#45;&gt;Node9</title>
<path fill="none" stroke="#9a32cd" stroke-dasharray="5,2" d="M1051.51,-398.275C1084.1,-403.7 1135.68,-412.656 1180,-422 1187.8,-423.645 1196.12,-425.551 1204.05,-427.442"/>
<polygon fill="#9a32cd" stroke="#9a32cd" points="1051.65,-394.752 1041.22,-396.574 1050.51,-401.658 1051.65,-394.752"/>
<text text-anchor="middle" x="1142" y="-425" font-family="Helvetica,sans-Serif" font-size="10.00"> myLines</text>
</g>
<!-- Node15&#45;&gt;Node8 -->
<g id="edge43" class="edge"><title>Node15&#45;&gt;Node8</title>
<path fill="none" stroke="#9a32cd" stroke-dasharray="5,2" d="M997.701,-246.562C982.772,-260.314 962.587,-281.105 950,-303 936.548,-326.4 952.446,-343.381 932,-361 858.494,-424.342 594.949,-413.033 498,-409 481.29,-408.305 462.986,-406.932 446.884,-405.517"/>
<polygon fill="#9a32cd" stroke="#9a32cd" points="1000.26,-248.966 1005.37,-239.684 995.591,-243.754 1000.26,-248.966"/>
<text text-anchor="middle" x="725" y="-416" font-family="Helvetica,sans-Serif" font-size="10.00"> mySidebar</text>
</g>
<!-- Node15&#45;&gt;Node9 -->
<g id="edge15" class="edge"><title>Node15&#45;&gt;Node9</title>
<path fill="none" stroke="#9a32cd" stroke-dasharray="5,2" d="M1042.27,-245.168C1075.03,-267.136 1135.69,-310.115 1180,-355 1203.32,-378.623 1225.48,-411.206 1235.86,-427.259"/>
<polygon fill="#9a32cd" stroke="#9a32cd" points="1044.08,-242.164 1033.81,-239.545 1040.2,-247.995 1044.08,-242.164"/>
<text text-anchor="middle" x="1142" y="-358" font-family="Helvetica,sans-Serif" font-size="10.00"> mySidebar</text>
</g>
<!-- Node26 -->
<g id="node26" class="node"><title>Node26</title>
<g id="a_node26"><a xlink:href="../../da/dc8/classview_1_1_editor.html" target="_top" xlink:title="view.Editor">
<polygon fill="white" stroke="black" points="1209.5,-182.5 1209.5,-201.5 1276.5,-201.5 1276.5,-182.5 1209.5,-182.5"/>
<text text-anchor="middle" x="1243" y="-189.5" font-family="Helvetica,sans-Serif" font-size="10.00">view.Editor</text>
</a>
</g>
</g>
<!-- Node15&#45;&gt;Node26 -->
<g id="edge36" class="edge"><title>Node15&#45;&gt;Node26</title>
<path fill="none" stroke="#9a32cd" stroke-dasharray="5,2" d="M1066.52,-223.292C1098.63,-218.594 1141.96,-211.937 1180,-205 1189.52,-203.264 1199.82,-201.185 1209.24,-199.205"/>
<polygon fill="#9a32cd" stroke="#9a32cd" points="1065.9,-219.845 1056.51,-224.747 1066.9,-226.773 1065.9,-219.845"/>
<text text-anchor="middle" x="1142" y="-221" font-family="Helvetica,sans-Serif" font-size="10.00"> mySidebar</text>
</g>
<!-- Node16 -->
<g id="node16" class="node"><title>Node16</title>
<polygon fill="white" stroke="#bfbfbf" points="704.5,-125.5 704.5,-144.5 745.5,-144.5 745.5,-125.5 704.5,-125.5"/>
<text text-anchor="middle" x="725" y="-132.5" font-family="Helvetica,sans-Serif" font-size="10.00">VBox</text>
</g>
<!-- Node16&#45;&gt;Node15 -->
<g id="edge16" class="edge"><title>Node16&#45;&gt;Node15</title>
<path fill="none" stroke="midnightblue" d="M755.726,-131.153C799.248,-127.215 880.694,-126.495 932,-167 948.583,-180.092 934.247,-196.919 950,-211 958.113,-218.252 968.802,-222.753 979.254,-225.541"/>
<polygon fill="midnightblue" stroke="midnightblue" points="755.365,-127.671 745.773,-132.171 756.077,-134.635 755.365,-127.671"/>
</g>
<!-- Node17 -->
<g id="node17" class="node"><title>Node17</title>
<polygon fill="white" stroke="#bfbfbf" points="638.5,-87.5 638.5,-106.5 811.5,-106.5 811.5,-87.5 638.5,-87.5"/>
<text text-anchor="middle" x="725" y="-94.5" font-family="Helvetica,sans-Serif" font-size="10.00">ObservableList&lt; view.Property &gt;</text>
</g>
<!-- Node17&#45;&gt;Node15 -->
<g id="edge17" class="edge"><title>Node17&#45;&gt;Node15</title>
<path fill="none" stroke="#9a32cd" stroke-dasharray="5,2" d="M821.889,-101.145C871.488,-104.204 923.46,-109.215 932,-117 963.435,-145.657 921.26,-179.641 950,-211 957.597,-219.29 968.517,-224.064 979.342,-226.783"/>
<polygon fill="#9a32cd" stroke="#9a32cd" points="821.876,-97.6378 811.687,-100.54 821.462,-104.626 821.876,-97.6378"/>
<text text-anchor="middle" x="881" y="-120" font-family="Helvetica,sans-Serif" font-size="10.00"> variablesList</text>
</g>
<!-- Node18 -->
<g id="node18" class="node"><title>Node18</title>
<polygon fill="white" stroke="#bfbfbf" points="40.5,-308.5 40.5,-327.5 133.5,-327.5 133.5,-308.5 40.5,-308.5"/>
<text text-anchor="middle" x="87" y="-315.5" font-family="Helvetica,sans-Serif" font-size="10.00">ResourceBundle</text>
</g>
<!-- Node18&#45;&gt;Node8 -->
<g id="edge30" class="edge"><title>Node18&#45;&gt;Node8</title>
<path fill="none" stroke="#9a32cd" stroke-dasharray="5,2" d="M143.541,-327.329C187.53,-335.315 250.298,-348.042 304,-364 330.025,-371.734 358.989,-383.328 378.227,-391.471"/>
<polygon fill="#9a32cd" stroke="#9a32cd" points="144.077,-323.869 133.616,-325.55 142.842,-330.76 144.077,-323.869"/>
<text text-anchor="middle" x="248" y="-367" font-family="Helvetica,sans-Serif" font-size="10.00"> myResources</text>
</g>
<!-- Node18&#45;&gt;Node15 -->
<g id="edge18" class="edge"><title>Node18&#45;&gt;Node15</title>
<path fill="none" stroke="#9a32cd" stroke-dasharray="5,2" d="M144.009,-314.643C222.95,-309.93 371.447,-301.13 498,-294 637.539,-286.139 673.274,-293.971 812,-277 865.902,-270.406 879.154,-266.501 932,-254 949.907,-249.764 969.702,-244.226 985.682,-239.537"/>
<polygon fill="#9a32cd" stroke="#9a32cd" points="143.579,-311.163 133.805,-315.253 143.996,-318.15 143.579,-311.163"/>
<text text-anchor="middle" x="559" y="-297" font-family="Helvetica,sans-Serif" font-size="10.00"> myResources</text>
</g>
<!-- Node19 -->
<g id="node19" class="node"><title>Node19</title>
<polygon fill="white" stroke="#bfbfbf" points="651,-324.5 651,-343.5 799,-343.5 799,-324.5 651,-324.5"/>
<text text-anchor="middle" x="725" y="-331.5" font-family="Helvetica,sans-Serif" font-size="10.00">TableView&lt; view.Property &gt;</text>
</g>
<!-- Node19&#45;&gt;Node15 -->
<g id="edge20" class="edge"><title>Node19&#45;&gt;Node15</title>
<path fill="none" stroke="#9a32cd" stroke-dasharray="5,2" d="M809.343,-336.134C848.189,-334.215 894.092,-327.64 932,-310 967.093,-293.67 997.136,-257.175 1010.13,-239.695"/>
<polygon fill="#9a32cd" stroke="#9a32cd" points="808.962,-332.646 799.109,-336.541 809.24,-339.641 808.962,-332.646"/>
<text text-anchor="middle" x="881" y="-349" font-family="Helvetica,sans-Serif" font-size="10.00"> turtlePropertiesTable</text>
<text text-anchor="middle" x="881" y="-338" font-family="Helvetica,sans-Serif" font-size="10.00">variablesTable</text>
</g>
<!-- Node20&#45;&gt;Node8 -->
<g id="edge38" class="edge"><title>Node20&#45;&gt;Node8</title>
<path fill="none" stroke="#9a32cd" stroke-dasharray="5,2" d="M674.88,-59.2315C661.028,-61.8238 647.232,-67.2772 638,-78 599.777,-122.393 659.255,-297.517 620,-341 583.132,-381.84 550.905,-346.892 498,-362 470.842,-369.756 440.888,-382.667 421.782,-391.493"/>
<polygon fill="#9a32cd" stroke="#9a32cd" points="675.501,-62.6787 684.913,-57.815 674.522,-55.7474 675.501,-62.6787"/>
<text text-anchor="middle" x="559" y="-365" font-family="Helvetica,sans-Serif" font-size="10.00"> myParser</text>
</g>
<!-- Node20&#45;&gt;Node15 -->
<g id="edge21" class="edge"><title>Node20&#45;&gt;Node15</title>
<path fill="none" stroke="#9a32cd" stroke-dasharray="5,2" d="M775.204,-62.6006C832.582,-67.2719 921.026,-76.1252 932,-87 971.556,-126.199 913.309,-169.108 950,-211 957.488,-219.55 968.511,-224.382 979.462,-227.075"/>
<polygon fill="#9a32cd" stroke="#9a32cd" points="775.475,-59.1112 765.229,-61.8049 774.919,-66.0891 775.475,-59.1112"/>
<text text-anchor="middle" x="881" y="-90" font-family="Helvetica,sans-Serif" font-size="10.00"> myParser</text>
</g>
<!-- Node20&#45;&gt;Node26 -->
<g id="edge34" class="edge"><title>Node20&#45;&gt;Node26</title>
<path fill="none" stroke="#9a32cd" stroke-dasharray="5,2" d="M775.564,-57.7113C845.707,-57.0096 977.48,-59.8369 1086,-86 1129.04,-96.3775 1148.94,-87.4436 1180,-119 1197.75,-137.03 1180.9,-154.36 1198,-173 1201.49,-176.801 1205.87,-179.875 1210.5,-182.352"/>
<polygon fill="#9a32cd" stroke="#9a32cd" points="775.215,-54.2154 765.261,-57.8446 775.305,-61.2148 775.215,-54.2154"/>
<text text-anchor="middle" x="1018" y="-89" font-family="Helvetica,sans-Serif" font-size="10.00"> myParser</text>
</g>
<!-- Node21 -->
<g id="node21" class="node"><title>Node21</title>
<polygon fill="white" stroke="#bfbfbf" points="345,-0 345,-30 457,-30 457,-0 345,-0"/>
<text text-anchor="start" x="353" y="-18" font-family="Helvetica,sans-Serif" font-size="10.00">List&lt; Entry&lt; String,</text>
<text text-anchor="middle" x="401" y="-7" font-family="Helvetica,sans-Serif" font-size="10.00"> Pattern &gt; &gt;</text>
</g>
<!-- Node21&#45;&gt;Node20 -->
<g id="edge23" class="edge"><title>Node21&#45;&gt;Node20</title>
<path fill="none" stroke="#9a32cd" stroke-dasharray="5,2" d="M467.248,-23.4893C510.575,-29.1735 568.707,-36.8896 620,-44 641.503,-46.9808 665.487,-50.4316 684.999,-53.2713"/>
<polygon fill="#9a32cd" stroke="#9a32cd" points="467.494,-19.9917 457.124,-22.1627 466.584,-26.9324 467.494,-19.9917"/>
<text text-anchor="middle" x="559" y="-47" font-family="Helvetica,sans-Serif" font-size="10.00"> myPatterns</text>
</g>
<!-- Node22 -->
<g id="node22" class="node"><title>Node22</title>
<polygon fill="white" stroke="#bfbfbf" points="340,-49.5 340,-68.5 462,-68.5 462,-49.5 340,-49.5"/>
<text text-anchor="middle" x="401" y="-56.5" font-family="Helvetica,sans-Serif" font-size="10.00">Map&lt; String, String &gt;</text>
</g>
<!-- Node22&#45;&gt;Node20 -->
<g id="edge25" class="edge"><title>Node22&#45;&gt;Node20</title>
<path fill="none" stroke="#9a32cd" stroke-dasharray="5,2" d="M472.39,-59C537.597,-59 632.209,-59 684.877,-59"/>
<polygon fill="#9a32cd" stroke="#9a32cd" points="472.188,-55.5001 462.188,-59 472.188,-62.5001 472.188,-55.5001"/>
<text text-anchor="middle" x="559" y="-62" font-family="Helvetica,sans-Serif" font-size="10.00"> myCommandMap</text>
</g>
<!-- Node23 -->
<g id="node23" class="node"><title>Node23</title>
<polygon fill="white" stroke="#bfbfbf" points="656,-210.5 656,-229.5 794,-229.5 794,-210.5 656,-210.5"/>
<text text-anchor="middle" x="725" y="-217.5" font-family="Helvetica,sans-Serif" font-size="10.00">ObservableList&lt; String &gt;</text>
</g>
<!-- Node23&#45;&gt;Node15 -->
<g id="edge27" class="edge"><title>Node23&#45;&gt;Node15</title>
<path fill="none" stroke="#9a32cd" stroke-dasharray="5,2" d="M804.256,-222.689C861.048,-224.641 935.361,-227.195 979.45,-228.71"/>
<polygon fill="#9a32cd" stroke="#9a32cd" points="804.341,-219.19 794.227,-222.345 804.1,-226.186 804.341,-219.19"/>
<text text-anchor="middle" x="881" y="-242" font-family="Helvetica,sans-Serif" font-size="10.00"> commandItems</text>
<text text-anchor="middle" x="881" y="-231" font-family="Helvetica,sans-Serif" font-size="10.00">historyItems</text>
</g>
<!-- Node24 -->
<g id="node24" class="node"><title>Node24</title>
<polygon fill="white" stroke="#bfbfbf" points="986.5,-509.5 986.5,-528.5 1049.5,-528.5 1049.5,-509.5 986.5,-509.5"/>
<text text-anchor="middle" x="1018" y="-516.5" font-family="Helvetica,sans-Serif" font-size="10.00">Rectangle</text>
</g>
<!-- Node24&#45;&gt;Node9 -->
<g id="edge28" class="edge"><title>Node24&#45;&gt;Node9</title>
<path fill="none" stroke="#9a32cd" stroke-dasharray="5,2" d="M1059.54,-510.38C1092.68,-502.637 1140.38,-489.888 1180,-473 1197.18,-465.68 1215.51,-454.578 1227.75,-446.64"/>
<polygon fill="#9a32cd" stroke="#9a32cd" points="1058.71,-506.979 1049.74,-512.622 1060.27,-513.803 1058.71,-506.979"/>
<text text-anchor="middle" x="1142" y="-501" font-family="Helvetica,sans-Serif" font-size="10.00"> myBackground</text>
</g>
<!-- Node25 -->
<g id="node25" class="node"><title>Node25</title>
<polygon fill="white" stroke="#bfbfbf" points="64.5,-436.5 64.5,-455.5 109.5,-455.5 109.5,-436.5 64.5,-436.5"/>
<text text-anchor="middle" x="87" y="-443.5" font-family="Helvetica,sans-Serif" font-size="10.00">Stage</text>
</g>
<!-- Node25&#45;&gt;Node8 -->
<g id="edge29" class="edge"><title>Node25&#45;&gt;Node8</title>
<path fill="none" stroke="#9a32cd" stroke-dasharray="5,2" d="M119.758,-443.228C161.983,-439.337 238.864,-431.532 304,-421 321.815,-418.119 341.335,-414.195 358.095,-410.586"/>
<polygon fill="#9a32cd" stroke="#9a32cd" points="119.192,-439.765 109.549,-444.155 119.825,-446.736 119.192,-439.765"/>
<text text-anchor="middle" x="248" y="-438" font-family="Helvetica,sans-Serif" font-size="10.00"> myStage</text>
</g>
<!-- Node26&#45;&gt;Node8 -->
<g id="edge31" class="edge"><title>Node26&#45;&gt;Node8</title>
<path fill="none" stroke="#9a32cd" stroke-dasharray="5,2" d="M1236.98,-211.354C1229.29,-236.849 1212,-281.017 1180,-303 1094.88,-361.477 1028.57,-268.985 950,-336 929.464,-353.515 951.321,-375.153 932,-394 892.32,-432.707 866.905,-420.372 812,-428 673.766,-447.205 636.326,-443.535 498,-425 475.864,-422.034 451.454,-415.891 432.788,-410.563"/>
<polygon fill="#9a32cd" stroke="#9a32cd" points="1240.36,-212.265 1239.71,-201.69 1233.63,-210.366 1240.36,-212.265"/>
<text text-anchor="middle" x="881" y="-428" font-family="Helvetica,sans-Serif" font-size="10.00"> myEditor</text>
</g>
<!-- Node27 -->
<g id="node27" class="node"><title>Node27</title>
<polygon fill="white" stroke="#bfbfbf" points="997,-182.5 997,-201.5 1039,-201.5 1039,-182.5 997,-182.5"/>
<text text-anchor="middle" x="1018" y="-189.5" font-family="Helvetica,sans-Serif" font-size="10.00">HBox</text>
</g>
<!-- Node27&#45;&gt;Node26 -->
<g id="edge32" class="edge"><title>Node27&#45;&gt;Node26</title>
<path fill="none" stroke="midnightblue" d="M1049.3,-192C1091.09,-192 1166.12,-192 1209.19,-192"/>
<polygon fill="midnightblue" stroke="midnightblue" points="1049.18,-188.5 1039.18,-192 1049.18,-195.5 1049.18,-188.5"/>
</g>
<!-- Node28 -->
<g id="node28" class="node"><title>Node28</title>
<polygon fill="white" stroke="#bfbfbf" points="993.5,-106.5 993.5,-125.5 1042.5,-125.5 1042.5,-106.5 993.5,-106.5"/>
<text text-anchor="middle" x="1018" y="-113.5" font-family="Helvetica,sans-Serif" font-size="10.00">Button</text>
</g>
<!-- Node28&#45;&gt;Node26 -->
<g id="edge33" class="edge"><title>Node28&#45;&gt;Node26</title>
<path fill="none" stroke="#9a32cd" stroke-dasharray="5,2" d="M1052.73,-116.508C1087.14,-118.466 1140.89,-125.621 1180,-150 1191.02,-156.867 1187.72,-165.07 1198,-173 1202.74,-176.66 1208.3,-179.764 1213.83,-182.335"/>
<polygon fill="#9a32cd" stroke="#9a32cd" points="1052.86,-113.01 1042.71,-116.054 1052.54,-120.003 1052.86,-113.01"/>
<text text-anchor="middle" x="1142" y="-153" font-family="Helvetica,sans-Serif" font-size="10.00"> runButton</text>
</g>
<!-- Node29 -->
<g id="node29" class="node"><title>Node29</title>
<polygon fill="white" stroke="#bfbfbf" points="989,-144.5 989,-163.5 1047,-163.5 1047,-144.5 989,-144.5"/>
<text text-anchor="middle" x="1018" y="-151.5" font-family="Helvetica,sans-Serif" font-size="10.00">TextArea</text>
</g>
<!-- Node29&#45;&gt;Node26 -->
<g id="edge35" class="edge"><title>Node29&#45;&gt;Node26</title>
<path fill="none" stroke="#9a32cd" stroke-dasharray="5,2" d="M1057.11,-158.402C1089.84,-162.432 1138.21,-168.98 1180,-177 1189.57,-178.837 1199.89,-181.184 1209.31,-183.472"/>
<polygon fill="#9a32cd" stroke="#9a32cd" points="1057.41,-154.913 1047.06,-157.184 1056.56,-161.862 1057.41,-154.913"/>
<text text-anchor="middle" x="1142" y="-180" font-family="Helvetica,sans-Serif" font-size="10.00"> textEditor</text>
</g>
<!-- Node30 -->
<g id="node30" class="node"><title>Node30</title>
<polygon fill="white" stroke="#bfbfbf" points="27.5,-398.5 27.5,-417.5 146.5,-417.5 146.5,-398.5 27.5,-398.5"/>
<text text-anchor="middle" x="87" y="-405.5" font-family="Helvetica,sans-Serif" font-size="10.00">Map&lt; String, Node &gt;</text>
</g>
<!-- Node30&#45;&gt;Node8 -->
<g id="edge37" class="edge"><title>Node30&#45;&gt;Node8</title>
<path fill="none" stroke="#9a32cd" stroke-dasharray="5,2" d="M156.899,-406.454C217.301,-405.099 303.343,-403.169 355.212,-402.005"/>
<polygon fill="#9a32cd" stroke="#9a32cd" points="156.604,-402.96 146.685,-406.683 156.761,-409.958 156.604,-402.96"/>
<text text-anchor="middle" x="248" y="-409" font-family="Helvetica,sans-Serif" font-size="10.00"> variables</text>
</g>
<!-- Node31 -->
<g id="node31" class="node"><title>Node31</title>
<polygon fill="white" stroke="#bfbfbf" points="46.5,-360.5 46.5,-379.5 127.5,-379.5 127.5,-360.5 46.5,-360.5"/>
<text text-anchor="middle" x="87" y="-367.5" font-family="Helvetica,sans-Serif" font-size="10.00">Dimension2D</text>
</g>
<!-- Node31&#45;&gt;Node8 -->
<g id="edge39" class="edge"><title>Node31&#45;&gt;Node8</title>
<path fill="none" stroke="#9a32cd" stroke-dasharray="5,2" d="M137.958,-373.873C181.769,-377.393 247.166,-382.95 304,-389 320.702,-390.778 339.004,-392.998 355.107,-395.043"/>
<polygon fill="#9a32cd" stroke="#9a32cd" points="138.1,-370.373 127.853,-373.066 137.543,-377.351 138.1,-370.373"/>
<text text-anchor="middle" x="248" y="-392" font-family="Helvetica,sans-Serif" font-size="10.00"> myDimensions</text>
</g>
<!-- Node32&#45;&gt;Node8 -->
<g id="edge40" class="edge"><title>Node32&#45;&gt;Node8</title>
<path fill="none" stroke="#9a32cd" stroke-dasharray="5,2" d="M1420.42,-455.883C1396.85,-499.393 1331.54,-603 1244,-603 724,-603 724,-603 724,-603 577.497,-603 442.937,-451.093 409.778,-410.743"/>
<polygon fill="#9a32cd" stroke="#9a32cd" points="1423.59,-457.366 1425.16,-446.887 1417.4,-454.103 1423.59,-457.366"/>
<text text-anchor="middle" x="1018" y="-606" font-family="Helvetica,sans-Serif" font-size="10.00"> drawer</text>
</g>
<!-- Node33 -->
<g id="node33" class="node"><title>Node33</title>
<polygon fill="white" stroke="#bfbfbf" points="1222.5,-144.5 1222.5,-163.5 1263.5,-163.5 1263.5,-144.5 1222.5,-144.5"/>
<text text-anchor="middle" x="1243" y="-151.5" font-family="Helvetica,sans-Serif" font-size="10.00">Color</text>
</g>
<!-- Node33&#45;&gt;Node32 -->
<g id="edge42" class="edge"><title>Node33&#45;&gt;Node32</title>
<path fill="none" stroke="#9a32cd" stroke-dasharray="5,2" d="M1273.13,-163.279C1278.47,-165.857 1283.71,-169.062 1288,-173 1372.36,-250.411 1416.6,-389.742 1427.37,-427.399"/>
<polygon fill="#9a32cd" stroke="#9a32cd" points="1274.16,-159.915 1263.59,-159.291 1271.46,-166.375 1274.16,-159.915"/>
<text text-anchor="middle" x="1341" y="-294" font-family="Helvetica,sans-Serif" font-size="10.00"> myColor</text>
</g>
</g>
</svg>
