<?xml version="1.0" encoding="UTF-8" standalone="no"?>
<!DOCTYPE svg PUBLIC "-//W3C//DTD SVG 1.1//EN"
 "http://www.w3.org/Graphics/SVG/1.1/DTD/svg11.dtd">
<!-- Generated by graphviz version 2.36.0 (20140111.2315)
 -->
<!-- Title: model.instructions.Instruction Pages: 1 -->
<svg width="1696pt" height="841pt"
 viewBox="0.00 0.00 1696.00 840.64" xmlns="http://www.w3.org/2000/svg" xmlns:xlink="http://www.w3.org/1999/xlink">
<g id="graph0" class="graph" transform="scale(1 1) rotate(0) translate(4 836.644)">
<title>model.instructions.Instruction</title>
<polygon fill="white" stroke="none" points="-4,4 -4,-836.644 1692,-836.644 1692,4 -4,4"/>
<!-- Node1 -->
<g id="node1" class="node"><title>Node1</title>
<polygon fill="#bfbfbf" stroke="black" points="866,-366.144 866,-385.144 1024,-385.144 1024,-366.144 866,-366.144"/>
<text text-anchor="middle" x="945" y="-373.144" font-family="Helvetica,sans-Serif" font-size="10.00">model.instructions.Instruction</text>
</g>
<!-- Node2 -->
<g id="node2" class="node"><title>Node2</title>
<polygon fill="white" stroke="#bfbfbf" points="371,-249.144 371,-268.144 431,-268.144 431,-249.144 371,-249.144"/>
<text text-anchor="middle" x="401" y="-256.144" font-family="Helvetica,sans-Serif" font-size="10.00">Observer</text>
</g>
<!-- Node2&#45;&gt;Node1 -->
<g id="edge1" class="edge"><title>Node2&#45;&gt;Node1</title>
<path fill="none" stroke="midnightblue" d="M441.495,-255.82C543.487,-248.919 809.846,-233.525 840,-258.644 874.025,-286.989 827.252,-324.775 858,-356.644 861.61,-360.385 865.778,-363.468 870.292,-366.001"/>
<polygon fill="midnightblue" stroke="midnightblue" points="441.039,-252.343 431.302,-256.519 441.517,-259.327 441.039,-252.343"/>
</g>
<!-- Node9 -->
<g id="node9" class="node"><title>Node9</title>
<g id="a_node9"><a xlink:href="../../d6/de7/classview_1_1_s_logo_view.html" target="_top" xlink:title="view.SLogoView">
<polygon fill="white" stroke="black" points="618.5,-341.144 618.5,-360.144 709.5,-360.144 709.5,-341.144 618.5,-341.144"/>
<text text-anchor="middle" x="664" y="-348.144" font-family="Helvetica,sans-Serif" font-size="10.00">view.SLogoView</text>
</a>
</g>
</g>
<!-- Node2&#45;&gt;Node9 -->
<g id="edge9" class="edge"><title>Node2&#45;&gt;Node9</title>
<path fill="none" stroke="midnightblue" d="M428.981,-272.72C447.949,-282.259 474.107,-294.708 498,-303.644 539.707,-319.244 588.973,-332.652 622.745,-341.109"/>
<polygon fill="midnightblue" stroke="midnightblue" points="430.528,-269.58 420.028,-268.165 427.354,-275.819 430.528,-269.58"/>
</g>
<!-- Node21 -->
<g id="node21" class="node"><title>Node21</title>
<g id="a_node21"><a xlink:href="../../dc/df5/classmodel_1_1_parser.html" target="_top" xlink:title="model.Parser">
<polygon fill="white" stroke="black" points="905,-136.144 905,-155.144 985,-155.144 985,-136.144 905,-136.144"/>
<text text-anchor="middle" x="945" y="-143.144" font-family="Helvetica,sans-Serif" font-size="10.00">model.Parser</text>
</a>
</g>
</g>
<!-- Node2&#45;&gt;Node21 -->
<g id="edge24" class="edge"><title>Node2&#45;&gt;Node21</title>
<path fill="none" stroke="midnightblue" d="M437.721,-245.559C476.295,-231.867 539.783,-210.599 596,-197.644 706.572,-172.164 839.898,-156.283 904.745,-149.486"/>
<polygon fill="midnightblue" stroke="midnightblue" points="436.236,-242.373 427.999,-249.037 438.594,-248.964 436.236,-242.373"/>
</g>
<!-- Node3 -->
<g id="node3" class="node"><title>Node3</title>
<g id="a_node3"><a xlink:href="../../d1/dca/classmodel_1_1_execution_environment.html" target="_top" xlink:title="model.ExecutionEnvironment">
<polygon fill="white" stroke="black" points="322.5,-142.144 322.5,-161.144 479.5,-161.144 479.5,-142.144 322.5,-142.144"/>
<text text-anchor="middle" x="401" y="-149.144" font-family="Helvetica,sans-Serif" font-size="10.00">model.ExecutionEnvironment</text>
</a>
</g>
</g>
<!-- Node3&#45;&gt;Node1 -->
<g id="edge2" class="edge"><title>Node3&#45;&gt;Node1</title>
<path fill="none" stroke="#9a32cd" stroke-dasharray="5,2" d="M479.402,-162.686C598.413,-180.377 815.272,-215.715 840,-241.644 875.704,-279.082 822.574,-318.944 858,-356.644 861.56,-360.433 865.691,-363.55 870.18,-366.108"/>
<polygon fill="#9a32cd" stroke="#9a32cd" points="479.657,-159.186 469.252,-161.185 478.632,-166.11 479.657,-159.186"/>
<text text-anchor="middle" x="664" y="-209.644" font-family="Helvetica,sans-Serif" font-size="10.00"> myEnvironment</text>
</g>
<!-- Node3&#45;&gt;Node9 -->
<g id="edge40" class="edge"><title>Node3&#45;&gt;Node9</title>
<path fill="none" stroke="#9a32cd" stroke-dasharray="5,2" d="M420.294,-168.132C439.31,-185.064 470.135,-211.935 498,-233.644 505.254,-239.296 611.138,-314.054 649.364,-341.025"/>
<polygon fill="#9a32cd" stroke="#9a32cd" points="422.462,-165.375 412.675,-161.317 417.795,-170.593 422.462,-165.375"/>
<text text-anchor="middle" x="538" y="-291.644" font-family="Helvetica,sans-Serif" font-size="10.00"> myEnvironment</text>
</g>
<!-- Node17 -->
<g id="node17" class="node"><title>Node17</title>
<g id="a_node17"><a xlink:href="../../d1/dc7/classview_1_1_side_bar.html" target="_top" xlink:title="view.SideBar">
<polygon fill="white" stroke="black" points="1199.5,-428.144 1199.5,-447.144 1276.5,-447.144 1276.5,-428.144 1199.5,-428.144"/>
<text text-anchor="middle" x="1238" y="-435.144" font-family="Helvetica,sans-Serif" font-size="10.00">view.SideBar</text>
</a>
</g>
</g>
<!-- Node3&#45;&gt;Node17 -->
<g id="edge21" class="edge"><title>Node3&#45;&gt;Node17</title>
<path fill="none" stroke="#9a32cd" stroke-dasharray="5,2" d="M418.818,-134.835C450.293,-104.711 521.662,-42.5363 596,-19.6442 699.655,12.276 734.317,0.736518 840,-23.6442 987.745,-57.7283 1062.19,-39.4758 1152,-161.644 1172.93,-190.117 1159.05,-286.044 1170,-319.644 1184.16,-363.099 1215.33,-408.458 1229.6,-427.879"/>
<polygon fill="#9a32cd" stroke="#9a32cd" points="416.087,-132.61 411.362,-142.093 420.969,-137.626 416.087,-132.61"/>
<text text-anchor="middle" x="795" y="-26.6442" font-family="Helvetica,sans-Serif" font-size="10.00"> myEnvironment</text>
</g>
<!-- Node3&#45;&gt;Node21 -->
<g id="edge26" class="edge"><title>Node3&#45;&gt;Node21</title>
<path fill="none" stroke="#9a32cd" stroke-dasharray="5,2" d="M435.244,-138.469C473.355,-124.132 538.047,-102.122 596,-93.6442 655.808,-84.8951 671.992,-86.3922 732,-93.6442 798.592,-101.692 874.445,-123.469 914.919,-136.144"/>
<polygon fill="#9a32cd" stroke="#9a32cd" points="433.783,-135.28 425.687,-142.113 436.278,-141.82 433.783,-135.28"/>
<text text-anchor="middle" x="664" y="-96.6442" font-family="Helvetica,sans-Serif" font-size="10.00"> myExecutionParameters</text>
</g>
<!-- Node4 -->
<g id="node4" class="node"><title>Node4</title>
<polygon fill="white" stroke="#bfbfbf" points="51.5,-202.144 51.5,-221.144 122.5,-221.144 122.5,-202.144 51.5,-202.144"/>
<text text-anchor="middle" x="87" y="-209.144" font-family="Helvetica,sans-Serif" font-size="10.00">Observable</text>
</g>
<!-- Node4&#45;&gt;Node3 -->
<g id="edge3" class="edge"><title>Node4&#45;&gt;Node3</title>
<path fill="none" stroke="midnightblue" d="M132.717,-211.795C176.879,-210.995 246.026,-207.181 304,-192.644 332.478,-185.503 363.357,-170.982 382.194,-161.28"/>
<polygon fill="midnightblue" stroke="midnightblue" points="132.548,-208.297 122.596,-211.933 132.643,-215.296 132.548,-208.297"/>
</g>
<!-- Node5 -->
<g id="node5" class="node"><title>Node5</title>
<polygon fill="white" stroke="#bfbfbf" points="42.5,-164.144 42.5,-183.144 131.5,-183.144 131.5,-164.144 42.5,-164.144"/>
<text text-anchor="middle" x="87" y="-171.144" font-family="Helvetica,sans-Serif" font-size="10.00">Set&lt; Integer &gt;</text>
</g>
<!-- Node5&#45;&gt;Node3 -->
<g id="edge4" class="edge"><title>Node5&#45;&gt;Node3</title>
<path fill="none" stroke="#9a32cd" stroke-dasharray="5,2" d="M141.939,-169.841C191.701,-166.332 266.155,-161.082 322.32,-157.122"/>
<polygon fill="#9a32cd" stroke="#9a32cd" points="141.44,-166.367 131.711,-170.562 141.932,-173.35 141.44,-166.367"/>
<text text-anchor="middle" x="248" y="-180.644" font-family="Helvetica,sans-Serif" font-size="10.00"> myTurtleList</text>
<text text-anchor="middle" x="248" y="-169.644" font-family="Helvetica,sans-Serif" font-size="10.00">activeTurtleList</text>
</g>
<!-- Node6 -->
<g id="node6" class="node"><title>Node6</title>
<polygon fill="white" stroke="#bfbfbf" points="0,-114.644 0,-144.644 174,-144.644 174,-114.644 0,-114.644"/>
<text text-anchor="start" x="8" y="-132.644" font-family="Helvetica,sans-Serif" font-size="10.00">Map&lt; String, model.instructions.</text>
<text text-anchor="middle" x="87" y="-121.644" font-family="Helvetica,sans-Serif" font-size="10.00">Instruction &gt;</text>
</g>
<!-- Node6&#45;&gt;Node3 -->
<g id="edge5" class="edge"><title>Node6&#45;&gt;Node3</title>
<path fill="none" stroke="#9a32cd" stroke-dasharray="5,2" d="M184.559,-136.278C221.877,-138.861 264.929,-141.863 304,-144.644 310.001,-145.071 316.212,-145.517 322.456,-145.967"/>
<polygon fill="#9a32cd" stroke="#9a32cd" points="184.411,-132.76 174.193,-135.561 183.928,-139.743 184.411,-132.76"/>
<text text-anchor="middle" x="248" y="-147.644" font-family="Helvetica,sans-Serif" font-size="10.00"> myUserInstructionMap</text>
</g>
<!-- Node7 -->
<g id="node7" class="node"><title>Node7</title>
<polygon fill="white" stroke="#bfbfbf" points="23,-76.1442 23,-95.1442 151,-95.1442 151,-76.1442 23,-76.1442"/>
<text text-anchor="middle" x="87" y="-83.1442" font-family="Helvetica,sans-Serif" font-size="10.00">Map&lt; String, Double &gt;</text>
</g>
<!-- Node7&#45;&gt;Node3 -->
<g id="edge6" class="edge"><title>Node7&#45;&gt;Node3</title>
<path fill="none" stroke="#9a32cd" stroke-dasharray="5,2" d="M161.414,-95.9116C203.421,-102.361 256.961,-111.555 304,-122.644 327.047,-128.077 352.7,-135.922 371.686,-142.083"/>
<polygon fill="#9a32cd" stroke="#9a32cd" points="161.68,-92.4121 151.268,-94.3727 160.63,-99.3329 161.68,-92.4121"/>
<text text-anchor="middle" x="248" y="-125.644" font-family="Helvetica,sans-Serif" font-size="10.00"> myVariableMap</text>
</g>
<!-- Node8 -->
<g id="node8" class="node"><title>Node8</title>
<polygon fill="white" stroke="#bfbfbf" points="596,-380.644 596,-410.644 732,-410.644 732,-380.644 596,-380.644"/>
<text text-anchor="start" x="604" y="-398.644" font-family="Helvetica,sans-Serif" font-size="10.00">List&lt; model.instructions.</text>
<text text-anchor="middle" x="664" y="-387.644" font-family="Helvetica,sans-Serif" font-size="10.00">Instruction &gt;</text>
</g>
<!-- Node8&#45;&gt;Node1 -->
<g id="edge7" class="edge"><title>Node8&#45;&gt;Node1</title>
<path fill="none" stroke="#9a32cd" stroke-dasharray="5,2" d="M742.295,-390.103C780.77,-387.345 827.183,-384.018 865.782,-381.251"/>
<polygon fill="#9a32cd" stroke="#9a32cd" points="741.907,-386.622 732.182,-390.828 742.407,-393.604 741.907,-386.622"/>
<text text-anchor="middle" x="795" y="-392.644" font-family="Helvetica,sans-Serif" font-size="10.00"> myDependencies</text>
</g>
<!-- Node9&#45;&gt;Node1 -->
<g id="edge8" class="edge"><title>Node9&#45;&gt;Node1</title>
<path fill="none" stroke="#9a32cd" stroke-dasharray="5,2" d="M719.48,-355.526C761.17,-359.262 819.238,-364.465 865.875,-368.644"/>
<polygon fill="#9a32cd" stroke="#9a32cd" points="719.789,-352.04 709.517,-354.633 719.165,-359.012 719.789,-352.04"/>
<text text-anchor="middle" x="795" y="-369.644" font-family="Helvetica,sans-Serif" font-size="10.00"> myView</text>
</g>
<!-- Node9&#45;&gt;Node21 -->
<g id="edge28" class="edge"><title>Node9&#45;&gt;Node21</title>
<path fill="none" stroke="#9a32cd" stroke-dasharray="5,2" d="M676.191,-332.32C690.863,-309.477 718.47,-270.318 750,-244.644 802.925,-201.549 877.662,-170.008 917.141,-155.153"/>
<polygon fill="#9a32cd" stroke="#9a32cd" points="673.079,-330.695 670.721,-341.024 679.006,-334.419 673.079,-330.695"/>
<text text-anchor="middle" x="795" y="-247.644" font-family="Helvetica,sans-Serif" font-size="10.00"> mySLogoView</text>
</g>
<!-- Node10 -->
<g id="node10" class="node"><title>Node10</title>
<g id="a_node10"><a xlink:href="../../da/d64/classview_1_1_workspace.html" target="_top" xlink:title="view.Workspace">
<polygon fill="white" stroke="black" points="1418,-649.144 1418,-668.144 1508,-668.144 1508,-649.144 1418,-649.144"/>
<text text-anchor="middle" x="1463" y="-656.144" font-family="Helvetica,sans-Serif" font-size="10.00">view.Workspace</text>
</a>
</g>
</g>
<!-- Node10&#45;&gt;Node9 -->
<g id="edge10" class="edge"><title>Node10&#45;&gt;Node9</title>
<path fill="none" stroke="#9a32cd" stroke-dasharray="5,2" d="M1411.3,-646.938C1407.48,-646.136 1403.68,-645.362 1400,-644.644 1160.39,-597.961 1069.6,-677.373 858,-555.644 792.593,-518.017 786.547,-490.661 750,-424.644 737.747,-402.511 750.169,-388.247 732,-370.644 725.81,-364.647 717.9,-360.438 709.7,-357.487"/>
<polygon fill="#9a32cd" stroke="#9a32cd" points="1410.87,-650.427 1421.39,-649.111 1412.35,-643.583 1410.87,-650.427"/>
<text text-anchor="middle" x="1101" y="-630.644" font-family="Helvetica,sans-Serif" font-size="10.00"> myWorkspace</text>
</g>
<!-- Node33 -->
<g id="node33" class="node"><title>Node33</title>
<g id="a_node33"><a xlink:href="../../de/d0a/classview_1_1_drawer.html" target="_top" xlink:title="view.Drawer">
<polygon fill="white" stroke="black" points="1614.5,-296.144 1614.5,-315.144 1687.5,-315.144 1687.5,-296.144 1614.5,-296.144"/>
<text text-anchor="middle" x="1651" y="-303.144" font-family="Helvetica,sans-Serif" font-size="10.00">view.Drawer</text>
</a>
</g>
</g>
<!-- Node10&#45;&gt;Node33 -->
<g id="edge44" class="edge"><title>Node10&#45;&gt;Node33</title>
<path fill="none" stroke="#9a32cd" stroke-dasharray="5,2" d="M1473.96,-639.74C1508.12,-574.909 1619.8,-362.952 1644.94,-315.24"/>
<polygon fill="#9a32cd" stroke="#9a32cd" points="1470.73,-638.356 1469.17,-648.835 1476.93,-641.619 1470.73,-638.356"/>
<text text-anchor="middle" x="1561" y="-536.644" font-family="Helvetica,sans-Serif" font-size="10.00"> myWorkspace</text>
</g>
<!-- Node11 -->
<g id="node11" class="node"><title>Node11</title>
<polygon fill="white" stroke="#bfbfbf" points="1204.5,-775.144 1204.5,-794.144 1271.5,-794.144 1271.5,-775.144 1204.5,-775.144"/>
<text text-anchor="middle" x="1238" y="-782.144" font-family="Helvetica,sans-Serif" font-size="10.00">StackPane</text>
</g>
<!-- Node11&#45;&gt;Node10 -->
<g id="edge11" class="edge"><title>Node11&#45;&gt;Node10</title>
<path fill="none" stroke="midnightblue" d="M1281.96,-779.833C1316.31,-774.318 1364.44,-762.71 1400,-738.644 1427.51,-720.032 1448.19,-685.297 1457.13,-668.391"/>
<polygon fill="midnightblue" stroke="midnightblue" points="1281.14,-776.416 1271.77,-781.356 1282.18,-783.339 1281.14,-776.416"/>
</g>
<!-- Node12 -->
<g id="node12" class="node"><title>Node12</title>
<polygon fill="white" stroke="#bfbfbf" points="354.5,-603.144 354.5,-622.144 447.5,-622.144 447.5,-603.144 354.5,-603.144"/>
<text text-anchor="middle" x="401" y="-610.144" font-family="Helvetica,sans-Serif" font-size="10.00">ResourceBundle</text>
</g>
<!-- Node12&#45;&gt;Node9 -->
<g id="edge32" class="edge"><title>Node12&#45;&gt;Node9</title>
<path fill="none" stroke="#9a32cd" stroke-dasharray="5,2" d="M423.382,-596.705C460.386,-568.001 536.389,-503.931 578,-432.644 592.465,-407.864 575.787,-391.01 596,-370.644 602.157,-364.441 610.15,-360.145 618.46,-357.174"/>
<polygon fill="#9a32cd" stroke="#9a32cd" points="421.085,-594.055 415.272,-602.912 425.34,-599.614 421.085,-594.055"/>
<text text-anchor="middle" x="538" y="-531.644" font-family="Helvetica,sans-Serif" font-size="10.00"> myResources</text>
</g>
<!-- Node12&#45;&gt;Node10 -->
<g id="edge12" class="edge"><title>Node12&#45;&gt;Node10</title>
<path fill="none" stroke="#9a32cd" stroke-dasharray="5,2" d="M444.376,-624.805C495.68,-638.434 584.925,-658.644 663,-658.644 663,-658.644 663,-658.644 1239,-658.644 1301.14,-658.644 1373.02,-658.644 1418,-658.644"/>
<polygon fill="#9a32cd" stroke="#9a32cd" points="445.202,-621.403 434.636,-622.175 443.377,-628.161 445.202,-621.403"/>
<text text-anchor="middle" x="945" y="-661.644" font-family="Helvetica,sans-Serif" font-size="10.00"> myResources</text>
</g>
<!-- Node12&#45;&gt;Node17 -->
<g id="edge20" class="edge"><title>Node12&#45;&gt;Node17</title>
<path fill="none" stroke="#9a32cd" stroke-dasharray="5,2" d="M457.654,-612.704C610.419,-611.999 1032.8,-603.942 1152,-537.644 1191.43,-515.715 1220.71,-467.887 1231.96,-447.34"/>
<polygon fill="#9a32cd" stroke="#9a32cd" points="457.545,-609.205 447.558,-612.742 457.571,-616.205 457.545,-609.205"/>
<text text-anchor="middle" x="795" y="-606.644" font-family="Helvetica,sans-Serif" font-size="10.00"> myResources</text>
</g>
<!-- Node13 -->
<g id="node13" class="node"><title>Node13</title>
<g id="a_node13"><a xlink:href="../../d8/df7/classview_1_1_turtle_view.html" target="_top" xlink:title="view.TurtleView">
<polygon fill="white" stroke="black" points="1195,-813.144 1195,-832.144 1281,-832.144 1281,-813.144 1195,-813.144"/>
<text text-anchor="middle" x="1238" y="-820.144" font-family="Helvetica,sans-Serif" font-size="10.00">view.TurtleView</text>
</a>
</g>
</g>
<!-- Node13&#45;&gt;Node10 -->
<g id="edge13" class="edge"><title>Node13&#45;&gt;Node10</title>
<path fill="none" stroke="#9a32cd" stroke-dasharray="5,2" d="M1291.13,-815.491C1325.35,-808.496 1369.3,-794.875 1400,-768.644 1433.17,-740.308 1452.23,-689.557 1459.08,-668.361"/>
<polygon fill="#9a32cd" stroke="#9a32cd" points="1290.47,-812.054 1281.3,-817.374 1291.78,-818.929 1290.47,-812.054"/>
<text text-anchor="middle" x="1362" y="-808.644" font-family="Helvetica,sans-Serif" font-size="10.00"> myActiveTurtle</text>
</g>
<!-- Node14 -->
<g id="node14" class="node"><title>Node14</title>
<polygon fill="white" stroke="#bfbfbf" points="911,-813.144 911,-832.144 979,-832.144 979,-813.144 911,-813.144"/>
<text text-anchor="middle" x="945" y="-820.144" font-family="Helvetica,sans-Serif" font-size="10.00">ImageView</text>
</g>
<!-- Node14&#45;&gt;Node13 -->
<g id="edge14" class="edge"><title>Node14&#45;&gt;Node13</title>
<path fill="none" stroke="midnightblue" d="M989.27,-822.644C1044.55,-822.644 1139.64,-822.644 1194.53,-822.644"/>
<polygon fill="midnightblue" stroke="midnightblue" points="989.098,-819.144 979.098,-822.644 989.098,-826.144 989.098,-819.144"/>
</g>
<!-- Node15 -->
<g id="node15" class="node"><title>Node15</title>
<polygon fill="white" stroke="#bfbfbf" points="1170,-725.644 1170,-755.644 1306,-755.644 1306,-725.644 1170,-725.644"/>
<text text-anchor="start" x="1178" y="-743.644" font-family="Helvetica,sans-Serif" font-size="10.00">Map&lt; Integer, view.Turtle</text>
<text text-anchor="middle" x="1238" y="-732.644" font-family="Helvetica,sans-Serif" font-size="10.00">View &gt;</text>
</g>
<!-- Node15&#45;&gt;Node10 -->
<g id="edge15" class="edge"><title>Node15&#45;&gt;Node10</title>
<path fill="none" stroke="#9a32cd" stroke-dasharray="5,2" d="M1315.95,-726.571C1343.17,-720.166 1373.57,-711.344 1400,-699.644 1418.64,-691.39 1437.89,-677.707 1449.9,-668.44"/>
<polygon fill="#9a32cd" stroke="#9a32cd" points="1315.05,-723.186 1306.08,-728.822 1316.61,-730.011 1315.05,-723.186"/>
<text text-anchor="middle" x="1362" y="-726.644" font-family="Helvetica,sans-Serif" font-size="10.00"> myTurtles</text>
</g>
<!-- Node16 -->
<g id="node16" class="node"><title>Node16</title>
<polygon fill="white" stroke="#bfbfbf" points="1215,-687.144 1215,-706.144 1261,-706.144 1261,-687.144 1215,-687.144"/>
<text text-anchor="middle" x="1238" y="-694.144" font-family="Helvetica,sans-Serif" font-size="10.00">Group</text>
</g>
<!-- Node16&#45;&gt;Node10 -->
<g id="edge16" class="edge"><title>Node16&#45;&gt;Node10</title>
<path fill="none" stroke="#9a32cd" stroke-dasharray="5,2" d="M1271.51,-692.517C1304.12,-688.21 1355.7,-680.936 1400,-672.644 1407.05,-671.325 1414.52,-669.773 1421.74,-668.191"/>
<polygon fill="#9a32cd" stroke="#9a32cd" points="1270.69,-689.096 1261.22,-693.861 1271.59,-696.037 1270.69,-689.096"/>
<text text-anchor="middle" x="1362" y="-687.644" font-family="Helvetica,sans-Serif" font-size="10.00"> myLines</text>
</g>
<!-- Node17&#45;&gt;Node9 -->
<g id="edge46" class="edge"><title>Node17&#45;&gt;Node9</title>
<path fill="none" stroke="#9a32cd" stroke-dasharray="5,2" d="M1188.99,-435.649C1069.73,-430.525 768.22,-416.471 750,-404.644 735.659,-395.334 745.22,-381.488 732,-370.644 725.524,-365.332 717.672,-361.43 709.655,-358.565"/>
<polygon fill="#9a32cd" stroke="#9a32cd" points="1189.14,-439.159 1199.28,-436.089 1189.44,-432.165 1189.14,-439.159"/>
<text text-anchor="middle" x="945" y="-431.644" font-family="Helvetica,sans-Serif" font-size="10.00"> mySidebar</text>
</g>
<!-- Node17&#45;&gt;Node10 -->
<g id="edge17" class="edge"><title>Node17&#45;&gt;Node10</title>
<path fill="none" stroke="#9a32cd" stroke-dasharray="5,2" d="M1263.21,-452.89C1296.59,-474.685 1357.44,-517.271 1400,-563.644 1425.57,-591.505 1447.66,-631.012 1457.11,-649.024"/>
<polygon fill="#9a32cd" stroke="#9a32cd" points="1264.86,-449.79 1254.56,-447.309 1261.07,-455.672 1264.86,-449.79"/>
<text text-anchor="middle" x="1362" y="-566.644" font-family="Helvetica,sans-Serif" font-size="10.00"> mySidebar</text>
</g>
<!-- Node27 -->
<g id="node27" class="node"><title>Node27</title>
<g id="a_node27"><a xlink:href="../../da/dc8/classview_1_1_editor.html" target="_top" xlink:title="view.Editor">
<polygon fill="white" stroke="black" points="1429.5,-211.144 1429.5,-230.144 1496.5,-230.144 1496.5,-211.144 1429.5,-211.144"/>
<text text-anchor="middle" x="1463" y="-218.144" font-family="Helvetica,sans-Serif" font-size="10.00">view.Editor</text>
</a>
</g>
</g>
<!-- Node17&#45;&gt;Node27 -->
<g id="edge38" class="edge"><title>Node17&#45;&gt;Node27</title>
<path fill="none" stroke="#9a32cd" stroke-dasharray="5,2" d="M1256.26,-420.849C1300.53,-377.768 1417.1,-264.34 1451.99,-230.384"/>
<polygon fill="#9a32cd" stroke="#9a32cd" points="1253.6,-418.558 1248.87,-428.04 1258.48,-423.574 1253.6,-418.558"/>
<text text-anchor="middle" x="1362" y="-351.644" font-family="Helvetica,sans-Serif" font-size="10.00"> mySidebar</text>
</g>
<!-- Node18 -->
<g id="node18" class="node"><title>Node18</title>
<polygon fill="white" stroke="#bfbfbf" points="924.5,-527.144 924.5,-546.144 965.5,-546.144 965.5,-527.144 924.5,-527.144"/>
<text text-anchor="middle" x="945" y="-534.144" font-family="Helvetica,sans-Serif" font-size="10.00">VBox</text>
</g>
<!-- Node18&#45;&gt;Node17 -->
<g id="edge18" class="edge"><title>Node18&#45;&gt;Node17</title>
<path fill="none" stroke="midnightblue" d="M975.965,-538.134C1017.38,-539.048 1093.62,-536.544 1152,-510.644 1185.43,-495.813 1215.6,-463.396 1229.27,-447.221"/>
<polygon fill="midnightblue" stroke="midnightblue" points="975.835,-534.629 965.733,-537.822 975.621,-541.625 975.835,-534.629"/>
</g>
<!-- Node19 -->
<g id="node19" class="node"><title>Node19</title>
<polygon fill="white" stroke="#bfbfbf" points="858.5,-489.144 858.5,-508.144 1031.5,-508.144 1031.5,-489.144 858.5,-489.144"/>
<text text-anchor="middle" x="945" y="-496.144" font-family="Helvetica,sans-Serif" font-size="10.00">ObservableList&lt; view.Property &gt;</text>
</g>
<!-- Node19&#45;&gt;Node17 -->
<g id="edge19" class="edge"><title>Node19&#45;&gt;Node17</title>
<path fill="none" stroke="#9a32cd" stroke-dasharray="5,2" d="M1041.89,-495.61C1077.01,-492.745 1116.77,-487.422 1152,-477.644 1177.3,-470.622 1204.4,-456.612 1221.02,-447.18"/>
<polygon fill="#9a32cd" stroke="#9a32cd" points="1041.34,-492.142 1031.64,-496.389 1041.87,-499.122 1041.34,-492.142"/>
<text text-anchor="middle" x="1101" y="-498.644" font-family="Helvetica,sans-Serif" font-size="10.00"> variablesList</text>
</g>
<!-- Node20 -->
<g id="node20" class="node"><title>Node20</title>
<polygon fill="white" stroke="#bfbfbf" points="871,-451.144 871,-470.144 1019,-470.144 1019,-451.144 871,-451.144"/>
<text text-anchor="middle" x="945" y="-458.144" font-family="Helvetica,sans-Serif" font-size="10.00">TableView&lt; view.Property &gt;</text>
</g>
<!-- Node20&#45;&gt;Node17 -->
<g id="edge22" class="edge"><title>Node20&#45;&gt;Node17</title>
<path fill="none" stroke="#9a32cd" stroke-dasharray="5,2" d="M1029.31,-454.059C1085.25,-449.638 1156.29,-444.023 1199.12,-440.638"/>
<polygon fill="#9a32cd" stroke="#9a32cd" points="1028.75,-450.593 1019.06,-454.87 1029.3,-457.571 1028.75,-450.593"/>
<text text-anchor="middle" x="1101" y="-466.644" font-family="Helvetica,sans-Serif" font-size="10.00"> turtlePropertiesTable</text>
<text text-anchor="middle" x="1101" y="-455.644" font-family="Helvetica,sans-Serif" font-size="10.00">variablesTable</text>
</g>
<!-- Node21&#45;&gt;Node9 -->
<g id="edge41" class="edge"><title>Node21&#45;&gt;Node9</title>
<path fill="none" stroke="#9a32cd" stroke-dasharray="5,2" d="M931.956,-163.722C914.595,-188.331 880.171,-232.009 840,-255.644 804.416,-276.58 786.687,-259.708 750,-278.644 718.035,-295.143 687.648,-325.675 673.421,-341.139"/>
<polygon fill="#9a32cd" stroke="#9a32cd" points="934.963,-165.527 937.751,-155.306 929.197,-161.558 934.963,-165.527"/>
<text text-anchor="middle" x="795" y="-281.644" font-family="Helvetica,sans-Serif" font-size="10.00"> myParser</text>
</g>
<!-- Node21&#45;&gt;Node17 -->
<g id="edge23" class="edge"><title>Node21&#45;&gt;Node17</title>
<path fill="none" stroke="#9a32cd" stroke-dasharray="5,2" d="M995.209,-151.435C1042.66,-159.717 1112.86,-179.571 1152,-226.644 1178.92,-259.015 1155.41,-280.151 1170,-319.644 1185.92,-362.737 1216.46,-408.646 1230.11,-428.078"/>
<polygon fill="#9a32cd" stroke="#9a32cd" points="995.588,-147.95 985.154,-149.792 994.459,-154.859 995.588,-147.95"/>
<text text-anchor="middle" x="1101" y="-229.644" font-family="Helvetica,sans-Serif" font-size="10.00"> myParser</text>
</g>
<!-- Node21&#45;&gt;Node27 -->
<g id="edge36" class="edge"><title>Node21&#45;&gt;Node27</title>
<path fill="none" stroke="#9a32cd" stroke-dasharray="5,2" d="M995.381,-141.135C1065.31,-135.98 1196.82,-130.829 1306,-152.644 1350.03,-161.441 1360.21,-168.852 1400,-189.644 1408.52,-194.097 1409.55,-197.053 1418,-201.644 1424.14,-204.982 1430.99,-208.175 1437.42,-210.958"/>
<polygon fill="#9a32cd" stroke="#9a32cd" points="994.813,-137.668 985.111,-141.925 995.35,-144.648 994.813,-137.668"/>
<text text-anchor="middle" x="1238" y="-155.644" font-family="Helvetica,sans-Serif" font-size="10.00"> myParser</text>
</g>
<!-- Node22 -->
<g id="node22" class="node"><title>Node22</title>
<polygon fill="white" stroke="#bfbfbf" points="608,-114.644 608,-144.644 720,-144.644 720,-114.644 608,-114.644"/>
<text text-anchor="start" x="616" y="-132.644" font-family="Helvetica,sans-Serif" font-size="10.00">List&lt; Entry&lt; String,</text>
<text text-anchor="middle" x="664" y="-121.644" font-family="Helvetica,sans-Serif" font-size="10.00"> Pattern &gt; &gt;</text>
</g>
<!-- Node22&#45;&gt;Node21 -->
<g id="edge25" class="edge"><title>Node22&#45;&gt;Node21</title>
<path fill="none" stroke="#9a32cd" stroke-dasharray="5,2" d="M730.607,-130.937C763.474,-131.827 803.868,-133.29 840,-135.644 861.359,-137.036 885.123,-139.269 904.538,-141.273"/>
<polygon fill="#9a32cd" stroke="#9a32cd" points="730.303,-127.428 720.215,-130.667 730.121,-134.425 730.303,-127.428"/>
<text text-anchor="middle" x="795" y="-138.644" font-family="Helvetica,sans-Serif" font-size="10.00"> myPatterns</text>
</g>
<!-- Node23 -->
<g id="node23" class="node"><title>Node23</title>
<polygon fill="white" stroke="#bfbfbf" points="603,-29.1442 603,-48.1442 725,-48.1442 725,-29.1442 603,-29.1442"/>
<text text-anchor="middle" x="664" y="-36.1442" font-family="Helvetica,sans-Serif" font-size="10.00">Map&lt; String, String &gt;</text>
</g>
<!-- Node23&#45;&gt;Node21 -->
<g id="edge27" class="edge"><title>Node23&#45;&gt;Node21</title>
<path fill="none" stroke="#9a32cd" stroke-dasharray="5,2" d="M735.157,-37.0647C768.303,-38.7727 807.606,-44.4675 840,-59.6442 849.965,-64.3126 849.702,-69.4174 858,-76.6442 883.406,-98.7701 914.527,-123.086 931.497,-136.123"/>
<polygon fill="#9a32cd" stroke="#9a32cd" points="735.216,-33.5643 725.083,-36.6566 734.933,-40.5586 735.216,-33.5643"/>
<text text-anchor="middle" x="795" y="-62.6442" font-family="Helvetica,sans-Serif" font-size="10.00"> myCommandMap</text>
</g>
<!-- Node24 -->
<g id="node24" class="node"><title>Node24</title>
<polygon fill="white" stroke="#bfbfbf" points="876,-328.144 876,-347.144 1014,-347.144 1014,-328.144 876,-328.144"/>
<text text-anchor="middle" x="945" y="-335.144" font-family="Helvetica,sans-Serif" font-size="10.00">ObservableList&lt; String &gt;</text>
</g>
<!-- Node24&#45;&gt;Node17 -->
<g id="edge29" class="edge"><title>Node24&#45;&gt;Node17</title>
<path fill="none" stroke="#9a32cd" stroke-dasharray="5,2" d="M1021.18,-349.028C1061.04,-356.573 1110.25,-368.334 1152,-385.644 1179.33,-396.975 1208.07,-416.37 1224.15,-428"/>
<polygon fill="#9a32cd" stroke="#9a32cd" points="1021.73,-345.57 1011.26,-347.199 1020.46,-352.454 1021.73,-345.57"/>
<text text-anchor="middle" x="1101" y="-399.644" font-family="Helvetica,sans-Serif" font-size="10.00"> commandItems</text>
<text text-anchor="middle" x="1101" y="-388.644" font-family="Helvetica,sans-Serif" font-size="10.00">historyItems</text>
</g>
<!-- Node25 -->
<g id="node25" class="node"><title>Node25</title>
<polygon fill="white" stroke="#bfbfbf" points="1206.5,-573.144 1206.5,-592.144 1269.5,-592.144 1269.5,-573.144 1206.5,-573.144"/>
<text text-anchor="middle" x="1238" y="-580.144" font-family="Helvetica,sans-Serif" font-size="10.00">Rectangle</text>
</g>
<!-- Node25&#45;&gt;Node10 -->
<g id="edge30" class="edge"><title>Node25&#45;&gt;Node10</title>
<path fill="none" stroke="#9a32cd" stroke-dasharray="5,2" d="M1279.67,-578.311C1313.47,-576.448 1362.01,-577.898 1400,-595.644 1425.3,-607.464 1445.97,-634.32 1455.8,-648.858"/>
<polygon fill="#9a32cd" stroke="#9a32cd" points="1279.42,-574.82 1269.68,-578.981 1279.89,-581.804 1279.42,-574.82"/>
<text text-anchor="middle" x="1362" y="-598.644" font-family="Helvetica,sans-Serif" font-size="10.00"> myBackground</text>
</g>
<!-- Node26 -->
<g id="node26" class="node"><title>Node26</title>
<polygon fill="white" stroke="#bfbfbf" points="378.5,-415.144 378.5,-434.144 423.5,-434.144 423.5,-415.144 378.5,-415.144"/>
<text text-anchor="middle" x="401" y="-422.144" font-family="Helvetica,sans-Serif" font-size="10.00">Stage</text>
</g>
<!-- Node26&#45;&gt;Node9 -->
<g id="edge31" class="edge"><title>Node26&#45;&gt;Node9</title>
<path fill="none" stroke="#9a32cd" stroke-dasharray="5,2" d="M433.708,-424.483C470.633,-423.002 532.381,-416.426 578,-390.644 588.411,-384.76 585.894,-377.037 596,-370.644 602.771,-366.361 610.504,-362.957 618.253,-360.264"/>
<polygon fill="#9a32cd" stroke="#9a32cd" points="433.429,-420.989 423.538,-424.786 433.638,-427.986 433.429,-420.989"/>
<text text-anchor="middle" x="538" y="-420.644" font-family="Helvetica,sans-Serif" font-size="10.00"> myStage</text>
</g>
<!-- Node27&#45;&gt;Node9 -->
<g id="edge33" class="edge"><title>Node27&#45;&gt;Node9</title>
<path fill="none" stroke="#9a32cd" stroke-dasharray="5,2" d="M1419.31,-229.449C1412.86,-230.623 1406.27,-231.734 1400,-232.644 1160.48,-267.456 1095.55,-239.276 858,-285.644 833.432,-290.44 773.687,-309.552 750,-317.644 728.878,-324.86 705.238,-334.138 688.261,-341.018"/>
<polygon fill="#9a32cd" stroke="#9a32cd" points="1420.1,-232.863 1429.28,-227.572 1418.8,-225.984 1420.1,-232.863"/>
<text text-anchor="middle" x="1101" y="-262.644" font-family="Helvetica,sans-Serif" font-size="10.00"> myEditor</text>
</g>
<!-- Node28 -->
<g id="node28" class="node"><title>Node28</title>
<polygon fill="white" stroke="#bfbfbf" points="1217,-35.1442 1217,-54.1442 1259,-54.1442 1259,-35.1442 1217,-35.1442"/>
<text text-anchor="middle" x="1238" y="-42.1442" font-family="Helvetica,sans-Serif" font-size="10.00">HBox</text>
</g>
<!-- Node28&#45;&gt;Node27 -->
<g id="edge34" class="edge"><title>Node28&#45;&gt;Node27</title>
<path fill="none" stroke="midnightblue" d="M1269.3,-41.1938C1305.82,-38.8803 1366.45,-41.2589 1400,-76.6442 1438.62,-117.374 1383.89,-157.066 1418,-201.644 1421.03,-205.609 1425.06,-208.759 1429.45,-211.259"/>
<polygon fill="midnightblue" stroke="midnightblue" points="1268.93,-37.7118 1259.24,-41.9888 1269.49,-44.6901 1268.93,-37.7118"/>
</g>
<!-- Node29 -->
<g id="node29" class="node"><title>Node29</title>
<polygon fill="white" stroke="#bfbfbf" points="1213.5,-211.144 1213.5,-230.144 1262.5,-230.144 1262.5,-211.144 1213.5,-211.144"/>
<text text-anchor="middle" x="1238" y="-218.144" font-family="Helvetica,sans-Serif" font-size="10.00">Button</text>
</g>
<!-- Node29&#45;&gt;Node27 -->
<g id="edge35" class="edge"><title>Node29&#45;&gt;Node27</title>
<path fill="none" stroke="#9a32cd" stroke-dasharray="5,2" d="M1272.98,-220.644C1315.41,-220.644 1387.51,-220.644 1429.33,-220.644"/>
<polygon fill="#9a32cd" stroke="#9a32cd" points="1272.86,-217.144 1262.86,-220.644 1272.86,-224.144 1272.86,-217.144"/>
<text text-anchor="middle" x="1362" y="-223.644" font-family="Helvetica,sans-Serif" font-size="10.00"> runButton</text>
</g>
<!-- Node30 -->
<g id="node30" class="node"><title>Node30</title>
<polygon fill="white" stroke="#bfbfbf" points="1209,-173.144 1209,-192.144 1267,-192.144 1267,-173.144 1209,-173.144"/>
<text text-anchor="middle" x="1238" y="-180.144" font-family="Helvetica,sans-Serif" font-size="10.00">TextArea</text>
</g>
<!-- Node30&#45;&gt;Node27 -->
<g id="edge37" class="edge"><title>Node30&#45;&gt;Node27</title>
<path fill="none" stroke="#9a32cd" stroke-dasharray="5,2" d="M1277.11,-187.047C1309.84,-191.076 1358.21,-197.624 1400,-205.644 1409.57,-207.481 1419.89,-209.828 1429.31,-212.116"/>
<polygon fill="#9a32cd" stroke="#9a32cd" points="1277.41,-183.557 1267.06,-185.828 1276.56,-190.507 1277.41,-183.557"/>
<text text-anchor="middle" x="1362" y="-208.644" font-family="Helvetica,sans-Serif" font-size="10.00"> textEditor</text>
</g>
<!-- Node31 -->
<g id="node31" class="node"><title>Node31</title>
<polygon fill="white" stroke="#bfbfbf" points="341.5,-377.144 341.5,-396.144 460.5,-396.144 460.5,-377.144 341.5,-377.144"/>
<text text-anchor="middle" x="401" y="-384.144" font-family="Helvetica,sans-Serif" font-size="10.00">Map&lt; String, Node &gt;</text>
</g>
<!-- Node31&#45;&gt;Node9 -->
<g id="edge39" class="edge"><title>Node31&#45;&gt;Node9</title>
<path fill="none" stroke="#9a32cd" stroke-dasharray="5,2" d="M471.042,-378.644C503.537,-374.717 542.801,-369.741 578,-364.644 591.173,-362.737 605.46,-360.463 618.495,-358.309"/>
<polygon fill="#9a32cd" stroke="#9a32cd" points="470.255,-375.213 460.743,-379.88 471.09,-382.163 470.255,-375.213"/>
<text text-anchor="middle" x="538" y="-378.644" font-family="Helvetica,sans-Serif" font-size="10.00"> variables</text>
</g>
<!-- Node32 -->
<g id="node32" class="node"><title>Node32</title>
<polygon fill="white" stroke="#bfbfbf" points="360.5,-339.144 360.5,-358.144 441.5,-358.144 441.5,-339.144 360.5,-339.144"/>
<text text-anchor="middle" x="401" y="-346.144" font-family="Helvetica,sans-Serif" font-size="10.00">Dimension2D</text>
</g>
<!-- Node32&#45;&gt;Node9 -->
<g id="edge42" class="edge"><title>Node32&#45;&gt;Node9</title>
<path fill="none" stroke="#9a32cd" stroke-dasharray="5,2" d="M451.806,-349.026C499.838,-349.394 571.878,-349.946 618.163,-350.301"/>
<polygon fill="#9a32cd" stroke="#9a32cd" points="451.667,-345.525 441.64,-348.948 451.613,-352.525 451.667,-345.525"/>
<text text-anchor="middle" x="538" y="-353.644" font-family="Helvetica,sans-Serif" font-size="10.00"> myDimensions</text>
</g>
<!-- Node33&#45;&gt;Node9 -->
<g id="edge43" class="edge"><title>Node33&#45;&gt;Node9</title>
<path fill="none" stroke="#9a32cd" stroke-dasharray="5,2" d="M1604.31,-304.039C1482.64,-300.274 1140.79,-293.021 858,-318.644 806.754,-323.287 748.569,-333.642 709.606,-341.322"/>
<polygon fill="#9a32cd" stroke="#9a32cd" points="1604.27,-307.54 1614.38,-304.359 1604.49,-300.543 1604.27,-307.54"/>
<text text-anchor="middle" x="1238" y="-305.644" font-family="Helvetica,sans-Serif" font-size="10.00"> drawer</text>
</g>
<!-- Node34 -->
<g id="node34" class="node"><title>Node34</title>
<polygon fill="white" stroke="#bfbfbf" points="1442.5,-173.144 1442.5,-192.144 1483.5,-192.144 1483.5,-173.144 1442.5,-173.144"/>
<text text-anchor="middle" x="1463" y="-180.144" font-family="Helvetica,sans-Serif" font-size="10.00">Color</text>
</g>
<!-- Node34&#45;&gt;Node33 -->
<g id="edge45" class="edge"><title>Node34&#45;&gt;Node33</title>
<path fill="none" stroke="#9a32cd" stroke-dasharray="5,2" d="M1493.19,-194.148C1498.22,-196.442 1503.34,-198.974 1508,-201.644 1559.98,-231.398 1615.6,-276.554 1638.82,-296.087"/>
<polygon fill="#9a32cd" stroke="#9a32cd" points="1494.3,-190.816 1483.73,-190.056 1491.52,-197.24 1494.3,-190.816"/>
<text text-anchor="middle" x="1561" y="-263.644" font-family="Helvetica,sans-Serif" font-size="10.00"> myColor</text>
</g>
</g>
</svg>
