<?xml version="1.0" encoding="UTF-8" standalone="no"?>
<!DOCTYPE svg PUBLIC "-//W3C//DTD SVG 1.1//EN"
 "http://www.w3.org/Graphics/SVG/1.1/DTD/svg11.dtd">
<!-- Generated by graphviz version 2.36.0 (20140111.2315)
 -->
<!-- Title: model.instructions.Instruction Pages: 1 -->
<svg width="1726pt" height="772pt"
 viewBox="0.00 0.00 1726.00 772.00" xmlns="http://www.w3.org/2000/svg" xmlns:xlink="http://www.w3.org/1999/xlink">
<g id="graph0" class="graph" transform="scale(1 1) rotate(0) translate(4 768)">
<title>model.instructions.Instruction</title>
<polygon fill="white" stroke="none" points="-4,4 -4,-768 1722,-768 1722,4 -4,4"/>
<!-- Node1 -->
<g id="node1" class="node"><title>Node1</title>
<polygon fill="#bfbfbf" stroke="black" points="638,-188.5 638,-207.5 796,-207.5 796,-188.5 638,-188.5"/>
<text text-anchor="middle" x="717" y="-195.5" font-family="Helvetica,sans-Serif" font-size="10.00">model.instructions.Instruction</text>
</g>
<!-- Node2 -->
<g id="node2" class="node"><title>Node2</title>
<polygon fill="white" stroke="#bfbfbf" points="57,-172.5 57,-191.5 117,-191.5 117,-172.5 57,-172.5"/>
<text text-anchor="middle" x="87" y="-179.5" font-family="Helvetica,sans-Serif" font-size="10.00">Observer</text>
</g>
<!-- Node2&#45;&gt;Node1 -->
<g id="edge1" class="edge"><title>Node2&#45;&gt;Node1</title>
<path fill="none" stroke="midnightblue" d="M127.159,-182.998C228.78,-185.587 502.415,-192.558 637.863,-196.009"/>
<polygon fill="midnightblue" stroke="midnightblue" points="127.116,-179.496 117.03,-182.74 126.938,-186.493 127.116,-179.496"/>
</g>
<!-- Node8 -->
<g id="node8" class="node"><title>Node8</title>
<g id="a_node8"><a xlink:href="../../d6/de7/classview_1_1_s_logo_view.html" target="_top" xlink:title="view.SLogoView">
<polygon fill="white" stroke="black" points="355.5,-324.5 355.5,-343.5 446.5,-343.5 446.5,-324.5 355.5,-324.5"/>
<text text-anchor="middle" x="401" y="-331.5" font-family="Helvetica,sans-Serif" font-size="10.00">view.SLogoView</text>
</a>
</g>
</g>
<!-- Node2&#45;&gt;Node8 -->
<g id="edge8" class="edge"><title>Node2&#45;&gt;Node8</title>
<path fill="none" stroke="midnightblue" d="M118.089,-195.758C159.988,-215.019 238.175,-251.332 304,-284 331.437,-297.617 362.854,-314.164 382.06,-324.39"/>
<polygon fill="midnightblue" stroke="midnightblue" points="119.53,-192.569 108.982,-191.578 116.61,-198.93 119.53,-192.569"/>
</g>
<!-- Node20 -->
<g id="node20" class="node"><title>Node20</title>
<g id="a_node20"><a xlink:href="../../dc/df5/classmodel_1_1_parser.html" target="_top" xlink:title="model.Parser">
<polygon fill="white" stroke="black" points="677,-100.5 677,-119.5 757,-119.5 757,-100.5 677,-100.5"/>
<text text-anchor="middle" x="717" y="-107.5" font-family="Helvetica,sans-Serif" font-size="10.00">model.Parser</text>
</a>
</g>
</g>
<!-- Node2&#45;&gt;Node20 -->
<g id="edge22" class="edge"><title>Node2&#45;&gt;Node20</title>
<path fill="none" stroke="midnightblue" d="M127.273,-177.497C240.078,-164.564 564.163,-127.408 676.834,-114.49"/>
<polygon fill="midnightblue" stroke="midnightblue" points="126.566,-174.055 117.03,-178.672 127.364,-181.01 126.566,-174.055"/>
</g>
<!-- Node3 -->
<g id="node3" class="node"><title>Node3</title>
<g id="a_node3"><a xlink:href="../../d1/dca/classmodel_1_1_execution_environment.html" target="_top" xlink:title="model.ExecutionEnvironment">
<polygon fill="white" stroke="black" points="322.5,-87.5 322.5,-106.5 479.5,-106.5 479.5,-87.5 322.5,-87.5"/>
<text text-anchor="middle" x="401" y="-94.5" font-family="Helvetica,sans-Serif" font-size="10.00">model.ExecutionEnvironment</text>
</a>
</g>
</g>
<!-- Node3&#45;&gt;Node1 -->
<g id="edge2" class="edge"><title>Node3&#45;&gt;Node1</title>
<path fill="none" stroke="#9a32cd" stroke-dasharray="5,2" d="M452.81,-108.917C497.376,-119.858 563.67,-137.321 620,-157 646.69,-166.324 676.5,-179.51 695.716,-188.388"/>
<polygon fill="#9a32cd" stroke="#9a32cd" points="453.63,-105.514 443.085,-106.549 451.973,-112.316 453.63,-105.514"/>
<text text-anchor="middle" x="559" y="-160" font-family="Helvetica,sans-Serif" font-size="10.00"> myEnvironment</text>
</g>
<!-- Node3&#45;&gt;Node20 -->
<g id="edge24" class="edge"><title>Node3&#45;&gt;Node20</title>
<path fill="none" stroke="#9a32cd" stroke-dasharray="5,2" d="M489.721,-95.0111C529.525,-94.7234 577.177,-95.2353 620,-98 638.773,-99.212 659.494,-101.66 676.866,-104.031"/>
<polygon fill="#9a32cd" stroke="#9a32cd" points="489.481,-91.513 479.513,-95.1034 489.544,-98.5127 489.481,-91.513"/>
<text text-anchor="middle" x="559" y="-101" font-family="Helvetica,sans-Serif" font-size="10.00"> myExecutionParameters</text>
</g>
<!-- Node4 -->
<g id="node4" class="node"><title>Node4</title>
<polygon fill="white" stroke="#bfbfbf" points="51.5,-64.5 51.5,-83.5 122.5,-83.5 122.5,-64.5 51.5,-64.5"/>
<text text-anchor="middle" x="87" y="-71.5" font-family="Helvetica,sans-Serif" font-size="10.00">Observable</text>
</g>
<!-- Node4&#45;&gt;Node3 -->
<g id="edge3" class="edge"><title>Node4&#45;&gt;Node3</title>
<path fill="none" stroke="midnightblue" d="M132.637,-77.2906C182.066,-80.9344 262.658,-86.8755 322.457,-91.2837"/>
<polygon fill="midnightblue" stroke="midnightblue" points="132.812,-73.794 122.582,-76.5493 132.297,-80.7751 132.812,-73.794"/>
</g>
<!-- Node5 -->
<g id="node5" class="node"><title>Node5</title>
<polygon fill="white" stroke="#bfbfbf" points="0,-15 0,-45 174,-45 174,-15 0,-15"/>
<text text-anchor="start" x="8" y="-33" font-family="Helvetica,sans-Serif" font-size="10.00">Map&lt; String, model.instructions.</text>
<text text-anchor="middle" x="87" y="-22" font-family="Helvetica,sans-Serif" font-size="10.00">Instruction &gt;</text>
</g>
<!-- Node5&#45;&gt;Node3 -->
<g id="edge4" class="edge"><title>Node5&#45;&gt;Node3</title>
<path fill="none" stroke="#9a32cd" stroke-dasharray="5,2" d="M184.114,-39.9216C222.178,-45.6418 265.867,-54.4843 304,-68 312.626,-71.0573 313.478,-74.6649 322,-78 331.475,-81.7079 341.888,-84.846 351.935,-87.4379"/>
<polygon fill="#9a32cd" stroke="#9a32cd" points="184.451,-36.434 174.052,-38.4618 183.446,-43.3614 184.451,-36.434"/>
<text text-anchor="middle" x="248" y="-71" font-family="Helvetica,sans-Serif" font-size="10.00"> myUserInstructionMap</text>
</g>
<!-- Node6 -->
<g id="node6" class="node"><title>Node6</title>
<polygon fill="white" stroke="#bfbfbf" points="23,-102.5 23,-121.5 151,-121.5 151,-102.5 23,-102.5"/>
<text text-anchor="middle" x="87" y="-109.5" font-family="Helvetica,sans-Serif" font-size="10.00">Map&lt; String, Double &gt;</text>
</g>
<!-- Node6&#45;&gt;Node3 -->
<g id="edge5" class="edge"><title>Node6&#45;&gt;Node3</title>
<path fill="none" stroke="#9a32cd" stroke-dasharray="5,2" d="M161.23,-108.479C209.637,-106.152 273.011,-103.105 322.303,-100.735"/>
<polygon fill="#9a32cd" stroke="#9a32cd" points="160.958,-104.988 151.138,-108.965 161.294,-111.98 160.958,-104.988"/>
<text text-anchor="middle" x="248" y="-110" font-family="Helvetica,sans-Serif" font-size="10.00"> myVariableMap</text>
</g>
<!-- Node7 -->
<g id="node7" class="node"><title>Node7</title>
<polygon fill="white" stroke="#bfbfbf" points="333,-211 333,-241 469,-241 469,-211 333,-211"/>
<text text-anchor="start" x="341" y="-229" font-family="Helvetica,sans-Serif" font-size="10.00">List&lt; model.instructions.</text>
<text text-anchor="middle" x="401" y="-218" font-family="Helvetica,sans-Serif" font-size="10.00">Instruction &gt;</text>
</g>
<!-- Node7&#45;&gt;Node1 -->
<g id="edge6" class="edge"><title>Node7&#45;&gt;Node1</title>
<path fill="none" stroke="#9a32cd" stroke-dasharray="5,2" d="M479.141,-217.819C485.519,-217.187 491.869,-216.572 498,-216 544.319,-211.676 596.227,-207.368 637.768,-204.052"/>
<polygon fill="#9a32cd" stroke="#9a32cd" points="478.721,-214.343 469.121,-218.823 479.42,-221.308 478.721,-214.343"/>
<text text-anchor="middle" x="559" y="-219" font-family="Helvetica,sans-Serif" font-size="10.00"> myDependencies</text>
</g>
<!-- Node8&#45;&gt;Node1 -->
<g id="edge7" class="edge"><title>Node8&#45;&gt;Node1</title>
<path fill="none" stroke="#9a32cd" stroke-dasharray="5,2" d="M425.803,-319.078C444.71,-307.859 472.175,-292.94 498,-284 550.142,-265.95 568.832,-281.648 620,-261 653.461,-247.498 687.596,-221.595 704.725,-207.577"/>
<polygon fill="#9a32cd" stroke="#9a32cd" points="423.748,-316.231 417.002,-324.401 427.37,-322.221 423.748,-316.231"/>
<text text-anchor="middle" x="559" y="-287" font-family="Helvetica,sans-Serif" font-size="10.00"> myView</text>
</g>
<!-- Node8&#45;&gt;Node20 -->
<g id="edge26" class="edge"><title>Node8&#45;&gt;Node20</title>
<path fill="none" stroke="#9a32cd" stroke-dasharray="5,2" d="M415.969,-316.614C433.07,-296.623 463.982,-264.453 498,-248 547.531,-224.044 577.61,-262.075 620,-227 637.554,-212.475 625.085,-197.77 638,-179 655.422,-153.679 684.102,-131.56 701.405,-119.556"/>
<polygon fill="#9a32cd" stroke="#9a32cd" points="413.231,-314.432 409.517,-324.355 418.608,-318.914 413.231,-314.432"/>
<text text-anchor="middle" x="559" y="-251" font-family="Helvetica,sans-Serif" font-size="10.00"> mySLogoView</text>
</g>
<!-- Node9 -->
<g id="node9" class="node"><title>Node9</title>
<g id="a_node9"><a xlink:href="../../da/d64/classview_1_1_workspace.html" target="_top" xlink:title="view.Workspace">
<polygon fill="white" stroke="black" points="1448,-601.5 1448,-620.5 1538,-620.5 1538,-601.5 1448,-601.5"/>
<text text-anchor="middle" x="1493" y="-608.5" font-family="Helvetica,sans-Serif" font-size="10.00">view.Workspace</text>
</a>
</g>
</g>
<!-- Node9&#45;&gt;Node8 -->
<g id="edge9" class="edge"><title>Node9&#45;&gt;Node8</title>
<path fill="none" stroke="#9a32cd" stroke-dasharray="5,2" d="M1455.99,-598.199C1447.51,-595.353 1438.47,-592.456 1430,-590 1359.29,-569.503 1342.63,-551 1269,-551 716,-551 716,-551 716,-551 567.897,-551 439.062,-385.6 408.736,-343.604"/>
<polygon fill="#9a32cd" stroke="#9a32cd" points="1455.02,-601.567 1465.61,-601.485 1457.28,-594.942 1455.02,-601.567"/>
<text text-anchor="middle" x="975" y="-554" font-family="Helvetica,sans-Serif" font-size="10.00"> myWorkspace</text>
</g>
<!-- Node14 -->
<g id="node14" class="node"><title>Node14</title>
<g id="a_node14"><a xlink:href="../../d1/dc7/classview_1_1_side_bar.html" target="_top" xlink:title="view.SideBar">
<polygon fill="white" stroke="black" points="1229.5,-419.5 1229.5,-438.5 1306.5,-438.5 1306.5,-419.5 1229.5,-419.5"/>
<text text-anchor="middle" x="1268" y="-426.5" font-family="Helvetica,sans-Serif" font-size="10.00">view.SideBar</text>
</a>
</g>
</g>
<!-- Node9&#45;&gt;Node14 -->
<g id="edge16" class="edge"><title>Node9&#45;&gt;Node14</title>
<path fill="none" stroke="#9a32cd" stroke-dasharray="5,2" d="M1450.67,-595.066C1449.71,-594.102 1448.82,-593.081 1448,-592 1411.96,-544.472 1471.12,-502.214 1430,-459 1398.64,-426.043 1343.59,-422.563 1306.71,-424.588"/>
<polygon fill="#9a32cd" stroke="#9a32cd" points="1448.91,-598.121 1458.99,-601.385 1453.14,-592.548 1448.91,-598.121"/>
<text text-anchor="middle" x="1392" y="-462" font-family="Helvetica,sans-Serif" font-size="10.00"> myWorkspace</text>
</g>
<!-- Node33 -->
<g id="node33" class="node"><title>Node33</title>
<g id="a_node33"><a xlink:href="../../de/d0a/classview_1_1_drawer.html" target="_top" xlink:title="view.Drawer">
<polygon fill="white" stroke="black" points="1644.5,-601.5 1644.5,-620.5 1717.5,-620.5 1717.5,-601.5 1644.5,-601.5"/>
<text text-anchor="middle" x="1681" y="-608.5" font-family="Helvetica,sans-Serif" font-size="10.00">view.Drawer</text>
</a>
</g>
</g>
<!-- Node9&#45;&gt;Node33 -->
<g id="edge42" class="edge"><title>Node9&#45;&gt;Node33</title>
<path fill="none" stroke="#9a32cd" stroke-dasharray="5,2" d="M1548.28,-611C1579.23,-611 1617.14,-611 1644.33,-611"/>
<polygon fill="#9a32cd" stroke="#9a32cd" points="1548.08,-607.5 1538.08,-611 1548.08,-614.5 1548.08,-607.5"/>
<text text-anchor="middle" x="1591" y="-614" font-family="Helvetica,sans-Serif" font-size="10.00"> myWorkspace</text>
</g>
<!-- Node10 -->
<g id="node10" class="node"><title>Node10</title>
<polygon fill="white" stroke="#bfbfbf" points="1234.5,-705.5 1234.5,-724.5 1301.5,-724.5 1301.5,-705.5 1234.5,-705.5"/>
<text text-anchor="middle" x="1268" y="-712.5" font-family="Helvetica,sans-Serif" font-size="10.00">StackPane</text>
</g>
<!-- Node10&#45;&gt;Node9 -->
<g id="edge10" class="edge"><title>Node10&#45;&gt;Node9</title>
<path fill="none" stroke="midnightblue" d="M1311.8,-710.102C1345.66,-704.798 1393.2,-694.083 1430,-673 1453.77,-659.378 1474.77,-634.26 1485.14,-620.547"/>
<polygon fill="midnightblue" stroke="midnightblue" points="1311.14,-706.661 1301.76,-711.58 1312.16,-713.587 1311.14,-706.661"/>
</g>
<!-- Node11 -->
<g id="node11" class="node"><title>Node11</title>
<g id="a_node11"><a xlink:href="../../d8/df7/classview_1_1_turtle_view.html" target="_top" xlink:title="view.TurtleView">
<polygon fill="white" stroke="black" points="1225,-667.5 1225,-686.5 1311,-686.5 1311,-667.5 1225,-667.5"/>
<text text-anchor="middle" x="1268" y="-674.5" font-family="Helvetica,sans-Serif" font-size="10.00">view.TurtleView</text>
</a>
</g>
</g>
<!-- Node11&#45;&gt;Node9 -->
<g id="edge11" class="edge"><title>Node11&#45;&gt;Node9</title>
<path fill="none" stroke="#9a32cd" stroke-dasharray="5,2" d="M1321.24,-666.744C1353.07,-659.908 1394.33,-649.986 1430,-638 1444.58,-633.101 1460.47,-626.146 1472.52,-620.521"/>
<polygon fill="#9a32cd" stroke="#9a32cd" points="1320.32,-663.361 1311.26,-668.854 1321.77,-670.21 1320.32,-663.361"/>
<text text-anchor="middle" x="1392" y="-661" font-family="Helvetica,sans-Serif" font-size="10.00"> myActiveTurtle</text>
</g>
<!-- Node12 -->
<g id="node12" class="node"><title>Node12</title>
<polygon fill="white" stroke="#bfbfbf" points="941,-667.5 941,-686.5 1009,-686.5 1009,-667.5 941,-667.5"/>
<text text-anchor="middle" x="975" y="-674.5" font-family="Helvetica,sans-Serif" font-size="10.00">ImageView</text>
</g>
<!-- Node12&#45;&gt;Node11 -->
<g id="edge12" class="edge"><title>Node12&#45;&gt;Node11</title>
<path fill="none" stroke="midnightblue" d="M1019.27,-677C1074.55,-677 1169.64,-677 1224.53,-677"/>
<polygon fill="midnightblue" stroke="midnightblue" points="1019.1,-673.5 1009.1,-677 1019.1,-680.5 1019.1,-673.5"/>
</g>
<!-- Node13 -->
<g id="node13" class="node"><title>Node13</title>
<polygon fill="white" stroke="#bfbfbf" points="1200,-618 1200,-648 1336,-648 1336,-618 1200,-618"/>
<text text-anchor="start" x="1208" y="-636" font-family="Helvetica,sans-Serif" font-size="10.00">Map&lt; Integer, view.Turtle</text>
<text text-anchor="middle" x="1268" y="-625" font-family="Helvetica,sans-Serif" font-size="10.00">View &gt;</text>
</g>
<!-- Node13&#45;&gt;Node9 -->
<g id="edge13" class="edge"><title>Node13&#45;&gt;Node9</title>
<path fill="none" stroke="#9a32cd" stroke-dasharray="5,2" d="M1346.56,-625.348C1380.44,-622.006 1418.95,-618.207 1447.82,-615.358"/>
<polygon fill="#9a32cd" stroke="#9a32cd" points="1345.82,-621.904 1336.21,-626.369 1346.51,-628.871 1345.82,-621.904"/>
<text text-anchor="middle" x="1392" y="-626" font-family="Helvetica,sans-Serif" font-size="10.00"> myTurtles</text>
</g>
<!-- Node14&#45;&gt;Node8 -->
<g id="edge44" class="edge"><title>Node14&#45;&gt;Node8</title>
<path fill="none" stroke="#9a32cd" stroke-dasharray="5,2" d="M1219.13,-428.211C1147.11,-426.659 1006.68,-422.22 888,-410 724.469,-393.162 532.073,-358.674 446.688,-342.6"/>
<polygon fill="#9a32cd" stroke="#9a32cd" points="1219.17,-431.712 1229.24,-428.419 1219.32,-424.714 1219.17,-431.712"/>
<text text-anchor="middle" x="842" y="-411" font-family="Helvetica,sans-Serif" font-size="10.00"> mySidebar</text>
</g>
<!-- Node14&#45;&gt;Node9 -->
<g id="edge14" class="edge"><title>Node14&#45;&gt;Node9</title>
<path fill="none" stroke="#9a32cd" stroke-dasharray="5,2" d="M1297.84,-443.064C1339.15,-463.747 1412.2,-502.455 1430,-526 1448.34,-550.252 1428.07,-569.036 1448,-592 1451.27,-595.771 1455.43,-598.818 1459.87,-601.273"/>
<polygon fill="#9a32cd" stroke="#9a32cd" points="1299.31,-439.889 1288.8,-438.575 1296.2,-446.159 1299.31,-439.889"/>
<text text-anchor="middle" x="1392" y="-529" font-family="Helvetica,sans-Serif" font-size="10.00"> mySidebar</text>
</g>
<!-- Node27 -->
<g id="node27" class="node"><title>Node27</title>
<g id="a_node27"><a xlink:href="../../da/dc8/classview_1_1_editor.html" target="_top" xlink:title="view.Editor">
<polygon fill="white" stroke="black" points="1459.5,-275.5 1459.5,-294.5 1526.5,-294.5 1526.5,-275.5 1459.5,-275.5"/>
<text text-anchor="middle" x="1493" y="-282.5" font-family="Helvetica,sans-Serif" font-size="10.00">view.Editor</text>
</a>
</g>
</g>
<!-- Node14&#45;&gt;Node27 -->
<g id="edge37" class="edge"><title>Node14&#45;&gt;Node27</title>
<path fill="none" stroke="#9a32cd" stroke-dasharray="5,2" d="M1299.82,-415.169C1333.25,-399.541 1387.5,-372.302 1430,-342 1450.48,-327.4 1471.43,-306.688 1482.97,-294.668"/>
<polygon fill="#9a32cd" stroke="#9a32cd" points="1298.17,-412.076 1290.57,-419.449 1301.11,-418.429 1298.17,-412.076"/>
<text text-anchor="middle" x="1392" y="-390" font-family="Helvetica,sans-Serif" font-size="10.00"> mySidebar</text>
</g>
<!-- Node15 -->
<g id="node15" class="node"><title>Node15</title>
<polygon fill="white" stroke="#bfbfbf" points="954.5,-381.5 954.5,-400.5 995.5,-400.5 995.5,-381.5 954.5,-381.5"/>
<text text-anchor="middle" x="975" y="-388.5" font-family="Helvetica,sans-Serif" font-size="10.00">VBox</text>
</g>
<!-- Node15&#45;&gt;Node14 -->
<g id="edge15" class="edge"><title>Node15&#45;&gt;Node14</title>
<path fill="none" stroke="midnightblue" d="M1005.69,-394.877C1058.99,-401.837 1170.77,-416.434 1229.36,-424.085"/>
<polygon fill="midnightblue" stroke="midnightblue" points="1005.91,-391.377 995.545,-393.552 1005.01,-398.318 1005.91,-391.377"/>
</g>
<!-- Node16 -->
<g id="node16" class="node"><title>Node16</title>
<polygon fill="white" stroke="#bfbfbf" points="888.5,-343.5 888.5,-362.5 1061.5,-362.5 1061.5,-343.5 888.5,-343.5"/>
<text text-anchor="middle" x="975" y="-350.5" font-family="Helvetica,sans-Serif" font-size="10.00">ObservableList&lt; view.Property &gt;</text>
</g>
<!-- Node16&#45;&gt;Node14 -->
<g id="edge17" class="edge"><title>Node16&#45;&gt;Node14</title>
<path fill="none" stroke="#9a32cd" stroke-dasharray="5,2" d="M1061.3,-364.067C1098.82,-370.125 1143.11,-378.909 1182,-391 1205.93,-398.438 1232.04,-410.8 1248.92,-419.396"/>
<polygon fill="#9a32cd" stroke="#9a32cd" points="1061.84,-360.609 1051.41,-362.509 1060.75,-367.523 1061.84,-360.609"/>
<text text-anchor="middle" x="1131" y="-394" font-family="Helvetica,sans-Serif" font-size="10.00"> variablesList</text>
</g>
<!-- Node17 -->
<g id="node17" class="node"><title>Node17</title>
<polygon fill="white" stroke="#bfbfbf" points="40.5,-491.5 40.5,-510.5 133.5,-510.5 133.5,-491.5 40.5,-491.5"/>
<text text-anchor="middle" x="87" y="-498.5" font-family="Helvetica,sans-Serif" font-size="10.00">ResourceBundle</text>
</g>
<!-- Node17&#45;&gt;Node8 -->
<g id="edge31" class="edge"><title>Node17&#45;&gt;Node8</title>
<path fill="none" stroke="#9a32cd" stroke-dasharray="5,2" d="M119.17,-487.285C161.704,-468.248 239.962,-432.069 304,-396 334.252,-378.961 368.005,-356.245 386.335,-343.576"/>
<polygon fill="#9a32cd" stroke="#9a32cd" points="117.614,-484.147 109.904,-491.414 120.463,-490.541 117.614,-484.147"/>
<text text-anchor="middle" x="248" y="-455" font-family="Helvetica,sans-Serif" font-size="10.00"> myResources</text>
</g>
<!-- Node17&#45;&gt;Node14 -->
<g id="edge18" class="edge"><title>Node17&#45;&gt;Node14</title>
<path fill="none" stroke="#9a32cd" stroke-dasharray="5,2" d="M114.748,-515.194C167.659,-541.909 290.095,-597 400,-597 400,-597 400,-597 976,-597 997.646,-597 1171.81,-524.886 1182,-518 1215.99,-495.025 1246.81,-456.45 1260.09,-438.598"/>
<polygon fill="#9a32cd" stroke="#9a32cd" points="116.192,-512.001 105.696,-510.556 112.999,-518.231 116.192,-512.001"/>
<text text-anchor="middle" x="717" y="-600" font-family="Helvetica,sans-Serif" font-size="10.00"> myResources</text>
</g>
<!-- Node18 -->
<g id="node18" class="node"><title>Node18</title>
<polygon fill="white" stroke="#bfbfbf" points="901,-305.5 901,-324.5 1049,-324.5 1049,-305.5 901,-305.5"/>
<text text-anchor="middle" x="975" y="-312.5" font-family="Helvetica,sans-Serif" font-size="10.00">TableView&lt; view.Property &gt;</text>
</g>
<!-- Node18&#45;&gt;Node14 -->
<g id="edge19" class="edge"><title>Node18&#45;&gt;Node14</title>
<path fill="none" stroke="#9a32cd" stroke-dasharray="5,2" d="M1059.41,-313.311C1098.47,-315.601 1144.53,-322.904 1182,-342 1192.36,-347.282 1191.92,-352.634 1200,-361 1220.27,-381.978 1244.34,-406.252 1257.4,-419.374"/>
<polygon fill="#9a32cd" stroke="#9a32cd" points="1059.27,-309.8 1049.12,-312.812 1058.94,-316.792 1059.27,-309.8"/>
<text text-anchor="middle" x="1131" y="-356" font-family="Helvetica,sans-Serif" font-size="10.00"> turtlePropertiesTable</text>
<text text-anchor="middle" x="1131" y="-345" font-family="Helvetica,sans-Serif" font-size="10.00">variablesTable</text>
</g>
<!-- Node19 -->
<g id="node19" class="node"><title>Node19</title>
<g id="a_node19"><a xlink:href="../../d4/dd9/classcontroller_1_1_s_logo_controller.html" target="_top" xlink:title="controller.SLogoController">
<polygon fill="white" stroke="black" points="905,-197.5 905,-216.5 1045,-216.5 1045,-197.5 905,-197.5"/>
<text text-anchor="middle" x="975" y="-204.5" font-family="Helvetica,sans-Serif" font-size="10.00">controller.SLogoController</text>
</a>
</g>
</g>
<!-- Node19&#45;&gt;Node8 -->
<g id="edge39" class="edge"><title>Node19&#45;&gt;Node8</title>
<path fill="none" stroke="#9a32cd" stroke-dasharray="5,2" d="M929.208,-219.154C862.245,-237.091 731.927,-271.104 620,-295 560.403,-307.724 491.037,-319.642 446.844,-326.875"/>
<polygon fill="#9a32cd" stroke="#9a32cd" points="930.258,-222.496 939.008,-216.522 928.443,-215.735 930.258,-222.496"/>
<text text-anchor="middle" x="717" y="-294" font-family="Helvetica,sans-Serif" font-size="10.00"> myController</text>
</g>
<!-- Node19&#45;&gt;Node14 -->
<g id="edge20" class="edge"><title>Node19&#45;&gt;Node14</title>
<path fill="none" stroke="#9a32cd" stroke-dasharray="5,2" d="M1032.78,-219.144C1079.19,-231.924 1143.25,-256.557 1182,-301 1200.3,-321.984 1185.81,-337.045 1200,-361 1214.36,-385.242 1239.19,-407.274 1254.26,-419.341"/>
<polygon fill="#9a32cd" stroke="#9a32cd" points="1033.43,-215.695 1022.87,-216.519 1031.64,-222.462 1033.43,-215.695"/>
<text text-anchor="middle" x="1131" y="-304" font-family="Helvetica,sans-Serif" font-size="10.00"> myController</text>
</g>
<!-- Node19&#45;&gt;Node27 -->
<g id="edge35" class="edge"><title>Node19&#45;&gt;Node27</title>
<path fill="none" stroke="#9a32cd" stroke-dasharray="5,2" d="M1055.08,-198.033C1128.26,-191.386 1239.94,-185.444 1336,-198 1378.87,-203.603 1392.54,-201.42 1430,-223 1453.74,-236.678 1474.75,-261.773 1485.13,-275.468"/>
<polygon fill="#9a32cd" stroke="#9a32cd" points="1054.64,-194.558 1045.01,-198.974 1055.29,-201.528 1054.64,-194.558"/>
<text text-anchor="middle" x="1268" y="-201" font-family="Helvetica,sans-Serif" font-size="10.00"> myController</text>
</g>
<!-- Node20&#45;&gt;Node19 -->
<g id="edge21" class="edge"><title>Node20&#45;&gt;Node19</title>
<path fill="none" stroke="#9a32cd" stroke-dasharray="5,2" d="M753.007,-123.265C805.306,-143.081 902.598,-179.945 948.621,-197.384"/>
<polygon fill="#9a32cd" stroke="#9a32cd" points="754.074,-119.926 743.482,-119.655 751.593,-126.472 754.074,-119.926"/>
<text text-anchor="middle" x="842" y="-171" font-family="Helvetica,sans-Serif" font-size="10.00"> myParser</text>
</g>
<!-- Node21 -->
<g id="node21" class="node"><title>Node21</title>
<polygon fill="white" stroke="#bfbfbf" points="345,-0 345,-30 457,-30 457,-0 345,-0"/>
<text text-anchor="start" x="353" y="-18" font-family="Helvetica,sans-Serif" font-size="10.00">List&lt; Entry&lt; String,</text>
<text text-anchor="middle" x="401" y="-7" font-family="Helvetica,sans-Serif" font-size="10.00"> Pattern &gt; &gt;</text>
</g>
<!-- Node21&#45;&gt;Node20 -->
<g id="edge23" class="edge"><title>Node21&#45;&gt;Node20</title>
<path fill="none" stroke="#9a32cd" stroke-dasharray="5,2" d="M467.355,-18.6729C511.593,-22.7891 570.722,-31.5137 620,-50 652.939,-62.357 686.75,-86.7679 704.109,-100.335"/>
<polygon fill="#9a32cd" stroke="#9a32cd" points="467.567,-15.1782 457.3,-17.7925 466.957,-22.1515 467.567,-15.1782"/>
<text text-anchor="middle" x="559" y="-53" font-family="Helvetica,sans-Serif" font-size="10.00"> myPatterns</text>
</g>
<!-- Node22 -->
<g id="node22" class="node"><title>Node22</title>
<polygon fill="white" stroke="#bfbfbf" points="340,-49.5 340,-68.5 462,-68.5 462,-49.5 340,-49.5"/>
<text text-anchor="middle" x="401" y="-56.5" font-family="Helvetica,sans-Serif" font-size="10.00">Map&lt; String, String &gt;</text>
</g>
<!-- Node22&#45;&gt;Node20 -->
<g id="edge25" class="edge"><title>Node22&#45;&gt;Node20</title>
<path fill="none" stroke="#9a32cd" stroke-dasharray="5,2" d="M472.25,-62.072C515.239,-64.8633 571.179,-70.1309 620,-80 644.304,-84.9129 671.183,-93.6059 690.302,-100.374"/>
<polygon fill="#9a32cd" stroke="#9a32cd" points="472.369,-58.5728 462.171,-61.4474 471.936,-65.5594 472.369,-58.5728"/>
<text text-anchor="middle" x="559" y="-83" font-family="Helvetica,sans-Serif" font-size="10.00"> myCommandMap</text>
</g>
<!-- Node23 -->
<g id="node23" class="node"><title>Node23</title>
<polygon fill="white" stroke="#bfbfbf" points="906,-495.5 906,-514.5 1044,-514.5 1044,-495.5 906,-495.5"/>
<text text-anchor="middle" x="975" y="-502.5" font-family="Helvetica,sans-Serif" font-size="10.00">ObservableList&lt; String &gt;</text>
</g>
<!-- Node23&#45;&gt;Node14 -->
<g id="edge27" class="edge"><title>Node23&#45;&gt;Node14</title>
<path fill="none" stroke="#9a32cd" stroke-dasharray="5,2" d="M1054.63,-496.915C1093.57,-491.59 1140.92,-483.109 1182,-470 1206.97,-462.031 1233.93,-448.008 1250.64,-438.611"/>
<polygon fill="#9a32cd" stroke="#9a32cd" points="1053.86,-493.487 1044.41,-498.268 1054.78,-500.426 1053.86,-493.487"/>
<text text-anchor="middle" x="1131" y="-506" font-family="Helvetica,sans-Serif" font-size="10.00"> commandItems</text>
<text text-anchor="middle" x="1131" y="-495" font-family="Helvetica,sans-Serif" font-size="10.00">historyItems</text>
</g>
<!-- Node24 -->
<g id="node24" class="node"><title>Node24</title>
<polygon fill="white" stroke="#bfbfbf" points="922,-457.5 922,-476.5 1028,-476.5 1028,-457.5 922,-457.5"/>
<text text-anchor="middle" x="975" y="-464.5" font-family="Helvetica,sans-Serif" font-size="10.00">ListView&lt; String &gt;</text>
</g>
<!-- Node24&#45;&gt;Node14 -->
<g id="edge28" class="edge"><title>Node24&#45;&gt;Node14</title>
<path fill="none" stroke="#9a32cd" stroke-dasharray="5,2" d="M1038.25,-460.522C1079.17,-456.074 1133.85,-449.767 1182,-443 1197.55,-440.815 1214.64,-438.067 1229.4,-435.586"/>
<polygon fill="#9a32cd" stroke="#9a32cd" points="1037.72,-457.059 1028.16,-461.612 1038.47,-464.018 1037.72,-457.059"/>
<text text-anchor="middle" x="1131" y="-458" font-family="Helvetica,sans-Serif" font-size="10.00"> historyList</text>
</g>
<!-- Node25 -->
<g id="node25" class="node"><title>Node25</title>
<polygon fill="white" stroke="#bfbfbf" points="1236.5,-579.5 1236.5,-598.5 1299.5,-598.5 1299.5,-579.5 1236.5,-579.5"/>
<text text-anchor="middle" x="1268" y="-586.5" font-family="Helvetica,sans-Serif" font-size="10.00">Rectangle</text>
</g>
<!-- Node25&#45;&gt;Node9 -->
<g id="edge29" class="edge"><title>Node25&#45;&gt;Node9</title>
<path fill="none" stroke="#9a32cd" stroke-dasharray="5,2" d="M1309.68,-591.566C1342.27,-593.796 1389.14,-597.39 1430,-602 1435.73,-602.646 1441.74,-603.411 1447.68,-604.217"/>
<polygon fill="#9a32cd" stroke="#9a32cd" points="1309.83,-588.069 1299.62,-590.891 1309.36,-595.053 1309.83,-588.069"/>
<text text-anchor="middle" x="1392" y="-605" font-family="Helvetica,sans-Serif" font-size="10.00"> myBackground</text>
</g>
<!-- Node26 -->
<g id="node26" class="node"><title>Node26</title>
<polygon fill="white" stroke="#bfbfbf" points="64.5,-343.5 64.5,-362.5 109.5,-362.5 109.5,-343.5 64.5,-343.5"/>
<text text-anchor="middle" x="87" y="-350.5" font-family="Helvetica,sans-Serif" font-size="10.00">Stage</text>
</g>
<!-- Node26&#45;&gt;Node8 -->
<g id="edge30" class="edge"><title>Node26&#45;&gt;Node8</title>
<path fill="none" stroke="#9a32cd" stroke-dasharray="5,2" d="M119.977,-351.053C175.9,-347.647 291.57,-340.603 355.356,-336.719"/>
<polygon fill="#9a32cd" stroke="#9a32cd" points="119.708,-347.562 109.939,-351.664 120.134,-354.55 119.708,-347.562"/>
<text text-anchor="middle" x="248" y="-350" font-family="Helvetica,sans-Serif" font-size="10.00"> myStage</text>
</g>
<!-- Node27&#45;&gt;Node8 -->
<g id="edge32" class="edge"><title>Node27&#45;&gt;Node8</title>
<path fill="none" stroke="#9a32cd" stroke-dasharray="5,2" d="M1449.23,-284.092C1389.44,-282.873 1277.46,-280.77 1182,-280 1136.67,-279.634 1125.33,-279.41 1080,-280 994.645,-281.111 972.694,-274.338 888,-285 846.388,-290.238 837.458,-299.654 796,-306 718.434,-317.873 698.267,-314.374 620,-320 560.043,-324.31 490.763,-328.649 446.687,-331.33"/>
<polygon fill="#9a32cd" stroke="#9a32cd" points="1449.35,-287.595 1459.42,-284.302 1449.5,-280.597 1449.35,-287.595"/>
<text text-anchor="middle" x="975" y="-288" font-family="Helvetica,sans-Serif" font-size="10.00"> myEditor</text>
</g>
<!-- Node28 -->
<g id="node28" class="node"><title>Node28</title>
<polygon fill="white" stroke="#bfbfbf" points="1247,-294.5 1247,-313.5 1289,-313.5 1289,-294.5 1247,-294.5"/>
<text text-anchor="middle" x="1268" y="-301.5" font-family="Helvetica,sans-Serif" font-size="10.00">HBox</text>
</g>
<!-- Node28&#45;&gt;Node27 -->
<g id="edge33" class="edge"><title>Node28&#45;&gt;Node27</title>
<path fill="none" stroke="midnightblue" d="M1299.3,-301.419C1341.09,-297.858 1416.12,-291.465 1459.19,-287.795"/>
<polygon fill="midnightblue" stroke="midnightblue" points="1298.85,-297.944 1289.18,-302.28 1299.44,-304.919 1298.85,-297.944"/>
</g>
<!-- Node29 -->
<g id="node29" class="node"><title>Node29</title>
<polygon fill="white" stroke="#bfbfbf" points="1243.5,-218.5 1243.5,-237.5 1292.5,-237.5 1292.5,-218.5 1243.5,-218.5"/>
<text text-anchor="middle" x="1268" y="-225.5" font-family="Helvetica,sans-Serif" font-size="10.00">Button</text>
</g>
<!-- Node29&#45;&gt;Node27 -->
<g id="edge34" class="edge"><title>Node29&#45;&gt;Node27</title>
<path fill="none" stroke="#9a32cd" stroke-dasharray="5,2" d="M1302.9,-225.616C1336.26,-224.438 1388.15,-225.776 1430,-241 1450.59,-248.49 1470.55,-264.767 1482.03,-275.286"/>
<polygon fill="#9a32cd" stroke="#9a32cd" points="1302.59,-222.126 1292.75,-226.072 1302.9,-229.119 1302.59,-222.126"/>
<text text-anchor="middle" x="1392" y="-244" font-family="Helvetica,sans-Serif" font-size="10.00"> runButton</text>
</g>
<!-- Node30 -->
<g id="node30" class="node"><title>Node30</title>
<polygon fill="white" stroke="#bfbfbf" points="1239,-332.5 1239,-351.5 1297,-351.5 1297,-332.5 1239,-332.5"/>
<text text-anchor="middle" x="1268" y="-339.5" font-family="Helvetica,sans-Serif" font-size="10.00">TextArea</text>
</g>
<!-- Node30&#45;&gt;Node27 -->
<g id="edge36" class="edge"><title>Node30&#45;&gt;Node27</title>
<path fill="none" stroke="#9a32cd" stroke-dasharray="5,2" d="M1307.33,-335.548C1340.19,-329.626 1388.65,-319.966 1430,-308 1443.01,-304.234 1457.2,-299.053 1468.72,-294.562"/>
<polygon fill="#9a32cd" stroke="#9a32cd" points="1306.47,-332.146 1297.23,-337.338 1307.69,-339.038 1306.47,-332.146"/>
<text text-anchor="middle" x="1392" y="-330" font-family="Helvetica,sans-Serif" font-size="10.00"> textEditor</text>
</g>
<!-- Node31 -->
<g id="node31" class="node"><title>Node31</title>
<polygon fill="white" stroke="#bfbfbf" points="27.5,-305.5 27.5,-324.5 146.5,-324.5 146.5,-305.5 27.5,-305.5"/>
<text text-anchor="middle" x="87" y="-312.5" font-family="Helvetica,sans-Serif" font-size="10.00">Map&lt; String, Node &gt;</text>
</g>
<!-- Node31&#45;&gt;Node8 -->
<g id="edge38" class="edge"><title>Node31&#45;&gt;Node8</title>
<path fill="none" stroke="#9a32cd" stroke-dasharray="5,2" d="M156.922,-317.943C199.356,-319.895 254.853,-322.702 304,-326 320.687,-327.12 338.986,-328.586 355.091,-329.956"/>
<polygon fill="#9a32cd" stroke="#9a32cd" points="156.852,-314.436 146.703,-317.477 156.533,-321.429 156.852,-314.436"/>
<text text-anchor="middle" x="248" y="-329" font-family="Helvetica,sans-Serif" font-size="10.00"> variables</text>
</g>
<!-- Node32 -->
<g id="node32" class="node"><title>Node32</title>
<polygon fill="white" stroke="#bfbfbf" points="46.5,-267.5 46.5,-286.5 127.5,-286.5 127.5,-267.5 46.5,-267.5"/>
<text text-anchor="middle" x="87" y="-274.5" font-family="Helvetica,sans-Serif" font-size="10.00">Dimension2D</text>
</g>
<!-- Node32&#45;&gt;Node8 -->
<g id="edge40" class="edge"><title>Node32&#45;&gt;Node8</title>
<path fill="none" stroke="#9a32cd" stroke-dasharray="5,2" d="M137.902,-281.121C181.937,-285.313 247.692,-292.931 304,-305 327.493,-310.035 353.554,-318.069 372.588,-324.405"/>
<polygon fill="#9a32cd" stroke="#9a32cd" points="138.027,-277.617 127.747,-280.178 137.38,-284.587 138.027,-277.617"/>
<text text-anchor="middle" x="248" y="-308" font-family="Helvetica,sans-Serif" font-size="10.00"> myDimensions</text>
</g>
<!-- Node33&#45;&gt;Node8 -->
<g id="edge41" class="edge"><title>Node33&#45;&gt;Node8</title>
<path fill="none" stroke="#9a32cd" stroke-dasharray="5,2" d="M1668.15,-629.446C1641.85,-667.88 1574.52,-753 1494,-753 716,-753 716,-753 716,-753 504.197,-753 417.829,-405.907 404.019,-343.539"/>
<polygon fill="#9a32cd" stroke="#9a32cd" points="1671.31,-631.023 1673.94,-620.76 1665.48,-627.143 1671.31,-631.023"/>
<text text-anchor="middle" x="1131" y="-756" font-family="Helvetica,sans-Serif" font-size="10.00"> drawer</text>
</g>
<!-- Node34 -->
<g id="node34" class="node"><title>Node34</title>
<polygon fill="white" stroke="#bfbfbf" points="1472.5,-563.5 1472.5,-582.5 1513.5,-582.5 1513.5,-563.5 1472.5,-563.5"/>
<text text-anchor="middle" x="1493" y="-570.5" font-family="Helvetica,sans-Serif" font-size="10.00">Color</text>
</g>
<!-- Node34&#45;&gt;Node33 -->
<g id="edge43" class="edge"><title>Node34&#45;&gt;Node33</title>
<path fill="none" stroke="#9a32cd" stroke-dasharray="5,2" d="M1523.73,-577.324C1550.59,-581.433 1591.14,-588.142 1626,-596 1633.02,-597.583 1640.5,-599.505 1647.58,-601.436"/>
<polygon fill="#9a32cd" stroke="#9a32cd" points="1524.21,-573.857 1513.8,-575.828 1523.17,-580.779 1524.21,-573.857"/>
<text text-anchor="middle" x="1591" y="-599" font-family="Helvetica,sans-Serif" font-size="10.00"> myColor</text>
</g>
<!-- Node35 -->
<g id="node35" class="node"><title>Node35</title>
<polygon fill="white" stroke="#bfbfbf" points="64,-381.5 64,-400.5 110,-400.5 110,-381.5 64,-381.5"/>
<text text-anchor="middle" x="87" y="-388.5" font-family="Helvetica,sans-Serif" font-size="10.00">Group</text>
</g>
<!-- Node35&#45;&gt;Node8 -->
<g id="edge45" class="edge"><title>Node35&#45;&gt;Node8</title>
<path fill="none" stroke="#9a32cd" stroke-dasharray="5,2" d="M120.291,-388.193C162.746,-384.156 239.505,-375.654 304,-362 326.929,-357.146 352.372,-349.625 371.301,-343.599"/>
<polygon fill="#9a32cd" stroke="#9a32cd" points="119.899,-384.715 110.265,-389.124 120.546,-391.685 119.899,-384.715"/>
<text text-anchor="middle" x="248" y="-384" font-family="Helvetica,sans-Serif" font-size="10.00"> lines</text>
</g>
</g>
</svg>
