<?xml version="1.0" encoding="UTF-8" standalone="no"?>
<!DOCTYPE svg PUBLIC "-//W3C//DTD SVG 1.1//EN"
 "http://www.w3.org/Graphics/SVG/1.1/DTD/svg11.dtd">
<!-- Generated by graphviz version 2.36.0 (20140111.2315)
 -->
<!-- Title: model.instructions.Instruction Pages: 1 -->
<!--zoomable 833 -->
<svg id="main" version="1.1" xmlns="http://www.w3.org/2000/svg" xmlns:xlink="http://www.w3.org/1999/xlink" xml:space="preserve" onload="init(evt)">
<style type="text/css"><![CDATA[
.edge:hover path { stroke: red; }
.edge:hover polygon { stroke: red; fill: red; }
]]></style>
<script type="text/javascript"><![CDATA[
var edges = document.getElementsByTagName('g');
if (edges && edges.length) {
  for (var i=0;i<edges.length;i++) {
    if (edges[i].id.substr(0,4)=='edge') {
      edges[i].setAttribute('class','edge');
    }
  }
}
]]></script>
        <defs>
                <circle id="rim" cx="0" cy="0" r="7"/>
                <circle id="rim2" cx="0" cy="0" r="3.5"/>
                <g id="zoomPlus">
                        <use xlink:href="#rim" fill="#404040">
                                <set attributeName="fill" to="#808080" begin="zoomplus.mouseover" end="zoomplus.mouseout"/>
                        </use>
                        <path d="M-4,0h8M0,-4v8" fill="none" stroke="white" stroke-width="1.5" pointer-events="none"/>
                </g>
                <g id="zoomMin">
                        <use xlink:href="#rim" fill="#404040">
                                <set attributeName="fill" to="#808080" begin="zoomminus.mouseover" end="zoomminus.mouseout"/>
                        </use>
                        <path d="M-4,0h8" fill="none" stroke="white" stroke-width="1.5" pointer-events="none"/>
                </g>
                <g id="dirArrow">
                        <path fill="none" stroke="white" stroke-width="1.5" d="M0,-3.0v7 M-2.5,-0.5L0,-3.0L2.5,-0.5"/>
                </g>
               <g id="resetDef">
                       <use xlink:href="#rim2" fill="#404040">
                               <set attributeName="fill" to="#808080" begin="reset.mouseover" end="reset.mouseout"/>
                       </use>
               </g>
        </defs>

<script type="text/javascript">
var viewWidth = 1604;
var viewHeight = 833;
var sectionId = 'dynsection-1';
</script>
<script xlink:href="../../svgpan.js"/>
<svg id="graph" class="graph">
<g id="viewport">
<title>model.instructions.Instruction</title>
<polygon fill="white" stroke="none" points="-4,4 -4,-829 1600,-829 1600,4 -4,4"/>
<!-- Node1 -->
<g id="node1" class="node"><title>Node1</title>
<polygon fill="#bfbfbf" stroke="black" points="760,-574.5 760,-593.5 918,-593.5 918,-574.5 760,-574.5"/>
<text text-anchor="middle" x="839" y="-581.5" font-family="Helvetica,sans-Serif" font-size="10.00">model.instructions.Instruction</text>
</g>
<!-- Node2 -->
<g id="node2" class="node"><title>Node2</title>
<polygon fill="white" stroke="#bfbfbf" points="179,-465.5 179,-484.5 239,-484.5 239,-465.5 179,-465.5"/>
<text text-anchor="middle" x="209" y="-472.5" font-family="Helvetica,sans-Serif" font-size="10.00">Observer</text>
</g>
<!-- Node2&#45;&gt;Node1 -->
<g id="edge1" class="edge"><title>Node2&#45;&gt;Node1</title>
<path fill="none" stroke="midnightblue" d="M225.75,-491.914C244.641,-510.914 278.262,-540.816 314,-554 393.559,-583.349 634.419,-585.88 759.977,-585.075"/>
<polygon fill="midnightblue" stroke="midnightblue" points="228.062,-489.27 218.592,-484.519 223.032,-494.138 228.062,-489.27"/>
</g>
<!-- Node8 -->
<g id="node8" class="node"><title>Node8</title>
<g id="a_node8"><a xlink:href="../../d6/de7/classview_1_1_s_logo_view.html" target="_top" xlink:title="view.SLogoView">
<polygon fill="white" stroke="black" points="477.5,-338.5 477.5,-357.5 568.5,-357.5 568.5,-338.5 477.5,-338.5"/>
<text text-anchor="middle" x="523" y="-345.5" font-family="Helvetica,sans-Serif" font-size="10.00">view.SLogoView</text>
</a>
</g>
</g>
<!-- Node2&#45;&gt;Node8 -->
<g id="edge8" class="edge"><title>Node2&#45;&gt;Node8</title>
<path fill="none" stroke="midnightblue" d="M249.337,-469.901C303.314,-462.356 396.961,-447.137 426,-429 437.01,-422.124 434.709,-415.065 444,-406 463.809,-386.673 490.249,-368.306 506.694,-357.6"/>
<polygon fill="midnightblue" stroke="midnightblue" points="248.533,-466.479 239.102,-471.306 249.485,-473.413 248.533,-466.479"/>
</g>
<!-- Node18 -->
<g id="node18" class="node"><title>Node18</title>
<g id="a_node18"><a xlink:href="../../dc/df5/classmodel_1_1_parser.html" target="_top" xlink:title="model.Parser">
<polygon fill="white" stroke="black" points="799,-452.5 799,-471.5 879,-471.5 879,-452.5 799,-452.5"/>
<text text-anchor="middle" x="839" y="-459.5" font-family="Helvetica,sans-Serif" font-size="10.00">model.Parser</text>
</a>
</g>
</g>
<!-- Node2&#45;&gt;Node18 -->
<g id="edge19" class="edge"><title>Node2&#45;&gt;Node18</title>
<path fill="none" stroke="midnightblue" d="M249.273,-474.187C362.078,-471.852 686.163,-465.143 798.834,-462.811"/>
<polygon fill="midnightblue" stroke="midnightblue" points="248.956,-470.693 239.03,-474.399 249.101,-477.691 248.956,-470.693"/>
</g>
<!-- Node3 -->
<g id="node3" class="node"><title>Node3</title>
<g id="a_node3"><a xlink:href="../../d1/dca/classmodel_1_1_execution_environment.html" target="_top" xlink:title="model.ExecutionEnvironment">
<polygon fill="white" stroke="black" points="444.5,-727.5 444.5,-746.5 601.5,-746.5 601.5,-727.5 444.5,-727.5"/>
<text text-anchor="middle" x="523" y="-734.5" font-family="Helvetica,sans-Serif" font-size="10.00">model.ExecutionEnvironment</text>
</a>
</g>
</g>
<!-- Node3&#45;&gt;Node1 -->
<g id="edge2" class="edge"><title>Node3&#45;&gt;Node1</title>
<path fill="none" stroke="#9a32cd" stroke-dasharray="5,2" d="M552.633,-723.048C615.596,-692.369 764.737,-619.698 818.365,-593.567"/>
<polygon fill="#9a32cd" stroke="#9a32cd" points="551.099,-719.902 543.642,-727.429 554.165,-726.195 551.099,-719.902"/>
<text text-anchor="middle" x="681" y="-691" font-family="Helvetica,sans-Serif" font-size="10.00"> myEnvironment</text>
</g>
<!-- Node3&#45;&gt;Node18 -->
<g id="edge21" class="edge"><title>Node3&#45;&gt;Node18</title>
<path fill="none" stroke="#9a32cd" stroke-dasharray="5,2" d="M540.359,-719.924C557.835,-700.85 585.272,-668.379 602,-636 614.583,-611.643 602.097,-597.763 620,-577 659.206,-531.531 689.021,-547.245 742,-519 771.248,-503.407 804.256,-483.213 822.951,-471.522"/>
<polygon fill="#9a32cd" stroke="#9a32cd" points="537.799,-717.539 533.54,-727.24 542.919,-722.312 537.799,-717.539"/>
<text text-anchor="middle" x="681" y="-580" font-family="Helvetica,sans-Serif" font-size="10.00"> myExecutionParameters</text>
</g>
<!-- Node4 -->
<g id="node4" class="node"><title>Node4</title>
<polygon fill="white" stroke="#bfbfbf" points="173.5,-805.5 173.5,-824.5 244.5,-824.5 244.5,-805.5 173.5,-805.5"/>
<text text-anchor="middle" x="209" y="-812.5" font-family="Helvetica,sans-Serif" font-size="10.00">Observable</text>
</g>
<!-- Node4&#45;&gt;Node3 -->
<g id="edge3" class="edge"><title>Node4&#45;&gt;Node3</title>
<path fill="none" stroke="midnightblue" d="M254.659,-809.689C298.777,-803.802 367.892,-792.851 426,-776 452.953,-768.184 482.706,-755.411 501.837,-746.626"/>
<polygon fill="midnightblue" stroke="midnightblue" points="254.013,-806.243 244.549,-811.007 254.918,-813.184 254.013,-806.243"/>
</g>
<!-- Node5 -->
<g id="node5" class="node"><title>Node5</title>
<polygon fill="white" stroke="#bfbfbf" points="122,-756 122,-786 296,-786 296,-756 122,-756"/>
<text text-anchor="start" x="130" y="-774" font-family="Helvetica,sans-Serif" font-size="10.00">Map&lt; String, model.instructions.</text>
<text text-anchor="middle" x="209" y="-763" font-family="Helvetica,sans-Serif" font-size="10.00">Instruction &gt;</text>
</g>
<!-- Node5&#45;&gt;Node3 -->
<g id="edge4" class="edge"><title>Node5&#45;&gt;Node3</title>
<path fill="none" stroke="#9a32cd" stroke-dasharray="5,2" d="M306.604,-761.637C343.928,-757.894 386.972,-753.426 426,-749 432.926,-748.215 440.129,-747.368 447.338,-746.502"/>
<polygon fill="#9a32cd" stroke="#9a32cd" points="305.839,-758.195 296.237,-762.672 306.535,-765.161 305.839,-758.195"/>
<text text-anchor="middle" x="370" y="-764" font-family="Helvetica,sans-Serif" font-size="10.00"> myUserInstructionMap</text>
</g>
<!-- Node6 -->
<g id="node6" class="node"><title>Node6</title>
<polygon fill="white" stroke="#bfbfbf" points="145,-717.5 145,-736.5 273,-736.5 273,-717.5 145,-717.5"/>
<text text-anchor="middle" x="209" y="-724.5" font-family="Helvetica,sans-Serif" font-size="10.00">Map&lt; String, Double &gt;</text>
</g>
<!-- Node6&#45;&gt;Node3 -->
<g id="edge5" class="edge"><title>Node6&#45;&gt;Node3</title>
<path fill="none" stroke="#9a32cd" stroke-dasharray="5,2" d="M283.23,-729.347C331.637,-730.899 395.011,-732.93 444.303,-734.51"/>
<polygon fill="#9a32cd" stroke="#9a32cd" points="283.245,-725.846 273.138,-729.024 283.021,-732.842 283.245,-725.846"/>
<text text-anchor="middle" x="370" y="-737" font-family="Helvetica,sans-Serif" font-size="10.00"> myVariableMap</text>
</g>
<!-- Node7 -->
<g id="node7" class="node"><title>Node7</title>
<polygon fill="white" stroke="#bfbfbf" points="455,-597 455,-627 591,-627 591,-597 455,-597"/>
<text text-anchor="start" x="463" y="-615" font-family="Helvetica,sans-Serif" font-size="10.00">List&lt; model.instructions.</text>
<text text-anchor="middle" x="523" y="-604" font-family="Helvetica,sans-Serif" font-size="10.00">Instruction &gt;</text>
</g>
<!-- Node7&#45;&gt;Node1 -->
<g id="edge6" class="edge"><title>Node7&#45;&gt;Node1</title>
<path fill="none" stroke="#9a32cd" stroke-dasharray="5,2" d="M601.141,-603.819C607.519,-603.187 613.869,-602.572 620,-602 666.319,-597.676 718.227,-593.368 759.768,-590.052"/>
<polygon fill="#9a32cd" stroke="#9a32cd" points="600.721,-600.343 591.121,-604.823 601.42,-607.308 600.721,-600.343"/>
<text text-anchor="middle" x="681" y="-605" font-family="Helvetica,sans-Serif" font-size="10.00"> myDependencies</text>
</g>
<!-- Node8&#45;&gt;Node1 -->
<g id="edge7" class="edge"><title>Node8&#45;&gt;Node1</title>
<path fill="none" stroke="#9a32cd" stroke-dasharray="5,2" d="M550.902,-362.292C569.834,-371.93 595.982,-384.407 620,-393 672.675,-411.846 701.329,-385.585 742,-424 761.313,-442.242 747.803,-457.399 760,-481 779.464,-518.662 812.703,-556.855 828.768,-574.267"/>
<polygon fill="#9a32cd" stroke="#9a32cd" points="552.46,-359.158 541.968,-357.683 549.25,-365.379 552.46,-359.158"/>
<text text-anchor="middle" x="681" y="-427" font-family="Helvetica,sans-Serif" font-size="10.00"> myView</text>
</g>
<!-- Node8&#45;&gt;Node18 -->
<g id="edge23" class="edge"><title>Node8&#45;&gt;Node18</title>
<path fill="none" stroke="#9a32cd" stroke-dasharray="5,2" d="M578.742,-354.667C638.543,-362.245 727.774,-374.529 742,-382 752.298,-387.408 751.395,-393.173 760,-401 781.493,-420.548 808.601,-440.871 824.544,-452.426"/>
<polygon fill="#9a32cd" stroke="#9a32cd" points="579.037,-351.177 568.678,-353.401 578.163,-358.122 579.037,-351.177"/>
<text text-anchor="middle" x="681" y="-385" font-family="Helvetica,sans-Serif" font-size="10.00"> mySLogoView</text>
</g>
<!-- Node9 -->
<g id="node9" class="node"><title>Node9</title>
<g id="a_node9"><a xlink:href="../../da/d64/classview_1_1_workspace.html" target="_top" xlink:title="view.Workspace">
<polygon fill="white" stroke="black" points="1506,-670.5 1506,-689.5 1596,-689.5 1596,-670.5 1506,-670.5"/>
<text text-anchor="middle" x="1551" y="-677.5" font-family="Helvetica,sans-Serif" font-size="10.00">view.Workspace</text>
</a>
</g>
</g>
<!-- Node9&#45;&gt;Node8 -->
<g id="edge9" class="edge"><title>Node9&#45;&gt;Node8</title>
<path fill="none" stroke="#9a32cd" stroke-dasharray="5,2" d="M1515.73,-666.841C1430.25,-633.975 1200.72,-545.511 1010,-470 890.599,-422.727 867.222,-390.476 742,-362 683.2,-348.628 613.346,-346.466 568.851,-346.748"/>
<polygon fill="#9a32cd" stroke="#9a32cd" points="1514.61,-670.158 1525.2,-670.479 1517.12,-663.624 1514.61,-670.158"/>
<text text-anchor="middle" x="1090" y="-535" font-family="Helvetica,sans-Serif" font-size="10.00"> myWorkspace</text>
</g>
<!-- Node10 -->
<g id="node10" class="node"><title>Node10</title>
<polygon fill="white" stroke="#bfbfbf" points="1317.5,-727.5 1317.5,-746.5 1384.5,-746.5 1384.5,-727.5 1317.5,-727.5"/>
<text text-anchor="middle" x="1351" y="-734.5" font-family="Helvetica,sans-Serif" font-size="10.00">StackPane</text>
</g>
<!-- Node10&#45;&gt;Node9 -->
<g id="edge10" class="edge"><title>Node10&#45;&gt;Node9</title>
<path fill="none" stroke="midnightblue" d="M1394.59,-732.968C1421.84,-729.544 1457.65,-723.46 1488,-713 1505.06,-707.12 1523.12,-697.009 1535.32,-689.525"/>
<polygon fill="midnightblue" stroke="midnightblue" points="1394.11,-729.5 1384.59,-734.153 1394.94,-736.451 1394.11,-729.5"/>
</g>
<!-- Node11 -->
<g id="node11" class="node"><title>Node11</title>
<g id="a_node11"><a xlink:href="../../d8/df7/classview_1_1_turtle_view.html" target="_top" xlink:title="view.TurtleView">
<polygon fill="white" stroke="black" points="1308,-765.5 1308,-784.5 1394,-784.5 1394,-765.5 1308,-765.5"/>
<text text-anchor="middle" x="1351" y="-772.5" font-family="Helvetica,sans-Serif" font-size="10.00">view.TurtleView</text>
</a>
</g>
</g>
<!-- Node11&#45;&gt;Node9 -->
<g id="edge11" class="edge"><title>Node11&#45;&gt;Node9</title>
<path fill="none" stroke="#9a32cd" stroke-dasharray="5,2" d="M1403.87,-765.946C1430.19,-759.937 1462.01,-750.434 1488,-736 1510.06,-723.747 1530.78,-702.28 1541.78,-689.785"/>
<polygon fill="#9a32cd" stroke="#9a32cd" points="1403.1,-762.531 1394.08,-768.08 1404.59,-769.371 1403.1,-762.531"/>
<text text-anchor="middle" x="1450" y="-767" font-family="Helvetica,sans-Serif" font-size="10.00"> myActiveTurtle</text>
</g>
<!-- Node12 -->
<g id="node12" class="node"><title>Node12</title>
<polygon fill="white" stroke="#bfbfbf" points="1056,-765.5 1056,-784.5 1124,-784.5 1124,-765.5 1056,-765.5"/>
<text text-anchor="middle" x="1090" y="-772.5" font-family="Helvetica,sans-Serif" font-size="10.00">ImageView</text>
</g>
<!-- Node12&#45;&gt;Node11 -->
<g id="edge12" class="edge"><title>Node12&#45;&gt;Node11</title>
<path fill="none" stroke="midnightblue" d="M1134.18,-775C1182.37,-775 1259.85,-775 1307.69,-775"/>
<polygon fill="midnightblue" stroke="midnightblue" points="1134.07,-771.5 1124.07,-775 1134.07,-778.5 1134.07,-771.5"/>
</g>
<!-- Node13 -->
<g id="node13" class="node"><title>Node13</title>
<polygon fill="white" stroke="#bfbfbf" points="141,-646 141,-676 277,-676 277,-646 141,-646"/>
<text text-anchor="start" x="149" y="-664" font-family="Helvetica,sans-Serif" font-size="10.00">Map&lt; Integer, view.Turtle</text>
<text text-anchor="middle" x="209" y="-653" font-family="Helvetica,sans-Serif" font-size="10.00">View &gt;</text>
</g>
<!-- Node13&#45;&gt;Node8 -->
<g id="edge41" class="edge"><title>Node13&#45;&gt;Node8</title>
<path fill="none" stroke="#9a32cd" stroke-dasharray="5,2" d="M240.814,-639.942C287.287,-606.68 375.257,-537.622 426,-459 439.49,-438.098 429.356,-426.11 444,-406 459.695,-384.446 485.729,-367.405 503.36,-357.516"/>
<polygon fill="#9a32cd" stroke="#9a32cd" points="238.508,-637.287 232.367,-645.92 242.552,-643.001 238.508,-637.287"/>
<text text-anchor="middle" x="370" y="-581" font-family="Helvetica,sans-Serif" font-size="10.00"> myTurtles</text>
</g>
<!-- Node13&#45;&gt;Node9 -->
<g id="edge13" class="edge"><title>Node13&#45;&gt;Node9</title>
<path fill="none" stroke="#9a32cd" stroke-dasharray="5,2" d="M287.296,-677.654C296.274,-679.277 305.32,-680.773 314,-682 405.84,-694.979 429.247,-699 522,-699 522,-699 522,-699 1352,-699 1405.01,-699 1465.64,-692.169 1505.69,-686.699"/>
<polygon fill="#9a32cd" stroke="#9a32cd" points="287.685,-674.166 277.213,-675.775 286.403,-681.048 287.685,-674.166"/>
<text text-anchor="middle" x="964" y="-702" font-family="Helvetica,sans-Serif" font-size="10.00"> myTurtles</text>
</g>
<!-- Node14 -->
<g id="node14" class="node"><title>Node14</title>
<g id="a_node14"><a xlink:href="../../d1/dc7/classview_1_1_side_bar.html" target="_top" xlink:title="view.SideBar">
<polygon fill="white" stroke="black" points="1312.5,-305.5 1312.5,-324.5 1389.5,-324.5 1389.5,-305.5 1312.5,-305.5"/>
<text text-anchor="middle" x="1351" y="-312.5" font-family="Helvetica,sans-Serif" font-size="10.00">view.SideBar</text>
</a>
</g>
</g>
<!-- Node13&#45;&gt;Node14 -->
<g id="edge25" class="edge"><title>Node13&#45;&gt;Node14</title>
<path fill="none" stroke="#9a32cd" stroke-dasharray="5,2" d="M287.426,-665.846C455.429,-673.417 862.996,-675.732 1170,-547 1228.22,-522.588 1249.98,-519.821 1290,-471 1328.08,-424.548 1343.81,-351.221 1348.43,-324.852"/>
<polygon fill="#9a32cd" stroke="#9a32cd" points="287.345,-662.338 277.191,-665.364 287.016,-669.33 287.345,-662.338"/>
<text text-anchor="middle" x="839" y="-651" font-family="Helvetica,sans-Serif" font-size="10.00"> myTurtles</text>
</g>
<!-- Node14&#45;&gt;Node8 -->
<g id="edge44" class="edge"><title>Node14&#45;&gt;Node8</title>
<path fill="none" stroke="#9a32cd" stroke-dasharray="5,2" d="M1301.9,-308.533C1265.7,-304.005 1214.84,-298.36 1170,-296 925.554,-283.134 861.861,-287.286 620,-325 599.172,-328.248 576.196,-333.684 557.945,-338.456"/>
<polygon fill="#9a32cd" stroke="#9a32cd" points="1301.81,-312.049 1312.17,-309.837 1302.69,-305.105 1301.81,-312.049"/>
<text text-anchor="middle" x="964" y="-293" font-family="Helvetica,sans-Serif" font-size="10.00"> mySidebar</text>
</g>
<!-- Node14&#45;&gt;Node9 -->
<g id="edge14" class="edge"><title>Node14&#45;&gt;Node9</title>
<path fill="none" stroke="#9a32cd" stroke-dasharray="5,2" d="M1370.33,-331.322C1399.36,-358.128 1455.91,-414.382 1488,-473 1526.37,-543.092 1543.81,-639.848 1548.59,-670.374"/>
<polygon fill="#9a32cd" stroke="#9a32cd" points="1372.66,-328.713 1362.91,-324.564 1367.95,-333.887 1372.66,-328.713"/>
<text text-anchor="middle" x="1450" y="-476" font-family="Helvetica,sans-Serif" font-size="10.00"> mySidebar</text>
</g>
<!-- Node27 -->
<g id="node27" class="node"><title>Node27</title>
<g id="a_node27"><a xlink:href="../../da/dc8/classview_1_1_editor.html" target="_top" xlink:title="view.Editor">
<polygon fill="white" stroke="black" points="1517.5,-95.5 1517.5,-114.5 1584.5,-114.5 1584.5,-95.5 1517.5,-95.5"/>
<text text-anchor="middle" x="1551" y="-102.5" font-family="Helvetica,sans-Serif" font-size="10.00">view.Editor</text>
</a>
</g>
</g>
<!-- Node14&#45;&gt;Node27 -->
<g id="edge37" class="edge"><title>Node14&#45;&gt;Node27</title>
<path fill="none" stroke="#9a32cd" stroke-dasharray="5,2" d="M1370.63,-298.569C1397.59,-274.468 1448.56,-227.648 1488,-184 1509.51,-160.197 1532.13,-129.799 1543.15,-114.583"/>
<polygon fill="#9a32cd" stroke="#9a32cd" points="1368.22,-296.029 1363.08,-305.291 1372.88,-301.26 1368.22,-296.029"/>
<text text-anchor="middle" x="1450" y="-264" font-family="Helvetica,sans-Serif" font-size="10.00"> mySidebar</text>
</g>
<!-- Node15 -->
<g id="node15" class="node"><title>Node15</title>
<polygon fill="white" stroke="#bfbfbf" points="1069.5,-191.5 1069.5,-210.5 1110.5,-210.5 1110.5,-191.5 1069.5,-191.5"/>
<text text-anchor="middle" x="1090" y="-198.5" font-family="Helvetica,sans-Serif" font-size="10.00">VBox</text>
</g>
<!-- Node15&#45;&gt;Node14 -->
<g id="edge15" class="edge"><title>Node15&#45;&gt;Node14</title>
<path fill="none" stroke="midnightblue" d="M1120.7,-197.927C1161.89,-195.151 1237.23,-195.58 1290,-228 1320.33,-246.634 1339.15,-286.988 1346.48,-305.442"/>
<polygon fill="midnightblue" stroke="midnightblue" points="1120.21,-194.454 1110.51,-198.727 1120.76,-201.433 1120.21,-194.454"/>
</g>
<!-- Node16 -->
<g id="node16" class="node"><title>Node16</title>
<polygon fill="white" stroke="#bfbfbf" points="162.5,-191.5 162.5,-210.5 255.5,-210.5 255.5,-191.5 162.5,-191.5"/>
<text text-anchor="middle" x="209" y="-198.5" font-family="Helvetica,sans-Serif" font-size="10.00">ResourceBundle</text>
</g>
<!-- Node16&#45;&gt;Node8 -->
<g id="edge31" class="edge"><title>Node16&#45;&gt;Node8</title>
<path fill="none" stroke="#9a32cd" stroke-dasharray="5,2" d="M265.746,-212.328C310.803,-222.919 374.91,-241.303 426,-269 461.674,-288.34 496.725,-321.879 512.829,-338.333"/>
<polygon fill="#9a32cd" stroke="#9a32cd" points="266.393,-208.886 255.864,-210.058 264.826,-215.708 266.393,-208.886"/>
<text text-anchor="middle" x="370" y="-272" font-family="Helvetica,sans-Serif" font-size="10.00"> myResources</text>
</g>
<!-- Node16&#45;&gt;Node14 -->
<g id="edge16" class="edge"><title>Node16&#45;&gt;Node14</title>
<path fill="none" stroke="#9a32cd" stroke-dasharray="5,2" d="M265.509,-190.118C327.708,-178.888 431.673,-163 522,-163 522,-163 522,-163 965,-163 1110.43,-163 1171.78,-116.303 1290,-201 1326.73,-227.312 1342.85,-283.079 1348.02,-305.435"/>
<polygon fill="#9a32cd" stroke="#9a32cd" points="264.726,-186.703 255.519,-191.946 265.986,-193.589 264.726,-186.703"/>
<text text-anchor="middle" x="839" y="-166" font-family="Helvetica,sans-Serif" font-size="10.00"> myResources</text>
</g>
<!-- Node17 -->
<g id="node17" class="node"><title>Node17</title>
<g id="a_node17"><a xlink:href="../../d4/dd9/classcontroller_1_1_s_logo_controller.html" target="_top" xlink:title="controller.SLogoController">
<polygon fill="white" stroke="black" points="1020,-305.5 1020,-324.5 1160,-324.5 1160,-305.5 1020,-305.5"/>
<text text-anchor="middle" x="1090" y="-312.5" font-family="Helvetica,sans-Serif" font-size="10.00">controller.SLogoController</text>
</a>
</g>
</g>
<!-- Node17&#45;&gt;Node8 -->
<g id="edge39" class="edge"><title>Node17&#45;&gt;Node8</title>
<path fill="none" stroke="#9a32cd" stroke-dasharray="5,2" d="M1009.56,-317.099C916.194,-319.943 756.657,-325.978 620,-337 603.279,-338.349 584.972,-340.322 568.871,-342.227"/>
<polygon fill="#9a32cd" stroke="#9a32cd" points="1009.88,-320.591 1019.77,-316.793 1009.67,-313.594 1009.88,-320.591"/>
<text text-anchor="middle" x="839" y="-331" font-family="Helvetica,sans-Serif" font-size="10.00"> myController</text>
</g>
<!-- Node17&#45;&gt;Node14 -->
<g id="edge17" class="edge"><title>Node17&#45;&gt;Node14</title>
<path fill="none" stroke="#9a32cd" stroke-dasharray="5,2" d="M1170.28,-315C1217.51,-315 1275.28,-315 1312.36,-315"/>
<polygon fill="#9a32cd" stroke="#9a32cd" points="1170.07,-311.5 1160.07,-315 1170.07,-318.5 1170.07,-311.5"/>
<text text-anchor="middle" x="1239" y="-318" font-family="Helvetica,sans-Serif" font-size="10.00"> myController</text>
</g>
<!-- Node17&#45;&gt;Node27 -->
<g id="edge35" class="edge"><title>Node17&#45;&gt;Node27</title>
<path fill="none" stroke="#9a32cd" stroke-dasharray="5,2" d="M1116.91,-300.104C1133.43,-289.745 1154.55,-274.813 1170,-258 1180.52,-246.55 1175.72,-237.545 1188,-228 1297.89,-142.551 1359.26,-190.961 1488,-138 1504.24,-131.32 1521.83,-121.713 1534.11,-114.586"/>
<polygon fill="#9a32cd" stroke="#9a32cd" points="1114.99,-297.177 1108.27,-305.371 1118.63,-303.153 1114.99,-297.177"/>
<text text-anchor="middle" x="1351" y="-177" font-family="Helvetica,sans-Serif" font-size="10.00"> myController</text>
</g>
<!-- Node18&#45;&gt;Node17 -->
<g id="edge18" class="edge"><title>Node18&#45;&gt;Node17</title>
<path fill="none" stroke="#9a32cd" stroke-dasharray="5,2" d="M857.021,-445.305C885.959,-417.875 947.692,-363.387 1010,-334 1018.17,-330.149 1027.19,-327.036 1036.12,-324.532"/>
<polygon fill="#9a32cd" stroke="#9a32cd" points="854.545,-442.831 849.755,-452.281 859.393,-447.88 854.545,-442.831"/>
<text text-anchor="middle" x="964" y="-380" font-family="Helvetica,sans-Serif" font-size="10.00"> myParser</text>
</g>
<!-- Node19 -->
<g id="node19" class="node"><title>Node19</title>
<polygon fill="white" stroke="#bfbfbf" points="467,-416 467,-446 579,-446 579,-416 467,-416"/>
<text text-anchor="start" x="475" y="-434" font-family="Helvetica,sans-Serif" font-size="10.00">List&lt; Entry&lt; String,</text>
<text text-anchor="middle" x="523" y="-423" font-family="Helvetica,sans-Serif" font-size="10.00"> Pattern &gt; &gt;</text>
</g>
<!-- Node19&#45;&gt;Node18 -->
<g id="edge20" class="edge"><title>Node19&#45;&gt;Node18</title>
<path fill="none" stroke="#9a32cd" stroke-dasharray="5,2" d="M589.284,-436.048C632.626,-439.557 690.762,-444.567 742,-450 760.707,-451.984 781.42,-454.529 798.804,-456.764"/>
<polygon fill="#9a32cd" stroke="#9a32cd" points="589.404,-432.547 579.156,-435.233 588.843,-439.524 589.404,-432.547"/>
<text text-anchor="middle" x="681" y="-453" font-family="Helvetica,sans-Serif" font-size="10.00"> myPatterns</text>
</g>
<!-- Node20 -->
<g id="node20" class="node"><title>Node20</title>
<polygon fill="white" stroke="#bfbfbf" points="462,-503.5 462,-522.5 584,-522.5 584,-503.5 462,-503.5"/>
<text text-anchor="middle" x="523" y="-510.5" font-family="Helvetica,sans-Serif" font-size="10.00">Map&lt; String, String &gt;</text>
</g>
<!-- Node20&#45;&gt;Node18 -->
<g id="edge22" class="edge"><title>Node20&#45;&gt;Node18</title>
<path fill="none" stroke="#9a32cd" stroke-dasharray="5,2" d="M594.497,-506.468C637.349,-501.953 693.06,-495.113 742,-486 762.774,-482.132 785.747,-476.44 804.01,-471.57"/>
<polygon fill="#9a32cd" stroke="#9a32cd" points="594.034,-502.997 584.448,-507.509 594.756,-509.96 594.034,-502.997"/>
<text text-anchor="middle" x="681" y="-507" font-family="Helvetica,sans-Serif" font-size="10.00"> myCommandMap</text>
</g>
<!-- Node21 -->
<g id="node21" class="node"><title>Node21</title>
<polygon fill="white" stroke="#bfbfbf" points="1023,-431 1023,-461 1157,-461 1157,-431 1023,-431"/>
<text text-anchor="start" x="1031" y="-449" font-family="Helvetica,sans-Serif" font-size="10.00">TableView&lt; view.Variable</text>
<text text-anchor="middle" x="1090" y="-438" font-family="Helvetica,sans-Serif" font-size="10.00">View &gt;</text>
</g>
<!-- Node21&#45;&gt;Node14 -->
<g id="edge24" class="edge"><title>Node21&#45;&gt;Node14</title>
<path fill="none" stroke="#9a32cd" stroke-dasharray="5,2" d="M1167.54,-446.991C1207.03,-444.112 1254.28,-435.081 1290,-411 1321.94,-389.467 1340.14,-344.633 1346.92,-324.8"/>
<polygon fill="#9a32cd" stroke="#9a32cd" points="1167.18,-443.506 1157.42,-447.609 1167.61,-450.493 1167.18,-443.506"/>
<text text-anchor="middle" x="1239" y="-459" font-family="Helvetica,sans-Serif" font-size="10.00"> turtlePropertiesTable</text>
<text text-anchor="middle" x="1239" y="-448" font-family="Helvetica,sans-Serif" font-size="10.00">variablesTable</text>
</g>
<!-- Node22 -->
<g id="node22" class="node"><title>Node22</title>
<polygon fill="white" stroke="#bfbfbf" points="1010.5,-382 1010.5,-412 1169.5,-412 1169.5,-382 1010.5,-382"/>
<text text-anchor="start" x="1018.5" y="-400" font-family="Helvetica,sans-Serif" font-size="10.00">ObservableList&lt; view.Variable</text>
<text text-anchor="middle" x="1090" y="-389" font-family="Helvetica,sans-Serif" font-size="10.00">View &gt;</text>
</g>
<!-- Node22&#45;&gt;Node14 -->
<g id="edge26" class="edge"><title>Node22&#45;&gt;Node14</title>
<path fill="none" stroke="#9a32cd" stroke-dasharray="5,2" d="M1180.04,-396.336C1215.62,-393.205 1256.1,-385.895 1290,-370 1312.52,-359.443 1332.43,-337.406 1342.68,-324.663"/>
<polygon fill="#9a32cd" stroke="#9a32cd" points="1179.36,-392.879 1169.66,-397.146 1179.9,-399.858 1179.36,-392.879"/>
<text text-anchor="middle" x="1239" y="-399" font-family="Helvetica,sans-Serif" font-size="10.00"> variablesList</text>
</g>
<!-- Node23 -->
<g id="node23" class="node"><title>Node23</title>
<polygon fill="white" stroke="#bfbfbf" points="1021,-343.5 1021,-362.5 1159,-362.5 1159,-343.5 1021,-343.5"/>
<text text-anchor="middle" x="1090" y="-350.5" font-family="Helvetica,sans-Serif" font-size="10.00">ObservableList&lt; String &gt;</text>
</g>
<!-- Node23&#45;&gt;Node14 -->
<g id="edge27" class="edge"><title>Node23&#45;&gt;Node14</title>
<path fill="none" stroke="#9a32cd" stroke-dasharray="5,2" d="M1169.19,-346.333C1206.01,-342.589 1250.44,-337.2 1290,-330 1298.13,-328.52 1306.8,-326.573 1314.95,-324.574"/>
<polygon fill="#9a32cd" stroke="#9a32cd" points="1168.62,-342.872 1159.02,-347.345 1169.32,-349.837 1168.62,-342.872"/>
<text text-anchor="middle" x="1239" y="-358" font-family="Helvetica,sans-Serif" font-size="10.00"> commandItems</text>
<text text-anchor="middle" x="1239" y="-347" font-family="Helvetica,sans-Serif" font-size="10.00">historyItems</text>
</g>
<!-- Node24 -->
<g id="node24" class="node"><title>Node24</title>
<polygon fill="white" stroke="#bfbfbf" points="1037,-229.5 1037,-248.5 1143,-248.5 1143,-229.5 1037,-229.5"/>
<text text-anchor="middle" x="1090" y="-236.5" font-family="Helvetica,sans-Serif" font-size="10.00">ListView&lt; String &gt;</text>
</g>
<!-- Node24&#45;&gt;Node14 -->
<g id="edge28" class="edge"><title>Node24&#45;&gt;Node14</title>
<path fill="none" stroke="#9a32cd" stroke-dasharray="5,2" d="M1153.09,-231.74C1193.87,-229.629 1247.36,-232.054 1290,-252 1314.9,-263.647 1334.72,-290.576 1344.1,-305.171"/>
<polygon fill="#9a32cd" stroke="#9a32cd" points="1152.77,-228.253 1143.01,-232.366 1153.21,-235.239 1152.77,-228.253"/>
<text text-anchor="middle" x="1239" y="-255" font-family="Helvetica,sans-Serif" font-size="10.00"> historyList</text>
</g>
<!-- Node25 -->
<g id="node25" class="node"><title>Node25</title>
<polygon fill="white" stroke="#bfbfbf" points="1319.5,-651.5 1319.5,-670.5 1382.5,-670.5 1382.5,-651.5 1319.5,-651.5"/>
<text text-anchor="middle" x="1351" y="-658.5" font-family="Helvetica,sans-Serif" font-size="10.00">Rectangle</text>
</g>
<!-- Node25&#45;&gt;Node9 -->
<g id="edge29" class="edge"><title>Node25&#45;&gt;Node9</title>
<path fill="none" stroke="#9a32cd" stroke-dasharray="5,2" d="M1392.76,-664.883C1419.78,-667.461 1456.01,-670.923 1488,-674 1493.81,-674.559 1499.93,-675.149 1505.97,-675.733"/>
<polygon fill="#9a32cd" stroke="#9a32cd" points="1392.81,-661.372 1382.52,-663.907 1392.14,-668.341 1392.81,-661.372"/>
<text text-anchor="middle" x="1450" y="-677" font-family="Helvetica,sans-Serif" font-size="10.00"> myBackground</text>
</g>
<!-- Node26 -->
<g id="node26" class="node"><title>Node26</title>
<polygon fill="white" stroke="#bfbfbf" points="186.5,-414.5 186.5,-433.5 231.5,-433.5 231.5,-414.5 186.5,-414.5"/>
<text text-anchor="middle" x="209" y="-421.5" font-family="Helvetica,sans-Serif" font-size="10.00">Stage</text>
</g>
<!-- Node26&#45;&gt;Node8 -->
<g id="edge30" class="edge"><title>Node26&#45;&gt;Node8</title>
<path fill="none" stroke="#9a32cd" stroke-dasharray="5,2" d="M241.612,-421.848C284.216,-418.347 362.092,-409.818 426,-391 454.555,-382.592 485.667,-367.458 504.502,-357.572"/>
<polygon fill="#9a32cd" stroke="#9a32cd" points="241.267,-418.365 231.57,-422.633 241.813,-425.343 241.267,-418.365"/>
<text text-anchor="middle" x="370" y="-417" font-family="Helvetica,sans-Serif" font-size="10.00"> myStage</text>
</g>
<!-- Node27&#45;&gt;Node8 -->
<g id="edge32" class="edge"><title>Node27&#45;&gt;Node8</title>
<path fill="none" stroke="#9a32cd" stroke-dasharray="5,2" d="M1507.26,-109.068C1396.99,-119.751 1104.87,-149.272 1010,-171 831.486,-211.883 790.125,-236.206 620,-304 592.92,-314.791 562.446,-329.151 543.24,-338.484"/>
<polygon fill="#9a32cd" stroke="#9a32cd" points="1507.74,-112.539 1517.35,-108.094 1507.06,-105.572 1507.74,-112.539"/>
<text text-anchor="middle" x="1090" y="-174" font-family="Helvetica,sans-Serif" font-size="10.00"> myEditor</text>
</g>
<!-- Node28 -->
<g id="node28" class="node"><title>Node28</title>
<polygon fill="white" stroke="#bfbfbf" points="1330,-38.5 1330,-57.5 1372,-57.5 1372,-38.5 1330,-38.5"/>
<text text-anchor="middle" x="1351" y="-45.5" font-family="Helvetica,sans-Serif" font-size="10.00">HBox</text>
</g>
<!-- Node28&#45;&gt;Node27 -->
<g id="edge33" class="edge"><title>Node28&#45;&gt;Node27</title>
<path fill="none" stroke="midnightblue" d="M1382.11,-56.6692C1418.62,-67.1779 1479.9,-84.8191 1517.46,-95.6325"/>
<polygon fill="midnightblue" stroke="midnightblue" points="1382.65,-53.1822 1372.07,-53.7791 1380.72,-59.9091 1382.65,-53.1822"/>
</g>
<!-- Node29 -->
<g id="node29" class="node"><title>Node29</title>
<polygon fill="white" stroke="#bfbfbf" points="1326.5,-0.5 1326.5,-19.5 1375.5,-19.5 1375.5,-0.5 1326.5,-0.5"/>
<text text-anchor="middle" x="1351" y="-7.5" font-family="Helvetica,sans-Serif" font-size="10.00">Button</text>
</g>
<!-- Node29&#45;&gt;Node27 -->
<g id="edge34" class="edge"><title>Node29&#45;&gt;Node27</title>
<path fill="none" stroke="#9a32cd" stroke-dasharray="5,2" d="M1385.65,-16.3767C1414.14,-22.6941 1455.42,-34.0567 1488,-52 1509.33,-63.75 1529.99,-83.636 1541.25,-95.4211"/>
<polygon fill="#9a32cd" stroke="#9a32cd" points="1386.28,-12.933 1375.77,-14.2747 1384.82,-19.7796 1386.28,-12.933"/>
<text text-anchor="middle" x="1450" y="-55" font-family="Helvetica,sans-Serif" font-size="10.00"> runButton</text>
</g>
<!-- Node30 -->
<g id="node30" class="node"><title>Node30</title>
<polygon fill="white" stroke="#bfbfbf" points="1322,-76.5 1322,-95.5 1380,-95.5 1380,-76.5 1322,-76.5"/>
<text text-anchor="middle" x="1351" y="-83.5" font-family="Helvetica,sans-Serif" font-size="10.00">TextArea</text>
</g>
<!-- Node30&#45;&gt;Node27 -->
<g id="edge36" class="edge"><title>Node30&#45;&gt;Node27</title>
<path fill="none" stroke="#9a32cd" stroke-dasharray="5,2" d="M1390.41,-89.6591C1417.65,-92.2574 1455.07,-95.8326 1488,-99 1497.47,-99.9111 1507.76,-100.905 1517.18,-101.817"/>
<polygon fill="#9a32cd" stroke="#9a32cd" points="1390.42,-86.1444 1380.13,-88.6793 1389.75,-93.1128 1390.42,-86.1444"/>
<text text-anchor="middle" x="1450" y="-102" font-family="Helvetica,sans-Serif" font-size="10.00"> textEditor</text>
</g>
<!-- Node31 -->
<g id="node31" class="node"><title>Node31</title>
<polygon fill="white" stroke="#bfbfbf" points="149.5,-376.5 149.5,-395.5 268.5,-395.5 268.5,-376.5 149.5,-376.5"/>
<text text-anchor="middle" x="209" y="-383.5" font-family="Helvetica,sans-Serif" font-size="10.00">Map&lt; String, Node &gt;</text>
</g>
<!-- Node31&#45;&gt;Node8 -->
<g id="edge38" class="edge"><title>Node31&#45;&gt;Node8</title>
<path fill="none" stroke="#9a32cd" stroke-dasharray="5,2" d="M278.721,-379.548C321.215,-375.344 376.845,-369.453 426,-363 442.725,-360.804 461.032,-358.035 477.134,-355.476"/>
<polygon fill="#9a32cd" stroke="#9a32cd" points="278.375,-376.065 268.765,-380.526 279.059,-383.032 278.375,-376.065"/>
<text text-anchor="middle" x="370" y="-379" font-family="Helvetica,sans-Serif" font-size="10.00"> variables</text>
</g>
<!-- Node32 -->
<g id="node32" class="node"><title>Node32</title>
<polygon fill="white" stroke="#bfbfbf" points="168.5,-338.5 168.5,-357.5 249.5,-357.5 249.5,-338.5 168.5,-338.5"/>
<text text-anchor="middle" x="209" y="-345.5" font-family="Helvetica,sans-Serif" font-size="10.00">Dimension2D</text>
</g>
<!-- Node32&#45;&gt;Node8 -->
<g id="edge40" class="edge"><title>Node32&#45;&gt;Node8</title>
<path fill="none" stroke="#9a32cd" stroke-dasharray="5,2" d="M259.872,-348C319.863,-348 419.669,-348 477.269,-348"/>
<polygon fill="#9a32cd" stroke="#9a32cd" points="259.515,-344.5 249.515,-348 259.515,-351.5 259.515,-344.5"/>
<text text-anchor="middle" x="370" y="-351" font-family="Helvetica,sans-Serif" font-size="10.00"> myDimensions</text>
</g>
<!-- Node33 -->
<g id="node33" class="node"><title>Node33</title>
<g id="a_node33"><a xlink:href="../../de/d0a/classview_1_1_drawer.html" target="_top" xlink:title="view.Drawer">
<polygon fill="white" stroke="black" points="172.5,-300.5 172.5,-319.5 245.5,-319.5 245.5,-300.5 172.5,-300.5"/>
<text text-anchor="middle" x="209" y="-307.5" font-family="Helvetica,sans-Serif" font-size="10.00">view.Drawer</text>
</a>
</g>
</g>
<!-- Node33&#45;&gt;Node8 -->
<g id="edge42" class="edge"><title>Node33&#45;&gt;Node8</title>
<path fill="none" stroke="#9a32cd" stroke-dasharray="5,2" d="M255.654,-314.207C299.425,-318.396 367.326,-325.297 426,-333 442.725,-335.196 461.032,-337.965 477.134,-340.524"/>
<polygon fill="#9a32cd" stroke="#9a32cd" points="255.895,-310.715 245.609,-313.253 255.234,-317.683 255.895,-310.715"/>
<text text-anchor="middle" x="370" y="-336" font-family="Helvetica,sans-Serif" font-size="10.00"> drawer</text>
</g>
<!-- Node34 -->
<g id="node34" class="node"><title>Node34</title>
<polygon fill="white" stroke="#bfbfbf" points="0.5,-300.5 0.5,-319.5 41.5,-319.5 41.5,-300.5 0.5,-300.5"/>
<text text-anchor="middle" x="21" y="-307.5" font-family="Helvetica,sans-Serif" font-size="10.00">Color</text>
</g>
<!-- Node34&#45;&gt;Node33 -->
<g id="edge43" class="edge"><title>Node34&#45;&gt;Node33</title>
<path fill="none" stroke="#9a32cd" stroke-dasharray="5,2" d="M51.8575,-310C84.6426,-310 137.265,-310 172.23,-310"/>
<polygon fill="#9a32cd" stroke="#9a32cd" points="51.5537,-306.5 41.5537,-310 51.5537,-313.5 51.5537,-306.5"/>
<text text-anchor="middle" x="82" y="-313" font-family="Helvetica,sans-Serif" font-size="10.00"> myColor</text>
</g>
<!-- Node35 -->
<g id="node35" class="node"><title>Node35</title>
<polygon fill="white" stroke="#bfbfbf" points="186,-262.5 186,-281.5 232,-281.5 232,-262.5 186,-262.5"/>
<text text-anchor="middle" x="209" y="-269.5" font-family="Helvetica,sans-Serif" font-size="10.00">Group</text>
</g>
<!-- Node35&#45;&gt;Node8 -->
<g id="edge45" class="edge"><title>Node35&#45;&gt;Node8</title>
<path fill="none" stroke="#9a32cd" stroke-dasharray="5,2" d="M242.261,-274.482C284.981,-278.353 362.344,-287.401 426,-306 454.114,-314.214 484.836,-328.708 503.766,-338.335"/>
<polygon fill="#9a32cd" stroke="#9a32cd" points="242.441,-270.985 232.175,-273.607 241.835,-277.958 242.441,-270.985"/>
<text text-anchor="middle" x="370" y="-309" font-family="Helvetica,sans-Serif" font-size="10.00"> lines</text>
</g>
</g>
</svg>
        <g id="navigator" transform="translate(0 0)" fill="#404254">
                <rect fill="#f2f5e9" fill-opacity="0.5" stroke="#606060" stroke-width=".5" x="0" y="0" width="60" height="60"/>
                <use id="zoomplus" xlink:href="#zoomPlus" x="17" y="9" onmousedown="handleZoom(evt,'in')"/>
                <use id="zoomminus" xlink:href="#zoomMin" x="42" y="9" onmousedown="handleZoom(evt,'out')"/>
                <use id="reset" xlink:href="#resetDef" x="30" y="36" onmousedown="handleReset()"/>
                <g id="arrowUp" xlink:href="#dirArrow" transform="translate(30 24)" onmousedown="handlePan(0,-1)">
                  <use xlink:href="#rim" fill="#404040">
                        <set attributeName="fill" to="#808080" begin="arrowUp.mouseover" end="arrowUp.mouseout"/>
                  </use>
                  <path fill="none" stroke="white" stroke-width="1.5" d="M0,-3.0v7 M-2.5,-0.5L0,-3.0L2.5,-0.5"/>
                </g>
                <g id="arrowRight" xlink:href="#dirArrow" transform="rotate(90) translate(36 -43)" onmousedown="handlePan(1,0)">
                  <use xlink:href="#rim" fill="#404040">
                        <set attributeName="fill" to="#808080" begin="arrowRight.mouseover" end="arrowRight.mouseout"/>
                  </use>
                  <path fill="none" stroke="white" stroke-width="1.5" d="M0,-3.0v7 M-2.5,-0.5L0,-3.0L2.5,-0.5"/>
                </g>
                <g id="arrowDown" xlink:href="#dirArrow" transform="rotate(180) translate(-30 -48)" onmousedown="handlePan(0,1)">
                  <use xlink:href="#rim" fill="#404040">
                        <set attributeName="fill" to="#808080" begin="arrowDown.mouseover" end="arrowDown.mouseout"/>
                  </use>
                  <path fill="none" stroke="white" stroke-width="1.5" d="M0,-3.0v7 M-2.5,-0.5L0,-3.0L2.5,-0.5"/>
                </g>
                <g id="arrowLeft" xlink:href="#dirArrow" transform="rotate(270) translate(-36 17)" onmousedown="handlePan(-1,0)">
                  <use xlink:href="#rim" fill="#404040">
                        <set attributeName="fill" to="#808080" begin="arrowLeft.mouseover" end="arrowLeft.mouseout"/>
                  </use>
                  <path fill="none" stroke="white" stroke-width="1.5" d="M0,-3.0v7 M-2.5,-0.5L0,-3.0L2.5,-0.5"/>
                </g>
        </g>
        <svg viewBox="0 0 15 15" width="100%" height="30px" preserveAspectRatio="xMaxYMin meet">
         <g id="arrow_out" transform="scale(0.3 0.3)">
          <a xlink:href="classmodel_1_1instructions_1_1_instruction__coll__graph_org.svg" target="_base">
           <rect id="button" ry="5" rx="5" y="6" x="6" height="38" width="38"
                fill="#f2f5e9" fill-opacity="0.5" stroke="#606060" stroke-width="1.0"/>
           <path id="arrow"
             d="M 11.500037,31.436501 C 11.940474,20.09759 22.043105,11.32322 32.158766,21.979434 L 37.068811,17.246167 C 37.068811,17.246167 37.088388,32 37.088388,32 L 22.160133,31.978069 C 22.160133,31.978069 26.997745,27.140456 26.997745,27.140456 C 18.528582,18.264221 13.291696,25.230495 11.500037,31.436501 z"
             style="fill:#404040;"/>
          </a>
         </g>
        </svg>
</svg>
