<?xml version="1.0" encoding="UTF-8" standalone="no"?>
<!DOCTYPE svg PUBLIC "-//W3C//DTD SVG 1.1//EN"
 "http://www.w3.org/Graphics/SVG/1.1/DTD/svg11.dtd">
<!-- Generated by graphviz version 2.36.0 (20140111.2315)
 -->
<!-- Title: model.instructions.Instruction Pages: 1 -->
<svg width="1476pt" height="723pt"
 viewBox="0.00 0.00 1476.00 723.00" xmlns="http://www.w3.org/2000/svg" xmlns:xlink="http://www.w3.org/1999/xlink">
<g id="graph0" class="graph" transform="scale(1 1) rotate(0) translate(4 719)">
<title>model.instructions.Instruction</title>
<polygon fill="white" stroke="none" points="-4,4 -4,-719 1472,-719 1472,4 -4,4"/>
<!-- Node1 -->
<g id="node1" class="node"><title>Node1</title>
<polygon fill="#bfbfbf" stroke="black" points="646,-84.5 646,-103.5 804,-103.5 804,-84.5 646,-84.5"/>
<text text-anchor="middle" x="725" y="-91.5" font-family="Helvetica,sans-Serif" font-size="10.00">model.instructions.Instruction</text>
</g>
<!-- Node2 -->
<g id="node2" class="node"><title>Node2</title>
<polygon fill="white" stroke="#bfbfbf" points="57,-243.5 57,-262.5 117,-262.5 117,-243.5 57,-243.5"/>
<text text-anchor="middle" x="87" y="-250.5" font-family="Helvetica,sans-Serif" font-size="10.00">Observer</text>
</g>
<!-- Node2&#45;&gt;Node1 -->
<g id="edge1" class="edge"><title>Node2&#45;&gt;Node1</title>
<path fill="none" stroke="midnightblue" d="M122.639,-239.853C192.558,-213.821 356.009,-155.514 498,-124 546.59,-113.216 601.975,-105.788 645.756,-101.021"/>
<polygon fill="midnightblue" stroke="midnightblue" points="121.155,-236.671 113.015,-243.453 123.608,-243.228 121.155,-236.671"/>
</g>
<!-- Node8 -->
<g id="node8" class="node"><title>Node8</title>
<g id="a_node8"><a xlink:href="../../d6/de7/classview_1_1_s_logo_view.html" target="_top" xlink:title="view.SLogoView">
<polygon fill="white" stroke="black" points="355.5,-308.5 355.5,-327.5 446.5,-327.5 446.5,-308.5 355.5,-308.5"/>
<text text-anchor="middle" x="401" y="-315.5" font-family="Helvetica,sans-Serif" font-size="10.00">view.SLogoView</text>
</a>
</g>
</g>
<!-- Node2&#45;&gt;Node8 -->
<g id="edge8" class="edge"><title>Node2&#45;&gt;Node8</title>
<path fill="none" stroke="midnightblue" d="M126.972,-261.119C185.115,-273.232 294.268,-295.973 355.478,-308.725"/>
<polygon fill="midnightblue" stroke="midnightblue" points="127.576,-257.67 117.072,-259.057 126.148,-264.523 127.576,-257.67"/>
</g>
<!-- Node19 -->
<g id="node19" class="node"><title>Node19</title>
<g id="a_node19"><a xlink:href="../../dc/df5/classmodel_1_1_parser.html" target="_top" xlink:title="model.Parser">
<polygon fill="white" stroke="black" points="685,-256.5 685,-275.5 765,-275.5 765,-256.5 685,-256.5"/>
<text text-anchor="middle" x="725" y="-263.5" font-family="Helvetica,sans-Serif" font-size="10.00">model.Parser</text>
</a>
</g>
</g>
<!-- Node2&#45;&gt;Node19 -->
<g id="edge21" class="edge"><title>Node2&#45;&gt;Node19</title>
<path fill="none" stroke="midnightblue" d="M127.441,-253.806C241.516,-256.138 570.921,-262.871 684.752,-265.198"/>
<polygon fill="midnightblue" stroke="midnightblue" points="127.47,-250.306 117.4,-253.601 127.326,-257.305 127.47,-250.306"/>
</g>
<!-- Node3 -->
<g id="node3" class="node"><title>Node3</title>
<g id="a_node3"><a xlink:href="../../d1/dca/classmodel_1_1_execution_environment.html" target="_top" xlink:title="model.ExecutionEnvironment">
<polygon fill="white" stroke="black" points="322.5,-65.5 322.5,-84.5 479.5,-84.5 479.5,-65.5 322.5,-65.5"/>
<text text-anchor="middle" x="401" y="-72.5" font-family="Helvetica,sans-Serif" font-size="10.00">model.ExecutionEnvironment</text>
</a>
</g>
</g>
<!-- Node3&#45;&gt;Node1 -->
<g id="edge2" class="edge"><title>Node3&#45;&gt;Node1</title>
<path fill="none" stroke="#9a32cd" stroke-dasharray="5,2" d="M489.926,-78.2219C529.674,-79.8872 577.224,-82.1692 620,-85 628.409,-85.5565 637.194,-86.2077 645.942,-86.901"/>
<polygon fill="#9a32cd" stroke="#9a32cd" points="489.867,-74.7166 479.731,-77.8011 489.578,-81.7106 489.867,-74.7166"/>
<text text-anchor="middle" x="559" y="-88" font-family="Helvetica,sans-Serif" font-size="10.00"> myEnvironment</text>
</g>
<!-- Node3&#45;&gt;Node19 -->
<g id="edge23" class="edge"><title>Node3&#45;&gt;Node19</title>
<path fill="none" stroke="#9a32cd" stroke-dasharray="5,2" d="M418.894,-92.1081C437.234,-110.055 467.942,-138.335 498,-158 566.049,-202.52 655.273,-239.626 698.426,-256.395"/>
<polygon fill="#9a32cd" stroke="#9a32cd" points="420.949,-89.2163 411.385,-84.6575 416.019,-94.1854 420.949,-89.2163"/>
<text text-anchor="middle" x="559" y="-226" font-family="Helvetica,sans-Serif" font-size="10.00"> myExecutionParameters</text>
</g>
<!-- Node4 -->
<g id="node4" class="node"><title>Node4</title>
<polygon fill="white" stroke="#bfbfbf" points="51.5,-0.5 51.5,-19.5 122.5,-19.5 122.5,-0.5 51.5,-0.5"/>
<text text-anchor="middle" x="87" y="-7.5" font-family="Helvetica,sans-Serif" font-size="10.00">Observable</text>
</g>
<!-- Node4&#45;&gt;Node3 -->
<g id="edge3" class="edge"><title>Node4&#45;&gt;Node3</title>
<path fill="none" stroke="midnightblue" d="M132.884,-18.5447C176.626,-26.9643 244.983,-40.3661 304,-53 322.225,-56.9014 342.334,-61.4689 359.419,-65.428"/>
<polygon fill="midnightblue" stroke="midnightblue" points="133.336,-15.0677 122.855,-16.6188 132.016,-21.9421 133.336,-15.0677"/>
</g>
<!-- Node5 -->
<g id="node5" class="node"><title>Node5</title>
<polygon fill="white" stroke="#bfbfbf" points="0,-77 0,-107 174,-107 174,-77 0,-77"/>
<text text-anchor="start" x="8" y="-95" font-family="Helvetica,sans-Serif" font-size="10.00">Map&lt; String, model.instructions.</text>
<text text-anchor="middle" x="87" y="-84" font-family="Helvetica,sans-Serif" font-size="10.00">Instruction &gt;</text>
</g>
<!-- Node5&#45;&gt;Node3 -->
<g id="edge4" class="edge"><title>Node5&#45;&gt;Node3</title>
<path fill="none" stroke="#9a32cd" stroke-dasharray="5,2" d="M184.305,-86.7526C228.685,-84.3345 280.655,-81.5028 322.461,-79.2249"/>
<polygon fill="#9a32cd" stroke="#9a32cd" points="183.876,-83.2707 174.081,-87.3097 184.257,-90.2603 183.876,-83.2707"/>
<text text-anchor="middle" x="248" y="-90" font-family="Helvetica,sans-Serif" font-size="10.00"> myUserInstructionMap</text>
</g>
<!-- Node6 -->
<g id="node6" class="node"><title>Node6</title>
<polygon fill="white" stroke="#bfbfbf" points="23,-38.5 23,-57.5 151,-57.5 151,-38.5 23,-38.5"/>
<text text-anchor="middle" x="87" y="-45.5" font-family="Helvetica,sans-Serif" font-size="10.00">Map&lt; String, Double &gt;</text>
</g>
<!-- Node6&#45;&gt;Node3 -->
<g id="edge5" class="edge"><title>Node6&#45;&gt;Node3</title>
<path fill="none" stroke="#9a32cd" stroke-dasharray="5,2" d="M161.434,-53.9301C203.232,-57.3529 256.559,-61.7996 304,-66 310.003,-66.5315 316.216,-67.0915 322.461,-67.6614"/>
<polygon fill="#9a32cd" stroke="#9a32cd" points="161.592,-50.4314 151.34,-53.105 161.021,-57.4081 161.592,-50.4314"/>
<text text-anchor="middle" x="248" y="-69" font-family="Helvetica,sans-Serif" font-size="10.00"> myVariableMap</text>
</g>
<!-- Node7 -->
<g id="node7" class="node"><title>Node7</title>
<polygon fill="white" stroke="#bfbfbf" points="333,-16 333,-46 469,-46 469,-16 333,-16"/>
<text text-anchor="start" x="341" y="-34" font-family="Helvetica,sans-Serif" font-size="10.00">List&lt; model.instructions.</text>
<text text-anchor="middle" x="401" y="-23" font-family="Helvetica,sans-Serif" font-size="10.00">Instruction &gt;</text>
</g>
<!-- Node7&#45;&gt;Node1 -->
<g id="edge6" class="edge"><title>Node7&#45;&gt;Node1</title>
<path fill="none" stroke="#9a32cd" stroke-dasharray="5,2" d="M479.335,-40.2044C521.213,-45.8158 573.71,-53.8655 620,-64 645.516,-69.5864 673.984,-77.9508 694.676,-84.4295"/>
<polygon fill="#9a32cd" stroke="#9a32cd" points="479.575,-36.7058 469.202,-38.8664 478.658,-43.6455 479.575,-36.7058"/>
<text text-anchor="middle" x="559" y="-67" font-family="Helvetica,sans-Serif" font-size="10.00"> myDependencies</text>
</g>
<!-- Node8&#45;&gt;Node1 -->
<g id="edge7" class="edge"><title>Node8&#45;&gt;Node1</title>
<path fill="none" stroke="#9a32cd" stroke-dasharray="5,2" d="M406.918,-298.166C417.134,-261.396 444.303,-182.863 498,-144 542.699,-111.649 566.155,-133.051 620,-121 643.301,-115.785 669.301,-109.035 689.476,-103.589"/>
<polygon fill="#9a32cd" stroke="#9a32cd" points="403.452,-297.585 404.282,-308.147 410.22,-299.373 403.452,-297.585"/>
<text text-anchor="middle" x="559" y="-147" font-family="Helvetica,sans-Serif" font-size="10.00"> myView</text>
</g>
<!-- Node8&#45;&gt;Node19 -->
<g id="edge25" class="edge"><title>Node8&#45;&gt;Node19</title>
<path fill="none" stroke="#9a32cd" stroke-dasharray="5,2" d="M436.015,-304.997C454.157,-298.58 477.01,-291.309 498,-287 562.655,-273.725 639.454,-268.832 684.827,-267.035"/>
<polygon fill="#9a32cd" stroke="#9a32cd" points="434.678,-301.759 426.463,-308.45 437.057,-308.342 434.678,-301.759"/>
<text text-anchor="middle" x="559" y="-290" font-family="Helvetica,sans-Serif" font-size="10.00"> mySLogoView</text>
</g>
<!-- Node9 -->
<g id="node9" class="node"><title>Node9</title>
<g id="a_node9"><a xlink:href="../../da/d64/classview_1_1_workspace.html" target="_top" xlink:title="view.Workspace">
<polygon fill="white" stroke="black" points="1198,-550.5 1198,-569.5 1288,-569.5 1288,-550.5 1198,-550.5"/>
<text text-anchor="middle" x="1243" y="-557.5" font-family="Helvetica,sans-Serif" font-size="10.00">view.Workspace</text>
</a>
</g>
</g>
<!-- Node9&#45;&gt;Node8 -->
<g id="edge9" class="edge"><title>Node9&#45;&gt;Node8</title>
<path fill="none" stroke="#9a32cd" stroke-dasharray="5,2" d="M1187.77,-558.622C1048.91,-554.805 687.907,-542.972 638,-522 560.826,-489.569 542.965,-466.61 498,-396 483.274,-372.875 499.932,-355.824 480,-337 470.982,-328.483 458.806,-323.592 446.759,-320.834"/>
<polygon fill="#9a32cd" stroke="#9a32cd" points="1187.68,-562.12 1197.77,-558.893 1187.87,-555.123 1187.68,-562.12"/>
<text text-anchor="middle" x="881" y="-553" font-family="Helvetica,sans-Serif" font-size="10.00"> myWorkspace</text>
</g>
<!-- Node14 -->
<g id="node14" class="node"><title>Node14</title>
<g id="a_node14"><a xlink:href="../../d1/dc7/classview_1_1_side_bar.html" target="_top" xlink:title="view.SideBar">
<polygon fill="white" stroke="black" points="979.5,-417.5 979.5,-436.5 1056.5,-436.5 1056.5,-417.5 979.5,-417.5"/>
<text text-anchor="middle" x="1018" y="-424.5" font-family="Helvetica,sans-Serif" font-size="10.00">view.SideBar</text>
</a>
</g>
</g>
<!-- Node9&#45;&gt;Node14 -->
<g id="edge16" class="edge"><title>Node9&#45;&gt;Node14</title>
<path fill="none" stroke="#9a32cd" stroke-dasharray="5,2" d="M1221.35,-543.967C1209.57,-535.178 1194.34,-524.398 1180,-516 1147.75,-497.112 1136.8,-497.917 1104,-480 1078.36,-465.994 1049.77,-447.546 1033.14,-436.517"/>
<polygon fill="#9a32cd" stroke="#9a32cd" points="1219.53,-546.976 1229.61,-550.226 1223.75,-541.397 1219.53,-546.976"/>
<text text-anchor="middle" x="1142" y="-519" font-family="Helvetica,sans-Serif" font-size="10.00"> myWorkspace</text>
</g>
<!-- Node32 -->
<g id="node32" class="node"><title>Node32</title>
<g id="a_node32"><a xlink:href="../../de/d0a/classview_1_1_drawer.html" target="_top" xlink:title="view.Drawer">
<polygon fill="white" stroke="black" points="1394.5,-258.5 1394.5,-277.5 1467.5,-277.5 1467.5,-258.5 1394.5,-258.5"/>
<text text-anchor="middle" x="1431" y="-265.5" font-family="Helvetica,sans-Serif" font-size="10.00">view.Drawer</text>
</a>
</g>
</g>
<!-- Node9&#45;&gt;Node32 -->
<g id="edge41" class="edge"><title>Node9&#45;&gt;Node32</title>
<path fill="none" stroke="#9a32cd" stroke-dasharray="5,2" d="M1255.6,-541.792C1291.02,-486.188 1396.99,-319.826 1423.79,-277.752"/>
<polygon fill="#9a32cd" stroke="#9a32cd" points="1252.61,-539.97 1250.19,-550.285 1258.51,-543.731 1252.61,-539.97"/>
<text text-anchor="middle" x="1341" y="-461" font-family="Helvetica,sans-Serif" font-size="10.00"> myWorkspace</text>
</g>
<!-- Node10 -->
<g id="node10" class="node"><title>Node10</title>
<polygon fill="white" stroke="#bfbfbf" points="984.5,-657.5 984.5,-676.5 1051.5,-676.5 1051.5,-657.5 984.5,-657.5"/>
<text text-anchor="middle" x="1018" y="-664.5" font-family="Helvetica,sans-Serif" font-size="10.00">StackPane</text>
</g>
<!-- Node10&#45;&gt;Node9 -->
<g id="edge10" class="edge"><title>Node10&#45;&gt;Node9</title>
<path fill="none" stroke="midnightblue" d="M1061.71,-660.367C1095.52,-653.783 1143.04,-641.483 1180,-620 1203.05,-606.601 1224.02,-582.828 1234.66,-569.584"/>
<polygon fill="midnightblue" stroke="midnightblue" points="1060.88,-656.962 1051.68,-662.231 1062.16,-663.845 1060.88,-656.962"/>
</g>
<!-- Node11 -->
<g id="node11" class="node"><title>Node11</title>
<g id="a_node11"><a xlink:href="../../d8/df7/classview_1_1_turtle_view.html" target="_top" xlink:title="view.TurtleView">
<polygon fill="white" stroke="black" points="975,-695.5 975,-714.5 1061,-714.5 1061,-695.5 975,-695.5"/>
<text text-anchor="middle" x="1018" y="-702.5" font-family="Helvetica,sans-Serif" font-size="10.00">view.TurtleView</text>
</a>
</g>
</g>
<!-- Node11&#45;&gt;Node9 -->
<g id="edge11" class="edge"><title>Node11&#45;&gt;Node9</title>
<path fill="none" stroke="#9a32cd" stroke-dasharray="5,2" d="M1071.18,-695.677C1104.98,-687.568 1148.42,-673.049 1180,-648 1208.11,-625.701 1228.93,-587.35 1237.58,-569.569"/>
<polygon fill="#9a32cd" stroke="#9a32cd" points="1070,-692.357 1061.03,-697.992 1071.56,-699.182 1070,-692.357"/>
<text text-anchor="middle" x="1142" y="-688" font-family="Helvetica,sans-Serif" font-size="10.00"> myActiveTurtle</text>
</g>
<!-- Node12 -->
<g id="node12" class="node"><title>Node12</title>
<polygon fill="white" stroke="#bfbfbf" points="691,-695.5 691,-714.5 759,-714.5 759,-695.5 691,-695.5"/>
<text text-anchor="middle" x="725" y="-702.5" font-family="Helvetica,sans-Serif" font-size="10.00">ImageView</text>
</g>
<!-- Node12&#45;&gt;Node11 -->
<g id="edge12" class="edge"><title>Node12&#45;&gt;Node11</title>
<path fill="none" stroke="midnightblue" d="M769.27,-705C824.553,-705 919.638,-705 974.533,-705"/>
<polygon fill="midnightblue" stroke="midnightblue" points="769.098,-701.5 759.098,-705 769.098,-708.5 769.098,-701.5"/>
</g>
<!-- Node13 -->
<g id="node13" class="node"><title>Node13</title>
<polygon fill="white" stroke="#bfbfbf" points="950,-608 950,-638 1086,-638 1086,-608 950,-608"/>
<text text-anchor="start" x="958" y="-626" font-family="Helvetica,sans-Serif" font-size="10.00">Map&lt; Integer, view.Turtle</text>
<text text-anchor="middle" x="1018" y="-615" font-family="Helvetica,sans-Serif" font-size="10.00">View &gt;</text>
</g>
<!-- Node13&#45;&gt;Node9 -->
<g id="edge13" class="edge"><title>Node13&#45;&gt;Node9</title>
<path fill="none" stroke="#9a32cd" stroke-dasharray="5,2" d="M1096.36,-608.036C1123.12,-602.12 1153.13,-594.651 1180,-586 1194.22,-581.421 1209.72,-574.921 1221.67,-569.566"/>
<polygon fill="#9a32cd" stroke="#9a32cd" points="1095.31,-604.683 1086.28,-610.226 1096.79,-611.524 1095.31,-604.683"/>
<text text-anchor="middle" x="1142" y="-608" font-family="Helvetica,sans-Serif" font-size="10.00"> myTurtles</text>
</g>
<!-- Node14&#45;&gt;Node8 -->
<g id="edge43" class="edge"><title>Node14&#45;&gt;Node8</title>
<path fill="none" stroke="#9a32cd" stroke-dasharray="5,2" d="M969.232,-419.012C927.765,-412.317 866.057,-402.927 812,-397 777.226,-393.187 526.959,-393.624 498,-374 482.861,-363.741 494.237,-348.477 480,-337 470.56,-329.39 458.527,-324.758 446.755,-321.959"/>
<polygon fill="#9a32cd" stroke="#9a32cd" points="968.889,-422.502 979.321,-420.652 970.013,-415.593 968.889,-422.502"/>
<text text-anchor="middle" x="725" y="-400" font-family="Helvetica,sans-Serif" font-size="10.00"> mySidebar</text>
</g>
<!-- Node14&#45;&gt;Node9 -->
<g id="edge14" class="edge"><title>Node14&#45;&gt;Node9</title>
<path fill="none" stroke="#9a32cd" stroke-dasharray="5,2" d="M1066.85,-430.57C1101.01,-435.122 1146.62,-445.473 1180,-469 1210.31,-490.366 1230.29,-531.609 1238.19,-550.332"/>
<polygon fill="#9a32cd" stroke="#9a32cd" points="1066.99,-427.062 1056.65,-429.335 1066.15,-434.011 1066.99,-427.062"/>
<text text-anchor="middle" x="1142" y="-472" font-family="Helvetica,sans-Serif" font-size="10.00"> mySidebar</text>
</g>
<!-- Node26 -->
<g id="node26" class="node"><title>Node26</title>
<g id="a_node26"><a xlink:href="../../da/dc8/classview_1_1_editor.html" target="_top" xlink:title="view.Editor">
<polygon fill="white" stroke="black" points="1209.5,-140.5 1209.5,-159.5 1276.5,-159.5 1276.5,-140.5 1209.5,-140.5"/>
<text text-anchor="middle" x="1243" y="-147.5" font-family="Helvetica,sans-Serif" font-size="10.00">view.Editor</text>
</a>
</g>
</g>
<!-- Node14&#45;&gt;Node26 -->
<g id="edge36" class="edge"><title>Node14&#45;&gt;Node26</title>
<path fill="none" stroke="#9a32cd" stroke-dasharray="5,2" d="M1033.19,-409.368C1075.76,-356.5 1201.38,-200.45 1234.13,-159.782"/>
<polygon fill="#9a32cd" stroke="#9a32cd" points="1030.22,-407.481 1026.68,-417.465 1035.67,-411.87 1030.22,-407.481"/>
<text text-anchor="middle" x="1142" y="-317" font-family="Helvetica,sans-Serif" font-size="10.00"> mySidebar</text>
</g>
<!-- Node15 -->
<g id="node15" class="node"><title>Node15</title>
<polygon fill="white" stroke="#bfbfbf" points="704.5,-417.5 704.5,-436.5 745.5,-436.5 745.5,-417.5 704.5,-417.5"/>
<text text-anchor="middle" x="725" y="-424.5" font-family="Helvetica,sans-Serif" font-size="10.00">VBox</text>
</g>
<!-- Node15&#45;&gt;Node14 -->
<g id="edge15" class="edge"><title>Node15&#45;&gt;Node14</title>
<path fill="none" stroke="midnightblue" d="M755.691,-427C808.988,-427 920.775,-427 979.359,-427"/>
<polygon fill="midnightblue" stroke="midnightblue" points="755.545,-423.5 745.545,-427 755.545,-430.5 755.545,-423.5"/>
</g>
<!-- Node16 -->
<g id="node16" class="node"><title>Node16</title>
<polygon fill="white" stroke="#bfbfbf" points="638.5,-332.5 638.5,-351.5 811.5,-351.5 811.5,-332.5 638.5,-332.5"/>
<text text-anchor="middle" x="725" y="-339.5" font-family="Helvetica,sans-Serif" font-size="10.00">ObservableList&lt; view.Property &gt;</text>
</g>
<!-- Node16&#45;&gt;Node14 -->
<g id="edge17" class="edge"><title>Node16&#45;&gt;Node14</title>
<path fill="none" stroke="#9a32cd" stroke-dasharray="5,2" d="M822.007,-341.071C857.563,-343.47 897.576,-349.51 932,-363 963.302,-375.267 993.058,-402.439 1007.65,-417.124"/>
<polygon fill="#9a32cd" stroke="#9a32cd" points="821.805,-337.553 811.618,-340.463 821.397,-344.541 821.805,-337.553"/>
<text text-anchor="middle" x="881" y="-366" font-family="Helvetica,sans-Serif" font-size="10.00"> variablesList</text>
</g>
<!-- Node17 -->
<g id="node17" class="node"><title>Node17</title>
<polygon fill="white" stroke="#bfbfbf" points="40.5,-516.5 40.5,-535.5 133.5,-535.5 133.5,-516.5 40.5,-516.5"/>
<text text-anchor="middle" x="87" y="-523.5" font-family="Helvetica,sans-Serif" font-size="10.00">ResourceBundle</text>
</g>
<!-- Node17&#45;&gt;Node8 -->
<g id="edge30" class="edge"><title>Node17&#45;&gt;Node8</title>
<path fill="none" stroke="#9a32cd" stroke-dasharray="5,2" d="M143.624,-520.839C193.413,-513.127 264.475,-493.902 304,-446 335.25,-408.128 288.612,-373.001 322,-337 330.625,-327.7 342.974,-322.612 355.309,-319.915"/>
<polygon fill="#9a32cd" stroke="#9a32cd" points="143.053,-517.385 133.654,-522.274 144.051,-524.313 143.053,-517.385"/>
<text text-anchor="middle" x="248" y="-513" font-family="Helvetica,sans-Serif" font-size="10.00"> myResources</text>
</g>
<!-- Node17&#45;&gt;Node14 -->
<g id="edge18" class="edge"><title>Node17&#45;&gt;Node14</title>
<path fill="none" stroke="#9a32cd" stroke-dasharray="5,2" d="M122.072,-538.973C242.452,-582.515 655.38,-712.183 932,-556 980.111,-528.836 1005.83,-461.859 1014.05,-436.732"/>
<polygon fill="#9a32cd" stroke="#9a32cd" points="123.216,-535.665 112.622,-535.513 120.809,-542.238 123.216,-535.665"/>
<text text-anchor="middle" x="559" y="-633" font-family="Helvetica,sans-Serif" font-size="10.00"> myResources</text>
</g>
<!-- Node18 -->
<g id="node18" class="node"><title>Node18</title>
<polygon fill="white" stroke="#bfbfbf" points="651,-294.5 651,-313.5 799,-313.5 799,-294.5 651,-294.5"/>
<text text-anchor="middle" x="725" y="-301.5" font-family="Helvetica,sans-Serif" font-size="10.00">TableView&lt; view.Property &gt;</text>
</g>
<!-- Node18&#45;&gt;Node14 -->
<g id="edge19" class="edge"><title>Node18&#45;&gt;Node14</title>
<path fill="none" stroke="#9a32cd" stroke-dasharray="5,2" d="M799.564,-293.83C840.774,-291.558 891.8,-294.674 932,-316 975.313,-338.976 1003.2,-394.804 1013.03,-417.334"/>
<polygon fill="#9a32cd" stroke="#9a32cd" points="799.328,-290.338 789.583,-294.495 799.793,-297.322 799.328,-290.338"/>
<text text-anchor="middle" x="881" y="-330" font-family="Helvetica,sans-Serif" font-size="10.00"> turtlePropertiesTable</text>
<text text-anchor="middle" x="881" y="-319" font-family="Helvetica,sans-Serif" font-size="10.00">variablesTable</text>
</g>
<!-- Node19&#45;&gt;Node8 -->
<g id="edge38" class="edge"><title>Node19&#45;&gt;Node8</title>
<path fill="none" stroke="#9a32cd" stroke-dasharray="5,2" d="M674.689,-273.289C662.386,-276.075 649.445,-279.869 638,-285 628.995,-289.037 629.241,-294.538 620,-298 562.878,-319.402 491.692,-321.829 446.53,-320.662"/>
<polygon fill="#9a32cd" stroke="#9a32cd" points="675.75,-276.643 684.826,-271.178 674.322,-269.79 675.75,-276.643"/>
<text text-anchor="middle" x="559" y="-324" font-family="Helvetica,sans-Serif" font-size="10.00"> myParser</text>
</g>
<!-- Node19&#45;&gt;Node14 -->
<g id="edge20" class="edge"><title>Node19&#45;&gt;Node14</title>
<path fill="none" stroke="#9a32cd" stroke-dasharray="5,2" d="M775.325,-256.721C819.711,-251.084 884.991,-249.773 932,-279 984.592,-311.698 1007.97,-389.651 1014.77,-417.172"/>
<polygon fill="#9a32cd" stroke="#9a32cd" points="774.775,-253.263 765.351,-258.104 775.737,-260.197 774.775,-253.263"/>
<text text-anchor="middle" x="881" y="-282" font-family="Helvetica,sans-Serif" font-size="10.00"> myParser</text>
</g>
<!-- Node19&#45;&gt;Node26 -->
<g id="edge34" class="edge"><title>Node19&#45;&gt;Node26</title>
<path fill="none" stroke="#9a32cd" stroke-dasharray="5,2" d="M775.363,-257.858C884.986,-239.651 1142.06,-196.205 1180,-183 1196.81,-177.148 1214.61,-167.237 1226.81,-159.801"/>
<polygon fill="#9a32cd" stroke="#9a32cd" points="774.52,-254.451 765.227,-259.54 775.665,-261.356 774.52,-254.451"/>
<text text-anchor="middle" x="1018" y="-231" font-family="Helvetica,sans-Serif" font-size="10.00"> myParser</text>
</g>
<!-- Node20 -->
<g id="node20" class="node"><title>Node20</title>
<polygon fill="white" stroke="#bfbfbf" points="345,-535 345,-565 457,-565 457,-535 345,-535"/>
<text text-anchor="start" x="353" y="-553" font-family="Helvetica,sans-Serif" font-size="10.00">List&lt; Entry&lt; String,</text>
<text text-anchor="middle" x="401" y="-542" font-family="Helvetica,sans-Serif" font-size="10.00"> Pattern &gt; &gt;</text>
</g>
<!-- Node20&#45;&gt;Node19 -->
<g id="edge22" class="edge"><title>Node20&#45;&gt;Node19</title>
<path fill="none" stroke="#9a32cd" stroke-dasharray="5,2" d="M443.35,-530.36C493.68,-504.167 577.23,-452.858 620,-383 643.123,-345.232 607.252,-316.869 638,-285 649.997,-272.566 668.159,-267.407 684.706,-265.523"/>
<polygon fill="#9a32cd" stroke="#9a32cd" points="441.668,-527.289 434.356,-534.957 444.854,-533.522 441.668,-527.289"/>
<text text-anchor="middle" x="559" y="-502" font-family="Helvetica,sans-Serif" font-size="10.00"> myPatterns</text>
</g>
<!-- Node21 -->
<g id="node21" class="node"><title>Node21</title>
<polygon fill="white" stroke="#bfbfbf" points="340,-346.5 340,-365.5 462,-365.5 462,-346.5 340,-346.5"/>
<text text-anchor="middle" x="401" y="-353.5" font-family="Helvetica,sans-Serif" font-size="10.00">Map&lt; String, String &gt;</text>
</g>
<!-- Node21&#45;&gt;Node19 -->
<g id="edge24" class="edge"><title>Node21&#45;&gt;Node19</title>
<path fill="none" stroke="#9a32cd" stroke-dasharray="5,2" d="M467.258,-366.448C514.435,-370.276 577.154,-367.23 620,-334 638.333,-319.781 620.528,-300.265 638,-285 650.781,-273.833 668.647,-268.778 684.785,-266.634"/>
<polygon fill="#9a32cd" stroke="#9a32cd" points="467.42,-362.948 457.138,-365.504 466.769,-369.918 467.42,-362.948"/>
<text text-anchor="middle" x="559" y="-371" font-family="Helvetica,sans-Serif" font-size="10.00"> myCommandMap</text>
</g>
<!-- Node22 -->
<g id="node22" class="node"><title>Node22</title>
<polygon fill="white" stroke="#bfbfbf" points="656,-493.5 656,-512.5 794,-512.5 794,-493.5 656,-493.5"/>
<text text-anchor="middle" x="725" y="-500.5" font-family="Helvetica,sans-Serif" font-size="10.00">ObservableList&lt; String &gt;</text>
</g>
<!-- Node22&#45;&gt;Node14 -->
<g id="edge26" class="edge"><title>Node22&#45;&gt;Node14</title>
<path fill="none" stroke="#9a32cd" stroke-dasharray="5,2" d="M804.632,-494.915C843.568,-489.59 890.916,-481.109 932,-468 956.974,-460.031 983.934,-446.008 1000.64,-436.611"/>
<polygon fill="#9a32cd" stroke="#9a32cd" points="803.86,-491.487 794.405,-496.268 804.778,-498.426 803.86,-491.487"/>
<text text-anchor="middle" x="881" y="-505" font-family="Helvetica,sans-Serif" font-size="10.00"> commandItems</text>
<text text-anchor="middle" x="881" y="-494" font-family="Helvetica,sans-Serif" font-size="10.00">historyItems</text>
</g>
<!-- Node23 -->
<g id="node23" class="node"><title>Node23</title>
<polygon fill="white" stroke="#bfbfbf" points="672,-455.5 672,-474.5 778,-474.5 778,-455.5 672,-455.5"/>
<text text-anchor="middle" x="725" y="-462.5" font-family="Helvetica,sans-Serif" font-size="10.00">ListView&lt; String &gt;</text>
</g>
<!-- Node23&#45;&gt;Node14 -->
<g id="edge27" class="edge"><title>Node23&#45;&gt;Node14</title>
<path fill="none" stroke="#9a32cd" stroke-dasharray="5,2" d="M788.216,-457.958C829.119,-453.203 883.796,-446.61 932,-440 947.53,-437.871 964.62,-435.301 979.377,-433.011"/>
<polygon fill="#9a32cd" stroke="#9a32cd" points="787.657,-454.499 778.125,-459.126 788.462,-461.453 787.657,-454.499"/>
<text text-anchor="middle" x="881" y="-456" font-family="Helvetica,sans-Serif" font-size="10.00"> historyList</text>
</g>
<!-- Node24 -->
<g id="node24" class="node"><title>Node24</title>
<polygon fill="white" stroke="#bfbfbf" points="986.5,-569.5 986.5,-588.5 1049.5,-588.5 1049.5,-569.5 986.5,-569.5"/>
<text text-anchor="middle" x="1018" y="-576.5" font-family="Helvetica,sans-Serif" font-size="10.00">Rectangle</text>
</g>
<!-- Node24&#45;&gt;Node9 -->
<g id="edge28" class="edge"><title>Node24&#45;&gt;Node9</title>
<path fill="none" stroke="#9a32cd" stroke-dasharray="5,2" d="M1059.99,-575.507C1099,-572.184 1157.53,-567.197 1197.62,-563.781"/>
<polygon fill="#9a32cd" stroke="#9a32cd" points="1059.21,-572.062 1049.54,-576.398 1059.8,-579.036 1059.21,-572.062"/>
<text text-anchor="middle" x="1142" y="-574" font-family="Helvetica,sans-Serif" font-size="10.00"> myBackground</text>
</g>
<!-- Node25 -->
<g id="node25" class="node"><title>Node25</title>
<polygon fill="white" stroke="#bfbfbf" points="64.5,-411.5 64.5,-430.5 109.5,-430.5 109.5,-411.5 64.5,-411.5"/>
<text text-anchor="middle" x="87" y="-418.5" font-family="Helvetica,sans-Serif" font-size="10.00">Stage</text>
</g>
<!-- Node25&#45;&gt;Node8 -->
<g id="edge29" class="edge"><title>Node25&#45;&gt;Node8</title>
<path fill="none" stroke="#9a32cd" stroke-dasharray="5,2" d="M119.648,-426.74C165.759,-433.181 251.608,-437.651 304,-394 324.411,-376.995 302.597,-355.146 322,-337 331.06,-328.527 343.248,-323.649 355.294,-320.891"/>
<polygon fill="#9a32cd" stroke="#9a32cd" points="120.042,-423.259 109.631,-425.22 118.993,-430.18 120.042,-423.259"/>
<text text-anchor="middle" x="248" y="-434" font-family="Helvetica,sans-Serif" font-size="10.00"> myStage</text>
</g>
<!-- Node26&#45;&gt;Node8 -->
<g id="edge31" class="edge"><title>Node26&#45;&gt;Node8</title>
<path fill="none" stroke="#9a32cd" stroke-dasharray="5,2" d="M1198.78,-153.705C1192.48,-154.181 1186.08,-154.63 1180,-155 1104.3,-159.605 564.672,-146.85 498,-183 445.666,-211.376 415.199,-282.129 405.453,-308.174"/>
<polygon fill="#9a32cd" stroke="#9a32cd" points="1199.5,-157.159 1209.2,-152.888 1198.95,-150.181 1199.5,-157.159"/>
<text text-anchor="middle" x="881" y="-161" font-family="Helvetica,sans-Serif" font-size="10.00"> myEditor</text>
</g>
<!-- Node27 -->
<g id="node27" class="node"><title>Node27</title>
<polygon fill="white" stroke="#bfbfbf" points="997,-45.5 997,-64.5 1039,-64.5 1039,-45.5 997,-45.5"/>
<text text-anchor="middle" x="1018" y="-52.5" font-family="Helvetica,sans-Serif" font-size="10.00">HBox</text>
</g>
<!-- Node27&#45;&gt;Node26 -->
<g id="edge32" class="edge"><title>Node27&#45;&gt;Node26</title>
<path fill="none" stroke="midnightblue" d="M1049.29,-60.2633C1082.64,-66.8591 1137.22,-80.0462 1180,-102 1200.1,-112.318 1220.2,-129.437 1231.85,-140.199"/>
<polygon fill="midnightblue" stroke="midnightblue" points="1049.72,-56.7834 1039.24,-58.3506 1048.41,-63.6598 1049.72,-56.7834"/>
</g>
<!-- Node28 -->
<g id="node28" class="node"><title>Node28</title>
<polygon fill="white" stroke="#bfbfbf" points="993.5,-121.5 993.5,-140.5 1042.5,-140.5 1042.5,-121.5 993.5,-121.5"/>
<text text-anchor="middle" x="1018" y="-128.5" font-family="Helvetica,sans-Serif" font-size="10.00">Button</text>
</g>
<!-- Node28&#45;&gt;Node26 -->
<g id="edge33" class="edge"><title>Node28&#45;&gt;Node26</title>
<path fill="none" stroke="#9a32cd" stroke-dasharray="5,2" d="M1053.07,-133.593C1085.67,-136.111 1136.21,-140.113 1180,-144 1189.48,-144.841 1199.77,-145.813 1209.19,-146.727"/>
<polygon fill="#9a32cd" stroke="#9a32cd" points="1052.98,-130.076 1042.74,-132.798 1052.45,-137.055 1052.98,-130.076"/>
<text text-anchor="middle" x="1142" y="-147" font-family="Helvetica,sans-Serif" font-size="10.00"> runButton</text>
</g>
<!-- Node29 -->
<g id="node29" class="node"><title>Node29</title>
<polygon fill="white" stroke="#bfbfbf" points="989,-83.5 989,-102.5 1047,-102.5 1047,-83.5 989,-83.5"/>
<text text-anchor="middle" x="1018" y="-90.5" font-family="Helvetica,sans-Serif" font-size="10.00">TextArea</text>
</g>
<!-- Node29&#45;&gt;Node26 -->
<g id="edge35" class="edge"><title>Node29&#45;&gt;Node26</title>
<path fill="none" stroke="#9a32cd" stroke-dasharray="5,2" d="M1057.23,-97.6367C1090.22,-102.224 1138.91,-110.404 1180,-123 1194.93,-127.577 1211.08,-134.686 1223.15,-140.46"/>
<polygon fill="#9a32cd" stroke="#9a32cd" points="1057.47,-94.1383 1047.1,-96.2724 1056.54,-101.076 1057.47,-94.1383"/>
<text text-anchor="middle" x="1142" y="-126" font-family="Helvetica,sans-Serif" font-size="10.00"> textEditor</text>
</g>
<!-- Node30 -->
<g id="node30" class="node"><title>Node30</title>
<polygon fill="white" stroke="#bfbfbf" points="27.5,-373.5 27.5,-392.5 146.5,-392.5 146.5,-373.5 27.5,-373.5"/>
<text text-anchor="middle" x="87" y="-380.5" font-family="Helvetica,sans-Serif" font-size="10.00">Map&lt; String, Node &gt;</text>
</g>
<!-- Node30&#45;&gt;Node8 -->
<g id="edge37" class="edge"><title>Node30&#45;&gt;Node8</title>
<path fill="none" stroke="#9a32cd" stroke-dasharray="5,2" d="M156.808,-381.717C200.492,-378.777 257.371,-370.938 304,-351 313.319,-347.015 312.874,-341.408 322,-337 332.291,-332.029 343.992,-328.293 355.144,-325.511"/>
<polygon fill="#9a32cd" stroke="#9a32cd" points="156.34,-378.239 146.568,-382.333 156.761,-385.226 156.34,-378.239"/>
<text text-anchor="middle" x="248" y="-382" font-family="Helvetica,sans-Serif" font-size="10.00"> variables</text>
</g>
<!-- Node31 -->
<g id="node31" class="node"><title>Node31</title>
<polygon fill="white" stroke="#bfbfbf" points="46.5,-335.5 46.5,-354.5 127.5,-354.5 127.5,-335.5 46.5,-335.5"/>
<text text-anchor="middle" x="87" y="-342.5" font-family="Helvetica,sans-Serif" font-size="10.00">Dimension2D</text>
</g>
<!-- Node31&#45;&gt;Node8 -->
<g id="edge39" class="edge"><title>Node31&#45;&gt;Node8</title>
<path fill="none" stroke="#9a32cd" stroke-dasharray="5,2" d="M137.5,-340.716C197.45,-335.528 297.55,-326.866 355.269,-321.871"/>
<polygon fill="#9a32cd" stroke="#9a32cd" points="137.176,-337.231 127.515,-341.58 137.78,-344.205 137.176,-337.231"/>
<text text-anchor="middle" x="248" y="-339" font-family="Helvetica,sans-Serif" font-size="10.00"> myDimensions</text>
</g>
<!-- Node32&#45;&gt;Node8 -->
<g id="edge40" class="edge"><title>Node32&#45;&gt;Node8</title>
<path fill="none" stroke="#9a32cd" stroke-dasharray="5,2" d="M1384.18,-265.91C1281.69,-261.353 1026.08,-250.636 812,-247 734.678,-245.687 715.119,-241.248 638,-247 575.256,-251.68 557.832,-248.535 498,-268 467.443,-277.941 434.874,-296.911 416.616,-308.412"/>
<polygon fill="#9a32cd" stroke="#9a32cd" points="1384.33,-269.42 1394.48,-266.37 1384.65,-262.427 1384.33,-269.42"/>
<text text-anchor="middle" x="1018" y="-258" font-family="Helvetica,sans-Serif" font-size="10.00"> drawer</text>
</g>
<!-- Node33 -->
<g id="node33" class="node"><title>Node33</title>
<polygon fill="white" stroke="#bfbfbf" points="1222.5,-220.5 1222.5,-239.5 1263.5,-239.5 1263.5,-220.5 1222.5,-220.5"/>
<text text-anchor="middle" x="1243" y="-227.5" font-family="Helvetica,sans-Serif" font-size="10.00">Color</text>
</g>
<!-- Node33&#45;&gt;Node32 -->
<g id="edge42" class="edge"><title>Node33&#45;&gt;Node32</title>
<path fill="none" stroke="#9a32cd" stroke-dasharray="5,2" d="M1273.61,-230.102C1300.71,-230.853 1341.67,-233.652 1376,-243 1388.96,-246.529 1402.68,-252.921 1413.05,-258.358"/>
<polygon fill="#9a32cd" stroke="#9a32cd" points="1273.67,-226.602 1263.6,-229.901 1273.53,-233.601 1273.67,-226.602"/>
<text text-anchor="middle" x="1341" y="-246" font-family="Helvetica,sans-Serif" font-size="10.00"> myColor</text>
</g>
<!-- Node34 -->
<g id="node34" class="node"><title>Node34</title>
<polygon fill="white" stroke="#bfbfbf" points="64,-297.5 64,-316.5 110,-316.5 110,-297.5 64,-297.5"/>
<text text-anchor="middle" x="87" y="-304.5" font-family="Helvetica,sans-Serif" font-size="10.00">Group</text>
</g>
<!-- Node34&#45;&gt;Node8 -->
<g id="edge44" class="edge"><title>Node34&#45;&gt;Node8</title>
<path fill="none" stroke="#9a32cd" stroke-dasharray="5,2" d="M120.315,-307.352C162.558,-307.904 238.843,-309.211 304,-312 320.684,-312.714 338.982,-313.786 355.087,-314.827"/>
<polygon fill="#9a32cd" stroke="#9a32cd" points="120.13,-303.85 110.087,-307.225 120.042,-310.849 120.13,-303.85"/>
<text text-anchor="middle" x="248" y="-315" font-family="Helvetica,sans-Serif" font-size="10.00"> lines</text>
</g>
</g>
</svg>
