<?xml version="1.0" encoding="UTF-8" standalone="no"?>
<!DOCTYPE svg PUBLIC "-//W3C//DTD SVG 1.1//EN"
 "http://www.w3.org/Graphics/SVG/1.1/DTD/svg11.dtd">
<!-- Generated by graphviz version 2.36.0 (20140111.2315)
 -->
<!-- Title: model.instructions.Variable Pages: 1 -->
<svg width="1486pt" height="668pt"
 viewBox="0.00 0.00 1486.00 668.00" xmlns="http://www.w3.org/2000/svg" xmlns:xlink="http://www.w3.org/1999/xlink">
<g id="graph0" class="graph" transform="scale(1 1) rotate(0) translate(4 664)">
<title>model.instructions.Variable</title>
<polygon fill="white" stroke="none" points="-4,4 -4,-664 1482,-664 1482,4 -4,4"/>
<!-- Node1 -->
<g id="node1" class="node"><title>Node1</title>
<polygon fill="#bfbfbf" stroke="black" points="950,-32.5 950,-51.5 1096,-51.5 1096,-32.5 950,-32.5"/>
<text text-anchor="middle" x="1023" y="-39.5" font-family="Helvetica,sans-Serif" font-size="10.00">model.instructions.Variable</text>
</g>
<!-- Node2 -->
<g id="node2" class="node"><title>Node2</title>
<g id="a_node2"><a xlink:href="../../d1/dea/classmodel_1_1instructions_1_1_instruction.html" target="_top" xlink:title="model.instructions.Instruction">
<polygon fill="white" stroke="black" points="646,-32.5 646,-51.5 804,-51.5 804,-32.5 646,-32.5"/>
<text text-anchor="middle" x="725" y="-39.5" font-family="Helvetica,sans-Serif" font-size="10.00">model.instructions.Instruction</text>
</a>
</g>
</g>
<!-- Node2&#45;&gt;Node1 -->
<g id="edge1" class="edge"><title>Node2&#45;&gt;Node1</title>
<path fill="none" stroke="midnightblue" d="M814.383,-42C857.591,-42 908.939,-42 949.759,-42"/>
<polygon fill="midnightblue" stroke="midnightblue" points="814.158,-38.5001 804.158,-42 814.158,-45.5001 814.158,-38.5001"/>
</g>
<!-- Node3 -->
<g id="node3" class="node"><title>Node3</title>
<polygon fill="white" stroke="#bfbfbf" points="57,-162.5 57,-181.5 117,-181.5 117,-162.5 57,-162.5"/>
<text text-anchor="middle" x="87" y="-169.5" font-family="Helvetica,sans-Serif" font-size="10.00">Observer</text>
</g>
<!-- Node3&#45;&gt;Node2 -->
<g id="edge2" class="edge"><title>Node3&#45;&gt;Node2</title>
<path fill="none" stroke="midnightblue" d="M127.164,-164.776C146.648,-161.2 170.559,-156.837 192,-153 382.101,-118.98 440.709,-149.765 620,-78 628.926,-74.4271 629.261,-70.0088 638,-66 650.962,-60.0541 665.715,-55.2822 679.297,-51.6084"/>
<polygon fill="midnightblue" stroke="midnightblue" points="126.331,-161.37 117.128,-166.62 127.596,-168.255 126.331,-161.37"/>
</g>
<!-- Node9 -->
<g id="node9" class="node"><title>Node9</title>
<g id="a_node9"><a xlink:href="../../d6/de7/classview_1_1_s_logo_view.html" target="_top" xlink:title="view.SLogoView">
<polygon fill="white" stroke="black" points="355.5,-357.5 355.5,-376.5 446.5,-376.5 446.5,-357.5 355.5,-357.5"/>
<text text-anchor="middle" x="401" y="-364.5" font-family="Helvetica,sans-Serif" font-size="10.00">view.SLogoView</text>
</a>
</g>
</g>
<!-- Node3&#45;&gt;Node9 -->
<g id="edge9" class="edge"><title>Node3&#45;&gt;Node9</title>
<path fill="none" stroke="midnightblue" d="M112.094,-187.059C173.35,-225.344 333.775,-325.609 384.434,-357.272"/>
<polygon fill="midnightblue" stroke="midnightblue" points="113.807,-184.002 103.472,-181.67 110.097,-189.938 113.807,-184.002"/>
</g>
<!-- Node20 -->
<g id="node20" class="node"><title>Node20</title>
<g id="a_node20"><a xlink:href="../../dc/df5/classmodel_1_1_parser.html" target="_top" xlink:title="model.Parser">
<polygon fill="white" stroke="black" points="685,-229.5 685,-248.5 765,-248.5 765,-229.5 685,-229.5"/>
<text text-anchor="middle" x="725" y="-236.5" font-family="Helvetica,sans-Serif" font-size="10.00">model.Parser</text>
</a>
</g>
</g>
<!-- Node3&#45;&gt;Node20 -->
<g id="edge22" class="edge"><title>Node3&#45;&gt;Node20</title>
<path fill="none" stroke="midnightblue" d="M127.097,-167.23C216.225,-157.602 440.619,-140.424 620,-186 654.764,-194.833 691.173,-216.788 710.333,-229.497"/>
<polygon fill="midnightblue" stroke="midnightblue" points="126.71,-163.752 117.158,-168.334 127.483,-170.709 126.71,-163.752"/>
</g>
<!-- Node4 -->
<g id="node4" class="node"><title>Node4</title>
<g id="a_node4"><a xlink:href="../../d1/dca/classmodel_1_1_execution_environment.html" target="_top" xlink:title="model.ExecutionEnvironment">
<polygon fill="white" stroke="black" points="322.5,-63.5 322.5,-82.5 479.5,-82.5 479.5,-63.5 322.5,-63.5"/>
<text text-anchor="middle" x="401" y="-70.5" font-family="Helvetica,sans-Serif" font-size="10.00">model.ExecutionEnvironment</text>
</a>
</g>
</g>
<!-- Node4&#45;&gt;Node2 -->
<g id="edge3" class="edge"><title>Node4&#45;&gt;Node2</title>
<path fill="none" stroke="#9a32cd" stroke-dasharray="5,2" d="M489.726,-63.8216C492.516,-63.5426 495.28,-63.2681 498,-63 547.117,-58.16 602.271,-53.0292 645.797,-49.0507"/>
<polygon fill="#9a32cd" stroke="#9a32cd" points="489.136,-60.3632 479.538,-64.8483 489.838,-67.328 489.136,-60.3632"/>
<text text-anchor="middle" x="559" y="-66" font-family="Helvetica,sans-Serif" font-size="10.00"> myEnvironment</text>
</g>
<!-- Node15 -->
<g id="node15" class="node"><title>Node15</title>
<g id="a_node15"><a xlink:href="../../d1/dc7/classview_1_1_side_bar.html" target="_top" xlink:title="view.SideBar">
<polygon fill="white" stroke="black" points="984.5,-358.5 984.5,-377.5 1061.5,-377.5 1061.5,-358.5 984.5,-358.5"/>
<text text-anchor="middle" x="1023" y="-365.5" font-family="Helvetica,sans-Serif" font-size="10.00">view.SideBar</text>
</a>
</g>
</g>
<!-- Node4&#45;&gt;Node15 -->
<g id="edge19" class="edge"><title>Node4&#45;&gt;Node15</title>
<path fill="none" stroke="#9a32cd" stroke-dasharray="5,2" d="M489.672,-80.4259C529.765,-84.9009 577.661,-91.7721 620,-102 763.066,-136.56 838.503,-99.3314 932,-213 966.538,-254.99 917.59,-290.347 950,-334 958.57,-345.543 972.06,-353.319 985.057,-358.483"/>
<polygon fill="#9a32cd" stroke="#9a32cd" points="489.975,-76.9382 479.656,-79.3392 489.22,-83.8974 489.975,-76.9382"/>
<text text-anchor="middle" x="725" y="-135" font-family="Helvetica,sans-Serif" font-size="10.00"> myEnvironment</text>
</g>
<!-- Node4&#45;&gt;Node20 -->
<g id="edge24" class="edge"><title>Node4&#45;&gt;Node20</title>
<path fill="none" stroke="#9a32cd" stroke-dasharray="5,2" d="M442.199,-85.6956C500.753,-104.332 604.273,-137.875 620,-147 660.242,-170.349 698.918,-210.783 715.516,-229.269"/>
<polygon fill="#9a32cd" stroke="#9a32cd" points="443.104,-82.3109 432.514,-82.6185 440.985,-88.9823 443.104,-82.3109"/>
<text text-anchor="middle" x="559" y="-150" font-family="Helvetica,sans-Serif" font-size="10.00"> myExecutionParameters</text>
</g>
<!-- Node5 -->
<g id="node5" class="node"><title>Node5</title>
<polygon fill="white" stroke="#bfbfbf" points="51.5,-0.5 51.5,-19.5 122.5,-19.5 122.5,-0.5 51.5,-0.5"/>
<text text-anchor="middle" x="87" y="-7.5" font-family="Helvetica,sans-Serif" font-size="10.00">Observable</text>
</g>
<!-- Node5&#45;&gt;Node4 -->
<g id="edge4" class="edge"><title>Node5&#45;&gt;Node4</title>
<path fill="none" stroke="midnightblue" d="M132.829,-18.8037C176.532,-27.4147 244.861,-40.9534 304,-53 320.515,-56.3641 338.614,-60.1173 354.601,-63.4556"/>
<polygon fill="midnightblue" stroke="midnightblue" points="133.299,-15.329 122.811,-16.8311 131.946,-22.1971 133.299,-15.329"/>
</g>
<!-- Node6 -->
<g id="node6" class="node"><title>Node6</title>
<polygon fill="white" stroke="#bfbfbf" points="0,-77 0,-107 174,-107 174,-77 0,-77"/>
<text text-anchor="start" x="8" y="-95" font-family="Helvetica,sans-Serif" font-size="10.00">Map&lt; String, model.instructions.</text>
<text text-anchor="middle" x="87" y="-84" font-family="Helvetica,sans-Serif" font-size="10.00">Instruction &gt;</text>
</g>
<!-- Node6&#45;&gt;Node4 -->
<g id="edge5" class="edge"><title>Node6&#45;&gt;Node4</title>
<path fill="none" stroke="#9a32cd" stroke-dasharray="5,2" d="M184.305,-86.1352C228.685,-83.4326 280.655,-80.2678 322.461,-77.7219"/>
<polygon fill="#9a32cd" stroke="#9a32cd" points="183.85,-82.6564 174.081,-86.7579 184.276,-89.6435 183.85,-82.6564"/>
<text text-anchor="middle" x="248" y="-89" font-family="Helvetica,sans-Serif" font-size="10.00"> myUserInstructionMap</text>
</g>
<!-- Node7 -->
<g id="node7" class="node"><title>Node7</title>
<polygon fill="white" stroke="#bfbfbf" points="23,-38.5 23,-57.5 151,-57.5 151,-38.5 23,-38.5"/>
<text text-anchor="middle" x="87" y="-45.5" font-family="Helvetica,sans-Serif" font-size="10.00">Map&lt; String, Double &gt;</text>
</g>
<!-- Node7&#45;&gt;Node4 -->
<g id="edge6" class="edge"><title>Node7&#45;&gt;Node4</title>
<path fill="none" stroke="#9a32cd" stroke-dasharray="5,2" d="M161.424,-53.6945C203.219,-56.9571 256.547,-61.1555 304,-65 310.001,-65.4862 316.213,-65.9939 322.457,-66.5073"/>
<polygon fill="#9a32cd" stroke="#9a32cd" points="161.573,-50.1956 151.331,-52.9073 161.029,-57.1744 161.573,-50.1956"/>
<text text-anchor="middle" x="248" y="-68" font-family="Helvetica,sans-Serif" font-size="10.00"> myVariableMap</text>
</g>
<!-- Node8 -->
<g id="node8" class="node"><title>Node8</title>
<polygon fill="white" stroke="#bfbfbf" points="333,-13 333,-43 469,-43 469,-13 333,-13"/>
<text text-anchor="start" x="341" y="-31" font-family="Helvetica,sans-Serif" font-size="10.00">List&lt; model.instructions.</text>
<text text-anchor="middle" x="401" y="-20" font-family="Helvetica,sans-Serif" font-size="10.00">Instruction &gt;</text>
</g>
<!-- Node8&#45;&gt;Node2 -->
<g id="edge7" class="edge"><title>Node8&#45;&gt;Node2</title>
<path fill="none" stroke="#9a32cd" stroke-dasharray="5,2" d="M479.43,-26.1043C521.123,-25.6509 573.419,-25.9927 620,-29 632.166,-29.7854 645.088,-31.0502 657.536,-32.4896"/>
<polygon fill="#9a32cd" stroke="#9a32cd" points="479.298,-22.6056 469.343,-26.2317 479.386,-29.6051 479.298,-22.6056"/>
<text text-anchor="middle" x="559" y="-32" font-family="Helvetica,sans-Serif" font-size="10.00"> myDependencies</text>
</g>
<!-- Node9&#45;&gt;Node2 -->
<g id="edge8" class="edge"><title>Node9&#45;&gt;Node2</title>
<path fill="none" stroke="#9a32cd" stroke-dasharray="5,2" d="M427.749,-351.952C445.142,-340.451 467.188,-323.021 480,-302 499.193,-270.51 475.113,-249.917 498,-221 535.379,-173.772 583.413,-209.844 620,-162 646.37,-127.517 608.665,-97.9985 638,-66 643.761,-59.7156 651.017,-55.0238 658.858,-51.5303"/>
<polygon fill="#9a32cd" stroke="#9a32cd" points="425.716,-349.097 419.151,-357.414 429.469,-355.006 425.716,-349.097"/>
<text text-anchor="middle" x="559" y="-224" font-family="Helvetica,sans-Serif" font-size="10.00"> myView</text>
</g>
<!-- Node9&#45;&gt;Node20 -->
<g id="edge26" class="edge"><title>Node9&#45;&gt;Node20</title>
<path fill="none" stroke="#9a32cd" stroke-dasharray="5,2" d="M446.28,-354.793C462.492,-350.502 481.021,-345.807 498,-342 551.841,-329.929 578.629,-355.51 620,-319 639.601,-301.701 619.159,-281.123 638,-263 650.512,-250.965 668.537,-244.866 684.856,-241.814"/>
<polygon fill="#9a32cd" stroke="#9a32cd" points="445.278,-351.437 436.52,-357.4 447.085,-358.2 445.278,-351.437"/>
<text text-anchor="middle" x="559" y="-345" font-family="Helvetica,sans-Serif" font-size="10.00"> mySLogoView</text>
</g>
<!-- Node10 -->
<g id="node10" class="node"><title>Node10</title>
<g id="a_node10"><a xlink:href="../../da/d64/classview_1_1_workspace.html" target="_top" xlink:title="view.Workspace">
<polygon fill="white" stroke="black" points="1208,-516.5 1208,-535.5 1298,-535.5 1298,-516.5 1208,-516.5"/>
<text text-anchor="middle" x="1253" y="-523.5" font-family="Helvetica,sans-Serif" font-size="10.00">view.Workspace</text>
</a>
</g>
</g>
<!-- Node10&#45;&gt;Node9 -->
<g id="edge10" class="edge"><title>Node10&#45;&gt;Node9</title>
<path fill="none" stroke="#9a32cd" stroke-dasharray="5,2" d="M1238.52,-543.819C1227.1,-557.662 1209.5,-576.259 1190,-587 1152.42,-607.705 1138.62,-604.079 1096,-609 893.788,-632.348 826.061,-686.897 638,-609 627.547,-604.67 629.899,-596.479 620,-591 571.326,-564.061 541.589,-597.567 498,-563 434.171,-512.382 409.842,-408.54 403.687,-376.577"/>
<polygon fill="#9a32cd" stroke="#9a32cd" points="1241.31,-545.931 1244.8,-535.926 1235.83,-541.574 1241.31,-545.931"/>
<text text-anchor="middle" x="881" y="-652" font-family="Helvetica,sans-Serif" font-size="10.00"> myWorkspace</text>
</g>
<!-- Node32 -->
<g id="node32" class="node"><title>Node32</title>
<g id="a_node32"><a xlink:href="../../de/d0a/classview_1_1_drawer.html" target="_top" xlink:title="view.Drawer">
<polygon fill="white" stroke="black" points="1404.5,-415.5 1404.5,-434.5 1477.5,-434.5 1477.5,-415.5 1404.5,-415.5"/>
<text text-anchor="middle" x="1441" y="-422.5" font-family="Helvetica,sans-Serif" font-size="10.00">view.Drawer</text>
</a>
</g>
</g>
<!-- Node10&#45;&gt;Node32 -->
<g id="edge41" class="edge"><title>Node10&#45;&gt;Node32</title>
<path fill="none" stroke="#9a32cd" stroke-dasharray="5,2" d="M1280.58,-511.567C1319.17,-490.613 1389.66,-452.333 1422.41,-434.55"/>
<polygon fill="#9a32cd" stroke="#9a32cd" points="1278.62,-508.65 1271.5,-516.498 1281.96,-514.802 1278.62,-508.65"/>
<text text-anchor="middle" x="1351" y="-493" font-family="Helvetica,sans-Serif" font-size="10.00"> myWorkspace</text>
</g>
<!-- Node11 -->
<g id="node11" class="node"><title>Node11</title>
<polygon fill="white" stroke="#bfbfbf" points="989.5,-542.5 989.5,-561.5 1056.5,-561.5 1056.5,-542.5 989.5,-542.5"/>
<text text-anchor="middle" x="1023" y="-549.5" font-family="Helvetica,sans-Serif" font-size="10.00">StackPane</text>
</g>
<!-- Node11&#45;&gt;Node10 -->
<g id="edge11" class="edge"><title>Node11&#45;&gt;Node10</title>
<path fill="none" stroke="midnightblue" d="M1067.17,-548.081C1100.71,-544.916 1148.36,-540.152 1190,-535 1195.83,-534.279 1201.96,-533.461 1208,-532.62"/>
<polygon fill="midnightblue" stroke="midnightblue" points="1066.43,-544.635 1056.8,-549.051 1067.09,-551.604 1066.43,-544.635"/>
</g>
<!-- Node12 -->
<g id="node12" class="node"><title>Node12</title>
<g id="a_node12"><a xlink:href="../../d8/df7/classview_1_1_turtle_view.html" target="_top" xlink:title="view.TurtleView">
<polygon fill="white" stroke="black" points="980,-580.5 980,-599.5 1066,-599.5 1066,-580.5 980,-580.5"/>
<text text-anchor="middle" x="1023" y="-587.5" font-family="Helvetica,sans-Serif" font-size="10.00">view.TurtleView</text>
</a>
</g>
</g>
<!-- Node12&#45;&gt;Node10 -->
<g id="edge12" class="edge"><title>Node12&#45;&gt;Node10</title>
<path fill="none" stroke="#9a32cd" stroke-dasharray="5,2" d="M1076.12,-581.041C1109.17,-574.71 1152.6,-565.187 1190,-553 1204.62,-548.235 1220.52,-541.276 1232.55,-535.617"/>
<polygon fill="#9a32cd" stroke="#9a32cd" points="1075.39,-577.616 1066.21,-582.903 1076.69,-584.496 1075.39,-577.616"/>
<text text-anchor="middle" x="1152" y="-575" font-family="Helvetica,sans-Serif" font-size="10.00"> myActiveTurtle</text>
</g>
<!-- Node13 -->
<g id="node13" class="node"><title>Node13</title>
<polygon fill="white" stroke="#bfbfbf" points="691,-580.5 691,-599.5 759,-599.5 759,-580.5 691,-580.5"/>
<text text-anchor="middle" x="725" y="-587.5" font-family="Helvetica,sans-Serif" font-size="10.00">ImageView</text>
</g>
<!-- Node13&#45;&gt;Node12 -->
<g id="edge13" class="edge"><title>Node13&#45;&gt;Node12</title>
<path fill="none" stroke="midnightblue" d="M769.113,-590C825.479,-590 923.605,-590 979.611,-590"/>
<polygon fill="midnightblue" stroke="midnightblue" points="769.093,-586.5 759.093,-590 769.093,-593.5 769.093,-586.5"/>
</g>
<!-- Node14 -->
<g id="node14" class="node"><title>Node14</title>
<polygon fill="white" stroke="#bfbfbf" points="955,-493 955,-523 1091,-523 1091,-493 955,-493"/>
<text text-anchor="start" x="963" y="-511" font-family="Helvetica,sans-Serif" font-size="10.00">Map&lt; Integer, view.Turtle</text>
<text text-anchor="middle" x="1023" y="-500" font-family="Helvetica,sans-Serif" font-size="10.00">View &gt;</text>
</g>
<!-- Node14&#45;&gt;Node10 -->
<g id="edge14" class="edge"><title>Node14&#45;&gt;Node10</title>
<path fill="none" stroke="#9a32cd" stroke-dasharray="5,2" d="M1101.52,-514.12C1137.03,-516.923 1177.82,-520.143 1207.96,-522.523"/>
<polygon fill="#9a32cd" stroke="#9a32cd" points="1101.42,-510.601 1091.17,-513.303 1100.87,-517.579 1101.42,-510.601"/>
<text text-anchor="middle" x="1152" y="-523" font-family="Helvetica,sans-Serif" font-size="10.00"> myTurtles</text>
</g>
<!-- Node15&#45;&gt;Node9 -->
<g id="edge43" class="edge"><title>Node15&#45;&gt;Node9</title>
<path fill="none" stroke="#9a32cd" stroke-dasharray="5,2" d="M992.289,-381.759C975.063,-389.086 952.739,-397.495 932,-402 750.647,-441.391 526.887,-397.219 439.472,-376.523"/>
<polygon fill="#9a32cd" stroke="#9a32cd" points="994.029,-384.818 1001.79,-377.607 991.227,-378.403 994.029,-384.818"/>
<text text-anchor="middle" x="725" y="-421" font-family="Helvetica,sans-Serif" font-size="10.00"> mySidebar</text>
</g>
<!-- Node15&#45;&gt;Node10 -->
<g id="edge15" class="edge"><title>Node15&#45;&gt;Node10</title>
<path fill="none" stroke="#9a32cd" stroke-dasharray="5,2" d="M1054.9,-381.874C1067.81,-387.964 1082.84,-395.441 1096,-403 1139.61,-428.053 1150.89,-434.387 1190,-466 1210.04,-482.195 1231.14,-503.713 1242.83,-516.09"/>
<polygon fill="#9a32cd" stroke="#9a32cd" points="1056.05,-378.548 1045.51,-377.509 1053.1,-384.897 1056.05,-378.548"/>
<text text-anchor="middle" x="1152" y="-469" font-family="Helvetica,sans-Serif" font-size="10.00"> mySidebar</text>
</g>
<!-- Node26 -->
<g id="node26" class="node"><title>Node26</title>
<g id="a_node26"><a xlink:href="../../da/dc8/classview_1_1_editor.html" target="_top" xlink:title="view.Editor">
<polygon fill="white" stroke="black" points="1219.5,-248.5 1219.5,-267.5 1286.5,-267.5 1286.5,-248.5 1219.5,-248.5"/>
<text text-anchor="middle" x="1253" y="-255.5" font-family="Helvetica,sans-Serif" font-size="10.00">view.Editor</text>
</a>
</g>
</g>
<!-- Node15&#45;&gt;Node26 -->
<g id="edge36" class="edge"><title>Node15&#45;&gt;Node26</title>
<path fill="none" stroke="#9a32cd" stroke-dasharray="5,2" d="M1071.62,-358.15C1106.06,-349.715 1152.88,-335.481 1190,-314 1211.84,-301.36 1232.64,-280.032 1243.72,-267.666"/>
<polygon fill="#9a32cd" stroke="#9a32cd" points="1070.73,-354.765 1061.8,-360.48 1072.34,-361.576 1070.73,-354.765"/>
<text text-anchor="middle" x="1152" y="-349" font-family="Helvetica,sans-Serif" font-size="10.00"> mySidebar</text>
</g>
<!-- Node16 -->
<g id="node16" class="node"><title>Node16</title>
<polygon fill="white" stroke="#bfbfbf" points="704.5,-504.5 704.5,-523.5 745.5,-523.5 745.5,-504.5 704.5,-504.5"/>
<text text-anchor="middle" x="725" y="-511.5" font-family="Helvetica,sans-Serif" font-size="10.00">VBox</text>
</g>
<!-- Node16&#45;&gt;Node15 -->
<g id="edge16" class="edge"><title>Node16&#45;&gt;Node15</title>
<path fill="none" stroke="midnightblue" d="M755.633,-520.247C800.017,-527.72 883.691,-534.233 932,-490 961.122,-463.335 925.754,-434.165 950,-403 959.302,-391.043 973.736,-382.923 987.245,-377.54"/>
<polygon fill="midnightblue" stroke="midnightblue" points="756.219,-516.796 745.755,-518.456 754.97,-523.684 756.219,-516.796"/>
</g>
<!-- Node17 -->
<g id="node17" class="node"><title>Node17</title>
<polygon fill="white" stroke="#bfbfbf" points="638.5,-381.5 638.5,-400.5 811.5,-400.5 811.5,-381.5 638.5,-381.5"/>
<text text-anchor="middle" x="725" y="-388.5" font-family="Helvetica,sans-Serif" font-size="10.00">ObservableList&lt; view.Property &gt;</text>
</g>
<!-- Node17&#45;&gt;Node15 -->
<g id="edge17" class="edge"><title>Node17&#45;&gt;Node15</title>
<path fill="none" stroke="#9a32cd" stroke-dasharray="5,2" d="M821.681,-386.691C856.454,-384.792 896.035,-382.242 932,-379 949.245,-377.445 968.287,-375.196 984.398,-373.136"/>
<polygon fill="#9a32cd" stroke="#9a32cd" points="821.331,-383.205 811.532,-387.235 821.705,-390.195 821.331,-383.205"/>
<text text-anchor="middle" x="881" y="-390" font-family="Helvetica,sans-Serif" font-size="10.00"> variablesList</text>
</g>
<!-- Node18 -->
<g id="node18" class="node"><title>Node18</title>
<polygon fill="white" stroke="#bfbfbf" points="40.5,-504.5 40.5,-523.5 133.5,-523.5 133.5,-504.5 40.5,-504.5"/>
<text text-anchor="middle" x="87" y="-511.5" font-family="Helvetica,sans-Serif" font-size="10.00">ResourceBundle</text>
</g>
<!-- Node18&#45;&gt;Node9 -->
<g id="edge30" class="edge"><title>Node18&#45;&gt;Node9</title>
<path fill="none" stroke="#9a32cd" stroke-dasharray="5,2" d="M127.2,-501.213C171.274,-486.238 244.461,-459.557 304,-429 335.066,-413.056 368.791,-389.73 386.836,-376.709"/>
<polygon fill="#9a32cd" stroke="#9a32cd" points="125.811,-497.988 117.451,-504.496 128.045,-504.622 125.811,-497.988"/>
<text text-anchor="middle" x="248" y="-480" font-family="Helvetica,sans-Serif" font-size="10.00"> myResources</text>
</g>
<!-- Node18&#45;&gt;Node15 -->
<g id="edge18" class="edge"><title>Node18&#45;&gt;Node15</title>
<path fill="none" stroke="#9a32cd" stroke-dasharray="5,2" d="M143.642,-508.455C187.272,-504.078 249.517,-497.768 304,-492 583.231,-462.441 682.129,-551.094 932,-423 942.642,-417.545 940.445,-410.192 950,-403 964.103,-392.385 981.933,-383.688 996.321,-377.619"/>
<polygon fill="#9a32cd" stroke="#9a32cd" points="143.122,-504.99 133.521,-509.469 143.82,-511.955 143.122,-504.99"/>
<text text-anchor="middle" x="559" y="-497" font-family="Helvetica,sans-Serif" font-size="10.00"> myResources</text>
</g>
<!-- Node19 -->
<g id="node19" class="node"><title>Node19</title>
<polygon fill="white" stroke="#bfbfbf" points="651,-343.5 651,-362.5 799,-362.5 799,-343.5 651,-343.5"/>
<text text-anchor="middle" x="725" y="-350.5" font-family="Helvetica,sans-Serif" font-size="10.00">TableView&lt; view.Property &gt;</text>
</g>
<!-- Node19&#45;&gt;Node15 -->
<g id="edge20" class="edge"><title>Node19&#45;&gt;Node15</title>
<path fill="none" stroke="#9a32cd" stroke-dasharray="5,2" d="M809.392,-352.685C846.908,-353.041 891.72,-354.155 932,-357 949.272,-358.22 968.318,-360.423 984.424,-362.538"/>
<polygon fill="#9a32cd" stroke="#9a32cd" points="809.042,-349.182 799.015,-352.604 808.987,-356.182 809.042,-349.182"/>
<text text-anchor="middle" x="881" y="-371" font-family="Helvetica,sans-Serif" font-size="10.00"> turtlePropertiesTable</text>
<text text-anchor="middle" x="881" y="-360" font-family="Helvetica,sans-Serif" font-size="10.00">variablesTable</text>
</g>
<!-- Node20&#45;&gt;Node9 -->
<g id="edge38" class="edge"><title>Node20&#45;&gt;Node9</title>
<path fill="none" stroke="#9a32cd" stroke-dasharray="5,2" d="M674.765,-248.094C662.254,-251.631 649.194,-256.459 638,-263 628.231,-268.707 629.962,-275.638 620,-281 571.262,-307.232 549.316,-285.26 498,-306 465.229,-319.245 431.351,-343.791 413.936,-357.359"/>
<polygon fill="#9a32cd" stroke="#9a32cd" points="675.839,-251.431 684.635,-245.526 674.076,-244.657 675.839,-251.431"/>
<text text-anchor="middle" x="559" y="-309" font-family="Helvetica,sans-Serif" font-size="10.00"> myParser</text>
</g>
<!-- Node20&#45;&gt;Node15 -->
<g id="edge21" class="edge"><title>Node20&#45;&gt;Node15</title>
<path fill="none" stroke="#9a32cd" stroke-dasharray="5,2" d="M765.379,-226.81C810.995,-215.353 885.785,-205.166 932,-244 963.23,-270.243 924.877,-301.862 950,-334 958.939,-345.435 972.658,-353.21 985.732,-358.403"/>
<polygon fill="#9a32cd" stroke="#9a32cd" points="764.326,-223.468 755.554,-229.411 766.117,-230.235 764.326,-223.468"/>
<text text-anchor="middle" x="881" y="-247" font-family="Helvetica,sans-Serif" font-size="10.00"> myParser</text>
</g>
<!-- Node20&#45;&gt;Node26 -->
<g id="edge34" class="edge"><title>Node20&#45;&gt;Node26</title>
<path fill="none" stroke="#9a32cd" stroke-dasharray="5,2" d="M756.763,-225.335C820.296,-198.878 970.561,-145.421 1096,-171 1140.49,-180.072 1150.72,-188.225 1190,-211 1209.16,-222.112 1229.22,-238.276 1241.16,-248.458"/>
<polygon fill="#9a32cd" stroke="#9a32cd" points="755.17,-222.209 747.328,-229.334 757.902,-228.654 755.17,-222.209"/>
<text text-anchor="middle" x="1023" y="-174" font-family="Helvetica,sans-Serif" font-size="10.00"> myParser</text>
</g>
<!-- Node21 -->
<g id="node21" class="node"><title>Node21</title>
<polygon fill="white" stroke="#bfbfbf" points="345,-263 345,-293 457,-293 457,-263 345,-263"/>
<text text-anchor="start" x="353" y="-281" font-family="Helvetica,sans-Serif" font-size="10.00">List&lt; Entry&lt; String,</text>
<text text-anchor="middle" x="401" y="-270" font-family="Helvetica,sans-Serif" font-size="10.00"> Pattern &gt; &gt;</text>
</g>
<!-- Node21&#45;&gt;Node20 -->
<g id="edge23" class="edge"><title>Node21&#45;&gt;Node20</title>
<path fill="none" stroke="#9a32cd" stroke-dasharray="5,2" d="M467.519,-270.064C532.679,-262.172 630.507,-250.324 684.567,-243.776"/>
<polygon fill="#9a32cd" stroke="#9a32cd" points="466.86,-266.619 457.354,-271.296 467.702,-273.568 466.86,-266.619"/>
<text text-anchor="middle" x="559" y="-269" font-family="Helvetica,sans-Serif" font-size="10.00"> myPatterns</text>
</g>
<!-- Node22 -->
<g id="node22" class="node"><title>Node22</title>
<polygon fill="white" stroke="#bfbfbf" points="340,-224.5 340,-243.5 462,-243.5 462,-224.5 340,-224.5"/>
<text text-anchor="middle" x="401" y="-231.5" font-family="Helvetica,sans-Serif" font-size="10.00">Map&lt; String, String &gt;</text>
</g>
<!-- Node22&#45;&gt;Node20 -->
<g id="edge25" class="edge"><title>Node22&#45;&gt;Node20</title>
<path fill="none" stroke="#9a32cd" stroke-dasharray="5,2" d="M472.39,-235.093C537.597,-236.106 632.209,-237.575 684.877,-238.393"/>
<polygon fill="#9a32cd" stroke="#9a32cd" points="472.241,-231.59 462.188,-234.935 472.132,-238.59 472.241,-231.59"/>
<text text-anchor="middle" x="559" y="-241" font-family="Helvetica,sans-Serif" font-size="10.00"> myCommandMap</text>
</g>
<!-- Node23 -->
<g id="node23" class="node"><title>Node23</title>
<polygon fill="white" stroke="#bfbfbf" points="656,-305.5 656,-324.5 794,-324.5 794,-305.5 656,-305.5"/>
<text text-anchor="middle" x="725" y="-312.5" font-family="Helvetica,sans-Serif" font-size="10.00">ObservableList&lt; String &gt;</text>
</g>
<!-- Node23&#45;&gt;Node15 -->
<g id="edge27" class="edge"><title>Node23&#45;&gt;Node15</title>
<path fill="none" stroke="#9a32cd" stroke-dasharray="5,2" d="M804.413,-312.827C843.296,-313.443 890.662,-316.76 932,-327 939.208,-328.786 977.775,-346.882 1002.03,-358.428"/>
<polygon fill="#9a32cd" stroke="#9a32cd" points="804.238,-309.325 794.203,-312.723 804.167,-316.324 804.238,-309.325"/>
<text text-anchor="middle" x="881" y="-341" font-family="Helvetica,sans-Serif" font-size="10.00"> commandItems</text>
<text text-anchor="middle" x="881" y="-330" font-family="Helvetica,sans-Serif" font-size="10.00">historyItems</text>
</g>
<!-- Node24 -->
<g id="node24" class="node"><title>Node24</title>
<polygon fill="white" stroke="#bfbfbf" points="991.5,-454.5 991.5,-473.5 1054.5,-473.5 1054.5,-454.5 991.5,-454.5"/>
<text text-anchor="middle" x="1023" y="-461.5" font-family="Helvetica,sans-Serif" font-size="10.00">Rectangle</text>
</g>
<!-- Node24&#45;&gt;Node10 -->
<g id="edge28" class="edge"><title>Node24&#45;&gt;Node10</title>
<path fill="none" stroke="#9a32cd" stroke-dasharray="5,2" d="M1064.74,-470.678C1098.68,-476.753 1148.07,-486.785 1190,-500 1204.36,-504.526 1219.99,-511.093 1231.97,-516.494"/>
<polygon fill="#9a32cd" stroke="#9a32cd" points="1065.18,-467.202 1054.73,-468.921 1063.97,-474.097 1065.18,-467.202"/>
<text text-anchor="middle" x="1152" y="-503" font-family="Helvetica,sans-Serif" font-size="10.00"> myBackground</text>
</g>
<!-- Node25 -->
<g id="node25" class="node"><title>Node25</title>
<polygon fill="white" stroke="#bfbfbf" points="64.5,-376.5 64.5,-395.5 109.5,-395.5 109.5,-376.5 64.5,-376.5"/>
<text text-anchor="middle" x="87" y="-383.5" font-family="Helvetica,sans-Serif" font-size="10.00">Stage</text>
</g>
<!-- Node25&#45;&gt;Node9 -->
<g id="edge29" class="edge"><title>Node25&#45;&gt;Node9</title>
<path fill="none" stroke="#9a32cd" stroke-dasharray="5,2" d="M119.977,-384.053C175.9,-380.647 291.57,-373.603 355.356,-369.719"/>
<polygon fill="#9a32cd" stroke="#9a32cd" points="119.708,-380.562 109.939,-384.664 120.134,-387.55 119.708,-380.562"/>
<text text-anchor="middle" x="248" y="-383" font-family="Helvetica,sans-Serif" font-size="10.00"> myStage</text>
</g>
<!-- Node26&#45;&gt;Node9 -->
<g id="edge31" class="edge"><title>Node26&#45;&gt;Node9</title>
<path fill="none" stroke="#9a32cd" stroke-dasharray="5,2" d="M1208.77,-261.602C1202.48,-262.093 1196.07,-262.574 1190,-263 1128.71,-267.303 686.452,-258.216 638,-296 617.05,-312.337 640.913,-336.617 620,-353 568.799,-393.11 488.362,-385.762 440.839,-376.541"/>
<polygon fill="#9a32cd" stroke="#9a32cd" points="1209.5,-265.055 1219.19,-260.774 1208.94,-258.077 1209.5,-265.055"/>
<text text-anchor="middle" x="881" y="-273" font-family="Helvetica,sans-Serif" font-size="10.00"> myEditor</text>
</g>
<!-- Node27 -->
<g id="node27" class="node"><title>Node27</title>
<polygon fill="white" stroke="#bfbfbf" points="1002,-305.5 1002,-324.5 1044,-324.5 1044,-305.5 1002,-305.5"/>
<text text-anchor="middle" x="1023" y="-312.5" font-family="Helvetica,sans-Serif" font-size="10.00">HBox</text>
</g>
<!-- Node27&#45;&gt;Node26 -->
<g id="edge32" class="edge"><title>Node27&#45;&gt;Node26</title>
<path fill="none" stroke="midnightblue" d="M1054.35,-313.747C1088.18,-311.636 1144.18,-306 1190,-291 1207.15,-285.386 1225.19,-275.233 1237.36,-267.667"/>
<polygon fill="midnightblue" stroke="midnightblue" points="1053.97,-310.262 1044.18,-314.315 1054.36,-317.251 1053.97,-310.262"/>
</g>
<!-- Node28 -->
<g id="node28" class="node"><title>Node28</title>
<polygon fill="white" stroke="#bfbfbf" points="998.5,-229.5 998.5,-248.5 1047.5,-248.5 1047.5,-229.5 998.5,-229.5"/>
<text text-anchor="middle" x="1023" y="-236.5" font-family="Helvetica,sans-Serif" font-size="10.00">Button</text>
</g>
<!-- Node28&#45;&gt;Node26 -->
<g id="edge33" class="edge"><title>Node28&#45;&gt;Node26</title>
<path fill="none" stroke="#9a32cd" stroke-dasharray="5,2" d="M1057.83,-241.467C1091.39,-243.957 1144.27,-247.997 1190,-252 1199.48,-252.83 1209.77,-253.798 1219.19,-254.712"/>
<polygon fill="#9a32cd" stroke="#9a32cd" points="1057.88,-237.961 1047.65,-240.715 1057.37,-244.942 1057.88,-237.961"/>
<text text-anchor="middle" x="1152" y="-255" font-family="Helvetica,sans-Serif" font-size="10.00"> runButton</text>
</g>
<!-- Node29 -->
<g id="node29" class="node"><title>Node29</title>
<polygon fill="white" stroke="#bfbfbf" points="994,-191.5 994,-210.5 1052,-210.5 1052,-191.5 994,-191.5"/>
<text text-anchor="middle" x="1023" y="-198.5" font-family="Helvetica,sans-Serif" font-size="10.00">TextArea</text>
</g>
<!-- Node29&#45;&gt;Node26 -->
<g id="edge35" class="edge"><title>Node29&#45;&gt;Node26</title>
<path fill="none" stroke="#9a32cd" stroke-dasharray="5,2" d="M1062.07,-205.326C1096.1,-209.793 1147.08,-217.97 1190,-231 1204.94,-235.536 1221.09,-242.647 1233.16,-248.432"/>
<polygon fill="#9a32cd" stroke="#9a32cd" points="1062.44,-201.845 1052.08,-204.058 1061.56,-208.789 1062.44,-201.845"/>
<text text-anchor="middle" x="1152" y="-234" font-family="Helvetica,sans-Serif" font-size="10.00"> textEditor</text>
</g>
<!-- Node30 -->
<g id="node30" class="node"><title>Node30</title>
<polygon fill="white" stroke="#bfbfbf" points="27.5,-338.5 27.5,-357.5 146.5,-357.5 146.5,-338.5 27.5,-338.5"/>
<text text-anchor="middle" x="87" y="-345.5" font-family="Helvetica,sans-Serif" font-size="10.00">Map&lt; String, Node &gt;</text>
</g>
<!-- Node30&#45;&gt;Node9 -->
<g id="edge37" class="edge"><title>Node30&#45;&gt;Node9</title>
<path fill="none" stroke="#9a32cd" stroke-dasharray="5,2" d="M156.922,-350.943C199.356,-352.895 254.853,-355.702 304,-359 320.687,-360.12 338.986,-361.586 355.091,-362.956"/>
<polygon fill="#9a32cd" stroke="#9a32cd" points="156.852,-347.436 146.703,-350.477 156.533,-354.429 156.852,-347.436"/>
<text text-anchor="middle" x="248" y="-362" font-family="Helvetica,sans-Serif" font-size="10.00"> variables</text>
</g>
<!-- Node31 -->
<g id="node31" class="node"><title>Node31</title>
<polygon fill="white" stroke="#bfbfbf" points="46.5,-300.5 46.5,-319.5 127.5,-319.5 127.5,-300.5 46.5,-300.5"/>
<text text-anchor="middle" x="87" y="-307.5" font-family="Helvetica,sans-Serif" font-size="10.00">Dimension2D</text>
</g>
<!-- Node31&#45;&gt;Node9 -->
<g id="edge39" class="edge"><title>Node31&#45;&gt;Node9</title>
<path fill="none" stroke="#9a32cd" stroke-dasharray="5,2" d="M137.902,-314.121C181.937,-318.313 247.692,-325.931 304,-338 327.493,-343.035 353.554,-351.069 372.588,-357.405"/>
<polygon fill="#9a32cd" stroke="#9a32cd" points="138.027,-310.617 127.747,-313.178 137.38,-317.587 138.027,-310.617"/>
<text text-anchor="middle" x="248" y="-341" font-family="Helvetica,sans-Serif" font-size="10.00"> myDimensions</text>
</g>
<!-- Node32&#45;&gt;Node9 -->
<g id="edge40" class="edge"><title>Node32&#45;&gt;Node9</title>
<path fill="none" stroke="#9a32cd" stroke-dasharray="5,2" d="M1393.98,-422.641C1278.56,-417.172 983.615,-406.111 950,-434 919.612,-459.212 961.339,-494.574 932,-521 883.416,-564.762 700.34,-552.729 638,-533 536.275,-500.807 440.45,-407.267 411.128,-376.752"/>
<polygon fill="#9a32cd" stroke="#9a32cd" points="1394.09,-426.151 1404.25,-423.136 1394.43,-419.159 1394.09,-426.151"/>
<text text-anchor="middle" x="1023" y="-437" font-family="Helvetica,sans-Serif" font-size="10.00"> drawer</text>
</g>
<!-- Node33 -->
<g id="node33" class="node"><title>Node33</title>
<polygon fill="white" stroke="#bfbfbf" points="1232.5,-377.5 1232.5,-396.5 1273.5,-396.5 1273.5,-377.5 1232.5,-377.5"/>
<text text-anchor="middle" x="1253" y="-384.5" font-family="Helvetica,sans-Serif" font-size="10.00">Color</text>
</g>
<!-- Node33&#45;&gt;Node32 -->
<g id="edge42" class="edge"><title>Node33&#45;&gt;Node32</title>
<path fill="none" stroke="#9a32cd" stroke-dasharray="5,2" d="M1283.61,-387.102C1310.71,-387.853 1351.67,-390.652 1386,-400 1398.96,-403.529 1412.68,-409.921 1423.05,-415.358"/>
<polygon fill="#9a32cd" stroke="#9a32cd" points="1283.67,-383.602 1273.6,-386.901 1283.53,-390.601 1283.67,-383.602"/>
<text text-anchor="middle" x="1351" y="-403" font-family="Helvetica,sans-Serif" font-size="10.00"> myColor</text>
</g>
<!-- Node34 -->
<g id="node34" class="node"><title>Node34</title>
<polygon fill="white" stroke="#bfbfbf" points="64,-414.5 64,-433.5 110,-433.5 110,-414.5 64,-414.5"/>
<text text-anchor="middle" x="87" y="-421.5" font-family="Helvetica,sans-Serif" font-size="10.00">Group</text>
</g>
<!-- Node34&#45;&gt;Node9 -->
<g id="edge44" class="edge"><title>Node34&#45;&gt;Node9</title>
<path fill="none" stroke="#9a32cd" stroke-dasharray="5,2" d="M120.291,-421.193C162.746,-417.156 239.505,-408.654 304,-395 326.929,-390.146 352.372,-382.625 371.301,-376.599"/>
<polygon fill="#9a32cd" stroke="#9a32cd" points="119.899,-417.715 110.265,-422.124 120.546,-424.685 119.899,-417.715"/>
<text text-anchor="middle" x="248" y="-417" font-family="Helvetica,sans-Serif" font-size="10.00"> lines</text>
</g>
</g>
</svg>
