<?xml version="1.0" encoding="UTF-8" standalone="no"?>
<!DOCTYPE svg PUBLIC "-//W3C//DTD SVG 1.1//EN"
 "http://www.w3.org/Graphics/SVG/1.1/DTD/svg11.dtd">
<!-- Generated by graphviz version 2.36.0 (20140111.2315)
 -->
<!-- Title: model.instructions.Variable Pages: 1 -->
<!--zoomable 740 -->
<svg id="main" version="1.1" xmlns="http://www.w3.org/2000/svg" xmlns:xlink="http://www.w3.org/1999/xlink" xml:space="preserve" onload="init(evt)">
<style type="text/css"><![CDATA[
.edge:hover path { stroke: red; }
.edge:hover polygon { stroke: red; fill: red; }
]]></style>
<script type="text/javascript"><![CDATA[
var edges = document.getElementsByTagName('g');
if (edges && edges.length) {
  for (var i=0;i<edges.length;i++) {
    if (edges[i].id.substr(0,4)=='edge') {
      edges[i].setAttribute('class','edge');
    }
  }
}
]]></script>
        <defs>
                <circle id="rim" cx="0" cy="0" r="7"/>
                <circle id="rim2" cx="0" cy="0" r="3.5"/>
                <g id="zoomPlus">
                        <use xlink:href="#rim" fill="#404040">
                                <set attributeName="fill" to="#808080" begin="zoomplus.mouseover" end="zoomplus.mouseout"/>
                        </use>
                        <path d="M-4,0h8M0,-4v8" fill="none" stroke="white" stroke-width="1.5" pointer-events="none"/>
                </g>
                <g id="zoomMin">
                        <use xlink:href="#rim" fill="#404040">
                                <set attributeName="fill" to="#808080" begin="zoomminus.mouseover" end="zoomminus.mouseout"/>
                        </use>
                        <path d="M-4,0h8" fill="none" stroke="white" stroke-width="1.5" pointer-events="none"/>
                </g>
                <g id="dirArrow">
                        <path fill="none" stroke="white" stroke-width="1.5" d="M0,-3.0v7 M-2.5,-0.5L0,-3.0L2.5,-0.5"/>
                </g>
               <g id="resetDef">
                       <use xlink:href="#rim2" fill="#404040">
                               <set attributeName="fill" to="#808080" begin="reset.mouseover" end="reset.mouseout"/>
                       </use>
               </g>
        </defs>

<script type="text/javascript">
var viewWidth = 1676;
var viewHeight = 740;
var sectionId = 'dynsection-1';
</script>
<script xlink:href="../../svgpan.js"/>
<svg id="graph" class="graph">
<g id="viewport">
<title>model.instructions.Variable</title>
<polygon fill="white" stroke="none" points="-4,4 -4,-736 1672,-736 1672,4 -4,4"/>
<!-- Node1 -->
<g id="node1" class="node"><title>Node1</title>
<polygon fill="#bfbfbf" stroke="black" points="902,-507.5 902,-526.5 1048,-526.5 1048,-507.5 902,-507.5"/>
<text text-anchor="middle" x="975" y="-514.5" font-family="Helvetica,sans-Serif" font-size="10.00">model.instructions.Variable</text>
</g>
<!-- Node2 -->
<g id="node2" class="node"><title>Node2</title>
<g id="a_node2"><a xlink:href="../../d1/dea/classmodel_1_1instructions_1_1_instruction.html" target="_top" xlink:title="model.instructions.Instruction">
<polygon fill="white" stroke="black" points="638,-535.5 638,-554.5 796,-554.5 796,-535.5 638,-535.5"/>
<text text-anchor="middle" x="717" y="-542.5" font-family="Helvetica,sans-Serif" font-size="10.00">model.instructions.Instruction</text>
</a>
</g>
</g>
<!-- Node2&#45;&gt;Node1 -->
<g id="edge1" class="edge"><title>Node2&#45;&gt;Node1</title>
<path fill="none" stroke="midnightblue" d="M806.209,-535.352C837.454,-531.935 872.21,-528.133 901.95,-524.88"/>
<polygon fill="midnightblue" stroke="midnightblue" points="805.76,-531.88 796.199,-536.447 806.521,-538.839 805.76,-531.88"/>
</g>
<!-- Node3 -->
<g id="node3" class="node"><title>Node3</title>
<polygon fill="white" stroke="#bfbfbf" points="57,-383.5 57,-402.5 117,-402.5 117,-383.5 57,-383.5"/>
<text text-anchor="middle" x="87" y="-390.5" font-family="Helvetica,sans-Serif" font-size="10.00">Observer</text>
</g>
<!-- Node3&#45;&gt;Node2 -->
<g id="edge2" class="edge"><title>Node3&#45;&gt;Node2</title>
<path fill="none" stroke="midnightblue" d="M105.512,-409.25C125.091,-426.504 158.473,-453.272 192,-468 340.165,-533.088 532.275,-545.074 637.874,-546.21"/>
<polygon fill="midnightblue" stroke="midnightblue" points="107.781,-406.584 98.005,-402.501 103.101,-411.79 107.781,-406.584"/>
</g>
<!-- Node9 -->
<g id="node9" class="node"><title>Node9</title>
<g id="a_node9"><a xlink:href="../../d6/de7/classview_1_1_s_logo_view.html" target="_top" xlink:title="view.SLogoView">
<polygon fill="white" stroke="black" points="355.5,-277.5 355.5,-296.5 446.5,-296.5 446.5,-277.5 355.5,-277.5"/>
<text text-anchor="middle" x="401" y="-284.5" font-family="Helvetica,sans-Serif" font-size="10.00">view.SLogoView</text>
</a>
</g>
</g>
<!-- Node3&#45;&gt;Node9 -->
<g id="edge9" class="edge"><title>Node3&#45;&gt;Node9</title>
<path fill="none" stroke="midnightblue" d="M116.729,-379.136C137.351,-369.54 165.979,-356.938 192,-348 240.63,-331.296 254.692,-333.583 304,-319 327.417,-312.074 353.707,-303.235 372.846,-296.603"/>
<polygon fill="midnightblue" stroke="midnightblue" points="115.135,-376.018 107.577,-383.442 118.115,-382.352 115.135,-376.018"/>
</g>
<!-- Node21 -->
<g id="node21" class="node"><title>Node21</title>
<g id="a_node21"><a xlink:href="../../dc/df5/classmodel_1_1_parser.html" target="_top" xlink:title="model.Parser">
<polygon fill="white" stroke="black" points="677,-378.5 677,-397.5 757,-397.5 757,-378.5 677,-378.5"/>
<text text-anchor="middle" x="717" y="-385.5" font-family="Helvetica,sans-Serif" font-size="10.00">model.Parser</text>
</a>
</g>
</g>
<!-- Node3&#45;&gt;Node21 -->
<g id="edge23" class="edge"><title>Node3&#45;&gt;Node21</title>
<path fill="none" stroke="midnightblue" d="M127.273,-392.687C240.078,-391.789 564.163,-389.209 676.834,-388.312"/>
<polygon fill="midnightblue" stroke="midnightblue" points="127.002,-389.189 117.03,-392.769 127.058,-396.189 127.002,-389.189"/>
</g>
<!-- Node4 -->
<g id="node4" class="node"><title>Node4</title>
<g id="a_node4"><a xlink:href="../../d1/dca/classmodel_1_1_execution_environment.html" target="_top" xlink:title="model.ExecutionEnvironment">
<polygon fill="white" stroke="black" points="322.5,-553.5 322.5,-572.5 479.5,-572.5 479.5,-553.5 322.5,-553.5"/>
<text text-anchor="middle" x="401" y="-560.5" font-family="Helvetica,sans-Serif" font-size="10.00">model.ExecutionEnvironment</text>
</a>
</g>
</g>
<!-- Node4&#45;&gt;Node2 -->
<g id="edge3" class="edge"><title>Node4&#45;&gt;Node2</title>
<path fill="none" stroke="#9a32cd" stroke-dasharray="5,2" d="M489.724,-561.822C529.529,-560.866 577.181,-559.135 620,-556 625.856,-555.571 631.905,-555.054 637.985,-554.481"/>
<polygon fill="#9a32cd" stroke="#9a32cd" points="489.434,-558.328 479.516,-562.055 489.593,-565.326 489.434,-558.328"/>
<text text-anchor="middle" x="559" y="-565" font-family="Helvetica,sans-Serif" font-size="10.00"> myEnvironment</text>
</g>
<!-- Node4&#45;&gt;Node21 -->
<g id="edge25" class="edge"><title>Node4&#45;&gt;Node21</title>
<path fill="none" stroke="#9a32cd" stroke-dasharray="5,2" d="M413.884,-544.708C430.022,-521.432 461.125,-481.764 498,-461 546.308,-433.799 567.599,-453.103 620,-435 649.116,-424.942 680.837,-408.165 699.543,-397.613"/>
<polygon fill="#9a32cd" stroke="#9a32cd" points="410.777,-543.055 408.09,-553.303 416.582,-546.968 410.777,-543.055"/>
<text text-anchor="middle" x="559" y="-464" font-family="Helvetica,sans-Serif" font-size="10.00"> myExecutionParameters</text>
</g>
<!-- Node5 -->
<g id="node5" class="node"><title>Node5</title>
<polygon fill="white" stroke="#bfbfbf" points="51.5,-658.5 51.5,-677.5 122.5,-677.5 122.5,-658.5 51.5,-658.5"/>
<text text-anchor="middle" x="87" y="-665.5" font-family="Helvetica,sans-Serif" font-size="10.00">Observable</text>
</g>
<!-- Node5&#45;&gt;Node4 -->
<g id="edge4" class="edge"><title>Node5&#45;&gt;Node4</title>
<path fill="none" stroke="midnightblue" d="M132.752,-668.393C180.056,-666.556 254.529,-656.978 304,-618 318.051,-606.929 308.012,-593.151 322,-582 326.795,-578.177 332.246,-575.107 337.986,-572.644"/>
<polygon fill="midnightblue" stroke="midnightblue" points="132.404,-664.901 122.508,-668.686 132.604,-671.899 132.404,-664.901"/>
</g>
<!-- Node6 -->
<g id="node6" class="node"><title>Node6</title>
<polygon fill="white" stroke="#bfbfbf" points="0,-609 0,-639 174,-639 174,-609 0,-609"/>
<text text-anchor="start" x="8" y="-627" font-family="Helvetica,sans-Serif" font-size="10.00">Map&lt; String, model.instructions.</text>
<text text-anchor="middle" x="87" y="-616" font-family="Helvetica,sans-Serif" font-size="10.00">Instruction &gt;</text>
</g>
<!-- Node6&#45;&gt;Node4 -->
<g id="edge5" class="edge"><title>Node6&#45;&gt;Node4</title>
<path fill="none" stroke="#9a32cd" stroke-dasharray="5,2" d="M174.811,-607.027C231.79,-595.887 304.214,-581.727 351.314,-572.519"/>
<polygon fill="#9a32cd" stroke="#9a32cd" points="173.866,-603.646 164.723,-609 175.209,-610.516 173.866,-603.646"/>
<text text-anchor="middle" x="248" y="-606" font-family="Helvetica,sans-Serif" font-size="10.00"> myUserInstructionMap</text>
</g>
<!-- Node7 -->
<g id="node7" class="node"><title>Node7</title>
<polygon fill="white" stroke="#bfbfbf" points="23,-712.5 23,-731.5 151,-731.5 151,-712.5 23,-712.5"/>
<text text-anchor="middle" x="87" y="-719.5" font-family="Helvetica,sans-Serif" font-size="10.00">Map&lt; String, Double &gt;</text>
</g>
<!-- Node7&#45;&gt;Node4 -->
<g id="edge6" class="edge"><title>Node7&#45;&gt;Node4</title>
<path fill="none" stroke="#9a32cd" stroke-dasharray="5,2" d="M161.223,-716.918C208.255,-709.803 267.213,-693.063 304,-654 326.614,-629.987 298.606,-605.253 322,-582 325.855,-578.168 330.346,-575.063 335.189,-572.551"/>
<polygon fill="#9a32cd" stroke="#9a32cd" points="160.497,-713.485 151.076,-718.334 161.464,-720.418 160.497,-713.485"/>
<text text-anchor="middle" x="248" y="-714" font-family="Helvetica,sans-Serif" font-size="10.00"> myVariableMap</text>
</g>
<!-- Node8 -->
<g id="node8" class="node"><title>Node8</title>
<polygon fill="white" stroke="#bfbfbf" points="333,-592 333,-622 469,-622 469,-592 333,-592"/>
<text text-anchor="start" x="341" y="-610" font-family="Helvetica,sans-Serif" font-size="10.00">List&lt; model.instructions.</text>
<text text-anchor="middle" x="401" y="-599" font-family="Helvetica,sans-Serif" font-size="10.00">Instruction &gt;</text>
</g>
<!-- Node8&#45;&gt;Node2 -->
<g id="edge7" class="edge"><title>Node8&#45;&gt;Node2</title>
<path fill="none" stroke="#9a32cd" stroke-dasharray="5,2" d="M479.522,-599.86C521.454,-595.116 573.944,-587.748 620,-577 644.807,-571.211 672.311,-561.714 691.498,-554.566"/>
<polygon fill="#9a32cd" stroke="#9a32cd" points="478.93,-596.404 469.374,-600.98 479.698,-603.362 478.93,-596.404"/>
<text text-anchor="middle" x="559" y="-601" font-family="Helvetica,sans-Serif" font-size="10.00"> myDependencies</text>
</g>
<!-- Node9&#45;&gt;Node2 -->
<g id="edge8" class="edge"><title>Node9&#45;&gt;Node2</title>
<path fill="none" stroke="#9a32cd" stroke-dasharray="5,2" d="M449.854,-300.595C461.393,-306.074 472.533,-313.638 480,-324 518.74,-377.758 456.111,-420.658 498,-472 509.89,-486.574 622.465,-519.264 681.004,-535.49"/>
<polygon fill="#9a32cd" stroke="#9a32cd" points="451.148,-297.341 440.577,-296.633 448.399,-303.779 451.148,-297.341"/>
<text text-anchor="middle" x="559" y="-521" font-family="Helvetica,sans-Serif" font-size="10.00"> myView</text>
</g>
<!-- Node9&#45;&gt;Node21 -->
<g id="edge27" class="edge"><title>Node9&#45;&gt;Node21</title>
<path fill="none" stroke="#9a32cd" stroke-dasharray="5,2" d="M450.083,-299.059C465.395,-302.889 482.407,-307.134 498,-311 552.196,-324.438 571.357,-313.583 620,-341 629.856,-346.555 628.479,-352.888 638,-359 651.009,-367.351 666.77,-373.787 680.709,-378.45"/>
<polygon fill="#9a32cd" stroke="#9a32cd" points="450.848,-295.643 440.298,-296.61 449.149,-302.434 450.848,-295.643"/>
<text text-anchor="middle" x="559" y="-344" font-family="Helvetica,sans-Serif" font-size="10.00"> mySLogoView</text>
</g>
<!-- Node10 -->
<g id="node10" class="node"><title>Node10</title>
<g id="a_node10"><a xlink:href="../../da/d64/classview_1_1_workspace.html" target="_top" xlink:title="view.Workspace">
<polygon fill="white" stroke="black" points="1398,-340.5 1398,-359.5 1488,-359.5 1488,-340.5 1398,-340.5"/>
<text text-anchor="middle" x="1443" y="-347.5" font-family="Helvetica,sans-Serif" font-size="10.00">view.Workspace</text>
</a>
</g>
</g>
<!-- Node10&#45;&gt;Node9 -->
<g id="edge10" class="edge"><title>Node10&#45;&gt;Node9</title>
<path fill="none" stroke="#9a32cd" stroke-dasharray="5,2" d="M1425.47,-332.819C1413.68,-321.379 1396.97,-306.719 1380,-297 1324.5,-265.222 1307.95,-250 1244,-250 716,-250 716,-250 716,-250 619.392,-250 507.206,-267.488 446.524,-278.418"/>
<polygon fill="#9a32cd" stroke="#9a32cd" points="1423.23,-335.536 1432.78,-340.125 1428.18,-330.582 1423.23,-335.536"/>
<text text-anchor="middle" x="975" y="-253" font-family="Helvetica,sans-Serif" font-size="10.00"> myWorkspace</text>
</g>
<!-- Node15 -->
<g id="node15" class="node"><title>Node15</title>
<g id="a_node15"><a xlink:href="../../d1/dc7/classview_1_1_side_bar.html" target="_top" xlink:title="view.SideBar">
<polygon fill="white" stroke="black" points="1204.5,-430.5 1204.5,-449.5 1281.5,-449.5 1281.5,-430.5 1204.5,-430.5"/>
<text text-anchor="middle" x="1243" y="-437.5" font-family="Helvetica,sans-Serif" font-size="10.00">view.SideBar</text>
</a>
</g>
</g>
<!-- Node10&#45;&gt;Node15 -->
<g id="edge17" class="edge"><title>Node10&#45;&gt;Node15</title>
<path fill="none" stroke="#9a32cd" stroke-dasharray="5,2" d="M1430.05,-368.158C1418.97,-383.459 1401.04,-404.624 1380,-416 1349.52,-432.478 1310.12,-438 1281.58,-439.685"/>
<polygon fill="#9a32cd" stroke="#9a32cd" points="1432.93,-370.154 1435.76,-359.945 1427.18,-366.159 1432.93,-370.154"/>
<text text-anchor="middle" x="1342" y="-441" font-family="Helvetica,sans-Serif" font-size="10.00"> myWorkspace</text>
</g>
<!-- Node34 -->
<g id="node34" class="node"><title>Node34</title>
<g id="a_node34"><a xlink:href="../../de/d0a/classview_1_1_drawer.html" target="_top" xlink:title="view.Drawer">
<polygon fill="white" stroke="black" points="1594.5,-200.5 1594.5,-219.5 1667.5,-219.5 1667.5,-200.5 1594.5,-200.5"/>
<text text-anchor="middle" x="1631" y="-207.5" font-family="Helvetica,sans-Serif" font-size="10.00">view.Drawer</text>
</a>
</g>
</g>
<!-- Node10&#45;&gt;Node34 -->
<g id="edge45" class="edge"><title>Node10&#45;&gt;Node34</title>
<path fill="none" stroke="#9a32cd" stroke-dasharray="5,2" d="M1464.78,-334.362C1503.45,-305.25 1585.44,-243.539 1617.13,-219.69"/>
<polygon fill="#9a32cd" stroke="#9a32cd" points="1462.67,-331.567 1456.78,-340.377 1466.88,-337.16 1462.67,-331.567"/>
<text text-anchor="middle" x="1541" y="-304" font-family="Helvetica,sans-Serif" font-size="10.00"> myWorkspace</text>
</g>
<!-- Node11 -->
<g id="node11" class="node"><title>Node11</title>
<polygon fill="white" stroke="#bfbfbf" points="1209.5,-359.5 1209.5,-378.5 1276.5,-378.5 1276.5,-359.5 1209.5,-359.5"/>
<text text-anchor="middle" x="1243" y="-366.5" font-family="Helvetica,sans-Serif" font-size="10.00">StackPane</text>
</g>
<!-- Node11&#45;&gt;Node10 -->
<g id="edge11" class="edge"><title>Node11&#45;&gt;Node10</title>
<path fill="none" stroke="midnightblue" d="M1286.87,-364.886C1319.64,-361.742 1364.66,-357.422 1397.76,-354.245"/>
<polygon fill="midnightblue" stroke="midnightblue" points="1286.32,-361.423 1276.7,-365.863 1286.98,-368.391 1286.32,-361.423"/>
</g>
<!-- Node12 -->
<g id="node12" class="node"><title>Node12</title>
<g id="a_node12"><a xlink:href="../../d8/df7/classview_1_1_turtle_view.html" target="_top" xlink:title="view.TurtleView">
<polygon fill="white" stroke="black" points="1200,-279.5 1200,-298.5 1286,-298.5 1286,-279.5 1200,-279.5"/>
<text text-anchor="middle" x="1243" y="-286.5" font-family="Helvetica,sans-Serif" font-size="10.00">view.TurtleView</text>
</a>
</g>
</g>
<!-- Node12&#45;&gt;Node10 -->
<g id="edge12" class="edge"><title>Node12&#45;&gt;Node10</title>
<path fill="none" stroke="#9a32cd" stroke-dasharray="5,2" d="M1296.19,-298.644C1321.8,-304.039 1352.89,-311.585 1380,-321 1395.38,-326.342 1412.05,-334.271 1424.23,-340.489"/>
<polygon fill="#9a32cd" stroke="#9a32cd" points="1296.8,-295.197 1286.3,-296.61 1295.39,-302.053 1296.8,-295.197"/>
<text text-anchor="middle" x="1342" y="-324" font-family="Helvetica,sans-Serif" font-size="10.00"> myActiveTurtle</text>
</g>
<!-- Node13 -->
<g id="node13" class="node"><title>Node13</title>
<polygon fill="white" stroke="#bfbfbf" points="941,-279.5 941,-298.5 1009,-298.5 1009,-279.5 941,-279.5"/>
<text text-anchor="middle" x="975" y="-286.5" font-family="Helvetica,sans-Serif" font-size="10.00">ImageView</text>
</g>
<!-- Node13&#45;&gt;Node12 -->
<g id="edge13" class="edge"><title>Node13&#45;&gt;Node12</title>
<path fill="none" stroke="midnightblue" d="M1019.27,-289C1069.05,-289 1150.25,-289 1199.64,-289"/>
<polygon fill="midnightblue" stroke="midnightblue" points="1019.15,-285.5 1009.15,-289 1019.15,-292.5 1019.15,-285.5"/>
</g>
<!-- Node14 -->
<g id="node14" class="node"><title>Node14</title>
<polygon fill="white" stroke="#bfbfbf" points="19,-505 19,-535 155,-535 155,-505 19,-505"/>
<text text-anchor="start" x="27" y="-523" font-family="Helvetica,sans-Serif" font-size="10.00">Map&lt; Integer, view.Turtle</text>
<text text-anchor="middle" x="87" y="-512" font-family="Helvetica,sans-Serif" font-size="10.00">View &gt;</text>
</g>
<!-- Node14&#45;&gt;Node9 -->
<g id="edge43" class="edge"><title>Node14&#45;&gt;Node9</title>
<path fill="none" stroke="#9a32cd" stroke-dasharray="5,2" d="M105.823,-496.908C125.234,-472.765 158.07,-434.738 192,-408 236.858,-372.65 259.854,-381.234 304,-345 313.502,-337.201 312.233,-331.464 322,-324 337.362,-312.26 357.048,-302.956 372.799,-296.615"/>
<polygon fill="#9a32cd" stroke="#9a32cd" points="103.013,-494.819 99.5378,-504.828 108.496,-499.171 103.013,-494.819"/>
<text text-anchor="middle" x="248" y="-411" font-family="Helvetica,sans-Serif" font-size="10.00"> myTurtles</text>
</g>
<!-- Node14&#45;&gt;Node10 -->
<g id="edge14" class="edge"><title>Node14&#45;&gt;Node10</title>
<path fill="none" stroke="#9a32cd" stroke-dasharray="5,2" d="M152.82,-538.097C198.008,-552.753 258.167,-576.498 304,-610 313.924,-617.254 311.306,-624.938 322,-631 445.95,-701.265 496.934,-664.972 638,-685 727.898,-697.764 750.201,-708 841,-708 841,-708 841,-708 1244,-708 1408.07,-708 1437.26,-416.508 1441.4,-359.576"/>
<polygon fill="#9a32cd" stroke="#9a32cd" points="153.717,-534.709 143.127,-535.017 151.598,-541.381 153.717,-534.709"/>
<text text-anchor="middle" x="842" y="-711" font-family="Helvetica,sans-Serif" font-size="10.00"> myTurtles</text>
</g>
<!-- Node14&#45;&gt;Node15 -->
<g id="edge28" class="edge"><title>Node14&#45;&gt;Node15</title>
<path fill="none" stroke="#9a32cd" stroke-dasharray="5,2" d="M165.566,-518.918C381.694,-515.411 987.574,-502.093 1182,-461 1194.53,-458.353 1208.02,-453.793 1219.03,-449.597"/>
<polygon fill="#9a32cd" stroke="#9a32cd" points="165.208,-515.423 155.265,-519.082 165.319,-522.422 165.208,-515.423"/>
<text text-anchor="middle" x="717" y="-509" font-family="Helvetica,sans-Serif" font-size="10.00"> myTurtles</text>
</g>
<!-- Node15&#45;&gt;Node9 -->
<g id="edge47" class="edge"><title>Node15&#45;&gt;Node9</title>
<path fill="none" stroke="#9a32cd" stroke-dasharray="5,2" d="M1194.21,-444.525C1125.06,-449.529 993.83,-453.204 888,-422 842.738,-408.654 839.246,-387.883 796,-369 728.621,-339.58 707.989,-342.515 638,-320 629.972,-317.418 628.225,-315.861 620,-314 560.858,-300.62 491.086,-293.445 446.703,-289.929"/>
<polygon fill="#9a32cd" stroke="#9a32cd" points="1194.65,-448.001 1204.35,-443.748 1194.11,-441.022 1194.65,-448.001"/>
<text text-anchor="middle" x="842" y="-419" font-family="Helvetica,sans-Serif" font-size="10.00"> mySidebar</text>
</g>
<!-- Node15&#45;&gt;Node10 -->
<g id="edge15" class="edge"><title>Node15&#45;&gt;Node10</title>
<path fill="none" stroke="#9a32cd" stroke-dasharray="5,2" d="M1267.48,-425.213C1278.38,-418.633 1291.64,-411.028 1304,-405 1314.61,-399.829 1380.57,-373.946 1417.32,-359.605"/>
<polygon fill="#9a32cd" stroke="#9a32cd" points="1265.64,-422.231 1258.95,-430.441 1269.3,-428.199 1265.64,-422.231"/>
<text text-anchor="middle" x="1342" y="-408" font-family="Helvetica,sans-Serif" font-size="10.00"> mySidebar</text>
</g>
<!-- Node28 -->
<g id="node28" class="node"><title>Node28</title>
<g id="a_node28"><a xlink:href="../../da/dc8/classview_1_1_editor.html" target="_top" xlink:title="view.Editor">
<polygon fill="white" stroke="black" points="1409.5,-95.5 1409.5,-114.5 1476.5,-114.5 1476.5,-95.5 1409.5,-95.5"/>
<text text-anchor="middle" x="1443" y="-102.5" font-family="Helvetica,sans-Serif" font-size="10.00">view.Editor</text>
</a>
</g>
</g>
<!-- Node15&#45;&gt;Node28 -->
<g id="edge39" class="edge"><title>Node15&#45;&gt;Node28</title>
<path fill="none" stroke="#9a32cd" stroke-dasharray="5,2" d="M1261.35,-423.099C1270.09,-413.593 1280.07,-401.038 1286,-388 1305.07,-346.1 1286.29,-328.49 1304,-286 1331.85,-219.188 1352.56,-209.348 1398,-153 1409.21,-139.096 1423.34,-124.07 1432.52,-114.604"/>
<polygon fill="#9a32cd" stroke="#9a32cd" points="1258.82,-420.677 1254.41,-430.31 1263.87,-425.529 1258.82,-420.677"/>
<text text-anchor="middle" x="1342" y="-289" font-family="Helvetica,sans-Serif" font-size="10.00"> mySidebar</text>
</g>
<!-- Node16 -->
<g id="node16" class="node"><title>Node16</title>
<polygon fill="white" stroke="#bfbfbf" points="954.5,-545.5 954.5,-564.5 995.5,-564.5 995.5,-545.5 954.5,-545.5"/>
<text text-anchor="middle" x="975" y="-552.5" font-family="Helvetica,sans-Serif" font-size="10.00">VBox</text>
</g>
<!-- Node16&#45;&gt;Node15 -->
<g id="edge16" class="edge"><title>Node16&#45;&gt;Node15</title>
<path fill="none" stroke="midnightblue" d="M1005.78,-550.661C1047.53,-543.588 1124.77,-526.827 1182,-493 1202.34,-480.978 1222.13,-461.551 1233.12,-449.855"/>
<polygon fill="midnightblue" stroke="midnightblue" points="1005.03,-547.237 995.715,-552.293 1006.15,-554.147 1005.03,-547.237"/>
</g>
<!-- Node17 -->
<g id="node17" class="node"><title>Node17</title>
<polygon fill="white" stroke="#bfbfbf" points="888.5,-393.5 888.5,-412.5 1061.5,-412.5 1061.5,-393.5 888.5,-393.5"/>
<text text-anchor="middle" x="975" y="-400.5" font-family="Helvetica,sans-Serif" font-size="10.00">ObservableList&lt; view.Property &gt;</text>
</g>
<!-- Node17&#45;&gt;Node15 -->
<g id="edge18" class="edge"><title>Node17&#45;&gt;Node15</title>
<path fill="none" stroke="#9a32cd" stroke-dasharray="5,2" d="M1071.78,-402.749C1106.8,-404.301 1146.52,-408.001 1182,-416 1196.12,-419.183 1211.24,-425.253 1222.78,-430.491"/>
<polygon fill="#9a32cd" stroke="#9a32cd" points="1071.68,-399.242 1061.55,-402.35 1071.41,-406.237 1071.68,-399.242"/>
<text text-anchor="middle" x="1131" y="-419" font-family="Helvetica,sans-Serif" font-size="10.00"> variablesList</text>
</g>
<!-- Node18 -->
<g id="node18" class="node"><title>Node18</title>
<polygon fill="white" stroke="#bfbfbf" points="40.5,-564.5 40.5,-583.5 133.5,-583.5 133.5,-564.5 40.5,-564.5"/>
<text text-anchor="middle" x="87" y="-571.5" font-family="Helvetica,sans-Serif" font-size="10.00">ResourceBundle</text>
</g>
<!-- Node18&#45;&gt;Node9 -->
<g id="edge33" class="edge"><title>Node18&#45;&gt;Node9</title>
<path fill="none" stroke="#9a32cd" stroke-dasharray="5,2" d="M136.046,-561.306C148.884,-556.845 162.403,-551.122 174,-544 242.303,-502.056 265.845,-489.49 304,-419 324.456,-381.208 295.735,-358.013 322,-324 332.077,-310.951 347.895,-302.285 362.66,-296.644"/>
<polygon fill="#9a32cd" stroke="#9a32cd" points="134.812,-558.028 126.404,-564.474 136.997,-564.678 134.812,-558.028"/>
<text text-anchor="middle" x="248" y="-536" font-family="Helvetica,sans-Serif" font-size="10.00"> myResources</text>
</g>
<!-- Node18&#45;&gt;Node15 -->
<g id="edge19" class="edge"><title>Node18&#45;&gt;Node15</title>
<path fill="none" stroke="#9a32cd" stroke-dasharray="5,2" d="M143.312,-585.375C153.934,-588.84 164.65,-593.297 174,-599 183.931,-605.057 181.557,-612.877 192,-618 244.132,-643.572 264.063,-627.135 322,-631 417.381,-637.363 1105.86,-712.8 1182,-655 1216.11,-629.108 1236.04,-487.69 1240.85,-449.506"/>
<polygon fill="#9a32cd" stroke="#9a32cd" points="144.21,-581.99 133.626,-582.464 142.196,-588.694 144.21,-581.99"/>
<text text-anchor="middle" x="717" y="-673" font-family="Helvetica,sans-Serif" font-size="10.00"> myResources</text>
</g>
<!-- Node19 -->
<g id="node19" class="node"><title>Node19</title>
<polygon fill="white" stroke="#bfbfbf" points="901,-355.5 901,-374.5 1049,-374.5 1049,-355.5 901,-355.5"/>
<text text-anchor="middle" x="975" y="-362.5" font-family="Helvetica,sans-Serif" font-size="10.00">TableView&lt; view.Property &gt;</text>
</g>
<!-- Node19&#45;&gt;Node15 -->
<g id="edge20" class="edge"><title>Node19&#45;&gt;Node15</title>
<path fill="none" stroke="#9a32cd" stroke-dasharray="5,2" d="M1059.46,-356.784C1098.33,-356.269 1144.22,-360.562 1182,-378 1206.75,-389.424 1226.64,-415.941 1236.06,-430.317"/>
<polygon fill="#9a32cd" stroke="#9a32cd" points="1059.13,-353.291 1049.21,-357.031 1059.3,-360.289 1059.13,-353.291"/>
<text text-anchor="middle" x="1131" y="-392" font-family="Helvetica,sans-Serif" font-size="10.00"> turtlePropertiesTable</text>
<text text-anchor="middle" x="1131" y="-381" font-family="Helvetica,sans-Serif" font-size="10.00">variablesTable</text>
</g>
<!-- Node20 -->
<g id="node20" class="node"><title>Node20</title>
<g id="a_node20"><a xlink:href="../../d4/dd9/classcontroller_1_1_s_logo_controller.html" target="_top" xlink:title="controller.SLogoController">
<polygon fill="white" stroke="black" points="905,-317.5 905,-336.5 1045,-336.5 1045,-317.5 905,-317.5"/>
<text text-anchor="middle" x="975" y="-324.5" font-family="Helvetica,sans-Serif" font-size="10.00">controller.SLogoController</text>
</a>
</g>
</g>
<!-- Node20&#45;&gt;Node9 -->
<g id="edge41" class="edge"><title>Node20&#45;&gt;Node9</title>
<path fill="none" stroke="#9a32cd" stroke-dasharray="5,2" d="M894.682,-316.242C823.058,-307.063 714.692,-294.503 620,-289 560.111,-285.519 490.814,-285.582 446.717,-286.135"/>
<polygon fill="#9a32cd" stroke="#9a32cd" points="894.611,-319.762 904.977,-317.57 895.507,-312.819 894.611,-319.762"/>
<text text-anchor="middle" x="717" y="-308" font-family="Helvetica,sans-Serif" font-size="10.00"> myController</text>
</g>
<!-- Node20&#45;&gt;Node15 -->
<g id="edge21" class="edge"><title>Node20&#45;&gt;Node15</title>
<path fill="none" stroke="#9a32cd" stroke-dasharray="5,2" d="M1033.51,-316.202C1078.25,-311.132 1139.63,-311.856 1182,-343 1199.36,-355.758 1189.11,-369.414 1200,-388 1209.39,-404.021 1223.45,-420.328 1232.67,-430.306"/>
<polygon fill="#9a32cd" stroke="#9a32cd" points="1032.86,-312.756 1023.38,-317.481 1033.74,-319.701 1032.86,-312.756"/>
<text text-anchor="middle" x="1131" y="-346" font-family="Helvetica,sans-Serif" font-size="10.00"> myController</text>
</g>
<!-- Node20&#45;&gt;Node28 -->
<g id="edge37" class="edge"><title>Node20&#45;&gt;Node28</title>
<path fill="none" stroke="#9a32cd" stroke-dasharray="5,2" d="M1053.82,-315.021C1056.78,-312.984 1059.53,-310.657 1062,-308 1099.91,-267.206 1041.1,-223.852 1080,-184 1127.23,-135.607 1315.32,-152.744 1380,-133 1395.36,-128.31 1411.9,-120.701 1424.03,-114.598"/>
<polygon fill="#9a32cd" stroke="#9a32cd" points="1051.98,-312.045 1045,-320.021 1055.43,-318.135 1051.98,-312.045"/>
<text text-anchor="middle" x="1243" y="-153" font-family="Helvetica,sans-Serif" font-size="10.00"> myController</text>
</g>
<!-- Node21&#45;&gt;Node20 -->
<g id="edge22" class="edge"><title>Node21&#45;&gt;Node20</title>
<path fill="none" stroke="#9a32cd" stroke-dasharray="5,2" d="M765.543,-375.92C799.59,-367.35 846.553,-355.697 888,-346 901.549,-342.83 916.332,-339.513 929.76,-336.554"/>
<polygon fill="#9a32cd" stroke="#9a32cd" points="764.253,-372.635 755.412,-378.474 765.964,-379.423 764.253,-372.635"/>
<text text-anchor="middle" x="842" y="-366" font-family="Helvetica,sans-Serif" font-size="10.00"> myParser</text>
</g>
<!-- Node22 -->
<g id="node22" class="node"><title>Node22</title>
<polygon fill="white" stroke="#bfbfbf" points="345,-334 345,-364 457,-364 457,-334 345,-334"/>
<text text-anchor="start" x="353" y="-352" font-family="Helvetica,sans-Serif" font-size="10.00">List&lt; Entry&lt; String,</text>
<text text-anchor="middle" x="401" y="-341" font-family="Helvetica,sans-Serif" font-size="10.00"> Pattern &gt; &gt;</text>
</g>
<!-- Node22&#45;&gt;Node21 -->
<g id="edge24" class="edge"><title>Node22&#45;&gt;Node21</title>
<path fill="none" stroke="#9a32cd" stroke-dasharray="5,2" d="M467.458,-352.674C510.873,-355.61 569.024,-360.496 620,-368 638.864,-370.777 659.597,-374.952 676.953,-378.771"/>
<polygon fill="#9a32cd" stroke="#9a32cd" points="467.52,-349.171 457.311,-352.006 467.059,-356.156 467.52,-349.171"/>
<text text-anchor="middle" x="559" y="-371" font-family="Helvetica,sans-Serif" font-size="10.00"> myPatterns</text>
</g>
<!-- Node23 -->
<g id="node23" class="node"><title>Node23</title>
<polygon fill="white" stroke="#bfbfbf" points="340,-421.5 340,-440.5 462,-440.5 462,-421.5 340,-421.5"/>
<text text-anchor="middle" x="401" y="-428.5" font-family="Helvetica,sans-Serif" font-size="10.00">Map&lt; String, String &gt;</text>
</g>
<!-- Node23&#45;&gt;Node21 -->
<g id="edge26" class="edge"><title>Node23&#45;&gt;Node21</title>
<path fill="none" stroke="#9a32cd" stroke-dasharray="5,2" d="M472.263,-423.055C515.031,-418.031 570.735,-411.153 620,-404 638.728,-401.281 659.444,-397.878 676.824,-394.911"/>
<polygon fill="#9a32cd" stroke="#9a32cd" points="471.762,-419.59 462.236,-424.227 472.575,-426.543 471.762,-419.59"/>
<text text-anchor="middle" x="559" y="-423" font-family="Helvetica,sans-Serif" font-size="10.00"> myCommandMap</text>
</g>
<!-- Node24 -->
<g id="node24" class="node"><title>Node24</title>
<polygon fill="white" stroke="#bfbfbf" points="906,-621.5 906,-640.5 1044,-640.5 1044,-621.5 906,-621.5"/>
<text text-anchor="middle" x="975" y="-628.5" font-family="Helvetica,sans-Serif" font-size="10.00">ObservableList&lt; String &gt;</text>
</g>
<!-- Node24&#45;&gt;Node15 -->
<g id="edge29" class="edge"><title>Node24&#45;&gt;Node15</title>
<path fill="none" stroke="#9a32cd" stroke-dasharray="5,2" d="M1054.44,-632.712C1096.5,-629.698 1146.76,-619.282 1182,-590 1227.08,-552.534 1238.55,-476.265 1241.23,-449.523"/>
<polygon fill="#9a32cd" stroke="#9a32cd" points="1053.99,-629.232 1044.21,-633.313 1054.4,-636.22 1053.99,-629.232"/>
<text text-anchor="middle" x="1131" y="-644" font-family="Helvetica,sans-Serif" font-size="10.00"> commandItems</text>
<text text-anchor="middle" x="1131" y="-633" font-family="Helvetica,sans-Serif" font-size="10.00">historyItems</text>
</g>
<!-- Node25 -->
<g id="node25" class="node"><title>Node25</title>
<polygon fill="white" stroke="#bfbfbf" points="922,-583.5 922,-602.5 1028,-602.5 1028,-583.5 922,-583.5"/>
<text text-anchor="middle" x="975" y="-590.5" font-family="Helvetica,sans-Serif" font-size="10.00">ListView&lt; String &gt;</text>
</g>
<!-- Node25&#45;&gt;Node15 -->
<g id="edge30" class="edge"><title>Node25&#45;&gt;Node15</title>
<path fill="none" stroke="#9a32cd" stroke-dasharray="5,2" d="M1038.22,-584.924C1082.21,-576.575 1140.5,-559.893 1182,-527 1209.46,-505.233 1229.35,-467.517 1237.67,-449.768"/>
<polygon fill="#9a32cd" stroke="#9a32cd" points="1037.44,-581.509 1028.22,-586.727 1038.68,-588.398 1037.44,-581.509"/>
<text text-anchor="middle" x="1131" y="-578" font-family="Helvetica,sans-Serif" font-size="10.00"> historyList</text>
</g>
<!-- Node26 -->
<g id="node26" class="node"><title>Node26</title>
<polygon fill="white" stroke="#bfbfbf" points="1211.5,-321.5 1211.5,-340.5 1274.5,-340.5 1274.5,-321.5 1211.5,-321.5"/>
<text text-anchor="middle" x="1243" y="-328.5" font-family="Helvetica,sans-Serif" font-size="10.00">Rectangle</text>
</g>
<!-- Node26&#45;&gt;Node10 -->
<g id="edge31" class="edge"><title>Node26&#45;&gt;Node10</title>
<path fill="none" stroke="#9a32cd" stroke-dasharray="5,2" d="M1284.8,-333.791C1311.84,-335.765 1348.07,-338.651 1380,-342 1385.83,-342.611 1391.96,-343.321 1398,-344.06"/>
<polygon fill="#9a32cd" stroke="#9a32cd" points="1284.78,-330.28 1274.56,-333.054 1284.28,-337.262 1284.78,-330.28"/>
<text text-anchor="middle" x="1342" y="-345" font-family="Helvetica,sans-Serif" font-size="10.00"> myBackground</text>
</g>
<!-- Node27 -->
<g id="node27" class="node"><title>Node27</title>
<polygon fill="white" stroke="#bfbfbf" points="64.5,-226.5 64.5,-245.5 109.5,-245.5 109.5,-226.5 64.5,-226.5"/>
<text text-anchor="middle" x="87" y="-233.5" font-family="Helvetica,sans-Serif" font-size="10.00">Stage</text>
</g>
<!-- Node27&#45;&gt;Node9 -->
<g id="edge32" class="edge"><title>Node27&#45;&gt;Node9</title>
<path fill="none" stroke="#9a32cd" stroke-dasharray="5,2" d="M119.937,-237.051C162.359,-238.914 239.458,-243.923 304,-257 328.302,-261.924 355.181,-270.615 374.301,-277.38"/>
<polygon fill="#9a32cd" stroke="#9a32cd" points="119.812,-233.543 109.678,-236.633 119.527,-240.538 119.812,-233.543"/>
<text text-anchor="middle" x="248" y="-260" font-family="Helvetica,sans-Serif" font-size="10.00"> myStage</text>
</g>
<!-- Node28&#45;&gt;Node9 -->
<g id="edge34" class="edge"><title>Node28&#45;&gt;Node9</title>
<path fill="none" stroke="#9a32cd" stroke-dasharray="5,2" d="M1399.22,-98.5109C1359.19,-93.0073 1297.69,-86 1244,-86 716,-86 716,-86 716,-86 572.308,-86 441.699,-237.155 409.541,-277.305"/>
<polygon fill="#9a32cd" stroke="#9a32cd" points="1398.77,-101.983 1409.16,-99.9083 1399.74,-95.0508 1398.77,-101.983"/>
<text text-anchor="middle" x="975" y="-89" font-family="Helvetica,sans-Serif" font-size="10.00"> myEditor</text>
</g>
<!-- Node29 -->
<g id="node29" class="node"><title>Node29</title>
<polygon fill="white" stroke="#bfbfbf" points="1222,-0.5 1222,-19.5 1264,-19.5 1264,-0.5 1222,-0.5"/>
<text text-anchor="middle" x="1243" y="-7.5" font-family="Helvetica,sans-Serif" font-size="10.00">HBox</text>
</g>
<!-- Node29&#45;&gt;Node28 -->
<g id="edge35" class="edge"><title>Node29&#45;&gt;Node28</title>
<path fill="none" stroke="midnightblue" d="M1274.36,-12.9395C1303.1,-16.7615 1346.68,-25.3152 1380,-44 1403.44,-57.1477 1424.26,-81.5029 1434.77,-95.1238"/>
<polygon fill="midnightblue" stroke="midnightblue" points="1274.48,-9.42767 1264.13,-11.6951 1273.63,-16.3765 1274.48,-9.42767"/>
</g>
<!-- Node30 -->
<g id="node30" class="node"><title>Node30</title>
<polygon fill="white" stroke="#bfbfbf" points="1218.5,-114.5 1218.5,-133.5 1267.5,-133.5 1267.5,-114.5 1218.5,-114.5"/>
<text text-anchor="middle" x="1243" y="-121.5" font-family="Helvetica,sans-Serif" font-size="10.00">Button</text>
</g>
<!-- Node30&#45;&gt;Node28 -->
<g id="edge36" class="edge"><title>Node30&#45;&gt;Node28</title>
<path fill="none" stroke="#9a32cd" stroke-dasharray="5,2" d="M1278.13,-120.725C1314.99,-117.188 1373.28,-111.595 1409.49,-108.12"/>
<polygon fill="#9a32cd" stroke="#9a32cd" points="1277.5,-117.269 1267.88,-121.708 1278.17,-124.237 1277.5,-117.269"/>
<text text-anchor="middle" x="1342" y="-121" font-family="Helvetica,sans-Serif" font-size="10.00"> runButton</text>
</g>
<!-- Node31 -->
<g id="node31" class="node"><title>Node31</title>
<polygon fill="white" stroke="#bfbfbf" points="1214,-38.5 1214,-57.5 1272,-57.5 1272,-38.5 1214,-38.5"/>
<text text-anchor="middle" x="1243" y="-45.5" font-family="Helvetica,sans-Serif" font-size="10.00">TextArea</text>
</g>
<!-- Node31&#45;&gt;Node28 -->
<g id="edge38" class="edge"><title>Node31&#45;&gt;Node28</title>
<path fill="none" stroke="#9a32cd" stroke-dasharray="5,2" d="M1282.18,-46.4501C1310.11,-46.5434 1348.46,-49.264 1380,-61 1400.53,-68.6414 1420.51,-84.8736 1432.01,-95.3424"/>
<polygon fill="#9a32cd" stroke="#9a32cd" points="1282,-42.9513 1272.03,-46.5296 1282.05,-49.9511 1282,-42.9513"/>
<text text-anchor="middle" x="1342" y="-64" font-family="Helvetica,sans-Serif" font-size="10.00"> textEditor</text>
</g>
<!-- Node32 -->
<g id="node32" class="node"><title>Node32</title>
<polygon fill="white" stroke="#bfbfbf" points="27.5,-188.5 27.5,-207.5 146.5,-207.5 146.5,-188.5 27.5,-188.5"/>
<text text-anchor="middle" x="87" y="-195.5" font-family="Helvetica,sans-Serif" font-size="10.00">Map&lt; String, Node &gt;</text>
</g>
<!-- Node32&#45;&gt;Node9 -->
<g id="edge40" class="edge"><title>Node32&#45;&gt;Node9</title>
<path fill="none" stroke="#9a32cd" stroke-dasharray="5,2" d="M157.037,-199.841C200.336,-202.788 256.714,-209.952 304,-227 337.28,-238.999 371.221,-263.787 388.44,-277.448"/>
<polygon fill="#9a32cd" stroke="#9a32cd" points="157.085,-196.337 146.887,-199.21 156.651,-203.323 157.085,-196.337"/>
<text text-anchor="middle" x="248" y="-230" font-family="Helvetica,sans-Serif" font-size="10.00"> variables</text>
</g>
<!-- Node33 -->
<g id="node33" class="node"><title>Node33</title>
<polygon fill="white" stroke="#bfbfbf" points="46.5,-302.5 46.5,-321.5 127.5,-321.5 127.5,-302.5 46.5,-302.5"/>
<text text-anchor="middle" x="87" y="-309.5" font-family="Helvetica,sans-Serif" font-size="10.00">Dimension2D</text>
</g>
<!-- Node33&#45;&gt;Node9 -->
<g id="edge42" class="edge"><title>Node33&#45;&gt;Node9</title>
<path fill="none" stroke="#9a32cd" stroke-dasharray="5,2" d="M137.5,-308.034C197.45,-303.23 297.55,-295.209 355.269,-290.584"/>
<polygon fill="#9a32cd" stroke="#9a32cd" points="137.203,-304.546 127.515,-308.834 137.763,-311.524 137.203,-304.546"/>
<text text-anchor="middle" x="248" y="-307" font-family="Helvetica,sans-Serif" font-size="10.00"> myDimensions</text>
</g>
<!-- Node34&#45;&gt;Node9 -->
<g id="edge44" class="edge"><title>Node34&#45;&gt;Node9</title>
<path fill="none" stroke="#9a32cd" stroke-dasharray="5,2" d="M1584.14,-209.653C1399.55,-208.572 710.701,-207.657 498,-252 471.256,-257.576 441.948,-269.109 422.839,-277.414"/>
<polygon fill="#9a32cd" stroke="#9a32cd" points="1584.29,-213.154 1594.31,-209.716 1584.33,-206.154 1584.29,-213.154"/>
<text text-anchor="middle" x="1131" y="-217" font-family="Helvetica,sans-Serif" font-size="10.00"> drawer</text>
</g>
<!-- Node35 -->
<g id="node35" class="node"><title>Node35</title>
<polygon fill="white" stroke="#bfbfbf" points="1422.5,-162.5 1422.5,-181.5 1463.5,-181.5 1463.5,-162.5 1422.5,-162.5"/>
<text text-anchor="middle" x="1443" y="-169.5" font-family="Helvetica,sans-Serif" font-size="10.00">Color</text>
</g>
<!-- Node35&#45;&gt;Node34 -->
<g id="edge46" class="edge"><title>Node35&#45;&gt;Node34</title>
<path fill="none" stroke="#9a32cd" stroke-dasharray="5,2" d="M1473.61,-172.102C1500.71,-172.853 1541.67,-175.652 1576,-185 1588.96,-188.529 1602.68,-194.921 1613.05,-200.358"/>
<polygon fill="#9a32cd" stroke="#9a32cd" points="1473.67,-168.602 1463.6,-171.901 1473.53,-175.601 1473.67,-168.602"/>
<text text-anchor="middle" x="1541" y="-188" font-family="Helvetica,sans-Serif" font-size="10.00"> myColor</text>
</g>
<!-- Node36 -->
<g id="node36" class="node"><title>Node36</title>
<polygon fill="white" stroke="#bfbfbf" points="64,-264.5 64,-283.5 110,-283.5 110,-264.5 64,-264.5"/>
<text text-anchor="middle" x="87" y="-271.5" font-family="Helvetica,sans-Serif" font-size="10.00">Group</text>
</g>
<!-- Node36&#45;&gt;Node9 -->
<g id="edge48" class="edge"><title>Node36&#45;&gt;Node9</title>
<path fill="none" stroke="#9a32cd" stroke-dasharray="5,2" d="M120.343,-272.945C162.617,-271.842 238.935,-270.798 304,-275 320.761,-276.082 339.076,-278.15 355.174,-280.269"/>
<polygon fill="#9a32cd" stroke="#9a32cd" points="120.006,-269.453 110.107,-273.231 120.201,-276.45 120.006,-269.453"/>
<text text-anchor="middle" x="248" y="-278" font-family="Helvetica,sans-Serif" font-size="10.00"> lines</text>
</g>
</g>
</svg>
        <g id="navigator" transform="translate(0 0)" fill="#404254">
                <rect fill="#f2f5e9" fill-opacity="0.5" stroke="#606060" stroke-width=".5" x="0" y="0" width="60" height="60"/>
                <use id="zoomplus" xlink:href="#zoomPlus" x="17" y="9" onmousedown="handleZoom(evt,'in')"/>
                <use id="zoomminus" xlink:href="#zoomMin" x="42" y="9" onmousedown="handleZoom(evt,'out')"/>
                <use id="reset" xlink:href="#resetDef" x="30" y="36" onmousedown="handleReset()"/>
                <g id="arrowUp" xlink:href="#dirArrow" transform="translate(30 24)" onmousedown="handlePan(0,-1)">
                  <use xlink:href="#rim" fill="#404040">
                        <set attributeName="fill" to="#808080" begin="arrowUp.mouseover" end="arrowUp.mouseout"/>
                  </use>
                  <path fill="none" stroke="white" stroke-width="1.5" d="M0,-3.0v7 M-2.5,-0.5L0,-3.0L2.5,-0.5"/>
                </g>
                <g id="arrowRight" xlink:href="#dirArrow" transform="rotate(90) translate(36 -43)" onmousedown="handlePan(1,0)">
                  <use xlink:href="#rim" fill="#404040">
                        <set attributeName="fill" to="#808080" begin="arrowRight.mouseover" end="arrowRight.mouseout"/>
                  </use>
                  <path fill="none" stroke="white" stroke-width="1.5" d="M0,-3.0v7 M-2.5,-0.5L0,-3.0L2.5,-0.5"/>
                </g>
                <g id="arrowDown" xlink:href="#dirArrow" transform="rotate(180) translate(-30 -48)" onmousedown="handlePan(0,1)">
                  <use xlink:href="#rim" fill="#404040">
                        <set attributeName="fill" to="#808080" begin="arrowDown.mouseover" end="arrowDown.mouseout"/>
                  </use>
                  <path fill="none" stroke="white" stroke-width="1.5" d="M0,-3.0v7 M-2.5,-0.5L0,-3.0L2.5,-0.5"/>
                </g>
                <g id="arrowLeft" xlink:href="#dirArrow" transform="rotate(270) translate(-36 17)" onmousedown="handlePan(-1,0)">
                  <use xlink:href="#rim" fill="#404040">
                        <set attributeName="fill" to="#808080" begin="arrowLeft.mouseover" end="arrowLeft.mouseout"/>
                  </use>
                  <path fill="none" stroke="white" stroke-width="1.5" d="M0,-3.0v7 M-2.5,-0.5L0,-3.0L2.5,-0.5"/>
                </g>
        </g>
        <svg viewBox="0 0 15 15" width="100%" height="30px" preserveAspectRatio="xMaxYMin meet">
         <g id="arrow_out" transform="scale(0.3 0.3)">
          <a xlink:href="classmodel_1_1instructions_1_1_variable__coll__graph_org.svg" target="_base">
           <rect id="button" ry="5" rx="5" y="6" x="6" height="38" width="38"
                fill="#f2f5e9" fill-opacity="0.5" stroke="#606060" stroke-width="1.0"/>
           <path id="arrow"
             d="M 11.500037,31.436501 C 11.940474,20.09759 22.043105,11.32322 32.158766,21.979434 L 37.068811,17.246167 C 37.068811,17.246167 37.088388,32 37.088388,32 L 22.160133,31.978069 C 22.160133,31.978069 26.997745,27.140456 26.997745,27.140456 C 18.528582,18.264221 13.291696,25.230495 11.500037,31.436501 z"
             style="fill:#404040;"/>
          </a>
         </g>
        </svg>
</svg>
