<?xml version="1.0" encoding="UTF-8" standalone="no"?>
<!DOCTYPE svg PUBLIC "-//W3C//DTD SVG 1.1//EN"
 "http://www.w3.org/Graphics/SVG/1.1/DTD/svg11.dtd">
<!-- Generated by graphviz version 2.36.0 (20140111.2315)
 -->
<!-- Title: model.instructions.Variable Pages: 1 -->
<svg width="1756pt" height="745pt"
 viewBox="0.00 0.00 1756.00 745.14" xmlns="http://www.w3.org/2000/svg" xmlns:xlink="http://www.w3.org/1999/xlink">
<g id="graph0" class="graph" transform="scale(1 1) rotate(0) translate(4 741.136)">
<title>model.instructions.Variable</title>
<polygon fill="white" stroke="none" points="-4,4 -4,-741.136 1752,-741.136 1752,4 -4,4"/>
<!-- Node1 -->
<g id="node1" class="node"><title>Node1</title>
<polygon fill="#bfbfbf" stroke="black" points="966,-469.636 966,-488.636 1112,-488.636 1112,-469.636 966,-469.636"/>
<text text-anchor="middle" x="1039" y="-476.636" font-family="Helvetica,sans-Serif" font-size="10.00">model.instructions.Variable</text>
</g>
<!-- Node2 -->
<g id="node2" class="node"><title>Node2</title>
<g id="a_node2"><a xlink:href="../../d1/dea/classmodel_1_1instructions_1_1_instruction.html" target="_top" xlink:title="model.instructions.Instruction">
<polygon fill="white" stroke="black" points="646,-473.636 646,-492.636 804,-492.636 804,-473.636 646,-473.636"/>
<text text-anchor="middle" x="725" y="-480.636" font-family="Helvetica,sans-Serif" font-size="10.00">model.instructions.Instruction</text>
</a>
</g>
</g>
<!-- Node2&#45;&gt;Node1 -->
<g id="edge1" class="edge"><title>Node2&#45;&gt;Node1</title>
<path fill="none" stroke="midnightblue" d="M791.725,-494.068C804.391,-495.763 817.581,-497.245 830,-498.136 882.31,-501.889 895.839,-503.582 948,-498.136 965.789,-496.279 985.239,-492.41 1001.49,-488.645"/>
<polygon fill="midnightblue" stroke="midnightblue" points="792.091,-490.586 781.703,-492.671 791.124,-497.519 792.091,-490.586"/>
</g>
<!-- Node3 -->
<g id="node3" class="node"><title>Node3</title>
<polygon fill="white" stroke="#bfbfbf" points="57,-356.636 57,-375.636 117,-375.636 117,-356.636 57,-356.636"/>
<text text-anchor="middle" x="87" y="-363.636" font-family="Helvetica,sans-Serif" font-size="10.00">Observer</text>
</g>
<!-- Node3&#45;&gt;Node2 -->
<g id="edge2" class="edge"><title>Node3&#45;&gt;Node2</title>
<path fill="none" stroke="midnightblue" d="M127.408,-373.386C237.421,-393.624 547.889,-450.739 671.892,-473.55"/>
<polygon fill="midnightblue" stroke="midnightblue" points="127.868,-369.912 117.4,-371.545 126.602,-376.796 127.868,-369.912"/>
</g>
<!-- Node9 -->
<g id="node9" class="node"><title>Node9</title>
<g id="a_node9"><a xlink:href="../../d4/d64/classview_1_1_view_updater.html" target="_top" xlink:title="view.ViewUpdater">
<polygon fill="white" stroke="black" points="351,-356.636 351,-375.636 451,-375.636 451,-356.636 351,-356.636"/>
<text text-anchor="middle" x="401" y="-363.636" font-family="Helvetica,sans-Serif" font-size="10.00">view.ViewUpdater</text>
</a>
</g>
</g>
<!-- Node3&#45;&gt;Node9 -->
<g id="edge9" class="edge"><title>Node3&#45;&gt;Node9</title>
<path fill="none" stroke="midnightblue" d="M127.079,-366.136C183.8,-366.136 288.905,-366.136 350.82,-366.136"/>
<polygon fill="midnightblue" stroke="midnightblue" points="127.072,-362.636 117.072,-366.136 127.072,-369.636 127.072,-362.636"/>
</g>
<!-- Node21 -->
<g id="node21" class="node"><title>Node21</title>
<g id="a_node21"><a xlink:href="../../dc/df5/classmodel_1_1_parser.html" target="_top" xlink:title="model.Parser">
<polygon fill="white" stroke="black" points="685,-119.636 685,-138.636 765,-138.636 765,-119.636 685,-119.636"/>
<text text-anchor="middle" x="725" y="-126.636" font-family="Helvetica,sans-Serif" font-size="10.00">model.Parser</text>
</a>
</g>
</g>
<!-- Node3&#45;&gt;Node21 -->
<g id="edge24" class="edge"><title>Node3&#45;&gt;Node21</title>
<path fill="none" stroke="midnightblue" d="M102.057,-348.758C135.374,-308.991 223.755,-211.61 322,-170.136 338.582,-163.136 586.986,-141.006 684.823,-132.506"/>
<polygon fill="midnightblue" stroke="midnightblue" points="99.3012,-346.598 95.6297,-356.537 104.697,-351.057 99.3012,-346.598"/>
</g>
<!-- Node4 -->
<g id="node4" class="node"><title>Node4</title>
<g id="a_node4"><a xlink:href="../../d1/dca/classmodel_1_1_execution_environment.html" target="_top" xlink:title="model.ExecutionEnvironment">
<polygon fill="white" stroke="black" points="322.5,-545.636 322.5,-564.636 479.5,-564.636 479.5,-545.636 322.5,-545.636"/>
<text text-anchor="middle" x="401" y="-552.636" font-family="Helvetica,sans-Serif" font-size="10.00">model.ExecutionEnvironment</text>
</a>
</g>
</g>
<!-- Node4&#45;&gt;Node2 -->
<g id="edge3" class="edge"><title>Node4&#45;&gt;Node2</title>
<path fill="none" stroke="#9a32cd" stroke-dasharray="5,2" d="M489.62,-551.316C540.106,-547.838 597.837,-541.299 620,-529.136 631.075,-523.059 627.423,-514.045 638,-507.136 647.604,-500.864 658.841,-496.212 669.965,-492.768"/>
<polygon fill="#9a32cd" stroke="#9a32cd" points="489.381,-547.824 479.632,-551.971 489.84,-554.809 489.381,-547.824"/>
<text text-anchor="middle" x="559" y="-554.136" font-family="Helvetica,sans-Serif" font-size="10.00"> myEnvironment</text>
</g>
<!-- Node17 -->
<g id="node17" class="node"><title>Node17</title>
<g id="a_node17"><a xlink:href="../../d1/dc7/classview_1_1_side_bar.html" target="_top" xlink:title="view.SideBar">
<polygon fill="white" stroke="black" points="1000.5,-254.636 1000.5,-273.636 1077.5,-273.636 1077.5,-254.636 1000.5,-254.636"/>
<text text-anchor="middle" x="1039" y="-261.636" font-family="Helvetica,sans-Serif" font-size="10.00">view.SideBar</text>
</a>
</g>
</g>
<!-- Node4&#45;&gt;Node17 -->
<g id="edge21" class="edge"><title>Node4&#45;&gt;Node17</title>
<path fill="none" stroke="#9a32cd" stroke-dasharray="5,2" d="M489.712,-562.745C492.506,-562.892 495.274,-563.023 498,-563.136 552.175,-565.39 571.741,-587.856 620,-563.136 632.186,-556.894 626.513,-545.587 638,-538.136 704.255,-495.163 749.128,-549.922 812,-502.136 825.926,-491.552 816.358,-478.086 830,-467.136 872.287,-433.195 912.281,-476.934 948,-436.136 990.486,-387.609 926.347,-343.005 966,-292.136 974.411,-281.347 987.549,-274.71 1000.31,-270.63"/>
<polygon fill="#9a32cd" stroke="#9a32cd" points="489.697,-559.238 479.511,-562.152 489.291,-566.226 489.697,-559.238"/>
<text text-anchor="middle" x="725" y="-541.136" font-family="Helvetica,sans-Serif" font-size="10.00"> myEnvironment</text>
</g>
<!-- Node4&#45;&gt;Node21 -->
<g id="edge26" class="edge"><title>Node4&#45;&gt;Node21</title>
<path fill="none" stroke="#9a32cd" stroke-dasharray="5,2" d="M430.963,-541.459C449.719,-533.084 474.873,-522.741 498,-516.136 550.905,-501.028 583.47,-536.279 620,-495.136 671.266,-437.397 588.104,-207.064 638,-148.136 649.363,-134.717 667.872,-129.52 684.813,-127.866"/>
<polygon fill="#9a32cd" stroke="#9a32cd" points="429.439,-538.307 421.782,-545.63 432.334,-544.68 429.439,-538.307"/>
<text text-anchor="middle" x="559" y="-519.136" font-family="Helvetica,sans-Serif" font-size="10.00"> myExecutionParameters</text>
</g>
<!-- Node24 -->
<g id="node24" class="node"><title>Node24</title>
<g id="a_node24"><a xlink:href="../../d6/de7/classview_1_1_s_logo_view.html" target="_top" xlink:title="view.SLogoView">
<polygon fill="white" stroke="black" points="1656.5,-192.636 1656.5,-211.636 1747.5,-211.636 1747.5,-192.636 1656.5,-192.636"/>
<text text-anchor="middle" x="1702" y="-199.636" font-family="Helvetica,sans-Serif" font-size="10.00">view.SLogoView</text>
</a>
</g>
</g>
<!-- Node4&#45;&gt;Node24 -->
<g id="edge40" class="edge"><title>Node4&#45;&gt;Node24</title>
<path fill="none" stroke="#9a32cd" stroke-dasharray="5,2" d="M418.738,-571.784C463.818,-614.769 593.232,-726.136 724,-726.136 724,-726.136 724,-726.136 1485,-726.136 1511.62,-726.136 1628.29,-643.62 1638,-628.136 1683.76,-555.13 1698.19,-268.233 1700.61,-211.802"/>
<polygon fill="#9a32cd" stroke="#9a32cd" points="421.166,-569.263 411.548,-564.82 416.296,-574.291 421.166,-569.263"/>
<text text-anchor="middle" x="1170" y="-729.136" font-family="Helvetica,sans-Serif" font-size="10.00"> myEnvironment</text>
</g>
<!-- Node5 -->
<g id="node5" class="node"><title>Node5</title>
<polygon fill="white" stroke="#bfbfbf" points="51.5,-528.636 51.5,-547.636 122.5,-547.636 122.5,-528.636 51.5,-528.636"/>
<text text-anchor="middle" x="87" y="-535.636" font-family="Helvetica,sans-Serif" font-size="10.00">Observable</text>
</g>
<!-- Node5&#45;&gt;Node4 -->
<g id="edge4" class="edge"><title>Node5&#45;&gt;Node4</title>
<path fill="none" stroke="midnightblue" d="M132.637,-540.569C182.066,-543.262 262.658,-547.653 322.457,-550.911"/>
<polygon fill="midnightblue" stroke="midnightblue" points="132.757,-537.07 122.582,-540.021 132.376,-544.06 132.757,-537.07"/>
</g>
<!-- Node6 -->
<g id="node6" class="node"><title>Node6</title>
<polygon fill="white" stroke="#bfbfbf" points="42.5,-490.636 42.5,-509.636 131.5,-509.636 131.5,-490.636 42.5,-490.636"/>
<text text-anchor="middle" x="87" y="-497.636" font-family="Helvetica,sans-Serif" font-size="10.00">Set&lt; Integer &gt;</text>
</g>
<!-- Node6&#45;&gt;Node4 -->
<g id="edge5" class="edge"><title>Node6&#45;&gt;Node4</title>
<path fill="none" stroke="#9a32cd" stroke-dasharray="5,2" d="M141.799,-500.392C185.898,-501.606 249.672,-505.673 304,-518.136 331.333,-524.407 361.247,-536.902 380.296,-545.629"/>
<polygon fill="#9a32cd" stroke="#9a32cd" points="141.666,-496.888 131.587,-500.152 141.502,-503.886 141.666,-496.888"/>
<text text-anchor="middle" x="248" y="-532.136" font-family="Helvetica,sans-Serif" font-size="10.00"> myTurtleList</text>
<text text-anchor="middle" x="248" y="-521.136" font-family="Helvetica,sans-Serif" font-size="10.00">activeTurtleList</text>
</g>
<!-- Node7 -->
<g id="node7" class="node"><title>Node7</title>
<polygon fill="white" stroke="#bfbfbf" points="0,-605.136 0,-635.136 174,-635.136 174,-605.136 0,-605.136"/>
<text text-anchor="start" x="8" y="-623.136" font-family="Helvetica,sans-Serif" font-size="10.00">Map&lt; String, model.instructions.</text>
<text text-anchor="middle" x="87" y="-612.136" font-family="Helvetica,sans-Serif" font-size="10.00">Instruction &gt;</text>
</g>
<!-- Node7&#45;&gt;Node4 -->
<g id="edge6" class="edge"><title>Node7&#45;&gt;Node4</title>
<path fill="none" stroke="#9a32cd" stroke-dasharray="5,2" d="M184.106,-606.824C221.715,-600.91 265.087,-593.217 304,-584.136 327.059,-578.755 352.711,-570.907 371.694,-564.732"/>
<polygon fill="#9a32cd" stroke="#9a32cd" points="183.514,-603.374 174.169,-608.366 184.588,-610.291 183.514,-603.374"/>
<text text-anchor="middle" x="248" y="-609.136" font-family="Helvetica,sans-Serif" font-size="10.00"> myUserInstructionMap</text>
</g>
<!-- Node8 -->
<g id="node8" class="node"><title>Node8</title>
<polygon fill="white" stroke="#bfbfbf" points="23,-566.636 23,-585.636 151,-585.636 151,-566.636 23,-566.636"/>
<text text-anchor="middle" x="87" y="-573.636" font-family="Helvetica,sans-Serif" font-size="10.00">Map&lt; String, Double &gt;</text>
</g>
<!-- Node8&#45;&gt;Node4 -->
<g id="edge7" class="edge"><title>Node8&#45;&gt;Node4</title>
<path fill="none" stroke="#9a32cd" stroke-dasharray="5,2" d="M161.23,-571.207C209.637,-567.949 273.011,-563.684 322.303,-560.366"/>
<polygon fill="#9a32cd" stroke="#9a32cd" points="160.88,-567.723 151.138,-571.887 161.35,-574.707 160.88,-567.723"/>
<text text-anchor="middle" x="248" y="-572.136" font-family="Helvetica,sans-Serif" font-size="10.00"> myVariableMap</text>
</g>
<!-- Node9&#45;&gt;Node2 -->
<g id="edge8" class="edge"><title>Node9&#45;&gt;Node2</title>
<path fill="none" stroke="#9a32cd" stroke-dasharray="5,2" d="M433.544,-379.537C452.058,-387.004 476.058,-396.003 498,-402.136 551.141,-416.99 568.121,-406.344 620,-425.136 654.405,-437.599 690.951,-460.555 710.23,-473.536"/>
<polygon fill="#9a32cd" stroke="#9a32cd" points="434.718,-376.236 424.138,-375.685 432.066,-382.714 434.718,-376.236"/>
<text text-anchor="middle" x="559" y="-428.136" font-family="Helvetica,sans-Serif" font-size="10.00"> myViewUpdater</text>
</g>
<!-- Node9&#45;&gt;Node21 -->
<g id="edge27" class="edge"><title>Node9&#45;&gt;Node21</title>
<path fill="none" stroke="#9a32cd" stroke-dasharray="5,2" d="M415.2,-348.419C432.328,-326.388 464.062,-288.694 498,-264.136 546.486,-229.052 580.766,-252.331 620,-207.136 637.972,-186.434 617.867,-166.745 638,-148.136 650.576,-136.512 668.609,-131.423 684.917,-129.375"/>
<polygon fill="#9a32cd" stroke="#9a32cd" points="412.273,-346.486 408.985,-356.558 417.836,-350.735 412.273,-346.486"/>
<text text-anchor="middle" x="559" y="-267.136" font-family="Helvetica,sans-Serif" font-size="10.00"> myViewUpdater</text>
</g>
<!-- Node10 -->
<g id="node10" class="node"><title>Node10</title>
<g id="a_node10"><a xlink:href="../../da/d64/classview_1_1_workspace.html" target="_top" xlink:title="view.Workspace">
<polygon fill="white" stroke="black" points="1228,-420.636 1228,-439.636 1318,-439.636 1318,-420.636 1228,-420.636"/>
<text text-anchor="middle" x="1273" y="-427.636" font-family="Helvetica,sans-Serif" font-size="10.00">view.Workspace</text>
</a>
</g>
</g>
<!-- Node10&#45;&gt;Node9 -->
<g id="edge10" class="edge"><title>Node10&#45;&gt;Node9</title>
<path fill="none" stroke="#9a32cd" stroke-dasharray="5,2" d="M1217.66,-429.185C1191.2,-428.672 1158.94,-427.971 1130,-427.136 1057.09,-425.033 1038.78,-425.885 966,-421.136 757.526,-407.534 705.79,-398.807 498,-377.136 482.816,-375.553 466.297,-373.705 451.31,-371.981"/>
<polygon fill="#9a32cd" stroke="#9a32cd" points="1217.8,-432.688 1227.86,-429.379 1217.93,-425.689 1217.8,-432.688"/>
<text text-anchor="middle" x="889" y="-423.136" font-family="Helvetica,sans-Serif" font-size="10.00"> myWorkspace</text>
</g>
<!-- Node10&#45;&gt;Node24 -->
<g id="edge30" class="edge"><title>Node10&#45;&gt;Node24</title>
<path fill="none" stroke="#9a32cd" stroke-dasharray="5,2" d="M1328.28,-429.44C1406.18,-425.587 1549.95,-407.451 1638,-329.136 1675.33,-295.932 1693.07,-235.53 1698.82,-211.943"/>
<polygon fill="#9a32cd" stroke="#9a32cd" points="1328.04,-425.947 1318.2,-429.877 1328.34,-432.94 1328.04,-425.947"/>
<text text-anchor="middle" x="1484" y="-422.136" font-family="Helvetica,sans-Serif" font-size="10.00"> myWorkspace</text>
</g>
<!-- Node32 -->
<g id="node32" class="node"><title>Node32</title>
<g id="a_node32"><a xlink:href="../../de/d0a/classview_1_1_drawer.html" target="_top" xlink:title="view.Drawer">
<polygon fill="white" stroke="black" points="1447.5,-328.636 1447.5,-347.636 1520.5,-347.636 1520.5,-328.636 1447.5,-328.636"/>
<text text-anchor="middle" x="1484" y="-335.636" font-family="Helvetica,sans-Serif" font-size="10.00">view.Drawer</text>
</a>
</g>
</g>
<!-- Node10&#45;&gt;Node32 -->
<g id="edge44" class="edge"><title>Node10&#45;&gt;Node32</title>
<path fill="none" stroke="#9a32cd" stroke-dasharray="5,2" d="M1303.07,-416.298C1313.43,-411.431 1325.21,-405.972 1336,-401.136 1379.58,-381.611 1430.96,-359.883 1459.98,-347.727"/>
<polygon fill="#9a32cd" stroke="#9a32cd" points="1301.58,-413.134 1294.03,-420.566 1304.57,-419.465 1301.58,-413.134"/>
<text text-anchor="middle" x="1371" y="-404.136" font-family="Helvetica,sans-Serif" font-size="10.00"> myWorkspace</text>
</g>
<!-- Node11 -->
<g id="node11" class="node"><title>Node11</title>
<polygon fill="white" stroke="#bfbfbf" points="1005.5,-507.636 1005.5,-526.636 1072.5,-526.636 1072.5,-507.636 1005.5,-507.636"/>
<text text-anchor="middle" x="1039" y="-514.636" font-family="Helvetica,sans-Serif" font-size="10.00">StackPane</text>
</g>
<!-- Node11&#45;&gt;Node10 -->
<g id="edge11" class="edge"><title>Node11&#45;&gt;Node10</title>
<path fill="none" stroke="midnightblue" d="M1082.49,-507.009C1092.27,-504.38 1102.56,-501.369 1112,-498.136 1163.68,-480.437 1222.27,-453.773 1252.16,-439.669"/>
<polygon fill="midnightblue" stroke="midnightblue" points="1081.35,-503.691 1072.55,-509.603 1083.11,-510.464 1081.35,-503.691"/>
</g>
<!-- Node12 -->
<g id="node12" class="node"><title>Node12</title>
<polygon fill="white" stroke="#bfbfbf" points="678.5,-558.636 678.5,-577.636 771.5,-577.636 771.5,-558.636 678.5,-558.636"/>
<text text-anchor="middle" x="725" y="-565.636" font-family="Helvetica,sans-Serif" font-size="10.00">ResourceBundle</text>
</g>
<!-- Node12&#45;&gt;Node10 -->
<g id="edge12" class="edge"><title>Node12&#45;&gt;Node10</title>
<path fill="none" stroke="#9a32cd" stroke-dasharray="5,2" d="M782.099,-569.794C858.21,-570.63 997.798,-567.123 1112,-536.136 1158.62,-523.487 1170.24,-516.567 1210,-489.136 1231.28,-474.455 1252.28,-452.475 1263.54,-439.9"/>
<polygon fill="#9a32cd" stroke="#9a32cd" points="781.837,-566.29 771.789,-569.65 781.739,-573.29 781.837,-566.29"/>
<text text-anchor="middle" x="1039" y="-565.136" font-family="Helvetica,sans-Serif" font-size="10.00"> myResources</text>
</g>
<!-- Node12&#45;&gt;Node17 -->
<g id="edge20" class="edge"><title>Node12&#45;&gt;Node17</title>
<path fill="none" stroke="#9a32cd" stroke-dasharray="5,2" d="M778.476,-555.831C789.725,-552.549 801.408,-548.639 812,-544.136 876.538,-516.703 910.059,-523.113 948,-464.136 989.585,-399.496 919.357,-353.228 966,-292.136 974.302,-281.263 987.418,-274.609 1000.19,-270.539"/>
<polygon fill="#9a32cd" stroke="#9a32cd" points="777.429,-552.489 768.74,-558.552 779.313,-559.231 777.429,-552.489"/>
<text text-anchor="middle" x="889" y="-540.136" font-family="Helvetica,sans-Serif" font-size="10.00"> myResources</text>
</g>
<!-- Node12&#45;&gt;Node24 -->
<g id="edge32" class="edge"><title>Node12&#45;&gt;Node24</title>
<path fill="none" stroke="#9a32cd" stroke-dasharray="5,2" d="M754.943,-582.043C799.259,-602.654 887.102,-640.84 966,-659.136 1054.27,-679.607 1078.38,-678.136 1169,-678.136 1169,-678.136 1169,-678.136 1485,-678.136 1697.81,-678.136 1701.99,-278.732 1701.19,-211.645"/>
<polygon fill="#9a32cd" stroke="#9a32cd" points="756.197,-578.765 745.658,-577.684 753.223,-585.102 756.197,-578.765"/>
<text text-anchor="middle" x="1273" y="-681.136" font-family="Helvetica,sans-Serif" font-size="10.00"> myResources</text>
</g>
<!-- Node13 -->
<g id="node13" class="node"><title>Node13</title>
<g id="a_node13"><a xlink:href="../../d8/df7/classview_1_1_turtle_view.html" target="_top" xlink:title="view.TurtleView">
<polygon fill="white" stroke="black" points="996,-630.636 996,-649.636 1082,-649.636 1082,-630.636 996,-630.636"/>
<text text-anchor="middle" x="1039" y="-637.636" font-family="Helvetica,sans-Serif" font-size="10.00">view.TurtleView</text>
</a>
</g>
</g>
<!-- Node13&#45;&gt;Node10 -->
<g id="edge13" class="edge"><title>Node13&#45;&gt;Node10</title>
<path fill="none" stroke="#9a32cd" stroke-dasharray="5,2" d="M1092.44,-644.764C1129.36,-645.142 1177.77,-639.441 1210,-612.136 1264.25,-566.177 1271.15,-470.703 1271.93,-439.926"/>
<polygon fill="#9a32cd" stroke="#9a32cd" points="1092.44,-641.263 1082.35,-644.51 1092.26,-648.261 1092.44,-641.263"/>
<text text-anchor="middle" x="1170" y="-646.136" font-family="Helvetica,sans-Serif" font-size="10.00"> myActiveTurtle</text>
</g>
<!-- Node14 -->
<g id="node14" class="node"><title>Node14</title>
<polygon fill="white" stroke="#bfbfbf" points="691,-678.636 691,-697.636 759,-697.636 759,-678.636 691,-678.636"/>
<text text-anchor="middle" x="725" y="-685.636" font-family="Helvetica,sans-Serif" font-size="10.00">ImageView</text>
</g>
<!-- Node14&#45;&gt;Node13 -->
<g id="edge14" class="edge"><title>Node14&#45;&gt;Node13</title>
<path fill="none" stroke="midnightblue" d="M769.349,-681.467C829.248,-672.252 936.622,-655.733 995.869,-646.618"/>
<polygon fill="midnightblue" stroke="midnightblue" points="768.446,-678.065 759.094,-683.045 769.51,-684.984 768.446,-678.065"/>
</g>
<!-- Node15 -->
<g id="node15" class="node"><title>Node15</title>
<polygon fill="white" stroke="#bfbfbf" points="971,-382.136 971,-412.136 1107,-412.136 1107,-382.136 971,-382.136"/>
<text text-anchor="start" x="979" y="-400.136" font-family="Helvetica,sans-Serif" font-size="10.00">Map&lt; Integer, view.Turtle</text>
<text text-anchor="middle" x="1039" y="-389.136" font-family="Helvetica,sans-Serif" font-size="10.00">View &gt;</text>
</g>
<!-- Node15&#45;&gt;Node10 -->
<g id="edge15" class="edge"><title>Node15&#45;&gt;Node10</title>
<path fill="none" stroke="#9a32cd" stroke-dasharray="5,2" d="M1117.37,-403.957C1146.51,-407.004 1179.87,-411.067 1210,-416.136 1217.4,-417.381 1225.24,-418.953 1232.77,-420.589"/>
<polygon fill="#9a32cd" stroke="#9a32cd" points="1117.56,-400.458 1107.25,-402.922 1116.85,-407.422 1117.56,-400.458"/>
<text text-anchor="middle" x="1170" y="-419.136" font-family="Helvetica,sans-Serif" font-size="10.00"> myTurtles</text>
</g>
<!-- Node16 -->
<g id="node16" class="node"><title>Node16</title>
<polygon fill="white" stroke="#bfbfbf" points="1016,-343.636 1016,-362.636 1062,-362.636 1062,-343.636 1016,-343.636"/>
<text text-anchor="middle" x="1039" y="-350.636" font-family="Helvetica,sans-Serif" font-size="10.00">Group</text>
</g>
<!-- Node16&#45;&gt;Node10 -->
<g id="edge16" class="edge"><title>Node16&#45;&gt;Node10</title>
<path fill="none" stroke="#9a32cd" stroke-dasharray="5,2" d="M1072.3,-357.011C1107.25,-361.961 1164.13,-372.244 1210,-391.136 1228.34,-398.691 1247.35,-411.521 1259.41,-420.391"/>
<polygon fill="#9a32cd" stroke="#9a32cd" points="1072.57,-353.516 1062.19,-355.642 1071.63,-360.453 1072.57,-353.516"/>
<text text-anchor="middle" x="1170" y="-394.136" font-family="Helvetica,sans-Serif" font-size="10.00"> myLines</text>
</g>
<!-- Node17&#45;&gt;Node9 -->
<g id="edge50" class="edge"><title>Node17&#45;&gt;Node9</title>
<path fill="none" stroke="#9a32cd" stroke-dasharray="5,2" d="M990.37,-267.011C899.473,-272.692 704.404,-285.87 638,-298.136 560.64,-312.427 472.206,-341.439 428.841,-356.53"/>
<polygon fill="#9a32cd" stroke="#9a32cd" points="990.638,-270.502 1000.4,-266.389 990.204,-263.515 990.638,-270.502"/>
<text text-anchor="middle" x="725" y="-301.136" font-family="Helvetica,sans-Serif" font-size="10.00"> mySidebar</text>
</g>
<!-- Node17&#45;&gt;Node10 -->
<g id="edge17" class="edge"><title>Node17&#45;&gt;Node10</title>
<path fill="none" stroke="#9a32cd" stroke-dasharray="5,2" d="M1076.93,-277.221C1113.72,-291.599 1170.3,-317.48 1210,-353.136 1219.66,-361.81 1219.9,-365.993 1228,-376.136 1240.53,-391.823 1255.31,-409.871 1264.15,-420.623"/>
<polygon fill="#9a32cd" stroke="#9a32cd" points="1078.16,-273.944 1067.57,-273.644 1075.66,-280.483 1078.16,-273.944"/>
<text text-anchor="middle" x="1170" y="-356.136" font-family="Helvetica,sans-Serif" font-size="10.00"> mySidebar</text>
</g>
<!-- Node17&#45;&gt;Node24 -->
<g id="edge46" class="edge"><title>Node17&#45;&gt;Node24</title>
<path fill="none" stroke="#9a32cd" stroke-dasharray="5,2" d="M1087.9,-262.545C1189.69,-258.669 1434.83,-246.715 1638,-216.136 1645.87,-214.952 1654.22,-213.348 1662.17,-211.648"/>
<polygon fill="#9a32cd" stroke="#9a32cd" points="1087.5,-259.057 1077.64,-262.926 1087.76,-266.052 1087.5,-259.057"/>
<text text-anchor="middle" x="1371" y="-252.136" font-family="Helvetica,sans-Serif" font-size="10.00"> mySidebar</text>
</g>
<!-- Node26 -->
<g id="node26" class="node"><title>Node26</title>
<g id="a_node26"><a xlink:href="../../da/dc8/classview_1_1_editor.html" target="_top" xlink:title="view.Editor">
<polygon fill="white" stroke="black" points="1239.5,-115.636 1239.5,-134.636 1306.5,-134.636 1306.5,-115.636 1239.5,-115.636"/>
<text text-anchor="middle" x="1273" y="-122.636" font-family="Helvetica,sans-Serif" font-size="10.00">view.Editor</text>
</a>
</g>
</g>
<!-- Node17&#45;&gt;Node26 -->
<g id="edge38" class="edge"><title>Node17&#45;&gt;Node26</title>
<path fill="none" stroke="#9a32cd" stroke-dasharray="5,2" d="M1066.97,-249.588C1100.81,-231.138 1160.43,-198.004 1210,-167.136 1227,-156.553 1245.98,-143.504 1258.41,-134.785"/>
<polygon fill="#9a32cd" stroke="#9a32cd" points="1065.25,-246.538 1058.13,-254.388 1068.59,-252.688 1065.25,-246.538"/>
<text text-anchor="middle" x="1170" y="-217.136" font-family="Helvetica,sans-Serif" font-size="10.00"> mySidebar</text>
</g>
<!-- Node18 -->
<g id="node18" class="node"><title>Node18</title>
<polygon fill="white" stroke="#bfbfbf" points="704.5,-233.636 704.5,-252.636 745.5,-252.636 745.5,-233.636 704.5,-233.636"/>
<text text-anchor="middle" x="725" y="-240.636" font-family="Helvetica,sans-Serif" font-size="10.00">VBox</text>
</g>
<!-- Node18&#45;&gt;Node17 -->
<g id="edge18" class="edge"><title>Node18&#45;&gt;Node17</title>
<path fill="none" stroke="midnightblue" d="M755.664,-245.133C812.695,-248.972 937.535,-257.374 1000.34,-261.602"/>
<polygon fill="midnightblue" stroke="midnightblue" points="755.729,-241.63 745.517,-244.45 755.259,-248.614 755.729,-241.63"/>
</g>
<!-- Node19 -->
<g id="node19" class="node"><title>Node19</title>
<polygon fill="white" stroke="#bfbfbf" points="638.5,-195.636 638.5,-214.636 811.5,-214.636 811.5,-195.636 638.5,-195.636"/>
<text text-anchor="middle" x="725" y="-202.636" font-family="Helvetica,sans-Serif" font-size="10.00">ObservableList&lt; view.Property &gt;</text>
</g>
<!-- Node19&#45;&gt;Node17 -->
<g id="edge19" class="edge"><title>Node19&#45;&gt;Node17</title>
<path fill="none" stroke="#9a32cd" stroke-dasharray="5,2" d="M821.78,-215.784C861.124,-220.976 906.987,-228.081 948,-237.136 969.027,-241.779 992.298,-248.812 1009.91,-254.537"/>
<polygon fill="#9a32cd" stroke="#9a32cd" points="822.028,-212.287 811.661,-214.472 821.128,-219.229 822.028,-212.287"/>
<text text-anchor="middle" x="889" y="-240.136" font-family="Helvetica,sans-Serif" font-size="10.00"> myVariablesList</text>
</g>
<!-- Node20 -->
<g id="node20" class="node"><title>Node20</title>
<polygon fill="white" stroke="#bfbfbf" points="651,-157.636 651,-176.636 799,-176.636 799,-157.636 651,-157.636"/>
<text text-anchor="middle" x="725" y="-164.636" font-family="Helvetica,sans-Serif" font-size="10.00">TableView&lt; view.Property &gt;</text>
</g>
<!-- Node20&#45;&gt;Node17 -->
<g id="edge22" class="edge"><title>Node20&#45;&gt;Node17</title>
<path fill="none" stroke="#9a32cd" stroke-dasharray="5,2" d="M809.282,-169.864C862.074,-172.852 924.659,-179.098 948,-192.136 959.332,-198.467 956.521,-206.268 966,-215.136 983.003,-231.045 1005.6,-245.546 1020.92,-254.575"/>
<polygon fill="#9a32cd" stroke="#9a32cd" points="809.383,-166.365 799.21,-169.326 809.009,-173.355 809.383,-166.365"/>
<text text-anchor="middle" x="889" y="-206.136" font-family="Helvetica,sans-Serif" font-size="10.00"> myTurtlePropertiesTable</text>
<text text-anchor="middle" x="889" y="-195.136" font-family="Helvetica,sans-Serif" font-size="10.00">myVariablesTable</text>
</g>
<!-- Node21&#45;&gt;Node17 -->
<g id="edge23" class="edge"><title>Node21&#45;&gt;Node17</title>
<path fill="none" stroke="#9a32cd" stroke-dasharray="5,2" d="M775.317,-132.779C836.677,-137.738 935.009,-147.252 948,-158.136 968.363,-175.198 950.144,-193.821 966,-215.136 979.176,-232.849 1000.74,-246.296 1016.84,-254.581"/>
<polygon fill="#9a32cd" stroke="#9a32cd" points="775.309,-129.267 765.063,-131.965 774.755,-136.245 775.309,-129.267"/>
<text text-anchor="middle" x="889" y="-161.136" font-family="Helvetica,sans-Serif" font-size="10.00"> myParser</text>
</g>
<!-- Node21&#45;&gt;Node24 -->
<g id="edge41" class="edge"><title>Node21&#45;&gt;Node24</title>
<path fill="none" stroke="#9a32cd" stroke-dasharray="5,2" d="M774.757,-117.761C823.162,-109.405 897.277,-104.858 948,-140.136 964.673,-151.732 949.199,-170.727 966,-182.136 1022.96,-220.817 1505.96,-208.505 1656.43,-203.677"/>
<polygon fill="#9a32cd" stroke="#9a32cd" points="774.036,-114.335 764.836,-119.589 775.305,-121.219 774.036,-114.335"/>
<text text-anchor="middle" x="1273" y="-213.136" font-family="Helvetica,sans-Serif" font-size="10.00"> myParser</text>
</g>
<!-- Node21&#45;&gt;Node26 -->
<g id="edge36" class="edge"><title>Node21&#45;&gt;Node26</title>
<path fill="none" stroke="#9a32cd" stroke-dasharray="5,2" d="M756.64,-115.735C821.935,-88.8687 979.641,-32.9823 1112,-57.1364 1167.82,-67.3231 1227.94,-99.2209 1255.95,-115.448"/>
<polygon fill="#9a32cd" stroke="#9a32cd" points="755.205,-112.541 747.33,-119.628 757.906,-118.999 755.205,-112.541"/>
<text text-anchor="middle" x="1039" y="-60.1364" font-family="Helvetica,sans-Serif" font-size="10.00"> myParser</text>
</g>
<!-- Node22 -->
<g id="node22" class="node"><title>Node22</title>
<polygon fill="white" stroke="#bfbfbf" points="345,-92.1364 345,-122.136 457,-122.136 457,-92.1364 345,-92.1364"/>
<text text-anchor="start" x="353" y="-110.136" font-family="Helvetica,sans-Serif" font-size="10.00">List&lt; Entry&lt; String,</text>
<text text-anchor="middle" x="401" y="-99.1364" font-family="Helvetica,sans-Serif" font-size="10.00"> Pattern &gt; &gt;</text>
</g>
<!-- Node22&#45;&gt;Node21 -->
<g id="edge25" class="edge"><title>Node22&#45;&gt;Node21</title>
<path fill="none" stroke="#9a32cd" stroke-dasharray="5,2" d="M467.519,-111.613C532.679,-116.065 630.507,-122.749 684.567,-126.442"/>
<polygon fill="#9a32cd" stroke="#9a32cd" points="467.569,-108.108 457.354,-110.918 467.092,-115.092 467.569,-108.108"/>
<text text-anchor="middle" x="559" y="-125.136" font-family="Helvetica,sans-Serif" font-size="10.00"> myPatterns</text>
</g>
<!-- Node23 -->
<g id="node23" class="node"><title>Node23</title>
<polygon fill="white" stroke="#bfbfbf" points="340,-179.636 340,-198.636 462,-198.636 462,-179.636 340,-179.636"/>
<text text-anchor="middle" x="401" y="-186.636" font-family="Helvetica,sans-Serif" font-size="10.00">Map&lt; String, String &gt;</text>
</g>
<!-- Node23&#45;&gt;Node21 -->
<g id="edge28" class="edge"><title>Node23&#45;&gt;Node21</title>
<path fill="none" stroke="#9a32cd" stroke-dasharray="5,2" d="M472.194,-192.569C516.483,-192.094 573.833,-186.491 620,-165.136 629.987,-160.517 628.276,-153.287 638,-148.136 652.323,-140.549 669.529,-135.988 684.775,-133.247"/>
<polygon fill="#9a32cd" stroke="#9a32cd" points="472.086,-189.069 462.094,-192.592 472.102,-196.069 472.086,-189.069"/>
<text text-anchor="middle" x="559" y="-195.136" font-family="Helvetica,sans-Serif" font-size="10.00"> myCommandMap</text>
</g>
<!-- Node24&#45;&gt;Node21 -->
<g id="edge29" class="edge"><title>Node24&#45;&gt;Node21</title>
<path fill="none" stroke="#9a32cd" stroke-dasharray="5,2" d="M1699.58,-182.3C1695.92,-146.856 1683.01,-72.7549 1638,-34.1364 1585.27,11.1001 1554.47,-2.13639 1485,-2.13639 1038,-2.13639 1038,-2.13639 1038,-2.13639 942.491,-2.13639 916.694,-16.0602 830,-56.1364 792.756,-73.3532 754.731,-104.088 736.721,-119.609"/>
<polygon fill="#9a32cd" stroke="#9a32cd" points="1696.1,-182.704 1700.47,-192.355 1703.07,-182.085 1696.1,-182.704"/>
<text text-anchor="middle" x="1273" y="-5.13639" font-family="Helvetica,sans-Serif" font-size="10.00"> mySLogoView</text>
</g>
<!-- Node25 -->
<g id="node25" class="node"><title>Node25</title>
<polygon fill="white" stroke="#bfbfbf" points="1461.5,-154.636 1461.5,-173.636 1506.5,-173.636 1506.5,-154.636 1461.5,-154.636"/>
<text text-anchor="middle" x="1484" y="-161.636" font-family="Helvetica,sans-Serif" font-size="10.00">Stage</text>
</g>
<!-- Node25&#45;&gt;Node24 -->
<g id="edge31" class="edge"><title>Node25&#45;&gt;Node24</title>
<path fill="none" stroke="#9a32cd" stroke-dasharray="5,2" d="M1516.88,-164.145C1548.13,-164.782 1596.92,-167.462 1638,-177.136 1653,-180.67 1669.15,-187.133 1681.34,-192.603"/>
<polygon fill="#9a32cd" stroke="#9a32cd" points="1516.65,-160.641 1506.6,-163.996 1516.55,-167.64 1516.65,-160.641"/>
<text text-anchor="middle" x="1600" y="-180.136" font-family="Helvetica,sans-Serif" font-size="10.00"> myStage</text>
</g>
<!-- Node26&#45;&gt;Node24 -->
<g id="edge33" class="edge"><title>Node26&#45;&gt;Node24</title>
<path fill="none" stroke="#9a32cd" stroke-dasharray="5,2" d="M1316.96,-121.111C1387.45,-116.317 1530.58,-114.292 1638,-163.136 1656.03,-171.337 1675.17,-183.784 1687.55,-192.401"/>
<polygon fill="#9a32cd" stroke="#9a32cd" points="1316.4,-117.642 1306.69,-121.865 1316.92,-124.623 1316.4,-117.642"/>
<text text-anchor="middle" x="1484" y="-137.136" font-family="Helvetica,sans-Serif" font-size="10.00"> myEditor</text>
</g>
<!-- Node27 -->
<g id="node27" class="node"><title>Node27</title>
<polygon fill="white" stroke="#bfbfbf" points="1018,-115.636 1018,-134.636 1060,-134.636 1060,-115.636 1018,-115.636"/>
<text text-anchor="middle" x="1039" y="-122.636" font-family="Helvetica,sans-Serif" font-size="10.00">HBox</text>
</g>
<!-- Node27&#45;&gt;Node26 -->
<g id="edge34" class="edge"><title>Node27&#45;&gt;Node26</title>
<path fill="none" stroke="midnightblue" d="M1070.46,-125.136C1114.14,-125.136 1194.25,-125.136 1239.19,-125.136"/>
<polygon fill="midnightblue" stroke="midnightblue" points="1070.18,-121.636 1060.18,-125.136 1070.18,-128.636 1070.18,-121.636"/>
</g>
<!-- Node28 -->
<g id="node28" class="node"><title>Node28</title>
<polygon fill="white" stroke="#bfbfbf" points="1014.5,-77.6364 1014.5,-96.6364 1063.5,-96.6364 1063.5,-77.6364 1014.5,-77.6364"/>
<text text-anchor="middle" x="1039" y="-84.6364" font-family="Helvetica,sans-Serif" font-size="10.00">Button</text>
</g>
<!-- Node28&#45;&gt;Node26 -->
<g id="edge35" class="edge"><title>Node28&#45;&gt;Node26</title>
<path fill="none" stroke="#9a32cd" stroke-dasharray="5,2" d="M1073.77,-90.6682C1108.19,-94.5109 1163.05,-101.305 1210,-110.136 1219.58,-111.938 1229.9,-114.273 1239.32,-116.563"/>
<polygon fill="#9a32cd" stroke="#9a32cd" points="1074.1,-87.1832 1063.77,-89.5715 1073.33,-94.1414 1074.1,-87.1832"/>
<text text-anchor="middle" x="1170" y="-113.136" font-family="Helvetica,sans-Serif" font-size="10.00"> runButton</text>
</g>
<!-- Node29 -->
<g id="node29" class="node"><title>Node29</title>
<polygon fill="white" stroke="#bfbfbf" points="1010,-153.636 1010,-172.636 1068,-172.636 1068,-153.636 1010,-153.636"/>
<text text-anchor="middle" x="1039" y="-160.636" font-family="Helvetica,sans-Serif" font-size="10.00">TextArea</text>
</g>
<!-- Node29&#45;&gt;Node26 -->
<g id="edge37" class="edge"><title>Node29&#45;&gt;Node26</title>
<path fill="none" stroke="#9a32cd" stroke-dasharray="5,2" d="M1078.22,-158.649C1112.77,-154.376 1164.96,-147.386 1210,-139.136 1219.55,-137.387 1229.86,-135.186 1239.28,-133.05"/>
<polygon fill="#9a32cd" stroke="#9a32cd" points="1077.59,-155.199 1068.09,-159.886 1078.44,-162.147 1077.59,-155.199"/>
<text text-anchor="middle" x="1170" y="-155.136" font-family="Helvetica,sans-Serif" font-size="10.00"> textEditor</text>
</g>
<!-- Node30 -->
<g id="node30" class="node"><title>Node30</title>
<polygon fill="white" stroke="#bfbfbf" points="1424.5,-69.6364 1424.5,-88.6364 1543.5,-88.6364 1543.5,-69.6364 1424.5,-69.6364"/>
<text text-anchor="middle" x="1484" y="-76.6364" font-family="Helvetica,sans-Serif" font-size="10.00">Map&lt; String, Node &gt;</text>
</g>
<!-- Node30&#45;&gt;Node24 -->
<g id="edge39" class="edge"><title>Node30&#45;&gt;Node24</title>
<path fill="none" stroke="#9a32cd" stroke-dasharray="5,2" d="M1553.76,-76.1611C1581.82,-77.9601 1613.38,-84.1152 1638,-100.136 1672.71,-122.73 1691.53,-171.832 1698.18,-192.578"/>
<polygon fill="#9a32cd" stroke="#9a32cd" points="1553.75,-72.657 1543.6,-75.6852 1553.42,-79.6494 1553.75,-72.657"/>
<text text-anchor="middle" x="1600" y="-103.136" font-family="Helvetica,sans-Serif" font-size="10.00"> variables</text>
</g>
<!-- Node31 -->
<g id="node31" class="node"><title>Node31</title>
<polygon fill="white" stroke="#bfbfbf" points="1443.5,-31.6364 1443.5,-50.6364 1524.5,-50.6364 1524.5,-31.6364 1443.5,-31.6364"/>
<text text-anchor="middle" x="1484" y="-38.6364" font-family="Helvetica,sans-Serif" font-size="10.00">Dimension2D</text>
</g>
<!-- Node31&#45;&gt;Node24 -->
<g id="edge42" class="edge"><title>Node31&#45;&gt;Node24</title>
<path fill="none" stroke="#9a32cd" stroke-dasharray="5,2" d="M1534.91,-36.2602C1567.29,-35.7182 1608.75,-40.2562 1638,-62.1364 1682.18,-95.1809 1696.1,-166.322 1699.82,-192.344"/>
<polygon fill="#9a32cd" stroke="#9a32cd" points="1534.62,-32.7678 1524.74,-36.5991 1534.85,-39.7639 1534.62,-32.7678"/>
<text text-anchor="middle" x="1600" y="-65.1364" font-family="Helvetica,sans-Serif" font-size="10.00"> myDimensions</text>
</g>
<!-- Node32&#45;&gt;Node9 -->
<g id="edge49" class="edge"><title>Node32&#45;&gt;Node9</title>
<path fill="none" stroke="#9a32cd" stroke-dasharray="5,2" d="M1437.22,-335.69C1367.19,-332.082 1229.24,-325.506 1112,-323.136 1047.12,-321.825 1022.95,-292.042 966,-323.136 953.015,-330.226 960.886,-343.87 948,-351.136 905.41,-375.154 577.041,-370.208 451.021,-367.378"/>
<polygon fill="#9a32cd" stroke="#9a32cd" points="1437.29,-339.198 1447.46,-336.221 1437.65,-332.207 1437.29,-339.198"/>
<text text-anchor="middle" x="1039" y="-326.136" font-family="Helvetica,sans-Serif" font-size="10.00"> myDrawer</text>
</g>
<!-- Node32&#45;&gt;Node24 -->
<g id="edge43" class="edge"><title>Node32&#45;&gt;Node24</title>
<path fill="none" stroke="#9a32cd" stroke-dasharray="5,2" d="M1529.38,-325.541C1561.48,-315.065 1604.86,-297.999 1638,-274.136 1662.8,-256.278 1684.5,-226.896 1694.74,-211.781"/>
<polygon fill="#9a32cd" stroke="#9a32cd" points="1528.27,-322.219 1519.8,-328.58 1530.39,-328.891 1528.27,-322.219"/>
<text text-anchor="middle" x="1600" y="-317.136" font-family="Helvetica,sans-Serif" font-size="10.00"> drawer</text>
</g>
<!-- Node33 -->
<g id="node33" class="node"><title>Node33</title>
<polygon fill="white" stroke="#bfbfbf" points="1252.5,-347.636 1252.5,-366.636 1293.5,-366.636 1293.5,-347.636 1252.5,-347.636"/>
<text text-anchor="middle" x="1273" y="-354.636" font-family="Helvetica,sans-Serif" font-size="10.00">Color</text>
</g>
<!-- Node33&#45;&gt;Node32 -->
<g id="edge45" class="edge"><title>Node33&#45;&gt;Node32</title>
<path fill="none" stroke="#9a32cd" stroke-dasharray="5,2" d="M1304.03,-354.406C1341.9,-350.964 1406.91,-345.053 1447.29,-341.383"/>
<polygon fill="#9a32cd" stroke="#9a32cd" points="1303.3,-350.958 1293.66,-355.349 1303.94,-357.929 1303.3,-350.958"/>
<text text-anchor="middle" x="1371" y="-354.136" font-family="Helvetica,sans-Serif" font-size="10.00"> myColor</text>
</g>
<!-- Node34 -->
<g id="node34" class="node"><title>Node34</title>
<polygon fill="white" stroke="#bfbfbf" points="656,-318.636 656,-337.636 794,-337.636 794,-318.636 656,-318.636"/>
<text text-anchor="middle" x="725" y="-325.636" font-family="Helvetica,sans-Serif" font-size="10.00">ObservableList&lt; String &gt;</text>
</g>
<!-- Node34&#45;&gt;Node17 -->
<g id="edge47" class="edge"><title>Node34&#45;&gt;Node17</title>
<path fill="none" stroke="#9a32cd" stroke-dasharray="5,2" d="M804.415,-327.576C847.753,-325.236 901.977,-318.918 948,-303.136 956.869,-300.095 957.598,-296.296 966,-292.136 980.183,-285.114 996.588,-278.617 1010.15,-273.652"/>
<polygon fill="#9a32cd" stroke="#9a32cd" points="804.033,-324.09 794.212,-328.065 804.368,-331.082 804.033,-324.09"/>
<text text-anchor="middle" x="889" y="-340.136" font-family="Helvetica,sans-Serif" font-size="10.00"> myCommandItems</text>
<text text-anchor="middle" x="889" y="-329.136" font-family="Helvetica,sans-Serif" font-size="10.00">myHistoryItems</text>
</g>
<!-- Node35 -->
<g id="node35" class="node"><title>Node35</title>
<polygon fill="white" stroke="#bfbfbf" points="1007.5,-592.636 1007.5,-611.636 1070.5,-611.636 1070.5,-592.636 1007.5,-592.636"/>
<text text-anchor="middle" x="1039" y="-599.636" font-family="Helvetica,sans-Serif" font-size="10.00">Rectangle</text>
</g>
<!-- Node35&#45;&gt;Node10 -->
<g id="edge48" class="edge"><title>Node35&#45;&gt;Node10</title>
<path fill="none" stroke="#9a32cd" stroke-dasharray="5,2" d="M1080.86,-600.667C1124.61,-598.319 1190.4,-592.311 1210,-577.136 1255.55,-541.867 1268.01,-466.867 1271.08,-439.982"/>
<polygon fill="#9a32cd" stroke="#9a32cd" points="1080.61,-597.175 1070.8,-601.164 1080.96,-604.167 1080.61,-597.175"/>
<text text-anchor="middle" x="1170" y="-600.136" font-family="Helvetica,sans-Serif" font-size="10.00"> myBackground</text>
</g>
<!-- Node36 -->
<g id="node36" class="node"><title>Node36</title>
<polygon fill="white" stroke="#bfbfbf" points="333,-479.136 333,-509.136 469,-509.136 469,-479.136 333,-479.136"/>
<text text-anchor="start" x="341" y="-497.136" font-family="Helvetica,sans-Serif" font-size="10.00">List&lt; model.instructions.</text>
<text text-anchor="middle" x="401" y="-486.136" font-family="Helvetica,sans-Serif" font-size="10.00">Instruction &gt;</text>
</g>
<!-- Node36&#45;&gt;Node2 -->
<g id="edge51" class="edge"><title>Node36&#45;&gt;Node2</title>
<path fill="none" stroke="#9a32cd" stroke-dasharray="5,2" d="M479.102,-485.428C485.489,-484.913 491.851,-484.469 498,-484.136 547.072,-481.479 602.224,-481.182 645.761,-481.573"/>
<polygon fill="#9a32cd" stroke="#9a32cd" points="478.734,-481.947 469.071,-486.292 479.335,-488.921 478.734,-481.947"/>
<text text-anchor="middle" x="559" y="-487.136" font-family="Helvetica,sans-Serif" font-size="10.00"> myDependencies</text>
</g>
</g>
</svg>
