<?xml version="1.0" encoding="UTF-8" standalone="no"?>
<!DOCTYPE svg PUBLIC "-//W3C//DTD SVG 1.1//EN"
 "http://www.w3.org/Graphics/SVG/1.1/DTD/svg11.dtd">
<!-- Generated by graphviz version 2.36.0 (20140111.2315)
 -->
<!-- Title: model.instructions.Variable Pages: 1 -->
<svg width="1486pt" height="662pt"
 viewBox="0.00 0.00 1486.00 661.62" xmlns="http://www.w3.org/2000/svg" xmlns:xlink="http://www.w3.org/1999/xlink">
<g id="graph0" class="graph" transform="scale(1 1) rotate(0) translate(4 657.615)">
<title>model.instructions.Variable</title>
<polygon fill="white" stroke="none" points="-4,4 -4,-657.615 1482,-657.615 1482,4 -4,4"/>
<!-- Node1 -->
<g id="node1" class="node"><title>Node1</title>
<polygon fill="#bfbfbf" stroke="black" points="950,-82.5 950,-101.5 1096,-101.5 1096,-82.5 950,-82.5"/>
<text text-anchor="middle" x="1023" y="-89.5" font-family="Helvetica,sans-Serif" font-size="10.00">model.instructions.Variable</text>
</g>
<!-- Node2 -->
<g id="node2" class="node"><title>Node2</title>
<g id="a_node2"><a xlink:href="../../d1/dea/classmodel_1_1instructions_1_1_instruction.html" target="_top" xlink:title="model.instructions.Instruction">
<polygon fill="white" stroke="black" points="646,-82.5 646,-101.5 804,-101.5 804,-82.5 646,-82.5"/>
<text text-anchor="middle" x="725" y="-89.5" font-family="Helvetica,sans-Serif" font-size="10.00">model.instructions.Instruction</text>
</a>
</g>
</g>
<!-- Node2&#45;&gt;Node1 -->
<g id="edge1" class="edge"><title>Node2&#45;&gt;Node1</title>
<path fill="none" stroke="midnightblue" d="M814.383,-92C857.591,-92 908.939,-92 949.759,-92"/>
<polygon fill="midnightblue" stroke="midnightblue" points="814.158,-88.5001 804.158,-92 814.158,-95.5001 814.158,-88.5001"/>
</g>
<!-- Node3 -->
<g id="node3" class="node"><title>Node3</title>
<polygon fill="white" stroke="#bfbfbf" points="57,-159.5 57,-178.5 117,-178.5 117,-159.5 57,-159.5"/>
<text text-anchor="middle" x="87" y="-166.5" font-family="Helvetica,sans-Serif" font-size="10.00">Observer</text>
</g>
<!-- Node3&#45;&gt;Node2 -->
<g id="edge2" class="edge"><title>Node3&#45;&gt;Node2</title>
<path fill="none" stroke="midnightblue" d="M127.157,-163.579C146.639,-160.92 170.551,-157.714 192,-155 353.244,-134.601 542.246,-112.696 645.976,-100.846"/>
<polygon fill="midnightblue" stroke="midnightblue" points="126.555,-160.128 117.122,-164.953 127.505,-167.064 126.555,-160.128"/>
</g>
<!-- Node9 -->
<g id="node9" class="node"><title>Node9</title>
<g id="a_node9"><a xlink:href="../../d6/de7/classview_1_1_s_logo_view.html" target="_top" xlink:title="view.SLogoView">
<polygon fill="white" stroke="black" points="355.5,-285.5 355.5,-304.5 446.5,-304.5 446.5,-285.5 355.5,-285.5"/>
<text text-anchor="middle" x="401" y="-292.5" font-family="Helvetica,sans-Serif" font-size="10.00">view.SLogoView</text>
</a>
</g>
</g>
<!-- Node3&#45;&gt;Node9 -->
<g id="edge9" class="edge"><title>Node3&#45;&gt;Node9</title>
<path fill="none" stroke="midnightblue" d="M126.768,-181.138C170.454,-195.202 243.293,-219.817 304,-246 332.351,-258.228 364.036,-275.049 382.98,-285.462"/>
<polygon fill="midnightblue" stroke="midnightblue" points="127.7,-177.762 117.109,-178.048 125.567,-184.429 127.7,-177.762"/>
</g>
<!-- Node20 -->
<g id="node20" class="node"><title>Node20</title>
<g id="a_node20"><a xlink:href="../../dc/df5/classmodel_1_1_parser.html" target="_top" xlink:title="model.Parser">
<polygon fill="white" stroke="black" points="685,-236.5 685,-255.5 765,-255.5 765,-236.5 685,-236.5"/>
<text text-anchor="middle" x="725" y="-243.5" font-family="Helvetica,sans-Serif" font-size="10.00">model.Parser</text>
</a>
</g>
</g>
<!-- Node3&#45;&gt;Node20 -->
<g id="edge21" class="edge"><title>Node3&#45;&gt;Node20</title>
<path fill="none" stroke="midnightblue" d="M127.262,-167.442C234.021,-163.615 527.769,-155.93 620,-183 657.27,-193.939 694.691,-221.699 712.792,-236.449"/>
<polygon fill="midnightblue" stroke="midnightblue" points="127.098,-163.945 117.233,-167.81 127.355,-170.941 127.098,-163.945"/>
</g>
<!-- Node4 -->
<g id="node4" class="node"><title>Node4</title>
<g id="a_node4"><a xlink:href="../../d1/dca/classmodel_1_1_execution_environment.html" target="_top" xlink:title="model.ExecutionEnvironment">
<polygon fill="white" stroke="black" points="322.5,-65.5 322.5,-84.5 479.5,-84.5 479.5,-65.5 322.5,-65.5"/>
<text text-anchor="middle" x="401" y="-72.5" font-family="Helvetica,sans-Serif" font-size="10.00">model.ExecutionEnvironment</text>
</a>
</g>
</g>
<!-- Node4&#45;&gt;Node2 -->
<g id="edge3" class="edge"><title>Node4&#45;&gt;Node2</title>
<path fill="none" stroke="#9a32cd" stroke-dasharray="5,2" d="M489.902,-78.6039C529.646,-80.3436 577.199,-82.5782 620,-85 628.401,-85.4754 637.182,-86.009 645.927,-86.5641"/>
<polygon fill="#9a32cd" stroke="#9a32cd" points="489.852,-75.0985 479.709,-78.1611 489.548,-82.0919 489.852,-75.0985"/>
<text text-anchor="middle" x="559" y="-88" font-family="Helvetica,sans-Serif" font-size="10.00"> myEnvironment</text>
</g>
<!-- Node4&#45;&gt;Node20 -->
<g id="edge23" class="edge"><title>Node4&#45;&gt;Node20</title>
<path fill="none" stroke="#9a32cd" stroke-dasharray="5,2" d="M449.103,-87.1426C504.032,-101.78 591.01,-126.579 620,-144 662.704,-169.663 701.27,-216.231 716.779,-236.333"/>
<polygon fill="#9a32cd" stroke="#9a32cd" points="449.803,-83.7076 439.241,-84.5319 448.012,-90.4745 449.803,-83.7076"/>
<text text-anchor="middle" x="559" y="-147" font-family="Helvetica,sans-Serif" font-size="10.00"> myExecutionParameters</text>
</g>
<!-- Node5 -->
<g id="node5" class="node"><title>Node5</title>
<polygon fill="white" stroke="#bfbfbf" points="51.5,-0.5 51.5,-19.5 122.5,-19.5 122.5,-0.5 51.5,-0.5"/>
<text text-anchor="middle" x="87" y="-7.5" font-family="Helvetica,sans-Serif" font-size="10.00">Observable</text>
</g>
<!-- Node5&#45;&gt;Node4 -->
<g id="edge4" class="edge"><title>Node5&#45;&gt;Node4</title>
<path fill="none" stroke="midnightblue" d="M132.884,-18.5447C176.626,-26.9643 244.983,-40.3661 304,-53 322.225,-56.9014 342.334,-61.4689 359.419,-65.428"/>
<polygon fill="midnightblue" stroke="midnightblue" points="133.336,-15.0677 122.855,-16.6188 132.016,-21.9421 133.336,-15.0677"/>
</g>
<!-- Node6 -->
<g id="node6" class="node"><title>Node6</title>
<polygon fill="white" stroke="#bfbfbf" points="0,-77 0,-107 174,-107 174,-77 0,-77"/>
<text text-anchor="start" x="8" y="-95" font-family="Helvetica,sans-Serif" font-size="10.00">Map&lt; String, model.instructions.</text>
<text text-anchor="middle" x="87" y="-84" font-family="Helvetica,sans-Serif" font-size="10.00">Instruction &gt;</text>
</g>
<!-- Node6&#45;&gt;Node4 -->
<g id="edge5" class="edge"><title>Node6&#45;&gt;Node4</title>
<path fill="none" stroke="#9a32cd" stroke-dasharray="5,2" d="M184.305,-86.7526C228.685,-84.3345 280.655,-81.5028 322.461,-79.2249"/>
<polygon fill="#9a32cd" stroke="#9a32cd" points="183.876,-83.2707 174.081,-87.3097 184.257,-90.2603 183.876,-83.2707"/>
<text text-anchor="middle" x="248" y="-90" font-family="Helvetica,sans-Serif" font-size="10.00"> myUserInstructionMap</text>
</g>
<!-- Node7 -->
<g id="node7" class="node"><title>Node7</title>
<polygon fill="white" stroke="#bfbfbf" points="23,-38.5 23,-57.5 151,-57.5 151,-38.5 23,-38.5"/>
<text text-anchor="middle" x="87" y="-45.5" font-family="Helvetica,sans-Serif" font-size="10.00">Map&lt; String, Double &gt;</text>
</g>
<!-- Node7&#45;&gt;Node4 -->
<g id="edge6" class="edge"><title>Node7&#45;&gt;Node4</title>
<path fill="none" stroke="#9a32cd" stroke-dasharray="5,2" d="M161.434,-53.9301C203.232,-57.3529 256.559,-61.7996 304,-66 310.003,-66.5315 316.216,-67.0915 322.461,-67.6614"/>
<polygon fill="#9a32cd" stroke="#9a32cd" points="161.592,-50.4314 151.34,-53.105 161.021,-57.4081 161.592,-50.4314"/>
<text text-anchor="middle" x="248" y="-69" font-family="Helvetica,sans-Serif" font-size="10.00"> myVariableMap</text>
</g>
<!-- Node8 -->
<g id="node8" class="node"><title>Node8</title>
<polygon fill="white" stroke="#bfbfbf" points="333,-16 333,-46 469,-46 469,-16 333,-16"/>
<text text-anchor="start" x="341" y="-34" font-family="Helvetica,sans-Serif" font-size="10.00">List&lt; model.instructions.</text>
<text text-anchor="middle" x="401" y="-23" font-family="Helvetica,sans-Serif" font-size="10.00">Instruction &gt;</text>
</g>
<!-- Node8&#45;&gt;Node2 -->
<g id="edge7" class="edge"><title>Node8&#45;&gt;Node2</title>
<path fill="none" stroke="#9a32cd" stroke-dasharray="5,2" d="M479.221,-41.1381C521.066,-47.11 573.568,-55.3767 620,-65 643.746,-69.9214 670.194,-76.8071 690.476,-82.393"/>
<polygon fill="#9a32cd" stroke="#9a32cd" points="479.489,-37.6413 469.097,-39.7083 478.51,-44.5725 479.489,-37.6413"/>
<text text-anchor="middle" x="559" y="-68" font-family="Helvetica,sans-Serif" font-size="10.00"> myDependencies</text>
</g>
<!-- Node9&#45;&gt;Node2 -->
<g id="edge8" class="edge"><title>Node9&#45;&gt;Node2</title>
<path fill="none" stroke="#9a32cd" stroke-dasharray="5,2" d="M416.278,-277.425C433.674,-257.02 464.87,-223.547 498,-203 546.985,-172.62 568.331,-184.549 620,-159 654.655,-141.864 691.992,-115.702 711.107,-101.678"/>
<polygon fill="#9a32cd" stroke="#9a32cd" points="413.428,-275.376 409.701,-285.294 418.8,-279.865 413.428,-275.376"/>
<text text-anchor="middle" x="559" y="-206" font-family="Helvetica,sans-Serif" font-size="10.00"> myView</text>
</g>
<!-- Node9&#45;&gt;Node20 -->
<g id="edge25" class="edge"><title>Node9&#45;&gt;Node20</title>
<path fill="none" stroke="#9a32cd" stroke-dasharray="5,2" d="M456.631,-294.267C501.249,-292.535 565.595,-287.438 620,-273 628.462,-270.754 629.684,-267.736 638,-265 652.961,-260.078 669.804,-256.041 684.594,-252.974"/>
<polygon fill="#9a32cd" stroke="#9a32cd" points="456.451,-290.771 446.578,-294.613 456.692,-297.766 456.451,-290.771"/>
<text text-anchor="middle" x="559" y="-295" font-family="Helvetica,sans-Serif" font-size="10.00"> mySLogoView</text>
</g>
<!-- Node10 -->
<g id="node10" class="node"><title>Node10</title>
<g id="a_node10"><a xlink:href="../../da/d64/classview_1_1_workspace.html" target="_top" xlink:title="view.Workspace">
<polygon fill="white" stroke="black" points="1208,-475.5 1208,-494.5 1298,-494.5 1298,-475.5 1208,-475.5"/>
<text text-anchor="middle" x="1253" y="-482.5" font-family="Helvetica,sans-Serif" font-size="10.00">view.Workspace</text>
</a>
</g>
</g>
<!-- Node10&#45;&gt;Node9 -->
<g id="edge10" class="edge"><title>Node10&#45;&gt;Node9</title>
<path fill="none" stroke="#9a32cd" stroke-dasharray="5,2" d="M1197.7,-484.133C1167.71,-483.697 1129.8,-483.217 1096,-483 1031.11,-482.584 1014.74,-478.564 950,-483 811.401,-492.496 771.194,-541.484 638,-502 523.568,-468.078 432.211,-340.706 408.193,-304.596"/>
<polygon fill="#9a32cd" stroke="#9a32cd" points="1197.91,-487.636 1207.96,-484.285 1198.01,-480.637 1197.91,-487.636"/>
<text text-anchor="middle" x="881" y="-505" font-family="Helvetica,sans-Serif" font-size="10.00"> myWorkspace</text>
</g>
<!-- Node33 -->
<g id="node33" class="node"><title>Node33</title>
<g id="a_node33"><a xlink:href="../../de/d0a/classview_1_1_drawer.html" target="_top" xlink:title="view.Drawer">
<polygon fill="white" stroke="black" points="1404.5,-475.5 1404.5,-494.5 1477.5,-494.5 1477.5,-475.5 1404.5,-475.5"/>
<text text-anchor="middle" x="1441" y="-482.5" font-family="Helvetica,sans-Serif" font-size="10.00">view.Drawer</text>
</a>
</g>
</g>
<!-- Node10&#45;&gt;Node33 -->
<g id="edge41" class="edge"><title>Node10&#45;&gt;Node33</title>
<path fill="none" stroke="#9a32cd" stroke-dasharray="5,2" d="M1308.28,-485C1339.23,-485 1377.14,-485 1404.33,-485"/>
<polygon fill="#9a32cd" stroke="#9a32cd" points="1308.08,-481.5 1298.08,-485 1308.08,-488.5 1308.08,-481.5"/>
<text text-anchor="middle" x="1351" y="-488" font-family="Helvetica,sans-Serif" font-size="10.00"> myWorkspace</text>
</g>
<!-- Node11 -->
<g id="node11" class="node"><title>Node11</title>
<polygon fill="white" stroke="#bfbfbf" points="989.5,-541.5 989.5,-560.5 1056.5,-560.5 1056.5,-541.5 989.5,-541.5"/>
<text text-anchor="middle" x="1023" y="-548.5" font-family="Helvetica,sans-Serif" font-size="10.00">StackPane</text>
</g>
<!-- Node11&#45;&gt;Node10 -->
<g id="edge11" class="edge"><title>Node11&#45;&gt;Node10</title>
<path fill="none" stroke="midnightblue" d="M1066.64,-543.183C1100.52,-536.448 1148.88,-525.66 1190,-512 1204.6,-507.151 1220.49,-500.195 1232.53,-494.557"/>
<polygon fill="midnightblue" stroke="midnightblue" points="1065.76,-539.79 1056.61,-545.142 1067.1,-546.66 1065.76,-539.79"/>
</g>
<!-- Node12 -->
<g id="node12" class="node"><title>Node12</title>
<g id="a_node12"><a xlink:href="../../d8/df7/classview_1_1_turtle_view.html" target="_top" xlink:title="view.TurtleView">
<polygon fill="white" stroke="black" points="980,-579.5 980,-598.5 1066,-598.5 1066,-579.5 980,-579.5"/>
<text text-anchor="middle" x="1023" y="-586.5" font-family="Helvetica,sans-Serif" font-size="10.00">view.TurtleView</text>
</a>
</g>
</g>
<!-- Node12&#45;&gt;Node10 -->
<g id="edge12" class="edge"><title>Node12&#45;&gt;Node10</title>
<path fill="none" stroke="#9a32cd" stroke-dasharray="5,2" d="M1076.39,-578.224C1110.27,-569.852 1154.5,-556.217 1190,-536 1210.35,-524.412 1230.69,-506.069 1242.27,-494.828"/>
<polygon fill="#9a32cd" stroke="#9a32cd" points="1075.14,-574.924 1066.23,-580.654 1076.77,-581.732 1075.14,-574.924"/>
<text text-anchor="middle" x="1152" y="-570" font-family="Helvetica,sans-Serif" font-size="10.00"> myActiveTurtle</text>
</g>
<!-- Node13 -->
<g id="node13" class="node"><title>Node13</title>
<polygon fill="white" stroke="#bfbfbf" points="691,-587.5 691,-606.5 759,-606.5 759,-587.5 691,-587.5"/>
<text text-anchor="middle" x="725" y="-594.5" font-family="Helvetica,sans-Serif" font-size="10.00">ImageView</text>
</g>
<!-- Node13&#45;&gt;Node12 -->
<g id="edge13" class="edge"><title>Node13&#45;&gt;Node12</title>
<path fill="none" stroke="midnightblue" d="M769.113,-595.835C825.479,-594.311 923.605,-591.659 979.611,-590.146"/>
<polygon fill="midnightblue" stroke="midnightblue" points="768.995,-592.337 759.093,-596.106 769.184,-599.334 768.995,-592.337"/>
</g>
<!-- Node14 -->
<g id="node14" class="node"><title>Node14</title>
<polygon fill="white" stroke="#bfbfbf" points="955,-492 955,-522 1091,-522 1091,-492 955,-492"/>
<text text-anchor="start" x="963" y="-510" font-family="Helvetica,sans-Serif" font-size="10.00">Map&lt; Integer, view.Turtle</text>
<text text-anchor="middle" x="1023" y="-499" font-family="Helvetica,sans-Serif" font-size="10.00">View &gt;</text>
</g>
<!-- Node14&#45;&gt;Node10 -->
<g id="edge14" class="edge"><title>Node14&#45;&gt;Node10</title>
<path fill="none" stroke="#9a32cd" stroke-dasharray="5,2" d="M1101.52,-499.52C1137.03,-496.094 1177.82,-492.158 1207.96,-489.249"/>
<polygon fill="#9a32cd" stroke="#9a32cd" points="1100.79,-496.074 1091.17,-500.518 1101.46,-503.042 1100.79,-496.074"/>
<text text-anchor="middle" x="1152" y="-500" font-family="Helvetica,sans-Serif" font-size="10.00"> myTurtles</text>
</g>
<!-- Node15 -->
<g id="node15" class="node"><title>Node15</title>
<g id="a_node15"><a xlink:href="../../d1/dc7/classview_1_1_side_bar.html" target="_top" xlink:title="view.SideBar">
<polygon fill="white" stroke="black" points="984.5,-373.5 984.5,-392.5 1061.5,-392.5 1061.5,-373.5 984.5,-373.5"/>
<text text-anchor="middle" x="1023" y="-380.5" font-family="Helvetica,sans-Serif" font-size="10.00">view.SideBar</text>
</a>
</g>
</g>
<!-- Node15&#45;&gt;Node9 -->
<g id="edge43" class="edge"><title>Node15&#45;&gt;Node9</title>
<path fill="none" stroke="#9a32cd" stroke-dasharray="5,2" d="M974.25,-388.038C960.618,-389.261 945.737,-390.391 932,-391 886.711,-393.009 875.311,-392.415 830,-391 744.542,-388.332 721.758,-396.169 638,-379 555.561,-362.101 462.914,-322.757 422.59,-304.554"/>
<polygon fill="#9a32cd" stroke="#9a32cd" points="974.759,-391.506 984.391,-387.092 974.109,-384.536 974.759,-391.506"/>
<text text-anchor="middle" x="725" y="-393" font-family="Helvetica,sans-Serif" font-size="10.00"> mySidebar</text>
</g>
<!-- Node15&#45;&gt;Node10 -->
<g id="edge15" class="edge"><title>Node15&#45;&gt;Node10</title>
<path fill="none" stroke="#9a32cd" stroke-dasharray="5,2" d="M1072.23,-380.789C1107.11,-381.285 1154.19,-386.43 1190,-407 1218.5,-423.371 1238.85,-458.407 1247.44,-475.384"/>
<polygon fill="#9a32cd" stroke="#9a32cd" points="1071.83,-377.288 1061.83,-380.772 1071.82,-384.288 1071.83,-377.288"/>
<text text-anchor="middle" x="1152" y="-410" font-family="Helvetica,sans-Serif" font-size="10.00"> mySidebar</text>
</g>
<!-- Node27 -->
<g id="node27" class="node"><title>Node27</title>
<g id="a_node27"><a xlink:href="../../da/dc8/classview_1_1_editor.html" target="_top" xlink:title="view.Editor">
<polygon fill="white" stroke="black" points="1219.5,-263.5 1219.5,-282.5 1286.5,-282.5 1286.5,-263.5 1219.5,-263.5"/>
<text text-anchor="middle" x="1253" y="-270.5" font-family="Helvetica,sans-Serif" font-size="10.00">view.Editor</text>
</a>
</g>
</g>
<!-- Node15&#45;&gt;Node27 -->
<g id="edge36" class="edge"><title>Node15&#45;&gt;Node27</title>
<path fill="none" stroke="#9a32cd" stroke-dasharray="5,2" d="M1071.41,-374.095C1105.94,-366.233 1152.96,-352.597 1190,-331 1212.41,-317.934 1233.31,-295.42 1244.19,-282.624"/>
<polygon fill="#9a32cd" stroke="#9a32cd" points="1070.58,-370.693 1061.57,-376.257 1072.09,-377.53 1070.58,-370.693"/>
<text text-anchor="middle" x="1152" y="-366" font-family="Helvetica,sans-Serif" font-size="10.00"> mySidebar</text>
</g>
<!-- Node16 -->
<g id="node16" class="node"><title>Node16</title>
<polygon fill="white" stroke="#bfbfbf" points="704.5,-435.5 704.5,-454.5 745.5,-454.5 745.5,-435.5 704.5,-435.5"/>
<text text-anchor="middle" x="725" y="-442.5" font-family="Helvetica,sans-Serif" font-size="10.00">VBox</text>
</g>
<!-- Node16&#45;&gt;Node15 -->
<g id="edge16" class="edge"><title>Node16&#45;&gt;Node15</title>
<path fill="none" stroke="midnightblue" d="M755.751,-444.758C796.624,-443.585 871.911,-438.379 932,-417 940.833,-413.857 941.474,-409.899 950,-406 961.457,-400.761 974.446,-396.217 986.207,-392.584"/>
<polygon fill="midnightblue" stroke="midnightblue" points="755.572,-441.261 745.654,-444.985 755.73,-448.26 755.572,-441.261"/>
</g>
<!-- Node17 -->
<g id="node17" class="node"><title>Node17</title>
<polygon fill="white" stroke="#bfbfbf" points="638.5,-350.5 638.5,-369.5 811.5,-369.5 811.5,-350.5 638.5,-350.5"/>
<text text-anchor="middle" x="725" y="-357.5" font-family="Helvetica,sans-Serif" font-size="10.00">ObservableList&lt; view.Property &gt;</text>
</g>
<!-- Node17&#45;&gt;Node15 -->
<g id="edge17" class="edge"><title>Node17&#45;&gt;Node15</title>
<path fill="none" stroke="#9a32cd" stroke-dasharray="5,2" d="M821.818,-367.445C877.2,-371.749 943.763,-376.921 984.462,-380.083"/>
<polygon fill="#9a32cd" stroke="#9a32cd" points="821.857,-363.938 811.615,-366.653 821.314,-370.917 821.857,-363.938"/>
<text text-anchor="middle" x="881" y="-379" font-family="Helvetica,sans-Serif" font-size="10.00"> variablesList</text>
</g>
<!-- Node18 -->
<g id="node18" class="node"><title>Node18</title>
<polygon fill="white" stroke="#bfbfbf" points="40.5,-436.5 40.5,-455.5 133.5,-455.5 133.5,-436.5 40.5,-436.5"/>
<text text-anchor="middle" x="87" y="-443.5" font-family="Helvetica,sans-Serif" font-size="10.00">ResourceBundle</text>
</g>
<!-- Node18&#45;&gt;Node9 -->
<g id="edge30" class="edge"><title>Node18&#45;&gt;Node9</title>
<path fill="none" stroke="#9a32cd" stroke-dasharray="5,2" d="M127.405,-433.199C171.59,-418.193 244.807,-391.349 304,-360 335.839,-343.138 370.088,-318.078 387.811,-304.528"/>
<polygon fill="#9a32cd" stroke="#9a32cd" points="126.259,-429.892 117.896,-436.398 128.49,-436.527 126.259,-429.892"/>
<text text-anchor="middle" x="248" y="-412" font-family="Helvetica,sans-Serif" font-size="10.00"> myResources</text>
</g>
<!-- Node18&#45;&gt;Node15 -->
<g id="edge18" class="edge"><title>Node18&#45;&gt;Node15</title>
<path fill="none" stroke="#9a32cd" stroke-dasharray="5,2" d="M109.71,-461.675C149.452,-489.291 237.596,-545.62 322,-566 535.492,-617.55 596.834,-546.043 812,-502 865.462,-491.057 892.68,-513.841 932,-476 955.146,-453.725 927.948,-429.358 950,-406 959.008,-396.458 971.965,-390.861 984.411,-387.584"/>
<polygon fill="#9a32cd" stroke="#9a32cd" points="111.52,-458.669 101.328,-455.775 107.491,-464.393 111.52,-458.669"/>
<text text-anchor="middle" x="559" y="-584" font-family="Helvetica,sans-Serif" font-size="10.00"> myResources</text>
</g>
<!-- Node19 -->
<g id="node19" class="node"><title>Node19</title>
<polygon fill="white" stroke="#bfbfbf" points="651,-312.5 651,-331.5 799,-331.5 799,-312.5 651,-312.5"/>
<text text-anchor="middle" x="725" y="-319.5" font-family="Helvetica,sans-Serif" font-size="10.00">TableView&lt; view.Property &gt;</text>
</g>
<!-- Node19&#45;&gt;Node15 -->
<g id="edge19" class="edge"><title>Node19&#45;&gt;Node15</title>
<path fill="none" stroke="#9a32cd" stroke-dasharray="5,2" d="M809.445,-324.506C847.348,-327.168 892.454,-332.484 932,-343 958.604,-350.075 987.342,-364.072 1005.01,-373.486"/>
<polygon fill="#9a32cd" stroke="#9a32cd" points="809.673,-321.014 799.466,-323.855 809.216,-327.999 809.673,-321.014"/>
<text text-anchor="middle" x="881" y="-357" font-family="Helvetica,sans-Serif" font-size="10.00"> turtlePropertiesTable</text>
<text text-anchor="middle" x="881" y="-346" font-family="Helvetica,sans-Serif" font-size="10.00">variablesTable</text>
</g>
<!-- Node20&#45;&gt;Node9 -->
<g id="edge38" class="edge"><title>Node20&#45;&gt;Node9</title>
<path fill="none" stroke="#9a32cd" stroke-dasharray="5,2" d="M674.721,-245.005C628.571,-245.022 557.926,-247.494 498,-260 471.257,-265.581 441.949,-277.113 422.84,-285.417"/>
<polygon fill="#9a32cd" stroke="#9a32cd" points="674.744,-248.505 684.756,-245.04 674.769,-241.505 674.744,-248.505"/>
<text text-anchor="middle" x="559" y="-263" font-family="Helvetica,sans-Serif" font-size="10.00"> myParser</text>
</g>
<!-- Node20&#45;&gt;Node15 -->
<g id="edge20" class="edge"><title>Node20&#45;&gt;Node15</title>
<path fill="none" stroke="#9a32cd" stroke-dasharray="5,2" d="M775.648,-242.612C828.985,-240.076 909.179,-239.812 932,-259 958.238,-281.061 930.52,-305.793 950,-334 962.373,-351.916 983.607,-365.18 999.82,-373.357"/>
<polygon fill="#9a32cd" stroke="#9a32cd" points="775.169,-239.132 765.364,-243.144 775.531,-246.122 775.169,-239.132"/>
<text text-anchor="middle" x="881" y="-262" font-family="Helvetica,sans-Serif" font-size="10.00"> myParser</text>
</g>
<!-- Node20&#45;&gt;Node27 -->
<g id="edge34" class="edge"><title>Node20&#45;&gt;Node27</title>
<path fill="none" stroke="#9a32cd" stroke-dasharray="5,2" d="M775.829,-241.386C792.981,-240.005 812.317,-238.679 830,-238 875.3,-236.26 895.224,-211.493 932,-238 952.523,-252.792 929.477,-277.208 950,-292 1002.64,-329.941 1031.13,-293.724 1096,-292 1137.82,-290.888 1148.56,-292.739 1190,-287 1199.62,-285.668 1209.95,-283.597 1219.37,-281.453"/>
<polygon fill="#9a32cd" stroke="#9a32cd" points="775.142,-237.931 765.467,-242.247 775.722,-244.907 775.142,-237.931"/>
<text text-anchor="middle" x="1023" y="-313" font-family="Helvetica,sans-Serif" font-size="10.00"> myParser</text>
</g>
<!-- Node21 -->
<g id="node21" class="node"><title>Node21</title>
<polygon fill="white" stroke="#bfbfbf" points="345,-527 345,-557 457,-557 457,-527 345,-527"/>
<text text-anchor="start" x="353" y="-545" font-family="Helvetica,sans-Serif" font-size="10.00">List&lt; Entry&lt; String,</text>
<text text-anchor="middle" x="401" y="-534" font-family="Helvetica,sans-Serif" font-size="10.00"> Pattern &gt; &gt;</text>
</g>
<!-- Node21&#45;&gt;Node20 -->
<g id="edge22" class="edge"><title>Node21&#45;&gt;Node20</title>
<path fill="none" stroke="#9a32cd" stroke-dasharray="5,2" d="M460.532,-523.365C511.523,-503.876 582.935,-468.046 620,-411 655.621,-356.176 594.011,-313.369 638,-265 649.728,-252.104 668.065,-246.926 684.799,-245.149"/>
<polygon fill="#9a32cd" stroke="#9a32cd" points="459.095,-520.165 450.942,-526.931 461.535,-526.727 459.095,-520.165"/>
<text text-anchor="middle" x="559" y="-509" font-family="Helvetica,sans-Serif" font-size="10.00"> myPatterns</text>
</g>
<!-- Node22 -->
<g id="node22" class="node"><title>Node22</title>
<polygon fill="white" stroke="#bfbfbf" points="340,-429.5 340,-448.5 462,-448.5 462,-429.5 340,-429.5"/>
<text text-anchor="middle" x="401" y="-436.5" font-family="Helvetica,sans-Serif" font-size="10.00">Map&lt; String, String &gt;</text>
</g>
<!-- Node22&#45;&gt;Node20 -->
<g id="edge24" class="edge"><title>Node22&#45;&gt;Node20</title>
<path fill="none" stroke="#9a32cd" stroke-dasharray="5,2" d="M437.608,-425.596C485.047,-406.113 568.916,-365.762 620,-307 633.324,-291.673 622.359,-277.953 638,-265 650.954,-254.272 668.654,-249.255 684.63,-247.023"/>
<polygon fill="#9a32cd" stroke="#9a32cd" points="436.034,-422.457 428.063,-429.436 438.647,-428.951 436.034,-422.457"/>
<text text-anchor="middle" x="559" y="-399" font-family="Helvetica,sans-Serif" font-size="10.00"> myCommandMap</text>
</g>
<!-- Node23 -->
<g id="node23" class="node"><title>Node23</title>
<polygon fill="white" stroke="#bfbfbf" points="656,-274.5 656,-293.5 794,-293.5 794,-274.5 656,-274.5"/>
<text text-anchor="middle" x="725" y="-281.5" font-family="Helvetica,sans-Serif" font-size="10.00">ObservableList&lt; String &gt;</text>
</g>
<!-- Node23&#45;&gt;Node15 -->
<g id="edge26" class="edge"><title>Node23&#45;&gt;Node15</title>
<path fill="none" stroke="#9a32cd" stroke-dasharray="5,2" d="M798.367,-273.799C840.551,-271.582 892.96,-275.595 932,-301 946.003,-310.112 938.781,-321.621 950,-334 965.231,-350.805 987.332,-364.74 1003.02,-373.398"/>
<polygon fill="#9a32cd" stroke="#9a32cd" points="797.904,-270.321 788.154,-274.466 798.361,-277.306 797.904,-270.321"/>
<text text-anchor="middle" x="881" y="-315" font-family="Helvetica,sans-Serif" font-size="10.00"> commandItems</text>
<text text-anchor="middle" x="881" y="-304" font-family="Helvetica,sans-Serif" font-size="10.00">historyItems</text>
</g>
<!-- Node24 -->
<g id="node24" class="node"><title>Node24</title>
<polygon fill="white" stroke="#bfbfbf" points="672,-473.5 672,-492.5 778,-492.5 778,-473.5 672,-473.5"/>
<text text-anchor="middle" x="725" y="-480.5" font-family="Helvetica,sans-Serif" font-size="10.00">ListView&lt; String &gt;</text>
</g>
<!-- Node24&#45;&gt;Node15 -->
<g id="edge27" class="edge"><title>Node24&#45;&gt;Node15</title>
<path fill="none" stroke="#9a32cd" stroke-dasharray="5,2" d="M787.956,-471.714C846.472,-460.848 926.156,-445.428 932,-441 945.942,-430.435 936.649,-417.302 950,-406 959.715,-397.776 972.405,-392.482 984.42,-389.078"/>
<polygon fill="#9a32cd" stroke="#9a32cd" points="787.227,-468.289 778.031,-473.551 788.501,-475.172 787.227,-468.289"/>
<text text-anchor="middle" x="881" y="-466" font-family="Helvetica,sans-Serif" font-size="10.00"> historyList</text>
</g>
<!-- Node25 -->
<g id="node25" class="node"><title>Node25</title>
<polygon fill="white" stroke="#bfbfbf" points="991.5,-415.5 991.5,-434.5 1054.5,-434.5 1054.5,-415.5 991.5,-415.5"/>
<text text-anchor="middle" x="1023" y="-422.5" font-family="Helvetica,sans-Serif" font-size="10.00">Rectangle</text>
</g>
<!-- Node25&#45;&gt;Node10 -->
<g id="edge28" class="edge"><title>Node25&#45;&gt;Node10</title>
<path fill="none" stroke="#9a32cd" stroke-dasharray="5,2" d="M1064.98,-421.913C1099.46,-420.773 1149.47,-422.589 1190,-438 1211.46,-446.162 1231.76,-464.21 1242.98,-475.415"/>
<polygon fill="#9a32cd" stroke="#9a32cd" points="1064.64,-418.424 1054.8,-422.35 1064.94,-425.417 1064.64,-418.424"/>
<text text-anchor="middle" x="1152" y="-441" font-family="Helvetica,sans-Serif" font-size="10.00"> myBackground</text>
</g>
<!-- Node26 -->
<g id="node26" class="node"><title>Node26</title>
<polygon fill="white" stroke="#bfbfbf" points="64.5,-308.5 64.5,-327.5 109.5,-327.5 109.5,-308.5 64.5,-308.5"/>
<text text-anchor="middle" x="87" y="-315.5" font-family="Helvetica,sans-Serif" font-size="10.00">Stage</text>
</g>
<!-- Node26&#45;&gt;Node9 -->
<g id="edge29" class="edge"><title>Node26&#45;&gt;Node9</title>
<path fill="none" stroke="#9a32cd" stroke-dasharray="5,2" d="M119.977,-315.643C175.9,-311.52 291.57,-302.993 355.356,-298.291"/>
<polygon fill="#9a32cd" stroke="#9a32cd" points="119.655,-312.157 109.939,-316.383 120.17,-319.138 119.655,-312.157"/>
<text text-anchor="middle" x="248" y="-313" font-family="Helvetica,sans-Serif" font-size="10.00"> myStage</text>
</g>
<!-- Node27&#45;&gt;Node9 -->
<g id="edge31" class="edge"><title>Node27&#45;&gt;Node9</title>
<path fill="none" stroke="#9a32cd" stroke-dasharray="5,2" d="M1218.54,-259.141C1214.95,-257.479 1211.38,-255.749 1208,-254 1199.68,-249.686 1198.58,-246.773 1190,-243 1150.21,-225.509 1138.95,-222.714 1096,-216 964.572,-195.452 624.881,-203.04 498,-243 466.542,-252.907 433.498,-273.37 415.556,-285.462"/>
<polygon fill="#9a32cd" stroke="#9a32cd" points="1217.41,-262.469 1227.97,-263.347 1220.26,-256.076 1217.41,-262.469"/>
<text text-anchor="middle" x="881" y="-209" font-family="Helvetica,sans-Serif" font-size="10.00"> myEditor</text>
</g>
<!-- Node28 -->
<g id="node28" class="node"><title>Node28</title>
<polygon fill="white" stroke="#bfbfbf" points="1002,-263.5 1002,-282.5 1044,-282.5 1044,-263.5 1002,-263.5"/>
<text text-anchor="middle" x="1023" y="-270.5" font-family="Helvetica,sans-Serif" font-size="10.00">HBox</text>
</g>
<!-- Node28&#45;&gt;Node27 -->
<g id="edge32" class="edge"><title>Node28&#45;&gt;Node27</title>
<path fill="none" stroke="midnightblue" d="M1054.32,-273C1097.12,-273 1174.95,-273 1219.11,-273"/>
<polygon fill="midnightblue" stroke="midnightblue" points="1054.23,-269.5 1044.23,-273 1054.23,-276.5 1054.23,-269.5"/>
</g>
<!-- Node29 -->
<g id="node29" class="node"><title>Node29</title>
<polygon fill="white" stroke="#bfbfbf" points="998.5,-225.5 998.5,-244.5 1047.5,-244.5 1047.5,-225.5 998.5,-225.5"/>
<text text-anchor="middle" x="1023" y="-232.5" font-family="Helvetica,sans-Serif" font-size="10.00">Button</text>
</g>
<!-- Node29&#45;&gt;Node27 -->
<g id="edge33" class="edge"><title>Node29&#45;&gt;Node27</title>
<path fill="none" stroke="#9a32cd" stroke-dasharray="5,2" d="M1057.98,-238.703C1091.65,-242.608 1144.6,-249.386 1190,-258 1199.57,-259.817 1209.89,-262.157 1219.31,-264.446"/>
<polygon fill="#9a32cd" stroke="#9a32cd" points="1058.09,-235.194 1047.76,-237.538 1057.3,-242.148 1058.09,-235.194"/>
<text text-anchor="middle" x="1152" y="-261" font-family="Helvetica,sans-Serif" font-size="10.00"> runButton</text>
</g>
<!-- Node30 -->
<g id="node30" class="node"><title>Node30</title>
<polygon fill="white" stroke="#bfbfbf" points="994,-149.5 994,-168.5 1052,-168.5 1052,-149.5 994,-149.5"/>
<text text-anchor="middle" x="1023" y="-156.5" font-family="Helvetica,sans-Serif" font-size="10.00">TextArea</text>
</g>
<!-- Node30&#45;&gt;Node27 -->
<g id="edge35" class="edge"><title>Node30&#45;&gt;Node27</title>
<path fill="none" stroke="#9a32cd" stroke-dasharray="5,2" d="M1062.15,-150.242C1099.34,-144.126 1155.23,-141.72 1190,-172 1218.14,-196.503 1184.26,-225.214 1208,-254 1211.18,-257.852 1215.28,-260.941 1219.7,-263.415"/>
<polygon fill="#9a32cd" stroke="#9a32cd" points="1061.41,-146.819 1052.19,-152.041 1062.66,-153.708 1061.41,-146.819"/>
<text text-anchor="middle" x="1152" y="-175" font-family="Helvetica,sans-Serif" font-size="10.00"> textEditor</text>
</g>
<!-- Node31 -->
<g id="node31" class="node"><title>Node31</title>
<polygon fill="white" stroke="#bfbfbf" points="27.5,-270.5 27.5,-289.5 146.5,-289.5 146.5,-270.5 27.5,-270.5"/>
<text text-anchor="middle" x="87" y="-277.5" font-family="Helvetica,sans-Serif" font-size="10.00">Map&lt; String, Node &gt;</text>
</g>
<!-- Node31&#45;&gt;Node9 -->
<g id="edge37" class="edge"><title>Node31&#45;&gt;Node9</title>
<path fill="none" stroke="#9a32cd" stroke-dasharray="5,2" d="M156.95,-280.181C199.394,-280.644 254.892,-281.879 304,-285 320.723,-286.063 339.03,-287.821 355.131,-289.57"/>
<polygon fill="#9a32cd" stroke="#9a32cd" points="156.762,-276.679 146.728,-280.082 156.694,-283.679 156.762,-276.679"/>
<text text-anchor="middle" x="248" y="-288" font-family="Helvetica,sans-Serif" font-size="10.00"> variables</text>
</g>
<!-- Node32 -->
<g id="node32" class="node"><title>Node32</title>
<polygon fill="white" stroke="#bfbfbf" points="46.5,-232.5 46.5,-251.5 127.5,-251.5 127.5,-232.5 46.5,-232.5"/>
<text text-anchor="middle" x="87" y="-239.5" font-family="Helvetica,sans-Serif" font-size="10.00">Dimension2D</text>
</g>
<!-- Node32&#45;&gt;Node9 -->
<g id="edge39" class="edge"><title>Node32&#45;&gt;Node9</title>
<path fill="none" stroke="#9a32cd" stroke-dasharray="5,2" d="M137.91,-244.949C181.95,-248.166 247.708,-254.471 304,-266 327.708,-270.856 353.973,-278.988 373.029,-285.407"/>
<polygon fill="#9a32cd" stroke="#9a32cd" points="137.974,-241.445 127.753,-244.234 137.483,-248.427 137.974,-241.445"/>
<text text-anchor="middle" x="248" y="-269" font-family="Helvetica,sans-Serif" font-size="10.00"> myDimensions</text>
</g>
<!-- Node33&#45;&gt;Node9 -->
<g id="edge40" class="edge"><title>Node33&#45;&gt;Node9</title>
<path fill="none" stroke="#9a32cd" stroke-dasharray="5,2" d="M1429.09,-503.412C1403.8,-543.476 1336.95,-635 1254,-635 880,-635 880,-635 880,-635 772.113,-635 719.266,-686.96 638,-616 609.567,-591.173 642.766,-563.108 620,-533 582.945,-483.994 538.512,-514.189 498,-468 482.976,-450.871 490.081,-440.433 480,-420 457.704,-374.809 423.533,-325.147 408.967,-304.657"/>
<polygon fill="#9a32cd" stroke="#9a32cd" points="1432.1,-505.194 1434.36,-494.842 1426.14,-501.528 1432.1,-505.194"/>
<text text-anchor="middle" x="1023" y="-638" font-family="Helvetica,sans-Serif" font-size="10.00"> drawer</text>
</g>
<!-- Node34 -->
<g id="node34" class="node"><title>Node34</title>
<polygon fill="white" stroke="#bfbfbf" points="1232.5,-225.5 1232.5,-244.5 1273.5,-244.5 1273.5,-225.5 1232.5,-225.5"/>
<text text-anchor="middle" x="1253" y="-232.5" font-family="Helvetica,sans-Serif" font-size="10.00">Color</text>
</g>
<!-- Node34&#45;&gt;Node33 -->
<g id="edge42" class="edge"><title>Node34&#45;&gt;Node33</title>
<path fill="none" stroke="#9a32cd" stroke-dasharray="5,2" d="M1283.24,-244.615C1288.5,-247.152 1293.68,-250.255 1298,-254 1375.23,-320.868 1423.56,-440.352 1436.49,-475.206"/>
<polygon fill="#9a32cd" stroke="#9a32cd" points="1284.43,-241.318 1273.86,-240.645 1281.7,-247.764 1284.43,-241.318"/>
<text text-anchor="middle" x="1351" y="-367" font-family="Helvetica,sans-Serif" font-size="10.00"> myColor</text>
</g>
<!-- Node35 -->
<g id="node35" class="node"><title>Node35</title>
<polygon fill="white" stroke="#bfbfbf" points="64,-346.5 64,-365.5 110,-365.5 110,-346.5 64,-346.5"/>
<text text-anchor="middle" x="87" y="-353.5" font-family="Helvetica,sans-Serif" font-size="10.00">Group</text>
</g>
<!-- Node35&#45;&gt;Node9 -->
<g id="edge44" class="edge"><title>Node35&#45;&gt;Node9</title>
<path fill="none" stroke="#9a32cd" stroke-dasharray="5,2" d="M120.327,-352.995C162.821,-348.673 239.623,-339.58 304,-325 327.842,-319.6 354.318,-311.134 373.416,-304.571"/>
<polygon fill="#9a32cd" stroke="#9a32cd" points="119.897,-349.52 110.292,-353.991 120.588,-356.486 119.897,-349.52"/>
<text text-anchor="middle" x="248" y="-348" font-family="Helvetica,sans-Serif" font-size="10.00"> lines</text>
</g>
</g>
</svg>
