<?xml version="1.0" encoding="UTF-8" standalone="no"?>
<!DOCTYPE svg PUBLIC "-//W3C//DTD SVG 1.1//EN"
 "http://www.w3.org/Graphics/SVG/1.1/DTD/svg11.dtd">
<!-- Generated by graphviz version 2.36.0 (20140111.2315)
 -->
<!-- Title: view.ViewUpdater Pages: 1 -->
<!--zoomable 768 -->
<svg id="main" version="1.1" xmlns="http://www.w3.org/2000/svg" xmlns:xlink="http://www.w3.org/1999/xlink" xml:space="preserve" onload="init(evt)">
<style type="text/css"><![CDATA[
.edge:hover path { stroke: red; }
.edge:hover polygon { stroke: red; fill: red; }
]]></style>
<script type="text/javascript"><![CDATA[
var edges = document.getElementsByTagName('g');
if (edges && edges.length) {
  for (var i=0;i<edges.length;i++) {
    if (edges[i].id.substr(0,4)=='edge') {
      edges[i].setAttribute('class','edge');
    }
  }
}
]]></script>
        <defs>
                <circle id="rim" cx="0" cy="0" r="7"/>
                <circle id="rim2" cx="0" cy="0" r="3.5"/>
                <g id="zoomPlus">
                        <use xlink:href="#rim" fill="#404040">
                                <set attributeName="fill" to="#808080" begin="zoomplus.mouseover" end="zoomplus.mouseout"/>
                        </use>
                        <path d="M-4,0h8M0,-4v8" fill="none" stroke="white" stroke-width="1.5" pointer-events="none"/>
                </g>
                <g id="zoomMin">
                        <use xlink:href="#rim" fill="#404040">
                                <set attributeName="fill" to="#808080" begin="zoomminus.mouseover" end="zoomminus.mouseout"/>
                        </use>
                        <path d="M-4,0h8" fill="none" stroke="white" stroke-width="1.5" pointer-events="none"/>
                </g>
                <g id="dirArrow">
                        <path fill="none" stroke="white" stroke-width="1.5" d="M0,-3.0v7 M-2.5,-0.5L0,-3.0L2.5,-0.5"/>
                </g>
               <g id="resetDef">
                       <use xlink:href="#rim2" fill="#404040">
                               <set attributeName="fill" to="#808080" begin="reset.mouseover" end="reset.mouseout"/>
                       </use>
               </g>
        </defs>

<script type="text/javascript">
var viewWidth = 1682;
var viewHeight = 768;
var sectionId = 'dynsection-0';
</script>
<script xlink:href="../../svgpan.js"/>
<svg id="graph" class="graph">
<g id="viewport">
<title>view.ViewUpdater</title>
<polygon fill="white" stroke="none" points="-4,4 -4,-763.767 1678,-763.767 1678,4 -4,4"/>
<!-- Node1 -->
<g id="node1" class="node"><title>Node1</title>
<polygon fill="#bfbfbf" stroke="black" points="881,-378.267 881,-397.267 981,-397.267 981,-378.267 881,-378.267"/>
<text text-anchor="middle" x="931" y="-385.267" font-family="Helvetica,sans-Serif" font-size="10.00">view.ViewUpdater</text>
</g>
<!-- Node2 -->
<g id="node2" class="node"><title>Node2</title>
<g id="a_node2"><a xlink:href="../../d6/de7/classview_1_1_s_logo_view.html" target="_top" xlink:title="view.SLogoView">
<polygon fill="white" stroke="black" points="611.5,-301.267 611.5,-320.267 702.5,-320.267 702.5,-301.267 611.5,-301.267"/>
<text text-anchor="middle" x="657" y="-308.267" font-family="Helvetica,sans-Serif" font-size="10.00">view.SLogoView</text>
</a>
</g>
</g>
<!-- Node2&#45;&gt;Node1 -->
<g id="edge1" class="edge"><title>Node2&#45;&gt;Node1</title>
<path fill="none" stroke="#9a32cd" stroke-dasharray="5,2" d="M696.102,-323.69C733.506,-336.129 792.307,-355.024 844,-368.767 856.708,-372.146 870.584,-375.399 883.408,-378.229"/>
<polygon fill="#9a32cd" stroke="#9a32cd" points="696.737,-320.212 686.143,-320.363 694.519,-326.851 696.737,-320.212"/>
<text text-anchor="middle" x="781" y="-366.767" font-family="Helvetica,sans-Serif" font-size="10.00"> myView</text>
</g>
<!-- Node20 -->
<g id="node20" class="node"><title>Node20</title>
<g id="a_node20"><a xlink:href="../../dc/df5/classmodel_1_1_parser.html" target="_top" xlink:title="model.Parser">
<polygon fill="white" stroke="black" points="891,-65.2672 891,-84.2672 971,-84.2672 971,-65.2672 891,-65.2672"/>
<text text-anchor="middle" x="931" y="-72.2672" font-family="Helvetica,sans-Serif" font-size="10.00">model.Parser</text>
</a>
</g>
</g>
<!-- Node2&#45;&gt;Node20 -->
<g id="edge25" class="edge"><title>Node2&#45;&gt;Node20</title>
<path fill="none" stroke="#9a32cd" stroke-dasharray="5,2" d="M678.082,-294.966C693.24,-283.725 714.956,-269.03 736,-259.767 773.787,-243.135 798.618,-267.665 826,-236.767 867.024,-190.476 803.487,-145.505 844,-98.7672 855.575,-85.4142 873.895,-79.1945 890.657,-76.4028"/>
<polygon fill="#9a32cd" stroke="#9a32cd" points="675.823,-292.287 669.971,-301.119 680.053,-297.864 675.823,-292.287"/>
<text text-anchor="middle" x="781" y="-262.767" font-family="Helvetica,sans-Serif" font-size="10.00"> mySLogoView</text>
</g>
<!-- Node3 -->
<g id="node3" class="node"><title>Node3</title>
<polygon fill="white" stroke="#bfbfbf" points="371,-205.267 371,-224.267 431,-224.267 431,-205.267 371,-205.267"/>
<text text-anchor="middle" x="401" y="-212.267" font-family="Helvetica,sans-Serif" font-size="10.00">Observer</text>
</g>
<!-- Node3&#45;&gt;Node2 -->
<g id="edge2" class="edge"><title>Node3&#45;&gt;Node2</title>
<path fill="none" stroke="midnightblue" d="M436.734,-227.895C488.624,-247.507 585.156,-283.992 630.819,-301.25"/>
<polygon fill="midnightblue" stroke="midnightblue" points="437.875,-224.585 427.283,-224.323 435.4,-231.132 437.875,-224.585"/>
</g>
<!-- Node3&#45;&gt;Node20 -->
<g id="edge21" class="edge"><title>Node3&#45;&gt;Node20</title>
<path fill="none" stroke="midnightblue" d="M440.963,-206.459C539.125,-185.378 791.254,-130.242 826,-112.767 835.054,-108.213 834.948,-103.326 844,-98.7672 858.536,-91.4454 875.616,-86.0923 890.707,-82.3247"/>
<polygon fill="midnightblue" stroke="midnightblue" points="440.18,-203.047 431.136,-208.566 441.648,-209.892 440.18,-203.047"/>
</g>
<!-- Node4 -->
<g id="node4" class="node"><title>Node4</title>
<g id="a_node4"><a xlink:href="../../da/d64/classview_1_1_workspace.html" target="_top" xlink:title="view.Workspace">
<polygon fill="white" stroke="black" points="1404,-576.267 1404,-595.267 1494,-595.267 1494,-576.267 1404,-576.267"/>
<text text-anchor="middle" x="1449" y="-583.267" font-family="Helvetica,sans-Serif" font-size="10.00">view.Workspace</text>
</a>
</g>
</g>
<!-- Node4&#45;&gt;Node2 -->
<g id="edge3" class="edge"><title>Node4&#45;&gt;Node2</title>
<path fill="none" stroke="#9a32cd" stroke-dasharray="5,2" d="M1432.74,-568.707C1421.14,-556.891 1404.13,-541.88 1386,-533.767 1119.57,-414.541 979.309,-601.022 736,-439.767 691.279,-410.128 668.164,-345.236 660.729,-320.558"/>
<polygon fill="#9a32cd" stroke="#9a32cd" points="1430.45,-571.378 1439.86,-576.253 1435.55,-566.576 1430.45,-571.378"/>
<text text-anchor="middle" x="1087" y="-507.767" font-family="Helvetica,sans-Serif" font-size="10.00"> myWorkspace</text>
</g>
<!-- Node32 -->
<g id="node32" class="node"><title>Node32</title>
<g id="a_node32"><a xlink:href="../../de/d0a/classview_1_1_drawer.html" target="_top" xlink:title="view.Drawer">
<polygon fill="white" stroke="black" points="1600.5,-416.267 1600.5,-435.267 1673.5,-435.267 1673.5,-416.267 1600.5,-416.267"/>
<text text-anchor="middle" x="1637" y="-423.267" font-family="Helvetica,sans-Serif" font-size="10.00">view.Drawer</text>
</a>
</g>
</g>
<!-- Node4&#45;&gt;Node32 -->
<g id="edge41" class="edge"><title>Node4&#45;&gt;Node32</title>
<path fill="none" stroke="#9a32cd" stroke-dasharray="5,2" d="M1468.95,-569.466C1507.47,-536.334 1593.85,-462.027 1624.74,-435.449"/>
<polygon fill="#9a32cd" stroke="#9a32cd" points="1466.38,-567.063 1461.08,-576.238 1470.94,-572.37 1466.38,-567.063"/>
<text text-anchor="middle" x="1547" y="-531.767" font-family="Helvetica,sans-Serif" font-size="10.00"> myWorkspace</text>
</g>
<!-- Node5 -->
<g id="node5" class="node"><title>Node5</title>
<polygon fill="white" stroke="#bfbfbf" points="1190.5,-740.267 1190.5,-759.267 1257.5,-759.267 1257.5,-740.267 1190.5,-740.267"/>
<text text-anchor="middle" x="1224" y="-747.267" font-family="Helvetica,sans-Serif" font-size="10.00">StackPane</text>
</g>
<!-- Node5&#45;&gt;Node4 -->
<g id="edge4" class="edge"><title>Node5&#45;&gt;Node4</title>
<path fill="none" stroke="midnightblue" d="M1267.95,-749.732C1303.14,-747.578 1352.42,-739.441 1386,-712.767 1425.19,-681.635 1441.29,-619.474 1446.22,-595.505"/>
<polygon fill="midnightblue" stroke="midnightblue" points="1267.35,-746.257 1257.52,-750.223 1267.67,-753.249 1267.35,-746.257"/>
</g>
<!-- Node6 -->
<g id="node6" class="node"><title>Node6</title>
<polygon fill="white" stroke="#bfbfbf" points="354.5,-492.267 354.5,-511.267 447.5,-511.267 447.5,-492.267 354.5,-492.267"/>
<text text-anchor="middle" x="401" y="-499.267" font-family="Helvetica,sans-Serif" font-size="10.00">ResourceBundle</text>
</g>
<!-- Node6&#45;&gt;Node2 -->
<g id="edge29" class="edge"><title>Node6&#45;&gt;Node2</title>
<path fill="none" stroke="#9a32cd" stroke-dasharray="5,2" d="M423.251,-485.787C474.18,-447.49 602.014,-351.363 643.081,-320.482"/>
<polygon fill="#9a32cd" stroke="#9a32cd" points="420.834,-483.225 414.945,-492.033 425.041,-488.82 420.834,-483.225"/>
<text text-anchor="middle" x="538" y="-432.767" font-family="Helvetica,sans-Serif" font-size="10.00"> myResources</text>
</g>
<!-- Node6&#45;&gt;Node4 -->
<g id="edge5" class="edge"><title>Node6&#45;&gt;Node4</title>
<path fill="none" stroke="#9a32cd" stroke-dasharray="5,2" d="M443.53,-514.014C493.486,-527.641 580.114,-547.767 656,-547.767 656,-547.767 656,-547.767 1225,-547.767 1292.55,-547.767 1370,-564.921 1413.55,-576.178"/>
<polygon fill="#9a32cd" stroke="#9a32cd" points="444.314,-510.599 433.743,-511.298 442.443,-517.344 444.314,-510.599"/>
<text text-anchor="middle" x="931" y="-550.767" font-family="Helvetica,sans-Serif" font-size="10.00"> myResources</text>
</g>
<!-- Node11 -->
<g id="node11" class="node"><title>Node11</title>
<g id="a_node11"><a xlink:href="../../d1/dc7/classview_1_1_side_bar.html" target="_top" xlink:title="view.SideBar">
<polygon fill="white" stroke="black" points="1185.5,-238.267 1185.5,-257.267 1262.5,-257.267 1262.5,-238.267 1185.5,-238.267"/>
<text text-anchor="middle" x="1224" y="-245.267" font-family="Helvetica,sans-Serif" font-size="10.00">view.SideBar</text>
</a>
</g>
</g>
<!-- Node6&#45;&gt;Node11 -->
<g id="edge13" class="edge"><title>Node6&#45;&gt;Node11</title>
<path fill="none" stroke="#9a32cd" stroke-dasharray="5,2" d="M457.897,-507.582C589.66,-518.288 924.645,-527.666 1138,-375.767 1182.33,-344.206 1209.99,-281.664 1219.39,-257.559"/>
<polygon fill="#9a32cd" stroke="#9a32cd" points="457.905,-504.07 447.645,-506.712 457.314,-511.045 457.905,-504.07"/>
<text text-anchor="middle" x="781" y="-508.767" font-family="Helvetica,sans-Serif" font-size="10.00"> myResources</text>
</g>
<!-- Node7 -->
<g id="node7" class="node"><title>Node7</title>
<g id="a_node7"><a xlink:href="../../d8/df7/classview_1_1_turtle_view.html" target="_top" xlink:title="view.TurtleView">
<polygon fill="white" stroke="black" points="1181,-702.267 1181,-721.267 1267,-721.267 1267,-702.267 1181,-702.267"/>
<text text-anchor="middle" x="1224" y="-709.267" font-family="Helvetica,sans-Serif" font-size="10.00">view.TurtleView</text>
</a>
</g>
</g>
<!-- Node7&#45;&gt;Node4 -->
<g id="edge6" class="edge"><title>Node7&#45;&gt;Node4</title>
<path fill="none" stroke="#9a32cd" stroke-dasharray="5,2" d="M1277.13,-705.834C1310.53,-700.047 1353.55,-688.734 1386,-666.767 1413.86,-647.907 1434.52,-612.424 1443.32,-595.382"/>
<polygon fill="#9a32cd" stroke="#9a32cd" points="1276.41,-702.405 1267.1,-707.458 1277.53,-709.315 1276.41,-702.405"/>
<text text-anchor="middle" x="1348" y="-700.767" font-family="Helvetica,sans-Serif" font-size="10.00"> myActiveTurtle</text>
</g>
<!-- Node8 -->
<g id="node8" class="node"><title>Node8</title>
<polygon fill="white" stroke="#bfbfbf" points="897,-702.267 897,-721.267 965,-721.267 965,-702.267 897,-702.267"/>
<text text-anchor="middle" x="931" y="-709.267" font-family="Helvetica,sans-Serif" font-size="10.00">ImageView</text>
</g>
<!-- Node8&#45;&gt;Node7 -->
<g id="edge7" class="edge"><title>Node8&#45;&gt;Node7</title>
<path fill="none" stroke="midnightblue" d="M975.27,-711.767C1030.55,-711.767 1125.64,-711.767 1180.53,-711.767"/>
<polygon fill="midnightblue" stroke="midnightblue" points="975.098,-708.267 965.098,-711.767 975.098,-715.267 975.098,-708.267"/>
</g>
<!-- Node9 -->
<g id="node9" class="node"><title>Node9</title>
<polygon fill="white" stroke="#bfbfbf" points="1156,-652.767 1156,-682.767 1292,-682.767 1292,-652.767 1156,-652.767"/>
<text text-anchor="start" x="1164" y="-670.767" font-family="Helvetica,sans-Serif" font-size="10.00">Map&lt; Integer, view.Turtle</text>
<text text-anchor="middle" x="1224" y="-659.767" font-family="Helvetica,sans-Serif" font-size="10.00">View &gt;</text>
</g>
<!-- Node9&#45;&gt;Node4 -->
<g id="edge8" class="edge"><title>Node9&#45;&gt;Node4</title>
<path fill="none" stroke="#9a32cd" stroke-dasharray="5,2" d="M1302.03,-654.413C1329.26,-648.2 1359.64,-639.52 1386,-627.767 1405,-619.295 1424.47,-605.007 1436.4,-595.482"/>
<polygon fill="#9a32cd" stroke="#9a32cd" points="1301.17,-651.019 1292.16,-656.591 1302.67,-657.855 1301.17,-651.019"/>
<text text-anchor="middle" x="1348" y="-654.767" font-family="Helvetica,sans-Serif" font-size="10.00"> myTurtles</text>
</g>
<!-- Node10 -->
<g id="node10" class="node"><title>Node10</title>
<polygon fill="white" stroke="#bfbfbf" points="1201,-614.267 1201,-633.267 1247,-633.267 1247,-614.267 1201,-614.267"/>
<text text-anchor="middle" x="1224" y="-621.267" font-family="Helvetica,sans-Serif" font-size="10.00">Group</text>
</g>
<!-- Node10&#45;&gt;Node4 -->
<g id="edge9" class="edge"><title>Node10&#45;&gt;Node4</title>
<path fill="none" stroke="#9a32cd" stroke-dasharray="5,2" d="M1257.55,-620.043C1290.18,-616.093 1341.78,-609.255 1386,-600.767 1394.16,-599.202 1402.86,-597.266 1411.08,-595.311"/>
<polygon fill="#9a32cd" stroke="#9a32cd" points="1256.76,-616.612 1247.25,-621.27 1257.59,-623.563 1256.76,-616.612"/>
<text text-anchor="middle" x="1348" y="-615.767" font-family="Helvetica,sans-Serif" font-size="10.00"> myLines</text>
</g>
<!-- Node11&#45;&gt;Node2 -->
<g id="edge43" class="edge"><title>Node11&#45;&gt;Node2</title>
<path fill="none" stroke="#9a32cd" stroke-dasharray="5,2" d="M1197.07,-261.943C1180.65,-270.18 1158.69,-279.873 1138,-284.767 981.462,-321.805 788.535,-317.809 702.757,-313.573"/>
<polygon fill="#9a32cd" stroke="#9a32cd" points="1198.77,-265.006 1206.05,-257.308 1195.56,-258.787 1198.77,-265.006"/>
<text text-anchor="middle" x="931" y="-319.767" font-family="Helvetica,sans-Serif" font-size="10.00"> mySidebar</text>
</g>
<!-- Node11&#45;&gt;Node4 -->
<g id="edge10" class="edge"><title>Node11&#45;&gt;Node4</title>
<path fill="none" stroke="#9a32cd" stroke-dasharray="5,2" d="M1238.43,-265.759C1266.8,-304.027 1334.46,-396.638 1386,-477.767 1408.49,-513.171 1432.5,-556.938 1442.81,-576.061"/>
<polygon fill="#9a32cd" stroke="#9a32cd" points="1241.16,-263.575 1232.39,-257.637 1235.55,-267.751 1241.16,-263.575"/>
<text text-anchor="middle" x="1348" y="-480.767" font-family="Helvetica,sans-Serif" font-size="10.00"> mySidebar</text>
</g>
<!-- Node26 -->
<g id="node26" class="node"><title>Node26</title>
<g id="a_node26"><a xlink:href="../../da/dc8/classview_1_1_editor.html" target="_top" xlink:title="view.Editor">
<polygon fill="white" stroke="black" points="1415.5,-84.2672 1415.5,-103.267 1482.5,-103.267 1482.5,-84.2672 1415.5,-84.2672"/>
<text text-anchor="middle" x="1449" y="-91.2672" font-family="Helvetica,sans-Serif" font-size="10.00">view.Editor</text>
</a>
</g>
</g>
<!-- Node11&#45;&gt;Node26 -->
<g id="edge35" class="edge"><title>Node11&#45;&gt;Node26</title>
<path fill="none" stroke="#9a32cd" stroke-dasharray="5,2" d="M1256.47,-233.891C1290.23,-218.228 1344.57,-190.723 1386,-158.767 1407.98,-141.813 1429.37,-117.011 1440.36,-103.471"/>
<polygon fill="#9a32cd" stroke="#9a32cd" points="1254.74,-230.832 1247.11,-238.176 1257.66,-237.197 1254.74,-230.832"/>
<text text-anchor="middle" x="1348" y="-208.767" font-family="Helvetica,sans-Serif" font-size="10.00"> mySidebar</text>
</g>
<!-- Node12 -->
<g id="node12" class="node"><title>Node12</title>
<polygon fill="white" stroke="#bfbfbf" points="910.5,-179.267 910.5,-198.267 951.5,-198.267 951.5,-179.267 910.5,-179.267"/>
<text text-anchor="middle" x="931" y="-186.267" font-family="Helvetica,sans-Serif" font-size="10.00">VBox</text>
</g>
<!-- Node12&#45;&gt;Node11 -->
<g id="edge11" class="edge"><title>Node12&#45;&gt;Node11</title>
<path fill="none" stroke="midnightblue" d="M961.697,-191.929C1001.98,-196.547 1076.03,-206.204 1138,-220.767 1157.9,-225.443 1179.87,-232.476 1196.5,-238.191"/>
<polygon fill="midnightblue" stroke="midnightblue" points="961.831,-188.422 951.504,-190.786 961.051,-195.379 961.831,-188.422"/>
</g>
<!-- Node13 -->
<g id="node13" class="node"><title>Node13</title>
<polygon fill="white" stroke="#bfbfbf" points="844.5,-141.267 844.5,-160.267 1017.5,-160.267 1017.5,-141.267 844.5,-141.267"/>
<text text-anchor="middle" x="931" y="-148.267" font-family="Helvetica,sans-Serif" font-size="10.00">ObservableList&lt; view.Property &gt;</text>
</g>
<!-- Node13&#45;&gt;Node11 -->
<g id="edge12" class="edge"><title>Node13&#45;&gt;Node11</title>
<path fill="none" stroke="#9a32cd" stroke-dasharray="5,2" d="M1027.49,-159.096C1063.16,-164.464 1103.38,-173.284 1138,-187.767 1167.83,-200.245 1197.5,-224.608 1212.65,-238.135"/>
<polygon fill="#9a32cd" stroke="#9a32cd" points="1027.96,-155.627 1017.56,-157.672 1026.97,-162.556 1027.96,-155.627"/>
<text text-anchor="middle" x="1087" y="-190.767" font-family="Helvetica,sans-Serif" font-size="10.00"> variablesList</text>
</g>
<!-- Node14 -->
<g id="node14" class="node"><title>Node14</title>
<g id="a_node14"><a xlink:href="../../d1/dca/classmodel_1_1_execution_environment.html" target="_top" xlink:title="model.ExecutionEnvironment">
<polygon fill="white" stroke="black" points="322.5,-148.267 322.5,-167.267 479.5,-167.267 479.5,-148.267 322.5,-148.267"/>
<text text-anchor="middle" x="401" y="-155.267" font-family="Helvetica,sans-Serif" font-size="10.00">model.ExecutionEnvironment</text>
</a>
</g>
</g>
<!-- Node14&#45;&gt;Node2 -->
<g id="edge37" class="edge"><title>Node14&#45;&gt;Node2</title>
<path fill="none" stroke="#9a32cd" stroke-dasharray="5,2" d="M440.381,-170.709C477.382,-184.149 534.073,-207.324 578,-236.767 606.53,-255.89 634.343,-285.752 647.731,-301.037"/>
<polygon fill="#9a32cd" stroke="#9a32cd" points="441.551,-167.411 430.956,-167.342 439.196,-174.003 441.551,-167.411"/>
<text text-anchor="middle" x="538" y="-239.767" font-family="Helvetica,sans-Serif" font-size="10.00"> myEnvironment</text>
</g>
<!-- Node14&#45;&gt;Node11 -->
<g id="edge14" class="edge"><title>Node14&#45;&gt;Node11</title>
<path fill="none" stroke="#9a32cd" stroke-dasharray="5,2" d="M476.686,-168.739C544.303,-178.455 646.694,-192.629 736,-202.767 903.257,-221.754 1103.52,-238.321 1185.37,-244.829"/>
<polygon fill="#9a32cd" stroke="#9a32cd" points="476.951,-165.241 466.554,-167.279 475.953,-172.169 476.951,-165.241"/>
<text text-anchor="middle" x="781" y="-215.767" font-family="Helvetica,sans-Serif" font-size="10.00"> myEnvironment</text>
</g>
<!-- Node14&#45;&gt;Node20 -->
<g id="edge23" class="edge"><title>Node14&#45;&gt;Node20</title>
<path fill="none" stroke="#9a32cd" stroke-dasharray="5,2" d="M474.162,-146.705C558.559,-133.728 702.463,-111.478 826,-91.7672 847.499,-88.3368 871.483,-84.4222 890.996,-81.2148"/>
<polygon fill="#9a32cd" stroke="#9a32cd" points="473.522,-143.263 464.17,-148.241 474.586,-150.181 473.522,-143.263"/>
<text text-anchor="middle" x="657" y="-130.767" font-family="Helvetica,sans-Serif" font-size="10.00"> myExecutionParameters</text>
</g>
<!-- Node15 -->
<g id="node15" class="node"><title>Node15</title>
<polygon fill="white" stroke="#bfbfbf" points="51.5,-208.267 51.5,-227.267 122.5,-227.267 122.5,-208.267 51.5,-208.267"/>
<text text-anchor="middle" x="87" y="-215.267" font-family="Helvetica,sans-Serif" font-size="10.00">Observable</text>
</g>
<!-- Node15&#45;&gt;Node14 -->
<g id="edge15" class="edge"><title>Node15&#45;&gt;Node14</title>
<path fill="none" stroke="midnightblue" d="M132.717,-217.918C176.879,-217.118 246.026,-213.304 304,-198.767 332.478,-191.626 363.357,-177.105 382.194,-167.403"/>
<polygon fill="midnightblue" stroke="midnightblue" points="132.548,-214.42 122.596,-218.056 132.643,-221.419 132.548,-214.42"/>
</g>
<!-- Node16 -->
<g id="node16" class="node"><title>Node16</title>
<polygon fill="white" stroke="#bfbfbf" points="42.5,-170.267 42.5,-189.267 131.5,-189.267 131.5,-170.267 42.5,-170.267"/>
<text text-anchor="middle" x="87" y="-177.267" font-family="Helvetica,sans-Serif" font-size="10.00">Set&lt; Integer &gt;</text>
</g>
<!-- Node16&#45;&gt;Node14 -->
<g id="edge16" class="edge"><title>Node16&#45;&gt;Node14</title>
<path fill="none" stroke="#9a32cd" stroke-dasharray="5,2" d="M141.939,-175.964C191.701,-172.455 266.155,-167.205 322.32,-163.245"/>
<polygon fill="#9a32cd" stroke="#9a32cd" points="141.44,-172.49 131.711,-176.685 141.932,-179.473 141.44,-172.49"/>
<text text-anchor="middle" x="248" y="-186.767" font-family="Helvetica,sans-Serif" font-size="10.00"> myTurtleList</text>
<text text-anchor="middle" x="248" y="-175.767" font-family="Helvetica,sans-Serif" font-size="10.00">activeTurtleList</text>
</g>
<!-- Node17 -->
<g id="node17" class="node"><title>Node17</title>
<polygon fill="white" stroke="#bfbfbf" points="0,-120.767 0,-150.767 174,-150.767 174,-120.767 0,-120.767"/>
<text text-anchor="start" x="8" y="-138.767" font-family="Helvetica,sans-Serif" font-size="10.00">Map&lt; String, model.instructions.</text>
<text text-anchor="middle" x="87" y="-127.767" font-family="Helvetica,sans-Serif" font-size="10.00">Instruction &gt;</text>
</g>
<!-- Node17&#45;&gt;Node14 -->
<g id="edge17" class="edge"><title>Node17&#45;&gt;Node14</title>
<path fill="none" stroke="#9a32cd" stroke-dasharray="5,2" d="M184.559,-142.401C221.877,-144.984 264.929,-147.986 304,-150.767 310.001,-151.194 316.212,-151.64 322.456,-152.09"/>
<polygon fill="#9a32cd" stroke="#9a32cd" points="184.411,-138.883 174.193,-141.684 183.928,-145.866 184.411,-138.883"/>
<text text-anchor="middle" x="248" y="-153.767" font-family="Helvetica,sans-Serif" font-size="10.00"> myUserInstructionMap</text>
</g>
<!-- Node18 -->
<g id="node18" class="node"><title>Node18</title>
<polygon fill="white" stroke="#bfbfbf" points="23,-82.2672 23,-101.267 151,-101.267 151,-82.2672 23,-82.2672"/>
<text text-anchor="middle" x="87" y="-89.2672" font-family="Helvetica,sans-Serif" font-size="10.00">Map&lt; String, Double &gt;</text>
</g>
<!-- Node18&#45;&gt;Node14 -->
<g id="edge18" class="edge"><title>Node18&#45;&gt;Node14</title>
<path fill="none" stroke="#9a32cd" stroke-dasharray="5,2" d="M161.414,-102.035C203.421,-108.484 256.961,-117.678 304,-128.767 327.047,-134.2 352.7,-142.045 371.686,-148.206"/>
<polygon fill="#9a32cd" stroke="#9a32cd" points="161.68,-98.5351 151.268,-100.496 160.63,-105.456 161.68,-98.5351"/>
<text text-anchor="middle" x="248" y="-131.767" font-family="Helvetica,sans-Serif" font-size="10.00"> myVariableMap</text>
</g>
<!-- Node19 -->
<g id="node19" class="node"><title>Node19</title>
<polygon fill="white" stroke="#bfbfbf" points="857,-340.267 857,-359.267 1005,-359.267 1005,-340.267 857,-340.267"/>
<text text-anchor="middle" x="931" y="-347.267" font-family="Helvetica,sans-Serif" font-size="10.00">TableView&lt; view.Property &gt;</text>
</g>
<!-- Node19&#45;&gt;Node11 -->
<g id="edge19" class="edge"><title>Node19&#45;&gt;Node11</title>
<path fill="none" stroke="#9a32cd" stroke-dasharray="5,2" d="M1015.67,-351.072C1054.39,-348.849 1100.1,-342.078 1138,-324.767 1172.41,-309.051 1202.57,-274.249 1215.83,-257.348"/>
<polygon fill="#9a32cd" stroke="#9a32cd" points="1015.29,-347.586 1005.47,-351.563 1015.63,-354.578 1015.29,-347.586"/>
<text text-anchor="middle" x="1087" y="-363.767" font-family="Helvetica,sans-Serif" font-size="10.00"> turtlePropertiesTable</text>
<text text-anchor="middle" x="1087" y="-352.767" font-family="Helvetica,sans-Serif" font-size="10.00">variablesTable</text>
</g>
<!-- Node20&#45;&gt;Node2 -->
<g id="edge38" class="edge"><title>Node20&#45;&gt;Node2</title>
<path fill="none" stroke="#9a32cd" stroke-dasharray="5,2" d="M881.146,-79.2762C867.571,-82.7553 853.864,-88.699 844,-98.7672 821.519,-121.713 848.731,-146.07 826,-168.767 796.785,-197.939 769.592,-167.766 736,-191.767 695.4,-220.776 670.308,-278.097 661.528,-300.989"/>
<polygon fill="#9a32cd" stroke="#9a32cd" points="881.917,-82.6904 890.951,-77.1548 880.437,-75.8488 881.917,-82.6904"/>
<text text-anchor="middle" x="781" y="-194.767" font-family="Helvetica,sans-Serif" font-size="10.00"> myParser</text>
</g>
<!-- Node20&#45;&gt;Node11 -->
<g id="edge20" class="edge"><title>Node20&#45;&gt;Node11</title>
<path fill="none" stroke="#9a32cd" stroke-dasharray="5,2" d="M957.823,-89.2982C978.439,-100.374 1008.35,-115.288 1036,-124.767 1079.87,-139.808 1098.7,-122.149 1138,-146.767 1149,-153.658 1147.77,-159.73 1156,-169.767 1176.38,-194.614 1201.22,-223.082 1214.18,-237.795"/>
<polygon fill="#9a32cd" stroke="#9a32cd" points="959.228,-86.078 948.773,-84.3617 955.876,-92.2232 959.228,-86.078"/>
<text text-anchor="middle" x="1087" y="-149.767" font-family="Helvetica,sans-Serif" font-size="10.00"> myParser</text>
</g>
<!-- Node20&#45;&gt;Node26 -->
<g id="edge33" class="edge"><title>Node20&#45;&gt;Node26</title>
<path fill="none" stroke="#9a32cd" stroke-dasharray="5,2" d="M962.296,-61.0502C1024.3,-34.7406 1170.09,18.0924 1292,-6.76716 1336.49,-15.839 1346.72,-23.9917 1386,-46.7672 1405.16,-57.8791 1425.22,-74.0427 1437.16,-84.2252"/>
<polygon fill="#9a32cd" stroke="#9a32cd" points="960.53,-58.0003 952.739,-65.1797 963.307,-64.4262 960.53,-58.0003"/>
<text text-anchor="middle" x="1224" y="-9.76716" font-family="Helvetica,sans-Serif" font-size="10.00"> myParser</text>
</g>
<!-- Node21 -->
<g id="node21" class="node"><title>Node21</title>
<polygon fill="white" stroke="#bfbfbf" points="601,-61.7672 601,-91.7672 713,-91.7672 713,-61.7672 601,-61.7672"/>
<text text-anchor="start" x="609" y="-79.7672" font-family="Helvetica,sans-Serif" font-size="10.00">List&lt; Entry&lt; String,</text>
<text text-anchor="middle" x="657" y="-68.7672" font-family="Helvetica,sans-Serif" font-size="10.00"> Pattern &gt; &gt;</text>
</g>
<!-- Node21&#45;&gt;Node20 -->
<g id="edge22" class="edge"><title>Node21&#45;&gt;Node20</title>
<path fill="none" stroke="#9a32cd" stroke-dasharray="5,2" d="M723.225,-76.2876C775.493,-75.9032 847.096,-75.3768 890.866,-75.0549"/>
<polygon fill="#9a32cd" stroke="#9a32cd" points="723.017,-72.7889 713.043,-76.3624 723.069,-79.7887 723.017,-72.7889"/>
<text text-anchor="middle" x="781" y="-79.7672" font-family="Helvetica,sans-Serif" font-size="10.00"> myPatterns</text>
</g>
<!-- Node22 -->
<g id="node22" class="node"><title>Node22</title>
<polygon fill="white" stroke="#bfbfbf" points="596,-23.2672 596,-42.2672 718,-42.2672 718,-23.2672 596,-23.2672"/>
<text text-anchor="middle" x="657" y="-30.2672" font-family="Helvetica,sans-Serif" font-size="10.00">Map&lt; String, String &gt;</text>
</g>
<!-- Node22&#45;&gt;Node20 -->
<g id="edge24" class="edge"><title>Node22&#45;&gt;Node20</title>
<path fill="none" stroke="#9a32cd" stroke-dasharray="5,2" d="M728.133,-43.5965C779.837,-51.5802 848.285,-62.1494 890.712,-68.7007"/>
<polygon fill="#9a32cd" stroke="#9a32cd" points="728.445,-40.1033 718.028,-42.0362 727.377,-47.0214 728.445,-40.1033"/>
<text text-anchor="middle" x="781" y="-60.7672" font-family="Helvetica,sans-Serif" font-size="10.00"> myCommandMap</text>
</g>
<!-- Node23 -->
<g id="node23" class="node"><title>Node23</title>
<polygon fill="white" stroke="#bfbfbf" points="862,-255.267 862,-274.267 1000,-274.267 1000,-255.267 862,-255.267"/>
<text text-anchor="middle" x="931" y="-262.267" font-family="Helvetica,sans-Serif" font-size="10.00">ObservableList&lt; String &gt;</text>
</g>
<!-- Node23&#45;&gt;Node11 -->
<g id="edge26" class="edge"><title>Node23&#45;&gt;Node11</title>
<path fill="none" stroke="#9a32cd" stroke-dasharray="5,2" d="M1010.26,-260.195C1067.05,-256.878 1141.36,-252.536 1185.45,-249.961"/>
<polygon fill="#9a32cd" stroke="#9a32cd" points="1010.01,-256.704 1000.23,-260.781 1010.41,-263.692 1010.01,-256.704"/>
<text text-anchor="middle" x="1087" y="-272.767" font-family="Helvetica,sans-Serif" font-size="10.00"> commandItems</text>
<text text-anchor="middle" x="1087" y="-261.767" font-family="Helvetica,sans-Serif" font-size="10.00">historyItems</text>
</g>
<!-- Node24 -->
<g id="node24" class="node"><title>Node24</title>
<polygon fill="white" stroke="#bfbfbf" points="1192.5,-576.267 1192.5,-595.267 1255.5,-595.267 1255.5,-576.267 1192.5,-576.267"/>
<text text-anchor="middle" x="1224" y="-583.267" font-family="Helvetica,sans-Serif" font-size="10.00">Rectangle</text>
</g>
<!-- Node24&#45;&gt;Node4 -->
<g id="edge27" class="edge"><title>Node24&#45;&gt;Node4</title>
<path fill="none" stroke="#9a32cd" stroke-dasharray="5,2" d="M1265.99,-585.767C1305,-585.767 1363.53,-585.767 1403.62,-585.767"/>
<polygon fill="#9a32cd" stroke="#9a32cd" points="1265.54,-582.267 1255.54,-585.767 1265.54,-589.267 1265.54,-582.267"/>
<text text-anchor="middle" x="1348" y="-588.767" font-family="Helvetica,sans-Serif" font-size="10.00"> myBackground</text>
</g>
<!-- Node25 -->
<g id="node25" class="node"><title>Node25</title>
<polygon fill="white" stroke="#bfbfbf" points="378.5,-302.267 378.5,-321.267 423.5,-321.267 423.5,-302.267 378.5,-302.267"/>
<text text-anchor="middle" x="401" y="-309.267" font-family="Helvetica,sans-Serif" font-size="10.00">Stage</text>
</g>
<!-- Node25&#45;&gt;Node2 -->
<g id="edge28" class="edge"><title>Node25&#45;&gt;Node2</title>
<path fill="none" stroke="#9a32cd" stroke-dasharray="5,2" d="M433.658,-311.643C478.37,-311.466 560.235,-311.144 611.179,-310.944"/>
<polygon fill="#9a32cd" stroke="#9a32cd" points="433.642,-308.142 423.656,-311.682 433.67,-315.142 433.642,-308.142"/>
<text text-anchor="middle" x="538" y="-314.767" font-family="Helvetica,sans-Serif" font-size="10.00"> myStage</text>
</g>
<!-- Node26&#45;&gt;Node2 -->
<g id="edge30" class="edge"><title>Node26&#45;&gt;Node2</title>
<path fill="none" stroke="#9a32cd" stroke-dasharray="5,2" d="M1404.78,-97.4939C1398.48,-97.9668 1392.08,-98.4094 1386,-98.7672 1242.96,-107.188 871.524,-104.922 844,-131.767 799.405,-175.262 867.677,-224.469 826,-270.767 795.309,-304.861 741.295,-312.49 702.799,-313.109"/>
<polygon fill="#9a32cd" stroke="#9a32cd" points="1405.5,-100.948 1415.2,-96.6794 1404.96,-93.9697 1405.5,-100.948"/>
<text text-anchor="middle" x="1087" y="-112.767" font-family="Helvetica,sans-Serif" font-size="10.00"> myEditor</text>
</g>
<!-- Node27 -->
<g id="node27" class="node"><title>Node27</title>
<polygon fill="white" stroke="#bfbfbf" points="1203,-65.2672 1203,-84.2672 1245,-84.2672 1245,-65.2672 1203,-65.2672"/>
<text text-anchor="middle" x="1224" y="-72.2672" font-family="Helvetica,sans-Serif" font-size="10.00">HBox</text>
</g>
<!-- Node27&#45;&gt;Node26 -->
<g id="edge31" class="edge"><title>Node27&#45;&gt;Node26</title>
<path fill="none" stroke="midnightblue" d="M1255.3,-77.3485C1297.09,-80.909 1372.12,-87.302 1415.19,-90.9719"/>
<polygon fill="midnightblue" stroke="midnightblue" points="1255.44,-73.8485 1245.18,-76.4868 1254.85,-80.8232 1255.44,-73.8485"/>
</g>
<!-- Node28 -->
<g id="node28" class="node"><title>Node28</title>
<polygon fill="white" stroke="#bfbfbf" points="1199.5,-27.2672 1199.5,-46.2672 1248.5,-46.2672 1248.5,-27.2672 1199.5,-27.2672"/>
<text text-anchor="middle" x="1224" y="-34.2672" font-family="Helvetica,sans-Serif" font-size="10.00">Button</text>
</g>
<!-- Node28&#45;&gt;Node26 -->
<g id="edge32" class="edge"><title>Node28&#45;&gt;Node26</title>
<path fill="none" stroke="#9a32cd" stroke-dasharray="5,2" d="M1258.57,-41.1618C1291.48,-45.9519 1342.85,-54.7197 1386,-67.7672 1400.52,-72.1591 1416.29,-78.7952 1428.28,-84.2637"/>
<polygon fill="#9a32cd" stroke="#9a32cd" points="1258.95,-37.682 1248.56,-39.746 1257.97,-44.6129 1258.95,-37.682"/>
<text text-anchor="middle" x="1348" y="-70.7672" font-family="Helvetica,sans-Serif" font-size="10.00"> runButton</text>
</g>
<!-- Node29 -->
<g id="node29" class="node"><title>Node29</title>
<polygon fill="white" stroke="#bfbfbf" points="1195,-141.267 1195,-160.267 1253,-160.267 1253,-141.267 1195,-141.267"/>
<text text-anchor="middle" x="1224" y="-148.267" font-family="Helvetica,sans-Serif" font-size="10.00">TextArea</text>
</g>
<!-- Node29&#45;&gt;Node26 -->
<g id="edge34" class="edge"><title>Node29&#45;&gt;Node26</title>
<path fill="none" stroke="#9a32cd" stroke-dasharray="5,2" d="M1263.19,-148.743C1296.36,-146.127 1345.31,-140.184 1386,-126.767 1403.14,-121.115 1421.18,-110.969 1433.36,-103.414"/>
<polygon fill="#9a32cd" stroke="#9a32cd" points="1262.73,-145.267 1253.01,-149.48 1263.24,-152.248 1262.73,-145.267"/>
<text text-anchor="middle" x="1348" y="-146.767" font-family="Helvetica,sans-Serif" font-size="10.00"> textEditor</text>
</g>
<!-- Node30 -->
<g id="node30" class="node"><title>Node30</title>
<polygon fill="white" stroke="#bfbfbf" points="341.5,-264.267 341.5,-283.267 460.5,-283.267 460.5,-264.267 341.5,-264.267"/>
<text text-anchor="middle" x="401" y="-271.267" font-family="Helvetica,sans-Serif" font-size="10.00">Map&lt; String, Node &gt;</text>
</g>
<!-- Node30&#45;&gt;Node2 -->
<g id="edge36" class="edge"><title>Node30&#45;&gt;Node2</title>
<path fill="none" stroke="#9a32cd" stroke-dasharray="5,2" d="M471.067,-282.02C503.568,-286.102 542.828,-291.316 578,-296.767 588.741,-298.432 600.28,-300.402 611.103,-302.331"/>
<polygon fill="#9a32cd" stroke="#9a32cd" points="471.123,-278.5 460.766,-280.736 470.256,-285.446 471.123,-278.5"/>
<text text-anchor="middle" x="538" y="-299.767" font-family="Helvetica,sans-Serif" font-size="10.00"> variables</text>
</g>
<!-- Node31 -->
<g id="node31" class="node"><title>Node31</title>
<polygon fill="white" stroke="#bfbfbf" points="360.5,-340.267 360.5,-359.267 441.5,-359.267 441.5,-340.267 360.5,-340.267"/>
<text text-anchor="middle" x="401" y="-347.267" font-family="Helvetica,sans-Serif" font-size="10.00">Dimension2D</text>
</g>
<!-- Node31&#45;&gt;Node2 -->
<g id="edge39" class="edge"><title>Node31&#45;&gt;Node2</title>
<path fill="none" stroke="#9a32cd" stroke-dasharray="5,2" d="M451.674,-344.248C487.007,-340.085 535.541,-333.887 578,-326.767 589.179,-324.893 601.2,-322.577 612.375,-320.296"/>
<polygon fill="#9a32cd" stroke="#9a32cd" points="451.143,-340.786 441.615,-345.42 451.953,-347.739 451.143,-340.786"/>
<text text-anchor="middle" x="538" y="-341.767" font-family="Helvetica,sans-Serif" font-size="10.00"> myDimensions</text>
</g>
<!-- Node32&#45;&gt;Node2 -->
<g id="edge40" class="edge"><title>Node32&#45;&gt;Node2</title>
<path fill="none" stroke="#9a32cd" stroke-dasharray="5,2" d="M1590.2,-425.767C1552.55,-425.767 1497.82,-425.767 1450,-425.767 930,-425.767 930,-425.767 930,-425.767 841.284,-425.767 814.471,-420.154 736,-378.767 707.079,-363.514 679.857,-335.579 666.535,-320.704"/>
<polygon fill="#9a32cd" stroke="#9a32cd" points="1590.34,-429.267 1600.34,-425.767 1590.34,-422.267 1590.34,-429.267"/>
<text text-anchor="middle" x="1224" y="-428.767" font-family="Helvetica,sans-Serif" font-size="10.00"> drawer</text>
</g>
<!-- Node33 -->
<g id="node33" class="node"><title>Node33</title>
<polygon fill="white" stroke="#bfbfbf" points="1428.5,-378.267 1428.5,-397.267 1469.5,-397.267 1469.5,-378.267 1428.5,-378.267"/>
<text text-anchor="middle" x="1449" y="-385.267" font-family="Helvetica,sans-Serif" font-size="10.00">Color</text>
</g>
<!-- Node33&#45;&gt;Node32 -->
<g id="edge42" class="edge"><title>Node33&#45;&gt;Node32</title>
<path fill="none" stroke="#9a32cd" stroke-dasharray="5,2" d="M1479.61,-387.869C1506.71,-388.62 1547.67,-391.42 1582,-400.767 1594.96,-404.296 1608.68,-410.688 1619.05,-416.125"/>
<polygon fill="#9a32cd" stroke="#9a32cd" points="1479.67,-384.37 1469.6,-387.668 1479.53,-391.368 1479.67,-384.37"/>
<text text-anchor="middle" x="1547" y="-403.767" font-family="Helvetica,sans-Serif" font-size="10.00"> myColor</text>
</g>
</g>
</svg>
        <g id="navigator" transform="translate(0 0)" fill="#404254">
                <rect fill="#f2f5e9" fill-opacity="0.5" stroke="#606060" stroke-width=".5" x="0" y="0" width="60" height="60"/>
                <use id="zoomplus" xlink:href="#zoomPlus" x="17" y="9" onmousedown="handleZoom(evt,'in')"/>
                <use id="zoomminus" xlink:href="#zoomMin" x="42" y="9" onmousedown="handleZoom(evt,'out')"/>
                <use id="reset" xlink:href="#resetDef" x="30" y="36" onmousedown="handleReset()"/>
                <g id="arrowUp" xlink:href="#dirArrow" transform="translate(30 24)" onmousedown="handlePan(0,-1)">
                  <use xlink:href="#rim" fill="#404040">
                        <set attributeName="fill" to="#808080" begin="arrowUp.mouseover" end="arrowUp.mouseout"/>
                  </use>
                  <path fill="none" stroke="white" stroke-width="1.5" d="M0,-3.0v7 M-2.5,-0.5L0,-3.0L2.5,-0.5"/>
                </g>
                <g id="arrowRight" xlink:href="#dirArrow" transform="rotate(90) translate(36 -43)" onmousedown="handlePan(1,0)">
                  <use xlink:href="#rim" fill="#404040">
                        <set attributeName="fill" to="#808080" begin="arrowRight.mouseover" end="arrowRight.mouseout"/>
                  </use>
                  <path fill="none" stroke="white" stroke-width="1.5" d="M0,-3.0v7 M-2.5,-0.5L0,-3.0L2.5,-0.5"/>
                </g>
                <g id="arrowDown" xlink:href="#dirArrow" transform="rotate(180) translate(-30 -48)" onmousedown="handlePan(0,1)">
                  <use xlink:href="#rim" fill="#404040">
                        <set attributeName="fill" to="#808080" begin="arrowDown.mouseover" end="arrowDown.mouseout"/>
                  </use>
                  <path fill="none" stroke="white" stroke-width="1.5" d="M0,-3.0v7 M-2.5,-0.5L0,-3.0L2.5,-0.5"/>
                </g>
                <g id="arrowLeft" xlink:href="#dirArrow" transform="rotate(270) translate(-36 17)" onmousedown="handlePan(-1,0)">
                  <use xlink:href="#rim" fill="#404040">
                        <set attributeName="fill" to="#808080" begin="arrowLeft.mouseover" end="arrowLeft.mouseout"/>
                  </use>
                  <path fill="none" stroke="white" stroke-width="1.5" d="M0,-3.0v7 M-2.5,-0.5L0,-3.0L2.5,-0.5"/>
                </g>
        </g>
        <svg viewBox="0 0 15 15" width="100%" height="30px" preserveAspectRatio="xMaxYMin meet">
         <g id="arrow_out" transform="scale(0.3 0.3)">
          <a xlink:href="classview_1_1_view_updater__coll__graph_org.svg" target="_base">
           <rect id="button" ry="5" rx="5" y="6" x="6" height="38" width="38"
                fill="#f2f5e9" fill-opacity="0.5" stroke="#606060" stroke-width="1.0"/>
           <path id="arrow"
             d="M 11.500037,31.436501 C 11.940474,20.09759 22.043105,11.32322 32.158766,21.979434 L 37.068811,17.246167 C 37.068811,17.246167 37.088388,32 37.088388,32 L 22.160133,31.978069 C 22.160133,31.978069 26.997745,27.140456 26.997745,27.140456 C 18.528582,18.264221 13.291696,25.230495 11.500037,31.436501 z"
             style="fill:#404040;"/>
          </a>
         </g>
        </svg>
</svg>
