<?xml version="1.0" encoding="UTF-8" standalone="no"?>
<!DOCTYPE svg PUBLIC "-//W3C//DTD SVG 1.1//EN"
 "http://www.w3.org/Graphics/SVG/1.1/DTD/svg11.dtd">
<!-- Generated by graphviz version 2.36.0 (20140111.2315)
 -->
<!-- Title: view.SLogoView.configureAddTurtlesButton Pages: 1 -->
<svg width="1038pt" height="142pt"
 viewBox="0.00 0.00 1038.00 142.00" xmlns="http://www.w3.org/2000/svg" xmlns:xlink="http://www.w3.org/1999/xlink">
<g id="graph0" class="graph" transform="scale(1 1) rotate(0) translate(4 138)">
<title>view.SLogoView.configureAddTurtlesButton</title>
<polygon fill="white" stroke="none" points="-4,4 -4,-138 1034,-138 1034,4 -4,4"/>
<!-- Node1 -->
<g id="node1" class="node"><title>Node1</title>
<polygon fill="#bfbfbf" stroke="black" points="0.5,-87 0.5,-117 137.5,-117 137.5,-87 0.5,-87"/>
<text text-anchor="start" x="8.5" y="-105" font-family="Helvetica,sans-Serif" font-size="10.00">view.SLogoView.configure</text>
<text text-anchor="middle" x="69" y="-94" font-family="Helvetica,sans-Serif" font-size="10.00">AddTurtlesButton</text>
</g>
<!-- Node2 -->
<g id="node2" class="node"><title>Node2</title>
<g id="a_node2"><a xlink:href="../../da/d64/classview_1_1_workspace.html#a58b943798f78aa9414a854dcd54fa7ae" target="_top" xlink:title="view.Workspace.addTurtle">
<polygon fill="white" stroke="black" points="174.5,-92.5 174.5,-111.5 311.5,-111.5 311.5,-92.5 174.5,-92.5"/>
<text text-anchor="middle" x="243" y="-99.5" font-family="Helvetica,sans-Serif" font-size="10.00">view.Workspace.addTurtle</text>
</a>
</g>
</g>
<!-- Node1&#45;&gt;Node2 -->
<g id="edge1" class="edge"><title>Node1&#45;&gt;Node2</title>
<path fill="none" stroke="midnightblue" d="M137.979,-102C146.55,-102 155.372,-102 164.082,-102"/>
<polygon fill="midnightblue" stroke="midnightblue" points="164.233,-105.5 174.233,-102 164.233,-98.5001 164.233,-105.5"/>
</g>
<!-- Node3 -->
<g id="node3" class="node"><title>Node3</title>
<g id="a_node3"><a xlink:href="../../da/d64/classview_1_1_workspace.html#a9eea72f983d5e7ad5af85056d927e380" target="_top" xlink:title="view.Workspace.configure\lTurtleEventHandler">
<polygon fill="white" stroke="black" points="348.5,-87 348.5,-117 485.5,-117 485.5,-87 348.5,-87"/>
<text text-anchor="start" x="356.5" y="-105" font-family="Helvetica,sans-Serif" font-size="10.00">view.Workspace.configure</text>
<text text-anchor="middle" x="417" y="-94" font-family="Helvetica,sans-Serif" font-size="10.00">TurtleEventHandler</text>
</a>
</g>
</g>
<!-- Node2&#45;&gt;Node3 -->
<g id="edge2" class="edge"><title>Node2&#45;&gt;Node3</title>
<path fill="none" stroke="midnightblue" d="M311.979,-102C320.55,-102 329.372,-102 338.082,-102"/>
<polygon fill="midnightblue" stroke="midnightblue" points="338.233,-105.5 348.233,-102 338.233,-98.5001 338.233,-105.5"/>
</g>
<!-- Node4 -->
<g id="node4" class="node"><title>Node4</title>
<g id="a_node4"><a xlink:href="../../da/d64/classview_1_1_workspace.html#a16bda9a6a7fe7f8d3d7b09108675f9c4" target="_top" xlink:title="view.Workspace.setActive\lTurtle">
<polygon fill="white" stroke="black" points="522.5,-65 522.5,-95 659.5,-95 659.5,-65 522.5,-65"/>
<text text-anchor="start" x="530.5" y="-83" font-family="Helvetica,sans-Serif" font-size="10.00">view.Workspace.setActive</text>
<text text-anchor="middle" x="591" y="-72" font-family="Helvetica,sans-Serif" font-size="10.00">Turtle</text>
</a>
</g>
</g>
<!-- Node3&#45;&gt;Node4 -->
<g id="edge3" class="edge"><title>Node3&#45;&gt;Node4</title>
<path fill="none" stroke="midnightblue" d="M485.979,-93.305C494.55,-92.2087 503.372,-91.0804 512.082,-89.9663"/>
<polygon fill="midnightblue" stroke="midnightblue" points="512.758,-93.4084 522.233,-88.6678 511.87,-86.4649 512.758,-93.4084"/>
</g>
<!-- Node6 -->
<g id="node6" class="node"><title>Node6</title>
<g id="a_node6"><a xlink:href="../../d8/df7/classview_1_1_turtle_view.html#ab5fdc3775e06339f4a68d1b795a81643" target="_top" xlink:title="view.TurtleView.getID">
<polygon fill="white" stroke="black" points="893,-114.5 893,-133.5 1007,-133.5 1007,-114.5 893,-114.5"/>
<text text-anchor="middle" x="950" y="-121.5" font-family="Helvetica,sans-Serif" font-size="10.00">view.TurtleView.getID</text>
</a>
</g>
</g>
<!-- Node3&#45;&gt;Node6 -->
<g id="edge9" class="edge"><title>Node3&#45;&gt;Node6</title>
<path fill="none" stroke="midnightblue" d="M485.521,-104.797C587.873,-109.038 781.104,-117.044 882.718,-121.254"/>
<polygon fill="midnightblue" stroke="midnightblue" points="882.719,-124.757 892.855,-121.674 883.009,-117.763 882.719,-124.757"/>
</g>
<!-- Node5 -->
<g id="node5" class="node"><title>Node5</title>
<g id="a_node5"><a xlink:href="../../d1/dc7/classview_1_1_side_bar.html#a7d73038dbba05f96990b60664afa2670" target="_top" xlink:title="view.SideBar.updateTurtle\lProperties">
<polygon fill="white" stroke="black" points="696,-65 696,-95 834,-95 834,-65 696,-65"/>
<text text-anchor="start" x="704" y="-83" font-family="Helvetica,sans-Serif" font-size="10.00">view.SideBar.updateTurtle</text>
<text text-anchor="middle" x="765" y="-72" font-family="Helvetica,sans-Serif" font-size="10.00">Properties</text>
</a>
</g>
</g>
<!-- Node4&#45;&gt;Node5 -->
<g id="edge4" class="edge"><title>Node4&#45;&gt;Node5</title>
<path fill="none" stroke="midnightblue" d="M659.979,-80C668.483,-80 677.233,-80 685.876,-80"/>
<polygon fill="midnightblue" stroke="midnightblue" points="685.952,-83.5001 695.952,-80 685.952,-76.5001 685.952,-83.5001"/>
</g>
<!-- Node5&#45;&gt;Node6 -->
<g id="edge5" class="edge"><title>Node5&#45;&gt;Node6</title>
<path fill="none" stroke="midnightblue" d="M828.466,-95.0192C851.722,-100.611 877.769,-106.874 899.684,-112.143"/>
<polygon fill="midnightblue" stroke="midnightblue" points="898.896,-115.553 909.437,-114.488 900.532,-108.747 898.896,-115.553"/>
</g>
<!-- Node7 -->
<g id="node7" class="node"><title>Node7</title>
<g id="a_node7"><a xlink:href="../../d8/df7/classview_1_1_turtle_view.html#a85b9acc922cc69f27c79bf13e3356e09" target="_top" xlink:title="view.TurtleView.getPenPosition">
<polygon fill="white" stroke="black" points="870,-76.5 870,-95.5 1030,-95.5 1030,-76.5 870,-76.5"/>
<text text-anchor="middle" x="950" y="-83.5" font-family="Helvetica,sans-Serif" font-size="10.00">view.TurtleView.getPenPosition</text>
</a>
</g>
</g>
<!-- Node5&#45;&gt;Node7 -->
<g id="edge6" class="edge"><title>Node5&#45;&gt;Node7</title>
<path fill="none" stroke="midnightblue" d="M834.142,-82.2342C842.469,-82.5072 851.072,-82.7892 859.65,-83.0705"/>
<polygon fill="midnightblue" stroke="midnightblue" points="859.58,-86.57 869.69,-83.3997 859.81,-79.5738 859.58,-86.57"/>
</g>
<!-- Node8 -->
<g id="node8" class="node"><title>Node8</title>
<g id="a_node8"><a xlink:href="../../da/d64/classview_1_1_workspace.html#ad460da1164f039e5ea9a265d446d13fe" target="_top" xlink:title="view.Workspace.getTurtleMap">
<polygon fill="white" stroke="black" points="872.5,-38.5 872.5,-57.5 1027.5,-57.5 1027.5,-38.5 872.5,-38.5"/>
<text text-anchor="middle" x="950" y="-45.5" font-family="Helvetica,sans-Serif" font-size="10.00">view.Workspace.getTurtleMap</text>
</a>
</g>
</g>
<!-- Node5&#45;&gt;Node8 -->
<g id="edge7" class="edge"><title>Node5&#45;&gt;Node8</title>
<path fill="none" stroke="midnightblue" d="M834.142,-68.0844C850.637,-65.2001 868.216,-62.1261 884.535,-59.2726"/>
<polygon fill="midnightblue" stroke="midnightblue" points="885.264,-62.6982 894.512,-57.5279 884.059,-55.8028 885.264,-62.6982"/>
</g>
<!-- Node9 -->
<g id="node9" class="node"><title>Node9</title>
<g id="a_node9"><a xlink:href="../../d8/df7/classview_1_1_turtle_view.html#a5f7b22cd8ab69258535b18920a488b63" target="_top" xlink:title="view.TurtleView.isShowing">
<polygon fill="white" stroke="black" points="882,-0.5 882,-19.5 1018,-19.5 1018,-0.5 882,-0.5"/>
<text text-anchor="middle" x="950" y="-7.5" font-family="Helvetica,sans-Serif" font-size="10.00">view.TurtleView.isShowing</text>
</a>
</g>
</g>
<!-- Node5&#45;&gt;Node9 -->
<g id="edge8" class="edge"><title>Node5&#45;&gt;Node9</title>
<path fill="none" stroke="midnightblue" d="M792.658,-64.8952C813.257,-53.7293 842.758,-38.82 870,-29 877.013,-26.4721 884.496,-24.1783 891.958,-22.1296"/>
<polygon fill="midnightblue" stroke="midnightblue" points="892.923,-25.4948 901.712,-19.5785 891.152,-18.7226 892.923,-25.4948"/>
</g>
</g>
</svg>
