<?xml version="1.0" encoding="UTF-8" standalone="no"?>
<!DOCTYPE svg PUBLIC "-//W3C//DTD SVG 1.1//EN"
 "http://www.w3.org/Graphics/SVG/1.1/DTD/svg11.dtd">
<!-- Generated by graphviz version 2.36.0 (20140111.2315)
 -->
<!-- Title: view.SLogoView.setupScene Pages: 1 -->
<svg width="518pt" height="71pt"
 viewBox="0.00 0.00 518.00 71.00" xmlns="http://www.w3.org/2000/svg" xmlns:xlink="http://www.w3.org/1999/xlink">
<g id="graph0" class="graph" transform="scale(1 1) rotate(0) translate(4 67)">
<title>view.SLogoView.setupScene</title>
<polygon fill="white" stroke="none" points="-4,4 -4,-67 514,-67 514,4 -4,4"/>
<!-- Node1 -->
<g id="node1" class="node"><title>Node1</title>
<polygon fill="#bfbfbf" stroke="black" points="0,-19.5 0,-38.5 150,-38.5 150,-19.5 0,-19.5"/>
<text text-anchor="middle" x="75" y="-26.5" font-family="Helvetica,sans-Serif" font-size="10.00">view.SLogoView.setupScene</text>
</g>
<!-- Node2 -->
<g id="node2" class="node"><title>Node2</title>
<g id="a_node2"><a xlink:href="../../d6/de7/classview_1_1_s_logo_view.html#a0e7acc1d70d902c9941d9a5c22df34a9" target="_top" xlink:title="view.SLogoView.displayPage">
<polygon fill="white" stroke="black" points="186.5,-38.5 186.5,-57.5 335.5,-57.5 335.5,-38.5 186.5,-38.5"/>
<text text-anchor="middle" x="261" y="-45.5" font-family="Helvetica,sans-Serif" font-size="10.00">view.SLogoView.displayPage</text>
</a>
</g>
</g>
<!-- Node1&#45;&gt;Node2 -->
<g id="edge1" class="edge"><title>Node1&#45;&gt;Node2</title>
<path fill="none" stroke="midnightblue" d="M160.237,-37.6984C168.972,-38.6004 177.801,-39.5121 186.406,-40.4007"/>
<polygon fill="midnightblue" stroke="midnightblue" points="160.351,-34.1916 150.044,-36.6459 159.632,-41.1546 160.351,-34.1916"/>
</g>
<!-- Node4 -->
<g id="node4" class="node"><title>Node4</title>
<g id="a_node4"><a xlink:href="../../d6/de7/classview_1_1_s_logo_view.html#a94773ea5b6d67211bad051bb0aa42e3e" target="_top" xlink:title="view.SLogoView.SLogoView">
<polygon fill="white" stroke="black" points="188.5,-0.5 188.5,-19.5 333.5,-19.5 333.5,-0.5 188.5,-0.5"/>
<text text-anchor="middle" x="261" y="-7.5" font-family="Helvetica,sans-Serif" font-size="10.00">view.SLogoView.SLogoView</text>
</a>
</g>
</g>
<!-- Node1&#45;&gt;Node4 -->
<g id="edge3" class="edge"><title>Node1&#45;&gt;Node4</title>
<path fill="none" stroke="midnightblue" d="M160.232,-20.3021C169.678,-19.3268 179.233,-18.34 188.497,-17.3835"/>
<polygon fill="midnightblue" stroke="midnightblue" points="159.632,-16.8454 150.044,-21.3541 160.351,-23.8084 159.632,-16.8454"/>
</g>
<!-- Node3 -->
<g id="node3" class="node"><title>Node3</title>
<g id="a_node3"><a xlink:href="../../d6/de7/classview_1_1_s_logo_view.html#aacd2f01f871607854e4cfd58bf1d05ef" target="_top" xlink:title="view.SLogoView.configure\lTopMenu">
<polygon fill="white" stroke="black" points="372.5,-33 372.5,-63 509.5,-63 509.5,-33 372.5,-33"/>
<text text-anchor="start" x="380.5" y="-51" font-family="Helvetica,sans-Serif" font-size="10.00">view.SLogoView.configure</text>
<text text-anchor="middle" x="441" y="-40" font-family="Helvetica,sans-Serif" font-size="10.00">TopMenu</text>
</a>
</g>
</g>
<!-- Node2&#45;&gt;Node3 -->
<g id="edge2" class="edge"><title>Node2&#45;&gt;Node3</title>
<path fill="none" stroke="midnightblue" d="M345.717,-48C354.647,-48 363.648,-48 372.359,-48"/>
<polygon fill="midnightblue" stroke="midnightblue" points="345.684,-44.5001 335.684,-48 345.684,-51.5001 345.684,-44.5001"/>
</g>
</g>
</svg>
