<?xml version="1.0" encoding="UTF-8" standalone="no"?>
<!DOCTYPE svg PUBLIC "-//W3C//DTD SVG 1.1//EN"
 "http://www.w3.org/Graphics/SVG/1.1/DTD/svg11.dtd">
<!-- Generated by graphviz version 2.36.0 (20140111.2315)
 -->
<!-- Title: view.SLogoView.updateWorkspace Pages: 1 -->
<svg width="730pt" height="518pt"
 viewBox="0.00 0.00 730.00 518.00" xmlns="http://www.w3.org/2000/svg" xmlns:xlink="http://www.w3.org/1999/xlink">
<g id="graph0" class="graph" transform="scale(1 1) rotate(0) translate(4 514)">
<title>view.SLogoView.updateWorkspace</title>
<polygon fill="white" stroke="none" points="-4,4 -4,-514 726,-514 726,4 -4,4"/>
<!-- Node1 -->
<g id="node1" class="node"><title>Node1</title>
<polygon fill="#bfbfbf" stroke="black" points="0,-370.5 0,-389.5 178,-389.5 178,-370.5 0,-370.5"/>
<text text-anchor="middle" x="89" y="-377.5" font-family="Helvetica,sans-Serif" font-size="10.00">view.SLogoView.updateWorkspace</text>
</g>
<!-- Node2 -->
<g id="node2" class="node"><title>Node2</title>
<g id="a_node2"><a xlink:href="../../de/d0a/classview_1_1_drawer.html#a6b9f362b8bc763689630b1fe7b5c1887" target="_top" xlink:title="view.Drawer.draw">
<polygon fill="white" stroke="black" points="214,-250.5 214,-269.5 312,-269.5 312,-250.5 214,-250.5"/>
<text text-anchor="middle" x="263" y="-257.5" font-family="Helvetica,sans-Serif" font-size="10.00">view.Drawer.draw</text>
</a>
</g>
</g>
<!-- Node1&#45;&gt;Node2 -->
<g id="edge1" class="edge"><title>Node1&#45;&gt;Node2</title>
<path fill="none" stroke="midnightblue" d="M103.785,-370.383C133.474,-349.669 203.688,-300.683 239.76,-275.516"/>
<polygon fill="midnightblue" stroke="midnightblue" points="241.951,-278.255 248.15,-269.663 237.946,-272.514 241.951,-278.255"/>
</g>
<!-- Node16 -->
<g id="node16" class="node"><title>Node16</title>
<g id="a_node16"><a xlink:href="../../da/d64/classview_1_1_workspace.html#ad460da1164f039e5ea9a265d446d13fe" target="_top" xlink:title="view.Workspace.getTurtleMap">
<polygon fill="white" stroke="black" points="564.5,-490.5 564.5,-509.5 719.5,-509.5 719.5,-490.5 564.5,-490.5"/>
<text text-anchor="middle" x="642" y="-497.5" font-family="Helvetica,sans-Serif" font-size="10.00">view.Workspace.getTurtleMap</text>
</a>
</g>
</g>
<!-- Node1&#45;&gt;Node16 -->
<g id="edge26" class="edge"><title>Node1&#45;&gt;Node16</title>
<path fill="none" stroke="midnightblue" d="M108.797,-389.577C150.546,-410.327 254.686,-459.235 348,-480 416.219,-495.181 495.384,-499.839 554.216,-500.89"/>
<polygon fill="midnightblue" stroke="midnightblue" points="554.165,-504.39 564.216,-501.038 554.269,-497.39 554.165,-504.39"/>
</g>
<!-- Node3 -->
<g id="node3" class="node"><title>Node3</title>
<g id="a_node3"><a xlink:href="../../d1/d0b/classmodel_1_1_polar.html#adbd9afb75cf519b2dd9f1331e406b8c2" target="_top" xlink:title="model.Polar.getAngle">
<polygon fill="white" stroke="black" points="377.5,-364.5 377.5,-383.5 496.5,-383.5 496.5,-364.5 377.5,-364.5"/>
<text text-anchor="middle" x="437" y="-371.5" font-family="Helvetica,sans-Serif" font-size="10.00">model.Polar.getAngle</text>
</a>
</g>
</g>
<!-- Node2&#45;&gt;Node3 -->
<g id="edge2" class="edge"><title>Node2&#45;&gt;Node3</title>
<path fill="none" stroke="midnightblue" d="M269.543,-269.616C281.306,-289.092 310.763,-333.197 348,-355 353.981,-358.502 360.53,-361.361 367.272,-363.694"/>
<polygon fill="midnightblue" stroke="midnightblue" points="366.655,-367.166 377.242,-366.751 368.707,-360.474 366.655,-367.166"/>
</g>
<!-- Node4 -->
<g id="node4" class="node"><title>Node4</title>
<g id="a_node4"><a xlink:href="../../d1/d0b/classmodel_1_1_polar.html#a8abcb5640caf12d2941533a6e1c04faa" target="_top" xlink:title="model.Polar.getDistance">
<polygon fill="white" stroke="black" points="370,-326.5 370,-345.5 504,-345.5 504,-326.5 370,-326.5"/>
<text text-anchor="middle" x="437" y="-333.5" font-family="Helvetica,sans-Serif" font-size="10.00">model.Polar.getDistance</text>
</a>
</g>
</g>
<!-- Node2&#45;&gt;Node4 -->
<g id="edge3" class="edge"><title>Node2&#45;&gt;Node4</title>
<path fill="none" stroke="midnightblue" d="M275.128,-269.644C290.474,-282.43 319.484,-304.795 348,-317 354.082,-319.603 360.559,-321.865 367.133,-323.827"/>
<polygon fill="midnightblue" stroke="midnightblue" points="366.23,-327.209 376.801,-326.492 368.091,-320.46 366.23,-327.209"/>
</g>
<!-- Node5 -->
<g id="node5" class="node"><title>Node5</title>
<g id="a_node5"><a xlink:href="../../d8/df7/classview_1_1_turtle_view.html#a68c8a2962e23e5794fcfbe7ef1968fad" target="_top" xlink:title="view.TurtleView.getPenUp">
<polygon fill="white" stroke="black" points="574,-307.5 574,-326.5 710,-326.5 710,-307.5 574,-307.5"/>
<text text-anchor="middle" x="642" y="-314.5" font-family="Helvetica,sans-Serif" font-size="10.00">view.TurtleView.getPenUp</text>
</a>
</g>
</g>
<!-- Node2&#45;&gt;Node5 -->
<g id="edge4" class="edge"><title>Node2&#45;&gt;Node5</title>
<path fill="none" stroke="midnightblue" d="M266.613,-269.753C274.126,-295.595 298.491,-365.712 348,-393 417.284,-431.187 450.726,-417.34 526,-393 544.779,-386.928 545.654,-378.06 562,-367 579.98,-354.834 600.737,-341.732 616.461,-331.993"/>
<polygon fill="midnightblue" stroke="midnightblue" points="618.403,-334.908 625.078,-326.68 614.729,-328.949 618.403,-334.908"/>
</g>
<!-- Node6 -->
<g id="node6" class="node"><title>Node6</title>
<g id="a_node6"><a xlink:href="../../d6/d06/classmodel_1_1_turtle_command.html#ab94da8b47588273eb8db943096f12422" target="_top" xlink:title="model.TurtleCommand.getPolar">
<polygon fill="white" stroke="black" points="353,-174.5 353,-193.5 521,-193.5 521,-174.5 353,-174.5"/>
<text text-anchor="middle" x="437" y="-181.5" font-family="Helvetica,sans-Serif" font-size="10.00">model.TurtleCommand.getPolar</text>
</a>
</g>
</g>
<!-- Node2&#45;&gt;Node6 -->
<g id="edge5" class="edge"><title>Node2&#45;&gt;Node6</title>
<path fill="none" stroke="midnightblue" d="M276.737,-250.478C292.661,-238.97 321.105,-219.698 348,-208 358.558,-203.408 370.216,-199.488 381.499,-196.23"/>
<polygon fill="midnightblue" stroke="midnightblue" points="382.568,-199.566 391.28,-193.536 380.709,-192.817 382.568,-199.566"/>
</g>
<!-- Node7 -->
<g id="node7" class="node"><title>Node7</title>
<g id="a_node7"><a xlink:href="../../d6/d06/classmodel_1_1_turtle_command.html#ab30f5c95162492cb8fd19f1fd7350f9f" target="_top" xlink:title="model.TurtleCommand.getTurtleId">
<polygon fill="white" stroke="black" points="348,-136.5 348,-155.5 526,-155.5 526,-136.5 348,-136.5"/>
<text text-anchor="middle" x="437" y="-143.5" font-family="Helvetica,sans-Serif" font-size="10.00">model.TurtleCommand.getTurtleId</text>
</a>
</g>
</g>
<!-- Node2&#45;&gt;Node7 -->
<g id="edge6" class="edge"><title>Node2&#45;&gt;Node7</title>
<path fill="none" stroke="midnightblue" d="M269.543,-250.384C281.306,-230.908 310.763,-186.803 348,-165 351.718,-162.823 355.655,-160.895 359.721,-159.187"/>
<polygon fill="midnightblue" stroke="midnightblue" points="361.248,-162.353 369.401,-155.588 358.808,-155.792 361.248,-162.353"/>
</g>
<!-- Node8 -->
<g id="node8" class="node"><title>Node8</title>
<g id="a_node8"><a xlink:href="../../d6/d06/classmodel_1_1_turtle_command.html#abb952ce819f91c0f5970c2f2b1c43d73" target="_top" xlink:title="model.TurtleCommand.isRelative">
<polygon fill="white" stroke="black" points="350.5,-98.5 350.5,-117.5 523.5,-117.5 523.5,-98.5 350.5,-98.5"/>
<text text-anchor="middle" x="437" y="-105.5" font-family="Helvetica,sans-Serif" font-size="10.00">model.TurtleCommand.isRelative</text>
</a>
</g>
</g>
<!-- Node2&#45;&gt;Node8 -->
<g id="edge7" class="edge"><title>Node2&#45;&gt;Node8</title>
<path fill="none" stroke="midnightblue" d="M267.084,-250.45C275.596,-225.711 301.89,-159.232 348,-127 350.754,-125.075 353.667,-123.339 356.691,-121.774"/>
<polygon fill="midnightblue" stroke="midnightblue" points="358.362,-124.861 366.054,-117.575 355.498,-118.473 358.362,-124.861"/>
</g>
<!-- Node9 -->
<g id="node9" class="node"><title>Node9</title>
<g id="a_node9"><a xlink:href="../../d8/df7/classview_1_1_turtle_view.html#a5e7cf3c4f078acae07bcbeee264a5581" target="_top" xlink:title="view.TurtleView.move">
<polygon fill="white" stroke="black" points="584,-231.5 584,-250.5 700,-250.5 700,-231.5 584,-231.5"/>
<text text-anchor="middle" x="642" y="-238.5" font-family="Helvetica,sans-Serif" font-size="10.00">view.TurtleView.move</text>
</a>
</g>
</g>
<!-- Node2&#45;&gt;Node9 -->
<g id="edge8" class="edge"><title>Node2&#45;&gt;Node9</title>
<path fill="none" stroke="midnightblue" d="M298.037,-250.492C313.199,-246.728 331.358,-242.859 348,-241 425.06,-232.394 514.233,-234.036 573.772,-236.774"/>
<polygon fill="midnightblue" stroke="midnightblue" points="573.643,-240.272 583.8,-237.258 573.981,-233.28 573.643,-240.272"/>
</g>
<!-- Node10 -->
<g id="node10" class="node"><title>Node10</title>
<g id="a_node10"><a xlink:href="../../d8/df7/classview_1_1_turtle_view.html#a166c0ff50e234c0a2725aa1cbc38c933" target="_top" xlink:title="view.TurtleView.setAbsolute\lHeading">
<polygon fill="white" stroke="black" points="364,-49 364,-79 510,-79 510,-49 364,-49"/>
<text text-anchor="start" x="372" y="-67" font-family="Helvetica,sans-Serif" font-size="10.00">view.TurtleView.setAbsolute</text>
<text text-anchor="middle" x="437" y="-56" font-family="Helvetica,sans-Serif" font-size="10.00">Heading</text>
</a>
</g>
</g>
<!-- Node2&#45;&gt;Node10 -->
<g id="edge9" class="edge"><title>Node2&#45;&gt;Node10</title>
<path fill="none" stroke="midnightblue" d="M265.907,-250.152C272.099,-220.888 294.419,-133.719 348,-89 350.229,-87.1395 352.589,-85.4173 355.049,-83.8231"/>
<polygon fill="midnightblue" stroke="midnightblue" points="356.787,-86.8611 363.755,-78.8808 353.331,-80.7734 356.787,-86.8611"/>
</g>
<!-- Node12 -->
<g id="node12" class="node"><title>Node12</title>
<g id="a_node12"><a xlink:href="../../d8/df7/classview_1_1_turtle_view.html#a199407b3121d1bc310d7f75cdab2da94" target="_top" xlink:title="view.TurtleView.setRelative\lHeading">
<polygon fill="white" stroke="black" points="367,-0 367,-30 507,-30 507,-0 367,-0"/>
<text text-anchor="start" x="375" y="-18" font-family="Helvetica,sans-Serif" font-size="10.00">view.TurtleView.setRelative</text>
<text text-anchor="middle" x="437" y="-7" font-family="Helvetica,sans-Serif" font-size="10.00">Heading</text>
</a>
</g>
</g>
<!-- Node2&#45;&gt;Node12 -->
<g id="edge11" class="edge"><title>Node2&#45;&gt;Node12</title>
<path fill="none" stroke="midnightblue" d="M264.662,-250.343C267.547,-216.03 282.039,-98.8554 348,-39 351.014,-36.2648 354.31,-33.8368 357.801,-31.6821"/>
<polygon fill="midnightblue" stroke="midnightblue" points="359.652,-34.6617 366.83,-26.8692 356.359,-28.4844 359.652,-34.6617"/>
</g>
<!-- Node13 -->
<g id="node13" class="node"><title>Node13</title>
<g id="a_node13"><a xlink:href="../../d1/dc7/classview_1_1_side_bar.html#a7d73038dbba05f96990b60664afa2670" target="_top" xlink:title="view.SideBar.updateTurtle\lProperties">
<polygon fill="white" stroke="black" points="368,-441 368,-471 506,-471 506,-441 368,-441"/>
<text text-anchor="start" x="376" y="-459" font-family="Helvetica,sans-Serif" font-size="10.00">view.SideBar.updateTurtle</text>
<text text-anchor="middle" x="437" y="-448" font-family="Helvetica,sans-Serif" font-size="10.00">Properties</text>
</a>
</g>
</g>
<!-- Node2&#45;&gt;Node13 -->
<g id="edge13" class="edge"><title>Node2&#45;&gt;Node13</title>
<path fill="none" stroke="midnightblue" d="M266.203,-269.843C273.077,-298.307 296.803,-381.508 348,-426 352.527,-429.934 357.593,-433.358 362.948,-436.337"/>
<polygon fill="midnightblue" stroke="midnightblue" points="361.675,-439.613 372.186,-440.943 364.798,-433.349 361.675,-439.613"/>
</g>
<!-- Node18 -->
<g id="node18" class="node"><title>Node18</title>
<g id="a_node18"><a xlink:href="../../de/d0a/classview_1_1_drawer.html#a24eafc164d9d0ab08036dc5cf7d72dd4" target="_top" xlink:title="view.Drawer.wrapX">
<polygon fill="white" stroke="black" points="385,-250.5 385,-269.5 489,-269.5 489,-250.5 385,-250.5"/>
<text text-anchor="middle" x="437" y="-257.5" font-family="Helvetica,sans-Serif" font-size="10.00">view.Drawer.wrapX</text>
</a>
</g>
</g>
<!-- Node2&#45;&gt;Node18 -->
<g id="edge18" class="edge"><title>Node2&#45;&gt;Node18</title>
<path fill="none" stroke="midnightblue" d="M312.369,-260C331.75,-260 354.306,-260 374.805,-260"/>
<polygon fill="midnightblue" stroke="midnightblue" points="374.994,-263.5 384.994,-260 374.994,-256.5 374.994,-263.5"/>
</g>
<!-- Node20 -->
<g id="node20" class="node"><title>Node20</title>
<g id="a_node20"><a xlink:href="../../de/d0a/classview_1_1_drawer.html#ad1636376006d26ed1ca9784e13f96a2a" target="_top" xlink:title="view.Drawer.wrapY">
<polygon fill="white" stroke="black" points="385.5,-288.5 385.5,-307.5 488.5,-307.5 488.5,-288.5 385.5,-288.5"/>
<text text-anchor="middle" x="437" y="-295.5" font-family="Helvetica,sans-Serif" font-size="10.00">view.Drawer.wrapY</text>
</a>
</g>
</g>
<!-- Node2&#45;&gt;Node20 -->
<g id="edge22" class="edge"><title>Node2&#45;&gt;Node20</title>
<path fill="none" stroke="midnightblue" d="M305.854,-269.552C319.306,-272.599 334.277,-275.967 348,-279 358.75,-281.376 370.246,-283.883 381.264,-286.269"/>
<polygon fill="midnightblue" stroke="midnightblue" points="380.7,-289.728 391.214,-288.419 382.178,-282.886 380.7,-289.728"/>
</g>
<!-- Node11 -->
<g id="node11" class="node"><title>Node11</title>
<g id="a_node11"><a xlink:href="../../d8/df7/classview_1_1_turtle_view.html#aea0727a510b53db67aa4100a6106eb5b" target="_top" xlink:title="view.TurtleView.adjustAngle">
<polygon fill="white" stroke="black" points="569.5,-30.5 569.5,-49.5 714.5,-49.5 714.5,-30.5 569.5,-30.5"/>
<text text-anchor="middle" x="642" y="-37.5" font-family="Helvetica,sans-Serif" font-size="10.00">view.TurtleView.adjustAngle</text>
</a>
</g>
</g>
<!-- Node10&#45;&gt;Node11 -->
<g id="edge10" class="edge"><title>Node10&#45;&gt;Node11</title>
<path fill="none" stroke="midnightblue" d="M510.142,-55.4709C526.091,-53.5853 543.098,-51.5746 559.394,-49.648"/>
<polygon fill="midnightblue" stroke="midnightblue" points="559.912,-53.1112 569.432,-48.4612 559.09,-46.1596 559.912,-53.1112"/>
</g>
<!-- Node12&#45;&gt;Node11 -->
<g id="edge12" class="edge"><title>Node12&#45;&gt;Node11</title>
<path fill="none" stroke="midnightblue" d="M507.01,-23.4987C523.824,-25.5695 541.969,-27.8041 559.311,-29.9398"/>
<polygon fill="midnightblue" stroke="midnightblue" points="559.06,-33.4352 569.413,-31.1838 559.915,-26.4877 559.06,-33.4352"/>
</g>
<!-- Node14 -->
<g id="node14" class="node"><title>Node14</title>
<g id="a_node14"><a xlink:href="../../d8/df7/classview_1_1_turtle_view.html#ab5fdc3775e06339f4a68d1b795a81643" target="_top" xlink:title="view.TurtleView.getID">
<polygon fill="white" stroke="black" points="585,-452.5 585,-471.5 699,-471.5 699,-452.5 585,-452.5"/>
<text text-anchor="middle" x="642" y="-459.5" font-family="Helvetica,sans-Serif" font-size="10.00">view.TurtleView.getID</text>
</a>
</g>
</g>
<!-- Node13&#45;&gt;Node14 -->
<g id="edge14" class="edge"><title>Node13&#45;&gt;Node14</title>
<path fill="none" stroke="midnightblue" d="M506.161,-458.015C528.235,-458.667 552.677,-459.389 574.62,-460.038"/>
<polygon fill="midnightblue" stroke="midnightblue" points="574.739,-463.543 584.838,-460.34 574.946,-456.546 574.739,-463.543"/>
</g>
<!-- Node15 -->
<g id="node15" class="node"><title>Node15</title>
<g id="a_node15"><a xlink:href="../../d8/df7/classview_1_1_turtle_view.html#a85b9acc922cc69f27c79bf13e3356e09" target="_top" xlink:title="view.TurtleView.getPenPosition">
<polygon fill="white" stroke="black" points="562,-414.5 562,-433.5 722,-433.5 722,-414.5 562,-414.5"/>
<text text-anchor="middle" x="642" y="-421.5" font-family="Helvetica,sans-Serif" font-size="10.00">view.TurtleView.getPenPosition</text>
</a>
</g>
</g>
<!-- Node13&#45;&gt;Node15 -->
<g id="edge15" class="edge"><title>Node13&#45;&gt;Node15</title>
<path fill="none" stroke="midnightblue" d="M506.161,-445.255C526.849,-441.994 549.615,-438.405 570.456,-435.12"/>
<polygon fill="midnightblue" stroke="midnightblue" points="571.182,-438.549 580.515,-433.535 570.092,-431.634 571.182,-438.549"/>
</g>
<!-- Node13&#45;&gt;Node16 -->
<g id="edge16" class="edge"><title>Node13&#45;&gt;Node16</title>
<path fill="none" stroke="midnightblue" d="M506.161,-470.774C532.482,-476.479 562.168,-482.913 586.972,-488.289"/>
<polygon fill="midnightblue" stroke="midnightblue" points="586.41,-491.749 596.925,-490.447 587.893,-484.908 586.41,-491.749"/>
</g>
<!-- Node17 -->
<g id="node17" class="node"><title>Node17</title>
<g id="a_node17"><a xlink:href="../../d8/df7/classview_1_1_turtle_view.html#a5f7b22cd8ab69258535b18920a488b63" target="_top" xlink:title="view.TurtleView.isShowing">
<polygon fill="white" stroke="black" points="574,-376.5 574,-395.5 710,-395.5 710,-376.5 574,-376.5"/>
<text text-anchor="middle" x="642" y="-383.5" font-family="Helvetica,sans-Serif" font-size="10.00">view.TurtleView.isShowing</text>
</a>
</g>
</g>
<!-- Node13&#45;&gt;Node17 -->
<g id="edge17" class="edge"><title>Node13&#45;&gt;Node17</title>
<path fill="none" stroke="midnightblue" d="M488.011,-440.881C500.604,-436.551 513.96,-431.497 526,-426 542.85,-418.307 544.812,-411.906 562,-405 568.244,-402.491 574.904,-400.258 581.608,-398.284"/>
<polygon fill="midnightblue" stroke="midnightblue" points="582.711,-401.611 591.419,-395.576 580.848,-394.863 582.711,-401.611"/>
</g>
<!-- Node18&#45;&gt;Node5 -->
<g id="edge20" class="edge"><title>Node18&#45;&gt;Node5</title>
<path fill="none" stroke="midnightblue" d="M489.392,-268.631C501.575,-271.35 514.397,-274.776 526,-279 543,-285.189 545.073,-291.613 562,-298 568.714,-300.534 575.88,-302.811 583.053,-304.833"/>
<polygon fill="midnightblue" stroke="midnightblue" points="582.231,-308.236 592.796,-307.433 584.036,-301.473 582.231,-308.236"/>
</g>
<!-- Node18&#45;&gt;Node9 -->
<g id="edge21" class="edge"><title>Node18&#45;&gt;Node9</title>
<path fill="none" stroke="midnightblue" d="M489.225,-255.205C514.742,-252.817 545.93,-249.898 573.383,-247.329"/>
<polygon fill="midnightblue" stroke="midnightblue" points="574.071,-250.78 583.702,-246.363 573.419,-243.81 574.071,-250.78"/>
</g>
<!-- Node19 -->
<g id="node19" class="node"><title>Node19</title>
<g id="a_node19"><a xlink:href="../../de/d0a/classview_1_1_drawer.html#a1489f58b0b2c2012d23d546013a47972" target="_top" xlink:title="view.Drawer.drawLine">
<polygon fill="white" stroke="black" points="583.5,-269.5 583.5,-288.5 700.5,-288.5 700.5,-269.5 583.5,-269.5"/>
<text text-anchor="middle" x="642" y="-276.5" font-family="Helvetica,sans-Serif" font-size="10.00">view.Drawer.drawLine</text>
</a>
</g>
</g>
<!-- Node18&#45;&gt;Node19 -->
<g id="edge19" class="edge"><title>Node18&#45;&gt;Node19</title>
<path fill="none" stroke="midnightblue" d="M489.225,-264.795C514.638,-267.173 545.676,-270.078 573.046,-272.64"/>
<polygon fill="midnightblue" stroke="midnightblue" points="573.055,-276.156 583.337,-273.603 573.707,-269.186 573.055,-276.156"/>
</g>
<!-- Node20&#45;&gt;Node5 -->
<g id="edge24" class="edge"><title>Node20&#45;&gt;Node5</title>
<path fill="none" stroke="midnightblue" d="M488.702,-302.745C511.306,-304.861 538.439,-307.401 563.501,-309.746"/>
<polygon fill="midnightblue" stroke="midnightblue" points="563.442,-313.256 573.724,-310.703 564.094,-306.287 563.442,-313.256"/>
</g>
<!-- Node20&#45;&gt;Node9 -->
<g id="edge25" class="edge"><title>Node20&#45;&gt;Node9</title>
<path fill="none" stroke="midnightblue" d="M488.929,-289.472C501.251,-286.737 514.251,-283.277 526,-279 543,-272.811 545.073,-266.387 562,-260 568.714,-257.466 575.88,-255.189 583.053,-253.167"/>
<polygon fill="midnightblue" stroke="midnightblue" points="584.036,-256.527 592.796,-250.567 582.231,-249.764 584.036,-256.527"/>
</g>
<!-- Node20&#45;&gt;Node19 -->
<g id="edge23" class="edge"><title>Node20&#45;&gt;Node19</title>
<path fill="none" stroke="midnightblue" d="M488.702,-293.255C514.327,-290.856 545.772,-287.913 573.422,-285.325"/>
<polygon fill="midnightblue" stroke="midnightblue" points="573.789,-288.806 583.419,-284.389 573.136,-281.837 573.789,-288.806"/>
</g>
</g>
</svg>
