<?xml version="1.0" encoding="UTF-8" standalone="no"?>
<!DOCTYPE svg PUBLIC "-//W3C//DTD SVG 1.1//EN"
 "http://www.w3.org/Graphics/SVG/1.1/DTD/svg11.dtd">
<!-- Generated by graphviz version 2.36.0 (20140111.2315)
 -->
<!-- Title: view.SLogoView.configureUI Pages: 1 -->
<svg width="1332pt" height="154pt"
 viewBox="0.00 0.00 1332.00 154.00" xmlns="http://www.w3.org/2000/svg" xmlns:xlink="http://www.w3.org/1999/xlink">
<g id="graph0" class="graph" transform="scale(1 1) rotate(0) translate(4 150)">
<title>view.SLogoView.configureUI</title>
<polygon fill="white" stroke="none" points="-4,4 -4,-150 1328,-150 1328,4 -4,4"/>
<!-- Node1 -->
<g id="node1" class="node"><title>Node1</title>
<polygon fill="#bfbfbf" stroke="black" points="0.5,-30.5 0.5,-49.5 147.5,-49.5 147.5,-30.5 0.5,-30.5"/>
<text text-anchor="middle" x="74" y="-37.5" font-family="Helvetica,sans-Serif" font-size="10.00">view.SLogoView.configureUI</text>
</g>
<!-- Node2 -->
<g id="node2" class="node"><title>Node2</title>
<g id="a_node2"><a xlink:href="../../d6/de7/classview_1_1_s_logo_view.html#acf432f20e1a7dda7bef97f0619fb0fa5" target="_top" xlink:title="view.SLogoView.configure\lAddTurtlesButton">
<polygon fill="white" stroke="black" points="191.5,-50 191.5,-80 328.5,-80 328.5,-50 191.5,-50"/>
<text text-anchor="start" x="199.5" y="-68" font-family="Helvetica,sans-Serif" font-size="10.00">view.SLogoView.configure</text>
<text text-anchor="middle" x="260" y="-57" font-family="Helvetica,sans-Serif" font-size="10.00">AddTurtlesButton</text>
</a>
</g>
</g>
<!-- Node1&#45;&gt;Node2 -->
<g id="edge1" class="edge"><title>Node1&#45;&gt;Node2</title>
<path fill="none" stroke="midnightblue" d="M145.087,-49.5227C156.91,-51.129 169.244,-52.8049 181.247,-54.4358"/>
<polygon fill="midnightblue" stroke="midnightblue" points="180.853,-57.9143 191.233,-55.7926 181.796,-50.978 180.853,-57.9143"/>
</g>
<!-- Node14 -->
<g id="node14" class="node"><title>Node14</title>
<g id="a_node14"><a xlink:href="../../d6/de7/classview_1_1_s_logo_view.html#acaf3f13ffb1cb6bbab33a6560cc80757" target="_top" xlink:title="view.SLogoView.setGridPane\lConstraints">
<polygon fill="white" stroke="black" points="184.5,-1 184.5,-31 335.5,-31 335.5,-1 184.5,-1"/>
<text text-anchor="start" x="192.5" y="-19" font-family="Helvetica,sans-Serif" font-size="10.00">view.SLogoView.setGridPane</text>
<text text-anchor="middle" x="260" y="-8" font-family="Helvetica,sans-Serif" font-size="10.00">Constraints</text>
</a>
</g>
</g>
<!-- Node1&#45;&gt;Node14 -->
<g id="edge15" class="edge"><title>Node1&#45;&gt;Node14</title>
<path fill="none" stroke="midnightblue" d="M147.722,-30.5146C156.48,-29.3722 165.482,-28.198 174.391,-27.0359"/>
<polygon fill="midnightblue" stroke="midnightblue" points="174.929,-30.4955 184.392,-25.7314 174.024,-23.5543 174.929,-30.4955"/>
</g>
<!-- Node3 -->
<g id="node3" class="node"><title>Node3</title>
<g id="a_node3"><a xlink:href="../../da/d64/classview_1_1_workspace.html#a4abde41a3048fa8f64ddfec40c8ffdb7" target="_top" xlink:title="view.Workspace.addTurtle">
<polygon fill="white" stroke="black" points="372.5,-55.5 372.5,-74.5 509.5,-74.5 509.5,-55.5 372.5,-55.5"/>
<text text-anchor="middle" x="441" y="-62.5" font-family="Helvetica,sans-Serif" font-size="10.00">view.Workspace.addTurtle</text>
</a>
</g>
</g>
<!-- Node2&#45;&gt;Node3 -->
<g id="edge2" class="edge"><title>Node2&#45;&gt;Node3</title>
<path fill="none" stroke="midnightblue" d="M328.672,-65C339.587,-65 350.964,-65 362.097,-65"/>
<polygon fill="midnightblue" stroke="midnightblue" points="362.232,-68.5001 372.232,-65 362.232,-61.5001 362.232,-68.5001"/>
</g>
<!-- Node4 -->
<g id="node4" class="node"><title>Node4</title>
<g id="a_node4"><a xlink:href="../../da/d64/classview_1_1_workspace.html#a9eea72f983d5e7ad5af85056d927e380" target="_top" xlink:title="view.Workspace.configure\lTurtleEventHandler">
<polygon fill="white" stroke="black" points="566.5,-99 566.5,-129 703.5,-129 703.5,-99 566.5,-99"/>
<text text-anchor="start" x="574.5" y="-117" font-family="Helvetica,sans-Serif" font-size="10.00">view.Workspace.configure</text>
<text text-anchor="middle" x="635" y="-106" font-family="Helvetica,sans-Serif" font-size="10.00">TurtleEventHandler</text>
</a>
</g>
</g>
<!-- Node3&#45;&gt;Node4 -->
<g id="edge3" class="edge"><title>Node3&#45;&gt;Node4</title>
<path fill="none" stroke="midnightblue" d="M479.475,-74.564C503.783,-80.7676 536.186,-89.0371 565.041,-96.401"/>
<polygon fill="midnightblue" stroke="midnightblue" points="564.525,-99.8814 575.08,-98.963 566.256,-93.0988 564.525,-99.8814"/>
</g>
<!-- Node11 -->
<g id="node11" class="node"><title>Node11</title>
<g id="a_node11"><a xlink:href="../../d1/dca/classmodel_1_1_execution_environment.html#a96986e0e8de018fd9b1b2bf79de862e1" target="_top" xlink:title="model.ExecutionEnvironment.add\lTurtle">
<polygon fill="white" stroke="black" points="546,-50 546,-80 724,-80 724,-50 546,-50"/>
<text text-anchor="start" x="554" y="-68" font-family="Helvetica,sans-Serif" font-size="10.00">model.ExecutionEnvironment.add</text>
<text text-anchor="middle" x="635" y="-57" font-family="Helvetica,sans-Serif" font-size="10.00">Turtle</text>
</a>
</g>
</g>
<!-- Node3&#45;&gt;Node11 -->
<g id="edge11" class="edge"><title>Node3&#45;&gt;Node11</title>
<path fill="none" stroke="midnightblue" d="M509.692,-65C518.073,-65 526.77,-65 535.494,-65"/>
<polygon fill="midnightblue" stroke="midnightblue" points="535.731,-68.5001 545.731,-65 535.731,-61.5001 535.731,-68.5001"/>
</g>
<!-- Node13 -->
<g id="node13" class="node"><title>Node13</title>
<g id="a_node13"><a xlink:href="../../d1/dca/classmodel_1_1_execution_environment.html#a472ef4da5205b0e95ec51fdbf52f654a" target="_top" xlink:title="model.ExecutionEnvironment.set\lActiveTurtle">
<polygon fill="white" stroke="black" points="547.5,-1 547.5,-31 722.5,-31 722.5,-1 547.5,-1"/>
<text text-anchor="start" x="555.5" y="-19" font-family="Helvetica,sans-Serif" font-size="10.00">model.ExecutionEnvironment.set</text>
<text text-anchor="middle" x="635" y="-8" font-family="Helvetica,sans-Serif" font-size="10.00">ActiveTurtle</text>
</a>
</g>
</g>
<!-- Node3&#45;&gt;Node13 -->
<g id="edge13" class="edge"><title>Node3&#45;&gt;Node13</title>
<path fill="none" stroke="midnightblue" d="M479.475,-55.436C503.783,-49.2324 536.186,-40.9629 565.041,-33.599"/>
<polygon fill="midnightblue" stroke="midnightblue" points="566.256,-36.9012 575.08,-31.037 564.525,-30.1186 566.256,-36.9012"/>
</g>
<!-- Node5 -->
<g id="node5" class="node"><title>Node5</title>
<g id="a_node5"><a xlink:href="../../da/d64/classview_1_1_workspace.html#a16bda9a6a7fe7f8d3d7b09108675f9c4" target="_top" xlink:title="view.Workspace.setActive\lTurtle">
<polygon fill="white" stroke="black" points="788.5,-77 788.5,-107 925.5,-107 925.5,-77 788.5,-77"/>
<text text-anchor="start" x="796.5" y="-95" font-family="Helvetica,sans-Serif" font-size="10.00">view.Workspace.setActive</text>
<text text-anchor="middle" x="857" y="-84" font-family="Helvetica,sans-Serif" font-size="10.00">Turtle</text>
</a>
</g>
</g>
<!-- Node4&#45;&gt;Node5 -->
<g id="edge4" class="edge"><title>Node4&#45;&gt;Node5</title>
<path fill="none" stroke="midnightblue" d="M703.502,-107.25C727.043,-104.896 753.652,-102.235 777.977,-99.8023"/>
<polygon fill="midnightblue" stroke="midnightblue" points="778.644,-103.253 788.246,-98.7754 777.948,-96.2879 778.644,-103.253"/>
</g>
<!-- Node7 -->
<g id="node7" class="node"><title>Node7</title>
<g id="a_node7"><a xlink:href="../../d8/df7/classview_1_1_turtle_view.html#ab5fdc3775e06339f4a68d1b795a81643" target="_top" xlink:title="view.TurtleView.getID">
<polygon fill="white" stroke="black" points="1187,-126.5 1187,-145.5 1301,-145.5 1301,-126.5 1187,-126.5"/>
<text text-anchor="middle" x="1244" y="-133.5" font-family="Helvetica,sans-Serif" font-size="10.00">view.TurtleView.getID</text>
</a>
</g>
</g>
<!-- Node4&#45;&gt;Node7 -->
<g id="edge10" class="edge"><title>Node4&#45;&gt;Node7</title>
<path fill="none" stroke="midnightblue" d="M703.571,-116.449C820.708,-120.695 1060.07,-129.37 1176.48,-133.589"/>
<polygon fill="midnightblue" stroke="midnightblue" points="1176.55,-137.094 1186.67,-133.958 1176.81,-130.098 1176.55,-137.094"/>
</g>
<!-- Node6 -->
<g id="node6" class="node"><title>Node6</title>
<g id="a_node6"><a xlink:href="../../d1/dc7/classview_1_1_side_bar.html#a7d73038dbba05f96990b60664afa2670" target="_top" xlink:title="view.SideBar.updateTurtle\lProperties">
<polygon fill="white" stroke="black" points="990,-77 990,-107 1128,-107 1128,-77 990,-77"/>
<text text-anchor="start" x="998" y="-95" font-family="Helvetica,sans-Serif" font-size="10.00">view.SideBar.updateTurtle</text>
<text text-anchor="middle" x="1059" y="-84" font-family="Helvetica,sans-Serif" font-size="10.00">Properties</text>
</a>
</g>
</g>
<!-- Node5&#45;&gt;Node6 -->
<g id="edge5" class="edge"><title>Node5&#45;&gt;Node6</title>
<path fill="none" stroke="midnightblue" d="M925.711,-92C942.952,-92 961.628,-92 979.363,-92"/>
<polygon fill="midnightblue" stroke="midnightblue" points="979.678,-95.5001 989.678,-92 979.678,-88.5001 979.678,-95.5001"/>
</g>
<!-- Node6&#45;&gt;Node7 -->
<g id="edge6" class="edge"><title>Node6&#45;&gt;Node7</title>
<path fill="none" stroke="midnightblue" d="M1122.47,-107.019C1145.72,-112.611 1171.77,-118.874 1193.68,-124.143"/>
<polygon fill="midnightblue" stroke="midnightblue" points="1192.9,-127.553 1203.44,-126.488 1194.53,-120.747 1192.9,-127.553"/>
</g>
<!-- Node8 -->
<g id="node8" class="node"><title>Node8</title>
<g id="a_node8"><a xlink:href="../../d8/df7/classview_1_1_turtle_view.html#a85b9acc922cc69f27c79bf13e3356e09" target="_top" xlink:title="view.TurtleView.getPenPosition">
<polygon fill="white" stroke="black" points="1164,-88.5 1164,-107.5 1324,-107.5 1324,-88.5 1164,-88.5"/>
<text text-anchor="middle" x="1244" y="-95.5" font-family="Helvetica,sans-Serif" font-size="10.00">view.TurtleView.getPenPosition</text>
</a>
</g>
</g>
<!-- Node6&#45;&gt;Node8 -->
<g id="edge7" class="edge"><title>Node6&#45;&gt;Node8</title>
<path fill="none" stroke="midnightblue" d="M1128.14,-94.2342C1136.47,-94.5072 1145.07,-94.7892 1153.65,-95.0705"/>
<polygon fill="midnightblue" stroke="midnightblue" points="1153.58,-98.57 1163.69,-95.3997 1153.81,-91.5738 1153.58,-98.57"/>
</g>
<!-- Node9 -->
<g id="node9" class="node"><title>Node9</title>
<g id="a_node9"><a xlink:href="../../da/d64/classview_1_1_workspace.html#ad460da1164f039e5ea9a265d446d13fe" target="_top" xlink:title="view.Workspace.getTurtleMap">
<polygon fill="white" stroke="black" points="1166.5,-50.5 1166.5,-69.5 1321.5,-69.5 1321.5,-50.5 1166.5,-50.5"/>
<text text-anchor="middle" x="1244" y="-57.5" font-family="Helvetica,sans-Serif" font-size="10.00">view.Workspace.getTurtleMap</text>
</a>
</g>
</g>
<!-- Node6&#45;&gt;Node9 -->
<g id="edge8" class="edge"><title>Node6&#45;&gt;Node9</title>
<path fill="none" stroke="midnightblue" d="M1128.14,-80.0844C1144.64,-77.2001 1162.22,-74.1261 1178.54,-71.2726"/>
<polygon fill="midnightblue" stroke="midnightblue" points="1179.26,-74.6982 1188.51,-69.5279 1178.06,-67.8028 1179.26,-74.6982"/>
</g>
<!-- Node10 -->
<g id="node10" class="node"><title>Node10</title>
<g id="a_node10"><a xlink:href="../../d8/df7/classview_1_1_turtle_view.html#a5f7b22cd8ab69258535b18920a488b63" target="_top" xlink:title="view.TurtleView.isShowing">
<polygon fill="white" stroke="black" points="1176,-12.5 1176,-31.5 1312,-31.5 1312,-12.5 1176,-12.5"/>
<text text-anchor="middle" x="1244" y="-19.5" font-family="Helvetica,sans-Serif" font-size="10.00">view.TurtleView.isShowing</text>
</a>
</g>
</g>
<!-- Node6&#45;&gt;Node10 -->
<g id="edge9" class="edge"><title>Node6&#45;&gt;Node10</title>
<path fill="none" stroke="midnightblue" d="M1086.66,-76.8952C1107.26,-65.7293 1136.76,-50.82 1164,-41 1171.01,-38.4721 1178.5,-36.1783 1185.96,-34.1296"/>
<polygon fill="midnightblue" stroke="midnightblue" points="1186.92,-37.4948 1195.71,-31.5785 1185.15,-30.7226 1186.92,-37.4948"/>
</g>
<!-- Node12 -->
<g id="node12" class="node"><title>Node12</title>
<g id="a_node12"><a xlink:href="../../d1/dca/classmodel_1_1_execution_environment.html#a93fd01341f06dfa81727344b120aef66" target="_top" xlink:title="model.ExecutionEnvironment.update\lObserver">
<polygon fill="white" stroke="black" points="760,-26 760,-56 954,-56 954,-26 760,-26"/>
<text text-anchor="start" x="768" y="-44" font-family="Helvetica,sans-Serif" font-size="10.00">model.ExecutionEnvironment.update</text>
<text text-anchor="middle" x="857" y="-33" font-family="Helvetica,sans-Serif" font-size="10.00">Observer</text>
</a>
</g>
</g>
<!-- Node11&#45;&gt;Node12 -->
<g id="edge12" class="edge"><title>Node11&#45;&gt;Node12</title>
<path fill="none" stroke="midnightblue" d="M724.215,-55.3766C732.635,-54.458 741.233,-53.5201 749.8,-52.5855"/>
<polygon fill="midnightblue" stroke="midnightblue" points="750.268,-56.0552 759.83,-51.4913 749.509,-49.0965 750.268,-56.0552"/>
</g>
<!-- Node13&#45;&gt;Node12 -->
<g id="edge14" class="edge"><title>Node13&#45;&gt;Node12</title>
<path fill="none" stroke="midnightblue" d="M722.634,-25.8448C731.641,-26.8683 740.867,-27.9167 750.055,-28.9608"/>
<polygon fill="midnightblue" stroke="midnightblue" points="749.667,-32.4392 759.999,-30.0907 750.458,-25.4839 749.667,-32.4392"/>
</g>
</g>
</svg>
