<?xml version="1.0" encoding="UTF-8" standalone="no"?>
<!DOCTYPE svg PUBLIC "-//W3C//DTD SVG 1.1//EN"
 "http://www.w3.org/Graphics/SVG/1.1/DTD/svg11.dtd">
<!-- Generated by graphviz version 2.36.0 (20140111.2315)
 -->
<!-- Title: view.SLogoView.setPenUp Pages: 1 -->
<svg width="518pt" height="142pt"
 viewBox="0.00 0.00 518.00 142.00" xmlns="http://www.w3.org/2000/svg" xmlns:xlink="http://www.w3.org/1999/xlink">
<g id="graph0" class="graph" transform="scale(1 1) rotate(0) translate(4 138)">
<title>view.SLogoView.setPenUp</title>
<polygon fill="white" stroke="none" points="-4,4 -4,-138 514,-138 514,4 -4,4"/>
<!-- Node1 -->
<g id="node1" class="node"><title>Node1</title>
<polygon fill="#bfbfbf" stroke="black" points="0,-92.5 0,-111.5 140,-111.5 140,-92.5 0,-92.5"/>
<text text-anchor="middle" x="70" y="-99.5" font-family="Helvetica,sans-Serif" font-size="10.00">view.SLogoView.setPenUp</text>
</g>
<!-- Node2 -->
<g id="node2" class="node"><title>Node2</title>
<g id="a_node2"><a xlink:href="../../da/d64/classview_1_1_workspace.html#ad460da1164f039e5ea9a265d446d13fe" target="_top" xlink:title="view.Workspace.getTurtleMap">
<polygon fill="white" stroke="black" points="352.5,-114.5 352.5,-133.5 507.5,-133.5 507.5,-114.5 352.5,-114.5"/>
<text text-anchor="middle" x="430" y="-121.5" font-family="Helvetica,sans-Serif" font-size="10.00">view.Workspace.getTurtleMap</text>
</a>
</g>
</g>
<!-- Node1&#45;&gt;Node2 -->
<g id="edge1" class="edge"><title>Node1&#45;&gt;Node2</title>
<path fill="none" stroke="midnightblue" d="M140.026,-106.242C197.671,-109.784 280.159,-114.853 342.259,-118.67"/>
<polygon fill="midnightblue" stroke="midnightblue" points="342.238,-122.175 352.433,-119.295 342.667,-115.188 342.238,-122.175"/>
</g>
<!-- Node3 -->
<g id="node3" class="node"><title>Node3</title>
<g id="a_node3"><a xlink:href="../../d1/dc7/classview_1_1_side_bar.html#a7d73038dbba05f96990b60664afa2670" target="_top" xlink:title="view.SideBar.updateTurtle\lProperties">
<polygon fill="white" stroke="black" points="176,-65 176,-95 314,-95 314,-65 176,-65"/>
<text text-anchor="start" x="184" y="-83" font-family="Helvetica,sans-Serif" font-size="10.00">view.SideBar.updateTurtle</text>
<text text-anchor="middle" x="245" y="-72" font-family="Helvetica,sans-Serif" font-size="10.00">Properties</text>
</a>
</g>
</g>
<!-- Node1&#45;&gt;Node3 -->
<g id="edge2" class="edge"><title>Node1&#45;&gt;Node3</title>
<path fill="none" stroke="midnightblue" d="M140.369,-93.1785C148.656,-92.1247 157.161,-91.0431 165.565,-89.9744"/>
<polygon fill="midnightblue" stroke="midnightblue" points="166.264,-93.4138 175.742,-88.6802 165.381,-86.4697 166.264,-93.4138"/>
</g>
<!-- Node3&#45;&gt;Node2 -->
<g id="edge5" class="edge"><title>Node3&#45;&gt;Node2</title>
<path fill="none" stroke="midnightblue" d="M308.466,-95.0192C331.722,-100.611 357.769,-106.874 379.684,-112.143"/>
<polygon fill="midnightblue" stroke="midnightblue" points="378.896,-115.553 389.437,-114.488 380.532,-108.747 378.896,-115.553"/>
</g>
<!-- Node4 -->
<g id="node4" class="node"><title>Node4</title>
<g id="a_node4"><a xlink:href="../../d8/df7/classview_1_1_turtle_view.html#ab5fdc3775e06339f4a68d1b795a81643" target="_top" xlink:title="view.TurtleView.getID">
<polygon fill="white" stroke="black" points="373,-76.5 373,-95.5 487,-95.5 487,-76.5 373,-76.5"/>
<text text-anchor="middle" x="430" y="-83.5" font-family="Helvetica,sans-Serif" font-size="10.00">view.TurtleView.getID</text>
</a>
</g>
</g>
<!-- Node3&#45;&gt;Node4 -->
<g id="edge3" class="edge"><title>Node3&#45;&gt;Node4</title>
<path fill="none" stroke="midnightblue" d="M314.142,-82.2342C329.981,-82.7535 346.82,-83.3056 362.583,-83.8224"/>
<polygon fill="midnightblue" stroke="midnightblue" points="362.655,-87.3265 372.765,-84.1562 362.885,-80.3303 362.655,-87.3265"/>
</g>
<!-- Node5 -->
<g id="node5" class="node"><title>Node5</title>
<g id="a_node5"><a xlink:href="../../d8/df7/classview_1_1_turtle_view.html#a85b9acc922cc69f27c79bf13e3356e09" target="_top" xlink:title="view.TurtleView.getPenPosition">
<polygon fill="white" stroke="black" points="350,-38.5 350,-57.5 510,-57.5 510,-38.5 350,-38.5"/>
<text text-anchor="middle" x="430" y="-45.5" font-family="Helvetica,sans-Serif" font-size="10.00">view.TurtleView.getPenPosition</text>
</a>
</g>
</g>
<!-- Node3&#45;&gt;Node5 -->
<g id="edge4" class="edge"><title>Node3&#45;&gt;Node5</title>
<path fill="none" stroke="midnightblue" d="M314.142,-68.0844C330.637,-65.2001 348.216,-62.1261 364.535,-59.2726"/>
<polygon fill="midnightblue" stroke="midnightblue" points="365.264,-62.6982 374.512,-57.5279 364.059,-55.8028 365.264,-62.6982"/>
</g>
<!-- Node6 -->
<g id="node6" class="node"><title>Node6</title>
<g id="a_node6"><a xlink:href="../../d8/df7/classview_1_1_turtle_view.html#a5f7b22cd8ab69258535b18920a488b63" target="_top" xlink:title="view.TurtleView.isShowing">
<polygon fill="white" stroke="black" points="362,-0.5 362,-19.5 498,-19.5 498,-0.5 362,-0.5"/>
<text text-anchor="middle" x="430" y="-7.5" font-family="Helvetica,sans-Serif" font-size="10.00">view.TurtleView.isShowing</text>
</a>
</g>
</g>
<!-- Node3&#45;&gt;Node6 -->
<g id="edge6" class="edge"><title>Node3&#45;&gt;Node6</title>
<path fill="none" stroke="midnightblue" d="M272.658,-64.8952C293.257,-53.7293 322.758,-38.82 350,-29 357.013,-26.4721 364.496,-24.1783 371.958,-22.1296"/>
<polygon fill="midnightblue" stroke="midnightblue" points="372.923,-25.4948 381.712,-19.5785 371.152,-18.7226 372.923,-25.4948"/>
</g>
</g>
</svg>
