<?xml version="1.0" encoding="UTF-8" standalone="no"?>
<!DOCTYPE svg PUBLIC "-//W3C//DTD SVG 1.1//EN"
 "http://www.w3.org/Graphics/SVG/1.1/DTD/svg11.dtd">
<!-- Generated by graphviz version 2.36.0 (20140111.2315)
 -->
<!-- Title: view.SLogoView.openDialog Pages: 1 -->
<svg width="1014pt" height="66pt"
 viewBox="0.00 0.00 1014.00 66.00" xmlns="http://www.w3.org/2000/svg" xmlns:xlink="http://www.w3.org/1999/xlink">
<g id="graph0" class="graph" transform="scale(1 1) rotate(0) translate(4 62)">
<title>view.SLogoView.openDialog</title>
<polygon fill="white" stroke="none" points="-4,4 -4,-62 1010,-62 1010,4 -4,4"/>
<!-- Node1 -->
<g id="node1" class="node"><title>Node1</title>
<polygon fill="#bfbfbf" stroke="black" points="0.5,-19.5 0.5,-38.5 147.5,-38.5 147.5,-19.5 0.5,-19.5"/>
<text text-anchor="middle" x="74" y="-26.5" font-family="Helvetica,sans-Serif" font-size="10.00">view.SLogoView.openDialog</text>
</g>
<!-- Node2 -->
<g id="node2" class="node"><title>Node2</title>
<g id="a_node2"><a xlink:href="../../dc/df5/classmodel_1_1_parser.html#ae83c95a5190fc22b9b70b1a40b76661c" target="_top" xlink:title="model.Parser.makeTree">
<polygon fill="white" stroke="black" points="184,-38.5 184,-57.5 312,-57.5 312,-38.5 184,-38.5"/>
<text text-anchor="middle" x="248" y="-45.5" font-family="Helvetica,sans-Serif" font-size="10.00">model.Parser.makeTree</text>
</a>
</g>
</g>
<!-- Node1&#45;&gt;Node2 -->
<g id="edge1" class="edge"><title>Node1&#45;&gt;Node2</title>
<path fill="none" stroke="midnightblue" d="M158.047,-38.1738C166.686,-39.1281 175.366,-40.0869 183.736,-41.0115"/>
<polygon fill="midnightblue" stroke="midnightblue" points="158.267,-34.6769 147.943,-37.0577 157.499,-41.6346 158.267,-34.6769"/>
</g>
<!-- Node3 -->
<g id="node3" class="node"><title>Node3</title>
<g id="a_node3"><a xlink:href="../../dc/df5/classmodel_1_1_parser.html#ab83c099e5a13c82b1a12d7eedda6fbf9" target="_top" xlink:title="model.Parser.parseAndExecute">
<polygon fill="white" stroke="black" points="348,-19.5 348,-38.5 514,-38.5 514,-19.5 348,-19.5"/>
<text text-anchor="middle" x="431" y="-26.5" font-family="Helvetica,sans-Serif" font-size="10.00">model.Parser.parseAndExecute</text>
</a>
</g>
</g>
<!-- Node1&#45;&gt;Node3 -->
<g id="edge7" class="edge"><title>Node1&#45;&gt;Node3</title>
<path fill="none" stroke="midnightblue" d="M157.788,-29C214.975,-29 290.71,-29 347.774,-29"/>
<polygon fill="midnightblue" stroke="midnightblue" points="157.696,-25.5001 147.696,-29 157.696,-32.5001 157.696,-25.5001"/>
</g>
<!-- Node2&#45;&gt;Node3 -->
<g id="edge2" class="edge"><title>Node2&#45;&gt;Node3</title>
<path fill="none" stroke="midnightblue" d="M322.192,-40.3168C330.608,-39.4334 339.231,-38.5283 347.755,-37.6334"/>
<polygon fill="midnightblue" stroke="midnightblue" points="321.631,-36.8564 312.051,-41.3814 322.362,-43.8182 321.631,-36.8564"/>
</g>
<!-- Node4 -->
<g id="node4" class="node"><title>Node4</title>
<g id="a_node4"><a xlink:href="../../d4/dd9/classcontroller_1_1_s_logo_controller.html#a1a88b376059e31c3f311d75fa640d848" target="_top" xlink:title="controller.SLogoController.parse\lInput">
<polygon fill="white" stroke="black" points="550,-14 550,-44 720,-44 720,-14 550,-14"/>
<text text-anchor="start" x="558" y="-32" font-family="Helvetica,sans-Serif" font-size="10.00">controller.SLogoController.parse</text>
<text text-anchor="middle" x="635" y="-21" font-family="Helvetica,sans-Serif" font-size="10.00">Input</text>
</a>
</g>
</g>
<!-- Node3&#45;&gt;Node4 -->
<g id="edge3" class="edge"><title>Node3&#45;&gt;Node4</title>
<path fill="none" stroke="midnightblue" d="M524.184,-29C532.768,-29 541.438,-29 549.943,-29"/>
<polygon fill="midnightblue" stroke="midnightblue" points="524.161,-25.5001 514.161,-29 524.161,-32.5001 524.161,-25.5001"/>
</g>
<!-- Node5 -->
<g id="node5" class="node"><title>Node5</title>
<g id="a_node5"><a xlink:href="../../da/dc8/classview_1_1_editor.html#a149e24d4e5e4464f3fb1601f2717663b" target="_top" xlink:title="view.Editor.parse">
<polygon fill="white" stroke="black" points="766,-38.5 766,-57.5 862,-57.5 862,-38.5 766,-38.5"/>
<text text-anchor="middle" x="814" y="-45.5" font-family="Helvetica,sans-Serif" font-size="10.00">view.Editor.parse</text>
</a>
</g>
</g>
<!-- Node4&#45;&gt;Node5 -->
<g id="edge4" class="edge"><title>Node4&#45;&gt;Node5</title>
<path fill="none" stroke="midnightblue" d="M730.402,-39.1335C742.656,-40.4489 754.758,-41.748 765.763,-42.9294"/>
<polygon fill="midnightblue" stroke="midnightblue" points="730.41,-35.6144 720.094,-38.027 729.663,-42.5744 730.41,-35.6144"/>
</g>
<!-- Node7 -->
<g id="node7" class="node"><title>Node7</title>
<g id="a_node7"><a xlink:href="../../d1/dc7/classview_1_1_side_bar.html#a715c3a21f73e8d1e00b8f4016a0e3c1d" target="_top" xlink:title="view.SideBar.SideBar">
<polygon fill="white" stroke="black" points="756,-0.5 756,-19.5 872,-19.5 872,-0.5 756,-0.5"/>
<text text-anchor="middle" x="814" y="-7.5" font-family="Helvetica,sans-Serif" font-size="10.00">view.SideBar.SideBar</text>
</a>
</g>
</g>
<!-- Node4&#45;&gt;Node7 -->
<g id="edge6" class="edge"><title>Node4&#45;&gt;Node7</title>
<path fill="none" stroke="midnightblue" d="M730.051,-18.9041C738.859,-17.9586 747.594,-17.021 755.904,-16.129"/>
<polygon fill="midnightblue" stroke="midnightblue" points="729.663,-15.4256 720.094,-19.973 730.41,-22.3856 729.663,-15.4256"/>
</g>
<!-- Node6 -->
<g id="node6" class="node"><title>Node6</title>
<g id="a_node6"><a xlink:href="../../da/dc8/classview_1_1_editor.html#a3905b799edd56b1c60528737ca88ce28" target="_top" xlink:title="view.Editor.Editor">
<polygon fill="white" stroke="black" points="908.5,-38.5 908.5,-57.5 1005.5,-57.5 1005.5,-38.5 908.5,-38.5"/>
<text text-anchor="middle" x="957" y="-45.5" font-family="Helvetica,sans-Serif" font-size="10.00">view.Editor.Editor</text>
</a>
</g>
</g>
<!-- Node5&#45;&gt;Node6 -->
<g id="edge5" class="edge"><title>Node5&#45;&gt;Node6</title>
<path fill="none" stroke="midnightblue" d="M872.547,-48C884.345,-48 896.644,-48 908.061,-48"/>
<polygon fill="midnightblue" stroke="midnightblue" points="872.343,-44.5001 862.343,-48 872.343,-51.5001 872.343,-44.5001"/>
</g>
</g>
</svg>
