<?xml version="1.0" encoding="UTF-8" standalone="no"?>
<!DOCTYPE svg PUBLIC "-//W3C//DTD SVG 1.1//EN"
 "http://www.w3.org/Graphics/SVG/1.1/DTD/svg11.dtd">
<!-- Generated by graphviz version 2.36.0 (20140111.2315)
 -->
<!-- Title: view.SLogoView.configureTopMenu Pages: 1 -->
<svg width="512pt" height="38pt"
 viewBox="0.00 0.00 512.00 38.00" xmlns="http://www.w3.org/2000/svg" xmlns:xlink="http://www.w3.org/1999/xlink">
<g id="graph0" class="graph" transform="scale(1 1) rotate(0) translate(4 34)">
<title>view.SLogoView.configureTopMenu</title>
<polygon fill="white" stroke="none" points="-4,4 -4,-34 508,-34 508,4 -4,4"/>
<!-- Node1 -->
<g id="node1" class="node"><title>Node1</title>
<polygon fill="#bfbfbf" stroke="black" points="0.5,-0 0.5,-30 137.5,-30 137.5,-0 0.5,-0"/>
<text text-anchor="start" x="8.5" y="-18" font-family="Helvetica,sans-Serif" font-size="10.00">view.SLogoView.configure</text>
<text text-anchor="middle" x="69" y="-7" font-family="Helvetica,sans-Serif" font-size="10.00">TopMenu</text>
</g>
<!-- Node2 -->
<g id="node2" class="node"><title>Node2</title>
<g id="a_node2"><a xlink:href="../../d6/de7/classview_1_1_s_logo_view.html#a28dff1b9cd475d579a4c7a108f4420e6" target="_top" xlink:title="view.SLogoView.configureUI">
<polygon fill="white" stroke="black" points="174.5,-5.5 174.5,-24.5 321.5,-24.5 321.5,-5.5 174.5,-5.5"/>
<text text-anchor="middle" x="248" y="-12.5" font-family="Helvetica,sans-Serif" font-size="10.00">view.SLogoView.configureUI</text>
</a>
</g>
</g>
<!-- Node1&#45;&gt;Node2 -->
<g id="edge1" class="edge"><title>Node1&#45;&gt;Node2</title>
<path fill="none" stroke="midnightblue" d="M147.91,-15C156.702,-15 165.637,-15 174.358,-15"/>
<polygon fill="midnightblue" stroke="midnightblue" points="147.674,-11.5001 137.674,-15 147.674,-18.5001 147.674,-11.5001"/>
</g>
<!-- Node3 -->
<g id="node3" class="node"><title>Node3</title>
<g id="a_node3"><a xlink:href="../../d6/de7/classview_1_1_s_logo_view.html#a94773ea5b6d67211bad051bb0aa42e3e" target="_top" xlink:title="view.SLogoView.SLogoView">
<polygon fill="white" stroke="black" points="358.5,-5.5 358.5,-24.5 503.5,-24.5 503.5,-5.5 358.5,-5.5"/>
<text text-anchor="middle" x="431" y="-12.5" font-family="Helvetica,sans-Serif" font-size="10.00">view.SLogoView.SLogoView</text>
</a>
</g>
</g>
<!-- Node2&#45;&gt;Node3 -->
<g id="edge2" class="edge"><title>Node2&#45;&gt;Node3</title>
<path fill="none" stroke="midnightblue" d="M331.581,-15C340.498,-15 349.518,-15 358.291,-15"/>
<polygon fill="midnightblue" stroke="midnightblue" points="331.577,-11.5001 321.577,-15 331.577,-18.5001 331.577,-11.5001"/>
</g>
</g>
</svg>
