<?xml version="1.0" encoding="UTF-8" standalone="no"?>
<!DOCTYPE svg PUBLIC "-//W3C//DTD SVG 1.1//EN"
 "http://www.w3.org/Graphics/SVG/1.1/DTD/svg11.dtd">
<!-- Generated by graphviz version 2.36.0 (20140111.2315)
 -->
<!-- Title: view.SLogoView.towards Pages: 1 -->
<svg width="694pt" height="142pt"
 viewBox="0.00 0.00 694.00 142.00" xmlns="http://www.w3.org/2000/svg" xmlns:xlink="http://www.w3.org/1999/xlink">
<g id="graph0" class="graph" transform="scale(1 1) rotate(0) translate(4 138)">
<title>view.SLogoView.towards</title>
<polygon fill="white" stroke="none" points="-4,4 -4,-138 690,-138 690,4 -4,4"/>
<!-- Node1 -->
<g id="node1" class="node"><title>Node1</title>
<polygon fill="#bfbfbf" stroke="black" points="0.5,-57.5 0.5,-76.5 131.5,-76.5 131.5,-57.5 0.5,-57.5"/>
<text text-anchor="middle" x="66" y="-64.5" font-family="Helvetica,sans-Serif" font-size="10.00">view.SLogoView.towards</text>
</g>
<!-- Node2 -->
<g id="node2" class="node"><title>Node2</title>
<g id="a_node2"><a xlink:href="../../d6/de7/classview_1_1_s_logo_view.html#ae7ad67f4b629b134cb805842a20f4050" target="_top" xlink:title="view.SLogoView.setHeading">
<polygon fill="white" stroke="black" points="168,-57.5 168,-76.5 316,-76.5 316,-57.5 168,-57.5"/>
<text text-anchor="middle" x="242" y="-64.5" font-family="Helvetica,sans-Serif" font-size="10.00">view.SLogoView.setHeading</text>
</a>
</g>
</g>
<!-- Node1&#45;&gt;Node2 -->
<g id="edge1" class="edge"><title>Node1&#45;&gt;Node2</title>
<path fill="none" stroke="midnightblue" d="M131.791,-67C140.264,-67 149.037,-67 157.761,-67"/>
<polygon fill="midnightblue" stroke="midnightblue" points="157.957,-70.5001 167.957,-67 157.957,-63.5001 157.957,-70.5001"/>
</g>
<!-- Node3 -->
<g id="node3" class="node"><title>Node3</title>
<g id="a_node3"><a xlink:href="../../d1/dc7/classview_1_1_side_bar.html#a7d73038dbba05f96990b60664afa2670" target="_top" xlink:title="view.SideBar.updateTurtle\lProperties">
<polygon fill="white" stroke="black" points="352,-52 352,-82 490,-82 490,-52 352,-52"/>
<text text-anchor="start" x="360" y="-70" font-family="Helvetica,sans-Serif" font-size="10.00">view.SideBar.updateTurtle</text>
<text text-anchor="middle" x="421" y="-59" font-family="Helvetica,sans-Serif" font-size="10.00">Properties</text>
</a>
</g>
</g>
<!-- Node2&#45;&gt;Node3 -->
<g id="edge2" class="edge"><title>Node2&#45;&gt;Node3</title>
<path fill="none" stroke="midnightblue" d="M316.015,-67C324.57,-67 333.325,-67 341.946,-67"/>
<polygon fill="midnightblue" stroke="midnightblue" points="341.984,-70.5001 351.984,-67 341.984,-63.5001 341.984,-70.5001"/>
</g>
<!-- Node4 -->
<g id="node4" class="node"><title>Node4</title>
<g id="a_node4"><a xlink:href="../../d8/df7/classview_1_1_turtle_view.html#ab5fdc3775e06339f4a68d1b795a81643" target="_top" xlink:title="view.TurtleView.getID">
<polygon fill="white" stroke="black" points="549,-114.5 549,-133.5 663,-133.5 663,-114.5 549,-114.5"/>
<text text-anchor="middle" x="606" y="-121.5" font-family="Helvetica,sans-Serif" font-size="10.00">view.TurtleView.getID</text>
</a>
</g>
</g>
<!-- Node3&#45;&gt;Node4 -->
<g id="edge3" class="edge"><title>Node3&#45;&gt;Node4</title>
<path fill="none" stroke="midnightblue" d="M460.171,-82.1347C479.685,-89.5675 503.917,-98.3337 526,-105 534.153,-107.461 542.855,-109.818 551.393,-111.984"/>
<polygon fill="midnightblue" stroke="midnightblue" points="550.75,-115.43 561.297,-114.432 552.429,-108.634 550.75,-115.43"/>
</g>
<!-- Node5 -->
<g id="node5" class="node"><title>Node5</title>
<g id="a_node5"><a xlink:href="../../d8/df7/classview_1_1_turtle_view.html#a85b9acc922cc69f27c79bf13e3356e09" target="_top" xlink:title="view.TurtleView.getPenPosition">
<polygon fill="white" stroke="black" points="526,-76.5 526,-95.5 686,-95.5 686,-76.5 526,-76.5"/>
<text text-anchor="middle" x="606" y="-83.5" font-family="Helvetica,sans-Serif" font-size="10.00">view.TurtleView.getPenPosition</text>
</a>
</g>
</g>
<!-- Node3&#45;&gt;Node5 -->
<g id="edge4" class="edge"><title>Node3&#45;&gt;Node5</title>
<path fill="none" stroke="midnightblue" d="M490.142,-74.0749C498.469,-74.9394 507.072,-75.8326 515.65,-76.7232"/>
<polygon fill="midnightblue" stroke="midnightblue" points="515.382,-80.2141 525.69,-77.7656 516.105,-73.2515 515.382,-80.2141"/>
</g>
<!-- Node6 -->
<g id="node6" class="node"><title>Node6</title>
<g id="a_node6"><a xlink:href="../../da/d64/classview_1_1_workspace.html#ad460da1164f039e5ea9a265d446d13fe" target="_top" xlink:title="view.Workspace.getTurtleMap">
<polygon fill="white" stroke="black" points="528.5,-38.5 528.5,-57.5 683.5,-57.5 683.5,-38.5 528.5,-38.5"/>
<text text-anchor="middle" x="606" y="-45.5" font-family="Helvetica,sans-Serif" font-size="10.00">view.Workspace.getTurtleMap</text>
</a>
</g>
</g>
<!-- Node3&#45;&gt;Node6 -->
<g id="edge5" class="edge"><title>Node3&#45;&gt;Node6</title>
<path fill="none" stroke="midnightblue" d="M490.142,-59.9251C499.322,-58.9721 508.837,-57.9842 518.284,-57.0033"/>
<polygon fill="midnightblue" stroke="midnightblue" points="518.904,-60.4578 528.489,-55.9438 518.181,-53.4953 518.904,-60.4578"/>
</g>
<!-- Node7 -->
<g id="node7" class="node"><title>Node7</title>
<g id="a_node7"><a xlink:href="../../d8/df7/classview_1_1_turtle_view.html#a5f7b22cd8ab69258535b18920a488b63" target="_top" xlink:title="view.TurtleView.isShowing">
<polygon fill="white" stroke="black" points="538,-0.5 538,-19.5 674,-19.5 674,-0.5 538,-0.5"/>
<text text-anchor="middle" x="606" y="-7.5" font-family="Helvetica,sans-Serif" font-size="10.00">view.TurtleView.isShowing</text>
</a>
</g>
</g>
<!-- Node3&#45;&gt;Node7 -->
<g id="edge6" class="edge"><title>Node3&#45;&gt;Node7</title>
<path fill="none" stroke="midnightblue" d="M460.171,-51.8653C479.685,-44.4325 503.917,-35.6663 526,-29 534.153,-26.5388 542.855,-24.1817 551.393,-22.0165"/>
<polygon fill="midnightblue" stroke="midnightblue" points="552.429,-25.3656 561.297,-19.5681 550.75,-18.5702 552.429,-25.3656"/>
</g>
</g>
</svg>
