<?xml version="1.0" encoding="UTF-8" standalone="no"?>
<!DOCTYPE svg PUBLIC "-//W3C//DTD SVG 1.1//EN"
 "http://www.w3.org/Graphics/SVG/1.1/DTD/svg11.dtd">
<!-- Generated by graphviz version 2.36.0 (20140111.2315)
 -->
<!-- Title: view.Workspace.configureTurtleEventHandler Pages: 1 -->
<svg width="690pt" height="142pt"
 viewBox="0.00 0.00 690.00 142.00" xmlns="http://www.w3.org/2000/svg" xmlns:xlink="http://www.w3.org/1999/xlink">
<g id="graph0" class="graph" transform="scale(1 1) rotate(0) translate(4 138)">
<title>view.Workspace.configureTurtleEventHandler</title>
<polygon fill="white" stroke="none" points="-4,4 -4,-138 686,-138 686,4 -4,4"/>
<!-- Node1 -->
<g id="node1" class="node"><title>Node1</title>
<polygon fill="#bfbfbf" stroke="black" points="0.5,-87 0.5,-117 137.5,-117 137.5,-87 0.5,-87"/>
<text text-anchor="start" x="8.5" y="-105" font-family="Helvetica,sans-Serif" font-size="10.00">view.Workspace.configure</text>
<text text-anchor="middle" x="69" y="-94" font-family="Helvetica,sans-Serif" font-size="10.00">TurtleEventHandler</text>
</g>
<!-- Node2 -->
<g id="node2" class="node"><title>Node2</title>
<g id="a_node2"><a xlink:href="../../d8/df7/classview_1_1_turtle_view.html#ab5fdc3775e06339f4a68d1b795a81643" target="_top" xlink:title="view.TurtleView.getID">
<polygon fill="white" stroke="black" points="545,-114.5 545,-133.5 659,-133.5 659,-114.5 545,-114.5"/>
<text text-anchor="middle" x="602" y="-121.5" font-family="Helvetica,sans-Serif" font-size="10.00">view.TurtleView.getID</text>
</a>
</g>
</g>
<!-- Node1&#45;&gt;Node2 -->
<g id="edge1" class="edge"><title>Node1&#45;&gt;Node2</title>
<path fill="none" stroke="midnightblue" d="M137.521,-104.797C239.873,-109.038 433.104,-117.044 534.718,-121.254"/>
<polygon fill="midnightblue" stroke="midnightblue" points="534.719,-124.757 544.855,-121.674 535.009,-117.763 534.719,-124.757"/>
</g>
<!-- Node3 -->
<g id="node3" class="node"><title>Node3</title>
<g id="a_node3"><a xlink:href="../../da/d64/classview_1_1_workspace.html#a16bda9a6a7fe7f8d3d7b09108675f9c4" target="_top" xlink:title="view.Workspace.setActive\lTurtle">
<polygon fill="white" stroke="black" points="174.5,-65 174.5,-95 311.5,-95 311.5,-65 174.5,-65"/>
<text text-anchor="start" x="182.5" y="-83" font-family="Helvetica,sans-Serif" font-size="10.00">view.Workspace.setActive</text>
<text text-anchor="middle" x="243" y="-72" font-family="Helvetica,sans-Serif" font-size="10.00">Turtle</text>
</a>
</g>
</g>
<!-- Node1&#45;&gt;Node3 -->
<g id="edge2" class="edge"><title>Node1&#45;&gt;Node3</title>
<path fill="none" stroke="midnightblue" d="M137.979,-93.305C146.55,-92.2087 155.372,-91.0804 164.082,-89.9663"/>
<polygon fill="midnightblue" stroke="midnightblue" points="164.758,-93.4084 174.233,-88.6678 163.87,-86.4649 164.758,-93.4084"/>
</g>
<!-- Node4 -->
<g id="node4" class="node"><title>Node4</title>
<g id="a_node4"><a xlink:href="../../d1/dc7/classview_1_1_side_bar.html#a7d73038dbba05f96990b60664afa2670" target="_top" xlink:title="view.SideBar.updateTurtle\lProperties">
<polygon fill="white" stroke="black" points="348,-65 348,-95 486,-95 486,-65 348,-65"/>
<text text-anchor="start" x="356" y="-83" font-family="Helvetica,sans-Serif" font-size="10.00">view.SideBar.updateTurtle</text>
<text text-anchor="middle" x="417" y="-72" font-family="Helvetica,sans-Serif" font-size="10.00">Properties</text>
</a>
</g>
</g>
<!-- Node3&#45;&gt;Node4 -->
<g id="edge3" class="edge"><title>Node3&#45;&gt;Node4</title>
<path fill="none" stroke="midnightblue" d="M311.979,-80C320.483,-80 329.233,-80 337.876,-80"/>
<polygon fill="midnightblue" stroke="midnightblue" points="337.952,-83.5001 347.952,-80 337.952,-76.5001 337.952,-83.5001"/>
</g>
<!-- Node4&#45;&gt;Node2 -->
<g id="edge4" class="edge"><title>Node4&#45;&gt;Node2</title>
<path fill="none" stroke="midnightblue" d="M480.466,-95.0192C503.722,-100.611 529.769,-106.874 551.684,-112.143"/>
<polygon fill="midnightblue" stroke="midnightblue" points="550.896,-115.553 561.437,-114.488 552.532,-108.747 550.896,-115.553"/>
</g>
<!-- Node5 -->
<g id="node5" class="node"><title>Node5</title>
<g id="a_node5"><a xlink:href="../../d8/df7/classview_1_1_turtle_view.html#a85b9acc922cc69f27c79bf13e3356e09" target="_top" xlink:title="view.TurtleView.getPenPosition">
<polygon fill="white" stroke="black" points="522,-76.5 522,-95.5 682,-95.5 682,-76.5 522,-76.5"/>
<text text-anchor="middle" x="602" y="-83.5" font-family="Helvetica,sans-Serif" font-size="10.00">view.TurtleView.getPenPosition</text>
</a>
</g>
</g>
<!-- Node4&#45;&gt;Node5 -->
<g id="edge5" class="edge"><title>Node4&#45;&gt;Node5</title>
<path fill="none" stroke="midnightblue" d="M486.142,-82.2342C494.469,-82.5072 503.072,-82.7892 511.65,-83.0705"/>
<polygon fill="midnightblue" stroke="midnightblue" points="511.58,-86.57 521.69,-83.3997 511.81,-79.5738 511.58,-86.57"/>
</g>
<!-- Node6 -->
<g id="node6" class="node"><title>Node6</title>
<g id="a_node6"><a xlink:href="../../da/d64/classview_1_1_workspace.html#ad460da1164f039e5ea9a265d446d13fe" target="_top" xlink:title="view.Workspace.getTurtleMap">
<polygon fill="white" stroke="black" points="524.5,-38.5 524.5,-57.5 679.5,-57.5 679.5,-38.5 524.5,-38.5"/>
<text text-anchor="middle" x="602" y="-45.5" font-family="Helvetica,sans-Serif" font-size="10.00">view.Workspace.getTurtleMap</text>
</a>
</g>
</g>
<!-- Node4&#45;&gt;Node6 -->
<g id="edge6" class="edge"><title>Node4&#45;&gt;Node6</title>
<path fill="none" stroke="midnightblue" d="M486.142,-68.0844C502.637,-65.2001 520.216,-62.1261 536.535,-59.2726"/>
<polygon fill="midnightblue" stroke="midnightblue" points="537.264,-62.6982 546.512,-57.5279 536.059,-55.8028 537.264,-62.6982"/>
</g>
<!-- Node7 -->
<g id="node7" class="node"><title>Node7</title>
<g id="a_node7"><a xlink:href="../../d8/df7/classview_1_1_turtle_view.html#a5f7b22cd8ab69258535b18920a488b63" target="_top" xlink:title="view.TurtleView.isShowing">
<polygon fill="white" stroke="black" points="534,-0.5 534,-19.5 670,-19.5 670,-0.5 534,-0.5"/>
<text text-anchor="middle" x="602" y="-7.5" font-family="Helvetica,sans-Serif" font-size="10.00">view.TurtleView.isShowing</text>
</a>
</g>
</g>
<!-- Node4&#45;&gt;Node7 -->
<g id="edge7" class="edge"><title>Node4&#45;&gt;Node7</title>
<path fill="none" stroke="midnightblue" d="M444.658,-64.8952C465.257,-53.7293 494.758,-38.82 522,-29 529.013,-26.4721 536.496,-24.1783 543.958,-22.1296"/>
<polygon fill="midnightblue" stroke="midnightblue" points="544.923,-25.4948 553.712,-19.5785 543.152,-18.7226 544.923,-25.4948"/>
</g>
</g>
</svg>
