<?xml version="1.0" encoding="UTF-8" standalone="no"?>
<!DOCTYPE svg PUBLIC "-//W3C//DTD SVG 1.1//EN"
 "http://www.w3.org/Graphics/SVG/1.1/DTD/svg11.dtd">
<!-- Generated by graphviz version 2.36.0 (20140111.2315)
 -->
<!-- Title: view.Workspace.setActiveTurtle Pages: 1 -->
<!--zoomable 77 -->
<svg id="main" version="1.1" xmlns="http://www.w3.org/2000/svg" xmlns:xlink="http://www.w3.org/1999/xlink" xml:space="preserve" onload="init(evt)">
<style type="text/css"><![CDATA[
.edge:hover path { stroke: red; }
.edge:hover polygon { stroke: red; fill: red; }
]]></style>
<script type="text/javascript"><![CDATA[
var edges = document.getElementsByTagName('g');
if (edges && edges.length) {
  for (var i=0;i<edges.length;i++) {
    if (edges[i].id.substr(0,4)=='edge') {
      edges[i].setAttribute('class','edge');
    }
  }
}
]]></script>
        <defs>
                <circle id="rim" cx="0" cy="0" r="7"/>
                <circle id="rim2" cx="0" cy="0" r="3.5"/>
                <g id="zoomPlus">
                        <use xlink:href="#rim" fill="#404040">
                                <set attributeName="fill" to="#808080" begin="zoomplus.mouseover" end="zoomplus.mouseout"/>
                        </use>
                        <path d="M-4,0h8M0,-4v8" fill="none" stroke="white" stroke-width="1.5" pointer-events="none"/>
                </g>
                <g id="zoomMin">
                        <use xlink:href="#rim" fill="#404040">
                                <set attributeName="fill" to="#808080" begin="zoomminus.mouseover" end="zoomminus.mouseout"/>
                        </use>
                        <path d="M-4,0h8" fill="none" stroke="white" stroke-width="1.5" pointer-events="none"/>
                </g>
                <g id="dirArrow">
                        <path fill="none" stroke="white" stroke-width="1.5" d="M0,-3.0v7 M-2.5,-0.5L0,-3.0L2.5,-0.5"/>
                </g>
               <g id="resetDef">
                       <use xlink:href="#rim2" fill="#404040">
                               <set attributeName="fill" to="#808080" begin="reset.mouseover" end="reset.mouseout"/>
                       </use>
               </g>
        </defs>

<script type="text/javascript">
var viewWidth = 1388;
var viewHeight = 77;
var sectionId = 'dynsection-11';
</script>
<script xlink:href="../../svgpan.js"/>
<svg id="graph" class="graph">
<g id="viewport">
<title>view.Workspace.setActiveTurtle</title>
<polygon fill="white" stroke="none" points="-4,4 -4,-73 1384,-73 1384,4 -4,4"/>
<!-- Node1 -->
<g id="node1" class="node"><title>Node1</title>
<polygon fill="#bfbfbf" stroke="black" points="0.5,-17 0.5,-47 137.5,-47 137.5,-17 0.5,-17"/>
<text text-anchor="start" x="8.5" y="-35" font-family="Helvetica,sans-Serif" font-size="10.00">view.Workspace.setActive</text>
<text text-anchor="middle" x="69" y="-24" font-family="Helvetica,sans-Serif" font-size="10.00">Turtle</text>
</g>
<!-- Node2 -->
<g id="node2" class="node"><title>Node2</title>
<g id="a_node2"><a xlink:href="../../da/d64/classview_1_1_workspace.html#a9eea72f983d5e7ad5af85056d927e380" target="_top" xlink:title="view.Workspace.configure\lTurtleEventHandler">
<polygon fill="white" stroke="black" points="174.5,-39 174.5,-69 311.5,-69 311.5,-39 174.5,-39"/>
<text text-anchor="start" x="182.5" y="-57" font-family="Helvetica,sans-Serif" font-size="10.00">view.Workspace.configure</text>
<text text-anchor="middle" x="243" y="-46" font-family="Helvetica,sans-Serif" font-size="10.00">TurtleEventHandler</text>
</a>
</g>
</g>
<!-- Node1&#45;&gt;Node2 -->
<g id="edge1" class="edge"><title>Node1&#45;&gt;Node2</title>
<path fill="none" stroke="midnightblue" d="M148.134,-41.9939C156.846,-43.1082 165.666,-44.2364 174.233,-45.3322"/>
<polygon fill="midnightblue" stroke="midnightblue" points="148.342,-38.4921 137.979,-40.695 147.454,-45.4355 148.342,-38.4921"/>
</g>
<!-- Node9 -->
<g id="node9" class="node"><title>Node9</title>
<g id="a_node9"><a xlink:href="../../da/d64/classview_1_1_workspace.html#af0ba64ced4d2d687a50503c4eb1a59a0" target="_top" xlink:title="view.Workspace.Workspace">
<polygon fill="white" stroke="black" points="522,-0.5 522,-19.5 666,-19.5 666,-0.5 522,-0.5"/>
<text text-anchor="middle" x="594" y="-7.5" font-family="Helvetica,sans-Serif" font-size="10.00">view.Workspace.Workspace</text>
</a>
</g>
</g>
<!-- Node1&#45;&gt;Node9 -->
<g id="edge9" class="edge"><title>Node1&#45;&gt;Node9</title>
<path fill="none" stroke="midnightblue" d="M147.719,-28.7308C248.832,-24.4774 424.084,-17.1055 521.856,-12.9927"/>
<polygon fill="midnightblue" stroke="midnightblue" points="147.414,-25.2404 137.569,-29.1577 147.708,-32.2342 147.414,-25.2404"/>
</g>
<!-- Node3 -->
<g id="node3" class="node"><title>Node3</title>
<g id="a_node3"><a xlink:href="../../da/d64/classview_1_1_workspace.html#a58b943798f78aa9414a854dcd54fa7ae" target="_top" xlink:title="view.Workspace.addTurtle">
<polygon fill="white" stroke="black" points="348.5,-44.5 348.5,-63.5 485.5,-63.5 485.5,-44.5 348.5,-44.5"/>
<text text-anchor="middle" x="417" y="-51.5" font-family="Helvetica,sans-Serif" font-size="10.00">view.Workspace.addTurtle</text>
</a>
</g>
</g>
<!-- Node2&#45;&gt;Node3 -->
<g id="edge2" class="edge"><title>Node2&#45;&gt;Node3</title>
<path fill="none" stroke="midnightblue" d="M322.134,-54C330.846,-54 339.666,-54 348.233,-54"/>
<polygon fill="midnightblue" stroke="midnightblue" points="321.979,-50.5001 311.979,-54 321.979,-57.5001 321.979,-50.5001"/>
</g>
<!-- Node4 -->
<g id="node4" class="node"><title>Node4</title>
<g id="a_node4"><a xlink:href="../../d6/de7/classview_1_1_s_logo_view.html#acf432f20e1a7dda7bef97f0619fb0fa5" target="_top" xlink:title="view.SLogoView.configure\lAddTurtlesButton">
<polygon fill="white" stroke="black" points="525.5,-39 525.5,-69 662.5,-69 662.5,-39 525.5,-39"/>
<text text-anchor="start" x="533.5" y="-57" font-family="Helvetica,sans-Serif" font-size="10.00">view.SLogoView.configure</text>
<text text-anchor="middle" x="594" y="-46" font-family="Helvetica,sans-Serif" font-size="10.00">AddTurtlesButton</text>
</a>
</g>
</g>
<!-- Node3&#45;&gt;Node4 -->
<g id="edge3" class="edge"><title>Node3&#45;&gt;Node4</title>
<path fill="none" stroke="midnightblue" d="M495.804,-54C505.616,-54 515.592,-54 525.232,-54"/>
<polygon fill="midnightblue" stroke="midnightblue" points="495.66,-50.5001 485.66,-54 495.66,-57.5001 495.66,-50.5001"/>
</g>
<!-- Node3&#45;&gt;Node9 -->
<g id="edge8" class="edge"><title>Node3&#45;&gt;Node9</title>
<path fill="none" stroke="midnightblue" d="M465.973,-41.9383C494.039,-34.8815 528.976,-26.0976 555.102,-19.5287"/>
<polygon fill="midnightblue" stroke="midnightblue" points="464.817,-38.6198 455.972,-44.4527 466.524,-45.4085 464.817,-38.6198"/>
</g>
<!-- Node5 -->
<g id="node5" class="node"><title>Node5</title>
<g id="a_node5"><a xlink:href="../../d6/de7/classview_1_1_s_logo_view.html#ae0050481c9168dd8eeb434d9aa79b047" target="_top" xlink:title="view.SLogoView.configureUI">
<polygon fill="white" stroke="black" points="702.5,-44.5 702.5,-63.5 849.5,-63.5 849.5,-44.5 702.5,-44.5"/>
<text text-anchor="middle" x="776" y="-51.5" font-family="Helvetica,sans-Serif" font-size="10.00">view.SLogoView.configureUI</text>
</a>
</g>
</g>
<!-- Node4&#45;&gt;Node5 -->
<g id="edge4" class="edge"><title>Node4&#45;&gt;Node5</title>
<path fill="none" stroke="midnightblue" d="M672.68,-54C682.502,-54 692.523,-54 702.263,-54"/>
<polygon fill="midnightblue" stroke="midnightblue" points="672.538,-50.5001 662.537,-54 672.537,-57.5001 672.538,-50.5001"/>
</g>
<!-- Node6 -->
<g id="node6" class="node"><title>Node6</title>
<g id="a_node6"><a xlink:href="../../d1/d75/classview_1_1_main_view.html#a39a2b399924a553ccd89dd2a2e6ea208" target="_top" xlink:title="view.MainView.newTab">
<polygon fill="white" stroke="black" points="886,-44.5 886,-63.5 1006,-63.5 1006,-44.5 886,-44.5"/>
<text text-anchor="middle" x="946" y="-51.5" font-family="Helvetica,sans-Serif" font-size="10.00">view.MainView.newTab</text>
</a>
</g>
</g>
<!-- Node5&#45;&gt;Node6 -->
<g id="edge5" class="edge"><title>Node5&#45;&gt;Node6</title>
<path fill="none" stroke="midnightblue" d="M859.939,-54C868.677,-54 877.431,-54 885.821,-54"/>
<polygon fill="midnightblue" stroke="midnightblue" points="859.71,-50.5001 849.71,-54 859.71,-57.5001 859.71,-50.5001"/>
</g>
<!-- Node7 -->
<g id="node7" class="node"><title>Node7</title>
<g id="a_node7"><a xlink:href="../../d1/d75/classview_1_1_main_view.html#a200c2c8e08e038e2ea86acc40c17d8d2" target="_top" xlink:title="view.MainView.configureTopMenu">
<polygon fill="white" stroke="black" points="1042,-44.5 1042,-63.5 1214,-63.5 1214,-44.5 1042,-44.5"/>
<text text-anchor="middle" x="1128" y="-51.5" font-family="Helvetica,sans-Serif" font-size="10.00">view.MainView.configureTopMenu</text>
</a>
</g>
</g>
<!-- Node6&#45;&gt;Node7 -->
<g id="edge6" class="edge"><title>Node6&#45;&gt;Node7</title>
<path fill="none" stroke="midnightblue" d="M1016.46,-54C1024.79,-54 1033.37,-54 1041.9,-54"/>
<polygon fill="midnightblue" stroke="midnightblue" points="1016.44,-50.5001 1006.44,-54 1016.44,-57.5001 1016.44,-50.5001"/>
</g>
<!-- Node8 -->
<g id="node8" class="node"><title>Node8</title>
<g id="a_node8"><a xlink:href="../../d1/d75/classview_1_1_main_view.html#a9e27015c007bed90f32c79fc1187083f" target="_top" xlink:title="view.MainView.MainView">
<polygon fill="white" stroke="black" points="1250,-44.5 1250,-63.5 1380,-63.5 1380,-44.5 1250,-44.5"/>
<text text-anchor="middle" x="1315" y="-51.5" font-family="Helvetica,sans-Serif" font-size="10.00">view.MainView.MainView</text>
</a>
</g>
</g>
<!-- Node7&#45;&gt;Node8 -->
<g id="edge7" class="edge"><title>Node7&#45;&gt;Node8</title>
<path fill="none" stroke="midnightblue" d="M1224.37,-54C1233.05,-54 1241.69,-54 1250,-54"/>
<polygon fill="midnightblue" stroke="midnightblue" points="1224.19,-50.5001 1214.19,-54 1224.19,-57.5001 1224.19,-50.5001"/>
</g>
</g>
</svg>
        <g id="navigator" transform="translate(0 0)" fill="#404254">
                <rect fill="#f2f5e9" fill-opacity="0.5" stroke="#606060" stroke-width=".5" x="0" y="0" width="60" height="60"/>
                <use id="zoomplus" xlink:href="#zoomPlus" x="17" y="9" onmousedown="handleZoom(evt,'in')"/>
                <use id="zoomminus" xlink:href="#zoomMin" x="42" y="9" onmousedown="handleZoom(evt,'out')"/>
                <use id="reset" xlink:href="#resetDef" x="30" y="36" onmousedown="handleReset()"/>
                <g id="arrowUp" xlink:href="#dirArrow" transform="translate(30 24)" onmousedown="handlePan(0,-1)">
                  <use xlink:href="#rim" fill="#404040">
                        <set attributeName="fill" to="#808080" begin="arrowUp.mouseover" end="arrowUp.mouseout"/>
                  </use>
                  <path fill="none" stroke="white" stroke-width="1.5" d="M0,-3.0v7 M-2.5,-0.5L0,-3.0L2.5,-0.5"/>
                </g>
                <g id="arrowRight" xlink:href="#dirArrow" transform="rotate(90) translate(36 -43)" onmousedown="handlePan(1,0)">
                  <use xlink:href="#rim" fill="#404040">
                        <set attributeName="fill" to="#808080" begin="arrowRight.mouseover" end="arrowRight.mouseout"/>
                  </use>
                  <path fill="none" stroke="white" stroke-width="1.5" d="M0,-3.0v7 M-2.5,-0.5L0,-3.0L2.5,-0.5"/>
                </g>
                <g id="arrowDown" xlink:href="#dirArrow" transform="rotate(180) translate(-30 -48)" onmousedown="handlePan(0,1)">
                  <use xlink:href="#rim" fill="#404040">
                        <set attributeName="fill" to="#808080" begin="arrowDown.mouseover" end="arrowDown.mouseout"/>
                  </use>
                  <path fill="none" stroke="white" stroke-width="1.5" d="M0,-3.0v7 M-2.5,-0.5L0,-3.0L2.5,-0.5"/>
                </g>
                <g id="arrowLeft" xlink:href="#dirArrow" transform="rotate(270) translate(-36 17)" onmousedown="handlePan(-1,0)">
                  <use xlink:href="#rim" fill="#404040">
                        <set attributeName="fill" to="#808080" begin="arrowLeft.mouseover" end="arrowLeft.mouseout"/>
                  </use>
                  <path fill="none" stroke="white" stroke-width="1.5" d="M0,-3.0v7 M-2.5,-0.5L0,-3.0L2.5,-0.5"/>
                </g>
        </g>
        <svg viewBox="0 0 15 15" width="100%" height="30px" preserveAspectRatio="xMaxYMin meet">
         <g id="arrow_out" transform="scale(0.3 0.3)">
          <a xlink:href="classview_1_1_workspace_a16bda9a6a7fe7f8d3d7b09108675f9c4_icgraph_org.svg" target="_base">
           <rect id="button" ry="5" rx="5" y="6" x="6" height="38" width="38"
                fill="#f2f5e9" fill-opacity="0.5" stroke="#606060" stroke-width="1.0"/>
           <path id="arrow"
             d="M 11.500037,31.436501 C 11.940474,20.09759 22.043105,11.32322 32.158766,21.979434 L 37.068811,17.246167 C 37.068811,17.246167 37.088388,32 37.088388,32 L 22.160133,31.978069 C 22.160133,31.978069 26.997745,27.140456 26.997745,27.140456 C 18.528582,18.264221 13.291696,25.230495 11.500037,31.436501 z"
             style="fill:#404040;"/>
          </a>
         </g>
        </svg>
</svg>
