<?xml version="1.0" encoding="UTF-8" standalone="no"?>
<!DOCTYPE svg PUBLIC "-//W3C//DTD SVG 1.1//EN"
 "http://www.w3.org/Graphics/SVG/1.1/DTD/svg11.dtd">
<!-- Generated by graphviz version 2.36.0 (20140111.2315)
 -->
<!-- Title: view.Workspace.addTurtle Pages: 1 -->
<svg width="864pt" height="180pt"
 viewBox="0.00 0.00 864.00 180.00" xmlns="http://www.w3.org/2000/svg" xmlns:xlink="http://www.w3.org/1999/xlink">
<g id="graph0" class="graph" transform="scale(1 1) rotate(0) translate(4 176)">
<title>view.Workspace.addTurtle</title>
<polygon fill="white" stroke="none" points="-4,4 -4,-176 860,-176 860,4 -4,4"/>
<!-- Node1 -->
<g id="node1" class="node"><title>Node1</title>
<polygon fill="#bfbfbf" stroke="black" points="0.5,-106.5 0.5,-125.5 137.5,-125.5 137.5,-106.5 0.5,-106.5"/>
<text text-anchor="middle" x="69" y="-113.5" font-family="Helvetica,sans-Serif" font-size="10.00">view.Workspace.addTurtle</text>
</g>
<!-- Node2 -->
<g id="node2" class="node"><title>Node2</title>
<g id="a_node2"><a xlink:href="../../da/d64/classview_1_1_workspace.html#a9eea72f983d5e7ad5af85056d927e380" target="_top" xlink:title="view.Workspace.configure\lTurtleEventHandler">
<polygon fill="white" stroke="black" points="174.5,-101 174.5,-131 311.5,-131 311.5,-101 174.5,-101"/>
<text text-anchor="start" x="182.5" y="-119" font-family="Helvetica,sans-Serif" font-size="10.00">view.Workspace.configure</text>
<text text-anchor="middle" x="243" y="-108" font-family="Helvetica,sans-Serif" font-size="10.00">TurtleEventHandler</text>
</a>
</g>
</g>
<!-- Node1&#45;&gt;Node2 -->
<g id="edge1" class="edge"><title>Node1&#45;&gt;Node2</title>
<path fill="none" stroke="midnightblue" d="M137.979,-116C146.55,-116 155.372,-116 164.082,-116"/>
<polygon fill="midnightblue" stroke="midnightblue" points="164.233,-119.5 174.233,-116 164.233,-112.5 164.233,-119.5"/>
</g>
<!-- Node3 -->
<g id="node3" class="node"><title>Node3</title>
<g id="a_node3"><a xlink:href="../../da/d64/classview_1_1_workspace.html#a16bda9a6a7fe7f8d3d7b09108675f9c4" target="_top" xlink:title="view.Workspace.setActive\lTurtle">
<polygon fill="white" stroke="black" points="348.5,-79 348.5,-109 485.5,-109 485.5,-79 348.5,-79"/>
<text text-anchor="start" x="356.5" y="-97" font-family="Helvetica,sans-Serif" font-size="10.00">view.Workspace.setActive</text>
<text text-anchor="middle" x="417" y="-86" font-family="Helvetica,sans-Serif" font-size="10.00">Turtle</text>
</a>
</g>
</g>
<!-- Node2&#45;&gt;Node3 -->
<g id="edge2" class="edge"><title>Node2&#45;&gt;Node3</title>
<path fill="none" stroke="midnightblue" d="M311.979,-107.305C320.55,-106.209 329.372,-105.08 338.082,-103.966"/>
<polygon fill="midnightblue" stroke="midnightblue" points="338.758,-107.408 348.233,-102.668 337.87,-100.465 338.758,-107.408"/>
</g>
<!-- Node6 -->
<g id="node6" class="node"><title>Node6</title>
<g id="a_node6"><a xlink:href="../../d8/df7/classview_1_1_turtle_view.html#ab5fdc3775e06339f4a68d1b795a81643" target="_top" xlink:title="view.TurtleView.getID">
<polygon fill="white" stroke="black" points="719,-152.5 719,-171.5 833,-171.5 833,-152.5 719,-152.5"/>
<text text-anchor="middle" x="776" y="-159.5" font-family="Helvetica,sans-Serif" font-size="10.00">view.TurtleView.getID</text>
</a>
</g>
</g>
<!-- Node2&#45;&gt;Node6 -->
<g id="edge9" class="edge"><title>Node2&#45;&gt;Node6</title>
<path fill="none" stroke="midnightblue" d="M311.521,-121.849C413.873,-130.716 607.104,-147.455 708.718,-156.258"/>
<polygon fill="midnightblue" stroke="midnightblue" points="708.59,-159.76 718.855,-157.136 709.195,-152.786 708.59,-159.76"/>
</g>
<!-- Node4 -->
<g id="node4" class="node"><title>Node4</title>
<g id="a_node4"><a xlink:href="../../d1/dc7/classview_1_1_side_bar.html#a0e6b8bded054449259862ef89afdc74d" target="_top" xlink:title="view.SideBar.updateTurtle\lProperties">
<polygon fill="white" stroke="black" points="522,-79 522,-109 660,-109 660,-79 522,-79"/>
<text text-anchor="start" x="530" y="-97" font-family="Helvetica,sans-Serif" font-size="10.00">view.SideBar.updateTurtle</text>
<text text-anchor="middle" x="591" y="-86" font-family="Helvetica,sans-Serif" font-size="10.00">Properties</text>
</a>
</g>
</g>
<!-- Node3&#45;&gt;Node4 -->
<g id="edge3" class="edge"><title>Node3&#45;&gt;Node4</title>
<path fill="none" stroke="midnightblue" d="M485.979,-94C494.483,-94 503.233,-94 511.876,-94"/>
<polygon fill="midnightblue" stroke="midnightblue" points="511.952,-97.5001 521.952,-94 511.952,-90.5001 511.952,-97.5001"/>
</g>
<!-- Node5 -->
<g id="node5" class="node"><title>Node5</title>
<g id="a_node5"><a xlink:href="../../d8/df7/classview_1_1_turtle_view.html#a5da3d4c9dafb77af0db0c589a72eadc8" target="_top" xlink:title="view.TurtleView.getHeading">
<polygon fill="white" stroke="black" points="704,-114.5 704,-133.5 848,-133.5 848,-114.5 704,-114.5"/>
<text text-anchor="middle" x="776" y="-121.5" font-family="Helvetica,sans-Serif" font-size="10.00">view.TurtleView.getHeading</text>
</a>
</g>
</g>
<!-- Node4&#45;&gt;Node5 -->
<g id="edge4" class="edge"><title>Node4&#45;&gt;Node5</title>
<path fill="none" stroke="midnightblue" d="M660.142,-105.171C675.481,-107.685 691.757,-110.354 707.086,-112.867"/>
<polygon fill="midnightblue" stroke="midnightblue" points="706.569,-116.328 717.003,-114.492 707.701,-109.421 706.569,-116.328"/>
</g>
<!-- Node4&#45;&gt;Node6 -->
<g id="edge5" class="edge"><title>Node4&#45;&gt;Node6</title>
<path fill="none" stroke="midnightblue" d="M620.033,-109.128C640.598,-119.747 669.451,-133.664 696,-143 703.125,-145.506 710.725,-147.794 718.289,-149.847"/>
<polygon fill="midnightblue" stroke="midnightblue" points="717.613,-153.287 728.171,-152.408 719.369,-146.511 717.613,-153.287"/>
</g>
<!-- Node7 -->
<g id="node7" class="node"><title>Node7</title>
<g id="a_node7"><a xlink:href="../../d8/df7/classview_1_1_turtle_view.html#a85b9acc922cc69f27c79bf13e3356e09" target="_top" xlink:title="view.TurtleView.getPenPosition">
<polygon fill="white" stroke="black" points="696,-76.5 696,-95.5 856,-95.5 856,-76.5 696,-76.5"/>
<text text-anchor="middle" x="776" y="-83.5" font-family="Helvetica,sans-Serif" font-size="10.00">view.TurtleView.getPenPosition</text>
</a>
</g>
</g>
<!-- Node4&#45;&gt;Node7 -->
<g id="edge6" class="edge"><title>Node4&#45;&gt;Node7</title>
<path fill="none" stroke="midnightblue" d="M660.142,-91.0211C668.469,-90.6571 677.072,-90.281 685.65,-89.906"/>
<polygon fill="midnightblue" stroke="midnightblue" points="685.852,-93.4006 695.69,-89.4671 685.546,-86.4073 685.852,-93.4006"/>
</g>
<!-- Node8 -->
<g id="node8" class="node"><title>Node8</title>
<g id="a_node8"><a xlink:href="../../d8/df7/classview_1_1_turtle_view.html#afa5ff9ad664f5365e08a1940c99b8a59" target="_top" xlink:title="view.TurtleView.getYCoord">
<polygon fill="white" stroke="black" points="707.5,-38.5 707.5,-57.5 844.5,-57.5 844.5,-38.5 707.5,-38.5"/>
<text text-anchor="middle" x="776" y="-45.5" font-family="Helvetica,sans-Serif" font-size="10.00">view.TurtleView.getYCoord</text>
</a>
</g>
</g>
<!-- Node4&#45;&gt;Node8 -->
<g id="edge7" class="edge"><title>Node4&#45;&gt;Node8</title>
<path fill="none" stroke="midnightblue" d="M649.17,-78.9607C664.376,-75.0145 680.799,-70.801 696,-67 705.344,-64.6635 715.324,-62.2218 724.936,-59.8971"/>
<polygon fill="midnightblue" stroke="midnightblue" points="725.874,-63.2712 734.776,-57.5262 724.235,-56.4659 725.874,-63.2712"/>
</g>
<!-- Node9 -->
<g id="node9" class="node"><title>Node9</title>
<g id="a_node9"><a xlink:href="../../d8/df7/classview_1_1_turtle_view.html#a5f7b22cd8ab69258535b18920a488b63" target="_top" xlink:title="view.TurtleView.isShowing">
<polygon fill="white" stroke="black" points="708,-0.5 708,-19.5 844,-19.5 844,-0.5 708,-0.5"/>
<text text-anchor="middle" x="776" y="-7.5" font-family="Helvetica,sans-Serif" font-size="10.00">view.TurtleView.isShowing</text>
</a>
</g>
</g>
<!-- Node4&#45;&gt;Node9 -->
<g id="edge8" class="edge"><title>Node4&#45;&gt;Node9</title>
<path fill="none" stroke="midnightblue" d="M611.654,-78.9947C631.815,-64.2771 664.587,-42.182 696,-29 701.89,-26.5284 708.168,-24.3367 714.512,-22.4032"/>
<polygon fill="midnightblue" stroke="midnightblue" points="715.825,-25.6693 724.491,-19.5743 713.915,-18.9347 715.825,-25.6693"/>
</g>
</g>
</svg>
