<?xml version="1.0" encoding="UTF-8" standalone="no"?>
<!DOCTYPE svg PUBLIC "-//W3C//DTD SVG 1.1//EN"
 "http://www.w3.org/Graphics/SVG/1.1/DTD/svg11.dtd">
<!-- Generated by graphviz version 2.36.0 (20140111.2315)
 -->
<!-- Title: view.Workspace.getTurtleMap Pages: 1 -->
<svg width="1860pt" height="541pt"
 viewBox="0.00 0.00 1860.00 541.00" xmlns="http://www.w3.org/2000/svg" xmlns:xlink="http://www.w3.org/1999/xlink">
<g id="graph0" class="graph" transform="scale(1 1) rotate(0) translate(4 537)">
<title>view.Workspace.getTurtleMap</title>
<polygon fill="white" stroke="none" points="-4,4 -4,-537 1856,-537 1856,4 -4,4"/>
<!-- Node1 -->
<g id="node1" class="node"><title>Node1</title>
<polygon fill="#bfbfbf" stroke="black" points="0.5,-209.5 0.5,-228.5 155.5,-228.5 155.5,-209.5 0.5,-209.5"/>
<text text-anchor="middle" x="78" y="-216.5" font-family="Helvetica,sans-Serif" font-size="10.00">view.Workspace.getTurtleMap</text>
</g>
<!-- Node2 -->
<g id="node2" class="node"><title>Node2</title>
<g id="a_node2"><a xlink:href="../../d6/de7/classview_1_1_s_logo_view.html#adc4b93dcbcbac6952cd976e41b68804c" target="_top" xlink:title="view.SLogoView.clearScreen">
<polygon fill="white" stroke="black" points="382,-430.5 382,-449.5 532,-449.5 532,-430.5 382,-430.5"/>
<text text-anchor="middle" x="457" y="-437.5" font-family="Helvetica,sans-Serif" font-size="10.00">view.SLogoView.clearScreen</text>
</a>
</g>
</g>
<!-- Node1&#45;&gt;Node2 -->
<g id="edge1" class="edge"><title>Node1&#45;&gt;Node2</title>
<path fill="none" stroke="midnightblue" d="M83.6771,-238.351C94.6722,-279.189 126.335,-373.88 192,-416 252.819,-455.012 338.333,-455.2 395.378,-449.511"/>
<polygon fill="midnightblue" stroke="midnightblue" points="87.04,-237.374 81.1638,-228.558 80.2597,-239.114 87.04,-237.374"/>
</g>
<!-- Node4 -->
<g id="node4" class="node"><title>Node4</title>
<g id="a_node4"><a xlink:href="../../d6/de7/classview_1_1_s_logo_view.html#a86b68450337856a499d7eef073749edc" target="_top" xlink:title="view.SLogoView.getHeading">
<polygon fill="white" stroke="black" points="194.5,-114.5 194.5,-133.5 343.5,-133.5 343.5,-114.5 194.5,-114.5"/>
<text text-anchor="middle" x="269" y="-121.5" font-family="Helvetica,sans-Serif" font-size="10.00">view.SLogoView.getHeading</text>
</a>
</g>
</g>
<!-- Node1&#45;&gt;Node4 -->
<g id="edge3" class="edge"><title>Node1&#45;&gt;Node4</title>
<path fill="none" stroke="midnightblue" d="M98.4261,-202.826C120.004,-185.633 156.496,-158.792 192,-143 200.45,-139.241 209.773,-136.139 218.91,-133.609"/>
<polygon fill="midnightblue" stroke="midnightblue" points="95.9657,-200.315 90.3983,-209.329 100.372,-205.754 95.9657,-200.315"/>
</g>
<!-- Node6 -->
<g id="node6" class="node"><title>Node6</title>
<g id="a_node6"><a xlink:href="../../d6/de7/classview_1_1_s_logo_view.html#adb5891749c8e97cd4d7414e02f72a0c8" target="_top" xlink:title="view.SLogoView.getPenDown">
<polygon fill="white" stroke="black" points="192.5,-76.5 192.5,-95.5 345.5,-95.5 345.5,-76.5 192.5,-76.5"/>
<text text-anchor="middle" x="269" y="-83.5" font-family="Helvetica,sans-Serif" font-size="10.00">view.SLogoView.getPenDown</text>
</a>
</g>
</g>
<!-- Node1&#45;&gt;Node6 -->
<g id="edge5" class="edge"><title>Node1&#45;&gt;Node6</title>
<path fill="none" stroke="midnightblue" d="M91.7479,-200.967C110.667,-175.585 148.643,-129.675 192,-105 198.856,-101.098 206.506,-97.9893 214.239,-95.5141"/>
<polygon fill="midnightblue" stroke="midnightblue" points="88.7274,-199.169 85.6652,-209.311 94.3841,-203.292 88.7274,-199.169"/>
</g>
<!-- Node7 -->
<g id="node7" class="node"><title>Node7</title>
<g id="a_node7"><a xlink:href="../../d6/de7/classview_1_1_s_logo_view.html#a2954864e547fcf60dfa25803d8b9622c" target="_top" xlink:title="view.SLogoView.getXCor">
<polygon fill="white" stroke="black" points="203.5,-38.5 203.5,-57.5 334.5,-57.5 334.5,-38.5 203.5,-38.5"/>
<text text-anchor="middle" x="269" y="-45.5" font-family="Helvetica,sans-Serif" font-size="10.00">view.SLogoView.getXCor</text>
</a>
</g>
</g>
<!-- Node1&#45;&gt;Node7 -->
<g id="edge7" class="edge"><title>Node1&#45;&gt;Node7</title>
<path fill="none" stroke="midnightblue" d="M87.648,-200.09C103.506,-167.612 140.411,-101.411 192,-67 197.77,-63.151 204.258,-60.0816 210.948,-57.6338"/>
<polygon fill="midnightblue" stroke="midnightblue" points="84.371,-198.832 83.2467,-209.367 90.6953,-201.833 84.371,-198.832"/>
</g>
<!-- Node8 -->
<g id="node8" class="node"><title>Node8</title>
<g id="a_node8"><a xlink:href="../../d6/de7/classview_1_1_s_logo_view.html#a1b85ba8a4f00e9b32bb8c4c596dfe78e" target="_top" xlink:title="view.SLogoView.getYCor">
<polygon fill="white" stroke="black" points="204,-0.5 204,-19.5 334,-19.5 334,-0.5 204,-0.5"/>
<text text-anchor="middle" x="269" y="-7.5" font-family="Helvetica,sans-Serif" font-size="10.00">view.SLogoView.getYCor</text>
</a>
</g>
</g>
<!-- Node1&#45;&gt;Node8 -->
<g id="edge9" class="edge"><title>Node1&#45;&gt;Node8</title>
<path fill="none" stroke="midnightblue" d="M84.8425,-199.749C97.6072,-161.073 131.767,-73.8102 192,-29 197.238,-25.1034 203.183,-22 209.387,-19.5294"/>
<polygon fill="midnightblue" stroke="midnightblue" points="81.5024,-198.704 81.8056,-209.294 88.1729,-200.826 81.5024,-198.704"/>
</g>
<!-- Node9 -->
<g id="node9" class="node"><title>Node9</title>
<g id="a_node9"><a xlink:href="../../d6/de7/classview_1_1_s_logo_view.html#a821c9879a79ffe29b2e3427fbd5d97be" target="_top" xlink:title="view.SLogoView.isShowing">
<polygon fill="white" stroke="black" points="199,-152.5 199,-171.5 339,-171.5 339,-152.5 199,-152.5"/>
<text text-anchor="middle" x="269" y="-159.5" font-family="Helvetica,sans-Serif" font-size="10.00">view.SLogoView.isShowing</text>
</a>
</g>
</g>
<!-- Node1&#45;&gt;Node9 -->
<g id="edge11" class="edge"><title>Node1&#45;&gt;Node9</title>
<path fill="none" stroke="midnightblue" d="M120.514,-206.48C155.383,-195.964 204.471,-181.16 236.262,-171.572"/>
<polygon fill="midnightblue" stroke="midnightblue" points="119.198,-203.221 110.634,-209.459 121.219,-209.923 119.198,-203.221"/>
</g>
<!-- Node10 -->
<g id="node10" class="node"><title>Node10</title>
<g id="a_node10"><a xlink:href="../../d6/de7/classview_1_1_s_logo_view.html#ae7ad67f4b629b134cb805842a20f4050" target="_top" xlink:title="view.SLogoView.setHeading">
<polygon fill="white" stroke="black" points="383,-354.5 383,-373.5 531,-373.5 531,-354.5 383,-354.5"/>
<text text-anchor="middle" x="457" y="-361.5" font-family="Helvetica,sans-Serif" font-size="10.00">view.SLogoView.setHeading</text>
</a>
</g>
</g>
<!-- Node1&#45;&gt;Node10 -->
<g id="edge13" class="edge"><title>Node1&#45;&gt;Node10</title>
<path fill="none" stroke="midnightblue" d="M89.4914,-237.77C106.687,-266.465 143.828,-320.391 192,-344 251.435,-373.129 327.537,-375.816 382.75,-372.592"/>
<polygon fill="midnightblue" stroke="midnightblue" points="92.3073,-235.65 84.2556,-228.764 86.2556,-239.168 92.3073,-235.65"/>
</g>
<!-- Node12 -->
<g id="node12" class="node"><title>Node12</title>
<g id="a_node12"><a xlink:href="../../d6/de7/classview_1_1_s_logo_view.html#a978a65a0b82bac25044f7e2816a680cc" target="_top" xlink:title="view.SLogoView.setPenUp">
<polygon fill="white" stroke="black" points="387,-240.5 387,-259.5 527,-259.5 527,-240.5 387,-240.5"/>
<text text-anchor="middle" x="457" y="-247.5" font-family="Helvetica,sans-Serif" font-size="10.00">view.SLogoView.setPenUp</text>
</a>
</g>
</g>
<!-- Node1&#45;&gt;Node12 -->
<g id="edge16" class="edge"><title>Node1&#45;&gt;Node12</title>
<path fill="none" stroke="midnightblue" d="M165.889,-226.145C233.057,-231.668 324.776,-239.21 386.973,-244.324"/>
<polygon fill="midnightblue" stroke="midnightblue" points="165.999,-222.642 155.746,-225.311 165.425,-229.619 165.999,-222.642"/>
</g>
<!-- Node13 -->
<g id="node13" class="node"><title>Node13</title>
<g id="a_node13"><a xlink:href="../../d6/de7/classview_1_1_s_logo_view.html#a0948ea67bfc088f941e2af79727231ad" target="_top" xlink:title="view.SLogoView.setXY">
<polygon fill="white" stroke="black" points="397.5,-202.5 397.5,-221.5 516.5,-221.5 516.5,-202.5 397.5,-202.5"/>
<text text-anchor="middle" x="457" y="-209.5" font-family="Helvetica,sans-Serif" font-size="10.00">view.SLogoView.setXY</text>
</a>
</g>
</g>
<!-- Node1&#45;&gt;Node13 -->
<g id="edge18" class="edge"><title>Node1&#45;&gt;Node13</title>
<path fill="none" stroke="midnightblue" d="M166.011,-217.384C236.981,-216.067 335.299,-214.241 397.265,-213.091"/>
<polygon fill="midnightblue" stroke="midnightblue" points="165.679,-213.89 155.746,-217.575 165.809,-220.889 165.679,-213.89"/>
</g>
<!-- Node14 -->
<g id="node14" class="node"><title>Node14</title>
<g id="a_node14"><a xlink:href="../../d6/de7/classview_1_1_s_logo_view.html#a00710838e28dcb10fe6da3c0ec0c4e20" target="_top" xlink:title="view.SLogoView.showTurtle">
<polygon fill="white" stroke="black" points="385.5,-278.5 385.5,-297.5 528.5,-297.5 528.5,-278.5 385.5,-278.5"/>
<text text-anchor="middle" x="457" y="-285.5" font-family="Helvetica,sans-Serif" font-size="10.00">view.SLogoView.showTurtle</text>
</a>
</g>
</g>
<!-- Node1&#45;&gt;Node14 -->
<g id="edge20" class="edge"><title>Node1&#45;&gt;Node14</title>
<path fill="none" stroke="midnightblue" d="M120.593,-231.246C141.825,-237.189 168.144,-244.088 192,-249 257.005,-262.386 331.924,-273.003 385.307,-279.758"/>
<polygon fill="midnightblue" stroke="midnightblue" points="121.494,-227.863 110.918,-228.505 119.586,-234.598 121.494,-227.863"/>
</g>
<!-- Node15 -->
<g id="node15" class="node"><title>Node15</title>
<g id="a_node15"><a xlink:href="../../d1/dc7/classview_1_1_side_bar.html#a7d73038dbba05f96990b60664afa2670" target="_top" xlink:title="view.SideBar.updateTurtle\lProperties">
<polygon fill="white" stroke="black" points="200,-305 200,-335 338,-335 338,-305 200,-305"/>
<text text-anchor="start" x="208" y="-323" font-family="Helvetica,sans-Serif" font-size="10.00">view.SideBar.updateTurtle</text>
<text text-anchor="middle" x="269" y="-312" font-family="Helvetica,sans-Serif" font-size="10.00">Properties</text>
</a>
</g>
</g>
<!-- Node1&#45;&gt;Node15 -->
<g id="edge22" class="edge"><title>Node1&#45;&gt;Node15</title>
<path fill="none" stroke="midnightblue" d="M100.816,-234.415C123.069,-249.723 158.931,-273.266 192,-290 202.632,-295.38 214.469,-300.46 225.576,-304.856"/>
<polygon fill="midnightblue" stroke="midnightblue" points="102.646,-231.424 92.4358,-228.595 98.6532,-237.174 102.646,-231.424"/>
</g>
<!-- Node17 -->
<g id="node17" class="node"><title>Node17</title>
<g id="a_node17"><a xlink:href="../../d6/de7/classview_1_1_s_logo_view.html#a513d723c883c5b96c9fdf1f16f829bc8" target="_top" xlink:title="view.SLogoView.updateWorkspace">
<polygon fill="white" stroke="black" points="568,-360.5 568,-379.5 746,-379.5 746,-360.5 568,-360.5"/>
<text text-anchor="middle" x="657" y="-367.5" font-family="Helvetica,sans-Serif" font-size="10.00">view.SLogoView.updateWorkspace</text>
</a>
</g>
</g>
<!-- Node1&#45;&gt;Node17 -->
<g id="edge42" class="edge"><title>Node1&#45;&gt;Node17</title>
<path fill="none" stroke="midnightblue" d="M86.3273,-237.805C100.716,-271.829 136.205,-342.868 192,-373 337.484,-451.569 547.948,-402.223 625.677,-379.57"/>
<polygon fill="midnightblue" stroke="midnightblue" points="89.5579,-236.458 82.5402,-228.52 83.0764,-239.102 89.5579,-236.458"/>
</g>
<!-- Node3 -->
<g id="node3" class="node"><title>Node3</title>
<g id="a_node3"><a xlink:href="../../d1/dd3/classmodel_1_1instructions_1_1_movement_instruction.html#a33e802cec8283d190a8daac6e485e3b4" target="_top" xlink:title="model.instructions.Movement\lInstruction.execute">
<polygon fill="white" stroke="black" points="978.5,-292 978.5,-322 1137.5,-322 1137.5,-292 978.5,-292"/>
<text text-anchor="start" x="986.5" y="-310" font-family="Helvetica,sans-Serif" font-size="10.00">model.instructions.Movement</text>
<text text-anchor="middle" x="1058" y="-299" font-family="Helvetica,sans-Serif" font-size="10.00">Instruction.execute</text>
</a>
</g>
</g>
<!-- Node2&#45;&gt;Node3 -->
<g id="edge2" class="edge"><title>Node2&#45;&gt;Node3</title>
<path fill="none" stroke="midnightblue" d="M542.463,-445.631C641.643,-449.197 809.434,-445.602 942,-394 983.294,-377.926 1022.46,-342.49 1042.7,-322.15"/>
<polygon fill="midnightblue" stroke="midnightblue" points="542.326,-442.123 532.196,-445.227 542.051,-449.117 542.326,-442.123"/>
</g>
<!-- Node5 -->
<g id="node5" class="node"><title>Node5</title>
<g id="a_node5"><a xlink:href="../../da/d93/classmodel_1_1instructions_1_1_turtle_request_instruction.html#ae36ffe88cf02c9a5b136317a2fff5b3e" target="_top" xlink:title="model.instructions.Turtle\lRequestInstruction.execute">
<polygon fill="white" stroke="black" points="384,-71 384,-101 530,-101 530,-71 384,-71"/>
<text text-anchor="start" x="392" y="-89" font-family="Helvetica,sans-Serif" font-size="10.00">model.instructions.Turtle</text>
<text text-anchor="middle" x="457" y="-78" font-family="Helvetica,sans-Serif" font-size="10.00">RequestInstruction.execute</text>
</a>
</g>
</g>
<!-- Node4&#45;&gt;Node5 -->
<g id="edge4" class="edge"><title>Node4&#45;&gt;Node5</title>
<path fill="none" stroke="midnightblue" d="M326.933,-112.368C344.852,-108.708 364.884,-104.615 383.721,-100.767"/>
<polygon fill="midnightblue" stroke="midnightblue" points="326.033,-108.98 316.936,-114.411 327.434,-115.838 326.033,-108.98"/>
</g>
<!-- Node6&#45;&gt;Node5 -->
<g id="edge6" class="edge"><title>Node6&#45;&gt;Node5</title>
<path fill="none" stroke="midnightblue" d="M355.746,-86C365.1,-86 374.552,-86 383.721,-86"/>
<polygon fill="midnightblue" stroke="midnightblue" points="355.653,-82.5001 345.653,-86 355.653,-89.5001 355.653,-82.5001"/>
</g>
<!-- Node7&#45;&gt;Node5 -->
<g id="edge8" class="edge"><title>Node7&#45;&gt;Node5</title>
<path fill="none" stroke="midnightblue" d="M326.933,-59.6315C344.852,-63.2923 364.884,-67.3849 383.721,-71.2334"/>
<polygon fill="midnightblue" stroke="midnightblue" points="327.434,-56.1616 316.936,-57.589 326.033,-63.0199 327.434,-56.1616"/>
</g>
<!-- Node8&#45;&gt;Node5 -->
<g id="edge10" class="edge"><title>Node8&#45;&gt;Node5</title>
<path fill="none" stroke="midnightblue" d="M325.646,-22.3111C332.576,-24.3112 339.504,-26.5436 346,-29 376.379,-40.4879 409.191,-58.2548 430.996,-70.8967"/>
<polygon fill="midnightblue" stroke="midnightblue" points="326.112,-18.81 315.543,-19.5481 324.265,-25.5621 326.112,-18.81"/>
</g>
<!-- Node9&#45;&gt;Node5 -->
<g id="edge12" class="edge"><title>Node9&#45;&gt;Node5</title>
<path fill="none" stroke="midnightblue" d="M325.646,-149.689C332.576,-147.689 339.504,-145.456 346,-143 376.379,-131.512 409.191,-113.745 430.996,-101.103"/>
<polygon fill="midnightblue" stroke="midnightblue" points="324.265,-146.438 315.543,-152.452 326.112,-153.19 324.265,-146.438"/>
</g>
<!-- Node11 -->
<g id="node11" class="node"><title>Node11</title>
<g id="a_node11"><a xlink:href="../../d6/de7/classview_1_1_s_logo_view.html#afa2b659c4d080b5f927978b453633ab2" target="_top" xlink:title="view.SLogoView.towards">
<polygon fill="white" stroke="black" points="796.5,-316.5 796.5,-335.5 927.5,-335.5 927.5,-316.5 796.5,-316.5"/>
<text text-anchor="middle" x="862" y="-323.5" font-family="Helvetica,sans-Serif" font-size="10.00">view.SLogoView.towards</text>
</a>
</g>
</g>
<!-- Node10&#45;&gt;Node11 -->
<g id="edge14" class="edge"><title>Node10&#45;&gt;Node11</title>
<path fill="none" stroke="midnightblue" d="M541.208,-353.876C550.246,-352.863 559.312,-351.884 568,-351 646.472,-343.017 736.945,-335.564 796.352,-330.909"/>
<polygon fill="midnightblue" stroke="midnightblue" points="540.579,-350.425 531.038,-355.031 541.369,-357.38 540.579,-350.425"/>
</g>
<!-- Node11&#45;&gt;Node3 -->
<g id="edge15" class="edge"><title>Node11&#45;&gt;Node3</title>
<path fill="none" stroke="midnightblue" d="M937.624,-318.691C950.907,-317.391 964.782,-316.032 978.178,-314.72"/>
<polygon fill="midnightblue" stroke="midnightblue" points="937.21,-315.215 927.599,-319.673 937.893,-322.182 937.21,-315.215"/>
</g>
<!-- Node12&#45;&gt;Node3 -->
<g id="edge17" class="edge"><title>Node12&#45;&gt;Node3</title>
<path fill="none" stroke="midnightblue" d="M537.555,-257.12C633.483,-265.769 799.59,-280.95 942,-295 953.786,-296.163 966.248,-297.427 978.448,-298.684"/>
<polygon fill="midnightblue" stroke="midnightblue" points="537.627,-253.612 527.353,-256.201 536.999,-260.584 537.627,-253.612"/>
</g>
<!-- Node13&#45;&gt;Node3 -->
<g id="edge19" class="edge"><title>Node13&#45;&gt;Node3</title>
<path fill="none" stroke="midnightblue" d="M526.841,-218.58C621.087,-228.193 795.322,-248.13 942,-277 962.751,-281.084 985.321,-286.707 1004.93,-291.982"/>
<polygon fill="midnightblue" stroke="midnightblue" points="527.164,-215.095 516.862,-217.57 526.459,-222.059 527.164,-215.095"/>
</g>
<!-- Node14&#45;&gt;Node3 -->
<g id="edge21" class="edge"><title>Node14&#45;&gt;Node3</title>
<path fill="none" stroke="midnightblue" d="M538.943,-290.567C654.227,-294.224 864.343,-300.889 978.352,-304.505"/>
<polygon fill="midnightblue" stroke="midnightblue" points="538.876,-287.064 528.77,-290.245 538.654,-294.06 538.876,-287.064"/>
</g>
<!-- Node15&#45;&gt;Node2 -->
<g id="edge23" class="edge"><title>Node15&#45;&gt;Node2</title>
<path fill="none" stroke="midnightblue" d="M302.038,-340.669C342.725,-366.919 411.24,-411.123 441.213,-430.46"/>
<polygon fill="midnightblue" stroke="midnightblue" points="303.857,-337.678 293.557,-335.198 300.063,-343.56 303.857,-337.678"/>
</g>
<!-- Node15&#45;&gt;Node10 -->
<g id="edge38" class="edge"><title>Node15&#45;&gt;Node10</title>
<path fill="none" stroke="midnightblue" d="M343.539,-337.396C368.16,-343.221 394.685,-349.495 415.788,-354.488"/>
<polygon fill="midnightblue" stroke="midnightblue" points="344.028,-333.915 333.49,-335.019 342.416,-340.727 344.028,-333.915"/>
</g>
<!-- Node15&#45;&gt;Node12 -->
<g id="edge39" class="edge"><title>Node15&#45;&gt;Node12</title>
<path fill="none" stroke="midnightblue" d="M308.407,-300.479C329.712,-290.171 356.903,-277.858 382,-269 392.006,-265.468 402.985,-262.288 413.351,-259.585"/>
<polygon fill="midnightblue" stroke="midnightblue" points="306.805,-297.367 299.361,-304.906 309.882,-303.654 306.805,-297.367"/>
</g>
<!-- Node15&#45;&gt;Node13 -->
<g id="edge40" class="edge"><title>Node15&#45;&gt;Node13</title>
<path fill="none" stroke="midnightblue" d="M292.095,-297.71C313.368,-277.472 347.338,-248.233 382,-231 389.72,-227.162 398.29,-224.048 406.782,-221.537"/>
<polygon fill="midnightblue" stroke="midnightblue" points="289.604,-295.249 284.854,-304.72 294.473,-300.279 289.604,-295.249"/>
</g>
<!-- Node15&#45;&gt;Node14 -->
<g id="edge41" class="edge"><title>Node15&#45;&gt;Node14</title>
<path fill="none" stroke="midnightblue" d="M348.428,-306.507C365.967,-303.49 384.214,-300.35 400.591,-297.533"/>
<polygon fill="midnightblue" stroke="midnightblue" points="347.465,-303.121 338.203,-308.266 348.652,-310.02 347.465,-303.121"/>
</g>
<!-- Node16 -->
<g id="node16" class="node"><title>Node16</title>
<g id="a_node16"><a xlink:href="../../de/d0a/classview_1_1_drawer.html#a6b9f362b8bc763689630b1fe7b5c1887" target="_top" xlink:title="view.Drawer.draw">
<polygon fill="white" stroke="black" points="408,-316.5 408,-335.5 506,-335.5 506,-316.5 408,-316.5"/>
<text text-anchor="middle" x="457" y="-323.5" font-family="Helvetica,sans-Serif" font-size="10.00">view.Drawer.draw</text>
</a>
</g>
</g>
<!-- Node15&#45;&gt;Node16 -->
<g id="edge24" class="edge"><title>Node15&#45;&gt;Node16</title>
<path fill="none" stroke="midnightblue" d="M348.348,-322.527C368.559,-323.179 389.718,-323.862 407.876,-324.448"/>
<polygon fill="midnightblue" stroke="midnightblue" points="348.311,-319.024 338.203,-322.2 348.085,-326.021 348.311,-319.024"/>
</g>
<!-- Node19 -->
<g id="node19" class="node"><title>Node19</title>
<g id="a_node19"><a xlink:href="../../da/d64/classview_1_1_workspace.html#a16bda9a6a7fe7f8d3d7b09108675f9c4" target="_top" xlink:title="view.Workspace.setActive\lTurtle">
<polygon fill="white" stroke="black" points="388.5,-469 388.5,-499 525.5,-499 525.5,-469 388.5,-469"/>
<text text-anchor="start" x="396.5" y="-487" font-family="Helvetica,sans-Serif" font-size="10.00">view.Workspace.setActive</text>
<text text-anchor="middle" x="457" y="-476" font-family="Helvetica,sans-Serif" font-size="10.00">Turtle</text>
</a>
</g>
</g>
<!-- Node15&#45;&gt;Node19 -->
<g id="edge28" class="edge"><title>Node15&#45;&gt;Node19</title>
<path fill="none" stroke="midnightblue" d="M283.5,-344.151C301.928,-375.019 337.776,-428.145 382,-459 387.449,-462.802 393.524,-466.065 399.784,-468.855"/>
<polygon fill="midnightblue" stroke="midnightblue" points="286.416,-342.204 278.35,-335.335 280.372,-345.735 286.416,-342.204"/>
</g>
<!-- Node16&#45;&gt;Node17 -->
<g id="edge25" class="edge"><title>Node16&#45;&gt;Node17</title>
<path fill="none" stroke="midnightblue" d="M511.028,-337.784C542.991,-344.887 583.172,-353.816 613.121,-360.471"/>
<polygon fill="midnightblue" stroke="midnightblue" points="511.484,-334.3 500.963,-335.547 509.966,-341.133 511.484,-334.3"/>
</g>
<!-- Node18 -->
<g id="node18" class="node"><title>Node18</title>
<g id="a_node18"><a xlink:href="../../d1/dd3/classmodel_1_1instructions_1_1_movement_instruction.html#a51c776093aeb820937b12e2b89eb2f89" target="_top" xlink:title="model.instructions.Movement\lInstruction.updateView">
<polygon fill="white" stroke="black" points="782.5,-355 782.5,-385 941.5,-385 941.5,-355 782.5,-355"/>
<text text-anchor="start" x="790.5" y="-373" font-family="Helvetica,sans-Serif" font-size="10.00">model.instructions.Movement</text>
<text text-anchor="middle" x="862" y="-362" font-family="Helvetica,sans-Serif" font-size="10.00">Instruction.updateView</text>
</a>
</g>
</g>
<!-- Node17&#45;&gt;Node18 -->
<g id="edge26" class="edge"><title>Node17&#45;&gt;Node18</title>
<path fill="none" stroke="midnightblue" d="M756.4,-370C765.155,-370 773.94,-370 782.495,-370"/>
<polygon fill="midnightblue" stroke="midnightblue" points="756.153,-366.5 746.153,-370 756.153,-373.5 756.153,-366.5"/>
</g>
<!-- Node18&#45;&gt;Node3 -->
<g id="edge27" class="edge"><title>Node18&#45;&gt;Node3</title>
<path fill="none" stroke="midnightblue" d="M920.762,-351.814C927.918,-349.533 935.131,-347.222 942,-345 965.108,-337.526 990.773,-329.061 1011.98,-322.021"/>
<polygon fill="midnightblue" stroke="midnightblue" points="919.544,-348.528 911.075,-354.893 921.665,-355.199 919.544,-348.528"/>
</g>
<!-- Node20 -->
<g id="node20" class="node"><title>Node20</title>
<g id="a_node20"><a xlink:href="../../da/d64/classview_1_1_workspace.html#a18e9a02bc4a643c47cb143c6c2e5b057" target="_top" xlink:title="view.Workspace.Workspace">
<polygon fill="white" stroke="black" points="986,-464.5 986,-483.5 1130,-483.5 1130,-464.5 986,-464.5"/>
<text text-anchor="middle" x="1058" y="-471.5" font-family="Helvetica,sans-Serif" font-size="10.00">view.Workspace.Workspace</text>
</a>
</g>
</g>
<!-- Node19&#45;&gt;Node20 -->
<g id="edge29" class="edge"><title>Node19&#45;&gt;Node20</title>
<path fill="none" stroke="midnightblue" d="M535.871,-482.7C653.047,-480.744 872.985,-477.072 985.992,-475.185"/>
<polygon fill="midnightblue" stroke="midnightblue" points="535.489,-479.206 525.549,-482.872 535.606,-486.205 535.489,-479.206"/>
</g>
<!-- Node21 -->
<g id="node21" class="node"><title>Node21</title>
<g id="a_node21"><a xlink:href="../../da/d64/classview_1_1_workspace.html#a9eea72f983d5e7ad5af85056d927e380" target="_top" xlink:title="view.Workspace.configure\lTurtleEventHandler">
<polygon fill="white" stroke="black" points="588.5,-503 588.5,-533 725.5,-533 725.5,-503 588.5,-503"/>
<text text-anchor="start" x="596.5" y="-521" font-family="Helvetica,sans-Serif" font-size="10.00">view.Workspace.configure</text>
<text text-anchor="middle" x="657" y="-510" font-family="Helvetica,sans-Serif" font-size="10.00">TurtleEventHandler</text>
</a>
</g>
</g>
<!-- Node19&#45;&gt;Node21 -->
<g id="edge30" class="edge"><title>Node19&#45;&gt;Node21</title>
<path fill="none" stroke="midnightblue" d="M535.708,-497.344C553.108,-500.332 571.43,-503.478 588.382,-506.389"/>
<polygon fill="midnightblue" stroke="midnightblue" points="536.035,-493.849 525.587,-495.606 534.85,-500.748 536.035,-493.849"/>
</g>
<!-- Node22 -->
<g id="node22" class="node"><title>Node22</title>
<g id="a_node22"><a xlink:href="../../da/d64/classview_1_1_workspace.html#a58b943798f78aa9414a854dcd54fa7ae" target="_top" xlink:title="view.Workspace.addTurtle">
<polygon fill="white" stroke="black" points="793.5,-508.5 793.5,-527.5 930.5,-527.5 930.5,-508.5 793.5,-508.5"/>
<text text-anchor="middle" x="862" y="-515.5" font-family="Helvetica,sans-Serif" font-size="10.00">view.Workspace.addTurtle</text>
</a>
</g>
</g>
<!-- Node21&#45;&gt;Node22 -->
<g id="edge31" class="edge"><title>Node21&#45;&gt;Node22</title>
<path fill="none" stroke="midnightblue" d="M735.706,-518C754.7,-518 774.872,-518 793.353,-518"/>
<polygon fill="midnightblue" stroke="midnightblue" points="735.596,-514.5 725.596,-518 735.596,-521.5 735.596,-514.5"/>
</g>
<!-- Node22&#45;&gt;Node20 -->
<g id="edge37" class="edge"><title>Node22&#45;&gt;Node20</title>
<path fill="none" stroke="midnightblue" d="M914.957,-506.216C946.274,-499.113 985.643,-490.184 1014.99,-483.529"/>
<polygon fill="midnightblue" stroke="midnightblue" points="914.073,-502.827 905.095,-508.453 915.622,-509.654 914.073,-502.827"/>
</g>
<!-- Node23 -->
<g id="node23" class="node"><title>Node23</title>
<g id="a_node23"><a xlink:href="../../d6/de7/classview_1_1_s_logo_view.html#acf432f20e1a7dda7bef97f0619fb0fa5" target="_top" xlink:title="view.SLogoView.configure\lAddTurtlesButton">
<polygon fill="white" stroke="black" points="989.5,-503 989.5,-533 1126.5,-533 1126.5,-503 989.5,-503"/>
<text text-anchor="start" x="997.5" y="-521" font-family="Helvetica,sans-Serif" font-size="10.00">view.SLogoView.configure</text>
<text text-anchor="middle" x="1058" y="-510" font-family="Helvetica,sans-Serif" font-size="10.00">AddTurtlesButton</text>
</a>
</g>
</g>
<!-- Node22&#45;&gt;Node23 -->
<g id="edge32" class="edge"><title>Node22&#45;&gt;Node23</title>
<path fill="none" stroke="midnightblue" d="M940.979,-518C956.99,-518 973.722,-518 989.334,-518"/>
<polygon fill="midnightblue" stroke="midnightblue" points="940.579,-514.5 930.579,-518 940.579,-521.5 940.579,-514.5"/>
</g>
<!-- Node24 -->
<g id="node24" class="node"><title>Node24</title>
<g id="a_node24"><a xlink:href="../../d6/de7/classview_1_1_s_logo_view.html#ae0050481c9168dd8eeb434d9aa79b047" target="_top" xlink:title="view.SLogoView.configureUI">
<polygon fill="white" stroke="black" points="1174.5,-508.5 1174.5,-527.5 1321.5,-527.5 1321.5,-508.5 1174.5,-508.5"/>
<text text-anchor="middle" x="1248" y="-515.5" font-family="Helvetica,sans-Serif" font-size="10.00">view.SLogoView.configureUI</text>
</a>
</g>
</g>
<!-- Node23&#45;&gt;Node24 -->
<g id="edge33" class="edge"><title>Node23&#45;&gt;Node24</title>
<path fill="none" stroke="midnightblue" d="M1136.89,-518C1149.27,-518 1162.02,-518 1174.27,-518"/>
<polygon fill="midnightblue" stroke="midnightblue" points="1136.61,-514.5 1126.61,-518 1136.61,-521.5 1136.61,-514.5"/>
</g>
<!-- Node25 -->
<g id="node25" class="node"><title>Node25</title>
<g id="a_node25"><a xlink:href="../../d1/d75/classview_1_1_main_view.html#a39a2b399924a553ccd89dd2a2e6ea208" target="_top" xlink:title="view.MainView.newTab">
<polygon fill="white" stroke="black" points="1358,-508.5 1358,-527.5 1478,-527.5 1478,-508.5 1358,-508.5"/>
<text text-anchor="middle" x="1418" y="-515.5" font-family="Helvetica,sans-Serif" font-size="10.00">view.MainView.newTab</text>
</a>
</g>
</g>
<!-- Node24&#45;&gt;Node25 -->
<g id="edge34" class="edge"><title>Node24&#45;&gt;Node25</title>
<path fill="none" stroke="midnightblue" d="M1331.94,-518C1340.68,-518 1349.43,-518 1357.82,-518"/>
<polygon fill="midnightblue" stroke="midnightblue" points="1331.71,-514.5 1321.71,-518 1331.71,-521.5 1331.71,-514.5"/>
</g>
<!-- Node26 -->
<g id="node26" class="node"><title>Node26</title>
<g id="a_node26"><a xlink:href="../../d1/d75/classview_1_1_main_view.html#a200c2c8e08e038e2ea86acc40c17d8d2" target="_top" xlink:title="view.MainView.configureTopMenu">
<polygon fill="white" stroke="black" points="1514,-508.5 1514,-527.5 1686,-527.5 1686,-508.5 1514,-508.5"/>
<text text-anchor="middle" x="1600" y="-515.5" font-family="Helvetica,sans-Serif" font-size="10.00">view.MainView.configureTopMenu</text>
</a>
</g>
</g>
<!-- Node25&#45;&gt;Node26 -->
<g id="edge35" class="edge"><title>Node25&#45;&gt;Node26</title>
<path fill="none" stroke="midnightblue" d="M1488.46,-518C1496.79,-518 1505.37,-518 1513.9,-518"/>
<polygon fill="midnightblue" stroke="midnightblue" points="1488.44,-514.5 1478.44,-518 1488.44,-521.5 1488.44,-514.5"/>
</g>
<!-- Node27 -->
<g id="node27" class="node"><title>Node27</title>
<g id="a_node27"><a xlink:href="../../d1/d75/classview_1_1_main_view.html#a9e27015c007bed90f32c79fc1187083f" target="_top" xlink:title="view.MainView.MainView">
<polygon fill="white" stroke="black" points="1722,-508.5 1722,-527.5 1852,-527.5 1852,-508.5 1722,-508.5"/>
<text text-anchor="middle" x="1787" y="-515.5" font-family="Helvetica,sans-Serif" font-size="10.00">view.MainView.MainView</text>
</a>
</g>
</g>
<!-- Node26&#45;&gt;Node27 -->
<g id="edge36" class="edge"><title>Node26&#45;&gt;Node27</title>
<path fill="none" stroke="midnightblue" d="M1696.37,-518C1705.05,-518 1713.69,-518 1722,-518"/>
<polygon fill="midnightblue" stroke="midnightblue" points="1696.19,-514.5 1686.19,-518 1696.19,-521.5 1696.19,-514.5"/>
</g>
</g>
</svg>
