<?xml version="1.0" encoding="UTF-8" standalone="no"?>
<!DOCTYPE svg PUBLIC "-//W3C//DTD SVG 1.1//EN"
 "http://www.w3.org/Graphics/SVG/1.1/DTD/svg11.dtd">
<!-- Generated by graphviz version 2.36.0 (20140111.2315)
 -->
<!-- Title: view.Workspace.setBackground Pages: 1 -->
<svg width="812pt" height="38pt"
 viewBox="0.00 0.00 812.00 38.00" xmlns="http://www.w3.org/2000/svg" xmlns:xlink="http://www.w3.org/1999/xlink">
<g id="graph0" class="graph" transform="scale(1 1) rotate(0) translate(4 34)">
<title>view.Workspace.setBackground</title>
<polygon fill="white" stroke="none" points="-4,4 -4,-34 808,-34 808,4 -4,4"/>
<!-- Node1 -->
<g id="node1" class="node"><title>Node1</title>
<polygon fill="#bfbfbf" stroke="black" points="0.5,-5.5 0.5,-24.5 165.5,-24.5 165.5,-5.5 0.5,-5.5"/>
<text text-anchor="middle" x="83" y="-12.5" font-family="Helvetica,sans-Serif" font-size="10.00">view.Workspace.setBackground</text>
</g>
<!-- Node2 -->
<g id="node2" class="node"><title>Node2</title>
<g id="a_node2"><a xlink:href="../../dc/d3c/classview_1_1_customization_bar.html#a4edc7c993b5d2b9ee521e3078b833e31" target="_top" xlink:title="view.CustomizationBar.change\lBackgroundColor">
<polygon fill="white" stroke="black" points="202,-0 202,-30 364,-30 364,-0 202,-0"/>
<text text-anchor="start" x="210" y="-18" font-family="Helvetica,sans-Serif" font-size="10.00">view.CustomizationBar.change</text>
<text text-anchor="middle" x="283" y="-7" font-family="Helvetica,sans-Serif" font-size="10.00">BackgroundColor</text>
</a>
</g>
</g>
<!-- Node1&#45;&gt;Node2 -->
<g id="edge1" class="edge"><title>Node1&#45;&gt;Node2</title>
<path fill="none" stroke="midnightblue" d="M175.81,-15C184.485,-15 193.233,-15 201.787,-15"/>
<polygon fill="midnightblue" stroke="midnightblue" points="175.677,-11.5001 165.677,-15 175.677,-18.5001 175.677,-11.5001"/>
</g>
<!-- Node3 -->
<g id="node3" class="node"><title>Node3</title>
<g id="a_node3"><a xlink:href="../../dc/d3c/classview_1_1_customization_bar.html#ab0d07736db72531d01430e2474957435" target="_top" xlink:title="view.CustomizationBar.select\lBackgroundColor">
<polygon fill="white" stroke="black" points="400.5,-0 400.5,-30 555.5,-30 555.5,-0 400.5,-0"/>
<text text-anchor="start" x="408.5" y="-18" font-family="Helvetica,sans-Serif" font-size="10.00">view.CustomizationBar.select</text>
<text text-anchor="middle" x="478" y="-7" font-family="Helvetica,sans-Serif" font-size="10.00">BackgroundColor</text>
</a>
</g>
</g>
<!-- Node2&#45;&gt;Node3 -->
<g id="edge2" class="edge"><title>Node2&#45;&gt;Node3</title>
<path fill="none" stroke="midnightblue" d="M374.375,-15C383.106,-15 391.905,-15 400.483,-15"/>
<polygon fill="midnightblue" stroke="midnightblue" points="374.173,-11.5001 364.173,-15 374.173,-18.5001 374.173,-11.5001"/>
</g>
<!-- Node4 -->
<g id="node4" class="node"><title>Node4</title>
<g id="a_node4"><a xlink:href="../../dc/d3c/classview_1_1_customization_bar.html#a592c1745f5c58bda804730c3ff711dd6" target="_top" xlink:title="view.CustomizationBar.CustomizationBar">
<polygon fill="white" stroke="black" points="592,-5.5 592,-24.5 804,-24.5 804,-5.5 592,-5.5"/>
<text text-anchor="middle" x="698" y="-12.5" font-family="Helvetica,sans-Serif" font-size="10.00">view.CustomizationBar.CustomizationBar</text>
</a>
</g>
</g>
<!-- Node3&#45;&gt;Node4 -->
<g id="edge3" class="edge"><title>Node3&#45;&gt;Node4</title>
<path fill="none" stroke="midnightblue" d="M565.608,-15C574.262,-15 583.114,-15 591.931,-15"/>
<polygon fill="midnightblue" stroke="midnightblue" points="565.552,-11.5001 555.552,-15 565.552,-18.5001 565.552,-11.5001"/>
</g>
</g>
</svg>
