<?xml version="1.0" encoding="UTF-8" standalone="no"?>
<!DOCTYPE svg PUBLIC "-//W3C//DTD SVG 1.1//EN"
 "http://www.w3.org/Graphics/SVG/1.1/DTD/svg11.dtd">
<!-- Generated by graphviz version 2.36.0 (20140111.2315)
 -->
<!-- Title: model.Node.getChildren Pages: 1 -->
<svg width="1238pt" height="66pt"
 viewBox="0.00 0.00 1238.00 66.00" xmlns="http://www.w3.org/2000/svg" xmlns:xlink="http://www.w3.org/1999/xlink">
<g id="graph0" class="graph" transform="scale(1 1) rotate(0) translate(4 62)">
<title>model.Node.getChildren</title>
<polygon fill="white" stroke="none" points="-4,4 -4,-62 1234,-62 1234,4 -4,4"/>
<!-- Node1 -->
<g id="node1" class="node"><title>Node1</title>
<polygon fill="#bfbfbf" stroke="black" points="0.5,-19.5 0.5,-38.5 133.5,-38.5 133.5,-19.5 0.5,-19.5"/>
<text text-anchor="middle" x="67" y="-26.5" font-family="Helvetica,sans-Serif" font-size="10.00">model.Node.getChildren</text>
</g>
<!-- Node2 -->
<g id="node2" class="node"><title>Node2</title>
<g id="a_node2"><a xlink:href="../../dc/df5/classmodel_1_1_parser.html#ae83c95a5190fc22b9b70b1a40b76661c" target="_top" xlink:title="model.Parser.makeTree">
<polygon fill="white" stroke="black" points="170,-19.5 170,-38.5 298,-38.5 298,-19.5 170,-19.5"/>
<text text-anchor="middle" x="234" y="-26.5" font-family="Helvetica,sans-Serif" font-size="10.00">model.Parser.makeTree</text>
</a>
</g>
</g>
<!-- Node1&#45;&gt;Node2 -->
<g id="edge1" class="edge"><title>Node1&#45;&gt;Node2</title>
<path fill="none" stroke="midnightblue" d="M143.865,-29C152.594,-29 161.423,-29 169.958,-29"/>
<polygon fill="midnightblue" stroke="midnightblue" points="143.687,-25.5001 133.686,-29 143.686,-32.5001 143.687,-25.5001"/>
</g>
<!-- Node3 -->
<g id="node3" class="node"><title>Node3</title>
<g id="a_node3"><a xlink:href="../../dc/df5/classmodel_1_1_parser.html#ab83c099e5a13c82b1a12d7eedda6fbf9" target="_top" xlink:title="model.Parser.parseAndExecute">
<polygon fill="white" stroke="black" points="334,-19.5 334,-38.5 500,-38.5 500,-19.5 334,-19.5"/>
<text text-anchor="middle" x="417" y="-26.5" font-family="Helvetica,sans-Serif" font-size="10.00">model.Parser.parseAndExecute</text>
</a>
</g>
</g>
<!-- Node2&#45;&gt;Node3 -->
<g id="edge2" class="edge"><title>Node2&#45;&gt;Node3</title>
<path fill="none" stroke="midnightblue" d="M308.192,-29C316.608,-29 325.231,-29 333.755,-29"/>
<polygon fill="midnightblue" stroke="midnightblue" points="308.051,-25.5001 298.051,-29 308.051,-32.5001 308.051,-25.5001"/>
</g>
<!-- Node4 -->
<g id="node4" class="node"><title>Node4</title>
<g id="a_node4"><a xlink:href="../../d4/dd9/classcontroller_1_1_s_logo_controller.html#a1a88b376059e31c3f311d75fa640d848" target="_top" xlink:title="controller.SLogoController.parse\lInput">
<polygon fill="white" stroke="black" points="536,-14 536,-44 706,-44 706,-14 536,-14"/>
<text text-anchor="start" x="544" y="-32" font-family="Helvetica,sans-Serif" font-size="10.00">controller.SLogoController.parse</text>
<text text-anchor="middle" x="621" y="-21" font-family="Helvetica,sans-Serif" font-size="10.00">Input</text>
</a>
</g>
</g>
<!-- Node3&#45;&gt;Node4 -->
<g id="edge3" class="edge"><title>Node3&#45;&gt;Node4</title>
<path fill="none" stroke="midnightblue" d="M510.184,-29C518.768,-29 527.438,-29 535.943,-29"/>
<polygon fill="midnightblue" stroke="midnightblue" points="510.161,-25.5001 500.161,-29 510.161,-32.5001 510.161,-25.5001"/>
</g>
<!-- Node5 -->
<g id="node5" class="node"><title>Node5</title>
<g id="a_node5"><a xlink:href="../../d1/dc7/classview_1_1_side_bar.html#ac97dbdf731a291e46ba643c78b4c5a93" target="_top" xlink:title="view.SideBar.createHistoryPane">
<polygon fill="white" stroke="black" points="742.5,-38.5 742.5,-57.5 909.5,-57.5 909.5,-38.5 742.5,-38.5"/>
<text text-anchor="middle" x="826" y="-45.5" font-family="Helvetica,sans-Serif" font-size="10.00">view.SideBar.createHistoryPane</text>
</a>
</g>
</g>
<!-- Node4&#45;&gt;Node5 -->
<g id="edge4" class="edge"><title>Node4&#45;&gt;Node5</title>
<path fill="none" stroke="midnightblue" d="M716.221,-37.8187C724.941,-38.6348 733.733,-39.4577 742.337,-40.2631"/>
<polygon fill="midnightblue" stroke="midnightblue" points="716.316,-34.3124 706.033,-36.8652 715.664,-41.2819 716.316,-34.3124"/>
</g>
<!-- Node7 -->
<g id="node7" class="node"><title>Node7</title>
<g id="a_node7"><a xlink:href="../../da/dc8/classview_1_1_editor.html#a149e24d4e5e4464f3fb1601f2717663b" target="_top" xlink:title="view.Editor.parse">
<polygon fill="white" stroke="black" points="778,-0.5 778,-19.5 874,-19.5 874,-0.5 778,-0.5"/>
<text text-anchor="middle" x="826" y="-7.5" font-family="Helvetica,sans-Serif" font-size="10.00">view.Editor.parse</text>
</a>
</g>
</g>
<!-- Node4&#45;&gt;Node7 -->
<g id="edge6" class="edge"><title>Node4&#45;&gt;Node7</title>
<path fill="none" stroke="midnightblue" d="M716.163,-20.1867C737.585,-18.1817 759.444,-16.1357 777.899,-14.4085"/>
<polygon fill="midnightblue" stroke="midnightblue" points="715.664,-16.7181 706.033,-21.1348 716.316,-23.6876 715.664,-16.7181"/>
</g>
<!-- Node6 -->
<g id="node6" class="node"><title>Node6</title>
<g id="a_node6"><a xlink:href="../../d1/dc7/classview_1_1_side_bar.html#a0fa73b1ce839f52ea59de1b5d68d9195" target="_top" xlink:title="view.SideBar.SideBar">
<polygon fill="white" stroke="black" points="963,-38.5 963,-57.5 1079,-57.5 1079,-38.5 963,-38.5"/>
<text text-anchor="middle" x="1021" y="-45.5" font-family="Helvetica,sans-Serif" font-size="10.00">view.SideBar.SideBar</text>
</a>
</g>
</g>
<!-- Node5&#45;&gt;Node6 -->
<g id="edge5" class="edge"><title>Node5&#45;&gt;Node6</title>
<path fill="none" stroke="midnightblue" d="M919.812,-48C934.484,-48 949.271,-48 962.811,-48"/>
<polygon fill="midnightblue" stroke="midnightblue" points="919.689,-44.5001 909.689,-48 919.689,-51.5001 919.689,-44.5001"/>
</g>
<!-- Node8 -->
<g id="node8" class="node"><title>Node8</title>
<g id="a_node8"><a xlink:href="../../da/dc8/classview_1_1_editor.html#abd790752cfd8c9f01fb5b27a3680a982" target="_top" xlink:title="view.Editor.createRunButton">
<polygon fill="white" stroke="black" points="946.5,-0.5 946.5,-19.5 1095.5,-19.5 1095.5,-0.5 946.5,-0.5"/>
<text text-anchor="middle" x="1021" y="-7.5" font-family="Helvetica,sans-Serif" font-size="10.00">view.Editor.createRunButton</text>
</a>
</g>
</g>
<!-- Node7&#45;&gt;Node8 -->
<g id="edge7" class="edge"><title>Node7&#45;&gt;Node8</title>
<path fill="none" stroke="midnightblue" d="M884.4,-10C903.791,-10 925.718,-10 946.198,-10"/>
<polygon fill="midnightblue" stroke="midnightblue" points="884.213,-6.5001 874.213,-10 884.213,-13.5001 884.213,-6.5001"/>
</g>
<!-- Node9 -->
<g id="node9" class="node"><title>Node9</title>
<g id="a_node9"><a xlink:href="../../da/dc8/classview_1_1_editor.html#a3905b799edd56b1c60528737ca88ce28" target="_top" xlink:title="view.Editor.Editor">
<polygon fill="white" stroke="black" points="1132.5,-0.5 1132.5,-19.5 1229.5,-19.5 1229.5,-0.5 1132.5,-0.5"/>
<text text-anchor="middle" x="1181" y="-7.5" font-family="Helvetica,sans-Serif" font-size="10.00">view.Editor.Editor</text>
</a>
</g>
</g>
<!-- Node8&#45;&gt;Node9 -->
<g id="edge8" class="edge"><title>Node8&#45;&gt;Node9</title>
<path fill="none" stroke="midnightblue" d="M1106.07,-10C1115.06,-10 1123.96,-10 1132.3,-10"/>
<polygon fill="midnightblue" stroke="midnightblue" points="1105.91,-6.5001 1095.91,-10 1105.91,-13.5001 1105.91,-6.5001"/>
</g>
</g>
</svg>
