<?xml version="1.0" encoding="UTF-8" standalone="no"?>
<!DOCTYPE svg PUBLIC "-//W3C//DTD SVG 1.1//EN"
 "http://www.w3.org/Graphics/SVG/1.1/DTD/svg11.dtd">
<!-- Generated by graphviz version 2.36.0 (20140111.2315)
 -->
<!-- Title: model.Node.getInstruction Pages: 1 -->
<svg width="1196pt" height="66pt"
 viewBox="0.00 0.00 1196.00 66.00" xmlns="http://www.w3.org/2000/svg" xmlns:xlink="http://www.w3.org/1999/xlink">
<g id="graph0" class="graph" transform="scale(1 1) rotate(0) translate(4 62)">
<title>model.Node.getInstruction</title>
<polygon fill="white" stroke="none" points="-4,4 -4,-62 1192,-62 1192,4 -4,4"/>
<!-- Node1 -->
<g id="node1" class="node"><title>Node1</title>
<polygon fill="#bfbfbf" stroke="black" points="0,-19.5 0,-38.5 144,-38.5 144,-19.5 0,-19.5"/>
<text text-anchor="middle" x="72" y="-26.5" font-family="Helvetica,sans-Serif" font-size="10.00">model.Node.getInstruction</text>
</g>
<!-- Node2 -->
<g id="node2" class="node"><title>Node2</title>
<g id="a_node2"><a xlink:href="../../dc/df5/classmodel_1_1_parser.html#ae83c95a5190fc22b9b70b1a40b76661c" target="_top" xlink:title="model.Parser.makeTree">
<polygon fill="white" stroke="black" points="180,-19.5 180,-38.5 308,-38.5 308,-19.5 180,-19.5"/>
<text text-anchor="middle" x="244" y="-26.5" font-family="Helvetica,sans-Serif" font-size="10.00">model.Parser.makeTree</text>
</a>
</g>
</g>
<!-- Node1&#45;&gt;Node2 -->
<g id="edge1" class="edge"><title>Node1&#45;&gt;Node2</title>
<path fill="none" stroke="midnightblue" d="M154.157,-29C162.753,-29 171.402,-29 179.751,-29"/>
<polygon fill="midnightblue" stroke="midnightblue" points="154.11,-25.5001 144.11,-29 154.11,-32.5001 154.11,-25.5001"/>
</g>
<!-- Node3 -->
<g id="node3" class="node"><title>Node3</title>
<g id="a_node3"><a xlink:href="../../dc/df5/classmodel_1_1_parser.html#ab83c099e5a13c82b1a12d7eedda6fbf9" target="_top" xlink:title="model.Parser.parseAndExecute">
<polygon fill="white" stroke="black" points="344,-19.5 344,-38.5 510,-38.5 510,-19.5 344,-19.5"/>
<text text-anchor="middle" x="427" y="-26.5" font-family="Helvetica,sans-Serif" font-size="10.00">model.Parser.parseAndExecute</text>
</a>
</g>
</g>
<!-- Node2&#45;&gt;Node3 -->
<g id="edge2" class="edge"><title>Node2&#45;&gt;Node3</title>
<path fill="none" stroke="midnightblue" d="M318.192,-29C326.608,-29 335.231,-29 343.755,-29"/>
<polygon fill="midnightblue" stroke="midnightblue" points="318.051,-25.5001 308.051,-29 318.051,-32.5001 318.051,-25.5001"/>
</g>
<!-- Node4 -->
<g id="node4" class="node"><title>Node4</title>
<g id="a_node4"><a xlink:href="../../d4/dd9/classcontroller_1_1_s_logo_controller.html#a1a88b376059e31c3f311d75fa640d848" target="_top" xlink:title="controller.SLogoController.parse\lInput">
<polygon fill="white" stroke="black" points="546,-14 546,-44 716,-44 716,-14 546,-14"/>
<text text-anchor="start" x="554" y="-32" font-family="Helvetica,sans-Serif" font-size="10.00">controller.SLogoController.parse</text>
<text text-anchor="middle" x="631" y="-21" font-family="Helvetica,sans-Serif" font-size="10.00">Input</text>
</a>
</g>
</g>
<!-- Node3&#45;&gt;Node4 -->
<g id="edge3" class="edge"><title>Node3&#45;&gt;Node4</title>
<path fill="none" stroke="midnightblue" d="M520.184,-29C528.768,-29 537.438,-29 545.943,-29"/>
<polygon fill="midnightblue" stroke="midnightblue" points="520.161,-25.5001 510.161,-29 520.161,-32.5001 520.161,-25.5001"/>
</g>
<!-- Node5 -->
<g id="node5" class="node"><title>Node5</title>
<g id="a_node5"><a xlink:href="../../da/dc8/classview_1_1_editor.html#a149e24d4e5e4464f3fb1601f2717663b" target="_top" xlink:title="view.Editor.parse">
<polygon fill="white" stroke="black" points="762,-38.5 762,-57.5 858,-57.5 858,-38.5 762,-38.5"/>
<text text-anchor="middle" x="810" y="-45.5" font-family="Helvetica,sans-Serif" font-size="10.00">view.Editor.parse</text>
</a>
</g>
</g>
<!-- Node4&#45;&gt;Node5 -->
<g id="edge4" class="edge"><title>Node4&#45;&gt;Node5</title>
<path fill="none" stroke="midnightblue" d="M726.402,-39.1335C738.656,-40.4489 750.758,-41.748 761.763,-42.9294"/>
<polygon fill="midnightblue" stroke="midnightblue" points="726.41,-35.6144 716.094,-38.027 725.663,-42.5744 726.41,-35.6144"/>
</g>
<!-- Node8 -->
<g id="node8" class="node"><title>Node8</title>
<g id="a_node8"><a xlink:href="../../d1/dc7/classview_1_1_side_bar.html#a0fa73b1ce839f52ea59de1b5d68d9195" target="_top" xlink:title="view.SideBar.SideBar">
<polygon fill="white" stroke="black" points="752,-0.5 752,-19.5 868,-19.5 868,-0.5 752,-0.5"/>
<text text-anchor="middle" x="810" y="-7.5" font-family="Helvetica,sans-Serif" font-size="10.00">view.SideBar.SideBar</text>
</a>
</g>
</g>
<!-- Node4&#45;&gt;Node8 -->
<g id="edge7" class="edge"><title>Node4&#45;&gt;Node8</title>
<path fill="none" stroke="midnightblue" d="M726.051,-18.9041C734.859,-17.9586 743.594,-17.021 751.904,-16.129"/>
<polygon fill="midnightblue" stroke="midnightblue" points="725.663,-15.4256 716.094,-19.973 726.41,-22.3856 725.663,-15.4256"/>
</g>
<!-- Node6 -->
<g id="node6" class="node"><title>Node6</title>
<g id="a_node6"><a xlink:href="../../da/dc8/classview_1_1_editor.html#abd790752cfd8c9f01fb5b27a3680a982" target="_top" xlink:title="view.Editor.createRunButton">
<polygon fill="white" stroke="black" points="904.5,-38.5 904.5,-57.5 1053.5,-57.5 1053.5,-38.5 904.5,-38.5"/>
<text text-anchor="middle" x="979" y="-45.5" font-family="Helvetica,sans-Serif" font-size="10.00">view.Editor.createRunButton</text>
</a>
</g>
</g>
<!-- Node5&#45;&gt;Node6 -->
<g id="edge5" class="edge"><title>Node5&#45;&gt;Node6</title>
<path fill="none" stroke="midnightblue" d="M868.702,-48C880.162,-48 892.34,-48 904.25,-48"/>
<polygon fill="midnightblue" stroke="midnightblue" points="868.409,-44.5001 858.409,-48 868.409,-51.5001 868.409,-44.5001"/>
</g>
<!-- Node7 -->
<g id="node7" class="node"><title>Node7</title>
<g id="a_node7"><a xlink:href="../../da/dc8/classview_1_1_editor.html#a3905b799edd56b1c60528737ca88ce28" target="_top" xlink:title="view.Editor.Editor">
<polygon fill="white" stroke="black" points="1090.5,-38.5 1090.5,-57.5 1187.5,-57.5 1187.5,-38.5 1090.5,-38.5"/>
<text text-anchor="middle" x="1139" y="-45.5" font-family="Helvetica,sans-Serif" font-size="10.00">view.Editor.Editor</text>
</a>
</g>
</g>
<!-- Node6&#45;&gt;Node7 -->
<g id="edge6" class="edge"><title>Node6&#45;&gt;Node7</title>
<path fill="none" stroke="midnightblue" d="M1064.07,-48C1073.06,-48 1081.96,-48 1090.3,-48"/>
<polygon fill="midnightblue" stroke="midnightblue" points="1063.91,-44.5001 1053.91,-48 1063.91,-51.5001 1063.91,-44.5001"/>
</g>
</g>
</svg>
