<?xml version="1.0" encoding="UTF-8" standalone="no"?>
<!DOCTYPE svg PUBLIC "-//W3C//DTD SVG 1.1//EN"
 "http://www.w3.org/Graphics/SVG/1.1/DTD/svg11.dtd">
<!-- Generated by graphviz version 2.36.0 (20140111.2315)
 -->
<!-- Title: view.Editor Pages: 1 -->
<svg width="1550pt" height="656pt"
 viewBox="0.00 0.00 1550.00 656.00" xmlns="http://www.w3.org/2000/svg" xmlns:xlink="http://www.w3.org/1999/xlink">
<g id="graph0" class="graph" transform="scale(1 1) rotate(0) translate(4 652)">
<title>view.Editor</title>
<polygon fill="white" stroke="none" points="-4,4 -4,-652 1546,-652 1546,4 -4,4"/>
<!-- Node1 -->
<g id="node1" class="node"><title>Node1</title>
<polygon fill="#bfbfbf" stroke="black" points="199.5,-230.5 199.5,-249.5 266.5,-249.5 266.5,-230.5 199.5,-230.5"/>
<text text-anchor="middle" x="233" y="-237.5" font-family="Helvetica,sans-Serif" font-size="10.00">view.Editor</text>
</g>
<!-- Node13 -->
<g id="node13" class="node"><title>Node13</title>
<g id="a_node13"><a xlink:href="../../d6/de7/classview_1_1_s_logo_view.html" target="_top" xlink:title="view.SLogoView">
<polygon fill="white" stroke="black" points="501.5,-361.5 501.5,-380.5 592.5,-380.5 592.5,-361.5 501.5,-361.5"/>
<text text-anchor="middle" x="547" y="-368.5" font-family="Helvetica,sans-Serif" font-size="10.00">view.SLogoView</text>
</a>
</g>
</g>
<!-- Node1&#45;&gt;Node13 -->
<g id="edge30" class="edge"><title>Node1&#45;&gt;Node13</title>
<path fill="none" stroke="#9a32cd" stroke-dasharray="5,2" d="M276.539,-245.762C321.451,-253.027 393.438,-268.086 450,-296 485.467,-313.503 520.343,-345.454 536.567,-361.406"/>
<polygon fill="#9a32cd" stroke="#9a32cd" points="276.977,-242.288 266.557,-244.204 275.897,-249.205 276.977,-242.288"/>
<text text-anchor="middle" x="394" y="-299" font-family="Helvetica,sans-Serif" font-size="10.00"> myEditor</text>
</g>
<!-- Node2 -->
<g id="node2" class="node"><title>Node2</title>
<polygon fill="white" stroke="#bfbfbf" points="8,-268.5 8,-287.5 50,-287.5 50,-268.5 8,-268.5"/>
<text text-anchor="middle" x="29" y="-275.5" font-family="Helvetica,sans-Serif" font-size="10.00">HBox</text>
</g>
<!-- Node2&#45;&gt;Node1 -->
<g id="edge1" class="edge"><title>Node2&#45;&gt;Node1</title>
<path fill="none" stroke="midnightblue" d="M60.3742,-272.286C97.7608,-265.253 160.997,-253.357 199.384,-246.136"/>
<polygon fill="midnightblue" stroke="midnightblue" points="59.2876,-268.929 50.107,-274.217 60.5817,-275.808 59.2876,-268.929"/>
</g>
<!-- Node3 -->
<g id="node3" class="node"><title>Node3</title>
<polygon fill="white" stroke="#bfbfbf" points="4.5,-230.5 4.5,-249.5 53.5,-249.5 53.5,-230.5 4.5,-230.5"/>
<text text-anchor="middle" x="29" y="-237.5" font-family="Helvetica,sans-Serif" font-size="10.00">Button</text>
</g>
<!-- Node3&#45;&gt;Node1 -->
<g id="edge2" class="edge"><title>Node3&#45;&gt;Node1</title>
<path fill="none" stroke="#9a32cd" stroke-dasharray="5,2" d="M64.0235,-240C101.718,-240 162.073,-240 199.249,-240"/>
<polygon fill="#9a32cd" stroke="#9a32cd" points="63.5673,-236.5 53.5673,-240 63.5673,-243.5 63.5673,-236.5"/>
<text text-anchor="middle" x="102" y="-243" font-family="Helvetica,sans-Serif" font-size="10.00"> runButton</text>
</g>
<!-- Node4 -->
<g id="node4" class="node"><title>Node4</title>
<g id="a_node4"><a xlink:href="../../d4/dd9/classcontroller_1_1_s_logo_controller.html" target="_top" xlink:title="controller.SLogoController">
<polygon fill="white" stroke="black" points="966,-285.5 966,-304.5 1106,-304.5 1106,-285.5 966,-285.5"/>
<text text-anchor="middle" x="1036" y="-292.5" font-family="Helvetica,sans-Serif" font-size="10.00">controller.SLogoController</text>
</a>
</g>
</g>
<!-- Node4&#45;&gt;Node1 -->
<g id="edge3" class="edge"><title>Node4&#45;&gt;Node1</title>
<path fill="none" stroke="#9a32cd" stroke-dasharray="5,2" d="M980.441,-282.985C972.196,-280.85 963.834,-278.502 956,-276 914.018,-262.589 907.041,-248.475 864,-239 640.217,-189.738 360.785,-221.774 266.656,-235.037"/>
<polygon fill="#9a32cd" stroke="#9a32cd" points="979.844,-286.443 990.395,-285.478 981.545,-279.653 979.844,-286.443"/>
<text text-anchor="middle" x="705" y="-225" font-family="Helvetica,sans-Serif" font-size="10.00"> myController</text>
</g>
<!-- Node4&#45;&gt;Node13 -->
<g id="edge32" class="edge"><title>Node4&#45;&gt;Node13</title>
<path fill="none" stroke="#9a32cd" stroke-dasharray="5,2" d="M963.93,-306.091C861.968,-322.003 677.156,-350.844 592.509,-364.054"/>
<polygon fill="#9a32cd" stroke="#9a32cd" points="964.493,-309.546 973.834,-304.545 963.414,-302.629 964.493,-309.546"/>
<text text-anchor="middle" x="824" y="-336" font-family="Helvetica,sans-Serif" font-size="10.00"> myController</text>
</g>
<!-- Node19 -->
<g id="node19" class="node"><title>Node19</title>
<g id="a_node19"><a xlink:href="../../d1/dc7/classview_1_1_side_bar.html" target="_top" xlink:title="view.SideBar">
<polygon fill="white" stroke="black" points="1258.5,-285.5 1258.5,-304.5 1335.5,-304.5 1335.5,-285.5 1258.5,-285.5"/>
<text text-anchor="middle" x="1297" y="-292.5" font-family="Helvetica,sans-Serif" font-size="10.00">view.SideBar</text>
</a>
</g>
</g>
<!-- Node4&#45;&gt;Node19 -->
<g id="edge21" class="edge"><title>Node4&#45;&gt;Node19</title>
<path fill="none" stroke="#9a32cd" stroke-dasharray="5,2" d="M1116.28,-295C1163.51,-295 1221.28,-295 1258.36,-295"/>
<polygon fill="#9a32cd" stroke="#9a32cd" points="1116.07,-291.5 1106.07,-295 1116.07,-298.5 1116.07,-291.5"/>
<text text-anchor="middle" x="1185" y="-298" font-family="Helvetica,sans-Serif" font-size="10.00"> myController</text>
</g>
<!-- Node5 -->
<g id="node5" class="node"><title>Node5</title>
<g id="a_node5"><a xlink:href="../../dc/df5/classmodel_1_1_parser.html" target="_top" xlink:title="model.Parser">
<polygon fill="white" stroke="black" points="784,-121.5 784,-140.5 864,-140.5 864,-121.5 784,-121.5"/>
<text text-anchor="middle" x="824" y="-128.5" font-family="Helvetica,sans-Serif" font-size="10.00">model.Parser</text>
</a>
</g>
</g>
<!-- Node5&#45;&gt;Node4 -->
<g id="edge4" class="edge"><title>Node5&#45;&gt;Node4</title>
<path fill="none" stroke="#9a32cd" stroke-dasharray="5,2" d="M869.982,-144.06C893.671,-153.2 921.212,-167.823 938,-190 961.57,-221.135 928.8,-247.98 956,-276 959.734,-279.846 964.1,-282.969 968.828,-285.499"/>
<polygon fill="#9a32cd" stroke="#9a32cd" points="871.043,-140.721 860.449,-140.589 868.648,-147.299 871.043,-140.721"/>
<text text-anchor="middle" x="910" y="-193" font-family="Helvetica,sans-Serif" font-size="10.00"> myParser</text>
</g>
<!-- Node6 -->
<g id="node6" class="node"><title>Node6</title>
<polygon fill="white" stroke="#bfbfbf" points="203,-148.5 203,-167.5 263,-167.5 263,-148.5 203,-148.5"/>
<text text-anchor="middle" x="233" y="-155.5" font-family="Helvetica,sans-Serif" font-size="10.00">Observer</text>
</g>
<!-- Node6&#45;&gt;Node5 -->
<g id="edge5" class="edge"><title>Node6&#45;&gt;Node5</title>
<path fill="none" stroke="midnightblue" d="M273.037,-152.612C319.412,-146.495 399.168,-136.863 468,-133 546.101,-128.617 565.778,-132.441 644,-132 692.168,-131.729 747.628,-131.419 783.891,-131.217"/>
<polygon fill="midnightblue" stroke="midnightblue" points="272.557,-149.145 263.107,-153.936 273.482,-156.084 272.557,-149.145"/>
</g>
<!-- Node6&#45;&gt;Node13 -->
<g id="edge13" class="edge"><title>Node6&#45;&gt;Node13</title>
<path fill="none" stroke="midnightblue" d="M272.945,-169.481C318.534,-184.211 394.812,-212.979 450,-255 491.596,-286.672 526.792,-339.657 540.2,-361.323"/>
<polygon fill="midnightblue" stroke="midnightblue" points="273.74,-166.061 263.15,-166.38 271.627,-172.735 273.74,-166.061"/>
</g>
<!-- Node7 -->
<g id="node7" class="node"><title>Node7</title>
<polygon fill="white" stroke="#bfbfbf" points="491,-17 491,-47 603,-47 603,-17 491,-17"/>
<text text-anchor="start" x="499" y="-35" font-family="Helvetica,sans-Serif" font-size="10.00">List&lt; Entry&lt; String,</text>
<text text-anchor="middle" x="547" y="-24" font-family="Helvetica,sans-Serif" font-size="10.00"> Pattern &gt; &gt;</text>
</g>
<!-- Node7&#45;&gt;Node5 -->
<g id="edge6" class="edge"><title>Node7&#45;&gt;Node5</title>
<path fill="none" stroke="#9a32cd" stroke-dasharray="5,2" d="M613.226,-26.1349C658.838,-25.0219 719.643,-29.7468 766,-56 792.896,-71.232 811.147,-104.852 818.858,-121.407"/>
<polygon fill="#9a32cd" stroke="#9a32cd" points="613.024,-22.6397 603.15,-26.4808 613.265,-29.6356 613.024,-22.6397"/>
<text text-anchor="middle" x="705" y="-59" font-family="Helvetica,sans-Serif" font-size="10.00"> myPatterns</text>
</g>
<!-- Node8 -->
<g id="node8" class="node"><title>Node8</title>
<g id="a_node8"><a xlink:href="../../d1/dca/classmodel_1_1_execution_environment.html" target="_top" xlink:title="model.ExecutionEnvironment">
<polygon fill="white" stroke="black" points="468.5,-66.5 468.5,-85.5 625.5,-85.5 625.5,-66.5 468.5,-66.5"/>
<text text-anchor="middle" x="547" y="-73.5" font-family="Helvetica,sans-Serif" font-size="10.00">model.ExecutionEnvironment</text>
</a>
</g>
</g>
<!-- Node8&#45;&gt;Node5 -->
<g id="edge7" class="edge"><title>Node8&#45;&gt;Node5</title>
<path fill="none" stroke="#9a32cd" stroke-dasharray="5,2" d="M635.744,-69.9808C676.456,-69.9962 724.836,-74.1 766,-89 784.955,-95.8612 803.017,-111.168 813.551,-121.284"/>
<polygon fill="#9a32cd" stroke="#9a32cd" points="635.54,-66.4822 625.568,-70.0609 635.595,-73.482 635.54,-66.4822"/>
<text text-anchor="middle" x="705" y="-92" font-family="Helvetica,sans-Serif" font-size="10.00"> myExecutionParameters</text>
</g>
<!-- Node9 -->
<g id="node9" class="node"><title>Node9</title>
<polygon fill="white" stroke="#bfbfbf" points="197.5,-88.5 197.5,-107.5 268.5,-107.5 268.5,-88.5 197.5,-88.5"/>
<text text-anchor="middle" x="233" y="-95.5" font-family="Helvetica,sans-Serif" font-size="10.00">Observable</text>
</g>
<!-- Node9&#45;&gt;Node8 -->
<g id="edge8" class="edge"><title>Node9&#45;&gt;Node8</title>
<path fill="none" stroke="midnightblue" d="M278.637,-94.8525C328.066,-91.3671 408.658,-85.6843 468.457,-81.4678"/>
<polygon fill="midnightblue" stroke="midnightblue" points="278.311,-91.3668 268.582,-95.5616 278.803,-98.3494 278.311,-91.3668"/>
</g>
<!-- Node10 -->
<g id="node10" class="node"><title>Node10</title>
<polygon fill="white" stroke="#bfbfbf" points="146,-39 146,-69 320,-69 320,-39 146,-39"/>
<text text-anchor="start" x="154" y="-57" font-family="Helvetica,sans-Serif" font-size="10.00">Map&lt; String, model.instructions.</text>
<text text-anchor="middle" x="233" y="-46" font-family="Helvetica,sans-Serif" font-size="10.00">Instruction &gt;</text>
</g>
<!-- Node10&#45;&gt;Node8 -->
<g id="edge9" class="edge"><title>Node10&#45;&gt;Node8</title>
<path fill="none" stroke="#9a32cd" stroke-dasharray="5,2" d="M330.559,-60.6339C367.877,-63.2166 410.929,-66.2189 450,-69 456.001,-69.4271 462.212,-69.8726 468.456,-70.3227"/>
<polygon fill="#9a32cd" stroke="#9a32cd" points="330.411,-57.1154 320.193,-59.9171 329.928,-64.0988 330.411,-57.1154"/>
<text text-anchor="middle" x="394" y="-72" font-family="Helvetica,sans-Serif" font-size="10.00"> myUserInstructionMap</text>
</g>
<!-- Node11 -->
<g id="node11" class="node"><title>Node11</title>
<polygon fill="white" stroke="#bfbfbf" points="169,-0.5 169,-19.5 297,-19.5 297,-0.5 169,-0.5"/>
<text text-anchor="middle" x="233" y="-7.5" font-family="Helvetica,sans-Serif" font-size="10.00">Map&lt; String, Double &gt;</text>
</g>
<!-- Node11&#45;&gt;Node8 -->
<g id="edge10" class="edge"><title>Node11&#45;&gt;Node8</title>
<path fill="none" stroke="#9a32cd" stroke-dasharray="5,2" d="M307.072,-17.0987C349.536,-22.554 403.642,-31.8097 450,-47 458.5,-49.7851 459.621,-52.8716 468,-56 478.739,-60.0095 490.602,-63.5025 501.766,-66.3984"/>
<polygon fill="#9a32cd" stroke="#9a32cd" points="307.449,-13.6187 297.094,-15.8589 306.586,-20.5653 307.449,-13.6187"/>
<text text-anchor="middle" x="394" y="-50" font-family="Helvetica,sans-Serif" font-size="10.00"> myVariableMap</text>
</g>
<!-- Node12 -->
<g id="node12" class="node"><title>Node12</title>
<polygon fill="white" stroke="#bfbfbf" points="486,-142.5 486,-161.5 608,-161.5 608,-142.5 486,-142.5"/>
<text text-anchor="middle" x="547" y="-149.5" font-family="Helvetica,sans-Serif" font-size="10.00">Map&lt; String, String &gt;</text>
</g>
<!-- Node12&#45;&gt;Node5 -->
<g id="edge11" class="edge"><title>Node12&#45;&gt;Node5</title>
<path fill="none" stroke="#9a32cd" stroke-dasharray="5,2" d="M618.284,-146.633C670.88,-142.616 740.879,-137.271 783.895,-133.986"/>
<polygon fill="#9a32cd" stroke="#9a32cd" points="617.715,-143.166 608.01,-147.417 618.248,-150.146 617.715,-143.166"/>
<text text-anchor="middle" x="705" y="-148" font-family="Helvetica,sans-Serif" font-size="10.00"> myCommandMap</text>
</g>
<!-- Node13&#45;&gt;Node5 -->
<g id="edge12" class="edge"><title>Node13&#45;&gt;Node5</title>
<path fill="none" stroke="#9a32cd" stroke-dasharray="5,2" d="M551.949,-351.371C560.89,-312.354 586.535,-225.106 644,-182 688.139,-148.89 713.649,-176.434 766,-159 780.226,-154.262 795.424,-146.656 806.546,-140.566"/>
<polygon fill="#9a32cd" stroke="#9a32cd" points="548.512,-350.71 549.817,-361.224 555.353,-352.191 548.512,-350.71"/>
<text text-anchor="middle" x="705" y="-185" font-family="Helvetica,sans-Serif" font-size="10.00"> mySLogoView</text>
</g>
<!-- Node14 -->
<g id="node14" class="node"><title>Node14</title>
<g id="a_node14"><a xlink:href="../../da/d64/classview_1_1_workspace.html" target="_top" xlink:title="view.Workspace">
<polygon fill="white" stroke="black" points="1452,-522.5 1452,-541.5 1542,-541.5 1542,-522.5 1452,-522.5"/>
<text text-anchor="middle" x="1497" y="-529.5" font-family="Helvetica,sans-Serif" font-size="10.00">view.Workspace</text>
</a>
</g>
</g>
<!-- Node14&#45;&gt;Node13 -->
<g id="edge14" class="edge"><title>Node14&#45;&gt;Node13</title>
<path fill="none" stroke="#9a32cd" stroke-dasharray="5,2" d="M1441.7,-528.321C1305.51,-518.191 939.238,-485.339 644,-408 617.391,-401.03 588.056,-389.056 568.903,-380.621"/>
<polygon fill="#9a32cd" stroke="#9a32cd" points="1441.64,-531.826 1451.86,-529.067 1442.15,-524.845 1441.64,-531.826"/>
<text text-anchor="middle" x="1036" y="-497" font-family="Helvetica,sans-Serif" font-size="10.00"> myWorkspace</text>
</g>
<!-- Node15 -->
<g id="node15" class="node"><title>Node15</title>
<polygon fill="white" stroke="#bfbfbf" points="1263.5,-628.5 1263.5,-647.5 1330.5,-647.5 1330.5,-628.5 1263.5,-628.5"/>
<text text-anchor="middle" x="1297" y="-635.5" font-family="Helvetica,sans-Serif" font-size="10.00">StackPane</text>
</g>
<!-- Node15&#45;&gt;Node14 -->
<g id="edge15" class="edge"><title>Node15&#45;&gt;Node14</title>
<path fill="none" stroke="midnightblue" d="M1340.5,-636.693C1368.81,-634.112 1405.83,-627.313 1434,-610 1461.85,-592.88 1482.37,-558.524 1491.21,-541.714"/>
<polygon fill="midnightblue" stroke="midnightblue" points="1340.2,-633.206 1330.5,-637.465 1340.74,-640.185 1340.2,-633.206"/>
</g>
<!-- Node16 -->
<g id="node16" class="node"><title>Node16</title>
<g id="a_node16"><a xlink:href="../../d8/df7/classview_1_1_turtle_view.html" target="_top" xlink:title="view.TurtleView">
<polygon fill="white" stroke="black" points="1254,-590.5 1254,-609.5 1340,-609.5 1340,-590.5 1254,-590.5"/>
<text text-anchor="middle" x="1297" y="-597.5" font-family="Helvetica,sans-Serif" font-size="10.00">view.TurtleView</text>
</a>
</g>
</g>
<!-- Node16&#45;&gt;Node14 -->
<g id="edge16" class="edge"><title>Node16&#45;&gt;Node14</title>
<path fill="none" stroke="#9a32cd" stroke-dasharray="5,2" d="M1350.14,-596.241C1376.11,-593.025 1407.54,-587.061 1434,-576 1453.97,-567.652 1473.8,-551.942 1485.47,-541.729"/>
<polygon fill="#9a32cd" stroke="#9a32cd" points="1349.65,-592.774 1340.11,-597.382 1350.44,-599.729 1349.65,-592.774"/>
<text text-anchor="middle" x="1396" y="-598" font-family="Helvetica,sans-Serif" font-size="10.00"> myActiveTurtle</text>
</g>
<!-- Node17 -->
<g id="node17" class="node"><title>Node17</title>
<polygon fill="white" stroke="#bfbfbf" points="1002,-590.5 1002,-609.5 1070,-609.5 1070,-590.5 1002,-590.5"/>
<text text-anchor="middle" x="1036" y="-597.5" font-family="Helvetica,sans-Serif" font-size="10.00">ImageView</text>
</g>
<!-- Node17&#45;&gt;Node16 -->
<g id="edge17" class="edge"><title>Node17&#45;&gt;Node16</title>
<path fill="none" stroke="midnightblue" d="M1080.18,-600C1128.37,-600 1205.85,-600 1253.69,-600"/>
<polygon fill="midnightblue" stroke="midnightblue" points="1080.07,-596.5 1070.07,-600 1080.07,-603.5 1080.07,-596.5"/>
</g>
<!-- Node18 -->
<g id="node18" class="node"><title>Node18</title>
<polygon fill="white" stroke="#bfbfbf" points="165,-522 165,-552 301,-552 301,-522 165,-522"/>
<text text-anchor="start" x="173" y="-540" font-family="Helvetica,sans-Serif" font-size="10.00">Map&lt; Integer, view.Turtle</text>
<text text-anchor="middle" x="233" y="-529" font-family="Helvetica,sans-Serif" font-size="10.00">View &gt;</text>
</g>
<!-- Node18&#45;&gt;Node13 -->
<g id="edge34" class="edge"><title>Node18&#45;&gt;Node13</title>
<path fill="none" stroke="#9a32cd" stroke-dasharray="5,2" d="M305.002,-519.598C316.035,-516.991 327.314,-514.381 338,-512 387.6,-500.949 406.55,-515.353 450,-489 495.839,-461.198 529.345,-403.29 541.254,-380.504"/>
<polygon fill="#9a32cd" stroke="#9a32cd" points="303.882,-516.267 294.963,-521.986 305.502,-523.077 303.882,-516.267"/>
<text text-anchor="middle" x="394" y="-515" font-family="Helvetica,sans-Serif" font-size="10.00"> myTurtles</text>
</g>
<!-- Node18&#45;&gt;Node14 -->
<g id="edge18" class="edge"><title>Node18&#45;&gt;Node14</title>
<path fill="none" stroke="#9a32cd" stroke-dasharray="5,2" d="M311.387,-546.66C374.437,-553.697 465.828,-562 546,-562 546,-562 546,-562 1298,-562 1353.45,-562 1416.67,-550.354 1456.45,-541.575"/>
<polygon fill="#9a32cd" stroke="#9a32cd" points="311.458,-543.146 301.128,-545.499 310.67,-550.102 311.458,-543.146"/>
<text text-anchor="middle" x="910" y="-565" font-family="Helvetica,sans-Serif" font-size="10.00"> myTurtles</text>
</g>
<!-- Node18&#45;&gt;Node19 -->
<g id="edge23" class="edge"><title>Node18&#45;&gt;Node19</title>
<path fill="none" stroke="#9a32cd" stroke-dasharray="5,2" d="M311.298,-537.774C512.89,-539.314 1044.06,-540.133 1116,-507 1211.6,-462.969 1274.91,-340.195 1291.6,-304.716"/>
<polygon fill="#9a32cd" stroke="#9a32cd" points="311.113,-534.272 301.085,-537.693 311.057,-541.272 311.113,-534.272"/>
<text text-anchor="middle" x="824" y="-537" font-family="Helvetica,sans-Serif" font-size="10.00"> myTurtles</text>
</g>
<!-- Node19&#45;&gt;Node1 -->
<g id="edge40" class="edge"><title>Node19&#45;&gt;Node1</title>
<path fill="none" stroke="#9a32cd" stroke-dasharray="5,2" d="M1253.12,-306.884C1247.4,-308.126 1241.58,-309.218 1236,-310 1183.15,-317.402 1169.36,-313.111 1116,-314 1044.9,-315.185 1026.99,-318.125 956,-314 842.984,-307.433 562.72,-265.48 450,-255 385.061,-248.963 308.931,-244.219 266.607,-241.788"/>
<polygon fill="#9a32cd" stroke="#9a32cd" points="1254.29,-310.203 1263.24,-304.521 1252.7,-303.387 1254.29,-310.203"/>
<text text-anchor="middle" x="824" y="-309" font-family="Helvetica,sans-Serif" font-size="10.00"> mySidebar</text>
</g>
<!-- Node19&#45;&gt;Node13 -->
<g id="edge37" class="edge"><title>Node19&#45;&gt;Node13</title>
<path fill="none" stroke="#9a32cd" stroke-dasharray="5,2" d="M1281.59,-312.652C1270.54,-324.758 1254.14,-339.872 1236,-347 1008.53,-436.403 705.446,-398.286 592.71,-379.331"/>
<polygon fill="#9a32cd" stroke="#9a32cd" points="1284.43,-314.73 1288.35,-304.887 1279.14,-310.136 1284.43,-314.73"/>
<text text-anchor="middle" x="910" y="-407" font-family="Helvetica,sans-Serif" font-size="10.00"> mySidebar</text>
</g>
<!-- Node19&#45;&gt;Node14 -->
<g id="edge19" class="edge"><title>Node19&#45;&gt;Node14</title>
<path fill="none" stroke="#9a32cd" stroke-dasharray="5,2" d="M1312.47,-312.316C1351.43,-358.959 1457.69,-486.143 1487.89,-522.297"/>
<polygon fill="#9a32cd" stroke="#9a32cd" points="1315.1,-310.014 1306.01,-304.584 1309.73,-314.502 1315.1,-310.014"/>
<text text-anchor="middle" x="1396" y="-459" font-family="Helvetica,sans-Serif" font-size="10.00"> mySidebar</text>
</g>
<!-- Node20 -->
<g id="node20" class="node"><title>Node20</title>
<polygon fill="white" stroke="#bfbfbf" points="1015.5,-247.5 1015.5,-266.5 1056.5,-266.5 1056.5,-247.5 1015.5,-247.5"/>
<text text-anchor="middle" x="1036" y="-254.5" font-family="Helvetica,sans-Serif" font-size="10.00">VBox</text>
</g>
<!-- Node20&#45;&gt;Node19 -->
<g id="edge20" class="edge"><title>Node20&#45;&gt;Node19</title>
<path fill="none" stroke="midnightblue" d="M1066.83,-261.377C1114.22,-268.329 1206.59,-281.882 1258.42,-289.487"/>
<polygon fill="midnightblue" stroke="midnightblue" points="1067.3,-257.907 1056.89,-259.919 1066.28,-264.833 1067.3,-257.907"/>
</g>
<!-- Node21 -->
<g id="node21" class="node"><title>Node21</title>
<polygon fill="white" stroke="#bfbfbf" points="969,-198 969,-228 1103,-228 1103,-198 969,-198"/>
<text text-anchor="start" x="977" y="-216" font-family="Helvetica,sans-Serif" font-size="10.00">TableView&lt; view.Variable</text>
<text text-anchor="middle" x="1036" y="-205" font-family="Helvetica,sans-Serif" font-size="10.00">View &gt;</text>
</g>
<!-- Node21&#45;&gt;Node19 -->
<g id="edge22" class="edge"><title>Node21&#45;&gt;Node19</title>
<path fill="none" stroke="#9a32cd" stroke-dasharray="5,2" d="M1113.23,-210.833C1152.85,-213.17 1200.31,-221.719 1236,-246 1248.86,-254.746 1242.39,-265.658 1254,-276 1258.18,-279.726 1263.22,-282.835 1268.33,-285.386"/>
<polygon fill="#9a32cd" stroke="#9a32cd" points="1113.23,-207.329 1103.07,-210.357 1112.9,-214.321 1113.23,-207.329"/>
<text text-anchor="middle" x="1185" y="-260" font-family="Helvetica,sans-Serif" font-size="10.00"> turtlePropertiesTable</text>
<text text-anchor="middle" x="1185" y="-249" font-family="Helvetica,sans-Serif" font-size="10.00">variablesTable</text>
</g>
<!-- Node22 -->
<g id="node22" class="node"><title>Node22</title>
<polygon fill="white" stroke="#bfbfbf" points="956.5,-149 956.5,-179 1115.5,-179 1115.5,-149 956.5,-149"/>
<text text-anchor="start" x="964.5" y="-167" font-family="Helvetica,sans-Serif" font-size="10.00">ObservableList&lt; view.Variable</text>
<text text-anchor="middle" x="1036" y="-156" font-family="Helvetica,sans-Serif" font-size="10.00">View &gt;</text>
</g>
<!-- Node22&#45;&gt;Node19 -->
<g id="edge24" class="edge"><title>Node22&#45;&gt;Node19</title>
<path fill="none" stroke="#9a32cd" stroke-dasharray="5,2" d="M1126.12,-159.005C1164.44,-161.603 1206.99,-171.56 1236,-199 1261.53,-223.152 1231.69,-248.846 1254,-276 1257.15,-279.834 1261.24,-282.925 1265.62,-285.409"/>
<polygon fill="#9a32cd" stroke="#9a32cd" points="1126.13,-155.501 1115.96,-158.478 1125.76,-162.492 1126.13,-155.501"/>
<text text-anchor="middle" x="1185" y="-202" font-family="Helvetica,sans-Serif" font-size="10.00"> variablesList</text>
</g>
<!-- Node23 -->
<g id="node23" class="node"><title>Node23</title>
<polygon fill="white" stroke="#bfbfbf" points="967,-110.5 967,-129.5 1105,-129.5 1105,-110.5 967,-110.5"/>
<text text-anchor="middle" x="1036" y="-117.5" font-family="Helvetica,sans-Serif" font-size="10.00">ObservableList&lt; String &gt;</text>
</g>
<!-- Node23&#45;&gt;Node19 -->
<g id="edge25" class="edge"><title>Node23&#45;&gt;Node19</title>
<path fill="none" stroke="#9a32cd" stroke-dasharray="5,2" d="M1083.48,-108.558C1128.59,-100.487 1195.94,-96.9621 1236,-135 1281.81,-178.501 1216.45,-225.194 1254,-276 1256.85,-279.862 1260.68,-282.957 1264.86,-285.433"/>
<polygon fill="#9a32cd" stroke="#9a32cd" points="1082.81,-105.123 1073.65,-110.451 1084.13,-111.997 1082.81,-105.123"/>
<text text-anchor="middle" x="1185" y="-149" font-family="Helvetica,sans-Serif" font-size="10.00"> commandItems</text>
<text text-anchor="middle" x="1185" y="-138" font-family="Helvetica,sans-Serif" font-size="10.00">historyItems</text>
</g>
<!-- Node24 -->
<g id="node24" class="node"><title>Node24</title>
<polygon fill="white" stroke="#bfbfbf" points="983,-72.5 983,-91.5 1089,-91.5 1089,-72.5 983,-72.5"/>
<text text-anchor="middle" x="1036" y="-79.5" font-family="Helvetica,sans-Serif" font-size="10.00">ListView&lt; String &gt;</text>
</g>
<!-- Node24&#45;&gt;Node19 -->
<g id="edge26" class="edge"><title>Node24&#45;&gt;Node19</title>
<path fill="none" stroke="#9a32cd" stroke-dasharray="5,2" d="M1076.45,-69.7881C1121.29,-58.614 1193.72,-49.2191 1236,-89 1266.4,-117.609 1229.71,-242.046 1254,-276 1256.7,-279.775 1260.33,-282.815 1264.34,-285.259"/>
<polygon fill="#9a32cd" stroke="#9a32cd" points="1075.28,-66.477 1066.5,-72.4093 1077.06,-73.246 1075.28,-66.477"/>
<text text-anchor="middle" x="1185" y="-92" font-family="Helvetica,sans-Serif" font-size="10.00"> historyList</text>
</g>
<!-- Node25 -->
<g id="node25" class="node"><title>Node25</title>
<polygon fill="white" stroke="#bfbfbf" points="1265.5,-247.5 1265.5,-266.5 1328.5,-266.5 1328.5,-247.5 1265.5,-247.5"/>
<text text-anchor="middle" x="1297" y="-254.5" font-family="Helvetica,sans-Serif" font-size="10.00">Rectangle</text>
</g>
<!-- Node25&#45;&gt;Node14 -->
<g id="edge27" class="edge"><title>Node25&#45;&gt;Node14</title>
<path fill="none" stroke="#9a32cd" stroke-dasharray="5,2" d="M1331.26,-270.959C1334.28,-272.548 1337.23,-274.235 1340,-276 1386.49,-305.669 1402.86,-311.484 1434,-357 1472.22,-412.865 1489.46,-494.836 1494.42,-522.491"/>
<polygon fill="#9a32cd" stroke="#9a32cd" points="1332.69,-267.76 1322.17,-266.508 1329.61,-274.047 1332.69,-267.76"/>
<text text-anchor="middle" x="1396" y="-360" font-family="Helvetica,sans-Serif" font-size="10.00"> myBackground</text>
</g>
<!-- Node26 -->
<g id="node26" class="node"><title>Node26</title>
<polygon fill="white" stroke="#bfbfbf" points="210.5,-327.5 210.5,-346.5 255.5,-346.5 255.5,-327.5 210.5,-327.5"/>
<text text-anchor="middle" x="233" y="-334.5" font-family="Helvetica,sans-Serif" font-size="10.00">Stage</text>
</g>
<!-- Node26&#45;&gt;Node13 -->
<g id="edge28" class="edge"><title>Node26&#45;&gt;Node13</title>
<path fill="none" stroke="#9a32cd" stroke-dasharray="5,2" d="M266.007,-339.732C308.211,-343.422 384.759,-350.414 450,-358 466.706,-359.943 485.009,-362.351 501.112,-364.565"/>
<polygon fill="#9a32cd" stroke="#9a32cd" points="266.062,-336.224 255.797,-338.846 265.457,-343.198 266.062,-336.224"/>
<text text-anchor="middle" x="394" y="-361" font-family="Helvetica,sans-Serif" font-size="10.00"> myStage</text>
</g>
<!-- Node27 -->
<g id="node27" class="node"><title>Node27</title>
<polygon fill="white" stroke="#bfbfbf" points="186.5,-289.5 186.5,-308.5 279.5,-308.5 279.5,-289.5 186.5,-289.5"/>
<text text-anchor="middle" x="233" y="-296.5" font-family="Helvetica,sans-Serif" font-size="10.00">ResourceBundle</text>
</g>
<!-- Node27&#45;&gt;Node13 -->
<g id="edge29" class="edge"><title>Node27&#45;&gt;Node13</title>
<path fill="none" stroke="#9a32cd" stroke-dasharray="5,2" d="M289.964,-303.915C334.019,-308.651 396.672,-317.313 450,-332 477.23,-339.499 507.167,-352.469 526.25,-361.378"/>
<polygon fill="#9a32cd" stroke="#9a32cd" points="290.05,-300.406 279.742,-302.851 289.325,-307.368 290.05,-300.406"/>
<text text-anchor="middle" x="394" y="-335" font-family="Helvetica,sans-Serif" font-size="10.00"> myResources</text>
</g>
<!-- Node28 -->
<g id="node28" class="node"><title>Node28</title>
<polygon fill="white" stroke="#bfbfbf" points="173.5,-479.5 173.5,-498.5 292.5,-498.5 292.5,-479.5 173.5,-479.5"/>
<text text-anchor="middle" x="233" y="-486.5" font-family="Helvetica,sans-Serif" font-size="10.00">Map&lt; String, Node &gt;</text>
</g>
<!-- Node28&#45;&gt;Node13 -->
<g id="edge31" class="edge"><title>Node28&#45;&gt;Node13</title>
<path fill="none" stroke="#9a32cd" stroke-dasharray="5,2" d="M302.971,-480.094C361.05,-472.272 436.741,-461.201 450,-455 488.516,-436.986 523.258,-398.743 538.222,-380.747"/>
<polygon fill="#9a32cd" stroke="#9a32cd" points="302.165,-476.67 292.717,-481.466 303.093,-483.609 302.165,-476.67"/>
<text text-anchor="middle" x="394" y="-477" font-family="Helvetica,sans-Serif" font-size="10.00"> variables</text>
</g>
<!-- Node29 -->
<g id="node29" class="node"><title>Node29</title>
<polygon fill="white" stroke="#bfbfbf" points="192.5,-441.5 192.5,-460.5 273.5,-460.5 273.5,-441.5 192.5,-441.5"/>
<text text-anchor="middle" x="233" y="-448.5" font-family="Helvetica,sans-Serif" font-size="10.00">Dimension2D</text>
</g>
<!-- Node29&#45;&gt;Node13 -->
<g id="edge33" class="edge"><title>Node29&#45;&gt;Node13</title>
<path fill="none" stroke="#9a32cd" stroke-dasharray="5,2" d="M284.042,-447.272C328.43,-442.994 394.627,-434.219 450,-417 479.295,-407.89 510.963,-391.253 529.609,-380.681"/>
<polygon fill="#9a32cd" stroke="#9a32cd" points="283.439,-443.813 273.803,-448.216 284.082,-450.783 283.439,-443.813"/>
<text text-anchor="middle" x="394" y="-444" font-family="Helvetica,sans-Serif" font-size="10.00"> myDimensions</text>
</g>
<!-- Node30 -->
<g id="node30" class="node"><title>Node30</title>
<g id="a_node30"><a xlink:href="../../de/d0a/classview_1_1_drawer.html" target="_top" xlink:title="view.Drawer">
<polygon fill="white" stroke="black" points="196.5,-403.5 196.5,-422.5 269.5,-422.5 269.5,-403.5 196.5,-403.5"/>
<text text-anchor="middle" x="233" y="-410.5" font-family="Helvetica,sans-Serif" font-size="10.00">view.Drawer</text>
</a>
</g>
</g>
<!-- Node30&#45;&gt;Node13 -->
<g id="edge35" class="edge"><title>Node30&#45;&gt;Node13</title>
<path fill="none" stroke="#9a32cd" stroke-dasharray="5,2" d="M279.656,-408.113C323.429,-403.283 391.331,-395.416 450,-387 466.725,-384.601 485.032,-381.635 501.134,-378.91"/>
<polygon fill="#9a32cd" stroke="#9a32cd" points="279.17,-404.645 269.611,-409.214 279.933,-411.603 279.17,-404.645"/>
<text text-anchor="middle" x="394" y="-405" font-family="Helvetica,sans-Serif" font-size="10.00"> drawer</text>
</g>
<!-- Node31 -->
<g id="node31" class="node"><title>Node31</title>
<polygon fill="white" stroke="#bfbfbf" points="8.5,-403.5 8.5,-422.5 49.5,-422.5 49.5,-403.5 8.5,-403.5"/>
<text text-anchor="middle" x="29" y="-410.5" font-family="Helvetica,sans-Serif" font-size="10.00">Color</text>
</g>
<!-- Node31&#45;&gt;Node30 -->
<g id="edge36" class="edge"><title>Node31&#45;&gt;Node30</title>
<path fill="none" stroke="#9a32cd" stroke-dasharray="5,2" d="M60.1816,-413C96.5583,-413 157.607,-413 196.292,-413"/>
<polygon fill="#9a32cd" stroke="#9a32cd" points="59.7364,-409.5 49.7364,-413 59.7364,-416.5 59.7364,-409.5"/>
<text text-anchor="middle" x="102" y="-416" font-family="Helvetica,sans-Serif" font-size="10.00"> myColor</text>
</g>
<!-- Node32 -->
<g id="node32" class="node"><title>Node32</title>
<polygon fill="white" stroke="#bfbfbf" points="210,-365.5 210,-384.5 256,-384.5 256,-365.5 210,-365.5"/>
<text text-anchor="middle" x="233" y="-372.5" font-family="Helvetica,sans-Serif" font-size="10.00">Group</text>
</g>
<!-- Node32&#45;&gt;Node13 -->
<g id="edge38" class="edge"><title>Node32&#45;&gt;Node13</title>
<path fill="none" stroke="#9a32cd" stroke-dasharray="5,2" d="M266.521,-374.583C322.621,-373.864 437.669,-372.389 501.267,-371.574"/>
<polygon fill="#9a32cd" stroke="#9a32cd" points="266.393,-371.084 256.438,-374.712 266.482,-378.084 266.393,-371.084"/>
<text text-anchor="middle" x="394" y="-377" font-family="Helvetica,sans-Serif" font-size="10.00"> lines</text>
</g>
<!-- Node33 -->
<g id="node33" class="node"><title>Node33</title>
<polygon fill="white" stroke="#bfbfbf" points="0,-192.5 0,-211.5 58,-211.5 58,-192.5 0,-192.5"/>
<text text-anchor="middle" x="29" y="-199.5" font-family="Helvetica,sans-Serif" font-size="10.00">TextArea</text>
</g>
<!-- Node33&#45;&gt;Node1 -->
<g id="edge39" class="edge"><title>Node33&#45;&gt;Node1</title>
<path fill="none" stroke="#9a32cd" stroke-dasharray="5,2" d="M68.2332,-209.192C106.167,-216.328 163.67,-227.146 199.475,-233.881"/>
<polygon fill="#9a32cd" stroke="#9a32cd" points="68.5619,-205.693 58.0872,-207.284 67.2678,-212.572 68.5619,-205.693"/>
<text text-anchor="middle" x="102" y="-223" font-family="Helvetica,sans-Serif" font-size="10.00"> textEditor</text>
</g>
</g>
</svg>
