<?xml version="1.0" encoding="UTF-8" standalone="no"?>
<!DOCTYPE svg PUBLIC "-//W3C//DTD SVG 1.1//EN"
 "http://www.w3.org/Graphics/SVG/1.1/DTD/svg11.dtd">
<!-- Generated by graphviz version 2.36.0 (20140111.2315)
 -->
<!-- Title: view.Editor Pages: 1 -->
<svg width="1622pt" height="591pt"
 viewBox="0.00 0.00 1622.00 591.00" xmlns="http://www.w3.org/2000/svg" xmlns:xlink="http://www.w3.org/1999/xlink">
<g id="graph0" class="graph" transform="scale(1 1) rotate(0) translate(4 587)">
<title>view.Editor</title>
<polygon fill="white" stroke="none" points="-4,4 -4,-587 1618,-587 1618,4 -4,4"/>
<!-- Node1 -->
<g id="node1" class="node"><title>Node1</title>
<polygon fill="#bfbfbf" stroke="black" points="199.5,-346.5 199.5,-365.5 266.5,-365.5 266.5,-346.5 199.5,-346.5"/>
<text text-anchor="middle" x="233" y="-353.5" font-family="Helvetica,sans-Serif" font-size="10.00">view.Editor</text>
</g>
<!-- Node12 -->
<g id="node12" class="node"><title>Node12</title>
<g id="a_node12"><a xlink:href="../../d6/de7/classview_1_1_s_logo_view.html" target="_top" xlink:title="view.SLogoView">
<polygon fill="white" stroke="black" points="501.5,-250.5 501.5,-269.5 592.5,-269.5 592.5,-250.5 501.5,-250.5"/>
<text text-anchor="middle" x="547" y="-257.5" font-family="Helvetica,sans-Serif" font-size="10.00">view.SLogoView</text>
</a>
</g>
</g>
<!-- Node1&#45;&gt;Node12 -->
<g id="edge30" class="edge"><title>Node1&#45;&gt;Node12</title>
<path fill="none" stroke="#9a32cd" stroke-dasharray="5,2" d="M276.6,-345.756C337.15,-331.165 441.737,-305.838 450,-303 477.635,-293.508 508.226,-279.084 527.283,-269.601"/>
<polygon fill="#9a32cd" stroke="#9a32cd" points="275.463,-342.429 266.561,-348.174 277.103,-349.235 275.463,-342.429"/>
<text text-anchor="middle" x="394" y="-333" font-family="Helvetica,sans-Serif" font-size="10.00"> myEditor</text>
</g>
<!-- Node2 -->
<g id="node2" class="node"><title>Node2</title>
<polygon fill="white" stroke="#bfbfbf" points="8,-384.5 8,-403.5 50,-403.5 50,-384.5 8,-384.5"/>
<text text-anchor="middle" x="29" y="-391.5" font-family="Helvetica,sans-Serif" font-size="10.00">HBox</text>
</g>
<!-- Node2&#45;&gt;Node1 -->
<g id="edge1" class="edge"><title>Node2&#45;&gt;Node1</title>
<path fill="none" stroke="midnightblue" d="M60.3742,-388.286C97.7608,-381.253 160.997,-369.357 199.384,-362.136"/>
<polygon fill="midnightblue" stroke="midnightblue" points="59.2876,-384.929 50.107,-390.217 60.5817,-391.808 59.2876,-384.929"/>
</g>
<!-- Node3 -->
<g id="node3" class="node"><title>Node3</title>
<polygon fill="white" stroke="#bfbfbf" points="4.5,-346.5 4.5,-365.5 53.5,-365.5 53.5,-346.5 4.5,-346.5"/>
<text text-anchor="middle" x="29" y="-353.5" font-family="Helvetica,sans-Serif" font-size="10.00">Button</text>
</g>
<!-- Node3&#45;&gt;Node1 -->
<g id="edge2" class="edge"><title>Node3&#45;&gt;Node1</title>
<path fill="none" stroke="#9a32cd" stroke-dasharray="5,2" d="M64.0235,-356C101.718,-356 162.073,-356 199.249,-356"/>
<polygon fill="#9a32cd" stroke="#9a32cd" points="63.5673,-352.5 53.5673,-356 63.5673,-359.5 63.5673,-352.5"/>
<text text-anchor="middle" x="102" y="-359" font-family="Helvetica,sans-Serif" font-size="10.00"> runButton</text>
</g>
<!-- Node4 -->
<g id="node4" class="node"><title>Node4</title>
<g id="a_node4"><a xlink:href="../../dc/df5/classmodel_1_1_parser.html" target="_top" xlink:title="model.Parser">
<polygon fill="white" stroke="black" points="831,-427.5 831,-446.5 911,-446.5 911,-427.5 831,-427.5"/>
<text text-anchor="middle" x="871" y="-434.5" font-family="Helvetica,sans-Serif" font-size="10.00">model.Parser</text>
</a>
</g>
</g>
<!-- Node4&#45;&gt;Node1 -->
<g id="edge3" class="edge"><title>Node4&#45;&gt;Node1</title>
<path fill="none" stroke="#9a32cd" stroke-dasharray="5,2" d="M820.888,-430.957C727.037,-419.377 515.728,-393.154 338,-370 314.153,-366.893 287.248,-363.268 266.779,-360.485"/>
<polygon fill="#9a32cd" stroke="#9a32cd" points="820.587,-434.446 830.94,-432.197 821.443,-427.499 820.587,-434.446"/>
<text text-anchor="middle" x="547" y="-409" font-family="Helvetica,sans-Serif" font-size="10.00"> myParser</text>
</g>
<!-- Node4&#45;&gt;Node12 -->
<g id="edge32" class="edge"><title>Node4&#45;&gt;Node12</title>
<path fill="none" stroke="#9a32cd" stroke-dasharray="5,2" d="M820.994,-436.276C807.282,-433.64 793.537,-428.286 784,-418 745.539,-376.518 805.923,-332.077 766,-292 759.926,-285.902 654.618,-272.559 592.626,-265.174"/>
<polygon fill="#9a32cd" stroke="#9a32cd" points="820.508,-439.742 830.913,-437.746 821.534,-432.817 820.508,-439.742"/>
<text text-anchor="middle" x="705" y="-295" font-family="Helvetica,sans-Serif" font-size="10.00"> myParser</text>
</g>
<!-- Node18 -->
<g id="node18" class="node"><title>Node18</title>
<g id="a_node18"><a xlink:href="../../d1/dc7/classview_1_1_side_bar.html" target="_top" xlink:title="view.SideBar">
<polygon fill="white" stroke="black" points="1125.5,-235.5 1125.5,-254.5 1202.5,-254.5 1202.5,-235.5 1125.5,-235.5"/>
<text text-anchor="middle" x="1164" y="-242.5" font-family="Helvetica,sans-Serif" font-size="10.00">view.SideBar</text>
</a>
</g>
</g>
<!-- Node4&#45;&gt;Node18 -->
<g id="edge24" class="edge"><title>Node4&#45;&gt;Node18</title>
<path fill="none" stroke="#9a32cd" stroke-dasharray="5,2" d="M921.505,-436.462C975.427,-434.764 1056.84,-428.574 1078,-407 1122.85,-361.268 1054.25,-312.585 1096,-264 1103.41,-255.38 1114.41,-250.528 1125.36,-247.84"/>
<polygon fill="#9a32cd" stroke="#9a32cd" points="921.346,-432.965 911.445,-436.738 921.537,-439.963 921.346,-432.965"/>
<text text-anchor="middle" x="1027" y="-435" font-family="Helvetica,sans-Serif" font-size="10.00"> myParser</text>
</g>
<!-- Node5 -->
<g id="node5" class="node"><title>Node5</title>
<polygon fill="white" stroke="#bfbfbf" points="203,-418.5 203,-437.5 263,-437.5 263,-418.5 203,-418.5"/>
<text text-anchor="middle" x="233" y="-425.5" font-family="Helvetica,sans-Serif" font-size="10.00">Observer</text>
</g>
<!-- Node5&#45;&gt;Node4 -->
<g id="edge4" class="edge"><title>Node5&#45;&gt;Node4</title>
<path fill="none" stroke="midnightblue" d="M273.441,-428.558C387.516,-430.172 716.921,-434.834 830.752,-436.445"/>
<polygon fill="midnightblue" stroke="midnightblue" points="273.449,-425.058 263.4,-428.416 273.349,-432.057 273.449,-425.058"/>
</g>
<!-- Node5&#45;&gt;Node12 -->
<g id="edge12" class="edge"><title>Node5&#45;&gt;Node12</title>
<path fill="none" stroke="midnightblue" d="M273.009,-417.613C317.803,-404.67 392.501,-379.92 450,-345 486.151,-323.045 521.521,-286.858 537.356,-269.658"/>
<polygon fill="midnightblue" stroke="midnightblue" points="271.773,-414.326 263.108,-420.422 273.684,-421.06 271.773,-414.326"/>
</g>
<!-- Node6 -->
<g id="node6" class="node"><title>Node6</title>
<polygon fill="white" stroke="#bfbfbf" points="491,-546 491,-576 603,-576 603,-546 491,-546"/>
<text text-anchor="start" x="499" y="-564" font-family="Helvetica,sans-Serif" font-size="10.00">List&lt; Entry&lt; String,</text>
<text text-anchor="middle" x="547" y="-553" font-family="Helvetica,sans-Serif" font-size="10.00"> Pattern &gt; &gt;</text>
</g>
<!-- Node6&#45;&gt;Node4 -->
<g id="edge5" class="edge"><title>Node6&#45;&gt;Node4</title>
<path fill="none" stroke="#9a32cd" stroke-dasharray="5,2" d="M613.474,-571.149C661.533,-574.704 725.274,-570.712 766,-534 792.426,-510.179 758.725,-481.039 784,-456 796.275,-443.84 814.469,-438.713 830.966,-436.779"/>
<polygon fill="#9a32cd" stroke="#9a32cd" points="613.734,-567.658 603.47,-570.285 613.132,-574.632 613.734,-567.658"/>
<text text-anchor="middle" x="705" y="-575" font-family="Helvetica,sans-Serif" font-size="10.00"> myPatterns</text>
</g>
<!-- Node7 -->
<g id="node7" class="node"><title>Node7</title>
<g id="a_node7"><a xlink:href="../../d1/dca/classmodel_1_1_execution_environment.html" target="_top" xlink:title="model.ExecutionEnvironment">
<polygon fill="white" stroke="black" points="468.5,-507.5 468.5,-526.5 625.5,-526.5 625.5,-507.5 468.5,-507.5"/>
<text text-anchor="middle" x="547" y="-514.5" font-family="Helvetica,sans-Serif" font-size="10.00">model.ExecutionEnvironment</text>
</a>
</g>
</g>
<!-- Node7&#45;&gt;Node4 -->
<g id="edge6" class="edge"><title>Node7&#45;&gt;Node4</title>
<path fill="none" stroke="#9a32cd" stroke-dasharray="5,2" d="M635.67,-520.039C678.008,-517.633 727.782,-508.759 766,-484 778.416,-475.956 771.861,-464.456 784,-456 797.55,-446.561 814.974,-441.704 830.59,-439.244"/>
<polygon fill="#9a32cd" stroke="#9a32cd" points="635.471,-516.545 625.641,-520.498 635.791,-523.537 635.471,-516.545"/>
<text text-anchor="middle" x="705" y="-522" font-family="Helvetica,sans-Serif" font-size="10.00"> myExecutionParameters</text>
</g>
<!-- Node8 -->
<g id="node8" class="node"><title>Node8</title>
<polygon fill="white" stroke="#bfbfbf" points="197.5,-469.5 197.5,-488.5 268.5,-488.5 268.5,-469.5 197.5,-469.5"/>
<text text-anchor="middle" x="233" y="-476.5" font-family="Helvetica,sans-Serif" font-size="10.00">Observable</text>
</g>
<!-- Node8&#45;&gt;Node7 -->
<g id="edge7" class="edge"><title>Node8&#45;&gt;Node7</title>
<path fill="none" stroke="midnightblue" d="M278.637,-484.437C328.066,-490.457 408.658,-500.272 468.457,-507.556"/>
<polygon fill="midnightblue" stroke="midnightblue" points="278.931,-480.947 268.582,-483.212 278.085,-487.895 278.931,-480.947"/>
</g>
<!-- Node9 -->
<g id="node9" class="node"><title>Node9</title>
<polygon fill="white" stroke="#bfbfbf" points="146,-546 146,-576 320,-576 320,-546 146,-546"/>
<text text-anchor="start" x="154" y="-564" font-family="Helvetica,sans-Serif" font-size="10.00">Map&lt; String, model.instructions.</text>
<text text-anchor="middle" x="233" y="-553" font-family="Helvetica,sans-Serif" font-size="10.00">Instruction &gt;</text>
</g>
<!-- Node9&#45;&gt;Node7 -->
<g id="edge8" class="edge"><title>Node9&#45;&gt;Node7</title>
<path fill="none" stroke="#9a32cd" stroke-dasharray="5,2" d="M330.616,-548.48C367.941,-543.525 410.983,-537.667 450,-532 461.769,-530.291 474.337,-528.385 486.37,-526.521"/>
<polygon fill="#9a32cd" stroke="#9a32cd" points="329.702,-545.071 320.248,-549.853 330.621,-552.01 329.702,-545.071"/>
<text text-anchor="middle" x="394" y="-550" font-family="Helvetica,sans-Serif" font-size="10.00"> myUserInstructionMap</text>
</g>
<!-- Node10 -->
<g id="node10" class="node"><title>Node10</title>
<polygon fill="white" stroke="#bfbfbf" points="169,-507.5 169,-526.5 297,-526.5 297,-507.5 169,-507.5"/>
<text text-anchor="middle" x="233" y="-514.5" font-family="Helvetica,sans-Serif" font-size="10.00">Map&lt; String, Double &gt;</text>
</g>
<!-- Node10&#45;&gt;Node7 -->
<g id="edge9" class="edge"><title>Node10&#45;&gt;Node7</title>
<path fill="none" stroke="#9a32cd" stroke-dasharray="5,2" d="M307.23,-517C355.637,-517 419.011,-517 468.303,-517"/>
<polygon fill="#9a32cd" stroke="#9a32cd" points="307.138,-513.5 297.138,-517 307.138,-520.5 307.138,-513.5"/>
<text text-anchor="middle" x="394" y="-520" font-family="Helvetica,sans-Serif" font-size="10.00"> myVariableMap</text>
</g>
<!-- Node11 -->
<g id="node11" class="node"><title>Node11</title>
<polygon fill="white" stroke="#bfbfbf" points="486,-469.5 486,-488.5 608,-488.5 608,-469.5 486,-469.5"/>
<text text-anchor="middle" x="547" y="-476.5" font-family="Helvetica,sans-Serif" font-size="10.00">Map&lt; String, String &gt;</text>
</g>
<!-- Node11&#45;&gt;Node4 -->
<g id="edge10" class="edge"><title>Node11&#45;&gt;Node4</title>
<path fill="none" stroke="#9a32cd" stroke-dasharray="5,2" d="M618.3,-472.372C661.082,-468.063 716.787,-461.961 766,-455 787.409,-451.972 811.178,-447.911 830.582,-444.413"/>
<polygon fill="#9a32cd" stroke="#9a32cd" points="617.873,-468.898 608.27,-473.374 618.569,-475.863 617.873,-468.898"/>
<text text-anchor="middle" x="705" y="-472" font-family="Helvetica,sans-Serif" font-size="10.00"> myCommandMap</text>
</g>
<!-- Node12&#45;&gt;Node4 -->
<g id="edge11" class="edge"><title>Node12&#45;&gt;Node4</title>
<path fill="none" stroke="#9a32cd" stroke-dasharray="5,2" d="M574.044,-274.405C592.953,-284.312 619.425,-297.065 644,-305 696.508,-321.955 726.769,-289.2 766,-328 795.003,-356.684 755.446,-388.868 784,-418 796.095,-430.339 814.268,-435.487 830.798,-437.388"/>
<polygon fill="#9a32cd" stroke="#9a32cd" points="575.624,-271.281 565.154,-269.664 572.331,-277.458 575.624,-271.281"/>
<text text-anchor="middle" x="705" y="-331" font-family="Helvetica,sans-Serif" font-size="10.00"> mySLogoView</text>
</g>
<!-- Node13 -->
<g id="node13" class="node"><title>Node13</title>
<g id="a_node13"><a xlink:href="../../da/d64/classview_1_1_workspace.html" target="_top" xlink:title="view.Workspace">
<polygon fill="white" stroke="black" points="1344,-220.5 1344,-239.5 1434,-239.5 1434,-220.5 1344,-220.5"/>
<text text-anchor="middle" x="1389" y="-227.5" font-family="Helvetica,sans-Serif" font-size="10.00">view.Workspace</text>
</a>
</g>
</g>
<!-- Node13&#45;&gt;Node12 -->
<g id="edge13" class="edge"><title>Node13&#45;&gt;Node12</title>
<path fill="none" stroke="#9a32cd" stroke-dasharray="5,2" d="M1355.15,-216.769C1263.69,-181.751 998.754,-92.6882 784,-143 692.723,-164.384 596.297,-226.547 561.499,-250.466"/>
<polygon fill="#9a32cd" stroke="#9a32cd" points="1354.1,-220.117 1364.69,-220.469 1356.63,-213.59 1354.1,-220.117"/>
<text text-anchor="middle" x="1027" y="-144" font-family="Helvetica,sans-Serif" font-size="10.00"> myWorkspace</text>
</g>
<!-- Node13&#45;&gt;Node18 -->
<g id="edge20" class="edge"><title>Node13&#45;&gt;Node18</title>
<path fill="none" stroke="#9a32cd" stroke-dasharray="5,2" d="M1333.69,-220.732C1331.09,-220.449 1328.52,-220.202 1326,-220 1292.33,-217.302 1283.43,-215.185 1250,-220 1229.6,-222.938 1207.27,-229.65 1190.61,-235.38"/>
<polygon fill="#9a32cd" stroke="#9a32cd" points="1333.38,-224.221 1343.74,-221.979 1334.24,-217.275 1333.38,-224.221"/>
<text text-anchor="middle" x="1288" y="-223" font-family="Helvetica,sans-Serif" font-size="10.00"> myWorkspace</text>
</g>
<!-- Node29 -->
<g id="node29" class="node"><title>Node29</title>
<g id="a_node29"><a xlink:href="../../de/d0a/classview_1_1_drawer.html" target="_top" xlink:title="view.Drawer">
<polygon fill="white" stroke="black" points="1540.5,-38.5 1540.5,-57.5 1613.5,-57.5 1613.5,-38.5 1540.5,-38.5"/>
<text text-anchor="middle" x="1577" y="-45.5" font-family="Helvetica,sans-Serif" font-size="10.00">view.Drawer</text>
</a>
</g>
</g>
<!-- Node13&#45;&gt;Node29 -->
<g id="edge35" class="edge"><title>Node13&#45;&gt;Node29</title>
<path fill="none" stroke="#9a32cd" stroke-dasharray="5,2" d="M1406.99,-213.373C1444.93,-176.252 1535.56,-87.5663 1565.91,-57.8759"/>
<polygon fill="#9a32cd" stroke="#9a32cd" points="1404.44,-210.976 1399.74,-220.471 1409.33,-215.979 1404.44,-210.976"/>
<text text-anchor="middle" x="1487" y="-169" font-family="Helvetica,sans-Serif" font-size="10.00"> myWorkspace</text>
</g>
<!-- Node14 -->
<g id="node14" class="node"><title>Node14</title>
<polygon fill="white" stroke="#bfbfbf" points="1130.5,-77.5 1130.5,-96.5 1197.5,-96.5 1197.5,-77.5 1130.5,-77.5"/>
<text text-anchor="middle" x="1164" y="-84.5" font-family="Helvetica,sans-Serif" font-size="10.00">StackPane</text>
</g>
<!-- Node14&#45;&gt;Node13 -->
<g id="edge14" class="edge"><title>Node14&#45;&gt;Node13</title>
<path fill="none" stroke="midnightblue" d="M1208.16,-83.2585C1243.04,-82.4605 1291.8,-86.6218 1326,-111 1364.51,-138.448 1380.93,-197.192 1386.08,-220.34"/>
<polygon fill="midnightblue" stroke="midnightblue" points="1207.67,-79.7743 1197.81,-83.6485 1207.94,-86.7694 1207.67,-79.7743"/>
</g>
<!-- Node15 -->
<g id="node15" class="node"><title>Node15</title>
<g id="a_node15"><a xlink:href="../../d8/df7/classview_1_1_turtle_view.html" target="_top" xlink:title="view.TurtleView">
<polygon fill="white" stroke="black" points="1121,-311.5 1121,-330.5 1207,-330.5 1207,-311.5 1121,-311.5"/>
<text text-anchor="middle" x="1164" y="-318.5" font-family="Helvetica,sans-Serif" font-size="10.00">view.TurtleView</text>
</a>
</g>
</g>
<!-- Node15&#45;&gt;Node13 -->
<g id="edge15" class="edge"><title>Node15&#45;&gt;Node13</title>
<path fill="none" stroke="#9a32cd" stroke-dasharray="5,2" d="M1217.28,-316.568C1249.96,-312.157 1292.13,-303.389 1326,-286 1348.71,-274.34 1369.5,-252.244 1380.27,-239.572"/>
<polygon fill="#9a32cd" stroke="#9a32cd" points="1216.51,-313.137 1207.02,-317.853 1217.38,-320.083 1216.51,-313.137"/>
<text text-anchor="middle" x="1288" y="-314" font-family="Helvetica,sans-Serif" font-size="10.00"> myActiveTurtle</text>
</g>
<!-- Node16 -->
<g id="node16" class="node"><title>Node16</title>
<polygon fill="white" stroke="#bfbfbf" points="837,-465.5 837,-484.5 905,-484.5 905,-465.5 837,-465.5"/>
<text text-anchor="middle" x="871" y="-472.5" font-family="Helvetica,sans-Serif" font-size="10.00">ImageView</text>
</g>
<!-- Node16&#45;&gt;Node15 -->
<g id="edge16" class="edge"><title>Node16&#45;&gt;Node15</title>
<path fill="none" stroke="midnightblue" d="M915.307,-483.367C961.911,-489.642 1035.1,-491.158 1078,-450 1113.75,-415.704 1063.03,-376.97 1096,-340 1102.44,-332.782 1111.4,-328.219 1120.67,-325.358"/>
<polygon fill="midnightblue" stroke="midnightblue" points="915.618,-479.875 905.214,-481.878 914.596,-486.8 915.618,-479.875"/>
</g>
<!-- Node17 -->
<g id="node17" class="node"><title>Node17</title>
<polygon fill="white" stroke="#bfbfbf" points="1096,-350 1096,-380 1232,-380 1232,-350 1096,-350"/>
<text text-anchor="start" x="1104" y="-368" font-family="Helvetica,sans-Serif" font-size="10.00">Map&lt; Integer, view.Turtle</text>
<text text-anchor="middle" x="1164" y="-357" font-family="Helvetica,sans-Serif" font-size="10.00">View &gt;</text>
</g>
<!-- Node17&#45;&gt;Node13 -->
<g id="edge17" class="edge"><title>Node17&#45;&gt;Node13</title>
<path fill="none" stroke="#9a32cd" stroke-dasharray="5,2" d="M1242.28,-358.359C1270.61,-352.958 1301.67,-343.279 1326,-326 1357.71,-303.484 1377.21,-259.172 1384.6,-239.638"/>
<polygon fill="#9a32cd" stroke="#9a32cd" points="1241.63,-354.92 1232.38,-360.097 1242.84,-361.814 1241.63,-354.92"/>
<text text-anchor="middle" x="1288" y="-360" font-family="Helvetica,sans-Serif" font-size="10.00"> myTurtles</text>
</g>
<!-- Node18&#45;&gt;Node1 -->
<g id="edge40" class="edge"><title>Node18&#45;&gt;Node1</title>
<path fill="none" stroke="#9a32cd" stroke-dasharray="5,2" d="M1115.19,-251.648C1108.01,-254.476 1101.26,-258.446 1096,-264 1070.95,-290.469 1106.3,-321.032 1078,-344 1014.21,-395.777 414.547,-366.051 266.783,-357.881"/>
<polygon fill="#9a32cd" stroke="#9a32cd" points="1116.7,-254.839 1125.15,-248.456 1114.56,-248.173 1116.7,-254.839"/>
<text text-anchor="middle" x="705" y="-377" font-family="Helvetica,sans-Serif" font-size="10.00"> mySidebar</text>
</g>
<!-- Node18&#45;&gt;Node12 -->
<g id="edge37" class="edge"><title>Node18&#45;&gt;Node12</title>
<path fill="none" stroke="#9a32cd" stroke-dasharray="5,2" d="M1119.56,-257.333C1098.93,-263.178 1078.59,-268.918 1078,-269 984.906,-281.891 702.982,-268.483 592.805,-262.535"/>
<polygon fill="#9a32cd" stroke="#9a32cd" points="1120.64,-260.665 1129.31,-254.57 1118.73,-253.93 1120.64,-260.665"/>
<text text-anchor="middle" x="871" y="-278" font-family="Helvetica,sans-Serif" font-size="10.00"> mySidebar</text>
</g>
<!-- Node18&#45;&gt;Node13 -->
<g id="edge18" class="edge"><title>Node18&#45;&gt;Node13</title>
<path fill="none" stroke="#9a32cd" stroke-dasharray="5,2" d="M1212.59,-241.799C1251.41,-239.187 1305.85,-235.526 1343.74,-232.977"/>
<polygon fill="#9a32cd" stroke="#9a32cd" points="1212.32,-238.309 1202.58,-242.472 1212.79,-245.293 1212.32,-238.309"/>
<text text-anchor="middle" x="1288" y="-242" font-family="Helvetica,sans-Serif" font-size="10.00"> mySidebar</text>
</g>
<!-- Node19 -->
<g id="node19" class="node"><title>Node19</title>
<polygon fill="white" stroke="#bfbfbf" points="850.5,-389.5 850.5,-408.5 891.5,-408.5 891.5,-389.5 850.5,-389.5"/>
<text text-anchor="middle" x="871" y="-396.5" font-family="Helvetica,sans-Serif" font-size="10.00">VBox</text>
</g>
<!-- Node19&#45;&gt;Node18 -->
<g id="edge19" class="edge"><title>Node19&#45;&gt;Node18</title>
<path fill="none" stroke="midnightblue" d="M901.536,-405.447C946.149,-413.283 1030.54,-420.382 1078,-375 1114.12,-340.46 1062.76,-301.322 1096,-264 1103.48,-255.603 1114.37,-250.8 1125.2,-248.087"/>
<polygon fill="midnightblue" stroke="midnightblue" points="902.088,-401.989 891.613,-403.575 900.791,-408.868 902.088,-401.989"/>
</g>
<!-- Node20 -->
<g id="node20" class="node"><title>Node20</title>
<polygon fill="white" stroke="#bfbfbf" points="784.5,-313.5 784.5,-332.5 957.5,-332.5 957.5,-313.5 784.5,-313.5"/>
<text text-anchor="middle" x="871" y="-320.5" font-family="Helvetica,sans-Serif" font-size="10.00">ObservableList&lt; view.Property &gt;</text>
</g>
<!-- Node20&#45;&gt;Node18 -->
<g id="edge21" class="edge"><title>Node20&#45;&gt;Node18</title>
<path fill="none" stroke="#9a32cd" stroke-dasharray="5,2" d="M967.896,-329.644C1005.08,-327.783 1046.25,-319.829 1078,-298 1092.09,-288.313 1082.71,-274.753 1096,-264 1104.37,-257.233 1115.01,-252.875 1125.34,-250.068"/>
<polygon fill="#9a32cd" stroke="#9a32cd" points="967.394,-326.16 957.525,-330.014 967.644,-333.155 967.394,-326.16"/>
<text text-anchor="middle" x="1027" y="-332" font-family="Helvetica,sans-Serif" font-size="10.00"> variablesList</text>
</g>
<!-- Node21 -->
<g id="node21" class="node"><title>Node21</title>
<polygon fill="white" stroke="#bfbfbf" points="186.5,-106.5 186.5,-125.5 279.5,-125.5 279.5,-106.5 186.5,-106.5"/>
<text text-anchor="middle" x="233" y="-113.5" font-family="Helvetica,sans-Serif" font-size="10.00">ResourceBundle</text>
</g>
<!-- Node21&#45;&gt;Node12 -->
<g id="edge29" class="edge"><title>Node21&#45;&gt;Node12</title>
<path fill="none" stroke="#9a32cd" stroke-dasharray="5,2" d="M289.759,-126.405C334.824,-136.284 398.935,-153.734 450,-181 485.796,-200.113 520.79,-233.759 536.855,-250.285"/>
<polygon fill="#9a32cd" stroke="#9a32cd" points="290.386,-122.96 279.875,-124.292 288.923,-129.805 290.386,-122.96"/>
<text text-anchor="middle" x="394" y="-184" font-family="Helvetica,sans-Serif" font-size="10.00"> myResources</text>
</g>
<!-- Node21&#45;&gt;Node18 -->
<g id="edge22" class="edge"><title>Node21&#45;&gt;Node18</title>
<path fill="none" stroke="#9a32cd" stroke-dasharray="5,2" d="M276.697,-103.809C406.325,-69.3219 803.239,17.4621 1078,-126 1123.91,-149.972 1150.63,-211.305 1159.59,-235.232"/>
<polygon fill="#9a32cd" stroke="#9a32cd" points="275.504,-100.505 266.762,-106.49 277.328,-107.264 275.504,-100.505"/>
<text text-anchor="middle" x="705" y="-51" font-family="Helvetica,sans-Serif" font-size="10.00"> myResources</text>
</g>
<!-- Node22 -->
<g id="node22" class="node"><title>Node22</title>
<polygon fill="white" stroke="#bfbfbf" points="797,-228.5 797,-247.5 945,-247.5 945,-228.5 797,-228.5"/>
<text text-anchor="middle" x="871" y="-235.5" font-family="Helvetica,sans-Serif" font-size="10.00">TableView&lt; view.Property &gt;</text>
</g>
<!-- Node22&#45;&gt;Node18 -->
<g id="edge23" class="edge"><title>Node22&#45;&gt;Node18</title>
<path fill="none" stroke="#9a32cd" stroke-dasharray="5,2" d="M955.314,-240.004C1011.25,-241.35 1082.29,-243.059 1125.12,-244.089"/>
<polygon fill="#9a32cd" stroke="#9a32cd" points="955.137,-236.499 945.056,-239.757 954.969,-243.497 955.137,-236.499"/>
<text text-anchor="middle" x="1027" y="-257" font-family="Helvetica,sans-Serif" font-size="10.00"> turtlePropertiesTable</text>
<text text-anchor="middle" x="1027" y="-246" font-family="Helvetica,sans-Serif" font-size="10.00">variablesTable</text>
</g>
<!-- Node23 -->
<g id="node23" class="node"><title>Node23</title>
<polygon fill="white" stroke="#bfbfbf" points="802,-190.5 802,-209.5 940,-209.5 940,-190.5 802,-190.5"/>
<text text-anchor="middle" x="871" y="-197.5" font-family="Helvetica,sans-Serif" font-size="10.00">ObservableList&lt; String &gt;</text>
</g>
<!-- Node23&#45;&gt;Node18 -->
<g id="edge25" class="edge"><title>Node23&#45;&gt;Node18</title>
<path fill="none" stroke="#9a32cd" stroke-dasharray="5,2" d="M950.528,-200.815C989.245,-202.455 1036.43,-206.315 1078,-215 1100.06,-219.609 1124.2,-228.525 1141.09,-235.445"/>
<polygon fill="#9a32cd" stroke="#9a32cd" points="950.488,-197.311 940.362,-200.427 950.221,-204.306 950.488,-197.311"/>
<text text-anchor="middle" x="1027" y="-229" font-family="Helvetica,sans-Serif" font-size="10.00"> commandItems</text>
<text text-anchor="middle" x="1027" y="-218" font-family="Helvetica,sans-Serif" font-size="10.00">historyItems</text>
</g>
<!-- Node24 -->
<g id="node24" class="node"><title>Node24</title>
<polygon fill="white" stroke="#bfbfbf" points="818,-152.5 818,-171.5 924,-171.5 924,-152.5 818,-152.5"/>
<text text-anchor="middle" x="871" y="-159.5" font-family="Helvetica,sans-Serif" font-size="10.00">ListView&lt; String &gt;</text>
</g>
<!-- Node24&#45;&gt;Node18 -->
<g id="edge26" class="edge"><title>Node24&#45;&gt;Node18</title>
<path fill="none" stroke="#9a32cd" stroke-dasharray="5,2" d="M934.423,-162.422C976.226,-164.485 1031.84,-170.724 1078,-188 1107.62,-199.086 1137.14,-222.313 1152.39,-235.437"/>
<polygon fill="#9a32cd" stroke="#9a32cd" points="934.518,-158.923 924.377,-161.993 934.219,-165.917 934.518,-158.923"/>
<text text-anchor="middle" x="1027" y="-191" font-family="Helvetica,sans-Serif" font-size="10.00"> historyList</text>
</g>
<!-- Node25 -->
<g id="node25" class="node"><title>Node25</title>
<polygon fill="white" stroke="#bfbfbf" points="1132.5,-273.5 1132.5,-292.5 1195.5,-292.5 1195.5,-273.5 1132.5,-273.5"/>
<text text-anchor="middle" x="1164" y="-280.5" font-family="Helvetica,sans-Serif" font-size="10.00">Rectangle</text>
</g>
<!-- Node25&#45;&gt;Node13 -->
<g id="edge27" class="edge"><title>Node25&#45;&gt;Node13</title>
<path fill="none" stroke="#9a32cd" stroke-dasharray="5,2" d="M1205.79,-277.852C1238.63,-273.183 1285.78,-265.294 1326,-254 1339.67,-250.162 1354.51,-244.471 1366.25,-239.595"/>
<polygon fill="#9a32cd" stroke="#9a32cd" points="1205.08,-274.416 1195.66,-279.255 1206.04,-281.35 1205.08,-274.416"/>
<text text-anchor="middle" x="1288" y="-274" font-family="Helvetica,sans-Serif" font-size="10.00"> myBackground</text>
</g>
<!-- Node26 -->
<g id="node26" class="node"><title>Node26</title>
<polygon fill="white" stroke="#bfbfbf" points="210.5,-212.5 210.5,-231.5 255.5,-231.5 255.5,-212.5 210.5,-212.5"/>
<text text-anchor="middle" x="233" y="-219.5" font-family="Helvetica,sans-Serif" font-size="10.00">Stage</text>
</g>
<!-- Node26&#45;&gt;Node12 -->
<g id="edge28" class="edge"><title>Node26&#45;&gt;Node12</title>
<path fill="none" stroke="#9a32cd" stroke-dasharray="5,2" d="M265.692,-224.885C307.844,-228.834 384.646,-236.42 450,-245 466.725,-247.196 485.032,-249.965 501.134,-252.524"/>
<polygon fill="#9a32cd" stroke="#9a32cd" points="265.783,-221.379 255.502,-223.938 265.135,-228.349 265.783,-221.379"/>
<text text-anchor="middle" x="394" y="-248" font-family="Helvetica,sans-Serif" font-size="10.00"> myStage</text>
</g>
<!-- Node27 -->
<g id="node27" class="node"><title>Node27</title>
<polygon fill="white" stroke="#bfbfbf" points="173.5,-174.5 173.5,-193.5 292.5,-193.5 292.5,-174.5 173.5,-174.5"/>
<text text-anchor="middle" x="233" y="-181.5" font-family="Helvetica,sans-Serif" font-size="10.00">Map&lt; String, Node &gt;</text>
</g>
<!-- Node27&#45;&gt;Node12 -->
<g id="edge31" class="edge"><title>Node27&#45;&gt;Node12</title>
<path fill="none" stroke="#9a32cd" stroke-dasharray="5,2" d="M302.708,-190.268C345.649,-195.296 401.761,-203.905 450,-218 478.114,-226.214 508.836,-240.708 527.766,-250.335"/>
<polygon fill="#9a32cd" stroke="#9a32cd" points="302.976,-186.776 292.645,-189.126 302.187,-193.731 302.976,-186.776"/>
<text text-anchor="middle" x="394" y="-221" font-family="Helvetica,sans-Serif" font-size="10.00"> variables</text>
</g>
<!-- Node28 -->
<g id="node28" class="node"><title>Node28</title>
<polygon fill="white" stroke="#bfbfbf" points="192.5,-288.5 192.5,-307.5 273.5,-307.5 273.5,-288.5 192.5,-288.5"/>
<text text-anchor="middle" x="233" y="-295.5" font-family="Helvetica,sans-Serif" font-size="10.00">Dimension2D</text>
</g>
<!-- Node28&#45;&gt;Node12 -->
<g id="edge33" class="edge"><title>Node28&#45;&gt;Node12</title>
<path fill="none" stroke="#9a32cd" stroke-dasharray="5,2" d="M283.966,-292.937C327.782,-288.381 393.181,-281.298 450,-274 466.706,-271.854 485.009,-269.249 501.112,-266.87"/>
<polygon fill="#9a32cd" stroke="#9a32cd" points="283.446,-289.472 273.859,-293.983 284.166,-296.435 283.446,-289.472"/>
<text text-anchor="middle" x="394" y="-291" font-family="Helvetica,sans-Serif" font-size="10.00"> myDimensions</text>
</g>
<!-- Node29&#45;&gt;Node12 -->
<g id="edge34" class="edge"><title>Node29&#45;&gt;Node12</title>
<path fill="none" stroke="#9a32cd" stroke-dasharray="5,2" d="M1530.2,-48C1492.55,-48 1437.82,-48 1390,-48 870,-48 870,-48 870,-48 769.363,-48 727.589,-5.95888 644,-62 575.461,-107.951 554.238,-217.319 549.279,-250.374"/>
<polygon fill="#9a32cd" stroke="#9a32cd" points="1530.34,-51.5001 1540.34,-48 1530.34,-44.5001 1530.34,-51.5001"/>
<text text-anchor="middle" x="1164" y="-51" font-family="Helvetica,sans-Serif" font-size="10.00"> drawer</text>
</g>
<!-- Node30 -->
<g id="node30" class="node"><title>Node30</title>
<polygon fill="white" stroke="#bfbfbf" points="1368.5,-0.5 1368.5,-19.5 1409.5,-19.5 1409.5,-0.5 1368.5,-0.5"/>
<text text-anchor="middle" x="1389" y="-7.5" font-family="Helvetica,sans-Serif" font-size="10.00">Color</text>
</g>
<!-- Node30&#45;&gt;Node29 -->
<g id="edge36" class="edge"><title>Node30&#45;&gt;Node29</title>
<path fill="none" stroke="#9a32cd" stroke-dasharray="5,2" d="M1419.61,-10.1018C1446.71,-10.8525 1487.67,-13.6523 1522,-23 1534.96,-26.5288 1548.68,-32.9205 1559.05,-38.3575"/>
<polygon fill="#9a32cd" stroke="#9a32cd" points="1419.67,-6.60244 1409.6,-9.90068 1419.53,-13.601 1419.67,-6.60244"/>
<text text-anchor="middle" x="1487" y="-26" font-family="Helvetica,sans-Serif" font-size="10.00"> myColor</text>
</g>
<!-- Node31 -->
<g id="node31" class="node"><title>Node31</title>
<polygon fill="white" stroke="#bfbfbf" points="210,-250.5 210,-269.5 256,-269.5 256,-250.5 210,-250.5"/>
<text text-anchor="middle" x="233" y="-257.5" font-family="Helvetica,sans-Serif" font-size="10.00">Group</text>
</g>
<!-- Node31&#45;&gt;Node12 -->
<g id="edge38" class="edge"><title>Node31&#45;&gt;Node12</title>
<path fill="none" stroke="#9a32cd" stroke-dasharray="5,2" d="M266.521,-260C322.621,-260 437.669,-260 501.267,-260"/>
<polygon fill="#9a32cd" stroke="#9a32cd" points="266.438,-256.5 256.438,-260 266.438,-263.5 266.438,-256.5"/>
<text text-anchor="middle" x="394" y="-263" font-family="Helvetica,sans-Serif" font-size="10.00"> lines</text>
</g>
<!-- Node32 -->
<g id="node32" class="node"><title>Node32</title>
<polygon fill="white" stroke="#bfbfbf" points="0,-308.5 0,-327.5 58,-327.5 58,-308.5 0,-308.5"/>
<text text-anchor="middle" x="29" y="-315.5" font-family="Helvetica,sans-Serif" font-size="10.00">TextArea</text>
</g>
<!-- Node32&#45;&gt;Node1 -->
<g id="edge39" class="edge"><title>Node32&#45;&gt;Node1</title>
<path fill="none" stroke="#9a32cd" stroke-dasharray="5,2" d="M68.2332,-325.192C106.167,-332.328 163.67,-343.146 199.475,-349.881"/>
<polygon fill="#9a32cd" stroke="#9a32cd" points="68.5619,-321.693 58.0872,-323.284 67.2678,-328.572 68.5619,-321.693"/>
<text text-anchor="middle" x="102" y="-339" font-family="Helvetica,sans-Serif" font-size="10.00"> textEditor</text>
</g>
</g>
</svg>
