<?xml version="1.0" encoding="UTF-8" standalone="no"?>
<!DOCTYPE svg PUBLIC "-//W3C//DTD SVG 1.1//EN"
 "http://www.w3.org/Graphics/SVG/1.1/DTD/svg11.dtd">
<!-- Generated by graphviz version 2.36.0 (20140111.2315)
 -->
<!-- Title: model.instructions.MovementInstruction Pages: 1 -->
<svg width="1754pt" height="883pt"
 viewBox="0.00 0.00 1754.00 883.00" xmlns="http://www.w3.org/2000/svg" xmlns:xlink="http://www.w3.org/1999/xlink">
<g id="graph0" class="graph" transform="scale(1 1) rotate(0) translate(4 879)">
<title>model.instructions.MovementInstruction</title>
<polygon fill="white" stroke="none" points="-4,4 -4,-879 1750,-879 1750,4 -4,4"/>
<!-- Node1 -->
<g id="node1" class="node"><title>Node1</title>
<polygon fill="#bfbfbf" stroke="black" points="950.5,-801 950.5,-831 1109.5,-831 1109.5,-801 950.5,-801"/>
<text text-anchor="start" x="958.5" y="-819" font-family="Helvetica,sans-Serif" font-size="10.00">model.instructions.Movement</text>
<text text-anchor="middle" x="1030" y="-808" font-family="Helvetica,sans-Serif" font-size="10.00">Instruction</text>
</g>
<!-- Node2 -->
<g id="node2" class="node"><title>Node2</title>
<g id="a_node2"><a xlink:href="../../d1/dea/classmodel_1_1instructions_1_1_instruction.html" target="_top" xlink:title="model.instructions.Instruction">
<polygon fill="white" stroke="black" points="646,-747.5 646,-766.5 804,-766.5 804,-747.5 646,-747.5"/>
<text text-anchor="middle" x="725" y="-754.5" font-family="Helvetica,sans-Serif" font-size="10.00">model.instructions.Instruction</text>
</a>
</g>
</g>
<!-- Node2&#45;&gt;Node1 -->
<g id="edge1" class="edge"><title>Node2&#45;&gt;Node1</title>
<path fill="none" stroke="midnightblue" d="M784.872,-768.463C832.516,-777.741 899.994,-790.88 951.938,-800.994"/>
<polygon fill="midnightblue" stroke="midnightblue" points="785.504,-765.021 775.019,-766.545 784.166,-771.892 785.504,-765.021"/>
</g>
<!-- Node3 -->
<g id="node3" class="node"><title>Node3</title>
<polygon fill="white" stroke="#bfbfbf" points="57,-497.5 57,-516.5 117,-516.5 117,-497.5 57,-497.5"/>
<text text-anchor="middle" x="87" y="-504.5" font-family="Helvetica,sans-Serif" font-size="10.00">Observer</text>
</g>
<!-- Node3&#45;&gt;Node2 -->
<g id="edge2" class="edge"><title>Node3&#45;&gt;Node2</title>
<path fill="none" stroke="midnightblue" d="M100.419,-525.075C131.669,-568.867 218.499,-680.454 322,-727 377.93,-752.152 545.676,-756.927 645.935,-757.436"/>
<polygon fill="midnightblue" stroke="midnightblue" points="103.222,-522.977 94.6089,-516.808 97.4953,-527.002 103.222,-522.977"/>
</g>
<!-- Node9 -->
<g id="node9" class="node"><title>Node9</title>
<g id="a_node9"><a xlink:href="../../d4/d64/classview_1_1_view_updater.html" target="_top" xlink:title="view.ViewUpdater">
<polygon fill="white" stroke="black" points="351,-497.5 351,-516.5 451,-516.5 451,-497.5 351,-497.5"/>
<text text-anchor="middle" x="401" y="-504.5" font-family="Helvetica,sans-Serif" font-size="10.00">view.ViewUpdater</text>
</a>
</g>
</g>
<!-- Node3&#45;&gt;Node9 -->
<g id="edge9" class="edge"><title>Node3&#45;&gt;Node9</title>
<path fill="none" stroke="midnightblue" d="M127.079,-507C183.8,-507 288.905,-507 350.82,-507"/>
<polygon fill="midnightblue" stroke="midnightblue" points="127.072,-503.5 117.072,-507 127.072,-510.5 127.072,-503.5"/>
</g>
<!-- Node21 -->
<g id="node21" class="node"><title>Node21</title>
<g id="a_node21"><a xlink:href="../../dc/df5/classmodel_1_1_parser.html" target="_top" xlink:title="model.Parser">
<polygon fill="white" stroke="black" points="685,-231.5 685,-250.5 765,-250.5 765,-231.5 685,-231.5"/>
<text text-anchor="middle" x="725" y="-238.5" font-family="Helvetica,sans-Serif" font-size="10.00">model.Parser</text>
</a>
</g>
</g>
<!-- Node3&#45;&gt;Node21 -->
<g id="edge24" class="edge"><title>Node3&#45;&gt;Node21</title>
<path fill="none" stroke="midnightblue" d="M95.5509,-487.983C118.999,-431.913 196.602,-267.348 322,-206 453.521,-141.657 638.233,-205.702 701.625,-231.388"/>
<polygon fill="midnightblue" stroke="midnightblue" points="92.2392,-486.835 91.6939,-497.416 98.7185,-489.484 92.2392,-486.835"/>
</g>
<!-- Node4 -->
<g id="node4" class="node"><title>Node4</title>
<g id="a_node4"><a xlink:href="../../d1/dca/classmodel_1_1_execution_environment.html" target="_top" xlink:title="model.ExecutionEnvironment">
<polygon fill="white" stroke="black" points="322.5,-698.5 322.5,-717.5 479.5,-717.5 479.5,-698.5 322.5,-698.5"/>
<text text-anchor="middle" x="401" y="-705.5" font-family="Helvetica,sans-Serif" font-size="10.00">model.ExecutionEnvironment</text>
</a>
</g>
</g>
<!-- Node4&#45;&gt;Node2 -->
<g id="edge3" class="edge"><title>Node4&#45;&gt;Node2</title>
<path fill="none" stroke="#9a32cd" stroke-dasharray="5,2" d="M489.499,-715.088C529.458,-718.977 577.295,-724.547 620,-732 643.233,-736.055 669.009,-742.239 689.088,-747.442"/>
<polygon fill="#9a32cd" stroke="#9a32cd" points="489.805,-711.601 479.517,-714.135 489.139,-718.57 489.805,-711.601"/>
<text text-anchor="middle" x="559" y="-735" font-family="Helvetica,sans-Serif" font-size="10.00"> myEnvironment</text>
</g>
<!-- Node17 -->
<g id="node17" class="node"><title>Node17</title>
<g id="a_node17"><a xlink:href="../../d1/dc7/classview_1_1_side_bar.html" target="_top" xlink:title="view.SideBar">
<polygon fill="white" stroke="black" points="991.5,-295.5 991.5,-314.5 1068.5,-314.5 1068.5,-295.5 991.5,-295.5"/>
<text text-anchor="middle" x="1030" y="-302.5" font-family="Helvetica,sans-Serif" font-size="10.00">view.SideBar</text>
</a>
</g>
</g>
<!-- Node4&#45;&gt;Node17 -->
<g id="edge21" class="edge"><title>Node4&#45;&gt;Node17</title>
<path fill="none" stroke="#9a32cd" stroke-dasharray="5,2" d="M421.215,-691.838C440.11,-676.325 470.097,-652.704 498,-635 634.26,-548.546 676.713,-538.439 830,-488 874.655,-473.306 901.1,-495.428 932,-460 972.077,-414.05 909.196,-369.305 950,-324 960.385,-312.47 976.431,-307.341 991.356,-305.24"/>
<polygon fill="#9a32cd" stroke="#9a32cd" points="418.829,-689.27 413.361,-698.345 423.295,-694.66 418.829,-689.27"/>
<text text-anchor="middle" x="725" y="-560" font-family="Helvetica,sans-Serif" font-size="10.00"> myEnvironment</text>
</g>
<!-- Node4&#45;&gt;Node21 -->
<g id="edge26" class="edge"><title>Node4&#45;&gt;Node21</title>
<path fill="none" stroke="#9a32cd" stroke-dasharray="5,2" d="M413.817,-689.702C448.921,-634.773 554.22,-465.781 620,-315 630.285,-291.425 618.937,-277.266 638,-260 650.58,-248.606 668.419,-243.521 684.591,-241.415"/>
<polygon fill="#9a32cd" stroke="#9a32cd" points="410.733,-688.028 408.277,-698.334 416.624,-691.809 410.733,-688.028"/>
<text text-anchor="middle" x="559" y="-546" font-family="Helvetica,sans-Serif" font-size="10.00"> myExecutionParameters</text>
</g>
<!-- Node24 -->
<g id="node24" class="node"><title>Node24</title>
<g id="a_node24"><a xlink:href="../../d6/de7/classview_1_1_s_logo_view.html" target="_top" xlink:title="view.SLogoView">
<polygon fill="white" stroke="black" points="1654.5,-257.5 1654.5,-276.5 1745.5,-276.5 1745.5,-257.5 1654.5,-257.5"/>
<text text-anchor="middle" x="1700" y="-264.5" font-family="Helvetica,sans-Serif" font-size="10.00">view.SLogoView</text>
</a>
</g>
</g>
<!-- Node4&#45;&gt;Node24 -->
<g id="edge40" class="edge"><title>Node4&#45;&gt;Node24</title>
<path fill="none" stroke="#9a32cd" stroke-dasharray="5,2" d="M490.045,-709.329C632.36,-711.359 921.778,-715 1167,-715 1167,-715 1167,-715 1483,-715 1684.62,-715 1698.14,-342.289 1698.96,-276.774"/>
<polygon fill="#9a32cd" stroke="#9a32cd" points="489.689,-705.823 479.64,-709.18 489.589,-712.823 489.689,-705.823"/>
<text text-anchor="middle" x="1168" y="-718" font-family="Helvetica,sans-Serif" font-size="10.00"> myEnvironment</text>
</g>
<!-- Node5 -->
<g id="node5" class="node"><title>Node5</title>
<polygon fill="white" stroke="#bfbfbf" points="51.5,-698.5 51.5,-717.5 122.5,-717.5 122.5,-698.5 51.5,-698.5"/>
<text text-anchor="middle" x="87" y="-705.5" font-family="Helvetica,sans-Serif" font-size="10.00">Observable</text>
</g>
<!-- Node5&#45;&gt;Node4 -->
<g id="edge4" class="edge"><title>Node5&#45;&gt;Node4</title>
<path fill="none" stroke="midnightblue" d="M132.637,-708C182.066,-708 262.658,-708 322.457,-708"/>
<polygon fill="midnightblue" stroke="midnightblue" points="132.582,-704.5 122.582,-708 132.582,-711.5 132.582,-704.5"/>
</g>
<!-- Node6 -->
<g id="node6" class="node"><title>Node6</title>
<polygon fill="white" stroke="#bfbfbf" points="42.5,-845.5 42.5,-864.5 131.5,-864.5 131.5,-845.5 42.5,-845.5"/>
<text text-anchor="middle" x="87" y="-852.5" font-family="Helvetica,sans-Serif" font-size="10.00">Set&lt; Integer &gt;</text>
</g>
<!-- Node6&#45;&gt;Node4 -->
<g id="edge5" class="edge"><title>Node6&#45;&gt;Node4</title>
<path fill="none" stroke="#9a32cd" stroke-dasharray="5,2" d="M141.795,-856.948C189.564,-855.841 258.639,-846.91 304,-809 320.212,-795.451 308.979,-781.639 322,-765 338.228,-744.263 363.888,-727.523 381.308,-717.676"/>
<polygon fill="#9a32cd" stroke="#9a32cd" points="141.598,-853.451 131.642,-857.074 141.685,-860.45 141.598,-853.451"/>
<text text-anchor="middle" x="248" y="-867" font-family="Helvetica,sans-Serif" font-size="10.00"> myTurtleList</text>
<text text-anchor="middle" x="248" y="-856" font-family="Helvetica,sans-Serif" font-size="10.00">activeTurtleList</text>
</g>
<!-- Node7 -->
<g id="node7" class="node"><title>Node7</title>
<polygon fill="white" stroke="#bfbfbf" points="0,-796 0,-826 174,-826 174,-796 0,-796"/>
<text text-anchor="start" x="8" y="-814" font-family="Helvetica,sans-Serif" font-size="10.00">Map&lt; String, model.instructions.</text>
<text text-anchor="middle" x="87" y="-803" font-family="Helvetica,sans-Serif" font-size="10.00">Instruction &gt;</text>
</g>
<!-- Node7&#45;&gt;Node4 -->
<g id="edge6" class="edge"><title>Node7&#45;&gt;Node4</title>
<path fill="none" stroke="#9a32cd" stroke-dasharray="5,2" d="M184.121,-795.394C222.186,-787.625 265.874,-776.688 304,-762 334.87,-750.107 367.859,-729.627 386.005,-717.598"/>
<polygon fill="#9a32cd" stroke="#9a32cd" points="183.181,-792.013 174.059,-797.401 184.55,-798.877 183.181,-792.013"/>
<text text-anchor="middle" x="248" y="-797" font-family="Helvetica,sans-Serif" font-size="10.00"> myUserInstructionMap</text>
</g>
<!-- Node8 -->
<g id="node8" class="node"><title>Node8</title>
<polygon fill="white" stroke="#bfbfbf" points="23,-757.5 23,-776.5 151,-776.5 151,-757.5 23,-757.5"/>
<text text-anchor="middle" x="87" y="-764.5" font-family="Helvetica,sans-Serif" font-size="10.00">Map&lt; String, Double &gt;</text>
</g>
<!-- Node8&#45;&gt;Node4 -->
<g id="edge7" class="edge"><title>Node8&#45;&gt;Node4</title>
<path fill="none" stroke="#9a32cd" stroke-dasharray="5,2" d="M148.328,-755.592C206.867,-744.522 294.684,-727.916 349.598,-717.531"/>
<polygon fill="#9a32cd" stroke="#9a32cd" points="147.65,-752.158 138.475,-757.455 148.951,-759.036 147.65,-752.158"/>
<text text-anchor="middle" x="248" y="-750" font-family="Helvetica,sans-Serif" font-size="10.00"> myVariableMap</text>
</g>
<!-- Node9&#45;&gt;Node2 -->
<g id="edge8" class="edge"><title>Node9&#45;&gt;Node2</title>
<path fill="none" stroke="#9a32cd" stroke-dasharray="5,2" d="M416.016,-524.487C433.766,-546.023 465.92,-583.055 498,-610 569.502,-670.057 666.812,-725.783 706.282,-747.456"/>
<polygon fill="#9a32cd" stroke="#9a32cd" points="418.567,-522.077 409.537,-516.535 413.14,-526.499 418.567,-522.077"/>
<text text-anchor="middle" x="559" y="-699" font-family="Helvetica,sans-Serif" font-size="10.00"> myViewUpdater</text>
</g>
<!-- Node9&#45;&gt;Node21 -->
<g id="edge27" class="edge"><title>Node9&#45;&gt;Node21</title>
<path fill="none" stroke="#9a32cd" stroke-dasharray="5,2" d="M405.035,-487.269C412.56,-445.522 436.15,-348.146 498,-300 541.541,-266.107 570.845,-302.067 620,-277 629.803,-272.001 628.276,-265.151 638,-260 652.323,-252.413 669.529,-247.852 684.775,-245.111"/>
<polygon fill="#9a32cd" stroke="#9a32cd" points="401.561,-486.826 403.353,-497.268 408.464,-487.987 401.561,-486.826"/>
<text text-anchor="middle" x="559" y="-303" font-family="Helvetica,sans-Serif" font-size="10.00"> myViewUpdater</text>
</g>
<!-- Node10 -->
<g id="node10" class="node"><title>Node10</title>
<g id="a_node10"><a xlink:href="../../da/d64/classview_1_1_workspace.html" target="_top" xlink:title="view.Workspace">
<polygon fill="white" stroke="black" points="1226,-459.5 1226,-478.5 1316,-478.5 1316,-459.5 1226,-459.5"/>
<text text-anchor="middle" x="1271" y="-466.5" font-family="Helvetica,sans-Serif" font-size="10.00">view.Workspace</text>
</a>
</g>
</g>
<!-- Node10&#45;&gt;Node9 -->
<g id="edge10" class="edge"><title>Node10&#45;&gt;Node9</title>
<path fill="none" stroke="#9a32cd" stroke-dasharray="5,2" d="M1225.9,-480.79C1219.92,-482.059 1213.83,-483.184 1208,-484 1164.83,-490.043 1153.57,-486.526 1110,-488 862.683,-496.365 566.666,-503.32 451.362,-505.912"/>
<polygon fill="#9a32cd" stroke="#9a32cd" points="1226.82,-484.17 1235.8,-478.546 1225.27,-477.343 1226.82,-484.17"/>
<text text-anchor="middle" x="881" y="-500" font-family="Helvetica,sans-Serif" font-size="10.00"> myWorkspace</text>
</g>
<!-- Node10&#45;&gt;Node24 -->
<g id="edge30" class="edge"><title>Node10&#45;&gt;Node24</title>
<path fill="none" stroke="#9a32cd" stroke-dasharray="5,2" d="M1326.37,-479.484C1382.42,-487.833 1471.35,-494.127 1542,-467 1591.13,-448.137 1602.61,-435.678 1636,-395 1667.74,-356.327 1688.62,-298.989 1696.01,-276.521"/>
<polygon fill="#9a32cd" stroke="#9a32cd" points="1326.72,-475.996 1316.3,-477.909 1325.64,-482.912 1326.72,-475.996"/>
<text text-anchor="middle" x="1482" y="-490" font-family="Helvetica,sans-Serif" font-size="10.00"> myWorkspace</text>
</g>
<!-- Node32 -->
<g id="node32" class="node"><title>Node32</title>
<g id="a_node32"><a xlink:href="../../de/d0a/classview_1_1_drawer.html" target="_top" xlink:title="view.Drawer">
<polygon fill="white" stroke="black" points="1445.5,-438.5 1445.5,-457.5 1518.5,-457.5 1518.5,-438.5 1445.5,-438.5"/>
<text text-anchor="middle" x="1482" y="-445.5" font-family="Helvetica,sans-Serif" font-size="10.00">view.Drawer</text>
</a>
</g>
</g>
<!-- Node10&#45;&gt;Node32 -->
<g id="edge44" class="edge"><title>Node10&#45;&gt;Node32</title>
<path fill="none" stroke="#9a32cd" stroke-dasharray="5,2" d="M1326.32,-463.542C1363.83,-459.773 1412.65,-454.868 1445.32,-451.585"/>
<polygon fill="#9a32cd" stroke="#9a32cd" points="1325.67,-460.09 1316.07,-464.572 1326.37,-467.055 1325.67,-460.09"/>
<text text-anchor="middle" x="1369" y="-466" font-family="Helvetica,sans-Serif" font-size="10.00"> myWorkspace</text>
</g>
<!-- Node11 -->
<g id="node11" class="node"><title>Node11</title>
<polygon fill="white" stroke="#bfbfbf" points="996.5,-371.5 996.5,-390.5 1063.5,-390.5 1063.5,-371.5 996.5,-371.5"/>
<text text-anchor="middle" x="1030" y="-378.5" font-family="Helvetica,sans-Serif" font-size="10.00">StackPane</text>
</g>
<!-- Node11&#45;&gt;Node10 -->
<g id="edge11" class="edge"><title>Node11&#45;&gt;Node10</title>
<path fill="none" stroke="midnightblue" d="M1073.27,-390.209C1085.22,-393.071 1098.19,-396.423 1110,-400 1154.41,-413.448 1167.43,-413.488 1208,-436 1216.86,-440.917 1217.28,-444.839 1226,-450 1231.87,-453.475 1238.5,-456.673 1244.79,-459.415"/>
<polygon fill="midnightblue" stroke="midnightblue" points="1074.05,-386.797 1063.51,-387.926 1072.45,-393.613 1074.05,-386.797"/>
</g>
<!-- Node12 -->
<g id="node12" class="node"><title>Node12</title>
<polygon fill="white" stroke="#bfbfbf" points="678.5,-582.5 678.5,-601.5 771.5,-601.5 771.5,-582.5 678.5,-582.5"/>
<text text-anchor="middle" x="725" y="-589.5" font-family="Helvetica,sans-Serif" font-size="10.00">ResourceBundle</text>
</g>
<!-- Node12&#45;&gt;Node10 -->
<g id="edge12" class="edge"><title>Node12&#45;&gt;Node10</title>
<path fill="none" stroke="#9a32cd" stroke-dasharray="5,2" d="M781.834,-585.212C900.373,-570.561 1169.52,-535.932 1208,-519 1229.77,-509.422 1250.27,-490.143 1261.39,-478.523"/>
<polygon fill="#9a32cd" stroke="#9a32cd" points="781.36,-581.744 771.863,-586.441 782.216,-588.691 781.36,-581.744"/>
<text text-anchor="middle" x="1030" y="-566" font-family="Helvetica,sans-Serif" font-size="10.00"> myResources</text>
</g>
<!-- Node12&#45;&gt;Node17 -->
<g id="edge20" class="edge"><title>Node12&#45;&gt;Node17</title>
<path fill="none" stroke="#9a32cd" stroke-dasharray="5,2" d="M781.686,-582.544C792.366,-579.098 803.009,-574.401 812,-568 823.449,-559.849 818.349,-549.86 830,-542 868.524,-516.009 901.339,-553.921 932,-519 960.712,-486.298 921.521,-356.905 950,-324 960.155,-312.267 976.168,-307.109 991.131,-305.042"/>
<polygon fill="#9a32cd" stroke="#9a32cd" points="780.548,-579.23 771.914,-585.37 782.493,-585.954 780.548,-579.23"/>
<text text-anchor="middle" x="881" y="-545" font-family="Helvetica,sans-Serif" font-size="10.00"> myResources</text>
</g>
<!-- Node12&#45;&gt;Node24 -->
<g id="edge32" class="edge"><title>Node12&#45;&gt;Node24</title>
<path fill="none" stroke="#9a32cd" stroke-dasharray="5,2" d="M781.832,-592C842.627,-592 942.723,-592 1029,-592 1029,-592 1029,-592 1483,-592 1638.48,-592 1688.79,-330.803 1697.53,-276.727"/>
<polygon fill="#9a32cd" stroke="#9a32cd" points="781.686,-588.5 771.686,-592 781.686,-595.5 781.686,-588.5"/>
<text text-anchor="middle" x="1271" y="-595" font-family="Helvetica,sans-Serif" font-size="10.00"> myResources</text>
</g>
<!-- Node13 -->
<g id="node13" class="node"><title>Node13</title>
<g id="a_node13"><a xlink:href="../../d8/df7/classview_1_1_turtle_view.html" target="_top" xlink:title="view.TurtleView">
<polygon fill="white" stroke="black" points="987,-620.5 987,-639.5 1073,-639.5 1073,-620.5 987,-620.5"/>
<text text-anchor="middle" x="1030" y="-627.5" font-family="Helvetica,sans-Serif" font-size="10.00">view.TurtleView</text>
</a>
</g>
</g>
<!-- Node13&#45;&gt;Node10 -->
<g id="edge13" class="edge"><title>Node13&#45;&gt;Node10</title>
<path fill="none" stroke="#9a32cd" stroke-dasharray="5,2" d="M1069.07,-616.967C1106.83,-602.842 1165.1,-577.722 1208,-544 1211.27,-541.429 1246.22,-498.402 1262.16,-478.705"/>
<polygon fill="#9a32cd" stroke="#9a32cd" points="1067.65,-613.761 1059.46,-620.489 1070.05,-620.333 1067.65,-613.761"/>
<text text-anchor="middle" x="1168" y="-595" font-family="Helvetica,sans-Serif" font-size="10.00"> myActiveTurtle</text>
</g>
<!-- Node14 -->
<g id="node14" class="node"><title>Node14</title>
<polygon fill="white" stroke="#bfbfbf" points="691,-620.5 691,-639.5 759,-639.5 759,-620.5 691,-620.5"/>
<text text-anchor="middle" x="725" y="-627.5" font-family="Helvetica,sans-Serif" font-size="10.00">ImageView</text>
</g>
<!-- Node14&#45;&gt;Node13 -->
<g id="edge14" class="edge"><title>Node14&#45;&gt;Node13</title>
<path fill="none" stroke="midnightblue" d="M769.293,-630C827.268,-630 929.46,-630 986.848,-630"/>
<polygon fill="midnightblue" stroke="midnightblue" points="769.003,-626.5 759.003,-630 769.003,-633.5 769.003,-626.5"/>
</g>
<!-- Node15 -->
<g id="node15" class="node"><title>Node15</title>
<polygon fill="white" stroke="#bfbfbf" points="962,-410 962,-440 1098,-440 1098,-410 962,-410"/>
<text text-anchor="start" x="970" y="-428" font-family="Helvetica,sans-Serif" font-size="10.00">Map&lt; Integer, view.Turtle</text>
<text text-anchor="middle" x="1030" y="-417" font-family="Helvetica,sans-Serif" font-size="10.00">View &gt;</text>
</g>
<!-- Node15&#45;&gt;Node10 -->
<g id="edge15" class="edge"><title>Node15&#45;&gt;Node10</title>
<path fill="none" stroke="#9a32cd" stroke-dasharray="5,2" d="M1107.96,-436.323C1139.11,-441.241 1175.37,-447.389 1208,-454 1215.92,-455.605 1224.37,-457.515 1232.4,-459.424"/>
<polygon fill="#9a32cd" stroke="#9a32cd" points="1108.46,-432.858 1098.04,-434.77 1107.37,-439.774 1108.46,-432.858"/>
<text text-anchor="middle" x="1168" y="-457" font-family="Helvetica,sans-Serif" font-size="10.00"> myTurtles</text>
</g>
<!-- Node16 -->
<g id="node16" class="node"><title>Node16</title>
<polygon fill="white" stroke="#bfbfbf" points="1007,-459.5 1007,-478.5 1053,-478.5 1053,-459.5 1007,-459.5"/>
<text text-anchor="middle" x="1030" y="-466.5" font-family="Helvetica,sans-Serif" font-size="10.00">Group</text>
</g>
<!-- Node16&#45;&gt;Node10 -->
<g id="edge16" class="edge"><title>Node16&#45;&gt;Node10</title>
<path fill="none" stroke="#9a32cd" stroke-dasharray="5,2" d="M1063.26,-469C1105.23,-469 1178.74,-469 1225.85,-469"/>
<polygon fill="#9a32cd" stroke="#9a32cd" points="1063.06,-465.5 1053.06,-469 1063.06,-472.5 1063.06,-465.5"/>
<text text-anchor="middle" x="1168" y="-472" font-family="Helvetica,sans-Serif" font-size="10.00"> myLines</text>
</g>
<!-- Node17&#45;&gt;Node9 -->
<g id="edge50" class="edge"><title>Node17&#45;&gt;Node9</title>
<path fill="none" stroke="#9a32cd" stroke-dasharray="5,2" d="M981.025,-307.074C883.665,-311.499 669.426,-322.411 638,-334 536.476,-371.439 440.517,-466.341 411.145,-497.166"/>
<polygon fill="#9a32cd" stroke="#9a32cd" points="981.355,-310.563 991.188,-306.617 981.04,-303.57 981.355,-310.563"/>
<text text-anchor="middle" x="725" y="-337" font-family="Helvetica,sans-Serif" font-size="10.00"> mySidebar</text>
</g>
<!-- Node17&#45;&gt;Node10 -->
<g id="edge17" class="edge"><title>Node17&#45;&gt;Node10</title>
<path fill="none" stroke="#9a32cd" stroke-dasharray="5,2" d="M1078.98,-310.793C1128.25,-317.192 1199,-327.809 1208,-337 1243.58,-373.334 1194.8,-409.842 1226,-450 1228.96,-453.811 1232.84,-456.87 1237.07,-459.323"/>
<polygon fill="#9a32cd" stroke="#9a32cd" points="1079.18,-307.29 1068.82,-309.493 1078.29,-314.234 1079.18,-307.29"/>
<text text-anchor="middle" x="1168" y="-340" font-family="Helvetica,sans-Serif" font-size="10.00"> mySidebar</text>
</g>
<!-- Node17&#45;&gt;Node24 -->
<g id="edge46" class="edge"><title>Node17&#45;&gt;Node24</title>
<path fill="none" stroke="#9a32cd" stroke-dasharray="5,2" d="M1078.76,-305.997C1181.29,-307.505 1429.9,-307.768 1636,-281 1644.22,-279.932 1652.95,-278.312 1661.22,-276.548"/>
<polygon fill="#9a32cd" stroke="#9a32cd" points="1078.77,-302.497 1068.72,-305.838 1078.66,-309.496 1078.77,-302.497"/>
<text text-anchor="middle" x="1369" y="-307" font-family="Helvetica,sans-Serif" font-size="10.00"> mySidebar</text>
</g>
<!-- Node26 -->
<g id="node26" class="node"><title>Node26</title>
<g id="a_node26"><a xlink:href="../../da/dc8/classview_1_1_editor.html" target="_top" xlink:title="view.Editor">
<polygon fill="white" stroke="black" points="1237.5,-75.5 1237.5,-94.5 1304.5,-94.5 1304.5,-75.5 1237.5,-75.5"/>
<text text-anchor="middle" x="1271" y="-82.5" font-family="Helvetica,sans-Serif" font-size="10.00">view.Editor</text>
</a>
</g>
</g>
<!-- Node17&#45;&gt;Node26 -->
<g id="edge38" class="edge"><title>Node17&#45;&gt;Node26</title>
<path fill="none" stroke="#9a32cd" stroke-dasharray="5,2" d="M1049.22,-288.226C1096.58,-244.636 1222.41,-128.806 1259.54,-94.6245"/>
<polygon fill="#9a32cd" stroke="#9a32cd" points="1046.57,-285.915 1041.58,-295.263 1051.31,-291.066 1046.57,-285.915"/>
<text text-anchor="middle" x="1168" y="-218" font-family="Helvetica,sans-Serif" font-size="10.00"> mySidebar</text>
</g>
<!-- Node18 -->
<g id="node18" class="node"><title>Node18</title>
<polygon fill="white" stroke="#bfbfbf" points="704.5,-269.5 704.5,-288.5 745.5,-288.5 745.5,-269.5 704.5,-269.5"/>
<text text-anchor="middle" x="725" y="-276.5" font-family="Helvetica,sans-Serif" font-size="10.00">VBox</text>
</g>
<!-- Node18&#45;&gt;Node17 -->
<g id="edge18" class="edge"><title>Node18&#45;&gt;Node17</title>
<path fill="none" stroke="midnightblue" d="M756.138,-281.586C811.816,-286.364 930.647,-296.56 991.457,-301.778"/>
<polygon fill="midnightblue" stroke="midnightblue" points="756.143,-278.074 745.881,-280.706 755.545,-285.048 756.143,-278.074"/>
</g>
<!-- Node19 -->
<g id="node19" class="node"><title>Node19</title>
<polygon fill="white" stroke="#bfbfbf" points="638.5,-438.5 638.5,-457.5 811.5,-457.5 811.5,-438.5 638.5,-438.5"/>
<text text-anchor="middle" x="725" y="-445.5" font-family="Helvetica,sans-Serif" font-size="10.00">ObservableList&lt; view.Property &gt;</text>
</g>
<!-- Node19&#45;&gt;Node17 -->
<g id="edge19" class="edge"><title>Node19&#45;&gt;Node17</title>
<path fill="none" stroke="#9a32cd" stroke-dasharray="5,2" d="M821.708,-448.591C867.483,-446.786 915.807,-441.124 932,-426 965.643,-394.579 918.463,-357.534 950,-324 960.534,-312.799 976.419,-307.692 991.19,-305.52"/>
<polygon fill="#9a32cd" stroke="#9a32cd" points="821.564,-445.093 811.687,-448.928 821.799,-452.089 821.564,-445.093"/>
<text text-anchor="middle" x="881" y="-452" font-family="Helvetica,sans-Serif" font-size="10.00"> variablesList</text>
</g>
<!-- Node20 -->
<g id="node20" class="node"><title>Node20</title>
<polygon fill="white" stroke="#bfbfbf" points="651,-393.5 651,-412.5 799,-412.5 799,-393.5 651,-393.5"/>
<text text-anchor="middle" x="725" y="-400.5" font-family="Helvetica,sans-Serif" font-size="10.00">TableView&lt; view.Property &gt;</text>
</g>
<!-- Node20&#45;&gt;Node17 -->
<g id="edge22" class="edge"><title>Node20&#45;&gt;Node17</title>
<path fill="none" stroke="#9a32cd" stroke-dasharray="5,2" d="M809.333,-402.697C857.987,-400.828 913.372,-395.233 932,-380 952.237,-363.45 930.834,-341.78 950,-324 961.065,-313.735 976.682,-308.731 991.112,-306.384"/>
<polygon fill="#9a32cd" stroke="#9a32cd" points="808.946,-399.207 799.069,-403.041 809.181,-406.204 808.946,-399.207"/>
<text text-anchor="middle" x="881" y="-416" font-family="Helvetica,sans-Serif" font-size="10.00"> turtlePropertiesTable</text>
<text text-anchor="middle" x="881" y="-405" font-family="Helvetica,sans-Serif" font-size="10.00">variablesTable</text>
</g>
<!-- Node21&#45;&gt;Node17 -->
<g id="edge23" class="edge"><title>Node21&#45;&gt;Node17</title>
<path fill="none" stroke="#9a32cd" stroke-dasharray="5,2" d="M775.035,-246.743C817.031,-252.163 878.946,-261.349 932,-274 956.42,-279.823 983.594,-288.724 1002.95,-295.497"/>
<polygon fill="#9a32cd" stroke="#9a32cd" points="775.431,-243.265 765.07,-245.479 774.55,-250.21 775.431,-243.265"/>
<text text-anchor="middle" x="881" y="-277" font-family="Helvetica,sans-Serif" font-size="10.00"> myParser</text>
</g>
<!-- Node21&#45;&gt;Node24 -->
<g id="edge41" class="edge"><title>Node21&#45;&gt;Node24</title>
<path fill="none" stroke="#9a32cd" stroke-dasharray="5,2" d="M775.087,-242.312C943.089,-246.801 1493.52,-261.509 1654.44,-265.809"/>
<polygon fill="#9a32cd" stroke="#9a32cd" points="775.135,-238.812 765.045,-242.043 774.948,-245.809 775.135,-238.812"/>
<text text-anchor="middle" x="1271" y="-260" font-family="Helvetica,sans-Serif" font-size="10.00"> myParser</text>
</g>
<!-- Node21&#45;&gt;Node26 -->
<g id="edge36" class="edge"><title>Node21&#45;&gt;Node26</title>
<path fill="none" stroke="#9a32cd" stroke-dasharray="5,2" d="M740.559,-223.467C773.265,-185.634 857.009,-97.1623 950,-65 1051.27,-29.9754 1181.18,-58.9332 1239.39,-75.4539"/>
<polygon fill="#9a32cd" stroke="#9a32cd" points="737.848,-221.252 734.033,-231.136 743.179,-225.789 737.848,-221.252"/>
<text text-anchor="middle" x="1030" y="-68" font-family="Helvetica,sans-Serif" font-size="10.00"> myParser</text>
</g>
<!-- Node22 -->
<g id="node22" class="node"><title>Node22</title>
<polygon fill="white" stroke="#bfbfbf" points="345,-216 345,-246 457,-246 457,-216 345,-216"/>
<text text-anchor="start" x="353" y="-234" font-family="Helvetica,sans-Serif" font-size="10.00">List&lt; Entry&lt; String,</text>
<text text-anchor="middle" x="401" y="-223" font-family="Helvetica,sans-Serif" font-size="10.00"> Pattern &gt; &gt;</text>
</g>
<!-- Node22&#45;&gt;Node21 -->
<g id="edge25" class="edge"><title>Node22&#45;&gt;Node21</title>
<path fill="none" stroke="#9a32cd" stroke-dasharray="5,2" d="M467.257,-229.908C510.589,-229.526 568.721,-229.668 620,-232 641.363,-232.972 665.128,-234.96 684.542,-236.821"/>
<polygon fill="#9a32cd" stroke="#9a32cd" points="467.097,-226.41 457.132,-230.009 467.167,-233.409 467.097,-226.41"/>
<text text-anchor="middle" x="559" y="-235" font-family="Helvetica,sans-Serif" font-size="10.00"> myPatterns</text>
</g>
<!-- Node23 -->
<g id="node23" class="node"><title>Node23</title>
<polygon fill="white" stroke="#bfbfbf" points="340,-265.5 340,-284.5 462,-284.5 462,-265.5 340,-265.5"/>
<text text-anchor="middle" x="401" y="-272.5" font-family="Helvetica,sans-Serif" font-size="10.00">Map&lt; String, String &gt;</text>
</g>
<!-- Node23&#45;&gt;Node21 -->
<g id="edge28" class="edge"><title>Node23&#45;&gt;Node21</title>
<path fill="none" stroke="#9a32cd" stroke-dasharray="5,2" d="M472.39,-267.568C537.597,-260.682 632.209,-250.692 684.877,-245.131"/>
<polygon fill="#9a32cd" stroke="#9a32cd" points="471.765,-264.114 462.188,-268.645 472.5,-271.075 471.765,-264.114"/>
<text text-anchor="middle" x="559" y="-268" font-family="Helvetica,sans-Serif" font-size="10.00"> myCommandMap</text>
</g>
<!-- Node24&#45;&gt;Node21 -->
<g id="edge29" class="edge"><title>Node24&#45;&gt;Node21</title>
<path fill="none" stroke="#9a32cd" stroke-dasharray="5,2" d="M1677.85,-251.552C1666.04,-243.539 1650.75,-234.165 1636,-228 1571.45,-201.028 1552.96,-191 1483,-191 1029,-191 1029,-191 1029,-191 930.633,-191 816.671,-216.971 760.685,-231.478"/>
<polygon fill="#9a32cd" stroke="#9a32cd" points="1675.94,-254.487 1686.15,-257.338 1679.95,-248.746 1675.94,-254.487"/>
<text text-anchor="middle" x="1271" y="-194" font-family="Helvetica,sans-Serif" font-size="10.00"> mySLogoView</text>
</g>
<!-- Node25 -->
<g id="node25" class="node"><title>Node25</title>
<polygon fill="white" stroke="#bfbfbf" points="1459.5,-219.5 1459.5,-238.5 1504.5,-238.5 1504.5,-219.5 1459.5,-219.5"/>
<text text-anchor="middle" x="1482" y="-226.5" font-family="Helvetica,sans-Serif" font-size="10.00">Stage</text>
</g>
<!-- Node25&#45;&gt;Node24 -->
<g id="edge31" class="edge"><title>Node25&#45;&gt;Node24</title>
<path fill="none" stroke="#9a32cd" stroke-dasharray="5,2" d="M1514.88,-229.008C1546.13,-229.645 1594.92,-232.325 1636,-242 1651,-245.533 1667.15,-251.997 1679.34,-257.467"/>
<polygon fill="#9a32cd" stroke="#9a32cd" points="1514.65,-225.505 1504.6,-228.86 1514.55,-232.504 1514.65,-225.505"/>
<text text-anchor="middle" x="1598" y="-245" font-family="Helvetica,sans-Serif" font-size="10.00"> myStage</text>
</g>
<!-- Node26&#45;&gt;Node24 -->
<g id="edge33" class="edge"><title>Node26&#45;&gt;Node24</title>
<path fill="none" stroke="#9a32cd" stroke-dasharray="5,2" d="M1313.83,-72.8753C1388.32,-54.0828 1544.67,-27.6889 1636,-106 1683.85,-147.029 1695.59,-229.084 1698.26,-257.247"/>
<polygon fill="#9a32cd" stroke="#9a32cd" points="1312.67,-69.5593 1303.88,-75.4648 1314.44,-76.3337 1312.67,-69.5593"/>
<text text-anchor="middle" x="1482" y="-64" font-family="Helvetica,sans-Serif" font-size="10.00"> myEditor</text>
</g>
<!-- Node27 -->
<g id="node27" class="node"><title>Node27</title>
<polygon fill="white" stroke="#bfbfbf" points="1009,-0.5 1009,-19.5 1051,-19.5 1051,-0.5 1009,-0.5"/>
<text text-anchor="middle" x="1030" y="-7.5" font-family="Helvetica,sans-Serif" font-size="10.00">HBox</text>
</g>
<!-- Node27&#45;&gt;Node26 -->
<g id="edge34" class="edge"><title>Node27&#45;&gt;Node26</title>
<path fill="none" stroke="midnightblue" d="M1061.53,-11.5785C1097.71,-14.3286 1159.24,-21.8061 1208,-42 1227.61,-50.1193 1247.23,-65.1821 1258.99,-75.149"/>
<polygon fill="midnightblue" stroke="midnightblue" points="1061.37,-8.05963 1051.16,-10.868 1060.89,-15.0433 1061.37,-8.05963"/>
</g>
<!-- Node28 -->
<g id="node28" class="node"><title>Node28</title>
<polygon fill="white" stroke="#bfbfbf" points="1005.5,-123.5 1005.5,-142.5 1054.5,-142.5 1054.5,-123.5 1005.5,-123.5"/>
<text text-anchor="middle" x="1030" y="-130.5" font-family="Helvetica,sans-Serif" font-size="10.00">Button</text>
</g>
<!-- Node28&#45;&gt;Node26 -->
<g id="edge35" class="edge"><title>Node28&#45;&gt;Node26</title>
<path fill="none" stroke="#9a32cd" stroke-dasharray="5,2" d="M1065.13,-129.59C1101.03,-125.587 1159.01,-117.936 1208,-106 1220.37,-102.987 1233.78,-98.5909 1244.96,-94.5986"/>
<polygon fill="#9a32cd" stroke="#9a32cd" points="1064.3,-126.16 1054.73,-130.716 1065.05,-133.119 1064.3,-126.16"/>
<text text-anchor="middle" x="1168" y="-124" font-family="Helvetica,sans-Serif" font-size="10.00"> runButton</text>
</g>
<!-- Node29 -->
<g id="node29" class="node"><title>Node29</title>
<polygon fill="white" stroke="#bfbfbf" points="1001,-85.5 1001,-104.5 1059,-104.5 1059,-85.5 1001,-85.5"/>
<text text-anchor="middle" x="1030" y="-92.5" font-family="Helvetica,sans-Serif" font-size="10.00">TextArea</text>
</g>
<!-- Node29&#45;&gt;Node26 -->
<g id="edge37" class="edge"><title>Node29&#45;&gt;Node26</title>
<path fill="none" stroke="#9a32cd" stroke-dasharray="5,2" d="M1069.36,-93.3949C1115.95,-91.4456 1193.71,-88.1919 1237.49,-86.3603"/>
<polygon fill="#9a32cd" stroke="#9a32cd" points="1069.2,-89.8985 1059.35,-93.8136 1069.49,-96.8924 1069.2,-89.8985"/>
<text text-anchor="middle" x="1168" y="-94" font-family="Helvetica,sans-Serif" font-size="10.00"> textEditor</text>
</g>
<!-- Node30 -->
<g id="node30" class="node"><title>Node30</title>
<polygon fill="white" stroke="#bfbfbf" points="1422.5,-143.5 1422.5,-162.5 1541.5,-162.5 1541.5,-143.5 1422.5,-143.5"/>
<text text-anchor="middle" x="1482" y="-150.5" font-family="Helvetica,sans-Serif" font-size="10.00">Map&lt; String, Node &gt;</text>
</g>
<!-- Node30&#45;&gt;Node24 -->
<g id="edge39" class="edge"><title>Node30&#45;&gt;Node24</title>
<path fill="none" stroke="#9a32cd" stroke-dasharray="5,2" d="M1551.81,-145.939C1579.74,-146.223 1611.19,-150.825 1636,-166 1671.08,-187.458 1689.69,-236.586 1696.24,-257.4"/>
<polygon fill="#9a32cd" stroke="#9a32cd" points="1551.67,-142.439 1541.7,-146.018 1551.73,-149.439 1551.67,-142.439"/>
<text text-anchor="middle" x="1598" y="-169" font-family="Helvetica,sans-Serif" font-size="10.00"> variables</text>
</g>
<!-- Node31 -->
<g id="node31" class="node"><title>Node31</title>
<polygon fill="white" stroke="#bfbfbf" points="1441.5,-105.5 1441.5,-124.5 1522.5,-124.5 1522.5,-105.5 1441.5,-105.5"/>
<text text-anchor="middle" x="1482" y="-112.5" font-family="Helvetica,sans-Serif" font-size="10.00">Dimension2D</text>
</g>
<!-- Node31&#45;&gt;Node24 -->
<g id="edge42" class="edge"><title>Node31&#45;&gt;Node24</title>
<path fill="none" stroke="#9a32cd" stroke-dasharray="5,2" d="M1532.69,-108.744C1564.98,-107.323 1606.41,-110.77 1636,-132 1679.5,-163.213 1693.84,-232.215 1697.74,-257.486"/>
<polygon fill="#9a32cd" stroke="#9a32cd" points="1532.32,-105.259 1522.55,-109.36 1532.75,-112.247 1532.32,-105.259"/>
<text text-anchor="middle" x="1598" y="-135" font-family="Helvetica,sans-Serif" font-size="10.00"> myDimensions</text>
</g>
<!-- Node32&#45;&gt;Node9 -->
<g id="edge49" class="edge"><title>Node32&#45;&gt;Node9</title>
<path fill="none" stroke="#9a32cd" stroke-dasharray="5,2" d="M1435.69,-457.29C1430.95,-458.913 1426.3,-460.804 1422,-463 1412.72,-467.733 1412.68,-472.242 1404,-478 1329.8,-527.241 1288.2,-506.271 1226,-570 1213.23,-583.087 1221.24,-594.382 1208,-607 1173.7,-639.696 1156.42,-639.472 1110,-649 1007.25,-670.09 726.352,-705.53 638,-649 621.919,-638.711 633.697,-623.298 620,-610 577.712,-568.941 551.186,-583.405 498,-558 469.901,-544.578 438.143,-527.271 419.116,-516.663"/>
<polygon fill="#9a32cd" stroke="#9a32cd" points="1436.89,-460.582 1445.43,-454.32 1434.85,-453.886 1436.89,-460.582"/>
<text text-anchor="middle" x="1030" y="-676" font-family="Helvetica,sans-Serif" font-size="10.00"> myDrawer</text>
</g>
<!-- Node32&#45;&gt;Node24 -->
<g id="edge43" class="edge"><title>Node32&#45;&gt;Node24</title>
<path fill="none" stroke="#9a32cd" stroke-dasharray="5,2" d="M1502.29,-431.835C1546.21,-395.033 1652.55,-305.922 1687.59,-276.56"/>
<polygon fill="#9a32cd" stroke="#9a32cd" points="1500.03,-429.163 1494.61,-438.269 1504.53,-434.529 1500.03,-429.163"/>
<text text-anchor="middle" x="1598" y="-383" font-family="Helvetica,sans-Serif" font-size="10.00"> drawer</text>
</g>
<!-- Node33 -->
<g id="node33" class="node"><title>Node33</title>
<polygon fill="white" stroke="#bfbfbf" points="1250.5,-421.5 1250.5,-440.5 1291.5,-440.5 1291.5,-421.5 1250.5,-421.5"/>
<text text-anchor="middle" x="1271" y="-428.5" font-family="Helvetica,sans-Serif" font-size="10.00">Color</text>
</g>
<!-- Node33&#45;&gt;Node32 -->
<g id="edge45" class="edge"><title>Node33&#45;&gt;Node32</title>
<path fill="none" stroke="#9a32cd" stroke-dasharray="5,2" d="M1302,-430.344C1328.81,-430.075 1369.12,-430.455 1404,-434 1417.52,-435.374 1432.22,-437.811 1445.13,-440.27"/>
<polygon fill="#9a32cd" stroke="#9a32cd" points="1301.69,-426.847 1291.74,-430.485 1301.79,-433.847 1301.69,-426.847"/>
<text text-anchor="middle" x="1369" y="-437" font-family="Helvetica,sans-Serif" font-size="10.00"> myColor</text>
</g>
<!-- Node34 -->
<g id="node34" class="node"><title>Node34</title>
<polygon fill="white" stroke="#bfbfbf" points="656,-354.5 656,-373.5 794,-373.5 794,-354.5 656,-354.5"/>
<text text-anchor="middle" x="725" y="-361.5" font-family="Helvetica,sans-Serif" font-size="10.00">ObservableList&lt; String &gt;</text>
</g>
<!-- Node34&#45;&gt;Node17 -->
<g id="edge47" class="edge"><title>Node34&#45;&gt;Node17</title>
<path fill="none" stroke="#9a32cd" stroke-dasharray="5,2" d="M804.148,-357.041C852.28,-352.049 909.032,-344.686 932,-336 940.993,-332.599 941.19,-327.85 950,-324 962.926,-318.351 977.808,-314.216 991.145,-311.274"/>
<polygon fill="#9a32cd" stroke="#9a32cd" points="803.618,-353.577 794.024,-358.07 804.326,-360.541 803.618,-353.577"/>
<text text-anchor="middle" x="881" y="-368" font-family="Helvetica,sans-Serif" font-size="10.00"> commandItems</text>
<text text-anchor="middle" x="881" y="-357" font-family="Helvetica,sans-Serif" font-size="10.00">historyItems</text>
</g>
<!-- Node35 -->
<g id="node35" class="node"><title>Node35</title>
<polygon fill="white" stroke="#bfbfbf" points="998.5,-333.5 998.5,-352.5 1061.5,-352.5 1061.5,-333.5 998.5,-333.5"/>
<text text-anchor="middle" x="1030" y="-340.5" font-family="Helvetica,sans-Serif" font-size="10.00">Rectangle</text>
</g>
<!-- Node35&#45;&gt;Node10 -->
<g id="edge48" class="edge"><title>Node35&#45;&gt;Node10</title>
<path fill="none" stroke="#9a32cd" stroke-dasharray="5,2" d="M1071.95,-343.067C1111.94,-345.381 1171.89,-355.191 1208,-391 1227.47,-410.304 1207.72,-429.564 1226,-450 1229.44,-453.845 1233.79,-456.943 1238.42,-459.429"/>
<polygon fill="#9a32cd" stroke="#9a32cd" points="1071.88,-339.56 1061.74,-342.613 1071.57,-346.553 1071.88,-339.56"/>
<text text-anchor="middle" x="1168" y="-394" font-family="Helvetica,sans-Serif" font-size="10.00"> myBackground</text>
</g>
<!-- Node36 -->
<g id="node36" class="node"><title>Node36</title>
<polygon fill="white" stroke="#bfbfbf" points="333,-775 333,-805 469,-805 469,-775 333,-775"/>
<text text-anchor="start" x="341" y="-793" font-family="Helvetica,sans-Serif" font-size="10.00">List&lt; model.instructions.</text>
<text text-anchor="middle" x="401" y="-782" font-family="Helvetica,sans-Serif" font-size="10.00">Instruction &gt;</text>
</g>
<!-- Node36&#45;&gt;Node2 -->
<g id="edge51" class="edge"><title>Node36&#45;&gt;Node2</title>
<path fill="none" stroke="#9a32cd" stroke-dasharray="5,2" d="M479.362,-782.284C521.035,-778.105 573.334,-772.823 620,-768 628.398,-767.132 637.176,-766.217 645.92,-765.299"/>
<polygon fill="#9a32cd" stroke="#9a32cd" points="478.881,-778.815 469.28,-783.294 479.579,-785.78 478.881,-778.815"/>
<text text-anchor="middle" x="559" y="-784" font-family="Helvetica,sans-Serif" font-size="10.00"> myDependencies</text>
</g>
<!-- Node37 -->
<g id="node37" class="node"><title>Node37</title>
<g id="a_node37"><a xlink:href="../../d1/d0b/classmodel_1_1_polar.html" target="_top" xlink:title="model.Polar">
<polygon fill="white" stroke="black" points="364,-833.5 364,-852.5 438,-852.5 438,-833.5 364,-833.5"/>
<text text-anchor="middle" x="401" y="-840.5" font-family="Helvetica,sans-Serif" font-size="10.00">model.Polar</text>
</a>
</g>
</g>
<!-- Node37&#45;&gt;Node1 -->
<g id="edge52" class="edge"><title>Node37&#45;&gt;Node1</title>
<path fill="none" stroke="#9a32cd" stroke-dasharray="5,2" d="M448.339,-838.735C495.893,-834.53 572.044,-828.272 638,-825 746.167,-819.634 871.329,-817.461 950.32,-816.585"/>
<polygon fill="#9a32cd" stroke="#9a32cd" points="447.998,-835.251 438.349,-839.625 448.62,-842.223 447.998,-835.251"/>
<text text-anchor="middle" x="725" y="-828" font-family="Helvetica,sans-Serif" font-size="10.00"> myPolar</text>
</g>
<!-- Node38 -->
<g id="node38" class="node"><title>Node38</title>
<g id="a_node38"><a xlink:href="../../d6/d06/classmodel_1_1_turtle_command.html" target="_top" xlink:title="model.TurtleCommand">
<polygon fill="white" stroke="black" points="662.5,-845.5 662.5,-864.5 787.5,-864.5 787.5,-845.5 662.5,-845.5"/>
<text text-anchor="middle" x="725" y="-852.5" font-family="Helvetica,sans-Serif" font-size="10.00">model.TurtleCommand</text>
</a>
</g>
</g>
<!-- Node37&#45;&gt;Node38 -->
<g id="edge54" class="edge"><title>Node37&#45;&gt;Node38</title>
<path fill="none" stroke="#9a32cd" stroke-dasharray="5,2" d="M448.039,-844.716C504.336,-846.814 599.833,-850.373 662.41,-852.705"/>
<polygon fill="#9a32cd" stroke="#9a32cd" points="448.124,-841.217 438,-844.342 447.863,-848.212 448.124,-841.217"/>
<text text-anchor="middle" x="559" y="-855" font-family="Helvetica,sans-Serif" font-size="10.00"> myPolar</text>
</g>
<!-- Node38&#45;&gt;Node1 -->
<g id="edge53" class="edge"><title>Node38&#45;&gt;Node1</title>
<path fill="none" stroke="#9a32cd" stroke-dasharray="5,2" d="M797.886,-846.679C837.48,-841.995 887.484,-835.913 932,-830 937.988,-829.205 944.18,-828.361 950.405,-827.497"/>
<polygon fill="#9a32cd" stroke="#9a32cd" points="797.314,-843.222 787.793,-847.87 798.134,-850.174 797.314,-843.222"/>
<text text-anchor="middle" x="881" y="-846" font-family="Helvetica,sans-Serif" font-size="10.00"> myTurtle</text>
</g>
</g>
</svg>
