<?xml version="1.0" encoding="UTF-8" standalone="no"?>
<!DOCTYPE svg PUBLIC "-//W3C//DTD SVG 1.1//EN"
 "http://www.w3.org/Graphics/SVG/1.1/DTD/svg11.dtd">
<!-- Generated by graphviz version 2.36.0 (20140111.2315)
 -->
<!-- Title: model.instructions.MovementInstruction Pages: 1 -->
<svg width="1676pt" height="724pt"
 viewBox="0.00 0.00 1676.00 724.00" xmlns="http://www.w3.org/2000/svg" xmlns:xlink="http://www.w3.org/1999/xlink">
<g id="graph0" class="graph" transform="scale(1 1) rotate(0) translate(4 720)">
<title>model.instructions.MovementInstruction</title>
<polygon fill="white" stroke="none" points="-4,4 -4,-720 1672,-720 1672,4 -4,4"/>
<!-- Node1 -->
<g id="node1" class="node"><title>Node1</title>
<polygon fill="#bfbfbf" stroke="black" points="895.5,-645 895.5,-675 1054.5,-675 1054.5,-645 895.5,-645"/>
<text text-anchor="start" x="903.5" y="-663" font-family="Helvetica,sans-Serif" font-size="10.00">model.instructions.Movement</text>
<text text-anchor="middle" x="975" y="-652" font-family="Helvetica,sans-Serif" font-size="10.00">Instruction</text>
</g>
<!-- Node2 -->
<g id="node2" class="node"><title>Node2</title>
<g id="a_node2"><a xlink:href="../../d1/dea/classmodel_1_1instructions_1_1_instruction.html" target="_top" xlink:title="model.instructions.Instruction">
<polygon fill="white" stroke="black" points="638,-525.5 638,-544.5 796,-544.5 796,-525.5 638,-525.5"/>
<text text-anchor="middle" x="717" y="-532.5" font-family="Helvetica,sans-Serif" font-size="10.00">model.instructions.Instruction</text>
</a>
</g>
</g>
<!-- Node2&#45;&gt;Node1 -->
<g id="edge1" class="edge"><title>Node2&#45;&gt;Node1</title>
<path fill="none" stroke="midnightblue" d="M768.789,-547.663C778.085,-550.803 787.52,-554.567 796,-559 833.033,-578.357 838.725,-589.287 870,-617 878.468,-624.503 878.262,-629.24 888,-635 894.424,-638.8 901.462,-642.053 908.658,-644.832"/>
<polygon fill="midnightblue" stroke="midnightblue" points="769.789,-544.308 759.199,-544.615 767.669,-550.98 769.789,-544.308"/>
</g>
<!-- Node3 -->
<g id="node3" class="node"><title>Node3</title>
<polygon fill="white" stroke="#bfbfbf" points="57,-448.5 57,-467.5 117,-467.5 117,-448.5 57,-448.5"/>
<text text-anchor="middle" x="87" y="-455.5" font-family="Helvetica,sans-Serif" font-size="10.00">Observer</text>
</g>
<!-- Node3&#45;&gt;Node2 -->
<g id="edge2" class="edge"><title>Node3&#45;&gt;Node2</title>
<path fill="none" stroke="midnightblue" d="M127.173,-462.803C228.943,-475.281 503.163,-508.904 638.412,-525.487"/>
<polygon fill="midnightblue" stroke="midnightblue" points="127.382,-459.303 117.03,-461.559 126.53,-466.251 127.382,-459.303"/>
</g>
<!-- Node9 -->
<g id="node9" class="node"><title>Node9</title>
<g id="a_node9"><a xlink:href="../../d6/de7/classview_1_1_s_logo_view.html" target="_top" xlink:title="view.SLogoView">
<polygon fill="white" stroke="black" points="355.5,-250.5 355.5,-269.5 446.5,-269.5 446.5,-250.5 355.5,-250.5"/>
<text text-anchor="middle" x="401" y="-257.5" font-family="Helvetica,sans-Serif" font-size="10.00">view.SLogoView</text>
</a>
</g>
</g>
<!-- Node3&#45;&gt;Node9 -->
<g id="edge9" class="edge"><title>Node3&#45;&gt;Node9</title>
<path fill="none" stroke="midnightblue" d="M113.374,-443.12C131.331,-431.941 155.423,-415.584 174,-398 183.427,-389.077 181.113,-382.069 192,-375 235.035,-347.059 263.606,-378.638 304,-347 317.461,-336.457 310.592,-325.736 322,-313 338.822,-294.219 363.631,-278.855 380.731,-269.592"/>
<polygon fill="midnightblue" stroke="midnightblue" points="111.317,-440.275 104.605,-448.473 114.964,-446.25 111.317,-440.275"/>
</g>
<!-- Node21 -->
<g id="node21" class="node"><title>Node21</title>
<g id="a_node21"><a xlink:href="../../dc/df5/classmodel_1_1_parser.html" target="_top" xlink:title="model.Parser">
<polygon fill="white" stroke="black" points="677,-375.5 677,-394.5 757,-394.5 757,-375.5 677,-375.5"/>
<text text-anchor="middle" x="717" y="-382.5" font-family="Helvetica,sans-Serif" font-size="10.00">model.Parser</text>
</a>
</g>
</g>
<!-- Node3&#45;&gt;Node21 -->
<g id="edge23" class="edge"><title>Node3&#45;&gt;Node21</title>
<path fill="none" stroke="midnightblue" d="M127.174,-456.375C170.508,-454.365 242.363,-450.401 304,-444 441.633,-429.707 603.899,-403.783 676.928,-391.627"/>
<polygon fill="midnightblue" stroke="midnightblue" points="126.89,-452.884 117.058,-456.833 127.206,-459.877 126.89,-452.884"/>
</g>
<!-- Node4 -->
<g id="node4" class="node"><title>Node4</title>
<g id="a_node4"><a xlink:href="../../d1/dca/classmodel_1_1_execution_environment.html" target="_top" xlink:title="model.ExecutionEnvironment">
<polygon fill="white" stroke="black" points="322.5,-524.5 322.5,-543.5 479.5,-543.5 479.5,-524.5 322.5,-524.5"/>
<text text-anchor="middle" x="401" y="-531.5" font-family="Helvetica,sans-Serif" font-size="10.00">model.ExecutionEnvironment</text>
</a>
</g>
</g>
<!-- Node4&#45;&gt;Node2 -->
<g id="edge3" class="edge"><title>Node4&#45;&gt;Node2</title>
<path fill="none" stroke="#9a32cd" stroke-dasharray="5,2" d="M489.688,-534.279C536.218,-534.427 592.911,-534.608 637.914,-534.751"/>
<polygon fill="#9a32cd" stroke="#9a32cd" points="489.629,-530.779 479.618,-534.247 489.607,-537.779 489.629,-530.779"/>
<text text-anchor="middle" x="559" y="-538" font-family="Helvetica,sans-Serif" font-size="10.00"> myEnvironment</text>
</g>
<!-- Node4&#45;&gt;Node21 -->
<g id="edge25" class="edge"><title>Node4&#45;&gt;Node21</title>
<path fill="none" stroke="#9a32cd" stroke-dasharray="5,2" d="M434.065,-520.332C477.062,-501.705 555.461,-466.681 620,-432 628.259,-427.562 629.73,-425.416 638,-421 656.287,-411.235 677.711,-401.461 693.474,-394.566"/>
<polygon fill="#9a32cd" stroke="#9a32cd" points="432.481,-517.204 424.686,-524.379 435.254,-523.631 432.481,-517.204"/>
<text text-anchor="middle" x="559" y="-493" font-family="Helvetica,sans-Serif" font-size="10.00"> myExecutionParameters</text>
</g>
<!-- Node5 -->
<g id="node5" class="node"><title>Node5</title>
<polygon fill="white" stroke="#bfbfbf" points="51.5,-505.5 51.5,-524.5 122.5,-524.5 122.5,-505.5 51.5,-505.5"/>
<text text-anchor="middle" x="87" y="-512.5" font-family="Helvetica,sans-Serif" font-size="10.00">Observable</text>
</g>
<!-- Node5&#45;&gt;Node4 -->
<g id="edge4" class="edge"><title>Node5&#45;&gt;Node4</title>
<path fill="none" stroke="midnightblue" d="M132.637,-517.718C182.066,-520.728 262.658,-525.636 322.457,-529.278"/>
<polygon fill="midnightblue" stroke="midnightblue" points="132.776,-514.22 122.582,-517.106 132.35,-521.207 132.776,-514.22"/>
</g>
<!-- Node6 -->
<g id="node6" class="node"><title>Node6</title>
<polygon fill="white" stroke="#bfbfbf" points="0,-582 0,-612 174,-612 174,-582 0,-582"/>
<text text-anchor="start" x="8" y="-600" font-family="Helvetica,sans-Serif" font-size="10.00">Map&lt; String, model.instructions.</text>
<text text-anchor="middle" x="87" y="-589" font-family="Helvetica,sans-Serif" font-size="10.00">Instruction &gt;</text>
</g>
<!-- Node6&#45;&gt;Node4 -->
<g id="edge5" class="edge"><title>Node6&#45;&gt;Node4</title>
<path fill="none" stroke="#9a32cd" stroke-dasharray="5,2" d="M184.071,-587.774C222.037,-582.496 265.668,-574.369 304,-562 312.512,-559.253 313.602,-556.078 322,-553 331.946,-549.355 342.861,-546.2 353.293,-543.564"/>
<polygon fill="#9a32cd" stroke="#9a32cd" points="183.482,-584.321 174.037,-589.121 184.414,-591.259 183.482,-584.321"/>
<text text-anchor="middle" x="248" y="-590" font-family="Helvetica,sans-Serif" font-size="10.00"> myUserInstructionMap</text>
</g>
<!-- Node7 -->
<g id="node7" class="node"><title>Node7</title>
<polygon fill="white" stroke="#bfbfbf" points="23,-543.5 23,-562.5 151,-562.5 151,-543.5 23,-543.5"/>
<text text-anchor="middle" x="87" y="-550.5" font-family="Helvetica,sans-Serif" font-size="10.00">Map&lt; String, Double &gt;</text>
</g>
<!-- Node7&#45;&gt;Node4 -->
<g id="edge6" class="edge"><title>Node7&#45;&gt;Node4</title>
<path fill="none" stroke="#9a32cd" stroke-dasharray="5,2" d="M161.23,-548.54C209.637,-545.593 273.011,-541.733 322.303,-538.732"/>
<polygon fill="#9a32cd" stroke="#9a32cd" points="160.907,-545.054 151.138,-549.155 161.332,-552.041 160.907,-545.054"/>
<text text-anchor="middle" x="248" y="-550" font-family="Helvetica,sans-Serif" font-size="10.00"> myVariableMap</text>
</g>
<!-- Node8 -->
<g id="node8" class="node"><title>Node8</title>
<polygon fill="white" stroke="#bfbfbf" points="333,-563 333,-593 469,-593 469,-563 333,-563"/>
<text text-anchor="start" x="341" y="-581" font-family="Helvetica,sans-Serif" font-size="10.00">List&lt; model.instructions.</text>
<text text-anchor="middle" x="401" y="-570" font-family="Helvetica,sans-Serif" font-size="10.00">Instruction &gt;</text>
</g>
<!-- Node8&#45;&gt;Node2 -->
<g id="edge7" class="edge"><title>Node8&#45;&gt;Node2</title>
<path fill="none" stroke="#9a32cd" stroke-dasharray="5,2" d="M479.422,-568.577C521.113,-563.371 573.409,-556.631 620,-550 631.857,-548.312 644.522,-546.407 656.634,-544.535"/>
<polygon fill="#9a32cd" stroke="#9a32cd" points="478.826,-565.124 469.335,-569.832 479.691,-572.07 478.826,-565.124"/>
<text text-anchor="middle" x="559" y="-569" font-family="Helvetica,sans-Serif" font-size="10.00"> myDependencies</text>
</g>
<!-- Node9&#45;&gt;Node2 -->
<g id="edge8" class="edge"><title>Node9&#45;&gt;Node2</title>
<path fill="none" stroke="#9a32cd" stroke-dasharray="5,2" d="M430.291,-273.977C449.137,-282.887 474.641,-294.184 498,-302 550.853,-319.685 582.457,-289.809 620,-331 658.403,-373.133 612.369,-407.078 638,-458 652.886,-487.574 683.571,-512.518 701.7,-525.463"/>
<polygon fill="#9a32cd" stroke="#9a32cd" points="431.619,-270.733 421.089,-269.567 428.594,-277.045 431.619,-270.733"/>
<text text-anchor="middle" x="559" y="-334" font-family="Helvetica,sans-Serif" font-size="10.00"> myView</text>
</g>
<!-- Node9&#45;&gt;Node21 -->
<g id="edge27" class="edge"><title>Node9&#45;&gt;Node21</title>
<path fill="none" stroke="#9a32cd" stroke-dasharray="5,2" d="M456.794,-264.945C517.123,-270.833 607.314,-281.117 620,-291 636.667,-303.985 624.477,-318.766 638,-335 653.134,-353.168 676.606,-366.957 693.85,-375.406"/>
<polygon fill="#9a32cd" stroke="#9a32cd" points="456.933,-261.442 446.644,-263.968 456.263,-268.41 456.933,-261.442"/>
<text text-anchor="middle" x="559" y="-294" font-family="Helvetica,sans-Serif" font-size="10.00"> mySLogoView</text>
</g>
<!-- Node10 -->
<g id="node10" class="node"><title>Node10</title>
<g id="a_node10"><a xlink:href="../../da/d64/classview_1_1_workspace.html" target="_top" xlink:title="view.Workspace">
<polygon fill="white" stroke="black" points="1398,-316.5 1398,-335.5 1488,-335.5 1488,-316.5 1398,-316.5"/>
<text text-anchor="middle" x="1443" y="-323.5" font-family="Helvetica,sans-Serif" font-size="10.00">view.Workspace</text>
</a>
</g>
</g>
<!-- Node10&#45;&gt;Node9 -->
<g id="edge10" class="edge"><title>Node10&#45;&gt;Node9</title>
<path fill="none" stroke="#9a32cd" stroke-dasharray="5,2" d="M1429.34,-308.211C1417.79,-292.928 1399.59,-271.041 1380,-256 1289.53,-186.539 1246.06,-190 1132,-190 716,-190 716,-190 716,-190 606.251,-190 479.982,-231.242 427.216,-250.414"/>
<polygon fill="#9a32cd" stroke="#9a32cd" points="1426.58,-310.367 1435.33,-316.345 1432.22,-306.217 1426.58,-310.367"/>
<text text-anchor="middle" x="975" y="-193" font-family="Helvetica,sans-Serif" font-size="10.00"> myWorkspace</text>
</g>
<!-- Node15 -->
<g id="node15" class="node"><title>Node15</title>
<g id="a_node15"><a xlink:href="../../d1/dc7/classview_1_1_side_bar.html" target="_top" xlink:title="view.SideBar">
<polygon fill="white" stroke="black" points="1204.5,-413.5 1204.5,-432.5 1281.5,-432.5 1281.5,-413.5 1204.5,-413.5"/>
<text text-anchor="middle" x="1243" y="-420.5" font-family="Helvetica,sans-Serif" font-size="10.00">view.SideBar</text>
</a>
</g>
</g>
<!-- Node10&#45;&gt;Node15 -->
<g id="edge17" class="edge"><title>Node10&#45;&gt;Node15</title>
<path fill="none" stroke="#9a32cd" stroke-dasharray="5,2" d="M1427.5,-343.531C1415.91,-356.48 1398.56,-373.596 1380,-384 1349.43,-401.133 1337.67,-395.298 1304,-405 1294.7,-407.68 1284.61,-410.672 1275.41,-413.435"/>
<polygon fill="#9a32cd" stroke="#9a32cd" points="1430.35,-345.588 1434.25,-335.736 1425.06,-341.008 1430.35,-345.588"/>
<text text-anchor="middle" x="1342" y="-408" font-family="Helvetica,sans-Serif" font-size="10.00"> myWorkspace</text>
</g>
<!-- Node34 -->
<g id="node34" class="node"><title>Node34</title>
<g id="a_node34"><a xlink:href="../../de/d0a/classview_1_1_drawer.html" target="_top" xlink:title="view.Drawer">
<polygon fill="white" stroke="black" points="1594.5,-47.5 1594.5,-66.5 1667.5,-66.5 1667.5,-47.5 1594.5,-47.5"/>
<text text-anchor="middle" x="1631" y="-54.5" font-family="Helvetica,sans-Serif" font-size="10.00">view.Drawer</text>
</a>
</g>
</g>
<!-- Node10&#45;&gt;Node34 -->
<g id="edge45" class="edge"><title>Node10&#45;&gt;Node34</title>
<path fill="none" stroke="#9a32cd" stroke-dasharray="5,2" d="M1456.32,-308.184C1492.2,-256.291 1595.82,-106.428 1623.27,-66.7402"/>
<polygon fill="#9a32cd" stroke="#9a32cd" points="1453.43,-306.21 1450.62,-316.426 1459.19,-310.191 1453.43,-306.21"/>
<text text-anchor="middle" x="1541" y="-235" font-family="Helvetica,sans-Serif" font-size="10.00"> myWorkspace</text>
</g>
<!-- Node11 -->
<g id="node11" class="node"><title>Node11</title>
<polygon fill="white" stroke="#bfbfbf" points="1209.5,-341.5 1209.5,-360.5 1276.5,-360.5 1276.5,-341.5 1209.5,-341.5"/>
<text text-anchor="middle" x="1243" y="-348.5" font-family="Helvetica,sans-Serif" font-size="10.00">StackPane</text>
</g>
<!-- Node11&#45;&gt;Node10 -->
<g id="edge11" class="edge"><title>Node11&#45;&gt;Node10</title>
<path fill="none" stroke="midnightblue" d="M1286.87,-345.587C1319.64,-341.449 1364.66,-335.765 1397.76,-331.586"/>
<polygon fill="midnightblue" stroke="midnightblue" points="1286.18,-342.147 1276.7,-346.872 1287.06,-349.091 1286.18,-342.147"/>
</g>
<!-- Node12 -->
<g id="node12" class="node"><title>Node12</title>
<g id="a_node12"><a xlink:href="../../d8/df7/classview_1_1_turtle_view.html" target="_top" xlink:title="view.TurtleView">
<polygon fill="white" stroke="black" points="1200,-218.5 1200,-237.5 1286,-237.5 1286,-218.5 1200,-218.5"/>
<text text-anchor="middle" x="1243" y="-225.5" font-family="Helvetica,sans-Serif" font-size="10.00">view.TurtleView</text>
</a>
</g>
</g>
<!-- Node12&#45;&gt;Node10 -->
<g id="edge12" class="edge"><title>Node12&#45;&gt;Node10</title>
<path fill="none" stroke="#9a32cd" stroke-dasharray="5,2" d="M1272.49,-242.101C1313.34,-262.318 1387.47,-299.012 1422.58,-316.386"/>
<polygon fill="#9a32cd" stroke="#9a32cd" points="1273.86,-238.874 1263.35,-237.575 1270.76,-245.148 1273.86,-238.874"/>
<text text-anchor="middle" x="1342" y="-298" font-family="Helvetica,sans-Serif" font-size="10.00"> myActiveTurtle</text>
</g>
<!-- Node13 -->
<g id="node13" class="node"><title>Node13</title>
<polygon fill="white" stroke="#bfbfbf" points="941,-219.5 941,-238.5 1009,-238.5 1009,-219.5 941,-219.5"/>
<text text-anchor="middle" x="975" y="-226.5" font-family="Helvetica,sans-Serif" font-size="10.00">ImageView</text>
</g>
<!-- Node13&#45;&gt;Node12 -->
<g id="edge13" class="edge"><title>Node13&#45;&gt;Node12</title>
<path fill="none" stroke="midnightblue" d="M1019.27,-228.837C1069.05,-228.65 1150.25,-228.345 1199.64,-228.159"/>
<polygon fill="midnightblue" stroke="midnightblue" points="1019.14,-225.338 1009.15,-228.875 1019.16,-232.338 1019.14,-225.338"/>
</g>
<!-- Node14 -->
<g id="node14" class="node"><title>Node14</title>
<polygon fill="white" stroke="#bfbfbf" points="19,-631 19,-661 155,-661 155,-631 19,-631"/>
<text text-anchor="start" x="27" y="-649" font-family="Helvetica,sans-Serif" font-size="10.00">Map&lt; Integer, view.Turtle</text>
<text text-anchor="middle" x="87" y="-638" font-family="Helvetica,sans-Serif" font-size="10.00">View &gt;</text>
</g>
<!-- Node14&#45;&gt;Node9 -->
<g id="edge43" class="edge"><title>Node14&#45;&gt;Node9</title>
<path fill="none" stroke="#9a32cd" stroke-dasharray="5,2" d="M164.124,-629.532C167.726,-627.064 171.059,-624.237 174,-621 202.899,-589.195 174.948,-565.446 192,-526 225.582,-448.316 266.242,-447.742 304,-372 316.231,-347.464 305.737,-335.071 322,-313 336.568,-293.23 360.843,-278.432 378.449,-269.567"/>
<polygon fill="#9a32cd" stroke="#9a32cd" points="162.174,-626.617 155.283,-634.666 165.689,-632.671 162.174,-626.617"/>
<text text-anchor="middle" x="248" y="-529" font-family="Helvetica,sans-Serif" font-size="10.00"> myTurtles</text>
</g>
<!-- Node14&#45;&gt;Node10 -->
<g id="edge14" class="edge"><title>Node14&#45;&gt;Node10</title>
<path fill="none" stroke="#9a32cd" stroke-dasharray="5,2" d="M146.274,-663.769C208.487,-681.142 310.259,-705 400,-705 400,-705 400,-705 1244,-705 1415.86,-705 1438.81,-395.072 1441.63,-335.749"/>
<polygon fill="#9a32cd" stroke="#9a32cd" points="147.212,-660.397 136.636,-661.041 145.305,-667.132 147.212,-660.397"/>
<text text-anchor="middle" x="842" y="-708" font-family="Helvetica,sans-Serif" font-size="10.00"> myTurtles</text>
</g>
<!-- Node14&#45;&gt;Node15 -->
<g id="edge28" class="edge"><title>Node14&#45;&gt;Node15</title>
<path fill="none" stroke="#9a32cd" stroke-dasharray="5,2" d="M165.195,-640.79C407.594,-624.159 1140.01,-571.76 1182,-543 1221.2,-516.15 1236.03,-455.891 1240.43,-432.519"/>
<polygon fill="#9a32cd" stroke="#9a32cd" points="164.794,-637.309 155.057,-641.484 165.272,-644.292 164.794,-637.309"/>
<text text-anchor="middle" x="717" y="-609" font-family="Helvetica,sans-Serif" font-size="10.00"> myTurtles</text>
</g>
<!-- Node15&#45;&gt;Node9 -->
<g id="edge47" class="edge"><title>Node15&#45;&gt;Node9</title>
<path fill="none" stroke="#9a32cd" stroke-dasharray="5,2" d="M1213.92,-409.146C1204.02,-404.721 1192.7,-400.158 1182,-397 1054.95,-359.498 1017.25,-377.016 888,-348 854.643,-340.512 846.868,-336.407 814,-327 727.722,-302.305 708.513,-285.804 620,-271 560.572,-261.061 490.869,-259.224 446.58,-259.26"/>
<polygon fill="#9a32cd" stroke="#9a32cd" points="1212.71,-412.446 1223.26,-413.468 1215.65,-406.093 1212.71,-412.446"/>
<text text-anchor="middle" x="842" y="-347" font-family="Helvetica,sans-Serif" font-size="10.00"> mySidebar</text>
</g>
<!-- Node15&#45;&gt;Node10 -->
<g id="edge15" class="edge"><title>Node15&#45;&gt;Node10</title>
<path fill="none" stroke="#9a32cd" stroke-dasharray="5,2" d="M1291.81,-431.486C1319.26,-433.953 1353.45,-432.758 1380,-418 1413,-399.661 1431.81,-355.475 1438.82,-335.77"/>
<polygon fill="#9a32cd" stroke="#9a32cd" points="1291.96,-427.982 1281.64,-430.382 1291.21,-434.942 1291.96,-427.982"/>
<text text-anchor="middle" x="1342" y="-436" font-family="Helvetica,sans-Serif" font-size="10.00"> mySidebar</text>
</g>
<!-- Node28 -->
<g id="node28" class="node"><title>Node28</title>
<g id="a_node28"><a xlink:href="../../da/dc8/classview_1_1_editor.html" target="_top" xlink:title="view.Editor">
<polygon fill="white" stroke="black" points="1409.5,-123.5 1409.5,-142.5 1476.5,-142.5 1476.5,-123.5 1409.5,-123.5"/>
<text text-anchor="middle" x="1443" y="-130.5" font-family="Helvetica,sans-Serif" font-size="10.00">view.Editor</text>
</a>
</g>
</g>
<!-- Node15&#45;&gt;Node28 -->
<g id="edge39" class="edge"><title>Node15&#45;&gt;Node28</title>
<path fill="none" stroke="#9a32cd" stroke-dasharray="5,2" d="M1261.27,-406.315C1272.85,-395.569 1288.72,-381.667 1304,-371 1335.64,-348.908 1355.55,-358.859 1380,-329 1428.16,-270.185 1439.1,-173.556 1441.42,-142.754"/>
<polygon fill="#9a32cd" stroke="#9a32cd" points="1258.53,-404.081 1253.66,-413.49 1263.34,-409.172 1258.53,-404.081"/>
<text text-anchor="middle" x="1342" y="-374" font-family="Helvetica,sans-Serif" font-size="10.00"> mySidebar</text>
</g>
<!-- Node16 -->
<g id="node16" class="node"><title>Node16</title>
<polygon fill="white" stroke="#bfbfbf" points="954.5,-606.5 954.5,-625.5 995.5,-625.5 995.5,-606.5 954.5,-606.5"/>
<text text-anchor="middle" x="975" y="-613.5" font-family="Helvetica,sans-Serif" font-size="10.00">VBox</text>
</g>
<!-- Node16&#45;&gt;Node15 -->
<g id="edge16" class="edge"><title>Node16&#45;&gt;Node15</title>
<path fill="none" stroke="midnightblue" d="M1005.51,-621.478C1049.09,-627.791 1131.01,-632.629 1182,-592 1233.62,-550.866 1240.89,-461.962 1241.87,-432.616"/>
<polygon fill="midnightblue" stroke="midnightblue" points="1005.97,-618.007 995.548,-619.91 1004.88,-624.922 1005.97,-618.007"/>
</g>
<!-- Node17 -->
<g id="node17" class="node"><title>Node17</title>
<polygon fill="white" stroke="#bfbfbf" points="888.5,-513.5 888.5,-532.5 1061.5,-532.5 1061.5,-513.5 888.5,-513.5"/>
<text text-anchor="middle" x="975" y="-520.5" font-family="Helvetica,sans-Serif" font-size="10.00">ObservableList&lt; view.Property &gt;</text>
</g>
<!-- Node17&#45;&gt;Node15 -->
<g id="edge18" class="edge"><title>Node17&#45;&gt;Node15</title>
<path fill="none" stroke="#9a32cd" stroke-dasharray="5,2" d="M1071.72,-528.354C1108.21,-526.525 1148.95,-519.522 1182,-501 1210.32,-485.132 1229.65,-449.852 1237.74,-432.716"/>
<polygon fill="#9a32cd" stroke="#9a32cd" points="1071.41,-524.863 1061.54,-528.738 1071.67,-531.858 1071.41,-524.863"/>
<text text-anchor="middle" x="1131" y="-531" font-family="Helvetica,sans-Serif" font-size="10.00"> variablesList</text>
</g>
<!-- Node18 -->
<g id="node18" class="node"><title>Node18</title>
<polygon fill="white" stroke="#bfbfbf" points="40.5,-369.5 40.5,-388.5 133.5,-388.5 133.5,-369.5 40.5,-369.5"/>
<text text-anchor="middle" x="87" y="-376.5" font-family="Helvetica,sans-Serif" font-size="10.00">ResourceBundle</text>
</g>
<!-- Node18&#45;&gt;Node9 -->
<g id="edge33" class="edge"><title>Node18&#45;&gt;Node9</title>
<path fill="none" stroke="#9a32cd" stroke-dasharray="5,2" d="M118.387,-365.285C138.927,-356.3 166.797,-344.662 192,-336 240.845,-319.213 255.556,-322.913 304,-305 331.968,-294.658 362.983,-279.385 381.988,-269.563"/>
<polygon fill="#9a32cd" stroke="#9a32cd" points="116.954,-362.091 109.219,-369.331 119.781,-368.495 116.954,-362.091"/>
<text text-anchor="middle" x="248" y="-339" font-family="Helvetica,sans-Serif" font-size="10.00"> myResources</text>
</g>
<!-- Node18&#45;&gt;Node15 -->
<g id="edge19" class="edge"><title>Node18&#45;&gt;Node15</title>
<path fill="none" stroke="#9a32cd" stroke-dasharray="5,2" d="M127.318,-391.47C146.6,-397.002 170.293,-402.942 192,-406 582.939,-461.073 685.234,-423.888 1080,-429 1125.33,-429.587 1136.72,-431.258 1182,-429 1189.21,-428.64 1196.9,-428.038 1204.28,-427.351"/>
<polygon fill="#9a32cd" stroke="#9a32cd" points="128.252,-388.097 117.671,-388.632 126.277,-394.812 128.252,-388.097"/>
<text text-anchor="middle" x="717" y="-440" font-family="Helvetica,sans-Serif" font-size="10.00"> myResources</text>
</g>
<!-- Node19 -->
<g id="node19" class="node"><title>Node19</title>
<polygon fill="white" stroke="#bfbfbf" points="901,-471.5 901,-490.5 1049,-490.5 1049,-471.5 901,-471.5"/>
<text text-anchor="middle" x="975" y="-478.5" font-family="Helvetica,sans-Serif" font-size="10.00">TableView&lt; view.Property &gt;</text>
</g>
<!-- Node19&#45;&gt;Node15 -->
<g id="edge20" class="edge"><title>Node19&#45;&gt;Node15</title>
<path fill="none" stroke="#9a32cd" stroke-dasharray="5,2" d="M1059.46,-478.111C1097.56,-474.967 1142.81,-468.631 1182,-456 1198.75,-450.602 1216.18,-440.416 1227.92,-432.782"/>
<polygon fill="#9a32cd" stroke="#9a32cd" points="1059.13,-474.626 1049.43,-478.879 1059.67,-481.605 1059.13,-474.626"/>
<text text-anchor="middle" x="1131" y="-490" font-family="Helvetica,sans-Serif" font-size="10.00"> turtlePropertiesTable</text>
<text text-anchor="middle" x="1131" y="-479" font-family="Helvetica,sans-Serif" font-size="10.00">variablesTable</text>
</g>
<!-- Node20 -->
<g id="node20" class="node"><title>Node20</title>
<g id="a_node20"><a xlink:href="../../d4/dd9/classcontroller_1_1_s_logo_controller.html" target="_top" xlink:title="controller.SLogoController">
<polygon fill="white" stroke="black" points="905,-273.5 905,-292.5 1045,-292.5 1045,-273.5 905,-273.5"/>
<text text-anchor="middle" x="975" y="-280.5" font-family="Helvetica,sans-Serif" font-size="10.00">controller.SLogoController</text>
</a>
</g>
</g>
<!-- Node20&#45;&gt;Node9 -->
<g id="edge41" class="edge"><title>Node20&#45;&gt;Node9</title>
<path fill="none" stroke="#9a32cd" stroke-dasharray="5,2" d="M909.829,-271.893C818.411,-257.462 645.415,-235.308 498,-246 481.201,-247.218 462.878,-249.621 446.785,-252.097"/>
<polygon fill="#9a32cd" stroke="#9a32cd" points="909.333,-275.358 919.761,-273.481 910.439,-268.445 909.333,-275.358"/>
<text text-anchor="middle" x="717" y="-259" font-family="Helvetica,sans-Serif" font-size="10.00"> myController</text>
</g>
<!-- Node20&#45;&gt;Node15 -->
<g id="edge21" class="edge"><title>Node20&#45;&gt;Node15</title>
<path fill="none" stroke="#9a32cd" stroke-dasharray="5,2" d="M1055.36,-285.984C1105.03,-289.44 1163.07,-296.9 1182,-313 1202.24,-330.211 1187.54,-346.535 1200,-370 1208.81,-386.592 1223.01,-403.147 1232.43,-413.23"/>
<polygon fill="#9a32cd" stroke="#9a32cd" points="1055.44,-282.481 1045.23,-285.325 1054.98,-289.467 1055.44,-282.481"/>
<text text-anchor="middle" x="1131" y="-316" font-family="Helvetica,sans-Serif" font-size="10.00"> myController</text>
</g>
<!-- Node20&#45;&gt;Node28 -->
<g id="edge37" class="edge"><title>Node20&#45;&gt;Node28</title>
<path fill="none" stroke="#9a32cd" stroke-dasharray="5,2" d="M1055.31,-284.797C1119.59,-283.693 1211.42,-276.216 1286,-247 1349.09,-222.286 1409.75,-165.595 1432.53,-142.778"/>
<polygon fill="#9a32cd" stroke="#9a32cd" points="1055.19,-281.298 1045.24,-284.922 1055.28,-288.298 1055.19,-281.298"/>
<text text-anchor="middle" x="1243" y="-274" font-family="Helvetica,sans-Serif" font-size="10.00"> myController</text>
</g>
<!-- Node21&#45;&gt;Node20 -->
<g id="edge22" class="edge"><title>Node21&#45;&gt;Node20</title>
<path fill="none" stroke="#9a32cd" stroke-dasharray="5,2" d="M735.837,-368.602C754.108,-352.716 784.007,-329.154 814,-316 842.442,-303.527 875.826,-295.686 904.72,-290.798"/>
<polygon fill="#9a32cd" stroke="#9a32cd" points="733.454,-366.037 728.302,-375.296 738.103,-371.271 733.454,-366.037"/>
<text text-anchor="middle" x="842" y="-319" font-family="Helvetica,sans-Serif" font-size="10.00"> myParser</text>
</g>
<!-- Node22 -->
<g id="node22" class="node"><title>Node22</title>
<polygon fill="white" stroke="#bfbfbf" points="345,-361 345,-391 457,-391 457,-361 345,-361"/>
<text text-anchor="start" x="353" y="-379" font-family="Helvetica,sans-Serif" font-size="10.00">List&lt; Entry&lt; String,</text>
<text text-anchor="middle" x="401" y="-368" font-family="Helvetica,sans-Serif" font-size="10.00"> Pattern &gt; &gt;</text>
</g>
<!-- Node22&#45;&gt;Node21 -->
<g id="edge24" class="edge"><title>Node22&#45;&gt;Node21</title>
<path fill="none" stroke="#9a32cd" stroke-dasharray="5,2" d="M467.325,-377.872C530.599,-379.686 624.453,-382.376 676.902,-383.879"/>
<polygon fill="#9a32cd" stroke="#9a32cd" points="467.15,-374.366 457.054,-377.578 466.95,-381.363 467.15,-374.366"/>
<text text-anchor="middle" x="559" y="-386" font-family="Helvetica,sans-Serif" font-size="10.00"> myPatterns</text>
</g>
<!-- Node23 -->
<g id="node23" class="node"><title>Node23</title>
<polygon fill="white" stroke="#bfbfbf" points="340,-322.5 340,-341.5 462,-341.5 462,-322.5 340,-322.5"/>
<text text-anchor="middle" x="401" y="-329.5" font-family="Helvetica,sans-Serif" font-size="10.00">Map&lt; String, String &gt;</text>
</g>
<!-- Node23&#45;&gt;Node21 -->
<g id="edge26" class="edge"><title>Node23&#45;&gt;Node21</title>
<path fill="none" stroke="#9a32cd" stroke-dasharray="5,2" d="M472.366,-341.063C515.171,-346.891 570.878,-355.033 620,-364 638.797,-367.431 659.522,-371.88 676.89,-375.799"/>
<polygon fill="#9a32cd" stroke="#9a32cd" points="472.708,-337.578 462.33,-339.707 471.771,-344.515 472.708,-337.578"/>
<text text-anchor="middle" x="559" y="-367" font-family="Helvetica,sans-Serif" font-size="10.00"> myCommandMap</text>
</g>
<!-- Node24 -->
<g id="node24" class="node"><title>Node24</title>
<polygon fill="white" stroke="#bfbfbf" points="906,-395.5 906,-414.5 1044,-414.5 1044,-395.5 906,-395.5"/>
<text text-anchor="middle" x="975" y="-402.5" font-family="Helvetica,sans-Serif" font-size="10.00">ObservableList&lt; String &gt;</text>
</g>
<!-- Node24&#45;&gt;Node15 -->
<g id="edge29" class="edge"><title>Node24&#45;&gt;Node15</title>
<path fill="none" stroke="#9a32cd" stroke-dasharray="5,2" d="M1054.18,-401.167C1092.81,-400.438 1140.03,-401.293 1182,-407 1191.93,-408.351 1202.57,-410.832 1212.08,-413.444"/>
<polygon fill="#9a32cd" stroke="#9a32cd" points="1053.96,-397.671 1044.04,-401.398 1054.12,-404.669 1053.96,-397.671"/>
<text text-anchor="middle" x="1131" y="-421" font-family="Helvetica,sans-Serif" font-size="10.00"> commandItems</text>
<text text-anchor="middle" x="1131" y="-410" font-family="Helvetica,sans-Serif" font-size="10.00">historyItems</text>
</g>
<!-- Node25 -->
<g id="node25" class="node"><title>Node25</title>
<polygon fill="white" stroke="#bfbfbf" points="922,-319.5 922,-338.5 1028,-338.5 1028,-319.5 922,-319.5"/>
<text text-anchor="middle" x="975" y="-326.5" font-family="Helvetica,sans-Serif" font-size="10.00">ListView&lt; String &gt;</text>
</g>
<!-- Node25&#45;&gt;Node15 -->
<g id="edge30" class="edge"><title>Node25&#45;&gt;Node15</title>
<path fill="none" stroke="#9a32cd" stroke-dasharray="5,2" d="M1038.4,-326.867C1089.99,-326.198 1158.47,-328.172 1182,-342 1194.76,-349.495 1191.4,-357.966 1200,-370 1211.2,-385.662 1225.29,-403.008 1233.96,-413.453"/>
<polygon fill="#9a32cd" stroke="#9a32cd" points="1038.26,-323.368 1028.32,-327.033 1038.38,-330.367 1038.26,-323.368"/>
<text text-anchor="middle" x="1131" y="-345" font-family="Helvetica,sans-Serif" font-size="10.00"> historyList</text>
</g>
<!-- Node26 -->
<g id="node26" class="node"><title>Node26</title>
<polygon fill="white" stroke="#bfbfbf" points="1211.5,-303.5 1211.5,-322.5 1274.5,-322.5 1274.5,-303.5 1211.5,-303.5"/>
<text text-anchor="middle" x="1243" y="-310.5" font-family="Helvetica,sans-Serif" font-size="10.00">Rectangle</text>
</g>
<!-- Node26&#45;&gt;Node10 -->
<g id="edge31" class="edge"><title>Node26&#45;&gt;Node10</title>
<path fill="none" stroke="#9a32cd" stroke-dasharray="5,2" d="M1284.86,-311.349C1311.92,-310.735 1348.16,-310.829 1380,-314 1385.89,-314.587 1392.06,-315.46 1398.12,-316.473"/>
<polygon fill="#9a32cd" stroke="#9a32cd" points="1284.51,-307.857 1274.6,-311.625 1284.69,-314.854 1284.51,-307.857"/>
<text text-anchor="middle" x="1342" y="-317" font-family="Helvetica,sans-Serif" font-size="10.00"> myBackground</text>
</g>
<!-- Node27 -->
<g id="node27" class="node"><title>Node27</title>
<polygon fill="white" stroke="#bfbfbf" points="64.5,-213.5 64.5,-232.5 109.5,-232.5 109.5,-213.5 64.5,-213.5"/>
<text text-anchor="middle" x="87" y="-220.5" font-family="Helvetica,sans-Serif" font-size="10.00">Stage</text>
</g>
<!-- Node27&#45;&gt;Node9 -->
<g id="edge32" class="edge"><title>Node27&#45;&gt;Node9</title>
<path fill="none" stroke="#9a32cd" stroke-dasharray="5,2" d="M120.012,-226.018C162.221,-230.086 238.775,-237.775 304,-246 320.711,-248.107 339.014,-250.705 355.117,-253.087"/>
<polygon fill="#9a32cd" stroke="#9a32cd" points="120.089,-222.509 109.8,-225.04 119.421,-229.477 120.089,-222.509"/>
<text text-anchor="middle" x="248" y="-249" font-family="Helvetica,sans-Serif" font-size="10.00"> myStage</text>
</g>
<!-- Node28&#45;&gt;Node9 -->
<g id="edge34" class="edge"><title>Node28&#45;&gt;Node9</title>
<path fill="none" stroke="#9a32cd" stroke-dasharray="5,2" d="M1399.22,-126.511C1359.19,-121.007 1297.69,-114 1244,-114 716,-114 716,-114 716,-114 586.144,-114 451.879,-217.939 413.091,-250.421"/>
<polygon fill="#9a32cd" stroke="#9a32cd" points="1398.77,-129.983 1409.16,-127.908 1399.74,-123.051 1398.77,-129.983"/>
<text text-anchor="middle" x="975" y="-117" font-family="Helvetica,sans-Serif" font-size="10.00"> myEditor</text>
</g>
<!-- Node29 -->
<g id="node29" class="node"><title>Node29</title>
<polygon fill="white" stroke="#bfbfbf" points="1222,-28.5 1222,-47.5 1264,-47.5 1264,-28.5 1222,-28.5"/>
<text text-anchor="middle" x="1243" y="-35.5" font-family="Helvetica,sans-Serif" font-size="10.00">HBox</text>
</g>
<!-- Node29&#45;&gt;Node28 -->
<g id="edge35" class="edge"><title>Node29&#45;&gt;Node28</title>
<path fill="none" stroke="midnightblue" d="M1274.36,-40.9395C1303.1,-44.7615 1346.68,-53.3152 1380,-72 1403.44,-85.1477 1424.26,-109.503 1434.77,-123.124"/>
<polygon fill="midnightblue" stroke="midnightblue" points="1274.48,-37.4277 1264.13,-39.6951 1273.63,-44.3765 1274.48,-37.4277"/>
</g>
<!-- Node30 -->
<g id="node30" class="node"><title>Node30</title>
<polygon fill="white" stroke="#bfbfbf" points="1218.5,-142.5 1218.5,-161.5 1267.5,-161.5 1267.5,-142.5 1218.5,-142.5"/>
<text text-anchor="middle" x="1243" y="-149.5" font-family="Helvetica,sans-Serif" font-size="10.00">Button</text>
</g>
<!-- Node30&#45;&gt;Node28 -->
<g id="edge36" class="edge"><title>Node30&#45;&gt;Node28</title>
<path fill="none" stroke="#9a32cd" stroke-dasharray="5,2" d="M1278.13,-148.725C1314.99,-145.188 1373.28,-139.595 1409.49,-136.12"/>
<polygon fill="#9a32cd" stroke="#9a32cd" points="1277.5,-145.269 1267.88,-149.708 1278.17,-152.237 1277.5,-145.269"/>
<text text-anchor="middle" x="1342" y="-149" font-family="Helvetica,sans-Serif" font-size="10.00"> runButton</text>
</g>
<!-- Node31 -->
<g id="node31" class="node"><title>Node31</title>
<polygon fill="white" stroke="#bfbfbf" points="1214,-66.5 1214,-85.5 1272,-85.5 1272,-66.5 1214,-66.5"/>
<text text-anchor="middle" x="1243" y="-73.5" font-family="Helvetica,sans-Serif" font-size="10.00">TextArea</text>
</g>
<!-- Node31&#45;&gt;Node28 -->
<g id="edge38" class="edge"><title>Node31&#45;&gt;Node28</title>
<path fill="none" stroke="#9a32cd" stroke-dasharray="5,2" d="M1282.18,-74.4501C1310.11,-74.5434 1348.46,-77.264 1380,-89 1400.53,-96.6414 1420.51,-112.874 1432.01,-123.342"/>
<polygon fill="#9a32cd" stroke="#9a32cd" points="1282,-70.9513 1272.03,-74.5296 1282.05,-77.9511 1282,-70.9513"/>
<text text-anchor="middle" x="1342" y="-92" font-family="Helvetica,sans-Serif" font-size="10.00"> textEditor</text>
</g>
<!-- Node32 -->
<g id="node32" class="node"><title>Node32</title>
<polygon fill="white" stroke="#bfbfbf" points="27.5,-175.5 27.5,-194.5 146.5,-194.5 146.5,-175.5 27.5,-175.5"/>
<text text-anchor="middle" x="87" y="-182.5" font-family="Helvetica,sans-Serif" font-size="10.00">Map&lt; String, Node &gt;</text>
</g>
<!-- Node32&#45;&gt;Node9 -->
<g id="edge40" class="edge"><title>Node32&#45;&gt;Node9</title>
<path fill="none" stroke="#9a32cd" stroke-dasharray="5,2" d="M156.665,-191.416C199.59,-196.5 255.699,-205.117 304,-219 331.869,-227.01 362.401,-241.023 381.382,-250.407"/>
<polygon fill="#9a32cd" stroke="#9a32cd" points="156.941,-187.924 146.606,-190.26 156.142,-194.879 156.941,-187.924"/>
<text text-anchor="middle" x="248" y="-222" font-family="Helvetica,sans-Serif" font-size="10.00"> variables</text>
</g>
<!-- Node33 -->
<g id="node33" class="node"><title>Node33</title>
<polygon fill="white" stroke="#bfbfbf" points="46.5,-289.5 46.5,-308.5 127.5,-308.5 127.5,-289.5 46.5,-289.5"/>
<text text-anchor="middle" x="87" y="-296.5" font-family="Helvetica,sans-Serif" font-size="10.00">Dimension2D</text>
</g>
<!-- Node33&#45;&gt;Node9 -->
<g id="edge42" class="edge"><title>Node33&#45;&gt;Node9</title>
<path fill="none" stroke="#9a32cd" stroke-dasharray="5,2" d="M138.009,-294.52C181.853,-290.39 247.268,-283.741 304,-276 320.741,-273.716 339.052,-270.774 355.151,-268.038"/>
<polygon fill="#9a32cd" stroke="#9a32cd" points="137.527,-291.049 127.896,-295.463 138.178,-298.019 137.527,-291.049"/>
<text text-anchor="middle" x="248" y="-293" font-family="Helvetica,sans-Serif" font-size="10.00"> myDimensions</text>
</g>
<!-- Node34&#45;&gt;Node9 -->
<g id="edge44" class="edge"><title>Node34&#45;&gt;Node9</title>
<path fill="none" stroke="#9a32cd" stroke-dasharray="5,2" d="M1602.58,-42.973C1566.99,-26.0955 1502.5,-0 1444,-0 716,-0 716,-0 716,-0 555.692,-0 433.252,-203.531 407.162,-250.438"/>
<polygon fill="#9a32cd" stroke="#9a32cd" points="1601.3,-46.2414 1611.82,-47.4595 1604.36,-39.9441 1601.3,-46.2414"/>
<text text-anchor="middle" x="1131" y="-3" font-family="Helvetica,sans-Serif" font-size="10.00"> drawer</text>
</g>
<!-- Node35 -->
<g id="node35" class="node"><title>Node35</title>
<polygon fill="white" stroke="#bfbfbf" points="1422.5,-47.5 1422.5,-66.5 1463.5,-66.5 1463.5,-47.5 1422.5,-47.5"/>
<text text-anchor="middle" x="1443" y="-54.5" font-family="Helvetica,sans-Serif" font-size="10.00">Color</text>
</g>
<!-- Node35&#45;&gt;Node34 -->
<g id="edge46" class="edge"><title>Node35&#45;&gt;Node34</title>
<path fill="none" stroke="#9a32cd" stroke-dasharray="5,2" d="M1473.86,-57C1506.64,-57 1559.27,-57 1594.23,-57"/>
<polygon fill="#9a32cd" stroke="#9a32cd" points="1473.55,-53.5001 1463.55,-57 1473.55,-60.5001 1473.55,-53.5001"/>
<text text-anchor="middle" x="1541" y="-60" font-family="Helvetica,sans-Serif" font-size="10.00"> myColor</text>
</g>
<!-- Node36 -->
<g id="node36" class="node"><title>Node36</title>
<polygon fill="white" stroke="#bfbfbf" points="64,-251.5 64,-270.5 110,-270.5 110,-251.5 64,-251.5"/>
<text text-anchor="middle" x="87" y="-258.5" font-family="Helvetica,sans-Serif" font-size="10.00">Group</text>
</g>
<!-- Node36&#45;&gt;Node9 -->
<g id="edge48" class="edge"><title>Node36&#45;&gt;Node9</title>
<path fill="none" stroke="#9a32cd" stroke-dasharray="5,2" d="M120.521,-260.896C176.621,-260.716 291.669,-260.347 355.267,-260.143"/>
<polygon fill="#9a32cd" stroke="#9a32cd" points="120.427,-257.396 110.438,-260.928 120.449,-264.396 120.427,-257.396"/>
<text text-anchor="middle" x="248" y="-264" font-family="Helvetica,sans-Serif" font-size="10.00"> lines</text>
</g>
<!-- Node37 -->
<g id="node37" class="node"><title>Node37</title>
<g id="a_node37"><a xlink:href="../../d3/d75/classmodel_1_1turtle_1_1_turtle_command.html" target="_top" xlink:title="model.turtle.TurtleCommand">
<polygon fill="white" stroke="black" points="640,-657.5 640,-676.5 794,-676.5 794,-657.5 640,-657.5"/>
<text text-anchor="middle" x="717" y="-664.5" font-family="Helvetica,sans-Serif" font-size="10.00">model.turtle.TurtleCommand</text>
</a>
</g>
</g>
<!-- Node37&#45;&gt;Node1 -->
<g id="edge49" class="edge"><title>Node37&#45;&gt;Node1</title>
<path fill="none" stroke="#9a32cd" stroke-dasharray="5,2" d="M804.349,-664.639C833.699,-663.836 866.329,-662.944 895.07,-662.158"/>
<polygon fill="#9a32cd" stroke="#9a32cd" points="804.016,-661.147 794.115,-664.919 804.207,-668.144 804.016,-661.147"/>
<text text-anchor="middle" x="842" y="-668" font-family="Helvetica,sans-Serif" font-size="10.00"> myTurtle</text>
</g>
<!-- Node38 -->
<g id="node38" class="node"><title>Node38</title>
<g id="a_node38"><a xlink:href="../../d1/d0b/classmodel_1_1_polar.html" target="_top" xlink:title="model.Polar">
<polygon fill="white" stroke="black" points="364,-654.5 364,-673.5 438,-673.5 438,-654.5 364,-654.5"/>
<text text-anchor="middle" x="401" y="-661.5" font-family="Helvetica,sans-Serif" font-size="10.00">model.Polar</text>
</a>
</g>
</g>
<!-- Node38&#45;&gt;Node1 -->
<g id="edge51" class="edge"><title>Node38&#45;&gt;Node1</title>
<path fill="none" stroke="#9a32cd" stroke-dasharray="5,2" d="M448.251,-657.13C495.735,-650.449 571.832,-640.773 638,-637 708.108,-633.003 725.923,-632.491 796,-637 828.65,-639.101 864.462,-643.347 895.348,-647.626"/>
<polygon fill="#9a32cd" stroke="#9a32cd" points="447.684,-653.676 438.276,-658.549 448.669,-660.606 447.684,-653.676"/>
<text text-anchor="middle" x="717" y="-640" font-family="Helvetica,sans-Serif" font-size="10.00"> myPolar</text>
</g>
<!-- Node38&#45;&gt;Node37 -->
<g id="edge50" class="edge"><title>Node38&#45;&gt;Node37</title>
<path fill="none" stroke="#9a32cd" stroke-dasharray="5,2" d="M448.284,-664.442C498.678,-664.924 580.063,-665.701 639.889,-666.273"/>
<polygon fill="#9a32cd" stroke="#9a32cd" points="448.053,-660.94 438.02,-664.344 447.986,-667.94 448.053,-660.94"/>
<text text-anchor="middle" x="559" y="-670" font-family="Helvetica,sans-Serif" font-size="10.00"> myPolar</text>
</g>
</g>
</svg>
