<?xml version="1.0" encoding="UTF-8" standalone="no"?>
<!DOCTYPE svg PUBLIC "-//W3C//DTD SVG 1.1//EN"
 "http://www.w3.org/Graphics/SVG/1.1/DTD/svg11.dtd">
<!-- Generated by graphviz version 2.36.0 (20140111.2315)
 -->
<!-- Title: view.Editor Pages: 1 -->
<!--zoomable 543 -->
<svg id="main" version="1.1" xmlns="http://www.w3.org/2000/svg" xmlns:xlink="http://www.w3.org/1999/xlink" xml:space="preserve" onload="init(evt)">
<style type="text/css"><![CDATA[
.edge:hover path { stroke: red; }
.edge:hover polygon { stroke: red; fill: red; }
]]></style>
<script type="text/javascript"><![CDATA[
var edges = document.getElementsByTagName('g');
if (edges && edges.length) {
  for (var i=0;i<edges.length;i++) {
    if (edges[i].id.substr(0,4)=='edge') {
      edges[i].setAttribute('class','edge');
    }
  }
}
]]></script>
        <defs>
                <circle id="rim" cx="0" cy="0" r="7"/>
                <circle id="rim2" cx="0" cy="0" r="3.5"/>
                <g id="zoomPlus">
                        <use xlink:href="#rim" fill="#404040">
                                <set attributeName="fill" to="#808080" begin="zoomplus.mouseover" end="zoomplus.mouseout"/>
                        </use>
                        <path d="M-4,0h8M0,-4v8" fill="none" stroke="white" stroke-width="1.5" pointer-events="none"/>
                </g>
                <g id="zoomMin">
                        <use xlink:href="#rim" fill="#404040">
                                <set attributeName="fill" to="#808080" begin="zoomminus.mouseover" end="zoomminus.mouseout"/>
                        </use>
                        <path d="M-4,0h8" fill="none" stroke="white" stroke-width="1.5" pointer-events="none"/>
                </g>
                <g id="dirArrow">
                        <path fill="none" stroke="white" stroke-width="1.5" d="M0,-3.0v7 M-2.5,-0.5L0,-3.0L2.5,-0.5"/>
                </g>
               <g id="resetDef">
                       <use xlink:href="#rim2" fill="#404040">
                               <set attributeName="fill" to="#808080" begin="reset.mouseover" end="reset.mouseout"/>
                       </use>
               </g>
        </defs>

<script type="text/javascript">
var viewWidth = 1622;
var viewHeight = 543;
var sectionId = 'dynsection-1';
</script>
<script xlink:href="../../svgpan.js"/>
<svg id="graph" class="graph">
<g id="viewport">
<title>view.Editor</title>
<polygon fill="white" stroke="none" points="-4,4 -4,-538.749 1618,-538.749 1618,4 -4,4"/>
<!-- Node1 -->
<g id="node1" class="node"><title>Node1</title>
<polygon fill="#bfbfbf" stroke="black" points="199.5,-191.629 199.5,-210.629 266.5,-210.629 266.5,-191.629 199.5,-191.629"/>
<text text-anchor="middle" x="233" y="-198.629" font-family="Helvetica,sans-Serif" font-size="10.00">view.Editor</text>
</g>
<!-- Node12 -->
<g id="node12" class="node"><title>Node12</title>
<g id="a_node12"><a xlink:href="../../d6/de7/classview_1_1_s_logo_view.html" target="_top" xlink:title="view.SLogoView">
<polygon fill="white" stroke="black" points="501.5,-353.629 501.5,-372.629 592.5,-372.629 592.5,-353.629 501.5,-353.629"/>
<text text-anchor="middle" x="547" y="-360.629" font-family="Helvetica,sans-Serif" font-size="10.00">view.SLogoView</text>
</a>
</g>
</g>
<!-- Node1&#45;&gt;Node12 -->
<g id="edge29" class="edge"><title>Node1&#45;&gt;Node12</title>
<path fill="none" stroke="#9a32cd" stroke-dasharray="5,2" d="M276.947,-204.57C324.885,-210.586 402.011,-227.069 450,-272.129 465.703,-286.874 453.972,-300.783 468,-317.129 482.231,-333.712 504.004,-345.848 520.933,-353.478"/>
<polygon fill="#9a32cd" stroke="#9a32cd" points="277.224,-201.079 266.889,-203.408 276.421,-208.033 277.224,-201.079"/>
<text text-anchor="middle" x="394" y="-275.129" font-family="Helvetica,sans-Serif" font-size="10.00"> myEditor</text>
</g>
<!-- Node2 -->
<g id="node2" class="node"><title>Node2</title>
<polygon fill="white" stroke="#bfbfbf" points="8,-229.629 8,-248.629 50,-248.629 50,-229.629 8,-229.629"/>
<text text-anchor="middle" x="29" y="-236.629" font-family="Helvetica,sans-Serif" font-size="10.00">HBox</text>
</g>
<!-- Node2&#45;&gt;Node1 -->
<g id="edge1" class="edge"><title>Node2&#45;&gt;Node1</title>
<path fill="none" stroke="midnightblue" d="M60.3742,-233.415C97.7608,-226.382 160.997,-214.486 199.384,-207.265"/>
<polygon fill="midnightblue" stroke="midnightblue" points="59.2876,-230.058 50.107,-235.347 60.5817,-236.937 59.2876,-230.058"/>
</g>
<!-- Node3 -->
<g id="node3" class="node"><title>Node3</title>
<polygon fill="white" stroke="#bfbfbf" points="4.5,-191.629 4.5,-210.629 53.5,-210.629 53.5,-191.629 4.5,-191.629"/>
<text text-anchor="middle" x="29" y="-198.629" font-family="Helvetica,sans-Serif" font-size="10.00">Button</text>
</g>
<!-- Node3&#45;&gt;Node1 -->
<g id="edge2" class="edge"><title>Node3&#45;&gt;Node1</title>
<path fill="none" stroke="#9a32cd" stroke-dasharray="5,2" d="M64.0235,-201.129C101.718,-201.129 162.073,-201.129 199.249,-201.129"/>
<polygon fill="#9a32cd" stroke="#9a32cd" points="63.5673,-197.629 53.5673,-201.129 63.5673,-204.629 63.5673,-197.629"/>
<text text-anchor="middle" x="102" y="-204.129" font-family="Helvetica,sans-Serif" font-size="10.00"> runButton</text>
</g>
<!-- Node4 -->
<g id="node4" class="node"><title>Node4</title>
<g id="a_node4"><a xlink:href="../../dc/df5/classmodel_1_1_parser.html" target="_top" xlink:title="model.Parser">
<polygon fill="white" stroke="black" points="831,-254.629 831,-273.629 911,-273.629 911,-254.629 831,-254.629"/>
<text text-anchor="middle" x="871" y="-261.629" font-family="Helvetica,sans-Serif" font-size="10.00">model.Parser</text>
</a>
</g>
</g>
<!-- Node4&#45;&gt;Node1 -->
<g id="edge3" class="edge"><title>Node4&#45;&gt;Node1</title>
<path fill="none" stroke="#9a32cd" stroke-dasharray="5,2" d="M820.929,-257.574C742.624,-247.302 584.517,-227.327 450,-215.129 385.067,-209.241 308.935,-204.903 266.609,-202.719"/>
<polygon fill="#9a32cd" stroke="#9a32cd" points="820.613,-261.063 830.985,-258.898 821.527,-254.123 820.613,-261.063"/>
<text text-anchor="middle" x="547" y="-237.129" font-family="Helvetica,sans-Serif" font-size="10.00"> myParser</text>
</g>
<!-- Node4&#45;&gt;Node12 -->
<g id="edge31" class="edge"><title>Node4&#45;&gt;Node12</title>
<path fill="none" stroke="#9a32cd" stroke-dasharray="5,2" d="M826.089,-276.397C807.619,-281.331 785.848,-286.852 766,-291.129 712.215,-302.719 696.062,-294.332 644,-312.129 613.463,-322.568 580.888,-341.817 562.623,-353.448"/>
<polygon fill="#9a32cd" stroke="#9a32cd" points="827.235,-279.713 835.978,-273.728 825.411,-272.955 827.235,-279.713"/>
<text text-anchor="middle" x="705" y="-315.129" font-family="Helvetica,sans-Serif" font-size="10.00"> myParser</text>
</g>
<!-- Node18 -->
<g id="node18" class="node"><title>Node18</title>
<g id="a_node18"><a xlink:href="../../d1/dc7/classview_1_1_side_bar.html" target="_top" xlink:title="view.SideBar">
<polygon fill="white" stroke="black" points="1125.5,-258.629 1125.5,-277.629 1202.5,-277.629 1202.5,-258.629 1125.5,-258.629"/>
<text text-anchor="middle" x="1164" y="-265.629" font-family="Helvetica,sans-Serif" font-size="10.00">view.SideBar</text>
</a>
</g>
</g>
<!-- Node4&#45;&gt;Node18 -->
<g id="edge24" class="edge"><title>Node4&#45;&gt;Node18</title>
<path fill="none" stroke="#9a32cd" stroke-dasharray="5,2" d="M921.577,-264.811C979.266,-265.603 1073.24,-266.895 1125.3,-267.611"/>
<polygon fill="#9a32cd" stroke="#9a32cd" points="921.293,-261.306 911.246,-264.668 921.196,-268.306 921.293,-261.306"/>
<text text-anchor="middle" x="1027" y="-270.129" font-family="Helvetica,sans-Serif" font-size="10.00"> myParser</text>
</g>
<!-- Node5 -->
<g id="node5" class="node"><title>Node5</title>
<polygon fill="white" stroke="#bfbfbf" points="203,-257.629 203,-276.629 263,-276.629 263,-257.629 203,-257.629"/>
<text text-anchor="middle" x="233" y="-264.629" font-family="Helvetica,sans-Serif" font-size="10.00">Observer</text>
</g>
<!-- Node5&#45;&gt;Node4 -->
<g id="edge4" class="edge"><title>Node5&#45;&gt;Node4</title>
<path fill="none" stroke="midnightblue" d="M273.441,-266.943C387.516,-266.405 716.921,-264.851 830.752,-264.314"/>
<polygon fill="midnightblue" stroke="midnightblue" points="273.383,-263.443 263.4,-266.99 273.416,-270.443 273.383,-263.443"/>
</g>
<!-- Node5&#45;&gt;Node12 -->
<g id="edge12" class="edge"><title>Node5&#45;&gt;Node12</title>
<path fill="none" stroke="midnightblue" d="M273.187,-273.526C317.031,-281.294 389.805,-296.028 450,-317.129 478.603,-327.156 509.957,-343.214 528.798,-353.461"/>
<polygon fill="midnightblue" stroke="midnightblue" points="273.674,-270.058 263.222,-271.792 272.474,-276.954 273.674,-270.058"/>
</g>
<!-- Node6 -->
<g id="node6" class="node"><title>Node6</title>
<polygon fill="white" stroke="#bfbfbf" points="491,-154.129 491,-184.129 603,-184.129 603,-154.129 491,-154.129"/>
<text text-anchor="start" x="499" y="-172.129" font-family="Helvetica,sans-Serif" font-size="10.00">List&lt; Entry&lt; String,</text>
<text text-anchor="middle" x="547" y="-161.129" font-family="Helvetica,sans-Serif" font-size="10.00"> Pattern &gt; &gt;</text>
</g>
<!-- Node6&#45;&gt;Node4 -->
<g id="edge5" class="edge"><title>Node6&#45;&gt;Node4</title>
<path fill="none" stroke="#9a32cd" stroke-dasharray="5,2" d="M613.21,-160.685C660.364,-158.196 723.073,-162.778 766,-196.129 783.336,-209.598 767.555,-227.585 784,-242.129 796.814,-253.462 814.684,-259.103 830.817,-261.858"/>
<polygon fill="#9a32cd" stroke="#9a32cd" points="612.849,-157.201 603.096,-161.339 613.301,-164.187 612.849,-157.201"/>
<text text-anchor="middle" x="705" y="-199.129" font-family="Helvetica,sans-Serif" font-size="10.00"> myPatterns</text>
</g>
<!-- Node7 -->
<g id="node7" class="node"><title>Node7</title>
<g id="a_node7"><a xlink:href="../../d1/dca/classmodel_1_1_execution_environment.html" target="_top" xlink:title="model.ExecutionEnvironment">
<polygon fill="white" stroke="black" points="468.5,-51.629 468.5,-70.629 625.5,-70.629 625.5,-51.629 468.5,-51.629"/>
<text text-anchor="middle" x="547" y="-58.629" font-family="Helvetica,sans-Serif" font-size="10.00">model.ExecutionEnvironment</text>
</a>
</g>
</g>
<!-- Node7&#45;&gt;Node4 -->
<g id="edge6" class="edge"><title>Node7&#45;&gt;Node4</title>
<path fill="none" stroke="#9a32cd" stroke-dasharray="5,2" d="M621.9,-72.2271C683.118,-81.7523 760.904,-94.7664 766,-100.129 809.823,-146.243 741.899,-194.437 784,-242.129 795.627,-255.3 813.953,-261.103 830.706,-263.489"/>
<polygon fill="#9a32cd" stroke="#9a32cd" points="622.264,-68.7417 611.846,-70.6706 621.193,-75.6593 622.264,-68.7417"/>
<text text-anchor="middle" x="705" y="-103.129" font-family="Helvetica,sans-Serif" font-size="10.00"> myExecutionParameters</text>
</g>
<!-- Node7&#45;&gt;Node18 -->
<g id="edge22" class="edge"><title>Node7&#45;&gt;Node18</title>
<path fill="none" stroke="#9a32cd" stroke-dasharray="5,2" d="M583.397,-48.2907C678.213,-16.4236 940.06,54.6066 1078,-77.129 1105.79,-103.672 1071.26,-219.72 1096,-249.129 1103.32,-257.826 1114.29,-262.698 1125.26,-265.381"/>
<polygon fill="#9a32cd" stroke="#9a32cd" points="582.039,-45.0561 573.712,-51.6065 584.307,-51.6787 582.039,-45.0561"/>
<text text-anchor="middle" x="871" y="-16.129" font-family="Helvetica,sans-Serif" font-size="10.00"> myEnvironment</text>
</g>
<!-- Node8 -->
<g id="node8" class="node"><title>Node8</title>
<polygon fill="white" stroke="#bfbfbf" points="197.5,-12.629 197.5,-31.629 268.5,-31.629 268.5,-12.629 197.5,-12.629"/>
<text text-anchor="middle" x="233" y="-19.629" font-family="Helvetica,sans-Serif" font-size="10.00">Observable</text>
</g>
<!-- Node8&#45;&gt;Node7 -->
<g id="edge7" class="edge"><title>Node8&#45;&gt;Node7</title>
<path fill="none" stroke="midnightblue" d="M278.707,-27.7175C328.493,-33.9407 409.831,-44.1079 469.726,-51.5948"/>
<polygon fill="midnightblue" stroke="midnightblue" points="278.938,-24.2192 268.582,-26.4517 278.07,-31.1651 278.938,-24.2192"/>
</g>
<!-- Node9 -->
<g id="node9" class="node"><title>Node9</title>
<polygon fill="white" stroke="#bfbfbf" points="146,-89.129 146,-119.129 320,-119.129 320,-89.129 146,-89.129"/>
<text text-anchor="start" x="154" y="-107.129" font-family="Helvetica,sans-Serif" font-size="10.00">Map&lt; String, model.instructions.</text>
<text text-anchor="middle" x="233" y="-96.129" font-family="Helvetica,sans-Serif" font-size="10.00">Instruction &gt;</text>
</g>
<!-- Node9&#45;&gt;Node7 -->
<g id="edge8" class="edge"><title>Node9&#45;&gt;Node7</title>
<path fill="none" stroke="#9a32cd" stroke-dasharray="5,2" d="M330.627,-92.1499C367.954,-87.3793 410.993,-81.7037 450,-76.129 461.856,-74.4346 474.521,-72.5262 486.632,-70.6529"/>
<polygon fill="#9a32cd" stroke="#9a32cd" points="329.736,-88.7351 320.258,-93.4707 330.621,-95.6789 329.736,-88.7351"/>
<text text-anchor="middle" x="394" y="-95.129" font-family="Helvetica,sans-Serif" font-size="10.00"> myUserInstructionMap</text>
</g>
<!-- Node10 -->
<g id="node10" class="node"><title>Node10</title>
<polygon fill="white" stroke="#bfbfbf" points="169,-50.629 169,-69.629 297,-69.629 297,-50.629 169,-50.629"/>
<text text-anchor="middle" x="233" y="-57.629" font-family="Helvetica,sans-Serif" font-size="10.00">Map&lt; String, Double &gt;</text>
</g>
<!-- Node10&#45;&gt;Node7 -->
<g id="edge9" class="edge"><title>Node10&#45;&gt;Node7</title>
<path fill="none" stroke="#9a32cd" stroke-dasharray="5,2" d="M307.23,-60.3637C355.637,-60.5189 419.011,-60.722 468.303,-60.88"/>
<polygon fill="#9a32cd" stroke="#9a32cd" points="307.149,-56.8636 297.138,-60.3314 307.127,-63.8635 307.149,-56.8636"/>
<text text-anchor="middle" x="394" y="-64.129" font-family="Helvetica,sans-Serif" font-size="10.00"> myVariableMap</text>
</g>
<!-- Node11 -->
<g id="node11" class="node"><title>Node11</title>
<polygon fill="white" stroke="#bfbfbf" points="486,-288.629 486,-307.629 608,-307.629 608,-288.629 486,-288.629"/>
<text text-anchor="middle" x="547" y="-295.629" font-family="Helvetica,sans-Serif" font-size="10.00">Map&lt; String, String &gt;</text>
</g>
<!-- Node11&#45;&gt;Node4 -->
<g id="edge10" class="edge"><title>Node11&#45;&gt;Node4</title>
<path fill="none" stroke="#9a32cd" stroke-dasharray="5,2" d="M603.217,-286.656C616.525,-284.202 630.732,-281.837 644,-280.129 709.151,-271.743 785.475,-267.489 830.67,-265.545"/>
<polygon fill="#9a32cd" stroke="#9a32cd" points="602.422,-283.244 593.246,-288.541 603.722,-290.122 602.422,-283.244"/>
<text text-anchor="middle" x="705" y="-283.129" font-family="Helvetica,sans-Serif" font-size="10.00"> myCommandMap</text>
</g>
<!-- Node12&#45;&gt;Node4 -->
<g id="edge11" class="edge"><title>Node12&#45;&gt;Node4</title>
<path fill="none" stroke="#9a32cd" stroke-dasharray="5,2" d="M602.664,-354.701C664.972,-344.93 759.15,-329.594 766,-325.129 778.082,-317.253 772.782,-307.194 784,-298.129 797.861,-286.928 815.87,-279.048 831.825,-273.716"/>
<polygon fill="#9a32cd" stroke="#9a32cd" points="601.914,-351.276 592.574,-356.278 602.995,-358.192 601.914,-351.276"/>
<text text-anchor="middle" x="705" y="-351.129" font-family="Helvetica,sans-Serif" font-size="10.00"> mySLogoView</text>
</g>
<!-- Node13 -->
<g id="node13" class="node"><title>Node13</title>
<g id="a_node13"><a xlink:href="../../da/d64/classview_1_1_workspace.html" target="_top" xlink:title="view.Workspace">
<polygon fill="white" stroke="black" points="1344,-388.629 1344,-407.629 1434,-407.629 1434,-388.629 1344,-388.629"/>
<text text-anchor="middle" x="1389" y="-395.629" font-family="Helvetica,sans-Serif" font-size="10.00">view.Workspace</text>
</a>
</g>
</g>
<!-- Node13&#45;&gt;Node12 -->
<g id="edge13" class="edge"><title>Node13&#45;&gt;Node12</title>
<path fill="none" stroke="#9a32cd" stroke-dasharray="5,2" d="M1333.47,-400.751C1210.13,-405.886 900.511,-414.301 644,-384.129 623.837,-381.757 601.675,-377.053 583.73,-372.697"/>
<polygon fill="#9a32cd" stroke="#9a32cd" points="1333.93,-404.235 1343.77,-400.312 1333.63,-397.241 1333.93,-404.235"/>
<text text-anchor="middle" x="1027" y="-409.129" font-family="Helvetica,sans-Serif" font-size="10.00"> myWorkspace</text>
</g>
<!-- Node28 -->
<g id="node28" class="node"><title>Node28</title>
<g id="a_node28"><a xlink:href="../../de/d0a/classview_1_1_drawer.html" target="_top" xlink:title="view.Drawer">
<polygon fill="white" stroke="black" points="1540.5,-388.629 1540.5,-407.629 1613.5,-407.629 1613.5,-388.629 1540.5,-388.629"/>
<text text-anchor="middle" x="1577" y="-395.629" font-family="Helvetica,sans-Serif" font-size="10.00">view.Drawer</text>
</a>
</g>
</g>
<!-- Node13&#45;&gt;Node28 -->
<g id="edge34" class="edge"><title>Node13&#45;&gt;Node28</title>
<path fill="none" stroke="#9a32cd" stroke-dasharray="5,2" d="M1444.28,-398.129C1475.23,-398.129 1513.14,-398.129 1540.33,-398.129"/>
<polygon fill="#9a32cd" stroke="#9a32cd" points="1444.08,-394.629 1434.08,-398.129 1444.08,-401.629 1444.08,-394.629"/>
<text text-anchor="middle" x="1487" y="-401.129" font-family="Helvetica,sans-Serif" font-size="10.00"> myWorkspace</text>
</g>
<!-- Node14 -->
<g id="node14" class="node"><title>Node14</title>
<polygon fill="white" stroke="#bfbfbf" points="1130.5,-426.629 1130.5,-445.629 1197.5,-445.629 1197.5,-426.629 1130.5,-426.629"/>
<text text-anchor="middle" x="1164" y="-433.629" font-family="Helvetica,sans-Serif" font-size="10.00">StackPane</text>
</g>
<!-- Node14&#45;&gt;Node13 -->
<g id="edge14" class="edge"><title>Node14&#45;&gt;Node13</title>
<path fill="none" stroke="midnightblue" d="M1207.87,-430.618C1240.39,-426.225 1286.15,-419.588 1326,-412.129 1333.05,-410.809 1340.52,-409.257 1347.74,-407.676"/>
<polygon fill="midnightblue" stroke="midnightblue" points="1207.25,-427.17 1197.8,-431.964 1208.18,-434.108 1207.25,-427.17"/>
</g>
<!-- Node15 -->
<g id="node15" class="node"><title>Node15</title>
<g id="a_node15"><a xlink:href="../../d8/df7/classview_1_1_turtle_view.html" target="_top" xlink:title="view.TurtleView">
<polygon fill="white" stroke="black" points="1121,-464.629 1121,-483.629 1207,-483.629 1207,-464.629 1121,-464.629"/>
<text text-anchor="middle" x="1164" y="-471.629" font-family="Helvetica,sans-Serif" font-size="10.00">view.TurtleView</text>
</a>
</g>
</g>
<!-- Node15&#45;&gt;Node13 -->
<g id="edge15" class="edge"><title>Node15&#45;&gt;Node13</title>
<path fill="none" stroke="#9a32cd" stroke-dasharray="5,2" d="M1217.38,-464.461C1249.41,-457.654 1290.86,-447.233 1326,-433.129 1342.98,-426.316 1361.05,-415.682 1373.27,-407.923"/>
<polygon fill="#9a32cd" stroke="#9a32cd" points="1216.41,-461.087 1207.32,-466.543 1217.83,-467.941 1216.41,-461.087"/>
<text text-anchor="middle" x="1288" y="-460.129" font-family="Helvetica,sans-Serif" font-size="10.00"> myActiveTurtle</text>
</g>
<!-- Node16 -->
<g id="node16" class="node"><title>Node16</title>
<polygon fill="white" stroke="#bfbfbf" points="837,-472.629 837,-491.629 905,-491.629 905,-472.629 837,-472.629"/>
<text text-anchor="middle" x="871" y="-479.629" font-family="Helvetica,sans-Serif" font-size="10.00">ImageView</text>
</g>
<!-- Node16&#45;&gt;Node15 -->
<g id="edge16" class="edge"><title>Node16&#45;&gt;Node15</title>
<path fill="none" stroke="midnightblue" d="M915.27,-480.939C970.553,-479.42 1065.64,-476.806 1120.53,-475.297"/>
<polygon fill="midnightblue" stroke="midnightblue" points="914.998,-477.446 905.098,-481.219 915.191,-484.443 914.998,-477.446"/>
</g>
<!-- Node17 -->
<g id="node17" class="node"><title>Node17</title>
<polygon fill="white" stroke="#bfbfbf" points="1096,-339.129 1096,-369.129 1232,-369.129 1232,-339.129 1096,-339.129"/>
<text text-anchor="start" x="1104" y="-357.129" font-family="Helvetica,sans-Serif" font-size="10.00">Map&lt; Integer, view.Turtle</text>
<text text-anchor="middle" x="1164" y="-346.129" font-family="Helvetica,sans-Serif" font-size="10.00">View &gt;</text>
</g>
<!-- Node17&#45;&gt;Node13 -->
<g id="edge17" class="edge"><title>Node17&#45;&gt;Node13</title>
<path fill="none" stroke="#9a32cd" stroke-dasharray="5,2" d="M1242.4,-359.061C1269.16,-361.871 1299.16,-366.265 1326,-373.129 1333.87,-375.142 1351.68,-382.43 1366.19,-388.622"/>
<polygon fill="#9a32cd" stroke="#9a32cd" points="1242.61,-355.565 1232.31,-358.061 1241.92,-362.531 1242.61,-355.565"/>
<text text-anchor="middle" x="1288" y="-376.129" font-family="Helvetica,sans-Serif" font-size="10.00"> myTurtles</text>
</g>
<!-- Node18&#45;&gt;Node1 -->
<g id="edge39" class="edge"><title>Node18&#45;&gt;Node1</title>
<path fill="none" stroke="#9a32cd" stroke-dasharray="5,2" d="M1115.74,-259.432C1108.72,-256.843 1101.88,-253.485 1096,-249.129 1084.12,-240.319 1090.15,-229.566 1078,-221.129 968.154,-144.861 908.116,-206.911 784,-157.129 775.298,-153.639 775.007,-148.733 766,-146.129 706.219,-128.847 688.227,-144.573 626,-144.129 555.78,-143.627 537.722,-135.76 468,-144.129 393.066,-153.124 307.471,-177.771 263.501,-191.527"/>
<polygon fill="#9a32cd" stroke="#9a32cd" points="1114.76,-262.794 1125.35,-262.507 1116.89,-256.127 1114.76,-262.794"/>
<text text-anchor="middle" x="705" y="-149.129" font-family="Helvetica,sans-Serif" font-size="10.00"> mySidebar</text>
</g>
<!-- Node18&#45;&gt;Node12 -->
<g id="edge36" class="edge"><title>Node18&#45;&gt;Node12</title>
<path fill="none" stroke="#9a32cd" stroke-dasharray="5,2" d="M1115.37,-276.015C1103.19,-278.021 1090.11,-280.164 1078,-282.129 947.383,-303.326 893.626,-255.02 784,-329.129 771.118,-337.837 779.46,-351.344 766,-359.129 709.64,-391.726 630.605,-382.327 584.806,-372.648"/>
<polygon fill="#9a32cd" stroke="#9a32cd" points="1116.05,-279.45 1125.35,-274.37 1114.91,-272.543 1116.05,-279.45"/>
<text text-anchor="middle" x="871" y="-332.129" font-family="Helvetica,sans-Serif" font-size="10.00"> mySidebar</text>
</g>
<!-- Node18&#45;&gt;Node13 -->
<g id="edge18" class="edge"><title>Node18&#45;&gt;Node13</title>
<path fill="none" stroke="#9a32cd" stroke-dasharray="5,2" d="M1209.39,-280.814C1244.53,-292.705 1293.01,-313.453 1326,-345.129 1338.33,-356.97 1331.44,-367.527 1344,-379.129 1348.03,-382.855 1352.91,-385.923 1357.93,-388.424"/>
<polygon fill="#9a32cd" stroke="#9a32cd" points="1210.46,-277.479 1199.86,-277.694 1208.28,-284.132 1210.46,-277.479"/>
<text text-anchor="middle" x="1288" y="-348.129" font-family="Helvetica,sans-Serif" font-size="10.00"> mySidebar</text>
</g>
<!-- Node19 -->
<g id="node19" class="node"><title>Node19</title>
<polygon fill="white" stroke="#bfbfbf" points="850.5,-128.629 850.5,-147.629 891.5,-147.629 891.5,-128.629 850.5,-128.629"/>
<text text-anchor="middle" x="871" y="-135.629" font-family="Helvetica,sans-Serif" font-size="10.00">VBox</text>
</g>
<!-- Node19&#45;&gt;Node18 -->
<g id="edge19" class="edge"><title>Node19&#45;&gt;Node18</title>
<path fill="none" stroke="midnightblue" d="M901.633,-131.882C946.017,-124.409 1029.69,-117.896 1078,-162.129 1107.12,-188.794 1069.11,-220.218 1096,-249.129 1103.66,-257.362 1114.59,-262.121 1125.42,-264.843"/>
<polygon fill="midnightblue" stroke="midnightblue" points="900.97,-128.445 891.755,-133.673 902.219,-135.333 900.97,-128.445"/>
</g>
<!-- Node20 -->
<g id="node20" class="node"><title>Node20</title>
<polygon fill="white" stroke="#bfbfbf" points="784.5,-90.629 784.5,-109.629 957.5,-109.629 957.5,-90.629 784.5,-90.629"/>
<text text-anchor="middle" x="871" y="-97.629" font-family="Helvetica,sans-Serif" font-size="10.00">ObservableList&lt; view.Property &gt;</text>
</g>
<!-- Node20&#45;&gt;Node18 -->
<g id="edge20" class="edge"><title>Node20&#45;&gt;Node18</title>
<path fill="none" stroke="#9a32cd" stroke-dasharray="5,2" d="M914.867,-88.4053C961.327,-78.5541 1034.62,-71.7835 1078,-112.129 1122.97,-153.953 1055.85,-202.659 1096,-249.129 1103.43,-257.729 1114.44,-262.575 1125.39,-265.265"/>
<polygon fill="#9a32cd" stroke="#9a32cd" points="914.082,-84.9942 905.096,-90.6061 915.62,-91.8232 914.082,-84.9942"/>
<text text-anchor="middle" x="1027" y="-115.129" font-family="Helvetica,sans-Serif" font-size="10.00"> variablesList</text>
</g>
<!-- Node21 -->
<g id="node21" class="node"><title>Node21</title>
<polygon fill="white" stroke="#bfbfbf" points="186.5,-464.629 186.5,-483.629 279.5,-483.629 279.5,-464.629 186.5,-464.629"/>
<text text-anchor="middle" x="233" y="-471.629" font-family="Helvetica,sans-Serif" font-size="10.00">ResourceBundle</text>
</g>
<!-- Node21&#45;&gt;Node12 -->
<g id="edge28" class="edge"><title>Node21&#45;&gt;Node12</title>
<path fill="none" stroke="#9a32cd" stroke-dasharray="5,2" d="M289.515,-464.32C348.539,-453.693 435.392,-437.416 450,-431.129 484.52,-416.273 519.011,-387.644 535.682,-372.715"/>
<polygon fill="#9a32cd" stroke="#9a32cd" points="288.795,-460.893 279.57,-466.104 290.031,-467.783 288.795,-460.893"/>
<text text-anchor="middle" x="394" y="-458.129" font-family="Helvetica,sans-Serif" font-size="10.00"> myResources</text>
</g>
<!-- Node21&#45;&gt;Node18 -->
<g id="edge21" class="edge"><title>Node21&#45;&gt;Node18</title>
<path fill="none" stroke="#9a32cd" stroke-dasharray="5,2" d="M289.862,-472.497C473.494,-466.888 1048.48,-447.299 1078,-421.129 1109.18,-393.489 1075.56,-365.436 1096,-329.129 1108.5,-306.922 1132.01,-288.393 1147.59,-277.78"/>
<polygon fill="#9a32cd" stroke="#9a32cd" points="289.506,-469.006 279.617,-472.807 289.719,-476.002 289.506,-469.006"/>
<text text-anchor="middle" x="705" y="-462.129" font-family="Helvetica,sans-Serif" font-size="10.00"> myResources</text>
</g>
<!-- Node22 -->
<g id="node22" class="node"><title>Node22</title>
<polygon fill="white" stroke="#bfbfbf" points="797,-349.629 797,-368.629 945,-368.629 945,-349.629 797,-349.629"/>
<text text-anchor="middle" x="871" y="-356.629" font-family="Helvetica,sans-Serif" font-size="10.00">TableView&lt; view.Property &gt;</text>
</g>
<!-- Node22&#45;&gt;Node18 -->
<g id="edge23" class="edge"><title>Node22&#45;&gt;Node18</title>
<path fill="none" stroke="#9a32cd" stroke-dasharray="5,2" d="M955.329,-352.034C1002.38,-347.202 1056.04,-340.064 1078,-331.129 1108.96,-318.529 1138.86,-292.002 1153.56,-277.719"/>
<polygon fill="#9a32cd" stroke="#9a32cd" points="954.695,-348.58 945.094,-353.061 955.394,-355.545 954.695,-348.58"/>
<text text-anchor="middle" x="1027" y="-364.129" font-family="Helvetica,sans-Serif" font-size="10.00"> turtlePropertiesTable</text>
<text text-anchor="middle" x="1027" y="-353.129" font-family="Helvetica,sans-Serif" font-size="10.00">variablesTable</text>
</g>
<!-- Node23 -->
<g id="node23" class="node"><title>Node23</title>
<polygon fill="white" stroke="#bfbfbf" points="802,-213.629 802,-232.629 940,-232.629 940,-213.629 802,-213.629"/>
<text text-anchor="middle" x="871" y="-220.629" font-family="Helvetica,sans-Serif" font-size="10.00">ObservableList&lt; String &gt;</text>
</g>
<!-- Node23&#45;&gt;Node18 -->
<g id="edge25" class="edge"><title>Node23&#45;&gt;Node18</title>
<path fill="none" stroke="#9a32cd" stroke-dasharray="5,2" d="M950.635,-222.637C989.572,-224.142 1036.92,-228.627 1078,-240.129 1086.61,-242.541 1087.66,-245.895 1096,-249.129 1105.36,-252.758 1115.69,-256.031 1125.38,-258.797"/>
<polygon fill="#9a32cd" stroke="#9a32cd" points="950.518,-219.131 940.408,-222.302 950.288,-226.127 950.518,-219.131"/>
<text text-anchor="middle" x="1027" y="-254.129" font-family="Helvetica,sans-Serif" font-size="10.00"> commandItems</text>
<text text-anchor="middle" x="1027" y="-243.129" font-family="Helvetica,sans-Serif" font-size="10.00">historyItems</text>
</g>
<!-- Node24 -->
<g id="node24" class="node"><title>Node24</title>
<polygon fill="white" stroke="#bfbfbf" points="1132.5,-220.629 1132.5,-239.629 1195.5,-239.629 1195.5,-220.629 1132.5,-220.629"/>
<text text-anchor="middle" x="1164" y="-227.629" font-family="Helvetica,sans-Serif" font-size="10.00">Rectangle</text>
</g>
<!-- Node24&#45;&gt;Node13 -->
<g id="edge26" class="edge"><title>Node24&#45;&gt;Node13</title>
<path fill="none" stroke="#9a32cd" stroke-dasharray="5,2" d="M1205.68,-232.038C1242.78,-236.076 1296.21,-248.085 1326,-283.129 1354.12,-316.204 1316.9,-345.218 1344,-379.129 1347.01,-382.899 1350.92,-385.936 1355.16,-388.379"/>
<polygon fill="#9a32cd" stroke="#9a32cd" points="1205.97,-228.549 1195.68,-231.098 1205.31,-235.519 1205.97,-228.549"/>
<text text-anchor="middle" x="1288" y="-286.129" font-family="Helvetica,sans-Serif" font-size="10.00"> myBackground</text>
</g>
<!-- Node25 -->
<g id="node25" class="node"><title>Node25</title>
<polygon fill="white" stroke="#bfbfbf" points="210.5,-379.629 210.5,-398.629 255.5,-398.629 255.5,-379.629 210.5,-379.629"/>
<text text-anchor="middle" x="233" y="-386.629" font-family="Helvetica,sans-Serif" font-size="10.00">Stage</text>
</g>
<!-- Node25&#45;&gt;Node12 -->
<g id="edge27" class="edge"><title>Node25&#45;&gt;Node12</title>
<path fill="none" stroke="#9a32cd" stroke-dasharray="5,2" d="M265.977,-386.464C321.9,-381.804 437.57,-372.165 501.356,-366.849"/>
<polygon fill="#9a32cd" stroke="#9a32cd" points="265.614,-382.982 255.939,-387.301 266.195,-389.958 265.614,-382.982"/>
<text text-anchor="middle" x="394" y="-383.129" font-family="Helvetica,sans-Serif" font-size="10.00"> myStage</text>
</g>
<!-- Node26 -->
<g id="node26" class="node"><title>Node26</title>
<polygon fill="white" stroke="#bfbfbf" points="173.5,-341.629 173.5,-360.629 292.5,-360.629 292.5,-341.629 173.5,-341.629"/>
<text text-anchor="middle" x="233" y="-348.629" font-family="Helvetica,sans-Serif" font-size="10.00">Map&lt; String, Node &gt;</text>
</g>
<!-- Node26&#45;&gt;Node12 -->
<g id="edge30" class="edge"><title>Node26&#45;&gt;Node12</title>
<path fill="none" stroke="#9a32cd" stroke-dasharray="5,2" d="M302.936,-350.69C345.375,-350.767 400.872,-351.489 450,-354.129 466.716,-355.027 485.021,-356.597 501.123,-358.177"/>
<polygon fill="#9a32cd" stroke="#9a32cd" points="302.718,-347.19 292.716,-350.684 302.713,-354.19 302.718,-347.19"/>
<text text-anchor="middle" x="394" y="-357.129" font-family="Helvetica,sans-Serif" font-size="10.00"> variables</text>
</g>
<!-- Node27 -->
<g id="node27" class="node"><title>Node27</title>
<polygon fill="white" stroke="#bfbfbf" points="192.5,-303.629 192.5,-322.629 273.5,-322.629 273.5,-303.629 192.5,-303.629"/>
<text text-anchor="middle" x="233" y="-310.629" font-family="Helvetica,sans-Serif" font-size="10.00">Dimension2D</text>
</g>
<!-- Node27&#45;&gt;Node12 -->
<g id="edge32" class="edge"><title>Node27&#45;&gt;Node12</title>
<path fill="none" stroke="#9a32cd" stroke-dasharray="5,2" d="M283.859,-316.051C327.865,-319.196 393.603,-325.275 450,-336.129 472.782,-340.513 498.017,-347.705 516.895,-353.565"/>
<polygon fill="#9a32cd" stroke="#9a32cd" points="283.927,-312.547 273.71,-315.35 283.445,-319.531 283.927,-312.547"/>
<text text-anchor="middle" x="394" y="-339.129" font-family="Helvetica,sans-Serif" font-size="10.00"> myDimensions</text>
</g>
<!-- Node28&#45;&gt;Node12 -->
<g id="edge33" class="edge"><title>Node28&#45;&gt;Node12</title>
<path fill="none" stroke="#9a32cd" stroke-dasharray="5,2" d="M1562.01,-415.812C1533.53,-449.626 1465.15,-520.129 1390,-520.129 1026,-520.129 1026,-520.129 1026,-520.129 918.113,-520.129 872.53,-562.79 784,-501.129 768.335,-490.218 779.54,-475.587 766,-462.129 758.482,-454.657 624.514,-396.228 570.399,-372.799"/>
<polygon fill="#9a32cd" stroke="#9a32cd" points="1565.02,-417.653 1568.66,-407.702 1559.61,-413.213 1565.02,-417.653"/>
<text text-anchor="middle" x="1164" y="-523.129" font-family="Helvetica,sans-Serif" font-size="10.00"> drawer</text>
</g>
<!-- Node29 -->
<g id="node29" class="node"><title>Node29</title>
<polygon fill="white" stroke="#bfbfbf" points="1368.5,-350.629 1368.5,-369.629 1409.5,-369.629 1409.5,-350.629 1368.5,-350.629"/>
<text text-anchor="middle" x="1389" y="-357.629" font-family="Helvetica,sans-Serif" font-size="10.00">Color</text>
</g>
<!-- Node29&#45;&gt;Node28 -->
<g id="edge35" class="edge"><title>Node29&#45;&gt;Node28</title>
<path fill="none" stroke="#9a32cd" stroke-dasharray="5,2" d="M1419.73,-364.453C1446.59,-368.562 1487.14,-375.271 1522,-383.129 1529.02,-384.712 1536.5,-386.634 1543.58,-388.565"/>
<polygon fill="#9a32cd" stroke="#9a32cd" points="1420.21,-360.986 1409.8,-362.957 1419.17,-367.908 1420.21,-360.986"/>
<text text-anchor="middle" x="1487" y="-386.129" font-family="Helvetica,sans-Serif" font-size="10.00"> myColor</text>
</g>
<!-- Node30 -->
<g id="node30" class="node"><title>Node30</title>
<polygon fill="white" stroke="#bfbfbf" points="210,-417.629 210,-436.629 256,-436.629 256,-417.629 210,-417.629"/>
<text text-anchor="middle" x="233" y="-424.629" font-family="Helvetica,sans-Serif" font-size="10.00">Group</text>
</g>
<!-- Node30&#45;&gt;Node12 -->
<g id="edge37" class="edge"><title>Node30&#45;&gt;Node12</title>
<path fill="none" stroke="#9a32cd" stroke-dasharray="5,2" d="M266.031,-424.151C308.499,-419.801 385.585,-410.512 450,-395.129 474.606,-389.253 501.906,-379.862 521.083,-372.77"/>
<polygon fill="#9a32cd" stroke="#9a32cd" points="265.612,-420.675 256.009,-425.151 266.307,-427.641 265.612,-420.675"/>
<text text-anchor="middle" x="394" y="-419.129" font-family="Helvetica,sans-Serif" font-size="10.00"> lines</text>
</g>
<!-- Node31 -->
<g id="node31" class="node"><title>Node31</title>
<polygon fill="white" stroke="#bfbfbf" points="0,-153.629 0,-172.629 58,-172.629 58,-153.629 0,-153.629"/>
<text text-anchor="middle" x="29" y="-160.629" font-family="Helvetica,sans-Serif" font-size="10.00">TextArea</text>
</g>
<!-- Node31&#45;&gt;Node1 -->
<g id="edge38" class="edge"><title>Node31&#45;&gt;Node1</title>
<path fill="none" stroke="#9a32cd" stroke-dasharray="5,2" d="M68.2332,-170.321C106.167,-177.457 163.67,-188.275 199.475,-195.01"/>
<polygon fill="#9a32cd" stroke="#9a32cd" points="68.5619,-166.822 58.0872,-168.413 67.2678,-173.701 68.5619,-166.822"/>
<text text-anchor="middle" x="102" y="-184.129" font-family="Helvetica,sans-Serif" font-size="10.00"> textEditor</text>
</g>
</g>
</svg>
        <g id="navigator" transform="translate(0 0)" fill="#404254">
                <rect fill="#f2f5e9" fill-opacity="0.5" stroke="#606060" stroke-width=".5" x="0" y="0" width="60" height="60"/>
                <use id="zoomplus" xlink:href="#zoomPlus" x="17" y="9" onmousedown="handleZoom(evt,'in')"/>
                <use id="zoomminus" xlink:href="#zoomMin" x="42" y="9" onmousedown="handleZoom(evt,'out')"/>
                <use id="reset" xlink:href="#resetDef" x="30" y="36" onmousedown="handleReset()"/>
                <g id="arrowUp" xlink:href="#dirArrow" transform="translate(30 24)" onmousedown="handlePan(0,-1)">
                  <use xlink:href="#rim" fill="#404040">
                        <set attributeName="fill" to="#808080" begin="arrowUp.mouseover" end="arrowUp.mouseout"/>
                  </use>
                  <path fill="none" stroke="white" stroke-width="1.5" d="M0,-3.0v7 M-2.5,-0.5L0,-3.0L2.5,-0.5"/>
                </g>
                <g id="arrowRight" xlink:href="#dirArrow" transform="rotate(90) translate(36 -43)" onmousedown="handlePan(1,0)">
                  <use xlink:href="#rim" fill="#404040">
                        <set attributeName="fill" to="#808080" begin="arrowRight.mouseover" end="arrowRight.mouseout"/>
                  </use>
                  <path fill="none" stroke="white" stroke-width="1.5" d="M0,-3.0v7 M-2.5,-0.5L0,-3.0L2.5,-0.5"/>
                </g>
                <g id="arrowDown" xlink:href="#dirArrow" transform="rotate(180) translate(-30 -48)" onmousedown="handlePan(0,1)">
                  <use xlink:href="#rim" fill="#404040">
                        <set attributeName="fill" to="#808080" begin="arrowDown.mouseover" end="arrowDown.mouseout"/>
                  </use>
                  <path fill="none" stroke="white" stroke-width="1.5" d="M0,-3.0v7 M-2.5,-0.5L0,-3.0L2.5,-0.5"/>
                </g>
                <g id="arrowLeft" xlink:href="#dirArrow" transform="rotate(270) translate(-36 17)" onmousedown="handlePan(-1,0)">
                  <use xlink:href="#rim" fill="#404040">
                        <set attributeName="fill" to="#808080" begin="arrowLeft.mouseover" end="arrowLeft.mouseout"/>
                  </use>
                  <path fill="none" stroke="white" stroke-width="1.5" d="M0,-3.0v7 M-2.5,-0.5L0,-3.0L2.5,-0.5"/>
                </g>
        </g>
        <svg viewBox="0 0 15 15" width="100%" height="30px" preserveAspectRatio="xMaxYMin meet">
         <g id="arrow_out" transform="scale(0.3 0.3)">
          <a xlink:href="classview_1_1_editor__coll__graph_org.svg" target="_base">
           <rect id="button" ry="5" rx="5" y="6" x="6" height="38" width="38"
                fill="#f2f5e9" fill-opacity="0.5" stroke="#606060" stroke-width="1.0"/>
           <path id="arrow"
             d="M 11.500037,31.436501 C 11.940474,20.09759 22.043105,11.32322 32.158766,21.979434 L 37.068811,17.246167 C 37.068811,17.246167 37.088388,32 37.088388,32 L 22.160133,31.978069 C 22.160133,31.978069 26.997745,27.140456 26.997745,27.140456 C 18.528582,18.264221 13.291696,25.230495 11.500037,31.436501 z"
             style="fill:#404040;"/>
          </a>
         </g>
        </svg>
</svg>
