<?xml version="1.0" encoding="UTF-8" standalone="no"?>
<!DOCTYPE svg PUBLIC "-//W3C//DTD SVG 1.1//EN"
 "http://www.w3.org/Graphics/SVG/1.1/DTD/svg11.dtd">
<!-- Generated by graphviz version 2.36.0 (20140111.2315)
 -->
<!-- Title: model.instructions.MovementInstruction Pages: 1 -->
<svg width="1770pt" height="883pt"
 viewBox="0.00 0.00 1770.00 883.00" xmlns="http://www.w3.org/2000/svg" xmlns:xlink="http://www.w3.org/1999/xlink">
<g id="graph0" class="graph" transform="scale(1 1) rotate(0) translate(4 879)">
<title>model.instructions.MovementInstruction</title>
<polygon fill="white" stroke="none" points="-4,4 -4,-879 1766,-879 1766,4 -4,4"/>
<!-- Node1 -->
<g id="node1" class="node"><title>Node1</title>
<polygon fill="#bfbfbf" stroke="black" points="966.5,-801 966.5,-831 1125.5,-831 1125.5,-801 966.5,-801"/>
<text text-anchor="start" x="974.5" y="-819" font-family="Helvetica,sans-Serif" font-size="10.00">model.instructions.Movement</text>
<text text-anchor="middle" x="1046" y="-808" font-family="Helvetica,sans-Serif" font-size="10.00">Instruction</text>
</g>
<!-- Node2 -->
<g id="node2" class="node"><title>Node2</title>
<g id="a_node2"><a xlink:href="../../d1/dea/classmodel_1_1instructions_1_1_instruction.html" target="_top" xlink:title="model.instructions.Instruction">
<polygon fill="white" stroke="black" points="646,-747.5 646,-766.5 804,-766.5 804,-747.5 646,-747.5"/>
<text text-anchor="middle" x="725" y="-754.5" font-family="Helvetica,sans-Serif" font-size="10.00">model.instructions.Instruction</text>
</a>
</g>
</g>
<!-- Node2&#45;&gt;Node1 -->
<g id="edge1" class="edge"><title>Node2&#45;&gt;Node1</title>
<path fill="none" stroke="midnightblue" d="M787.493,-768.373C838.43,-777.794 911.143,-791.243 966.319,-801.448"/>
<polygon fill="midnightblue" stroke="midnightblue" points="788.077,-764.922 777.607,-766.545 786.804,-771.805 788.077,-764.922"/>
</g>
<!-- Node3 -->
<g id="node3" class="node"><title>Node3</title>
<polygon fill="white" stroke="#bfbfbf" points="57,-497.5 57,-516.5 117,-516.5 117,-497.5 57,-497.5"/>
<text text-anchor="middle" x="87" y="-504.5" font-family="Helvetica,sans-Serif" font-size="10.00">Observer</text>
</g>
<!-- Node3&#45;&gt;Node2 -->
<g id="edge2" class="edge"><title>Node3&#45;&gt;Node2</title>
<path fill="none" stroke="midnightblue" d="M100.419,-525.075C131.669,-568.867 218.499,-680.454 322,-727 377.93,-752.152 545.676,-756.927 645.935,-757.436"/>
<polygon fill="midnightblue" stroke="midnightblue" points="103.222,-522.977 94.6089,-516.808 97.4953,-527.002 103.222,-522.977"/>
</g>
<!-- Node9 -->
<g id="node9" class="node"><title>Node9</title>
<g id="a_node9"><a xlink:href="../../d4/d64/classview_1_1_view_updater.html" target="_top" xlink:title="view.ViewUpdater">
<polygon fill="white" stroke="black" points="351,-497.5 351,-516.5 451,-516.5 451,-497.5 351,-497.5"/>
<text text-anchor="middle" x="401" y="-504.5" font-family="Helvetica,sans-Serif" font-size="10.00">view.ViewUpdater</text>
</a>
</g>
</g>
<!-- Node3&#45;&gt;Node9 -->
<g id="edge9" class="edge"><title>Node3&#45;&gt;Node9</title>
<path fill="none" stroke="midnightblue" d="M127.079,-507C183.8,-507 288.905,-507 350.82,-507"/>
<polygon fill="midnightblue" stroke="midnightblue" points="127.072,-503.5 117.072,-507 127.072,-510.5 127.072,-503.5"/>
</g>
<!-- Node21 -->
<g id="node21" class="node"><title>Node21</title>
<g id="a_node21"><a xlink:href="../../dc/df5/classmodel_1_1_parser.html" target="_top" xlink:title="model.Parser">
<polygon fill="white" stroke="black" points="685,-231.5 685,-250.5 765,-250.5 765,-231.5 685,-231.5"/>
<text text-anchor="middle" x="725" y="-238.5" font-family="Helvetica,sans-Serif" font-size="10.00">model.Parser</text>
</a>
</g>
</g>
<!-- Node3&#45;&gt;Node21 -->
<g id="edge24" class="edge"><title>Node3&#45;&gt;Node21</title>
<path fill="none" stroke="midnightblue" d="M95.5509,-487.983C118.999,-431.913 196.602,-267.348 322,-206 453.521,-141.657 638.233,-205.702 701.625,-231.388"/>
<polygon fill="midnightblue" stroke="midnightblue" points="92.2392,-486.835 91.6939,-497.416 98.7185,-489.484 92.2392,-486.835"/>
</g>
<!-- Node4 -->
<g id="node4" class="node"><title>Node4</title>
<g id="a_node4"><a xlink:href="../../d1/dca/classmodel_1_1_execution_environment.html" target="_top" xlink:title="model.ExecutionEnvironment">
<polygon fill="white" stroke="black" points="322.5,-698.5 322.5,-717.5 479.5,-717.5 479.5,-698.5 322.5,-698.5"/>
<text text-anchor="middle" x="401" y="-705.5" font-family="Helvetica,sans-Serif" font-size="10.00">model.ExecutionEnvironment</text>
</a>
</g>
</g>
<!-- Node4&#45;&gt;Node2 -->
<g id="edge3" class="edge"><title>Node4&#45;&gt;Node2</title>
<path fill="none" stroke="#9a32cd" stroke-dasharray="5,2" d="M489.499,-715.088C529.458,-718.977 577.295,-724.547 620,-732 643.233,-736.055 669.009,-742.239 689.088,-747.442"/>
<polygon fill="#9a32cd" stroke="#9a32cd" points="489.805,-711.601 479.517,-714.135 489.139,-718.57 489.805,-711.601"/>
<text text-anchor="middle" x="559" y="-735" font-family="Helvetica,sans-Serif" font-size="10.00"> myEnvironment</text>
</g>
<!-- Node17 -->
<g id="node17" class="node"><title>Node17</title>
<g id="a_node17"><a xlink:href="../../d1/dc7/classview_1_1_side_bar.html" target="_top" xlink:title="view.SideBar">
<polygon fill="white" stroke="black" points="1007.5,-295.5 1007.5,-314.5 1084.5,-314.5 1084.5,-295.5 1007.5,-295.5"/>
<text text-anchor="middle" x="1046" y="-302.5" font-family="Helvetica,sans-Serif" font-size="10.00">view.SideBar</text>
</a>
</g>
</g>
<!-- Node4&#45;&gt;Node17 -->
<g id="edge21" class="edge"><title>Node4&#45;&gt;Node17</title>
<path fill="none" stroke="#9a32cd" stroke-dasharray="5,2" d="M421.215,-691.838C440.11,-676.325 470.097,-652.704 498,-635 634.26,-548.546 676.048,-536.371 830,-488 881.522,-471.812 911.938,-499.201 948,-459 988.419,-413.942 925.469,-368.958 966,-324 976.39,-312.475 992.437,-307.346 1007.36,-305.245"/>
<polygon fill="#9a32cd" stroke="#9a32cd" points="418.829,-689.27 413.361,-698.345 423.295,-694.66 418.829,-689.27"/>
<text text-anchor="middle" x="725" y="-559" font-family="Helvetica,sans-Serif" font-size="10.00"> myEnvironment</text>
</g>
<!-- Node4&#45;&gt;Node21 -->
<g id="edge26" class="edge"><title>Node4&#45;&gt;Node21</title>
<path fill="none" stroke="#9a32cd" stroke-dasharray="5,2" d="M413.817,-689.702C448.921,-634.773 554.22,-465.781 620,-315 630.285,-291.425 618.937,-277.266 638,-260 650.58,-248.606 668.419,-243.521 684.591,-241.415"/>
<polygon fill="#9a32cd" stroke="#9a32cd" points="410.733,-688.028 408.277,-698.334 416.624,-691.809 410.733,-688.028"/>
<text text-anchor="middle" x="559" y="-546" font-family="Helvetica,sans-Serif" font-size="10.00"> myExecutionParameters</text>
</g>
<!-- Node24 -->
<g id="node24" class="node"><title>Node24</title>
<g id="a_node24"><a xlink:href="../../d6/de7/classview_1_1_s_logo_view.html" target="_top" xlink:title="view.SLogoView">
<polygon fill="white" stroke="black" points="1670.5,-257.5 1670.5,-276.5 1761.5,-276.5 1761.5,-257.5 1670.5,-257.5"/>
<text text-anchor="middle" x="1716" y="-264.5" font-family="Helvetica,sans-Serif" font-size="10.00">view.SLogoView</text>
</a>
</g>
</g>
<!-- Node4&#45;&gt;Node24 -->
<g id="edge40" class="edge"><title>Node4&#45;&gt;Node24</title>
<path fill="none" stroke="#9a32cd" stroke-dasharray="5,2" d="M489.732,-709.299C634.241,-711.323 931.406,-715 1183,-715 1183,-715 1183,-715 1499,-715 1700.62,-715 1714.14,-342.289 1714.96,-276.774"/>
<polygon fill="#9a32cd" stroke="#9a32cd" points="489.642,-705.797 479.594,-709.156 489.544,-712.796 489.642,-705.797"/>
<text text-anchor="middle" x="1184" y="-718" font-family="Helvetica,sans-Serif" font-size="10.00"> myEnvironment</text>
</g>
<!-- Node5 -->
<g id="node5" class="node"><title>Node5</title>
<polygon fill="white" stroke="#bfbfbf" points="51.5,-698.5 51.5,-717.5 122.5,-717.5 122.5,-698.5 51.5,-698.5"/>
<text text-anchor="middle" x="87" y="-705.5" font-family="Helvetica,sans-Serif" font-size="10.00">Observable</text>
</g>
<!-- Node5&#45;&gt;Node4 -->
<g id="edge4" class="edge"><title>Node5&#45;&gt;Node4</title>
<path fill="none" stroke="midnightblue" d="M132.637,-708C182.066,-708 262.658,-708 322.457,-708"/>
<polygon fill="midnightblue" stroke="midnightblue" points="132.582,-704.5 122.582,-708 132.582,-711.5 132.582,-704.5"/>
</g>
<!-- Node6 -->
<g id="node6" class="node"><title>Node6</title>
<polygon fill="white" stroke="#bfbfbf" points="42.5,-845.5 42.5,-864.5 131.5,-864.5 131.5,-845.5 42.5,-845.5"/>
<text text-anchor="middle" x="87" y="-852.5" font-family="Helvetica,sans-Serif" font-size="10.00">Set&lt; Integer &gt;</text>
</g>
<!-- Node6&#45;&gt;Node4 -->
<g id="edge5" class="edge"><title>Node6&#45;&gt;Node4</title>
<path fill="none" stroke="#9a32cd" stroke-dasharray="5,2" d="M141.795,-856.948C189.564,-855.841 258.639,-846.91 304,-809 320.212,-795.451 308.979,-781.639 322,-765 338.228,-744.263 363.888,-727.523 381.308,-717.676"/>
<polygon fill="#9a32cd" stroke="#9a32cd" points="141.598,-853.451 131.642,-857.074 141.685,-860.45 141.598,-853.451"/>
<text text-anchor="middle" x="248" y="-867" font-family="Helvetica,sans-Serif" font-size="10.00"> myTurtleList</text>
<text text-anchor="middle" x="248" y="-856" font-family="Helvetica,sans-Serif" font-size="10.00">activeTurtleList</text>
</g>
<!-- Node7 -->
<g id="node7" class="node"><title>Node7</title>
<polygon fill="white" stroke="#bfbfbf" points="0,-796 0,-826 174,-826 174,-796 0,-796"/>
<text text-anchor="start" x="8" y="-814" font-family="Helvetica,sans-Serif" font-size="10.00">Map&lt; String, model.instructions.</text>
<text text-anchor="middle" x="87" y="-803" font-family="Helvetica,sans-Serif" font-size="10.00">Instruction &gt;</text>
</g>
<!-- Node7&#45;&gt;Node4 -->
<g id="edge6" class="edge"><title>Node7&#45;&gt;Node4</title>
<path fill="none" stroke="#9a32cd" stroke-dasharray="5,2" d="M184.121,-795.394C222.186,-787.625 265.874,-776.688 304,-762 334.87,-750.107 367.859,-729.627 386.005,-717.598"/>
<polygon fill="#9a32cd" stroke="#9a32cd" points="183.181,-792.013 174.059,-797.401 184.55,-798.877 183.181,-792.013"/>
<text text-anchor="middle" x="248" y="-797" font-family="Helvetica,sans-Serif" font-size="10.00"> myUserInstructionMap</text>
</g>
<!-- Node8 -->
<g id="node8" class="node"><title>Node8</title>
<polygon fill="white" stroke="#bfbfbf" points="23,-757.5 23,-776.5 151,-776.5 151,-757.5 23,-757.5"/>
<text text-anchor="middle" x="87" y="-764.5" font-family="Helvetica,sans-Serif" font-size="10.00">Map&lt; String, Double &gt;</text>
</g>
<!-- Node8&#45;&gt;Node4 -->
<g id="edge7" class="edge"><title>Node8&#45;&gt;Node4</title>
<path fill="none" stroke="#9a32cd" stroke-dasharray="5,2" d="M148.328,-755.592C206.867,-744.522 294.684,-727.916 349.598,-717.531"/>
<polygon fill="#9a32cd" stroke="#9a32cd" points="147.65,-752.158 138.475,-757.455 148.951,-759.036 147.65,-752.158"/>
<text text-anchor="middle" x="248" y="-750" font-family="Helvetica,sans-Serif" font-size="10.00"> myVariableMap</text>
</g>
<!-- Node9&#45;&gt;Node2 -->
<g id="edge8" class="edge"><title>Node9&#45;&gt;Node2</title>
<path fill="none" stroke="#9a32cd" stroke-dasharray="5,2" d="M416.016,-524.487C433.766,-546.023 465.92,-583.055 498,-610 569.502,-670.057 666.812,-725.783 706.282,-747.456"/>
<polygon fill="#9a32cd" stroke="#9a32cd" points="418.567,-522.077 409.537,-516.535 413.14,-526.499 418.567,-522.077"/>
<text text-anchor="middle" x="559" y="-699" font-family="Helvetica,sans-Serif" font-size="10.00"> myViewUpdater</text>
</g>
<!-- Node9&#45;&gt;Node21 -->
<g id="edge27" class="edge"><title>Node9&#45;&gt;Node21</title>
<path fill="none" stroke="#9a32cd" stroke-dasharray="5,2" d="M405.035,-487.269C412.56,-445.522 436.15,-348.146 498,-300 541.541,-266.107 570.845,-302.067 620,-277 629.803,-272.001 628.276,-265.151 638,-260 652.323,-252.413 669.529,-247.852 684.775,-245.111"/>
<polygon fill="#9a32cd" stroke="#9a32cd" points="401.561,-486.826 403.353,-497.268 408.464,-487.987 401.561,-486.826"/>
<text text-anchor="middle" x="559" y="-303" font-family="Helvetica,sans-Serif" font-size="10.00"> myViewUpdater</text>
</g>
<!-- Node10 -->
<g id="node10" class="node"><title>Node10</title>
<g id="a_node10"><a xlink:href="../../da/d64/classview_1_1_workspace.html" target="_top" xlink:title="view.Workspace">
<polygon fill="white" stroke="black" points="1242,-459.5 1242,-478.5 1332,-478.5 1332,-459.5 1242,-459.5"/>
<text text-anchor="middle" x="1287" y="-466.5" font-family="Helvetica,sans-Serif" font-size="10.00">view.Workspace</text>
</a>
</g>
</g>
<!-- Node10&#45;&gt;Node9 -->
<g id="edge10" class="edge"><title>Node10&#45;&gt;Node9</title>
<path fill="none" stroke="#9a32cd" stroke-dasharray="5,2" d="M1241.9,-480.79C1235.92,-482.059 1229.83,-483.184 1224,-484 1180.83,-490.043 1169.57,-486.539 1126,-488 872.152,-496.511 568.131,-503.42 451.167,-505.957"/>
<polygon fill="#9a32cd" stroke="#9a32cd" points="1242.82,-484.17 1251.8,-478.546 1241.27,-477.343 1242.82,-484.17"/>
<text text-anchor="middle" x="889" y="-500" font-family="Helvetica,sans-Serif" font-size="10.00"> myWorkspace</text>
</g>
<!-- Node10&#45;&gt;Node24 -->
<g id="edge30" class="edge"><title>Node10&#45;&gt;Node24</title>
<path fill="none" stroke="#9a32cd" stroke-dasharray="5,2" d="M1342.37,-479.484C1398.42,-487.833 1487.35,-494.127 1558,-467 1607.13,-448.137 1618.61,-435.678 1652,-395 1683.74,-356.327 1704.62,-298.989 1712.01,-276.521"/>
<polygon fill="#9a32cd" stroke="#9a32cd" points="1342.72,-475.996 1332.3,-477.909 1341.64,-482.912 1342.72,-475.996"/>
<text text-anchor="middle" x="1498" y="-490" font-family="Helvetica,sans-Serif" font-size="10.00"> myWorkspace</text>
</g>
<!-- Node32 -->
<g id="node32" class="node"><title>Node32</title>
<g id="a_node32"><a xlink:href="../../de/d0a/classview_1_1_drawer.html" target="_top" xlink:title="view.Drawer">
<polygon fill="white" stroke="black" points="1461.5,-438.5 1461.5,-457.5 1534.5,-457.5 1534.5,-438.5 1461.5,-438.5"/>
<text text-anchor="middle" x="1498" y="-445.5" font-family="Helvetica,sans-Serif" font-size="10.00">view.Drawer</text>
</a>
</g>
</g>
<!-- Node10&#45;&gt;Node32 -->
<g id="edge44" class="edge"><title>Node10&#45;&gt;Node32</title>
<path fill="none" stroke="#9a32cd" stroke-dasharray="5,2" d="M1342.32,-463.542C1379.83,-459.773 1428.65,-454.868 1461.32,-451.585"/>
<polygon fill="#9a32cd" stroke="#9a32cd" points="1341.67,-460.09 1332.07,-464.572 1342.37,-467.055 1341.67,-460.09"/>
<text text-anchor="middle" x="1385" y="-466" font-family="Helvetica,sans-Serif" font-size="10.00"> myWorkspace</text>
</g>
<!-- Node11 -->
<g id="node11" class="node"><title>Node11</title>
<polygon fill="white" stroke="#bfbfbf" points="1012.5,-371.5 1012.5,-390.5 1079.5,-390.5 1079.5,-371.5 1012.5,-371.5"/>
<text text-anchor="middle" x="1046" y="-378.5" font-family="Helvetica,sans-Serif" font-size="10.00">StackPane</text>
</g>
<!-- Node11&#45;&gt;Node10 -->
<g id="edge11" class="edge"><title>Node11&#45;&gt;Node10</title>
<path fill="none" stroke="midnightblue" d="M1089.27,-390.209C1101.22,-393.071 1114.19,-396.423 1126,-400 1170.41,-413.448 1183.43,-413.488 1224,-436 1232.86,-440.917 1233.28,-444.839 1242,-450 1247.87,-453.475 1254.5,-456.673 1260.79,-459.415"/>
<polygon fill="midnightblue" stroke="midnightblue" points="1090.05,-386.797 1079.51,-387.926 1088.45,-393.613 1090.05,-386.797"/>
</g>
<!-- Node12 -->
<g id="node12" class="node"><title>Node12</title>
<polygon fill="white" stroke="#bfbfbf" points="678.5,-582.5 678.5,-601.5 771.5,-601.5 771.5,-582.5 678.5,-582.5"/>
<text text-anchor="middle" x="725" y="-589.5" font-family="Helvetica,sans-Serif" font-size="10.00">ResourceBundle</text>
</g>
<!-- Node12&#45;&gt;Node10 -->
<g id="edge12" class="edge"><title>Node12&#45;&gt;Node10</title>
<path fill="none" stroke="#9a32cd" stroke-dasharray="5,2" d="M781.9,-585.492C903.43,-571.101 1184.03,-536.472 1224,-519 1245.79,-509.473 1266.29,-490.177 1277.39,-478.54"/>
<polygon fill="#9a32cd" stroke="#9a32cd" points="781.21,-582.049 771.689,-586.698 782.031,-589.001 781.21,-582.049"/>
<text text-anchor="middle" x="1046" y="-565" font-family="Helvetica,sans-Serif" font-size="10.00"> myResources</text>
</g>
<!-- Node12&#45;&gt;Node17 -->
<g id="edge20" class="edge"><title>Node12&#45;&gt;Node17</title>
<path fill="none" stroke="#9a32cd" stroke-dasharray="5,2" d="M781.686,-582.544C792.366,-579.098 803.009,-574.401 812,-568 823.449,-559.849 818.235,-549.689 830,-542 874.726,-512.769 912.163,-558.631 948,-519 977.188,-486.722 937.521,-356.905 966,-324 976.155,-312.267 992.168,-307.109 1007.13,-305.042"/>
<polygon fill="#9a32cd" stroke="#9a32cd" points="780.548,-579.23 771.914,-585.37 782.493,-585.954 780.548,-579.23"/>
<text text-anchor="middle" x="889" y="-545" font-family="Helvetica,sans-Serif" font-size="10.00"> myResources</text>
</g>
<!-- Node12&#45;&gt;Node24 -->
<g id="edge32" class="edge"><title>Node12&#45;&gt;Node24</title>
<path fill="none" stroke="#9a32cd" stroke-dasharray="5,2" d="M781.917,-592C845.608,-592 952.799,-592 1045,-592 1045,-592 1045,-592 1499,-592 1654.48,-592 1704.79,-330.803 1713.53,-276.727"/>
<polygon fill="#9a32cd" stroke="#9a32cd" points="781.695,-588.5 771.694,-592 781.694,-595.5 781.695,-588.5"/>
<text text-anchor="middle" x="1287" y="-595" font-family="Helvetica,sans-Serif" font-size="10.00"> myResources</text>
</g>
<!-- Node13 -->
<g id="node13" class="node"><title>Node13</title>
<g id="a_node13"><a xlink:href="../../d8/df7/classview_1_1_turtle_view.html" target="_top" xlink:title="view.TurtleView">
<polygon fill="white" stroke="black" points="1003,-620.5 1003,-639.5 1089,-639.5 1089,-620.5 1003,-620.5"/>
<text text-anchor="middle" x="1046" y="-627.5" font-family="Helvetica,sans-Serif" font-size="10.00">view.TurtleView</text>
</a>
</g>
</g>
<!-- Node13&#45;&gt;Node10 -->
<g id="edge13" class="edge"><title>Node13&#45;&gt;Node10</title>
<path fill="none" stroke="#9a32cd" stroke-dasharray="5,2" d="M1085.07,-616.967C1122.83,-602.842 1181.1,-577.722 1224,-544 1227.27,-541.429 1262.22,-498.402 1278.16,-478.705"/>
<polygon fill="#9a32cd" stroke="#9a32cd" points="1083.65,-613.761 1075.46,-620.489 1086.05,-620.333 1083.65,-613.761"/>
<text text-anchor="middle" x="1184" y="-595" font-family="Helvetica,sans-Serif" font-size="10.00"> myActiveTurtle</text>
</g>
<!-- Node14 -->
<g id="node14" class="node"><title>Node14</title>
<polygon fill="white" stroke="#bfbfbf" points="691,-620.5 691,-639.5 759,-639.5 759,-620.5 691,-620.5"/>
<text text-anchor="middle" x="725" y="-627.5" font-family="Helvetica,sans-Serif" font-size="10.00">ImageView</text>
</g>
<!-- Node14&#45;&gt;Node13 -->
<g id="edge14" class="edge"><title>Node14&#45;&gt;Node13</title>
<path fill="none" stroke="midnightblue" d="M769.359,-630C830.698,-630 942.083,-630 1002.79,-630"/>
<polygon fill="midnightblue" stroke="midnightblue" points="769.236,-626.5 759.236,-630 769.236,-633.5 769.236,-626.5"/>
</g>
<!-- Node15 -->
<g id="node15" class="node"><title>Node15</title>
<polygon fill="white" stroke="#bfbfbf" points="978,-410 978,-440 1114,-440 1114,-410 978,-410"/>
<text text-anchor="start" x="986" y="-428" font-family="Helvetica,sans-Serif" font-size="10.00">Map&lt; Integer, view.Turtle</text>
<text text-anchor="middle" x="1046" y="-417" font-family="Helvetica,sans-Serif" font-size="10.00">View &gt;</text>
</g>
<!-- Node15&#45;&gt;Node10 -->
<g id="edge15" class="edge"><title>Node15&#45;&gt;Node10</title>
<path fill="none" stroke="#9a32cd" stroke-dasharray="5,2" d="M1123.96,-436.323C1155.11,-441.241 1191.37,-447.389 1224,-454 1231.92,-455.605 1240.37,-457.515 1248.4,-459.424"/>
<polygon fill="#9a32cd" stroke="#9a32cd" points="1124.46,-432.858 1114.04,-434.77 1123.37,-439.774 1124.46,-432.858"/>
<text text-anchor="middle" x="1184" y="-457" font-family="Helvetica,sans-Serif" font-size="10.00"> myTurtles</text>
</g>
<!-- Node16 -->
<g id="node16" class="node"><title>Node16</title>
<polygon fill="white" stroke="#bfbfbf" points="1023,-459.5 1023,-478.5 1069,-478.5 1069,-459.5 1023,-459.5"/>
<text text-anchor="middle" x="1046" y="-466.5" font-family="Helvetica,sans-Serif" font-size="10.00">Group</text>
</g>
<!-- Node16&#45;&gt;Node10 -->
<g id="edge16" class="edge"><title>Node16&#45;&gt;Node10</title>
<path fill="none" stroke="#9a32cd" stroke-dasharray="5,2" d="M1079.26,-469C1121.23,-469 1194.74,-469 1241.85,-469"/>
<polygon fill="#9a32cd" stroke="#9a32cd" points="1079.06,-465.5 1069.06,-469 1079.06,-472.5 1079.06,-465.5"/>
<text text-anchor="middle" x="1184" y="-472" font-family="Helvetica,sans-Serif" font-size="10.00"> myLines</text>
</g>
<!-- Node17&#45;&gt;Node9 -->
<g id="edge50" class="edge"><title>Node17&#45;&gt;Node9</title>
<path fill="none" stroke="#9a32cd" stroke-dasharray="5,2" d="M997.217,-306.915C896.92,-311.151 670.956,-321.901 638,-334 536.422,-371.292 440.499,-466.292 411.141,-497.153"/>
<polygon fill="#9a32cd" stroke="#9a32cd" points="997.535,-310.405 1007.38,-306.49 997.242,-303.411 997.535,-310.405"/>
<text text-anchor="middle" x="725" y="-337" font-family="Helvetica,sans-Serif" font-size="10.00"> mySidebar</text>
</g>
<!-- Node17&#45;&gt;Node10 -->
<g id="edge17" class="edge"><title>Node17&#45;&gt;Node10</title>
<path fill="none" stroke="#9a32cd" stroke-dasharray="5,2" d="M1094.98,-310.793C1144.25,-317.192 1215,-327.809 1224,-337 1259.58,-373.334 1210.8,-409.842 1242,-450 1244.96,-453.811 1248.84,-456.87 1253.07,-459.323"/>
<polygon fill="#9a32cd" stroke="#9a32cd" points="1095.18,-307.29 1084.82,-309.493 1094.29,-314.234 1095.18,-307.29"/>
<text text-anchor="middle" x="1184" y="-340" font-family="Helvetica,sans-Serif" font-size="10.00"> mySidebar</text>
</g>
<!-- Node17&#45;&gt;Node24 -->
<g id="edge46" class="edge"><title>Node17&#45;&gt;Node24</title>
<path fill="none" stroke="#9a32cd" stroke-dasharray="5,2" d="M1094.76,-305.997C1197.29,-307.505 1445.9,-307.768 1652,-281 1660.22,-279.932 1668.95,-278.312 1677.22,-276.548"/>
<polygon fill="#9a32cd" stroke="#9a32cd" points="1094.77,-302.497 1084.72,-305.838 1094.66,-309.496 1094.77,-302.497"/>
<text text-anchor="middle" x="1385" y="-307" font-family="Helvetica,sans-Serif" font-size="10.00"> mySidebar</text>
</g>
<!-- Node26 -->
<g id="node26" class="node"><title>Node26</title>
<g id="a_node26"><a xlink:href="../../da/dc8/classview_1_1_editor.html" target="_top" xlink:title="view.Editor">
<polygon fill="white" stroke="black" points="1253.5,-75.5 1253.5,-94.5 1320.5,-94.5 1320.5,-75.5 1253.5,-75.5"/>
<text text-anchor="middle" x="1287" y="-82.5" font-family="Helvetica,sans-Serif" font-size="10.00">view.Editor</text>
</a>
</g>
</g>
<!-- Node17&#45;&gt;Node26 -->
<g id="edge38" class="edge"><title>Node17&#45;&gt;Node26</title>
<path fill="none" stroke="#9a32cd" stroke-dasharray="5,2" d="M1065.22,-288.226C1112.58,-244.636 1238.41,-128.806 1275.54,-94.6245"/>
<polygon fill="#9a32cd" stroke="#9a32cd" points="1062.57,-285.915 1057.58,-295.263 1067.31,-291.066 1062.57,-285.915"/>
<text text-anchor="middle" x="1184" y="-218" font-family="Helvetica,sans-Serif" font-size="10.00"> mySidebar</text>
</g>
<!-- Node18 -->
<g id="node18" class="node"><title>Node18</title>
<polygon fill="white" stroke="#bfbfbf" points="704.5,-269.5 704.5,-288.5 745.5,-288.5 745.5,-269.5 704.5,-269.5"/>
<text text-anchor="middle" x="725" y="-276.5" font-family="Helvetica,sans-Serif" font-size="10.00">VBox</text>
</g>
<!-- Node18&#45;&gt;Node17 -->
<g id="edge18" class="edge"><title>Node18&#45;&gt;Node17</title>
<path fill="none" stroke="midnightblue" d="M756.009,-281.446C814.415,-286.206 943.236,-296.706 1007.3,-301.927"/>
<polygon fill="midnightblue" stroke="midnightblue" points="756.206,-277.95 745.955,-280.626 755.637,-284.927 756.206,-277.95"/>
</g>
<!-- Node19 -->
<g id="node19" class="node"><title>Node19</title>
<polygon fill="white" stroke="#bfbfbf" points="638.5,-438.5 638.5,-457.5 811.5,-457.5 811.5,-438.5 638.5,-438.5"/>
<text text-anchor="middle" x="725" y="-445.5" font-family="Helvetica,sans-Serif" font-size="10.00">ObservableList&lt; view.Property &gt;</text>
</g>
<!-- Node19&#45;&gt;Node17 -->
<g id="edge19" class="edge"><title>Node19&#45;&gt;Node17</title>
<path fill="none" stroke="#9a32cd" stroke-dasharray="5,2" d="M821.948,-443.829C877.544,-440.486 938.44,-434.861 948,-426 981.762,-394.708 934.463,-357.534 966,-324 976.534,-312.799 992.419,-307.692 1007.19,-305.52"/>
<polygon fill="#9a32cd" stroke="#9a32cd" points="821.422,-440.353 811.642,-444.426 821.828,-447.341 821.422,-440.353"/>
<text text-anchor="middle" x="889" y="-447" font-family="Helvetica,sans-Serif" font-size="10.00"> myVariablesList</text>
</g>
<!-- Node20 -->
<g id="node20" class="node"><title>Node20</title>
<polygon fill="white" stroke="#bfbfbf" points="651,-393.5 651,-412.5 799,-412.5 799,-393.5 651,-393.5"/>
<text text-anchor="middle" x="725" y="-400.5" font-family="Helvetica,sans-Serif" font-size="10.00">TableView&lt; view.Property &gt;</text>
</g>
<!-- Node20&#45;&gt;Node17 -->
<g id="edge22" class="edge"><title>Node20&#45;&gt;Node17</title>
<path fill="none" stroke="#9a32cd" stroke-dasharray="5,2" d="M809.312,-404.051C863.197,-403.012 927.06,-397.998 948,-381 968.626,-364.257 946.57,-342.118 966,-324 977.142,-313.61 992.944,-308.605 1007.49,-306.291"/>
<polygon fill="#9a32cd" stroke="#9a32cd" points="808.979,-400.556 799.033,-404.204 809.084,-407.555 808.979,-400.556"/>
<text text-anchor="middle" x="889" y="-418" font-family="Helvetica,sans-Serif" font-size="10.00"> myTurtlePropertiesTable</text>
<text text-anchor="middle" x="889" y="-407" font-family="Helvetica,sans-Serif" font-size="10.00">myVariablesTable</text>
</g>
<!-- Node21&#45;&gt;Node17 -->
<g id="edge23" class="edge"><title>Node21&#45;&gt;Node17</title>
<path fill="none" stroke="#9a32cd" stroke-dasharray="5,2" d="M775.397,-246.023C820.672,-251.173 889.375,-260.369 948,-274 972.452,-279.685 999.623,-288.602 1018.97,-295.415"/>
<polygon fill="#9a32cd" stroke="#9a32cd" points="775.585,-242.522 765.259,-244.893 774.81,-249.479 775.585,-242.522"/>
<text text-anchor="middle" x="889" y="-277" font-family="Helvetica,sans-Serif" font-size="10.00"> myParser</text>
</g>
<!-- Node21&#45;&gt;Node24 -->
<g id="edge41" class="edge"><title>Node21&#45;&gt;Node24</title>
<path fill="none" stroke="#9a32cd" stroke-dasharray="5,2" d="M775.246,-242.295C945.503,-246.771 1507.68,-261.55 1670.47,-265.829"/>
<polygon fill="#9a32cd" stroke="#9a32cd" points="775.163,-238.791 765.075,-242.027 774.979,-245.789 775.163,-238.791"/>
<text text-anchor="middle" x="1287" y="-260" font-family="Helvetica,sans-Serif" font-size="10.00"> myParser</text>
</g>
<!-- Node21&#45;&gt;Node26 -->
<g id="edge36" class="edge"><title>Node21&#45;&gt;Node26</title>
<path fill="none" stroke="#9a32cd" stroke-dasharray="5,2" d="M741.888,-223.441C777.504,-185.554 868.304,-96.9829 966,-65 1067.04,-31.922 1195.44,-59.3357 1254.13,-75.3892"/>
<polygon fill="#9a32cd" stroke="#9a32cd" points="739.002,-221.406 734.775,-231.12 744.138,-226.162 739.002,-221.406"/>
<text text-anchor="middle" x="1046" y="-68" font-family="Helvetica,sans-Serif" font-size="10.00"> myParser</text>
</g>
<!-- Node22 -->
<g id="node22" class="node"><title>Node22</title>
<polygon fill="white" stroke="#bfbfbf" points="345,-216 345,-246 457,-246 457,-216 345,-216"/>
<text text-anchor="start" x="353" y="-234" font-family="Helvetica,sans-Serif" font-size="10.00">List&lt; Entry&lt; String,</text>
<text text-anchor="middle" x="401" y="-223" font-family="Helvetica,sans-Serif" font-size="10.00"> Pattern &gt; &gt;</text>
</g>
<!-- Node22&#45;&gt;Node21 -->
<g id="edge25" class="edge"><title>Node22&#45;&gt;Node21</title>
<path fill="none" stroke="#9a32cd" stroke-dasharray="5,2" d="M467.257,-229.908C510.589,-229.526 568.721,-229.668 620,-232 641.363,-232.972 665.128,-234.96 684.542,-236.821"/>
<polygon fill="#9a32cd" stroke="#9a32cd" points="467.097,-226.41 457.132,-230.009 467.167,-233.409 467.097,-226.41"/>
<text text-anchor="middle" x="559" y="-235" font-family="Helvetica,sans-Serif" font-size="10.00"> myPatterns</text>
</g>
<!-- Node23 -->
<g id="node23" class="node"><title>Node23</title>
<polygon fill="white" stroke="#bfbfbf" points="340,-265.5 340,-284.5 462,-284.5 462,-265.5 340,-265.5"/>
<text text-anchor="middle" x="401" y="-272.5" font-family="Helvetica,sans-Serif" font-size="10.00">Map&lt; String, String &gt;</text>
</g>
<!-- Node23&#45;&gt;Node21 -->
<g id="edge28" class="edge"><title>Node23&#45;&gt;Node21</title>
<path fill="none" stroke="#9a32cd" stroke-dasharray="5,2" d="M472.39,-267.568C537.597,-260.682 632.209,-250.692 684.877,-245.131"/>
<polygon fill="#9a32cd" stroke="#9a32cd" points="471.765,-264.114 462.188,-268.645 472.5,-271.075 471.765,-264.114"/>
<text text-anchor="middle" x="559" y="-268" font-family="Helvetica,sans-Serif" font-size="10.00"> myCommandMap</text>
</g>
<!-- Node24&#45;&gt;Node21 -->
<g id="edge29" class="edge"><title>Node24&#45;&gt;Node21</title>
<path fill="none" stroke="#9a32cd" stroke-dasharray="5,2" d="M1693.85,-251.552C1682.04,-243.539 1666.75,-234.165 1652,-228 1587.45,-201.028 1568.96,-191 1499,-191 1045,-191 1045,-191 1045,-191 941.573,-191 821.533,-216.971 762.548,-231.478"/>
<polygon fill="#9a32cd" stroke="#9a32cd" points="1691.94,-254.487 1702.15,-257.338 1695.95,-248.746 1691.94,-254.487"/>
<text text-anchor="middle" x="1287" y="-194" font-family="Helvetica,sans-Serif" font-size="10.00"> mySLogoView</text>
</g>
<!-- Node25 -->
<g id="node25" class="node"><title>Node25</title>
<polygon fill="white" stroke="#bfbfbf" points="1475.5,-219.5 1475.5,-238.5 1520.5,-238.5 1520.5,-219.5 1475.5,-219.5"/>
<text text-anchor="middle" x="1498" y="-226.5" font-family="Helvetica,sans-Serif" font-size="10.00">Stage</text>
</g>
<!-- Node25&#45;&gt;Node24 -->
<g id="edge31" class="edge"><title>Node25&#45;&gt;Node24</title>
<path fill="none" stroke="#9a32cd" stroke-dasharray="5,2" d="M1530.88,-229.008C1562.13,-229.645 1610.92,-232.325 1652,-242 1667,-245.533 1683.15,-251.997 1695.34,-257.467"/>
<polygon fill="#9a32cd" stroke="#9a32cd" points="1530.65,-225.505 1520.6,-228.86 1530.55,-232.504 1530.65,-225.505"/>
<text text-anchor="middle" x="1614" y="-245" font-family="Helvetica,sans-Serif" font-size="10.00"> myStage</text>
</g>
<!-- Node26&#45;&gt;Node24 -->
<g id="edge33" class="edge"><title>Node26&#45;&gt;Node24</title>
<path fill="none" stroke="#9a32cd" stroke-dasharray="5,2" d="M1329.83,-72.8753C1404.32,-54.0828 1560.67,-27.6889 1652,-106 1699.85,-147.029 1711.59,-229.084 1714.26,-257.247"/>
<polygon fill="#9a32cd" stroke="#9a32cd" points="1328.67,-69.5593 1319.88,-75.4648 1330.44,-76.3337 1328.67,-69.5593"/>
<text text-anchor="middle" x="1498" y="-64" font-family="Helvetica,sans-Serif" font-size="10.00"> myEditor</text>
</g>
<!-- Node27 -->
<g id="node27" class="node"><title>Node27</title>
<polygon fill="white" stroke="#bfbfbf" points="1025,-0.5 1025,-19.5 1067,-19.5 1067,-0.5 1025,-0.5"/>
<text text-anchor="middle" x="1046" y="-7.5" font-family="Helvetica,sans-Serif" font-size="10.00">HBox</text>
</g>
<!-- Node27&#45;&gt;Node26 -->
<g id="edge34" class="edge"><title>Node27&#45;&gt;Node26</title>
<path fill="none" stroke="midnightblue" d="M1077.53,-11.5785C1113.71,-14.3286 1175.24,-21.8061 1224,-42 1243.61,-50.1193 1263.23,-65.1821 1274.99,-75.149"/>
<polygon fill="midnightblue" stroke="midnightblue" points="1077.37,-8.05963 1067.16,-10.868 1076.89,-15.0433 1077.37,-8.05963"/>
</g>
<!-- Node28 -->
<g id="node28" class="node"><title>Node28</title>
<polygon fill="white" stroke="#bfbfbf" points="1021.5,-123.5 1021.5,-142.5 1070.5,-142.5 1070.5,-123.5 1021.5,-123.5"/>
<text text-anchor="middle" x="1046" y="-130.5" font-family="Helvetica,sans-Serif" font-size="10.00">Button</text>
</g>
<!-- Node28&#45;&gt;Node26 -->
<g id="edge35" class="edge"><title>Node28&#45;&gt;Node26</title>
<path fill="none" stroke="#9a32cd" stroke-dasharray="5,2" d="M1081.13,-129.59C1117.03,-125.587 1175.01,-117.936 1224,-106 1236.37,-102.987 1249.78,-98.5909 1260.96,-94.5986"/>
<polygon fill="#9a32cd" stroke="#9a32cd" points="1080.3,-126.16 1070.73,-130.716 1081.05,-133.119 1080.3,-126.16"/>
<text text-anchor="middle" x="1184" y="-124" font-family="Helvetica,sans-Serif" font-size="10.00"> runButton</text>
</g>
<!-- Node29 -->
<g id="node29" class="node"><title>Node29</title>
<polygon fill="white" stroke="#bfbfbf" points="1017,-85.5 1017,-104.5 1075,-104.5 1075,-85.5 1017,-85.5"/>
<text text-anchor="middle" x="1046" y="-92.5" font-family="Helvetica,sans-Serif" font-size="10.00">TextArea</text>
</g>
<!-- Node29&#45;&gt;Node26 -->
<g id="edge37" class="edge"><title>Node29&#45;&gt;Node26</title>
<path fill="none" stroke="#9a32cd" stroke-dasharray="5,2" d="M1085.36,-93.3949C1131.95,-91.4456 1209.71,-88.1919 1253.49,-86.3603"/>
<polygon fill="#9a32cd" stroke="#9a32cd" points="1085.2,-89.8985 1075.35,-93.8136 1085.49,-96.8924 1085.2,-89.8985"/>
<text text-anchor="middle" x="1184" y="-94" font-family="Helvetica,sans-Serif" font-size="10.00"> textEditor</text>
</g>
<!-- Node30 -->
<g id="node30" class="node"><title>Node30</title>
<polygon fill="white" stroke="#bfbfbf" points="1438.5,-143.5 1438.5,-162.5 1557.5,-162.5 1557.5,-143.5 1438.5,-143.5"/>
<text text-anchor="middle" x="1498" y="-150.5" font-family="Helvetica,sans-Serif" font-size="10.00">Map&lt; String, Node &gt;</text>
</g>
<!-- Node30&#45;&gt;Node24 -->
<g id="edge39" class="edge"><title>Node30&#45;&gt;Node24</title>
<path fill="none" stroke="#9a32cd" stroke-dasharray="5,2" d="M1567.81,-145.939C1595.74,-146.223 1627.19,-150.825 1652,-166 1687.08,-187.458 1705.69,-236.586 1712.24,-257.4"/>
<polygon fill="#9a32cd" stroke="#9a32cd" points="1567.67,-142.439 1557.7,-146.018 1567.73,-149.439 1567.67,-142.439"/>
<text text-anchor="middle" x="1614" y="-169" font-family="Helvetica,sans-Serif" font-size="10.00"> variables</text>
</g>
<!-- Node31 -->
<g id="node31" class="node"><title>Node31</title>
<polygon fill="white" stroke="#bfbfbf" points="1457.5,-105.5 1457.5,-124.5 1538.5,-124.5 1538.5,-105.5 1457.5,-105.5"/>
<text text-anchor="middle" x="1498" y="-112.5" font-family="Helvetica,sans-Serif" font-size="10.00">Dimension2D</text>
</g>
<!-- Node31&#45;&gt;Node24 -->
<g id="edge42" class="edge"><title>Node31&#45;&gt;Node24</title>
<path fill="none" stroke="#9a32cd" stroke-dasharray="5,2" d="M1548.69,-108.744C1580.98,-107.323 1622.41,-110.77 1652,-132 1695.5,-163.213 1709.84,-232.215 1713.74,-257.486"/>
<polygon fill="#9a32cd" stroke="#9a32cd" points="1548.32,-105.259 1538.55,-109.36 1548.75,-112.247 1548.32,-105.259"/>
<text text-anchor="middle" x="1614" y="-135" font-family="Helvetica,sans-Serif" font-size="10.00"> myDimensions</text>
</g>
<!-- Node32&#45;&gt;Node9 -->
<g id="edge49" class="edge"><title>Node32&#45;&gt;Node9</title>
<path fill="none" stroke="#9a32cd" stroke-dasharray="5,2" d="M1451.69,-457.29C1446.95,-458.913 1442.3,-460.804 1438,-463 1428.72,-467.733 1428.68,-472.242 1420,-478 1345.8,-527.241 1304.2,-506.271 1242,-570 1229.23,-583.087 1237.24,-594.382 1224,-607 1189.7,-639.696 1172.42,-639.472 1126,-649 1019.77,-670.804 729.347,-707.447 638,-649 621.919,-638.711 633.697,-623.298 620,-610 577.712,-568.941 551.186,-583.405 498,-558 469.901,-544.578 438.143,-527.271 419.116,-516.663"/>
<polygon fill="#9a32cd" stroke="#9a32cd" points="1452.89,-460.582 1461.43,-454.32 1450.85,-453.886 1452.89,-460.582"/>
<text text-anchor="middle" x="1046" y="-676" font-family="Helvetica,sans-Serif" font-size="10.00"> myDrawer</text>
</g>
<!-- Node32&#45;&gt;Node24 -->
<g id="edge43" class="edge"><title>Node32&#45;&gt;Node24</title>
<path fill="none" stroke="#9a32cd" stroke-dasharray="5,2" d="M1518.29,-431.835C1562.21,-395.033 1668.55,-305.922 1703.59,-276.56"/>
<polygon fill="#9a32cd" stroke="#9a32cd" points="1516.03,-429.163 1510.61,-438.269 1520.53,-434.529 1516.03,-429.163"/>
<text text-anchor="middle" x="1614" y="-383" font-family="Helvetica,sans-Serif" font-size="10.00"> drawer</text>
</g>
<!-- Node33 -->
<g id="node33" class="node"><title>Node33</title>
<polygon fill="white" stroke="#bfbfbf" points="1266.5,-421.5 1266.5,-440.5 1307.5,-440.5 1307.5,-421.5 1266.5,-421.5"/>
<text text-anchor="middle" x="1287" y="-428.5" font-family="Helvetica,sans-Serif" font-size="10.00">Color</text>
</g>
<!-- Node33&#45;&gt;Node32 -->
<g id="edge45" class="edge"><title>Node33&#45;&gt;Node32</title>
<path fill="none" stroke="#9a32cd" stroke-dasharray="5,2" d="M1318,-430.344C1344.81,-430.075 1385.12,-430.455 1420,-434 1433.52,-435.374 1448.22,-437.811 1461.13,-440.27"/>
<polygon fill="#9a32cd" stroke="#9a32cd" points="1317.69,-426.847 1307.74,-430.485 1317.79,-433.847 1317.69,-426.847"/>
<text text-anchor="middle" x="1385" y="-437" font-family="Helvetica,sans-Serif" font-size="10.00"> myColor</text>
</g>
<!-- Node34 -->
<g id="node34" class="node"><title>Node34</title>
<polygon fill="white" stroke="#bfbfbf" points="656,-354.5 656,-373.5 794,-373.5 794,-354.5 656,-354.5"/>
<text text-anchor="middle" x="725" y="-361.5" font-family="Helvetica,sans-Serif" font-size="10.00">ObservableList&lt; String &gt;</text>
</g>
<!-- Node34&#45;&gt;Node17 -->
<g id="edge47" class="edge"><title>Node34&#45;&gt;Node17</title>
<path fill="none" stroke="#9a32cd" stroke-dasharray="5,2" d="M804.175,-357.955C857.241,-353.128 922.267,-345.59 948,-336 957.009,-332.642 957.19,-327.85 966,-324 978.926,-318.351 993.808,-314.216 1007.15,-311.274"/>
<polygon fill="#9a32cd" stroke="#9a32cd" points="803.728,-354.481 794.078,-358.855 804.349,-361.454 803.728,-354.481"/>
<text text-anchor="middle" x="889" y="-370" font-family="Helvetica,sans-Serif" font-size="10.00"> myCommandItems</text>
<text text-anchor="middle" x="889" y="-359" font-family="Helvetica,sans-Serif" font-size="10.00">myHistoryItems</text>
</g>
<!-- Node35 -->
<g id="node35" class="node"><title>Node35</title>
<polygon fill="white" stroke="#bfbfbf" points="1014.5,-333.5 1014.5,-352.5 1077.5,-352.5 1077.5,-333.5 1014.5,-333.5"/>
<text text-anchor="middle" x="1046" y="-340.5" font-family="Helvetica,sans-Serif" font-size="10.00">Rectangle</text>
</g>
<!-- Node35&#45;&gt;Node10 -->
<g id="edge48" class="edge"><title>Node35&#45;&gt;Node10</title>
<path fill="none" stroke="#9a32cd" stroke-dasharray="5,2" d="M1087.95,-343.067C1127.94,-345.381 1187.89,-355.191 1224,-391 1243.47,-410.304 1223.72,-429.564 1242,-450 1245.44,-453.845 1249.79,-456.943 1254.42,-459.429"/>
<polygon fill="#9a32cd" stroke="#9a32cd" points="1087.88,-339.56 1077.74,-342.613 1087.57,-346.553 1087.88,-339.56"/>
<text text-anchor="middle" x="1184" y="-394" font-family="Helvetica,sans-Serif" font-size="10.00"> myBackground</text>
</g>
<!-- Node36 -->
<g id="node36" class="node"><title>Node36</title>
<polygon fill="white" stroke="#bfbfbf" points="333,-775 333,-805 469,-805 469,-775 333,-775"/>
<text text-anchor="start" x="341" y="-793" font-family="Helvetica,sans-Serif" font-size="10.00">List&lt; model.instructions.</text>
<text text-anchor="middle" x="401" y="-782" font-family="Helvetica,sans-Serif" font-size="10.00">Instruction &gt;</text>
</g>
<!-- Node36&#45;&gt;Node2 -->
<g id="edge51" class="edge"><title>Node36&#45;&gt;Node2</title>
<path fill="none" stroke="#9a32cd" stroke-dasharray="5,2" d="M479.362,-782.284C521.035,-778.105 573.334,-772.823 620,-768 628.398,-767.132 637.176,-766.217 645.92,-765.299"/>
<polygon fill="#9a32cd" stroke="#9a32cd" points="478.881,-778.815 469.28,-783.294 479.579,-785.78 478.881,-778.815"/>
<text text-anchor="middle" x="559" y="-784" font-family="Helvetica,sans-Serif" font-size="10.00"> myDependencies</text>
</g>
<!-- Node37 -->
<g id="node37" class="node"><title>Node37</title>
<g id="a_node37"><a xlink:href="../../d1/d0b/classmodel_1_1_polar.html" target="_top" xlink:title="model.Polar">
<polygon fill="white" stroke="black" points="364,-833.5 364,-852.5 438,-852.5 438,-833.5 364,-833.5"/>
<text text-anchor="middle" x="401" y="-840.5" font-family="Helvetica,sans-Serif" font-size="10.00">model.Polar</text>
</a>
</g>
</g>
<!-- Node37&#45;&gt;Node1 -->
<g id="edge52" class="edge"><title>Node37&#45;&gt;Node1</title>
<path fill="none" stroke="#9a32cd" stroke-dasharray="5,2" d="M448.339,-838.722C495.892,-834.507 572.043,-828.242 638,-825 752.006,-819.396 884.148,-817.281 966.17,-816.483"/>
<polygon fill="#9a32cd" stroke="#9a32cd" points="447.997,-835.239 438.348,-839.615 448.62,-842.211 447.997,-835.239"/>
<text text-anchor="middle" x="725" y="-828" font-family="Helvetica,sans-Serif" font-size="10.00"> myPolar</text>
</g>
<!-- Node38 -->
<g id="node38" class="node"><title>Node38</title>
<g id="a_node38"><a xlink:href="../../d6/d06/classmodel_1_1_turtle_command.html" target="_top" xlink:title="model.TurtleCommand">
<polygon fill="white" stroke="black" points="662.5,-845.5 662.5,-864.5 787.5,-864.5 787.5,-845.5 662.5,-845.5"/>
<text text-anchor="middle" x="725" y="-852.5" font-family="Helvetica,sans-Serif" font-size="10.00">model.TurtleCommand</text>
</a>
</g>
</g>
<!-- Node37&#45;&gt;Node38 -->
<g id="edge54" class="edge"><title>Node37&#45;&gt;Node38</title>
<path fill="none" stroke="#9a32cd" stroke-dasharray="5,2" d="M448.039,-844.716C504.336,-846.814 599.833,-850.373 662.41,-852.705"/>
<polygon fill="#9a32cd" stroke="#9a32cd" points="448.124,-841.217 438,-844.342 447.863,-848.212 448.124,-841.217"/>
<text text-anchor="middle" x="559" y="-855" font-family="Helvetica,sans-Serif" font-size="10.00"> myPolar</text>
</g>
<!-- Node38&#45;&gt;Node1 -->
<g id="edge53" class="edge"><title>Node38&#45;&gt;Node1</title>
<path fill="none" stroke="#9a32cd" stroke-dasharray="5,2" d="M797.982,-847.469C841.461,-842.777 897.962,-836.427 948,-830 953.991,-829.231 960.186,-828.405 966.413,-827.554"/>
<polygon fill="#9a32cd" stroke="#9a32cd" points="797.354,-844.016 787.786,-848.565 798.102,-850.976 797.354,-844.016"/>
<text text-anchor="middle" x="889" y="-847" font-family="Helvetica,sans-Serif" font-size="10.00"> myTurtle</text>
</g>
</g>
</svg>
