<?xml version="1.0" encoding="UTF-8" standalone="no"?>
<!DOCTYPE svg PUBLIC "-//W3C//DTD SVG 1.1//EN"
 "http://www.w3.org/Graphics/SVG/1.1/DTD/svg11.dtd">
<!-- Generated by graphviz version 2.36.0 (20140111.2315)
 -->
<!-- Title: view.Editor Pages: 1 -->
<svg width="1550pt" height="689pt"
 viewBox="0.00 0.00 1550.00 689.00" xmlns="http://www.w3.org/2000/svg" xmlns:xlink="http://www.w3.org/1999/xlink">
<g id="graph0" class="graph" transform="scale(1 1) rotate(0) translate(4 685)">
<title>view.Editor</title>
<polygon fill="white" stroke="none" points="-4,4 -4,-685 1546,-685 1546,4 -4,4"/>
<!-- Node1 -->
<g id="node1" class="node"><title>Node1</title>
<polygon fill="#bfbfbf" stroke="black" points="199.5,-204.5 199.5,-223.5 266.5,-223.5 266.5,-204.5 199.5,-204.5"/>
<text text-anchor="middle" x="233" y="-211.5" font-family="Helvetica,sans-Serif" font-size="10.00">view.Editor</text>
</g>
<!-- Node13 -->
<g id="node13" class="node"><title>Node13</title>
<g id="a_node13"><a xlink:href="../../d6/de7/classview_1_1_s_logo_view.html" target="_top" xlink:title="view.SLogoView">
<polygon fill="white" stroke="black" points="501.5,-364.5 501.5,-383.5 592.5,-383.5 592.5,-364.5 501.5,-364.5"/>
<text text-anchor="middle" x="547" y="-371.5" font-family="Helvetica,sans-Serif" font-size="10.00">view.SLogoView</text>
</a>
</g>
</g>
<!-- Node1&#45;&gt;Node13 -->
<g id="edge30" class="edge"><title>Node1&#45;&gt;Node13</title>
<path fill="none" stroke="#9a32cd" stroke-dasharray="5,2" d="M271.198,-226.888C331.904,-247.948 445.976,-287.65 450,-290 486.335,-311.22 521.616,-347.212 537.393,-364.36"/>
<polygon fill="#9a32cd" stroke="#9a32cd" points="272.179,-223.524 261.584,-223.554 269.885,-230.137 272.179,-223.524"/>
<text text-anchor="middle" x="394" y="-293" font-family="Helvetica,sans-Serif" font-size="10.00"> myEditor</text>
</g>
<!-- Node2 -->
<g id="node2" class="node"><title>Node2</title>
<polygon fill="white" stroke="#bfbfbf" points="8,-242.5 8,-261.5 50,-261.5 50,-242.5 8,-242.5"/>
<text text-anchor="middle" x="29" y="-249.5" font-family="Helvetica,sans-Serif" font-size="10.00">HBox</text>
</g>
<!-- Node2&#45;&gt;Node1 -->
<g id="edge1" class="edge"><title>Node2&#45;&gt;Node1</title>
<path fill="none" stroke="midnightblue" d="M60.3742,-246.286C97.7608,-239.253 160.997,-227.357 199.384,-220.136"/>
<polygon fill="midnightblue" stroke="midnightblue" points="59.2876,-242.929 50.107,-248.217 60.5817,-249.808 59.2876,-242.929"/>
</g>
<!-- Node3 -->
<g id="node3" class="node"><title>Node3</title>
<polygon fill="white" stroke="#bfbfbf" points="4.5,-204.5 4.5,-223.5 53.5,-223.5 53.5,-204.5 4.5,-204.5"/>
<text text-anchor="middle" x="29" y="-211.5" font-family="Helvetica,sans-Serif" font-size="10.00">Button</text>
</g>
<!-- Node3&#45;&gt;Node1 -->
<g id="edge2" class="edge"><title>Node3&#45;&gt;Node1</title>
<path fill="none" stroke="#9a32cd" stroke-dasharray="5,2" d="M64.0235,-214C101.718,-214 162.073,-214 199.249,-214"/>
<polygon fill="#9a32cd" stroke="#9a32cd" points="63.5673,-210.5 53.5673,-214 63.5673,-217.5 63.5673,-210.5"/>
<text text-anchor="middle" x="102" y="-217" font-family="Helvetica,sans-Serif" font-size="10.00"> runButton</text>
</g>
<!-- Node4 -->
<g id="node4" class="node"><title>Node4</title>
<g id="a_node4"><a xlink:href="../../d4/dd9/classcontroller_1_1_s_logo_controller.html" target="_top" xlink:title="controller.SLogoController">
<polygon fill="white" stroke="black" points="966,-285.5 966,-304.5 1106,-304.5 1106,-285.5 966,-285.5"/>
<text text-anchor="middle" x="1036" y="-292.5" font-family="Helvetica,sans-Serif" font-size="10.00">controller.SLogoController</text>
</a>
</g>
</g>
<!-- Node4&#45;&gt;Node1 -->
<g id="edge3" class="edge"><title>Node4&#45;&gt;Node1</title>
<path fill="none" stroke="#9a32cd" stroke-dasharray="5,2" d="M981.042,-283.056C972.608,-280.892 964.03,-278.517 956,-276 869.524,-248.898 855.065,-218.732 766,-202 579.868,-167.032 350.693,-195.763 266.768,-208.598"/>
<polygon fill="#9a32cd" stroke="#9a32cd" points="980.285,-286.474 990.835,-285.494 981.977,-279.682 980.285,-286.474"/>
<text text-anchor="middle" x="705" y="-205" font-family="Helvetica,sans-Serif" font-size="10.00"> myController</text>
</g>
<!-- Node4&#45;&gt;Node13 -->
<g id="edge32" class="edge"><title>Node4&#45;&gt;Node13</title>
<path fill="none" stroke="#9a32cd" stroke-dasharray="5,2" d="M955.774,-290.866C906.113,-289.682 840.943,-290.7 784,-300 703.482,-313.15 612.484,-347.543 570.915,-364.402"/>
<polygon fill="#9a32cd" stroke="#9a32cd" points="955.717,-294.366 965.809,-291.14 955.909,-287.368 955.717,-294.366"/>
<text text-anchor="middle" x="824" y="-303" font-family="Helvetica,sans-Serif" font-size="10.00"> myController</text>
</g>
<!-- Node19 -->
<g id="node19" class="node"><title>Node19</title>
<g id="a_node19"><a xlink:href="../../d1/dc7/classview_1_1_side_bar.html" target="_top" xlink:title="view.SideBar">
<polygon fill="white" stroke="black" points="1258.5,-285.5 1258.5,-304.5 1335.5,-304.5 1335.5,-285.5 1258.5,-285.5"/>
<text text-anchor="middle" x="1297" y="-292.5" font-family="Helvetica,sans-Serif" font-size="10.00">view.SideBar</text>
</a>
</g>
</g>
<!-- Node4&#45;&gt;Node19 -->
<g id="edge21" class="edge"><title>Node4&#45;&gt;Node19</title>
<path fill="none" stroke="#9a32cd" stroke-dasharray="5,2" d="M1116.28,-295C1163.51,-295 1221.28,-295 1258.36,-295"/>
<polygon fill="#9a32cd" stroke="#9a32cd" points="1116.07,-291.5 1106.07,-295 1116.07,-298.5 1116.07,-291.5"/>
<text text-anchor="middle" x="1185" y="-298" font-family="Helvetica,sans-Serif" font-size="10.00"> myController</text>
</g>
<!-- Node5 -->
<g id="node5" class="node"><title>Node5</title>
<g id="a_node5"><a xlink:href="../../dc/df5/classmodel_1_1_parser.html" target="_top" xlink:title="model.Parser">
<polygon fill="white" stroke="black" points="784,-122.5 784,-141.5 864,-141.5 864,-122.5 784,-122.5"/>
<text text-anchor="middle" x="824" y="-129.5" font-family="Helvetica,sans-Serif" font-size="10.00">model.Parser</text>
</a>
</g>
</g>
<!-- Node5&#45;&gt;Node4 -->
<g id="edge4" class="edge"><title>Node5&#45;&gt;Node4</title>
<path fill="none" stroke="#9a32cd" stroke-dasharray="5,2" d="M874.202,-134.207C896.777,-137.83 922.016,-146.034 938,-164 971.512,-201.667 921.743,-239.01 956,-276 959.546,-279.829 963.718,-282.949 968.26,-285.483"/>
<polygon fill="#9a32cd" stroke="#9a32cd" points="874.437,-130.707 864.06,-132.846 873.506,-137.645 874.437,-130.707"/>
<text text-anchor="middle" x="910" y="-167" font-family="Helvetica,sans-Serif" font-size="10.00"> myParser</text>
</g>
<!-- Node6 -->
<g id="node6" class="node"><title>Node6</title>
<polygon fill="white" stroke="#bfbfbf" points="203,-143.5 203,-162.5 263,-162.5 263,-143.5 203,-143.5"/>
<text text-anchor="middle" x="233" y="-150.5" font-family="Helvetica,sans-Serif" font-size="10.00">Observer</text>
</g>
<!-- Node6&#45;&gt;Node5 -->
<g id="edge5" class="edge"><title>Node6&#45;&gt;Node5</title>
<path fill="none" stroke="midnightblue" d="M273.356,-148.384C319.799,-143.188 399.388,-135.073 468,-132 582.675,-126.865 718.395,-129.202 783.839,-130.856"/>
<polygon fill="midnightblue" stroke="midnightblue" points="272.671,-144.939 263.128,-149.541 273.458,-151.895 272.671,-144.939"/>
</g>
<!-- Node6&#45;&gt;Node13 -->
<g id="edge13" class="edge"><title>Node6&#45;&gt;Node13</title>
<path fill="none" stroke="midnightblue" d="M272.795,-164.807C318.483,-180.028 395.093,-209.781 450,-253 492.353,-286.337 527.38,-341.917 540.475,-364.261"/>
<polygon fill="midnightblue" stroke="midnightblue" points="273.851,-161.47 263.258,-161.692 271.677,-168.124 273.851,-161.47"/>
</g>
<!-- Node7 -->
<g id="node7" class="node"><title>Node7</title>
<polygon fill="white" stroke="#bfbfbf" points="491,-16 491,-46 603,-46 603,-16 491,-16"/>
<text text-anchor="start" x="499" y="-34" font-family="Helvetica,sans-Serif" font-size="10.00">List&lt; Entry&lt; String,</text>
<text text-anchor="middle" x="547" y="-23" font-family="Helvetica,sans-Serif" font-size="10.00"> Pattern &gt; &gt;</text>
</g>
<!-- Node7&#45;&gt;Node5 -->
<g id="edge6" class="edge"><title>Node7&#45;&gt;Node5</title>
<path fill="none" stroke="#9a32cd" stroke-dasharray="5,2" d="M613.356,-24.5092C659.029,-23.0334 719.854,-27.4301 766,-54 793.616,-69.9009 811.638,-105.165 819.094,-122.291"/>
<polygon fill="#9a32cd" stroke="#9a32cd" points="613.108,-21.0164 603.266,-24.9377 613.405,-28.0101 613.108,-21.0164"/>
<text text-anchor="middle" x="705" y="-57" font-family="Helvetica,sans-Serif" font-size="10.00"> myPatterns</text>
</g>
<!-- Node8 -->
<g id="node8" class="node"><title>Node8</title>
<g id="a_node8"><a xlink:href="../../d1/dca/classmodel_1_1_execution_environment.html" target="_top" xlink:title="model.ExecutionEnvironment">
<polygon fill="white" stroke="black" points="468.5,-65.5 468.5,-84.5 625.5,-84.5 625.5,-65.5 468.5,-65.5"/>
<text text-anchor="middle" x="547" y="-72.5" font-family="Helvetica,sans-Serif" font-size="10.00">model.ExecutionEnvironment</text>
</a>
</g>
</g>
<!-- Node8&#45;&gt;Node5 -->
<g id="edge7" class="edge"><title>Node8&#45;&gt;Node5</title>
<path fill="none" stroke="#9a32cd" stroke-dasharray="5,2" d="M635.897,-68.5656C676.642,-68.4919 725.005,-72.6407 766,-88 785.433,-95.2808 803.631,-111.62 814.024,-122.209"/>
<polygon fill="#9a32cd" stroke="#9a32cd" points="635.675,-65.0676 625.712,-68.671 635.748,-72.0672 635.675,-65.0676"/>
<text text-anchor="middle" x="705" y="-91" font-family="Helvetica,sans-Serif" font-size="10.00"> myExecutionParameters</text>
</g>
<!-- Node9 -->
<g id="node9" class="node"><title>Node9</title>
<polygon fill="white" stroke="#bfbfbf" points="197.5,-0.5 197.5,-19.5 268.5,-19.5 268.5,-0.5 197.5,-0.5"/>
<text text-anchor="middle" x="233" y="-7.5" font-family="Helvetica,sans-Serif" font-size="10.00">Observable</text>
</g>
<!-- Node9&#45;&gt;Node8 -->
<g id="edge8" class="edge"><title>Node9&#45;&gt;Node8</title>
<path fill="none" stroke="midnightblue" d="M278.884,-18.5447C322.626,-26.9643 390.983,-40.3661 450,-53 468.225,-56.9014 488.334,-61.4689 505.419,-65.428"/>
<polygon fill="midnightblue" stroke="midnightblue" points="279.336,-15.0677 268.855,-16.6188 278.016,-21.9421 279.336,-15.0677"/>
</g>
<!-- Node10 -->
<g id="node10" class="node"><title>Node10</title>
<polygon fill="white" stroke="#bfbfbf" points="146,-77 146,-107 320,-107 320,-77 146,-77"/>
<text text-anchor="start" x="154" y="-95" font-family="Helvetica,sans-Serif" font-size="10.00">Map&lt; String, model.instructions.</text>
<text text-anchor="middle" x="233" y="-84" font-family="Helvetica,sans-Serif" font-size="10.00">Instruction &gt;</text>
</g>
<!-- Node10&#45;&gt;Node8 -->
<g id="edge9" class="edge"><title>Node10&#45;&gt;Node8</title>
<path fill="none" stroke="#9a32cd" stroke-dasharray="5,2" d="M330.305,-86.7526C374.685,-84.3345 426.655,-81.5028 468.461,-79.2249"/>
<polygon fill="#9a32cd" stroke="#9a32cd" points="329.876,-83.2707 320.081,-87.3097 330.257,-90.2603 329.876,-83.2707"/>
<text text-anchor="middle" x="394" y="-90" font-family="Helvetica,sans-Serif" font-size="10.00"> myUserInstructionMap</text>
</g>
<!-- Node11 -->
<g id="node11" class="node"><title>Node11</title>
<polygon fill="white" stroke="#bfbfbf" points="169,-38.5 169,-57.5 297,-57.5 297,-38.5 169,-38.5"/>
<text text-anchor="middle" x="233" y="-45.5" font-family="Helvetica,sans-Serif" font-size="10.00">Map&lt; String, Double &gt;</text>
</g>
<!-- Node11&#45;&gt;Node8 -->
<g id="edge10" class="edge"><title>Node11&#45;&gt;Node8</title>
<path fill="none" stroke="#9a32cd" stroke-dasharray="5,2" d="M307.434,-53.9301C349.232,-57.3529 402.559,-61.7996 450,-66 456.003,-66.5315 462.216,-67.0915 468.461,-67.6614"/>
<polygon fill="#9a32cd" stroke="#9a32cd" points="307.592,-50.4314 297.34,-53.105 307.021,-57.4081 307.592,-50.4314"/>
<text text-anchor="middle" x="394" y="-69" font-family="Helvetica,sans-Serif" font-size="10.00"> myVariableMap</text>
</g>
<!-- Node12 -->
<g id="node12" class="node"><title>Node12</title>
<polygon fill="white" stroke="#bfbfbf" points="486,-141.5 486,-160.5 608,-160.5 608,-141.5 486,-141.5"/>
<text text-anchor="middle" x="547" y="-148.5" font-family="Helvetica,sans-Serif" font-size="10.00">Map&lt; String, String &gt;</text>
</g>
<!-- Node12&#45;&gt;Node5 -->
<g id="edge11" class="edge"><title>Node12&#45;&gt;Node5</title>
<path fill="none" stroke="#9a32cd" stroke-dasharray="5,2" d="M618.284,-146.144C670.88,-142.51 740.879,-137.674 783.895,-134.702"/>
<polygon fill="#9a32cd" stroke="#9a32cd" points="617.745,-142.673 608.01,-146.854 618.228,-149.656 617.745,-142.673"/>
<text text-anchor="middle" x="705" y="-148" font-family="Helvetica,sans-Serif" font-size="10.00"> myCommandMap</text>
</g>
<!-- Node13&#45;&gt;Node5 -->
<g id="edge12" class="edge"><title>Node13&#45;&gt;Node5</title>
<path fill="none" stroke="#9a32cd" stroke-dasharray="5,2" d="M559.803,-355.711C576.23,-331.431 608.048,-288.434 644,-261 691.578,-224.694 719.057,-241.124 766,-204 789.01,-185.804 808.389,-156.569 817.47,-141.564"/>
<polygon fill="#9a32cd" stroke="#9a32cd" points="556.711,-354.042 554.102,-364.31 562.545,-357.91 556.711,-354.042"/>
<text text-anchor="middle" x="705" y="-264" font-family="Helvetica,sans-Serif" font-size="10.00"> mySLogoView</text>
</g>
<!-- Node14 -->
<g id="node14" class="node"><title>Node14</title>
<g id="a_node14"><a xlink:href="../../da/d64/classview_1_1_workspace.html" target="_top" xlink:title="view.Workspace">
<polygon fill="white" stroke="black" points="1452,-555.5 1452,-574.5 1542,-574.5 1542,-555.5 1452,-555.5"/>
<text text-anchor="middle" x="1497" y="-562.5" font-family="Helvetica,sans-Serif" font-size="10.00">view.Workspace</text>
</a>
</g>
</g>
<!-- Node14&#45;&gt;Node13 -->
<g id="edge14" class="edge"><title>Node14&#45;&gt;Node13</title>
<path fill="none" stroke="#9a32cd" stroke-dasharray="5,2" d="M1441.78,-558.56C1305.78,-541.673 939.905,-491.691 644,-410 618.091,-402.847 589.347,-391.608 570.126,-383.591"/>
<polygon fill="#9a32cd" stroke="#9a32cd" points="1441.58,-562.062 1451.93,-559.812 1442.44,-555.115 1441.58,-562.062"/>
<text text-anchor="middle" x="1036" y="-512" font-family="Helvetica,sans-Serif" font-size="10.00"> myWorkspace</text>
</g>
<!-- Node15 -->
<g id="node15" class="node"><title>Node15</title>
<polygon fill="white" stroke="#bfbfbf" points="1263.5,-661.5 1263.5,-680.5 1330.5,-680.5 1330.5,-661.5 1263.5,-661.5"/>
<text text-anchor="middle" x="1297" y="-668.5" font-family="Helvetica,sans-Serif" font-size="10.00">StackPane</text>
</g>
<!-- Node15&#45;&gt;Node14 -->
<g id="edge15" class="edge"><title>Node15&#45;&gt;Node14</title>
<path fill="none" stroke="midnightblue" d="M1340.5,-669.693C1368.81,-667.112 1405.83,-660.313 1434,-643 1461.85,-625.88 1482.37,-591.524 1491.21,-574.714"/>
<polygon fill="midnightblue" stroke="midnightblue" points="1340.2,-666.206 1330.5,-670.465 1340.74,-673.185 1340.2,-666.206"/>
</g>
<!-- Node16 -->
<g id="node16" class="node"><title>Node16</title>
<g id="a_node16"><a xlink:href="../../d8/df7/classview_1_1_turtle_view.html" target="_top" xlink:title="view.TurtleView">
<polygon fill="white" stroke="black" points="1254,-623.5 1254,-642.5 1340,-642.5 1340,-623.5 1254,-623.5"/>
<text text-anchor="middle" x="1297" y="-630.5" font-family="Helvetica,sans-Serif" font-size="10.00">view.TurtleView</text>
</a>
</g>
</g>
<!-- Node16&#45;&gt;Node14 -->
<g id="edge16" class="edge"><title>Node16&#45;&gt;Node14</title>
<path fill="none" stroke="#9a32cd" stroke-dasharray="5,2" d="M1350.14,-629.241C1376.11,-626.025 1407.54,-620.061 1434,-609 1453.97,-600.652 1473.8,-584.942 1485.47,-574.729"/>
<polygon fill="#9a32cd" stroke="#9a32cd" points="1349.65,-625.774 1340.11,-630.382 1350.44,-632.729 1349.65,-625.774"/>
<text text-anchor="middle" x="1396" y="-631" font-family="Helvetica,sans-Serif" font-size="10.00"> myActiveTurtle</text>
</g>
<!-- Node17 -->
<g id="node17" class="node"><title>Node17</title>
<polygon fill="white" stroke="#bfbfbf" points="1002,-623.5 1002,-642.5 1070,-642.5 1070,-623.5 1002,-623.5"/>
<text text-anchor="middle" x="1036" y="-630.5" font-family="Helvetica,sans-Serif" font-size="10.00">ImageView</text>
</g>
<!-- Node17&#45;&gt;Node16 -->
<g id="edge17" class="edge"><title>Node17&#45;&gt;Node16</title>
<path fill="none" stroke="midnightblue" d="M1080.18,-633C1128.37,-633 1205.85,-633 1253.69,-633"/>
<polygon fill="midnightblue" stroke="midnightblue" points="1080.07,-629.5 1070.07,-633 1080.07,-636.5 1080.07,-629.5"/>
</g>
<!-- Node18 -->
<g id="node18" class="node"><title>Node18</title>
<polygon fill="white" stroke="#bfbfbf" points="165,-555 165,-585 301,-585 301,-555 165,-555"/>
<text text-anchor="start" x="173" y="-573" font-family="Helvetica,sans-Serif" font-size="10.00">Map&lt; Integer, view.Turtle</text>
<text text-anchor="middle" x="233" y="-562" font-family="Helvetica,sans-Serif" font-size="10.00">View &gt;</text>
</g>
<!-- Node18&#45;&gt;Node13 -->
<g id="edge34" class="edge"><title>Node18&#45;&gt;Node13</title>
<path fill="none" stroke="#9a32cd" stroke-dasharray="5,2" d="M305.002,-552.598C316.035,-549.991 327.314,-547.381 338,-545 387.6,-533.949 408.029,-550.649 450,-522 502.614,-486.085 533.105,-410.829 542.69,-383.87"/>
<polygon fill="#9a32cd" stroke="#9a32cd" points="303.882,-549.267 294.963,-554.986 305.502,-556.077 303.882,-549.267"/>
<text text-anchor="middle" x="394" y="-548" font-family="Helvetica,sans-Serif" font-size="10.00"> myTurtles</text>
</g>
<!-- Node18&#45;&gt;Node14 -->
<g id="edge18" class="edge"><title>Node18&#45;&gt;Node14</title>
<path fill="none" stroke="#9a32cd" stroke-dasharray="5,2" d="M311.387,-579.66C374.437,-586.697 465.828,-595 546,-595 546,-595 546,-595 1298,-595 1353.45,-595 1416.67,-583.354 1456.45,-574.575"/>
<polygon fill="#9a32cd" stroke="#9a32cd" points="311.458,-576.146 301.128,-578.499 310.67,-583.102 311.458,-576.146"/>
<text text-anchor="middle" x="910" y="-598" font-family="Helvetica,sans-Serif" font-size="10.00"> myTurtles</text>
</g>
<!-- Node18&#45;&gt;Node19 -->
<g id="edge23" class="edge"><title>Node18&#45;&gt;Node19</title>
<path fill="none" stroke="#9a32cd" stroke-dasharray="5,2" d="M311.408,-567.896C352.705,-566.041 404.295,-562.553 450,-556 750.247,-512.95 821.122,-478.054 1116,-407 1169.55,-394.096 1190.32,-406.785 1236,-376 1263.57,-357.417 1283.27,-321.8 1291.59,-304.67"/>
<polygon fill="#9a32cd" stroke="#9a32cd" points="311.254,-564.4 301.412,-568.323 311.552,-571.393 311.254,-564.4"/>
<text text-anchor="middle" x="824" y="-495" font-family="Helvetica,sans-Serif" font-size="10.00"> myTurtles</text>
</g>
<!-- Node19&#45;&gt;Node1 -->
<g id="edge41" class="edge"><title>Node19&#45;&gt;Node1</title>
<path fill="none" stroke="#9a32cd" stroke-dasharray="5,2" d="M1253.12,-306.884C1247.4,-308.126 1241.58,-309.218 1236,-310 1112.75,-327.262 1080.45,-315.085 956,-314 879.547,-313.333 844.01,-358.375 784,-311 758.787,-291.095 790.879,-261.321 766,-241 727.413,-209.482 376.804,-211.895 266.835,-213.447"/>
<polygon fill="#9a32cd" stroke="#9a32cd" points="1254.29,-310.203 1263.24,-304.521 1252.7,-303.387 1254.29,-310.203"/>
<text text-anchor="middle" x="824" y="-336" font-family="Helvetica,sans-Serif" font-size="10.00"> mySidebar</text>
</g>
<!-- Node19&#45;&gt;Node13 -->
<g id="edge38" class="edge"><title>Node19&#45;&gt;Node13</title>
<path fill="none" stroke="#9a32cd" stroke-dasharray="5,2" d="M1281.58,-312.629C1270.53,-324.722 1254.12,-339.832 1236,-347 1008.68,-436.913 705.51,-400.405 592.729,-382.078"/>
<polygon fill="#9a32cd" stroke="#9a32cd" points="1284.41,-314.712 1288.34,-304.872 1279.13,-310.114 1284.41,-314.712"/>
<text text-anchor="middle" x="910" y="-409" font-family="Helvetica,sans-Serif" font-size="10.00"> mySidebar</text>
</g>
<!-- Node19&#45;&gt;Node14 -->
<g id="edge19" class="edge"><title>Node19&#45;&gt;Node14</title>
<path fill="none" stroke="#9a32cd" stroke-dasharray="5,2" d="M1311.11,-312.883C1349.31,-364.968 1459.62,-515.388 1488.83,-555.224"/>
<polygon fill="#9a32cd" stroke="#9a32cd" points="1313.78,-310.604 1305.05,-304.609 1308.14,-314.743 1313.78,-310.604"/>
<text text-anchor="middle" x="1396" y="-481" font-family="Helvetica,sans-Serif" font-size="10.00"> mySidebar</text>
</g>
<!-- Node20 -->
<g id="node20" class="node"><title>Node20</title>
<polygon fill="white" stroke="#bfbfbf" points="1015.5,-247.5 1015.5,-266.5 1056.5,-266.5 1056.5,-247.5 1015.5,-247.5"/>
<text text-anchor="middle" x="1036" y="-254.5" font-family="Helvetica,sans-Serif" font-size="10.00">VBox</text>
</g>
<!-- Node20&#45;&gt;Node19 -->
<g id="edge20" class="edge"><title>Node20&#45;&gt;Node19</title>
<path fill="none" stroke="midnightblue" d="M1066.83,-261.377C1114.22,-268.329 1206.59,-281.882 1258.42,-289.487"/>
<polygon fill="midnightblue" stroke="midnightblue" points="1067.3,-257.907 1056.89,-259.919 1066.28,-264.833 1067.3,-257.907"/>
</g>
<!-- Node21 -->
<g id="node21" class="node"><title>Node21</title>
<polygon fill="white" stroke="#bfbfbf" points="969,-198 969,-228 1103,-228 1103,-198 969,-198"/>
<text text-anchor="start" x="977" y="-216" font-family="Helvetica,sans-Serif" font-size="10.00">TableView&lt; view.Variable</text>
<text text-anchor="middle" x="1036" y="-205" font-family="Helvetica,sans-Serif" font-size="10.00">View &gt;</text>
</g>
<!-- Node21&#45;&gt;Node19 -->
<g id="edge22" class="edge"><title>Node21&#45;&gt;Node19</title>
<path fill="none" stroke="#9a32cd" stroke-dasharray="5,2" d="M1113.23,-210.833C1152.85,-213.17 1200.31,-221.719 1236,-246 1248.86,-254.746 1242.39,-265.658 1254,-276 1258.18,-279.726 1263.22,-282.835 1268.33,-285.386"/>
<polygon fill="#9a32cd" stroke="#9a32cd" points="1113.23,-207.329 1103.07,-210.357 1112.9,-214.321 1113.23,-207.329"/>
<text text-anchor="middle" x="1185" y="-260" font-family="Helvetica,sans-Serif" font-size="10.00"> turtlePropertiesTable</text>
<text text-anchor="middle" x="1185" y="-249" font-family="Helvetica,sans-Serif" font-size="10.00">variablesTable</text>
</g>
<!-- Node22 -->
<g id="node22" class="node"><title>Node22</title>
<polygon fill="white" stroke="#bfbfbf" points="956.5,-149 956.5,-179 1115.5,-179 1115.5,-149 956.5,-149"/>
<text text-anchor="start" x="964.5" y="-167" font-family="Helvetica,sans-Serif" font-size="10.00">ObservableList&lt; view.Variable</text>
<text text-anchor="middle" x="1036" y="-156" font-family="Helvetica,sans-Serif" font-size="10.00">View &gt;</text>
</g>
<!-- Node22&#45;&gt;Node19 -->
<g id="edge24" class="edge"><title>Node22&#45;&gt;Node19</title>
<path fill="none" stroke="#9a32cd" stroke-dasharray="5,2" d="M1126.12,-159.005C1164.44,-161.603 1206.99,-171.56 1236,-199 1261.53,-223.152 1231.69,-248.846 1254,-276 1257.15,-279.834 1261.24,-282.925 1265.62,-285.409"/>
<polygon fill="#9a32cd" stroke="#9a32cd" points="1126.13,-155.501 1115.96,-158.478 1125.76,-162.492 1126.13,-155.501"/>
<text text-anchor="middle" x="1185" y="-202" font-family="Helvetica,sans-Serif" font-size="10.00"> variablesList</text>
</g>
<!-- Node23 -->
<g id="node23" class="node"><title>Node23</title>
<polygon fill="white" stroke="#bfbfbf" points="967,-110.5 967,-129.5 1105,-129.5 1105,-110.5 967,-110.5"/>
<text text-anchor="middle" x="1036" y="-117.5" font-family="Helvetica,sans-Serif" font-size="10.00">ObservableList&lt; String &gt;</text>
</g>
<!-- Node23&#45;&gt;Node19 -->
<g id="edge25" class="edge"><title>Node23&#45;&gt;Node19</title>
<path fill="none" stroke="#9a32cd" stroke-dasharray="5,2" d="M1083.48,-108.558C1128.59,-100.487 1195.94,-96.9621 1236,-135 1281.81,-178.501 1216.45,-225.194 1254,-276 1256.85,-279.862 1260.68,-282.957 1264.86,-285.433"/>
<polygon fill="#9a32cd" stroke="#9a32cd" points="1082.81,-105.123 1073.65,-110.451 1084.13,-111.997 1082.81,-105.123"/>
<text text-anchor="middle" x="1185" y="-149" font-family="Helvetica,sans-Serif" font-size="10.00"> commandItems</text>
<text text-anchor="middle" x="1185" y="-138" font-family="Helvetica,sans-Serif" font-size="10.00">historyItems</text>
</g>
<!-- Node24 -->
<g id="node24" class="node"><title>Node24</title>
<polygon fill="white" stroke="#bfbfbf" points="983,-72.5 983,-91.5 1089,-91.5 1089,-72.5 983,-72.5"/>
<text text-anchor="middle" x="1036" y="-79.5" font-family="Helvetica,sans-Serif" font-size="10.00">ListView&lt; String &gt;</text>
</g>
<!-- Node24&#45;&gt;Node19 -->
<g id="edge26" class="edge"><title>Node24&#45;&gt;Node19</title>
<path fill="none" stroke="#9a32cd" stroke-dasharray="5,2" d="M1076.45,-69.7881C1121.29,-58.614 1193.72,-49.2191 1236,-89 1266.4,-117.609 1229.71,-242.046 1254,-276 1256.7,-279.775 1260.33,-282.815 1264.34,-285.259"/>
<polygon fill="#9a32cd" stroke="#9a32cd" points="1075.28,-66.477 1066.5,-72.4093 1077.06,-73.246 1075.28,-66.477"/>
<text text-anchor="middle" x="1185" y="-92" font-family="Helvetica,sans-Serif" font-size="10.00"> historyList</text>
</g>
<!-- Node25 -->
<g id="node25" class="node"><title>Node25</title>
<polygon fill="white" stroke="#bfbfbf" points="1265.5,-247.5 1265.5,-266.5 1328.5,-266.5 1328.5,-247.5 1265.5,-247.5"/>
<text text-anchor="middle" x="1297" y="-254.5" font-family="Helvetica,sans-Serif" font-size="10.00">Rectangle</text>
</g>
<!-- Node25&#45;&gt;Node14 -->
<g id="edge27" class="edge"><title>Node25&#45;&gt;Node14</title>
<path fill="none" stroke="#9a32cd" stroke-dasharray="5,2" d="M1332.35,-271.307C1335,-272.781 1337.58,-274.348 1340,-276 1388.26,-308.995 1403.42,-318.18 1434,-368 1473.77,-432.782 1490.19,-525.37 1494.66,-555.283"/>
<polygon fill="#9a32cd" stroke="#9a32cd" points="1333.71,-268.071 1323.21,-266.673 1330.54,-274.315 1333.71,-268.071"/>
<text text-anchor="middle" x="1396" y="-371" font-family="Helvetica,sans-Serif" font-size="10.00"> myBackground</text>
</g>
<!-- Node26 -->
<g id="node26" class="node"><title>Node26</title>
<polygon fill="white" stroke="#bfbfbf" points="210.5,-436.5 210.5,-455.5 255.5,-455.5 255.5,-436.5 210.5,-436.5"/>
<text text-anchor="middle" x="233" y="-443.5" font-family="Helvetica,sans-Serif" font-size="10.00">Stage</text>
</g>
<!-- Node26&#45;&gt;Node13 -->
<g id="edge28" class="edge"><title>Node26&#45;&gt;Node13</title>
<path fill="none" stroke="#9a32cd" stroke-dasharray="5,2" d="M265.517,-443.515C308.015,-439.639 385.771,-430.689 450,-413 477.23,-405.501 507.167,-392.531 526.25,-383.622"/>
<polygon fill="#9a32cd" stroke="#9a32cd" points="265.158,-440.033 255.502,-444.393 265.769,-447.006 265.158,-440.033"/>
<text text-anchor="middle" x="394" y="-438" font-family="Helvetica,sans-Serif" font-size="10.00"> myStage</text>
</g>
<!-- Node27 -->
<g id="node27" class="node"><title>Node27</title>
<polygon fill="white" stroke="#bfbfbf" points="186.5,-398.5 186.5,-417.5 279.5,-417.5 279.5,-398.5 186.5,-398.5"/>
<text text-anchor="middle" x="233" y="-405.5" font-family="Helvetica,sans-Serif" font-size="10.00">ResourceBundle</text>
</g>
<!-- Node27&#45;&gt;Node13 -->
<g id="edge29" class="edge"><title>Node27&#45;&gt;Node13</title>
<path fill="none" stroke="#9a32cd" stroke-dasharray="5,2" d="M289.667,-402.683C333.311,-398.429 395.562,-392.174 450,-386 466.689,-384.107 484.989,-381.862 501.093,-379.829"/>
<polygon fill="#9a32cd" stroke="#9a32cd" points="289.158,-399.216 279.543,-403.666 289.834,-406.183 289.158,-399.216"/>
<text text-anchor="middle" x="394" y="-401" font-family="Helvetica,sans-Serif" font-size="10.00"> myResources</text>
</g>
<!-- Node28 -->
<g id="node28" class="node"><title>Node28</title>
<polygon fill="white" stroke="#bfbfbf" points="173.5,-360.5 173.5,-379.5 292.5,-379.5 292.5,-360.5 173.5,-360.5"/>
<text text-anchor="middle" x="233" y="-367.5" font-family="Helvetica,sans-Serif" font-size="10.00">Map&lt; String, Node &gt;</text>
</g>
<!-- Node28&#45;&gt;Node13 -->
<g id="edge31" class="edge"><title>Node28&#45;&gt;Node13</title>
<path fill="none" stroke="#9a32cd" stroke-dasharray="5,2" d="M302.899,-370.883C363.301,-371.658 449.343,-372.761 501.212,-373.426"/>
<polygon fill="#9a32cd" stroke="#9a32cd" points="302.729,-367.381 292.685,-370.752 302.639,-374.38 302.729,-367.381"/>
<text text-anchor="middle" x="394" y="-376" font-family="Helvetica,sans-Serif" font-size="10.00"> variables</text>
</g>
<!-- Node29 -->
<g id="node29" class="node"><title>Node29</title>
<polygon fill="white" stroke="#bfbfbf" points="192.5,-322.5 192.5,-341.5 273.5,-341.5 273.5,-322.5 192.5,-322.5"/>
<text text-anchor="middle" x="233" y="-329.5" font-family="Helvetica,sans-Serif" font-size="10.00">Dimension2D</text>
</g>
<!-- Node29&#45;&gt;Node13 -->
<g id="edge33" class="edge"><title>Node29&#45;&gt;Node13</title>
<path fill="none" stroke="#9a32cd" stroke-dasharray="5,2" d="M283.618,-336.888C327.47,-341.411 393.115,-348.679 450,-357 466.748,-359.45 485.06,-362.58 501.158,-365.485"/>
<polygon fill="#9a32cd" stroke="#9a32cd" points="283.812,-333.389 273.508,-335.854 283.1,-340.353 283.812,-333.389"/>
<text text-anchor="middle" x="394" y="-360" font-family="Helvetica,sans-Serif" font-size="10.00"> myDimensions</text>
</g>
<!-- Node30 -->
<g id="node30" class="node"><title>Node30</title>
<g id="a_node30"><a xlink:href="../../de/d0a/classview_1_1_drawer.html" target="_top" xlink:title="view.Drawer">
<polygon fill="white" stroke="black" points="196.5,-284.5 196.5,-303.5 269.5,-303.5 269.5,-284.5 196.5,-284.5"/>
<text text-anchor="middle" x="233" y="-291.5" font-family="Helvetica,sans-Serif" font-size="10.00">view.Drawer</text>
</a>
</g>
</g>
<!-- Node30&#45;&gt;Node13 -->
<g id="edge35" class="edge"><title>Node30&#45;&gt;Node13</title>
<path fill="none" stroke="#9a32cd" stroke-dasharray="5,2" d="M279.677,-297.315C324.005,-301.43 392.782,-310.207 450,-328 479.295,-337.11 510.963,-353.747 529.609,-364.319"/>
<polygon fill="#9a32cd" stroke="#9a32cd" points="279.775,-293.81 269.505,-296.413 279.157,-300.783 279.775,-293.81"/>
<text text-anchor="middle" x="394" y="-331" font-family="Helvetica,sans-Serif" font-size="10.00"> drawer</text>
</g>
<!-- Node31 -->
<g id="node31" class="node"><title>Node31</title>
<polygon fill="white" stroke="#bfbfbf" points="8.5,-284.5 8.5,-303.5 49.5,-303.5 49.5,-284.5 8.5,-284.5"/>
<text text-anchor="middle" x="29" y="-291.5" font-family="Helvetica,sans-Serif" font-size="10.00">Color</text>
</g>
<!-- Node31&#45;&gt;Node30 -->
<g id="edge36" class="edge"><title>Node31&#45;&gt;Node30</title>
<path fill="none" stroke="#9a32cd" stroke-dasharray="5,2" d="M60.1816,-294C96.5583,-294 157.607,-294 196.292,-294"/>
<polygon fill="#9a32cd" stroke="#9a32cd" points="59.7364,-290.5 49.7364,-294 59.7364,-297.5 59.7364,-290.5"/>
<text text-anchor="middle" x="102" y="-297" font-family="Helvetica,sans-Serif" font-size="10.00"> myColor</text>
</g>
<!-- Node32 -->
<g id="node32" class="node"><title>Node32</title>
<polygon fill="white" stroke="#bfbfbf" points="203.5,-512.5 203.5,-531.5 262.5,-531.5 262.5,-512.5 203.5,-512.5"/>
<text text-anchor="middle" x="233" y="-519.5" font-family="Helvetica,sans-Serif" font-size="10.00">GridPane</text>
</g>
<!-- Node32&#45;&gt;Node13 -->
<g id="edge37" class="edge"><title>Node32&#45;&gt;Node13</title>
<path fill="none" stroke="#9a32cd" stroke-dasharray="5,2" d="M272.886,-517.376C330.879,-510.255 434.864,-496.536 450,-488 495.525,-462.325 528.977,-406.19 541.064,-383.65"/>
<polygon fill="#9a32cd" stroke="#9a32cd" points="272.128,-513.942 262.625,-518.626 272.974,-520.891 272.128,-513.942"/>
<text text-anchor="middle" x="394" y="-511" font-family="Helvetica,sans-Serif" font-size="10.00"> myRoot</text>
</g>
<!-- Node33 -->
<g id="node33" class="node"><title>Node33</title>
<polygon fill="white" stroke="#bfbfbf" points="210,-474.5 210,-493.5 256,-493.5 256,-474.5 210,-474.5"/>
<text text-anchor="middle" x="233" y="-481.5" font-family="Helvetica,sans-Serif" font-size="10.00">Group</text>
</g>
<!-- Node33&#45;&gt;Node13 -->
<g id="edge39" class="edge"><title>Node33&#45;&gt;Node13</title>
<path fill="none" stroke="#9a32cd" stroke-dasharray="5,2" d="M266.219,-480.956C318.105,-475.717 417.632,-464.179 450,-450 486.8,-433.879 521.588,-400.137 537.277,-383.58"/>
<polygon fill="#9a32cd" stroke="#9a32cd" points="265.817,-477.479 256.211,-481.948 266.507,-484.445 265.817,-477.479"/>
<text text-anchor="middle" x="394" y="-476" font-family="Helvetica,sans-Serif" font-size="10.00"> lines</text>
</g>
<!-- Node34 -->
<g id="node34" class="node"><title>Node34</title>
<polygon fill="white" stroke="#bfbfbf" points="0,-166.5 0,-185.5 58,-185.5 58,-166.5 0,-166.5"/>
<text text-anchor="middle" x="29" y="-173.5" font-family="Helvetica,sans-Serif" font-size="10.00">TextArea</text>
</g>
<!-- Node34&#45;&gt;Node1 -->
<g id="edge40" class="edge"><title>Node34&#45;&gt;Node1</title>
<path fill="none" stroke="#9a32cd" stroke-dasharray="5,2" d="M68.2332,-183.192C106.167,-190.328 163.67,-201.146 199.475,-207.881"/>
<polygon fill="#9a32cd" stroke="#9a32cd" points="68.5619,-179.693 58.0872,-181.284 67.2678,-186.572 68.5619,-179.693"/>
<text text-anchor="middle" x="102" y="-197" font-family="Helvetica,sans-Serif" font-size="10.00"> textEditor</text>
</g>
</g>
</svg>
