<?xml version="1.0" encoding="UTF-8" standalone="no"?>
<!DOCTYPE svg PUBLIC "-//W3C//DTD SVG 1.1//EN"
 "http://www.w3.org/Graphics/SVG/1.1/DTD/svg11.dtd">
<!-- Generated by graphviz version 2.36.0 (20140111.2315)
 -->
<!-- Title: model.instructions.MovementInstruction Pages: 1 -->
<svg width="1500pt" height="714pt"
 viewBox="0.00 0.00 1500.00 713.86" xmlns="http://www.w3.org/2000/svg" xmlns:xlink="http://www.w3.org/1999/xlink">
<g id="graph0" class="graph" transform="scale(1 1) rotate(0) translate(4 709.863)">
<title>model.instructions.MovementInstruction</title>
<polygon fill="white" stroke="none" points="-4,4 -4,-709.863 1496,-709.863 1496,4 -4,4"/>
<!-- Node1 -->
<g id="node1" class="node"><title>Node1</title>
<polygon fill="#bfbfbf" stroke="black" points="950.5,-642.863 950.5,-672.863 1109.5,-672.863 1109.5,-642.863 950.5,-642.863"/>
<text text-anchor="start" x="958.5" y="-660.863" font-family="Helvetica,sans-Serif" font-size="10.00">model.instructions.Movement</text>
<text text-anchor="middle" x="1030" y="-649.863" font-family="Helvetica,sans-Serif" font-size="10.00">Instruction</text>
</g>
<!-- Node2 -->
<g id="node2" class="node"><title>Node2</title>
<g id="a_node2"><a xlink:href="../../d1/dea/classmodel_1_1instructions_1_1_instruction.html" target="_top" xlink:title="model.instructions.Instruction">
<polygon fill="white" stroke="black" points="646,-600.363 646,-619.363 804,-619.363 804,-600.363 646,-600.363"/>
<text text-anchor="middle" x="725" y="-607.363" font-family="Helvetica,sans-Serif" font-size="10.00">model.instructions.Instruction</text>
</a>
</g>
</g>
<!-- Node2&#45;&gt;Node1 -->
<g id="edge1" class="edge"><title>Node2&#45;&gt;Node1</title>
<path fill="none" stroke="midnightblue" d="M796.14,-620.974C842.282,-628.284 902.738,-637.861 950.486,-645.425"/>
<polygon fill="midnightblue" stroke="midnightblue" points="796.65,-617.511 786.225,-619.403 795.555,-624.425 796.65,-617.511"/>
</g>
<!-- Node3 -->
<g id="node3" class="node"><title>Node3</title>
<polygon fill="white" stroke="#bfbfbf" points="57,-495.363 57,-514.363 117,-514.363 117,-495.363 57,-495.363"/>
<text text-anchor="middle" x="87" y="-502.363" font-family="Helvetica,sans-Serif" font-size="10.00">Observer</text>
</g>
<!-- Node3&#45;&gt;Node2 -->
<g id="edge2" class="edge"><title>Node3&#45;&gt;Node2</title>
<path fill="none" stroke="midnightblue" d="M127.125,-510.556C146.599,-513.281 170.513,-516.464 192,-518.863 381.791,-540.052 436.463,-504.1 620,-556.863 654.083,-566.661 690.168,-587.83 709.59,-600.245"/>
<polygon fill="midnightblue" stroke="midnightblue" points="127.487,-507.072 117.095,-509.138 126.507,-514.003 127.487,-507.072"/>
</g>
<!-- Node9 -->
<g id="node9" class="node"><title>Node9</title>
<g id="a_node9"><a xlink:href="../../d6/de7/classview_1_1_s_logo_view.html" target="_top" xlink:title="view.SLogoView">
<polygon fill="white" stroke="black" points="355.5,-300.363 355.5,-319.363 446.5,-319.363 446.5,-300.363 355.5,-300.363"/>
<text text-anchor="middle" x="401" y="-307.363" font-family="Helvetica,sans-Serif" font-size="10.00">view.SLogoView</text>
</a>
</g>
</g>
<!-- Node3&#45;&gt;Node9 -->
<g id="edge9" class="edge"><title>Node3&#45;&gt;Node9</title>
<path fill="none" stroke="midnightblue" d="M112.37,-490.092C152.488,-465.723 234.885,-415.453 304,-371.863 333.032,-353.553 366.667,-331.676 385.425,-319.414"/>
<polygon fill="midnightblue" stroke="midnightblue" points="110.523,-487.118 103.791,-495.299 114.156,-493.102 110.523,-487.118"/>
</g>
<!-- Node20 -->
<g id="node20" class="node"><title>Node20</title>
<g id="a_node20"><a xlink:href="../../dc/df5/classmodel_1_1_parser.html" target="_top" xlink:title="model.Parser">
<polygon fill="white" stroke="black" points="685,-373.363 685,-392.363 765,-392.363 765,-373.363 685,-373.363"/>
<text text-anchor="middle" x="725" y="-380.363" font-family="Helvetica,sans-Serif" font-size="10.00">model.Parser</text>
</a>
</g>
</g>
<!-- Node3&#45;&gt;Node20 -->
<g id="edge21" class="edge"><title>Node3&#45;&gt;Node20</title>
<path fill="none" stroke="midnightblue" d="M127.485,-505.845C243.718,-508.417 579.085,-513.431 620,-486.863 635.337,-476.903 626.489,-464.072 638,-449.863 658.015,-425.156 688.797,-404.022 707.595,-392.412"/>
<polygon fill="midnightblue" stroke="midnightblue" points="127.332,-502.341 117.255,-505.612 127.173,-509.339 127.332,-502.341"/>
</g>
<!-- Node4 -->
<g id="node4" class="node"><title>Node4</title>
<g id="a_node4"><a xlink:href="../../d1/dca/classmodel_1_1_execution_environment.html" target="_top" xlink:title="model.ExecutionEnvironment">
<polygon fill="white" stroke="black" points="322.5,-590.363 322.5,-609.363 479.5,-609.363 479.5,-590.363 322.5,-590.363"/>
<text text-anchor="middle" x="401" y="-597.363" font-family="Helvetica,sans-Serif" font-size="10.00">model.ExecutionEnvironment</text>
</a>
</g>
</g>
<!-- Node4&#45;&gt;Node2 -->
<g id="edge3" class="edge"><title>Node4&#45;&gt;Node2</title>
<path fill="none" stroke="#9a32cd" stroke-dasharray="5,2" d="M489.755,-602.588C538.493,-604.102 598.611,-605.969 645.74,-607.432"/>
<polygon fill="#9a32cd" stroke="#9a32cd" points="489.641,-599.083 479.537,-602.271 489.423,-606.08 489.641,-599.083"/>
<text text-anchor="middle" x="559" y="-609.863" font-family="Helvetica,sans-Serif" font-size="10.00"> myEnvironment</text>
</g>
<!-- Node4&#45;&gt;Node20 -->
<g id="edge23" class="edge"><title>Node4&#45;&gt;Node20</title>
<path fill="none" stroke="#9a32cd" stroke-dasharray="5,2" d="M484.897,-588.139C530.754,-577.479 585.312,-557.227 620,-518.863 641.256,-495.354 620.577,-476.337 638,-449.863 655.064,-423.934 685.559,-403.73 705.274,-392.557"/>
<polygon fill="#9a32cd" stroke="#9a32cd" points="483.964,-584.76 474.954,-590.333 485.473,-591.595 483.964,-584.76"/>
<text text-anchor="middle" x="559" y="-586.863" font-family="Helvetica,sans-Serif" font-size="10.00"> myExecutionParameters</text>
</g>
<!-- Node5 -->
<g id="node5" class="node"><title>Node5</title>
<polygon fill="white" stroke="#bfbfbf" points="51.5,-649.363 51.5,-668.363 122.5,-668.363 122.5,-649.363 51.5,-649.363"/>
<text text-anchor="middle" x="87" y="-656.363" font-family="Helvetica,sans-Serif" font-size="10.00">Observable</text>
</g>
<!-- Node5&#45;&gt;Node4 -->
<g id="edge4" class="edge"><title>Node5&#45;&gt;Node4</title>
<path fill="none" stroke="midnightblue" d="M132.849,-654.002C176.836,-648.72 245.611,-639.086 304,-624.863 312.193,-622.867 313.896,-621.196 322,-618.863 333.652,-615.508 346.393,-612.239 358.137,-609.385"/>
<polygon fill="midnightblue" stroke="midnightblue" points="132.288,-650.543 122.766,-655.188 133.106,-657.495 132.288,-650.543"/>
</g>
<!-- Node6 -->
<g id="node6" class="node"><title>Node6</title>
<polygon fill="white" stroke="#bfbfbf" points="0,-599.863 0,-629.863 174,-629.863 174,-599.863 0,-599.863"/>
<text text-anchor="start" x="8" y="-617.863" font-family="Helvetica,sans-Serif" font-size="10.00">Map&lt; String, model.instructions.</text>
<text text-anchor="middle" x="87" y="-606.863" font-family="Helvetica,sans-Serif" font-size="10.00">Instruction &gt;</text>
</g>
<!-- Node6&#45;&gt;Node4 -->
<g id="edge5" class="edge"><title>Node6&#45;&gt;Node4</title>
<path fill="none" stroke="#9a32cd" stroke-dasharray="5,2" d="M184.305,-610.233C228.685,-608.099 280.655,-605.601 322.461,-603.591"/>
<polygon fill="#9a32cd" stroke="#9a32cd" points="183.902,-606.748 174.081,-610.724 184.238,-613.74 183.902,-606.748"/>
<text text-anchor="middle" x="248" y="-612.863" font-family="Helvetica,sans-Serif" font-size="10.00"> myUserInstructionMap</text>
</g>
<!-- Node7 -->
<g id="node7" class="node"><title>Node7</title>
<polygon fill="white" stroke="#bfbfbf" points="23,-561.363 23,-580.363 151,-580.363 151,-561.363 23,-561.363"/>
<text text-anchor="middle" x="87" y="-568.363" font-family="Helvetica,sans-Serif" font-size="10.00">Map&lt; String, Double &gt;</text>
</g>
<!-- Node7&#45;&gt;Node4 -->
<g id="edge6" class="edge"><title>Node7&#45;&gt;Node4</title>
<path fill="none" stroke="#9a32cd" stroke-dasharray="5,2" d="M161.444,-577.029C203.246,-580.612 256.573,-585.307 304,-589.863 310.005,-590.44 316.219,-591.052 322.466,-591.678"/>
<polygon fill="#9a32cd" stroke="#9a32cd" points="161.611,-573.53 151.349,-576.166 161.015,-580.505 161.611,-573.53"/>
<text text-anchor="middle" x="248" y="-592.863" font-family="Helvetica,sans-Serif" font-size="10.00"> myVariableMap</text>
</g>
<!-- Node8 -->
<g id="node8" class="node"><title>Node8</title>
<polygon fill="white" stroke="#bfbfbf" points="333,-628.863 333,-658.863 469,-658.863 469,-628.863 333,-628.863"/>
<text text-anchor="start" x="341" y="-646.863" font-family="Helvetica,sans-Serif" font-size="10.00">List&lt; model.instructions.</text>
<text text-anchor="middle" x="401" y="-635.863" font-family="Helvetica,sans-Serif" font-size="10.00">Instruction &gt;</text>
</g>
<!-- Node8&#45;&gt;Node2 -->
<g id="edge7" class="edge"><title>Node8&#45;&gt;Node2</title>
<path fill="none" stroke="#9a32cd" stroke-dasharray="5,2" d="M479.381,-636.325C521.06,-632.197 573.357,-626.907 620,-621.863 628.403,-620.954 637.184,-619.98 645.929,-618.993"/>
<polygon fill="#9a32cd" stroke="#9a32cd" points="478.904,-632.855 469.297,-637.322 479.593,-639.821 478.904,-632.855"/>
<text text-anchor="middle" x="559" y="-637.863" font-family="Helvetica,sans-Serif" font-size="10.00"> myDependencies</text>
</g>
<!-- Node9&#45;&gt;Node2 -->
<g id="edge8" class="edge"><title>Node9&#45;&gt;Node2</title>
<path fill="none" stroke="#9a32cd" stroke-dasharray="5,2" d="M419.325,-326.697C435.624,-342.847 460.386,-368.205 480,-391.863 488.738,-402.403 486.565,-409.333 498,-416.863 544.383,-447.403 577.53,-408.081 620,-443.863 636.158,-457.476 627.849,-469.333 638,-487.863 662.403,-532.408 699.85,-580.258 716.064,-600.24"/>
<polygon fill="#9a32cd" stroke="#9a32cd" points="421.648,-324.072 412.063,-319.556 416.74,-329.063 421.648,-324.072"/>
<text text-anchor="middle" x="559" y="-446.863" font-family="Helvetica,sans-Serif" font-size="10.00"> myView</text>
</g>
<!-- Node9&#45;&gt;Node20 -->
<g id="edge25" class="edge"><title>Node9&#45;&gt;Node20</title>
<path fill="none" stroke="#9a32cd" stroke-dasharray="5,2" d="M427.213,-324.375C446.093,-334.565 472.885,-347.619 498,-354.863 561.819,-373.27 639.206,-379.576 684.868,-381.737"/>
<polygon fill="#9a32cd" stroke="#9a32cd" points="428.814,-321.261 418.367,-319.498 425.434,-327.391 428.814,-321.261"/>
<text text-anchor="middle" x="559" y="-379.863" font-family="Helvetica,sans-Serif" font-size="10.00"> mySLogoView</text>
</g>
<!-- Node10 -->
<g id="node10" class="node"><title>Node10</title>
<g id="a_node10"><a xlink:href="../../da/d64/classview_1_1_workspace.html" target="_top" xlink:title="view.Workspace">
<polygon fill="white" stroke="black" points="1222,-377.363 1222,-396.363 1312,-396.363 1312,-377.363 1222,-377.363"/>
<text text-anchor="middle" x="1267" y="-384.363" font-family="Helvetica,sans-Serif" font-size="10.00">view.Workspace</text>
</a>
</g>
</g>
<!-- Node10&#45;&gt;Node9 -->
<g id="edge10" class="edge"><title>Node10&#45;&gt;Node9</title>
<path fill="none" stroke="#9a32cd" stroke-dasharray="5,2" d="M1211.53,-377.017C1181.64,-371.896 1143.87,-365.883 1110,-361.863 860.327,-332.226 558.984,-316.802 446.864,-311.759"/>
<polygon fill="#9a32cd" stroke="#9a32cd" points="1211.3,-380.53 1221.75,-378.786 1212.5,-373.632 1211.3,-380.53"/>
<text text-anchor="middle" x="881" y="-346.863" font-family="Helvetica,sans-Serif" font-size="10.00"> myWorkspace</text>
</g>
<!-- Node33 -->
<g id="node33" class="node"><title>Node33</title>
<g id="a_node33"><a xlink:href="../../de/d0a/classview_1_1_drawer.html" target="_top" xlink:title="view.Drawer">
<polygon fill="white" stroke="black" points="1418.5,-275.363 1418.5,-294.363 1491.5,-294.363 1491.5,-275.363 1418.5,-275.363"/>
<text text-anchor="middle" x="1455" y="-282.363" font-family="Helvetica,sans-Serif" font-size="10.00">view.Drawer</text>
</a>
</g>
</g>
<!-- Node10&#45;&gt;Node33 -->
<g id="edge41" class="edge"><title>Node10&#45;&gt;Node33</title>
<path fill="none" stroke="#9a32cd" stroke-dasharray="5,2" d="M1294.58,-372.287C1333.17,-351.126 1403.66,-312.467 1436.41,-294.508"/>
<polygon fill="#9a32cd" stroke="#9a32cd" points="1292.58,-369.39 1285.5,-377.267 1295.95,-375.527 1292.58,-369.39"/>
<text text-anchor="middle" x="1365" y="-354.863" font-family="Helvetica,sans-Serif" font-size="10.00"> myWorkspace</text>
</g>
<!-- Node11 -->
<g id="node11" class="node"><title>Node11</title>
<polygon fill="white" stroke="#bfbfbf" points="996.5,-421.363 996.5,-440.363 1063.5,-440.363 1063.5,-421.363 996.5,-421.363"/>
<text text-anchor="middle" x="1030" y="-428.363" font-family="Helvetica,sans-Serif" font-size="10.00">StackPane</text>
</g>
<!-- Node11&#45;&gt;Node10 -->
<g id="edge11" class="edge"><title>Node11&#45;&gt;Node10</title>
<path fill="none" stroke="midnightblue" d="M1073.56,-424.594C1108.68,-419.215 1159.74,-410.915 1204,-401.863 1211.92,-400.243 1220.37,-398.327 1228.39,-396.416"/>
<polygon fill="midnightblue" stroke="midnightblue" points="1073.01,-421.137 1063.65,-426.1 1074.06,-428.058 1073.01,-421.137"/>
</g>
<!-- Node12 -->
<g id="node12" class="node"><title>Node12</title>
<g id="a_node12"><a xlink:href="../../d8/df7/classview_1_1_turtle_view.html" target="_top" xlink:title="view.TurtleView">
<polygon fill="white" stroke="black" points="987,-459.363 987,-478.363 1073,-478.363 1073,-459.363 987,-459.363"/>
<text text-anchor="middle" x="1030" y="-466.363" font-family="Helvetica,sans-Serif" font-size="10.00">view.TurtleView</text>
</a>
</g>
</g>
<!-- Node12&#45;&gt;Node10 -->
<g id="edge12" class="edge"><title>Node12&#45;&gt;Node10</title>
<path fill="none" stroke="#9a32cd" stroke-dasharray="5,2" d="M1083.02,-459.102C1118.05,-451.553 1164.84,-439.554 1204,-422.863 1221.18,-415.543 1239.51,-404.441 1251.75,-396.503"/>
<polygon fill="#9a32cd" stroke="#9a32cd" points="1082.07,-455.725 1073,-461.208 1083.51,-462.575 1082.07,-455.725"/>
<text text-anchor="middle" x="1166" y="-450.863" font-family="Helvetica,sans-Serif" font-size="10.00"> myActiveTurtle</text>
</g>
<!-- Node13 -->
<g id="node13" class="node"><title>Node13</title>
<polygon fill="white" stroke="#bfbfbf" points="691,-459.363 691,-478.363 759,-478.363 759,-459.363 691,-459.363"/>
<text text-anchor="middle" x="725" y="-466.363" font-family="Helvetica,sans-Serif" font-size="10.00">ImageView</text>
</g>
<!-- Node13&#45;&gt;Node12 -->
<g id="edge13" class="edge"><title>Node13&#45;&gt;Node12</title>
<path fill="none" stroke="midnightblue" d="M769.293,-468.863C827.268,-468.863 929.46,-468.863 986.848,-468.863"/>
<polygon fill="midnightblue" stroke="midnightblue" points="769.003,-465.363 759.003,-468.863 769.003,-472.363 769.003,-465.363"/>
</g>
<!-- Node14 -->
<g id="node14" class="node"><title>Node14</title>
<polygon fill="white" stroke="#bfbfbf" points="962,-371.863 962,-401.863 1098,-401.863 1098,-371.863 962,-371.863"/>
<text text-anchor="start" x="970" y="-389.863" font-family="Helvetica,sans-Serif" font-size="10.00">Map&lt; Integer, view.Turtle</text>
<text text-anchor="middle" x="1030" y="-378.863" font-family="Helvetica,sans-Serif" font-size="10.00">View &gt;</text>
</g>
<!-- Node14&#45;&gt;Node10 -->
<g id="edge14" class="edge"><title>Node14&#45;&gt;Node10</title>
<path fill="none" stroke="#9a32cd" stroke-dasharray="5,2" d="M1108.47,-386.863C1146.14,-386.863 1190.04,-386.863 1221.91,-386.863"/>
<polygon fill="#9a32cd" stroke="#9a32cd" points="1108.03,-383.363 1098.03,-386.863 1108.03,-390.363 1108.03,-383.363"/>
<text text-anchor="middle" x="1166" y="-389.863" font-family="Helvetica,sans-Serif" font-size="10.00"> myTurtles</text>
</g>
<!-- Node15 -->
<g id="node15" class="node"><title>Node15</title>
<g id="a_node15"><a xlink:href="../../d1/dc7/classview_1_1_side_bar.html" target="_top" xlink:title="view.SideBar">
<polygon fill="white" stroke="black" points="991.5,-137.363 991.5,-156.363 1068.5,-156.363 1068.5,-137.363 991.5,-137.363"/>
<text text-anchor="middle" x="1030" y="-144.363" font-family="Helvetica,sans-Serif" font-size="10.00">view.SideBar</text>
</a>
</g>
</g>
<!-- Node15&#45;&gt;Node9 -->
<g id="edge43" class="edge"><title>Node15&#45;&gt;Node9</title>
<path fill="none" stroke="#9a32cd" stroke-dasharray="5,2" d="M981.325,-140.687C891.413,-129.731 700.237,-109.93 638,-130.863 533.206,-166.109 437.974,-268.408 410.157,-300.272"/>
<polygon fill="#9a32cd" stroke="#9a32cd" points="980.903,-144.161 991.257,-141.911 981.76,-137.214 980.903,-144.161"/>
<text text-anchor="middle" x="725" y="-133.863" font-family="Helvetica,sans-Serif" font-size="10.00"> mySidebar</text>
</g>
<!-- Node15&#45;&gt;Node10 -->
<g id="edge15" class="edge"><title>Node15&#45;&gt;Node10</title>
<path fill="none" stroke="#9a32cd" stroke-dasharray="5,2" d="M1050.69,-162.997C1067.02,-176.62 1090.6,-196.884 1110,-215.863 1154.3,-259.206 1162.23,-273.075 1204,-318.863 1222.95,-339.636 1245.15,-363.987 1257.17,-377.177"/>
<polygon fill="#9a32cd" stroke="#9a32cd" points="1052.81,-160.208 1042.88,-156.521 1048.35,-165.597 1052.81,-160.208"/>
<text text-anchor="middle" x="1166" y="-321.863" font-family="Helvetica,sans-Serif" font-size="10.00"> mySidebar</text>
</g>
<!-- Node27 -->
<g id="node27" class="node"><title>Node27</title>
<g id="a_node27"><a xlink:href="../../da/dc8/classview_1_1_editor.html" target="_top" xlink:title="view.Editor">
<polygon fill="white" stroke="black" points="1233.5,-80.3628 1233.5,-99.3628 1300.5,-99.3628 1300.5,-80.3628 1233.5,-80.3628"/>
<text text-anchor="middle" x="1267" y="-87.3628" font-family="Helvetica,sans-Serif" font-size="10.00">view.Editor</text>
</a>
</g>
</g>
<!-- Node15&#45;&gt;Node27 -->
<g id="edge36" class="edge"><title>Node15&#45;&gt;Node27</title>
<path fill="none" stroke="#9a32cd" stroke-dasharray="5,2" d="M1078.66,-141.196C1113.77,-136.33 1162.45,-128.135 1204,-115.863 1218.55,-111.565 1234.31,-104.927 1246.3,-99.4345"/>
<polygon fill="#9a32cd" stroke="#9a32cd" points="1078.12,-137.737 1068.67,-142.54 1079.05,-144.674 1078.12,-137.737"/>
<text text-anchor="middle" x="1166" y="-136.863" font-family="Helvetica,sans-Serif" font-size="10.00"> mySidebar</text>
</g>
<!-- Node16 -->
<g id="node16" class="node"><title>Node16</title>
<polygon fill="white" stroke="#bfbfbf" points="704.5,-151.363 704.5,-170.363 745.5,-170.363 745.5,-151.363 704.5,-151.363"/>
<text text-anchor="middle" x="725" y="-158.363" font-family="Helvetica,sans-Serif" font-size="10.00">VBox</text>
</g>
<!-- Node16&#45;&gt;Node15 -->
<g id="edge16" class="edge"><title>Node16&#45;&gt;Node15</title>
<path fill="none" stroke="midnightblue" d="M756.138,-159.47C811.816,-156.898 930.647,-151.407 991.457,-148.597"/>
<polygon fill="midnightblue" stroke="midnightblue" points="755.708,-155.986 745.881,-159.944 756.032,-162.979 755.708,-155.986"/>
</g>
<!-- Node17 -->
<g id="node17" class="node"><title>Node17</title>
<polygon fill="white" stroke="#bfbfbf" points="638.5,-66.3628 638.5,-85.3628 811.5,-85.3628 811.5,-66.3628 638.5,-66.3628"/>
<text text-anchor="middle" x="725" y="-73.3628" font-family="Helvetica,sans-Serif" font-size="10.00">ObservableList&lt; view.Property &gt;</text>
</g>
<!-- Node17&#45;&gt;Node15 -->
<g id="edge17" class="edge"><title>Node17&#45;&gt;Node15</title>
<path fill="none" stroke="#9a32cd" stroke-dasharray="5,2" d="M822.046,-67.7499C858.962,-69.0111 899.905,-76.1475 932,-96.8628 945.386,-105.503 937.225,-118.343 950,-127.863 961.877,-136.713 977.301,-141.499 991.365,-144.067"/>
<polygon fill="#9a32cd" stroke="#9a32cd" points="821.82,-64.2448 811.752,-67.5436 821.68,-71.2434 821.82,-64.2448"/>
<text text-anchor="middle" x="881" y="-99.8628" font-family="Helvetica,sans-Serif" font-size="10.00"> variablesList</text>
</g>
<!-- Node18 -->
<g id="node18" class="node"><title>Node18</title>
<polygon fill="white" stroke="#bfbfbf" points="40.5,-24.3628 40.5,-43.3628 133.5,-43.3628 133.5,-24.3628 40.5,-24.3628"/>
<text text-anchor="middle" x="87" y="-31.3628" font-family="Helvetica,sans-Serif" font-size="10.00">ResourceBundle</text>
</g>
<!-- Node18&#45;&gt;Node9 -->
<g id="edge30" class="edge"><title>Node18&#45;&gt;Node9</title>
<path fill="none" stroke="#9a32cd" stroke-dasharray="5,2" d="M106.408,-50.1464C164.494,-101.531 342.796,-259.26 388.982,-300.116"/>
<polygon fill="#9a32cd" stroke="#9a32cd" points="108.549,-47.3676 98.7397,-43.3633 103.911,-52.6106 108.549,-47.3676"/>
<text text-anchor="middle" x="248" y="-223.863" font-family="Helvetica,sans-Serif" font-size="10.00"> myResources</text>
</g>
<!-- Node18&#45;&gt;Node15 -->
<g id="edge18" class="edge"><title>Node18&#45;&gt;Node15</title>
<path fill="none" stroke="#9a32cd" stroke-dasharray="5,2" d="M143.734,-29.0985C322.52,-14.3883 873.409,26.2759 932,-25.8628 966.389,-56.465 918.463,-94.3289 950,-127.863 960.534,-139.064 976.419,-144.171 991.19,-146.343"/>
<polygon fill="#9a32cd" stroke="#9a32cd" points="143.426,-25.6119 133.749,-29.925 144.003,-32.5881 143.426,-25.6119"/>
<text text-anchor="middle" x="559" y="-8.86279" font-family="Helvetica,sans-Serif" font-size="10.00"> myResources</text>
</g>
<!-- Node19 -->
<g id="node19" class="node"><title>Node19</title>
<polygon fill="white" stroke="#bfbfbf" points="651,-28.3628 651,-47.3628 799,-47.3628 799,-28.3628 651,-28.3628"/>
<text text-anchor="middle" x="725" y="-35.3628" font-family="Helvetica,sans-Serif" font-size="10.00">TableView&lt; view.Property &gt;</text>
</g>
<!-- Node19&#45;&gt;Node15 -->
<g id="edge19" class="edge"><title>Node19&#45;&gt;Node15</title>
<path fill="none" stroke="#9a32cd" stroke-dasharray="5,2" d="M809.488,-29.7351C858.204,-26.8974 913.599,-27.5768 932,-42.8628 961.704,-67.5379 923.071,-100.187 950,-127.863 960.723,-138.883 976.636,-143.963 991.376,-146.164"/>
<polygon fill="#9a32cd" stroke="#9a32cd" points="808.967,-26.2611 799.21,-30.39 809.412,-33.2469 808.967,-26.2611"/>
<text text-anchor="middle" x="881" y="-56.8628" font-family="Helvetica,sans-Serif" font-size="10.00"> turtlePropertiesTable</text>
<text text-anchor="middle" x="881" y="-45.8628" font-family="Helvetica,sans-Serif" font-size="10.00">variablesTable</text>
</g>
<!-- Node20&#45;&gt;Node9 -->
<g id="edge38" class="edge"><title>Node20&#45;&gt;Node9</title>
<path fill="none" stroke="#9a32cd" stroke-dasharray="5,2" d="M686.248,-369.809C671.104,-364.316 653.581,-357.634 638,-350.863 629.797,-347.298 628.532,-344.546 620,-341.863 588.618,-331.993 500.997,-320.941 446.874,-314.75"/>
<polygon fill="#9a32cd" stroke="#9a32cd" points="685.217,-373.158 695.812,-373.236 687.578,-366.568 685.217,-373.158"/>
<text text-anchor="middle" x="559" y="-344.863" font-family="Helvetica,sans-Serif" font-size="10.00"> myParser</text>
</g>
<!-- Node20&#45;&gt;Node15 -->
<g id="edge20" class="edge"><title>Node20&#45;&gt;Node15</title>
<path fill="none" stroke="#9a32cd" stroke-dasharray="5,2" d="M741.096,-365.62C760.203,-344.555 794.879,-308.776 830,-284.863 871.414,-256.665 892.145,-267.224 932,-236.863 941.779,-229.414 941.348,-224.595 950,-215.863 972.429,-193.224 1001.11,-169.293 1017.01,-156.416"/>
<polygon fill="#9a32cd" stroke="#9a32cd" points="738.402,-363.382 734.345,-373.169 743.62,-368.048 738.402,-363.382"/>
<text text-anchor="middle" x="881" y="-287.863" font-family="Helvetica,sans-Serif" font-size="10.00"> myParser</text>
</g>
<!-- Node20&#45;&gt;Node27 -->
<g id="edge34" class="edge"><title>Node20&#45;&gt;Node27</title>
<path fill="none" stroke="#9a32cd" stroke-dasharray="5,2" d="M748.856,-367.691C769.387,-354.609 800.72,-335.966 830,-323.863 873.445,-305.904 896.819,-327.044 932,-295.863 947.812,-281.849 935.037,-266.78 950,-251.863 1036.27,-165.857 1101.63,-214.9 1204,-148.863 1225.98,-134.686 1247.04,-112.116 1258.06,-99.3936"/>
<polygon fill="#9a32cd" stroke="#9a32cd" points="746.727,-364.9 740.229,-373.268 750.527,-370.778 746.727,-364.9"/>
<text text-anchor="middle" x="1030" y="-254.863" font-family="Helvetica,sans-Serif" font-size="10.00"> myParser</text>
</g>
<!-- Node21 -->
<g id="node21" class="node"><title>Node21</title>
<polygon fill="white" stroke="#bfbfbf" points="345,-445.863 345,-475.863 457,-475.863 457,-445.863 345,-445.863"/>
<text text-anchor="start" x="353" y="-463.863" font-family="Helvetica,sans-Serif" font-size="10.00">List&lt; Entry&lt; String,</text>
<text text-anchor="middle" x="401" y="-452.863" font-family="Helvetica,sans-Serif" font-size="10.00"> Pattern &gt; &gt;</text>
</g>
<!-- Node21&#45;&gt;Node20 -->
<g id="edge22" class="edge"><title>Node21&#45;&gt;Node20</title>
<path fill="none" stroke="#9a32cd" stroke-dasharray="5,2" d="M467.301,-469.573C511.514,-473.101 570.637,-473.133 620,-456.863 659.987,-443.683 697.906,-409.305 714.8,-392.454"/>
<polygon fill="#9a32cd" stroke="#9a32cd" points="467.519,-466.079 457.252,-468.691 466.907,-473.052 467.519,-466.079"/>
<text text-anchor="middle" x="559" y="-474.863" font-family="Helvetica,sans-Serif" font-size="10.00"> myPatterns</text>
</g>
<!-- Node22 -->
<g id="node22" class="node"><title>Node22</title>
<polygon fill="white" stroke="#bfbfbf" points="340,-401.363 340,-420.363 462,-420.363 462,-401.363 340,-401.363"/>
<text text-anchor="middle" x="401" y="-408.363" font-family="Helvetica,sans-Serif" font-size="10.00">Map&lt; String, String &gt;</text>
</g>
<!-- Node22&#45;&gt;Node20 -->
<g id="edge24" class="edge"><title>Node22&#45;&gt;Node20</title>
<path fill="none" stroke="#9a32cd" stroke-dasharray="5,2" d="M472.39,-404.742C537.597,-399.072 632.209,-390.845 684.877,-386.265"/>
<polygon fill="#9a32cd" stroke="#9a32cd" points="471.847,-401.276 462.188,-405.629 472.454,-408.25 471.847,-401.276"/>
<text text-anchor="middle" x="559" y="-404.863" font-family="Helvetica,sans-Serif" font-size="10.00"> myCommandMap</text>
</g>
<!-- Node23 -->
<g id="node23" class="node"><title>Node23</title>
<polygon fill="white" stroke="#bfbfbf" points="656,-227.363 656,-246.363 794,-246.363 794,-227.363 656,-227.363"/>
<text text-anchor="middle" x="725" y="-234.363" font-family="Helvetica,sans-Serif" font-size="10.00">ObservableList&lt; String &gt;</text>
</g>
<!-- Node23&#45;&gt;Node15 -->
<g id="edge26" class="edge"><title>Node23&#45;&gt;Node15</title>
<path fill="none" stroke="#9a32cd" stroke-dasharray="5,2" d="M780.917,-225.178C839.456,-212.674 924.764,-194.299 932,-191.863 960.678,-182.209 992.161,-166.605 1011.25,-156.542"/>
<polygon fill="#9a32cd" stroke="#9a32cd" points="780.095,-221.774 771.046,-227.284 781.556,-228.62 780.095,-221.774"/>
<text text-anchor="middle" x="881" y="-228.863" font-family="Helvetica,sans-Serif" font-size="10.00"> commandItems</text>
<text text-anchor="middle" x="881" y="-217.863" font-family="Helvetica,sans-Serif" font-size="10.00">historyItems</text>
</g>
<!-- Node24 -->
<g id="node24" class="node"><title>Node24</title>
<polygon fill="white" stroke="#bfbfbf" points="672,-189.363 672,-208.363 778,-208.363 778,-189.363 672,-189.363"/>
<text text-anchor="middle" x="725" y="-196.363" font-family="Helvetica,sans-Serif" font-size="10.00">ListView&lt; String &gt;</text>
</g>
<!-- Node24&#45;&gt;Node15 -->
<g id="edge27" class="edge"><title>Node24&#45;&gt;Node15</title>
<path fill="none" stroke="#9a32cd" stroke-dasharray="5,2" d="M788.008,-188.108C801.829,-185.717 816.413,-183.199 830,-180.863 886.131,-171.21 951.185,-160.112 991.216,-153.293"/>
<polygon fill="#9a32cd" stroke="#9a32cd" points="787.361,-184.668 778.104,-189.822 788.554,-191.565 787.361,-184.668"/>
<text text-anchor="middle" x="881" y="-183.863" font-family="Helvetica,sans-Serif" font-size="10.00"> historyList</text>
</g>
<!-- Node25 -->
<g id="node25" class="node"><title>Node25</title>
<polygon fill="white" stroke="#bfbfbf" points="998.5,-497.363 998.5,-516.363 1061.5,-516.363 1061.5,-497.363 998.5,-497.363"/>
<text text-anchor="middle" x="1030" y="-504.363" font-family="Helvetica,sans-Serif" font-size="10.00">Rectangle</text>
</g>
<!-- Node25&#45;&gt;Node10 -->
<g id="edge28" class="edge"><title>Node25&#45;&gt;Node10</title>
<path fill="none" stroke="#9a32cd" stroke-dasharray="5,2" d="M1071.74,-503.88C1108.78,-499.54 1163.66,-488.903 1204,-462.863 1230.9,-445.501 1251.73,-412.652 1260.89,-396.426"/>
<polygon fill="#9a32cd" stroke="#9a32cd" points="1071.36,-500.401 1061.79,-504.945 1072.11,-507.361 1071.36,-500.401"/>
<text text-anchor="middle" x="1166" y="-495.863" font-family="Helvetica,sans-Serif" font-size="10.00"> myBackground</text>
</g>
<!-- Node26 -->
<g id="node26" class="node"><title>Node26</title>
<polygon fill="white" stroke="#bfbfbf" points="64.5,-357.363 64.5,-376.363 109.5,-376.363 109.5,-357.363 64.5,-357.363"/>
<text text-anchor="middle" x="87" y="-364.363" font-family="Helvetica,sans-Serif" font-size="10.00">Stage</text>
</g>
<!-- Node26&#45;&gt;Node9 -->
<g id="edge29" class="edge"><title>Node26&#45;&gt;Node9</title>
<path fill="none" stroke="#9a32cd" stroke-dasharray="5,2" d="M119.62,-364.12C161.933,-360.108 239.164,-351.589 304,-337.863 326.929,-333.008 352.372,-325.487 371.301,-319.462"/>
<polygon fill="#9a32cd" stroke="#9a32cd" points="119.279,-360.636 109.644,-365.043 119.924,-367.607 119.279,-360.636"/>
<text text-anchor="middle" x="248" y="-359.863" font-family="Helvetica,sans-Serif" font-size="10.00"> myStage</text>
</g>
<!-- Node27&#45;&gt;Node9 -->
<g id="edge31" class="edge"><title>Node27&#45;&gt;Node9</title>
<path fill="none" stroke="#9a32cd" stroke-dasharray="5,2" d="M1247.53,-73.6135C1235.73,-63.9045 1219.74,-51.9304 1204,-43.8628 1164.97,-23.8604 1153.33,-20.6098 1110,-13.8628 1069.45,-7.54824 675.943,-4.62503 638,-18.8628 500.974,-70.28 422.51,-256.106 405.516,-300.357"/>
<polygon fill="#9a32cd" stroke="#9a32cd" points="1245.42,-76.4124 1255.31,-80.1946 1249.93,-71.0662 1245.42,-76.4124"/>
<text text-anchor="middle" x="881" y="-12.8628" font-family="Helvetica,sans-Serif" font-size="10.00"> myEditor</text>
</g>
<!-- Node28 -->
<g id="node28" class="node"><title>Node28</title>
<polygon fill="white" stroke="#bfbfbf" points="1009,-61.3628 1009,-80.3628 1051,-80.3628 1051,-61.3628 1009,-61.3628"/>
<text text-anchor="middle" x="1030" y="-68.3628" font-family="Helvetica,sans-Serif" font-size="10.00">HBox</text>
</g>
<!-- Node28&#45;&gt;Node27 -->
<g id="edge32" class="edge"><title>Node28&#45;&gt;Node27</title>
<path fill="none" stroke="midnightblue" d="M1061.18,-73.3027C1105.49,-76.8851 1187.81,-83.5413 1233.44,-87.2303"/>
<polygon fill="midnightblue" stroke="midnightblue" points="1061.29,-69.8001 1051.04,-72.4827 1060.72,-76.7773 1061.29,-69.8001"/>
</g>
<!-- Node29 -->
<g id="node29" class="node"><title>Node29</title>
<polygon fill="white" stroke="#bfbfbf" points="1005.5,-23.3628 1005.5,-42.3628 1054.5,-42.3628 1054.5,-23.3628 1005.5,-23.3628"/>
<text text-anchor="middle" x="1030" y="-30.3628" font-family="Helvetica,sans-Serif" font-size="10.00">Button</text>
</g>
<!-- Node29&#45;&gt;Node27 -->
<g id="edge33" class="edge"><title>Node29&#45;&gt;Node27</title>
<path fill="none" stroke="#9a32cd" stroke-dasharray="5,2" d="M1064.78,-37.0682C1099.99,-41.9246 1156.56,-51.0612 1204,-64.8628 1218.15,-68.98 1233.52,-75.1649 1245.42,-80.3526"/>
<polygon fill="#9a32cd" stroke="#9a32cd" points="1064.95,-33.5594 1054.57,-35.6981 1064.02,-40.4972 1064.95,-33.5594"/>
<text text-anchor="middle" x="1166" y="-67.8628" font-family="Helvetica,sans-Serif" font-size="10.00"> runButton</text>
</g>
<!-- Node30 -->
<g id="node30" class="node"><title>Node30</title>
<polygon fill="white" stroke="#bfbfbf" points="1001,-99.3628 1001,-118.363 1059,-118.363 1059,-99.3628 1001,-99.3628"/>
<text text-anchor="middle" x="1030" y="-106.363" font-family="Helvetica,sans-Serif" font-size="10.00">TextArea</text>
</g>
<!-- Node30&#45;&gt;Node27 -->
<g id="edge35" class="edge"><title>Node30&#45;&gt;Node27</title>
<path fill="none" stroke="#9a32cd" stroke-dasharray="5,2" d="M1069.45,-105.754C1115.11,-102.062 1190.48,-95.9685 1233.41,-92.4979"/>
<polygon fill="#9a32cd" stroke="#9a32cd" points="1069.03,-102.276 1059.35,-106.571 1069.6,-109.254 1069.03,-102.276"/>
<text text-anchor="middle" x="1166" y="-103.863" font-family="Helvetica,sans-Serif" font-size="10.00"> textEditor</text>
</g>
<!-- Node31 -->
<g id="node31" class="node"><title>Node31</title>
<polygon fill="white" stroke="#bfbfbf" points="27.5,-319.363 27.5,-338.363 146.5,-338.363 146.5,-319.363 27.5,-319.363"/>
<text text-anchor="middle" x="87" y="-326.363" font-family="Helvetica,sans-Serif" font-size="10.00">Map&lt; String, Node &gt;</text>
</g>
<!-- Node31&#45;&gt;Node9 -->
<g id="edge37" class="edge"><title>Node31&#45;&gt;Node9</title>
<path fill="none" stroke="#9a32cd" stroke-dasharray="5,2" d="M156.899,-324.667C217.301,-320.989 303.343,-315.749 355.212,-312.59"/>
<polygon fill="#9a32cd" stroke="#9a32cd" points="156.454,-321.188 146.685,-325.289 156.879,-328.175 156.454,-321.188"/>
<text text-anchor="middle" x="248" y="-325.863" font-family="Helvetica,sans-Serif" font-size="10.00"> variables</text>
</g>
<!-- Node32 -->
<g id="node32" class="node"><title>Node32</title>
<polygon fill="white" stroke="#bfbfbf" points="46.5,-281.363 46.5,-300.363 127.5,-300.363 127.5,-281.363 46.5,-281.363"/>
<text text-anchor="middle" x="87" y="-288.363" font-family="Helvetica,sans-Serif" font-size="10.00">Dimension2D</text>
</g>
<!-- Node32&#45;&gt;Node9 -->
<g id="edge39" class="edge"><title>Node32&#45;&gt;Node9</title>
<path fill="none" stroke="#9a32cd" stroke-dasharray="5,2" d="M137.935,-292.948C181.731,-294.887 247.119,-298.045 304,-301.863 320.687,-302.983 338.986,-304.448 355.091,-305.819"/>
<polygon fill="#9a32cd" stroke="#9a32cd" points="137.977,-289.447 127.833,-292.506 137.671,-296.44 137.977,-289.447"/>
<text text-anchor="middle" x="248" y="-304.863" font-family="Helvetica,sans-Serif" font-size="10.00"> myDimensions</text>
</g>
<!-- Node33&#45;&gt;Node9 -->
<g id="edge40" class="edge"><title>Node33&#45;&gt;Node9</title>
<path fill="none" stroke="#9a32cd" stroke-dasharray="5,2" d="M1408.2,-284.863C1370.55,-284.863 1315.82,-284.863 1268,-284.863 724,-284.863 724,-284.863 724,-284.863 624.754,-284.863 508.817,-296.814 446.713,-304.19"/>
<polygon fill="#9a32cd" stroke="#9a32cd" points="1408.34,-288.363 1418.34,-284.863 1408.34,-281.363 1408.34,-288.363"/>
<text text-anchor="middle" x="1030" y="-287.863" font-family="Helvetica,sans-Serif" font-size="10.00"> drawer</text>
</g>
<!-- Node34 -->
<g id="node34" class="node"><title>Node34</title>
<polygon fill="white" stroke="#bfbfbf" points="1246.5,-237.363 1246.5,-256.363 1287.5,-256.363 1287.5,-237.363 1246.5,-237.363"/>
<text text-anchor="middle" x="1267" y="-244.363" font-family="Helvetica,sans-Serif" font-size="10.00">Color</text>
</g>
<!-- Node34&#45;&gt;Node33 -->
<g id="edge42" class="edge"><title>Node34&#45;&gt;Node33</title>
<path fill="none" stroke="#9a32cd" stroke-dasharray="5,2" d="M1297.61,-246.965C1324.71,-247.715 1365.67,-250.515 1400,-259.863 1412.96,-263.392 1426.68,-269.783 1437.05,-275.22"/>
<polygon fill="#9a32cd" stroke="#9a32cd" points="1297.67,-243.465 1287.6,-246.763 1297.53,-250.464 1297.67,-243.465"/>
<text text-anchor="middle" x="1365" y="-262.863" font-family="Helvetica,sans-Serif" font-size="10.00"> myColor</text>
</g>
<!-- Node35 -->
<g id="node35" class="node"><title>Node35</title>
<polygon fill="white" stroke="#bfbfbf" points="64,-243.363 64,-262.363 110,-262.363 110,-243.363 64,-243.363"/>
<text text-anchor="middle" x="87" y="-250.363" font-family="Helvetica,sans-Serif" font-size="10.00">Group</text>
</g>
<!-- Node35&#45;&gt;Node9 -->
<g id="edge44" class="edge"><title>Node35&#45;&gt;Node9</title>
<path fill="none" stroke="#9a32cd" stroke-dasharray="5,2" d="M120.314,-255.382C162.792,-259.072 239.579,-267.055 304,-280.863 327.493,-285.898 353.554,-293.932 372.588,-300.268"/>
<polygon fill="#9a32cd" stroke="#9a32cd" points="120.541,-251.888 110.282,-254.535 119.952,-258.864 120.541,-251.888"/>
<text text-anchor="middle" x="248" y="-283.863" font-family="Helvetica,sans-Serif" font-size="10.00"> lines</text>
</g>
<!-- Node36 -->
<g id="node36" class="node"><title>Node36</title>
<g id="a_node36"><a xlink:href="../../d1/d0b/classmodel_1_1_polar.html" target="_top" xlink:title="model.Polar">
<polygon fill="white" stroke="black" points="364,-686.363 364,-705.363 438,-705.363 438,-686.363 364,-686.363"/>
<text text-anchor="middle" x="401" y="-693.363" font-family="Helvetica,sans-Serif" font-size="10.00">model.Polar</text>
</a>
</g>
</g>
<!-- Node36&#45;&gt;Node1 -->
<g id="edge45" class="edge"><title>Node36&#45;&gt;Node1</title>
<path fill="none" stroke="#9a32cd" stroke-dasharray="5,2" d="M448.213,-695.736C540.448,-695.068 753.828,-691.447 932,-672.863 938.017,-672.235 944.23,-671.493 950.47,-670.681"/>
<polygon fill="#9a32cd" stroke="#9a32cd" points="448.075,-692.237 438.098,-695.801 448.12,-699.237 448.075,-692.237"/>
<text text-anchor="middle" x="725" y="-694.863" font-family="Helvetica,sans-Serif" font-size="10.00"> myPolar</text>
</g>
<!-- Node37 -->
<g id="node37" class="node"><title>Node37</title>
<g id="a_node37"><a xlink:href="../../d6/d06/classmodel_1_1_turtle_command.html" target="_top" xlink:title="model.TurtleCommand">
<polygon fill="white" stroke="black" points="662.5,-648.363 662.5,-667.363 787.5,-667.363 787.5,-648.363 662.5,-648.363"/>
<text text-anchor="middle" x="725" y="-655.363" font-family="Helvetica,sans-Serif" font-size="10.00">model.TurtleCommand</text>
</a>
</g>
</g>
<!-- Node36&#45;&gt;Node37 -->
<g id="edge47" class="edge"><title>Node36&#45;&gt;Node37</title>
<path fill="none" stroke="#9a32cd" stroke-dasharray="5,2" d="M448.365,-686.855C464.08,-684.015 481.763,-681.051 498,-678.863 553.454,-671.389 616.924,-665.746 662.455,-662.201"/>
<polygon fill="#9a32cd" stroke="#9a32cd" points="447.561,-683.444 438.358,-688.694 448.826,-690.329 447.561,-683.444"/>
<text text-anchor="middle" x="559" y="-681.863" font-family="Helvetica,sans-Serif" font-size="10.00"> myPolar</text>
</g>
<!-- Node37&#45;&gt;Node1 -->
<g id="edge46" class="edge"><title>Node37&#45;&gt;Node1</title>
<path fill="none" stroke="#9a32cd" stroke-dasharray="5,2" d="M797.848,-657.863C843.732,-657.863 903.238,-657.863 950.382,-657.863"/>
<polygon fill="#9a32cd" stroke="#9a32cd" points="797.682,-654.363 787.682,-657.863 797.682,-661.363 797.682,-654.363"/>
<text text-anchor="middle" x="881" y="-660.863" font-family="Helvetica,sans-Serif" font-size="10.00"> myTurtle</text>
</g>
</g>
</svg>
