<?xml version="1.0" encoding="UTF-8" standalone="no"?>
<!DOCTYPE svg PUBLIC "-//W3C//DTD SVG 1.1//EN"
 "http://www.w3.org/Graphics/SVG/1.1/DTD/svg11.dtd">
<!-- Generated by graphviz version 2.36.0 (20140111.2315)
 -->
<!-- Title: model.instructions.MovementInstruction Pages: 1 -->
<!--zoomable 807 -->
<svg id="main" version="1.1" xmlns="http://www.w3.org/2000/svg" xmlns:xlink="http://www.w3.org/1999/xlink" xml:space="preserve" onload="init(evt)">
<style type="text/css"><![CDATA[
.edge:hover path { stroke: red; }
.edge:hover polygon { stroke: red; fill: red; }
]]></style>
<script type="text/javascript"><![CDATA[
var edges = document.getElementsByTagName('g');
if (edges && edges.length) {
  for (var i=0;i<edges.length;i++) {
    if (edges[i].id.substr(0,4)=='edge') {
      edges[i].setAttribute('class','edge');
    }
  }
}
]]></script>
        <defs>
                <circle id="rim" cx="0" cy="0" r="7"/>
                <circle id="rim2" cx="0" cy="0" r="3.5"/>
                <g id="zoomPlus">
                        <use xlink:href="#rim" fill="#404040">
                                <set attributeName="fill" to="#808080" begin="zoomplus.mouseover" end="zoomplus.mouseout"/>
                        </use>
                        <path d="M-4,0h8M0,-4v8" fill="none" stroke="white" stroke-width="1.5" pointer-events="none"/>
                </g>
                <g id="zoomMin">
                        <use xlink:href="#rim" fill="#404040">
                                <set attributeName="fill" to="#808080" begin="zoomminus.mouseover" end="zoomminus.mouseout"/>
                        </use>
                        <path d="M-4,0h8" fill="none" stroke="white" stroke-width="1.5" pointer-events="none"/>
                </g>
                <g id="dirArrow">
                        <path fill="none" stroke="white" stroke-width="1.5" d="M0,-3.0v7 M-2.5,-0.5L0,-3.0L2.5,-0.5"/>
                </g>
               <g id="resetDef">
                       <use xlink:href="#rim2" fill="#404040">
                               <set attributeName="fill" to="#808080" begin="reset.mouseover" end="reset.mouseout"/>
                       </use>
               </g>
        </defs>

<script type="text/javascript">
var viewWidth = 1500;
var viewHeight = 807;
var sectionId = 'dynsection-1';
</script>
<script xlink:href="../../svgpan.js"/>
<svg id="graph" class="graph">
<g id="viewport">
<title>model.instructions.MovementInstruction</title>
<polygon fill="white" stroke="none" points="-4,4 -4,-803 1496,-803 1496,4 -4,4"/>
<!-- Node1 -->
<g id="node1" class="node"><title>Node1</title>
<polygon fill="#bfbfbf" stroke="black" points="950.5,-525 950.5,-555 1109.5,-555 1109.5,-525 950.5,-525"/>
<text text-anchor="start" x="958.5" y="-543" font-family="Helvetica,sans-Serif" font-size="10.00">model.instructions.Movement</text>
<text text-anchor="middle" x="1030" y="-532" font-family="Helvetica,sans-Serif" font-size="10.00">Instruction</text>
</g>
<!-- Node2 -->
<g id="node2" class="node"><title>Node2</title>
<g id="a_node2"><a xlink:href="../../d1/dea/classmodel_1_1instructions_1_1_instruction.html" target="_top" xlink:title="model.instructions.Instruction">
<polygon fill="white" stroke="black" points="646,-524.5 646,-543.5 804,-543.5 804,-524.5 646,-524.5"/>
<text text-anchor="middle" x="725" y="-531.5" font-family="Helvetica,sans-Serif" font-size="10.00">model.instructions.Instruction</text>
</a>
</g>
</g>
<!-- Node2&#45;&gt;Node1 -->
<g id="edge1" class="edge"><title>Node2&#45;&gt;Node1</title>
<path fill="none" stroke="midnightblue" d="M814.223,-535.747C857.312,-536.6 908.725,-537.618 950.445,-538.444"/>
<polygon fill="midnightblue" stroke="midnightblue" points="814.097,-532.244 804.03,-535.545 813.959,-539.243 814.097,-532.244"/>
</g>
<!-- Node3 -->
<g id="node3" class="node"><title>Node3</title>
<polygon fill="white" stroke="#bfbfbf" points="57,-396.5 57,-415.5 117,-415.5 117,-396.5 57,-396.5"/>
<text text-anchor="middle" x="87" y="-403.5" font-family="Helvetica,sans-Serif" font-size="10.00">Observer</text>
</g>
<!-- Node3&#45;&gt;Node2 -->
<g id="edge2" class="edge"><title>Node3&#45;&gt;Node2</title>
<path fill="none" stroke="midnightblue" d="M127.149,-407.866C142.922,-410.253 160.531,-415.157 174,-425 186.863,-434.4 178.997,-446.795 192,-456 206.122,-465.997 480.861,-511.623 498,-514 546.965,-520.79 602.236,-525.729 645.862,-529.001"/>
<polygon fill="midnightblue" stroke="midnightblue" points="127.462,-404.378 117.11,-406.634 126.61,-411.326 127.462,-404.378"/>
</g>
<!-- Node9 -->
<g id="node9" class="node"><title>Node9</title>
<g id="a_node9"><a xlink:href="../../d6/de7/classview_1_1_s_logo_view.html" target="_top" xlink:title="view.SLogoView">
<polygon fill="white" stroke="black" points="355.5,-434.5 355.5,-453.5 446.5,-453.5 446.5,-434.5 355.5,-434.5"/>
<text text-anchor="middle" x="401" y="-441.5" font-family="Helvetica,sans-Serif" font-size="10.00">view.SLogoView</text>
</a>
</g>
</g>
<!-- Node3&#45;&gt;Node9 -->
<g id="edge9" class="edge"><title>Node3&#45;&gt;Node9</title>
<path fill="none" stroke="midnightblue" d="M127.334,-410.791C185.567,-417.883 294.395,-431.138 355.478,-438.577"/>
<polygon fill="midnightblue" stroke="midnightblue" points="127.422,-407.276 117.072,-409.541 126.575,-414.224 127.422,-407.276"/>
</g>
<!-- Node21 -->
<g id="node21" class="node"><title>Node21</title>
<g id="a_node21"><a xlink:href="../../dc/df5/classmodel_1_1_parser.html" target="_top" xlink:title="model.Parser">
<polygon fill="white" stroke="black" points="685,-99.5 685,-118.5 765,-118.5 765,-99.5 685,-99.5"/>
<text text-anchor="middle" x="725" y="-106.5" font-family="Helvetica,sans-Serif" font-size="10.00">model.Parser</text>
</a>
</g>
</g>
<!-- Node3&#45;&gt;Node21 -->
<g id="edge24" class="edge"><title>Node3&#45;&gt;Node21</title>
<path fill="none" stroke="midnightblue" d="M103.728,-388.99C123.049,-367.198 155.529,-327.502 174,-288 187.972,-258.12 176.178,-244.943 192,-216 232.417,-142.064 244.642,-111.404 322,-78 454.383,-20.8364 634.016,-75.7436 699.135,-99.3724"/>
<polygon fill="midnightblue" stroke="midnightblue" points="101.12,-386.656 97.0241,-396.428 106.319,-391.343 101.12,-386.656"/>
</g>
<!-- Node4 -->
<g id="node4" class="node"><title>Node4</title>
<g id="a_node4"><a xlink:href="../../d1/dca/classmodel_1_1_execution_environment.html" target="_top" xlink:title="model.ExecutionEnvironment">
<polygon fill="white" stroke="black" points="322.5,-210.5 322.5,-229.5 479.5,-229.5 479.5,-210.5 322.5,-210.5"/>
<text text-anchor="middle" x="401" y="-217.5" font-family="Helvetica,sans-Serif" font-size="10.00">model.ExecutionEnvironment</text>
</a>
</g>
</g>
<!-- Node4&#45;&gt;Node2 -->
<g id="edge3" class="edge"><title>Node4&#45;&gt;Node2</title>
<path fill="none" stroke="#9a32cd" stroke-dasharray="5,2" d="M419.387,-236.955C478.197,-294.304 668.547,-479.925 714.127,-524.372"/>
<polygon fill="#9a32cd" stroke="#9a32cd" points="421.593,-234.218 411.99,-229.742 416.706,-239.229 421.593,-234.218"/>
<text text-anchor="middle" x="559" y="-436" font-family="Helvetica,sans-Serif" font-size="10.00"> myEnvironment</text>
</g>
<!-- Node17 -->
<g id="node17" class="node"><title>Node17</title>
<g id="a_node17"><a xlink:href="../../d1/dc7/classview_1_1_side_bar.html" target="_top" xlink:title="view.SideBar">
<polygon fill="white" stroke="black" points="991.5,-312.5 991.5,-331.5 1068.5,-331.5 1068.5,-312.5 991.5,-312.5"/>
<text text-anchor="middle" x="1030" y="-319.5" font-family="Helvetica,sans-Serif" font-size="10.00">view.SideBar</text>
</a>
</g>
</g>
<!-- Node4&#45;&gt;Node17 -->
<g id="edge21" class="edge"><title>Node4&#45;&gt;Node17</title>
<path fill="none" stroke="#9a32cd" stroke-dasharray="5,2" d="M490.042,-216.291C573.367,-214.111 701.754,-214.198 812,-229 866.486,-236.315 881.592,-237.062 932,-259 965.142,-273.424 999.633,-298.711 1017.19,-312.453"/>
<polygon fill="#9a32cd" stroke="#9a32cd" points="489.754,-212.798 479.856,-216.575 489.949,-219.795 489.754,-212.798"/>
<text text-anchor="middle" x="725" y="-232" font-family="Helvetica,sans-Serif" font-size="10.00"> myEnvironment</text>
</g>
<!-- Node4&#45;&gt;Node21 -->
<g id="edge26" class="edge"><title>Node4&#45;&gt;Node21</title>
<path fill="none" stroke="#9a32cd" stroke-dasharray="5,2" d="M414.154,-202.281C430.386,-180.254 461.388,-143.548 498,-127 530.28,-112.41 628.897,-109.438 684.606,-108.96"/>
<polygon fill="#9a32cd" stroke="#9a32cd" points="411.276,-200.287 408.309,-210.458 416.971,-204.357 411.276,-200.287"/>
<text text-anchor="middle" x="559" y="-130" font-family="Helvetica,sans-Serif" font-size="10.00"> myExecutionParameters</text>
</g>
<!-- Node5 -->
<g id="node5" class="node"><title>Node5</title>
<polygon fill="white" stroke="#bfbfbf" points="51.5,-172.5 51.5,-191.5 122.5,-191.5 122.5,-172.5 51.5,-172.5"/>
<text text-anchor="middle" x="87" y="-179.5" font-family="Helvetica,sans-Serif" font-size="10.00">Observable</text>
</g>
<!-- Node5&#45;&gt;Node4 -->
<g id="edge4" class="edge"><title>Node5&#45;&gt;Node4</title>
<path fill="none" stroke="midnightblue" d="M132.637,-187.437C182.066,-193.457 262.658,-203.272 322.457,-210.556"/>
<polygon fill="midnightblue" stroke="midnightblue" points="132.931,-183.947 122.582,-186.212 132.085,-190.895 132.931,-183.947"/>
</g>
<!-- Node6 -->
<g id="node6" class="node"><title>Node6</title>
<polygon fill="white" stroke="#bfbfbf" points="0,-249 0,-279 174,-279 174,-249 0,-249"/>
<text text-anchor="start" x="8" y="-267" font-family="Helvetica,sans-Serif" font-size="10.00">Map&lt; String, model.instructions.</text>
<text text-anchor="middle" x="87" y="-256" font-family="Helvetica,sans-Serif" font-size="10.00">Instruction &gt;</text>
</g>
<!-- Node6&#45;&gt;Node4 -->
<g id="edge5" class="edge"><title>Node6&#45;&gt;Node4</title>
<path fill="none" stroke="#9a32cd" stroke-dasharray="5,2" d="M184.616,-251.48C221.941,-246.525 264.983,-240.667 304,-235 315.769,-233.291 328.337,-231.385 340.37,-229.521"/>
<polygon fill="#9a32cd" stroke="#9a32cd" points="183.702,-248.071 174.248,-252.853 184.621,-255.01 183.702,-248.071"/>
<text text-anchor="middle" x="248" y="-254" font-family="Helvetica,sans-Serif" font-size="10.00"> myUserInstructionMap</text>
</g>
<!-- Node7 -->
<g id="node7" class="node"><title>Node7</title>
<polygon fill="white" stroke="#bfbfbf" points="23,-210.5 23,-229.5 151,-229.5 151,-210.5 23,-210.5"/>
<text text-anchor="middle" x="87" y="-217.5" font-family="Helvetica,sans-Serif" font-size="10.00">Map&lt; String, Double &gt;</text>
</g>
<!-- Node7&#45;&gt;Node4 -->
<g id="edge6" class="edge"><title>Node7&#45;&gt;Node4</title>
<path fill="none" stroke="#9a32cd" stroke-dasharray="5,2" d="M161.23,-220C209.637,-220 273.011,-220 322.303,-220"/>
<polygon fill="#9a32cd" stroke="#9a32cd" points="161.138,-216.5 151.138,-220 161.138,-223.5 161.138,-216.5"/>
<text text-anchor="middle" x="248" y="-223" font-family="Helvetica,sans-Serif" font-size="10.00"> myVariableMap</text>
</g>
<!-- Node8 -->
<g id="node8" class="node"><title>Node8</title>
<polygon fill="white" stroke="#bfbfbf" points="333,-538 333,-568 469,-568 469,-538 333,-538"/>
<text text-anchor="start" x="341" y="-556" font-family="Helvetica,sans-Serif" font-size="10.00">List&lt; model.instructions.</text>
<text text-anchor="middle" x="401" y="-545" font-family="Helvetica,sans-Serif" font-size="10.00">Instruction &gt;</text>
</g>
<!-- Node8&#45;&gt;Node2 -->
<g id="edge7" class="edge"><title>Node8&#45;&gt;Node2</title>
<path fill="none" stroke="#9a32cd" stroke-dasharray="5,2" d="M479.307,-548.438C529.736,-545.463 595.34,-541.592 645.923,-538.607"/>
<polygon fill="#9a32cd" stroke="#9a32cd" points="478.886,-544.957 469.11,-549.04 479.299,-551.945 478.886,-544.957"/>
<text text-anchor="middle" x="559" y="-550" font-family="Helvetica,sans-Serif" font-size="10.00"> myDependencies</text>
</g>
<!-- Node9&#45;&gt;Node2 -->
<g id="edge8" class="edge"><title>Node9&#45;&gt;Node2</title>
<path fill="none" stroke="#9a32cd" stroke-dasharray="5,2" d="M433.544,-457.401C452.058,-464.867 476.058,-473.867 498,-480 551.141,-494.853 566.95,-487.825 620,-503 628.253,-505.361 629.856,-507.288 638,-510 653.736,-515.241 671.342,-520.294 686.505,-524.4"/>
<polygon fill="#9a32cd" stroke="#9a32cd" points="434.718,-454.099 424.138,-453.549 432.066,-460.577 434.718,-454.099"/>
<text text-anchor="middle" x="559" y="-506" font-family="Helvetica,sans-Serif" font-size="10.00"> myView</text>
</g>
<!-- Node9&#45;&gt;Node21 -->
<g id="edge28" class="edge"><title>Node9&#45;&gt;Node21</title>
<path fill="none" stroke="#9a32cd" stroke-dasharray="5,2" d="M405.148,-424.479C413.034,-381.672 437.516,-278.693 498,-220 539.816,-179.422 569.374,-200.848 620,-172 628.806,-166.982 629.576,-163.634 638,-158 660.426,-143.002 687.691,-127.97 705.425,-118.587"/>
<polygon fill="#9a32cd" stroke="#9a32cd" points="401.681,-423.988 403.418,-434.44 408.578,-425.186 401.681,-423.988"/>
<text text-anchor="middle" x="559" y="-223" font-family="Helvetica,sans-Serif" font-size="10.00"> mySLogoView</text>
</g>
<!-- Node10 -->
<g id="node10" class="node"><title>Node10</title>
<g id="a_node10"><a xlink:href="../../da/d64/classview_1_1_workspace.html" target="_top" xlink:title="view.Workspace">
<polygon fill="white" stroke="black" points="1222,-612.5 1222,-631.5 1312,-631.5 1312,-612.5 1222,-612.5"/>
<text text-anchor="middle" x="1267" y="-619.5" font-family="Helvetica,sans-Serif" font-size="10.00">view.Workspace</text>
</a>
</g>
</g>
<!-- Node10&#45;&gt;Node9 -->
<g id="edge10" class="edge"><title>Node10&#45;&gt;Node9</title>
<path fill="none" stroke="#9a32cd" stroke-dasharray="5,2" d="M1248.6,-605.492C1221.45,-580.879 1166.28,-535.29 1110,-515 911.839,-443.557 847.498,-493.967 638,-472 571.319,-465.008 494.201,-455.611 446.763,-449.679"/>
<polygon fill="#9a32cd" stroke="#9a32cd" points="1246.37,-608.198 1256.09,-612.406 1251.11,-603.053 1246.37,-608.198"/>
<text text-anchor="middle" x="881" y="-480" font-family="Helvetica,sans-Serif" font-size="10.00"> myWorkspace</text>
</g>
<!-- Node33 -->
<g id="node33" class="node"><title>Node33</title>
<g id="a_node33"><a xlink:href="../../de/d0a/classview_1_1_drawer.html" target="_top" xlink:title="view.Drawer">
<polygon fill="white" stroke="black" points="1418.5,-447.5 1418.5,-466.5 1491.5,-466.5 1491.5,-447.5 1418.5,-447.5"/>
<text text-anchor="middle" x="1455" y="-454.5" font-family="Helvetica,sans-Serif" font-size="10.00">view.Drawer</text>
</a>
</g>
</g>
<!-- Node10&#45;&gt;Node33 -->
<g id="edge43" class="edge"><title>Node10&#45;&gt;Node33</title>
<path fill="none" stroke="#9a32cd" stroke-dasharray="5,2" d="M1286.67,-605.44C1325.22,-571.244 1412.57,-493.755 1443.17,-466.611"/>
<polygon fill="#9a32cd" stroke="#9a32cd" points="1283.96,-603.161 1278.8,-612.416 1288.61,-608.398 1283.96,-603.161"/>
<text text-anchor="middle" x="1365" y="-567" font-family="Helvetica,sans-Serif" font-size="10.00"> myWorkspace</text>
</g>
<!-- Node11 -->
<g id="node11" class="node"><title>Node11</title>
<polygon fill="white" stroke="#bfbfbf" points="996.5,-574.5 996.5,-593.5 1063.5,-593.5 1063.5,-574.5 996.5,-574.5"/>
<text text-anchor="middle" x="1030" y="-581.5" font-family="Helvetica,sans-Serif" font-size="10.00">StackPane</text>
</g>
<!-- Node11&#45;&gt;Node10 -->
<g id="edge11" class="edge"><title>Node11&#45;&gt;Node10</title>
<path fill="none" stroke="midnightblue" d="M1073.6,-590.888C1115.6,-597.68 1179.51,-608.014 1222,-614.885"/>
<polygon fill="midnightblue" stroke="midnightblue" points="1074.11,-587.425 1063.68,-589.284 1072.99,-594.335 1074.11,-587.425"/>
</g>
<!-- Node12 -->
<g id="node12" class="node"><title>Node12</title>
<polygon fill="white" stroke="#bfbfbf" points="40.5,-587.5 40.5,-606.5 133.5,-606.5 133.5,-587.5 40.5,-587.5"/>
<text text-anchor="middle" x="87" y="-594.5" font-family="Helvetica,sans-Serif" font-size="10.00">ResourceBundle</text>
</g>
<!-- Node12&#45;&gt;Node9 -->
<g id="edge32" class="edge"><title>Node12&#45;&gt;Node9</title>
<path fill="none" stroke="#9a32cd" stroke-dasharray="5,2" d="M136.226,-584.951C197.601,-569.518 296.614,-544.245 304,-540 324.537,-528.195 372.006,-475.746 391.454,-453.755"/>
<polygon fill="#9a32cd" stroke="#9a32cd" points="135.194,-581.602 126.348,-587.432 136.899,-588.391 135.194,-581.602"/>
<text text-anchor="middle" x="248" y="-573" font-family="Helvetica,sans-Serif" font-size="10.00"> myResources</text>
</g>
<!-- Node12&#45;&gt;Node10 -->
<g id="edge12" class="edge"><title>Node12&#45;&gt;Node10</title>
<path fill="none" stroke="#9a32cd" stroke-dasharray="5,2" d="M106.319,-613.266C152.233,-652.288 277.351,-748 400,-748 400,-748 400,-748 1031,-748 1041.59,-748 1201.23,-704.85 1204,-703 1231.98,-684.316 1252.58,-648.748 1261.34,-631.65"/>
<polygon fill="#9a32cd" stroke="#9a32cd" points="108.543,-610.562 98.6865,-606.675 103.968,-615.86 108.543,-610.562"/>
<text text-anchor="middle" x="725" y="-751" font-family="Helvetica,sans-Serif" font-size="10.00"> myResources</text>
</g>
<!-- Node12&#45;&gt;Node17 -->
<g id="edge20" class="edge"><title>Node12&#45;&gt;Node17</title>
<path fill="none" stroke="#9a32cd" stroke-dasharray="5,2" d="M143.727,-597.434C304.663,-598.166 761.892,-596.369 812,-553 840.212,-528.582 807.646,-500.874 830,-471 860.984,-429.593 890.31,-445.603 932,-415 968.109,-388.494 1004.62,-349.434 1020.61,-331.561"/>
<polygon fill="#9a32cd" stroke="#9a32cd" points="143.58,-593.934 133.562,-597.383 143.544,-600.933 143.58,-593.934"/>
<text text-anchor="middle" x="559" y="-596" font-family="Helvetica,sans-Serif" font-size="10.00"> myResources</text>
</g>
<!-- Node13 -->
<g id="node13" class="node"><title>Node13</title>
<g id="a_node13"><a xlink:href="../../d8/df7/classview_1_1_turtle_view.html" target="_top" xlink:title="view.TurtleView">
<polygon fill="white" stroke="black" points="987,-776.5 987,-795.5 1073,-795.5 1073,-776.5 987,-776.5"/>
<text text-anchor="middle" x="1030" y="-783.5" font-family="Helvetica,sans-Serif" font-size="10.00">view.TurtleView</text>
</a>
</g>
</g>
<!-- Node13&#45;&gt;Node10 -->
<g id="edge13" class="edge"><title>Node13&#45;&gt;Node10</title>
<path fill="none" stroke="#9a32cd" stroke-dasharray="5,2" d="M1083.17,-791.009C1120.38,-791.816 1169.7,-786.93 1204,-761 1247.63,-728.012 1261.24,-657.49 1264.85,-631.702"/>
<polygon fill="#9a32cd" stroke="#9a32cd" points="1083.14,-787.506 1073.02,-790.643 1082.88,-794.501 1083.14,-787.506"/>
<text text-anchor="middle" x="1166" y="-791" font-family="Helvetica,sans-Serif" font-size="10.00"> myActiveTurtle</text>
</g>
<!-- Node14 -->
<g id="node14" class="node"><title>Node14</title>
<polygon fill="white" stroke="#bfbfbf" points="691,-777.5 691,-796.5 759,-796.5 759,-777.5 691,-777.5"/>
<text text-anchor="middle" x="725" y="-784.5" font-family="Helvetica,sans-Serif" font-size="10.00">ImageView</text>
</g>
<!-- Node14&#45;&gt;Node13 -->
<g id="edge14" class="edge"><title>Node14&#45;&gt;Node13</title>
<path fill="none" stroke="midnightblue" d="M769.293,-786.857C827.268,-786.666 929.46,-786.329 986.848,-786.139"/>
<polygon fill="midnightblue" stroke="midnightblue" points="768.991,-783.358 759.003,-786.891 769.015,-790.358 768.991,-783.358"/>
</g>
<!-- Node15 -->
<g id="node15" class="node"><title>Node15</title>
<polygon fill="white" stroke="#bfbfbf" points="962,-689 962,-719 1098,-719 1098,-689 962,-689"/>
<text text-anchor="start" x="970" y="-707" font-family="Helvetica,sans-Serif" font-size="10.00">Map&lt; Integer, view.Turtle</text>
<text text-anchor="middle" x="1030" y="-696" font-family="Helvetica,sans-Serif" font-size="10.00">View &gt;</text>
</g>
<!-- Node15&#45;&gt;Node10 -->
<g id="edge15" class="edge"><title>Node15&#45;&gt;Node10</title>
<path fill="none" stroke="#9a32cd" stroke-dasharray="5,2" d="M1108.33,-692.432C1138.93,-686.248 1173.92,-677.122 1204,-664 1223.07,-655.683 1242.52,-641.356 1254.43,-631.78"/>
<polygon fill="#9a32cd" stroke="#9a32cd" points="1107.28,-689.071 1098.13,-694.418 1108.62,-695.942 1107.28,-689.071"/>
<text text-anchor="middle" x="1166" y="-691" font-family="Helvetica,sans-Serif" font-size="10.00"> myTurtles</text>
</g>
<!-- Node16 -->
<g id="node16" class="node"><title>Node16</title>
<polygon fill="white" stroke="#bfbfbf" points="1007,-650.5 1007,-669.5 1053,-669.5 1053,-650.5 1007,-650.5"/>
<text text-anchor="middle" x="1030" y="-657.5" font-family="Helvetica,sans-Serif" font-size="10.00">Group</text>
</g>
<!-- Node16&#45;&gt;Node10 -->
<g id="edge16" class="edge"><title>Node16&#45;&gt;Node10</title>
<path fill="none" stroke="#9a32cd" stroke-dasharray="5,2" d="M1063.31,-656.732C1098.19,-652.966 1155.28,-646.106 1204,-637 1212.27,-635.454 1221.1,-633.503 1229.42,-631.525"/>
<polygon fill="#9a32cd" stroke="#9a32cd" points="1062.81,-653.265 1053.24,-657.8 1063.55,-660.226 1062.81,-653.265"/>
<text text-anchor="middle" x="1166" y="-652" font-family="Helvetica,sans-Serif" font-size="10.00"> myLines</text>
</g>
<!-- Node17&#45;&gt;Node9 -->
<g id="edge45" class="edge"><title>Node17&#45;&gt;Node9</title>
<path fill="none" stroke="#9a32cd" stroke-dasharray="5,2" d="M1010.42,-338.215C991.905,-353.36 961.989,-375.204 932,-386 749.452,-451.717 690.823,-411.512 498,-433 481.327,-434.858 463.032,-436.943 446.925,-438.794"/>
<polygon fill="#9a32cd" stroke="#9a32cd" points="1012.9,-340.702 1018.31,-331.594 1008.4,-335.339 1012.9,-340.702"/>
<text text-anchor="middle" x="725" y="-430" font-family="Helvetica,sans-Serif" font-size="10.00"> mySidebar</text>
</g>
<!-- Node17&#45;&gt;Node10 -->
<g id="edge17" class="edge"><title>Node17&#45;&gt;Node10</title>
<path fill="none" stroke="#9a32cd" stroke-dasharray="5,2" d="M1051.91,-338.219C1087.01,-366.275 1158.37,-427.03 1204,-491 1233.51,-532.379 1255.05,-590.02 1262.83,-612.496"/>
<polygon fill="#9a32cd" stroke="#9a32cd" points="1053.82,-335.269 1043.81,-331.809 1049.48,-340.758 1053.82,-335.269"/>
<text text-anchor="middle" x="1166" y="-494" font-family="Helvetica,sans-Serif" font-size="10.00"> mySidebar</text>
</g>
<!-- Node27 -->
<g id="node27" class="node"><title>Node27</title>
<g id="a_node27"><a xlink:href="../../da/dc8/classview_1_1_editor.html" target="_top" xlink:title="view.Editor">
<polygon fill="white" stroke="black" points="1233.5,-104.5 1233.5,-123.5 1300.5,-123.5 1300.5,-104.5 1233.5,-104.5"/>
<text text-anchor="middle" x="1267" y="-111.5" font-family="Helvetica,sans-Serif" font-size="10.00">view.Editor</text>
</a>
</g>
</g>
<!-- Node17&#45;&gt;Node27 -->
<g id="edge38" class="edge"><title>Node17&#45;&gt;Node27</title>
<path fill="none" stroke="#9a32cd" stroke-dasharray="5,2" d="M1052.98,-306.604C1086.89,-282.419 1153.34,-233.285 1204,-185 1225.32,-164.678 1247.31,-137.832 1258.49,-123.684"/>
<polygon fill="#9a32cd" stroke="#9a32cd" points="1050.84,-303.833 1044.7,-312.472 1054.88,-309.544 1050.84,-303.833"/>
<text text-anchor="middle" x="1166" y="-252" font-family="Helvetica,sans-Serif" font-size="10.00"> mySidebar</text>
</g>
<!-- Node18 -->
<g id="node18" class="node"><title>Node18</title>
<polygon fill="white" stroke="#bfbfbf" points="704.5,-325.5 704.5,-344.5 745.5,-344.5 745.5,-325.5 704.5,-325.5"/>
<text text-anchor="middle" x="725" y="-332.5" font-family="Helvetica,sans-Serif" font-size="10.00">VBox</text>
</g>
<!-- Node18&#45;&gt;Node17 -->
<g id="edge18" class="edge"><title>Node18&#45;&gt;Node17</title>
<path fill="none" stroke="midnightblue" d="M756.138,-333.707C811.816,-331.318 930.647,-326.22 991.457,-323.611"/>
<polygon fill="midnightblue" stroke="midnightblue" points="755.721,-330.222 745.881,-334.147 756.022,-337.215 755.721,-330.222"/>
</g>
<!-- Node19 -->
<g id="node19" class="node"><title>Node19</title>
<polygon fill="white" stroke="#bfbfbf" points="638.5,-287.5 638.5,-306.5 811.5,-306.5 811.5,-287.5 638.5,-287.5"/>
<text text-anchor="middle" x="725" y="-294.5" font-family="Helvetica,sans-Serif" font-size="10.00">ObservableList&lt; view.Property &gt;</text>
</g>
<!-- Node19&#45;&gt;Node17 -->
<g id="edge19" class="edge"><title>Node19&#45;&gt;Node17</title>
<path fill="none" stroke="#9a32cd" stroke-dasharray="5,2" d="M821.871,-303.38C856.583,-305.849 896.075,-308.841 932,-312 951.563,-313.72 973.313,-315.935 991.252,-317.842"/>
<polygon fill="#9a32cd" stroke="#9a32cd" points="821.962,-299.878 811.74,-302.665 821.468,-306.861 821.962,-299.878"/>
<text text-anchor="middle" x="881" y="-315" font-family="Helvetica,sans-Serif" font-size="10.00"> variablesList</text>
</g>
<!-- Node20 -->
<g id="node20" class="node"><title>Node20</title>
<polygon fill="white" stroke="#bfbfbf" points="651,-249.5 651,-268.5 799,-268.5 799,-249.5 651,-249.5"/>
<text text-anchor="middle" x="725" y="-256.5" font-family="Helvetica,sans-Serif" font-size="10.00">TableView&lt; view.Property &gt;</text>
</g>
<!-- Node20&#45;&gt;Node17 -->
<g id="edge22" class="edge"><title>Node20&#45;&gt;Node17</title>
<path fill="none" stroke="#9a32cd" stroke-dasharray="5,2" d="M809.919,-261.065C847.72,-263.541 892.611,-268.647 932,-279 961.396,-286.726 993.194,-302.356 1012.09,-312.491"/>
<polygon fill="#9a32cd" stroke="#9a32cd" points="809.648,-257.543 799.456,-260.435 809.227,-264.53 809.648,-257.543"/>
<text text-anchor="middle" x="881" y="-293" font-family="Helvetica,sans-Serif" font-size="10.00"> turtlePropertiesTable</text>
<text text-anchor="middle" x="881" y="-282" font-family="Helvetica,sans-Serif" font-size="10.00">variablesTable</text>
</g>
<!-- Node21&#45;&gt;Node9 -->
<g id="edge40" class="edge"><title>Node21&#45;&gt;Node9</title>
<path fill="none" stroke="#9a32cd" stroke-dasharray="5,2" d="M682.963,-121.479C663.926,-127 640.927,-133.294 620,-138 566.321,-150.071 537.881,-121.097 498,-159 471.583,-184.107 490.507,-204.103 480,-239 456.836,-315.936 418.868,-405.312 406.236,-434.356"/>
<polygon fill="#9a32cd" stroke="#9a32cd" points="684.198,-124.764 692.808,-118.591 682.227,-118.048 684.198,-124.764"/>
<text text-anchor="middle" x="559" y="-162" font-family="Helvetica,sans-Serif" font-size="10.00"> myParser</text>
</g>
<!-- Node21&#45;&gt;Node17 -->
<g id="edge23" class="edge"><title>Node21&#45;&gt;Node17</title>
<path fill="none" stroke="#9a32cd" stroke-dasharray="5,2" d="M743.92,-125.175C763.621,-142.097 796.894,-168.212 830,-183 872.431,-201.954 892.335,-181.786 932,-206 977.262,-233.63 1011.49,-289.88 1023.91,-312.382"/>
<polygon fill="#9a32cd" stroke="#9a32cd" points="746.177,-122.5 736.347,-118.546 741.566,-127.767 746.177,-122.5"/>
<text text-anchor="middle" x="881" y="-209" font-family="Helvetica,sans-Serif" font-size="10.00"> myParser</text>
</g>
<!-- Node21&#45;&gt;Node27 -->
<g id="edge36" class="edge"><title>Node21&#45;&gt;Node27</title>
<path fill="none" stroke="#9a32cd" stroke-dasharray="5,2" d="M754.374,-94.9188C796.036,-75.1096 876.764,-39.9835 950,-27 1020.02,-14.5868 1040.39,-12.4791 1110,-27 1154.62,-36.3072 1164.56,-45.1629 1204,-68 1222.79,-78.8791 1242.63,-94.4101 1254.66,-104.349"/>
<polygon fill="#9a32cd" stroke="#9a32cd" points="752.624,-91.877 745.132,-99.3684 755.66,-98.1842 752.624,-91.877"/>
<text text-anchor="middle" x="1030" y="-30" font-family="Helvetica,sans-Serif" font-size="10.00"> myParser</text>
</g>
<!-- Node22 -->
<g id="node22" class="node"><title>Node22</title>
<polygon fill="white" stroke="#bfbfbf" points="345,-0 345,-30 457,-30 457,-0 345,-0"/>
<text text-anchor="start" x="353" y="-18" font-family="Helvetica,sans-Serif" font-size="10.00">List&lt; Entry&lt; String,</text>
<text text-anchor="middle" x="401" y="-7" font-family="Helvetica,sans-Serif" font-size="10.00"> Pattern &gt; &gt;</text>
</g>
<!-- Node22&#45;&gt;Node21 -->
<g id="edge25" class="edge"><title>Node22&#45;&gt;Node21</title>
<path fill="none" stroke="#9a32cd" stroke-dasharray="5,2" d="M467.153,-11.7463C511.548,-11.6542 570.94,-15.7652 620,-34 659.437,-48.6581 697.329,-82.552 714.462,-99.2894"/>
<polygon fill="#9a32cd" stroke="#9a32cd" points="467.031,-8.24717 457.064,-11.8396 467.096,-15.2469 467.031,-8.24717"/>
<text text-anchor="middle" x="559" y="-37" font-family="Helvetica,sans-Serif" font-size="10.00"> myPatterns</text>
</g>
<!-- Node23 -->
<g id="node23" class="node"><title>Node23</title>
<polygon fill="white" stroke="#bfbfbf" points="340,-87.5 340,-106.5 462,-106.5 462,-87.5 340,-87.5"/>
<text text-anchor="middle" x="401" y="-94.5" font-family="Helvetica,sans-Serif" font-size="10.00">Map&lt; String, String &gt;</text>
</g>
<!-- Node23&#45;&gt;Node21 -->
<g id="edge27" class="edge"><title>Node23&#45;&gt;Node21</title>
<path fill="none" stroke="#9a32cd" stroke-dasharray="5,2" d="M472.27,-93.7346C480.934,-93.4316 489.669,-93.1735 498,-93 552.21,-91.8711 565.936,-88.8655 620,-93 641.493,-94.6437 665.269,-98.1715 684.656,-101.497"/>
<polygon fill="#9a32cd" stroke="#9a32cd" points="472.024,-90.2412 462.16,-94.1087 472.283,-97.2365 472.024,-90.2412"/>
<text text-anchor="middle" x="559" y="-96" font-family="Helvetica,sans-Serif" font-size="10.00"> myCommandMap</text>
</g>
<!-- Node24 -->
<g id="node24" class="node"><title>Node24</title>
<polygon fill="white" stroke="#bfbfbf" points="656,-363.5 656,-382.5 794,-382.5 794,-363.5 656,-363.5"/>
<text text-anchor="middle" x="725" y="-370.5" font-family="Helvetica,sans-Serif" font-size="10.00">ObservableList&lt; String &gt;</text>
</g>
<!-- Node24&#45;&gt;Node17 -->
<g id="edge29" class="edge"><title>Node24&#45;&gt;Node17</title>
<path fill="none" stroke="#9a32cd" stroke-dasharray="5,2" d="M804.502,-362.856C843.021,-357.551 890.049,-350.587 932,-343 951.668,-339.443 973.428,-334.798 991.346,-330.781"/>
<polygon fill="#9a32cd" stroke="#9a32cd" points="803.823,-359.416 794.389,-364.238 804.77,-366.352 803.823,-359.416"/>
<text text-anchor="middle" x="881" y="-374" font-family="Helvetica,sans-Serif" font-size="10.00"> commandItems</text>
<text text-anchor="middle" x="881" y="-363" font-family="Helvetica,sans-Serif" font-size="10.00">historyItems</text>
</g>
<!-- Node25 -->
<g id="node25" class="node"><title>Node25</title>
<polygon fill="white" stroke="#bfbfbf" points="998.5,-612.5 998.5,-631.5 1061.5,-631.5 1061.5,-612.5 998.5,-612.5"/>
<text text-anchor="middle" x="1030" y="-619.5" font-family="Helvetica,sans-Serif" font-size="10.00">Rectangle</text>
</g>
<!-- Node25&#45;&gt;Node10 -->
<g id="edge30" class="edge"><title>Node25&#45;&gt;Node10</title>
<path fill="none" stroke="#9a32cd" stroke-dasharray="5,2" d="M1071.84,-622C1113.68,-622 1178.54,-622 1221.63,-622"/>
<polygon fill="#9a32cd" stroke="#9a32cd" points="1071.72,-618.5 1061.72,-622 1071.72,-625.5 1071.72,-618.5"/>
<text text-anchor="middle" x="1166" y="-625" font-family="Helvetica,sans-Serif" font-size="10.00"> myBackground</text>
</g>
<!-- Node26 -->
<g id="node26" class="node"><title>Node26</title>
<polygon fill="white" stroke="#bfbfbf" points="64.5,-434.5 64.5,-453.5 109.5,-453.5 109.5,-434.5 64.5,-434.5"/>
<text text-anchor="middle" x="87" y="-441.5" font-family="Helvetica,sans-Serif" font-size="10.00">Stage</text>
</g>
<!-- Node26&#45;&gt;Node9 -->
<g id="edge31" class="edge"><title>Node26&#45;&gt;Node9</title>
<path fill="none" stroke="#9a32cd" stroke-dasharray="5,2" d="M119.977,-444C175.9,-444 291.57,-444 355.356,-444"/>
<polygon fill="#9a32cd" stroke="#9a32cd" points="119.939,-440.5 109.939,-444 119.939,-447.5 119.939,-440.5"/>
<text text-anchor="middle" x="248" y="-447" font-family="Helvetica,sans-Serif" font-size="10.00"> myStage</text>
</g>
<!-- Node27&#45;&gt;Node9 -->
<g id="edge33" class="edge"><title>Node27&#45;&gt;Node9</title>
<path fill="none" stroke="#9a32cd" stroke-dasharray="5,2" d="M1237.56,-127.825C1227.21,-132.345 1215.28,-136.976 1204,-140 1163.32,-150.91 1151.92,-147.98 1110,-152 899.443,-172.188 823.338,-111.06 638,-213 628.087,-218.452 628.635,-223.69 620,-231 569.168,-274.027 545.829,-271.659 498,-318 458.301,-356.464 421.761,-412.203 407.892,-434.378"/>
<polygon fill="#9a32cd" stroke="#9a32cd" points="1239.26,-130.896 1246.93,-123.582 1236.37,-124.52 1239.26,-130.896"/>
<text text-anchor="middle" x="881" y="-157" font-family="Helvetica,sans-Serif" font-size="10.00"> myEditor</text>
</g>
<!-- Node28 -->
<g id="node28" class="node"><title>Node28</title>
<polygon fill="white" stroke="#bfbfbf" points="1009,-85.5 1009,-104.5 1051,-104.5 1051,-85.5 1009,-85.5"/>
<text text-anchor="middle" x="1030" y="-92.5" font-family="Helvetica,sans-Serif" font-size="10.00">HBox</text>
</g>
<!-- Node28&#45;&gt;Node27 -->
<g id="edge34" class="edge"><title>Node28&#45;&gt;Node27</title>
<path fill="none" stroke="midnightblue" d="M1061.18,-97.44C1105.49,-101.022 1187.81,-107.679 1233.44,-111.367"/>
<polygon fill="midnightblue" stroke="midnightblue" points="1061.29,-93.9373 1051.04,-96.6199 1060.72,-100.915 1061.29,-93.9373"/>
</g>
<!-- Node29 -->
<g id="node29" class="node"><title>Node29</title>
<polygon fill="white" stroke="#bfbfbf" points="1005.5,-47.5 1005.5,-66.5 1054.5,-66.5 1054.5,-47.5 1005.5,-47.5"/>
<text text-anchor="middle" x="1030" y="-54.5" font-family="Helvetica,sans-Serif" font-size="10.00">Button</text>
</g>
<!-- Node29&#45;&gt;Node27 -->
<g id="edge35" class="edge"><title>Node29&#45;&gt;Node27</title>
<path fill="none" stroke="#9a32cd" stroke-dasharray="5,2" d="M1064.78,-61.2055C1099.99,-66.0618 1156.56,-75.1984 1204,-89 1218.15,-93.1172 1233.52,-99.3021 1245.42,-104.49"/>
<polygon fill="#9a32cd" stroke="#9a32cd" points="1064.95,-57.6967 1054.57,-59.8353 1064.02,-64.6345 1064.95,-57.6967"/>
<text text-anchor="middle" x="1166" y="-92" font-family="Helvetica,sans-Serif" font-size="10.00"> runButton</text>
</g>
<!-- Node30 -->
<g id="node30" class="node"><title>Node30</title>
<polygon fill="white" stroke="#bfbfbf" points="1001,-123.5 1001,-142.5 1059,-142.5 1059,-123.5 1001,-123.5"/>
<text text-anchor="middle" x="1030" y="-130.5" font-family="Helvetica,sans-Serif" font-size="10.00">TextArea</text>
</g>
<!-- Node30&#45;&gt;Node27 -->
<g id="edge37" class="edge"><title>Node30&#45;&gt;Node27</title>
<path fill="none" stroke="#9a32cd" stroke-dasharray="5,2" d="M1069.45,-129.892C1115.11,-126.2 1190.48,-120.106 1233.41,-116.635"/>
<polygon fill="#9a32cd" stroke="#9a32cd" points="1069.03,-126.414 1059.35,-130.708 1069.6,-133.391 1069.03,-126.414"/>
<text text-anchor="middle" x="1166" y="-128" font-family="Helvetica,sans-Serif" font-size="10.00"> textEditor</text>
</g>
<!-- Node31 -->
<g id="node31" class="node"><title>Node31</title>
<polygon fill="white" stroke="#bfbfbf" points="27.5,-529.5 27.5,-548.5 146.5,-548.5 146.5,-529.5 27.5,-529.5"/>
<text text-anchor="middle" x="87" y="-536.5" font-family="Helvetica,sans-Serif" font-size="10.00">Map&lt; String, Node &gt;</text>
</g>
<!-- Node31&#45;&gt;Node9 -->
<g id="edge39" class="edge"><title>Node31&#45;&gt;Node9</title>
<path fill="none" stroke="#9a32cd" stroke-dasharray="5,2" d="M156.696,-530.696C199.863,-524.176 256.222,-513.249 304,-496 334.665,-484.929 367.46,-465.261 385.68,-453.546"/>
<polygon fill="#9a32cd" stroke="#9a32cd" points="155.965,-527.266 146.579,-532.181 156.981,-534.192 155.965,-527.266"/>
<text text-anchor="middle" x="248" y="-528" font-family="Helvetica,sans-Serif" font-size="10.00"> variables</text>
</g>
<!-- Node32 -->
<g id="node32" class="node"><title>Node32</title>
<polygon fill="white" stroke="#bfbfbf" points="46.5,-491.5 46.5,-510.5 127.5,-510.5 127.5,-491.5 46.5,-491.5"/>
<text text-anchor="middle" x="87" y="-498.5" font-family="Helvetica,sans-Serif" font-size="10.00">Dimension2D</text>
</g>
<!-- Node32&#45;&gt;Node9 -->
<g id="edge41" class="edge"><title>Node32&#45;&gt;Node9</title>
<path fill="none" stroke="#9a32cd" stroke-dasharray="5,2" d="M137.5,-491.957C197.45,-481.004 297.55,-462.717 355.269,-452.172"/>
<polygon fill="#9a32cd" stroke="#9a32cd" points="136.723,-488.541 127.515,-493.781 137.981,-495.427 136.723,-488.541"/>
<text text-anchor="middle" x="248" y="-484" font-family="Helvetica,sans-Serif" font-size="10.00"> myDimensions</text>
</g>
<!-- Node33&#45;&gt;Node9 -->
<g id="edge42" class="edge"><title>Node33&#45;&gt;Node9</title>
<path fill="none" stroke="#9a32cd" stroke-dasharray="5,2" d="M1408.33,-456.436C1234.86,-454.292 618.035,-446.67 446.531,-444.55"/>
<polygon fill="#9a32cd" stroke="#9a32cd" points="1408.35,-459.936 1418.39,-456.56 1408.44,-452.937 1408.35,-459.936"/>
<text text-anchor="middle" x="1030" y="-456" font-family="Helvetica,sans-Serif" font-size="10.00"> drawer</text>
</g>
<!-- Node34 -->
<g id="node34" class="node"><title>Node34</title>
<polygon fill="white" stroke="#bfbfbf" points="1246.5,-409.5 1246.5,-428.5 1287.5,-428.5 1287.5,-409.5 1246.5,-409.5"/>
<text text-anchor="middle" x="1267" y="-416.5" font-family="Helvetica,sans-Serif" font-size="10.00">Color</text>
</g>
<!-- Node34&#45;&gt;Node33 -->
<g id="edge44" class="edge"><title>Node34&#45;&gt;Node33</title>
<path fill="none" stroke="#9a32cd" stroke-dasharray="5,2" d="M1297.61,-419.102C1324.71,-419.853 1365.67,-422.652 1400,-432 1412.96,-435.529 1426.68,-441.921 1437.05,-447.358"/>
<polygon fill="#9a32cd" stroke="#9a32cd" points="1297.67,-415.602 1287.6,-418.901 1297.53,-422.601 1297.67,-415.602"/>
<text text-anchor="middle" x="1365" y="-435" font-family="Helvetica,sans-Serif" font-size="10.00"> myColor</text>
</g>
<!-- Node35 -->
<g id="node35" class="node"><title>Node35</title>
<g id="a_node35"><a xlink:href="../../d1/d0b/classmodel_1_1_polar.html" target="_top" xlink:title="model.Polar">
<polygon fill="white" stroke="black" points="364,-636.5 364,-655.5 438,-655.5 438,-636.5 364,-636.5"/>
<text text-anchor="middle" x="401" y="-643.5" font-family="Helvetica,sans-Serif" font-size="10.00">model.Polar</text>
</a>
</g>
</g>
<!-- Node35&#45;&gt;Node1 -->
<g id="edge46" class="edge"><title>Node35&#45;&gt;Node1</title>
<path fill="none" stroke="#9a32cd" stroke-dasharray="5,2" d="M448.272,-640.635C524.411,-631.544 680.762,-611.761 812,-588 864.584,-578.479 923.786,-565.211 967.054,-555.037"/>
<polygon fill="#9a32cd" stroke="#9a32cd" points="447.589,-637.192 438.072,-641.847 448.415,-644.143 447.589,-637.192"/>
<text text-anchor="middle" x="725" y="-618" font-family="Helvetica,sans-Serif" font-size="10.00"> myPolar</text>
</g>
<!-- Node36 -->
<g id="node36" class="node"><title>Node36</title>
<g id="a_node36"><a xlink:href="../../d6/d06/classmodel_1_1_turtle_command.html" target="_top" xlink:title="model.TurtleCommand">
<polygon fill="white" stroke="black" points="662.5,-650.5 662.5,-669.5 787.5,-669.5 787.5,-650.5 662.5,-650.5"/>
<text text-anchor="middle" x="725" y="-657.5" font-family="Helvetica,sans-Serif" font-size="10.00">model.TurtleCommand</text>
</a>
</g>
</g>
<!-- Node35&#45;&gt;Node36 -->
<g id="edge48" class="edge"><title>Node35&#45;&gt;Node36</title>
<path fill="none" stroke="#9a32cd" stroke-dasharray="5,2" d="M448.039,-648.002C504.336,-650.449 599.833,-654.601 662.41,-657.322"/>
<polygon fill="#9a32cd" stroke="#9a32cd" points="448.143,-644.503 438,-647.565 447.839,-651.496 448.143,-644.503"/>
<text text-anchor="middle" x="559" y="-659" font-family="Helvetica,sans-Serif" font-size="10.00"> myPolar</text>
</g>
<!-- Node36&#45;&gt;Node1 -->
<g id="edge47" class="edge"><title>Node36&#45;&gt;Node1</title>
<path fill="none" stroke="#9a32cd" stroke-dasharray="5,2" d="M797.891,-670.105C841.675,-672.117 895.94,-666.623 932,-635 956.152,-613.82 927.916,-588.328 950,-565 953.659,-561.135 957.911,-557.864 962.507,-555.098"/>
<polygon fill="#9a32cd" stroke="#9a32cd" points="798.054,-666.609 787.864,-669.508 797.638,-673.597 798.054,-666.609"/>
<text text-anchor="middle" x="881" y="-673" font-family="Helvetica,sans-Serif" font-size="10.00"> myTurtle</text>
</g>
</g>
</svg>
        <g id="navigator" transform="translate(0 0)" fill="#404254">
                <rect fill="#f2f5e9" fill-opacity="0.5" stroke="#606060" stroke-width=".5" x="0" y="0" width="60" height="60"/>
                <use id="zoomplus" xlink:href="#zoomPlus" x="17" y="9" onmousedown="handleZoom(evt,'in')"/>
                <use id="zoomminus" xlink:href="#zoomMin" x="42" y="9" onmousedown="handleZoom(evt,'out')"/>
                <use id="reset" xlink:href="#resetDef" x="30" y="36" onmousedown="handleReset()"/>
                <g id="arrowUp" xlink:href="#dirArrow" transform="translate(30 24)" onmousedown="handlePan(0,-1)">
                  <use xlink:href="#rim" fill="#404040">
                        <set attributeName="fill" to="#808080" begin="arrowUp.mouseover" end="arrowUp.mouseout"/>
                  </use>
                  <path fill="none" stroke="white" stroke-width="1.5" d="M0,-3.0v7 M-2.5,-0.5L0,-3.0L2.5,-0.5"/>
                </g>
                <g id="arrowRight" xlink:href="#dirArrow" transform="rotate(90) translate(36 -43)" onmousedown="handlePan(1,0)">
                  <use xlink:href="#rim" fill="#404040">
                        <set attributeName="fill" to="#808080" begin="arrowRight.mouseover" end="arrowRight.mouseout"/>
                  </use>
                  <path fill="none" stroke="white" stroke-width="1.5" d="M0,-3.0v7 M-2.5,-0.5L0,-3.0L2.5,-0.5"/>
                </g>
                <g id="arrowDown" xlink:href="#dirArrow" transform="rotate(180) translate(-30 -48)" onmousedown="handlePan(0,1)">
                  <use xlink:href="#rim" fill="#404040">
                        <set attributeName="fill" to="#808080" begin="arrowDown.mouseover" end="arrowDown.mouseout"/>
                  </use>
                  <path fill="none" stroke="white" stroke-width="1.5" d="M0,-3.0v7 M-2.5,-0.5L0,-3.0L2.5,-0.5"/>
                </g>
                <g id="arrowLeft" xlink:href="#dirArrow" transform="rotate(270) translate(-36 17)" onmousedown="handlePan(-1,0)">
                  <use xlink:href="#rim" fill="#404040">
                        <set attributeName="fill" to="#808080" begin="arrowLeft.mouseover" end="arrowLeft.mouseout"/>
                  </use>
                  <path fill="none" stroke="white" stroke-width="1.5" d="M0,-3.0v7 M-2.5,-0.5L0,-3.0L2.5,-0.5"/>
                </g>
        </g>
        <svg viewBox="0 0 15 15" width="100%" height="30px" preserveAspectRatio="xMaxYMin meet">
         <g id="arrow_out" transform="scale(0.3 0.3)">
          <a xlink:href="classmodel_1_1instructions_1_1_movement_instruction__coll__graph_org.svg" target="_base">
           <rect id="button" ry="5" rx="5" y="6" x="6" height="38" width="38"
                fill="#f2f5e9" fill-opacity="0.5" stroke="#606060" stroke-width="1.0"/>
           <path id="arrow"
             d="M 11.500037,31.436501 C 11.940474,20.09759 22.043105,11.32322 32.158766,21.979434 L 37.068811,17.246167 C 37.068811,17.246167 37.088388,32 37.088388,32 L 22.160133,31.978069 C 22.160133,31.978069 26.997745,27.140456 26.997745,27.140456 C 18.528582,18.264221 13.291696,25.230495 11.500037,31.436501 z"
             style="fill:#404040;"/>
          </a>
         </g>
        </svg>
</svg>
