<?xml version="1.0" encoding="UTF-8" standalone="no"?>
<!DOCTYPE svg PUBLIC "-//W3C//DTD SVG 1.1//EN"
 "http://www.w3.org/Graphics/SVG/1.1/DTD/svg11.dtd">
<!-- Generated by graphviz version 2.36.0 (20140111.2315)
 -->
<!-- Title: view.Editor Pages: 1 -->
<svg width="1682pt" height="628pt"
 viewBox="0.00 0.00 1682.00 628.05" xmlns="http://www.w3.org/2000/svg" xmlns:xlink="http://www.w3.org/1999/xlink">
<g id="graph0" class="graph" transform="scale(1 1) rotate(0) translate(4 624.05)">
<title>view.Editor</title>
<polygon fill="white" stroke="none" points="-4,4 -4,-624.05 1678,-624.05 1678,4 -4,4"/>
<!-- Node1 -->
<g id="node1" class="node"><title>Node1</title>
<polygon fill="#bfbfbf" stroke="black" points="367.5,-548.55 367.5,-567.55 434.5,-567.55 434.5,-548.55 367.5,-548.55"/>
<text text-anchor="middle" x="401" y="-555.55" font-family="Helvetica,sans-Serif" font-size="10.00">view.Editor</text>
</g>
<!-- Node13 -->
<g id="node13" class="node"><title>Node13</title>
<g id="a_node13"><a xlink:href="../../d6/de7/classview_1_1_s_logo_view.html" target="_top" xlink:title="view.SLogoView">
<polygon fill="white" stroke="black" points="611.5,-415.55 611.5,-434.55 702.5,-434.55 702.5,-415.55 611.5,-415.55"/>
<text text-anchor="middle" x="657" y="-422.55" font-family="Helvetica,sans-Serif" font-size="10.00">view.SLogoView</text>
</a>
</g>
</g>
<!-- Node1&#45;&gt;Node13 -->
<g id="edge32" class="edge"><title>Node1&#45;&gt;Node13</title>
<path fill="none" stroke="#9a32cd" stroke-dasharray="5,2" d="M444.78,-546.112C493.061,-532.453 566.42,-511.066 578,-504.05 609.155,-485.174 636.823,-451.11 649.17,-434.573"/>
<polygon fill="#9a32cd" stroke="#9a32cd" points="443.564,-542.818 434.89,-548.902 445.464,-549.556 443.564,-542.818"/>
<text text-anchor="middle" x="538" y="-534.05" font-family="Helvetica,sans-Serif" font-size="10.00"> myEditor</text>
</g>
<!-- Node2 -->
<g id="node2" class="node"><title>Node2</title>
<polygon fill="white" stroke="#bfbfbf" points="66,-548.55 66,-567.55 108,-567.55 108,-548.55 66,-548.55"/>
<text text-anchor="middle" x="87" y="-555.55" font-family="Helvetica,sans-Serif" font-size="10.00">HBox</text>
</g>
<!-- Node2&#45;&gt;Node1 -->
<g id="edge1" class="edge"><title>Node2&#45;&gt;Node1</title>
<path fill="none" stroke="midnightblue" d="M118.644,-558.05C177.658,-558.05 306.592,-558.05 367.237,-558.05"/>
<polygon fill="midnightblue" stroke="midnightblue" points="118.471,-554.55 108.471,-558.05 118.471,-561.55 118.471,-554.55"/>
</g>
<!-- Node3 -->
<g id="node3" class="node"><title>Node3</title>
<polygon fill="white" stroke="#bfbfbf" points="62.5,-510.55 62.5,-529.55 111.5,-529.55 111.5,-510.55 62.5,-510.55"/>
<text text-anchor="middle" x="87" y="-517.55" font-family="Helvetica,sans-Serif" font-size="10.00">Button</text>
</g>
<!-- Node3&#45;&gt;Node1 -->
<g id="edge2" class="edge"><title>Node3&#45;&gt;Node1</title>
<path fill="none" stroke="#9a32cd" stroke-dasharray="5,2" d="M121.785,-523.132C164.351,-527.133 239.714,-534.61 304,-543.05 325.074,-545.817 348.659,-549.494 367.178,-552.515"/>
<polygon fill="#9a32cd" stroke="#9a32cd" points="121.979,-519.635 111.697,-522.191 121.329,-526.604 121.979,-519.635"/>
<text text-anchor="middle" x="248" y="-546.05" font-family="Helvetica,sans-Serif" font-size="10.00"> runButton</text>
</g>
<!-- Node4 -->
<g id="node4" class="node"><title>Node4</title>
<g id="a_node4"><a xlink:href="../../dc/df5/classmodel_1_1_parser.html" target="_top" xlink:title="model.Parser">
<polygon fill="white" stroke="black" points="891,-286.55 891,-305.55 971,-305.55 971,-286.55 891,-286.55"/>
<text text-anchor="middle" x="931" y="-293.55" font-family="Helvetica,sans-Serif" font-size="10.00">model.Parser</text>
</a>
</g>
</g>
<!-- Node4&#45;&gt;Node1 -->
<g id="edge3" class="edge"><title>Node4&#45;&gt;Node1</title>
<path fill="none" stroke="#9a32cd" stroke-dasharray="5,2" d="M880.5,-297.171C867.047,-299.864 853.569,-305.15 844,-315.05 813.526,-346.577 851.924,-376.687 826,-412.05 752.178,-512.753 697.852,-509.034 578,-544.05 529.454,-558.234 470.373,-559.95 434.504,-559.377"/>
<polygon fill="#9a32cd" stroke="#9a32cd" points="881.373,-300.577 890.717,-295.583 880.298,-293.66 881.373,-300.577"/>
<text text-anchor="middle" x="657" y="-542.05" font-family="Helvetica,sans-Serif" font-size="10.00"> myParser</text>
</g>
<!-- Node4&#45;&gt;Node13 -->
<g id="edge35" class="edge"><title>Node4&#45;&gt;Node13</title>
<path fill="none" stroke="#9a32cd" stroke-dasharray="5,2" d="M880.777,-300.571C868.052,-303.386 854.884,-307.886 844,-315.05 832.563,-322.578 837.392,-332.456 826,-340.05 791.824,-362.834 772.838,-342.882 736,-361.05 707.722,-374.996 680.648,-400.971 667.065,-415.165"/>
<polygon fill="#9a32cd" stroke="#9a32cd" points="881.667,-303.964 890.835,-298.655 880.357,-297.088 881.667,-303.964"/>
<text text-anchor="middle" x="781" y="-364.05" font-family="Helvetica,sans-Serif" font-size="10.00"> myParser</text>
</g>
<!-- Node21 -->
<g id="node21" class="node"><title>Node21</title>
<g id="a_node21"><a xlink:href="../../d1/dc7/classview_1_1_side_bar.html" target="_top" xlink:title="view.SideBar">
<polygon fill="white" stroke="black" points="1185.5,-369.55 1185.5,-388.55 1262.5,-388.55 1262.5,-369.55 1185.5,-369.55"/>
<text text-anchor="middle" x="1224" y="-376.55" font-family="Helvetica,sans-Serif" font-size="10.00">view.SideBar</text>
</a>
</g>
</g>
<!-- Node4&#45;&gt;Node21 -->
<g id="edge27" class="edge"><title>Node4&#45;&gt;Node21</title>
<path fill="none" stroke="#9a32cd" stroke-dasharray="5,2" d="M981.137,-288.318C1026.25,-283.995 1092.76,-284.944 1138,-318.05 1154.06,-329.803 1141.09,-345.874 1156,-359.05 1164.19,-366.284 1174.9,-370.903 1185.35,-373.852"/>
<polygon fill="#9a32cd" stroke="#9a32cd" points="980.571,-284.859 971.004,-289.412 981.322,-291.819 980.571,-284.859"/>
<text text-anchor="middle" x="1087" y="-321.05" font-family="Helvetica,sans-Serif" font-size="10.00"> myParser</text>
</g>
<!-- Node5 -->
<g id="node5" class="node"><title>Node5</title>
<polygon fill="white" stroke="#bfbfbf" points="371,-353.55 371,-372.55 431,-372.55 431,-353.55 371,-353.55"/>
<text text-anchor="middle" x="401" y="-360.55" font-family="Helvetica,sans-Serif" font-size="10.00">Observer</text>
</g>
<!-- Node5&#45;&gt;Node4 -->
<g id="edge4" class="edge"><title>Node5&#45;&gt;Node4</title>
<path fill="none" stroke="midnightblue" d="M441.714,-358.484C459.004,-356.5 479.503,-354.153 498,-352.05 643.763,-335.478 680.869,-336.467 826,-315.05 847.426,-311.888 871.196,-307.604 890.597,-303.905"/>
<polygon fill="midnightblue" stroke="midnightblue" points="440.945,-355.049 431.409,-359.667 441.743,-362.003 440.945,-355.049"/>
</g>
<!-- Node5&#45;&gt;Node13 -->
<g id="edge13" class="edge"><title>Node5&#45;&gt;Node13</title>
<path fill="none" stroke="midnightblue" d="M441.094,-372.593C488.828,-384.244 569.086,-403.835 616.847,-415.493"/>
<polygon fill="midnightblue" stroke="midnightblue" points="441.682,-369.134 431.137,-370.162 440.022,-375.934 441.682,-369.134"/>
</g>
<!-- Node6 -->
<g id="node6" class="node"><title>Node6</title>
<polygon fill="white" stroke="#bfbfbf" points="601,-196.05 601,-226.05 713,-226.05 713,-196.05 601,-196.05"/>
<text text-anchor="start" x="609" y="-214.05" font-family="Helvetica,sans-Serif" font-size="10.00">List&lt; Entry&lt; String,</text>
<text text-anchor="middle" x="657" y="-203.05" font-family="Helvetica,sans-Serif" font-size="10.00"> Pattern &gt; &gt;</text>
</g>
<!-- Node6&#45;&gt;Node4 -->
<g id="edge5" class="edge"><title>Node6&#45;&gt;Node4</title>
<path fill="none" stroke="#9a32cd" stroke-dasharray="5,2" d="M723.312,-216.19C754.96,-220.019 793.137,-226.645 826,-238.05 860.765,-250.115 897.465,-273.443 916.601,-286.538"/>
<polygon fill="#9a32cd" stroke="#9a32cd" points="723.614,-212.701 713.281,-215.042 722.818,-219.656 723.614,-212.701"/>
<text text-anchor="middle" x="781" y="-241.05" font-family="Helvetica,sans-Serif" font-size="10.00"> myPatterns</text>
</g>
<!-- Node7 -->
<g id="node7" class="node"><title>Node7</title>
<g id="a_node7"><a xlink:href="../../d1/dca/classmodel_1_1_execution_environment.html" target="_top" xlink:title="model.ExecutionEnvironment">
<polygon fill="white" stroke="black" points="322.5,-253.55 322.5,-272.55 479.5,-272.55 479.5,-253.55 322.5,-253.55"/>
<text text-anchor="middle" x="401" y="-260.55" font-family="Helvetica,sans-Serif" font-size="10.00">model.ExecutionEnvironment</text>
</a>
</g>
</g>
<!-- Node7&#45;&gt;Node4 -->
<g id="edge6" class="edge"><title>Node7&#45;&gt;Node4</title>
<path fill="none" stroke="#9a32cd" stroke-dasharray="5,2" d="M490.049,-263.573C553.494,-264.433 641.118,-266.613 718,-272.05 778.411,-276.322 848.131,-284.927 890.628,-290.588"/>
<polygon fill="#9a32cd" stroke="#9a32cd" points="489.728,-260.068 479.684,-263.441 489.639,-267.068 489.728,-260.068"/>
<text text-anchor="middle" x="657" y="-275.05" font-family="Helvetica,sans-Serif" font-size="10.00"> myExecutionParameters</text>
</g>
<!-- Node7&#45;&gt;Node13 -->
<g id="edge34" class="edge"><title>Node7&#45;&gt;Node13</title>
<path fill="none" stroke="#9a32cd" stroke-dasharray="5,2" d="M427.033,-278.096C461.352,-298.826 524.814,-337.533 578,-372.05 600.797,-386.845 626.826,-404.738 642.31,-415.49"/>
<polygon fill="#9a32cd" stroke="#9a32cd" points="428.53,-274.911 418.159,-272.744 424.915,-280.906 428.53,-274.911"/>
<text text-anchor="middle" x="538" y="-375.05" font-family="Helvetica,sans-Serif" font-size="10.00"> myEnvironment</text>
</g>
<!-- Node7&#45;&gt;Node21 -->
<g id="edge25" class="edge"><title>Node7&#45;&gt;Node21</title>
<path fill="none" stroke="#9a32cd" stroke-dasharray="5,2" d="M430.478,-249.044C449.401,-239.975 474.922,-228.195 498,-219.05 540.726,-202.119 550.646,-193.481 596,-186.05 649.509,-177.283 663.943,-181.822 718,-186.05 909.097,-200.998 1003.72,-147.266 1138,-284.05 1162.01,-308.512 1132.43,-334.159 1156,-359.05 1163.68,-367.16 1174.49,-372.023 1185.19,-374.927"/>
<polygon fill="#9a32cd" stroke="#9a32cd" points="428.713,-246.01 421.231,-253.512 431.758,-252.313 428.713,-246.01"/>
<text text-anchor="middle" x="781" y="-192.05" font-family="Helvetica,sans-Serif" font-size="10.00"> myEnvironment</text>
</g>
<!-- Node8 -->
<g id="node8" class="node"><title>Node8</title>
<polygon fill="white" stroke="#bfbfbf" points="51.5,-193.55 51.5,-212.55 122.5,-212.55 122.5,-193.55 51.5,-193.55"/>
<text text-anchor="middle" x="87" y="-200.55" font-family="Helvetica,sans-Serif" font-size="10.00">Observable</text>
</g>
<!-- Node8&#45;&gt;Node7 -->
<g id="edge7" class="edge"><title>Node8&#45;&gt;Node7</title>
<path fill="none" stroke="midnightblue" d="M132.487,-211.605C190.132,-222.691 290.341,-241.962 350.388,-253.509"/>
<polygon fill="midnightblue" stroke="midnightblue" points="133.063,-208.152 122.582,-209.7 131.741,-215.026 133.063,-208.152"/>
</g>
<!-- Node9 -->
<g id="node9" class="node"><title>Node9</title>
<polygon fill="white" stroke="#bfbfbf" points="42.5,-319.55 42.5,-338.55 131.5,-338.55 131.5,-319.55 42.5,-319.55"/>
<text text-anchor="middle" x="87" y="-326.55" font-family="Helvetica,sans-Serif" font-size="10.00">Set&lt; Integer &gt;</text>
</g>
<!-- Node9&#45;&gt;Node7 -->
<g id="edge8" class="edge"><title>Node9&#45;&gt;Node7</title>
<path fill="none" stroke="#9a32cd" stroke-dasharray="5,2" d="M141.972,-322.159C185.917,-316.045 249.393,-306.068 304,-293.05 327.61,-287.422 353.883,-279.061 372.967,-272.595"/>
<polygon fill="#9a32cd" stroke="#9a32cd" points="141.225,-318.729 131.794,-323.555 142.176,-325.664 141.225,-318.729"/>
<text text-anchor="middle" x="248" y="-329.05" font-family="Helvetica,sans-Serif" font-size="10.00"> myTurtleList</text>
<text text-anchor="middle" x="248" y="-318.05" font-family="Helvetica,sans-Serif" font-size="10.00">activeTurtleList</text>
</g>
<!-- Node10 -->
<g id="node10" class="node"><title>Node10</title>
<polygon fill="white" stroke="#bfbfbf" points="0,-270.05 0,-300.05 174,-300.05 174,-270.05 0,-270.05"/>
<text text-anchor="start" x="8" y="-288.05" font-family="Helvetica,sans-Serif" font-size="10.00">Map&lt; String, model.instructions.</text>
<text text-anchor="middle" x="87" y="-277.05" font-family="Helvetica,sans-Serif" font-size="10.00">Instruction &gt;</text>
</g>
<!-- Node10&#45;&gt;Node7 -->
<g id="edge9" class="edge"><title>Node10&#45;&gt;Node7</title>
<path fill="none" stroke="#9a32cd" stroke-dasharray="5,2" d="M184.305,-278.259C228.685,-275.13 280.655,-271.466 322.461,-268.518"/>
<polygon fill="#9a32cd" stroke="#9a32cd" points="183.81,-274.786 174.081,-278.98 184.303,-281.768 183.81,-274.786"/>
<text text-anchor="middle" x="248" y="-281.05" font-family="Helvetica,sans-Serif" font-size="10.00"> myUserInstructionMap</text>
</g>
<!-- Node11 -->
<g id="node11" class="node"><title>Node11</title>
<polygon fill="white" stroke="#bfbfbf" points="23,-231.55 23,-250.55 151,-250.55 151,-231.55 23,-231.55"/>
<text text-anchor="middle" x="87" y="-238.55" font-family="Helvetica,sans-Serif" font-size="10.00">Map&lt; String, Double &gt;</text>
</g>
<!-- Node11&#45;&gt;Node7 -->
<g id="edge10" class="edge"><title>Node11&#45;&gt;Node7</title>
<path fill="none" stroke="#9a32cd" stroke-dasharray="5,2" d="M161.422,-246.086C203.216,-248.968 256.544,-252.672 304,-256.05 310.001,-256.477 316.212,-256.923 322.456,-257.373"/>
<polygon fill="#9a32cd" stroke="#9a32cd" points="161.546,-242.586 151.329,-245.39 161.065,-249.57 161.546,-242.586"/>
<text text-anchor="middle" x="248" y="-259.05" font-family="Helvetica,sans-Serif" font-size="10.00"> myVariableMap</text>
</g>
<!-- Node12 -->
<g id="node12" class="node"><title>Node12</title>
<polygon fill="white" stroke="#bfbfbf" points="596,-292.55 596,-311.55 718,-311.55 718,-292.55 596,-292.55"/>
<text text-anchor="middle" x="657" y="-299.55" font-family="Helvetica,sans-Serif" font-size="10.00">Map&lt; String, String &gt;</text>
</g>
<!-- Node12&#45;&gt;Node4 -->
<g id="edge11" class="edge"><title>Node12&#45;&gt;Node4</title>
<path fill="none" stroke="#9a32cd" stroke-dasharray="5,2" d="M728.133,-300.503C779.837,-299.363 848.285,-297.853 890.712,-296.917"/>
<polygon fill="#9a32cd" stroke="#9a32cd" points="727.949,-297.006 718.028,-300.726 728.103,-304.005 727.949,-297.006"/>
<text text-anchor="middle" x="781" y="-304.05" font-family="Helvetica,sans-Serif" font-size="10.00"> myCommandMap</text>
</g>
<!-- Node13&#45;&gt;Node4 -->
<g id="edge12" class="edge"><title>Node13&#45;&gt;Node4</title>
<path fill="none" stroke="#9a32cd" stroke-dasharray="5,2" d="M692.163,-411.997C705.715,-407.027 721.499,-401.495 736,-397.05 775.473,-384.951 796.144,-402.566 826,-374.05 845.826,-355.115 823.867,-333.658 844,-315.05 856.576,-303.426 874.609,-298.337 890.917,-296.289"/>
<polygon fill="#9a32cd" stroke="#9a32cd" points="690.898,-408.733 682.74,-415.493 693.333,-415.296 690.898,-408.733"/>
<text text-anchor="middle" x="781" y="-400.05" font-family="Helvetica,sans-Serif" font-size="10.00"> mySLogoView</text>
</g>
<!-- Node14 -->
<g id="node14" class="node"><title>Node14</title>
<g id="a_node14"><a xlink:href="../../da/d64/classview_1_1_workspace.html" target="_top" xlink:title="view.Workspace">
<polygon fill="white" stroke="black" points="1404,-369.55 1404,-388.55 1494,-388.55 1494,-369.55 1404,-369.55"/>
<text text-anchor="middle" x="1449" y="-376.55" font-family="Helvetica,sans-Serif" font-size="10.00">view.Workspace</text>
</a>
</g>
</g>
<!-- Node14&#45;&gt;Node13 -->
<g id="edge14" class="edge"><title>Node14&#45;&gt;Node13</title>
<path fill="none" stroke="#9a32cd" stroke-dasharray="5,2" d="M1412.27,-392.015C1355.18,-412.111 1239.46,-450.312 1138,-468.05 1009.24,-490.561 973.547,-493.489 844,-476.05 785.596,-468.188 719.583,-447.031 684.029,-434.575"/>
<polygon fill="#9a32cd" stroke="#9a32cd" points="1413.65,-395.239 1421.91,-388.599 1411.31,-388.642 1413.65,-395.239"/>
<text text-anchor="middle" x="1087" y="-487.05" font-family="Helvetica,sans-Serif" font-size="10.00"> myWorkspace</text>
</g>
<!-- Node30 -->
<g id="node30" class="node"><title>Node30</title>
<g id="a_node30"><a xlink:href="../../de/d0a/classview_1_1_drawer.html" target="_top" xlink:title="view.Drawer">
<polygon fill="white" stroke="black" points="1600.5,-369.55 1600.5,-388.55 1673.5,-388.55 1673.5,-369.55 1600.5,-369.55"/>
<text text-anchor="middle" x="1637" y="-376.55" font-family="Helvetica,sans-Serif" font-size="10.00">view.Drawer</text>
</a>
</g>
</g>
<!-- Node14&#45;&gt;Node30 -->
<g id="edge38" class="edge"><title>Node14&#45;&gt;Node30</title>
<path fill="none" stroke="#9a32cd" stroke-dasharray="5,2" d="M1504.28,-379.05C1535.23,-379.05 1573.14,-379.05 1600.33,-379.05"/>
<polygon fill="#9a32cd" stroke="#9a32cd" points="1504.08,-375.55 1494.08,-379.05 1504.08,-382.55 1504.08,-375.55"/>
<text text-anchor="middle" x="1547" y="-382.05" font-family="Helvetica,sans-Serif" font-size="10.00"> myWorkspace</text>
</g>
<!-- Node15 -->
<g id="node15" class="node"><title>Node15</title>
<polygon fill="white" stroke="#bfbfbf" points="1190.5,-515.55 1190.5,-534.55 1257.5,-534.55 1257.5,-515.55 1190.5,-515.55"/>
<text text-anchor="middle" x="1224" y="-522.55" font-family="Helvetica,sans-Serif" font-size="10.00">StackPane</text>
</g>
<!-- Node15&#45;&gt;Node14 -->
<g id="edge15" class="edge"><title>Node15&#45;&gt;Node14</title>
<path fill="none" stroke="midnightblue" d="M1267.91,-528.875C1302.85,-529.76 1351.82,-525.676 1386,-501.05 1425.33,-472.719 1441.35,-412.07 1446.23,-388.6"/>
<polygon fill="midnightblue" stroke="midnightblue" points="1267.68,-525.363 1257.54,-528.458 1267.4,-532.357 1267.68,-525.363"/>
</g>
<!-- Node16 -->
<g id="node16" class="node"><title>Node16</title>
<polygon fill="white" stroke="#bfbfbf" points="354.5,-119.55 354.5,-138.55 447.5,-138.55 447.5,-119.55 354.5,-119.55"/>
<text text-anchor="middle" x="401" y="-126.55" font-family="Helvetica,sans-Serif" font-size="10.00">ResourceBundle</text>
</g>
<!-- Node16&#45;&gt;Node13 -->
<g id="edge31" class="edge"><title>Node16&#45;&gt;Node13</title>
<path fill="none" stroke="#9a32cd" stroke-dasharray="5,2" d="M420.177,-145.53C453.402,-176.095 525.358,-244.359 578,-309.05 608.176,-346.132 638.099,-394.835 650.289,-415.315"/>
<polygon fill="#9a32cd" stroke="#9a32cd" points="422.34,-142.765 412.599,-138.597 417.614,-147.929 422.34,-142.765"/>
<text text-anchor="middle" x="538" y="-312.05" font-family="Helvetica,sans-Serif" font-size="10.00"> myResources</text>
</g>
<!-- Node16&#45;&gt;Node14 -->
<g id="edge16" class="edge"><title>Node16&#45;&gt;Node14</title>
<path fill="none" stroke="#9a32cd" stroke-dasharray="5,2" d="M429.465,-114.878C475.185,-92.6378 570.357,-52.0502 656,-52.0502 656,-52.0502 656,-52.0502 1225,-52.0502 1356.41,-52.0502 1330.78,-180.801 1386,-300.05 1397.7,-325.314 1385.49,-339.254 1404,-360.05 1407.43,-363.904 1411.78,-367.005 1416.4,-369.493"/>
<polygon fill="#9a32cd" stroke="#9a32cd" points="427.631,-111.88 420.222,-119.454 430.737,-118.153 427.631,-111.88"/>
<text text-anchor="middle" x="931" y="-55.0502" font-family="Helvetica,sans-Serif" font-size="10.00"> myResources</text>
</g>
<!-- Node16&#45;&gt;Node21 -->
<g id="edge24" class="edge"><title>Node16&#45;&gt;Node21</title>
<path fill="none" stroke="#9a32cd" stroke-dasharray="5,2" d="M457.939,-126.095C613.678,-119.188 1046.82,-109.391 1138,-208.05 1183.87,-257.685 1112.48,-307.343 1156,-359.05 1163.35,-367.78 1174.33,-372.795 1185.29,-375.647"/>
<polygon fill="#9a32cd" stroke="#9a32cd" points="457.48,-122.612 447.651,-126.565 457.8,-129.605 457.48,-122.612"/>
<text text-anchor="middle" x="781" y="-131.05" font-family="Helvetica,sans-Serif" font-size="10.00"> myResources</text>
</g>
<!-- Node17 -->
<g id="node17" class="node"><title>Node17</title>
<g id="a_node17"><a xlink:href="../../d8/df7/classview_1_1_turtle_view.html" target="_top" xlink:title="view.TurtleView">
<polygon fill="white" stroke="black" points="1181,-553.55 1181,-572.55 1267,-572.55 1267,-553.55 1181,-553.55"/>
<text text-anchor="middle" x="1224" y="-560.55" font-family="Helvetica,sans-Serif" font-size="10.00">view.TurtleView</text>
</a>
</g>
</g>
<!-- Node17&#45;&gt;Node14 -->
<g id="edge17" class="edge"><title>Node17&#45;&gt;Node14</title>
<path fill="none" stroke="#9a32cd" stroke-dasharray="5,2" d="M1277.63,-563.658C1312.02,-561.393 1355.94,-553.125 1386,-528.05 1430.75,-490.718 1443.71,-415.687 1447,-388.863"/>
<polygon fill="#9a32cd" stroke="#9a32cd" points="1277.11,-560.18 1267.3,-564.18 1277.46,-567.171 1277.11,-560.18"/>
<text text-anchor="middle" x="1348" y="-563.05" font-family="Helvetica,sans-Serif" font-size="10.00"> myActiveTurtle</text>
</g>
<!-- Node18 -->
<g id="node18" class="node"><title>Node18</title>
<polygon fill="white" stroke="#bfbfbf" points="897,-561.55 897,-580.55 965,-580.55 965,-561.55 897,-561.55"/>
<text text-anchor="middle" x="931" y="-568.55" font-family="Helvetica,sans-Serif" font-size="10.00">ImageView</text>
</g>
<!-- Node18&#45;&gt;Node17 -->
<g id="edge18" class="edge"><title>Node18&#45;&gt;Node17</title>
<path fill="none" stroke="midnightblue" d="M975.27,-569.861C1030.55,-568.341 1125.64,-565.727 1180.53,-564.218"/>
<polygon fill="midnightblue" stroke="midnightblue" points="974.998,-566.367 965.098,-570.14 975.191,-573.364 974.998,-566.367"/>
</g>
<!-- Node19 -->
<g id="node19" class="node"><title>Node19</title>
<polygon fill="white" stroke="#bfbfbf" points="1156,-320.05 1156,-350.05 1292,-350.05 1292,-320.05 1156,-320.05"/>
<text text-anchor="start" x="1164" y="-338.05" font-family="Helvetica,sans-Serif" font-size="10.00">Map&lt; Integer, view.Turtle</text>
<text text-anchor="middle" x="1224" y="-327.05" font-family="Helvetica,sans-Serif" font-size="10.00">View &gt;</text>
</g>
<!-- Node19&#45;&gt;Node14 -->
<g id="edge19" class="edge"><title>Node19&#45;&gt;Node14</title>
<path fill="none" stroke="#9a32cd" stroke-dasharray="5,2" d="M1302.17,-347.995C1328.8,-352.715 1358.77,-358.309 1386,-364.05 1393.8,-365.695 1402.12,-367.601 1410.05,-369.492"/>
<polygon fill="#9a32cd" stroke="#9a32cd" points="1302.6,-344.517 1292.15,-346.231 1301.39,-351.411 1302.6,-344.517"/>
<text text-anchor="middle" x="1348" y="-367.05" font-family="Helvetica,sans-Serif" font-size="10.00"> myTurtles</text>
</g>
<!-- Node20 -->
<g id="node20" class="node"><title>Node20</title>
<polygon fill="white" stroke="#bfbfbf" points="1201,-281.55 1201,-300.55 1247,-300.55 1247,-281.55 1201,-281.55"/>
<text text-anchor="middle" x="1224" y="-288.55" font-family="Helvetica,sans-Serif" font-size="10.00">Group</text>
</g>
<!-- Node20&#45;&gt;Node14 -->
<g id="edge20" class="edge"><title>Node20&#45;&gt;Node14</title>
<path fill="none" stroke="#9a32cd" stroke-dasharray="5,2" d="M1257.29,-293.512C1291.85,-297.512 1346.95,-307.947 1386,-335.05 1397.25,-342.857 1393.33,-351.471 1404,-360.05 1408.67,-363.804 1414.19,-366.949 1419.72,-369.531"/>
<polygon fill="#9a32cd" stroke="#9a32cd" points="1257.57,-290.023 1247.27,-292.466 1256.85,-296.985 1257.57,-290.023"/>
<text text-anchor="middle" x="1348" y="-338.05" font-family="Helvetica,sans-Serif" font-size="10.00"> myLines</text>
</g>
<!-- Node21&#45;&gt;Node1 -->
<g id="edge42" class="edge"><title>Node21&#45;&gt;Node1</title>
<path fill="none" stroke="#9a32cd" stroke-dasharray="5,2" d="M1196.2,-394.071C1182.77,-402.647 1167.06,-414.406 1156,-428.05 1143.73,-443.195 1153.22,-455.869 1138,-468.05 1100.81,-497.815 765.168,-547.394 718,-554.05 656.198,-562.771 640.366,-562.604 578,-565.05 542.472,-566.444 533.532,-566.344 498,-565.05 476.958,-564.284 453.374,-562.576 434.847,-561.04"/>
<polygon fill="#9a32cd" stroke="#9a32cd" points="1198.35,-396.863 1205.05,-388.659 1194.7,-390.891 1198.35,-396.863"/>
<text text-anchor="middle" x="781" y="-555.05" font-family="Helvetica,sans-Serif" font-size="10.00"> mySidebar</text>
</g>
<!-- Node21&#45;&gt;Node13 -->
<g id="edge40" class="edge"><title>Node21&#45;&gt;Node13</title>
<path fill="none" stroke="#9a32cd" stroke-dasharray="5,2" d="M1185.68,-391.588C1170.99,-395.993 1153.87,-400.482 1138,-403.05 979.479,-428.713 787.951,-428.221 702.688,-426.398"/>
<polygon fill="#9a32cd" stroke="#9a32cd" points="1186.9,-394.875 1195.41,-388.576 1184.83,-388.188 1186.9,-394.875"/>
<text text-anchor="middle" x="931" y="-430.05" font-family="Helvetica,sans-Serif" font-size="10.00"> mySidebar</text>
</g>
<!-- Node21&#45;&gt;Node14 -->
<g id="edge21" class="edge"><title>Node21&#45;&gt;Node14</title>
<path fill="none" stroke="#9a32cd" stroke-dasharray="5,2" d="M1272.59,-379.05C1311.41,-379.05 1365.85,-379.05 1403.74,-379.05"/>
<polygon fill="#9a32cd" stroke="#9a32cd" points="1272.58,-375.55 1262.58,-379.05 1272.58,-382.55 1272.58,-375.55"/>
<text text-anchor="middle" x="1348" y="-382.05" font-family="Helvetica,sans-Serif" font-size="10.00"> mySidebar</text>
</g>
<!-- Node22 -->
<g id="node22" class="node"><title>Node22</title>
<polygon fill="white" stroke="#bfbfbf" points="910.5,-81.5502 910.5,-100.55 951.5,-100.55 951.5,-81.5502 910.5,-81.5502"/>
<text text-anchor="middle" x="931" y="-88.5502" font-family="Helvetica,sans-Serif" font-size="10.00">VBox</text>
</g>
<!-- Node22&#45;&gt;Node21 -->
<g id="edge22" class="edge"><title>Node22&#45;&gt;Node21</title>
<path fill="none" stroke="midnightblue" d="M961.694,-84.1659C1006.88,-75.6436 1092.44,-67.5237 1138,-115.05 1175.62,-154.301 1121.93,-316.677 1156,-359.05 1163.23,-368.038 1174.32,-373.109 1185.41,-375.933"/>
<polygon fill="midnightblue" stroke="midnightblue" points="960.756,-80.7846 951.646,-86.1949 962.141,-87.6461 960.756,-80.7846"/>
</g>
<!-- Node23 -->
<g id="node23" class="node"><title>Node23</title>
<polygon fill="white" stroke="#bfbfbf" points="844.5,-447.55 844.5,-466.55 1017.5,-466.55 1017.5,-447.55 844.5,-447.55"/>
<text text-anchor="middle" x="931" y="-454.55" font-family="Helvetica,sans-Serif" font-size="10.00">ObservableList&lt; view.Property &gt;</text>
</g>
<!-- Node23&#45;&gt;Node21 -->
<g id="edge23" class="edge"><title>Node23&#45;&gt;Node21</title>
<path fill="none" stroke="#9a32cd" stroke-dasharray="5,2" d="M1027.92,-454.105C1063.3,-450.777 1103.21,-444.323 1138,-432.05 1166.7,-421.925 1195.88,-400.876 1211.48,-388.57"/>
<polygon fill="#9a32cd" stroke="#9a32cd" points="1027.25,-450.65 1017.59,-455.001 1027.85,-457.624 1027.25,-450.65"/>
<text text-anchor="middle" x="1087" y="-456.05" font-family="Helvetica,sans-Serif" font-size="10.00"> variablesList</text>
</g>
<!-- Node24 -->
<g id="node24" class="node"><title>Node24</title>
<polygon fill="white" stroke="#bfbfbf" points="857,-362.55 857,-381.55 1005,-381.55 1005,-362.55 857,-362.55"/>
<text text-anchor="middle" x="931" y="-369.55" font-family="Helvetica,sans-Serif" font-size="10.00">TableView&lt; view.Property &gt;</text>
</g>
<!-- Node24&#45;&gt;Node21 -->
<g id="edge26" class="edge"><title>Node24&#45;&gt;Node21</title>
<path fill="none" stroke="#9a32cd" stroke-dasharray="5,2" d="M1015.31,-374.054C1071.25,-375.4 1142.29,-377.109 1185.12,-378.139"/>
<polygon fill="#9a32cd" stroke="#9a32cd" points="1015.14,-370.549 1005.06,-373.808 1014.97,-377.547 1015.14,-370.549"/>
<text text-anchor="middle" x="1087" y="-391.05" font-family="Helvetica,sans-Serif" font-size="10.00"> turtlePropertiesTable</text>
<text text-anchor="middle" x="1087" y="-380.05" font-family="Helvetica,sans-Serif" font-size="10.00">variablesTable</text>
</g>
<!-- Node25 -->
<g id="node25" class="node"><title>Node25</title>
<polygon fill="white" stroke="#bfbfbf" points="862,-324.55 862,-343.55 1000,-343.55 1000,-324.55 862,-324.55"/>
<text text-anchor="middle" x="931" y="-331.55" font-family="Helvetica,sans-Serif" font-size="10.00">ObservableList&lt; String &gt;</text>
</g>
<!-- Node25&#45;&gt;Node21 -->
<g id="edge28" class="edge"><title>Node25&#45;&gt;Node21</title>
<path fill="none" stroke="#9a32cd" stroke-dasharray="5,2" d="M1010.38,-331.852C1049.45,-332.731 1096.99,-336.818 1138,-349.05 1146.77,-351.666 1147.57,-355.498 1156,-359.05 1165.4,-363.008 1175.84,-366.522 1185.63,-369.457"/>
<polygon fill="#9a32cd" stroke="#9a32cd" points="1010.18,-328.349 1000.12,-331.69 1010.07,-335.348 1010.18,-328.349"/>
<text text-anchor="middle" x="1087" y="-363.05" font-family="Helvetica,sans-Serif" font-size="10.00"> commandItems</text>
<text text-anchor="middle" x="1087" y="-352.05" font-family="Helvetica,sans-Serif" font-size="10.00">historyItems</text>
</g>
<!-- Node26 -->
<g id="node26" class="node"><title>Node26</title>
<polygon fill="white" stroke="#bfbfbf" points="1192.5,-4.55017 1192.5,-23.5502 1255.5,-23.5502 1255.5,-4.55017 1192.5,-4.55017"/>
<text text-anchor="middle" x="1224" y="-11.5502" font-family="Helvetica,sans-Serif" font-size="10.00">Rectangle</text>
</g>
<!-- Node26&#45;&gt;Node14 -->
<g id="edge29" class="edge"><title>Node26&#45;&gt;Node14</title>
<path fill="none" stroke="#9a32cd" stroke-dasharray="5,2" d="M1265.64,-4.08581C1302.47,2.26657 1355.51,4.26056 1386,-27.0502 1411.85,-53.5971 1382.82,-329.649 1404,-360.05 1406.66,-363.873 1410.27,-366.933 1414.27,-369.38"/>
<polygon fill="#9a32cd" stroke="#9a32cd" points="1264.89,-0.666312 1255.72,-5.96903 1266.2,-7.54363 1264.89,-0.666312"/>
<text text-anchor="middle" x="1348" y="-30.0502" font-family="Helvetica,sans-Serif" font-size="10.00"> myBackground</text>
</g>
<!-- Node27 -->
<g id="node27" class="node"><title>Node27</title>
<polygon fill="white" stroke="#bfbfbf" points="378.5,-492.55 378.5,-511.55 423.5,-511.55 423.5,-492.55 378.5,-492.55"/>
<text text-anchor="middle" x="401" y="-499.55" font-family="Helvetica,sans-Serif" font-size="10.00">Stage</text>
</g>
<!-- Node27&#45;&gt;Node13 -->
<g id="edge30" class="edge"><title>Node27&#45;&gt;Node13</title>
<path fill="none" stroke="#9a32cd" stroke-dasharray="5,2" d="M434.054,-498.906C469.955,-494.693 529.471,-485.618 578,-468.05 601.7,-459.471 626.841,-444.384 641.981,-434.555"/>
<polygon fill="#9a32cd" stroke="#9a32cd" points="433.259,-495.473 423.709,-500.062 434.036,-502.43 433.259,-495.473"/>
<text text-anchor="middle" x="538" y="-492.05" font-family="Helvetica,sans-Serif" font-size="10.00"> myStage</text>
</g>
<!-- Node28 -->
<g id="node28" class="node"><title>Node28</title>
<polygon fill="white" stroke="#bfbfbf" points="341.5,-454.55 341.5,-473.55 460.5,-473.55 460.5,-454.55 341.5,-454.55"/>
<text text-anchor="middle" x="401" y="-461.55" font-family="Helvetica,sans-Serif" font-size="10.00">Map&lt; String, Node &gt;</text>
</g>
<!-- Node28&#45;&gt;Node13 -->
<g id="edge33" class="edge"><title>Node28&#45;&gt;Node13</title>
<path fill="none" stroke="#9a32cd" stroke-dasharray="5,2" d="M471.13,-456.19C503.645,-452.193 542.898,-446.936 578,-441.05 589.179,-439.176 601.2,-436.86 612.375,-434.579"/>
<polygon fill="#9a32cd" stroke="#9a32cd" points="470.329,-452.761 460.825,-457.442 471.174,-459.71 470.329,-452.761"/>
<text text-anchor="middle" x="538" y="-456.05" font-family="Helvetica,sans-Serif" font-size="10.00"> variables</text>
</g>
<!-- Node29 -->
<g id="node29" class="node"><title>Node29</title>
<polygon fill="white" stroke="#bfbfbf" points="360.5,-416.55 360.5,-435.55 441.5,-435.55 441.5,-416.55 360.5,-416.55"/>
<text text-anchor="middle" x="401" y="-423.55" font-family="Helvetica,sans-Serif" font-size="10.00">Dimension2D</text>
</g>
<!-- Node29&#45;&gt;Node13 -->
<g id="edge36" class="edge"><title>Node29&#45;&gt;Node13</title>
<path fill="none" stroke="#9a32cd" stroke-dasharray="5,2" d="M451.82,-425.854C498.242,-425.671 566.828,-425.401 611.466,-425.226"/>
<polygon fill="#9a32cd" stroke="#9a32cd" points="451.674,-422.354 441.688,-425.894 451.701,-429.354 451.674,-422.354"/>
<text text-anchor="middle" x="538" y="-429.05" font-family="Helvetica,sans-Serif" font-size="10.00"> myDimensions</text>
</g>
<!-- Node30&#45;&gt;Node13 -->
<g id="edge37" class="edge"><title>Node30&#45;&gt;Node13</title>
<path fill="none" stroke="#9a32cd" stroke-dasharray="5,2" d="M1630.7,-398.289C1614.17,-453.589 1558.08,-609.05 1450,-609.05 1086,-609.05 1086,-609.05 1086,-609.05 978.113,-609.05 943.286,-632.261 844,-590.05 759.783,-554.245 687.493,-464.587 665.131,-434.824"/>
<polygon fill="#9a32cd" stroke="#9a32cd" points="1634.07,-399.218 1633.48,-388.64 1627.35,-397.279 1634.07,-399.218"/>
<text text-anchor="middle" x="1224" y="-612.05" font-family="Helvetica,sans-Serif" font-size="10.00"> drawer</text>
</g>
<!-- Node31 -->
<g id="node31" class="node"><title>Node31</title>
<polygon fill="white" stroke="#bfbfbf" points="1428.5,-331.55 1428.5,-350.55 1469.5,-350.55 1469.5,-331.55 1428.5,-331.55"/>
<text text-anchor="middle" x="1449" y="-338.55" font-family="Helvetica,sans-Serif" font-size="10.00">Color</text>
</g>
<!-- Node31&#45;&gt;Node30 -->
<g id="edge39" class="edge"><title>Node31&#45;&gt;Node30</title>
<path fill="none" stroke="#9a32cd" stroke-dasharray="5,2" d="M1479.73,-345.374C1506.59,-349.483 1547.14,-356.192 1582,-364.05 1589.02,-365.634 1596.5,-367.555 1603.58,-369.487"/>
<polygon fill="#9a32cd" stroke="#9a32cd" points="1480.21,-341.907 1469.8,-343.878 1479.17,-348.829 1480.21,-341.907"/>
<text text-anchor="middle" x="1547" y="-367.05" font-family="Helvetica,sans-Serif" font-size="10.00"> myColor</text>
</g>
<!-- Node32 -->
<g id="node32" class="node"><title>Node32</title>
<polygon fill="white" stroke="#bfbfbf" points="58,-586.55 58,-605.55 116,-605.55 116,-586.55 58,-586.55"/>
<text text-anchor="middle" x="87" y="-593.55" font-family="Helvetica,sans-Serif" font-size="10.00">TextArea</text>
</g>
<!-- Node32&#45;&gt;Node1 -->
<g id="edge41" class="edge"><title>Node32&#45;&gt;Node1</title>
<path fill="none" stroke="#9a32cd" stroke-dasharray="5,2" d="M126.42,-592.181C169.649,-587.735 241.942,-580.021 304,-572.05 325.049,-569.347 348.634,-565.913 367.159,-563.123"/>
<polygon fill="#9a32cd" stroke="#9a32cd" points="125.933,-588.713 116.342,-593.213 126.646,-595.676 125.933,-588.713"/>
<text text-anchor="middle" x="248" y="-589.05" font-family="Helvetica,sans-Serif" font-size="10.00"> textEditor</text>
</g>
</g>
</svg>
