<?xml version="1.0" encoding="UTF-8" standalone="no"?>
<!DOCTYPE svg PUBLIC "-//W3C//DTD SVG 1.1//EN"
 "http://www.w3.org/Graphics/SVG/1.1/DTD/svg11.dtd">
<!-- Generated by graphviz version 2.36.0 (20140111.2315)
 -->
<!-- Title: model.instructions.MovementInstruction Pages: 1 -->
<svg width="1604pt" height="712pt"
 viewBox="0.00 0.00 1604.00 712.00" xmlns="http://www.w3.org/2000/svg" xmlns:xlink="http://www.w3.org/1999/xlink">
<g id="graph0" class="graph" transform="scale(1 1) rotate(0) translate(4 708)">
<title>model.instructions.MovementInstruction</title>
<polygon fill="white" stroke="none" points="-4,4 -4,-708 1600,-708 1600,4 -4,4"/>
<!-- Node1 -->
<g id="node1" class="node"><title>Node1</title>
<polygon fill="#bfbfbf" stroke="black" points="1010.5,-625 1010.5,-655 1169.5,-655 1169.5,-625 1010.5,-625"/>
<text text-anchor="start" x="1018.5" y="-643" font-family="Helvetica,sans-Serif" font-size="10.00">model.instructions.Movement</text>
<text text-anchor="middle" x="1090" y="-632" font-family="Helvetica,sans-Serif" font-size="10.00">Instruction</text>
</g>
<!-- Node2 -->
<g id="node2" class="node"><title>Node2</title>
<g id="a_node2"><a xlink:href="../../d1/dea/classmodel_1_1instructions_1_1_instruction.html" target="_top" xlink:title="model.instructions.Instruction">
<polygon fill="white" stroke="black" points="760,-576.5 760,-595.5 918,-595.5 918,-576.5 760,-576.5"/>
<text text-anchor="middle" x="839" y="-583.5" font-family="Helvetica,sans-Serif" font-size="10.00">model.instructions.Instruction</text>
</a>
</g>
</g>
<!-- Node2&#45;&gt;Node1 -->
<g id="edge1" class="edge"><title>Node2&#45;&gt;Node1</title>
<path fill="none" stroke="midnightblue" d="M893.987,-597.708C930.817,-605.695 979.93,-616.346 1019.65,-624.961"/>
<polygon fill="midnightblue" stroke="midnightblue" points="894.458,-594.229 883.943,-595.53 892.974,-601.07 894.458,-594.229"/>
</g>
<!-- Node3 -->
<g id="node3" class="node"><title>Node3</title>
<polygon fill="white" stroke="#bfbfbf" points="179,-250.5 179,-269.5 239,-269.5 239,-250.5 179,-250.5"/>
<text text-anchor="middle" x="209" y="-257.5" font-family="Helvetica,sans-Serif" font-size="10.00">Observer</text>
</g>
<!-- Node3&#45;&gt;Node2 -->
<g id="edge2" class="edge"><title>Node3&#45;&gt;Node2</title>
<path fill="none" stroke="midnightblue" d="M249.365,-256.286C293.66,-253.518 367.112,-253.219 426,-274 516.233,-305.842 545.317,-320.909 602,-398 617.487,-419.062 600.742,-436.32 620,-454 660.981,-491.623 693.874,-454.093 742,-482 784.301,-506.529 818.846,-555.766 832.133,-576.476"/>
<polygon fill="midnightblue" stroke="midnightblue" points="249.028,-252.801 239.297,-256.99 249.517,-259.784 249.028,-252.801"/>
</g>
<!-- Node9 -->
<g id="node9" class="node"><title>Node9</title>
<g id="a_node9"><a xlink:href="../../d6/de7/classview_1_1_s_logo_view.html" target="_top" xlink:title="view.SLogoView">
<polygon fill="white" stroke="black" points="477.5,-407.5 477.5,-426.5 568.5,-426.5 568.5,-407.5 477.5,-407.5"/>
<text text-anchor="middle" x="523" y="-414.5" font-family="Helvetica,sans-Serif" font-size="10.00">view.SLogoView</text>
</a>
</g>
</g>
<!-- Node3&#45;&gt;Node9 -->
<g id="edge9" class="edge"><title>Node3&#45;&gt;Node9</title>
<path fill="none" stroke="midnightblue" d="M240.595,-273.713C261.225,-282.842 289.116,-294.958 314,-305 363.3,-324.895 379.203,-321.774 426,-347 459.045,-364.813 493.626,-392.679 510.857,-407.3"/>
<polygon fill="midnightblue" stroke="midnightblue" points="241.941,-270.481 231.381,-269.621 239.099,-276.878 241.941,-270.481"/>
</g>
<!-- Node18 -->
<g id="node18" class="node"><title>Node18</title>
<g id="a_node18"><a xlink:href="../../dc/df5/classmodel_1_1_parser.html" target="_top" xlink:title="model.Parser">
<polygon fill="white" stroke="black" points="799,-206.5 799,-225.5 879,-225.5 879,-206.5 799,-206.5"/>
<text text-anchor="middle" x="839" y="-213.5" font-family="Helvetica,sans-Serif" font-size="10.00">model.Parser</text>
</a>
</g>
</g>
<!-- Node3&#45;&gt;Node18 -->
<g id="edge19" class="edge"><title>Node3&#45;&gt;Node18</title>
<path fill="none" stroke="midnightblue" d="M249.139,-255.463C268.617,-253.306 292.53,-250.811 314,-249 408.236,-241.053 693.967,-224.308 798.85,-218.249"/>
<polygon fill="midnightblue" stroke="midnightblue" points="248.655,-251.995 239.107,-256.587 249.435,-258.952 248.655,-251.995"/>
</g>
<!-- Node4 -->
<g id="node4" class="node"><title>Node4</title>
<g id="a_node4"><a xlink:href="../../d1/dca/classmodel_1_1_execution_environment.html" target="_top" xlink:title="model.ExecutionEnvironment">
<polygon fill="white" stroke="black" points="444.5,-576.5 444.5,-595.5 601.5,-595.5 601.5,-576.5 444.5,-576.5"/>
<text text-anchor="middle" x="523" y="-583.5" font-family="Helvetica,sans-Serif" font-size="10.00">model.ExecutionEnvironment</text>
</a>
</g>
</g>
<!-- Node4&#45;&gt;Node2 -->
<g id="edge3" class="edge"><title>Node4&#45;&gt;Node2</title>
<path fill="none" stroke="#9a32cd" stroke-dasharray="5,2" d="M611.688,-586C658.218,-586 714.911,-586 759.914,-586"/>
<polygon fill="#9a32cd" stroke="#9a32cd" points="611.618,-582.5 601.618,-586 611.618,-589.5 611.618,-582.5"/>
<text text-anchor="middle" x="681" y="-589" font-family="Helvetica,sans-Serif" font-size="10.00"> myEnvironment</text>
</g>
<!-- Node4&#45;&gt;Node18 -->
<g id="edge21" class="edge"><title>Node4&#45;&gt;Node18</title>
<path fill="none" stroke="#9a32cd" stroke-dasharray="5,2" d="M537.277,-568.11C572.149,-521.442 669.871,-392.713 760,-293 782.967,-267.59 812.199,-239.845 827.531,-225.611"/>
<polygon fill="#9a32cd" stroke="#9a32cd" points="534.33,-566.206 531.162,-576.316 539.943,-570.389 534.33,-566.206"/>
<text text-anchor="middle" x="681" y="-461" font-family="Helvetica,sans-Serif" font-size="10.00"> myExecutionParameters</text>
</g>
<!-- Node5 -->
<g id="node5" class="node"><title>Node5</title>
<polygon fill="white" stroke="#bfbfbf" points="173.5,-596.5 173.5,-615.5 244.5,-615.5 244.5,-596.5 173.5,-596.5"/>
<text text-anchor="middle" x="209" y="-603.5" font-family="Helvetica,sans-Serif" font-size="10.00">Observable</text>
</g>
<!-- Node5&#45;&gt;Node4 -->
<g id="edge4" class="edge"><title>Node5&#45;&gt;Node4</title>
<path fill="none" stroke="midnightblue" d="M254.637,-603.139C304.066,-599.97 384.658,-594.804 444.457,-590.971"/>
<polygon fill="midnightblue" stroke="midnightblue" points="254.337,-599.651 244.582,-603.783 254.785,-606.636 254.337,-599.651"/>
</g>
<!-- Node6 -->
<g id="node6" class="node"><title>Node6</title>
<polygon fill="white" stroke="#bfbfbf" points="122,-673 122,-703 296,-703 296,-673 122,-673"/>
<text text-anchor="start" x="130" y="-691" font-family="Helvetica,sans-Serif" font-size="10.00">Map&lt; String, model.instructions.</text>
<text text-anchor="middle" x="209" y="-680" font-family="Helvetica,sans-Serif" font-size="10.00">Instruction &gt;</text>
</g>
<!-- Node6&#45;&gt;Node4 -->
<g id="edge5" class="edge"><title>Node6&#45;&gt;Node4</title>
<path fill="none" stroke="#9a32cd" stroke-dasharray="5,2" d="M306.16,-688.478C346.865,-684.152 392.512,-672.782 426,-646 441.542,-633.57 428.754,-617.79 444,-605 448.591,-601.148 453.841,-598.054 459.398,-595.572"/>
<polygon fill="#9a32cd" stroke="#9a32cd" points="305.832,-684.993 296.201,-689.408 306.484,-691.962 305.832,-684.993"/>
<text text-anchor="middle" x="370" y="-691" font-family="Helvetica,sans-Serif" font-size="10.00"> myUserInstructionMap</text>
</g>
<!-- Node7 -->
<g id="node7" class="node"><title>Node7</title>
<polygon fill="white" stroke="#bfbfbf" points="145,-634.5 145,-653.5 273,-653.5 273,-634.5 145,-634.5"/>
<text text-anchor="middle" x="209" y="-641.5" font-family="Helvetica,sans-Serif" font-size="10.00">Map&lt; String, Double &gt;</text>
</g>
<!-- Node7&#45;&gt;Node4 -->
<g id="edge6" class="edge"><title>Node7&#45;&gt;Node4</title>
<path fill="none" stroke="#9a32cd" stroke-dasharray="5,2" d="M283.348,-634.587C325.334,-628.668 378.874,-620.219 426,-610 434.114,-608.24 435.965,-607.094 444,-605 456.273,-601.801 469.677,-598.476 481.857,-595.518"/>
<polygon fill="#9a32cd" stroke="#9a32cd" points="282.63,-631.153 273.208,-635.999 283.595,-638.087 282.63,-631.153"/>
<text text-anchor="middle" x="370" y="-634" font-family="Helvetica,sans-Serif" font-size="10.00"> myVariableMap</text>
</g>
<!-- Node8 -->
<g id="node8" class="node"><title>Node8</title>
<polygon fill="white" stroke="#bfbfbf" points="455,-615 455,-645 591,-645 591,-615 455,-615"/>
<text text-anchor="start" x="463" y="-633" font-family="Helvetica,sans-Serif" font-size="10.00">List&lt; model.instructions.</text>
<text text-anchor="middle" x="523" y="-622" font-family="Helvetica,sans-Serif" font-size="10.00">Instruction &gt;</text>
</g>
<!-- Node8&#45;&gt;Node2 -->
<g id="edge7" class="edge"><title>Node8&#45;&gt;Node2</title>
<path fill="none" stroke="#9a32cd" stroke-dasharray="5,2" d="M601.412,-620.137C643.1,-614.716 695.396,-607.74 742,-601 753.77,-599.298 766.338,-597.396 778.372,-595.533"/>
<polygon fill="#9a32cd" stroke="#9a32cd" points="600.792,-616.688 591.326,-621.446 601.693,-623.63 600.792,-616.688"/>
<text text-anchor="middle" x="681" y="-621" font-family="Helvetica,sans-Serif" font-size="10.00"> myDependencies</text>
</g>
<!-- Node9&#45;&gt;Node2 -->
<g id="edge8" class="edge"><title>Node9&#45;&gt;Node2</title>
<path fill="none" stroke="#9a32cd" stroke-dasharray="5,2" d="M545.213,-432.72C564.282,-446.519 593.312,-466.714 620,-482 688.772,-521.391 774.821,-559.305 815.151,-576.452"/>
<polygon fill="#9a32cd" stroke="#9a32cd" points="547.093,-429.759 536.952,-426.691 542.966,-435.413 547.093,-429.759"/>
<text text-anchor="middle" x="681" y="-545" font-family="Helvetica,sans-Serif" font-size="10.00"> myView</text>
</g>
<!-- Node9&#45;&gt;Node18 -->
<g id="edge23" class="edge"><title>Node9&#45;&gt;Node18</title>
<path fill="none" stroke="#9a32cd" stroke-dasharray="5,2" d="M533.269,-398.524C547.983,-371.001 579.243,-319.336 620,-290 666.427,-256.584 687.841,-267.409 742,-249 765.027,-241.173 791.125,-232.195 810.291,-225.581"/>
<polygon fill="#9a32cd" stroke="#9a32cd" points="530.117,-396.999 528.609,-407.486 536.328,-400.228 530.117,-396.999"/>
<text text-anchor="middle" x="681" y="-293" font-family="Helvetica,sans-Serif" font-size="10.00"> mySLogoView</text>
</g>
<!-- Node10 -->
<g id="node10" class="node"><title>Node10</title>
<g id="a_node10"><a xlink:href="../../da/d64/classview_1_1_workspace.html" target="_top" xlink:title="view.Workspace">
<polygon fill="white" stroke="black" points="1506,-428.5 1506,-447.5 1596,-447.5 1596,-428.5 1506,-428.5"/>
<text text-anchor="middle" x="1551" y="-435.5" font-family="Helvetica,sans-Serif" font-size="10.00">view.Workspace</text>
</a>
</g>
</g>
<!-- Node10&#45;&gt;Node9 -->
<g id="edge10" class="edge"><title>Node10&#45;&gt;Node9</title>
<path fill="none" stroke="#9a32cd" stroke-dasharray="5,2" d="M1495.69,-437.642C1470.27,-437.466 1439.58,-437.239 1412,-437 1060,-433.947 971.223,-452.648 620,-429 603.242,-427.872 584.927,-425.794 568.83,-423.68"/>
<polygon fill="#9a32cd" stroke="#9a32cd" points="1495.85,-441.143 1505.87,-437.712 1495.9,-434.143 1495.85,-441.143"/>
<text text-anchor="middle" x="1090" y="-444" font-family="Helvetica,sans-Serif" font-size="10.00"> myWorkspace</text>
</g>
<!-- Node11 -->
<g id="node11" class="node"><title>Node11</title>
<polygon fill="white" stroke="#bfbfbf" points="1317.5,-517.5 1317.5,-536.5 1384.5,-536.5 1384.5,-517.5 1317.5,-517.5"/>
<text text-anchor="middle" x="1351" y="-524.5" font-family="Helvetica,sans-Serif" font-size="10.00">StackPane</text>
</g>
<!-- Node11&#45;&gt;Node10 -->
<g id="edge11" class="edge"><title>Node11&#45;&gt;Node10</title>
<path fill="none" stroke="midnightblue" d="M1394.97,-523.521C1422.82,-519.858 1459.13,-512.355 1488,-497 1511.35,-484.579 1532.2,-460.907 1542.74,-447.635"/>
<polygon fill="midnightblue" stroke="midnightblue" points="1394.26,-520.081 1384.75,-524.745 1395.1,-527.031 1394.26,-520.081"/>
</g>
<!-- Node12 -->
<g id="node12" class="node"><title>Node12</title>
<g id="a_node12"><a xlink:href="../../d8/df7/classview_1_1_turtle_view.html" target="_top" xlink:title="view.TurtleView">
<polygon fill="white" stroke="black" points="1308,-479.5 1308,-498.5 1394,-498.5 1394,-479.5 1308,-479.5"/>
<text text-anchor="middle" x="1351" y="-486.5" font-family="Helvetica,sans-Serif" font-size="10.00">view.TurtleView</text>
</a>
</g>
</g>
<!-- Node12&#45;&gt;Node10 -->
<g id="edge12" class="edge"><title>Node12&#45;&gt;Node10</title>
<path fill="none" stroke="#9a32cd" stroke-dasharray="5,2" d="M1404.49,-482.691C1430.02,-478.878 1460.96,-473.147 1488,-465 1502.95,-460.495 1519.1,-453.383 1531.17,-447.589"/>
<polygon fill="#9a32cd" stroke="#9a32cd" points="1403.66,-479.273 1394.26,-484.159 1404.66,-486.202 1403.66,-479.273"/>
<text text-anchor="middle" x="1450" y="-485" font-family="Helvetica,sans-Serif" font-size="10.00"> myActiveTurtle</text>
</g>
<!-- Node13 -->
<g id="node13" class="node"><title>Node13</title>
<polygon fill="white" stroke="#bfbfbf" points="1056,-480.5 1056,-499.5 1124,-499.5 1124,-480.5 1056,-480.5"/>
<text text-anchor="middle" x="1090" y="-487.5" font-family="Helvetica,sans-Serif" font-size="10.00">ImageView</text>
</g>
<!-- Node13&#45;&gt;Node12 -->
<g id="edge13" class="edge"><title>Node13&#45;&gt;Node12</title>
<path fill="none" stroke="midnightblue" d="M1134.18,-489.833C1182.37,-489.647 1259.85,-489.348 1307.69,-489.163"/>
<polygon fill="midnightblue" stroke="midnightblue" points="1134.05,-486.334 1124.07,-489.872 1134.08,-493.334 1134.05,-486.334"/>
</g>
<!-- Node14 -->
<g id="node14" class="node"><title>Node14</title>
<polygon fill="white" stroke="#bfbfbf" points="141,-62 141,-92 277,-92 277,-62 141,-62"/>
<text text-anchor="start" x="149" y="-80" font-family="Helvetica,sans-Serif" font-size="10.00">Map&lt; Integer, view.Turtle</text>
<text text-anchor="middle" x="209" y="-69" font-family="Helvetica,sans-Serif" font-size="10.00">View &gt;</text>
</g>
<!-- Node14&#45;&gt;Node9 -->
<g id="edge41" class="edge"><title>Node14&#45;&gt;Node9</title>
<path fill="none" stroke="#9a32cd" stroke-dasharray="5,2" d="M234.099,-98.989C275.14,-136.865 360.514,-217.533 426,-292 461.959,-332.89 500.022,-385.742 515.19,-407.25"/>
<polygon fill="#9a32cd" stroke="#9a32cd" points="236.462,-96.4073 226.734,-92.2121 231.723,-101.559 236.462,-96.4073"/>
<text text-anchor="middle" x="370" y="-295" font-family="Helvetica,sans-Serif" font-size="10.00"> myTurtles</text>
</g>
<!-- Node14&#45;&gt;Node10 -->
<g id="edge14" class="edge"><title>Node14&#45;&gt;Node10</title>
<path fill="none" stroke="#9a32cd" stroke-dasharray="5,2" d="M283.965,-59.8652C346.9,-46.7879 439.885,-31 522,-31 522,-31 522,-31 965,-31 1111.08,-31 1181.9,18.2528 1290,-80 1314.41,-102.186 1287.72,-125.989 1308,-152 1334.66,-186.182 1358.69,-172.851 1394,-198 1440.36,-231.027 1455.65,-238.164 1488,-285 1521.56,-333.577 1541.25,-403.046 1547.67,-428.33"/>
<polygon fill="#9a32cd" stroke="#9a32cd" points="283.192,-56.4511 274.128,-61.9379 284.635,-63.3007 283.192,-56.4511"/>
<text text-anchor="middle" x="964" y="-34" font-family="Helvetica,sans-Serif" font-size="10.00"> myTurtles</text>
</g>
<!-- Node15 -->
<g id="node15" class="node"><title>Node15</title>
<g id="a_node15"><a xlink:href="../../d1/dc7/classview_1_1_side_bar.html" target="_top" xlink:title="view.SideBar">
<polygon fill="white" stroke="black" points="1312.5,-207.5 1312.5,-226.5 1389.5,-226.5 1389.5,-207.5 1312.5,-207.5"/>
<text text-anchor="middle" x="1351" y="-214.5" font-family="Helvetica,sans-Serif" font-size="10.00">view.SideBar</text>
</a>
</g>
</g>
<!-- Node14&#45;&gt;Node15 -->
<g id="edge25" class="edge"><title>Node14&#45;&gt;Node15</title>
<path fill="none" stroke="#9a32cd" stroke-dasharray="5,2" d="M287.466,-74.7147C450.843,-70.5928 842.619,-64.3862 1170,-88 1223.67,-91.8709 1250.49,-67.4769 1290,-104 1318.04,-129.917 1286.8,-156.248 1308,-188 1313.41,-196.106 1321.93,-202.6 1329.88,-207.371"/>
<polygon fill="#9a32cd" stroke="#9a32cd" points="286.945,-71.2268 277.038,-74.9828 287.125,-78.2245 286.945,-71.2268"/>
<text text-anchor="middle" x="839" y="-79" font-family="Helvetica,sans-Serif" font-size="10.00"> myTurtles</text>
</g>
<!-- Node15&#45;&gt;Node9 -->
<g id="edge45" class="edge"><title>Node15&#45;&gt;Node9</title>
<path fill="none" stroke="#9a32cd" stroke-dasharray="5,2" d="M1346.01,-236.622C1339.44,-263.321 1323.57,-310.254 1290,-332 1164.81,-413.086 764.555,-335.246 620,-372 590.03,-379.62 558.052,-396.619 539.608,-407.405"/>
<polygon fill="#9a32cd" stroke="#9a32cd" points="1349.5,-237.076 1348.28,-226.551 1342.67,-235.536 1349.5,-237.076"/>
<text text-anchor="middle" x="964" y="-373" font-family="Helvetica,sans-Serif" font-size="10.00"> mySidebar</text>
</g>
<!-- Node15&#45;&gt;Node10 -->
<g id="edge15" class="edge"><title>Node15&#45;&gt;Node10</title>
<path fill="none" stroke="#9a32cd" stroke-dasharray="5,2" d="M1367.59,-234.398C1407.19,-278.6 1510.7,-394.137 1541.34,-428.332"/>
<polygon fill="#9a32cd" stroke="#9a32cd" points="1370.04,-231.894 1360.76,-226.781 1364.83,-236.565 1370.04,-231.894"/>
<text text-anchor="middle" x="1450" y="-370" font-family="Helvetica,sans-Serif" font-size="10.00"> mySidebar</text>
</g>
<!-- Node28 -->
<g id="node28" class="node"><title>Node28</title>
<g id="a_node28"><a xlink:href="../../da/dc8/classview_1_1_editor.html" target="_top" xlink:title="view.Editor">
<polygon fill="white" stroke="black" points="1517.5,-100.5 1517.5,-119.5 1584.5,-119.5 1584.5,-100.5 1517.5,-100.5"/>
<text text-anchor="middle" x="1551" y="-107.5" font-family="Helvetica,sans-Serif" font-size="10.00">view.Editor</text>
</a>
</g>
</g>
<!-- Node15&#45;&gt;Node28 -->
<g id="edge37" class="edge"><title>Node15&#45;&gt;Node28</title>
<path fill="none" stroke="#9a32cd" stroke-dasharray="5,2" d="M1378.83,-202.501C1419.95,-180.28 1497.44,-138.404 1532.26,-119.585"/>
<polygon fill="#9a32cd" stroke="#9a32cd" points="1377.05,-199.482 1369.92,-207.316 1380.38,-205.641 1377.05,-199.482"/>
<text text-anchor="middle" x="1450" y="-186" font-family="Helvetica,sans-Serif" font-size="10.00"> mySidebar</text>
</g>
<!-- Node16 -->
<g id="node16" class="node"><title>Node16</title>
<polygon fill="white" stroke="#bfbfbf" points="1069.5,-135.5 1069.5,-154.5 1110.5,-154.5 1110.5,-135.5 1069.5,-135.5"/>
<text text-anchor="middle" x="1090" y="-142.5" font-family="Helvetica,sans-Serif" font-size="10.00">VBox</text>
</g>
<!-- Node16&#45;&gt;Node15 -->
<g id="edge16" class="edge"><title>Node16&#45;&gt;Node15</title>
<path fill="none" stroke="midnightblue" d="M1120.67,-148.841C1160.12,-154.493 1231.67,-166.641 1290,-187 1305.39,-192.373 1321.9,-200.842 1333.69,-207.413"/>
<polygon fill="midnightblue" stroke="midnightblue" points="1121.04,-145.36 1110.66,-147.45 1120.08,-152.294 1121.04,-145.36"/>
</g>
<!-- Node17 -->
<g id="node17" class="node"><title>Node17</title>
<g id="a_node17"><a xlink:href="../../d4/dd9/classcontroller_1_1_s_logo_controller.html" target="_top" xlink:title="controller.SLogoController">
<polygon fill="white" stroke="black" points="1020,-97.5 1020,-116.5 1160,-116.5 1160,-97.5 1020,-97.5"/>
<text text-anchor="middle" x="1090" y="-104.5" font-family="Helvetica,sans-Serif" font-size="10.00">controller.SLogoController</text>
</a>
</g>
</g>
<!-- Node17&#45;&gt;Node9 -->
<g id="edge39" class="edge"><title>Node17&#45;&gt;Node9</title>
<path fill="none" stroke="#9a32cd" stroke-dasharray="5,2" d="M1015.58,-121.688C1013.63,-123.009 1011.76,-124.444 1010,-126 992.931,-141.092 1005.24,-155.458 992,-174 967.232,-208.688 954.902,-213.671 918,-235 845.671,-276.806 820.51,-272.447 742,-301 687.971,-320.65 670.604,-316.715 620,-344 586.089,-362.284 551.331,-391.997 534.463,-407.264"/>
<polygon fill="#9a32cd" stroke="#9a32cd" points="1017.62,-124.555 1024.6,-116.587 1014.17,-118.462 1017.62,-124.555"/>
<text text-anchor="middle" x="839" y="-298" font-family="Helvetica,sans-Serif" font-size="10.00"> myController</text>
</g>
<!-- Node17&#45;&gt;Node15 -->
<g id="edge17" class="edge"><title>Node17&#45;&gt;Node15</title>
<path fill="none" stroke="#9a32cd" stroke-dasharray="5,2" d="M1170.59,-105.724C1210.27,-108.974 1256.75,-119.128 1290,-146 1305.8,-158.765 1295.14,-172.281 1308,-188 1314.4,-195.818 1323.42,-202.424 1331.47,-207.347"/>
<polygon fill="#9a32cd" stroke="#9a32cd" points="1170.61,-102.218 1160.4,-105.026 1170.14,-109.201 1170.61,-102.218"/>
<text text-anchor="middle" x="1239" y="-149" font-family="Helvetica,sans-Serif" font-size="10.00"> myController</text>
</g>
<!-- Node17&#45;&gt;Node28 -->
<g id="edge35" class="edge"><title>Node17&#45;&gt;Node28</title>
<path fill="none" stroke="#9a32cd" stroke-dasharray="5,2" d="M1170.55,-104.403C1231.67,-102.783 1318.18,-101.3 1394,-103 1436.69,-103.957 1485.9,-106.386 1517.45,-108.114"/>
<polygon fill="#9a32cd" stroke="#9a32cd" points="1170.1,-100.914 1160.2,-104.685 1170.29,-107.911 1170.1,-100.914"/>
<text text-anchor="middle" x="1351" y="-106" font-family="Helvetica,sans-Serif" font-size="10.00"> myController</text>
</g>
<!-- Node18&#45;&gt;Node17 -->
<g id="edge18" class="edge"><title>Node18&#45;&gt;Node17</title>
<path fill="none" stroke="#9a32cd" stroke-dasharray="5,2" d="M863.508,-201.101C895.519,-181.396 955.129,-146.745 1010,-126 1019.76,-122.308 1030.48,-119.163 1040.79,-116.558"/>
<polygon fill="#9a32cd" stroke="#9a32cd" points="861.512,-198.221 854.866,-206.472 865.207,-204.166 861.512,-198.221"/>
<text text-anchor="middle" x="964" y="-162" font-family="Helvetica,sans-Serif" font-size="10.00"> myParser</text>
</g>
<!-- Node19 -->
<g id="node19" class="node"><title>Node19</title>
<polygon fill="white" stroke="#bfbfbf" points="467,-138 467,-168 579,-168 579,-138 467,-138"/>
<text text-anchor="start" x="475" y="-156" font-family="Helvetica,sans-Serif" font-size="10.00">List&lt; Entry&lt; String,</text>
<text text-anchor="middle" x="523" y="-145" font-family="Helvetica,sans-Serif" font-size="10.00"> Pattern &gt; &gt;</text>
</g>
<!-- Node19&#45;&gt;Node18 -->
<g id="edge20" class="edge"><title>Node19&#45;&gt;Node18</title>
<path fill="none" stroke="#9a32cd" stroke-dasharray="5,2" d="M589.184,-161.3C632.718,-167.373 691.109,-176.54 742,-188 764.696,-193.111 789.934,-200.543 808.836,-206.466"/>
<polygon fill="#9a32cd" stroke="#9a32cd" points="589.395,-157.796 579.012,-159.9 588.441,-164.731 589.395,-157.796"/>
<text text-anchor="middle" x="681" y="-191" font-family="Helvetica,sans-Serif" font-size="10.00"> myPatterns</text>
</g>
<!-- Node20 -->
<g id="node20" class="node"><title>Node20</title>
<polygon fill="white" stroke="#bfbfbf" points="462,-187.5 462,-206.5 584,-206.5 584,-187.5 462,-187.5"/>
<text text-anchor="middle" x="523" y="-194.5" font-family="Helvetica,sans-Serif" font-size="10.00">Map&lt; String, String &gt;</text>
</g>
<!-- Node20&#45;&gt;Node18 -->
<g id="edge22" class="edge"><title>Node20&#45;&gt;Node18</title>
<path fill="none" stroke="#9a32cd" stroke-dasharray="5,2" d="M594.165,-201.133C636.899,-203.663 692.6,-206.983 742,-210 760.668,-211.14 781.377,-212.431 798.767,-213.523"/>
<polygon fill="#9a32cd" stroke="#9a32cd" points="594.337,-197.637 584.148,-200.54 593.924,-204.625 594.337,-197.637"/>
<text text-anchor="middle" x="681" y="-213" font-family="Helvetica,sans-Serif" font-size="10.00"> myCommandMap</text>
</g>
<!-- Node21 -->
<g id="node21" class="node"><title>Node21</title>
<polygon fill="white" stroke="#bfbfbf" points="1023,-299 1023,-329 1157,-329 1157,-299 1023,-299"/>
<text text-anchor="start" x="1031" y="-317" font-family="Helvetica,sans-Serif" font-size="10.00">TableView&lt; view.Variable</text>
<text text-anchor="middle" x="1090" y="-306" font-family="Helvetica,sans-Serif" font-size="10.00">View &gt;</text>
</g>
<!-- Node21&#45;&gt;Node15 -->
<g id="edge24" class="edge"><title>Node21&#45;&gt;Node15</title>
<path fill="none" stroke="#9a32cd" stroke-dasharray="5,2" d="M1167.42,-309.31C1205.93,-304.453 1252.32,-294.662 1290,-275 1312.86,-263.069 1332.94,-239.689 1343.05,-226.549"/>
<polygon fill="#9a32cd" stroke="#9a32cd" points="1166.82,-305.856 1157.3,-310.497 1167.64,-312.808 1166.82,-305.856"/>
<text text-anchor="middle" x="1239" y="-320" font-family="Helvetica,sans-Serif" font-size="10.00"> turtlePropertiesTable</text>
<text text-anchor="middle" x="1239" y="-309" font-family="Helvetica,sans-Serif" font-size="10.00">variablesTable</text>
</g>
<!-- Node22 -->
<g id="node22" class="node"><title>Node22</title>
<polygon fill="white" stroke="#bfbfbf" points="1010.5,-250 1010.5,-280 1169.5,-280 1169.5,-250 1010.5,-250"/>
<text text-anchor="start" x="1018.5" y="-268" font-family="Helvetica,sans-Serif" font-size="10.00">ObservableList&lt; view.Variable</text>
<text text-anchor="middle" x="1090" y="-257" font-family="Helvetica,sans-Serif" font-size="10.00">View &gt;</text>
</g>
<!-- Node22&#45;&gt;Node15 -->
<g id="edge26" class="edge"><title>Node22&#45;&gt;Node15</title>
<path fill="none" stroke="#9a32cd" stroke-dasharray="5,2" d="M1180.09,-260.853C1214.82,-257.762 1254.68,-252.376 1290,-243 1304.59,-239.126 1320.22,-232.259 1331.86,-226.555"/>
<polygon fill="#9a32cd" stroke="#9a32cd" points="1179.64,-257.378 1169.97,-261.703 1180.22,-264.354 1179.64,-257.378"/>
<text text-anchor="middle" x="1239" y="-263" font-family="Helvetica,sans-Serif" font-size="10.00"> variablesList</text>
</g>
<!-- Node23 -->
<g id="node23" class="node"><title>Node23</title>
<polygon fill="white" stroke="#bfbfbf" points="1021,-211.5 1021,-230.5 1159,-230.5 1159,-211.5 1021,-211.5"/>
<text text-anchor="middle" x="1090" y="-218.5" font-family="Helvetica,sans-Serif" font-size="10.00">ObservableList&lt; String &gt;</text>
</g>
<!-- Node23&#45;&gt;Node15 -->
<g id="edge27" class="edge"><title>Node23&#45;&gt;Node15</title>
<path fill="none" stroke="#9a32cd" stroke-dasharray="5,2" d="M1169.3,-219.791C1216.74,-219.058 1275.09,-218.157 1312.42,-217.58"/>
<polygon fill="#9a32cd" stroke="#9a32cd" points="1168.99,-216.295 1159.05,-219.949 1169.1,-223.294 1168.99,-216.295"/>
<text text-anchor="middle" x="1239" y="-234" font-family="Helvetica,sans-Serif" font-size="10.00"> commandItems</text>
<text text-anchor="middle" x="1239" y="-223" font-family="Helvetica,sans-Serif" font-size="10.00">historyItems</text>
</g>
<!-- Node24 -->
<g id="node24" class="node"><title>Node24</title>
<polygon fill="white" stroke="#bfbfbf" points="1037,-173.5 1037,-192.5 1143,-192.5 1143,-173.5 1037,-173.5"/>
<text text-anchor="middle" x="1090" y="-180.5" font-family="Helvetica,sans-Serif" font-size="10.00">ListView&lt; String &gt;</text>
</g>
<!-- Node24&#45;&gt;Node15 -->
<g id="edge28" class="edge"><title>Node24&#45;&gt;Node15</title>
<path fill="none" stroke="#9a32cd" stroke-dasharray="5,2" d="M1153.19,-187.176C1192.57,-190.331 1244.47,-195.432 1290,-203 1297.28,-204.21 1305,-205.785 1312.38,-207.44"/>
<polygon fill="#9a32cd" stroke="#9a32cd" points="1153.44,-183.685 1143.2,-186.395 1152.9,-190.664 1153.44,-183.685"/>
<text text-anchor="middle" x="1239" y="-206" font-family="Helvetica,sans-Serif" font-size="10.00"> historyList</text>
</g>
<!-- Node25 -->
<g id="node25" class="node"><title>Node25</title>
<polygon fill="white" stroke="#bfbfbf" points="1319.5,-403.5 1319.5,-422.5 1382.5,-422.5 1382.5,-403.5 1319.5,-403.5"/>
<text text-anchor="middle" x="1351" y="-410.5" font-family="Helvetica,sans-Serif" font-size="10.00">Rectangle</text>
</g>
<!-- Node25&#45;&gt;Node10 -->
<g id="edge29" class="edge"><title>Node25&#45;&gt;Node10</title>
<path fill="none" stroke="#9a32cd" stroke-dasharray="5,2" d="M1392.88,-415.879C1419.95,-418.038 1456.19,-421.412 1488,-426 1493.75,-426.829 1499.78,-427.83 1505.72,-428.895"/>
<polygon fill="#9a32cd" stroke="#9a32cd" points="1392.86,-412.367 1382.62,-415.084 1392.32,-419.346 1392.86,-412.367"/>
<text text-anchor="middle" x="1450" y="-429" font-family="Helvetica,sans-Serif" font-size="10.00"> myBackground</text>
</g>
<!-- Node26 -->
<g id="node26" class="node"><title>Node26</title>
<polygon fill="white" stroke="#bfbfbf" points="186.5,-368.5 186.5,-387.5 231.5,-387.5 231.5,-368.5 186.5,-368.5"/>
<text text-anchor="middle" x="209" y="-375.5" font-family="Helvetica,sans-Serif" font-size="10.00">Stage</text>
</g>
<!-- Node26&#45;&gt;Node9 -->
<g id="edge30" class="edge"><title>Node26&#45;&gt;Node9</title>
<path fill="none" stroke="#9a32cd" stroke-dasharray="5,2" d="M242.021,-381.11C284.24,-385.313 360.805,-393.289 426,-402 442.72,-404.234 461.026,-407.012 477.128,-409.567"/>
<polygon fill="#9a32cd" stroke="#9a32cd" points="242.103,-377.601 231.807,-380.1 241.414,-384.567 242.103,-377.601"/>
<text text-anchor="middle" x="370" y="-405" font-family="Helvetica,sans-Serif" font-size="10.00"> myStage</text>
</g>
<!-- Node27 -->
<g id="node27" class="node"><title>Node27</title>
<polygon fill="white" stroke="#bfbfbf" points="162.5,-330.5 162.5,-349.5 255.5,-349.5 255.5,-330.5 162.5,-330.5"/>
<text text-anchor="middle" x="209" y="-337.5" font-family="Helvetica,sans-Serif" font-size="10.00">ResourceBundle</text>
</g>
<!-- Node27&#45;&gt;Node9 -->
<g id="edge31" class="edge"><title>Node27&#45;&gt;Node9</title>
<path fill="none" stroke="#9a32cd" stroke-dasharray="5,2" d="M265.832,-344.688C309.983,-349.37 372.825,-358.212 426,-374 454.536,-382.473 485.653,-397.589 504.495,-407.453"/>
<polygon fill="#9a32cd" stroke="#9a32cd" points="266.173,-341.205 255.869,-343.669 265.461,-348.169 266.173,-341.205"/>
<text text-anchor="middle" x="370" y="-377" font-family="Helvetica,sans-Serif" font-size="10.00"> myResources</text>
</g>
<!-- Node28&#45;&gt;Node9 -->
<g id="edge32" class="edge"><title>Node28&#45;&gt;Node9</title>
<path fill="none" stroke="#9a32cd" stroke-dasharray="5,2" d="M1539.15,-128.254C1527.67,-146.819 1508.42,-175.918 1488,-198 1410.41,-281.887 1393.94,-314.527 1290,-362 1160.23,-421.27 712.146,-419.882 568.61,-417.831"/>
<polygon fill="#9a32cd" stroke="#9a32cd" points="1542.21,-129.963 1544.41,-119.599 1536.23,-126.328 1542.21,-129.963"/>
<text text-anchor="middle" x="1090" y="-412" font-family="Helvetica,sans-Serif" font-size="10.00"> myEditor</text>
</g>
<!-- Node29 -->
<g id="node29" class="node"><title>Node29</title>
<polygon fill="white" stroke="#bfbfbf" points="1330,-0.5 1330,-19.5 1372,-19.5 1372,-0.5 1330,-0.5"/>
<text text-anchor="middle" x="1351" y="-7.5" font-family="Helvetica,sans-Serif" font-size="10.00">HBox</text>
</g>
<!-- Node29&#45;&gt;Node28 -->
<g id="edge33" class="edge"><title>Node29&#45;&gt;Node28</title>
<path fill="none" stroke="midnightblue" d="M1382.37,-14.2706C1411.12,-19.3045 1454.7,-29.5688 1488,-49 1511.21,-62.5477 1532.12,-86.7467 1542.71,-100.235"/>
<polygon fill="midnightblue" stroke="midnightblue" points="1382.57,-10.7562 1372.13,-12.5892 1381.43,-17.6636 1382.57,-10.7562"/>
</g>
<!-- Node30 -->
<g id="node30" class="node"><title>Node30</title>
<polygon fill="white" stroke="#bfbfbf" points="1326.5,-123.5 1326.5,-142.5 1375.5,-142.5 1375.5,-123.5 1326.5,-123.5"/>
<text text-anchor="middle" x="1351" y="-130.5" font-family="Helvetica,sans-Serif" font-size="10.00">Button</text>
</g>
<!-- Node30&#45;&gt;Node28 -->
<g id="edge34" class="edge"><title>Node30&#45;&gt;Node28</title>
<path fill="none" stroke="#9a32cd" stroke-dasharray="5,2" d="M1386.13,-129.035C1422.99,-124.754 1481.28,-117.983 1517.49,-113.776"/>
<polygon fill="#9a32cd" stroke="#9a32cd" points="1385.41,-125.595 1375.88,-130.226 1386.22,-132.548 1385.41,-125.595"/>
<text text-anchor="middle" x="1450" y="-129" font-family="Helvetica,sans-Serif" font-size="10.00"> runButton</text>
</g>
<!-- Node31 -->
<g id="node31" class="node"><title>Node31</title>
<polygon fill="white" stroke="#bfbfbf" points="1322,-38.5 1322,-57.5 1380,-57.5 1380,-38.5 1322,-38.5"/>
<text text-anchor="middle" x="1351" y="-45.5" font-family="Helvetica,sans-Serif" font-size="10.00">TextArea</text>
</g>
<!-- Node31&#45;&gt;Node28 -->
<g id="edge36" class="edge"><title>Node31&#45;&gt;Node28</title>
<path fill="none" stroke="#9a32cd" stroke-dasharray="5,2" d="M1390.4,-49.5356C1418.28,-51.6894 1456.48,-56.8211 1488,-69 1507.26,-76.4421 1526.66,-90.5972 1538.51,-100.167"/>
<polygon fill="#9a32cd" stroke="#9a32cd" points="1390.47,-46.0323 1380.25,-48.8474 1389.99,-53.0162 1390.47,-46.0323"/>
<text text-anchor="middle" x="1450" y="-72" font-family="Helvetica,sans-Serif" font-size="10.00"> textEditor</text>
</g>
<!-- Node32 -->
<g id="node32" class="node"><title>Node32</title>
<polygon fill="white" stroke="#bfbfbf" points="149.5,-558.5 149.5,-577.5 268.5,-577.5 268.5,-558.5 149.5,-558.5"/>
<text text-anchor="middle" x="209" y="-565.5" font-family="Helvetica,sans-Serif" font-size="10.00">Map&lt; String, Node &gt;</text>
</g>
<!-- Node32&#45;&gt;Node9 -->
<g id="edge38" class="edge"><title>Node32&#45;&gt;Node9</title>
<path fill="none" stroke="#9a32cd" stroke-dasharray="5,2" d="M279,-572.543C323.651,-572.436 381.531,-566.353 426,-541 474.485,-513.357 506.878,-450.471 517.861,-426.512"/>
<polygon fill="#9a32cd" stroke="#9a32cd" points="278.846,-569.042 268.819,-572.466 278.792,-576.042 278.846,-569.042"/>
<text text-anchor="middle" x="370" y="-574" font-family="Helvetica,sans-Serif" font-size="10.00"> variables</text>
</g>
<!-- Node33 -->
<g id="node33" class="node"><title>Node33</title>
<polygon fill="white" stroke="#bfbfbf" points="168.5,-520.5 168.5,-539.5 249.5,-539.5 249.5,-520.5 168.5,-520.5"/>
<text text-anchor="middle" x="209" y="-527.5" font-family="Helvetica,sans-Serif" font-size="10.00">Dimension2D</text>
</g>
<!-- Node33&#45;&gt;Node9 -->
<g id="edge40" class="edge"><title>Node33&#45;&gt;Node9</title>
<path fill="none" stroke="#9a32cd" stroke-dasharray="5,2" d="M259.792,-530.26C305.022,-528.759 372.627,-522.089 426,-498 463.963,-480.866 498.717,-444.21 513.918,-426.7"/>
<polygon fill="#9a32cd" stroke="#9a32cd" points="259.554,-526.765 249.647,-530.522 259.735,-533.762 259.554,-526.765"/>
<text text-anchor="middle" x="370" y="-529" font-family="Helvetica,sans-Serif" font-size="10.00"> myDimensions</text>
</g>
<!-- Node34 -->
<g id="node34" class="node"><title>Node34</title>
<g id="a_node34"><a xlink:href="../../de/d0a/classview_1_1_drawer.html" target="_top" xlink:title="view.Drawer">
<polygon fill="white" stroke="black" points="172.5,-482.5 172.5,-501.5 245.5,-501.5 245.5,-482.5 172.5,-482.5"/>
<text text-anchor="middle" x="209" y="-489.5" font-family="Helvetica,sans-Serif" font-size="10.00">view.Drawer</text>
</a>
</g>
</g>
<!-- Node34&#45;&gt;Node9 -->
<g id="edge42" class="edge"><title>Node34&#45;&gt;Node9</title>
<path fill="none" stroke="#9a32cd" stroke-dasharray="5,2" d="M255.969,-488.857C300.238,-484.979 368.729,-476.723 426,-460 454.574,-451.656 485.68,-436.505 504.51,-426.598"/>
<polygon fill="#9a32cd" stroke="#9a32cd" points="255.48,-485.386 245.807,-489.708 256.064,-492.362 255.48,-485.386"/>
<text text-anchor="middle" x="370" y="-486" font-family="Helvetica,sans-Serif" font-size="10.00"> drawer</text>
</g>
<!-- Node35 -->
<g id="node35" class="node"><title>Node35</title>
<polygon fill="white" stroke="#bfbfbf" points="0.5,-482.5 0.5,-501.5 41.5,-501.5 41.5,-482.5 0.5,-482.5"/>
<text text-anchor="middle" x="21" y="-489.5" font-family="Helvetica,sans-Serif" font-size="10.00">Color</text>
</g>
<!-- Node35&#45;&gt;Node34 -->
<g id="edge43" class="edge"><title>Node35&#45;&gt;Node34</title>
<path fill="none" stroke="#9a32cd" stroke-dasharray="5,2" d="M51.8575,-492C84.6426,-492 137.265,-492 172.23,-492"/>
<polygon fill="#9a32cd" stroke="#9a32cd" points="51.5537,-488.5 41.5537,-492 51.5537,-495.5 51.5537,-488.5"/>
<text text-anchor="middle" x="82" y="-495" font-family="Helvetica,sans-Serif" font-size="10.00"> myColor</text>
</g>
<!-- Node36 -->
<g id="node36" class="node"><title>Node36</title>
<polygon fill="white" stroke="#bfbfbf" points="179.5,-444.5 179.5,-463.5 238.5,-463.5 238.5,-444.5 179.5,-444.5"/>
<text text-anchor="middle" x="209" y="-451.5" font-family="Helvetica,sans-Serif" font-size="10.00">GridPane</text>
</g>
<!-- Node36&#45;&gt;Node9 -->
<g id="edge44" class="edge"><title>Node36&#45;&gt;Node9</title>
<path fill="none" stroke="#9a32cd" stroke-dasharray="5,2" d="M248.806,-450.678C292.097,-446.825 364.179,-439.972 426,-432 442.73,-429.843 461.039,-427.082 477.139,-424.518"/>
<polygon fill="#9a32cd" stroke="#9a32cd" points="248.36,-447.203 238.707,-451.568 248.976,-454.176 248.36,-447.203"/>
<text text-anchor="middle" x="370" y="-448" font-family="Helvetica,sans-Serif" font-size="10.00"> myRoot</text>
</g>
<!-- Node37 -->
<g id="node37" class="node"><title>Node37</title>
<polygon fill="white" stroke="#bfbfbf" points="186,-406.5 186,-425.5 232,-425.5 232,-406.5 186,-406.5"/>
<text text-anchor="middle" x="209" y="-413.5" font-family="Helvetica,sans-Serif" font-size="10.00">Group</text>
</g>
<!-- Node37&#45;&gt;Node9 -->
<g id="edge46" class="edge"><title>Node37&#45;&gt;Node9</title>
<path fill="none" stroke="#9a32cd" stroke-dasharray="5,2" d="M242.521,-416.104C298.621,-416.284 413.669,-416.653 477.267,-416.857"/>
<polygon fill="#9a32cd" stroke="#9a32cd" points="242.449,-412.604 232.438,-416.072 242.427,-419.604 242.449,-412.604"/>
<text text-anchor="middle" x="370" y="-420" font-family="Helvetica,sans-Serif" font-size="10.00"> lines</text>
</g>
<!-- Node38 -->
<g id="node38" class="node"><title>Node38</title>
<g id="a_node38"><a xlink:href="../../d3/d75/classmodel_1_1turtle_1_1_turtle_command.html" target="_top" xlink:title="model.turtle.TurtleCommand">
<polygon fill="white" stroke="black" points="762,-630.5 762,-649.5 916,-649.5 916,-630.5 762,-630.5"/>
<text text-anchor="middle" x="839" y="-637.5" font-family="Helvetica,sans-Serif" font-size="10.00">model.turtle.TurtleCommand</text>
</a>
</g>
</g>
<!-- Node38&#45;&gt;Node1 -->
<g id="edge47" class="edge"><title>Node38&#45;&gt;Node1</title>
<path fill="none" stroke="#9a32cd" stroke-dasharray="5,2" d="M926.377,-640C953.671,-640 983.671,-640 1010.39,-640"/>
<polygon fill="#9a32cd" stroke="#9a32cd" points="926.061,-636.5 916.061,-640 926.061,-643.5 926.061,-636.5"/>
<text text-anchor="middle" x="964" y="-643" font-family="Helvetica,sans-Serif" font-size="10.00"> myTurtle</text>
</g>
<!-- Node39 -->
<g id="node39" class="node"><title>Node39</title>
<g id="a_node39"><a xlink:href="../../d1/d0b/classmodel_1_1_polar.html" target="_top" xlink:title="model.Polar">
<polygon fill="white" stroke="black" points="486,-672.5 486,-691.5 560,-691.5 560,-672.5 486,-672.5"/>
<text text-anchor="middle" x="523" y="-679.5" font-family="Helvetica,sans-Serif" font-size="10.00">model.Polar</text>
</a>
</g>
</g>
<!-- Node39&#45;&gt;Node1 -->
<g id="edge49" class="edge"><title>Node39&#45;&gt;Node1</title>
<path fill="none" stroke="#9a32cd" stroke-dasharray="5,2" d="M570.22,-680.958C654.359,-678.7 838.062,-672.105 992,-655 998.012,-654.332 1004.22,-653.561 1010.46,-652.728"/>
<polygon fill="#9a32cd" stroke="#9a32cd" points="570.127,-677.459 560.221,-681.218 570.309,-684.457 570.127,-677.459"/>
<text text-anchor="middle" x="839" y="-677" font-family="Helvetica,sans-Serif" font-size="10.00"> myPolar</text>
</g>
<!-- Node39&#45;&gt;Node38 -->
<g id="edge48" class="edge"><title>Node39&#45;&gt;Node38</title>
<path fill="none" stroke="#9a32cd" stroke-dasharray="5,2" d="M570.275,-670.708C585.983,-667.187 603.685,-663.561 620,-661 666.859,-653.645 719.817,-648.471 761.801,-645.1"/>
<polygon fill="#9a32cd" stroke="#9a32cd" points="569.244,-667.353 560.276,-672.993 570.804,-674.177 569.244,-667.353"/>
<text text-anchor="middle" x="681" y="-664" font-family="Helvetica,sans-Serif" font-size="10.00"> myPolar</text>
</g>
</g>
</svg>
