<?xml version="1.0" encoding="UTF-8" standalone="no"?>
<!DOCTYPE svg PUBLIC "-//W3C//DTD SVG 1.1//EN"
 "http://www.w3.org/Graphics/SVG/1.1/DTD/svg11.dtd">
<!-- Generated by graphviz version 2.36.0 (20140111.2315)
 -->
<!-- Title: view.Editor Pages: 1 -->
<svg width="1794pt" height="654pt"
 viewBox="0.00 0.00 1794.00 654.00" xmlns="http://www.w3.org/2000/svg" xmlns:xlink="http://www.w3.org/1999/xlink">
<g id="graph0" class="graph" transform="scale(1 1) rotate(0) translate(4 650)">
<title>view.Editor</title>
<polygon fill="white" stroke="none" points="-4,4 -4,-650 1790,-650 1790,4 -4,4"/>
<!-- Node1 -->
<g id="node1" class="node"><title>Node1</title>
<polygon fill="#bfbfbf" stroke="black" points="199.5,-537.5 199.5,-556.5 266.5,-556.5 266.5,-537.5 199.5,-537.5"/>
<text text-anchor="middle" x="233" y="-544.5" font-family="Helvetica,sans-Serif" font-size="10.00">view.Editor</text>
</g>
<!-- Node13 -->
<g id="node13" class="node"><title>Node13</title>
<g id="a_node13"><a xlink:href="../../d6/de7/classview_1_1_s_logo_view.html" target="_top" xlink:title="view.SLogoView">
<polygon fill="white" stroke="black" points="501.5,-247.5 501.5,-266.5 592.5,-266.5 592.5,-247.5 501.5,-247.5"/>
<text text-anchor="middle" x="547" y="-254.5" font-family="Helvetica,sans-Serif" font-size="10.00">view.SLogoView</text>
</a>
</g>
</g>
<!-- Node1&#45;&gt;Node13 -->
<g id="edge31" class="edge"><title>Node1&#45;&gt;Node13</title>
<path fill="none" stroke="#9a32cd" stroke-dasharray="5,2" d="M276.846,-545.514C292.067,-542.965 308.306,-537.651 320,-527 338.703,-509.965 319.294,-490.032 338,-473 375.786,-438.597 415.103,-484.33 450,-447 484.13,-410.491 445.37,-380.561 468,-336 483.272,-305.926 514.114,-280.052 532.102,-266.69"/>
<polygon fill="#9a32cd" stroke="#9a32cd" points="275.999,-542.096 266.54,-546.869 276.911,-549.036 275.999,-542.096"/>
<text text-anchor="middle" x="394" y="-476" font-family="Helvetica,sans-Serif" font-size="10.00"> myEditor</text>
</g>
<!-- Node2 -->
<g id="node2" class="node"><title>Node2</title>
<polygon fill="white" stroke="#bfbfbf" points="8,-575.5 8,-594.5 50,-594.5 50,-575.5 8,-575.5"/>
<text text-anchor="middle" x="29" y="-582.5" font-family="Helvetica,sans-Serif" font-size="10.00">HBox</text>
</g>
<!-- Node2&#45;&gt;Node1 -->
<g id="edge1" class="edge"><title>Node2&#45;&gt;Node1</title>
<path fill="none" stroke="midnightblue" d="M60.3742,-579.286C97.7608,-572.253 160.997,-560.357 199.384,-553.136"/>
<polygon fill="midnightblue" stroke="midnightblue" points="59.2876,-575.929 50.107,-581.217 60.5817,-582.808 59.2876,-575.929"/>
</g>
<!-- Node3 -->
<g id="node3" class="node"><title>Node3</title>
<polygon fill="white" stroke="#bfbfbf" points="4.5,-537.5 4.5,-556.5 53.5,-556.5 53.5,-537.5 4.5,-537.5"/>
<text text-anchor="middle" x="29" y="-544.5" font-family="Helvetica,sans-Serif" font-size="10.00">Button</text>
</g>
<!-- Node3&#45;&gt;Node1 -->
<g id="edge2" class="edge"><title>Node3&#45;&gt;Node1</title>
<path fill="none" stroke="#9a32cd" stroke-dasharray="5,2" d="M64.0235,-547C101.718,-547 162.073,-547 199.249,-547"/>
<polygon fill="#9a32cd" stroke="#9a32cd" points="63.5673,-543.5 53.5673,-547 63.5673,-550.5 63.5673,-543.5"/>
<text text-anchor="middle" x="102" y="-550" font-family="Helvetica,sans-Serif" font-size="10.00"> runButton</text>
</g>
<!-- Node4 -->
<g id="node4" class="node"><title>Node4</title>
<g id="a_node4"><a xlink:href="../../d4/dd9/classcontroller_1_1_s_logo_controller.html" target="_top" xlink:title="controller.SLogoController">
<polygon fill="white" stroke="black" points="973,-390.5 973,-409.5 1113,-409.5 1113,-390.5 973,-390.5"/>
<text text-anchor="middle" x="1043" y="-397.5" font-family="Helvetica,sans-Serif" font-size="10.00">controller.SLogoController</text>
</a>
</g>
</g>
<!-- Node4&#45;&gt;Node1 -->
<g id="edge3" class="edge"><title>Node4&#45;&gt;Node1</title>
<path fill="none" stroke="#9a32cd" stroke-dasharray="5,2" d="M1010.18,-413.52C959.501,-434.433 856.896,-474.267 766,-494 669.625,-514.922 366.684,-537.629 266.514,-544.741"/>
<polygon fill="#9a32cd" stroke="#9a32cd" points="1011.71,-416.673 1019.6,-409.602 1009.02,-410.209 1011.71,-416.673"/>
<text text-anchor="middle" x="705" y="-514" font-family="Helvetica,sans-Serif" font-size="10.00"> myController</text>
</g>
<!-- Node4&#45;&gt;Node13 -->
<g id="edge33" class="edge"><title>Node4&#45;&gt;Node13</title>
<path fill="none" stroke="#9a32cd" stroke-dasharray="5,2" d="M1016.1,-385.408C982.171,-366.89 920.359,-335.176 864,-317 814.109,-300.91 667.43,-276.148 592.766,-264.089"/>
<polygon fill="#9a32cd" stroke="#9a32cd" points="1014.45,-388.498 1024.9,-390.259 1017.83,-382.367 1014.45,-388.498"/>
<text text-anchor="middle" x="824" y="-320" font-family="Helvetica,sans-Serif" font-size="10.00"> myController</text>
</g>
<!-- Node19 -->
<g id="node19" class="node"><title>Node19</title>
<g id="a_node19"><a xlink:href="../../d1/dc7/classview_1_1_side_bar.html" target="_top" xlink:title="view.SideBar">
<polygon fill="white" stroke="black" points="1297.5,-321.5 1297.5,-340.5 1374.5,-340.5 1374.5,-321.5 1297.5,-321.5"/>
<text text-anchor="middle" x="1336" y="-328.5" font-family="Helvetica,sans-Serif" font-size="10.00">view.SideBar</text>
</a>
</g>
</g>
<!-- Node4&#45;&gt;Node19 -->
<g id="edge25" class="edge"><title>Node4&#45;&gt;Node19</title>
<path fill="none" stroke="#9a32cd" stroke-dasharray="5,2" d="M1123.32,-395.208C1162.74,-390.598 1210.3,-381.586 1250,-364 1259.27,-359.895 1258.96,-354.578 1268,-350 1277.06,-345.412 1287.39,-341.79 1297.18,-338.993"/>
<polygon fill="#9a32cd" stroke="#9a32cd" points="1122.78,-391.746 1113.23,-396.315 1123.55,-398.705 1122.78,-391.746"/>
<text text-anchor="middle" x="1199" y="-395" font-family="Helvetica,sans-Serif" font-size="10.00"> myController</text>
</g>
<!-- Node5 -->
<g id="node5" class="node"><title>Node5</title>
<g id="a_node5"><a xlink:href="../../dc/df5/classmodel_1_1_parser.html" target="_top" xlink:title="model.Parser">
<polygon fill="white" stroke="black" points="784,-405.5 784,-424.5 864,-424.5 864,-405.5 784,-405.5"/>
<text text-anchor="middle" x="824" y="-412.5" font-family="Helvetica,sans-Serif" font-size="10.00">model.Parser</text>
</a>
</g>
</g>
<!-- Node5&#45;&gt;Node4 -->
<g id="edge4" class="edge"><title>Node5&#45;&gt;Node4</title>
<path fill="none" stroke="#9a32cd" stroke-dasharray="5,2" d="M874.397,-411.585C903.567,-409.569 940.941,-406.986 972.99,-404.77"/>
<polygon fill="#9a32cd" stroke="#9a32cd" points="873.781,-408.12 864.046,-412.301 874.263,-415.103 873.781,-408.12"/>
<text text-anchor="middle" x="910" y="-414" font-family="Helvetica,sans-Serif" font-size="10.00"> myParser</text>
</g>
<!-- Node6 -->
<g id="node6" class="node"><title>Node6</title>
<polygon fill="white" stroke="#bfbfbf" points="203,-346.5 203,-365.5 263,-365.5 263,-346.5 203,-346.5"/>
<text text-anchor="middle" x="233" y="-353.5" font-family="Helvetica,sans-Serif" font-size="10.00">Observer</text>
</g>
<!-- Node6&#45;&gt;Node5 -->
<g id="edge5" class="edge"><title>Node6&#45;&gt;Node5</title>
<path fill="none" stroke="midnightblue" d="M273.542,-353.69C319.777,-352.944 396.748,-357.979 450,-394 462.565,-402.499 454.828,-415.475 468,-423 535.939,-461.81 565.763,-426.111 644,-427 698.219,-427.616 712.069,-432.615 766,-427 771.834,-426.393 777.95,-425.444 783.921,-424.341"/>
<polygon fill="midnightblue" stroke="midnightblue" points="273.227,-350.197 263.322,-353.957 273.411,-357.194 273.227,-350.197"/>
</g>
<!-- Node6&#45;&gt;Node13 -->
<g id="edge13" class="edge"><title>Node6&#45;&gt;Node13</title>
<path fill="none" stroke="midnightblue" d="M273.044,-347.947C316.761,-338.455 389.422,-321.251 450,-300 477.572,-290.327 508.179,-275.949 527.257,-266.525"/>
<polygon fill="midnightblue" stroke="midnightblue" points="272.152,-344.559 263.109,-350.079 273.621,-351.403 272.152,-344.559"/>
</g>
<!-- Node7 -->
<g id="node7" class="node"><title>Node7</title>
<polygon fill="white" stroke="#bfbfbf" points="491,-384 491,-414 603,-414 603,-384 491,-384"/>
<text text-anchor="start" x="499" y="-402" font-family="Helvetica,sans-Serif" font-size="10.00">List&lt; Entry&lt; String,</text>
<text text-anchor="middle" x="547" y="-391" font-family="Helvetica,sans-Serif" font-size="10.00"> Pattern &gt; &gt;</text>
</g>
<!-- Node7&#45;&gt;Node5 -->
<g id="edge6" class="edge"><title>Node7&#45;&gt;Node5</title>
<path fill="none" stroke="#9a32cd" stroke-dasharray="5,2" d="M613.31,-402.8C666.334,-405.885 739.352,-410.133 783.753,-412.717"/>
<polygon fill="#9a32cd" stroke="#9a32cd" points="613.506,-399.305 603.32,-402.219 613.099,-406.294 613.506,-399.305"/>
<text text-anchor="middle" x="705" y="-415" font-family="Helvetica,sans-Serif" font-size="10.00"> myPatterns</text>
</g>
<!-- Node8 -->
<g id="node8" class="node"><title>Node8</title>
<g id="a_node8"><a xlink:href="../../d1/dca/classmodel_1_1_execution_environment.html" target="_top" xlink:title="model.ExecutionEnvironment">
<polygon fill="white" stroke="black" points="468.5,-471.5 468.5,-490.5 625.5,-490.5 625.5,-471.5 468.5,-471.5"/>
<text text-anchor="middle" x="547" y="-478.5" font-family="Helvetica,sans-Serif" font-size="10.00">model.ExecutionEnvironment</text>
</a>
</g>
</g>
<!-- Node8&#45;&gt;Node5 -->
<g id="edge7" class="edge"><title>Node8&#45;&gt;Node5</title>
<path fill="none" stroke="#9a32cd" stroke-dasharray="5,2" d="M635.936,-481.703C676.69,-479.443 725.048,-472.994 766,-457 784.778,-449.666 802.889,-434.492 813.482,-424.533"/>
<polygon fill="#9a32cd" stroke="#9a32cd" points="635.57,-478.216 625.748,-482.19 635.904,-485.208 635.57,-478.216"/>
<text text-anchor="middle" x="705" y="-484" font-family="Helvetica,sans-Serif" font-size="10.00"> myExecutionParameters</text>
</g>
<!-- Node9 -->
<g id="node9" class="node"><title>Node9</title>
<polygon fill="white" stroke="#bfbfbf" points="197.5,-390.5 197.5,-409.5 268.5,-409.5 268.5,-390.5 197.5,-390.5"/>
<text text-anchor="middle" x="233" y="-397.5" font-family="Helvetica,sans-Serif" font-size="10.00">Observable</text>
</g>
<!-- Node9&#45;&gt;Node8 -->
<g id="edge8" class="edge"><title>Node9&#45;&gt;Node8</title>
<path fill="none" stroke="midnightblue" d="M278.704,-398.041C333.797,-396.513 423.393,-397.184 450,-416 466.249,-427.491 453.141,-443.761 468,-457 475.088,-463.315 483.808,-467.968 492.821,-471.397"/>
<polygon fill="midnightblue" stroke="midnightblue" points="278.394,-394.549 268.508,-398.36 278.613,-401.546 278.394,-394.549"/>
</g>
<!-- Node10 -->
<g id="node10" class="node"><title>Node10</title>
<polygon fill="white" stroke="#bfbfbf" points="146,-488 146,-518 320,-518 320,-488 146,-488"/>
<text text-anchor="start" x="154" y="-506" font-family="Helvetica,sans-Serif" font-size="10.00">Map&lt; String, model.instructions.</text>
<text text-anchor="middle" x="233" y="-495" font-family="Helvetica,sans-Serif" font-size="10.00">Instruction &gt;</text>
</g>
<!-- Node10&#45;&gt;Node8 -->
<g id="edge9" class="edge"><title>Node10&#45;&gt;Node8</title>
<path fill="none" stroke="#9a32cd" stroke-dasharray="5,2" d="M330.305,-496.209C374.685,-493.08 426.655,-489.415 468.461,-486.468"/>
<polygon fill="#9a32cd" stroke="#9a32cd" points="329.81,-492.735 320.081,-496.93 330.303,-499.718 329.81,-492.735"/>
<text text-anchor="middle" x="394" y="-498" font-family="Helvetica,sans-Serif" font-size="10.00"> myUserInstructionMap</text>
</g>
<!-- Node11 -->
<g id="node11" class="node"><title>Node11</title>
<polygon fill="white" stroke="#bfbfbf" points="169,-428.5 169,-447.5 297,-447.5 297,-428.5 169,-428.5"/>
<text text-anchor="middle" x="233" y="-435.5" font-family="Helvetica,sans-Serif" font-size="10.00">Map&lt; String, Double &gt;</text>
</g>
<!-- Node11&#45;&gt;Node8 -->
<g id="edge10" class="edge"><title>Node11&#45;&gt;Node8</title>
<path fill="none" stroke="#9a32cd" stroke-dasharray="5,2" d="M281.02,-426.468C326.465,-417.81 396.152,-411.234 450,-436 461.168,-441.137 457.72,-450.26 468,-457 477.479,-463.215 488.651,-467.889 499.532,-471.379"/>
<polygon fill="#9a32cd" stroke="#9a32cd" points="280.255,-423.051 271.142,-428.455 281.636,-429.914 280.255,-423.051"/>
<text text-anchor="middle" x="394" y="-439" font-family="Helvetica,sans-Serif" font-size="10.00"> myVariableMap</text>
</g>
<!-- Node12 -->
<g id="node12" class="node"><title>Node12</title>
<polygon fill="white" stroke="#bfbfbf" points="486,-345.5 486,-364.5 608,-364.5 608,-345.5 486,-345.5"/>
<text text-anchor="middle" x="547" y="-352.5" font-family="Helvetica,sans-Serif" font-size="10.00">Map&lt; String, String &gt;</text>
</g>
<!-- Node12&#45;&gt;Node5 -->
<g id="edge11" class="edge"><title>Node12&#45;&gt;Node5</title>
<path fill="none" stroke="#9a32cd" stroke-dasharray="5,2" d="M618.259,-361.688C661.479,-366.926 717.659,-375.771 766,-390 779.269,-393.906 793.519,-400.156 804.451,-405.429"/>
<polygon fill="#9a32cd" stroke="#9a32cd" points="618.465,-358.188 608.125,-360.497 617.648,-365.14 618.465,-358.188"/>
<text text-anchor="middle" x="705" y="-393" font-family="Helvetica,sans-Serif" font-size="10.00"> myCommandMap</text>
</g>
<!-- Node13&#45;&gt;Node5 -->
<g id="edge12" class="edge"><title>Node13&#45;&gt;Node5</title>
<path fill="none" stroke="#9a32cd" stroke-dasharray="5,2" d="M574.367,-271.528C593.429,-281.766 619.951,-295.472 644,-306 696.942,-329.178 718.245,-318.45 766,-351 788.13,-366.084 807.32,-391.597 816.763,-405.416"/>
<polygon fill="#9a32cd" stroke="#9a32cd" points="575.852,-268.352 565.392,-266.668 572.519,-274.508 575.852,-268.352"/>
<text text-anchor="middle" x="705" y="-354" font-family="Helvetica,sans-Serif" font-size="10.00"> mySLogoView</text>
</g>
<!-- Node14 -->
<g id="node14" class="node"><title>Node14</title>
<g id="a_node14"><a xlink:href="../../da/d64/classview_1_1_workspace.html" target="_top" xlink:title="view.Workspace">
<polygon fill="white" stroke="black" points="1516,-183.5 1516,-202.5 1606,-202.5 1606,-183.5 1516,-183.5"/>
<text text-anchor="middle" x="1561" y="-190.5" font-family="Helvetica,sans-Serif" font-size="10.00">view.Workspace</text>
</a>
</g>
</g>
<!-- Node14&#45;&gt;Node13 -->
<g id="edge14" class="edge"><title>Node14&#45;&gt;Node13</title>
<path fill="none" stroke="#9a32cd" stroke-dasharray="5,2" d="M1505.79,-197.58C1503.15,-197.737 1500.55,-197.879 1498,-198 1257.36,-209.467 1196.33,-189.256 956,-206 823.19,-215.253 667.348,-238.091 592.52,-249.81"/>
<polygon fill="#9a32cd" stroke="#9a32cd" points="1506.24,-201.057 1515.99,-196.908 1505.78,-194.073 1506.24,-201.057"/>
<text text-anchor="middle" x="1043" y="-209" font-family="Helvetica,sans-Serif" font-size="10.00"> myWorkspace</text>
</g>
<!-- Node14&#45;&gt;Node19 -->
<g id="edge21" class="edge"><title>Node14&#45;&gt;Node19</title>
<path fill="none" stroke="#9a32cd" stroke-dasharray="5,2" d="M1532.93,-207.257C1504.77,-222.334 1459.6,-247.188 1422,-271 1395.6,-287.72 1366.06,-309.242 1349.69,-321.441"/>
<polygon fill="#9a32cd" stroke="#9a32cd" points="1534.62,-210.325 1541.8,-202.534 1531.33,-204.146 1534.62,-210.325"/>
<text text-anchor="middle" x="1460" y="-274" font-family="Helvetica,sans-Serif" font-size="10.00"> myWorkspace</text>
</g>
<!-- Node30 -->
<g id="node30" class="node"><title>Node30</title>
<g id="a_node30"><a xlink:href="../../de/d0a/classview_1_1_drawer.html" target="_top" xlink:title="view.Drawer">
<polygon fill="white" stroke="black" points="1712.5,-38.5 1712.5,-57.5 1785.5,-57.5 1785.5,-38.5 1712.5,-38.5"/>
<text text-anchor="middle" x="1749" y="-45.5" font-family="Helvetica,sans-Serif" font-size="10.00">view.Drawer</text>
</a>
</g>
</g>
<!-- Node14&#45;&gt;Node30 -->
<g id="edge36" class="edge"><title>Node14&#45;&gt;Node30</title>
<path fill="none" stroke="#9a32cd" stroke-dasharray="5,2" d="M1582.15,-177.295C1620.71,-147.232 1703.93,-82.3537 1735.51,-57.739"/>
<polygon fill="#9a32cd" stroke="#9a32cd" points="1579.94,-174.578 1574.2,-183.486 1584.24,-180.098 1579.94,-174.578"/>
<text text-anchor="middle" x="1659" y="-145" font-family="Helvetica,sans-Serif" font-size="10.00"> myWorkspace</text>
</g>
<!-- Node15 -->
<g id="node15" class="node"><title>Node15</title>
<polygon fill="white" stroke="#bfbfbf" points="1302.5,-164.5 1302.5,-183.5 1369.5,-183.5 1369.5,-164.5 1302.5,-164.5"/>
<text text-anchor="middle" x="1336" y="-171.5" font-family="Helvetica,sans-Serif" font-size="10.00">StackPane</text>
</g>
<!-- Node15&#45;&gt;Node14 -->
<g id="edge15" class="edge"><title>Node15&#45;&gt;Node14</title>
<path fill="none" stroke="midnightblue" d="M1379.91,-177.656C1418.96,-180.983 1476.36,-185.874 1515.8,-189.235"/>
<polygon fill="midnightblue" stroke="midnightblue" points="1380.17,-174.165 1369.9,-176.804 1379.57,-181.14 1380.17,-174.165"/>
</g>
<!-- Node16 -->
<g id="node16" class="node"><title>Node16</title>
<g id="a_node16"><a xlink:href="../../d8/df7/classview_1_1_turtle_view.html" target="_top" xlink:title="view.TurtleView">
<polygon fill="white" stroke="black" points="1293,-126.5 1293,-145.5 1379,-145.5 1379,-126.5 1293,-126.5"/>
<text text-anchor="middle" x="1336" y="-133.5" font-family="Helvetica,sans-Serif" font-size="10.00">view.TurtleView</text>
</a>
</g>
</g>
<!-- Node16&#45;&gt;Node14 -->
<g id="edge16" class="edge"><title>Node16&#45;&gt;Node14</title>
<path fill="none" stroke="#9a32cd" stroke-dasharray="5,2" d="M1389.26,-143.254C1421.09,-148.361 1462.35,-156.22 1498,-167 1512.52,-171.392 1528.29,-178.028 1540.28,-183.497"/>
<polygon fill="#9a32cd" stroke="#9a32cd" points="1389.7,-139.78 1379.27,-141.692 1388.61,-146.696 1389.7,-139.78"/>
<text text-anchor="middle" x="1460" y="-170" font-family="Helvetica,sans-Serif" font-size="10.00"> myActiveTurtle</text>
</g>
<!-- Node17 -->
<g id="node17" class="node"><title>Node17</title>
<polygon fill="white" stroke="#bfbfbf" points="1009,-126.5 1009,-145.5 1077,-145.5 1077,-126.5 1009,-126.5"/>
<text text-anchor="middle" x="1043" y="-133.5" font-family="Helvetica,sans-Serif" font-size="10.00">ImageView</text>
</g>
<!-- Node17&#45;&gt;Node16 -->
<g id="edge17" class="edge"><title>Node17&#45;&gt;Node16</title>
<path fill="none" stroke="midnightblue" d="M1087.27,-136C1142.55,-136 1237.64,-136 1292.53,-136"/>
<polygon fill="midnightblue" stroke="midnightblue" points="1087.1,-132.5 1077.1,-136 1087.1,-139.5 1087.1,-132.5"/>
</g>
<!-- Node18 -->
<g id="node18" class="node"><title>Node18</title>
<polygon fill="white" stroke="#bfbfbf" points="1268,-77 1268,-107 1404,-107 1404,-77 1268,-77"/>
<text text-anchor="start" x="1276" y="-95" font-family="Helvetica,sans-Serif" font-size="10.00">Map&lt; Integer, view.Turtle</text>
<text text-anchor="middle" x="1336" y="-84" font-family="Helvetica,sans-Serif" font-size="10.00">View &gt;</text>
</g>
<!-- Node18&#45;&gt;Node14 -->
<g id="edge18" class="edge"><title>Node18&#45;&gt;Node14</title>
<path fill="none" stroke="#9a32cd" stroke-dasharray="5,2" d="M1414.06,-104.508C1441.68,-111.039 1472.31,-120.749 1498,-135 1520.68,-147.586 1541.48,-170.28 1552.27,-183.235"/>
<polygon fill="#9a32cd" stroke="#9a32cd" points="1414.56,-101.033 1404.03,-102.244 1413.02,-107.861 1414.56,-101.033"/>
<text text-anchor="middle" x="1460" y="-138" font-family="Helvetica,sans-Serif" font-size="10.00"> myTurtles</text>
</g>
<!-- Node19&#45;&gt;Node1 -->
<g id="edge41" class="edge"><title>Node19&#45;&gt;Node1</title>
<path fill="none" stroke="#9a32cd" stroke-dasharray="5,2" d="M1287.34,-338.125C1280.2,-340.902 1273.43,-344.731 1268,-350 1248.94,-368.506 1269.38,-388.833 1250,-407 1118.43,-530.314 630.236,-537.236 450,-543 384.96,-545.08 308.865,-546.178 266.575,-546.67"/>
<polygon fill="#9a32cd" stroke="#9a32cd" points="1288.77,-341.344 1297.22,-334.953 1286.63,-334.68 1288.77,-341.344"/>
<text text-anchor="middle" x="824" y="-529" font-family="Helvetica,sans-Serif" font-size="10.00"> mySidebar</text>
</g>
<!-- Node19&#45;&gt;Node13 -->
<g id="edge38" class="edge"><title>Node19&#45;&gt;Node13</title>
<path fill="none" stroke="#9a32cd" stroke-dasharray="5,2" d="M1287.22,-326.447C1215.33,-319.542 1075.06,-305.861 956,-293 871.483,-283.87 850.667,-278.615 766,-271 706.13,-265.615 636.829,-261.531 592.725,-259.202"/>
<polygon fill="#9a32cd" stroke="#9a32cd" points="1287.04,-329.945 1297.32,-327.416 1287.7,-322.977 1287.04,-329.945"/>
<text text-anchor="middle" x="910" y="-294" font-family="Helvetica,sans-Serif" font-size="10.00"> mySidebar</text>
</g>
<!-- Node19&#45;&gt;Node14 -->
<g id="edge19" class="edge"><title>Node19&#45;&gt;Node14</title>
<path fill="none" stroke="#9a32cd" stroke-dasharray="5,2" d="M1384.95,-326.506C1419.16,-321.302 1464.79,-310.096 1498,-286 1528.63,-263.778 1548.57,-221.45 1556.33,-202.54"/>
<polygon fill="#9a32cd" stroke="#9a32cd" points="1384.15,-323.084 1374.73,-327.936 1385.12,-330.017 1384.15,-323.084"/>
<text text-anchor="middle" x="1460" y="-322" font-family="Helvetica,sans-Serif" font-size="10.00"> mySidebar</text>
</g>
<!-- Node20 -->
<g id="node20" class="node"><title>Node20</title>
<polygon fill="white" stroke="#bfbfbf" points="1022.5,-264.5 1022.5,-283.5 1063.5,-283.5 1063.5,-264.5 1022.5,-264.5"/>
<text text-anchor="middle" x="1043" y="-271.5" font-family="Helvetica,sans-Serif" font-size="10.00">VBox</text>
</g>
<!-- Node20&#45;&gt;Node19 -->
<g id="edge20" class="edge"><title>Node20&#45;&gt;Node19</title>
<path fill="none" stroke="midnightblue" d="M1073.85,-275.101C1114.3,-277.128 1188.54,-282.754 1250,-298 1272.74,-303.641 1297.6,-313.789 1314.52,-321.348"/>
<polygon fill="midnightblue" stroke="midnightblue" points="1073.76,-271.593 1063.61,-274.629 1073.44,-278.586 1073.76,-271.593"/>
</g>
<!-- Node21 -->
<g id="node21" class="node"><title>Node21</title>
<polygon fill="white" stroke="#bfbfbf" points="956.5,-226.5 956.5,-245.5 1129.5,-245.5 1129.5,-226.5 956.5,-226.5"/>
<text text-anchor="middle" x="1043" y="-233.5" font-family="Helvetica,sans-Serif" font-size="10.00">ObservableList&lt; view.Property &gt;</text>
</g>
<!-- Node21&#45;&gt;Node19 -->
<g id="edge22" class="edge"><title>Node21&#45;&gt;Node19</title>
<path fill="none" stroke="#9a32cd" stroke-dasharray="5,2" d="M1140.14,-240.554C1175.71,-244.773 1215.7,-252.605 1250,-267 1281,-280.011 1310.88,-306.869 1325.57,-321.31"/>
<polygon fill="#9a32cd" stroke="#9a32cd" points="1140.07,-237.025 1129.75,-239.407 1139.3,-243.983 1140.07,-237.025"/>
<text text-anchor="middle" x="1199" y="-270" font-family="Helvetica,sans-Serif" font-size="10.00"> variablesList</text>
</g>
<!-- Node22 -->
<g id="node22" class="node"><title>Node22</title>
<polygon fill="white" stroke="#bfbfbf" points="186.5,-251.5 186.5,-270.5 279.5,-270.5 279.5,-251.5 186.5,-251.5"/>
<text text-anchor="middle" x="233" y="-258.5" font-family="Helvetica,sans-Serif" font-size="10.00">ResourceBundle</text>
</g>
<!-- Node22&#45;&gt;Node13 -->
<g id="edge30" class="edge"><title>Node22&#45;&gt;Node13</title>
<path fill="none" stroke="#9a32cd" stroke-dasharray="5,2" d="M289.612,-259.149C305.261,-258.695 322.296,-258.264 338,-258 394.326,-257.052 459.243,-256.888 501.365,-256.905"/>
<polygon fill="#9a32cd" stroke="#9a32cd" points="289.448,-255.652 279.556,-259.449 289.656,-262.649 289.448,-255.652"/>
<text text-anchor="middle" x="394" y="-261" font-family="Helvetica,sans-Serif" font-size="10.00"> myResources</text>
</g>
<!-- Node22&#45;&gt;Node19 -->
<g id="edge23" class="edge"><title>Node22&#45;&gt;Node19</title>
<path fill="none" stroke="#9a32cd" stroke-dasharray="5,2" d="M289.709,-268.013C300.218,-270.778 310.79,-274.632 320,-280 330.332,-286.022 327.234,-294.795 338,-300 419.09,-339.205 1057.93,-331.505 1148,-332 1193.33,-332.249 1204.67,-332.267 1250,-332 1265.5,-331.909 1282.58,-331.724 1297.34,-331.538"/>
<polygon fill="#9a32cd" stroke="#9a32cd" points="290.232,-264.541 279.699,-265.681 288.644,-271.359 290.232,-264.541"/>
<text text-anchor="middle" x="824" y="-335" font-family="Helvetica,sans-Serif" font-size="10.00"> myResources</text>
</g>
<!-- Node23 -->
<g id="node23" class="node"><title>Node23</title>
<polygon fill="white" stroke="#bfbfbf" points="969,-601.5 969,-620.5 1117,-620.5 1117,-601.5 969,-601.5"/>
<text text-anchor="middle" x="1043" y="-608.5" font-family="Helvetica,sans-Serif" font-size="10.00">TableView&lt; view.Property &gt;</text>
</g>
<!-- Node23&#45;&gt;Node19 -->
<g id="edge24" class="edge"><title>Node23&#45;&gt;Node19</title>
<path fill="none" stroke="#9a32cd" stroke-dasharray="5,2" d="M1099.73,-621.893C1146.69,-627.527 1212.12,-626.432 1250,-587 1286.59,-548.909 1234.58,-390.899 1268,-350 1275.27,-341.106 1286.37,-336.196 1297.46,-333.539"/>
<polygon fill="#9a32cd" stroke="#9a32cd" points="1100.08,-618.409 1089.71,-620.556 1099.16,-625.348 1100.08,-618.409"/>
<text text-anchor="middle" x="1199" y="-638" font-family="Helvetica,sans-Serif" font-size="10.00"> turtlePropertiesTable</text>
<text text-anchor="middle" x="1199" y="-627" font-family="Helvetica,sans-Serif" font-size="10.00">variablesTable</text>
</g>
<!-- Node24 -->
<g id="node24" class="node"><title>Node24</title>
<polygon fill="white" stroke="#bfbfbf" points="974,-558.5 974,-577.5 1112,-577.5 1112,-558.5 974,-558.5"/>
<text text-anchor="middle" x="1043" y="-565.5" font-family="Helvetica,sans-Serif" font-size="10.00">ObservableList&lt; String &gt;</text>
</g>
<!-- Node24&#45;&gt;Node19 -->
<g id="edge26" class="edge"><title>Node24&#45;&gt;Node19</title>
<path fill="none" stroke="#9a32cd" stroke-dasharray="5,2" d="M1122.28,-563.584C1176.65,-559.731 1240.93,-553.29 1250,-544 1280.25,-513.028 1240.32,-383.296 1268,-350 1275.26,-341.26 1286.23,-336.377 1297.19,-333.696"/>
<polygon fill="#9a32cd" stroke="#9a32cd" points="1122,-560.096 1112.26,-564.274 1122.48,-567.079 1122,-560.096"/>
<text text-anchor="middle" x="1199" y="-575" font-family="Helvetica,sans-Serif" font-size="10.00"> commandItems</text>
<text text-anchor="middle" x="1199" y="-564" font-family="Helvetica,sans-Serif" font-size="10.00">historyItems</text>
</g>
<!-- Node25 -->
<g id="node25" class="node"><title>Node25</title>
<polygon fill="white" stroke="#bfbfbf" points="990,-520.5 990,-539.5 1096,-539.5 1096,-520.5 990,-520.5"/>
<text text-anchor="middle" x="1043" y="-527.5" font-family="Helvetica,sans-Serif" font-size="10.00">ListView&lt; String &gt;</text>
</g>
<!-- Node25&#45;&gt;Node19 -->
<g id="edge27" class="edge"><title>Node25&#45;&gt;Node19</title>
<path fill="none" stroke="#9a32cd" stroke-dasharray="5,2" d="M1106.16,-530.954C1159.34,-530.349 1230.34,-525.684 1250,-506 1299.32,-456.621 1222.79,-403.17 1268,-350 1275.36,-341.342 1286.35,-336.48 1297.31,-333.794"/>
<polygon fill="#9a32cd" stroke="#9a32cd" points="1106.09,-527.455 1096.12,-531.024 1106.14,-534.454 1106.09,-527.455"/>
<text text-anchor="middle" x="1199" y="-532" font-family="Helvetica,sans-Serif" font-size="10.00"> historyList</text>
</g>
<!-- Node26 -->
<g id="node26" class="node"><title>Node26</title>
<polygon fill="white" stroke="#bfbfbf" points="1304.5,-359.5 1304.5,-378.5 1367.5,-378.5 1367.5,-359.5 1304.5,-359.5"/>
<text text-anchor="middle" x="1336" y="-366.5" font-family="Helvetica,sans-Serif" font-size="10.00">Rectangle</text>
</g>
<!-- Node26&#45;&gt;Node14 -->
<g id="edge28" class="edge"><title>Node26&#45;&gt;Node14</title>
<path fill="none" stroke="#9a32cd" stroke-dasharray="5,2" d="M1377.83,-370.011C1413.29,-368.782 1464.14,-361.682 1498,-334 1540.86,-298.966 1554.94,-228.399 1558.77,-202.669"/>
<polygon fill="#9a32cd" stroke="#9a32cd" points="1377.73,-366.512 1367.8,-370.218 1377.87,-373.511 1377.73,-366.512"/>
<text text-anchor="middle" x="1460" y="-368" font-family="Helvetica,sans-Serif" font-size="10.00"> myBackground</text>
</g>
<!-- Node27 -->
<g id="node27" class="node"><title>Node27</title>
<polygon fill="white" stroke="#bfbfbf" points="210.5,-289.5 210.5,-308.5 255.5,-308.5 255.5,-289.5 210.5,-289.5"/>
<text text-anchor="middle" x="233" y="-296.5" font-family="Helvetica,sans-Serif" font-size="10.00">Stage</text>
</g>
<!-- Node27&#45;&gt;Node13 -->
<g id="edge29" class="edge"><title>Node27&#45;&gt;Node13</title>
<path fill="none" stroke="#9a32cd" stroke-dasharray="5,2" d="M265.977,-294.695C321.9,-287.167 437.57,-271.596 501.356,-263.01"/>
<polygon fill="#9a32cd" stroke="#9a32cd" points="265.383,-291.244 255.939,-296.047 266.317,-298.181 265.383,-291.244"/>
<text text-anchor="middle" x="394" y="-288" font-family="Helvetica,sans-Serif" font-size="10.00"> myStage</text>
</g>
<!-- Node28 -->
<g id="node28" class="node"><title>Node28</title>
<polygon fill="white" stroke="#bfbfbf" points="173.5,-213.5 173.5,-232.5 292.5,-232.5 292.5,-213.5 173.5,-213.5"/>
<text text-anchor="middle" x="233" y="-220.5" font-family="Helvetica,sans-Serif" font-size="10.00">Map&lt; String, Node &gt;</text>
</g>
<!-- Node28&#45;&gt;Node13 -->
<g id="edge32" class="edge"><title>Node28&#45;&gt;Node13</title>
<path fill="none" stroke="#9a32cd" stroke-dasharray="5,2" d="M303.012,-227.882C345.479,-231.181 400.979,-236.021 450,-242 466.745,-244.042 485.056,-246.778 501.155,-249.353"/>
<polygon fill="#9a32cd" stroke="#9a32cd" points="303.023,-224.372 292.785,-227.097 302.488,-231.352 303.023,-224.372"/>
<text text-anchor="middle" x="394" y="-245" font-family="Helvetica,sans-Serif" font-size="10.00"> variables</text>
</g>
<!-- Node29 -->
<g id="node29" class="node"><title>Node29</title>
<polygon fill="white" stroke="#bfbfbf" points="192.5,-175.5 192.5,-194.5 273.5,-194.5 273.5,-175.5 192.5,-175.5"/>
<text text-anchor="middle" x="233" y="-182.5" font-family="Helvetica,sans-Serif" font-size="10.00">Dimension2D</text>
</g>
<!-- Node29&#45;&gt;Node13 -->
<g id="edge34" class="edge"><title>Node29&#45;&gt;Node13</title>
<path fill="none" stroke="#9a32cd" stroke-dasharray="5,2" d="M283.869,-188.444C328.146,-192.373 394.275,-200.392 450,-216 477.922,-223.821 508.442,-237.881 527.405,-247.327"/>
<polygon fill="#9a32cd" stroke="#9a32cd" points="283.919,-184.935 273.659,-187.576 283.326,-191.91 283.919,-184.935"/>
<text text-anchor="middle" x="394" y="-219" font-family="Helvetica,sans-Serif" font-size="10.00"> myDimensions</text>
</g>
<!-- Node30&#45;&gt;Node13 -->
<g id="edge35" class="edge"><title>Node30&#45;&gt;Node13</title>
<path fill="none" stroke="#9a32cd" stroke-dasharray="5,2" d="M1702.2,-48C1664.55,-48 1609.82,-48 1562,-48 823,-48 823,-48 823,-48 689.275,-48 579.853,-206.59 553.865,-247.477"/>
<polygon fill="#9a32cd" stroke="#9a32cd" points="1702.34,-51.5001 1712.34,-48 1702.34,-44.5001 1702.34,-51.5001"/>
<text text-anchor="middle" x="1199" y="-51" font-family="Helvetica,sans-Serif" font-size="10.00"> drawer</text>
</g>
<!-- Node31 -->
<g id="node31" class="node"><title>Node31</title>
<polygon fill="white" stroke="#bfbfbf" points="1540.5,-0.5 1540.5,-19.5 1581.5,-19.5 1581.5,-0.5 1540.5,-0.5"/>
<text text-anchor="middle" x="1561" y="-7.5" font-family="Helvetica,sans-Serif" font-size="10.00">Color</text>
</g>
<!-- Node31&#45;&gt;Node30 -->
<g id="edge37" class="edge"><title>Node31&#45;&gt;Node30</title>
<path fill="none" stroke="#9a32cd" stroke-dasharray="5,2" d="M1591.61,-10.1018C1618.71,-10.8525 1659.67,-13.6523 1694,-23 1706.96,-26.5288 1720.68,-32.9205 1731.05,-38.3575"/>
<polygon fill="#9a32cd" stroke="#9a32cd" points="1591.67,-6.60244 1581.6,-9.90068 1591.53,-13.601 1591.67,-6.60244"/>
<text text-anchor="middle" x="1659" y="-26" font-family="Helvetica,sans-Serif" font-size="10.00"> myColor</text>
</g>
<!-- Node32 -->
<g id="node32" class="node"><title>Node32</title>
<polygon fill="white" stroke="#bfbfbf" points="210,-137.5 210,-156.5 256,-156.5 256,-137.5 210,-137.5"/>
<text text-anchor="middle" x="233" y="-144.5" font-family="Helvetica,sans-Serif" font-size="10.00">Group</text>
</g>
<!-- Node32&#45;&gt;Node13 -->
<g id="edge39" class="edge"><title>Node32&#45;&gt;Node13</title>
<path fill="none" stroke="#9a32cd" stroke-dasharray="5,2" d="M266.196,-146.789C309.709,-147.624 388.873,-153.155 450,-180 486.972,-196.237 521.678,-230.469 537.312,-247.275"/>
<polygon fill="#9a32cd" stroke="#9a32cd" points="266.232,-143.289 256.19,-146.669 266.147,-150.289 266.232,-143.289"/>
<text text-anchor="middle" x="394" y="-183" font-family="Helvetica,sans-Serif" font-size="10.00"> lines</text>
</g>
<!-- Node33 -->
<g id="node33" class="node"><title>Node33</title>
<polygon fill="white" stroke="#bfbfbf" points="0,-499.5 0,-518.5 58,-518.5 58,-499.5 0,-499.5"/>
<text text-anchor="middle" x="29" y="-506.5" font-family="Helvetica,sans-Serif" font-size="10.00">TextArea</text>
</g>
<!-- Node33&#45;&gt;Node1 -->
<g id="edge40" class="edge"><title>Node33&#45;&gt;Node1</title>
<path fill="none" stroke="#9a32cd" stroke-dasharray="5,2" d="M68.2332,-516.192C106.167,-523.328 163.67,-534.146 199.475,-540.881"/>
<polygon fill="#9a32cd" stroke="#9a32cd" points="68.5619,-512.693 58.0872,-514.284 67.2678,-519.572 68.5619,-512.693"/>
<text text-anchor="middle" x="102" y="-529" font-family="Helvetica,sans-Serif" font-size="10.00"> textEditor</text>
</g>
</g>
</svg>
