<?xml version="1.0" encoding="UTF-8" standalone="no"?>
<!DOCTYPE svg PUBLIC "-//W3C//DTD SVG 1.1//EN"
 "http://www.w3.org/Graphics/SVG/1.1/DTD/svg11.dtd">
<!-- Generated by graphviz version 2.36.0 (20140111.2315)
 -->
<!-- Title: view.Editor Pages: 1 -->
<!--zoomable 577 -->
<svg id="main" version="1.1" xmlns="http://www.w3.org/2000/svg" xmlns:xlink="http://www.w3.org/1999/xlink" xml:space="preserve" onload="init(evt)">
<style type="text/css"><![CDATA[
.edge:hover path { stroke: red; }
.edge:hover polygon { stroke: red; fill: red; }
]]></style>
<script type="text/javascript"><![CDATA[
var edges = document.getElementsByTagName('g');
if (edges && edges.length) {
  for (var i=0;i<edges.length;i++) {
    if (edges[i].id.substr(0,4)=='edge') {
      edges[i].setAttribute('class','edge');
    }
  }
}
]]></script>
        <defs>
                <circle id="rim" cx="0" cy="0" r="7"/>
                <circle id="rim2" cx="0" cy="0" r="3.5"/>
                <g id="zoomPlus">
                        <use xlink:href="#rim" fill="#404040">
                                <set attributeName="fill" to="#808080" begin="zoomplus.mouseover" end="zoomplus.mouseout"/>
                        </use>
                        <path d="M-4,0h8M0,-4v8" fill="none" stroke="white" stroke-width="1.5" pointer-events="none"/>
                </g>
                <g id="zoomMin">
                        <use xlink:href="#rim" fill="#404040">
                                <set attributeName="fill" to="#808080" begin="zoomminus.mouseover" end="zoomminus.mouseout"/>
                        </use>
                        <path d="M-4,0h8" fill="none" stroke="white" stroke-width="1.5" pointer-events="none"/>
                </g>
                <g id="dirArrow">
                        <path fill="none" stroke="white" stroke-width="1.5" d="M0,-3.0v7 M-2.5,-0.5L0,-3.0L2.5,-0.5"/>
                </g>
               <g id="resetDef">
                       <use xlink:href="#rim2" fill="#404040">
                               <set attributeName="fill" to="#808080" begin="reset.mouseover" end="reset.mouseout"/>
                       </use>
               </g>
        </defs>

<script type="text/javascript">
var viewWidth = 1622;
var viewHeight = 577;
var sectionId = 'dynsection-1';
</script>
<script xlink:href="../../svgpan.js"/>
<svg id="graph" class="graph">
<g id="viewport">
<title>view.Editor</title>
<polygon fill="white" stroke="none" points="-4,4 -4,-573.24 1618,-573.24 1618,4 -4,4"/>
<!-- Node1 -->
<g id="node1" class="node"><title>Node1</title>
<polygon fill="#bfbfbf" stroke="black" points="199.5,-280.018 199.5,-299.018 266.5,-299.018 266.5,-280.018 199.5,-280.018"/>
<text text-anchor="middle" x="233" y="-287.018" font-family="Helvetica,sans-Serif" font-size="10.00">view.Editor</text>
</g>
<!-- Node12 -->
<g id="node12" class="node"><title>Node12</title>
<g id="a_node12"><a xlink:href="../../d6/de7/classview_1_1_s_logo_view.html" target="_top" xlink:title="view.SLogoView">
<polygon fill="white" stroke="black" points="501.5,-199.018 501.5,-218.018 592.5,-218.018 592.5,-199.018 501.5,-199.018"/>
<text text-anchor="middle" x="547" y="-206.018" font-family="Helvetica,sans-Serif" font-size="10.00">view.SLogoView</text>
</a>
</g>
</g>
<!-- Node1&#45;&gt;Node12 -->
<g id="edge30" class="edge"><title>Node1&#45;&gt;Node12</title>
<path fill="none" stroke="#9a32cd" stroke-dasharray="5,2" d="M276.541,-279.213C295.366,-274.673 317.779,-269.296 338,-264.518 387.732,-252.768 400.689,-251.927 450,-238.518 472.747,-232.333 498.2,-224.328 517.179,-218.144"/>
<polygon fill="#9a32cd" stroke="#9a32cd" points="275.672,-275.822 266.772,-281.571 277.315,-282.626 275.672,-275.822"/>
<text text-anchor="middle" x="394" y="-267.518" font-family="Helvetica,sans-Serif" font-size="10.00"> myEditor</text>
</g>
<!-- Node2 -->
<g id="node2" class="node"><title>Node2</title>
<polygon fill="white" stroke="#bfbfbf" points="8,-318.018 8,-337.018 50,-337.018 50,-318.018 8,-318.018"/>
<text text-anchor="middle" x="29" y="-325.018" font-family="Helvetica,sans-Serif" font-size="10.00">HBox</text>
</g>
<!-- Node2&#45;&gt;Node1 -->
<g id="edge1" class="edge"><title>Node2&#45;&gt;Node1</title>
<path fill="none" stroke="midnightblue" d="M60.3742,-321.804C97.7608,-314.771 160.997,-302.875 199.384,-295.654"/>
<polygon fill="midnightblue" stroke="midnightblue" points="59.2876,-318.447 50.107,-323.736 60.5817,-325.327 59.2876,-318.447"/>
</g>
<!-- Node3 -->
<g id="node3" class="node"><title>Node3</title>
<polygon fill="white" stroke="#bfbfbf" points="4.5,-280.018 4.5,-299.018 53.5,-299.018 53.5,-280.018 4.5,-280.018"/>
<text text-anchor="middle" x="29" y="-287.018" font-family="Helvetica,sans-Serif" font-size="10.00">Button</text>
</g>
<!-- Node3&#45;&gt;Node1 -->
<g id="edge2" class="edge"><title>Node3&#45;&gt;Node1</title>
<path fill="none" stroke="#9a32cd" stroke-dasharray="5,2" d="M64.0235,-289.518C101.718,-289.518 162.073,-289.518 199.249,-289.518"/>
<polygon fill="#9a32cd" stroke="#9a32cd" points="63.5673,-286.018 53.5673,-289.518 63.5673,-293.018 63.5673,-286.018"/>
<text text-anchor="middle" x="102" y="-292.518" font-family="Helvetica,sans-Serif" font-size="10.00"> runButton</text>
</g>
<!-- Node4 -->
<g id="node4" class="node"><title>Node4</title>
<g id="a_node4"><a xlink:href="../../dc/df5/classmodel_1_1_parser.html" target="_top" xlink:title="model.Parser">
<polygon fill="white" stroke="black" points="831,-376.018 831,-395.018 911,-395.018 911,-376.018 831,-376.018"/>
<text text-anchor="middle" x="871" y="-383.018" font-family="Helvetica,sans-Serif" font-size="10.00">model.Parser</text>
</a>
</g>
</g>
<!-- Node4&#45;&gt;Node1 -->
<g id="edge3" class="edge"><title>Node4&#45;&gt;Node1</title>
<path fill="none" stroke="#9a32cd" stroke-dasharray="5,2" d="M820.573,-385.605C744.286,-384.949 593.535,-380.504 468,-357.518 391.015,-343.422 303.095,-314.188 260.249,-299.056"/>
<polygon fill="#9a32cd" stroke="#9a32cd" points="820.81,-389.107 830.833,-385.674 820.857,-382.107 820.81,-389.107"/>
<text text-anchor="middle" x="547" y="-380.518" font-family="Helvetica,sans-Serif" font-size="10.00"> myParser</text>
</g>
<!-- Node4&#45;&gt;Node12 -->
<g id="edge32" class="edge"><title>Node4&#45;&gt;Node12</title>
<path fill="none" stroke="#9a32cd" stroke-dasharray="5,2" d="M820.994,-384.794C807.282,-382.158 793.537,-376.804 784,-366.518 745.539,-325.036 805.923,-280.595 766,-240.518 759.926,-234.421 654.618,-221.077 592.626,-213.692"/>
<polygon fill="#9a32cd" stroke="#9a32cd" points="820.508,-388.26 830.913,-386.264 821.534,-381.336 820.508,-388.26"/>
<text text-anchor="middle" x="705" y="-243.518" font-family="Helvetica,sans-Serif" font-size="10.00"> myParser</text>
</g>
<!-- Node19 -->
<g id="node19" class="node"><title>Node19</title>
<g id="a_node19"><a xlink:href="../../d1/dc7/classview_1_1_side_bar.html" target="_top" xlink:title="view.SideBar">
<polygon fill="white" stroke="black" points="1125.5,-300.018 1125.5,-319.018 1202.5,-319.018 1202.5,-300.018 1125.5,-300.018"/>
<text text-anchor="middle" x="1164" y="-307.018" font-family="Helvetica,sans-Serif" font-size="10.00">view.SideBar</text>
</a>
</g>
</g>
<!-- Node4&#45;&gt;Node19 -->
<g id="edge25" class="edge"><title>Node4&#45;&gt;Node19</title>
<path fill="none" stroke="#9a32cd" stroke-dasharray="5,2" d="M921.455,-387.18C965.459,-386.48 1030.08,-379.927 1078,-351.518 1089.17,-344.898 1085.23,-335.757 1096,-328.518 1104.73,-322.653 1115.27,-318.579 1125.37,-315.758"/>
<polygon fill="#9a32cd" stroke="#9a32cd" points="921.267,-383.681 911.289,-387.244 921.311,-390.681 921.267,-383.681"/>
<text text-anchor="middle" x="1027" y="-386.518" font-family="Helvetica,sans-Serif" font-size="10.00"> myParser</text>
</g>
<!-- Node5 -->
<g id="node5" class="node"><title>Node5</title>
<polygon fill="white" stroke="#bfbfbf" points="203,-397.018 203,-416.018 263,-416.018 263,-397.018 203,-397.018"/>
<text text-anchor="middle" x="233" y="-404.018" font-family="Helvetica,sans-Serif" font-size="10.00">Observer</text>
</g>
<!-- Node5&#45;&gt;Node4 -->
<g id="edge4" class="edge"><title>Node5&#45;&gt;Node4</title>
<path fill="none" stroke="midnightblue" d="M273.268,-407.619C361.495,-409.737 582.097,-413.057 766,-399.518 787.44,-397.94 811.211,-394.842 830.609,-391.961"/>
<polygon fill="midnightblue" stroke="midnightblue" points="273.26,-404.117 263.176,-407.367 273.086,-411.115 273.26,-404.117"/>
</g>
<!-- Node5&#45;&gt;Node12 -->
<g id="edge12" class="edge"><title>Node5&#45;&gt;Node12</title>
<path fill="none" stroke="midnightblue" d="M260.635,-392.049C301.962,-369.335 383.679,-323.365 450,-279.518 481.126,-258.94 515.942,-232.199 533.871,-218.134"/>
<polygon fill="midnightblue" stroke="midnightblue" points="258.829,-389.048 251.739,-396.922 262.191,-395.187 258.829,-389.048"/>
</g>
<!-- Node6 -->
<g id="node6" class="node"><title>Node6</title>
<polygon fill="white" stroke="#bfbfbf" points="491,-318.518 491,-348.518 603,-348.518 603,-318.518 491,-318.518"/>
<text text-anchor="start" x="499" y="-336.518" font-family="Helvetica,sans-Serif" font-size="10.00">List&lt; Entry&lt; String,</text>
<text text-anchor="middle" x="547" y="-325.518" font-family="Helvetica,sans-Serif" font-size="10.00"> Pattern &gt; &gt;</text>
</g>
<!-- Node6&#45;&gt;Node4 -->
<g id="edge5" class="edge"><title>Node6&#45;&gt;Node4</title>
<path fill="none" stroke="#9a32cd" stroke-dasharray="5,2" d="M613.362,-338.202C656.972,-342.16 715.379,-349.066 766,-360.518 774.225,-362.379 775.872,-364.272 784,-366.518 799.18,-370.713 816.067,-374.608 830.83,-377.765"/>
<polygon fill="#9a32cd" stroke="#9a32cd" points="613.439,-334.696 603.171,-337.307 612.826,-341.669 613.439,-334.696"/>
<text text-anchor="middle" x="705" y="-363.518" font-family="Helvetica,sans-Serif" font-size="10.00"> myPatterns</text>
</g>
<!-- Node7 -->
<g id="node7" class="node"><title>Node7</title>
<g id="a_node7"><a xlink:href="../../d1/dca/classmodel_1_1_execution_environment.html" target="_top" xlink:title="model.ExecutionEnvironment">
<polygon fill="white" stroke="black" points="468.5,-500.018 468.5,-519.018 625.5,-519.018 625.5,-500.018 468.5,-500.018"/>
<text text-anchor="middle" x="547" y="-507.018" font-family="Helvetica,sans-Serif" font-size="10.00">model.ExecutionEnvironment</text>
</a>
</g>
</g>
<!-- Node7&#45;&gt;Node4 -->
<g id="edge6" class="edge"><title>Node7&#45;&gt;Node4</title>
<path fill="none" stroke="#9a32cd" stroke-dasharray="5,2" d="M611.968,-498.195C675.769,-486.84 764.547,-470.847 766,-469.518 788.115,-449.282 762.252,-425.149 784,-404.518 796.424,-392.732 814.438,-387.622 830.773,-385.603"/>
<polygon fill="#9a32cd" stroke="#9a32cd" points="611.193,-494.778 601.96,-499.975 612.418,-501.67 611.193,-494.778"/>
<text text-anchor="middle" x="705" y="-494.518" font-family="Helvetica,sans-Serif" font-size="10.00"> myExecutionParameters</text>
</g>
<!-- Node7&#45;&gt;Node19 -->
<g id="edge23" class="edge"><title>Node7&#45;&gt;Node19</title>
<path fill="none" stroke="#9a32cd" stroke-dasharray="5,2" d="M636.055,-509.042C770.897,-506.31 1019.15,-492.711 1078,-430.518 1109.64,-397.082 1065.14,-362.681 1096,-328.518 1103.54,-320.174 1114.44,-315.384 1125.27,-312.669"/>
<polygon fill="#9a32cd" stroke="#9a32cd" points="635.685,-505.548 625.752,-509.234 635.816,-512.547 635.685,-505.548"/>
<text text-anchor="middle" x="871" y="-505.518" font-family="Helvetica,sans-Serif" font-size="10.00"> myEnvironment</text>
</g>
<!-- Node8 -->
<g id="node8" class="node"><title>Node8</title>
<polygon fill="white" stroke="#bfbfbf" points="197.5,-500.018 197.5,-519.018 268.5,-519.018 268.5,-500.018 197.5,-500.018"/>
<text text-anchor="middle" x="233" y="-507.018" font-family="Helvetica,sans-Serif" font-size="10.00">Observable</text>
</g>
<!-- Node8&#45;&gt;Node7 -->
<g id="edge7" class="edge"><title>Node8&#45;&gt;Node7</title>
<path fill="none" stroke="midnightblue" d="M278.637,-509.518C328.066,-509.518 408.658,-509.518 468.457,-509.518"/>
<polygon fill="midnightblue" stroke="midnightblue" points="278.582,-506.018 268.582,-509.518 278.582,-513.018 278.582,-506.018"/>
</g>
<!-- Node9 -->
<g id="node9" class="node"><title>Node9</title>
<polygon fill="white" stroke="#bfbfbf" points="146,-450.518 146,-480.518 320,-480.518 320,-450.518 146,-450.518"/>
<text text-anchor="start" x="154" y="-468.518" font-family="Helvetica,sans-Serif" font-size="10.00">Map&lt; String, model.instructions.</text>
<text text-anchor="middle" x="233" y="-457.518" font-family="Helvetica,sans-Serif" font-size="10.00">Instruction &gt;</text>
</g>
<!-- Node9&#45;&gt;Node7 -->
<g id="edge8" class="edge"><title>Node9&#45;&gt;Node7</title>
<path fill="none" stroke="#9a32cd" stroke-dasharray="5,2" d="M330.616,-478.038C367.941,-482.993 410.983,-488.851 450,-494.518 461.769,-496.228 474.337,-498.133 486.37,-499.997"/>
<polygon fill="#9a32cd" stroke="#9a32cd" points="330.621,-474.508 320.248,-476.665 329.702,-481.448 330.621,-474.508"/>
<text text-anchor="middle" x="394" y="-497.518" font-family="Helvetica,sans-Serif" font-size="10.00"> myUserInstructionMap</text>
</g>
<!-- Node10 -->
<g id="node10" class="node"><title>Node10</title>
<polygon fill="white" stroke="#bfbfbf" points="169,-538.018 169,-557.018 297,-557.018 297,-538.018 169,-538.018"/>
<text text-anchor="middle" x="233" y="-545.018" font-family="Helvetica,sans-Serif" font-size="10.00">Map&lt; String, Double &gt;</text>
</g>
<!-- Node10&#45;&gt;Node7 -->
<g id="edge9" class="edge"><title>Node10&#45;&gt;Node7</title>
<path fill="none" stroke="#9a32cd" stroke-dasharray="5,2" d="M307.492,-539.982C349.309,-535.536 402.635,-529.601 450,-523.518 460.608,-522.156 471.86,-520.608 482.784,-519.05"/>
<polygon fill="#9a32cd" stroke="#9a32cd" points="306.969,-536.517 297.393,-541.05 307.706,-543.479 306.969,-536.517"/>
<text text-anchor="middle" x="394" y="-539.518" font-family="Helvetica,sans-Serif" font-size="10.00"> myVariableMap</text>
</g>
<!-- Node11 -->
<g id="node11" class="node"><title>Node11</title>
<polygon fill="white" stroke="#bfbfbf" points="486,-453.018 486,-472.018 608,-472.018 608,-453.018 486,-453.018"/>
<text text-anchor="middle" x="547" y="-460.018" font-family="Helvetica,sans-Serif" font-size="10.00">Map&lt; String, String &gt;</text>
</g>
<!-- Node11&#45;&gt;Node4 -->
<g id="edge10" class="edge"><title>Node11&#45;&gt;Node4</title>
<path fill="none" stroke="#9a32cd" stroke-dasharray="5,2" d="M618.313,-456.939C677.264,-451.749 753.744,-443.618 766,-435.518 779.292,-426.734 771.137,-413.918 784,-404.518 797.457,-394.684 815.045,-389.78 830.807,-387.391"/>
<polygon fill="#9a32cd" stroke="#9a32cd" points="617.934,-453.459 608.274,-457.81 618.539,-460.432 617.934,-453.459"/>
<text text-anchor="middle" x="705" y="-457.518" font-family="Helvetica,sans-Serif" font-size="10.00"> myCommandMap</text>
</g>
<!-- Node12&#45;&gt;Node4 -->
<g id="edge11" class="edge"><title>Node12&#45;&gt;Node4</title>
<path fill="none" stroke="#9a32cd" stroke-dasharray="5,2" d="M574.044,-222.923C592.953,-232.83 619.425,-245.583 644,-253.518 696.508,-270.473 726.769,-237.718 766,-276.518 795.003,-305.203 755.446,-337.386 784,-366.518 796.095,-378.858 814.268,-384.006 830.798,-385.907"/>
<polygon fill="#9a32cd" stroke="#9a32cd" points="575.624,-219.799 565.154,-218.182 572.331,-225.976 575.624,-219.799"/>
<text text-anchor="middle" x="705" y="-279.518" font-family="Helvetica,sans-Serif" font-size="10.00"> mySLogoView</text>
</g>
<!-- Node13 -->
<g id="node13" class="node"><title>Node13</title>
<g id="a_node13"><a xlink:href="../../da/d64/classview_1_1_workspace.html" target="_top" xlink:title="view.Workspace">
<polygon fill="white" stroke="black" points="1344,-243.018 1344,-262.018 1434,-262.018 1434,-243.018 1344,-243.018"/>
<text text-anchor="middle" x="1389" y="-250.018" font-family="Helvetica,sans-Serif" font-size="10.00">view.Workspace</text>
</a>
</g>
</g>
<!-- Node13&#45;&gt;Node12 -->
<g id="edge13" class="edge"><title>Node13&#45;&gt;Node12</title>
<path fill="none" stroke="#9a32cd" stroke-dasharray="5,2" d="M1333.84,-252.174C1259.36,-250.577 1130.6,-243.42 1096,-213.518 1073.97,-194.478 1101.25,-168.054 1078,-150.518 1025.75,-111.109 848.889,-159.024 784,-167.518 716.995,-176.289 639.964,-190.445 592.633,-199.616"/>
<polygon fill="#9a32cd" stroke="#9a32cd" points="1333.91,-255.676 1343.97,-252.365 1334.04,-248.677 1333.91,-255.676"/>
<text text-anchor="middle" x="1027" y="-153.518" font-family="Helvetica,sans-Serif" font-size="10.00"> myWorkspace</text>
</g>
<!-- Node29 -->
<g id="node29" class="node"><title>Node29</title>
<g id="a_node29"><a xlink:href="../../de/d0a/classview_1_1_drawer.html" target="_top" xlink:title="view.Drawer">
<polygon fill="white" stroke="black" points="1540.5,-243.018 1540.5,-262.018 1613.5,-262.018 1613.5,-243.018 1540.5,-243.018"/>
<text text-anchor="middle" x="1577" y="-250.018" font-family="Helvetica,sans-Serif" font-size="10.00">view.Drawer</text>
</a>
</g>
</g>
<!-- Node13&#45;&gt;Node29 -->
<g id="edge35" class="edge"><title>Node13&#45;&gt;Node29</title>
<path fill="none" stroke="#9a32cd" stroke-dasharray="5,2" d="M1444.28,-252.518C1475.23,-252.518 1513.14,-252.518 1540.33,-252.518"/>
<polygon fill="#9a32cd" stroke="#9a32cd" points="1444.08,-249.018 1434.08,-252.518 1444.08,-256.018 1444.08,-249.018"/>
<text text-anchor="middle" x="1487" y="-255.518" font-family="Helvetica,sans-Serif" font-size="10.00"> myWorkspace</text>
</g>
<!-- Node14 -->
<g id="node14" class="node"><title>Node14</title>
<polygon fill="white" stroke="#bfbfbf" points="1130.5,-262.018 1130.5,-281.018 1197.5,-281.018 1197.5,-262.018 1130.5,-262.018"/>
<text text-anchor="middle" x="1164" y="-269.018" font-family="Helvetica,sans-Serif" font-size="10.00">StackPane</text>
</g>
<!-- Node14&#45;&gt;Node13 -->
<g id="edge14" class="edge"><title>Node14&#45;&gt;Node13</title>
<path fill="none" stroke="midnightblue" d="M1207.91,-267.862C1246.96,-264.535 1304.36,-259.645 1343.8,-256.284"/>
<polygon fill="midnightblue" stroke="midnightblue" points="1207.57,-264.378 1197.9,-268.715 1208.17,-271.353 1207.57,-264.378"/>
</g>
<!-- Node15 -->
<g id="node15" class="node"><title>Node15</title>
<g id="a_node15"><a xlink:href="../../d8/df7/classview_1_1_turtle_view.html" target="_top" xlink:title="view.TurtleView">
<polygon fill="white" stroke="black" points="1121,-338.018 1121,-357.018 1207,-357.018 1207,-338.018 1121,-338.018"/>
<text text-anchor="middle" x="1164" y="-345.018" font-family="Helvetica,sans-Serif" font-size="10.00">view.TurtleView</text>
</a>
</g>
</g>
<!-- Node15&#45;&gt;Node13 -->
<g id="edge15" class="edge"><title>Node15&#45;&gt;Node13</title>
<path fill="none" stroke="#9a32cd" stroke-dasharray="5,2" d="M1217.31,-346.548C1251.55,-343.384 1295.44,-334.233 1326,-309.518 1340.53,-297.766 1330.56,-284.501 1344,-271.518 1347.95,-267.703 1352.79,-264.592 1357.79,-262.076"/>
<polygon fill="#9a32cd" stroke="#9a32cd" points="1216.72,-343.083 1207.02,-347.348 1217.26,-350.062 1216.72,-343.083"/>
<text text-anchor="middle" x="1288" y="-344.518" font-family="Helvetica,sans-Serif" font-size="10.00"> myActiveTurtle</text>
</g>
<!-- Node16 -->
<g id="node16" class="node"><title>Node16</title>
<polygon fill="white" stroke="#bfbfbf" points="837,-547.018 837,-566.018 905,-566.018 905,-547.018 837,-547.018"/>
<text text-anchor="middle" x="871" y="-554.018" font-family="Helvetica,sans-Serif" font-size="10.00">ImageView</text>
</g>
<!-- Node16&#45;&gt;Node15 -->
<g id="edge16" class="edge"><title>Node16&#45;&gt;Node15</title>
<path fill="none" stroke="midnightblue" d="M915.334,-565.258C962.29,-571.956 1036.1,-573.929 1078,-531.518 1103.92,-505.28 1072.19,-394.692 1096,-366.518 1102.32,-359.038 1111.35,-354.389 1120.74,-351.529"/>
<polygon fill="midnightblue" stroke="midnightblue" points="915.586,-561.755 905.166,-563.675 914.508,-568.672 915.586,-561.755"/>
</g>
<!-- Node17 -->
<g id="node17" class="node"><title>Node17</title>
<polygon fill="white" stroke="#bfbfbf" points="1096,-174.518 1096,-204.518 1232,-204.518 1232,-174.518 1096,-174.518"/>
<text text-anchor="start" x="1104" y="-192.518" font-family="Helvetica,sans-Serif" font-size="10.00">Map&lt; Integer, view.Turtle</text>
<text text-anchor="middle" x="1164" y="-181.518" font-family="Helvetica,sans-Serif" font-size="10.00">View &gt;</text>
</g>
<!-- Node17&#45;&gt;Node13 -->
<g id="edge17" class="edge"><title>Node17&#45;&gt;Node13</title>
<path fill="none" stroke="#9a32cd" stroke-dasharray="5,2" d="M1242.43,-190.844C1269.57,-193.325 1299.8,-198.435 1326,-208.518 1346.45,-216.387 1366.45,-232.552 1377.98,-242.945"/>
<polygon fill="#9a32cd" stroke="#9a32cd" points="1242.44,-187.334 1232.19,-190.016 1241.88,-194.311 1242.44,-187.334"/>
<text text-anchor="middle" x="1288" y="-211.518" font-family="Helvetica,sans-Serif" font-size="10.00"> myTurtles</text>
</g>
<!-- Node18 -->
<g id="node18" class="node"><title>Node18</title>
<polygon fill="white" stroke="#bfbfbf" points="1141,-136.018 1141,-155.018 1187,-155.018 1187,-136.018 1141,-136.018"/>
<text text-anchor="middle" x="1164" y="-143.018" font-family="Helvetica,sans-Serif" font-size="10.00">Group</text>
</g>
<!-- Node18&#45;&gt;Node13 -->
<g id="edge18" class="edge"><title>Node18&#45;&gt;Node13</title>
<path fill="none" stroke="#9a32cd" stroke-dasharray="5,2" d="M1197.59,-145.697C1231.83,-147.258 1286.14,-153.73 1326,-177.518 1353.27,-193.796 1373.93,-226.614 1382.97,-242.9"/>
<polygon fill="#9a32cd" stroke="#9a32cd" points="1197.34,-142.187 1187.23,-145.347 1197.1,-149.183 1197.34,-142.187"/>
<text text-anchor="middle" x="1288" y="-180.518" font-family="Helvetica,sans-Serif" font-size="10.00"> myLines</text>
</g>
<!-- Node19&#45;&gt;Node1 -->
<g id="edge39" class="edge"><title>Node19&#45;&gt;Node1</title>
<path fill="none" stroke="#9a32cd" stroke-dasharray="5,2" d="M1114.92,-308.483C949.358,-304.919 405.415,-293.209 266.519,-290.218"/>
<polygon fill="#9a32cd" stroke="#9a32cd" points="1115.2,-311.99 1125.27,-308.706 1115.35,-304.991 1115.2,-311.99"/>
<text text-anchor="middle" x="705" y="-304.518" font-family="Helvetica,sans-Serif" font-size="10.00"> mySidebar</text>
</g>
<!-- Node19&#45;&gt;Node12 -->
<g id="edge37" class="edge"><title>Node19&#45;&gt;Node12</title>
<path fill="none" stroke="#9a32cd" stroke-dasharray="5,2" d="M1115.28,-301.639C1015.05,-285.031 791.201,-247.615 784,-243.518 773.316,-237.439 776.998,-228.01 766,-222.518 711.203,-195.154 638.784,-196.744 592.785,-201.647"/>
<polygon fill="#9a32cd" stroke="#9a32cd" points="1115.01,-305.141 1125.44,-303.322 1116.15,-298.235 1115.01,-305.141"/>
<text text-anchor="middle" x="871" y="-277.518" font-family="Helvetica,sans-Serif" font-size="10.00"> mySidebar</text>
</g>
<!-- Node19&#45;&gt;Node13 -->
<g id="edge19" class="edge"><title>Node19&#45;&gt;Node13</title>
<path fill="none" stroke="#9a32cd" stroke-dasharray="5,2" d="M1212.86,-301.322C1245.13,-295.331 1288.49,-286.374 1326,-275.518 1339.01,-271.753 1353.2,-266.572 1364.72,-262.08"/>
<polygon fill="#9a32cd" stroke="#9a32cd" points="1212.01,-297.92 1202.8,-303.161 1213.26,-304.806 1212.01,-297.92"/>
<text text-anchor="middle" x="1288" y="-297.518" font-family="Helvetica,sans-Serif" font-size="10.00"> mySidebar</text>
</g>
<!-- Node20 -->
<g id="node20" class="node"><title>Node20</title>
<polygon fill="white" stroke="#bfbfbf" points="850.5,-414.018 850.5,-433.018 891.5,-433.018 891.5,-414.018 850.5,-414.018"/>
<text text-anchor="middle" x="871" y="-421.018" font-family="Helvetica,sans-Serif" font-size="10.00">VBox</text>
</g>
<!-- Node20&#45;&gt;Node19 -->
<g id="edge20" class="edge"><title>Node20&#45;&gt;Node19</title>
<path fill="none" stroke="midnightblue" d="M901.67,-429.349C945.809,-436.176 1028.83,-441.638 1078,-398.518 1102.15,-377.338 1073.57,-351.511 1096,-328.518 1103.77,-320.557 1114.61,-315.863 1125.3,-313.118"/>
<polygon fill="midnightblue" stroke="midnightblue" points="902.027,-425.86 891.586,-427.659 900.87,-432.764 902.027,-425.86"/>
</g>
<!-- Node21 -->
<g id="node21" class="node"><title>Node21</title>
<polygon fill="white" stroke="#bfbfbf" points="784.5,-338.018 784.5,-357.018 957.5,-357.018 957.5,-338.018 784.5,-338.018"/>
<text text-anchor="middle" x="871" y="-345.018" font-family="Helvetica,sans-Serif" font-size="10.00">ObservableList&lt; view.Property &gt;</text>
</g>
<!-- Node21&#45;&gt;Node19 -->
<g id="edge21" class="edge"><title>Node21&#45;&gt;Node19</title>
<path fill="none" stroke="#9a32cd" stroke-dasharray="5,2" d="M967.708,-337.32C1002.48,-333.363 1042.06,-328.569 1078,-323.518 1093.55,-321.333 1110.64,-318.585 1125.4,-316.104"/>
<polygon fill="#9a32cd" stroke="#9a32cd" points="967.102,-333.866 957.559,-338.466 967.888,-340.821 967.102,-333.866"/>
<text text-anchor="middle" x="1027" y="-339.518" font-family="Helvetica,sans-Serif" font-size="10.00"> variablesList</text>
</g>
<!-- Node22 -->
<g id="node22" class="node"><title>Node22</title>
<polygon fill="white" stroke="#bfbfbf" points="186.5,-84.0182 186.5,-103.018 279.5,-103.018 279.5,-84.0182 186.5,-84.0182"/>
<text text-anchor="middle" x="233" y="-91.0182" font-family="Helvetica,sans-Serif" font-size="10.00">ResourceBundle</text>
</g>
<!-- Node22&#45;&gt;Node12 -->
<g id="edge29" class="edge"><title>Node22&#45;&gt;Node12</title>
<path fill="none" stroke="#9a32cd" stroke-dasharray="5,2" d="M289.691,-102.352C334.276,-110.615 397.77,-125.095 450,-147.518 482.298,-161.384 516.094,-185.459 533.69,-198.842"/>
<polygon fill="#9a32cd" stroke="#9a32cd" points="290.093,-98.8678 279.63,-100.533 288.848,-105.756 290.093,-98.8678"/>
<text text-anchor="middle" x="394" y="-150.518" font-family="Helvetica,sans-Serif" font-size="10.00"> myResources</text>
</g>
<!-- Node22&#45;&gt;Node19 -->
<g id="edge22" class="edge"><title>Node22&#45;&gt;Node19</title>
<path fill="none" stroke="#9a32cd" stroke-dasharray="5,2" d="M269.112,-80.6887C399.1,-35.6948 856.863,100.073 1078,-131.518 1127.11,-182.954 1049.99,-236.289 1096,-290.518 1103.35,-299.184 1114.34,-304.048 1125.3,-306.733"/>
<polygon fill="#9a32cd" stroke="#9a32cd" points="267.909,-77.4015 259.63,-84.0124 270.225,-84.0074 267.909,-77.4015"/>
<text text-anchor="middle" x="705" y="-5.51821" font-family="Helvetica,sans-Serif" font-size="10.00"> myResources</text>
</g>
<!-- Node23 -->
<g id="node23" class="node"><title>Node23</title>
<polygon fill="white" stroke="#bfbfbf" points="797,-215.018 797,-234.018 945,-234.018 945,-215.018 797,-215.018"/>
<text text-anchor="middle" x="871" y="-222.018" font-family="Helvetica,sans-Serif" font-size="10.00">TableView&lt; view.Property &gt;</text>
</g>
<!-- Node23&#45;&gt;Node19 -->
<g id="edge24" class="edge"><title>Node23&#45;&gt;Node19</title>
<path fill="none" stroke="#9a32cd" stroke-dasharray="5,2" d="M955.332,-219.206C1003.82,-217.88 1059.03,-219.975 1078,-234.518 1098.75,-250.426 1077.2,-272.356 1096,-290.518 1103.91,-298.162 1114.67,-302.772 1125.24,-305.54"/>
<polygon fill="#9a32cd" stroke="#9a32cd" points="954.984,-215.715 945.102,-219.538 955.21,-222.712 954.984,-215.715"/>
<text text-anchor="middle" x="1027" y="-248.518" font-family="Helvetica,sans-Serif" font-size="10.00"> turtlePropertiesTable</text>
<text text-anchor="middle" x="1027" y="-237.518" font-family="Helvetica,sans-Serif" font-size="10.00">variablesTable</text>
</g>
<!-- Node24 -->
<g id="node24" class="node"><title>Node24</title>
<polygon fill="white" stroke="#bfbfbf" points="802,-177.018 802,-196.018 940,-196.018 940,-177.018 802,-177.018"/>
<text text-anchor="middle" x="871" y="-184.018" font-family="Helvetica,sans-Serif" font-size="10.00">ObservableList&lt; String &gt;</text>
</g>
<!-- Node24&#45;&gt;Node19 -->
<g id="edge26" class="edge"><title>Node24&#45;&gt;Node19</title>
<path fill="none" stroke="#9a32cd" stroke-dasharray="5,2" d="M912.294,-174.492C958.126,-163.521 1032.49,-154.347 1078,-193.518 1111.23,-222.121 1066.47,-258.108 1096,-290.518 1103.57,-298.83 1114.49,-303.61 1125.31,-306.327"/>
<polygon fill="#9a32cd" stroke="#9a32cd" points="911.246,-171.146 902.41,-176.991 912.963,-177.933 911.246,-171.146"/>
<text text-anchor="middle" x="1027" y="-207.518" font-family="Helvetica,sans-Serif" font-size="10.00"> commandItems</text>
<text text-anchor="middle" x="1027" y="-196.518" font-family="Helvetica,sans-Serif" font-size="10.00">historyItems</text>
</g>
<!-- Node25 -->
<g id="node25" class="node"><title>Node25</title>
<polygon fill="white" stroke="#bfbfbf" points="1132.5,-376.018 1132.5,-395.018 1195.5,-395.018 1195.5,-376.018 1132.5,-376.018"/>
<text text-anchor="middle" x="1164" y="-383.018" font-family="Helvetica,sans-Serif" font-size="10.00">Rectangle</text>
</g>
<!-- Node25&#45;&gt;Node13 -->
<g id="edge27" class="edge"><title>Node25&#45;&gt;Node13</title>
<path fill="none" stroke="#9a32cd" stroke-dasharray="5,2" d="M1205.84,-389.858C1242.23,-391.32 1294.46,-387.114 1326,-356.518 1353.72,-329.632 1319.54,-301.4 1344,-271.518 1347.16,-267.655 1351.26,-264.559 1355.68,-262.083"/>
<polygon fill="#9a32cd" stroke="#9a32cd" points="1205.75,-386.348 1195.57,-389.28 1205.35,-393.337 1205.75,-386.348"/>
<text text-anchor="middle" x="1288" y="-391.518" font-family="Helvetica,sans-Serif" font-size="10.00"> myBackground</text>
</g>
<!-- Node26 -->
<g id="node26" class="node"><title>Node26</title>
<polygon fill="white" stroke="#bfbfbf" points="210.5,-222.018 210.5,-241.018 255.5,-241.018 255.5,-222.018 210.5,-222.018"/>
<text text-anchor="middle" x="233" y="-229.018" font-family="Helvetica,sans-Serif" font-size="10.00">Stage</text>
</g>
<!-- Node26&#45;&gt;Node12 -->
<g id="edge28" class="edge"><title>Node26&#45;&gt;Node12</title>
<path fill="none" stroke="#9a32cd" stroke-dasharray="5,2" d="M265.977,-229.161C321.9,-225.038 437.57,-216.511 501.356,-211.809"/>
<polygon fill="#9a32cd" stroke="#9a32cd" points="265.655,-225.675 255.939,-229.901 266.17,-232.656 265.655,-225.675"/>
<text text-anchor="middle" x="394" y="-226.518" font-family="Helvetica,sans-Serif" font-size="10.00"> myStage</text>
</g>
<!-- Node27 -->
<g id="node27" class="node"><title>Node27</title>
<polygon fill="white" stroke="#bfbfbf" points="173.5,-184.018 173.5,-203.018 292.5,-203.018 292.5,-184.018 173.5,-184.018"/>
<text text-anchor="middle" x="233" y="-191.018" font-family="Helvetica,sans-Serif" font-size="10.00">Map&lt; String, Node &gt;</text>
</g>
<!-- Node27&#45;&gt;Node12 -->
<g id="edge31" class="edge"><title>Node27&#45;&gt;Node12</title>
<path fill="none" stroke="#9a32cd" stroke-dasharray="5,2" d="M302.969,-192.539C345.42,-192.417 400.919,-193.12 450,-196.518 466.756,-197.678 485.07,-199.763 501.168,-201.873"/>
<polygon fill="#9a32cd" stroke="#9a32cd" points="302.73,-189.04 292.746,-192.585 302.761,-196.04 302.73,-189.04"/>
<text text-anchor="middle" x="394" y="-199.518" font-family="Helvetica,sans-Serif" font-size="10.00"> variables</text>
</g>
<!-- Node28 -->
<g id="node28" class="node"><title>Node28</title>
<polygon fill="white" stroke="#bfbfbf" points="192.5,-146.018 192.5,-165.018 273.5,-165.018 273.5,-146.018 192.5,-146.018"/>
<text text-anchor="middle" x="233" y="-153.018" font-family="Helvetica,sans-Serif" font-size="10.00">Dimension2D</text>
</g>
<!-- Node28&#45;&gt;Node12 -->
<g id="edge33" class="edge"><title>Node28&#45;&gt;Node12</title>
<path fill="none" stroke="#9a32cd" stroke-dasharray="5,2" d="M283.938,-158.042C327.996,-160.93 393.765,-166.856 450,-178.518 474.279,-183.553 501.16,-192.233 520.287,-198.965"/>
<polygon fill="#9a32cd" stroke="#9a32cd" points="283.976,-154.538 273.777,-157.405 283.538,-161.524 283.976,-154.538"/>
<text text-anchor="middle" x="394" y="-181.518" font-family="Helvetica,sans-Serif" font-size="10.00"> myDimensions</text>
</g>
<!-- Node29&#45;&gt;Node12 -->
<g id="edge34" class="edge"><title>Node29&#45;&gt;Node12</title>
<path fill="none" stroke="#9a32cd" stroke-dasharray="5,2" d="M1564.64,-234.101C1538.86,-194.852 1471.74,-106.518 1390,-106.518 870,-106.518 870,-106.518 870,-106.518 748.321,-106.518 612.346,-173.531 565.191,-198.922"/>
<polygon fill="#9a32cd" stroke="#9a32cd" points="1561.96,-236.398 1570.29,-242.939 1567.85,-232.628 1561.96,-236.398"/>
<text text-anchor="middle" x="1164" y="-109.518" font-family="Helvetica,sans-Serif" font-size="10.00"> drawer</text>
</g>
<!-- Node30 -->
<g id="node30" class="node"><title>Node30</title>
<polygon fill="white" stroke="#bfbfbf" points="1368.5,-281.018 1368.5,-300.018 1409.5,-300.018 1409.5,-281.018 1368.5,-281.018"/>
<text text-anchor="middle" x="1389" y="-288.018" font-family="Helvetica,sans-Serif" font-size="10.00">Color</text>
</g>
<!-- Node30&#45;&gt;Node29 -->
<g id="edge36" class="edge"><title>Node30&#45;&gt;Node29</title>
<path fill="none" stroke="#9a32cd" stroke-dasharray="5,2" d="M1419.73,-286.195C1446.59,-282.085 1487.14,-275.376 1522,-267.518 1529.02,-265.935 1536.5,-264.013 1543.58,-262.082"/>
<polygon fill="#9a32cd" stroke="#9a32cd" points="1419.17,-282.74 1409.8,-287.69 1420.21,-289.662 1419.17,-282.74"/>
<text text-anchor="middle" x="1487" y="-284.518" font-family="Helvetica,sans-Serif" font-size="10.00"> myColor</text>
</g>
<!-- Node31 -->
<g id="node31" class="node"><title>Node31</title>
<polygon fill="white" stroke="#bfbfbf" points="0,-242.018 0,-261.018 58,-261.018 58,-242.018 0,-242.018"/>
<text text-anchor="middle" x="29" y="-249.018" font-family="Helvetica,sans-Serif" font-size="10.00">TextArea</text>
</g>
<!-- Node31&#45;&gt;Node1 -->
<g id="edge38" class="edge"><title>Node31&#45;&gt;Node1</title>
<path fill="none" stroke="#9a32cd" stroke-dasharray="5,2" d="M68.2332,-258.711C106.167,-265.847 163.67,-276.664 199.475,-283.4"/>
<polygon fill="#9a32cd" stroke="#9a32cd" points="68.5619,-255.211 58.0872,-256.802 67.2678,-262.09 68.5619,-255.211"/>
<text text-anchor="middle" x="102" y="-272.518" font-family="Helvetica,sans-Serif" font-size="10.00"> textEditor</text>
</g>
</g>
</svg>
        <g id="navigator" transform="translate(0 0)" fill="#404254">
                <rect fill="#f2f5e9" fill-opacity="0.5" stroke="#606060" stroke-width=".5" x="0" y="0" width="60" height="60"/>
                <use id="zoomplus" xlink:href="#zoomPlus" x="17" y="9" onmousedown="handleZoom(evt,'in')"/>
                <use id="zoomminus" xlink:href="#zoomMin" x="42" y="9" onmousedown="handleZoom(evt,'out')"/>
                <use id="reset" xlink:href="#resetDef" x="30" y="36" onmousedown="handleReset()"/>
                <g id="arrowUp" xlink:href="#dirArrow" transform="translate(30 24)" onmousedown="handlePan(0,-1)">
                  <use xlink:href="#rim" fill="#404040">
                        <set attributeName="fill" to="#808080" begin="arrowUp.mouseover" end="arrowUp.mouseout"/>
                  </use>
                  <path fill="none" stroke="white" stroke-width="1.5" d="M0,-3.0v7 M-2.5,-0.5L0,-3.0L2.5,-0.5"/>
                </g>
                <g id="arrowRight" xlink:href="#dirArrow" transform="rotate(90) translate(36 -43)" onmousedown="handlePan(1,0)">
                  <use xlink:href="#rim" fill="#404040">
                        <set attributeName="fill" to="#808080" begin="arrowRight.mouseover" end="arrowRight.mouseout"/>
                  </use>
                  <path fill="none" stroke="white" stroke-width="1.5" d="M0,-3.0v7 M-2.5,-0.5L0,-3.0L2.5,-0.5"/>
                </g>
                <g id="arrowDown" xlink:href="#dirArrow" transform="rotate(180) translate(-30 -48)" onmousedown="handlePan(0,1)">
                  <use xlink:href="#rim" fill="#404040">
                        <set attributeName="fill" to="#808080" begin="arrowDown.mouseover" end="arrowDown.mouseout"/>
                  </use>
                  <path fill="none" stroke="white" stroke-width="1.5" d="M0,-3.0v7 M-2.5,-0.5L0,-3.0L2.5,-0.5"/>
                </g>
                <g id="arrowLeft" xlink:href="#dirArrow" transform="rotate(270) translate(-36 17)" onmousedown="handlePan(-1,0)">
                  <use xlink:href="#rim" fill="#404040">
                        <set attributeName="fill" to="#808080" begin="arrowLeft.mouseover" end="arrowLeft.mouseout"/>
                  </use>
                  <path fill="none" stroke="white" stroke-width="1.5" d="M0,-3.0v7 M-2.5,-0.5L0,-3.0L2.5,-0.5"/>
                </g>
        </g>
        <svg viewBox="0 0 15 15" width="100%" height="30px" preserveAspectRatio="xMaxYMin meet">
         <g id="arrow_out" transform="scale(0.3 0.3)">
          <a xlink:href="classview_1_1_editor__coll__graph_org.svg" target="_base">
           <rect id="button" ry="5" rx="5" y="6" x="6" height="38" width="38"
                fill="#f2f5e9" fill-opacity="0.5" stroke="#606060" stroke-width="1.0"/>
           <path id="arrow"
             d="M 11.500037,31.436501 C 11.940474,20.09759 22.043105,11.32322 32.158766,21.979434 L 37.068811,17.246167 C 37.068811,17.246167 37.088388,32 37.088388,32 L 22.160133,31.978069 C 22.160133,31.978069 26.997745,27.140456 26.997745,27.140456 C 18.528582,18.264221 13.291696,25.230495 11.500037,31.436501 z"
             style="fill:#404040;"/>
          </a>
         </g>
        </svg>
</svg>
