<?xml version="1.0" encoding="UTF-8" standalone="no"?>
<!DOCTYPE svg PUBLIC "-//W3C//DTD SVG 1.1//EN"
 "http://www.w3.org/Graphics/SVG/1.1/DTD/svg11.dtd">
<!-- Generated by graphviz version 2.36.0 (20140111.2315)
 -->
<!-- Title: model.instructions.MovementInstruction Pages: 1 -->
<svg width="1500pt" height="740pt"
 viewBox="0.00 0.00 1500.00 740.00" xmlns="http://www.w3.org/2000/svg" xmlns:xlink="http://www.w3.org/1999/xlink">
<g id="graph0" class="graph" transform="scale(1 1) rotate(0) translate(4 736)">
<title>model.instructions.MovementInstruction</title>
<polygon fill="white" stroke="none" points="-4,4 -4,-736 1496,-736 1496,4 -4,4"/>
<!-- Node1 -->
<g id="node1" class="node"><title>Node1</title>
<polygon fill="#bfbfbf" stroke="black" points="950.5,-668 950.5,-698 1109.5,-698 1109.5,-668 950.5,-668"/>
<text text-anchor="start" x="958.5" y="-686" font-family="Helvetica,sans-Serif" font-size="10.00">model.instructions.Movement</text>
<text text-anchor="middle" x="1030" y="-675" font-family="Helvetica,sans-Serif" font-size="10.00">Instruction</text>
</g>
<!-- Node2 -->
<g id="node2" class="node"><title>Node2</title>
<g id="a_node2"><a xlink:href="../../d1/dea/classmodel_1_1instructions_1_1_instruction.html" target="_top" xlink:title="model.instructions.Instruction">
<polygon fill="white" stroke="black" points="646,-627.5 646,-646.5 804,-646.5 804,-627.5 646,-627.5"/>
<text text-anchor="middle" x="725" y="-634.5" font-family="Helvetica,sans-Serif" font-size="10.00">model.instructions.Instruction</text>
</a>
</g>
</g>
<!-- Node2&#45;&gt;Node1 -->
<g id="edge1" class="edge"><title>Node2&#45;&gt;Node1</title>
<path fill="none" stroke="midnightblue" d="M798.921,-648.071C844.656,-655.014 903.603,-663.963 950.38,-671.064"/>
<polygon fill="midnightblue" stroke="midnightblue" points="799.194,-644.572 788.782,-646.531 798.143,-651.493 799.194,-644.572"/>
</g>
<!-- Node3 -->
<g id="node3" class="node"><title>Node3</title>
<polygon fill="white" stroke="#bfbfbf" points="57,-453.5 57,-472.5 117,-472.5 117,-453.5 57,-453.5"/>
<text text-anchor="middle" x="87" y="-460.5" font-family="Helvetica,sans-Serif" font-size="10.00">Observer</text>
</g>
<!-- Node3&#45;&gt;Node2 -->
<g id="edge2" class="edge"><title>Node3&#45;&gt;Node2</title>
<path fill="none" stroke="midnightblue" d="M127.239,-460.388C237.844,-453.91 548.728,-442.069 620,-508 656.365,-541.64 603.951,-582.017 638,-618 641.573,-621.776 645.714,-624.885 650.209,-627.436"/>
<polygon fill="midnightblue" stroke="midnightblue" points="126.946,-456.899 117.175,-460.995 127.367,-463.886 126.946,-456.899"/>
</g>
<!-- Node9 -->
<g id="node9" class="node"><title>Node9</title>
<g id="a_node9"><a xlink:href="../../d6/de7/classview_1_1_s_logo_view.html" target="_top" xlink:title="view.SLogoView">
<polygon fill="white" stroke="black" points="355.5,-239.5 355.5,-258.5 446.5,-258.5 446.5,-239.5 355.5,-239.5"/>
<text text-anchor="middle" x="401" y="-246.5" font-family="Helvetica,sans-Serif" font-size="10.00">view.SLogoView</text>
</a>
</g>
</g>
<!-- Node3&#45;&gt;Node9 -->
<g id="edge9" class="edge"><title>Node3&#45;&gt;Node9</title>
<path fill="none" stroke="midnightblue" d="M127.102,-456.915C175.469,-447.347 257.138,-424.18 304,-372 322.603,-351.286 306.478,-335.112 322,-312 337.819,-288.446 365.116,-269.345 382.861,-258.576"/>
<polygon fill="midnightblue" stroke="midnightblue" points="126.203,-453.523 117.021,-458.808 127.495,-460.403 126.203,-453.523"/>
</g>
<!-- Node20 -->
<g id="node20" class="node"><title>Node20</title>
<g id="a_node20"><a xlink:href="../../dc/df5/classmodel_1_1_parser.html" target="_top" xlink:title="model.Parser">
<polygon fill="white" stroke="black" points="685,-313.5 685,-332.5 765,-332.5 765,-313.5 685,-313.5"/>
<text text-anchor="middle" x="725" y="-320.5" font-family="Helvetica,sans-Serif" font-size="10.00">model.Parser</text>
</a>
</g>
</g>
<!-- Node3&#45;&gt;Node20 -->
<g id="edge22" class="edge"><title>Node3&#45;&gt;Node20</title>
<path fill="none" stroke="midnightblue" d="M127.202,-474.872C223.593,-501.429 474.853,-554.32 620,-434 639.477,-417.855 622.617,-400.084 638,-380 654.773,-358.101 682.488,-341.922 701.91,-332.506"/>
<polygon fill="midnightblue" stroke="midnightblue" points="127.869,-471.423 117.295,-472.083 125.972,-478.162 127.869,-471.423"/>
</g>
<!-- Node4 -->
<g id="node4" class="node"><title>Node4</title>
<g id="a_node4"><a xlink:href="../../d1/dca/classmodel_1_1_execution_environment.html" target="_top" xlink:title="model.ExecutionEnvironment">
<polygon fill="white" stroke="black" points="322.5,-550.5 322.5,-569.5 479.5,-569.5 479.5,-550.5 322.5,-550.5"/>
<text text-anchor="middle" x="401" y="-557.5" font-family="Helvetica,sans-Serif" font-size="10.00">model.ExecutionEnvironment</text>
</a>
</g>
</g>
<!-- Node4&#45;&gt;Node2 -->
<g id="edge3" class="edge"><title>Node4&#45;&gt;Node2</title>
<path fill="none" stroke="#9a32cd" stroke-dasharray="5,2" d="M449.255,-571.961C496.844,-583.924 572.405,-602.696 638,-618 651.551,-621.162 666.334,-624.476 679.762,-627.436"/>
<polygon fill="#9a32cd" stroke="#9a32cd" points="450.09,-568.562 439.538,-569.515 448.382,-575.35 450.09,-568.562"/>
<text text-anchor="middle" x="559" y="-617" font-family="Helvetica,sans-Serif" font-size="10.00"> myEnvironment</text>
</g>
<!-- Node15 -->
<g id="node15" class="node"><title>Node15</title>
<g id="a_node15"><a xlink:href="../../d1/dc7/classview_1_1_side_bar.html" target="_top" xlink:title="view.SideBar">
<polygon fill="white" stroke="black" points="991.5,-366.5 991.5,-385.5 1068.5,-385.5 1068.5,-366.5 991.5,-366.5"/>
<text text-anchor="middle" x="1030" y="-373.5" font-family="Helvetica,sans-Serif" font-size="10.00">view.SideBar</text>
</a>
</g>
</g>
<!-- Node4&#45;&gt;Node15 -->
<g id="edge19" class="edge"><title>Node4&#45;&gt;Node15</title>
<path fill="none" stroke="#9a32cd" stroke-dasharray="5,2" d="M489.575,-560.15C631.816,-559.527 900.44,-554.413 932,-525 974.67,-485.232 910.834,-438.224 950,-395 960.419,-383.501 976.47,-378.376 991.39,-376.271"/>
<polygon fill="#9a32cd" stroke="#9a32cd" points="489.544,-556.65 479.557,-560.187 489.57,-563.65 489.544,-556.65"/>
<text text-anchor="middle" x="725" y="-561" font-family="Helvetica,sans-Serif" font-size="10.00"> myEnvironment</text>
</g>
<!-- Node4&#45;&gt;Node20 -->
<g id="edge24" class="edge"><title>Node4&#45;&gt;Node20</title>
<path fill="none" stroke="#9a32cd" stroke-dasharray="5,2" d="M446.28,-547.793C462.492,-543.502 481.021,-538.807 498,-535 551.841,-522.929 581.987,-551.995 620,-512 660.79,-469.082 606.523,-430.15 638,-380 652.284,-357.243 679.354,-341.585 699.323,-332.52"/>
<polygon fill="#9a32cd" stroke="#9a32cd" points="445.278,-544.437 436.52,-550.4 447.085,-551.2 445.278,-544.437"/>
<text text-anchor="middle" x="559" y="-538" font-family="Helvetica,sans-Serif" font-size="10.00"> myExecutionParameters</text>
</g>
<!-- Node5 -->
<g id="node5" class="node"><title>Node5</title>
<polygon fill="white" stroke="#bfbfbf" points="51.5,-559.5 51.5,-578.5 122.5,-578.5 122.5,-559.5 51.5,-559.5"/>
<text text-anchor="middle" x="87" y="-566.5" font-family="Helvetica,sans-Serif" font-size="10.00">Observable</text>
</g>
<!-- Node5&#45;&gt;Node4 -->
<g id="edge4" class="edge"><title>Node5&#45;&gt;Node4</title>
<path fill="none" stroke="midnightblue" d="M132.637,-567.712C182.066,-566.287 262.658,-563.962 322.457,-562.237"/>
<polygon fill="midnightblue" stroke="midnightblue" points="132.476,-564.215 122.582,-568.002 132.678,-571.213 132.476,-564.215"/>
</g>
<!-- Node6 -->
<g id="node6" class="node"><title>Node6</title>
<polygon fill="white" stroke="#bfbfbf" points="0,-510 0,-540 174,-540 174,-510 0,-510"/>
<text text-anchor="start" x="8" y="-528" font-family="Helvetica,sans-Serif" font-size="10.00">Map&lt; String, model.instructions.</text>
<text text-anchor="middle" x="87" y="-517" font-family="Helvetica,sans-Serif" font-size="10.00">Instruction &gt;</text>
</g>
<!-- Node6&#45;&gt;Node4 -->
<g id="edge5" class="edge"><title>Node6&#45;&gt;Node4</title>
<path fill="none" stroke="#9a32cd" stroke-dasharray="5,2" d="M184.595,-534.905C221.918,-538.832 264.963,-543.482 304,-548 310.757,-548.782 317.779,-549.617 324.813,-550.469"/>
<polygon fill="#9a32cd" stroke="#9a32cd" points="184.539,-531.38 174.228,-533.817 183.809,-538.342 184.539,-531.38"/>
<text text-anchor="middle" x="248" y="-551" font-family="Helvetica,sans-Serif" font-size="10.00"> myUserInstructionMap</text>
</g>
<!-- Node7 -->
<g id="node7" class="node"><title>Node7</title>
<polygon fill="white" stroke="#bfbfbf" points="23,-597.5 23,-616.5 151,-616.5 151,-597.5 23,-597.5"/>
<text text-anchor="middle" x="87" y="-604.5" font-family="Helvetica,sans-Serif" font-size="10.00">Map&lt; String, Double &gt;</text>
</g>
<!-- Node7&#45;&gt;Node4 -->
<g id="edge6" class="edge"><title>Node7&#45;&gt;Node4</title>
<path fill="none" stroke="#9a32cd" stroke-dasharray="5,2" d="M161.137,-598.745C203.054,-593.707 256.597,-586.755 304,-579 320.767,-576.257 339.083,-572.758 355.18,-569.512"/>
<polygon fill="#9a32cd" stroke="#9a32cd" points="160.531,-595.292 151.015,-599.951 161.359,-602.243 160.531,-595.292"/>
<text text-anchor="middle" x="248" y="-598" font-family="Helvetica,sans-Serif" font-size="10.00"> myVariableMap</text>
</g>
<!-- Node8 -->
<g id="node8" class="node"><title>Node8</title>
<polygon fill="white" stroke="#bfbfbf" points="333,-622 333,-652 469,-652 469,-622 333,-622"/>
<text text-anchor="start" x="341" y="-640" font-family="Helvetica,sans-Serif" font-size="10.00">List&lt; model.instructions.</text>
<text text-anchor="middle" x="401" y="-629" font-family="Helvetica,sans-Serif" font-size="10.00">Instruction &gt;</text>
</g>
<!-- Node8&#45;&gt;Node2 -->
<g id="edge7" class="edge"><title>Node8&#45;&gt;Node2</title>
<path fill="none" stroke="#9a32cd" stroke-dasharray="5,2" d="M479.307,-637C529.736,-637 595.34,-637 645.923,-637"/>
<polygon fill="#9a32cd" stroke="#9a32cd" points="479.11,-633.5 469.11,-637 479.11,-640.5 479.11,-633.5"/>
<text text-anchor="middle" x="559" y="-640" font-family="Helvetica,sans-Serif" font-size="10.00"> myDependencies</text>
</g>
<!-- Node9&#45;&gt;Node2 -->
<g id="edge8" class="edge"><title>Node9&#45;&gt;Node2</title>
<path fill="none" stroke="#9a32cd" stroke-dasharray="5,2" d="M427.279,-263.497C446.191,-273.745 472.995,-287.028 498,-295 550.42,-311.714 583.312,-274.998 620,-316 664.83,-366.101 594.359,-566.86 638,-618 641.176,-621.722 644.902,-624.81 648.991,-627.365"/>
<polygon fill="#9a32cd" stroke="#9a32cd" points="428.861,-260.373 418.415,-258.603 425.477,-266.501 428.861,-260.373"/>
<text text-anchor="middle" x="559" y="-319" font-family="Helvetica,sans-Serif" font-size="10.00"> myView</text>
</g>
<!-- Node9&#45;&gt;Node20 -->
<g id="edge26" class="edge"><title>Node9&#45;&gt;Node20</title>
<path fill="none" stroke="#9a32cd" stroke-dasharray="5,2" d="M456.868,-256.534C511.066,-264.206 590.063,-276.069 620,-284 649.265,-291.753 681.751,-304.665 702.499,-313.492"/>
<polygon fill="#9a32cd" stroke="#9a32cd" points="457.108,-253.033 446.718,-255.105 456.132,-259.965 457.108,-253.033"/>
<text text-anchor="middle" x="559" y="-287" font-family="Helvetica,sans-Serif" font-size="10.00"> mySLogoView</text>
</g>
<!-- Node10 -->
<g id="node10" class="node"><title>Node10</title>
<g id="a_node10"><a xlink:href="../../da/d64/classview_1_1_workspace.html" target="_top" xlink:title="view.Workspace">
<polygon fill="white" stroke="black" points="1222,-410.5 1222,-429.5 1312,-429.5 1312,-410.5 1222,-410.5"/>
<text text-anchor="middle" x="1267" y="-417.5" font-family="Helvetica,sans-Serif" font-size="10.00">view.Workspace</text>
</a>
</g>
</g>
<!-- Node10&#45;&gt;Node9 -->
<g id="edge10" class="edge"><title>Node10&#45;&gt;Node9</title>
<path fill="none" stroke="#9a32cd" stroke-dasharray="5,2" d="M1259.97,-400.703C1244.28,-354.568 1197.26,-239.183 1110,-205 983.309,-155.369 632.57,-203.884 498,-224 475.516,-227.361 450.695,-233.903 431.925,-239.451"/>
<polygon fill="#9a32cd" stroke="#9a32cd" points="1256.7,-401.973 1263.14,-410.386 1263.35,-399.793 1256.7,-401.973"/>
<text text-anchor="middle" x="881" y="-190" font-family="Helvetica,sans-Serif" font-size="10.00"> myWorkspace</text>
</g>
<!-- Node32 -->
<g id="node32" class="node"><title>Node32</title>
<g id="a_node32"><a xlink:href="../../de/d0a/classview_1_1_drawer.html" target="_top" xlink:title="view.Drawer">
<polygon fill="white" stroke="black" points="1418.5,-47.5 1418.5,-66.5 1491.5,-66.5 1491.5,-47.5 1418.5,-47.5"/>
<text text-anchor="middle" x="1455" y="-54.5" font-family="Helvetica,sans-Serif" font-size="10.00">view.Drawer</text>
</a>
</g>
</g>
<!-- Node10&#45;&gt;Node32 -->
<g id="edge41" class="edge"><title>Node10&#45;&gt;Node32</title>
<path fill="none" stroke="#9a32cd" stroke-dasharray="5,2" d="M1277.72,-401.025C1311.67,-334.777 1424.2,-115.156 1449.1,-66.5707"/>
<polygon fill="#9a32cd" stroke="#9a32cd" points="1274.42,-399.795 1272.98,-410.291 1280.65,-402.987 1274.42,-399.795"/>
<text text-anchor="middle" x="1365" y="-296" font-family="Helvetica,sans-Serif" font-size="10.00"> myWorkspace</text>
</g>
<!-- Node11 -->
<g id="node11" class="node"><title>Node11</title>
<polygon fill="white" stroke="#bfbfbf" points="996.5,-454.5 996.5,-473.5 1063.5,-473.5 1063.5,-454.5 996.5,-454.5"/>
<text text-anchor="middle" x="1030" y="-461.5" font-family="Helvetica,sans-Serif" font-size="10.00">StackPane</text>
</g>
<!-- Node11&#45;&gt;Node10 -->
<g id="edge11" class="edge"><title>Node11&#45;&gt;Node10</title>
<path fill="none" stroke="midnightblue" d="M1073.56,-457.731C1108.68,-452.352 1159.74,-444.052 1204,-435 1211.92,-433.38 1220.37,-431.464 1228.39,-429.553"/>
<polygon fill="midnightblue" stroke="midnightblue" points="1073.01,-454.275 1063.65,-459.237 1074.06,-461.195 1073.01,-454.275"/>
</g>
<!-- Node12 -->
<g id="node12" class="node"><title>Node12</title>
<g id="a_node12"><a xlink:href="../../d8/df7/classview_1_1_turtle_view.html" target="_top" xlink:title="view.TurtleView">
<polygon fill="white" stroke="black" points="987,-567.5 987,-586.5 1073,-586.5 1073,-567.5 987,-567.5"/>
<text text-anchor="middle" x="1030" y="-574.5" font-family="Helvetica,sans-Serif" font-size="10.00">view.TurtleView</text>
</a>
</g>
</g>
<!-- Node12&#45;&gt;Node10 -->
<g id="edge12" class="edge"><title>Node12&#45;&gt;Node10</title>
<path fill="none" stroke="#9a32cd" stroke-dasharray="5,2" d="M1070.85,-564.152C1107.84,-550.946 1163.18,-527.821 1204,-496 1228.98,-476.526 1250.39,-445.23 1260.23,-429.572"/>
<polygon fill="#9a32cd" stroke="#9a32cd" points="1069.69,-560.852 1061.4,-567.454 1072,-567.461 1069.69,-560.852"/>
<text text-anchor="middle" x="1166" y="-542" font-family="Helvetica,sans-Serif" font-size="10.00"> myActiveTurtle</text>
</g>
<!-- Node13 -->
<g id="node13" class="node"><title>Node13</title>
<polygon fill="white" stroke="#bfbfbf" points="691,-589.5 691,-608.5 759,-608.5 759,-589.5 691,-589.5"/>
<text text-anchor="middle" x="725" y="-596.5" font-family="Helvetica,sans-Serif" font-size="10.00">ImageView</text>
</g>
<!-- Node13&#45;&gt;Node12 -->
<g id="edge13" class="edge"><title>Node13&#45;&gt;Node12</title>
<path fill="none" stroke="midnightblue" d="M769.293,-595.857C827.268,-591.647 929.46,-584.227 986.848,-580.061"/>
<polygon fill="midnightblue" stroke="midnightblue" points="768.723,-592.389 759.003,-596.604 769.23,-599.37 768.723,-592.389"/>
</g>
<!-- Node14 -->
<g id="node14" class="node"><title>Node14</title>
<polygon fill="white" stroke="#bfbfbf" points="962,-405 962,-435 1098,-435 1098,-405 962,-405"/>
<text text-anchor="start" x="970" y="-423" font-family="Helvetica,sans-Serif" font-size="10.00">Map&lt; Integer, view.Turtle</text>
<text text-anchor="middle" x="1030" y="-412" font-family="Helvetica,sans-Serif" font-size="10.00">View &gt;</text>
</g>
<!-- Node14&#45;&gt;Node10 -->
<g id="edge14" class="edge"><title>Node14&#45;&gt;Node10</title>
<path fill="none" stroke="#9a32cd" stroke-dasharray="5,2" d="M1108.47,-420C1146.14,-420 1190.04,-420 1221.91,-420"/>
<polygon fill="#9a32cd" stroke="#9a32cd" points="1108.03,-416.5 1098.03,-420 1108.03,-423.5 1108.03,-416.5"/>
<text text-anchor="middle" x="1166" y="-423" font-family="Helvetica,sans-Serif" font-size="10.00"> myTurtles</text>
</g>
<!-- Node15&#45;&gt;Node9 -->
<g id="edge43" class="edge"><title>Node15&#45;&gt;Node9</title>
<path fill="none" stroke="#9a32cd" stroke-dasharray="5,2" d="M1006.83,-360.719C987.716,-348.103 959.006,-330.469 932,-319 799.497,-262.728 762.628,-251.513 620,-232 566.278,-224.65 552.014,-227.254 498,-232 480.97,-233.496 462.435,-236.458 446.233,-239.496"/>
<polygon fill="#9a32cd" stroke="#9a32cd" points="1004.89,-363.632 1015.15,-366.291 1008.79,-357.817 1004.89,-363.632"/>
<text text-anchor="middle" x="725" y="-275" font-family="Helvetica,sans-Serif" font-size="10.00"> mySidebar</text>
</g>
<!-- Node15&#45;&gt;Node10 -->
<g id="edge15" class="edge"><title>Node15&#45;&gt;Node10</title>
<path fill="none" stroke="#9a32cd" stroke-dasharray="5,2" d="M1078.51,-383.03C1113.36,-388.413 1161.77,-396.364 1204,-405 1211.92,-406.62 1220.37,-408.536 1228.39,-410.447"/>
<polygon fill="#9a32cd" stroke="#9a32cd" points="1079.02,-379.567 1068.6,-381.512 1077.96,-386.486 1079.02,-379.567"/>
<text text-anchor="middle" x="1166" y="-408" font-family="Helvetica,sans-Serif" font-size="10.00"> mySidebar</text>
</g>
<!-- Node26 -->
<g id="node26" class="node"><title>Node26</title>
<g id="a_node26"><a xlink:href="../../da/dc8/classview_1_1_editor.html" target="_top" xlink:title="view.Editor">
<polygon fill="white" stroke="black" points="1233.5,-124.5 1233.5,-143.5 1300.5,-143.5 1300.5,-124.5 1233.5,-124.5"/>
<text text-anchor="middle" x="1267" y="-131.5" font-family="Helvetica,sans-Serif" font-size="10.00">view.Editor</text>
</a>
</g>
</g>
<!-- Node15&#45;&gt;Node26 -->
<g id="edge36" class="edge"><title>Node15&#45;&gt;Node26</title>
<path fill="none" stroke="#9a32cd" stroke-dasharray="5,2" d="M1078.63,-364.674C1117.13,-353.262 1170.3,-332.064 1204,-296 1246.97,-250.016 1261.1,-171.139 1264.84,-143.727"/>
<polygon fill="#9a32cd" stroke="#9a32cd" points="1077.34,-361.4 1068.68,-367.502 1079.26,-368.133 1077.34,-361.4"/>
<text text-anchor="middle" x="1166" y="-348" font-family="Helvetica,sans-Serif" font-size="10.00"> mySidebar</text>
</g>
<!-- Node16 -->
<g id="node16" class="node"><title>Node16</title>
<polygon fill="white" stroke="#bfbfbf" points="704.5,-504.5 704.5,-523.5 745.5,-523.5 745.5,-504.5 704.5,-504.5"/>
<text text-anchor="middle" x="725" y="-511.5" font-family="Helvetica,sans-Serif" font-size="10.00">VBox</text>
</g>
<!-- Node16&#45;&gt;Node15 -->
<g id="edge16" class="edge"><title>Node16&#45;&gt;Node15</title>
<path fill="none" stroke="midnightblue" d="M755.686,-521.065C800.138,-529.717 883.9,-538.262 932,-494 964.909,-463.718 919.278,-427.498 950,-395 960.563,-383.827 976.453,-378.723 991.218,-376.547"/>
<polygon fill="midnightblue" stroke="midnightblue" points="756.294,-517.617 745.791,-519.009 754.87,-524.47 756.294,-517.617"/>
</g>
<!-- Node17 -->
<g id="node17" class="node"><title>Node17</title>
<polygon fill="white" stroke="#bfbfbf" points="638.5,-466.5 638.5,-485.5 811.5,-485.5 811.5,-466.5 638.5,-466.5"/>
<text text-anchor="middle" x="725" y="-473.5" font-family="Helvetica,sans-Serif" font-size="10.00">ObservableList&lt; view.Property &gt;</text>
</g>
<!-- Node17&#45;&gt;Node15 -->
<g id="edge17" class="edge"><title>Node17&#45;&gt;Node15</title>
<path fill="none" stroke="#9a32cd" stroke-dasharray="5,2" d="M821.815,-478.882C867.155,-478.233 915.044,-473.968 932,-460 955.137,-440.94 928.445,-415.832 950,-395 960.955,-384.413 976.727,-379.377 991.302,-377.093"/>
<polygon fill="#9a32cd" stroke="#9a32cd" points="821.555,-475.384 811.586,-478.969 821.615,-482.383 821.555,-475.384"/>
<text text-anchor="middle" x="881" y="-482" font-family="Helvetica,sans-Serif" font-size="10.00"> variablesList</text>
</g>
<!-- Node18 -->
<g id="node18" class="node"><title>Node18</title>
<polygon fill="white" stroke="#bfbfbf" points="40.5,-379.5 40.5,-398.5 133.5,-398.5 133.5,-379.5 40.5,-379.5"/>
<text text-anchor="middle" x="87" y="-386.5" font-family="Helvetica,sans-Serif" font-size="10.00">ResourceBundle</text>
</g>
<!-- Node18&#45;&gt;Node9 -->
<g id="edge30" class="edge"><title>Node18&#45;&gt;Node9</title>
<path fill="none" stroke="#9a32cd" stroke-dasharray="5,2" d="M131.148,-376.596C175.613,-363.089 246.374,-339.55 304,-311 335.467,-295.41 369.313,-271.739 387.206,-258.615"/>
<polygon fill="#9a32cd" stroke="#9a32cd" points="130.097,-373.258 121.527,-379.487 132.112,-379.961 130.097,-373.258"/>
<text text-anchor="middle" x="248" y="-360" font-family="Helvetica,sans-Serif" font-size="10.00"> myResources</text>
</g>
<!-- Node18&#45;&gt;Node15 -->
<g id="edge18" class="edge"><title>Node18&#45;&gt;Node15</title>
<path fill="none" stroke="#9a32cd" stroke-dasharray="5,2" d="M143.774,-392.054C191.17,-394.488 261.023,-397.698 322,-399 392.206,-400.499 409.903,-403.2 480,-399 550.602,-394.77 567.421,-384.591 638,-380 767.557,-371.573 921.76,-373.505 991.477,-375.021"/>
<polygon fill="#9a32cd" stroke="#9a32cd" points="143.885,-388.555 133.716,-391.532 143.521,-395.546 143.885,-388.555"/>
<text text-anchor="middle" x="559" y="-401" font-family="Helvetica,sans-Serif" font-size="10.00"> myResources</text>
</g>
<!-- Node19 -->
<g id="node19" class="node"><title>Node19</title>
<polygon fill="white" stroke="#bfbfbf" points="651,-389.5 651,-408.5 799,-408.5 799,-389.5 651,-389.5"/>
<text text-anchor="middle" x="725" y="-396.5" font-family="Helvetica,sans-Serif" font-size="10.00">TableView&lt; view.Property &gt;</text>
</g>
<!-- Node19&#45;&gt;Node15 -->
<g id="edge20" class="edge"><title>Node19&#45;&gt;Node15</title>
<path fill="none" stroke="#9a32cd" stroke-dasharray="5,2" d="M809.487,-392.663C868.982,-388.147 946.136,-382.29 991.342,-378.858"/>
<polygon fill="#9a32cd" stroke="#9a32cd" points="809.054,-389.185 799.348,-393.432 809.584,-396.165 809.054,-389.185"/>
<text text-anchor="middle" x="881" y="-405" font-family="Helvetica,sans-Serif" font-size="10.00"> turtlePropertiesTable</text>
<text text-anchor="middle" x="881" y="-394" font-family="Helvetica,sans-Serif" font-size="10.00">variablesTable</text>
</g>
<!-- Node20&#45;&gt;Node9 -->
<g id="edge38" class="edge"><title>Node20&#45;&gt;Node9</title>
<path fill="none" stroke="#9a32cd" stroke-dasharray="5,2" d="M707.9,-306.292C688.905,-287.903 655.403,-259.434 620,-248 562.375,-229.389 491.625,-234.432 446.666,-240.832"/>
<polygon fill="#9a32cd" stroke="#9a32cd" points="705.56,-308.901 715.116,-313.477 710.499,-303.941 705.56,-308.901"/>
<text text-anchor="middle" x="559" y="-251" font-family="Helvetica,sans-Serif" font-size="10.00"> myParser</text>
</g>
<!-- Node20&#45;&gt;Node15 -->
<g id="edge21" class="edge"><title>Node20&#45;&gt;Node15</title>
<path fill="none" stroke="#9a32cd" stroke-dasharray="5,2" d="M775.298,-321.198C817.456,-320.761 879.463,-322.752 932,-335 961.023,-341.766 992.412,-356.538 1011.39,-366.378"/>
<polygon fill="#9a32cd" stroke="#9a32cd" points="775.236,-317.698 765.291,-321.351 775.344,-324.698 775.236,-317.698"/>
<text text-anchor="middle" x="881" y="-338" font-family="Helvetica,sans-Serif" font-size="10.00"> myParser</text>
</g>
<!-- Node20&#45;&gt;Node26 -->
<g id="edge34" class="edge"><title>Node20&#45;&gt;Node26</title>
<path fill="none" stroke="#9a32cd" stroke-dasharray="5,2" d="M772.228,-310.805C858.689,-287.367 1050.05,-232.506 1204,-167 1220.04,-160.173 1237.51,-150.676 1249.8,-143.622"/>
<polygon fill="#9a32cd" stroke="#9a32cd" points="771.203,-307.456 762.46,-313.44 773.026,-314.215 771.203,-307.456"/>
<text text-anchor="middle" x="1030" y="-261" font-family="Helvetica,sans-Serif" font-size="10.00"> myParser</text>
</g>
<!-- Node21 -->
<g id="node21" class="node"><title>Node21</title>
<polygon fill="white" stroke="#bfbfbf" points="345,-360 345,-390 457,-390 457,-360 345,-360"/>
<text text-anchor="start" x="353" y="-378" font-family="Helvetica,sans-Serif" font-size="10.00">List&lt; Entry&lt; String,</text>
<text text-anchor="middle" x="401" y="-367" font-family="Helvetica,sans-Serif" font-size="10.00"> Pattern &gt; &gt;</text>
</g>
<!-- Node21&#45;&gt;Node20 -->
<g id="edge23" class="edge"><title>Node21&#45;&gt;Node20</title>
<path fill="none" stroke="#9a32cd" stroke-dasharray="5,2" d="M467.48,-368.303C510.905,-363.441 569.058,-356.126 620,-347 642.252,-343.013 666.915,-337.376 686.637,-332.566"/>
<polygon fill="#9a32cd" stroke="#9a32cd" points="466.887,-364.847 457.332,-369.425 467.656,-371.805 466.887,-364.847"/>
<text text-anchor="middle" x="559" y="-368" font-family="Helvetica,sans-Serif" font-size="10.00"> myPatterns</text>
</g>
<!-- Node22 -->
<g id="node22" class="node"><title>Node22</title>
<polygon fill="white" stroke="#bfbfbf" points="340,-321.5 340,-340.5 462,-340.5 462,-321.5 340,-321.5"/>
<text text-anchor="middle" x="401" y="-328.5" font-family="Helvetica,sans-Serif" font-size="10.00">Map&lt; String, String &gt;</text>
</g>
<!-- Node22&#45;&gt;Node20 -->
<g id="edge25" class="edge"><title>Node22&#45;&gt;Node20</title>
<path fill="none" stroke="#9a32cd" stroke-dasharray="5,2" d="M472.181,-331.219C514.919,-331.137 570.622,-330.65 620,-329 641.329,-328.287 665.092,-326.957 684.513,-325.73"/>
<polygon fill="#9a32cd" stroke="#9a32cd" points="472.157,-327.719 462.162,-331.231 472.166,-334.719 472.157,-327.719"/>
<text text-anchor="middle" x="559" y="-335" font-family="Helvetica,sans-Serif" font-size="10.00"> myCommandMap</text>
</g>
<!-- Node23 -->
<g id="node23" class="node"><title>Node23</title>
<polygon fill="white" stroke="#bfbfbf" points="656,-428.5 656,-447.5 794,-447.5 794,-428.5 656,-428.5"/>
<text text-anchor="middle" x="725" y="-435.5" font-family="Helvetica,sans-Serif" font-size="10.00">ObservableList&lt; String &gt;</text>
</g>
<!-- Node23&#45;&gt;Node15 -->
<g id="edge27" class="edge"><title>Node23&#45;&gt;Node15</title>
<path fill="none" stroke="#9a32cd" stroke-dasharray="5,2" d="M804.264,-435.581C852.923,-432.946 910.232,-427.451 932,-416 942.879,-410.277 939.514,-401.416 950,-395 962.394,-387.417 977.603,-382.86 991.356,-380.122"/>
<polygon fill="#9a32cd" stroke="#9a32cd" points="803.837,-432.098 794.028,-436.101 804.192,-439.089 803.837,-432.098"/>
<text text-anchor="middle" x="881" y="-448" font-family="Helvetica,sans-Serif" font-size="10.00"> commandItems</text>
<text text-anchor="middle" x="881" y="-437" font-family="Helvetica,sans-Serif" font-size="10.00">historyItems</text>
</g>
<!-- Node24 -->
<g id="node24" class="node"><title>Node24</title>
<polygon fill="white" stroke="#bfbfbf" points="998.5,-492.5 998.5,-511.5 1061.5,-511.5 1061.5,-492.5 998.5,-492.5"/>
<text text-anchor="middle" x="1030" y="-499.5" font-family="Helvetica,sans-Serif" font-size="10.00">Rectangle</text>
</g>
<!-- Node24&#45;&gt;Node10 -->
<g id="edge28" class="edge"><title>Node24&#45;&gt;Node10</title>
<path fill="none" stroke="#9a32cd" stroke-dasharray="5,2" d="M1071.62,-494.628C1107.39,-487.341 1160.41,-474.576 1204,-456 1221.18,-448.68 1239.51,-437.578 1251.75,-429.64"/>
<polygon fill="#9a32cd" stroke="#9a32cd" points="1070.69,-491.245 1061.56,-496.626 1072.05,-498.111 1070.69,-491.245"/>
<text text-anchor="middle" x="1166" y="-484" font-family="Helvetica,sans-Serif" font-size="10.00"> myBackground</text>
</g>
<!-- Node25 -->
<g id="node25" class="node"><title>Node25</title>
<polygon fill="white" stroke="#bfbfbf" points="64.5,-258.5 64.5,-277.5 109.5,-277.5 109.5,-258.5 64.5,-258.5"/>
<text text-anchor="middle" x="87" y="-265.5" font-family="Helvetica,sans-Serif" font-size="10.00">Stage</text>
</g>
<!-- Node25&#45;&gt;Node9 -->
<g id="edge29" class="edge"><title>Node25&#45;&gt;Node9</title>
<path fill="none" stroke="#9a32cd" stroke-dasharray="5,2" d="M119.977,-266.053C175.9,-262.647 291.57,-255.603 355.356,-251.719"/>
<polygon fill="#9a32cd" stroke="#9a32cd" points="119.708,-262.562 109.939,-266.664 120.134,-269.55 119.708,-262.562"/>
<text text-anchor="middle" x="248" y="-265" font-family="Helvetica,sans-Serif" font-size="10.00"> myStage</text>
</g>
<!-- Node26&#45;&gt;Node9 -->
<g id="edge31" class="edge"><title>Node26&#45;&gt;Node9</title>
<path fill="none" stroke="#9a32cd" stroke-dasharray="5,2" d="M1222.78,-137.651C1216.48,-138.135 1210.07,-138.601 1204,-139 1177.4,-140.748 509.318,-172.864 498,-177 461.212,-190.442 426.683,-222.971 410.935,-239.304"/>
<polygon fill="#9a32cd" stroke="#9a32cd" points="1223.5,-141.105 1233.19,-136.829 1222.95,-134.127 1223.5,-141.105"/>
<text text-anchor="middle" x="881" y="-161" font-family="Helvetica,sans-Serif" font-size="10.00"> myEditor</text>
</g>
<!-- Node27 -->
<g id="node27" class="node"><title>Node27</title>
<polygon fill="white" stroke="#bfbfbf" points="1009,-67.5 1009,-86.5 1051,-86.5 1051,-67.5 1009,-67.5"/>
<text text-anchor="middle" x="1030" y="-74.5" font-family="Helvetica,sans-Serif" font-size="10.00">HBox</text>
</g>
<!-- Node27&#45;&gt;Node26 -->
<g id="edge32" class="edge"><title>Node27&#45;&gt;Node26</title>
<path fill="none" stroke="midnightblue" d="M1060.92,-83.901C1095.45,-91.908 1153.9,-105.6 1204,-118 1213.5,-120.35 1223.79,-122.975 1233.21,-125.409"/>
<polygon fill="midnightblue" stroke="midnightblue" points="1061.54,-80.4524 1051.01,-81.6064 1059.96,-87.2719 1061.54,-80.4524"/>
</g>
<!-- Node28 -->
<g id="node28" class="node"><title>Node28</title>
<polygon fill="white" stroke="#bfbfbf" points="1005.5,-29.5 1005.5,-48.5 1054.5,-48.5 1054.5,-29.5 1005.5,-29.5"/>
<text text-anchor="middle" x="1030" y="-36.5" font-family="Helvetica,sans-Serif" font-size="10.00">Button</text>
</g>
<!-- Node28&#45;&gt;Node26 -->
<g id="edge33" class="edge"><title>Node28&#45;&gt;Node26</title>
<path fill="none" stroke="#9a32cd" stroke-dasharray="5,2" d="M1064.52,-43.5528C1100.53,-49.4177 1158.7,-61.7482 1204,-85 1224.51,-95.526 1244.8,-113.339 1256.33,-124.342"/>
<polygon fill="#9a32cd" stroke="#9a32cd" points="1064.95,-40.0783 1054.53,-42.0007 1063.87,-46.9952 1064.95,-40.0783"/>
<text text-anchor="middle" x="1166" y="-88" font-family="Helvetica,sans-Serif" font-size="10.00"> runButton</text>
</g>
<!-- Node29 -->
<g id="node29" class="node"><title>Node29</title>
<polygon fill="white" stroke="#bfbfbf" points="1001,-105.5 1001,-124.5 1059,-124.5 1059,-105.5 1001,-105.5"/>
<text text-anchor="middle" x="1030" y="-112.5" font-family="Helvetica,sans-Serif" font-size="10.00">TextArea</text>
</g>
<!-- Node29&#45;&gt;Node26 -->
<g id="edge35" class="edge"><title>Node29&#45;&gt;Node26</title>
<path fill="none" stroke="#9a32cd" stroke-dasharray="5,2" d="M1069.45,-117.652C1104.53,-120.127 1157.77,-124.026 1204,-128 1213.48,-128.815 1223.77,-129.779 1233.19,-130.692"/>
<polygon fill="#9a32cd" stroke="#9a32cd" points="1069.4,-114.14 1059.18,-116.931 1068.91,-121.123 1069.4,-114.14"/>
<text text-anchor="middle" x="1166" y="-131" font-family="Helvetica,sans-Serif" font-size="10.00"> textEditor</text>
</g>
<!-- Node30 -->
<g id="node30" class="node"><title>Node30</title>
<polygon fill="white" stroke="#bfbfbf" points="27.5,-220.5 27.5,-239.5 146.5,-239.5 146.5,-220.5 27.5,-220.5"/>
<text text-anchor="middle" x="87" y="-227.5" font-family="Helvetica,sans-Serif" font-size="10.00">Map&lt; String, Node &gt;</text>
</g>
<!-- Node30&#45;&gt;Node9 -->
<g id="edge37" class="edge"><title>Node30&#45;&gt;Node9</title>
<path fill="none" stroke="#9a32cd" stroke-dasharray="5,2" d="M156.922,-232.943C199.356,-234.895 254.853,-237.702 304,-241 320.687,-242.12 338.986,-243.586 355.091,-244.956"/>
<polygon fill="#9a32cd" stroke="#9a32cd" points="156.852,-229.436 146.703,-232.477 156.533,-236.429 156.852,-229.436"/>
<text text-anchor="middle" x="248" y="-244" font-family="Helvetica,sans-Serif" font-size="10.00"> variables</text>
</g>
<!-- Node31 -->
<g id="node31" class="node"><title>Node31</title>
<polygon fill="white" stroke="#bfbfbf" points="46.5,-182.5 46.5,-201.5 127.5,-201.5 127.5,-182.5 46.5,-182.5"/>
<text text-anchor="middle" x="87" y="-189.5" font-family="Helvetica,sans-Serif" font-size="10.00">Dimension2D</text>
</g>
<!-- Node31&#45;&gt;Node9 -->
<g id="edge39" class="edge"><title>Node31&#45;&gt;Node9</title>
<path fill="none" stroke="#9a32cd" stroke-dasharray="5,2" d="M137.902,-196.121C181.937,-200.313 247.692,-207.931 304,-220 327.493,-225.035 353.554,-233.069 372.588,-239.405"/>
<polygon fill="#9a32cd" stroke="#9a32cd" points="138.027,-192.617 127.747,-195.178 137.38,-199.587 138.027,-192.617"/>
<text text-anchor="middle" x="248" y="-223" font-family="Helvetica,sans-Serif" font-size="10.00"> myDimensions</text>
</g>
<!-- Node32&#45;&gt;Node9 -->
<g id="edge40" class="edge"><title>Node32&#45;&gt;Node9</title>
<path fill="none" stroke="#9a32cd" stroke-dasharray="5,2" d="M1426.58,-42.973C1390.99,-26.0955 1326.5,-0 1268,-0 724,-0 724,-0 724,-0 564.645,-0 436.185,-193.202 407.837,-239.239"/>
<polygon fill="#9a32cd" stroke="#9a32cd" points="1425.3,-46.2414 1435.82,-47.4595 1428.36,-39.9441 1425.3,-46.2414"/>
<text text-anchor="middle" x="1030" y="-3" font-family="Helvetica,sans-Serif" font-size="10.00"> drawer</text>
</g>
<!-- Node33 -->
<g id="node33" class="node"><title>Node33</title>
<polygon fill="white" stroke="#bfbfbf" points="1246.5,-47.5 1246.5,-66.5 1287.5,-66.5 1287.5,-47.5 1246.5,-47.5"/>
<text text-anchor="middle" x="1267" y="-54.5" font-family="Helvetica,sans-Serif" font-size="10.00">Color</text>
</g>
<!-- Node33&#45;&gt;Node32 -->
<g id="edge42" class="edge"><title>Node33&#45;&gt;Node32</title>
<path fill="none" stroke="#9a32cd" stroke-dasharray="5,2" d="M1297.86,-57C1330.64,-57 1383.27,-57 1418.23,-57"/>
<polygon fill="#9a32cd" stroke="#9a32cd" points="1297.55,-53.5001 1287.55,-57 1297.55,-60.5001 1297.55,-53.5001"/>
<text text-anchor="middle" x="1365" y="-60" font-family="Helvetica,sans-Serif" font-size="10.00"> myColor</text>
</g>
<!-- Node34 -->
<g id="node34" class="node"><title>Node34</title>
<polygon fill="white" stroke="#bfbfbf" points="64,-296.5 64,-315.5 110,-315.5 110,-296.5 64,-296.5"/>
<text text-anchor="middle" x="87" y="-303.5" font-family="Helvetica,sans-Serif" font-size="10.00">Group</text>
</g>
<!-- Node34&#45;&gt;Node9 -->
<g id="edge44" class="edge"><title>Node34&#45;&gt;Node9</title>
<path fill="none" stroke="#9a32cd" stroke-dasharray="5,2" d="M120.291,-303.193C162.746,-299.156 239.505,-290.654 304,-277 326.929,-272.146 352.372,-264.625 371.301,-258.599"/>
<polygon fill="#9a32cd" stroke="#9a32cd" points="119.899,-299.715 110.265,-304.124 120.546,-306.685 119.899,-299.715"/>
<text text-anchor="middle" x="248" y="-299" font-family="Helvetica,sans-Serif" font-size="10.00"> lines</text>
</g>
<!-- Node35 -->
<g id="node35" class="node"><title>Node35</title>
<g id="a_node35"><a xlink:href="../../d1/d0b/classmodel_1_1_polar.html" target="_top" xlink:title="model.Polar">
<polygon fill="white" stroke="black" points="364,-691.5 364,-710.5 438,-710.5 438,-691.5 364,-691.5"/>
<text text-anchor="middle" x="401" y="-698.5" font-family="Helvetica,sans-Serif" font-size="10.00">model.Polar</text>
</a>
</g>
</g>
<!-- Node35&#45;&gt;Node1 -->
<g id="edge45" class="edge"><title>Node35&#45;&gt;Node1</title>
<path fill="none" stroke="#9a32cd" stroke-dasharray="5,2" d="M448.378,-699.024C495.962,-697.046 572.137,-694.014 638,-692 746.25,-688.69 871.391,-686.011 950.355,-684.462"/>
<polygon fill="#9a32cd" stroke="#9a32cd" points="448.226,-695.528 438.381,-699.442 448.518,-702.521 448.226,-695.528"/>
<text text-anchor="middle" x="725" y="-695" font-family="Helvetica,sans-Serif" font-size="10.00"> myPolar</text>
</g>
<!-- Node36 -->
<g id="node36" class="node"><title>Node36</title>
<g id="a_node36"><a xlink:href="../../d6/d06/classmodel_1_1_turtle_command.html" target="_top" xlink:title="model.TurtleCommand">
<polygon fill="white" stroke="black" points="662.5,-712.5 662.5,-731.5 787.5,-731.5 787.5,-712.5 662.5,-712.5"/>
<text text-anchor="middle" x="725" y="-719.5" font-family="Helvetica,sans-Serif" font-size="10.00">model.TurtleCommand</text>
</a>
</g>
</g>
<!-- Node35&#45;&gt;Node36 -->
<g id="edge47" class="edge"><title>Node35&#45;&gt;Node36</title>
<path fill="none" stroke="#9a32cd" stroke-dasharray="5,2" d="M448.039,-704.003C504.336,-707.674 599.833,-713.902 662.41,-717.983"/>
<polygon fill="#9a32cd" stroke="#9a32cd" points="448.207,-700.506 438,-703.348 447.751,-707.491 448.207,-700.506"/>
<text text-anchor="middle" x="559" y="-719" font-family="Helvetica,sans-Serif" font-size="10.00"> myPolar</text>
</g>
<!-- Node36&#45;&gt;Node1 -->
<g id="edge46" class="edge"><title>Node36&#45;&gt;Node1</title>
<path fill="none" stroke="#9a32cd" stroke-dasharray="5,2" d="M797.886,-713.679C837.48,-708.995 887.484,-702.913 932,-697 937.988,-696.205 944.18,-695.361 950.405,-694.497"/>
<polygon fill="#9a32cd" stroke="#9a32cd" points="797.314,-710.222 787.793,-714.87 798.134,-717.174 797.314,-710.222"/>
<text text-anchor="middle" x="881" y="-713" font-family="Helvetica,sans-Serif" font-size="10.00"> myTurtle</text>
</g>
</g>
</svg>
