<?xml version="1.0" encoding="UTF-8" standalone="no"?>
<!DOCTYPE svg PUBLIC "-//W3C//DTD SVG 1.1//EN"
 "http://www.w3.org/Graphics/SVG/1.1/DTD/svg11.dtd">
<!-- Generated by graphviz version 2.36.0 (20140111.2315)
 -->
<!-- Title: view.Editor Pages: 1 -->
<svg width="1886pt" height="650pt"
 viewBox="0.00 0.00 1886.00 650.47" xmlns="http://www.w3.org/2000/svg" xmlns:xlink="http://www.w3.org/1999/xlink">
<g id="graph0" class="graph" transform="scale(1 1) rotate(0) translate(4 646.473)">
<title>view.Editor</title>
<polygon fill="white" stroke="none" points="-4,4 -4,-646.473 1882,-646.473 1882,4 -4,4"/>
<!-- Node1 -->
<g id="node1" class="node"><title>Node1</title>
<polygon fill="#bfbfbf" stroke="black" points="367.5,-315.973 367.5,-334.973 434.5,-334.973 434.5,-315.973 367.5,-315.973"/>
<text text-anchor="middle" x="401" y="-322.973" font-family="Helvetica,sans-Serif" font-size="10.00">view.Editor</text>
</g>
<!-- Node30 -->
<g id="node30" class="node"><title>Node30</title>
<g id="a_node30"><a xlink:href="../../d6/de7/classview_1_1_s_logo_view.html" target="_top" xlink:title="view.SLogoView">
<polygon fill="white" stroke="black" points="611.5,-382.973 611.5,-401.973 702.5,-401.973 702.5,-382.973 611.5,-382.973"/>
<text text-anchor="middle" x="657" y="-389.973" font-family="Helvetica,sans-Serif" font-size="10.00">view.SLogoView</text>
</a>
</g>
</g>
<!-- Node1&#45;&gt;Node30 -->
<g id="edge39" class="edge"><title>Node1&#45;&gt;Node30</title>
<path fill="none" stroke="#9a32cd" stroke-dasharray="5,2" d="M444.366,-336.648C493.435,-349.591 573.443,-370.696 619.75,-382.911"/>
<polygon fill="#9a32cd" stroke="#9a32cd" points="445.248,-333.261 434.686,-334.095 443.463,-340.029 445.248,-333.261"/>
<text text-anchor="middle" x="538" y="-374.473" font-family="Helvetica,sans-Serif" font-size="10.00"> myEditor</text>
</g>
<!-- Node2 -->
<g id="node2" class="node"><title>Node2</title>
<polygon fill="white" stroke="#bfbfbf" points="66,-353.973 66,-372.973 108,-372.973 108,-353.973 66,-353.973"/>
<text text-anchor="middle" x="87" y="-360.973" font-family="Helvetica,sans-Serif" font-size="10.00">HBox</text>
</g>
<!-- Node2&#45;&gt;Node1 -->
<g id="edge1" class="edge"><title>Node2&#45;&gt;Node1</title>
<path fill="none" stroke="midnightblue" d="M118.372,-360.711C160.226,-356.798 237.958,-349.143 304,-340.473 325.074,-337.706 348.659,-334.029 367.178,-331.008"/>
<polygon fill="midnightblue" stroke="midnightblue" points="117.923,-357.238 108.289,-361.646 118.57,-364.208 117.923,-357.238"/>
</g>
<!-- Node3 -->
<g id="node3" class="node"><title>Node3</title>
<polygon fill="white" stroke="#bfbfbf" points="62.5,-315.973 62.5,-334.973 111.5,-334.973 111.5,-315.973 62.5,-315.973"/>
<text text-anchor="middle" x="87" y="-322.973" font-family="Helvetica,sans-Serif" font-size="10.00">Button</text>
</g>
<!-- Node3&#45;&gt;Node1 -->
<g id="edge2" class="edge"><title>Node3&#45;&gt;Node1</title>
<path fill="none" stroke="#9a32cd" stroke-dasharray="5,2" d="M121.843,-325.473C182.178,-325.473 307.572,-325.473 367.17,-325.473"/>
<polygon fill="#9a32cd" stroke="#9a32cd" points="121.707,-321.973 111.707,-325.473 121.707,-328.973 121.707,-321.973"/>
<text text-anchor="middle" x="248" y="-328.473" font-family="Helvetica,sans-Serif" font-size="10.00"> runButton</text>
</g>
<!-- Node4 -->
<g id="node4" class="node"><title>Node4</title>
<g id="a_node4"><a xlink:href="../../dc/df5/classmodel_1_1_parser.html" target="_top" xlink:title="model.Parser">
<polygon fill="white" stroke="black" points="891,-493.973 891,-512.973 971,-512.973 971,-493.973 891,-493.973"/>
<text text-anchor="middle" x="931" y="-500.973" font-family="Helvetica,sans-Serif" font-size="10.00">model.Parser</text>
</a>
</g>
</g>
<!-- Node4&#45;&gt;Node1 -->
<g id="edge3" class="edge"><title>Node4&#45;&gt;Node1</title>
<path fill="none" stroke="#9a32cd" stroke-dasharray="5,2" d="M898.247,-489.271C879.978,-479.61 857.952,-465.181 844,-446.473 827.61,-424.496 846.039,-406.182 826,-387.473 715.476,-284.286 513.184,-305.867 434.51,-319.142"/>
<polygon fill="#9a32cd" stroke="#9a32cd" points="896.89,-492.506 907.394,-493.885 900.042,-486.256 896.89,-492.506"/>
<text text-anchor="middle" x="657" y="-330.473" font-family="Helvetica,sans-Serif" font-size="10.00"> myParser</text>
</g>
<!-- Node21 -->
<g id="node21" class="node"><title>Node21</title>
<g id="a_node21"><a xlink:href="../../d1/dc7/classview_1_1_side_bar.html" target="_top" xlink:title="view.SideBar">
<polygon fill="white" stroke="black" points="1201.5,-340.973 1201.5,-359.973 1278.5,-359.973 1278.5,-340.973 1201.5,-340.973"/>
<text text-anchor="middle" x="1240" y="-347.973" font-family="Helvetica,sans-Serif" font-size="10.00">view.SideBar</text>
</a>
</g>
</g>
<!-- Node4&#45;&gt;Node21 -->
<g id="edge27" class="edge"><title>Node4&#45;&gt;Node21</title>
<path fill="none" stroke="#9a32cd" stroke-dasharray="5,2" d="M981.337,-500.826C1028.71,-496.323 1100.73,-484.18 1154,-451.473 1192.67,-427.729 1222.37,-380.295 1233.84,-360.02"/>
<polygon fill="#9a32cd" stroke="#9a32cd" points="980.983,-497.343 971.325,-501.699 981.591,-504.317 980.983,-497.343"/>
<text text-anchor="middle" x="1095" y="-496.473" font-family="Helvetica,sans-Serif" font-size="10.00"> myParser</text>
</g>
<!-- Node4&#45;&gt;Node30 -->
<g id="edge42" class="edge"><title>Node4&#45;&gt;Node30</title>
<path fill="none" stroke="#9a32cd" stroke-dasharray="5,2" d="M881.104,-499.005C867.527,-495.527 853.83,-489.574 844,-479.473 820.995,-455.834 851.07,-428.909 826,-407.473 808.084,-392.153 746.255,-390.17 702.834,-390.808"/>
<polygon fill="#9a32cd" stroke="#9a32cd" points="880.398,-502.433 890.912,-501.123 881.876,-495.591 880.398,-502.433"/>
<text text-anchor="middle" x="781" y="-410.473" font-family="Helvetica,sans-Serif" font-size="10.00"> myParser</text>
</g>
<!-- Node5 -->
<g id="node5" class="node"><title>Node5</title>
<polygon fill="white" stroke="#bfbfbf" points="627,-622.973 627,-641.973 687,-641.973 687,-622.973 627,-622.973"/>
<text text-anchor="middle" x="657" y="-629.973" font-family="Helvetica,sans-Serif" font-size="10.00">Observer</text>
</g>
<!-- Node5&#45;&gt;Node4 -->
<g id="edge4" class="edge"><title>Node5&#45;&gt;Node4</title>
<path fill="none" stroke="midnightblue" d="M676.623,-616.118C691.745,-603.541 714.084,-586.505 736,-575.473 773.418,-556.637 786.662,-561.874 826,-547.473 855.272,-536.757 888.302,-522.379 909.129,-513.021"/>
<polygon fill="midnightblue" stroke="midnightblue" points="673.964,-613.785 668.611,-622.928 678.497,-619.118 673.964,-613.785"/>
</g>
<!-- Node12 -->
<g id="node12" class="node"><title>Node12</title>
<g id="a_node12"><a xlink:href="../../d4/d64/classview_1_1_view_updater.html" target="_top" xlink:title="view.ViewUpdater">
<polygon fill="white" stroke="black" points="1778,-415.973 1778,-434.973 1878,-434.973 1878,-415.973 1778,-415.973"/>
<text text-anchor="middle" x="1828" y="-422.973" font-family="Helvetica,sans-Serif" font-size="10.00">view.ViewUpdater</text>
</a>
</g>
</g>
<!-- Node5&#45;&gt;Node12 -->
<g id="edge12" class="edge"><title>Node5&#45;&gt;Node12</title>
<path fill="none" stroke="midnightblue" d="M697.688,-632.473C750.658,-632.473 847.386,-632.473 930,-632.473 930,-632.473 930,-632.473 1654,-632.473 1708.13,-632.473 1723.43,-612.388 1760,-572.473 1799.03,-529.873 1818.63,-460.646 1824.8,-435.23"/>
<polygon fill="midnightblue" stroke="midnightblue" points="697.383,-628.973 687.383,-632.473 697.383,-635.973 697.383,-628.973"/>
</g>
<!-- Node6 -->
<g id="node6" class="node"><title>Node6</title>
<polygon fill="white" stroke="#bfbfbf" points="601,-478.473 601,-508.473 713,-508.473 713,-478.473 601,-478.473"/>
<text text-anchor="start" x="609" y="-496.473" font-family="Helvetica,sans-Serif" font-size="10.00">List&lt; Entry&lt; String,</text>
<text text-anchor="middle" x="657" y="-485.473" font-family="Helvetica,sans-Serif" font-size="10.00"> Pattern &gt; &gt;</text>
</g>
<!-- Node6&#45;&gt;Node4 -->
<g id="edge5" class="edge"><title>Node6&#45;&gt;Node4</title>
<path fill="none" stroke="#9a32cd" stroke-dasharray="5,2" d="M723.225,-495.871C775.493,-497.792 847.096,-500.425 890.866,-502.034"/>
<polygon fill="#9a32cd" stroke="#9a32cd" points="723.165,-492.366 713.043,-495.496 722.908,-499.361 723.165,-492.366"/>
<text text-anchor="middle" x="781" y="-502.473" font-family="Helvetica,sans-Serif" font-size="10.00"> myPatterns</text>
</g>
<!-- Node7 -->
<g id="node7" class="node"><title>Node7</title>
<g id="a_node7"><a xlink:href="../../d1/dca/classmodel_1_1_execution_environment.html" target="_top" xlink:title="model.ExecutionEnvironment">
<polygon fill="white" stroke="black" points="322.5,-535.973 322.5,-554.973 479.5,-554.973 479.5,-535.973 322.5,-535.973"/>
<text text-anchor="middle" x="401" y="-542.973" font-family="Helvetica,sans-Serif" font-size="10.00">model.ExecutionEnvironment</text>
</a>
</g>
</g>
<!-- Node7&#45;&gt;Node4 -->
<g id="edge6" class="edge"><title>Node7&#45;&gt;Node4</title>
<path fill="none" stroke="#9a32cd" stroke-dasharray="5,2" d="M490.039,-539.87C575.843,-534.213 709.969,-524.848 826,-514.473 847.339,-512.565 871.103,-510.078 890.521,-507.952"/>
<polygon fill="#9a32cd" stroke="#9a32cd" points="489.568,-536.394 479.819,-540.542 490.027,-543.379 489.568,-536.394"/>
<text text-anchor="middle" x="657" y="-535.473" font-family="Helvetica,sans-Serif" font-size="10.00"> myExecutionParameters</text>
</g>
<!-- Node7&#45;&gt;Node21 -->
<g id="edge25" class="edge"><title>Node7&#45;&gt;Node21</title>
<path fill="none" stroke="#9a32cd" stroke-dasharray="5,2" d="M489.59,-553.882C666.081,-568.847 1056,-591.287 1154,-508.473 1176.9,-489.125 1159.04,-470.501 1172,-443.473 1188.01,-410.1 1216.12,-376.128 1230.3,-360.045"/>
<polygon fill="#9a32cd" stroke="#9a32cd" points="489.819,-550.388 479.556,-553.019 489.22,-557.363 489.819,-550.388"/>
<text text-anchor="middle" x="781" y="-571.473" font-family="Helvetica,sans-Serif" font-size="10.00"> myEnvironment</text>
</g>
<!-- Node7&#45;&gt;Node30 -->
<g id="edge41" class="edge"><title>Node7&#45;&gt;Node30</title>
<path fill="none" stroke="#9a32cd" stroke-dasharray="5,2" d="M453.237,-533.076C491.596,-521.56 543.229,-501.027 578,-467.473 591.159,-454.774 583.812,-444.106 596,-430.473 606.848,-418.339 622.461,-408.615 635.041,-402.042"/>
<polygon fill="#9a32cd" stroke="#9a32cd" points="451.928,-529.811 443.294,-535.951 453.872,-536.536 451.928,-529.811"/>
<text text-anchor="middle" x="538" y="-520.473" font-family="Helvetica,sans-Serif" font-size="10.00"> myEnvironment</text>
</g>
<!-- Node8 -->
<g id="node8" class="node"><title>Node8</title>
<polygon fill="white" stroke="#bfbfbf" points="51.5,-554.973 51.5,-573.973 122.5,-573.973 122.5,-554.973 51.5,-554.973"/>
<text text-anchor="middle" x="87" y="-561.973" font-family="Helvetica,sans-Serif" font-size="10.00">Observable</text>
</g>
<!-- Node8&#45;&gt;Node7 -->
<g id="edge7" class="edge"><title>Node8&#45;&gt;Node7</title>
<path fill="none" stroke="midnightblue" d="M132.637,-561.754C182.066,-558.744 262.658,-553.836 322.457,-550.195"/>
<polygon fill="midnightblue" stroke="midnightblue" points="132.35,-558.265 122.582,-562.367 132.776,-565.252 132.35,-558.265"/>
</g>
<!-- Node9 -->
<g id="node9" class="node"><title>Node9</title>
<polygon fill="white" stroke="#bfbfbf" points="42.5,-516.973 42.5,-535.973 131.5,-535.973 131.5,-516.973 42.5,-516.973"/>
<text text-anchor="middle" x="87" y="-523.973" font-family="Helvetica,sans-Serif" font-size="10.00">Set&lt; Integer &gt;</text>
</g>
<!-- Node9&#45;&gt;Node7 -->
<g id="edge8" class="edge"><title>Node9&#45;&gt;Node7</title>
<path fill="none" stroke="#9a32cd" stroke-dasharray="5,2" d="M141.702,-523.571C185.492,-521.901 248.891,-521.071 304,-526.473 322.938,-528.329 343.68,-532.197 361.023,-535.962"/>
<polygon fill="#9a32cd" stroke="#9a32cd" points="141.411,-520.08 131.562,-523.986 141.697,-527.074 141.411,-520.08"/>
<text text-anchor="middle" x="248" y="-540.473" font-family="Helvetica,sans-Serif" font-size="10.00"> myTurtleList</text>
<text text-anchor="middle" x="248" y="-529.473" font-family="Helvetica,sans-Serif" font-size="10.00">activeTurtleList</text>
</g>
<!-- Node10 -->
<g id="node10" class="node"><title>Node10</title>
<polygon fill="white" stroke="#bfbfbf" points="0,-467.473 0,-497.473 174,-497.473 174,-467.473 0,-467.473"/>
<text text-anchor="start" x="8" y="-485.473" font-family="Helvetica,sans-Serif" font-size="10.00">Map&lt; String, model.instructions.</text>
<text text-anchor="middle" x="87" y="-474.473" font-family="Helvetica,sans-Serif" font-size="10.00">Instruction &gt;</text>
</g>
<!-- Node10&#45;&gt;Node7 -->
<g id="edge9" class="edge"><title>Node10&#45;&gt;Node7</title>
<path fill="none" stroke="#9a32cd" stroke-dasharray="5,2" d="M184.062,-488.169C221.844,-491.812 265.349,-497.765 304,-507.473 331.294,-514.328 361.217,-527.067 380.279,-535.895"/>
<polygon fill="#9a32cd" stroke="#9a32cd" points="184.357,-484.681 174.077,-487.246 183.713,-491.652 184.357,-484.681"/>
<text text-anchor="middle" x="248" y="-510.473" font-family="Helvetica,sans-Serif" font-size="10.00"> myUserInstructionMap</text>
</g>
<!-- Node11 -->
<g id="node11" class="node"><title>Node11</title>
<polygon fill="white" stroke="#bfbfbf" points="23,-592.973 23,-611.973 151,-611.973 151,-592.973 23,-592.973"/>
<text text-anchor="middle" x="87" y="-599.973" font-family="Helvetica,sans-Serif" font-size="10.00">Map&lt; String, Double &gt;</text>
</g>
<!-- Node11&#45;&gt;Node7 -->
<g id="edge10" class="edge"><title>Node11&#45;&gt;Node7</title>
<path fill="none" stroke="#9a32cd" stroke-dasharray="5,2" d="M161.259,-593.013C203.216,-587.163 256.757,-578.965 304,-569.473 324.38,-565.378 346.941,-559.792 365.069,-555.04"/>
<polygon fill="#9a32cd" stroke="#9a32cd" points="160.554,-589.577 151.127,-594.411 161.511,-596.511 160.554,-589.577"/>
<text text-anchor="middle" x="248" y="-592.473" font-family="Helvetica,sans-Serif" font-size="10.00"> myVariableMap</text>
</g>
<!-- Node12&#45;&gt;Node4 -->
<g id="edge11" class="edge"><title>Node12&#45;&gt;Node4</title>
<path fill="none" stroke="#9a32cd" stroke-dasharray="5,2" d="M1818.68,-444.258C1797.83,-488.098 1738.88,-593.473 1654,-593.473 1239,-593.473 1239,-593.473 1239,-593.473 1125.69,-593.473 998.022,-536.322 950.83,-513.104"/>
<polygon fill="#9a32cd" stroke="#9a32cd" points="1821.94,-445.533 1822.95,-434.986 1815.58,-442.603 1821.94,-445.533"/>
<text text-anchor="middle" x="1465" y="-596.473" font-family="Helvetica,sans-Serif" font-size="10.00"> myViewUpdater</text>
</g>
<!-- Node13 -->
<g id="node13" class="node"><title>Node13</title>
<g id="a_node13"><a xlink:href="../../da/d64/classview_1_1_workspace.html" target="_top" xlink:title="view.Workspace">
<polygon fill="white" stroke="black" points="1420,-161.973 1420,-180.973 1510,-180.973 1510,-161.973 1420,-161.973"/>
<text text-anchor="middle" x="1465" y="-168.973" font-family="Helvetica,sans-Serif" font-size="10.00">view.Workspace</text>
</a>
</g>
</g>
<!-- Node13&#45;&gt;Node12 -->
<g id="edge13" class="edge"><title>Node13&#45;&gt;Node12</title>
<path fill="none" stroke="#9a32cd" stroke-dasharray="5,2" d="M1499.04,-185.005C1556.45,-209.594 1676.45,-265.846 1760,-338.473 1787.34,-362.236 1811,-398.649 1821.39,-415.845"/>
<polygon fill="#9a32cd" stroke="#9a32cd" points="1500.3,-181.737 1489.73,-181.059 1497.57,-188.183 1500.3,-181.737"/>
<text text-anchor="middle" x="1653" y="-286.473" font-family="Helvetica,sans-Serif" font-size="10.00"> myWorkspace</text>
</g>
<!-- Node27 -->
<g id="node27" class="node"><title>Node27</title>
<g id="a_node27"><a xlink:href="../../de/d0a/classview_1_1_drawer.html" target="_top" xlink:title="view.Drawer">
<polygon fill="white" stroke="black" points="1616.5,-415.973 1616.5,-434.973 1689.5,-434.973 1689.5,-415.973 1616.5,-415.973"/>
<text text-anchor="middle" x="1653" y="-422.973" font-family="Helvetica,sans-Serif" font-size="10.00">view.Drawer</text>
</a>
</g>
</g>
<!-- Node13&#45;&gt;Node27 -->
<g id="edge31" class="edge"><title>Node13&#45;&gt;Node27</title>
<path fill="none" stroke="#9a32cd" stroke-dasharray="5,2" d="M1467.16,-191.812C1470.41,-230.552 1482.58,-315.671 1528,-367.473 1541.51,-382.886 1593.12,-403.862 1625.34,-415.906"/>
<polygon fill="#9a32cd" stroke="#9a32cd" points="1470.62,-191.092 1466.42,-181.366 1463.64,-191.59 1470.62,-191.092"/>
<text text-anchor="middle" x="1563" y="-408.473" font-family="Helvetica,sans-Serif" font-size="10.00"> myWorkspace</text>
</g>
<!-- Node13&#45;&gt;Node30 -->
<g id="edge36" class="edge"><title>Node13&#45;&gt;Node30</title>
<path fill="none" stroke="#9a32cd" stroke-dasharray="5,2" d="M1409.87,-163.641C1298.94,-149.937 1039.76,-130.081 844,-209.473 787.901,-232.225 771.692,-243.576 736,-292.473 722.075,-311.549 731.546,-323.125 718,-342.473 706.102,-359.467 686.994,-374.008 673.544,-382.957"/>
<polygon fill="#9a32cd" stroke="#9a32cd" points="1409.46,-167.117 1419.82,-164.903 1410.34,-160.172 1409.46,-167.117"/>
<text text-anchor="middle" x="1095" y="-164.473" font-family="Helvetica,sans-Serif" font-size="10.00"> myWorkspace</text>
</g>
<!-- Node14 -->
<g id="node14" class="node"><title>Node14</title>
<polygon fill="white" stroke="#bfbfbf" points="1206.5,-66.9726 1206.5,-85.9726 1273.5,-85.9726 1273.5,-66.9726 1206.5,-66.9726"/>
<text text-anchor="middle" x="1240" y="-73.9726" font-family="Helvetica,sans-Serif" font-size="10.00">StackPane</text>
</g>
<!-- Node14&#45;&gt;Node13 -->
<g id="edge14" class="edge"><title>Node14&#45;&gt;Node13</title>
<path fill="none" stroke="midnightblue" d="M1283.75,-78.5261C1317.58,-81.6835 1365.11,-89.6187 1402,-109.473 1426.13,-122.459 1446.98,-147.835 1457.23,-161.758"/>
<polygon fill="midnightblue" stroke="midnightblue" points="1283.97,-75.0326 1273.72,-77.6918 1283.39,-82.0085 1283.97,-75.0326"/>
</g>
<!-- Node15 -->
<g id="node15" class="node"><title>Node15</title>
<polygon fill="white" stroke="#bfbfbf" points="354.5,-180.973 354.5,-199.973 447.5,-199.973 447.5,-180.973 354.5,-180.973"/>
<text text-anchor="middle" x="401" y="-187.973" font-family="Helvetica,sans-Serif" font-size="10.00">ResourceBundle</text>
</g>
<!-- Node15&#45;&gt;Node13 -->
<g id="edge15" class="edge"><title>Node15&#45;&gt;Node13</title>
<path fill="none" stroke="#9a32cd" stroke-dasharray="5,2" d="M413.738,-172.384C446.117,-124.924 541.903,-0.472612 656,-0.472612 656,-0.472612 656,-0.472612 1241,-0.472612 1314.63,-0.472612 1344.97,7.08918 1402,-39.4726 1442.21,-72.2972 1457.78,-137.196 1462.39,-161.752"/>
<polygon fill="#9a32cd" stroke="#9a32cd" points="410.767,-170.53 408.12,-180.789 416.587,-174.42 410.767,-170.53"/>
<text text-anchor="middle" x="931" y="-3.47261" font-family="Helvetica,sans-Serif" font-size="10.00"> myResources</text>
</g>
<!-- Node15&#45;&gt;Node21 -->
<g id="edge24" class="edge"><title>Node15&#45;&gt;Node21</title>
<path fill="none" stroke="#9a32cd" stroke-dasharray="5,2" d="M457.759,-185.254C612.241,-171.932 1041.76,-142.928 1154,-220.473 1169.38,-231.095 1162.46,-242.405 1172,-258.473 1190.87,-290.242 1217.92,-324.688 1231.13,-340.949"/>
<polygon fill="#9a32cd" stroke="#9a32cd" points="457.211,-181.788 447.553,-186.146 457.82,-188.762 457.211,-181.788"/>
<text text-anchor="middle" x="781" y="-172.473" font-family="Helvetica,sans-Serif" font-size="10.00"> myResources</text>
</g>
<!-- Node15&#45;&gt;Node30 -->
<g id="edge38" class="edge"><title>Node15&#45;&gt;Node30</title>
<path fill="none" stroke="#9a32cd" stroke-dasharray="5,2" d="M422.178,-206.52C472.685,-246.686 603.398,-350.64 643.872,-382.827"/>
<polygon fill="#9a32cd" stroke="#9a32cd" points="424.256,-203.701 414.251,-200.215 419.899,-209.179 424.256,-203.701"/>
<text text-anchor="middle" x="538" y="-330.473" font-family="Helvetica,sans-Serif" font-size="10.00"> myResources</text>
</g>
<!-- Node16 -->
<g id="node16" class="node"><title>Node16</title>
<g id="a_node16"><a xlink:href="../../d8/df7/classview_1_1_turtle_view.html" target="_top" xlink:title="view.TurtleView">
<polygon fill="white" stroke="black" points="1197,-104.973 1197,-123.973 1283,-123.973 1283,-104.973 1197,-104.973"/>
<text text-anchor="middle" x="1240" y="-111.973" font-family="Helvetica,sans-Serif" font-size="10.00">view.TurtleView</text>
</a>
</g>
</g>
<!-- Node16&#45;&gt;Node13 -->
<g id="edge16" class="edge"><title>Node16&#45;&gt;Node13</title>
<path fill="none" stroke="#9a32cd" stroke-dasharray="5,2" d="M1293.43,-111.762C1325.66,-111.77 1367.28,-114.844 1402,-127.473 1422.59,-134.963 1442.55,-151.24 1454.03,-161.759"/>
<polygon fill="#9a32cd" stroke="#9a32cd" points="1293.29,-108.263 1283.32,-111.858 1293.35,-115.262 1293.29,-108.263"/>
<text text-anchor="middle" x="1364" y="-130.473" font-family="Helvetica,sans-Serif" font-size="10.00"> myActiveTurtle</text>
</g>
<!-- Node17 -->
<g id="node17" class="node"><title>Node17</title>
<polygon fill="white" stroke="#bfbfbf" points="897,-66.9726 897,-85.9726 965,-85.9726 965,-66.9726 897,-66.9726"/>
<text text-anchor="middle" x="931" y="-73.9726" font-family="Helvetica,sans-Serif" font-size="10.00">ImageView</text>
</g>
<!-- Node17&#45;&gt;Node16 -->
<g id="edge17" class="edge"><title>Node17&#45;&gt;Node16</title>
<path fill="none" stroke="midnightblue" d="M975.232,-81.8238C1034.08,-89.1085 1138.74,-102.063 1196.97,-109.27"/>
<polygon fill="midnightblue" stroke="midnightblue" points="975.5,-78.3304 965.146,-80.5754 974.64,-85.2774 975.5,-78.3304"/>
</g>
<!-- Node18 -->
<g id="node18" class="node"><title>Node18</title>
<polygon fill="white" stroke="#bfbfbf" points="877.5,-104.973 877.5,-123.973 984.5,-123.973 984.5,-104.973 877.5,-104.973"/>
<text text-anchor="middle" x="931" y="-111.973" font-family="Helvetica,sans-Serif" font-size="10.00">List&lt; ImageView &gt;</text>
</g>
<!-- Node18&#45;&gt;Node16 -->
<g id="edge18" class="edge"><title>Node18&#45;&gt;Node16</title>
<path fill="none" stroke="#9a32cd" stroke-dasharray="5,2" d="M994.936,-114.473C1055.24,-114.473 1144.57,-114.473 1196.77,-114.473"/>
<polygon fill="#9a32cd" stroke="#9a32cd" points="994.775,-110.973 984.775,-114.473 994.775,-117.973 994.775,-110.973"/>
<text text-anchor="middle" x="1095" y="-117.473" font-family="Helvetica,sans-Serif" font-size="10.00"> myStamps</text>
</g>
<!-- Node19 -->
<g id="node19" class="node"><title>Node19</title>
<polygon fill="white" stroke="#bfbfbf" points="1172,-219.473 1172,-249.473 1308,-249.473 1308,-219.473 1172,-219.473"/>
<text text-anchor="start" x="1180" y="-237.473" font-family="Helvetica,sans-Serif" font-size="10.00">Map&lt; Integer, view.Turtle</text>
<text text-anchor="middle" x="1240" y="-226.473" font-family="Helvetica,sans-Serif" font-size="10.00">View &gt;</text>
</g>
<!-- Node19&#45;&gt;Node13 -->
<g id="edge19" class="edge"><title>Node19&#45;&gt;Node13</title>
<path fill="none" stroke="#9a32cd" stroke-dasharray="5,2" d="M1318.44,-220.283C1345.21,-214.558 1375.2,-207.216 1402,-198.473 1416.62,-193.703 1432.51,-186.744 1444.55,-181.086"/>
<polygon fill="#9a32cd" stroke="#9a32cd" points="1317.42,-216.92 1308.35,-222.398 1318.86,-223.771 1317.42,-216.92"/>
<text text-anchor="middle" x="1364" y="-221.473" font-family="Helvetica,sans-Serif" font-size="10.00"> myTurtles</text>
</g>
<!-- Node20 -->
<g id="node20" class="node"><title>Node20</title>
<polygon fill="white" stroke="#bfbfbf" points="1217,-180.973 1217,-199.973 1263,-199.973 1263,-180.973 1217,-180.973"/>
<text text-anchor="middle" x="1240" y="-187.973" font-family="Helvetica,sans-Serif" font-size="10.00">Group</text>
</g>
<!-- Node20&#45;&gt;Node13 -->
<g id="edge20" class="edge"><title>Node20&#45;&gt;Node13</title>
<path fill="none" stroke="#9a32cd" stroke-dasharray="5,2" d="M1273.34,-187.717C1311.89,-184.432 1376.52,-178.926 1419.7,-175.247"/>
<polygon fill="#9a32cd" stroke="#9a32cd" points="1272.86,-184.245 1263.2,-188.581 1273.46,-191.22 1272.86,-184.245"/>
<text text-anchor="middle" x="1364" y="-186.473" font-family="Helvetica,sans-Serif" font-size="10.00"> myLines</text>
</g>
<!-- Node21&#45;&gt;Node1 -->
<g id="edge47" class="edge"><title>Node21&#45;&gt;Node1</title>
<path fill="none" stroke="#9a32cd" stroke-dasharray="5,2" d="M1190.95,-341.865C1072.77,-321.916 758.603,-276.302 498,-304.473 476.628,-306.783 453.038,-311.906 434.591,-316.514"/>
<polygon fill="#9a32cd" stroke="#9a32cd" points="1190.66,-345.366 1201.11,-343.598 1191.84,-338.466 1190.66,-345.366"/>
<text text-anchor="middle" x="781" y="-303.473" font-family="Helvetica,sans-Serif" font-size="10.00"> mySidebar</text>
</g>
<!-- Node21&#45;&gt;Node12 -->
<g id="edge33" class="edge"><title>Node21&#45;&gt;Node12</title>
<path fill="none" stroke="#9a32cd" stroke-dasharray="5,2" d="M1288.66,-346.201C1357.46,-341.057 1488.39,-335.109 1598,-352.473 1676.31,-364.877 1764.52,-399.08 1804.8,-415.892"/>
<polygon fill="#9a32cd" stroke="#9a32cd" points="1288.26,-342.721 1278.56,-346.983 1288.8,-349.7 1288.26,-342.721"/>
<text text-anchor="middle" x="1563" y="-355.473" font-family="Helvetica,sans-Serif" font-size="10.00"> mySidebar</text>
</g>
<!-- Node21&#45;&gt;Node13 -->
<g id="edge21" class="edge"><title>Node21&#45;&gt;Node13</title>
<path fill="none" stroke="#9a32cd" stroke-dasharray="5,2" d="M1264.48,-335.116C1296.62,-313.721 1355.61,-273.098 1402,-233.473 1422.14,-216.27 1443.54,-193.809 1455.19,-181.186"/>
<polygon fill="#9a32cd" stroke="#9a32cd" points="1262.2,-332.432 1255.79,-340.87 1266.06,-338.27 1262.2,-332.432"/>
<text text-anchor="middle" x="1364" y="-293.473" font-family="Helvetica,sans-Serif" font-size="10.00"> mySidebar</text>
</g>
<!-- Node21&#45;&gt;Node30 -->
<g id="edge45" class="edge"><title>Node21&#45;&gt;Node30</title>
<path fill="none" stroke="#9a32cd" stroke-dasharray="5,2" d="M1191.12,-346.543C1101,-340.301 900.454,-331.914 736,-364.473 716.241,-368.385 694.765,-376.392 679.361,-382.845"/>
<polygon fill="#9a32cd" stroke="#9a32cd" points="1191.07,-350.048 1201.29,-347.271 1191.57,-343.066 1191.07,-350.048"/>
<text text-anchor="middle" x="931" y="-351.473" font-family="Helvetica,sans-Serif" font-size="10.00"> mySidebar</text>
</g>
<!-- Node22 -->
<g id="node22" class="node"><title>Node22</title>
<polygon fill="white" stroke="#bfbfbf" points="910.5,-256.973 910.5,-275.973 951.5,-275.973 951.5,-256.973 910.5,-256.973"/>
<text text-anchor="middle" x="931" y="-263.973" font-family="Helvetica,sans-Serif" font-size="10.00">VBox</text>
</g>
<!-- Node22&#45;&gt;Node21 -->
<g id="edge22" class="edge"><title>Node22&#45;&gt;Node21</title>
<path fill="none" stroke="midnightblue" d="M961.992,-265.038C1005.7,-263.971 1088.81,-265.846 1154,-290.473 1184.42,-301.962 1214.08,-326.958 1229.02,-340.786"/>
<polygon fill="midnightblue" stroke="midnightblue" points="961.646,-261.548 951.762,-265.361 961.867,-268.544 961.646,-261.548"/>
</g>
<!-- Node23 -->
<g id="node23" class="node"><title>Node23</title>
<polygon fill="white" stroke="#bfbfbf" points="844.5,-218.973 844.5,-237.973 1017.5,-237.973 1017.5,-218.973 844.5,-218.973"/>
<text text-anchor="middle" x="931" y="-225.973" font-family="Helvetica,sans-Serif" font-size="10.00">ObservableList&lt; view.Property &gt;</text>
</g>
<!-- Node23&#45;&gt;Node21 -->
<g id="edge23" class="edge"><title>Node23&#45;&gt;Node21</title>
<path fill="none" stroke="#9a32cd" stroke-dasharray="5,2" d="M1027.94,-223.637C1068.8,-225.324 1115.76,-232.469 1154,-252.473 1193.51,-273.144 1222.75,-320.464 1233.97,-340.844"/>
<polygon fill="#9a32cd" stroke="#9a32cd" points="1027.79,-220.131 1017.69,-223.321 1027.58,-227.127 1027.79,-220.131"/>
<text text-anchor="middle" x="1095" y="-255.473" font-family="Helvetica,sans-Serif" font-size="10.00"> myVariablesList</text>
</g>
<!-- Node24 -->
<g id="node24" class="node"><title>Node24</title>
<polygon fill="white" stroke="#bfbfbf" points="857,-417.973 857,-436.973 1005,-436.973 1005,-417.973 857,-417.973"/>
<text text-anchor="middle" x="931" y="-424.973" font-family="Helvetica,sans-Serif" font-size="10.00">TableView&lt; view.Property &gt;</text>
</g>
<!-- Node24&#45;&gt;Node21 -->
<g id="edge26" class="edge"><title>Node24&#45;&gt;Node21</title>
<path fill="none" stroke="#9a32cd" stroke-dasharray="5,2" d="M1015.26,-426.645C1057.75,-424.104 1109.68,-417.683 1154,-402.473 1182.47,-392.702 1211.51,-372.191 1227.19,-360.053"/>
<polygon fill="#9a32cd" stroke="#9a32cd" points="1015.03,-423.152 1005.23,-427.184 1015.41,-430.142 1015.03,-423.152"/>
<text text-anchor="middle" x="1095" y="-439.473" font-family="Helvetica,sans-Serif" font-size="10.00"> myTurtlePropertiesTable</text>
<text text-anchor="middle" x="1095" y="-428.473" font-family="Helvetica,sans-Serif" font-size="10.00">myVariablesTable</text>
</g>
<!-- Node25 -->
<g id="node25" class="node"><title>Node25</title>
<polygon fill="white" stroke="#bfbfbf" points="862,-379.973 862,-398.973 1000,-398.973 1000,-379.973 862,-379.973"/>
<text text-anchor="middle" x="931" y="-386.973" font-family="Helvetica,sans-Serif" font-size="10.00">ObservableList&lt; String &gt;</text>
</g>
<!-- Node25&#45;&gt;Node21 -->
<g id="edge28" class="edge"><title>Node25&#45;&gt;Node21</title>
<path fill="none" stroke="#9a32cd" stroke-dasharray="5,2" d="M1010.03,-379.693C1052.59,-374.344 1106.2,-367.58 1154,-361.473 1169.5,-359.492 1186.58,-357.286 1201.34,-355.372"/>
<polygon fill="#9a32cd" stroke="#9a32cd" points="1009.51,-376.232 1000.02,-380.951 1010.38,-383.177 1009.51,-376.232"/>
<text text-anchor="middle" x="1095" y="-390.473" font-family="Helvetica,sans-Serif" font-size="10.00"> myCommandItems</text>
<text text-anchor="middle" x="1095" y="-379.473" font-family="Helvetica,sans-Serif" font-size="10.00">myHistoryItems</text>
</g>
<!-- Node26 -->
<g id="node26" class="node"><title>Node26</title>
<polygon fill="white" stroke="#bfbfbf" points="1208.5,-28.9726 1208.5,-47.9726 1271.5,-47.9726 1271.5,-28.9726 1208.5,-28.9726"/>
<text text-anchor="middle" x="1240" y="-35.9726" font-family="Helvetica,sans-Serif" font-size="10.00">Rectangle</text>
</g>
<!-- Node26&#45;&gt;Node13 -->
<g id="edge29" class="edge"><title>Node26&#45;&gt;Node13</title>
<path fill="none" stroke="#9a32cd" stroke-dasharray="5,2" d="M1281.98,-37.7875C1316.79,-39.1381 1366.6,-45.8276 1402,-70.4726 1435.43,-93.751 1454.24,-141.439 1461.04,-161.853"/>
<polygon fill="#9a32cd" stroke="#9a32cd" points="1281.77,-34.2813 1271.69,-37.5258 1281.59,-41.279 1281.77,-34.2813"/>
<text text-anchor="middle" x="1364" y="-73.4726" font-family="Helvetica,sans-Serif" font-size="10.00"> myBackground</text>
</g>
<!-- Node27&#45;&gt;Node12 -->
<g id="edge30" class="edge"><title>Node27&#45;&gt;Node12</title>
<path fill="none" stroke="#9a32cd" stroke-dasharray="5,2" d="M1700.1,-425.473C1724.06,-425.473 1753.35,-425.473 1777.75,-425.473"/>
<polygon fill="#9a32cd" stroke="#9a32cd" points="1699.85,-421.973 1689.85,-425.473 1699.85,-428.973 1699.85,-421.973"/>
<text text-anchor="middle" x="1734" y="-428.473" font-family="Helvetica,sans-Serif" font-size="10.00"> myDrawer</text>
</g>
<!-- Node27&#45;&gt;Node30 -->
<g id="edge44" class="edge"><title>Node27&#45;&gt;Node30</title>
<path fill="none" stroke="#9a32cd" stroke-dasharray="5,2" d="M1615.1,-438.238C1577.92,-449.944 1518.68,-465.473 1466,-465.473 1094,-465.473 1094,-465.473 1094,-465.473 982.568,-465.473 931.316,-515.704 844,-446.473 823.183,-429.967 847.428,-405.177 826,-389.473 784.589,-359.123 720.712,-371.922 684.833,-382.885"/>
<polygon fill="#9a32cd" stroke="#9a32cd" points="1616.53,-441.454 1624.97,-435.054 1614.38,-434.791 1616.53,-441.454"/>
<text text-anchor="middle" x="1240" y="-468.473" font-family="Helvetica,sans-Serif" font-size="10.00"> drawer</text>
</g>
<!-- Node28 -->
<g id="node28" class="node"><title>Node28</title>
<polygon fill="white" stroke="#bfbfbf" points="1444.5,-415.973 1444.5,-434.973 1485.5,-434.973 1485.5,-415.973 1444.5,-415.973"/>
<text text-anchor="middle" x="1465" y="-422.973" font-family="Helvetica,sans-Serif" font-size="10.00">Color</text>
</g>
<!-- Node28&#45;&gt;Node27 -->
<g id="edge32" class="edge"><title>Node28&#45;&gt;Node27</title>
<path fill="none" stroke="#9a32cd" stroke-dasharray="5,2" d="M1495.86,-425.473C1528.64,-425.473 1581.27,-425.473 1616.23,-425.473"/>
<polygon fill="#9a32cd" stroke="#9a32cd" points="1495.55,-421.973 1485.55,-425.473 1495.55,-428.973 1495.55,-421.973"/>
<text text-anchor="middle" x="1563" y="-428.473" font-family="Helvetica,sans-Serif" font-size="10.00"> myColor</text>
</g>
<!-- Node29 -->
<g id="node29" class="node"><title>Node29</title>
<polygon fill="white" stroke="#bfbfbf" points="596,-439.973 596,-458.973 718,-458.973 718,-439.973 596,-439.973"/>
<text text-anchor="middle" x="657" y="-446.973" font-family="Helvetica,sans-Serif" font-size="10.00">Map&lt; String, String &gt;</text>
</g>
<!-- Node29&#45;&gt;Node4 -->
<g id="edge34" class="edge"><title>Node29&#45;&gt;Node4</title>
<path fill="none" stroke="#9a32cd" stroke-dasharray="5,2" d="M719.567,-460.891C751.376,-466.868 790.803,-474.399 826,-481.473 847.35,-485.764 871.114,-490.773 890.531,-494.927"/>
<polygon fill="#9a32cd" stroke="#9a32cd" points="719.996,-457.41 709.522,-459.007 718.705,-464.29 719.996,-457.41"/>
<text text-anchor="middle" x="781" y="-484.473" font-family="Helvetica,sans-Serif" font-size="10.00"> myCommandMap</text>
</g>
<!-- Node30&#45;&gt;Node4 -->
<g id="edge35" class="edge"><title>Node30&#45;&gt;Node4</title>
<path fill="none" stroke="#9a32cd" stroke-dasharray="5,2" d="M693.975,-405.581C707.169,-410.337 722.24,-415.71 736,-420.473 775.845,-434.263 792.913,-424.338 826,-450.473 837.904,-459.875 831.866,-470.368 844,-479.473 857.515,-489.613 875.112,-495.47 890.865,-498.851"/>
<polygon fill="#9a32cd" stroke="#9a32cd" points="694.898,-402.193 684.303,-402.084 692.517,-408.776 694.898,-402.193"/>
<text text-anchor="middle" x="781" y="-453.473" font-family="Helvetica,sans-Serif" font-size="10.00"> mySLogoView</text>
</g>
<!-- Node31 -->
<g id="node31" class="node"><title>Node31</title>
<polygon fill="white" stroke="#bfbfbf" points="378.5,-456.973 378.5,-475.973 423.5,-475.973 423.5,-456.973 378.5,-456.973"/>
<text text-anchor="middle" x="401" y="-463.973" font-family="Helvetica,sans-Serif" font-size="10.00">Stage</text>
</g>
<!-- Node31&#45;&gt;Node30 -->
<g id="edge37" class="edge"><title>Node31&#45;&gt;Node30</title>
<path fill="none" stroke="#9a32cd" stroke-dasharray="5,2" d="M433.958,-463.057C469.773,-458.602 529.213,-449.311 578,-432.473 600.729,-424.628 625.114,-411.23 640.453,-402.121"/>
<polygon fill="#9a32cd" stroke="#9a32cd" points="433.155,-459.628 423.639,-464.288 433.984,-466.579 433.155,-459.628"/>
<text text-anchor="middle" x="538" y="-455.473" font-family="Helvetica,sans-Serif" font-size="10.00"> myStage</text>
</g>
<!-- Node32 -->
<g id="node32" class="node"><title>Node32</title>
<polygon fill="white" stroke="#bfbfbf" points="341.5,-418.973 341.5,-437.973 460.5,-437.973 460.5,-418.973 341.5,-418.973"/>
<text text-anchor="middle" x="401" y="-425.973" font-family="Helvetica,sans-Serif" font-size="10.00">Map&lt; String, Node &gt;</text>
</g>
<!-- Node32&#45;&gt;Node30 -->
<g id="edge40" class="edge"><title>Node32&#45;&gt;Node30</title>
<path fill="none" stroke="#9a32cd" stroke-dasharray="5,2" d="M471.076,-420.7C503.579,-416.823 542.838,-411.822 578,-406.473 588.745,-404.838 600.287,-402.879 611.109,-400.951"/>
<polygon fill="#9a32cd" stroke="#9a32cd" points="470.294,-417.268 460.775,-421.919 471.117,-424.22 470.294,-417.268"/>
<text text-anchor="middle" x="538" y="-420.473" font-family="Helvetica,sans-Serif" font-size="10.00"> variables</text>
</g>
<!-- Node33 -->
<g id="node33" class="node"><title>Node33</title>
<polygon fill="white" stroke="#bfbfbf" points="360.5,-380.973 360.5,-399.973 441.5,-399.973 441.5,-380.973 360.5,-380.973"/>
<text text-anchor="middle" x="401" y="-387.973" font-family="Helvetica,sans-Serif" font-size="10.00">Dimension2D</text>
</g>
<!-- Node33&#45;&gt;Node30 -->
<g id="edge43" class="edge"><title>Node33&#45;&gt;Node30</title>
<path fill="none" stroke="#9a32cd" stroke-dasharray="5,2" d="M451.82,-390.865C498.242,-391.23 566.828,-391.77 611.466,-392.122"/>
<polygon fill="#9a32cd" stroke="#9a32cd" points="451.715,-387.364 441.688,-390.785 451.66,-394.364 451.715,-387.364"/>
<text text-anchor="middle" x="538" y="-395.473" font-family="Helvetica,sans-Serif" font-size="10.00"> myDimensions</text>
</g>
<!-- Node34 -->
<g id="node34" class="node"><title>Node34</title>
<polygon fill="white" stroke="#bfbfbf" points="58,-277.973 58,-296.973 116,-296.973 116,-277.973 58,-277.973"/>
<text text-anchor="middle" x="87" y="-284.973" font-family="Helvetica,sans-Serif" font-size="10.00">TextArea</text>
</g>
<!-- Node34&#45;&gt;Node1 -->
<g id="edge46" class="edge"><title>Node34&#45;&gt;Node1</title>
<path fill="none" stroke="#9a32cd" stroke-dasharray="5,2" d="M126.079,-290.959C169.284,-295.047 241.823,-302.31 304,-310.473 325.074,-313.239 348.659,-316.916 367.178,-319.937"/>
<polygon fill="#9a32cd" stroke="#9a32cd" points="126.296,-287.464 116.013,-290.014 125.642,-294.434 126.296,-287.464"/>
<text text-anchor="middle" x="248" y="-313.473" font-family="Helvetica,sans-Serif" font-size="10.00"> textEditor</text>
</g>
</g>
</svg>
