<?xml version="1.0" encoding="UTF-8" standalone="no"?>
<!DOCTYPE svg PUBLIC "-//W3C//DTD SVG 1.1//EN"
 "http://www.w3.org/Graphics/SVG/1.1/DTD/svg11.dtd">
<!-- Generated by graphviz version 2.36.0 (20140111.2315)
 -->
<!-- Title: view.Editor Pages: 1 -->
<!--zoomable 706 -->
<svg id="main" version="1.1" xmlns="http://www.w3.org/2000/svg" xmlns:xlink="http://www.w3.org/1999/xlink" xml:space="preserve" onload="init(evt)">
<style type="text/css"><![CDATA[
.edge:hover path { stroke: red; }
.edge:hover polygon { stroke: red; fill: red; }
]]></style>
<script type="text/javascript"><![CDATA[
var edges = document.getElementsByTagName('g');
if (edges && edges.length) {
  for (var i=0;i<edges.length;i++) {
    if (edges[i].id.substr(0,4)=='edge') {
      edges[i].setAttribute('class','edge');
    }
  }
}
]]></script>
        <defs>
                <circle id="rim" cx="0" cy="0" r="7"/>
                <circle id="rim2" cx="0" cy="0" r="3.5"/>
                <g id="zoomPlus">
                        <use xlink:href="#rim" fill="#404040">
                                <set attributeName="fill" to="#808080" begin="zoomplus.mouseover" end="zoomplus.mouseout"/>
                        </use>
                        <path d="M-4,0h8M0,-4v8" fill="none" stroke="white" stroke-width="1.5" pointer-events="none"/>
                </g>
                <g id="zoomMin">
                        <use xlink:href="#rim" fill="#404040">
                                <set attributeName="fill" to="#808080" begin="zoomminus.mouseover" end="zoomminus.mouseout"/>
                        </use>
                        <path d="M-4,0h8" fill="none" stroke="white" stroke-width="1.5" pointer-events="none"/>
                </g>
                <g id="dirArrow">
                        <path fill="none" stroke="white" stroke-width="1.5" d="M0,-3.0v7 M-2.5,-0.5L0,-3.0L2.5,-0.5"/>
                </g>
               <g id="resetDef">
                       <use xlink:href="#rim2" fill="#404040">
                               <set attributeName="fill" to="#808080" begin="reset.mouseover" end="reset.mouseout"/>
                       </use>
               </g>
        </defs>

<script type="text/javascript">
var viewWidth = 1548;
var viewHeight = 706;
var sectionId = 'dynsection-1';
</script>
<script xlink:href="../../svgpan.js"/>
<svg id="graph" class="graph">
<g id="viewport">
<title>view.Editor</title>
<polygon fill="white" stroke="none" points="-4,4 -4,-702.438 1544,-702.438 1544,4 -4,4"/>
<!-- Node1 -->
<g id="node1" class="node"><title>Node1</title>
<polygon fill="#bfbfbf" stroke="black" points="199.5,-126.938 199.5,-145.938 266.5,-145.938 266.5,-126.938 199.5,-126.938"/>
<text text-anchor="middle" x="233" y="-133.938" font-family="Helvetica,sans-Serif" font-size="10.00">view.Editor</text>
</g>
<!-- Node12 -->
<g id="node12" class="node"><title>Node12</title>
<g id="a_node12"><a xlink:href="../../d6/de7/classview_1_1_s_logo_view.html" target="_top" xlink:title="view.SLogoView">
<polygon fill="white" stroke="black" points="499.5,-295.938 499.5,-314.938 590.5,-314.938 590.5,-295.938 499.5,-295.938"/>
<text text-anchor="middle" x="545" y="-302.938" font-family="Helvetica,sans-Serif" font-size="10.00">view.SLogoView</text>
</a>
</g>
</g>
<!-- Node1&#45;&gt;Node12 -->
<g id="edge30" class="edge"><title>Node1&#45;&gt;Node12</title>
<path fill="none" stroke="#9a32cd" stroke-dasharray="5,2" d="M276.488,-142.301C330.422,-150.331 419.845,-165.781 448,-183.438 494.351,-212.507 527.557,-272.188 539.32,-295.654"/>
<polygon fill="#9a32cd" stroke="#9a32cd" points="276.93,-138.829 266.529,-140.843 275.916,-145.755 276.93,-138.829"/>
<text text-anchor="middle" x="393" y="-186.438" font-family="Helvetica,sans-Serif" font-size="10.00"> myEditor</text>
</g>
<!-- Node2 -->
<g id="node2" class="node"><title>Node2</title>
<polygon fill="white" stroke="#bfbfbf" points="8,-88.9381 8,-107.938 50,-107.938 50,-88.9381 8,-88.9381"/>
<text text-anchor="middle" x="29" y="-95.9381" font-family="Helvetica,sans-Serif" font-size="10.00">HBox</text>
</g>
<!-- Node2&#45;&gt;Node1 -->
<g id="edge1" class="edge"><title>Node2&#45;&gt;Node1</title>
<path fill="none" stroke="midnightblue" d="M60.3742,-104.152C97.7608,-111.185 160.997,-123.081 199.384,-130.302"/>
<polygon fill="midnightblue" stroke="midnightblue" points="60.5817,-100.63 50.107,-102.221 59.2876,-107.509 60.5817,-100.63"/>
</g>
<!-- Node3 -->
<g id="node3" class="node"><title>Node3</title>
<polygon fill="white" stroke="#bfbfbf" points="4.5,-164.938 4.5,-183.938 53.5,-183.938 53.5,-164.938 4.5,-164.938"/>
<text text-anchor="middle" x="29" y="-171.938" font-family="Helvetica,sans-Serif" font-size="10.00">Button</text>
</g>
<!-- Node3&#45;&gt;Node1 -->
<g id="edge2" class="edge"><title>Node3&#45;&gt;Node1</title>
<path fill="none" stroke="#9a32cd" stroke-dasharray="5,2" d="M63.5395,-168.129C101.2,-161.044 161.914,-149.623 199.249,-142.599"/>
<polygon fill="#9a32cd" stroke="#9a32cd" points="62.7478,-164.716 53.5673,-170.005 64.042,-171.595 62.7478,-164.716"/>
<text text-anchor="middle" x="102" y="-168.438" font-family="Helvetica,sans-Serif" font-size="10.00"> runButton</text>
</g>
<!-- Node4 -->
<g id="node4" class="node"><title>Node4</title>
<g id="a_node4"><a xlink:href="../../d4/dd9/classcontroller_1_1_s_logo_controller.html" target="_top" xlink:title="controller.SLogoController">
<polygon fill="white" stroke="black" points="964,-255.938 964,-274.938 1104,-274.938 1104,-255.938 964,-255.938"/>
<text text-anchor="middle" x="1034" y="-262.938" font-family="Helvetica,sans-Serif" font-size="10.00">controller.SLogoController</text>
</a>
</g>
</g>
<!-- Node4&#45;&gt;Node1 -->
<g id="edge3" class="edge"><title>Node4&#45;&gt;Node1</title>
<path fill="none" stroke="#9a32cd" stroke-dasharray="5,2" d="M983.727,-253.516C883.511,-229.765 648.442,-176.586 448,-150.438 384.129,-142.106 308.854,-138.642 266.757,-137.271"/>
<polygon fill="#9a32cd" stroke="#9a32cd" points="983.029,-256.947 993.568,-255.856 984.649,-250.137 983.029,-256.947"/>
<text text-anchor="middle" x="703" y="-208.438" font-family="Helvetica,sans-Serif" font-size="10.00"> myController</text>
</g>
<!-- Node4&#45;&gt;Node12 -->
<g id="edge32" class="edge"><title>Node4&#45;&gt;Node12</title>
<path fill="none" stroke="#9a32cd" stroke-dasharray="5,2" d="M953.543,-271.964C850.117,-280.459 672.884,-295.016 590.509,-301.782"/>
<polygon fill="#9a32cd" stroke="#9a32cd" points="953.944,-275.443 963.623,-271.136 953.37,-268.467 953.944,-275.443"/>
<text text-anchor="middle" x="822" y="-288.438" font-family="Helvetica,sans-Serif" font-size="10.00"> myController</text>
</g>
<!-- Node18 -->
<g id="node18" class="node"><title>Node18</title>
<g id="a_node18"><a xlink:href="../../d1/dc7/classview_1_1_side_bar.html" target="_top" xlink:title="view.SideBar">
<polygon fill="white" stroke="black" points="1256.5,-343.938 1256.5,-362.938 1333.5,-362.938 1333.5,-343.938 1256.5,-343.938"/>
<text text-anchor="middle" x="1295" y="-350.938" font-family="Helvetica,sans-Serif" font-size="10.00">view.SideBar</text>
</a>
</g>
</g>
<!-- Node4&#45;&gt;Node18 -->
<g id="edge21" class="edge"><title>Node4&#45;&gt;Node18</title>
<path fill="none" stroke="#9a32cd" stroke-dasharray="5,2" d="M1114.24,-262.668C1152.26,-264.34 1197.38,-270.89 1234,-289.438 1258.73,-301.963 1278.62,-329.027 1288.06,-343.626"/>
<polygon fill="#9a32cd" stroke="#9a32cd" points="1114.34,-259.17 1104.23,-262.332 1114.11,-266.166 1114.34,-259.17"/>
<text text-anchor="middle" x="1183" y="-292.438" font-family="Helvetica,sans-Serif" font-size="10.00"> myController</text>
</g>
<!-- Node5 -->
<g id="node5" class="node"><title>Node5</title>
<g id="a_node5"><a xlink:href="../../dc/df5/classmodel_1_1_parser.html" target="_top" xlink:title="model.Parser">
<polygon fill="white" stroke="black" points="782,-427.938 782,-446.938 862,-446.938 862,-427.938 782,-427.938"/>
<text text-anchor="middle" x="822" y="-434.938" font-family="Helvetica,sans-Serif" font-size="10.00">model.Parser</text>
</a>
</g>
</g>
<!-- Node5&#45;&gt;Node4 -->
<g id="edge4" class="edge"><title>Node5&#45;&gt;Node4</title>
<path fill="none" stroke="#9a32cd" stroke-dasharray="5,2" d="M828.21,-417.766C835.812,-392.404 852.157,-348.265 880,-320.438 904.257,-296.194 939.953,-282.574 970.765,-274.955"/>
<polygon fill="#9a32cd" stroke="#9a32cd" points="824.761,-417.102 825.401,-427.677 831.495,-419.011 824.761,-417.102"/>
<text text-anchor="middle" x="908" y="-323.438" font-family="Helvetica,sans-Serif" font-size="10.00"> myParser</text>
</g>
<!-- Node6 -->
<g id="node6" class="node"><title>Node6</title>
<polygon fill="white" stroke="#bfbfbf" points="203,-453.938 203,-472.938 263,-472.938 263,-453.938 203,-453.938"/>
<text text-anchor="middle" x="233" y="-460.938" font-family="Helvetica,sans-Serif" font-size="10.00">Observer</text>
</g>
<!-- Node6&#45;&gt;Node5 -->
<g id="edge5" class="edge"><title>Node6&#45;&gt;Node5</title>
<path fill="none" stroke="midnightblue" d="M273.033,-470.419C292.485,-473.553 316.407,-476.889 338,-478.438 526.95,-491.994 580.609,-511.908 764,-464.438 778.629,-460.652 794.049,-453.101 805.157,-446.946"/>
<polygon fill="midnightblue" stroke="midnightblue" points="273.455,-466.941 263.018,-468.761 272.312,-473.847 273.455,-466.941"/>
</g>
<!-- Node6&#45;&gt;Node12 -->
<g id="edge12" class="edge"><title>Node6&#45;&gt;Node12</title>
<path fill="none" stroke="midnightblue" d="M273.33,-457.213C331.247,-447.768 434.151,-429.821 448,-419.438 461.68,-409.181 455.929,-399.256 466,-385.438 486.566,-357.221 516.773,-329.134 532.896,-314.943"/>
<polygon fill="midnightblue" stroke="midnightblue" points="272.725,-453.765 263.413,-458.819 273.844,-460.675 272.725,-453.765"/>
</g>
<!-- Node7 -->
<g id="node7" class="node"><title>Node7</title>
<polygon fill="white" stroke="#bfbfbf" points="489,-395.438 489,-425.438 601,-425.438 601,-395.438 489,-395.438"/>
<text text-anchor="start" x="497" y="-413.438" font-family="Helvetica,sans-Serif" font-size="10.00">List&lt; Entry&lt; String,</text>
<text text-anchor="middle" x="545" y="-402.438" font-family="Helvetica,sans-Serif" font-size="10.00"> Pattern &gt; &gt;</text>
</g>
<!-- Node7&#45;&gt;Node5 -->
<g id="edge6" class="edge"><title>Node7&#45;&gt;Node5</title>
<path fill="none" stroke="#9a32cd" stroke-dasharray="5,2" d="M611.427,-413.232C654.83,-415.579 712.978,-419.666 764,-426.438 769.795,-427.207 775.889,-428.192 781.851,-429.256"/>
<polygon fill="#9a32cd" stroke="#9a32cd" points="611.454,-409.729 601.284,-412.701 611.088,-416.719 611.454,-409.729"/>
<text text-anchor="middle" x="703" y="-429.438" font-family="Helvetica,sans-Serif" font-size="10.00"> myPatterns</text>
</g>
<!-- Node8 -->
<g id="node8" class="node"><title>Node8</title>
<g id="a_node8"><a xlink:href="../../d1/dca/classmodel_1_1_execution_environment.html" target="_top" xlink:title="model.ExecutionEnvironment">
<polygon fill="white" stroke="black" points="466.5,-520.938 466.5,-539.938 623.5,-539.938 623.5,-520.938 466.5,-520.938"/>
<text text-anchor="middle" x="545" y="-527.938" font-family="Helvetica,sans-Serif" font-size="10.00">model.ExecutionEnvironment</text>
</a>
</g>
</g>
<!-- Node8&#45;&gt;Node5 -->
<g id="edge7" class="edge"><title>Node8&#45;&gt;Node5</title>
<path fill="none" stroke="#9a32cd" stroke-dasharray="5,2" d="M633.752,-535.628C675.428,-534.497 724.612,-527.701 764,-506.438 789.432,-492.709 807.998,-462.506 816.25,-447.014"/>
<polygon fill="#9a32cd" stroke="#9a32cd" points="633.545,-532.131 623.605,-535.798 633.662,-539.13 633.545,-532.131"/>
<text text-anchor="middle" x="703" y="-537.438" font-family="Helvetica,sans-Serif" font-size="10.00"> myExecutionParameters</text>
</g>
<!-- Node9 -->
<g id="node9" class="node"><title>Node9</title>
<polygon fill="white" stroke="#bfbfbf" points="197.5,-496.938 197.5,-515.938 268.5,-515.938 268.5,-496.938 197.5,-496.938"/>
<text text-anchor="middle" x="233" y="-503.938" font-family="Helvetica,sans-Serif" font-size="10.00">Observable</text>
</g>
<!-- Node9&#45;&gt;Node8 -->
<g id="edge8" class="edge"><title>Node9&#45;&gt;Node8</title>
<path fill="none" stroke="midnightblue" d="M278.634,-509.894C327.641,-513.688 407.232,-519.85 466.485,-524.437"/>
<polygon fill="midnightblue" stroke="midnightblue" points="278.899,-506.404 268.659,-509.121 278.359,-513.383 278.899,-506.404"/>
</g>
<!-- Node10 -->
<g id="node10" class="node"><title>Node10</title>
<polygon fill="white" stroke="#bfbfbf" points="146,-535.438 146,-565.438 320,-565.438 320,-535.438 146,-535.438"/>
<text text-anchor="start" x="154" y="-553.438" font-family="Helvetica,sans-Serif" font-size="10.00">Map&lt; String, model.instructions.</text>
<text text-anchor="middle" x="233" y="-542.438" font-family="Helvetica,sans-Serif" font-size="10.00">Instruction &gt;</text>
</g>
<!-- Node10&#45;&gt;Node8 -->
<g id="edge9" class="edge"><title>Node10&#45;&gt;Node8</title>
<path fill="none" stroke="#9a32cd" stroke-dasharray="5,2" d="M330.425,-544.217C374.129,-541.398 425.118,-538.108 466.313,-535.45"/>
<polygon fill="#9a32cd" stroke="#9a32cd" points="330.106,-540.73 320.352,-544.867 330.557,-547.716 330.106,-540.73"/>
<text text-anchor="middle" x="393" y="-556.438" font-family="Helvetica,sans-Serif" font-size="10.00"> myVariableMap</text>
<text text-anchor="middle" x="393" y="-545.438" font-family="Helvetica,sans-Serif" font-size="10.00">myUserInstructionMap</text>
</g>
<!-- Node11 -->
<g id="node11" class="node"><title>Node11</title>
<polygon fill="white" stroke="#bfbfbf" points="484,-444.938 484,-463.938 606,-463.938 606,-444.938 484,-444.938"/>
<text text-anchor="middle" x="545" y="-451.938" font-family="Helvetica,sans-Serif" font-size="10.00">Map&lt; String, String &gt;</text>
</g>
<!-- Node11&#45;&gt;Node5 -->
<g id="edge10" class="edge"><title>Node11&#45;&gt;Node5</title>
<path fill="none" stroke="#9a32cd" stroke-dasharray="5,2" d="M616.284,-450.093C668.88,-446.842 738.879,-442.515 781.895,-439.856"/>
<polygon fill="#9a32cd" stroke="#9a32cd" points="615.775,-446.618 606.01,-450.728 616.207,-453.605 615.775,-446.618"/>
<text text-anchor="middle" x="703" y="-452.438" font-family="Helvetica,sans-Serif" font-size="10.00"> myCommandMap</text>
</g>
<!-- Node12&#45;&gt;Node5 -->
<g id="edge11" class="edge"><title>Node12&#45;&gt;Node5</title>
<path fill="none" stroke="#9a32cd" stroke-dasharray="5,2" d="M567.489,-320.942C586.37,-333.992 614.971,-352.4 642,-364.438 693.643,-387.439 712.645,-376.802 764,-400.438 780.29,-407.936 797.331,-419.574 808.487,-427.792"/>
<polygon fill="#9a32cd" stroke="#9a32cd" points="569.247,-317.9 559.051,-315.018 565.225,-323.629 569.247,-317.9"/>
<text text-anchor="middle" x="703" y="-403.438" font-family="Helvetica,sans-Serif" font-size="10.00"> mySLogoView</text>
</g>
<!-- Node13 -->
<g id="node13" class="node"><title>Node13</title>
<g id="a_node13"><a xlink:href="../../da/d64/classview_1_1_workspace.html" target="_top" xlink:title="view.Workspace">
<polygon fill="white" stroke="black" points="1450,-530.938 1450,-549.938 1540,-549.938 1540,-530.938 1450,-530.938"/>
<text text-anchor="middle" x="1495" y="-537.938" font-family="Helvetica,sans-Serif" font-size="10.00">view.Workspace</text>
</a>
</g>
</g>
<!-- Node13&#45;&gt;Node12 -->
<g id="edge13" class="edge"><title>Node13&#45;&gt;Node12</title>
<path fill="none" stroke="#9a32cd" stroke-dasharray="5,2" d="M1490.55,-520.798C1473.98,-429.551 1399.09,-51.4381 1296,-51.4381 821,-51.4381 821,-51.4381 821,-51.4381 674.118,-51.4381 572.251,-249.395 550.393,-295.791"/>
<polygon fill="#9a32cd" stroke="#9a32cd" points="1487.11,-521.443 1492.32,-530.67 1494,-520.21 1487.11,-521.443"/>
<text text-anchor="middle" x="1034" y="-54.4381" font-family="Helvetica,sans-Serif" font-size="10.00"> myWorkspace</text>
</g>
<!-- Node14 -->
<g id="node14" class="node"><title>Node14</title>
<polygon fill="white" stroke="#bfbfbf" points="1261.5,-640.938 1261.5,-659.938 1328.5,-659.938 1328.5,-640.938 1261.5,-640.938"/>
<text text-anchor="middle" x="1295" y="-647.938" font-family="Helvetica,sans-Serif" font-size="10.00">StackPane</text>
</g>
<!-- Node14&#45;&gt;Node13 -->
<g id="edge14" class="edge"><title>Node14&#45;&gt;Node13</title>
<path fill="none" stroke="midnightblue" d="M1338.71,-651.025C1367.1,-649.556 1404.15,-643.918 1432,-626.438 1462.09,-607.556 1482.05,-568.264 1490.05,-550.069"/>
<polygon fill="midnightblue" stroke="midnightblue" points="1338.54,-647.528 1328.67,-651.391 1338.79,-654.524 1338.54,-647.528"/>
</g>
<!-- Node15 -->
<g id="node15" class="node"><title>Node15</title>
<g id="a_node15"><a xlink:href="../../d8/df7/classview_1_1_turtle_view.html" target="_top" xlink:title="view.TurtleView">
<polygon fill="white" stroke="black" points="1252,-678.938 1252,-697.938 1338,-697.938 1338,-678.938 1252,-678.938"/>
<text text-anchor="middle" x="1295" y="-685.938" font-family="Helvetica,sans-Serif" font-size="10.00">view.TurtleView</text>
</a>
</g>
</g>
<!-- Node15&#45;&gt;Node13 -->
<g id="edge15" class="edge"><title>Node15&#45;&gt;Node13</title>
<path fill="none" stroke="#9a32cd" stroke-dasharray="5,2" d="M1348.32,-683.943C1375.6,-679.345 1408.15,-670.08 1432,-651.438 1466.78,-624.249 1485.06,-571.794 1491.39,-550.146"/>
<polygon fill="#9a32cd" stroke="#9a32cd" points="1347.51,-680.525 1338.15,-685.486 1348.56,-687.446 1347.51,-680.525"/>
<text text-anchor="middle" x="1394" y="-684.438" font-family="Helvetica,sans-Serif" font-size="10.00"> myActiveTurtle</text>
</g>
<!-- Node16 -->
<g id="node16" class="node"><title>Node16</title>
<polygon fill="white" stroke="#bfbfbf" points="1000,-678.938 1000,-697.938 1068,-697.938 1068,-678.938 1000,-678.938"/>
<text text-anchor="middle" x="1034" y="-685.938" font-family="Helvetica,sans-Serif" font-size="10.00">ImageView</text>
</g>
<!-- Node16&#45;&gt;Node15 -->
<g id="edge16" class="edge"><title>Node16&#45;&gt;Node15</title>
<path fill="none" stroke="midnightblue" d="M1078.18,-688.438C1126.37,-688.438 1203.85,-688.438 1251.69,-688.438"/>
<polygon fill="midnightblue" stroke="midnightblue" points="1078.07,-684.938 1068.07,-688.438 1078.07,-691.938 1078.07,-684.938"/>
</g>
<!-- Node17 -->
<g id="node17" class="node"><title>Node17</title>
<polygon fill="white" stroke="#bfbfbf" points="165,-584.438 165,-614.438 301,-614.438 301,-584.438 165,-584.438"/>
<text text-anchor="start" x="173" y="-602.438" font-family="Helvetica,sans-Serif" font-size="10.00">Map&lt; Integer, view.Turtle</text>
<text text-anchor="middle" x="233" y="-591.438" font-family="Helvetica,sans-Serif" font-size="10.00">View &gt;</text>
</g>
<!-- Node17&#45;&gt;Node12 -->
<g id="edge35" class="edge"><title>Node17&#45;&gt;Node12</title>
<path fill="none" stroke="#9a32cd" stroke-dasharray="5,2" d="M310.346,-581.99C313.802,-579.765 317.05,-577.259 320,-574.438 337.978,-557.243 323.069,-541.336 338,-521.438 373.817,-473.705 412.934,-492.725 448,-444.438 464.109,-422.255 452.036,-409.031 466,-385.438 483.488,-355.891 514.081,-328.959 531.297,-315.15"/>
<polygon fill="#9a32cd" stroke="#9a32cd" points="308.429,-579.05 301.382,-586.962 311.824,-585.172 308.429,-579.05"/>
<text text-anchor="middle" x="393" y="-524.438" font-family="Helvetica,sans-Serif" font-size="10.00"> myTurtles</text>
</g>
<!-- Node17&#45;&gt;Node13 -->
<g id="edge17" class="edge"><title>Node17&#45;&gt;Node13</title>
<path fill="none" stroke="#9a32cd" stroke-dasharray="5,2" d="M311.293,-604.479C373.985,-608.134 464.654,-612.438 544,-612.438 544,-612.438 544,-612.438 1296,-612.438 1368.06,-612.438 1446.47,-569.801 1478.78,-550.148"/>
<polygon fill="#9a32cd" stroke="#9a32cd" points="311.279,-600.972 301.089,-603.876 310.865,-607.96 311.279,-600.972"/>
<text text-anchor="middle" x="908" y="-615.438" font-family="Helvetica,sans-Serif" font-size="10.00"> myTurtles</text>
</g>
<!-- Node17&#45;&gt;Node18 -->
<g id="edge23" class="edge"><title>Node17&#45;&gt;Node18</title>
<path fill="none" stroke="#9a32cd" stroke-dasharray="5,2" d="M311.385,-597.836C415.386,-594.394 605.514,-583.557 764,-549.438 979.859,-502.968 1033.21,-480.294 1234,-388.438 1250.01,-381.114 1267.27,-370.76 1279.15,-363.214"/>
<polygon fill="#9a32cd" stroke="#9a32cd" points="311.171,-594.341 301.286,-598.156 311.392,-601.338 311.171,-594.341"/>
<text text-anchor="middle" x="822" y="-547.438" font-family="Helvetica,sans-Serif" font-size="10.00"> myTurtles</text>
</g>
<!-- Node18&#45;&gt;Node1 -->
<g id="edge42" class="edge"><title>Node18&#45;&gt;Node1</title>
<path fill="none" stroke="#9a32cd" stroke-dasharray="5,2" d="M1291.41,-333.59C1286.31,-302.998 1271.92,-244.795 1234,-215.438 1191.3,-182.38 1167.34,-204.865 1114,-196.438 818.015,-149.674 746.741,-114.843 448,-91.4381 399.26,-87.6196 385.873,-81.525 338,-91.4381 305.25,-98.2196 270.134,-115.838 250.237,-126.911"/>
<polygon fill="#9a32cd" stroke="#9a32cd" points="1288.01,-334.472 1292.95,-343.845 1294.93,-333.437 1288.01,-334.472"/>
<text text-anchor="middle" x="822" y="-154.438" font-family="Helvetica,sans-Serif" font-size="10.00"> mySidebar</text>
</g>
<!-- Node18&#45;&gt;Node12 -->
<g id="edge39" class="edge"><title>Node18&#45;&gt;Node12</title>
<path fill="none" stroke="#9a32cd" stroke-dasharray="5,2" d="M1245.95,-351.269C1168.77,-347.698 1012.39,-340.107 880,-331.438 776.258,-324.645 654.551,-314.662 590.546,-309.256"/>
<polygon fill="#9a32cd" stroke="#9a32cd" points="1246.16,-354.782 1256.31,-351.746 1246.48,-347.79 1246.16,-354.782"/>
<text text-anchor="middle" x="908" y="-338.438" font-family="Helvetica,sans-Serif" font-size="10.00"> mySidebar</text>
</g>
<!-- Node18&#45;&gt;Node13 -->
<g id="edge18" class="edge"><title>Node18&#45;&gt;Node13</title>
<path fill="none" stroke="#9a32cd" stroke-dasharray="5,2" d="M1313.55,-370.009C1353.78,-408.009 1451.69,-500.478 1483.69,-530.703"/>
<polygon fill="#9a32cd" stroke="#9a32cd" points="1315.76,-367.29 1306.09,-362.969 1310.96,-372.379 1315.76,-367.29"/>
<text text-anchor="middle" x="1394" y="-482.438" font-family="Helvetica,sans-Serif" font-size="10.00"> mySidebar</text>
</g>
<!-- Node19 -->
<g id="node19" class="node"><title>Node19</title>
<polygon fill="white" stroke="#bfbfbf" points="1013.5,-381.938 1013.5,-400.938 1054.5,-400.938 1054.5,-381.938 1013.5,-381.938"/>
<text text-anchor="middle" x="1034" y="-388.938" font-family="Helvetica,sans-Serif" font-size="10.00">VBox</text>
</g>
<!-- Node19&#45;&gt;Node18 -->
<g id="edge19" class="edge"><title>Node19&#45;&gt;Node18</title>
<path fill="none" stroke="midnightblue" d="M1064.73,-388.874C1103.76,-385.276 1174.33,-377.966 1234,-367.438 1241.27,-366.156 1248.98,-364.548 1256.36,-362.883"/>
<polygon fill="midnightblue" stroke="midnightblue" points="1064.24,-385.405 1054.59,-389.791 1064.87,-392.376 1064.24,-385.405"/>
</g>
<!-- Node20 -->
<g id="node20" class="node"><title>Node20</title>
<polygon fill="white" stroke="#bfbfbf" points="186.5,-41.9381 186.5,-60.9381 279.5,-60.9381 279.5,-41.9381 186.5,-41.9381"/>
<text text-anchor="middle" x="233" y="-48.9381" font-family="Helvetica,sans-Serif" font-size="10.00">ResourceBundle</text>
</g>
<!-- Node20&#45;&gt;Node12 -->
<g id="edge29" class="edge"><title>Node20&#45;&gt;Node12</title>
<path fill="none" stroke="#9a32cd" stroke-dasharray="5,2" d="M289.49,-63.5777C336.146,-76.0976 402.351,-99.5376 448,-139.438 500.639,-185.448 531.517,-267.677 540.914,-295.742"/>
<polygon fill="#9a32cd" stroke="#9a32cd" points="290.11,-60.1227 279.551,-60.996 288.35,-66.8979 290.11,-60.1227"/>
<text text-anchor="middle" x="393" y="-142.438" font-family="Helvetica,sans-Serif" font-size="10.00"> myResources</text>
</g>
<!-- Node20&#45;&gt;Node18 -->
<g id="edge20" class="edge"><title>Node20&#45;&gt;Node18</title>
<path fill="none" stroke="#9a32cd" stroke-dasharray="5,2" d="M282.953,-39.6162C343.773,-25.9869 450.906,-5.43811 544,-5.43811 544,-5.43811 544,-5.43811 909,-5.43811 1000.73,-5.43811 1034.75,16.7638 1114,-29.4381 1239.36,-102.52 1283.53,-298.248 1292.28,-343.849"/>
<polygon fill="#9a32cd" stroke="#9a32cd" points="281.85,-36.2776 272.874,-41.9069 283.401,-43.1036 281.85,-36.2776"/>
<text text-anchor="middle" x="822" y="-8.43811" font-family="Helvetica,sans-Serif" font-size="10.00"> myResources</text>
</g>
<!-- Node21 -->
<g id="node21" class="node"><title>Node21</title>
<polygon fill="white" stroke="#bfbfbf" points="967,-294.438 967,-324.438 1101,-324.438 1101,-294.438 967,-294.438"/>
<text text-anchor="start" x="975" y="-312.438" font-family="Helvetica,sans-Serif" font-size="10.00">TableView&lt; view.Variable</text>
<text text-anchor="middle" x="1034" y="-301.438" font-family="Helvetica,sans-Serif" font-size="10.00">View &gt;</text>
</g>
<!-- Node21&#45;&gt;Node18 -->
<g id="edge22" class="edge"><title>Node21&#45;&gt;Node18</title>
<path fill="none" stroke="#9a32cd" stroke-dasharray="5,2" d="M1111.7,-303.73C1149.29,-303.131 1194.78,-305.723 1234,-317.438 1252.16,-322.863 1270.47,-335.044 1282,-343.733"/>
<polygon fill="#9a32cd" stroke="#9a32cd" points="1111.24,-300.24 1101.32,-303.979 1111.4,-307.238 1111.24,-300.24"/>
<text text-anchor="middle" x="1183" y="-331.438" font-family="Helvetica,sans-Serif" font-size="10.00"> turtlePropertiesTable</text>
<text text-anchor="middle" x="1183" y="-320.438" font-family="Helvetica,sans-Serif" font-size="10.00">variablesTable</text>
</g>
<!-- Node22 -->
<g id="node22" class="node"><title>Node22</title>
<polygon fill="white" stroke="#bfbfbf" points="954.5,-206.438 954.5,-236.438 1113.5,-236.438 1113.5,-206.438 954.5,-206.438"/>
<text text-anchor="start" x="962.5" y="-224.438" font-family="Helvetica,sans-Serif" font-size="10.00">ObservableList&lt; view.Variable</text>
<text text-anchor="middle" x="1034" y="-213.438" font-family="Helvetica,sans-Serif" font-size="10.00">View &gt;</text>
</g>
<!-- Node22&#45;&gt;Node18 -->
<g id="edge24" class="edge"><title>Node22&#45;&gt;Node18</title>
<path fill="none" stroke="#9a32cd" stroke-dasharray="5,2" d="M1124.16,-217.414C1160.87,-219.76 1202.15,-227.942 1234,-249.438 1268.38,-272.642 1285.57,-322.615 1291.51,-343.718"/>
<polygon fill="#9a32cd" stroke="#9a32cd" points="1124.11,-213.907 1113.95,-216.902 1123.76,-220.899 1124.11,-213.907"/>
<text text-anchor="middle" x="1183" y="-252.438" font-family="Helvetica,sans-Serif" font-size="10.00"> variablesList</text>
</g>
<!-- Node23 -->
<g id="node23" class="node"><title>Node23</title>
<polygon fill="white" stroke="#bfbfbf" points="965,-564.938 965,-583.938 1103,-583.938 1103,-564.938 965,-564.938"/>
<text text-anchor="middle" x="1034" y="-571.938" font-family="Helvetica,sans-Serif" font-size="10.00">ObservableList&lt; String &gt;</text>
</g>
<!-- Node23&#45;&gt;Node18 -->
<g id="edge25" class="edge"><title>Node23&#45;&gt;Node18</title>
<path fill="none" stroke="#9a32cd" stroke-dasharray="5,2" d="M1113.18,-572.734C1160.81,-570.111 1215.89,-563.729 1234,-548.438 1292.19,-499.314 1294.96,-395.162 1294.35,-363.061"/>
<polygon fill="#9a32cd" stroke="#9a32cd" points="1112.95,-569.241 1103.14,-573.238 1113.3,-576.232 1112.95,-569.241"/>
<text text-anchor="middle" x="1183" y="-585.438" font-family="Helvetica,sans-Serif" font-size="10.00"> commandItems</text>
<text text-anchor="middle" x="1183" y="-574.438" font-family="Helvetica,sans-Serif" font-size="10.00">historyItems</text>
</g>
<!-- Node24 -->
<g id="node24" class="node"><title>Node24</title>
<polygon fill="white" stroke="#bfbfbf" points="981,-526.938 981,-545.938 1087,-545.938 1087,-526.938 981,-526.938"/>
<text text-anchor="middle" x="1034" y="-533.938" font-family="Helvetica,sans-Serif" font-size="10.00">ListView&lt; String &gt;</text>
</g>
<!-- Node24&#45;&gt;Node18 -->
<g id="edge26" class="edge"><title>Node24&#45;&gt;Node18</title>
<path fill="none" stroke="#9a32cd" stroke-dasharray="5,2" d="M1097.45,-535.823C1147.73,-534.093 1213.31,-528.66 1234,-512.438 1282.76,-474.206 1291.9,-391.705 1293.61,-363.291"/>
<polygon fill="#9a32cd" stroke="#9a32cd" points="1097.18,-532.329 1087.29,-536.13 1097.39,-539.326 1097.18,-532.329"/>
<text text-anchor="middle" x="1183" y="-536.438" font-family="Helvetica,sans-Serif" font-size="10.00"> historyList</text>
</g>
<!-- Node25 -->
<g id="node25" class="node"><title>Node25</title>
<polygon fill="white" stroke="#bfbfbf" points="1263.5,-3.93811 1263.5,-22.9381 1326.5,-22.9381 1326.5,-3.93811 1263.5,-3.93811"/>
<text text-anchor="middle" x="1295" y="-10.9381" font-family="Helvetica,sans-Serif" font-size="10.00">Rectangle</text>
</g>
<!-- Node25&#45;&gt;Node13 -->
<g id="edge27" class="edge"><title>Node25&#45;&gt;Node13</title>
<path fill="none" stroke="#9a32cd" stroke-dasharray="5,2" d="M1336.98,-5.06517C1367.32,-1.44848 1407.47,-2.51022 1432,-26.4381 1469.64,-63.156 1490.27,-462.201 1493.54,-530.516"/>
<polygon fill="#9a32cd" stroke="#9a32cd" points="1336.12,-1.65192 1326.71,-6.50974 1337.1,-8.58379 1336.12,-1.65192"/>
<text text-anchor="middle" x="1394" y="-29.4381" font-family="Helvetica,sans-Serif" font-size="10.00"> myBackground</text>
</g>
<!-- Node26 -->
<g id="node26" class="node"><title>Node26</title>
<polygon fill="white" stroke="#bfbfbf" points="210.5,-219.938 210.5,-238.938 255.5,-238.938 255.5,-219.938 210.5,-219.938"/>
<text text-anchor="middle" x="233" y="-226.938" font-family="Helvetica,sans-Serif" font-size="10.00">Stage</text>
</g>
<!-- Node26&#45;&gt;Node12 -->
<g id="edge28" class="edge"><title>Node26&#45;&gt;Node12</title>
<path fill="none" stroke="#9a32cd" stroke-dasharray="5,2" d="M265.627,-231.926C307.881,-235.821 384.766,-244.913 448,-263.438 476.108,-271.673 506.831,-286.162 525.763,-295.781"/>
<polygon fill="#9a32cd" stroke="#9a32cd" points="265.93,-228.44 255.66,-231.046 265.313,-235.412 265.93,-228.44"/>
<text text-anchor="middle" x="393" y="-266.438" font-family="Helvetica,sans-Serif" font-size="10.00"> myStage</text>
</g>
<!-- Node27 -->
<g id="node27" class="node"><title>Node27</title>
<polygon fill="white" stroke="#bfbfbf" points="173.5,-181.938 173.5,-200.938 292.5,-200.938 292.5,-181.938 173.5,-181.938"/>
<text text-anchor="middle" x="233" y="-188.938" font-family="Helvetica,sans-Serif" font-size="10.00">Map&lt; String, Node &gt;</text>
</g>
<!-- Node27&#45;&gt;Node12 -->
<g id="edge31" class="edge"><title>Node27&#45;&gt;Node12</title>
<path fill="none" stroke="#9a32cd" stroke-dasharray="5,2" d="M302.843,-193.58C346.149,-197.097 402.284,-205.729 448,-226.438 485.356,-243.36 520.143,-278.68 535.596,-295.767"/>
<polygon fill="#9a32cd" stroke="#9a32cd" points="302.918,-190.076 292.687,-192.829 302.401,-197.057 302.918,-190.076"/>
<text text-anchor="middle" x="393" y="-229.438" font-family="Helvetica,sans-Serif" font-size="10.00"> variables</text>
</g>
<!-- Node28 -->
<g id="node28" class="node"><title>Node28</title>
<polygon fill="white" stroke="#bfbfbf" points="192.5,-409.938 192.5,-428.938 273.5,-428.938 273.5,-409.938 192.5,-409.938"/>
<text text-anchor="middle" x="233" y="-416.938" font-family="Helvetica,sans-Serif" font-size="10.00">Dimension2D</text>
</g>
<!-- Node28&#45;&gt;Node12 -->
<g id="edge33" class="edge"><title>Node28&#45;&gt;Node12</title>
<path fill="none" stroke="#9a32cd" stroke-dasharray="5,2" d="M283.923,-414.314C337.728,-408.257 419.489,-397.353 448,-384.438 485.356,-367.516 520.143,-332.196 535.596,-315.109"/>
<polygon fill="#9a32cd" stroke="#9a32cd" points="283.444,-410.845 273.89,-415.424 284.214,-417.803 283.444,-410.845"/>
<text text-anchor="middle" x="393" y="-410.438" font-family="Helvetica,sans-Serif" font-size="10.00"> myDimensions</text>
</g>
<!-- Node29 -->
<g id="node29" class="node"><title>Node29</title>
<polygon fill="white" stroke="#bfbfbf" points="209.5,-371.938 209.5,-390.938 256.5,-390.938 256.5,-371.938 209.5,-371.938"/>
<text text-anchor="middle" x="233" y="-378.938" font-family="Helvetica,sans-Serif" font-size="10.00">Scene</text>
</g>
<!-- Node29&#45;&gt;Node12 -->
<g id="edge34" class="edge"><title>Node29&#45;&gt;Node12</title>
<path fill="none" stroke="#9a32cd" stroke-dasharray="5,2" d="M266.581,-378.296C308.984,-373.678 385.094,-363.577 448,-345.438 475.411,-337.534 505.555,-324.15 524.617,-315.061"/>
<polygon fill="#9a32cd" stroke="#9a32cd" points="266.134,-374.824 256.556,-379.353 266.868,-381.785 266.134,-374.824"/>
<text text-anchor="middle" x="393" y="-372.438" font-family="Helvetica,sans-Serif" font-size="10.00"> myScene</text>
</g>
<!-- Node30 -->
<g id="node30" class="node"><title>Node30</title>
<g id="a_node30"><a xlink:href="../../de/d0a/classview_1_1_drawer.html" target="_top" xlink:title="view.Drawer">
<polygon fill="white" stroke="black" points="196.5,-333.938 196.5,-352.938 269.5,-352.938 269.5,-333.938 196.5,-333.938"/>
<text text-anchor="middle" x="233" y="-340.938" font-family="Helvetica,sans-Serif" font-size="10.00">view.Drawer</text>
</a>
</g>
</g>
<!-- Node30&#45;&gt;Node12 -->
<g id="edge36" class="edge"><title>Node30&#45;&gt;Node12</title>
<path fill="none" stroke="#9a32cd" stroke-dasharray="5,2" d="M279.545,-337.951C322.872,-332.72 389.884,-324.601 448,-317.438 464.67,-315.384 482.965,-313.103 499.072,-311.087"/>
<polygon fill="#9a32cd" stroke="#9a32cd" points="279.106,-334.478 269.598,-339.151 279.945,-341.428 279.106,-334.478"/>
<text text-anchor="middle" x="393" y="-333.438" font-family="Helvetica,sans-Serif" font-size="10.00"> drawer</text>
</g>
<!-- Node31 -->
<g id="node31" class="node"><title>Node31</title>
<polygon fill="white" stroke="#bfbfbf" points="8.5,-333.938 8.5,-352.938 49.5,-352.938 49.5,-333.938 8.5,-333.938"/>
<text text-anchor="middle" x="29" y="-340.938" font-family="Helvetica,sans-Serif" font-size="10.00">Color</text>
</g>
<!-- Node31&#45;&gt;Node30 -->
<g id="edge37" class="edge"><title>Node31&#45;&gt;Node30</title>
<path fill="none" stroke="#9a32cd" stroke-dasharray="5,2" d="M60.1816,-343.438C96.5583,-343.438 157.607,-343.438 196.292,-343.438"/>
<polygon fill="#9a32cd" stroke="#9a32cd" points="59.7364,-339.938 49.7364,-343.438 59.7364,-346.938 59.7364,-339.938"/>
<text text-anchor="middle" x="102" y="-346.438" font-family="Helvetica,sans-Serif" font-size="10.00"> myColor</text>
</g>
<!-- Node32 -->
<g id="node32" class="node"><title>Node32</title>
<polygon fill="white" stroke="#bfbfbf" points="203.5,-295.938 203.5,-314.938 262.5,-314.938 262.5,-295.938 203.5,-295.938"/>
<text text-anchor="middle" x="233" y="-302.938" font-family="Helvetica,sans-Serif" font-size="10.00">GridPane</text>
</g>
<!-- Node32&#45;&gt;Node12 -->
<g id="edge38" class="edge"><title>Node32&#45;&gt;Node12</title>
<path fill="none" stroke="#9a32cd" stroke-dasharray="5,2" d="M272.766,-305.438C330.432,-305.438 438.529,-305.438 499.399,-305.438"/>
<polygon fill="#9a32cd" stroke="#9a32cd" points="272.608,-301.938 262.608,-305.438 272.608,-308.938 272.608,-301.938"/>
<text text-anchor="middle" x="393" y="-308.438" font-family="Helvetica,sans-Serif" font-size="10.00"> myRoot</text>
</g>
<!-- Node33 -->
<g id="node33" class="node"><title>Node33</title>
<polygon fill="white" stroke="#bfbfbf" points="210,-257.938 210,-276.938 256,-276.938 256,-257.938 210,-257.938"/>
<text text-anchor="middle" x="233" y="-264.938" font-family="Helvetica,sans-Serif" font-size="10.00">Group</text>
</g>
<!-- Node33&#45;&gt;Node12 -->
<g id="edge40" class="edge"><title>Node33&#45;&gt;Node12</title>
<path fill="none" stroke="#9a32cd" stroke-dasharray="5,2" d="M266.393,-270.432C308.359,-274.422 383.76,-281.972 448,-290.438 464.724,-292.642 483.031,-295.413 499.132,-297.972"/>
<polygon fill="#9a32cd" stroke="#9a32cd" points="266.508,-266.927 256.223,-269.473 265.85,-273.896 266.508,-266.927"/>
<text text-anchor="middle" x="393" y="-293.438" font-family="Helvetica,sans-Serif" font-size="10.00"> lines</text>
</g>
<!-- Node34 -->
<g id="node34" class="node"><title>Node34</title>
<polygon fill="white" stroke="#bfbfbf" points="0,-126.938 0,-145.938 58,-145.938 58,-126.938 0,-126.938"/>
<text text-anchor="middle" x="29" y="-133.938" font-family="Helvetica,sans-Serif" font-size="10.00">TextArea</text>
</g>
<!-- Node34&#45;&gt;Node1 -->
<g id="edge41" class="edge"><title>Node34&#45;&gt;Node1</title>
<path fill="none" stroke="#9a32cd" stroke-dasharray="5,2" d="M68.2332,-136.438C106.167,-136.438 163.67,-136.438 199.475,-136.438"/>
<polygon fill="#9a32cd" stroke="#9a32cd" points="68.0873,-132.938 58.0872,-136.438 68.0872,-139.938 68.0873,-132.938"/>
<text text-anchor="middle" x="102" y="-139.438" font-family="Helvetica,sans-Serif" font-size="10.00"> textEditor</text>
</g>
</g>
</svg>
        <g id="navigator" transform="translate(0 0)" fill="#404254">
                <rect fill="#f2f5e9" fill-opacity="0.5" stroke="#606060" stroke-width=".5" x="0" y="0" width="60" height="60"/>
                <use id="zoomplus" xlink:href="#zoomPlus" x="17" y="9" onmousedown="handleZoom(evt,'in')"/>
                <use id="zoomminus" xlink:href="#zoomMin" x="42" y="9" onmousedown="handleZoom(evt,'out')"/>
                <use id="reset" xlink:href="#resetDef" x="30" y="36" onmousedown="handleReset()"/>
                <g id="arrowUp" xlink:href="#dirArrow" transform="translate(30 24)" onmousedown="handlePan(0,-1)">
                  <use xlink:href="#rim" fill="#404040">
                        <set attributeName="fill" to="#808080" begin="arrowUp.mouseover" end="arrowUp.mouseout"/>
                  </use>
                  <path fill="none" stroke="white" stroke-width="1.5" d="M0,-3.0v7 M-2.5,-0.5L0,-3.0L2.5,-0.5"/>
                </g>
                <g id="arrowRight" xlink:href="#dirArrow" transform="rotate(90) translate(36 -43)" onmousedown="handlePan(1,0)">
                  <use xlink:href="#rim" fill="#404040">
                        <set attributeName="fill" to="#808080" begin="arrowRight.mouseover" end="arrowRight.mouseout"/>
                  </use>
                  <path fill="none" stroke="white" stroke-width="1.5" d="M0,-3.0v7 M-2.5,-0.5L0,-3.0L2.5,-0.5"/>
                </g>
                <g id="arrowDown" xlink:href="#dirArrow" transform="rotate(180) translate(-30 -48)" onmousedown="handlePan(0,1)">
                  <use xlink:href="#rim" fill="#404040">
                        <set attributeName="fill" to="#808080" begin="arrowDown.mouseover" end="arrowDown.mouseout"/>
                  </use>
                  <path fill="none" stroke="white" stroke-width="1.5" d="M0,-3.0v7 M-2.5,-0.5L0,-3.0L2.5,-0.5"/>
                </g>
                <g id="arrowLeft" xlink:href="#dirArrow" transform="rotate(270) translate(-36 17)" onmousedown="handlePan(-1,0)">
                  <use xlink:href="#rim" fill="#404040">
                        <set attributeName="fill" to="#808080" begin="arrowLeft.mouseover" end="arrowLeft.mouseout"/>
                  </use>
                  <path fill="none" stroke="white" stroke-width="1.5" d="M0,-3.0v7 M-2.5,-0.5L0,-3.0L2.5,-0.5"/>
                </g>
        </g>
        <svg viewBox="0 0 15 15" width="100%" height="30px" preserveAspectRatio="xMaxYMin meet">
         <g id="arrow_out" transform="scale(0.3 0.3)">
          <a xlink:href="classview_1_1_editor__coll__graph_org.svg" target="_base">
           <rect id="button" ry="5" rx="5" y="6" x="6" height="38" width="38"
                fill="#f2f5e9" fill-opacity="0.5" stroke="#606060" stroke-width="1.0"/>
           <path id="arrow"
             d="M 11.500037,31.436501 C 11.940474,20.09759 22.043105,11.32322 32.158766,21.979434 L 37.068811,17.246167 C 37.068811,17.246167 37.088388,32 37.088388,32 L 22.160133,31.978069 C 22.160133,31.978069 26.997745,27.140456 26.997745,27.140456 C 18.528582,18.264221 13.291696,25.230495 11.500037,31.436501 z"
             style="fill:#404040;"/>
          </a>
         </g>
        </svg>
</svg>
