<?xml version="1.0" encoding="UTF-8" standalone="no"?>
<!DOCTYPE svg PUBLIC "-//W3C//DTD SVG 1.1//EN"
 "http://www.w3.org/Graphics/SVG/1.1/DTD/svg11.dtd">
<!-- Generated by graphviz version 2.36.0 (20140111.2315)
 -->
<!-- Title: view.TurtleView.getPenPosition Pages: 1 -->
<!--zoomable 340 -->
<svg id="main" version="1.1" xmlns="http://www.w3.org/2000/svg" xmlns:xlink="http://www.w3.org/1999/xlink" xml:space="preserve" onload="init(evt)">
<style type="text/css"><![CDATA[
.edge:hover path { stroke: red; }
.edge:hover polygon { stroke: red; fill: red; }
]]></style>
<script type="text/javascript"><![CDATA[
var edges = document.getElementsByTagName('g');
if (edges && edges.length) {
  for (var i=0;i<edges.length;i++) {
    if (edges[i].id.substr(0,4)=='edge') {
      edges[i].setAttribute('class','edge');
    }
  }
}
]]></script>
        <defs>
                <circle id="rim" cx="0" cy="0" r="7"/>
                <circle id="rim2" cx="0" cy="0" r="3.5"/>
                <g id="zoomPlus">
                        <use xlink:href="#rim" fill="#404040">
                                <set attributeName="fill" to="#808080" begin="zoomplus.mouseover" end="zoomplus.mouseout"/>
                        </use>
                        <path d="M-4,0h8M0,-4v8" fill="none" stroke="white" stroke-width="1.5" pointer-events="none"/>
                </g>
                <g id="zoomMin">
                        <use xlink:href="#rim" fill="#404040">
                                <set attributeName="fill" to="#808080" begin="zoomminus.mouseover" end="zoomminus.mouseout"/>
                        </use>
                        <path d="M-4,0h8" fill="none" stroke="white" stroke-width="1.5" pointer-events="none"/>
                </g>
                <g id="dirArrow">
                        <path fill="none" stroke="white" stroke-width="1.5" d="M0,-3.0v7 M-2.5,-0.5L0,-3.0L2.5,-0.5"/>
                </g>
               <g id="resetDef">
                       <use xlink:href="#rim2" fill="#404040">
                               <set attributeName="fill" to="#808080" begin="reset.mouseover" end="reset.mouseout"/>
                       </use>
               </g>
        </defs>

<script type="text/javascript">
var viewWidth = 1498;
var viewHeight = 340;
var sectionId = 'dynsection-5';
</script>
<script xlink:href="../../svgpan.js"/>
<svg id="graph" class="graph">
<g id="viewport">
<title>view.TurtleView.getPenPosition</title>
<polygon fill="white" stroke="none" points="-4,4 -4,-336.482 1494,-336.482 1494,4 -4,4"/>
<!-- Node1 -->
<g id="node1" class="node"><title>Node1</title>
<polygon fill="#bfbfbf" stroke="black" points="0,-137.982 0,-156.982 160,-156.982 160,-137.982 0,-137.982"/>
<text text-anchor="middle" x="80" y="-144.982" font-family="Helvetica,sans-Serif" font-size="10.00">view.TurtleView.getPenPosition</text>
</g>
<!-- Node2 -->
<g id="node2" class="node"><title>Node2</title>
<g id="a_node2"><a xlink:href="../../d1/dc7/classview_1_1_side_bar.html#a0e6b8bded054449259862ef89afdc74d" target="_top" xlink:title="view.SideBar.updateTurtle\lProperties">
<polygon fill="white" stroke="black" points="196,-132.482 196,-162.482 334,-162.482 334,-132.482 196,-132.482"/>
<text text-anchor="start" x="204" y="-150.482" font-family="Helvetica,sans-Serif" font-size="10.00">view.SideBar.updateTurtle</text>
<text text-anchor="middle" x="265" y="-139.482" font-family="Helvetica,sans-Serif" font-size="10.00">Properties</text>
</a>
</g>
</g>
<!-- Node1&#45;&gt;Node2 -->
<g id="edge1" class="edge"><title>Node1&#45;&gt;Node2</title>
<path fill="none" stroke="midnightblue" d="M170.276,-147.482C178.883,-147.482 187.516,-147.482 195.871,-147.482"/>
<polygon fill="midnightblue" stroke="midnightblue" points="170.202,-143.983 160.202,-147.482 170.202,-150.983 170.202,-143.983"/>
</g>
<!-- Node3 -->
<g id="node3" class="node"><title>Node3</title>
<g id="a_node3"><a xlink:href="../../d6/de7/classview_1_1_s_logo_view.html#adc4b93dcbcbac6952cd976e41b68804c" target="_top" xlink:title="view.SLogoView.clearScreen">
<polygon fill="white" stroke="black" points="773,-164.982 773,-183.982 923,-183.982 923,-164.982 773,-164.982"/>
<text text-anchor="middle" x="848" y="-171.982" font-family="Helvetica,sans-Serif" font-size="10.00">view.SLogoView.clearScreen</text>
</a>
</g>
</g>
<!-- Node2&#45;&gt;Node3 -->
<g id="edge2" class="edge"><title>Node2&#45;&gt;Node3</title>
<path fill="none" stroke="midnightblue" d="M344.329,-151.123C456.843,-156.351 662.752,-165.92 772.881,-171.038"/>
<polygon fill="midnightblue" stroke="midnightblue" points="344.222,-147.614 334.071,-150.646 343.897,-154.606 344.222,-147.614"/>
</g>
<!-- Node5 -->
<g id="node5" class="node"><title>Node5</title>
<g id="a_node5"><a xlink:href="../../d1/dc7/classview_1_1_side_bar.html#ac9876e2d91b1407105ca9e7869ef4057" target="_top" xlink:title="view.SideBar.createTurtle\lPropertiesTable">
<polygon fill="white" stroke="black" points="376.5,-233.482 376.5,-263.482 511.5,-263.482 511.5,-233.482 376.5,-233.482"/>
<text text-anchor="start" x="384.5" y="-251.482" font-family="Helvetica,sans-Serif" font-size="10.00">view.SideBar.createTurtle</text>
<text text-anchor="middle" x="444" y="-240.482" font-family="Helvetica,sans-Serif" font-size="10.00">PropertiesTable</text>
</a>
</g>
</g>
<!-- Node2&#45;&gt;Node5 -->
<g id="edge4" class="edge"><title>Node2&#45;&gt;Node5</title>
<path fill="none" stroke="midnightblue" d="M293.733,-168.777C314.124,-183.837 342.891,-203.867 370,-218.482 380.131,-223.945 391.473,-229.052 402.141,-233.45"/>
<polygon fill="midnightblue" stroke="midnightblue" points="295.644,-165.835 285.537,-162.657 291.456,-171.444 295.644,-165.835"/>
</g>
<!-- Node7 -->
<g id="node7" class="node"><title>Node7</title>
<g id="a_node7"><a xlink:href="../../de/d0a/classview_1_1_drawer.html#a6b9f362b8bc763689630b1fe7b5c1887" target="_top" xlink:title="view.Drawer.draw">
<polygon fill="white" stroke="black" points="395,-118.982 395,-137.982 493,-137.982 493,-118.982 395,-118.982"/>
<text text-anchor="middle" x="444" y="-125.982" font-family="Helvetica,sans-Serif" font-size="10.00">view.Drawer.draw</text>
</a>
</g>
</g>
<!-- Node2&#45;&gt;Node7 -->
<g id="edge6" class="edge"><title>Node2&#45;&gt;Node7</title>
<path fill="none" stroke="midnightblue" d="M344.251,-139.083C361.493,-137.232 379.261,-135.325 394.89,-133.647"/>
<polygon fill="midnightblue" stroke="midnightblue" points="343.749,-135.616 334.18,-140.164 344.496,-142.576 343.749,-135.616"/>
</g>
<!-- Node10 -->
<g id="node10" class="node"><title>Node10</title>
<g id="a_node10"><a xlink:href="../../da/d64/classview_1_1_workspace.html#a16bda9a6a7fe7f8d3d7b09108675f9c4" target="_top" xlink:title="view.Workspace.setActive\lTurtle">
<polygon fill="white" stroke="black" points="375.5,-282.482 375.5,-312.482 512.5,-312.482 512.5,-282.482 375.5,-282.482"/>
<text text-anchor="start" x="383.5" y="-300.482" font-family="Helvetica,sans-Serif" font-size="10.00">view.Workspace.setActive</text>
<text text-anchor="middle" x="444" y="-289.482" font-family="Helvetica,sans-Serif" font-size="10.00">Turtle</text>
</a>
</g>
</g>
<!-- Node2&#45;&gt;Node10 -->
<g id="edge10" class="edge"><title>Node2&#45;&gt;Node10</title>
<path fill="none" stroke="midnightblue" d="M280.288,-171.647C298.011,-199.657 330.737,-245.425 370,-272.482 375.515,-276.283 381.661,-279.553 387.98,-282.354"/>
<polygon fill="midnightblue" stroke="midnightblue" points="283.103,-169.544 274.865,-162.881 277.15,-173.227 283.103,-169.544"/>
</g>
<!-- Node17 -->
<g id="node17" class="node"><title>Node17</title>
<g id="a_node17"><a xlink:href="../../d6/de7/classview_1_1_s_logo_view.html#ae7ad67f4b629b134cb805842a20f4050" target="_top" xlink:title="view.SLogoView.setHeading">
<polygon fill="white" stroke="black" points="370,-39.9825 370,-58.9825 518,-58.9825 518,-39.9825 370,-39.9825"/>
<text text-anchor="middle" x="444" y="-46.9825" font-family="Helvetica,sans-Serif" font-size="10.00">view.SLogoView.setHeading</text>
</a>
</g>
</g>
<!-- Node2&#45;&gt;Node17 -->
<g id="edge17" class="edge"><title>Node2&#45;&gt;Node17</title>
<path fill="none" stroke="midnightblue" d="M289.225,-125.499C309.197,-107.718 339.526,-83.2831 370,-68.4825 377.893,-64.6492 386.654,-61.521 395.289,-58.9913"/>
<polygon fill="midnightblue" stroke="midnightblue" points="286.642,-123.117 281.586,-132.427 291.344,-128.302 286.642,-123.117"/>
</g>
<!-- Node19 -->
<g id="node19" class="node"><title>Node19</title>
<g id="a_node19"><a xlink:href="../../d6/de7/classview_1_1_s_logo_view.html#a978a65a0b82bac25044f7e2816a680cc" target="_top" xlink:title="view.SLogoView.setPenUp">
<polygon fill="white" stroke="black" points="573,-0.982478 573,-19.9825 713,-19.9825 713,-0.982478 573,-0.982478"/>
<text text-anchor="middle" x="643" y="-7.98248" font-family="Helvetica,sans-Serif" font-size="10.00">view.SLogoView.setPenUp</text>
</a>
</g>
</g>
<!-- Node2&#45;&gt;Node19 -->
<g id="edge20" class="edge"><title>Node2&#45;&gt;Node19</title>
<path fill="none" stroke="midnightblue" d="M279.359,-123.573C296.381,-95.7207 328.624,-50.9192 370,-30.4825 433.468,0.865952 515.57,2.42115 572.896,-1.71032"/>
<polygon fill="midnightblue" stroke="midnightblue" points="276.269,-121.923 274.179,-132.309 282.29,-125.493 276.269,-121.923"/>
</g>
<!-- Node20 -->
<g id="node20" class="node"><title>Node20</title>
<g id="a_node20"><a xlink:href="../../d6/de7/classview_1_1_s_logo_view.html#a0948ea67bfc088f941e2af79727231ad" target="_top" xlink:title="view.SLogoView.setXY">
<polygon fill="white" stroke="black" points="788.5,-202.982 788.5,-221.982 907.5,-221.982 907.5,-202.982 788.5,-202.982"/>
<text text-anchor="middle" x="848" y="-209.982" font-family="Helvetica,sans-Serif" font-size="10.00">view.SLogoView.setXY</text>
</a>
</g>
</g>
<!-- Node2&#45;&gt;Node20 -->
<g id="edge22" class="edge"><title>Node2&#45;&gt;Node20</title>
<path fill="none" stroke="midnightblue" d="M337.49,-164.57C348.339,-166.792 359.435,-168.856 370,-170.482 519.746,-193.534 698.033,-205.05 788.33,-209.773"/>
<polygon fill="midnightblue" stroke="midnightblue" points="338.125,-161.127 327.619,-162.493 336.684,-167.977 338.125,-161.127"/>
</g>
<!-- Node21 -->
<g id="node21" class="node"><title>Node21</title>
<g id="a_node21"><a xlink:href="../../d6/de7/classview_1_1_s_logo_view.html#a00710838e28dcb10fe6da3c0ec0c4e20" target="_top" xlink:title="view.SLogoView.showTurtle">
<polygon fill="white" stroke="black" points="372.5,-77.9825 372.5,-96.9825 515.5,-96.9825 515.5,-77.9825 372.5,-77.9825"/>
<text text-anchor="middle" x="444" y="-84.9825" font-family="Helvetica,sans-Serif" font-size="10.00">view.SLogoView.showTurtle</text>
</a>
</g>
</g>
<!-- Node2&#45;&gt;Node21 -->
<g id="edge24" class="edge"><title>Node2&#45;&gt;Node21</title>
<path fill="none" stroke="midnightblue" d="M315.624,-128.69C332.774,-122.372 352.162,-115.424 370,-109.482 382.935,-105.174 397.279,-100.771 409.804,-97.0475"/>
<polygon fill="midnightblue" stroke="midnightblue" points="313.975,-125.569 305.814,-132.325 316.407,-132.133 313.975,-125.569"/>
</g>
<!-- Node4 -->
<g id="node4" class="node"><title>Node4</title>
<g id="a_node4"><a xlink:href="../../d1/dd3/classmodel_1_1instructions_1_1_movement_instruction.html#a33e802cec8283d190a8daac6e485e3b4" target="_top" xlink:title="model.instructions.Movement\lInstruction.execute">
<polygon fill="white" stroke="black" points="964.5,-93.4825 964.5,-123.482 1123.5,-123.482 1123.5,-93.4825 964.5,-93.4825"/>
<text text-anchor="start" x="972.5" y="-111.482" font-family="Helvetica,sans-Serif" font-size="10.00">model.instructions.Movement</text>
<text text-anchor="middle" x="1044" y="-100.482" font-family="Helvetica,sans-Serif" font-size="10.00">Instruction.execute</text>
</a>
</g>
</g>
<!-- Node3&#45;&gt;Node4 -->
<g id="edge3" class="edge"><title>Node3&#45;&gt;Node4</title>
<path fill="none" stroke="midnightblue" d="M900.86,-162.4C909.965,-159.982 919.305,-157.308 928,-154.482 955.608,-145.51 986.079,-133.208 1008.72,-123.584"/>
<polygon fill="midnightblue" stroke="midnightblue" points="899.921,-159.028 891.115,-164.919 901.673,-165.805 899.921,-159.028"/>
</g>
<!-- Node6 -->
<g id="node6" class="node"><title>Node6</title>
<g id="a_node6"><a xlink:href="../../d1/dc7/classview_1_1_side_bar.html#a715c3a21f73e8d1e00b8f4016a0e3c1d" target="_top" xlink:title="view.SideBar.SideBar">
<polygon fill="white" stroke="black" points="585,-238.982 585,-257.982 701,-257.982 701,-238.982 585,-238.982"/>
<text text-anchor="middle" x="643" y="-245.982" font-family="Helvetica,sans-Serif" font-size="10.00">view.SideBar.SideBar</text>
</a>
</g>
</g>
<!-- Node5&#45;&gt;Node6 -->
<g id="edge5" class="edge"><title>Node5&#45;&gt;Node6</title>
<path fill="none" stroke="midnightblue" d="M521.872,-248.482C542.865,-248.482 565.236,-248.482 584.912,-248.482"/>
<polygon fill="midnightblue" stroke="midnightblue" points="521.695,-244.983 511.695,-248.482 521.695,-251.983 521.695,-244.983"/>
</g>
<!-- Node8 -->
<g id="node8" class="node"><title>Node8</title>
<g id="a_node8"><a xlink:href="../../d6/de7/classview_1_1_s_logo_view.html#a513d723c883c5b96c9fdf1f16f829bc8" target="_top" xlink:title="view.SLogoView.updateWorkspace">
<polygon fill="white" stroke="black" points="554,-118.982 554,-137.982 732,-137.982 732,-118.982 554,-118.982"/>
<text text-anchor="middle" x="643" y="-125.982" font-family="Helvetica,sans-Serif" font-size="10.00">view.SLogoView.updateWorkspace</text>
</a>
</g>
</g>
<!-- Node7&#45;&gt;Node8 -->
<g id="edge7" class="edge"><title>Node7&#45;&gt;Node8</title>
<path fill="none" stroke="midnightblue" d="M503.364,-128.482C519.244,-128.482 536.804,-128.482 553.938,-128.482"/>
<polygon fill="midnightblue" stroke="midnightblue" points="503.192,-124.983 493.192,-128.482 503.192,-131.983 503.192,-124.983"/>
</g>
<!-- Node9 -->
<g id="node9" class="node"><title>Node9</title>
<g id="a_node9"><a xlink:href="../../d1/dd3/classmodel_1_1instructions_1_1_movement_instruction.html#a51c776093aeb820937b12e2b89eb2f89" target="_top" xlink:title="model.instructions.Movement\lInstruction.updateView">
<polygon fill="white" stroke="black" points="768.5,-115.482 768.5,-145.482 927.5,-145.482 927.5,-115.482 768.5,-115.482"/>
<text text-anchor="start" x="776.5" y="-133.482" font-family="Helvetica,sans-Serif" font-size="10.00">model.instructions.Movement</text>
<text text-anchor="middle" x="848" y="-122.482" font-family="Helvetica,sans-Serif" font-size="10.00">Instruction.updateView</text>
</a>
</g>
</g>
<!-- Node8&#45;&gt;Node9 -->
<g id="edge8" class="edge"><title>Node8&#45;&gt;Node9</title>
<path fill="none" stroke="midnightblue" d="M742.4,-129.452C751.155,-129.538 759.94,-129.625 768.495,-129.709"/>
<polygon fill="midnightblue" stroke="midnightblue" points="742.187,-125.95 732.153,-129.351 742.118,-132.949 742.187,-125.95"/>
</g>
<!-- Node9&#45;&gt;Node4 -->
<g id="edge9" class="edge"><title>Node9&#45;&gt;Node4</title>
<path fill="none" stroke="midnightblue" d="M937.608,-120.434C946.498,-119.426 955.483,-118.407 964.26,-117.412"/>
<polygon fill="midnightblue" stroke="midnightblue" points="937.169,-116.961 927.628,-121.566 937.958,-123.917 937.169,-116.961"/>
</g>
<!-- Node11 -->
<g id="node11" class="node"><title>Node11</title>
<g id="a_node11"><a xlink:href="../../da/d64/classview_1_1_workspace.html#a9eea72f983d5e7ad5af85056d927e380" target="_top" xlink:title="view.Workspace.configure\lTurtleEventHandler">
<polygon fill="white" stroke="black" points="574.5,-282.482 574.5,-312.482 711.5,-312.482 711.5,-282.482 574.5,-282.482"/>
<text text-anchor="start" x="582.5" y="-300.482" font-family="Helvetica,sans-Serif" font-size="10.00">view.Workspace.configure</text>
<text text-anchor="middle" x="643" y="-289.482" font-family="Helvetica,sans-Serif" font-size="10.00">TurtleEventHandler</text>
</a>
</g>
</g>
<!-- Node10&#45;&gt;Node11 -->
<g id="edge11" class="edge"><title>Node10&#45;&gt;Node11</title>
<path fill="none" stroke="midnightblue" d="M522.949,-297.482C539.904,-297.482 557.71,-297.482 574.233,-297.482"/>
<polygon fill="midnightblue" stroke="midnightblue" points="522.521,-293.983 512.521,-297.482 522.521,-300.983 522.521,-293.983"/>
</g>
<!-- Node12 -->
<g id="node12" class="node"><title>Node12</title>
<g id="a_node12"><a xlink:href="../../da/d64/classview_1_1_workspace.html#af0ba64ced4d2d687a50503c4eb1a59a0" target="_top" xlink:title="view.Workspace.Workspace">
<polygon fill="white" stroke="black" points="776,-268.982 776,-287.982 920,-287.982 920,-268.982 776,-268.982"/>
<text text-anchor="middle" x="848" y="-275.982" font-family="Helvetica,sans-Serif" font-size="10.00">view.Workspace.Workspace</text>
</a>
</g>
</g>
<!-- Node11&#45;&gt;Node12 -->
<g id="edge12" class="edge"><title>Node11&#45;&gt;Node12</title>
<path fill="none" stroke="midnightblue" d="M721.911,-290.19C739.659,-288.529 758.426,-286.773 775.873,-285.14"/>
<polygon fill="midnightblue" stroke="midnightblue" points="721.226,-286.739 711.596,-291.156 721.879,-293.709 721.226,-286.739"/>
</g>
<!-- Node13 -->
<g id="node13" class="node"><title>Node13</title>
<g id="a_node13"><a xlink:href="../../da/d64/classview_1_1_workspace.html#a58b943798f78aa9414a854dcd54fa7ae" target="_top" xlink:title="view.Workspace.addTurtle">
<polygon fill="white" stroke="black" points="779.5,-306.982 779.5,-325.982 916.5,-325.982 916.5,-306.982 779.5,-306.982"/>
<text text-anchor="middle" x="848" y="-313.982" font-family="Helvetica,sans-Serif" font-size="10.00">view.Workspace.addTurtle</text>
</a>
</g>
</g>
<!-- Node11&#45;&gt;Node13 -->
<g id="edge13" class="edge"><title>Node11&#45;&gt;Node13</title>
<path fill="none" stroke="midnightblue" d="M721.706,-304.755C740.7,-306.533 760.872,-308.421 779.353,-310.151"/>
<polygon fill="midnightblue" stroke="midnightblue" points="721.879,-301.256 711.596,-303.809 721.226,-308.226 721.879,-301.256"/>
</g>
<!-- Node14 -->
<g id="node14" class="node"><title>Node14</title>
<g id="a_node14"><a xlink:href="../../d6/de7/classview_1_1_s_logo_view.html#acf432f20e1a7dda7bef97f0619fb0fa5" target="_top" xlink:title="view.SLogoView.configure\lAddTurtlesButton">
<polygon fill="white" stroke="black" points="975.5,-301.482 975.5,-331.482 1112.5,-331.482 1112.5,-301.482 975.5,-301.482"/>
<text text-anchor="start" x="983.5" y="-319.482" font-family="Helvetica,sans-Serif" font-size="10.00">view.SLogoView.configure</text>
<text text-anchor="middle" x="1044" y="-308.482" font-family="Helvetica,sans-Serif" font-size="10.00">AddTurtlesButton</text>
</a>
</g>
</g>
<!-- Node13&#45;&gt;Node14 -->
<g id="edge14" class="edge"><title>Node13&#45;&gt;Node14</title>
<path fill="none" stroke="midnightblue" d="M926.979,-316.482C942.99,-316.482 959.722,-316.482 975.334,-316.482"/>
<polygon fill="midnightblue" stroke="midnightblue" points="926.579,-312.983 916.579,-316.482 926.579,-319.983 926.579,-312.983"/>
</g>
<!-- Node15 -->
<g id="node15" class="node"><title>Node15</title>
<g id="a_node15"><a xlink:href="../../d6/de7/classview_1_1_s_logo_view.html#a28dff1b9cd475d579a4c7a108f4420e6" target="_top" xlink:title="view.SLogoView.configureUI">
<polygon fill="white" stroke="black" points="1160.5,-306.982 1160.5,-325.982 1307.5,-325.982 1307.5,-306.982 1160.5,-306.982"/>
<text text-anchor="middle" x="1234" y="-313.982" font-family="Helvetica,sans-Serif" font-size="10.00">view.SLogoView.configureUI</text>
</a>
</g>
</g>
<!-- Node14&#45;&gt;Node15 -->
<g id="edge15" class="edge"><title>Node14&#45;&gt;Node15</title>
<path fill="none" stroke="midnightblue" d="M1122.89,-316.482C1135.27,-316.482 1148.02,-316.482 1160.27,-316.482"/>
<polygon fill="midnightblue" stroke="midnightblue" points="1122.61,-312.983 1112.61,-316.482 1122.61,-319.983 1122.61,-312.983"/>
</g>
<!-- Node16 -->
<g id="node16" class="node"><title>Node16</title>
<g id="a_node16"><a xlink:href="../../d6/de7/classview_1_1_s_logo_view.html#a94773ea5b6d67211bad051bb0aa42e3e" target="_top" xlink:title="view.SLogoView.SLogoView">
<polygon fill="white" stroke="black" points="1344.5,-306.982 1344.5,-325.982 1489.5,-325.982 1489.5,-306.982 1344.5,-306.982"/>
<text text-anchor="middle" x="1417" y="-313.982" font-family="Helvetica,sans-Serif" font-size="10.00">view.SLogoView.SLogoView</text>
</a>
</g>
</g>
<!-- Node15&#45;&gt;Node16 -->
<g id="edge16" class="edge"><title>Node15&#45;&gt;Node16</title>
<path fill="none" stroke="midnightblue" d="M1317.58,-316.482C1326.5,-316.482 1335.52,-316.482 1344.29,-316.482"/>
<polygon fill="midnightblue" stroke="midnightblue" points="1317.58,-312.983 1307.58,-316.482 1317.58,-319.983 1317.58,-312.983"/>
</g>
<!-- Node18 -->
<g id="node18" class="node"><title>Node18</title>
<g id="a_node18"><a xlink:href="../../d6/de7/classview_1_1_s_logo_view.html#afa2b659c4d080b5f927978b453633ab2" target="_top" xlink:title="view.SLogoView.towards">
<polygon fill="white" stroke="black" points="577.5,-38.9825 577.5,-57.9825 708.5,-57.9825 708.5,-38.9825 577.5,-38.9825"/>
<text text-anchor="middle" x="643" y="-45.9825" font-family="Helvetica,sans-Serif" font-size="10.00">view.SLogoView.towards</text>
</a>
</g>
</g>
<!-- Node17&#45;&gt;Node18 -->
<g id="edge18" class="edge"><title>Node17&#45;&gt;Node18</title>
<path fill="none" stroke="midnightblue" d="M528.235,-49.06C544.7,-48.9764 561.748,-48.8898 577.479,-48.81"/>
<polygon fill="midnightblue" stroke="midnightblue" points="528.058,-45.5607 518.076,-49.1115 528.093,-52.5606 528.058,-45.5607"/>
</g>
<!-- Node18&#45;&gt;Node4 -->
<g id="edge19" class="edge"><title>Node18&#45;&gt;Node4</title>
<path fill="none" stroke="midnightblue" d="M718.682,-50.333C776.32,-52.8324 857.805,-58.7026 928,-72.4825 953.25,-77.4394 980.785,-85.9436 1002.58,-93.4421"/>
<polygon fill="midnightblue" stroke="midnightblue" points="718.701,-46.8309 708.566,-49.9183 718.414,-53.825 718.701,-46.8309"/>
</g>
<!-- Node19&#45;&gt;Node4 -->
<g id="edge21" class="edge"><title>Node19&#45;&gt;Node4</title>
<path fill="none" stroke="midnightblue" d="M723.263,-14.6919C781.085,-19.4242 860.763,-29.4238 928,-50.4825 961.075,-60.8416 996.256,-79.9188 1018.87,-93.3595"/>
<polygon fill="midnightblue" stroke="midnightblue" points="723.334,-11.1869 713.092,-13.8953 722.788,-18.1655 723.334,-11.1869"/>
</g>
<!-- Node20&#45;&gt;Node4 -->
<g id="edge23" class="edge"><title>Node20&#45;&gt;Node4</title>
<path fill="none" stroke="midnightblue" d="M911.478,-199.96C917.169,-198.075 922.758,-195.926 928,-193.482 966.928,-175.333 1005.76,-142.896 1026.85,-123.77"/>
<polygon fill="midnightblue" stroke="midnightblue" points="910.397,-196.63 901.848,-202.889 912.434,-203.327 910.397,-196.63"/>
</g>
<!-- Node21&#45;&gt;Node4 -->
<g id="edge25" class="edge"><title>Node21&#45;&gt;Node4</title>
<path fill="none" stroke="midnightblue" d="M525.808,-90.3202C640.9,-94.3619 850.664,-101.728 964.483,-105.725"/>
<polygon fill="midnightblue" stroke="midnightblue" points="525.768,-86.8168 515.651,-89.9636 525.522,-93.8124 525.768,-86.8168"/>
</g>
</g>
</svg>
        <g id="navigator" transform="translate(0 0)" fill="#404254">
                <rect fill="#f2f5e9" fill-opacity="0.5" stroke="#606060" stroke-width=".5" x="0" y="0" width="60" height="60"/>
                <use id="zoomplus" xlink:href="#zoomPlus" x="17" y="9" onmousedown="handleZoom(evt,'in')"/>
                <use id="zoomminus" xlink:href="#zoomMin" x="42" y="9" onmousedown="handleZoom(evt,'out')"/>
                <use id="reset" xlink:href="#resetDef" x="30" y="36" onmousedown="handleReset()"/>
                <g id="arrowUp" xlink:href="#dirArrow" transform="translate(30 24)" onmousedown="handlePan(0,-1)">
                  <use xlink:href="#rim" fill="#404040">
                        <set attributeName="fill" to="#808080" begin="arrowUp.mouseover" end="arrowUp.mouseout"/>
                  </use>
                  <path fill="none" stroke="white" stroke-width="1.5" d="M0,-3.0v7 M-2.5,-0.5L0,-3.0L2.5,-0.5"/>
                </g>
                <g id="arrowRight" xlink:href="#dirArrow" transform="rotate(90) translate(36 -43)" onmousedown="handlePan(1,0)">
                  <use xlink:href="#rim" fill="#404040">
                        <set attributeName="fill" to="#808080" begin="arrowRight.mouseover" end="arrowRight.mouseout"/>
                  </use>
                  <path fill="none" stroke="white" stroke-width="1.5" d="M0,-3.0v7 M-2.5,-0.5L0,-3.0L2.5,-0.5"/>
                </g>
                <g id="arrowDown" xlink:href="#dirArrow" transform="rotate(180) translate(-30 -48)" onmousedown="handlePan(0,1)">
                  <use xlink:href="#rim" fill="#404040">
                        <set attributeName="fill" to="#808080" begin="arrowDown.mouseover" end="arrowDown.mouseout"/>
                  </use>
                  <path fill="none" stroke="white" stroke-width="1.5" d="M0,-3.0v7 M-2.5,-0.5L0,-3.0L2.5,-0.5"/>
                </g>
                <g id="arrowLeft" xlink:href="#dirArrow" transform="rotate(270) translate(-36 17)" onmousedown="handlePan(-1,0)">
                  <use xlink:href="#rim" fill="#404040">
                        <set attributeName="fill" to="#808080" begin="arrowLeft.mouseover" end="arrowLeft.mouseout"/>
                  </use>
                  <path fill="none" stroke="white" stroke-width="1.5" d="M0,-3.0v7 M-2.5,-0.5L0,-3.0L2.5,-0.5"/>
                </g>
        </g>
        <svg viewBox="0 0 15 15" width="100%" height="30px" preserveAspectRatio="xMaxYMin meet">
         <g id="arrow_out" transform="scale(0.3 0.3)">
          <a xlink:href="classview_1_1_turtle_view_a85b9acc922cc69f27c79bf13e3356e09_icgraph_org.svg" target="_base">
           <rect id="button" ry="5" rx="5" y="6" x="6" height="38" width="38"
                fill="#f2f5e9" fill-opacity="0.5" stroke="#606060" stroke-width="1.0"/>
           <path id="arrow"
             d="M 11.500037,31.436501 C 11.940474,20.09759 22.043105,11.32322 32.158766,21.979434 L 37.068811,17.246167 C 37.068811,17.246167 37.088388,32 37.088388,32 L 22.160133,31.978069 C 22.160133,31.978069 26.997745,27.140456 26.997745,27.140456 C 18.528582,18.264221 13.291696,25.230495 11.500037,31.436501 z"
             style="fill:#404040;"/>
          </a>
         </g>
        </svg>
</svg>
