<?xml version="1.0" encoding="UTF-8" standalone="no"?>
<!DOCTYPE svg PUBLIC "-//W3C//DTD SVG 1.1//EN"
 "http://www.w3.org/Graphics/SVG/1.1/DTD/svg11.dtd">
<!-- Generated by graphviz version 2.36.0 (20140111.2315)
 -->
<!-- Title: view.TurtleView.getID Pages: 1 -->
<svg width="2218pt" height="333pt"
 viewBox="0.00 0.00 2218.00 333.00" xmlns="http://www.w3.org/2000/svg" xmlns:xlink="http://www.w3.org/1999/xlink">
<g id="graph0" class="graph" transform="scale(1 1) rotate(0) translate(4 329)">
<title>view.TurtleView.getID</title>
<polygon fill="white" stroke="none" points="-4,4 -4,-329 2214,-329 2214,4 -4,4"/>
<!-- Node1 -->
<g id="node1" class="node"><title>Node1</title>
<polygon fill="#bfbfbf" stroke="black" points="0,-223.5 0,-242.5 114,-242.5 114,-223.5 0,-223.5"/>
<text text-anchor="middle" x="57" y="-230.5" font-family="Helvetica,sans-Serif" font-size="10.00">view.TurtleView.getID</text>
</g>
<!-- Node2 -->
<g id="node2" class="node"><title>Node2</title>
<g id="a_node2"><a xlink:href="../../da/d64/classview_1_1_workspace.html#a9eea72f983d5e7ad5af85056d927e380" target="_top" xlink:title="view.Workspace.configure\lTurtleEventHandler">
<polygon fill="white" stroke="black" points="528.5,-281 528.5,-311 665.5,-311 665.5,-281 528.5,-281"/>
<text text-anchor="start" x="536.5" y="-299" font-family="Helvetica,sans-Serif" font-size="10.00">view.Workspace.configure</text>
<text text-anchor="middle" x="597" y="-288" font-family="Helvetica,sans-Serif" font-size="10.00">TurtleEventHandler</text>
</a>
</g>
</g>
<!-- Node1&#45;&gt;Node2 -->
<g id="edge1" class="edge"><title>Node1&#45;&gt;Node2</title>
<path fill="none" stroke="midnightblue" d="M118.863,-244.384C172.642,-254.072 253.29,-267.701 324,-276 393.482,-284.155 473.365,-289.559 528.498,-292.67"/>
<polygon fill="midnightblue" stroke="midnightblue" points="119.274,-240.901 108.81,-242.562 118.026,-247.789 119.274,-240.901"/>
</g>
<!-- Node13 -->
<g id="node13" class="node"><title>Node13</title>
<g id="a_node13"><a xlink:href="../../d1/dc7/classview_1_1_side_bar.html#a7d73038dbba05f96990b60664afa2670" target="_top" xlink:title="view.SideBar.updateTurtle\lProperties">
<polygon fill="white" stroke="black" points="150,-136 150,-166 288,-166 288,-136 150,-136"/>
<text text-anchor="start" x="158" y="-154" font-family="Helvetica,sans-Serif" font-size="10.00">view.SideBar.updateTurtle</text>
<text text-anchor="middle" x="219" y="-143" font-family="Helvetica,sans-Serif" font-size="10.00">Properties</text>
</a>
</g>
</g>
<!-- Node1&#45;&gt;Node13 -->
<g id="edge13" class="edge"><title>Node1&#45;&gt;Node13</title>
<path fill="none" stroke="midnightblue" d="M85.7603,-218.773C114.516,-204.036 159.273,-181.098 188.614,-166.06"/>
<polygon fill="midnightblue" stroke="midnightblue" points="83.9702,-215.757 76.6672,-223.433 87.1629,-221.987 83.9702,-215.757"/>
</g>
<!-- Node3 -->
<g id="node3" class="node"><title>Node3</title>
<g id="a_node3"><a xlink:href="../../da/d64/classview_1_1_workspace.html#a58b943798f78aa9414a854dcd54fa7ae" target="_top" xlink:title="view.Workspace.addTurtle">
<polygon fill="white" stroke="black" points="733.5,-286.5 733.5,-305.5 870.5,-305.5 870.5,-286.5 733.5,-286.5"/>
<text text-anchor="middle" x="802" y="-293.5" font-family="Helvetica,sans-Serif" font-size="10.00">view.Workspace.addTurtle</text>
</a>
</g>
</g>
<!-- Node2&#45;&gt;Node3 -->
<g id="edge2" class="edge"><title>Node2&#45;&gt;Node3</title>
<path fill="none" stroke="midnightblue" d="M675.706,-296C694.7,-296 714.872,-296 733.353,-296"/>
<polygon fill="midnightblue" stroke="midnightblue" points="675.596,-292.5 665.596,-296 675.596,-299.5 675.596,-292.5"/>
</g>
<!-- Node4 -->
<g id="node4" class="node"><title>Node4</title>
<g id="a_node4"><a xlink:href="../../d6/de7/classview_1_1_s_logo_view.html#acf432f20e1a7dda7bef97f0619fb0fa5" target="_top" xlink:title="view.SLogoView.configure\lAddTurtlesButton">
<polygon fill="white" stroke="black" points="929.5,-281 929.5,-311 1066.5,-311 1066.5,-281 929.5,-281"/>
<text text-anchor="start" x="937.5" y="-299" font-family="Helvetica,sans-Serif" font-size="10.00">view.SLogoView.configure</text>
<text text-anchor="middle" x="998" y="-288" font-family="Helvetica,sans-Serif" font-size="10.00">AddTurtlesButton</text>
</a>
</g>
</g>
<!-- Node3&#45;&gt;Node4 -->
<g id="edge3" class="edge"><title>Node3&#45;&gt;Node4</title>
<path fill="none" stroke="midnightblue" d="M880.979,-296C896.99,-296 913.722,-296 929.334,-296"/>
<polygon fill="midnightblue" stroke="midnightblue" points="880.579,-292.5 870.579,-296 880.579,-299.5 880.579,-292.5"/>
</g>
<!-- Node12 -->
<g id="node12" class="node"><title>Node12</title>
<g id="a_node12"><a xlink:href="../../da/d64/classview_1_1_workspace.html#abbd85b844575ebab6643ba4ddc5a1612" target="_top" xlink:title="view.Workspace.Workspace">
<polygon fill="white" stroke="black" points="926,-242.5 926,-261.5 1070,-261.5 1070,-242.5 926,-242.5"/>
<text text-anchor="middle" x="998" y="-249.5" font-family="Helvetica,sans-Serif" font-size="10.00">view.Workspace.Workspace</text>
</a>
</g>
</g>
<!-- Node3&#45;&gt;Node12 -->
<g id="edge12" class="edge"><title>Node3&#45;&gt;Node12</title>
<path fill="none" stroke="midnightblue" d="M854.957,-284.216C886.274,-277.113 925.643,-268.184 954.987,-261.529"/>
<polygon fill="midnightblue" stroke="midnightblue" points="854.073,-280.827 845.095,-286.453 855.622,-287.654 854.073,-280.827"/>
</g>
<!-- Node5 -->
<g id="node5" class="node"><title>Node5</title>
<g id="a_node5"><a xlink:href="../../d6/de7/classview_1_1_s_logo_view.html#ae0050481c9168dd8eeb434d9aa79b047" target="_top" xlink:title="view.SLogoView.configureUI">
<polygon fill="white" stroke="black" points="1114.5,-286.5 1114.5,-305.5 1261.5,-305.5 1261.5,-286.5 1114.5,-286.5"/>
<text text-anchor="middle" x="1188" y="-293.5" font-family="Helvetica,sans-Serif" font-size="10.00">view.SLogoView.configureUI</text>
</a>
</g>
</g>
<!-- Node4&#45;&gt;Node5 -->
<g id="edge4" class="edge"><title>Node4&#45;&gt;Node5</title>
<path fill="none" stroke="midnightblue" d="M1076.89,-296C1089.27,-296 1102.02,-296 1114.27,-296"/>
<polygon fill="midnightblue" stroke="midnightblue" points="1076.61,-292.5 1066.61,-296 1076.61,-299.5 1076.61,-292.5"/>
</g>
<!-- Node6 -->
<g id="node6" class="node"><title>Node6</title>
<g id="a_node6"><a xlink:href="../../d1/d75/classview_1_1_main_view.html#ade3718ede33fa2086649c8b3cf75d2f9" target="_top" xlink:title="view.MainView.initTabs">
<polygon fill="white" stroke="black" points="1479.5,-305.5 1479.5,-324.5 1600.5,-324.5 1600.5,-305.5 1479.5,-305.5"/>
<text text-anchor="middle" x="1540" y="-312.5" font-family="Helvetica,sans-Serif" font-size="10.00">view.MainView.initTabs</text>
</a>
</g>
</g>
<!-- Node5&#45;&gt;Node6 -->
<g id="edge5" class="edge"><title>Node5&#45;&gt;Node6</title>
<path fill="none" stroke="midnightblue" d="M1271.56,-300.482C1335.37,-303.946 1422.18,-308.658 1479.36,-311.762"/>
<polygon fill="midnightblue" stroke="midnightblue" points="1271.7,-296.984 1261.52,-299.937 1271.32,-303.974 1271.7,-296.984"/>
</g>
<!-- Node8 -->
<g id="node8" class="node"><title>Node8</title>
<g id="a_node8"><a xlink:href="../../d1/d75/classview_1_1_main_view.html#a39a2b399924a553ccd89dd2a2e6ea208" target="_top" xlink:title="view.MainView.newTab">
<polygon fill="white" stroke="black" points="1298,-267.5 1298,-286.5 1418,-286.5 1418,-267.5 1298,-267.5"/>
<text text-anchor="middle" x="1358" y="-274.5" font-family="Helvetica,sans-Serif" font-size="10.00">view.MainView.newTab</text>
</a>
</g>
</g>
<!-- Node5&#45;&gt;Node8 -->
<g id="edge7" class="edge"><title>Node5&#45;&gt;Node8</title>
<path fill="none" stroke="midnightblue" d="M1271.65,-286.652C1280.49,-285.653 1289.34,-284.652 1297.82,-283.693"/>
<polygon fill="midnightblue" stroke="midnightblue" points="1271.25,-283.175 1261.71,-287.777 1272.04,-290.131 1271.25,-283.175"/>
</g>
<!-- Node7 -->
<g id="node7" class="node"><title>Node7</title>
<g id="a_node7"><a xlink:href="../../d1/d75/classview_1_1_main_view.html#a9e27015c007bed90f32c79fc1187083f" target="_top" xlink:title="view.MainView.MainView">
<polygon fill="white" stroke="black" points="2080,-286.5 2080,-305.5 2210,-305.5 2210,-286.5 2080,-286.5"/>
<text text-anchor="middle" x="2145" y="-293.5" font-family="Helvetica,sans-Serif" font-size="10.00">view.MainView.MainView</text>
</a>
</g>
</g>
<!-- Node6&#45;&gt;Node7 -->
<g id="edge6" class="edge"><title>Node6&#45;&gt;Node7</title>
<path fill="none" stroke="midnightblue" d="M1610.74,-312.803C1728.6,-309.089 1965.48,-301.625 2079.62,-298.029"/>
<polygon fill="midnightblue" stroke="midnightblue" points="1610.63,-309.304 1600.75,-313.117 1610.85,-316.301 1610.63,-309.304"/>
</g>
<!-- Node9 -->
<g id="node9" class="node"><title>Node9</title>
<g id="a_node9"><a xlink:href="../../d1/d75/classview_1_1_main_view.html#a0424800b5057be73f94e16ef2e1e2b33" target="_top" xlink:title="view.MainView.configureFileMenu">
<polygon fill="white" stroke="black" points="1454.5,-267.5 1454.5,-286.5 1625.5,-286.5 1625.5,-267.5 1454.5,-267.5"/>
<text text-anchor="middle" x="1540" y="-274.5" font-family="Helvetica,sans-Serif" font-size="10.00">view.MainView.configureFileMenu</text>
</a>
</g>
</g>
<!-- Node8&#45;&gt;Node9 -->
<g id="edge8" class="edge"><title>Node8&#45;&gt;Node9</title>
<path fill="none" stroke="midnightblue" d="M1428.55,-277C1436.96,-277 1445.62,-277 1454.22,-277"/>
<polygon fill="midnightblue" stroke="midnightblue" points="1428.44,-273.5 1418.44,-277 1428.44,-280.5 1428.44,-273.5"/>
</g>
<!-- Node10 -->
<g id="node10" class="node"><title>Node10</title>
<g id="a_node10"><a xlink:href="../../d1/d75/classview_1_1_main_view.html#a200c2c8e08e038e2ea86acc40c17d8d2" target="_top" xlink:title="view.MainView.configureTopMenu">
<polygon fill="white" stroke="black" points="1662,-267.5 1662,-286.5 1834,-286.5 1834,-267.5 1662,-267.5"/>
<text text-anchor="middle" x="1748" y="-274.5" font-family="Helvetica,sans-Serif" font-size="10.00">view.MainView.configureTopMenu</text>
</a>
</g>
</g>
<!-- Node9&#45;&gt;Node10 -->
<g id="edge9" class="edge"><title>Node9&#45;&gt;Node10</title>
<path fill="none" stroke="midnightblue" d="M1635.86,-277C1644.57,-277 1653.36,-277 1661.98,-277"/>
<polygon fill="midnightblue" stroke="midnightblue" points="1635.68,-273.5 1625.68,-277 1635.68,-280.5 1635.68,-273.5"/>
</g>
<!-- Node11 -->
<g id="node11" class="node"><title>Node11</title>
<g id="a_node11"><a xlink:href="../../d1/d75/classview_1_1_main_view.html#aff9e267e9368512a16e425f08d7b3ea0" target="_top" xlink:title="view.MainView.initRowConstraints">
<polygon fill="white" stroke="black" points="1870.5,-267.5 1870.5,-286.5 2043.5,-286.5 2043.5,-267.5 1870.5,-267.5"/>
<text text-anchor="middle" x="1957" y="-274.5" font-family="Helvetica,sans-Serif" font-size="10.00">view.MainView.initRowConstraints</text>
</a>
</g>
</g>
<!-- Node10&#45;&gt;Node11 -->
<g id="edge10" class="edge"><title>Node10&#45;&gt;Node11</title>
<path fill="none" stroke="midnightblue" d="M1844.22,-277C1852.9,-277 1861.65,-277 1870.24,-277"/>
<polygon fill="midnightblue" stroke="midnightblue" points="1844.09,-273.5 1834.09,-277 1844.09,-280.5 1844.09,-273.5"/>
</g>
<!-- Node11&#45;&gt;Node7 -->
<g id="edge11" class="edge"><title>Node11&#45;&gt;Node7</title>
<path fill="none" stroke="midnightblue" d="M2053.68,-286.774C2062.57,-287.682 2071.43,-288.587 2079.92,-289.455"/>
<polygon fill="midnightblue" stroke="midnightblue" points="2053.95,-283.284 2043.65,-285.749 2053.24,-290.247 2053.95,-283.284"/>
</g>
<!-- Node14 -->
<g id="node14" class="node"><title>Node14</title>
<g id="a_node14"><a xlink:href="../../d6/de7/classview_1_1_s_logo_view.html#adc4b93dcbcbac6952cd976e41b68804c" target="_top" xlink:title="view.SLogoView.clearScreen">
<polygon fill="white" stroke="black" points="727,-125.5 727,-144.5 877,-144.5 877,-125.5 727,-125.5"/>
<text text-anchor="middle" x="802" y="-132.5" font-family="Helvetica,sans-Serif" font-size="10.00">view.SLogoView.clearScreen</text>
</a>
</g>
</g>
<!-- Node13&#45;&gt;Node14 -->
<g id="edge14" class="edge"><title>Node13&#45;&gt;Node14</title>
<path fill="none" stroke="midnightblue" d="M298.329,-148.843C410.843,-145.744 616.752,-140.074 726.881,-137.041"/>
<polygon fill="midnightblue" stroke="midnightblue" points="297.97,-145.351 288.071,-149.125 298.163,-152.349 297.97,-145.351"/>
</g>
<!-- Node16 -->
<g id="node16" class="node"><title>Node16</title>
<g id="a_node16"><a xlink:href="../../de/d0a/classview_1_1_drawer.html#a6b9f362b8bc763689630b1fe7b5c1887" target="_top" xlink:title="view.Drawer.draw">
<polygon fill="white" stroke="black" points="349,-83.5 349,-102.5 447,-102.5 447,-83.5 349,-83.5"/>
<text text-anchor="middle" x="398" y="-90.5" font-family="Helvetica,sans-Serif" font-size="10.00">view.Drawer.draw</text>
</a>
</g>
</g>
<!-- Node13&#45;&gt;Node16 -->
<g id="edge16" class="edge"><title>Node13&#45;&gt;Node16</title>
<path fill="none" stroke="midnightblue" d="M275.723,-132.74C306.266,-122.732 342.874,-110.736 367.823,-102.561"/>
<polygon fill="midnightblue" stroke="midnightblue" points="274.456,-129.473 266.043,-135.913 276.635,-136.125 274.456,-129.473"/>
</g>
<!-- Node19 -->
<g id="node19" class="node"><title>Node19</title>
<g id="a_node19"><a xlink:href="../../da/d64/classview_1_1_workspace.html#a16bda9a6a7fe7f8d3d7b09108675f9c4" target="_top" xlink:title="view.Workspace.setActive\lTurtle">
<polygon fill="white" stroke="black" points="329.5,-237 329.5,-267 466.5,-267 466.5,-237 329.5,-237"/>
<text text-anchor="start" x="337.5" y="-255" font-family="Helvetica,sans-Serif" font-size="10.00">view.Workspace.setActive</text>
<text text-anchor="middle" x="398" y="-244" font-family="Helvetica,sans-Serif" font-size="10.00">Turtle</text>
</a>
</g>
</g>
<!-- Node13&#45;&gt;Node19 -->
<g id="edge20" class="edge"><title>Node13&#45;&gt;Node19</title>
<path fill="none" stroke="midnightblue" d="M247.733,-172.294C268.124,-187.354 296.891,-207.384 324,-222 334.131,-227.462 345.473,-232.57 356.141,-236.967"/>
<polygon fill="midnightblue" stroke="midnightblue" points="249.644,-169.353 239.537,-166.175 245.456,-174.962 249.644,-169.353"/>
</g>
<!-- Node20 -->
<g id="node20" class="node"><title>Node20</title>
<g id="a_node20"><a xlink:href="../../d6/de7/classview_1_1_s_logo_view.html#ae7ad67f4b629b134cb805842a20f4050" target="_top" xlink:title="view.SLogoView.setHeading">
<polygon fill="white" stroke="black" points="324,-2.5 324,-21.5 472,-21.5 472,-2.5 324,-2.5"/>
<text text-anchor="middle" x="398" y="-9.5" font-family="Helvetica,sans-Serif" font-size="10.00">view.SLogoView.setHeading</text>
</a>
</g>
</g>
<!-- Node13&#45;&gt;Node20 -->
<g id="edge23" class="edge"><title>Node13&#45;&gt;Node20</title>
<path fill="none" stroke="midnightblue" d="M235.907,-127.445C254.327,-101.835 286.93,-61.3184 324,-37 334.081,-30.3867 346.096,-25.3335 357.44,-21.5608"/>
<polygon fill="midnightblue" stroke="midnightblue" points="232.897,-125.64 229.999,-135.831 238.62,-129.672 232.897,-125.64"/>
</g>
<!-- Node22 -->
<g id="node22" class="node"><title>Node22</title>
<g id="a_node22"><a xlink:href="../../d6/de7/classview_1_1_s_logo_view.html#a978a65a0b82bac25044f7e2816a680cc" target="_top" xlink:title="view.SLogoView.setPenUp">
<polygon fill="white" stroke="black" points="527,-201.5 527,-220.5 667,-220.5 667,-201.5 527,-201.5"/>
<text text-anchor="middle" x="597" y="-208.5" font-family="Helvetica,sans-Serif" font-size="10.00">view.SLogoView.setPenUp</text>
</a>
</g>
</g>
<!-- Node13&#45;&gt;Node22 -->
<g id="edge26" class="edge"><title>Node13&#45;&gt;Node22</title>
<path fill="none" stroke="midnightblue" d="M263.499,-169.866C281.84,-177.034 303.625,-184.54 324,-189 391.917,-203.868 471.349,-208.919 526.776,-210.523"/>
<polygon fill="midnightblue" stroke="midnightblue" points="264.557,-166.52 253.973,-166.054 261.956,-173.019 264.557,-166.52"/>
</g>
<!-- Node23 -->
<g id="node23" class="node"><title>Node23</title>
<g id="a_node23"><a xlink:href="../../d6/de7/classview_1_1_s_logo_view.html#a0948ea67bfc088f941e2af79727231ad" target="_top" xlink:title="view.SLogoView.setXY">
<polygon fill="white" stroke="black" points="742.5,-37.5 742.5,-56.5 861.5,-56.5 861.5,-37.5 742.5,-37.5"/>
<text text-anchor="middle" x="802" y="-44.5" font-family="Helvetica,sans-Serif" font-size="10.00">view.SLogoView.setXY</text>
</a>
</g>
</g>
<!-- Node13&#45;&gt;Node23 -->
<g id="edge28" class="edge"><title>Node13&#45;&gt;Node23</title>
<path fill="none" stroke="midnightblue" d="M241.968,-128.649C261.578,-110.308 292.062,-85.5475 324,-74 467.136,-22.2485 650.155,-30.8151 742.337,-39.8179"/>
<polygon fill="midnightblue" stroke="midnightblue" points="239.295,-126.363 234.506,-135.813 244.144,-131.412 239.295,-126.363"/>
</g>
<!-- Node24 -->
<g id="node24" class="node"><title>Node24</title>
<g id="a_node24"><a xlink:href="../../d6/de7/classview_1_1_s_logo_view.html#a00710838e28dcb10fe6da3c0ec0c4e20" target="_top" xlink:title="view.SLogoView.showTurtle">
<polygon fill="white" stroke="black" points="326.5,-160.5 326.5,-179.5 469.5,-179.5 469.5,-160.5 326.5,-160.5"/>
<text text-anchor="middle" x="398" y="-167.5" font-family="Helvetica,sans-Serif" font-size="10.00">view.SLogoView.showTurtle</text>
</a>
</g>
</g>
<!-- Node13&#45;&gt;Node24 -->
<g id="edge30" class="edge"><title>Node13&#45;&gt;Node24</title>
<path fill="none" stroke="midnightblue" d="M298.213,-159.396C307.534,-160.396 317.01,-161.413 326.218,-162.402"/>
<polygon fill="midnightblue" stroke="midnightblue" points="298.496,-155.906 288.18,-158.319 297.749,-162.866 298.496,-155.906"/>
</g>
<!-- Node15 -->
<g id="node15" class="node"><title>Node15</title>
<g id="a_node15"><a xlink:href="../../d1/dd3/classmodel_1_1instructions_1_1_movement_instruction.html#a33e802cec8283d190a8daac6e485e3b4" target="_top" xlink:title="model.instructions.Movement\lInstruction.execute">
<polygon fill="white" stroke="black" points="918.5,-98 918.5,-128 1077.5,-128 1077.5,-98 918.5,-98"/>
<text text-anchor="start" x="926.5" y="-116" font-family="Helvetica,sans-Serif" font-size="10.00">model.instructions.Movement</text>
<text text-anchor="middle" x="998" y="-105" font-family="Helvetica,sans-Serif" font-size="10.00">Instruction.execute</text>
</a>
</g>
</g>
<!-- Node14&#45;&gt;Node15 -->
<g id="edge15" class="edge"><title>Node14&#45;&gt;Node15</title>
<path fill="none" stroke="midnightblue" d="M887.381,-125.431C897.671,-124.264 908.153,-123.075 918.354,-121.919"/>
<polygon fill="midnightblue" stroke="midnightblue" points="886.715,-121.984 877.173,-126.589 887.504,-128.939 886.715,-121.984"/>
</g>
<!-- Node17 -->
<g id="node17" class="node"><title>Node17</title>
<g id="a_node17"><a xlink:href="../../d6/de7/classview_1_1_s_logo_view.html#ae9c11c883a794eb50ed92ed27dbc039a" target="_top" xlink:title="view.SLogoView.updateWorkspace">
<polygon fill="white" stroke="black" points="508,-82.5 508,-101.5 686,-101.5 686,-82.5 508,-82.5"/>
<text text-anchor="middle" x="597" y="-89.5" font-family="Helvetica,sans-Serif" font-size="10.00">view.SLogoView.updateWorkspace</text>
</a>
</g>
</g>
<!-- Node16&#45;&gt;Node17 -->
<g id="edge17" class="edge"><title>Node16&#45;&gt;Node17</title>
<path fill="none" stroke="midnightblue" d="M457.364,-92.7037C473.244,-92.6231 490.804,-92.534 507.938,-92.447"/>
<polygon fill="midnightblue" stroke="midnightblue" points="457.174,-89.2046 447.192,-92.7554 457.209,-96.2045 457.174,-89.2046"/>
</g>
<!-- Node18 -->
<g id="node18" class="node"><title>Node18</title>
<g id="a_node18"><a xlink:href="../../d1/dd3/classmodel_1_1instructions_1_1_movement_instruction.html#a51c776093aeb820937b12e2b89eb2f89" target="_top" xlink:title="model.instructions.Movement\lInstruction.updateView">
<polygon fill="white" stroke="black" points="722.5,-76 722.5,-106 881.5,-106 881.5,-76 722.5,-76"/>
<text text-anchor="start" x="730.5" y="-94" font-family="Helvetica,sans-Serif" font-size="10.00">model.instructions.Movement</text>
<text text-anchor="middle" x="802" y="-83" font-family="Helvetica,sans-Serif" font-size="10.00">Instruction.updateView</text>
</a>
</g>
</g>
<!-- Node17&#45;&gt;Node18 -->
<g id="edge18" class="edge"><title>Node17&#45;&gt;Node18</title>
<path fill="none" stroke="midnightblue" d="M696.4,-91.5153C705.155,-91.4721 713.94,-91.4289 722.495,-91.3867"/>
<polygon fill="midnightblue" stroke="midnightblue" points="696.136,-88.0164 686.153,-91.5657 696.17,-95.0163 696.136,-88.0164"/>
</g>
<!-- Node18&#45;&gt;Node15 -->
<g id="edge19" class="edge"><title>Node18&#45;&gt;Node15</title>
<path fill="none" stroke="midnightblue" d="M891.608,-101.048C900.498,-102.056 909.483,-103.075 918.26,-104.071"/>
<polygon fill="midnightblue" stroke="midnightblue" points="891.958,-97.5657 881.628,-99.9165 891.169,-104.521 891.958,-97.5657"/>
</g>
<!-- Node19&#45;&gt;Node2 -->
<g id="edge22" class="edge"><title>Node19&#45;&gt;Node2</title>
<path fill="none" stroke="midnightblue" d="M476.315,-269.268C493.628,-273.135 511.857,-277.207 528.724,-280.974"/>
<polygon fill="midnightblue" stroke="midnightblue" points="476.768,-265.783 466.245,-267.019 475.242,-272.615 476.768,-265.783"/>
</g>
<!-- Node19&#45;&gt;Node12 -->
<g id="edge21" class="edge"><title>Node19&#45;&gt;Node12</title>
<path fill="none" stroke="midnightblue" d="M477.027,-252C593.944,-252 812.883,-252 925.724,-252"/>
<polygon fill="midnightblue" stroke="midnightblue" points="476.726,-248.5 466.726,-252 476.726,-255.5 476.726,-248.5"/>
</g>
<!-- Node21 -->
<g id="node21" class="node"><title>Node21</title>
<g id="a_node21"><a xlink:href="../../d6/de7/classview_1_1_s_logo_view.html#afa2b659c4d080b5f927978b453633ab2" target="_top" xlink:title="view.SLogoView.towards">
<polygon fill="white" stroke="black" points="531.5,-0.5 531.5,-19.5 662.5,-19.5 662.5,-0.5 531.5,-0.5"/>
<text text-anchor="middle" x="597" y="-7.5" font-family="Helvetica,sans-Serif" font-size="10.00">view.SLogoView.towards</text>
</a>
</g>
</g>
<!-- Node20&#45;&gt;Node21 -->
<g id="edge24" class="edge"><title>Node20&#45;&gt;Node21</title>
<path fill="none" stroke="midnightblue" d="M482.235,-11.155C498.7,-10.9878 515.748,-10.8147 531.479,-10.655"/>
<polygon fill="midnightblue" stroke="midnightblue" points="482.039,-7.65668 472.076,-11.2581 482.111,-14.6563 482.039,-7.65668"/>
</g>
<!-- Node21&#45;&gt;Node15 -->
<g id="edge25" class="edge"><title>Node21&#45;&gt;Node15</title>
<path fill="none" stroke="midnightblue" d="M673.015,-3.40511C731.681,-0.904064 814.357,-3.31574 882,-28 923.048,-42.9791 962.01,-77.5377 982.353,-97.674"/>
<polygon fill="midnightblue" stroke="midnightblue" points="672.535,0.0757901 662.716,-3.90498 672.874,-6.91598 672.535,0.0757901"/>
</g>
<!-- Node22&#45;&gt;Node15 -->
<g id="edge27" class="edge"><title>Node22&#45;&gt;Node15</title>
<path fill="none" stroke="midnightblue" d="M677.255,-214.429C735.406,-214.545 815.495,-209.634 882,-187 920.208,-173.996 958.384,-145.631 979.721,-128.04"/>
<polygon fill="midnightblue" stroke="midnightblue" points="677.05,-210.927 667.025,-214.356 677,-217.927 677.05,-210.927"/>
</g>
<!-- Node23&#45;&gt;Node15 -->
<g id="edge29" class="edge"><title>Node23&#45;&gt;Node15</title>
<path fill="none" stroke="midnightblue" d="M857.874,-59.0546C866.019,-61.1733 874.269,-63.5064 882,-66 910.122,-75.0704 941.08,-87.8931 963.784,-97.8542"/>
<polygon fill="midnightblue" stroke="midnightblue" points="858.585,-55.6245 848.033,-56.5802 856.878,-62.4132 858.585,-55.6245"/>
</g>
<!-- Node24&#45;&gt;Node15 -->
<g id="edge31" class="edge"><title>Node24&#45;&gt;Node15</title>
<path fill="none" stroke="midnightblue" d="M480.018,-174.878C576.652,-178.963 742.628,-180.485 882,-154 910.32,-148.618 941.006,-137.383 963.552,-128.033"/>
<polygon fill="midnightblue" stroke="midnightblue" points="479.881,-171.368 469.736,-174.422 479.571,-178.361 479.881,-171.368"/>
</g>
</g>
</svg>
