<?xml version="1.0" encoding="UTF-8" standalone="no"?>
<!DOCTYPE svg PUBLIC "-//W3C//DTD SVG 1.1//EN"
 "http://www.w3.org/Graphics/SVG/1.1/DTD/svg11.dtd">
<!-- Generated by graphviz version 2.36.0 (20140111.2315)
 -->
<!-- Title: controller.SLogoController Pages: 1 -->
<svg width="1222pt" height="814pt"
 viewBox="0.00 0.00 1222.00 814.14" xmlns="http://www.w3.org/2000/svg" xmlns:xlink="http://www.w3.org/1999/xlink">
<g id="graph0" class="graph" transform="scale(1 1) rotate(0) translate(4 810.143)">
<title>controller.SLogoController</title>
<polygon fill="white" stroke="none" points="-4,4 -4,-810.143 1218,-810.143 1218,4 -4,4"/>
<!-- Node1 -->
<g id="node1" class="node"><title>Node1</title>
<polygon fill="#bfbfbf" stroke="black" points="10,-407.643 10,-426.643 150,-426.643 150,-407.643 10,-407.643"/>
<text text-anchor="middle" x="80" y="-414.643" font-family="Helvetica,sans-Serif" font-size="10.00">controller.SLogoController</text>
</g>
<!-- Node10 -->
<g id="node10" class="node"><title>Node10</title>
<g id="a_node10"><a xlink:href="../../d6/de7/classview_1_1_s_logo_view.html" target="_top" xlink:title="view.SLogoView">
<polygon fill="white" stroke="black" points="851.5,-365.643 851.5,-384.643 942.5,-384.643 942.5,-365.643 851.5,-365.643"/>
<text text-anchor="middle" x="897" y="-372.643" font-family="Helvetica,sans-Serif" font-size="10.00">view.SLogoView</text>
</a>
</g>
</g>
<!-- Node1&#45;&gt;Node10 -->
<g id="edge34" class="edge"><title>Node1&#45;&gt;Node10</title>
<path fill="none" stroke="#9a32cd" stroke-dasharray="5,2" d="M119.467,-429.747C162.432,-443.109 234.321,-463.339 298,-471.143 377.437,-480.879 417.534,-518.572 478,-466.143 509.149,-439.134 464.144,-401.315 496,-375.143 548.987,-331.611 758.292,-355.248 851.184,-368.324"/>
<polygon fill="#9a32cd" stroke="#9a32cd" points="120.299,-426.34 109.71,-426.676 118.198,-433.017 120.299,-426.34"/>
<text text-anchor="middle" x="440" y="-497.143" font-family="Helvetica,sans-Serif" font-size="10.00"> myController</text>
</g>
<!-- Node16 -->
<g id="node16" class="node"><title>Node16</title>
<g id="a_node16"><a xlink:href="../../d1/dc7/classview_1_1_side_bar.html" target="_top" xlink:title="view.SideBar">
<polygon fill="white" stroke="black" points="302.5,-165.643 302.5,-184.643 379.5,-184.643 379.5,-165.643 302.5,-165.643"/>
<text text-anchor="middle" x="341" y="-172.643" font-family="Helvetica,sans-Serif" font-size="10.00">view.SideBar</text>
</a>
</g>
</g>
<!-- Node1&#45;&gt;Node16 -->
<g id="edge18" class="edge"><title>Node1&#45;&gt;Node16</title>
<path fill="none" stroke="#9a32cd" stroke-dasharray="5,2" d="M97.1035,-400.187C116.017,-380.474 148.556,-347.188 178,-320.143 221.67,-280.032 236.161,-274.071 280,-234.143 298.361,-217.42 318.795,-196.89 330.452,-184.983"/>
<polygon fill="#9a32cd" stroke="#9a32cd" points="94.4839,-397.862 90.1055,-407.51 99.5447,-402.698 94.4839,-397.862"/>
<text text-anchor="middle" x="229" y="-323.143" font-family="Helvetica,sans-Serif" font-size="10.00"> myController</text>
</g>
<!-- Node25 -->
<g id="node25" class="node"><title>Node25</title>
<g id="a_node25"><a xlink:href="../../da/dc8/classview_1_1_editor.html" target="_top" xlink:title="view.Editor">
<polygon fill="white" stroke="black" points="549.5,-79.6434 549.5,-98.6434 616.5,-98.6434 616.5,-79.6434 549.5,-79.6434"/>
<text text-anchor="middle" x="583" y="-86.6434" font-family="Helvetica,sans-Serif" font-size="10.00">view.Editor</text>
</a>
</g>
</g>
<!-- Node1&#45;&gt;Node25 -->
<g id="edge30" class="edge"><title>Node1&#45;&gt;Node25</title>
<path fill="none" stroke="#9a32cd" stroke-dasharray="5,2" d="M121.182,-404.441C162.906,-390.213 229.075,-364.681 280,-331.143 289.19,-325.091 288.066,-318.877 298,-314.143 370.859,-279.424 421.908,-348.174 478,-290.143 506.246,-260.921 469.02,-138.538 496,-108.143 509.095,-93.392 530.83,-88.6828 549.172,-87.6408"/>
<polygon fill="#9a32cd" stroke="#9a32cd" points="120.007,-401.143 111.639,-407.643 122.233,-407.78 120.007,-401.143"/>
<text text-anchor="middle" x="341" y="-317.143" font-family="Helvetica,sans-Serif" font-size="10.00"> myController</text>
</g>
<!-- Node2 -->
<g id="node2" class="node"><title>Node2</title>
<g id="a_node2"><a xlink:href="../../dc/df5/classmodel_1_1_parser.html" target="_top" xlink:title="model.Parser">
<polygon fill="white" stroke="black" points="1134,-604.643 1134,-623.643 1214,-623.643 1214,-604.643 1134,-604.643"/>
<text text-anchor="middle" x="1174" y="-611.643" font-family="Helvetica,sans-Serif" font-size="10.00">model.Parser</text>
</a>
</g>
</g>
<!-- Node2&#45;&gt;Node1 -->
<g id="edge1" class="edge"><title>Node2&#45;&gt;Node1</title>
<path fill="none" stroke="#9a32cd" stroke-dasharray="5,2" d="M1123.76,-607.821C1068.81,-601.321 977.192,-592.143 898,-592.143 340,-592.143 340,-592.143 340,-592.143 220.883,-592.143 115.624,-463.488 88.0295,-426.801"/>
<polygon fill="#9a32cd" stroke="#9a32cd" points="1123.57,-611.323 1133.91,-609.041 1124.4,-604.373 1123.57,-611.323"/>
<text text-anchor="middle" x="583" y="-595.143" font-family="Helvetica,sans-Serif" font-size="10.00"> myParser</text>
</g>
<!-- Node3 -->
<g id="node3" class="node"><title>Node3</title>
<polygon fill="white" stroke="#bfbfbf" points="553,-643.643 553,-662.643 613,-662.643 613,-643.643 553,-643.643"/>
<text text-anchor="middle" x="583" y="-650.643" font-family="Helvetica,sans-Serif" font-size="10.00">Observer</text>
</g>
<!-- Node3&#45;&gt;Node2 -->
<g id="edge2" class="edge"><title>Node3&#45;&gt;Node2</title>
<path fill="none" stroke="midnightblue" d="M623.254,-655.782C693.883,-660.098 847.047,-667.488 976,-660.143 1038.53,-656.582 1056.15,-662.599 1116,-644.143 1131.17,-639.464 1147.05,-630.745 1158.18,-623.908"/>
<polygon fill="midnightblue" stroke="midnightblue" points="623.242,-652.275 613.043,-655.144 622.806,-659.261 623.242,-652.275"/>
</g>
<!-- Node3&#45;&gt;Node10 -->
<g id="edge10" class="edge"><title>Node3&#45;&gt;Node10</title>
<path fill="none" stroke="midnightblue" d="M622.863,-646.649C669.936,-636.984 749.22,-614.703 800,-568.143 803.81,-564.65 872.586,-423.354 891.321,-384.784"/>
<polygon fill="midnightblue" stroke="midnightblue" points="622.183,-643.216 613.045,-648.577 623.532,-650.084 622.183,-643.216"/>
</g>
<!-- Node4 -->
<g id="node4" class="node"><title>Node4</title>
<polygon fill="white" stroke="#bfbfbf" points="841,-621.143 841,-651.143 953,-651.143 953,-621.143 841,-621.143"/>
<text text-anchor="start" x="849" y="-639.143" font-family="Helvetica,sans-Serif" font-size="10.00">List&lt; Entry&lt; String,</text>
<text text-anchor="middle" x="897" y="-628.143" font-family="Helvetica,sans-Serif" font-size="10.00"> Pattern &gt; &gt;</text>
</g>
<!-- Node4&#45;&gt;Node2 -->
<g id="edge3" class="edge"><title>Node4&#45;&gt;Node2</title>
<path fill="none" stroke="#9a32cd" stroke-dasharray="5,2" d="M963.31,-630.919C1016.33,-626.677 1089.35,-620.835 1133.75,-617.283"/>
<polygon fill="#9a32cd" stroke="#9a32cd" points="963.009,-627.431 953.32,-631.718 963.567,-634.409 963.009,-627.431"/>
<text text-anchor="middle" x="1055" y="-632.143" font-family="Helvetica,sans-Serif" font-size="10.00"> myPatterns</text>
</g>
<!-- Node5 -->
<g id="node5" class="node"><title>Node5</title>
<g id="a_node5"><a xlink:href="../../d1/dca/classmodel_1_1_execution_environment.html" target="_top" xlink:title="model.ExecutionEnvironment">
<polygon fill="white" stroke="black" points="818.5,-725.643 818.5,-744.643 975.5,-744.643 975.5,-725.643 818.5,-725.643"/>
<text text-anchor="middle" x="897" y="-732.643" font-family="Helvetica,sans-Serif" font-size="10.00">model.ExecutionEnvironment</text>
</a>
</g>
</g>
<!-- Node5&#45;&gt;Node2 -->
<g id="edge4" class="edge"><title>Node5&#45;&gt;Node2</title>
<path fill="none" stroke="#9a32cd" stroke-dasharray="5,2" d="M985.589,-733.664C1027.79,-729.375 1077.48,-718.772 1116,-694.143 1143.3,-676.691 1161.47,-641.077 1169.03,-623.874"/>
<polygon fill="#9a32cd" stroke="#9a32cd" points="985.232,-730.182 975.593,-734.578 985.87,-737.153 985.232,-730.182"/>
<text text-anchor="middle" x="1055" y="-735.143" font-family="Helvetica,sans-Serif" font-size="10.00"> myExecutionParameters</text>
</g>
<!-- Node6 -->
<g id="node6" class="node"><title>Node6</title>
<polygon fill="white" stroke="#bfbfbf" points="547.5,-786.643 547.5,-805.643 618.5,-805.643 618.5,-786.643 547.5,-786.643"/>
<text text-anchor="middle" x="583" y="-793.643" font-family="Helvetica,sans-Serif" font-size="10.00">Observable</text>
</g>
<!-- Node6&#45;&gt;Node5 -->
<g id="edge5" class="edge"><title>Node6&#45;&gt;Node5</title>
<path fill="none" stroke="midnightblue" d="M628.675,-790.286C672.533,-784.211 741.214,-773.831 800,-761.143 821.604,-756.481 845.604,-749.981 864.203,-744.646"/>
<polygon fill="midnightblue" stroke="midnightblue" points="628.056,-786.838 618.624,-791.663 629.007,-793.773 628.056,-786.838"/>
</g>
<!-- Node7 -->
<g id="node7" class="node"><title>Node7</title>
<polygon fill="white" stroke="#bfbfbf" points="496,-737.143 496,-767.143 670,-767.143 670,-737.143 496,-737.143"/>
<text text-anchor="start" x="504" y="-755.143" font-family="Helvetica,sans-Serif" font-size="10.00">Map&lt; String, model.instructions.</text>
<text text-anchor="middle" x="583" y="-744.143" font-family="Helvetica,sans-Serif" font-size="10.00">Instruction &gt;</text>
</g>
<!-- Node7&#45;&gt;Node5 -->
<g id="edge6" class="edge"><title>Node7&#45;&gt;Node5</title>
<path fill="none" stroke="#9a32cd" stroke-dasharray="5,2" d="M680.305,-746.896C724.685,-744.478 776.655,-741.646 818.461,-739.368"/>
<polygon fill="#9a32cd" stroke="#9a32cd" points="679.876,-743.414 670.081,-747.453 680.257,-750.404 679.876,-743.414"/>
<text text-anchor="middle" x="744" y="-749.143" font-family="Helvetica,sans-Serif" font-size="10.00"> myUserInstructionMap</text>
</g>
<!-- Node8 -->
<g id="node8" class="node"><title>Node8</title>
<polygon fill="white" stroke="#bfbfbf" points="519,-698.643 519,-717.643 647,-717.643 647,-698.643 519,-698.643"/>
<text text-anchor="middle" x="583" y="-705.643" font-family="Helvetica,sans-Serif" font-size="10.00">Map&lt; String, Double &gt;</text>
</g>
<!-- Node8&#45;&gt;Node5 -->
<g id="edge7" class="edge"><title>Node8&#45;&gt;Node5</title>
<path fill="none" stroke="#9a32cd" stroke-dasharray="5,2" d="M657.457,-713.462C699.262,-716.605 752.589,-720.809 800,-725.143 806.007,-725.693 812.224,-726.285 818.471,-726.898"/>
<polygon fill="#9a32cd" stroke="#9a32cd" points="657.594,-709.963 647.361,-712.707 657.072,-716.943 657.594,-709.963"/>
<text text-anchor="middle" x="744" y="-728.143" font-family="Helvetica,sans-Serif" font-size="10.00"> myVariableMap</text>
</g>
<!-- Node9 -->
<g id="node9" class="node"><title>Node9</title>
<polygon fill="white" stroke="#bfbfbf" points="836,-544.643 836,-563.643 958,-563.643 958,-544.643 836,-544.643"/>
<text text-anchor="middle" x="897" y="-551.643" font-family="Helvetica,sans-Serif" font-size="10.00">Map&lt; String, String &gt;</text>
</g>
<!-- Node9&#45;&gt;Node2 -->
<g id="edge8" class="edge"><title>Node9&#45;&gt;Node2</title>
<path fill="none" stroke="#9a32cd" stroke-dasharray="5,2" d="M968.446,-547.474C1012.35,-545.921 1069.19,-548.741 1116,-567.143 1136.29,-575.121 1154.77,-593.229 1164.89,-604.495"/>
<polygon fill="#9a32cd" stroke="#9a32cd" points="968.271,-543.979 958.433,-547.912 968.577,-550.972 968.271,-543.979"/>
<text text-anchor="middle" x="1055" y="-570.143" font-family="Helvetica,sans-Serif" font-size="10.00"> myCommandMap</text>
</g>
<!-- Node10&#45;&gt;Node2 -->
<g id="edge9" class="edge"><title>Node10&#45;&gt;Node2</title>
<path fill="none" stroke="#9a32cd" stroke-dasharray="5,2" d="M923.788,-389.743C966.906,-414.97 1054.91,-470.027 1116,-532.143 1138.73,-555.259 1158.67,-588.358 1167.76,-604.521"/>
<polygon fill="#9a32cd" stroke="#9a32cd" points="925.458,-386.665 915.05,-384.68 921.948,-392.722 925.458,-386.665"/>
<text text-anchor="middle" x="1055" y="-535.143" font-family="Helvetica,sans-Serif" font-size="10.00"> mySLogoView</text>
</g>
<!-- Node11 -->
<g id="node11" class="node"><title>Node11</title>
<g id="a_node11"><a xlink:href="../../da/d64/classview_1_1_workspace.html" target="_top" xlink:title="view.Workspace">
<polygon fill="white" stroke="black" points="538,-308.643 538,-327.643 628,-327.643 628,-308.643 538,-308.643"/>
<text text-anchor="middle" x="583" y="-315.643" font-family="Helvetica,sans-Serif" font-size="10.00">view.Workspace</text>
</a>
</g>
</g>
<!-- Node11&#45;&gt;Node10 -->
<g id="edge11" class="edge"><title>Node11&#45;&gt;Node10</title>
<path fill="none" stroke="#9a32cd" stroke-dasharray="5,2" d="M638.396,-315.93C682.585,-315.433 746.182,-317.691 800,-331.143 829.704,-338.568 861.506,-355.03 880.029,-365.579"/>
<polygon fill="#9a32cd" stroke="#9a32cd" points="638.098,-312.434 628.157,-316.098 638.213,-319.433 638.098,-312.434"/>
<text text-anchor="middle" x="744" y="-334.143" font-family="Helvetica,sans-Serif" font-size="10.00"> myWorkspace</text>
</g>
<!-- Node12 -->
<g id="node12" class="node"><title>Node12</title>
<polygon fill="white" stroke="#bfbfbf" points="307.5,-366.643 307.5,-385.643 374.5,-385.643 374.5,-366.643 307.5,-366.643"/>
<text text-anchor="middle" x="341" y="-373.643" font-family="Helvetica,sans-Serif" font-size="10.00">StackPane</text>
</g>
<!-- Node12&#45;&gt;Node11 -->
<g id="edge12" class="edge"><title>Node12&#45;&gt;Node11</title>
<path fill="none" stroke="midnightblue" d="M384.5,-371.464C411.716,-367.707 447.516,-361.338 478,-351.143 486.483,-348.307 487.654,-345.36 496,-342.143 510.608,-336.513 527.076,-331.589 541.662,-327.691"/>
<polygon fill="midnightblue" stroke="midnightblue" points="383.976,-368.003 374.519,-372.778 384.89,-374.943 383.976,-368.003"/>
</g>
<!-- Node13 -->
<g id="node13" class="node"><title>Node13</title>
<g id="a_node13"><a xlink:href="../../d8/df7/classview_1_1_turtle_view.html" target="_top" xlink:title="view.TurtleView">
<polygon fill="white" stroke="black" points="298,-442.643 298,-461.643 384,-461.643 384,-442.643 298,-442.643"/>
<text text-anchor="middle" x="341" y="-449.643" font-family="Helvetica,sans-Serif" font-size="10.00">view.TurtleView</text>
</a>
</g>
</g>
<!-- Node13&#45;&gt;Node11 -->
<g id="edge13" class="edge"><title>Node13&#45;&gt;Node11</title>
<path fill="none" stroke="#9a32cd" stroke-dasharray="5,2" d="M394.289,-453.024C422.659,-450.68 456.268,-442.877 478,-421.143 503.462,-395.679 471.156,-368.212 496,-342.143 506.908,-330.698 522.776,-324.563 537.921,-321.323"/>
<polygon fill="#9a32cd" stroke="#9a32cd" points="393.87,-449.543 384.106,-453.656 394.303,-456.53 393.87,-449.543"/>
<text text-anchor="middle" x="440" y="-455.143" font-family="Helvetica,sans-Serif" font-size="10.00"> myActiveTurtle</text>
</g>
<!-- Node14 -->
<g id="node14" class="node"><title>Node14</title>
<polygon fill="white" stroke="#bfbfbf" points="46,-607.643 46,-626.643 114,-626.643 114,-607.643 46,-607.643"/>
<text text-anchor="middle" x="80" y="-614.643" font-family="Helvetica,sans-Serif" font-size="10.00">ImageView</text>
</g>
<!-- Node14&#45;&gt;Node13 -->
<g id="edge14" class="edge"><title>Node14&#45;&gt;Node13</title>
<path fill="none" stroke="midnightblue" d="M104.67,-602.064C157.077,-568.678 281.678,-489.298 324.914,-461.754"/>
<polygon fill="midnightblue" stroke="midnightblue" points="102.598,-599.234 96.0444,-607.559 106.359,-605.138 102.598,-599.234"/>
</g>
<!-- Node15 -->
<g id="node15" class="node"><title>Node15</title>
<polygon fill="white" stroke="#bfbfbf" points="12,-229.143 12,-259.143 148,-259.143 148,-229.143 12,-229.143"/>
<text text-anchor="start" x="20" y="-247.143" font-family="Helvetica,sans-Serif" font-size="10.00">Map&lt; Integer, view.Turtle</text>
<text text-anchor="middle" x="80" y="-236.143" font-family="Helvetica,sans-Serif" font-size="10.00">View &gt;</text>
</g>
<!-- Node15&#45;&gt;Node10 -->
<g id="edge36" class="edge"><title>Node15&#45;&gt;Node10</title>
<path fill="none" stroke="#9a32cd" stroke-dasharray="5,2" d="M158.358,-237.139C294.054,-227.929 581.327,-222.297 800,-313.143 832.98,-326.845 867.043,-351.93 884.361,-365.617"/>
<polygon fill="#9a32cd" stroke="#9a32cd" points="157.794,-233.67 148.065,-237.864 158.286,-240.652 157.794,-233.67"/>
<text text-anchor="middle" x="440" y="-243.143" font-family="Helvetica,sans-Serif" font-size="10.00"> myTurtles</text>
</g>
<!-- Node15&#45;&gt;Node11 -->
<g id="edge15" class="edge"><title>Node15&#45;&gt;Node11</title>
<path fill="none" stroke="#9a32cd" stroke-dasharray="5,2" d="M106.038,-265.567C124.576,-280.003 151.17,-297.867 178,-306.143 303.723,-344.925 462.004,-333.335 537.707,-324.356"/>
<polygon fill="#9a32cd" stroke="#9a32cd" points="108.109,-262.741 98.1159,-259.222 103.733,-268.205 108.109,-262.741"/>
<text text-anchor="middle" x="341" y="-337.143" font-family="Helvetica,sans-Serif" font-size="10.00"> myTurtles</text>
</g>
<!-- Node15&#45;&gt;Node16 -->
<g id="edge20" class="edge"><title>Node15&#45;&gt;Node16</title>
<path fill="none" stroke="#9a32cd" stroke-dasharray="5,2" d="M148.051,-226.579C158.077,-224.035 168.301,-221.486 178,-219.143 223.172,-208.232 235.328,-208.952 280,-196.143 291.564,-192.828 304.157,-188.529 314.808,-184.684"/>
<polygon fill="#9a32cd" stroke="#9a32cd" points="146.941,-223.25 138.117,-229.114 148.672,-230.032 146.941,-223.25"/>
<text text-anchor="middle" x="229" y="-222.143" font-family="Helvetica,sans-Serif" font-size="10.00"> myTurtles</text>
</g>
<!-- Node16&#45;&gt;Node10 -->
<g id="edge40" class="edge"><title>Node16&#45;&gt;Node10</title>
<path fill="none" stroke="#9a32cd" stroke-dasharray="5,2" d="M389.952,-179.32C500.306,-189.244 765.455,-214.992 800,-236.143 851.775,-267.844 882.587,-339.16 892.486,-365.3"/>
<polygon fill="#9a32cd" stroke="#9a32cd" points="390.041,-175.814 379.769,-178.409 389.418,-182.786 390.041,-175.814"/>
<text text-anchor="middle" x="583" y="-213.143" font-family="Helvetica,sans-Serif" font-size="10.00"> mySidebar</text>
</g>
<!-- Node16&#45;&gt;Node11 -->
<g id="edge16" class="edge"><title>Node16&#45;&gt;Node11</title>
<path fill="none" stroke="#9a32cd" stroke-dasharray="5,2" d="M351.417,-193.718C361.578,-212.017 379.387,-239.57 402,-256.143 442.787,-286.037 499.116,-302.345 537.84,-310.628"/>
<polygon fill="#9a32cd" stroke="#9a32cd" points="354.49,-192.043 346.696,-184.866 348.314,-195.337 354.49,-192.043"/>
<text text-anchor="middle" x="440" y="-297.143" font-family="Helvetica,sans-Serif" font-size="10.00"> mySidebar</text>
</g>
<!-- Node16&#45;&gt;Node25 -->
<g id="edge32" class="edge"><title>Node16&#45;&gt;Node25</title>
<path fill="none" stroke="#9a32cd" stroke-dasharray="5,2" d="M389.587,-167.621C417.299,-161.492 451.823,-150.704 478,-132.143 488.877,-124.431 484.792,-115.365 496,-108.143 511.81,-97.9569 532.281,-93.1728 549.284,-90.9513"/>
<polygon fill="#9a32cd" stroke="#9a32cd" points="388.791,-164.211 379.713,-169.673 390.216,-171.064 388.791,-164.211"/>
<text text-anchor="middle" x="440" y="-167.143" font-family="Helvetica,sans-Serif" font-size="10.00"> mySidebar</text>
</g>
<!-- Node17 -->
<g id="node17" class="node"><title>Node17</title>
<polygon fill="white" stroke="#bfbfbf" points="59.5,-182.643 59.5,-201.643 100.5,-201.643 100.5,-182.643 59.5,-182.643"/>
<text text-anchor="middle" x="80" y="-189.643" font-family="Helvetica,sans-Serif" font-size="10.00">VBox</text>
</g>
<!-- Node17&#45;&gt;Node16 -->
<g id="edge17" class="edge"><title>Node17&#45;&gt;Node16</title>
<path fill="none" stroke="midnightblue" d="M111.134,-190.166C158.603,-187.05 250.701,-181.005 302.421,-177.61"/>
<polygon fill="midnightblue" stroke="midnightblue" points="110.642,-186.69 100.893,-190.838 111.101,-193.675 110.642,-186.69"/>
</g>
<!-- Node18 -->
<g id="node18" class="node"><title>Node18</title>
<polygon fill="white" stroke="#bfbfbf" points="13,-133.143 13,-163.143 147,-163.143 147,-133.143 13,-133.143"/>
<text text-anchor="start" x="21" y="-151.143" font-family="Helvetica,sans-Serif" font-size="10.00">TableView&lt; view.Variable</text>
<text text-anchor="middle" x="80" y="-140.143" font-family="Helvetica,sans-Serif" font-size="10.00">View &gt;</text>
</g>
<!-- Node18&#45;&gt;Node16 -->
<g id="edge19" class="edge"><title>Node18&#45;&gt;Node16</title>
<path fill="none" stroke="#9a32cd" stroke-dasharray="5,2" d="M157.693,-145.007C194.903,-144.866 240.083,-146.739 280,-154.143 292.913,-156.539 306.786,-161.245 317.936,-165.596"/>
<polygon fill="#9a32cd" stroke="#9a32cd" points="157.389,-141.51 147.42,-145.098 157.45,-148.51 157.389,-141.51"/>
<text text-anchor="middle" x="229" y="-168.143" font-family="Helvetica,sans-Serif" font-size="10.00"> turtlePropertiesTable</text>
<text text-anchor="middle" x="229" y="-157.143" font-family="Helvetica,sans-Serif" font-size="10.00">variablesTable</text>
</g>
<!-- Node19 -->
<g id="node19" class="node"><title>Node19</title>
<polygon fill="white" stroke="#bfbfbf" points="0.5,-84.1434 0.5,-114.143 159.5,-114.143 159.5,-84.1434 0.5,-84.1434"/>
<text text-anchor="start" x="8.5" y="-102.143" font-family="Helvetica,sans-Serif" font-size="10.00">ObservableList&lt; view.Variable</text>
<text text-anchor="middle" x="80" y="-91.1434" font-family="Helvetica,sans-Serif" font-size="10.00">View &gt;</text>
</g>
<!-- Node19&#45;&gt;Node16 -->
<g id="edge21" class="edge"><title>Node19&#45;&gt;Node16</title>
<path fill="none" stroke="#9a32cd" stroke-dasharray="5,2" d="M170.189,-103.29C205.608,-107.508 245.939,-115.642 280,-131.143 289.478,-135.457 289.707,-139.845 298,-146.143 306.891,-152.896 317.205,-160.027 325.386,-165.528"/>
<polygon fill="#9a32cd" stroke="#9a32cd" points="170.178,-99.7682 159.855,-102.153 169.412,-106.726 170.178,-99.7682"/>
<text text-anchor="middle" x="229" y="-134.143" font-family="Helvetica,sans-Serif" font-size="10.00"> variablesList</text>
</g>
<!-- Node20 -->
<g id="node20" class="node"><title>Node20</title>
<polygon fill="white" stroke="#bfbfbf" points="11,-45.6434 11,-64.6434 149,-64.6434 149,-45.6434 11,-45.6434"/>
<text text-anchor="middle" x="80" y="-52.6434" font-family="Helvetica,sans-Serif" font-size="10.00">ObservableList&lt; String &gt;</text>
</g>
<!-- Node20&#45;&gt;Node16 -->
<g id="edge22" class="edge"><title>Node20&#45;&gt;Node16</title>
<path fill="none" stroke="#9a32cd" stroke-dasharray="5,2" d="M156.911,-45.2142C197.913,-44.1318 246.79,-50.3562 280,-79.1434 303.299,-99.3394 280.223,-120.95 298,-146.143 303.722,-154.252 312.476,-160.817 320.514,-165.636"/>
<polygon fill="#9a32cd" stroke="#9a32cd" points="156.518,-41.7273 146.671,-45.6375 156.807,-48.7214 156.518,-41.7273"/>
<text text-anchor="middle" x="229" y="-93.1434" font-family="Helvetica,sans-Serif" font-size="10.00"> commandItems</text>
<text text-anchor="middle" x="229" y="-82.1434" font-family="Helvetica,sans-Serif" font-size="10.00">historyItems</text>
</g>
<!-- Node21 -->
<g id="node21" class="node"><title>Node21</title>
<polygon fill="white" stroke="#bfbfbf" points="27,-7.64341 27,-26.6434 133,-26.6434 133,-7.64341 27,-7.64341"/>
<text text-anchor="middle" x="80" y="-14.6434" font-family="Helvetica,sans-Serif" font-size="10.00">ListView&lt; String &gt;</text>
</g>
<!-- Node21&#45;&gt;Node16 -->
<g id="edge23" class="edge"><title>Node21&#45;&gt;Node16</title>
<path fill="none" stroke="#9a32cd" stroke-dasharray="5,2" d="M127.501,-5.62295C172.409,2.48001 239.414,6.13043 280,-31.1434 318.103,-66.1367 270.482,-102.336 298,-146.143 303.09,-154.247 311.361,-160.675 319.222,-165.398"/>
<polygon fill="#9a32cd" stroke="#9a32cd" points="126.58,-2.23632 117.432,-7.58029 127.916,-9.1077 126.58,-2.23632"/>
<text text-anchor="middle" x="229" y="-34.1434" font-family="Helvetica,sans-Serif" font-size="10.00"> historyList</text>
</g>
<!-- Node22 -->
<g id="node22" class="node"><title>Node22</title>
<polygon fill="white" stroke="#bfbfbf" points="309.5,-404.643 309.5,-423.643 372.5,-423.643 372.5,-404.643 309.5,-404.643"/>
<text text-anchor="middle" x="341" y="-411.643" font-family="Helvetica,sans-Serif" font-size="10.00">Rectangle</text>
</g>
<!-- Node22&#45;&gt;Node11 -->
<g id="edge24" class="edge"><title>Node22&#45;&gt;Node11</title>
<path fill="none" stroke="#9a32cd" stroke-dasharray="5,2" d="M382.862,-410.321C412.016,-405.779 450.731,-395.847 478,-374.143 490.768,-363.982 483.162,-352.216 496,-342.143 507.951,-332.766 523.356,-327.052 537.817,-323.569"/>
<polygon fill="#9a32cd" stroke="#9a32cd" points="382.009,-406.907 372.592,-411.763 382.982,-413.839 382.009,-406.907"/>
<text text-anchor="middle" x="440" y="-409.143" font-family="Helvetica,sans-Serif" font-size="10.00"> myBackground</text>
</g>
<!-- Node23 -->
<g id="node23" class="node"><title>Node23</title>
<polygon fill="white" stroke="#bfbfbf" points="560.5,-155.643 560.5,-174.643 605.5,-174.643 605.5,-155.643 560.5,-155.643"/>
<text text-anchor="middle" x="583" y="-162.643" font-family="Helvetica,sans-Serif" font-size="10.00">Stage</text>
</g>
<!-- Node23&#45;&gt;Node10 -->
<g id="edge25" class="edge"><title>Node23&#45;&gt;Node10</title>
<path fill="none" stroke="#9a32cd" stroke-dasharray="5,2" d="M615.645,-159.397C660.757,-153.014 744.252,-148.097 800,-186.143 865.356,-230.747 888.647,-333.739 894.431,-365.585"/>
<polygon fill="#9a32cd" stroke="#9a32cd" points="614.925,-155.966 605.57,-160.939 615.984,-162.886 614.925,-155.966"/>
<text text-anchor="middle" x="744" y="-189.143" font-family="Helvetica,sans-Serif" font-size="10.00"> myStage</text>
</g>
<!-- Node24 -->
<g id="node24" class="node"><title>Node24</title>
<polygon fill="white" stroke="#bfbfbf" points="536.5,-117.643 536.5,-136.643 629.5,-136.643 629.5,-117.643 536.5,-117.643"/>
<text text-anchor="middle" x="583" y="-124.643" font-family="Helvetica,sans-Serif" font-size="10.00">ResourceBundle</text>
</g>
<!-- Node24&#45;&gt;Node10 -->
<g id="edge26" class="edge"><title>Node24&#45;&gt;Node10</title>
<path fill="none" stroke="#9a32cd" stroke-dasharray="5,2" d="M636.565,-116.043C683.803,-109.182 752.805,-107.229 800,-141.143 878.093,-197.261 892.829,-328.612 895.457,-365.409"/>
<polygon fill="#9a32cd" stroke="#9a32cd" points="635.871,-112.609 626.536,-117.62 636.958,-119.524 635.871,-112.609"/>
<text text-anchor="middle" x="744" y="-144.143" font-family="Helvetica,sans-Serif" font-size="10.00"> myResources</text>
</g>
<!-- Node25&#45;&gt;Node10 -->
<g id="edge27" class="edge"><title>Node25&#45;&gt;Node10</title>
<path fill="none" stroke="#9a32cd" stroke-dasharray="5,2" d="M626.507,-77.7179C673.713,-67.7327 749.858,-59.9931 800,-97.1434 891.285,-164.777 896.41,-324.847 896.188,-365.582"/>
<polygon fill="#9a32cd" stroke="#9a32cd" points="625.598,-74.3346 616.604,-79.9353 627.128,-81.1655 625.598,-74.3346"/>
<text text-anchor="middle" x="744" y="-100.143" font-family="Helvetica,sans-Serif" font-size="10.00"> myEditor</text>
</g>
<!-- Node26 -->
<g id="node26" class="node"><title>Node26</title>
<polygon fill="white" stroke="#bfbfbf" points="320,-79.6434 320,-98.6434 362,-98.6434 362,-79.6434 320,-79.6434"/>
<text text-anchor="middle" x="341" y="-86.6434" font-family="Helvetica,sans-Serif" font-size="10.00">HBox</text>
</g>
<!-- Node26&#45;&gt;Node25 -->
<g id="edge28" class="edge"><title>Node26&#45;&gt;Node25</title>
<path fill="none" stroke="midnightblue" d="M372.133,-89.1434C417.434,-89.1434 502.74,-89.1434 549.43,-89.1434"/>
<polygon fill="midnightblue" stroke="midnightblue" points="372.05,-85.6435 362.049,-89.1434 372.049,-92.6435 372.05,-85.6435"/>
</g>
<!-- Node27 -->
<g id="node27" class="node"><title>Node27</title>
<polygon fill="white" stroke="#bfbfbf" points="316.5,-41.6434 316.5,-60.6434 365.5,-60.6434 365.5,-41.6434 316.5,-41.6434"/>
<text text-anchor="middle" x="341" y="-48.6434" font-family="Helvetica,sans-Serif" font-size="10.00">Button</text>
</g>
<!-- Node27&#45;&gt;Node25 -->
<g id="edge29" class="edge"><title>Node27&#45;&gt;Node25</title>
<path fill="none" stroke="#9a32cd" stroke-dasharray="5,2" d="M375.991,-56.5254C422.155,-63.8345 504.105,-76.81 549.488,-83.9957"/>
<polygon fill="#9a32cd" stroke="#9a32cd" points="376.314,-53.0329 365.89,-54.9259 375.219,-59.9468 376.314,-53.0329"/>
<text text-anchor="middle" x="440" y="-76.1434" font-family="Helvetica,sans-Serif" font-size="10.00"> runButton</text>
</g>
<!-- Node28 -->
<g id="node28" class="node"><title>Node28</title>
<polygon fill="white" stroke="#bfbfbf" points="312,-117.643 312,-136.643 370,-136.643 370,-117.643 312,-117.643"/>
<text text-anchor="middle" x="341" y="-124.643" font-family="Helvetica,sans-Serif" font-size="10.00">TextArea</text>
</g>
<!-- Node28&#45;&gt;Node25 -->
<g id="edge31" class="edge"><title>Node28&#45;&gt;Node25</title>
<path fill="none" stroke="#9a32cd" stroke-dasharray="5,2" d="M380.018,-121.124C426.689,-113.734 505.061,-101.325 549.206,-94.3358"/>
<polygon fill="#9a32cd" stroke="#9a32cd" points="379.33,-117.689 370.001,-122.71 380.425,-124.603 379.33,-117.689"/>
<text text-anchor="middle" x="440" y="-120.143" font-family="Helvetica,sans-Serif" font-size="10.00"> textEditor</text>
</g>
<!-- Node29 -->
<g id="node29" class="node"><title>Node29</title>
<polygon fill="white" stroke="#bfbfbf" points="523.5,-498.643 523.5,-517.643 642.5,-517.643 642.5,-498.643 523.5,-498.643"/>
<text text-anchor="middle" x="583" y="-505.643" font-family="Helvetica,sans-Serif" font-size="10.00">Map&lt; String, Node &gt;</text>
</g>
<!-- Node29&#45;&gt;Node10 -->
<g id="edge33" class="edge"><title>Node29&#45;&gt;Node10</title>
<path fill="none" stroke="#9a32cd" stroke-dasharray="5,2" d="M652.768,-510.169C697.073,-508.765 754.653,-501.71 800,-478.143 843.164,-455.711 877.231,-405.915 890.261,-384.852"/>
<polygon fill="#9a32cd" stroke="#9a32cd" points="652.586,-506.672 642.669,-510.399 652.746,-513.67 652.586,-506.672"/>
<text text-anchor="middle" x="744" y="-511.143" font-family="Helvetica,sans-Serif" font-size="10.00"> variables</text>
</g>
<!-- Node30 -->
<g id="node30" class="node"><title>Node30</title>
<polygon fill="white" stroke="#bfbfbf" points="542.5,-460.643 542.5,-479.643 623.5,-479.643 623.5,-460.643 542.5,-460.643"/>
<text text-anchor="middle" x="583" y="-467.643" font-family="Helvetica,sans-Serif" font-size="10.00">Dimension2D</text>
</g>
<!-- Node30&#45;&gt;Node10 -->
<g id="edge35" class="edge"><title>Node30&#45;&gt;Node10</title>
<path fill="none" stroke="#9a32cd" stroke-dasharray="5,2" d="M633.933,-468.443C678.707,-465.549 745.54,-457.799 800,-437.143 833.577,-424.408 867.664,-398.688 884.755,-384.711"/>
<polygon fill="#9a32cd" stroke="#9a32cd" points="633.665,-464.952 623.888,-469.034 634.077,-471.94 633.665,-464.952"/>
<text text-anchor="middle" x="744" y="-466.143" font-family="Helvetica,sans-Serif" font-size="10.00"> myDimensions</text>
</g>
<!-- Node31 -->
<g id="node31" class="node"><title>Node31</title>
<polygon fill="white" stroke="#bfbfbf" points="555,-422.643 555,-441.643 611,-441.643 611,-422.643 555,-422.643"/>
<text text-anchor="middle" x="583" y="-429.643" font-family="Helvetica,sans-Serif" font-size="10.00">TabPane</text>
</g>
<!-- Node31&#45;&gt;Node10 -->
<g id="edge37" class="edge"><title>Node31&#45;&gt;Node10</title>
<path fill="none" stroke="#9a32cd" stroke-dasharray="5,2" d="M621.23,-428.862C664.508,-424.651 737.933,-416.283 800,-403.143 822.929,-398.289 848.372,-390.768 867.301,-384.743"/>
<polygon fill="#9a32cd" stroke="#9a32cd" points="620.786,-425.388 611.163,-429.819 621.449,-432.356 620.786,-425.388"/>
<text text-anchor="middle" x="744" y="-425.143" font-family="Helvetica,sans-Serif" font-size="10.00"> myTabPane</text>
</g>
<!-- Node32 -->
<g id="node32" class="node"><title>Node32</title>
<g id="a_node32"><a xlink:href="../../de/d0a/classview_1_1_drawer.html" target="_top" xlink:title="view.Drawer">
<polygon fill="white" stroke="black" points="546.5,-536.643 546.5,-555.643 619.5,-555.643 619.5,-536.643 546.5,-536.643"/>
<text text-anchor="middle" x="583" y="-543.643" font-family="Helvetica,sans-Serif" font-size="10.00">view.Drawer</text>
</a>
</g>
</g>
<!-- Node32&#45;&gt;Node10 -->
<g id="edge38" class="edge"><title>Node32&#45;&gt;Node10</title>
<path fill="none" stroke="#9a32cd" stroke-dasharray="5,2" d="M629.926,-551.841C676.312,-555.255 748.311,-553.938 800,-522.143 854.261,-488.766 883.91,-411.909 892.968,-384.814"/>
<polygon fill="#9a32cd" stroke="#9a32cd" points="630.118,-548.344 619.86,-550.996 629.533,-555.32 630.118,-548.344"/>
<text text-anchor="middle" x="744" y="-556.143" font-family="Helvetica,sans-Serif" font-size="10.00"> drawer</text>
</g>
<!-- Node33 -->
<g id="node33" class="node"><title>Node33</title>
<polygon fill="white" stroke="#bfbfbf" points="320.5,-536.643 320.5,-555.643 361.5,-555.643 361.5,-536.643 320.5,-536.643"/>
<text text-anchor="middle" x="341" y="-543.643" font-family="Helvetica,sans-Serif" font-size="10.00">Color</text>
</g>
<!-- Node33&#45;&gt;Node32 -->
<g id="edge39" class="edge"><title>Node33&#45;&gt;Node32</title>
<path fill="none" stroke="#9a32cd" stroke-dasharray="5,2" d="M371.749,-546.143C415.977,-546.143 498.936,-546.143 546.351,-546.143"/>
<polygon fill="#9a32cd" stroke="#9a32cd" points="371.64,-542.644 361.64,-546.143 371.64,-549.644 371.64,-542.644"/>
<text text-anchor="middle" x="440" y="-549.143" font-family="Helvetica,sans-Serif" font-size="10.00"> myColor</text>
</g>
<!-- Node34 -->
<g id="node34" class="node"><title>Node34</title>
<polygon fill="white" stroke="#bfbfbf" points="560,-384.643 560,-403.643 606,-403.643 606,-384.643 560,-384.643"/>
<text text-anchor="middle" x="583" y="-391.643" font-family="Helvetica,sans-Serif" font-size="10.00">Group</text>
</g>
<!-- Node34&#45;&gt;Node10 -->
<g id="edge41" class="edge"><title>Node34&#45;&gt;Node10</title>
<path fill="none" stroke="#9a32cd" stroke-dasharray="5,2" d="M616.521,-392.163C672.621,-388.747 787.669,-381.74 851.267,-377.868"/>
<polygon fill="#9a32cd" stroke="#9a32cd" points="616.207,-388.676 606.438,-392.777 616.633,-395.663 616.207,-388.676"/>
<text text-anchor="middle" x="744" y="-391.143" font-family="Helvetica,sans-Serif" font-size="10.00"> lines</text>
</g>
</g>
</svg>
