<?xml version="1.0" encoding="UTF-8" standalone="no"?>
<!DOCTYPE svg PUBLIC "-//W3C//DTD SVG 1.1//EN"
 "http://www.w3.org/Graphics/SVG/1.1/DTD/svg11.dtd">
<!-- Generated by graphviz version 2.36.0 (20140111.2315)
 -->
<!-- Title: controller.SLogoController Pages: 1 -->
<svg width="1220pt" height="609pt"
 viewBox="0.00 0.00 1220.00 609.00" xmlns="http://www.w3.org/2000/svg" xmlns:xlink="http://www.w3.org/1999/xlink">
<g id="graph0" class="graph" transform="scale(1 1) rotate(0) translate(4 605)">
<title>controller.SLogoController</title>
<polygon fill="white" stroke="none" points="-4,4 -4,-605 1216,-605 1216,4 -4,4"/>
<!-- Node1 -->
<g id="node1" class="node"><title>Node1</title>
<polygon fill="#bfbfbf" stroke="black" points="10,-118.5 10,-137.5 150,-137.5 150,-118.5 10,-118.5"/>
<text text-anchor="middle" x="80" y="-125.5" font-family="Helvetica,sans-Serif" font-size="10.00">controller.SLogoController</text>
</g>
<!-- Node9 -->
<g id="node9" class="node"><title>Node9</title>
<g id="a_node9"><a xlink:href="../../d6/de7/classview_1_1_s_logo_view.html" target="_top" xlink:title="view.SLogoView">
<polygon fill="white" stroke="black" points="849.5,-275.5 849.5,-294.5 940.5,-294.5 940.5,-275.5 849.5,-275.5"/>
<text text-anchor="middle" x="895" y="-282.5" font-family="Helvetica,sans-Serif" font-size="10.00">view.SLogoView</text>
</a>
</g>
</g>
<!-- Node1&#45;&gt;Node9 -->
<g id="edge33" class="edge"><title>Node1&#45;&gt;Node9</title>
<path fill="none" stroke="#9a32cd" stroke-dasharray="5,2" d="M112.243,-114.633C153.763,-97.6402 229.829,-69.1715 298,-58 407.654,-40.0305 716.187,22.1905 798,-53 832.975,-85.1437 785.106,-229.917 816,-266 824.34,-275.74 836.759,-280.933 849.248,-283.59"/>
<polygon fill="#9a32cd" stroke="#9a32cd" points="110.845,-111.423 102.945,-118.483 113.524,-117.891 110.845,-111.423"/>
<text text-anchor="middle" x="440" y="-44" font-family="Helvetica,sans-Serif" font-size="10.00"> myController</text>
</g>
<!-- Node15 -->
<g id="node15" class="node"><title>Node15</title>
<g id="a_node15"><a xlink:href="../../d1/dc7/classview_1_1_side_bar.html" target="_top" xlink:title="view.SideBar">
<polygon fill="white" stroke="black" points="302.5,-343.5 302.5,-362.5 379.5,-362.5 379.5,-343.5 302.5,-343.5"/>
<text text-anchor="middle" x="341" y="-350.5" font-family="Helvetica,sans-Serif" font-size="10.00">view.SideBar</text>
</a>
</g>
</g>
<!-- Node1&#45;&gt;Node15 -->
<g id="edge17" class="edge"><title>Node1&#45;&gt;Node15</title>
<path fill="none" stroke="#9a32cd" stroke-dasharray="5,2" d="M91.5067,-146.631C107.239,-173.056 139.251,-221.482 178,-251 217.135,-280.812 239.065,-266.711 280,-294 301.394,-308.262 321.731,-330.8 332.352,-343.494"/>
<polygon fill="#9a32cd" stroke="#9a32cd" points="94.3463,-144.552 86.2939,-137.666 88.2949,-148.07 94.3463,-144.552"/>
<text text-anchor="middle" x="229" y="-297" font-family="Helvetica,sans-Serif" font-size="10.00"> myController</text>
</g>
<!-- Node24 -->
<g id="node24" class="node"><title>Node24</title>
<g id="a_node24"><a xlink:href="../../da/dc8/classview_1_1_editor.html" target="_top" xlink:title="view.Editor">
<polygon fill="white" stroke="black" points="549.5,-380.5 549.5,-399.5 616.5,-399.5 616.5,-380.5 549.5,-380.5"/>
<text text-anchor="middle" x="583" y="-387.5" font-family="Helvetica,sans-Serif" font-size="10.00">view.Editor</text>
</a>
</g>
</g>
<!-- Node1&#45;&gt;Node24 -->
<g id="edge29" class="edge"><title>Node1&#45;&gt;Node24</title>
<path fill="none" stroke="#9a32cd" stroke-dasharray="5,2" d="M118.16,-140.93C189.041,-166.037 340.386,-221.906 384,-256 394.505,-264.212 391.673,-271.566 402,-280 430.948,-303.642 453.134,-288.097 478,-316 494.551,-334.572 477.653,-352.199 496,-369 510.395,-382.182 531.673,-387.454 549.462,-389.419"/>
<polygon fill="#9a32cd" stroke="#9a32cd" points="119.307,-137.623 108.712,-137.597 116.978,-144.225 119.307,-137.623"/>
<text text-anchor="middle" x="341" y="-259" font-family="Helvetica,sans-Serif" font-size="10.00"> myController</text>
</g>
<!-- Node2 -->
<g id="node2" class="node"><title>Node2</title>
<g id="a_node2"><a xlink:href="../../dc/df5/classmodel_1_1_parser.html" target="_top" xlink:title="model.Parser">
<polygon fill="white" stroke="black" points="1132,-299.5 1132,-318.5 1212,-318.5 1212,-299.5 1132,-299.5"/>
<text text-anchor="middle" x="1172" y="-306.5" font-family="Helvetica,sans-Serif" font-size="10.00">model.Parser</text>
</a>
</g>
</g>
<!-- Node2&#45;&gt;Node1 -->
<g id="edge1" class="edge"><title>Node2&#45;&gt;Node1</title>
<path fill="none" stroke="#9a32cd" stroke-dasharray="5,2" d="M1164.62,-289.599C1141.01,-221.867 1051.78,-0 896,-0 340,-0 340,-0 340,-0 233.166,-0 124.811,-88.6113 91.4246,-118.379"/>
<polygon fill="#9a32cd" stroke="#9a32cd" points="1161.43,-291.07 1167.96,-299.413 1168.05,-288.819 1161.43,-291.07"/>
<text text-anchor="middle" x="583" y="-3" font-family="Helvetica,sans-Serif" font-size="10.00"> myParser</text>
</g>
<!-- Node3 -->
<g id="node3" class="node"><title>Node3</title>
<polygon fill="white" stroke="#bfbfbf" points="553,-494.5 553,-513.5 613,-513.5 613,-494.5 553,-494.5"/>
<text text-anchor="middle" x="583" y="-501.5" font-family="Helvetica,sans-Serif" font-size="10.00">Observer</text>
</g>
<!-- Node3&#45;&gt;Node2 -->
<g id="edge2" class="edge"><title>Node3&#45;&gt;Node2</title>
<path fill="none" stroke="midnightblue" d="M623.458,-505.897C666.956,-506.963 738.637,-505.672 798,-490 947.279,-450.589 1108.27,-350.149 1156.54,-318.62"/>
<polygon fill="midnightblue" stroke="midnightblue" points="623.396,-502.394 613.296,-505.592 623.186,-509.39 623.396,-502.394"/>
</g>
<!-- Node3&#45;&gt;Node9 -->
<g id="edge9" class="edge"><title>Node3&#45;&gt;Node9</title>
<path fill="none" stroke="midnightblue" d="M623.393,-499.377C681.909,-492.134 786.211,-477.631 798,-465 847.128,-412.363 768.437,-358.055 816,-304 824.47,-294.373 836.926,-289.212 849.41,-286.55"/>
<polygon fill="midnightblue" stroke="midnightblue" points="622.879,-495.914 613.377,-500.602 623.728,-502.862 622.879,-495.914"/>
</g>
<!-- Node4 -->
<g id="node4" class="node"><title>Node4</title>
<polygon fill="white" stroke="#bfbfbf" points="839,-314 839,-344 951,-344 951,-314 839,-314"/>
<text text-anchor="start" x="847" y="-332" font-family="Helvetica,sans-Serif" font-size="10.00">List&lt; Entry&lt; String,</text>
<text text-anchor="middle" x="895" y="-321" font-family="Helvetica,sans-Serif" font-size="10.00"> Pattern &gt; &gt;</text>
</g>
<!-- Node4&#45;&gt;Node2 -->
<g id="edge3" class="edge"><title>Node4&#45;&gt;Node2</title>
<path fill="none" stroke="#9a32cd" stroke-dasharray="5,2" d="M961.31,-324.25C1014.33,-320.394 1087.35,-315.083 1131.75,-311.854"/>
<polygon fill="#9a32cd" stroke="#9a32cd" points="961.039,-320.761 951.32,-324.977 961.547,-327.742 961.039,-320.761"/>
<text text-anchor="middle" x="1053" y="-325" font-family="Helvetica,sans-Serif" font-size="10.00"> myPatterns</text>
</g>
<!-- Node5 -->
<g id="node5" class="node"><title>Node5</title>
<g id="a_node5"><a xlink:href="../../d1/dca/classmodel_1_1_execution_environment.html" target="_top" xlink:title="model.ExecutionEnvironment">
<polygon fill="white" stroke="black" points="816.5,-532.5 816.5,-551.5 973.5,-551.5 973.5,-532.5 816.5,-532.5"/>
<text text-anchor="middle" x="895" y="-539.5" font-family="Helvetica,sans-Serif" font-size="10.00">model.ExecutionEnvironment</text>
</a>
</g>
</g>
<!-- Node5&#45;&gt;Node2 -->
<g id="edge4" class="edge"><title>Node5&#45;&gt;Node2</title>
<path fill="none" stroke="#9a32cd" stroke-dasharray="5,2" d="M962.214,-552.448C1009.87,-556.08 1072.78,-552.344 1114,-517 1145.27,-490.192 1164.89,-355.847 1169.79,-318.593"/>
<polygon fill="#9a32cd" stroke="#9a32cd" points="962.254,-548.938 951.983,-551.54 961.634,-555.911 962.254,-548.938"/>
<text text-anchor="middle" x="1053" y="-556" font-family="Helvetica,sans-Serif" font-size="10.00"> myExecutionParameters</text>
</g>
<!-- Node6 -->
<g id="node6" class="node"><title>Node6</title>
<polygon fill="white" stroke="#bfbfbf" points="547.5,-532.5 547.5,-551.5 618.5,-551.5 618.5,-532.5 547.5,-532.5"/>
<text text-anchor="middle" x="583" y="-539.5" font-family="Helvetica,sans-Serif" font-size="10.00">Observable</text>
</g>
<!-- Node6&#45;&gt;Node5 -->
<g id="edge5" class="edge"><title>Node6&#45;&gt;Node5</title>
<path fill="none" stroke="midnightblue" d="M628.942,-542C677.974,-542 757.356,-542 816.485,-542"/>
<polygon fill="midnightblue" stroke="midnightblue" points="628.659,-538.5 618.659,-542 628.659,-545.5 628.659,-538.5"/>
</g>
<!-- Node7 -->
<g id="node7" class="node"><title>Node7</title>
<polygon fill="white" stroke="#bfbfbf" points="496,-571 496,-601 670,-601 670,-571 496,-571"/>
<text text-anchor="start" x="504" y="-589" font-family="Helvetica,sans-Serif" font-size="10.00">Map&lt; String, model.instructions.</text>
<text text-anchor="middle" x="583" y="-578" font-family="Helvetica,sans-Serif" font-size="10.00">Instruction &gt;</text>
</g>
<!-- Node7&#45;&gt;Node5 -->
<g id="edge6" class="edge"><title>Node7&#45;&gt;Node5</title>
<path fill="none" stroke="#9a32cd" stroke-dasharray="5,2" d="M680.406,-572.601C717.211,-567.455 759.555,-561.498 798,-556 808.004,-554.569 818.592,-553.04 828.941,-551.537"/>
<polygon fill="#9a32cd" stroke="#9a32cd" points="679.6,-569.179 670.18,-574.029 680.568,-576.112 679.6,-569.179"/>
<text text-anchor="middle" x="743" y="-584" font-family="Helvetica,sans-Serif" font-size="10.00"> myVariableMap</text>
<text text-anchor="middle" x="743" y="-573" font-family="Helvetica,sans-Serif" font-size="10.00">myUserInstructionMap</text>
</g>
<!-- Node8 -->
<g id="node8" class="node"><title>Node8</title>
<polygon fill="white" stroke="#bfbfbf" points="834,-237.5 834,-256.5 956,-256.5 956,-237.5 834,-237.5"/>
<text text-anchor="middle" x="895" y="-244.5" font-family="Helvetica,sans-Serif" font-size="10.00">Map&lt; String, String &gt;</text>
</g>
<!-- Node8&#45;&gt;Node2 -->
<g id="edge7" class="edge"><title>Node8&#45;&gt;Node2</title>
<path fill="none" stroke="#9a32cd" stroke-dasharray="5,2" d="M966.46,-248.767C1009.99,-251.623 1066.42,-258.555 1114,-275 1130.34,-280.646 1147.1,-291.349 1158.18,-299.244"/>
<polygon fill="#9a32cd" stroke="#9a32cd" points="966.443,-245.26 956.252,-248.156 966.025,-252.248 966.443,-245.26"/>
<text text-anchor="middle" x="1053" y="-278" font-family="Helvetica,sans-Serif" font-size="10.00"> myCommandMap</text>
</g>
<!-- Node9&#45;&gt;Node2 -->
<g id="edge8" class="edge"><title>Node9&#45;&gt;Node2</title>
<path fill="none" stroke="#9a32cd" stroke-dasharray="5,2" d="M951.04,-286.866C995.208,-288.765 1058.74,-292.399 1114,-299 1119.79,-299.691 1125.88,-300.583 1131.84,-301.548"/>
<polygon fill="#9a32cd" stroke="#9a32cd" points="950.941,-283.359 940.805,-286.442 950.651,-290.353 950.941,-283.359"/>
<text text-anchor="middle" x="1053" y="-302" font-family="Helvetica,sans-Serif" font-size="10.00"> mySLogoView</text>
</g>
<!-- Node10 -->
<g id="node10" class="node"><title>Node10</title>
<g id="a_node10"><a xlink:href="../../da/d64/classview_1_1_workspace.html" target="_top" xlink:title="view.Workspace">
<polygon fill="white" stroke="black" points="538,-295.5 538,-314.5 628,-314.5 628,-295.5 538,-295.5"/>
<text text-anchor="middle" x="583" y="-302.5" font-family="Helvetica,sans-Serif" font-size="10.00">view.Workspace</text>
</a>
</g>
</g>
<!-- Node10&#45;&gt;Node9 -->
<g id="edge10" class="edge"><title>Node10&#45;&gt;Node9</title>
<path fill="none" stroke="#9a32cd" stroke-dasharray="5,2" d="M638.112,-301.509C698.021,-297.644 793.483,-291.485 849.312,-287.883"/>
<polygon fill="#9a32cd" stroke="#9a32cd" points="637.84,-298.019 628.086,-302.156 638.291,-305.005 637.84,-298.019"/>
<text text-anchor="middle" x="743" y="-301" font-family="Helvetica,sans-Serif" font-size="10.00"> myWorkspace</text>
</g>
<!-- Node11 -->
<g id="node11" class="node"><title>Node11</title>
<polygon fill="white" stroke="#bfbfbf" points="307.5,-143.5 307.5,-162.5 374.5,-162.5 374.5,-143.5 307.5,-143.5"/>
<text text-anchor="middle" x="341" y="-150.5" font-family="Helvetica,sans-Serif" font-size="10.00">StackPane</text>
</g>
<!-- Node11&#45;&gt;Node10 -->
<g id="edge11" class="edge"><title>Node11&#45;&gt;Node10</title>
<path fill="none" stroke="midnightblue" d="M384.888,-150.436C415.108,-151.093 454.269,-157.332 478,-182 510.522,-215.806 463.603,-252.075 496,-286 506.771,-297.279 522.612,-302.587 537.772,-304.891"/>
<polygon fill="midnightblue" stroke="midnightblue" points="384.618,-146.936 374.611,-150.415 384.604,-153.936 384.618,-146.936"/>
</g>
<!-- Node12 -->
<g id="node12" class="node"><title>Node12</title>
<g id="a_node12"><a xlink:href="../../d8/df7/classview_1_1_turtle_view.html" target="_top" xlink:title="view.TurtleView">
<polygon fill="white" stroke="black" points="298,-381.5 298,-400.5 384,-400.5 384,-381.5 298,-381.5"/>
<text text-anchor="middle" x="341" y="-388.5" font-family="Helvetica,sans-Serif" font-size="10.00">view.TurtleView</text>
</a>
</g>
</g>
<!-- Node12&#45;&gt;Node10 -->
<g id="edge12" class="edge"><title>Node12&#45;&gt;Node10</title>
<path fill="none" stroke="#9a32cd" stroke-dasharray="5,2" d="M377.451,-376.448C379.738,-375.061 381.945,-373.578 384,-372 394.019,-364.305 391.33,-356.764 402,-350 443.488,-323.698 499.422,-312.763 537.869,-308.221"/>
<polygon fill="#9a32cd" stroke="#9a32cd" points="375.536,-373.503 368.379,-381.315 378.845,-379.671 375.536,-373.503"/>
<text text-anchor="middle" x="440" y="-353" font-family="Helvetica,sans-Serif" font-size="10.00"> myActiveTurtle</text>
</g>
<!-- Node13 -->
<g id="node13" class="node"><title>Node13</title>
<polygon fill="white" stroke="#bfbfbf" points="46,-562.5 46,-581.5 114,-581.5 114,-562.5 46,-562.5"/>
<text text-anchor="middle" x="80" y="-569.5" font-family="Helvetica,sans-Serif" font-size="10.00">ImageView</text>
</g>
<!-- Node13&#45;&gt;Node12 -->
<g id="edge13" class="edge"><title>Node13&#45;&gt;Node12</title>
<path fill="none" stroke="midnightblue" d="M124.13,-580.518C169.404,-586.718 239.513,-588.097 280,-548 323.948,-504.476 261.169,-459.692 298,-410 300.859,-406.142 304.685,-403.049 308.868,-400.574"/>
<polygon fill="midnightblue" stroke="midnightblue" points="124.438,-577.025 114.029,-578.998 123.397,-583.947 124.438,-577.025"/>
</g>
<!-- Node14 -->
<g id="node14" class="node"><title>Node14</title>
<polygon fill="white" stroke="#bfbfbf" points="12,-247 12,-277 148,-277 148,-247 12,-247"/>
<text text-anchor="start" x="20" y="-265" font-family="Helvetica,sans-Serif" font-size="10.00">Map&lt; Integer, view.Turtle</text>
<text text-anchor="middle" x="80" y="-254" font-family="Helvetica,sans-Serif" font-size="10.00">View &gt;</text>
</g>
<!-- Node14&#45;&gt;Node9 -->
<g id="edge35" class="edge"><title>Node14&#45;&gt;Node9</title>
<path fill="none" stroke="#9a32cd" stroke-dasharray="5,2" d="M107.035,-240.385C145.775,-209.758 222.2,-155.109 298,-134 351.521,-119.096 756.217,-93.3829 798,-130 843.855,-170.186 775.262,-220.636 816,-266 824.474,-275.437 836.78,-280.565 849.122,-283.256"/>
<polygon fill="#9a32cd" stroke="#9a32cd" points="104.523,-237.913 98.9078,-246.897 108.9,-243.375 104.523,-237.913"/>
<text text-anchor="middle" x="440" y="-125" font-family="Helvetica,sans-Serif" font-size="10.00"> myTurtles</text>
</g>
<!-- Node14&#45;&gt;Node10 -->
<g id="edge14" class="edge"><title>Node14&#45;&gt;Node10</title>
<path fill="none" stroke="#9a32cd" stroke-dasharray="5,2" d="M158.321,-263.922C238.51,-266.56 367.398,-272.603 478,-286 497.77,-288.395 519.463,-292.172 537.899,-295.731"/>
<polygon fill="#9a32cd" stroke="#9a32cd" points="158.412,-260.424 148.305,-263.602 158.188,-267.42 158.412,-260.424"/>
<text text-anchor="middle" x="341" y="-280" font-family="Helvetica,sans-Serif" font-size="10.00"> myTurtles</text>
</g>
<!-- Node14&#45;&gt;Node15 -->
<g id="edge19" class="edge"><title>Node14&#45;&gt;Node15</title>
<path fill="none" stroke="#9a32cd" stroke-dasharray="5,2" d="M119.548,-281.588C137.107,-290.064 158.323,-299.694 178,-307 219.798,-322.519 269.285,-335.873 302.468,-344.133"/>
<polygon fill="#9a32cd" stroke="#9a32cd" points="120.724,-278.267 110.203,-277.02 117.65,-284.556 120.724,-278.267"/>
<text text-anchor="middle" x="229" y="-341" font-family="Helvetica,sans-Serif" font-size="10.00"> myTurtles</text>
</g>
<!-- Node15&#45;&gt;Node9 -->
<g id="edge39" class="edge"><title>Node15&#45;&gt;Node9</title>
<path fill="none" stroke="#9a32cd" stroke-dasharray="5,2" d="M389.825,-354.616C474.042,-356.191 653.565,-353.841 798,-313 806.607,-310.566 807.602,-307.078 816,-304 826.6,-300.115 838.301,-296.787 849.345,-294.051"/>
<polygon fill="#9a32cd" stroke="#9a32cd" points="389.867,-351.116 379.794,-354.401 389.716,-358.114 389.867,-351.116"/>
<text text-anchor="middle" x="583" y="-357" font-family="Helvetica,sans-Serif" font-size="10.00"> mySidebar</text>
</g>
<!-- Node15&#45;&gt;Node10 -->
<g id="edge15" class="edge"><title>Node15&#45;&gt;Node10</title>
<path fill="none" stroke="#9a32cd" stroke-dasharray="5,2" d="M354.417,-334.633C365.141,-320.544 382.036,-302.171 402,-294 425.687,-284.305 492.54,-291.481 537.759,-297.932"/>
<polygon fill="#9a32cd" stroke="#9a32cd" points="351.304,-332.964 348.29,-343.121 356.98,-337.061 351.304,-332.964"/>
<text text-anchor="middle" x="440" y="-297" font-family="Helvetica,sans-Serif" font-size="10.00"> mySidebar</text>
</g>
<!-- Node15&#45;&gt;Node24 -->
<g id="edge31" class="edge"><title>Node15&#45;&gt;Node24</title>
<path fill="none" stroke="#9a32cd" stroke-dasharray="5,2" d="M389.854,-362.836C393.957,-363.598 398.048,-364.331 402,-365 453.327,-373.689 513.266,-381.563 549.393,-386.063"/>
<polygon fill="#9a32cd" stroke="#9a32cd" points="390.184,-359.335 379.705,-360.896 388.87,-366.211 390.184,-359.335"/>
<text text-anchor="middle" x="440" y="-380" font-family="Helvetica,sans-Serif" font-size="10.00"> mySidebar</text>
</g>
<!-- Node16 -->
<g id="node16" class="node"><title>Node16</title>
<polygon fill="white" stroke="#bfbfbf" points="59.5,-524.5 59.5,-543.5 100.5,-543.5 100.5,-524.5 59.5,-524.5"/>
<text text-anchor="middle" x="80" y="-531.5" font-family="Helvetica,sans-Serif" font-size="10.00">VBox</text>
</g>
<!-- Node16&#45;&gt;Node15 -->
<g id="edge16" class="edge"><title>Node16&#45;&gt;Node15</title>
<path fill="none" stroke="midnightblue" d="M110.609,-540.962C154.123,-549.258 235.037,-556.992 280,-513 325.157,-468.819 260.451,-422.806 298,-372 300.854,-368.138 304.677,-365.043 308.859,-362.567"/>
<polygon fill="midnightblue" stroke="midnightblue" points="111.148,-537.5 100.649,-538.927 109.746,-544.358 111.148,-537.5"/>
</g>
<!-- Node17 -->
<g id="node17" class="node"><title>Node17</title>
<polygon fill="white" stroke="#bfbfbf" points="13,-475 13,-505 147,-505 147,-475 13,-475"/>
<text text-anchor="start" x="21" y="-493" font-family="Helvetica,sans-Serif" font-size="10.00">TableView&lt; view.Variable</text>
<text text-anchor="middle" x="80" y="-482" font-family="Helvetica,sans-Serif" font-size="10.00">View &gt;</text>
</g>
<!-- Node17&#45;&gt;Node15 -->
<g id="edge18" class="edge"><title>Node17&#45;&gt;Node15</title>
<path fill="none" stroke="#9a32cd" stroke-dasharray="5,2" d="M157.28,-488.195C205.703,-485.411 262.443,-478.574 280,-462 309.663,-433.998 272.615,-403.931 298,-372 301.088,-368.116 305.143,-364.999 309.517,-362.505"/>
<polygon fill="#9a32cd" stroke="#9a32cd" points="156.893,-484.71 147.09,-488.729 157.26,-491.701 156.893,-484.71"/>
<text text-anchor="middle" x="229" y="-501" font-family="Helvetica,sans-Serif" font-size="10.00"> turtlePropertiesTable</text>
<text text-anchor="middle" x="229" y="-490" font-family="Helvetica,sans-Serif" font-size="10.00">variablesTable</text>
</g>
<!-- Node18 -->
<g id="node18" class="node"><title>Node18</title>
<polygon fill="white" stroke="#bfbfbf" points="0.5,-426 0.5,-456 159.5,-456 159.5,-426 0.5,-426"/>
<text text-anchor="start" x="8.5" y="-444" font-family="Helvetica,sans-Serif" font-size="10.00">ObservableList&lt; view.Variable</text>
<text text-anchor="middle" x="80" y="-433" font-family="Helvetica,sans-Serif" font-size="10.00">View &gt;</text>
</g>
<!-- Node18&#45;&gt;Node15 -->
<g id="edge20" class="edge"><title>Node18&#45;&gt;Node15</title>
<path fill="none" stroke="#9a32cd" stroke-dasharray="5,2" d="M170.045,-447.403C207.311,-445.697 249.057,-437.541 280,-414 296.163,-401.703 283.783,-386.503 298,-372 301.698,-368.228 306.28,-365.138 311.046,-362.629"/>
<polygon fill="#9a32cd" stroke="#9a32cd" points="169.554,-443.916 159.666,-447.721 169.768,-450.913 169.554,-443.916"/>
<text text-anchor="middle" x="229" y="-450" font-family="Helvetica,sans-Serif" font-size="10.00"> variablesList</text>
</g>
<!-- Node19 -->
<g id="node19" class="node"><title>Node19</title>
<polygon fill="white" stroke="#bfbfbf" points="11,-387.5 11,-406.5 149,-406.5 149,-387.5 11,-387.5"/>
<text text-anchor="middle" x="80" y="-394.5" font-family="Helvetica,sans-Serif" font-size="10.00">ObservableList&lt; String &gt;</text>
</g>
<!-- Node19&#45;&gt;Node15 -->
<g id="edge21" class="edge"><title>Node19&#45;&gt;Node15</title>
<path fill="none" stroke="#9a32cd" stroke-dasharray="5,2" d="M159.407,-390.471C196.273,-386.556 240.672,-380.622 280,-372 291.1,-369.566 303.083,-365.974 313.401,-362.567"/>
<polygon fill="#9a32cd" stroke="#9a32cd" points="158.807,-387.014 149.219,-391.522 159.525,-393.977 158.807,-387.014"/>
<text text-anchor="middle" x="229" y="-402" font-family="Helvetica,sans-Serif" font-size="10.00"> commandItems</text>
<text text-anchor="middle" x="229" y="-391" font-family="Helvetica,sans-Serif" font-size="10.00">historyItems</text>
</g>
<!-- Node20 -->
<g id="node20" class="node"><title>Node20</title>
<polygon fill="white" stroke="#bfbfbf" points="27,-349.5 27,-368.5 133,-368.5 133,-349.5 27,-349.5"/>
<text text-anchor="middle" x="80" y="-356.5" font-family="Helvetica,sans-Serif" font-size="10.00">ListView&lt; String &gt;</text>
</g>
<!-- Node20&#45;&gt;Node15 -->
<g id="edge22" class="edge"><title>Node20&#45;&gt;Node15</title>
<path fill="none" stroke="#9a32cd" stroke-dasharray="5,2" d="M143.384,-357.555C192.936,-356.407 260.606,-354.839 302.25,-353.875"/>
<polygon fill="#9a32cd" stroke="#9a32cd" points="143.017,-354.062 133.101,-357.793 143.179,-361.06 143.017,-354.062"/>
<text text-anchor="middle" x="229" y="-360" font-family="Helvetica,sans-Serif" font-size="10.00"> historyList</text>
</g>
<!-- Node21 -->
<g id="node21" class="node"><title>Node21</title>
<polygon fill="white" stroke="#bfbfbf" points="309.5,-181.5 309.5,-200.5 372.5,-200.5 372.5,-181.5 309.5,-181.5"/>
<text text-anchor="middle" x="341" y="-188.5" font-family="Helvetica,sans-Serif" font-size="10.00">Rectangle</text>
</g>
<!-- Node21&#45;&gt;Node10 -->
<g id="edge23" class="edge"><title>Node21&#45;&gt;Node10</title>
<path fill="none" stroke="#9a32cd" stroke-dasharray="5,2" d="M382.727,-185.458C412.745,-183.765 452.611,-186.886 478,-210 503.668,-233.368 471.27,-261.641 496,-286 507.002,-296.837 522.71,-302.081 537.697,-304.457"/>
<polygon fill="#9a32cd" stroke="#9a32cd" points="382.265,-181.983 372.56,-186.233 382.797,-188.963 382.265,-181.983"/>
<text text-anchor="middle" x="440" y="-213" font-family="Helvetica,sans-Serif" font-size="10.00"> myBackground</text>
</g>
<!-- Node22 -->
<g id="node22" class="node"><title>Node22</title>
<polygon fill="white" stroke="#bfbfbf" points="560.5,-456.5 560.5,-475.5 605.5,-475.5 605.5,-456.5 560.5,-456.5"/>
<text text-anchor="middle" x="583" y="-463.5" font-family="Helvetica,sans-Serif" font-size="10.00">Stage</text>
</g>
<!-- Node22&#45;&gt;Node9 -->
<g id="edge24" class="edge"><title>Node22&#45;&gt;Node9</title>
<path fill="none" stroke="#9a32cd" stroke-dasharray="5,2" d="M615.783,-461.805C673.832,-454.005 791.663,-437.474 798,-431 837.879,-390.261 777.715,-346.24 816,-304 824.518,-294.602 836.836,-289.485 849.176,-286.793"/>
<polygon fill="#9a32cd" stroke="#9a32cd" points="615.128,-458.361 605.68,-463.155 616.056,-465.3 615.128,-458.361"/>
<text text-anchor="middle" x="743" y="-454" font-family="Helvetica,sans-Serif" font-size="10.00"> myStage</text>
</g>
<!-- Node23 -->
<g id="node23" class="node"><title>Node23</title>
<polygon fill="white" stroke="#bfbfbf" points="536.5,-418.5 536.5,-437.5 629.5,-437.5 629.5,-418.5 536.5,-418.5"/>
<text text-anchor="middle" x="583" y="-425.5" font-family="Helvetica,sans-Serif" font-size="10.00">ResourceBundle</text>
</g>
<!-- Node23&#45;&gt;Node9 -->
<g id="edge25" class="edge"><title>Node23&#45;&gt;Node9</title>
<path fill="none" stroke="#9a32cd" stroke-dasharray="5,2" d="M639.662,-423.272C699.206,-417.695 786.669,-407.807 798,-397 828.466,-367.943 786.95,-334.472 816,-304 824.752,-294.82 837.137,-289.766 849.468,-287.064"/>
<polygon fill="#9a32cd" stroke="#9a32cd" points="639.265,-419.793 629.628,-424.196 639.907,-426.764 639.265,-419.793"/>
<text text-anchor="middle" x="743" y="-422" font-family="Helvetica,sans-Serif" font-size="10.00"> myResources</text>
</g>
<!-- Node24&#45;&gt;Node9 -->
<g id="edge26" class="edge"><title>Node24&#45;&gt;Node9</title>
<path fill="none" stroke="#9a32cd" stroke-dasharray="5,2" d="M626.722,-387.089C685.399,-382.719 785.167,-373.811 798,-363 818.967,-345.337 796.068,-322.824 816,-304 825.018,-295.483 837.194,-290.592 849.241,-287.834"/>
<polygon fill="#9a32cd" stroke="#9a32cd" points="626.344,-383.607 616.625,-387.827 626.854,-390.589 626.344,-383.607"/>
<text text-anchor="middle" x="743" y="-385" font-family="Helvetica,sans-Serif" font-size="10.00"> myEditor</text>
</g>
<!-- Node25 -->
<g id="node25" class="node"><title>Node25</title>
<polygon fill="white" stroke="#bfbfbf" points="320,-495.5 320,-514.5 362,-514.5 362,-495.5 320,-495.5"/>
<text text-anchor="middle" x="341" y="-502.5" font-family="Helvetica,sans-Serif" font-size="10.00">HBox</text>
</g>
<!-- Node25&#45;&gt;Node24 -->
<g id="edge27" class="edge"><title>Node25&#45;&gt;Node24</title>
<path fill="none" stroke="midnightblue" d="M372.118,-507.302C402.754,-507.914 449.643,-503.819 478,-477 500.714,-455.518 473.442,-430.645 496,-409 510.012,-395.555 531.287,-390.774 549.17,-389.37"/>
<polygon fill="midnightblue" stroke="midnightblue" points="372.142,-503.8 362.017,-506.918 371.877,-510.795 372.142,-503.8"/>
</g>
<!-- Node26 -->
<g id="node26" class="node"><title>Node26</title>
<polygon fill="white" stroke="#bfbfbf" points="316.5,-457.5 316.5,-476.5 365.5,-476.5 365.5,-457.5 316.5,-457.5"/>
<text text-anchor="middle" x="341" y="-464.5" font-family="Helvetica,sans-Serif" font-size="10.00">Button</text>
</g>
<!-- Node26&#45;&gt;Node24 -->
<g id="edge28" class="edge"><title>Node26&#45;&gt;Node24</title>
<path fill="none" stroke="#9a32cd" stroke-dasharray="5,2" d="M375.759,-465.313C404.997,-462.418 447.303,-454.661 478,-434 489.358,-426.355 484.563,-416.527 496,-409 511.71,-398.66 532.177,-393.87 549.203,-391.684"/>
<polygon fill="#9a32cd" stroke="#9a32cd" points="375.292,-461.84 365.624,-466.174 375.884,-468.815 375.292,-461.84"/>
<text text-anchor="middle" x="440" y="-465" font-family="Helvetica,sans-Serif" font-size="10.00"> runButton</text>
</g>
<!-- Node27 -->
<g id="node27" class="node"><title>Node27</title>
<polygon fill="white" stroke="#bfbfbf" points="312,-419.5 312,-438.5 370,-438.5 370,-419.5 312,-419.5"/>
<text text-anchor="middle" x="341" y="-426.5" font-family="Helvetica,sans-Serif" font-size="10.00">TextArea</text>
</g>
<!-- Node27&#45;&gt;Node24 -->
<g id="edge30" class="edge"><title>Node27&#45;&gt;Node24</title>
<path fill="none" stroke="#9a32cd" stroke-dasharray="5,2" d="M380.018,-422.822C426.689,-415.238 505.061,-402.503 549.206,-395.329"/>
<polygon fill="#9a32cd" stroke="#9a32cd" points="379.31,-419.391 370.001,-424.45 380.433,-426.301 379.31,-419.391"/>
<text text-anchor="middle" x="440" y="-422" font-family="Helvetica,sans-Serif" font-size="10.00"> textEditor</text>
</g>
<!-- Node28 -->
<g id="node28" class="node"><title>Node28</title>
<polygon fill="white" stroke="#bfbfbf" points="523.5,-257.5 523.5,-276.5 642.5,-276.5 642.5,-257.5 523.5,-257.5"/>
<text text-anchor="middle" x="583" y="-264.5" font-family="Helvetica,sans-Serif" font-size="10.00">Map&lt; String, Node &gt;</text>
</g>
<!-- Node28&#45;&gt;Node9 -->
<g id="edge32" class="edge"><title>Node28&#45;&gt;Node9</title>
<path fill="none" stroke="#9a32cd" stroke-dasharray="5,2" d="M652.816,-265.507C694.832,-265.205 749.602,-265.9 798,-270 814.809,-271.424 833.134,-274.024 849.226,-276.665"/>
<polygon fill="#9a32cd" stroke="#9a32cd" points="652.662,-262.008 642.694,-265.6 652.726,-269.008 652.662,-262.008"/>
<text text-anchor="middle" x="743" y="-273" font-family="Helvetica,sans-Serif" font-size="10.00"> variables</text>
</g>
<!-- Node29 -->
<g id="node29" class="node"><title>Node29</title>
<polygon fill="white" stroke="#bfbfbf" points="542.5,-219.5 542.5,-238.5 623.5,-238.5 623.5,-219.5 542.5,-219.5"/>
<text text-anchor="middle" x="583" y="-226.5" font-family="Helvetica,sans-Serif" font-size="10.00">Dimension2D</text>
</g>
<!-- Node29&#45;&gt;Node9 -->
<g id="edge34" class="edge"><title>Node29&#45;&gt;Node9</title>
<path fill="none" stroke="#9a32cd" stroke-dasharray="5,2" d="M633.598,-226.063C678.314,-225.25 744.991,-228.676 798,-251 807.597,-255.042 806.701,-261.313 816,-266 826.33,-271.206 838.161,-275.034 849.434,-277.83"/>
<polygon fill="#9a32cd" stroke="#9a32cd" points="633.471,-222.565 623.565,-226.323 633.653,-229.563 633.471,-222.565"/>
<text text-anchor="middle" x="743" y="-254" font-family="Helvetica,sans-Serif" font-size="10.00"> myDimensions</text>
</g>
<!-- Node30 -->
<g id="node30" class="node"><title>Node30</title>
<g id="a_node30"><a xlink:href="../../de/d0a/classview_1_1_drawer.html" target="_top" xlink:title="view.Drawer">
<polygon fill="white" stroke="black" points="546.5,-67.5 546.5,-86.5 619.5,-86.5 619.5,-67.5 546.5,-67.5"/>
<text text-anchor="middle" x="583" y="-74.5" font-family="Helvetica,sans-Serif" font-size="10.00">view.Drawer</text>
</a>
</g>
</g>
<!-- Node30&#45;&gt;Node9 -->
<g id="edge36" class="edge"><title>Node30&#45;&gt;Node9</title>
<path fill="none" stroke="#9a32cd" stroke-dasharray="5,2" d="M626.442,-65.2133C674.775,-54.6402 752.868,-46.6925 798,-90 826.367,-117.221 790.168,-236.362 816,-266 824.425,-275.666 836.868,-280.839 849.354,-283.499"/>
<polygon fill="#9a32cd" stroke="#9a32cd" points="625.555,-61.826 616.602,-67.4918 627.134,-68.6455 625.555,-61.826"/>
<text text-anchor="middle" x="743" y="-93" font-family="Helvetica,sans-Serif" font-size="10.00"> drawer</text>
</g>
<!-- Node31 -->
<g id="node31" class="node"><title>Node31</title>
<polygon fill="white" stroke="#bfbfbf" points="320.5,-67.5 320.5,-86.5 361.5,-86.5 361.5,-67.5 320.5,-67.5"/>
<text text-anchor="middle" x="341" y="-74.5" font-family="Helvetica,sans-Serif" font-size="10.00">Color</text>
</g>
<!-- Node31&#45;&gt;Node30 -->
<g id="edge37" class="edge"><title>Node31&#45;&gt;Node30</title>
<path fill="none" stroke="#9a32cd" stroke-dasharray="5,2" d="M371.749,-77C415.977,-77 498.936,-77 546.351,-77"/>
<polygon fill="#9a32cd" stroke="#9a32cd" points="371.64,-73.5001 361.64,-77 371.64,-80.5001 371.64,-73.5001"/>
<text text-anchor="middle" x="440" y="-80" font-family="Helvetica,sans-Serif" font-size="10.00"> myColor</text>
</g>
<!-- Node32 -->
<g id="node32" class="node"><title>Node32</title>
<polygon fill="white" stroke="#bfbfbf" points="553.5,-181.5 553.5,-200.5 612.5,-200.5 612.5,-181.5 553.5,-181.5"/>
<text text-anchor="middle" x="583" y="-188.5" font-family="Helvetica,sans-Serif" font-size="10.00">GridPane</text>
</g>
<!-- Node32&#45;&gt;Node9 -->
<g id="edge38" class="edge"><title>Node32&#45;&gt;Node9</title>
<path fill="none" stroke="#9a32cd" stroke-dasharray="5,2" d="M622.541,-183.508C669.294,-176.753 748.038,-173.18 798,-213 817.454,-228.505 797.649,-249.204 816,-266 825.151,-274.375 837.366,-279.223 849.409,-281.984"/>
<polygon fill="#9a32cd" stroke="#9a32cd" points="621.847,-180.074 612.508,-185.078 622.929,-186.989 621.847,-180.074"/>
<text text-anchor="middle" x="743" y="-216" font-family="Helvetica,sans-Serif" font-size="10.00"> myRoot</text>
</g>
<!-- Node33 -->
<g id="node33" class="node"><title>Node33</title>
<polygon fill="white" stroke="#bfbfbf" points="560,-143.5 560,-162.5 606,-162.5 606,-143.5 560,-143.5"/>
<text text-anchor="middle" x="583" y="-150.5" font-family="Helvetica,sans-Serif" font-size="10.00">Group</text>
</g>
<!-- Node33&#45;&gt;Node9 -->
<g id="edge40" class="edge"><title>Node33&#45;&gt;Node9</title>
<path fill="none" stroke="#9a32cd" stroke-dasharray="5,2" d="M615.854,-143.864C662.099,-132.737 747.775,-120.483 798,-165 832.122,-195.244 784.783,-232.766 816,-266 824.683,-275.245 837.049,-280.318 849.383,-283.017"/>
<polygon fill="#9a32cd" stroke="#9a32cd" points="614.903,-140.495 606.07,-146.345 616.624,-147.28 614.903,-140.495"/>
<text text-anchor="middle" x="743" y="-168" font-family="Helvetica,sans-Serif" font-size="10.00"> lines</text>
</g>
</g>
</svg>
