<?xml version="1.0" encoding="UTF-8" standalone="no"?>
<!DOCTYPE svg PUBLIC "-//W3C//DTD SVG 1.1//EN"
 "http://www.w3.org/Graphics/SVG/1.1/DTD/svg11.dtd">
<!-- Generated by graphviz version 2.36.0 (20140111.2315)
 -->
<!-- Title: controller.SLogoController Pages: 1 -->
<svg width="1222pt" height="839pt"
 viewBox="0.00 0.00 1222.00 839.00" xmlns="http://www.w3.org/2000/svg" xmlns:xlink="http://www.w3.org/1999/xlink">
<g id="graph0" class="graph" transform="scale(1 1) rotate(0) translate(4 835)">
<title>controller.SLogoController</title>
<polygon fill="white" stroke="none" points="-4,4 -4,-835 1218,-835 1218,4 -4,4"/>
<!-- Node1 -->
<g id="node1" class="node"><title>Node1</title>
<polygon fill="#bfbfbf" stroke="black" points="10,-539.5 10,-558.5 150,-558.5 150,-539.5 10,-539.5"/>
<text text-anchor="middle" x="80" y="-546.5" font-family="Helvetica,sans-Serif" font-size="10.00">controller.SLogoController</text>
</g>
<!-- Node10 -->
<g id="node10" class="node"><title>Node10</title>
<g id="a_node10"><a xlink:href="../../d6/de7/classview_1_1_s_logo_view.html" target="_top" xlink:title="view.SLogoView">
<polygon fill="white" stroke="black" points="851.5,-406.5 851.5,-425.5 942.5,-425.5 942.5,-406.5 851.5,-406.5"/>
<text text-anchor="middle" x="897" y="-413.5" font-family="Helvetica,sans-Serif" font-size="10.00">view.SLogoView</text>
</a>
</g>
</g>
<!-- Node1&#45;&gt;Node10 -->
<g id="edge35" class="edge"><title>Node1&#45;&gt;Node10</title>
<path fill="none" stroke="#9a32cd" stroke-dasharray="5,2" d="M106.279,-534.328C159.068,-504.639 285.774,-438.285 402,-415 487.144,-397.942 746.686,-408.496 851.448,-413.652"/>
<polygon fill="#9a32cd" stroke="#9a32cd" points="104.269,-531.445 97.3015,-539.427 107.726,-537.532 104.269,-531.445"/>
<text text-anchor="middle" x="440" y="-418" font-family="Helvetica,sans-Serif" font-size="10.00"> myController</text>
</g>
<!-- Node16 -->
<g id="node16" class="node"><title>Node16</title>
<g id="a_node16"><a xlink:href="../../d1/dc7/classview_1_1_side_bar.html" target="_top" xlink:title="view.SideBar">
<polygon fill="white" stroke="black" points="302.5,-280.5 302.5,-299.5 379.5,-299.5 379.5,-280.5 302.5,-280.5"/>
<text text-anchor="middle" x="341" y="-287.5" font-family="Helvetica,sans-Serif" font-size="10.00">view.SideBar</text>
</a>
</g>
</g>
<!-- Node1&#45;&gt;Node16 -->
<g id="edge19" class="edge"><title>Node1&#45;&gt;Node16</title>
<path fill="none" stroke="#9a32cd" stroke-dasharray="5,2" d="M91.9193,-530.539C107.947,-504.796 140.085,-458.018 178,-429 217.348,-398.886 242.395,-416.264 280,-384 308.506,-359.543 328.264,-318.172 336.163,-299.567"/>
<polygon fill="#9a32cd" stroke="#9a32cd" points="88.7993,-528.933 86.5871,-539.295 94.7779,-532.574 88.7993,-528.933"/>
<text text-anchor="middle" x="229" y="-432" font-family="Helvetica,sans-Serif" font-size="10.00"> myController</text>
</g>
<!-- Node25 -->
<g id="node25" class="node"><title>Node25</title>
<g id="a_node25"><a xlink:href="../../da/dc8/classview_1_1_editor.html" target="_top" xlink:title="view.Editor">
<polygon fill="white" stroke="black" points="549.5,-558.5 549.5,-577.5 616.5,-577.5 616.5,-558.5 549.5,-558.5"/>
<text text-anchor="middle" x="583" y="-565.5" font-family="Helvetica,sans-Serif" font-size="10.00">view.Editor</text>
</a>
</g>
</g>
<!-- Node1&#45;&gt;Node25 -->
<g id="edge31" class="edge"><title>Node1&#45;&gt;Node25</title>
<path fill="none" stroke="#9a32cd" stroke-dasharray="5,2" d="M112.928,-562.382C154.612,-579.062 230.257,-606.634 298,-617 377.255,-629.127 406.021,-640.32 478,-605 488.157,-600.016 486.079,-592.438 496,-587 512.358,-578.033 532.657,-573.298 549.425,-570.797"/>
<polygon fill="#9a32cd" stroke="#9a32cd" points="114.161,-559.106 103.579,-558.596 111.533,-565.594 114.161,-559.106"/>
<text text-anchor="middle" x="341" y="-631" font-family="Helvetica,sans-Serif" font-size="10.00"> myController</text>
</g>
<!-- Node2 -->
<g id="node2" class="node"><title>Node2</title>
<g id="a_node2"><a xlink:href="../../dc/df5/classmodel_1_1_parser.html" target="_top" xlink:title="model.Parser">
<polygon fill="white" stroke="black" points="1134,-618.5 1134,-637.5 1214,-637.5 1214,-618.5 1134,-618.5"/>
<text text-anchor="middle" x="1174" y="-625.5" font-family="Helvetica,sans-Serif" font-size="10.00">model.Parser</text>
</a>
</g>
</g>
<!-- Node2&#45;&gt;Node1 -->
<g id="edge1" class="edge"><title>Node2&#45;&gt;Node1</title>
<path fill="none" stroke="#9a32cd" stroke-dasharray="5,2" d="M1148.34,-642.609C1138.55,-647.848 1127.02,-653.354 1116,-657 1022.7,-687.856 996.274,-694 898,-694 340,-694 340,-694 340,-694 228.69,-694 120.83,-590.772 89.8411,-558.514"/>
<polygon fill="#9a32cd" stroke="#9a32cd" points="1150.06,-645.653 1157.11,-637.738 1146.66,-639.534 1150.06,-645.653"/>
<text text-anchor="middle" x="583" y="-697" font-family="Helvetica,sans-Serif" font-size="10.00"> myParser</text>
</g>
<!-- Node3 -->
<g id="node3" class="node"><title>Node3</title>
<polygon fill="white" stroke="#bfbfbf" points="553,-596.5 553,-615.5 613,-615.5 613,-596.5 553,-596.5"/>
<text text-anchor="middle" x="583" y="-603.5" font-family="Helvetica,sans-Serif" font-size="10.00">Observer</text>
</g>
<!-- Node3&#45;&gt;Node2 -->
<g id="edge2" class="edge"><title>Node3&#45;&gt;Node2</title>
<path fill="none" stroke="midnightblue" d="M623.27,-607.467C730.431,-611.469 1027,-622.547 1133.93,-626.541"/>
<polygon fill="midnightblue" stroke="midnightblue" points="623.332,-603.967 613.209,-607.091 623.071,-610.962 623.332,-603.967"/>
</g>
<!-- Node3&#45;&gt;Node10 -->
<g id="edge10" class="edge"><title>Node3&#45;&gt;Node10</title>
<path fill="none" stroke="midnightblue" d="M623.133,-600.668C681.357,-592.476 785.528,-576.723 800,-567 827.462,-548.55 875.684,-456.268 891.109,-425.788"/>
<polygon fill="midnightblue" stroke="midnightblue" points="622.592,-597.21 613.172,-602.059 623.56,-604.142 622.592,-597.21"/>
</g>
<!-- Node4 -->
<g id="node4" class="node"><title>Node4</title>
<polygon fill="white" stroke="#bfbfbf" points="841,-635 841,-665 953,-665 953,-635 841,-635"/>
<text text-anchor="start" x="849" y="-653" font-family="Helvetica,sans-Serif" font-size="10.00">List&lt; Entry&lt; String,</text>
<text text-anchor="middle" x="897" y="-642" font-family="Helvetica,sans-Serif" font-size="10.00"> Pattern &gt; &gt;</text>
</g>
<!-- Node4&#45;&gt;Node2 -->
<g id="edge3" class="edge"><title>Node4&#45;&gt;Node2</title>
<path fill="none" stroke="#9a32cd" stroke-dasharray="5,2" d="M963.31,-644.775C1016.33,-640.533 1089.35,-634.692 1133.75,-631.14"/>
<polygon fill="#9a32cd" stroke="#9a32cd" points="963.009,-641.288 953.32,-645.574 963.567,-648.266 963.009,-641.288"/>
<text text-anchor="middle" x="1055" y="-645" font-family="Helvetica,sans-Serif" font-size="10.00"> myPatterns</text>
</g>
<!-- Node5 -->
<g id="node5" class="node"><title>Node5</title>
<g id="a_node5"><a xlink:href="../../d1/dca/classmodel_1_1_execution_environment.html" target="_top" xlink:title="model.ExecutionEnvironment">
<polygon fill="white" stroke="black" points="818.5,-745.5 818.5,-764.5 975.5,-764.5 975.5,-745.5 818.5,-745.5"/>
<text text-anchor="middle" x="897" y="-752.5" font-family="Helvetica,sans-Serif" font-size="10.00">model.ExecutionEnvironment</text>
</a>
</g>
</g>
<!-- Node5&#45;&gt;Node2 -->
<g id="edge4" class="edge"><title>Node5&#45;&gt;Node2</title>
<path fill="none" stroke="#9a32cd" stroke-dasharray="5,2" d="M985.697,-750.749C1027.93,-745.21 1077.6,-733.27 1116,-708 1143.07,-690.188 1161.35,-654.748 1168.98,-637.659"/>
<polygon fill="#9a32cd" stroke="#9a32cd" points="985.2,-747.284 975.693,-751.961 986.042,-754.233 985.2,-747.284"/>
<text text-anchor="middle" x="1055" y="-752" font-family="Helvetica,sans-Serif" font-size="10.00"> myExecutionParameters</text>
</g>
<!-- Node6 -->
<g id="node6" class="node"><title>Node6</title>
<polygon fill="white" stroke="#bfbfbf" points="547.5,-811.5 547.5,-830.5 618.5,-830.5 618.5,-811.5 547.5,-811.5"/>
<text text-anchor="middle" x="583" y="-818.5" font-family="Helvetica,sans-Serif" font-size="10.00">Observable</text>
</g>
<!-- Node6&#45;&gt;Node5 -->
<g id="edge5" class="edge"><title>Node6&#45;&gt;Node5</title>
<path fill="none" stroke="midnightblue" d="M628.747,-814.985C672.657,-808.696 741.376,-797.82 800,-784 823.047,-778.567 848.7,-770.722 867.686,-764.561"/>
<polygon fill="midnightblue" stroke="midnightblue" points="628.094,-811.543 618.682,-816.409 629.074,-818.474 628.094,-811.543"/>
</g>
<!-- Node7 -->
<g id="node7" class="node"><title>Node7</title>
<polygon fill="white" stroke="#bfbfbf" points="496,-762 496,-792 670,-792 670,-762 496,-762"/>
<text text-anchor="start" x="504" y="-780" font-family="Helvetica,sans-Serif" font-size="10.00">Map&lt; String, model.instructions.</text>
<text text-anchor="middle" x="583" y="-769" font-family="Helvetica,sans-Serif" font-size="10.00">Instruction &gt;</text>
</g>
<!-- Node7&#45;&gt;Node5 -->
<g id="edge6" class="edge"><title>Node7&#45;&gt;Node5</title>
<path fill="none" stroke="#9a32cd" stroke-dasharray="5,2" d="M680.305,-770.209C724.685,-767.08 776.655,-763.415 818.461,-760.468"/>
<polygon fill="#9a32cd" stroke="#9a32cd" points="679.81,-766.735 670.081,-770.93 680.303,-773.718 679.81,-766.735"/>
<text text-anchor="middle" x="744" y="-772" font-family="Helvetica,sans-Serif" font-size="10.00"> myUserInstructionMap</text>
</g>
<!-- Node8 -->
<g id="node8" class="node"><title>Node8</title>
<polygon fill="white" stroke="#bfbfbf" points="519,-723.5 519,-742.5 647,-742.5 647,-723.5 519,-723.5"/>
<text text-anchor="middle" x="583" y="-730.5" font-family="Helvetica,sans-Serif" font-size="10.00">Map&lt; String, Double &gt;</text>
</g>
<!-- Node8&#45;&gt;Node5 -->
<g id="edge7" class="edge"><title>Node8&#45;&gt;Node5</title>
<path fill="none" stroke="#9a32cd" stroke-dasharray="5,2" d="M657.441,-737.423C699.241,-740.026 752.569,-743.487 800,-747 806.004,-747.445 812.218,-747.923 818.464,-748.415"/>
<polygon fill="#9a32cd" stroke="#9a32cd" points="657.544,-733.923 647.346,-736.798 657.11,-740.91 657.544,-733.923"/>
<text text-anchor="middle" x="744" y="-750" font-family="Helvetica,sans-Serif" font-size="10.00"> myVariableMap</text>
</g>
<!-- Node9 -->
<g id="node9" class="node"><title>Node9</title>
<polygon fill="white" stroke="#bfbfbf" points="836,-558.5 836,-577.5 958,-577.5 958,-558.5 836,-558.5"/>
<text text-anchor="middle" x="897" y="-565.5" font-family="Helvetica,sans-Serif" font-size="10.00">Map&lt; String, String &gt;</text>
</g>
<!-- Node9&#45;&gt;Node2 -->
<g id="edge8" class="edge"><title>Node9&#45;&gt;Node2</title>
<path fill="none" stroke="#9a32cd" stroke-dasharray="5,2" d="M968.446,-561.331C1012.35,-559.777 1069.19,-562.598 1116,-581 1136.29,-588.977 1154.77,-607.086 1164.89,-618.352"/>
<polygon fill="#9a32cd" stroke="#9a32cd" points="968.271,-557.835 958.433,-561.768 968.577,-564.828 968.271,-557.835"/>
<text text-anchor="middle" x="1055" y="-584" font-family="Helvetica,sans-Serif" font-size="10.00"> myCommandMap</text>
</g>
<!-- Node10&#45;&gt;Node2 -->
<g id="edge9" class="edge"><title>Node10&#45;&gt;Node2</title>
<path fill="none" stroke="#9a32cd" stroke-dasharray="5,2" d="M930.094,-429.811C975.269,-450.358 1058.51,-492.381 1116,-546 1139.84,-568.231 1159.4,-602.033 1168.12,-618.422"/>
<polygon fill="#9a32cd" stroke="#9a32cd" points="931.347,-426.537 920.79,-425.638 928.482,-432.924 931.347,-426.537"/>
<text text-anchor="middle" x="1055" y="-549" font-family="Helvetica,sans-Serif" font-size="10.00"> mySLogoView</text>
</g>
<!-- Node11 -->
<g id="node11" class="node"><title>Node11</title>
<g id="a_node11"><a xlink:href="../../da/d64/classview_1_1_workspace.html" target="_top" xlink:title="view.Workspace">
<polygon fill="white" stroke="black" points="538,-123.5 538,-142.5 628,-142.5 628,-123.5 538,-123.5"/>
<text text-anchor="middle" x="583" y="-130.5" font-family="Helvetica,sans-Serif" font-size="10.00">view.Workspace</text>
</a>
</g>
</g>
<!-- Node11&#45;&gt;Node10 -->
<g id="edge11" class="edge"><title>Node11&#45;&gt;Node10</title>
<path fill="none" stroke="#9a32cd" stroke-dasharray="5,2" d="M633.526,-121.632C681.055,-113.756 752.441,-110.246 800,-146 888.28,-212.368 895.643,-366.673 896.041,-406.489"/>
<polygon fill="#9a32cd" stroke="#9a32cd" points="632.7,-118.224 623.468,-123.422 633.927,-125.116 632.7,-118.224"/>
<text text-anchor="middle" x="744" y="-149" font-family="Helvetica,sans-Serif" font-size="10.00"> myWorkspace</text>
</g>
<!-- Node12 -->
<g id="node12" class="node"><title>Node12</title>
<polygon fill="white" stroke="#bfbfbf" points="307.5,-38.5 307.5,-57.5 374.5,-57.5 374.5,-38.5 307.5,-38.5"/>
<text text-anchor="middle" x="341" y="-45.5" font-family="Helvetica,sans-Serif" font-size="10.00">StackPane</text>
</g>
<!-- Node12&#45;&gt;Node11 -->
<g id="edge12" class="edge"><title>Node12&#45;&gt;Node11</title>
<path fill="none" stroke="midnightblue" d="M384.851,-49.0607C413.788,-51.788 451.411,-59.4704 478,-80 491.534,-90.4493 482.395,-103.643 496,-114 507.923,-123.077 523.32,-127.988 537.785,-130.594"/>
<polygon fill="midnightblue" stroke="midnightblue" points="384.861,-45.551 374.62,-48.2655 384.318,-52.53 384.861,-45.551"/>
</g>
<!-- Node13 -->
<g id="node13" class="node"><title>Node13</title>
<g id="a_node13"><a xlink:href="../../d8/df7/classview_1_1_turtle_view.html" target="_top" xlink:title="view.TurtleView">
<polygon fill="white" stroke="black" points="298,-0.5 298,-19.5 384,-19.5 384,-0.5 298,-0.5"/>
<text text-anchor="middle" x="341" y="-7.5" font-family="Helvetica,sans-Serif" font-size="10.00">view.TurtleView</text>
</a>
</g>
</g>
<!-- Node13&#45;&gt;Node11 -->
<g id="edge13" class="edge"><title>Node13&#45;&gt;Node11</title>
<path fill="none" stroke="#9a32cd" stroke-dasharray="5,2" d="M394.411,-7.48916C422.661,-8.99595 456.114,-15.8386 478,-37 503.266,-61.4294 470.998,-89.301 496,-114 506.987,-124.853 522.69,-130.1 537.679,-132.475"/>
<polygon fill="#9a32cd" stroke="#9a32cd" points="394.378,-3.98633 384.269,-7.15881 394.15,-10.9826 394.378,-3.98633"/>
<text text-anchor="middle" x="440" y="-40" font-family="Helvetica,sans-Serif" font-size="10.00"> myActiveTurtle</text>
</g>
<!-- Node14 -->
<g id="node14" class="node"><title>Node14</title>
<polygon fill="white" stroke="#bfbfbf" points="46,-0.5 46,-19.5 114,-19.5 114,-0.5 46,-0.5"/>
<text text-anchor="middle" x="80" y="-7.5" font-family="Helvetica,sans-Serif" font-size="10.00">ImageView</text>
</g>
<!-- Node14&#45;&gt;Node13 -->
<g id="edge14" class="edge"><title>Node14&#45;&gt;Node13</title>
<path fill="none" stroke="midnightblue" d="M124.178,-10C172.372,-10 249.854,-10 297.692,-10"/>
<polygon fill="midnightblue" stroke="midnightblue" points="124.066,-6.5001 114.066,-10 124.066,-13.5001 124.066,-6.5001"/>
</g>
<!-- Node15 -->
<g id="node15" class="node"><title>Node15</title>
<polygon fill="white" stroke="#bfbfbf" points="12,-100 12,-130 148,-130 148,-100 12,-100"/>
<text text-anchor="start" x="20" y="-118" font-family="Helvetica,sans-Serif" font-size="10.00">Map&lt; Integer, view.Turtle</text>
<text text-anchor="middle" x="80" y="-107" font-family="Helvetica,sans-Serif" font-size="10.00">View &gt;</text>
</g>
<!-- Node15&#45;&gt;Node10 -->
<g id="edge37" class="edge"><title>Node15&#45;&gt;Node10</title>
<path fill="none" stroke="#9a32cd" stroke-dasharray="5,2" d="M158.296,-109.472C196.631,-109.772 242.604,-114.875 280,-133 290.468,-138.073 287.819,-146.373 298,-152 369.404,-191.464 400.215,-163.394 478,-188 627.126,-235.173 668.566,-245.212 800,-330 835.726,-353.047 871.302,-389.256 887.271,-406.394"/>
<polygon fill="#9a32cd" stroke="#9a32cd" points="158.204,-105.972 148.214,-109.501 158.224,-112.972 158.204,-105.972"/>
<text text-anchor="middle" x="440" y="-191" font-family="Helvetica,sans-Serif" font-size="10.00"> myTurtles</text>
</g>
<!-- Node15&#45;&gt;Node11 -->
<g id="edge15" class="edge"><title>Node15&#45;&gt;Node11</title>
<path fill="none" stroke="#9a32cd" stroke-dasharray="5,2" d="M158.427,-109.201C165.046,-108.769 171.639,-108.362 178,-108 269.435,-102.797 292.676,-96.1208 384,-103 437.217,-107.009 497.802,-116.996 537.787,-124.351"/>
<polygon fill="#9a32cd" stroke="#9a32cd" points="157.779,-105.736 148.035,-109.896 158.246,-112.721 157.779,-105.736"/>
<text text-anchor="middle" x="341" y="-106" font-family="Helvetica,sans-Serif" font-size="10.00"> myTurtles</text>
</g>
<!-- Node15&#45;&gt;Node16 -->
<g id="edge21" class="edge"><title>Node15&#45;&gt;Node16</title>
<path fill="none" stroke="#9a32cd" stroke-dasharray="5,2" d="M158.076,-127.019C209.799,-135.674 270.214,-147.16 280,-155 290.609,-163.499 324.794,-250.503 336.232,-280.16"/>
<polygon fill="#9a32cd" stroke="#9a32cd" points="158.637,-123.564 148.2,-125.382 157.493,-130.47 158.637,-123.564"/>
<text text-anchor="middle" x="229" y="-158" font-family="Helvetica,sans-Serif" font-size="10.00"> myTurtles</text>
</g>
<!-- Node16&#45;&gt;Node10 -->
<g id="edge40" class="edge"><title>Node16&#45;&gt;Node10</title>
<path fill="none" stroke="#9a32cd" stroke-dasharray="5,2" d="M389.609,-292.436C474.261,-297.91 655.632,-314.824 800,-364 831.04,-374.573 863.969,-394.603 882.058,-406.48"/>
<polygon fill="#9a32cd" stroke="#9a32cd" points="389.729,-288.937 379.531,-291.809 389.295,-295.923 389.729,-288.937"/>
<text text-anchor="middle" x="583" y="-331" font-family="Helvetica,sans-Serif" font-size="10.00"> mySidebar</text>
</g>
<!-- Node16&#45;&gt;Node11 -->
<g id="edge16" class="edge"><title>Node16&#45;&gt;Node11</title>
<path fill="none" stroke="#9a32cd" stroke-dasharray="5,2" d="M365.299,-274.759C414.304,-242.701 526.848,-169.079 567.235,-142.659"/>
<polygon fill="#9a32cd" stroke="#9a32cd" points="363.104,-272.012 356.652,-280.415 366.936,-277.87 363.104,-272.012"/>
<text text-anchor="middle" x="440" y="-251" font-family="Helvetica,sans-Serif" font-size="10.00"> mySidebar</text>
</g>
<!-- Node16&#45;&gt;Node25 -->
<g id="edge33" class="edge"><title>Node16&#45;&gt;Node25</title>
<path fill="none" stroke="#9a32cd" stroke-dasharray="5,2" d="M345.269,-309.571C351.248,-339.32 366.735,-395.85 402,-428 428.277,-451.956 454.575,-426.248 478,-453 506.597,-485.66 465.801,-517.816 496,-549 509.616,-563.06 531.116,-567.81 549.212,-569.045"/>
<polygon fill="#9a32cd" stroke="#9a32cd" points="348.682,-308.783 343.421,-299.587 341.799,-310.057 348.682,-308.783"/>
<text text-anchor="middle" x="440" y="-456" font-family="Helvetica,sans-Serif" font-size="10.00"> mySidebar</text>
</g>
<!-- Node17 -->
<g id="node17" class="node"><title>Node17</title>
<polygon fill="white" stroke="#bfbfbf" points="59.5,-247.5 59.5,-266.5 100.5,-266.5 100.5,-247.5 59.5,-247.5"/>
<text text-anchor="middle" x="80" y="-254.5" font-family="Helvetica,sans-Serif" font-size="10.00">VBox</text>
</g>
<!-- Node17&#45;&gt;Node16 -->
<g id="edge17" class="edge"><title>Node17&#45;&gt;Node16</title>
<path fill="none" stroke="midnightblue" d="M110.834,-260.801C158.215,-266.838 250.592,-278.608 302.421,-285.212"/>
<polygon fill="midnightblue" stroke="midnightblue" points="111.255,-257.327 100.893,-259.535 110.371,-264.271 111.255,-257.327"/>
</g>
<!-- Node18 -->
<g id="node18" class="node"><title>Node18</title>
<polygon fill="white" stroke="#bfbfbf" points="33.5,-373.5 33.5,-392.5 126.5,-392.5 126.5,-373.5 33.5,-373.5"/>
<text text-anchor="middle" x="80" y="-380.5" font-family="Helvetica,sans-Serif" font-size="10.00">ResourceBundle</text>
</g>
<!-- Node18&#45;&gt;Node10 -->
<g id="edge27" class="edge"><title>Node18&#45;&gt;Node10</title>
<path fill="none" stroke="#9a32cd" stroke-dasharray="5,2" d="M136.871,-382.593C230.052,-381.983 413.339,-381.094 478,-383 621.298,-387.224 657.383,-387.42 800,-402 816.756,-403.713 835.069,-406.224 851.167,-408.648"/>
<polygon fill="#9a32cd" stroke="#9a32cd" points="136.759,-379.094 126.782,-382.66 136.806,-386.094 136.759,-379.094"/>
<text text-anchor="middle" x="440" y="-386" font-family="Helvetica,sans-Serif" font-size="10.00"> myResources</text>
</g>
<!-- Node18&#45;&gt;Node16 -->
<g id="edge18" class="edge"><title>Node18&#45;&gt;Node16</title>
<path fill="none" stroke="#9a32cd" stroke-dasharray="5,2" d="M136.923,-375.802C186.741,-368.763 255.445,-357.329 280,-345 301.974,-333.967 321.795,-312.524 332.239,-299.918"/>
<polygon fill="#9a32cd" stroke="#9a32cd" points="136.338,-372.35 126.916,-377.193 137.302,-379.283 136.338,-372.35"/>
<text text-anchor="middle" x="229" y="-372" font-family="Helvetica,sans-Serif" font-size="10.00"> myResources</text>
</g>
<!-- Node19 -->
<g id="node19" class="node"><title>Node19</title>
<polygon fill="white" stroke="#bfbfbf" points="13,-198 13,-228 147,-228 147,-198 13,-198"/>
<text text-anchor="start" x="21" y="-216" font-family="Helvetica,sans-Serif" font-size="10.00">TableView&lt; view.Variable</text>
<text text-anchor="middle" x="80" y="-205" font-family="Helvetica,sans-Serif" font-size="10.00">View &gt;</text>
</g>
<!-- Node19&#45;&gt;Node16 -->
<g id="edge20" class="edge"><title>Node19&#45;&gt;Node16</title>
<path fill="none" stroke="#9a32cd" stroke-dasharray="5,2" d="M157.351,-215.995C195.446,-219.678 241.49,-227.522 280,-244 300.032,-252.571 319.313,-269.368 330.395,-280.119"/>
<polygon fill="#9a32cd" stroke="#9a32cd" points="157.61,-212.504 147.339,-215.104 156.99,-219.477 157.61,-212.504"/>
<text text-anchor="middle" x="229" y="-258" font-family="Helvetica,sans-Serif" font-size="10.00"> turtlePropertiesTable</text>
<text text-anchor="middle" x="229" y="-247" font-family="Helvetica,sans-Serif" font-size="10.00">variablesTable</text>
</g>
<!-- Node20 -->
<g id="node20" class="node"><title>Node20</title>
<polygon fill="white" stroke="#bfbfbf" points="0.5,-149 0.5,-179 159.5,-179 159.5,-149 0.5,-149"/>
<text text-anchor="start" x="8.5" y="-167" font-family="Helvetica,sans-Serif" font-size="10.00">ObservableList&lt; view.Variable</text>
<text text-anchor="middle" x="80" y="-156" font-family="Helvetica,sans-Serif" font-size="10.00">View &gt;</text>
</g>
<!-- Node20&#45;&gt;Node16 -->
<g id="edge22" class="edge"><title>Node20&#45;&gt;Node16</title>
<path fill="none" stroke="#9a32cd" stroke-dasharray="5,2" d="M170.023,-167.504C206.509,-172.443 247.668,-182.817 280,-204 309.39,-223.255 328.568,-262.357 336.227,-280.437"/>
<polygon fill="#9a32cd" stroke="#9a32cd" points="170.221,-164.002 159.867,-166.251 169.363,-170.95 170.221,-164.002"/>
<text text-anchor="middle" x="229" y="-207" font-family="Helvetica,sans-Serif" font-size="10.00"> variablesList</text>
</g>
<!-- Node21 -->
<g id="node21" class="node"><title>Node21</title>
<polygon fill="white" stroke="#bfbfbf" points="11,-323.5 11,-342.5 149,-342.5 149,-323.5 11,-323.5"/>
<text text-anchor="middle" x="80" y="-330.5" font-family="Helvetica,sans-Serif" font-size="10.00">ObservableList&lt; String &gt;</text>
</g>
<!-- Node21&#45;&gt;Node16 -->
<g id="edge23" class="edge"><title>Node21&#45;&gt;Node16</title>
<path fill="none" stroke="#9a32cd" stroke-dasharray="5,2" d="M157.238,-321.906C194.342,-316.308 239.565,-309.19 280,-302 287.217,-300.717 294.902,-299.254 302.279,-297.801"/>
<polygon fill="#9a32cd" stroke="#9a32cd" points="156.368,-318.498 146.998,-323.444 157.407,-325.42 156.368,-318.498"/>
<text text-anchor="middle" x="229" y="-333" font-family="Helvetica,sans-Serif" font-size="10.00"> commandItems</text>
<text text-anchor="middle" x="229" y="-322" font-family="Helvetica,sans-Serif" font-size="10.00">historyItems</text>
</g>
<!-- Node22 -->
<g id="node22" class="node"><title>Node22</title>
<polygon fill="white" stroke="#bfbfbf" points="27,-285.5 27,-304.5 133,-304.5 133,-285.5 27,-285.5"/>
<text text-anchor="middle" x="80" y="-292.5" font-family="Helvetica,sans-Serif" font-size="10.00">ListView&lt; String &gt;</text>
</g>
<!-- Node22&#45;&gt;Node16 -->
<g id="edge24" class="edge"><title>Node22&#45;&gt;Node16</title>
<path fill="none" stroke="#9a32cd" stroke-dasharray="5,2" d="M143.136,-292.114C154.721,-291.668 166.727,-291.267 178,-291 220.598,-289.991 269.514,-289.826 302.35,-289.859"/>
<polygon fill="#9a32cd" stroke="#9a32cd" points="142.944,-288.619 133.092,-292.516 143.224,-295.613 142.944,-288.619"/>
<text text-anchor="middle" x="229" y="-294" font-family="Helvetica,sans-Serif" font-size="10.00"> historyList</text>
</g>
<!-- Node23 -->
<g id="node23" class="node"><title>Node23</title>
<polygon fill="white" stroke="#bfbfbf" points="309.5,-123.5 309.5,-142.5 372.5,-142.5 372.5,-123.5 309.5,-123.5"/>
<text text-anchor="middle" x="341" y="-130.5" font-family="Helvetica,sans-Serif" font-size="10.00">Rectangle</text>
</g>
<!-- Node23&#45;&gt;Node11 -->
<g id="edge25" class="edge"><title>Node23&#45;&gt;Node11</title>
<path fill="none" stroke="#9a32cd" stroke-dasharray="5,2" d="M383.012,-133C426.076,-133 493.558,-133 537.787,-133"/>
<polygon fill="#9a32cd" stroke="#9a32cd" points="382.885,-129.5 372.884,-133 382.884,-136.5 382.885,-129.5"/>
<text text-anchor="middle" x="440" y="-136" font-family="Helvetica,sans-Serif" font-size="10.00"> myBackground</text>
</g>
<!-- Node24 -->
<g id="node24" class="node"><title>Node24</title>
<polygon fill="white" stroke="#bfbfbf" points="560.5,-47.5 560.5,-66.5 605.5,-66.5 605.5,-47.5 560.5,-47.5"/>
<text text-anchor="middle" x="583" y="-54.5" font-family="Helvetica,sans-Serif" font-size="10.00">Stage</text>
</g>
<!-- Node24&#45;&gt;Node10 -->
<g id="edge26" class="edge"><title>Node24&#45;&gt;Node10</title>
<path fill="none" stroke="#9a32cd" stroke-dasharray="5,2" d="M615.601,-48.9481C661.653,-39.2477 747.428,-29.139 800,-72 854.905,-116.763 888.279,-355.68 894.815,-406.494"/>
<polygon fill="#9a32cd" stroke="#9a32cd" points="614.594,-45.5867 605.597,-51.1822 616.12,-52.4184 614.594,-45.5867"/>
<text text-anchor="middle" x="744" y="-75" font-family="Helvetica,sans-Serif" font-size="10.00"> myStage</text>
</g>
<!-- Node25&#45;&gt;Node10 -->
<g id="edge28" class="edge"><title>Node25&#45;&gt;Node10</title>
<path fill="none" stroke="#9a32cd" stroke-dasharray="5,2" d="M626.636,-562.737C685.267,-555.249 785.246,-541.49 800,-533 846.231,-506.398 879.507,-448.415 891.304,-425.547"/>
<polygon fill="#9a32cd" stroke="#9a32cd" points="626.03,-559.285 616.549,-564.015 626.91,-566.23 626.03,-559.285"/>
<text text-anchor="middle" x="744" y="-558" font-family="Helvetica,sans-Serif" font-size="10.00"> myEditor</text>
</g>
<!-- Node26 -->
<g id="node26" class="node"><title>Node26</title>
<polygon fill="white" stroke="#bfbfbf" points="320,-550.5 320,-569.5 362,-569.5 362,-550.5 320,-550.5"/>
<text text-anchor="middle" x="341" y="-557.5" font-family="Helvetica,sans-Serif" font-size="10.00">HBox</text>
</g>
<!-- Node26&#45;&gt;Node25 -->
<g id="edge29" class="edge"><title>Node26&#45;&gt;Node25</title>
<path fill="none" stroke="midnightblue" d="M372.133,-561.004C417.434,-562.514 502.74,-565.358 549.43,-566.914"/>
<polygon fill="midnightblue" stroke="midnightblue" points="372.161,-557.504 362.049,-560.668 371.927,-564.5 372.161,-557.504"/>
</g>
<!-- Node27 -->
<g id="node27" class="node"><title>Node27</title>
<polygon fill="white" stroke="#bfbfbf" points="316.5,-512.5 316.5,-531.5 365.5,-531.5 365.5,-512.5 316.5,-512.5"/>
<text text-anchor="middle" x="341" y="-519.5" font-family="Helvetica,sans-Serif" font-size="10.00">Button</text>
</g>
<!-- Node27&#45;&gt;Node25 -->
<g id="edge30" class="edge"><title>Node27&#45;&gt;Node25</title>
<path fill="none" stroke="#9a32cd" stroke-dasharray="5,2" d="M375.49,-528.392C403.019,-533.649 443.04,-541.297 478,-548 501.836,-552.57 528.741,-557.745 549.214,-561.685"/>
<polygon fill="#9a32cd" stroke="#9a32cd" points="376.067,-524.939 365.588,-526.501 374.754,-531.815 376.067,-524.939"/>
<text text-anchor="middle" x="440" y="-551" font-family="Helvetica,sans-Serif" font-size="10.00"> runButton</text>
</g>
<!-- Node28 -->
<g id="node28" class="node"><title>Node28</title>
<polygon fill="white" stroke="#bfbfbf" points="312,-588.5 312,-607.5 370,-607.5 370,-588.5 312,-588.5"/>
<text text-anchor="middle" x="341" y="-595.5" font-family="Helvetica,sans-Serif" font-size="10.00">TextArea</text>
</g>
<!-- Node28&#45;&gt;Node25 -->
<g id="edge32" class="edge"><title>Node28&#45;&gt;Node25</title>
<path fill="none" stroke="#9a32cd" stroke-dasharray="5,2" d="M380.018,-593.248C426.689,-587.414 505.061,-577.617 549.206,-572.099"/>
<polygon fill="#9a32cd" stroke="#9a32cd" points="379.489,-589.786 370.001,-594.5 380.358,-596.732 379.489,-589.786"/>
<text text-anchor="middle" x="440" y="-593" font-family="Helvetica,sans-Serif" font-size="10.00"> textEditor</text>
</g>
<!-- Node29 -->
<g id="node29" class="node"><title>Node29</title>
<polygon fill="white" stroke="#bfbfbf" points="523.5,-520.5 523.5,-539.5 642.5,-539.5 642.5,-520.5 523.5,-520.5"/>
<text text-anchor="middle" x="583" y="-527.5" font-family="Helvetica,sans-Serif" font-size="10.00">Map&lt; String, Node &gt;</text>
</g>
<!-- Node29&#45;&gt;Node10 -->
<g id="edge34" class="edge"><title>Node29&#45;&gt;Node10</title>
<path fill="none" stroke="#9a32cd" stroke-dasharray="5,2" d="M652.766,-523.195C705.817,-517.202 774.337,-507.628 800,-496 837.744,-478.898 872.606,-442.783 887.876,-425.546"/>
<polygon fill="#9a32cd" stroke="#9a32cd" points="652.271,-519.728 642.717,-524.309 653.042,-526.686 652.271,-519.728"/>
<text text-anchor="middle" x="744" y="-522" font-family="Helvetica,sans-Serif" font-size="10.00"> variables</text>
</g>
<!-- Node30 -->
<g id="node30" class="node"><title>Node30</title>
<polygon fill="white" stroke="#bfbfbf" points="542.5,-482.5 542.5,-501.5 623.5,-501.5 623.5,-482.5 542.5,-482.5"/>
<text text-anchor="middle" x="583" y="-489.5" font-family="Helvetica,sans-Serif" font-size="10.00">Dimension2D</text>
</g>
<!-- Node30&#45;&gt;Node10 -->
<g id="edge36" class="edge"><title>Node30&#45;&gt;Node10</title>
<path fill="none" stroke="#9a32cd" stroke-dasharray="5,2" d="M633.901,-487.806C678.198,-483.223 744.339,-474.263 800,-458 828.114,-449.786 858.836,-435.292 877.766,-425.665"/>
<polygon fill="#9a32cd" stroke="#9a32cd" points="633.288,-484.349 623.685,-488.825 633.983,-491.315 633.288,-484.349"/>
<text text-anchor="middle" x="744" y="-484" font-family="Helvetica,sans-Serif" font-size="10.00"> myDimensions</text>
</g>
<!-- Node31 -->
<g id="node31" class="node"><title>Node31</title>
<g id="a_node31"><a xlink:href="../../de/d0a/classview_1_1_drawer.html" target="_top" xlink:title="view.Drawer">
<polygon fill="white" stroke="black" points="546.5,-444.5 546.5,-463.5 619.5,-463.5 619.5,-444.5 546.5,-444.5"/>
<text text-anchor="middle" x="583" y="-451.5" font-family="Helvetica,sans-Serif" font-size="10.00">view.Drawer</text>
</a>
</g>
</g>
<!-- Node31&#45;&gt;Node10 -->
<g id="edge38" class="edge"><title>Node31&#45;&gt;Node10</title>
<path fill="none" stroke="#9a32cd" stroke-dasharray="5,2" d="M629.608,-448.981C673.346,-444.106 741.224,-436.38 800,-429 816.688,-426.905 834.987,-424.463 851.092,-422.264"/>
<polygon fill="#9a32cd" stroke="#9a32cd" points="629.124,-445.513 619.572,-450.097 629.897,-452.47 629.124,-445.513"/>
<text text-anchor="middle" x="744" y="-446" font-family="Helvetica,sans-Serif" font-size="10.00"> drawer</text>
</g>
<!-- Node32 -->
<g id="node32" class="node"><title>Node32</title>
<polygon fill="white" stroke="#bfbfbf" points="320.5,-474.5 320.5,-493.5 361.5,-493.5 361.5,-474.5 320.5,-474.5"/>
<text text-anchor="middle" x="341" y="-481.5" font-family="Helvetica,sans-Serif" font-size="10.00">Color</text>
</g>
<!-- Node32&#45;&gt;Node31 -->
<g id="edge39" class="edge"><title>Node32&#45;&gt;Node31</title>
<path fill="none" stroke="#9a32cd" stroke-dasharray="5,2" d="M371.749,-480.281C415.977,-474.753 498.936,-464.383 546.351,-458.456"/>
<polygon fill="#9a32cd" stroke="#9a32cd" points="371.129,-476.832 361.64,-481.545 371.997,-483.778 371.129,-476.832"/>
<text text-anchor="middle" x="440" y="-479" font-family="Helvetica,sans-Serif" font-size="10.00"> myColor</text>
</g>
<!-- Node33 -->
<g id="node33" class="node"><title>Node33</title>
<polygon fill="white" stroke="#bfbfbf" points="560,-85.5 560,-104.5 606,-104.5 606,-85.5 560,-85.5"/>
<text text-anchor="middle" x="583" y="-92.5" font-family="Helvetica,sans-Serif" font-size="10.00">Group</text>
</g>
<!-- Node33&#45;&gt;Node10 -->
<g id="edge41" class="edge"><title>Node33&#45;&gt;Node10</title>
<path fill="none" stroke="#9a32cd" stroke-dasharray="5,2" d="M616.452,-91.6132C669.609,-86.7787 772.125,-80.6666 800,-102 851.38,-141.323 887.123,-357.798 894.561,-406.338"/>
<polygon fill="#9a32cd" stroke="#9a32cd" points="615.833,-88.1561 606.209,-92.5848 616.494,-95.1248 615.833,-88.1561"/>
<text text-anchor="middle" x="744" y="-105" font-family="Helvetica,sans-Serif" font-size="10.00"> lines</text>
</g>
</g>
</svg>
