<?xml version="1.0" encoding="UTF-8" standalone="no"?>
<!DOCTYPE svg PUBLIC "-//W3C//DTD SVG 1.1//EN"
 "http://www.w3.org/Graphics/SVG/1.1/DTD/svg11.dtd">
<!-- Generated by graphviz version 2.36.0 (20140111.2315)
 -->
<!-- Title: view.CustomizationBar Pages: 1 -->
<svg width="1938pt" height="758pt"
 viewBox="0.00 0.00 1938.00 758.13" xmlns="http://www.w3.org/2000/svg" xmlns:xlink="http://www.w3.org/1999/xlink">
<g id="graph0" class="graph" transform="scale(1 1) rotate(0) translate(4 754.128)">
<title>view.CustomizationBar</title>
<polygon fill="white" stroke="none" points="-4,4 -4,-754.128 1934,-754.128 1934,4 -4,4"/>
<!-- Node1 -->
<g id="node1" class="node"><title>Node1</title>
<polygon fill="#bfbfbf" stroke="black" points="1616.5,-579.628 1616.5,-598.628 1741.5,-598.628 1741.5,-579.628 1616.5,-579.628"/>
<text text-anchor="middle" x="1679" y="-586.628" font-family="Helvetica,sans-Serif" font-size="10.00">view.CustomizationBar</text>
</g>
<!-- Node2 -->
<g id="node2" class="node"><title>Node2</title>
<polygon fill="white" stroke="#bfbfbf" points="66,-702.628 66,-721.628 108,-721.628 108,-702.628 66,-702.628"/>
<text text-anchor="middle" x="87" y="-709.628" font-family="Helvetica,sans-Serif" font-size="10.00">HBox</text>
</g>
<!-- Node2&#45;&gt;Node1 -->
<g id="edge1" class="edge"><title>Node2&#45;&gt;Node1</title>
<path fill="none" stroke="midnightblue" d="M118.519,-712.026C184.481,-711.792 345.267,-711.16 480,-710.128 585.783,-709.319 612.262,-710.331 718,-707.128 766.029,-705.674 778.003,-704.41 826,-702.128 971.786,-695.198 1008.7,-699.848 1154,-686.128 1313.07,-671.11 1351.99,-659.792 1510,-636.128 1549.17,-630.263 1559.88,-632.864 1598,-622.128 1619.26,-616.142 1642.48,-606.149 1658.4,-598.726"/>
<polygon fill="midnightblue" stroke="midnightblue" points="118.392,-708.526 108.405,-712.061 118.417,-715.526 118.392,-708.526"/>
</g>
<!-- Node29 -->
<g id="node29" class="node"><title>Node29</title>
<g id="a_node29"><a xlink:href="../../da/dc8/classview_1_1_editor.html" target="_top" xlink:title="view.Editor">
<polygon fill="white" stroke="black" points="367.5,-522.628 367.5,-541.628 434.5,-541.628 434.5,-522.628 367.5,-522.628"/>
<text text-anchor="middle" x="401" y="-529.628" font-family="Helvetica,sans-Serif" font-size="10.00">view.Editor</text>
</a>
</g>
</g>
<!-- Node2&#45;&gt;Node29 -->
<g id="edge37" class="edge"><title>Node2&#45;&gt;Node29</title>
<path fill="none" stroke="midnightblue" d="M113.533,-697.398C175.454,-661.674 332.276,-571.2 383.521,-541.635"/>
<polygon fill="midnightblue" stroke="midnightblue" points="111.687,-694.422 104.774,-702.451 115.185,-700.485 111.687,-694.422"/>
</g>
<!-- Node3 -->
<g id="node3" class="node"><title>Node3</title>
<g id="a_node3"><a xlink:href="../../da/d64/classview_1_1_workspace.html" target="_top" xlink:title="view.Workspace">
<polygon fill="white" stroke="black" points="1420,-416.628 1420,-435.628 1510,-435.628 1510,-416.628 1420,-416.628"/>
<text text-anchor="middle" x="1465" y="-423.628" font-family="Helvetica,sans-Serif" font-size="10.00">view.Workspace</text>
</a>
</g>
</g>
<!-- Node3&#45;&gt;Node1 -->
<g id="edge2" class="edge"><title>Node3&#45;&gt;Node1</title>
<path fill="none" stroke="#9a32cd" stroke-dasharray="5,2" d="M1471.4,-445.383C1479.53,-470.897 1497.31,-515.643 1528,-541.128 1529.19,-542.119 1604.09,-565.833 1647.59,-579.551"/>
<polygon fill="#9a32cd" stroke="#9a32cd" points="1474.73,-444.307 1468.5,-435.739 1468.03,-446.323 1474.73,-444.307"/>
<text text-anchor="middle" x="1563" y="-566.128" font-family="Helvetica,sans-Serif" font-size="10.00"> myWorkspace</text>
</g>
<!-- Node23 -->
<g id="node23" class="node"><title>Node23</title>
<g id="a_node23"><a xlink:href="../../d4/d64/classview_1_1_view_updater.html" target="_top" xlink:title="view.ViewUpdater">
<polygon fill="white" stroke="black" points="1830,-520.628 1830,-539.628 1930,-539.628 1930,-520.628 1830,-520.628"/>
<text text-anchor="middle" x="1880" y="-527.628" font-family="Helvetica,sans-Serif" font-size="10.00">view.ViewUpdater</text>
</a>
</g>
</g>
<!-- Node3&#45;&gt;Node23 -->
<g id="edge26" class="edge"><title>Node3&#45;&gt;Node23</title>
<path fill="none" stroke="#9a32cd" stroke-dasharray="5,2" d="M1490.06,-440.734C1501.29,-447.072 1515.01,-454.164 1528,-459.128 1627.18,-497.03 1655.52,-497.223 1760,-516.128 1782.82,-520.258 1808.34,-523.447 1829.87,-525.73"/>
<polygon fill="#9a32cd" stroke="#9a32cd" points="1491.7,-437.638 1481.29,-435.651 1488.19,-443.694 1491.7,-437.638"/>
<text text-anchor="middle" x="1679" y="-516.128" font-family="Helvetica,sans-Serif" font-size="10.00"> myWorkspace</text>
</g>
<!-- Node24 -->
<g id="node24" class="node"><title>Node24</title>
<g id="a_node24"><a xlink:href="../../de/d0a/classview_1_1_drawer.html" target="_top" xlink:title="view.Drawer">
<polygon fill="white" stroke="black" points="1642.5,-445.628 1642.5,-464.628 1715.5,-464.628 1715.5,-445.628 1642.5,-445.628"/>
<text text-anchor="middle" x="1679" y="-452.628" font-family="Helvetica,sans-Serif" font-size="10.00">view.Drawer</text>
</a>
</g>
</g>
<!-- Node3&#45;&gt;Node24 -->
<g id="edge28" class="edge"><title>Node3&#45;&gt;Node24</title>
<path fill="none" stroke="#9a32cd" stroke-dasharray="5,2" d="M1520.16,-433.537C1558.52,-438.784 1608.9,-445.675 1642.3,-450.245"/>
<polygon fill="#9a32cd" stroke="#9a32cd" points="1520.57,-430.06 1510.18,-432.173 1519.62,-436.996 1520.57,-430.06"/>
<text text-anchor="middle" x="1563" y="-447.128" font-family="Helvetica,sans-Serif" font-size="10.00"> myWorkspace</text>
</g>
<!-- Node27 -->
<g id="node27" class="node"><title>Node27</title>
<g id="a_node27"><a xlink:href="../../d6/de7/classview_1_1_s_logo_view.html" target="_top" xlink:title="view.SLogoView">
<polygon fill="white" stroke="black" points="611.5,-525.628 611.5,-544.628 702.5,-544.628 702.5,-525.628 611.5,-525.628"/>
<text text-anchor="middle" x="657" y="-532.628" font-family="Helvetica,sans-Serif" font-size="10.00">view.SLogoView</text>
</a>
</g>
</g>
<!-- Node3&#45;&gt;Node27 -->
<g id="edge33" class="edge"><title>Node3&#45;&gt;Node27</title>
<path fill="none" stroke="#9a32cd" stroke-dasharray="5,2" d="M1444.9,-442.306C1433.24,-451.325 1417.61,-461.953 1402,-468.128 1362.66,-483.696 1350.16,-479.639 1308,-483.128 1196.69,-492.34 859.715,-492.575 844,-485.128 832.584,-479.718 837.416,-468.538 826,-463.128 789.853,-445.999 769.394,-441.109 736,-463.128 719.045,-474.308 731.932,-490.352 718,-505.128 709.531,-514.11 697.788,-520.797 686.935,-525.55"/>
<polygon fill="#9a32cd" stroke="#9a32cd" points="1447.37,-444.811 1452.98,-435.823 1442.99,-439.352 1447.37,-444.811"/>
<text text-anchor="middle" x="1095" y="-494.128" font-family="Helvetica,sans-Serif" font-size="10.00"> myWorkspace</text>
</g>
<!-- Node4 -->
<g id="node4" class="node"><title>Node4</title>
<polygon fill="white" stroke="#bfbfbf" points="1206.5,-416.628 1206.5,-435.628 1273.5,-435.628 1273.5,-416.628 1206.5,-416.628"/>
<text text-anchor="middle" x="1240" y="-423.628" font-family="Helvetica,sans-Serif" font-size="10.00">StackPane</text>
</g>
<!-- Node4&#45;&gt;Node3 -->
<g id="edge3" class="edge"><title>Node4&#45;&gt;Node3</title>
<path fill="none" stroke="midnightblue" d="M1283.91,-426.128C1322.96,-426.128 1380.36,-426.128 1419.8,-426.128"/>
<polygon fill="midnightblue" stroke="midnightblue" points="1283.9,-422.629 1273.9,-426.128 1283.9,-429.629 1283.9,-422.629"/>
</g>
<!-- Node5 -->
<g id="node5" class="node"><title>Node5</title>
<polygon fill="white" stroke="#bfbfbf" points="354.5,-86.6285 354.5,-105.628 447.5,-105.628 447.5,-86.6285 354.5,-86.6285"/>
<text text-anchor="middle" x="401" y="-93.6285" font-family="Helvetica,sans-Serif" font-size="10.00">ResourceBundle</text>
</g>
<!-- Node5&#45;&gt;Node1 -->
<g id="edge51" class="edge"><title>Node5&#45;&gt;Node1</title>
<path fill="none" stroke="#9a32cd" stroke-dasharray="5,2" d="M458.039,-89.5221C509.446,-84.0368 587.739,-77.1285 656,-77.1285 656,-77.1285 656,-77.1285 1096,-77.1285 1369.01,-77.1285 1461.68,-194.593 1598,-431.128 1619.89,-469.118 1595.42,-489.41 1616,-528.128 1627.55,-549.863 1649.53,-568.65 1663.97,-579.432"/>
<polygon fill="#9a32cd" stroke="#9a32cd" points="457.372,-86.0738 447.809,-90.6329 458.128,-93.0329 457.372,-86.0738"/>
<text text-anchor="middle" x="1095" y="-80.1285" font-family="Helvetica,sans-Serif" font-size="10.00"> myResources</text>
</g>
<!-- Node5&#45;&gt;Node3 -->
<g id="edge4" class="edge"><title>Node5&#45;&gt;Node3</title>
<path fill="none" stroke="#9a32cd" stroke-dasharray="5,2" d="M432.97,-82.6844C451.462,-75.3702 475.632,-67.0369 498,-63.1285 785.226,-12.9419 879.996,44.5655 1154,-55.1285 1289.19,-104.315 1318.63,-145.894 1402,-263.128 1438.5,-314.449 1456.62,-389.979 1462.13,-416.499"/>
<polygon fill="#9a32cd" stroke="#9a32cd" points="431.538,-79.4883 423.593,-86.4976 434.175,-85.9726 431.538,-79.4883"/>
<text text-anchor="middle" x="931" y="-18.1285" font-family="Helvetica,sans-Serif" font-size="10.00"> myResources</text>
</g>
<!-- Node11 -->
<g id="node11" class="node"><title>Node11</title>
<g id="a_node11"><a xlink:href="../../d1/dc7/classview_1_1_side_bar.html" target="_top" xlink:title="view.SideBar">
<polygon fill="white" stroke="black" points="1201.5,-252.628 1201.5,-271.628 1278.5,-271.628 1278.5,-252.628 1201.5,-252.628"/>
<text text-anchor="middle" x="1240" y="-259.628" font-family="Helvetica,sans-Serif" font-size="10.00">view.SideBar</text>
</a>
</g>
</g>
<!-- Node5&#45;&gt;Node11 -->
<g id="edge13" class="edge"><title>Node5&#45;&gt;Node11</title>
<path fill="none" stroke="#9a32cd" stroke-dasharray="5,2" d="M457.996,-97.2981C622.084,-101.11 1094.02,-114.954 1154,-149.128 1197.09,-173.676 1225.1,-229.84 1235,-252.443"/>
<polygon fill="#9a32cd" stroke="#9a32cd" points="457.718,-93.7909 447.641,-97.0614 457.558,-100.789 457.718,-93.7909"/>
<text text-anchor="middle" x="781" y="-114.128" font-family="Helvetica,sans-Serif" font-size="10.00"> myResources</text>
</g>
<!-- Node5&#45;&gt;Node27 -->
<g id="edge35" class="edge"><title>Node5&#45;&gt;Node27</title>
<path fill="none" stroke="#9a32cd" stroke-dasharray="5,2" d="M407.244,-115.664C424.729,-177.81 486.225,-374.071 596,-497.128 606.834,-509.274 622.448,-518.997 635.032,-525.567"/>
<polygon fill="#9a32cd" stroke="#9a32cd" points="410.52,-114.379 404.489,-105.668 403.772,-116.239 410.52,-114.379"/>
<text text-anchor="middle" x="538" y="-473.128" font-family="Helvetica,sans-Serif" font-size="10.00"> myResources</text>
</g>
<!-- Node6 -->
<g id="node6" class="node"><title>Node6</title>
<g id="a_node6"><a xlink:href="../../d8/df7/classview_1_1_turtle_view.html" target="_top" xlink:title="view.TurtleView">
<polygon fill="white" stroke="black" points="1197,-328.628 1197,-347.628 1283,-347.628 1283,-328.628 1197,-328.628"/>
<text text-anchor="middle" x="1240" y="-335.628" font-family="Helvetica,sans-Serif" font-size="10.00">view.TurtleView</text>
</a>
</g>
</g>
<!-- Node6&#45;&gt;Node3 -->
<g id="edge5" class="edge"><title>Node6&#45;&gt;Node3</title>
<path fill="none" stroke="#9a32cd" stroke-dasharray="5,2" d="M1293.25,-347.551C1325.58,-354.548 1367.38,-365.744 1402,-382.128 1421.33,-391.274 1441.02,-406.465 1452.88,-416.387"/>
<polygon fill="#9a32cd" stroke="#9a32cd" points="1293.61,-344.052 1283.11,-345.426 1292.18,-350.903 1293.61,-344.052"/>
<text text-anchor="middle" x="1364" y="-385.128" font-family="Helvetica,sans-Serif" font-size="10.00"> myActiveTurtle</text>
</g>
<!-- Node7 -->
<g id="node7" class="node"><title>Node7</title>
<polygon fill="white" stroke="#bfbfbf" points="897,-456.628 897,-475.628 965,-475.628 965,-456.628 897,-456.628"/>
<text text-anchor="middle" x="931" y="-463.628" font-family="Helvetica,sans-Serif" font-size="10.00">ImageView</text>
</g>
<!-- Node7&#45;&gt;Node6 -->
<g id="edge6" class="edge"><title>Node7&#45;&gt;Node6</title>
<path fill="none" stroke="midnightblue" d="M975.526,-469.442C1032.59,-472.792 1128.45,-474.686 1154,-452.128 1186.22,-423.687 1143,-388.838 1172,-357.128 1178.53,-349.991 1187.52,-345.459 1196.8,-342.601"/>
<polygon fill="midnightblue" stroke="midnightblue" points="975.548,-465.936 965.348,-468.805 975.11,-472.922 975.548,-465.936"/>
</g>
<!-- Node8 -->
<g id="node8" class="node"><title>Node8</title>
<polygon fill="white" stroke="#bfbfbf" points="877.5,-418.628 877.5,-437.628 984.5,-437.628 984.5,-418.628 877.5,-418.628"/>
<text text-anchor="middle" x="931" y="-425.628" font-family="Helvetica,sans-Serif" font-size="10.00">List&lt; ImageView &gt;</text>
</g>
<!-- Node8&#45;&gt;Node6 -->
<g id="edge7" class="edge"><title>Node8&#45;&gt;Node6</title>
<path fill="none" stroke="#9a32cd" stroke-dasharray="5,2" d="M994.759,-437.346C1043.1,-440.907 1109.06,-437.647 1154,-403.128 1171.41,-389.755 1155.74,-371.884 1172,-357.128 1178.98,-350.79 1187.93,-346.55 1197,-343.718"/>
<polygon fill="#9a32cd" stroke="#9a32cd" points="994.985,-433.852 984.724,-436.491 994.391,-440.827 994.985,-433.852"/>
<text text-anchor="middle" x="1095" y="-442.128" font-family="Helvetica,sans-Serif" font-size="10.00"> myStamps</text>
</g>
<!-- Node9 -->
<g id="node9" class="node"><title>Node9</title>
<polygon fill="white" stroke="#bfbfbf" points="1172,-367.128 1172,-397.128 1308,-397.128 1308,-367.128 1172,-367.128"/>
<text text-anchor="start" x="1180" y="-385.128" font-family="Helvetica,sans-Serif" font-size="10.00">Map&lt; Integer, view.Turtle</text>
<text text-anchor="middle" x="1240" y="-374.128" font-family="Helvetica,sans-Serif" font-size="10.00">View &gt;</text>
</g>
<!-- Node9&#45;&gt;Node3 -->
<g id="edge8" class="edge"><title>Node9&#45;&gt;Node3</title>
<path fill="none" stroke="#9a32cd" stroke-dasharray="5,2" d="M1318.17,-395.074C1344.8,-399.793 1374.77,-405.387 1402,-411.128 1409.8,-412.773 1418.12,-414.68 1426.05,-416.57"/>
<polygon fill="#9a32cd" stroke="#9a32cd" points="1318.6,-391.595 1308.15,-393.309 1317.39,-398.489 1318.6,-391.595"/>
<text text-anchor="middle" x="1364" y="-414.128" font-family="Helvetica,sans-Serif" font-size="10.00"> myTurtles</text>
</g>
<!-- Node10 -->
<g id="node10" class="node"><title>Node10</title>
<polygon fill="white" stroke="#bfbfbf" points="1217,-290.628 1217,-309.628 1263,-309.628 1263,-290.628 1217,-290.628"/>
<text text-anchor="middle" x="1240" y="-297.628" font-family="Helvetica,sans-Serif" font-size="10.00">Group</text>
</g>
<!-- Node10&#45;&gt;Node3 -->
<g id="edge9" class="edge"><title>Node10&#45;&gt;Node3</title>
<path fill="none" stroke="#9a32cd" stroke-dasharray="5,2" d="M1273.21,-302.211C1307.71,-305.8 1362.76,-315.567 1402,-342.128 1430.67,-361.535 1451.07,-398.743 1459.58,-416.386"/>
<polygon fill="#9a32cd" stroke="#9a32cd" points="1273.49,-298.722 1263.21,-301.284 1272.84,-305.692 1273.49,-298.722"/>
<text text-anchor="middle" x="1364" y="-345.128" font-family="Helvetica,sans-Serif" font-size="10.00"> myLines</text>
</g>
<!-- Node11&#45;&gt;Node3 -->
<g id="edge10" class="edge"><title>Node11&#45;&gt;Node3</title>
<path fill="none" stroke="#9a32cd" stroke-dasharray="5,2" d="M1289.18,-261.781C1323.89,-263.909 1370.06,-271.906 1402,-297.128 1441.98,-328.698 1457.69,-392.428 1462.36,-416.568"/>
<polygon fill="#9a32cd" stroke="#9a32cd" points="1288.95,-258.266 1278.8,-261.296 1288.62,-265.259 1288.95,-258.266"/>
<text text-anchor="middle" x="1364" y="-300.128" font-family="Helvetica,sans-Serif" font-size="10.00"> mySidebar</text>
</g>
<!-- Node11&#45;&gt;Node23 -->
<g id="edge30" class="edge"><title>Node11&#45;&gt;Node23</title>
<path fill="none" stroke="#9a32cd" stroke-dasharray="5,2" d="M1250.3,-243.046C1272.56,-199.8 1333.57,-94.8562 1420,-53.1285 1491.26,-18.724 1529.37,-9.73854 1598,-49.1285 1791.76,-160.336 1864.64,-462.491 1877.03,-520.445"/>
<polygon fill="#9a32cd" stroke="#9a32cd" points="1247.06,-241.686 1245.7,-252.193 1253.32,-244.831 1247.06,-241.686"/>
<text text-anchor="middle" x="1563" y="-52.1285" font-family="Helvetica,sans-Serif" font-size="10.00"> mySidebar</text>
</g>
<!-- Node11&#45;&gt;Node27 -->
<g id="edge47" class="edge"><title>Node11&#45;&gt;Node27</title>
<path fill="none" stroke="#9a32cd" stroke-dasharray="5,2" d="M1191.77,-268.349C1184.33,-271.209 1177.34,-275.3 1172,-281.128 1143.26,-312.488 1185.76,-346.831 1154,-375.128 1128.21,-398.106 877.836,-391.197 844,-398.128 794.294,-408.311 770.445,-397.873 736,-435.128 714.193,-458.715 738.184,-480.139 718,-505.128 710.609,-514.279 699.711,-520.879 689.223,-525.516"/>
<polygon fill="#9a32cd" stroke="#9a32cd" points="1192.85,-271.678 1201.34,-265.346 1190.75,-264.998 1192.85,-271.678"/>
<text text-anchor="middle" x="931" y="-401.128" font-family="Helvetica,sans-Serif" font-size="10.00"> mySidebar</text>
</g>
<!-- Node11&#45;&gt;Node29 -->
<g id="edge41" class="edge"><title>Node11&#45;&gt;Node29</title>
<path fill="none" stroke="#9a32cd" stroke-dasharray="5,2" d="M1191.59,-274.092C1184.93,-276.2 1178.23,-278.554 1172,-281.128 1163.54,-284.622 1162.72,-288.367 1154,-291.128 1021.9,-332.944 979.849,-296.871 844,-324.128 731.223,-346.756 699.712,-348.385 596,-398.128 520.338,-434.419 441.451,-498.515 413.022,-522.614"/>
<polygon fill="#9a32cd" stroke="#9a32cd" points="1192.7,-277.413 1201.27,-271.183 1190.68,-270.71 1192.7,-277.413"/>
<text text-anchor="middle" x="781" y="-349.128" font-family="Helvetica,sans-Serif" font-size="10.00"> mySidebar</text>
</g>
<!-- Node12 -->
<g id="node12" class="node"><title>Node12</title>
<polygon fill="white" stroke="#bfbfbf" points="910.5,-181.628 910.5,-200.628 951.5,-200.628 951.5,-181.628 910.5,-181.628"/>
<text text-anchor="middle" x="931" y="-188.628" font-family="Helvetica,sans-Serif" font-size="10.00">VBox</text>
</g>
<!-- Node12&#45;&gt;Node11 -->
<g id="edge11" class="edge"><title>Node12&#45;&gt;Node11</title>
<path fill="none" stroke="midnightblue" d="M961.659,-190.654C1004.96,-190.775 1087.56,-194.109 1154,-215.128 1181.17,-223.724 1209.51,-241.454 1225.64,-252.512"/>
<polygon fill="midnightblue" stroke="midnightblue" points="961.52,-187.154 951.531,-190.683 961.541,-194.154 961.52,-187.154"/>
</g>
<!-- Node13 -->
<g id="node13" class="node"><title>Node13</title>
<polygon fill="white" stroke="#bfbfbf" points="844.5,-143.628 844.5,-162.628 1017.5,-162.628 1017.5,-143.628 844.5,-143.628"/>
<text text-anchor="middle" x="931" y="-150.628" font-family="Helvetica,sans-Serif" font-size="10.00">ObservableList&lt; view.Property &gt;</text>
</g>
<!-- Node13&#45;&gt;Node11 -->
<g id="edge12" class="edge"><title>Node13&#45;&gt;Node11</title>
<path fill="none" stroke="#9a32cd" stroke-dasharray="5,2" d="M1027.69,-151.486C1068.3,-154.091 1115.14,-161.631 1154,-180.128 1189.55,-197.048 1219.59,-234.713 1232.38,-252.488"/>
<polygon fill="#9a32cd" stroke="#9a32cd" points="1027.68,-147.981 1017.51,-150.927 1027.3,-154.97 1027.68,-147.981"/>
<text text-anchor="middle" x="1095" y="-183.128" font-family="Helvetica,sans-Serif" font-size="10.00"> myVariablesList</text>
</g>
<!-- Node14 -->
<g id="node14" class="node"><title>Node14</title>
<g id="a_node14"><a xlink:href="../../d1/dca/classmodel_1_1_execution_environment.html" target="_top" xlink:title="model.ExecutionEnvironment">
<polygon fill="white" stroke="black" points="322.5,-354.628 322.5,-373.628 479.5,-373.628 479.5,-354.628 322.5,-354.628"/>
<text text-anchor="middle" x="401" y="-361.628" font-family="Helvetica,sans-Serif" font-size="10.00">model.ExecutionEnvironment</text>
</a>
</g>
</g>
<!-- Node14&#45;&gt;Node11 -->
<g id="edge14" class="edge"><title>Node14&#45;&gt;Node11</title>
<path fill="none" stroke="#9a32cd" stroke-dasharray="5,2" d="M418.279,-347.334C436.105,-330.089 466.388,-304.008 498,-291.128 712.76,-203.63 786.216,-240.794 1018,-248.128 1082.56,-250.171 1157.56,-255.562 1201.5,-259.027"/>
<polygon fill="#9a32cd" stroke="#9a32cd" points="415.636,-345.027 411.006,-354.557 420.568,-349.994 415.636,-345.027"/>
<text text-anchor="middle" x="781" y="-240.128" font-family="Helvetica,sans-Serif" font-size="10.00"> myEnvironment</text>
</g>
<!-- Node20 -->
<g id="node20" class="node"><title>Node20</title>
<g id="a_node20"><a xlink:href="../../dc/df5/classmodel_1_1_parser.html" target="_top" xlink:title="model.Parser">
<polygon fill="white" stroke="black" points="891,-573.628 891,-592.628 971,-592.628 971,-573.628 891,-573.628"/>
<text text-anchor="middle" x="931" y="-580.628" font-family="Helvetica,sans-Serif" font-size="10.00">model.Parser</text>
</a>
</g>
</g>
<!-- Node14&#45;&gt;Node20 -->
<g id="edge23" class="edge"><title>Node14&#45;&gt;Node20</title>
<path fill="none" stroke="#9a32cd" stroke-dasharray="5,2" d="M474.946,-375.39C562.647,-391.173 712.224,-425.365 826,-489.128 867.4,-512.33 906.072,-554.726 922.151,-573.613"/>
<polygon fill="#9a32cd" stroke="#9a32cd" points="475.545,-371.942 465.088,-373.647 474.326,-378.835 475.545,-371.942"/>
<text text-anchor="middle" x="657" y="-443.128" font-family="Helvetica,sans-Serif" font-size="10.00"> myExecutionParameters</text>
</g>
<!-- Node14&#45;&gt;Node27 -->
<g id="edge43" class="edge"><title>Node14&#45;&gt;Node27</title>
<path fill="none" stroke="#9a32cd" stroke-dasharray="5,2" d="M408.445,-383.609C420.395,-416.387 449.303,-482.025 498,-513.128 516.264,-524.794 571.245,-530.418 611.226,-533.028"/>
<polygon fill="#9a32cd" stroke="#9a32cd" points="411.639,-382.138 405.038,-373.851 405.03,-384.445 411.639,-382.138"/>
<text text-anchor="middle" x="538" y="-533.128" font-family="Helvetica,sans-Serif" font-size="10.00"> myEnvironment</text>
</g>
<!-- Node15 -->
<g id="node15" class="node"><title>Node15</title>
<polygon fill="white" stroke="#bfbfbf" points="51.5,-294.628 51.5,-313.628 122.5,-313.628 122.5,-294.628 51.5,-294.628"/>
<text text-anchor="middle" x="87" y="-301.628" font-family="Helvetica,sans-Serif" font-size="10.00">Observable</text>
</g>
<!-- Node15&#45;&gt;Node14 -->
<g id="edge15" class="edge"><title>Node15&#45;&gt;Node14</title>
<path fill="none" stroke="midnightblue" d="M132.487,-312.684C190.132,-323.769 290.341,-343.04 350.388,-354.588"/>
<polygon fill="midnightblue" stroke="midnightblue" points="133.063,-309.23 122.582,-310.779 131.741,-316.104 133.063,-309.23"/>
</g>
<!-- Node16 -->
<g id="node16" class="node"><title>Node16</title>
<polygon fill="white" stroke="#bfbfbf" points="42.5,-420.628 42.5,-439.628 131.5,-439.628 131.5,-420.628 42.5,-420.628"/>
<text text-anchor="middle" x="87" y="-427.628" font-family="Helvetica,sans-Serif" font-size="10.00">Set&lt; Integer &gt;</text>
</g>
<!-- Node16&#45;&gt;Node14 -->
<g id="edge16" class="edge"><title>Node16&#45;&gt;Node14</title>
<path fill="none" stroke="#9a32cd" stroke-dasharray="5,2" d="M141.972,-423.237C185.917,-417.124 249.393,-407.146 304,-394.128 327.61,-388.5 353.883,-380.139 372.967,-373.673"/>
<polygon fill="#9a32cd" stroke="#9a32cd" points="141.225,-419.807 131.794,-424.633 142.176,-426.742 141.225,-419.807"/>
<text text-anchor="middle" x="248" y="-430.128" font-family="Helvetica,sans-Serif" font-size="10.00"> myTurtleList</text>
<text text-anchor="middle" x="248" y="-419.128" font-family="Helvetica,sans-Serif" font-size="10.00">activeTurtleList</text>
</g>
<!-- Node17 -->
<g id="node17" class="node"><title>Node17</title>
<polygon fill="white" stroke="#bfbfbf" points="0,-371.128 0,-401.128 174,-401.128 174,-371.128 0,-371.128"/>
<text text-anchor="start" x="8" y="-389.128" font-family="Helvetica,sans-Serif" font-size="10.00">Map&lt; String, model.instructions.</text>
<text text-anchor="middle" x="87" y="-378.128" font-family="Helvetica,sans-Serif" font-size="10.00">Instruction &gt;</text>
</g>
<!-- Node17&#45;&gt;Node14 -->
<g id="edge17" class="edge"><title>Node17&#45;&gt;Node14</title>
<path fill="none" stroke="#9a32cd" stroke-dasharray="5,2" d="M184.305,-379.338C228.685,-376.208 280.655,-372.544 322.461,-369.596"/>
<polygon fill="#9a32cd" stroke="#9a32cd" points="183.81,-375.864 174.081,-380.059 184.303,-382.846 183.81,-375.864"/>
<text text-anchor="middle" x="248" y="-382.128" font-family="Helvetica,sans-Serif" font-size="10.00"> myUserInstructionMap</text>
</g>
<!-- Node18 -->
<g id="node18" class="node"><title>Node18</title>
<polygon fill="white" stroke="#bfbfbf" points="23,-332.628 23,-351.628 151,-351.628 151,-332.628 23,-332.628"/>
<text text-anchor="middle" x="87" y="-339.628" font-family="Helvetica,sans-Serif" font-size="10.00">Map&lt; String, Double &gt;</text>
</g>
<!-- Node18&#45;&gt;Node14 -->
<g id="edge18" class="edge"><title>Node18&#45;&gt;Node14</title>
<path fill="none" stroke="#9a32cd" stroke-dasharray="5,2" d="M161.422,-347.164C203.216,-350.046 256.544,-353.751 304,-357.128 310.001,-357.556 316.212,-358.001 322.456,-358.451"/>
<polygon fill="#9a32cd" stroke="#9a32cd" points="161.546,-343.664 151.329,-346.468 161.065,-350.648 161.546,-343.664"/>
<text text-anchor="middle" x="248" y="-360.128" font-family="Helvetica,sans-Serif" font-size="10.00"> myVariableMap</text>
</g>
<!-- Node19 -->
<g id="node19" class="node"><title>Node19</title>
<polygon fill="white" stroke="#bfbfbf" points="857,-333.628 857,-352.628 1005,-352.628 1005,-333.628 857,-333.628"/>
<text text-anchor="middle" x="931" y="-340.628" font-family="Helvetica,sans-Serif" font-size="10.00">TableView&lt; view.Property &gt;</text>
</g>
<!-- Node19&#45;&gt;Node11 -->
<g id="edge19" class="edge"><title>Node19&#45;&gt;Node11</title>
<path fill="none" stroke="#9a32cd" stroke-dasharray="5,2" d="M1015.08,-352.749C1060.01,-353.662 1114.27,-347.374 1154,-319.128 1169.23,-308.3 1157.74,-293.201 1172,-281.128 1180.31,-274.099 1191.05,-269.663 1201.5,-266.867"/>
<polygon fill="#9a32cd" stroke="#9a32cd" points="1015.17,-349.25 1005.06,-352.425 1014.94,-356.247 1015.17,-349.25"/>
<text text-anchor="middle" x="1095" y="-367.128" font-family="Helvetica,sans-Serif" font-size="10.00"> myTurtlePropertiesTable</text>
<text text-anchor="middle" x="1095" y="-356.128" font-family="Helvetica,sans-Serif" font-size="10.00">myVariablesTable</text>
</g>
<!-- Node20&#45;&gt;Node1 -->
<g id="edge52" class="edge"><title>Node20&#45;&gt;Node1</title>
<path fill="none" stroke="#9a32cd" stroke-dasharray="5,2" d="M981.228,-583.524C1112.68,-584.582 1471.74,-587.47 1616.39,-588.633"/>
<polygon fill="#9a32cd" stroke="#9a32cd" points="981.086,-580.023 971.058,-583.443 981.029,-587.023 981.086,-580.023"/>
<text text-anchor="middle" x="1364" y="-590.128" font-family="Helvetica,sans-Serif" font-size="10.00"> myParser</text>
</g>
<!-- Node20&#45;&gt;Node11 -->
<g id="edge20" class="edge"><title>Node20&#45;&gt;Node11</title>
<path fill="none" stroke="#9a32cd" stroke-dasharray="5,2" d="M981.352,-574.191C1039.93,-562.505 1132.42,-540.291 1154,-513.128 1186.17,-472.641 1139.25,-321.143 1172,-281.128 1179.28,-272.24 1190.38,-267.332 1201.46,-264.675"/>
<polygon fill="#9a32cd" stroke="#9a32cd" points="980.331,-570.824 971.19,-576.181 981.677,-577.694 980.331,-570.824"/>
<text text-anchor="middle" x="1095" y="-565.128" font-family="Helvetica,sans-Serif" font-size="10.00"> myParser</text>
</g>
<!-- Node20&#45;&gt;Node27 -->
<g id="edge44" class="edge"><title>Node20&#45;&gt;Node27</title>
<path fill="none" stroke="#9a32cd" stroke-dasharray="5,2" d="M881.275,-574.618C868.434,-570.909 855.083,-565.627 844,-558.128 833.249,-550.855 837.669,-540.814 826,-535.128 786.014,-515.646 734.051,-519.375 698.57,-525.575"/>
<polygon fill="#9a32cd" stroke="#9a32cd" points="880.389,-578.004 890.95,-577.158 882.166,-571.233 880.389,-578.004"/>
<text text-anchor="middle" x="781" y="-538.128" font-family="Helvetica,sans-Serif" font-size="10.00"> myParser</text>
</g>
<!-- Node20&#45;&gt;Node29 -->
<g id="edge39" class="edge"><title>Node20&#45;&gt;Node29</title>
<path fill="none" stroke="#9a32cd" stroke-dasharray="5,2" d="M910.418,-567.063C890.465,-551.609 857.989,-528.909 826,-517.128 721.543,-478.662 689.041,-489.925 578,-482.128 542.532,-479.638 532.536,-473.674 498,-482.128 466.058,-489.948 432.926,-510.442 415.157,-522.628"/>
<polygon fill="#9a32cd" stroke="#9a32cd" points="908.398,-569.927 918.411,-573.388 912.741,-564.438 908.398,-569.927"/>
<text text-anchor="middle" x="657" y="-493.128" font-family="Helvetica,sans-Serif" font-size="10.00"> myParser</text>
</g>
<!-- Node21 -->
<g id="node21" class="node"><title>Node21</title>
<polygon fill="white" stroke="#bfbfbf" points="627,-662.628 627,-681.628 687,-681.628 687,-662.628 627,-662.628"/>
<text text-anchor="middle" x="657" y="-669.628" font-family="Helvetica,sans-Serif" font-size="10.00">Observer</text>
</g>
<!-- Node21&#45;&gt;Node20 -->
<g id="edge21" class="edge"><title>Node21&#45;&gt;Node20</title>
<path fill="none" stroke="midnightblue" d="M697.42,-664.369C731.841,-657.1 782.896,-645.12 826,-630.128 856.878,-619.389 891.156,-602.969 911.624,-592.652"/>
<polygon fill="midnightblue" stroke="midnightblue" points="696.378,-661.011 687.299,-666.472 697.801,-667.864 696.378,-661.011"/>
</g>
<!-- Node21&#45;&gt;Node23 -->
<g id="edge25" class="edge"><title>Node21&#45;&gt;Node23</title>
<path fill="none" stroke="midnightblue" d="M697.061,-683.919C772.849,-705.72 945.464,-750.128 1094,-750.128 1094,-750.128 1094,-750.128 1680,-750.128 1795.11,-750.128 1860.91,-582.442 1875.76,-539.865"/>
<polygon fill="midnightblue" stroke="midnightblue" points="697.602,-680.432 687.022,-681 695.647,-687.153 697.602,-680.432"/>
</g>
<!-- Node22 -->
<g id="node22" class="node"><title>Node22</title>
<polygon fill="white" stroke="#bfbfbf" points="601,-613.128 601,-643.128 713,-643.128 713,-613.128 601,-613.128"/>
<text text-anchor="start" x="609" y="-631.128" font-family="Helvetica,sans-Serif" font-size="10.00">List&lt; Entry&lt; String,</text>
<text text-anchor="middle" x="657" y="-620.128" font-family="Helvetica,sans-Serif" font-size="10.00"> Pattern &gt; &gt;</text>
</g>
<!-- Node22&#45;&gt;Node20 -->
<g id="edge22" class="edge"><title>Node22&#45;&gt;Node20</title>
<path fill="none" stroke="#9a32cd" stroke-dasharray="5,2" d="M723.225,-617.338C775.493,-608.69 847.096,-596.844 890.866,-589.603"/>
<polygon fill="#9a32cd" stroke="#9a32cd" points="722.338,-613.937 713.043,-619.022 723.48,-620.843 722.338,-613.937"/>
<text text-anchor="middle" x="781" y="-618.128" font-family="Helvetica,sans-Serif" font-size="10.00"> myPatterns</text>
</g>
<!-- Node23&#45;&gt;Node20 -->
<g id="edge24" class="edge"><title>Node23&#45;&gt;Node20</title>
<path fill="none" stroke="#9a32cd" stroke-dasharray="5,2" d="M1858.57,-545.851C1814.2,-578.848 1704.41,-654.322 1598,-679.128 1476.69,-707.409 1095.35,-621.959 971.366,-592.632"/>
<polygon fill="#9a32cd" stroke="#9a32cd" points="1860.9,-548.476 1866.79,-539.666 1856.7,-542.883 1860.9,-548.476"/>
<text text-anchor="middle" x="1465" y="-688.128" font-family="Helvetica,sans-Serif" font-size="10.00"> myViewUpdater</text>
</g>
<!-- Node24&#45;&gt;Node23 -->
<g id="edge27" class="edge"><title>Node24&#45;&gt;Node23</title>
<path fill="none" stroke="#9a32cd" stroke-dasharray="5,2" d="M1715.14,-468.373C1754.79,-483.316 1818.32,-507.258 1853.49,-520.514"/>
<polygon fill="#9a32cd" stroke="#9a32cd" points="1716.2,-465.031 1705.61,-464.78 1713.73,-471.582 1716.2,-465.031"/>
<text text-anchor="middle" x="1786" y="-507.128" font-family="Helvetica,sans-Serif" font-size="10.00"> myDrawer</text>
</g>
<!-- Node24&#45;&gt;Node27 -->
<g id="edge46" class="edge"><title>Node24&#45;&gt;Node27</title>
<path fill="none" stroke="#9a32cd" stroke-dasharray="5,2" d="M1636.14,-467.413C1534.07,-495.994 1263.99,-563.331 1036,-547.128 941.956,-540.445 920.044,-523.812 826,-517.128 786.101,-514.293 775.743,-512.602 736,-517.128 721.363,-518.795 705.475,-522.168 691.88,-525.548"/>
<polygon fill="#9a32cd" stroke="#9a32cd" points="1637.1,-470.779 1645.78,-464.691 1635.2,-464.043 1637.1,-470.779"/>
<text text-anchor="middle" x="1240" y="-551.128" font-family="Helvetica,sans-Serif" font-size="10.00"> drawer</text>
</g>
<!-- Node25 -->
<g id="node25" class="node"><title>Node25</title>
<polygon fill="white" stroke="#bfbfbf" points="1444.5,-62.6285 1444.5,-81.6285 1485.5,-81.6285 1485.5,-62.6285 1444.5,-62.6285"/>
<text text-anchor="middle" x="1465" y="-69.6285" font-family="Helvetica,sans-Serif" font-size="10.00">Color</text>
</g>
<!-- Node25&#45;&gt;Node24 -->
<g id="edge29" class="edge"><title>Node25&#45;&gt;Node24</title>
<path fill="none" stroke="#9a32cd" stroke-dasharray="5,2" d="M1495.99,-65.9241C1525.63,-61.6678 1570.44,-60.565 1598,-85.1285 1654.17,-135.199 1673.86,-391.759 1677.39,-445.32"/>
<polygon fill="#9a32cd" stroke="#9a32cd" points="1495.11,-62.5207 1485.81,-67.5931 1496.25,-69.4284 1495.11,-62.5207"/>
<text text-anchor="middle" x="1563" y="-88.1285" font-family="Helvetica,sans-Serif" font-size="10.00"> myColor</text>
</g>
<!-- Node26 -->
<g id="node26" class="node"><title>Node26</title>
<polygon fill="white" stroke="#bfbfbf" points="596,-574.628 596,-593.628 718,-593.628 718,-574.628 596,-574.628"/>
<text text-anchor="middle" x="657" y="-581.628" font-family="Helvetica,sans-Serif" font-size="10.00">Map&lt; String, String &gt;</text>
</g>
<!-- Node26&#45;&gt;Node20 -->
<g id="edge31" class="edge"><title>Node26&#45;&gt;Node20</title>
<path fill="none" stroke="#9a32cd" stroke-dasharray="5,2" d="M728.133,-583.871C779.837,-583.681 848.285,-583.429 890.712,-583.273"/>
<polygon fill="#9a32cd" stroke="#9a32cd" points="728.015,-580.371 718.028,-583.908 728.041,-587.371 728.015,-580.371"/>
<text text-anchor="middle" x="781" y="-587.128" font-family="Helvetica,sans-Serif" font-size="10.00"> myCommandMap</text>
</g>
<!-- Node27&#45;&gt;Node20 -->
<g id="edge32" class="edge"><title>Node27&#45;&gt;Node20</title>
<path fill="none" stroke="#9a32cd" stroke-dasharray="5,2" d="M712.464,-544.74C765.173,-554.041 843.785,-567.914 890.669,-576.188"/>
<polygon fill="#9a32cd" stroke="#9a32cd" points="713.067,-541.292 702.611,-543.001 711.85,-548.186 713.067,-541.292"/>
<text text-anchor="middle" x="781" y="-567.128" font-family="Helvetica,sans-Serif" font-size="10.00"> mySLogoView</text>
</g>
<!-- Node28 -->
<g id="node28" class="node"><title>Node28</title>
<polygon fill="white" stroke="#bfbfbf" points="378.5,-681.628 378.5,-700.628 423.5,-700.628 423.5,-681.628 378.5,-681.628"/>
<text text-anchor="middle" x="401" y="-688.628" font-family="Helvetica,sans-Serif" font-size="10.00">Stage</text>
</g>
<!-- Node28&#45;&gt;Node1 -->
<g id="edge50" class="edge"><title>Node28&#45;&gt;Node1</title>
<path fill="none" stroke="#9a32cd" stroke-dasharray="5,2" d="M434.057,-692.257C491.175,-694.017 614.296,-696.672 718,-691.128 1110.5,-670.147 1208.59,-656.598 1598,-603.128 1607.36,-601.843 1617.3,-600.272 1626.87,-598.652"/>
<polygon fill="#9a32cd" stroke="#9a32cd" points="433.966,-688.753 423.859,-691.931 433.741,-695.749 433.966,-688.753"/>
<text text-anchor="middle" x="1095" y="-674.128" font-family="Helvetica,sans-Serif" font-size="10.00"> myStage</text>
</g>
<!-- Node28&#45;&gt;Node27 -->
<g id="edge34" class="edge"><title>Node28&#45;&gt;Node27</title>
<path fill="none" stroke="#9a32cd" stroke-dasharray="5,2" d="M433.706,-687.423C478.796,-681.502 558.187,-668.464 578,-648.128 604.341,-621.092 572.846,-594.94 596,-565.128 603.144,-555.931 613.862,-549.341 624.271,-544.725"/>
<polygon fill="#9a32cd" stroke="#9a32cd" points="433.051,-683.978 423.571,-688.709 433.932,-690.922 433.051,-683.978"/>
<text text-anchor="middle" x="538" y="-680.128" font-family="Helvetica,sans-Serif" font-size="10.00"> myStage</text>
</g>
<!-- Node29&#45;&gt;Node27 -->
<g id="edge36" class="edge"><title>Node29&#45;&gt;Node27</title>
<path fill="none" stroke="#9a32cd" stroke-dasharray="5,2" d="M444.679,-540.249C461.259,-543.022 480.451,-545.766 498,-547.128 533.449,-549.881 542.548,-549.84 578,-547.128 588.792,-546.303 600.352,-544.844 611.177,-543.222"/>
<polygon fill="#9a32cd" stroke="#9a32cd" points="445.181,-536.784 434.731,-538.531 443.99,-543.682 445.181,-536.784"/>
<text text-anchor="middle" x="538" y="-553.128" font-family="Helvetica,sans-Serif" font-size="10.00"> myEditor</text>
</g>
<!-- Node30 -->
<g id="node30" class="node"><title>Node30</title>
<polygon fill="white" stroke="#bfbfbf" points="62.5,-543.628 62.5,-562.628 111.5,-562.628 111.5,-543.628 62.5,-543.628"/>
<text text-anchor="middle" x="87" y="-550.628" font-family="Helvetica,sans-Serif" font-size="10.00">Button</text>
</g>
<!-- Node30&#45;&gt;Node29 -->
<g id="edge38" class="edge"><title>Node30&#45;&gt;Node29</title>
<path fill="none" stroke="#9a32cd" stroke-dasharray="5,2" d="M121.843,-550.851C182.178,-546.79 307.572,-538.35 367.17,-534.338"/>
<polygon fill="#9a32cd" stroke="#9a32cd" points="121.449,-547.369 111.707,-551.533 121.919,-554.353 121.449,-547.369"/>
<text text-anchor="middle" x="248" y="-549.128" font-family="Helvetica,sans-Serif" font-size="10.00"> runButton</text>
</g>
<!-- Node31 -->
<g id="node31" class="node"><title>Node31</title>
<polygon fill="white" stroke="#bfbfbf" points="58,-505.628 58,-524.628 116,-524.628 116,-505.628 58,-505.628"/>
<text text-anchor="middle" x="87" y="-512.628" font-family="Helvetica,sans-Serif" font-size="10.00">TextArea</text>
</g>
<!-- Node31&#45;&gt;Node29 -->
<g id="edge40" class="edge"><title>Node31&#45;&gt;Node29</title>
<path fill="none" stroke="#9a32cd" stroke-dasharray="5,2" d="M126.069,-514.847C169.264,-514.798 241.794,-515.532 304,-520.128 325.106,-521.688 348.692,-524.619 367.203,-527.194"/>
<polygon fill="#9a32cd" stroke="#9a32cd" points="125.995,-511.347 116.005,-514.873 126.014,-518.347 125.995,-511.347"/>
<text text-anchor="middle" x="248" y="-523.128" font-family="Helvetica,sans-Serif" font-size="10.00"> textEditor</text>
</g>
<!-- Node32 -->
<g id="node32" class="node"><title>Node32</title>
<polygon fill="white" stroke="#bfbfbf" points="341.5,-631.628 341.5,-650.628 460.5,-650.628 460.5,-631.628 341.5,-631.628"/>
<text text-anchor="middle" x="401" y="-638.628" font-family="Helvetica,sans-Serif" font-size="10.00">Map&lt; String, Node &gt;</text>
</g>
<!-- Node32&#45;&gt;Node27 -->
<g id="edge42" class="edge"><title>Node32&#45;&gt;Node27</title>
<path fill="none" stroke="#9a32cd" stroke-dasharray="5,2" d="M471.015,-638.581C506.148,-634.152 547.714,-623.747 578,-600.128 591.794,-589.372 583.561,-577.427 596,-565.128 604.944,-556.285 617.021,-549.564 627.994,-544.748"/>
<polygon fill="#9a32cd" stroke="#9a32cd" points="470.364,-635.132 460.816,-639.724 471.144,-642.088 470.364,-635.132"/>
<text text-anchor="middle" x="538" y="-636.128" font-family="Helvetica,sans-Serif" font-size="10.00"> variables</text>
</g>
<!-- Node33 -->
<g id="node33" class="node"><title>Node33</title>
<polygon fill="white" stroke="#bfbfbf" points="360.5,-593.628 360.5,-612.628 441.5,-612.628 441.5,-593.628 360.5,-593.628"/>
<text text-anchor="middle" x="401" y="-600.628" font-family="Helvetica,sans-Serif" font-size="10.00">Dimension2D</text>
</g>
<!-- Node33&#45;&gt;Node27 -->
<g id="edge45" class="edge"><title>Node33&#45;&gt;Node27</title>
<path fill="none" stroke="#9a32cd" stroke-dasharray="5,2" d="M451.704,-594.522C487.243,-587.855 536.014,-577.654 578,-565.128 597.187,-559.405 618.353,-551.134 633.79,-544.726"/>
<polygon fill="#9a32cd" stroke="#9a32cd" points="450.783,-591.133 441.586,-596.392 452.056,-598.016 450.783,-591.133"/>
<text text-anchor="middle" x="538" y="-588.128" font-family="Helvetica,sans-Serif" font-size="10.00"> myDimensions</text>
</g>
<!-- Node34 -->
<g id="node34" class="node"><title>Node34</title>
<polygon fill="white" stroke="#bfbfbf" points="862,-257.628 862,-276.628 1000,-276.628 1000,-257.628 862,-257.628"/>
<text text-anchor="middle" x="931" y="-264.628" font-family="Helvetica,sans-Serif" font-size="10.00">ObservableList&lt; String &gt;</text>
</g>
<!-- Node34&#45;&gt;Node11 -->
<g id="edge48" class="edge"><title>Node34&#45;&gt;Node11</title>
<path fill="none" stroke="#9a32cd" stroke-dasharray="5,2" d="M1010.16,-265.855C1071.44,-264.857 1154.03,-263.512 1201.39,-262.741"/>
<polygon fill="#9a32cd" stroke="#9a32cd" points="1010.07,-262.356 1000.13,-266.019 1010.19,-269.355 1010.07,-262.356"/>
<text text-anchor="middle" x="1095" y="-280.128" font-family="Helvetica,sans-Serif" font-size="10.00"> myCommandItems</text>
<text text-anchor="middle" x="1095" y="-269.128" font-family="Helvetica,sans-Serif" font-size="10.00">myHistoryItems</text>
</g>
<!-- Node35 -->
<g id="node35" class="node"><title>Node35</title>
<polygon fill="white" stroke="#bfbfbf" points="1208.5,-454.628 1208.5,-473.628 1271.5,-473.628 1271.5,-454.628 1208.5,-454.628"/>
<text text-anchor="middle" x="1240" y="-461.628" font-family="Helvetica,sans-Serif" font-size="10.00">Rectangle</text>
</g>
<!-- Node35&#45;&gt;Node3 -->
<g id="edge49" class="edge"><title>Node35&#45;&gt;Node3</title>
<path fill="none" stroke="#9a32cd" stroke-dasharray="5,2" d="M1281.75,-458.904C1314.38,-454.516 1361.27,-447.752 1402,-440.128 1409.05,-438.809 1416.52,-437.257 1423.74,-435.675"/>
<polygon fill="#9a32cd" stroke="#9a32cd" points="1281.13,-455.455 1271.68,-460.244 1282.05,-462.394 1281.13,-455.455"/>
<text text-anchor="middle" x="1364" y="-456.128" font-family="Helvetica,sans-Serif" font-size="10.00"> myBackground</text>
</g>
</g>
</svg>
