<?xml version="1.0" encoding="UTF-8" standalone="no"?>
<!DOCTYPE svg PUBLIC "-//W3C//DTD SVG 1.1//EN"
 "http://www.w3.org/Graphics/SVG/1.1/DTD/svg11.dtd">
<!-- Generated by graphviz version 2.36.0 (20140111.2315)
 -->
<!-- Title: view.CustomizationBar Pages: 1 -->
<svg width="1674pt" height="692pt"
 viewBox="0.00 0.00 1674.00 692.10" xmlns="http://www.w3.org/2000/svg" xmlns:xlink="http://www.w3.org/1999/xlink">
<g id="graph0" class="graph" transform="scale(1 1) rotate(0) translate(4 688.099)">
<title>view.CustomizationBar</title>
<polygon fill="white" stroke="none" points="-4,4 -4,-688.099 1670,-688.099 1670,4 -4,4"/>
<!-- Node1 -->
<g id="node1" class="node"><title>Node1</title>
<polygon fill="#bfbfbf" stroke="black" points="1540.5,-463.5 1540.5,-482.5 1665.5,-482.5 1665.5,-463.5 1540.5,-463.5"/>
<text text-anchor="middle" x="1603" y="-470.5" font-family="Helvetica,sans-Serif" font-size="10.00">view.CustomizationBar</text>
</g>
<!-- Node2 -->
<g id="node2" class="node"><title>Node2</title>
<polygon fill="white" stroke="#bfbfbf" points="8,-518.5 8,-537.5 50,-537.5 50,-518.5 8,-518.5"/>
<text text-anchor="middle" x="29" y="-525.5" font-family="Helvetica,sans-Serif" font-size="10.00">HBox</text>
</g>
<!-- Node2&#45;&gt;Node1 -->
<g id="edge1" class="edge"><title>Node2&#45;&gt;Node1</title>
<path fill="none" stroke="midnightblue" d="M40.478,-546.657C58.1821,-576.376 96.9313,-634.148 146,-664 179.526,-684.396 192.758,-684 232,-684 232,-684 232,-684 1390,-684 1505.8,-684 1580.72,-523.892 1598.11,-482.615"/>
<polygon fill="midnightblue" stroke="midnightblue" points="43.3451,-544.625 35.2964,-537.735 37.2918,-548.14 43.3451,-544.625"/>
</g>
<!-- Node24 -->
<g id="node24" class="node"><title>Node24</title>
<g id="a_node24"><a xlink:href="../../da/dc8/classview_1_1_editor.html" target="_top" xlink:title="view.Editor">
<polygon fill="white" stroke="black" points="199.5,-273.5 199.5,-292.5 266.5,-292.5 266.5,-273.5 199.5,-273.5"/>
<text text-anchor="middle" x="233" y="-280.5" font-family="Helvetica,sans-Serif" font-size="10.00">view.Editor</text>
</a>
</g>
</g>
<!-- Node2&#45;&gt;Node24 -->
<g id="edge28" class="edge"><title>Node2&#45;&gt;Node24</title>
<path fill="none" stroke="midnightblue" d="M35.5602,-508.615C48.3159,-467.453 83.4961,-370.628 146,-316 161.052,-302.845 181.908,-294.669 199.313,-289.746"/>
<polygon fill="midnightblue" stroke="midnightblue" points="32.1286,-507.874 32.6134,-518.458 38.8345,-509.882 32.1286,-507.874"/>
</g>
<!-- Node3 -->
<g id="node3" class="node"><title>Node3</title>
<g id="a_node3"><a xlink:href="../../da/d64/classview_1_1_workspace.html" target="_top" xlink:title="view.Workspace">
<polygon fill="white" stroke="black" points="1344,-337.5 1344,-356.5 1434,-356.5 1434,-337.5 1344,-337.5"/>
<text text-anchor="middle" x="1389" y="-344.5" font-family="Helvetica,sans-Serif" font-size="10.00">view.Workspace</text>
</a>
</g>
</g>
<!-- Node3&#45;&gt;Node1 -->
<g id="edge2" class="edge"><title>Node3&#45;&gt;Node1</title>
<path fill="none" stroke="#9a32cd" stroke-dasharray="5,2" d="M1414.94,-361.822C1458.96,-387.984 1549.25,-441.647 1585.95,-463.462"/>
<polygon fill="#9a32cd" stroke="#9a32cd" points="1416.67,-358.778 1406.28,-356.678 1413.09,-364.796 1416.67,-358.778"/>
<text text-anchor="middle" x="1487" y="-428" font-family="Helvetica,sans-Serif" font-size="10.00"> myWorkspace</text>
</g>
<!-- Node22 -->
<g id="node22" class="node"><title>Node22</title>
<g id="a_node22"><a xlink:href="../../d6/de7/classview_1_1_s_logo_view.html" target="_top" xlink:title="view.SLogoView">
<polygon fill="white" stroke="black" points="501.5,-327.5 501.5,-346.5 592.5,-346.5 592.5,-327.5 501.5,-327.5"/>
<text text-anchor="middle" x="547" y="-334.5" font-family="Helvetica,sans-Serif" font-size="10.00">view.SLogoView</text>
</a>
</g>
</g>
<!-- Node3&#45;&gt;Node22 -->
<g id="edge24" class="edge"><title>Node3&#45;&gt;Node22</title>
<path fill="none" stroke="#9a32cd" stroke-dasharray="5,2" d="M1333.76,-344.147C1260.13,-341.333 1133.43,-340.576 1096,-366 1080.54,-376.501 1093.79,-394.007 1078,-404 1039.69,-428.242 1021.08,-408.76 976,-404 889.225,-394.838 859.542,-406.673 784,-363 773.647,-357.015 776.856,-348.015 766,-343 710.662,-317.437 638.705,-321.654 592.92,-328.304"/>
<polygon fill="#9a32cd" stroke="#9a32cd" points="1333.65,-347.645 1343.79,-344.555 1333.94,-340.651 1333.65,-347.645"/>
<text text-anchor="middle" x="1027" y="-419" font-family="Helvetica,sans-Serif" font-size="10.00"> myWorkspace</text>
</g>
<!-- Node29 -->
<g id="node29" class="node"><title>Node29</title>
<g id="a_node29"><a xlink:href="../../de/d0a/classview_1_1_drawer.html" target="_top" xlink:title="view.Drawer">
<polygon fill="white" stroke="black" points="1566.5,-38.5 1566.5,-57.5 1639.5,-57.5 1639.5,-38.5 1566.5,-38.5"/>
<text text-anchor="middle" x="1603" y="-45.5" font-family="Helvetica,sans-Serif" font-size="10.00">view.Drawer</text>
</a>
</g>
</g>
<!-- Node3&#45;&gt;Node29 -->
<g id="edge37" class="edge"><title>Node3&#45;&gt;Node29</title>
<path fill="none" stroke="#9a32cd" stroke-dasharray="5,2" d="M1402.68,-329.111C1442.59,-272.828 1564.73,-100.564 1595.11,-57.7241"/>
<polygon fill="#9a32cd" stroke="#9a32cd" points="1399.74,-327.208 1396.81,-337.39 1405.45,-331.257 1399.74,-327.208"/>
<text text-anchor="middle" x="1487" y="-262" font-family="Helvetica,sans-Serif" font-size="10.00"> myWorkspace</text>
</g>
<!-- Node4 -->
<g id="node4" class="node"><title>Node4</title>
<polygon fill="white" stroke="#bfbfbf" points="1130.5,-425.5 1130.5,-444.5 1197.5,-444.5 1197.5,-425.5 1130.5,-425.5"/>
<text text-anchor="middle" x="1164" y="-432.5" font-family="Helvetica,sans-Serif" font-size="10.00">StackPane</text>
</g>
<!-- Node4&#45;&gt;Node3 -->
<g id="edge3" class="edge"><title>Node4&#45;&gt;Node3</title>
<path fill="none" stroke="midnightblue" d="M1207.64,-426.243C1240.84,-418.559 1287.58,-405.815 1326,-388 1344.5,-379.423 1363.78,-365.816 1375.83,-356.654"/>
<polygon fill="midnightblue" stroke="midnightblue" points="1206.78,-422.849 1197.8,-428.465 1208.32,-429.677 1206.78,-422.849"/>
</g>
<!-- Node5 -->
<g id="node5" class="node"><title>Node5</title>
<g id="a_node5"><a xlink:href="../../d8/df7/classview_1_1_turtle_view.html" target="_top" xlink:title="view.TurtleView">
<polygon fill="white" stroke="black" points="1121,-501.5 1121,-520.5 1207,-520.5 1207,-501.5 1121,-501.5"/>
<text text-anchor="middle" x="1164" y="-508.5" font-family="Helvetica,sans-Serif" font-size="10.00">view.TurtleView</text>
</a>
</g>
</g>
<!-- Node5&#45;&gt;Node3 -->
<g id="edge4" class="edge"><title>Node5&#45;&gt;Node3</title>
<path fill="none" stroke="#9a32cd" stroke-dasharray="5,2" d="M1184.27,-494.583C1208.19,-474.247 1246.32,-442.013 1250,-440 1281.07,-422.99 1296.22,-435.184 1326,-416 1350.64,-400.126 1371.58,-371.948 1381.63,-356.984"/>
<polygon fill="#9a32cd" stroke="#9a32cd" points="1181.83,-492.065 1176.48,-501.211 1186.36,-497.396 1181.83,-492.065"/>
<text text-anchor="middle" x="1288" y="-443" font-family="Helvetica,sans-Serif" font-size="10.00"> myActiveTurtle</text>
</g>
<!-- Node6 -->
<g id="node6" class="node"><title>Node6</title>
<polygon fill="white" stroke="#bfbfbf" points="837,-501.5 837,-520.5 905,-520.5 905,-501.5 837,-501.5"/>
<text text-anchor="middle" x="871" y="-508.5" font-family="Helvetica,sans-Serif" font-size="10.00">ImageView</text>
</g>
<!-- Node6&#45;&gt;Node5 -->
<g id="edge5" class="edge"><title>Node6&#45;&gt;Node5</title>
<path fill="none" stroke="midnightblue" d="M915.27,-511C970.553,-511 1065.64,-511 1120.53,-511"/>
<polygon fill="midnightblue" stroke="midnightblue" points="915.098,-507.5 905.098,-511 915.098,-514.5 915.098,-507.5"/>
</g>
<!-- Node7 -->
<g id="node7" class="node"><title>Node7</title>
<polygon fill="white" stroke="#bfbfbf" points="1096,-376 1096,-406 1232,-406 1232,-376 1096,-376"/>
<text text-anchor="start" x="1104" y="-394" font-family="Helvetica,sans-Serif" font-size="10.00">Map&lt; Integer, view.Turtle</text>
<text text-anchor="middle" x="1164" y="-383" font-family="Helvetica,sans-Serif" font-size="10.00">View &gt;</text>
</g>
<!-- Node7&#45;&gt;Node3 -->
<g id="edge6" class="edge"><title>Node7&#45;&gt;Node3</title>
<path fill="none" stroke="#9a32cd" stroke-dasharray="5,2" d="M1242.12,-375.783C1276.11,-369.077 1314.82,-361.438 1343.82,-355.716"/>
<polygon fill="#9a32cd" stroke="#9a32cd" points="1241.34,-372.369 1232.21,-377.739 1242.7,-379.237 1241.34,-372.369"/>
<text text-anchor="middle" x="1288" y="-376" font-family="Helvetica,sans-Serif" font-size="10.00"> myTurtles</text>
</g>
<!-- Node8 -->
<g id="node8" class="node"><title>Node8</title>
<polygon fill="white" stroke="#bfbfbf" points="1141,-299.5 1141,-318.5 1187,-318.5 1187,-299.5 1141,-299.5"/>
<text text-anchor="middle" x="1164" y="-306.5" font-family="Helvetica,sans-Serif" font-size="10.00">Group</text>
</g>
<!-- Node8&#45;&gt;Node3 -->
<g id="edge7" class="edge"><title>Node8&#45;&gt;Node3</title>
<path fill="none" stroke="#9a32cd" stroke-dasharray="5,2" d="M1197.57,-308.763C1230.41,-309.19 1282.35,-311.692 1326,-322 1340.8,-325.495 1356.69,-331.959 1368.67,-337.439"/>
<polygon fill="#9a32cd" stroke="#9a32cd" points="1197.23,-305.261 1187.2,-308.69 1197.18,-312.261 1197.23,-305.261"/>
<text text-anchor="middle" x="1288" y="-325" font-family="Helvetica,sans-Serif" font-size="10.00"> myLines</text>
</g>
<!-- Node9 -->
<g id="node9" class="node"><title>Node9</title>
<g id="a_node9"><a xlink:href="../../d1/dc7/classview_1_1_side_bar.html" target="_top" xlink:title="view.SideBar">
<polygon fill="white" stroke="black" points="1125.5,-261.5 1125.5,-280.5 1202.5,-280.5 1202.5,-261.5 1125.5,-261.5"/>
<text text-anchor="middle" x="1164" y="-268.5" font-family="Helvetica,sans-Serif" font-size="10.00">view.SideBar</text>
</a>
</g>
</g>
<!-- Node9&#45;&gt;Node3 -->
<g id="edge8" class="edge"><title>Node9&#45;&gt;Node3</title>
<path fill="none" stroke="#9a32cd" stroke-dasharray="5,2" d="M1212.97,-272.312C1245.99,-274.731 1290.18,-281.031 1326,-297 1347.47,-306.572 1367.77,-325.48 1378.98,-337.104"/>
<polygon fill="#9a32cd" stroke="#9a32cd" points="1212.87,-268.798 1202.67,-271.655 1212.43,-275.784 1212.87,-268.798"/>
<text text-anchor="middle" x="1288" y="-300" font-family="Helvetica,sans-Serif" font-size="10.00"> mySidebar</text>
</g>
<!-- Node9&#45;&gt;Node22 -->
<g id="edge39" class="edge"><title>Node9&#45;&gt;Node22</title>
<path fill="none" stroke="#9a32cd" stroke-dasharray="5,2" d="M1115.27,-267.988C1043.15,-264.256 902.269,-260.169 784,-276 707.241,-286.275 619.627,-313.031 575.901,-327.455"/>
<polygon fill="#9a32cd" stroke="#9a32cd" points="1115.22,-271.49 1125.4,-268.533 1115.6,-264.5 1115.22,-271.49"/>
<text text-anchor="middle" x="871" y="-279" font-family="Helvetica,sans-Serif" font-size="10.00"> mySidebar</text>
</g>
<!-- Node9&#45;&gt;Node24 -->
<g id="edge32" class="edge"><title>Node9&#45;&gt;Node24</title>
<path fill="none" stroke="#9a32cd" stroke-dasharray="5,2" d="M1115.41,-264.893C1103.23,-263.469 1090.14,-262.061 1078,-261 799.493,-236.656 729.455,-233.003 450,-225 400.243,-223.575 386.176,-212.474 338,-225 301.785,-234.416 264.791,-259.511 246.224,-273.407"/>
<polygon fill="#9a32cd" stroke="#9a32cd" points="1115.05,-268.374 1125.39,-266.085 1115.88,-261.423 1115.05,-268.374"/>
<text text-anchor="middle" x="705" y="-240" font-family="Helvetica,sans-Serif" font-size="10.00"> mySidebar</text>
</g>
<!-- Node10 -->
<g id="node10" class="node"><title>Node10</title>
<polygon fill="white" stroke="#bfbfbf" points="850.5,-173.5 850.5,-192.5 891.5,-192.5 891.5,-173.5 850.5,-173.5"/>
<text text-anchor="middle" x="871" y="-180.5" font-family="Helvetica,sans-Serif" font-size="10.00">VBox</text>
</g>
<!-- Node10&#45;&gt;Node9 -->
<g id="edge9" class="edge"><title>Node10&#45;&gt;Node9</title>
<path fill="none" stroke="midnightblue" d="M901.638,-177.737C945.048,-171.779 1026.35,-167.483 1078,-207 1095.11,-220.09 1080,-237.582 1096,-252 1104.08,-259.283 1114.77,-263.794 1125.22,-266.581"/>
<polygon fill="midnightblue" stroke="midnightblue" points="901.084,-174.281 891.711,-179.221 902.119,-181.204 901.084,-174.281"/>
</g>
<!-- Node11 -->
<g id="node11" class="node"><title>Node11</title>
<polygon fill="white" stroke="#bfbfbf" points="784.5,-135.5 784.5,-154.5 957.5,-154.5 957.5,-135.5 784.5,-135.5"/>
<text text-anchor="middle" x="871" y="-142.5" font-family="Helvetica,sans-Serif" font-size="10.00">ObservableList&lt; view.Property &gt;</text>
</g>
<!-- Node11&#45;&gt;Node9 -->
<g id="edge10" class="edge"><title>Node11&#45;&gt;Node9</title>
<path fill="none" stroke="#9a32cd" stroke-dasharray="5,2" d="M919.55,-133.608C965.814,-125.576 1035.21,-122.08 1078,-160 1109.18,-187.633 1067.79,-221.34 1096,-252 1103.61,-260.274 1114.54,-265.044 1125.36,-267.764"/>
<polygon fill="#9a32cd" stroke="#9a32cd" points="918.658,-130.214 909.472,-135.492 919.945,-137.095 918.658,-130.214"/>
<text text-anchor="middle" x="1027" y="-163" font-family="Helvetica,sans-Serif" font-size="10.00"> variablesList</text>
</g>
<!-- Node12 -->
<g id="node12" class="node"><title>Node12</title>
<polygon fill="white" stroke="#bfbfbf" points="186.5,-97.5 186.5,-116.5 279.5,-116.5 279.5,-97.5 186.5,-97.5"/>
<text text-anchor="middle" x="233" y="-104.5" font-family="Helvetica,sans-Serif" font-size="10.00">ResourceBundle</text>
</g>
<!-- Node12&#45;&gt;Node1 -->
<g id="edge43" class="edge"><title>Node12&#45;&gt;Node1</title>
<path fill="none" stroke="#9a32cd" stroke-dasharray="5,2" d="M286.815,-95.3386C421.639,-67.765 788.339,-6.60286 1078,-86 1306.49,-148.63 1348.8,-219.35 1522,-381 1551.4,-408.439 1581.23,-445.826 1594.65,-463.28"/>
<polygon fill="#9a32cd" stroke="#9a32cd" points="285.838,-91.9667 276.755,-97.4222 287.257,-98.8212 285.838,-91.9667"/>
<text text-anchor="middle" x="1027" y="-89" font-family="Helvetica,sans-Serif" font-size="10.00"> myResources</text>
</g>
<!-- Node12&#45;&gt;Node9 -->
<g id="edge11" class="edge"><title>Node12&#45;&gt;Node9</title>
<path fill="none" stroke="#9a32cd" stroke-dasharray="5,2" d="M289.994,-104.091C469.039,-95.345 1019.35,-72.9676 1078,-125 1120.65,-162.833 1058.51,-209.052 1096,-252 1103.47,-260.562 1114.49,-265.398 1125.44,-268.09"/>
<polygon fill="#9a32cd" stroke="#9a32cd" points="289.558,-100.608 279.743,-104.597 289.903,-107.6 289.558,-100.608"/>
<text text-anchor="middle" x="705" y="-96" font-family="Helvetica,sans-Serif" font-size="10.00"> myResources</text>
</g>
<!-- Node12&#45;&gt;Node22 -->
<g id="edge26" class="edge"><title>Node12&#45;&gt;Node22</title>
<path fill="none" stroke="#9a32cd" stroke-dasharray="5,2" d="M253.896,-122.803C293.876,-154.409 387.062,-227.321 468,-285 489.604,-300.396 515.319,-317.267 531.151,-327.494"/>
<polygon fill="#9a32cd" stroke="#9a32cd" points="255.994,-120 245.981,-116.536 251.648,-125.488 255.994,-120"/>
<text text-anchor="middle" x="394" y="-275" font-family="Helvetica,sans-Serif" font-size="10.00"> myResources</text>
</g>
<!-- Node13 -->
<g id="node13" class="node"><title>Node13</title>
<g id="a_node13"><a xlink:href="../../d1/dca/classmodel_1_1_execution_environment.html" target="_top" xlink:title="model.ExecutionEnvironment">
<polygon fill="white" stroke="black" points="468.5,-576.5 468.5,-595.5 625.5,-595.5 625.5,-576.5 468.5,-576.5"/>
<text text-anchor="middle" x="547" y="-583.5" font-family="Helvetica,sans-Serif" font-size="10.00">model.ExecutionEnvironment</text>
</a>
</g>
</g>
<!-- Node13&#45;&gt;Node9 -->
<g id="edge12" class="edge"><title>Node13&#45;&gt;Node9</title>
<path fill="none" stroke="#9a32cd" stroke-dasharray="5,2" d="M612.534,-596.449C660.696,-600.386 725,-596.894 766,-560 792.769,-535.912 758.561,-506.488 784,-481 840.055,-424.836 885.732,-473.77 958,-441 966.987,-436.925 967.1,-432.263 976,-428 1018.4,-407.692 1046.56,-434.951 1078,-400 1111.13,-363.169 1063.03,-326.97 1096,-290 1103.48,-281.609 1114.37,-276.807 1125.21,-274.093"/>
<polygon fill="#9a32cd" stroke="#9a32cd" points="612.8,-592.959 602.516,-595.506 612.144,-599.928 612.8,-592.959"/>
<text text-anchor="middle" x="871" y="-484" font-family="Helvetica,sans-Serif" font-size="10.00"> myEnvironment</text>
</g>
<!-- Node18 -->
<g id="node18" class="node"><title>Node18</title>
<g id="a_node18"><a xlink:href="../../dc/df5/classmodel_1_1_parser.html" target="_top" xlink:title="model.Parser">
<polygon fill="white" stroke="black" points="831,-412.5 831,-431.5 911,-431.5 911,-412.5 831,-412.5"/>
<text text-anchor="middle" x="871" y="-419.5" font-family="Helvetica,sans-Serif" font-size="10.00">model.Parser</text>
</a>
</g>
</g>
<!-- Node13&#45;&gt;Node18 -->
<g id="edge20" class="edge"><title>Node13&#45;&gt;Node18</title>
<path fill="none" stroke="#9a32cd" stroke-dasharray="5,2" d="M582.529,-572.642C643.783,-548.931 765.16,-501.878 766,-501 783.196,-483.023 766.114,-465.291 784,-448 796.56,-435.858 814.591,-429.363 830.902,-425.899"/>
<polygon fill="#9a32cd" stroke="#9a32cd" points="580.952,-569.5 572.889,-576.373 583.478,-576.028 580.952,-569.5"/>
<text text-anchor="middle" x="705" y="-550" font-family="Helvetica,sans-Serif" font-size="10.00"> myExecutionParameters</text>
</g>
<!-- Node14 -->
<g id="node14" class="node"><title>Node14</title>
<polygon fill="white" stroke="#bfbfbf" points="197.5,-548.5 197.5,-567.5 268.5,-567.5 268.5,-548.5 197.5,-548.5"/>
<text text-anchor="middle" x="233" y="-555.5" font-family="Helvetica,sans-Serif" font-size="10.00">Observable</text>
</g>
<!-- Node14&#45;&gt;Node13 -->
<g id="edge13" class="edge"><title>Node14&#45;&gt;Node13</title>
<path fill="none" stroke="midnightblue" d="M278.637,-562.006C328.066,-566.442 408.658,-573.674 468.457,-579.041"/>
<polygon fill="midnightblue" stroke="midnightblue" points="278.854,-558.511 268.582,-561.103 278.229,-565.483 278.854,-558.511"/>
</g>
<!-- Node15 -->
<g id="node15" class="node"><title>Node15</title>
<polygon fill="white" stroke="#bfbfbf" points="146,-625 146,-655 320,-655 320,-625 146,-625"/>
<text text-anchor="start" x="154" y="-643" font-family="Helvetica,sans-Serif" font-size="10.00">Map&lt; String, model.instructions.</text>
<text text-anchor="middle" x="233" y="-632" font-family="Helvetica,sans-Serif" font-size="10.00">Instruction &gt;</text>
</g>
<!-- Node15&#45;&gt;Node13 -->
<g id="edge14" class="edge"><title>Node15&#45;&gt;Node13</title>
<path fill="none" stroke="#9a32cd" stroke-dasharray="5,2" d="M330.099,-627.406C367.618,-622.06 410.929,-615.359 450,-608 468.988,-604.424 489.917,-599.718 507.375,-595.577"/>
<polygon fill="#9a32cd" stroke="#9a32cd" points="329.599,-623.941 320.187,-628.806 330.578,-630.873 329.599,-623.941"/>
<text text-anchor="middle" x="394" y="-630" font-family="Helvetica,sans-Serif" font-size="10.00"> myUserInstructionMap</text>
</g>
<!-- Node16 -->
<g id="node16" class="node"><title>Node16</title>
<polygon fill="white" stroke="#bfbfbf" points="169,-586.5 169,-605.5 297,-605.5 297,-586.5 169,-586.5"/>
<text text-anchor="middle" x="233" y="-593.5" font-family="Helvetica,sans-Serif" font-size="10.00">Map&lt; String, Double &gt;</text>
</g>
<!-- Node16&#45;&gt;Node13 -->
<g id="edge15" class="edge"><title>Node16&#45;&gt;Node13</title>
<path fill="none" stroke="#9a32cd" stroke-dasharray="5,2" d="M307.23,-593.653C355.637,-592.101 419.011,-590.07 468.303,-588.49"/>
<polygon fill="#9a32cd" stroke="#9a32cd" points="307.021,-590.158 297.138,-593.976 307.245,-597.154 307.021,-590.158"/>
<text text-anchor="middle" x="394" y="-596" font-family="Helvetica,sans-Serif" font-size="10.00"> myVariableMap</text>
</g>
<!-- Node17 -->
<g id="node17" class="node"><title>Node17</title>
<polygon fill="white" stroke="#bfbfbf" points="797,-334.5 797,-353.5 945,-353.5 945,-334.5 797,-334.5"/>
<text text-anchor="middle" x="871" y="-341.5" font-family="Helvetica,sans-Serif" font-size="10.00">TableView&lt; view.Property &gt;</text>
</g>
<!-- Node17&#45;&gt;Node9 -->
<g id="edge16" class="edge"><title>Node17&#45;&gt;Node9</title>
<path fill="none" stroke="#9a32cd" stroke-dasharray="5,2" d="M955.194,-341.145C1003.15,-338.114 1057.83,-331.87 1078,-319 1090.79,-310.839 1083.89,-299.13 1096,-290 1104.5,-283.596 1115.07,-279.35 1125.29,-276.535"/>
<polygon fill="#9a32cd" stroke="#9a32cd" points="954.853,-337.659 945.077,-341.744 955.267,-344.646 954.853,-337.659"/>
<text text-anchor="middle" x="1027" y="-354" font-family="Helvetica,sans-Serif" font-size="10.00"> turtlePropertiesTable</text>
<text text-anchor="middle" x="1027" y="-343" font-family="Helvetica,sans-Serif" font-size="10.00">variablesTable</text>
</g>
<!-- Node18&#45;&gt;Node1 -->
<g id="edge44" class="edge"><title>Node18&#45;&gt;Node1</title>
<path fill="none" stroke="#9a32cd" stroke-dasharray="5,2" d="M921.236,-430.542C966.507,-438.037 1035.56,-448.563 1096,-454 1255.79,-468.374 1444.91,-471.91 1540.33,-472.755"/>
<polygon fill="#9a32cd" stroke="#9a32cd" points="921.545,-427.046 911.105,-428.85 920.392,-433.95 921.545,-427.046"/>
<text text-anchor="middle" x="1288" y="-471" font-family="Helvetica,sans-Serif" font-size="10.00"> myParser</text>
</g>
<!-- Node18&#45;&gt;Node9 -->
<g id="edge17" class="edge"><title>Node18&#45;&gt;Node9</title>
<path fill="none" stroke="#9a32cd" stroke-dasharray="5,2" d="M909.573,-409.223C929.24,-402.753 953.789,-395.016 976,-389 1020.86,-376.85 1044.96,-398.683 1078,-366 1102.68,-341.587 1072,-315.077 1096,-290 1103.69,-281.964 1114.51,-277.25 1125.21,-274.509"/>
<polygon fill="#9a32cd" stroke="#9a32cd" points="908.447,-405.909 900.057,-412.38 910.651,-412.553 908.447,-405.909"/>
<text text-anchor="middle" x="1027" y="-392" font-family="Helvetica,sans-Serif" font-size="10.00"> myParser</text>
</g>
<!-- Node18&#45;&gt;Node22 -->
<g id="edge34" class="edge"><title>Node18&#45;&gt;Node22</title>
<path fill="none" stroke="#9a32cd" stroke-dasharray="5,2" d="M820.923,-415.109C807.85,-411.41 794.468,-405.728 784,-397 770.261,-385.544 780.679,-371.224 766,-361 752.097,-351.316 652.133,-343.496 592.509,-339.629"/>
<polygon fill="#9a32cd" stroke="#9a32cd" points="820.258,-418.55 830.807,-417.568 821.948,-411.757 820.258,-418.55"/>
<text text-anchor="middle" x="705" y="-364" font-family="Helvetica,sans-Serif" font-size="10.00"> myParser</text>
</g>
<!-- Node18&#45;&gt;Node24 -->
<g id="edge30" class="edge"><title>Node18&#45;&gt;Node24</title>
<path fill="none" stroke="#9a32cd" stroke-dasharray="5,2" d="M844.279,-407.245C826.348,-396.293 802.432,-380.311 784,-363 774.538,-354.114 776.934,-346.995 766,-340 603.635,-236.131 354.962,-263.195 266.566,-277.178"/>
<polygon fill="#9a32cd" stroke="#9a32cd" points="842.671,-410.361 853.049,-412.493 846.266,-404.355 842.671,-410.361"/>
<text text-anchor="middle" x="547" y="-286" font-family="Helvetica,sans-Serif" font-size="10.00"> myParser</text>
</g>
<!-- Node19 -->
<g id="node19" class="node"><title>Node19</title>
<polygon fill="white" stroke="#bfbfbf" points="203,-410.5 203,-429.5 263,-429.5 263,-410.5 203,-410.5"/>
<text text-anchor="middle" x="233" y="-417.5" font-family="Helvetica,sans-Serif" font-size="10.00">Observer</text>
</g>
<!-- Node19&#45;&gt;Node18 -->
<g id="edge18" class="edge"><title>Node19&#45;&gt;Node18</title>
<path fill="none" stroke="midnightblue" d="M273.441,-420.124C387.516,-420.483 716.921,-421.519 830.752,-421.877"/>
<polygon fill="midnightblue" stroke="midnightblue" points="273.411,-416.624 263.4,-420.092 273.389,-423.624 273.411,-416.624"/>
</g>
<!-- Node19&#45;&gt;Node22 -->
<g id="edge23" class="edge"><title>Node19&#45;&gt;Node22</title>
<path fill="none" stroke="midnightblue" d="M273.031,-414.616C316.736,-408.04 389.387,-395.461 450,-377 477.117,-368.741 507.08,-355.567 526.2,-346.614"/>
<polygon fill="midnightblue" stroke="midnightblue" points="272.481,-411.159 263.099,-416.082 273.503,-418.084 272.481,-411.159"/>
</g>
<!-- Node20 -->
<g id="node20" class="node"><title>Node20</title>
<polygon fill="white" stroke="#bfbfbf" points="491,-489 491,-519 603,-519 603,-489 491,-489"/>
<text text-anchor="start" x="499" y="-507" font-family="Helvetica,sans-Serif" font-size="10.00">List&lt; Entry&lt; String,</text>
<text text-anchor="middle" x="547" y="-496" font-family="Helvetica,sans-Serif" font-size="10.00"> Pattern &gt; &gt;</text>
</g>
<!-- Node20&#45;&gt;Node18 -->
<g id="edge19" class="edge"><title>Node20&#45;&gt;Node18</title>
<path fill="none" stroke="#9a32cd" stroke-dasharray="5,2" d="M613.215,-493.445C672.319,-483.6 752.23,-469.488 766,-463 775.42,-458.561 774.832,-452.939 784,-448 798.419,-440.232 815.477,-434.462 830.584,-430.358"/>
<polygon fill="#9a32cd" stroke="#9a32cd" points="612.476,-490.02 603.184,-495.108 613.621,-496.925 612.476,-490.02"/>
<text text-anchor="middle" x="705" y="-491" font-family="Helvetica,sans-Serif" font-size="10.00"> myPatterns</text>
</g>
<!-- Node21 -->
<g id="node21" class="node"><title>Node21</title>
<polygon fill="white" stroke="#bfbfbf" points="486,-450.5 486,-469.5 608,-469.5 608,-450.5 486,-450.5"/>
<text text-anchor="middle" x="547" y="-457.5" font-family="Helvetica,sans-Serif" font-size="10.00">Map&lt; String, String &gt;</text>
</g>
<!-- Node21&#45;&gt;Node18 -->
<g id="edge21" class="edge"><title>Node21&#45;&gt;Node18</title>
<path fill="none" stroke="#9a32cd" stroke-dasharray="5,2" d="M618.39,-451.693C683.597,-443.998 778.209,-432.832 830.877,-426.617"/>
<polygon fill="#9a32cd" stroke="#9a32cd" points="617.709,-448.249 608.188,-452.897 618.529,-455.201 617.709,-448.249"/>
<text text-anchor="middle" x="705" y="-451" font-family="Helvetica,sans-Serif" font-size="10.00"> myCommandMap</text>
</g>
<!-- Node22&#45;&gt;Node18 -->
<g id="edge22" class="edge"><title>Node22&#45;&gt;Node18</title>
<path fill="none" stroke="#9a32cd" stroke-dasharray="5,2" d="M578.776,-350.505C597.375,-358.25 621.719,-367.663 644,-374 697.072,-389.095 712.048,-385.437 766,-397 787.971,-401.709 812.406,-407.551 832.068,-412.404"/>
<polygon fill="#9a32cd" stroke="#9a32cd" points="579.924,-347.191 569.351,-346.518 577.197,-353.637 579.924,-347.191"/>
<text text-anchor="middle" x="705" y="-400" font-family="Helvetica,sans-Serif" font-size="10.00"> mySLogoView</text>
</g>
<!-- Node23 -->
<g id="node23" class="node"><title>Node23</title>
<polygon fill="white" stroke="#bfbfbf" points="210.5,-450.5 210.5,-469.5 255.5,-469.5 255.5,-450.5 210.5,-450.5"/>
<text text-anchor="middle" x="233" y="-457.5" font-family="Helvetica,sans-Serif" font-size="10.00">Stage</text>
</g>
<!-- Node23&#45;&gt;Node1 -->
<g id="edge42" class="edge"><title>Node23&#45;&gt;Node1</title>
<path fill="none" stroke="#9a32cd" stroke-dasharray="5,2" d="M265.16,-471.561C309.506,-487.435 393.698,-515.437 468,-528 644.406,-557.828 691.09,-549 870,-549 870,-549 870,-549 1390,-549 1467.81,-549 1552.75,-503.076 1586.72,-482.625"/>
<polygon fill="#9a32cd" stroke="#9a32cd" points="266.14,-468.194 255.546,-468.086 263.76,-474.777 266.14,-468.194"/>
<text text-anchor="middle" x="1027" y="-552" font-family="Helvetica,sans-Serif" font-size="10.00"> myStage</text>
</g>
<!-- Node23&#45;&gt;Node22 -->
<g id="edge25" class="edge"><title>Node23&#45;&gt;Node22</title>
<path fill="none" stroke="#9a32cd" stroke-dasharray="5,2" d="M265.679,-455.722C308.918,-449.052 388.109,-433.839 450,-405 483.879,-389.214 518.378,-361.249 535.298,-346.584"/>
<polygon fill="#9a32cd" stroke="#9a32cd" points="265.123,-452.267 255.747,-457.201 266.153,-459.19 265.123,-452.267"/>
<text text-anchor="middle" x="394" y="-445" font-family="Helvetica,sans-Serif" font-size="10.00"> myStage</text>
</g>
<!-- Node24&#45;&gt;Node22 -->
<g id="edge27" class="edge"><title>Node24&#45;&gt;Node22</title>
<path fill="none" stroke="#9a32cd" stroke-dasharray="5,2" d="M276.588,-290.371C335.49,-300.566 441.327,-318.883 501.318,-329.267"/>
<polygon fill="#9a32cd" stroke="#9a32cd" points="276.957,-286.883 266.507,-288.626 275.763,-293.78 276.957,-286.883"/>
<text text-anchor="middle" x="394" y="-323" font-family="Helvetica,sans-Serif" font-size="10.00"> myEditor</text>
</g>
<!-- Node25 -->
<g id="node25" class="node"><title>Node25</title>
<polygon fill="white" stroke="#bfbfbf" points="4.5,-254.5 4.5,-273.5 53.5,-273.5 53.5,-254.5 4.5,-254.5"/>
<text text-anchor="middle" x="29" y="-261.5" font-family="Helvetica,sans-Serif" font-size="10.00">Button</text>
</g>
<!-- Node25&#45;&gt;Node24 -->
<g id="edge29" class="edge"><title>Node25&#45;&gt;Node24</title>
<path fill="none" stroke="#9a32cd" stroke-dasharray="5,2" d="M64.0031,-265.042C82.8816,-265.794 106.773,-267.033 128,-269 151.946,-271.219 178.848,-274.872 199.291,-277.89"/>
<polygon fill="#9a32cd" stroke="#9a32cd" points="63.926,-261.537 53.8029,-264.663 63.666,-268.532 63.926,-261.537"/>
<text text-anchor="middle" x="102" y="-272" font-family="Helvetica,sans-Serif" font-size="10.00"> runButton</text>
</g>
<!-- Node26 -->
<g id="node26" class="node"><title>Node26</title>
<polygon fill="white" stroke="#bfbfbf" points="0,-292.5 0,-311.5 58,-311.5 58,-292.5 0,-292.5"/>
<text text-anchor="middle" x="29" y="-299.5" font-family="Helvetica,sans-Serif" font-size="10.00">TextArea</text>
</g>
<!-- Node26&#45;&gt;Node24 -->
<g id="edge31" class="edge"><title>Node26&#45;&gt;Node24</title>
<path fill="none" stroke="#9a32cd" stroke-dasharray="5,2" d="M68.2332,-298.404C106.167,-294.836 163.67,-289.427 199.475,-286.059"/>
<polygon fill="#9a32cd" stroke="#9a32cd" points="67.7155,-294.937 58.0872,-299.358 68.3711,-301.906 67.7155,-294.937"/>
<text text-anchor="middle" x="102" y="-301" font-family="Helvetica,sans-Serif" font-size="10.00"> textEditor</text>
</g>
<!-- Node27 -->
<g id="node27" class="node"><title>Node27</title>
<polygon fill="white" stroke="#bfbfbf" points="173.5,-363.5 173.5,-382.5 292.5,-382.5 292.5,-363.5 173.5,-363.5"/>
<text text-anchor="middle" x="233" y="-370.5" font-family="Helvetica,sans-Serif" font-size="10.00">Map&lt; String, Node &gt;</text>
</g>
<!-- Node27&#45;&gt;Node22 -->
<g id="edge33" class="edge"><title>Node27&#45;&gt;Node22</title>
<path fill="none" stroke="#9a32cd" stroke-dasharray="5,2" d="M302.647,-365.615C345.113,-360.987 400.741,-354.815 450,-349 466.681,-347.031 484.978,-344.769 501.084,-342.744"/>
<polygon fill="#9a32cd" stroke="#9a32cd" points="302.261,-362.137 292.698,-366.698 303.018,-369.095 302.261,-362.137"/>
<text text-anchor="middle" x="394" y="-365" font-family="Helvetica,sans-Serif" font-size="10.00"> variables</text>
</g>
<!-- Node28 -->
<g id="node28" class="node"><title>Node28</title>
<polygon fill="white" stroke="#bfbfbf" points="192.5,-325.5 192.5,-344.5 273.5,-344.5 273.5,-325.5 192.5,-325.5"/>
<text text-anchor="middle" x="233" y="-332.5" font-family="Helvetica,sans-Serif" font-size="10.00">Dimension2D</text>
</g>
<!-- Node28&#45;&gt;Node22 -->
<g id="edge35" class="edge"><title>Node28&#45;&gt;Node22</title>
<path fill="none" stroke="#9a32cd" stroke-dasharray="5,2" d="M283.872,-335.32C343.863,-335.704 443.669,-336.344 501.269,-336.713"/>
<polygon fill="#9a32cd" stroke="#9a32cd" points="283.537,-331.818 273.515,-335.253 283.492,-338.817 283.537,-331.818"/>
<text text-anchor="middle" x="394" y="-340" font-family="Helvetica,sans-Serif" font-size="10.00"> myDimensions</text>
</g>
<!-- Node29&#45;&gt;Node22 -->
<g id="edge36" class="edge"><title>Node29&#45;&gt;Node22</title>
<path fill="none" stroke="#9a32cd" stroke-dasharray="5,2" d="M1556.19,-44.3868C1452.13,-37.1857 1190.34,-24.7531 976,-62 887.379,-77.4 863.962,-84.8069 784,-126 715.562,-161.256 687.241,-164.306 644,-228 625.957,-254.577 646.184,-273.01 626,-298 614.679,-312.016 597.029,-321.428 581.38,-327.489"/>
<polygon fill="#9a32cd" stroke="#9a32cd" points="1556.12,-47.8907 1566.34,-45.108 1556.62,-40.9083 1556.12,-47.8907"/>
<text text-anchor="middle" x="1164" y="-49" font-family="Helvetica,sans-Serif" font-size="10.00"> drawer</text>
</g>
<!-- Node30 -->
<g id="node30" class="node"><title>Node30</title>
<polygon fill="white" stroke="#bfbfbf" points="1368.5,-0.5 1368.5,-19.5 1409.5,-19.5 1409.5,-0.5 1368.5,-0.5"/>
<text text-anchor="middle" x="1389" y="-7.5" font-family="Helvetica,sans-Serif" font-size="10.00">Color</text>
</g>
<!-- Node30&#45;&gt;Node29 -->
<g id="edge38" class="edge"><title>Node30&#45;&gt;Node29</title>
<path fill="none" stroke="#9a32cd" stroke-dasharray="5,2" d="M1420.18,-11.2139C1447.1,-12.7124 1487.49,-15.9855 1522,-23 1540.39,-26.7389 1560.56,-33.0578 1576.05,-38.407"/>
<polygon fill="#9a32cd" stroke="#9a32cd" points="1420.03,-7.70199 1409.87,-10.6904 1419.68,-14.693 1420.03,-7.70199"/>
<text text-anchor="middle" x="1487" y="-26" font-family="Helvetica,sans-Serif" font-size="10.00"> myColor</text>
</g>
<!-- Node31 -->
<g id="node31" class="node"><title>Node31</title>
<polygon fill="white" stroke="#bfbfbf" points="802,-296.5 802,-315.5 940,-315.5 940,-296.5 802,-296.5"/>
<text text-anchor="middle" x="871" y="-303.5" font-family="Helvetica,sans-Serif" font-size="10.00">ObservableList&lt; String &gt;</text>
</g>
<!-- Node31&#45;&gt;Node9 -->
<g id="edge40" class="edge"><title>Node31&#45;&gt;Node9</title>
<path fill="none" stroke="#9a32cd" stroke-dasharray="5,2" d="M950.256,-296.588C1007.05,-289.757 1081.36,-280.819 1125.45,-275.516"/>
<polygon fill="#9a32cd" stroke="#9a32cd" points="949.737,-293.125 940.227,-297.794 950.573,-300.075 949.737,-293.125"/>
<text text-anchor="middle" x="1027" y="-307" font-family="Helvetica,sans-Serif" font-size="10.00"> commandItems</text>
<text text-anchor="middle" x="1027" y="-296" font-family="Helvetica,sans-Serif" font-size="10.00">historyItems</text>
</g>
<!-- Node32 -->
<g id="node32" class="node"><title>Node32</title>
<polygon fill="white" stroke="#bfbfbf" points="1132.5,-223.5 1132.5,-242.5 1195.5,-242.5 1195.5,-223.5 1132.5,-223.5"/>
<text text-anchor="middle" x="1164" y="-230.5" font-family="Helvetica,sans-Serif" font-size="10.00">Rectangle</text>
</g>
<!-- Node32&#45;&gt;Node3 -->
<g id="edge41" class="edge"><title>Node32&#45;&gt;Node3</title>
<path fill="none" stroke="#9a32cd" stroke-dasharray="5,2" d="M1205.77,-232.15C1240.24,-233.25 1289.68,-239.258 1326,-262 1355.88,-280.708 1375.95,-319.52 1384.01,-337.489"/>
<polygon fill="#9a32cd" stroke="#9a32cd" points="1205.65,-228.647 1195.58,-231.953 1205.51,-235.646 1205.65,-228.647"/>
<text text-anchor="middle" x="1288" y="-265" font-family="Helvetica,sans-Serif" font-size="10.00"> myBackground</text>
</g>
</g>
</svg>
