<?xml version="1.0" encoding="UTF-8" standalone="no"?>
<!DOCTYPE svg PUBLIC "-//W3C//DTD SVG 1.1//EN"
 "http://www.w3.org/Graphics/SVG/1.1/DTD/svg11.dtd">
<!-- Generated by graphviz version 2.36.0 (20140111.2315)
 -->
<!-- Title: view.CustomizationBar Pages: 1 -->
<svg width="1938pt" height="769pt"
 viewBox="0.00 0.00 1938.00 769.00" xmlns="http://www.w3.org/2000/svg" xmlns:xlink="http://www.w3.org/1999/xlink">
<g id="graph0" class="graph" transform="scale(1 1) rotate(0) translate(4 765)">
<title>view.CustomizationBar</title>
<polygon fill="white" stroke="none" points="-4,4 -4,-765 1934,-765 1934,4 -4,4"/>
<!-- Node1 -->
<g id="node1" class="node"><title>Node1</title>
<polygon fill="#bfbfbf" stroke="black" points="1616.5,-637.5 1616.5,-656.5 1741.5,-656.5 1741.5,-637.5 1616.5,-637.5"/>
<text text-anchor="middle" x="1679" y="-644.5" font-family="Helvetica,sans-Serif" font-size="10.00">view.CustomizationBar</text>
</g>
<!-- Node2 -->
<g id="node2" class="node"><title>Node2</title>
<polygon fill="white" stroke="#bfbfbf" points="66,-522.5 66,-541.5 108,-541.5 108,-522.5 66,-522.5"/>
<text text-anchor="middle" x="87" y="-529.5" font-family="Helvetica,sans-Serif" font-size="10.00">HBox</text>
</g>
<!-- Node2&#45;&gt;Node1 -->
<g id="edge1" class="edge"><title>Node2&#45;&gt;Node1</title>
<path fill="none" stroke="midnightblue" d="M118.389,-535.229C185.931,-543.228 352.603,-567.545 480,-624 537.257,-649.373 536.76,-683.681 596,-704 634.65,-717.257 849.638,-723 1094,-723 1094,-723 1094,-723 1466,-723 1543.81,-723 1628.75,-677.076 1662.72,-656.625"/>
<polygon fill="midnightblue" stroke="midnightblue" points="118.756,-531.748 108.422,-534.083 117.956,-538.702 118.756,-531.748"/>
</g>
<!-- Node28 -->
<g id="node28" class="node"><title>Node28</title>
<g id="a_node28"><a xlink:href="../../da/dc8/classview_1_1_editor.html" target="_top" xlink:title="view.Editor">
<polygon fill="white" stroke="black" points="367.5,-378.5 367.5,-397.5 434.5,-397.5 434.5,-378.5 367.5,-378.5"/>
<text text-anchor="middle" x="401" y="-385.5" font-family="Helvetica,sans-Serif" font-size="10.00">view.Editor</text>
</a>
</g>
</g>
<!-- Node2&#45;&gt;Node28 -->
<g id="edge36" class="edge"><title>Node2&#45;&gt;Node28</title>
<path fill="none" stroke="midnightblue" d="M115.688,-517.832C159.18,-495.758 246.358,-452.245 322,-419 339.343,-411.378 359.186,-403.503 374.518,-397.597"/>
<polygon fill="midnightblue" stroke="midnightblue" points="113.919,-514.804 106.593,-522.458 117.093,-521.044 113.919,-514.804"/>
</g>
<!-- Node3 -->
<g id="node3" class="node"><title>Node3</title>
<g id="a_node3"><a xlink:href="../../da/d64/classview_1_1_workspace.html" target="_top" xlink:title="view.Workspace">
<polygon fill="white" stroke="black" points="1420,-329.5 1420,-348.5 1510,-348.5 1510,-329.5 1420,-329.5"/>
<text text-anchor="middle" x="1465" y="-336.5" font-family="Helvetica,sans-Serif" font-size="10.00">view.Workspace</text>
</a>
</g>
</g>
<!-- Node3&#45;&gt;Node1 -->
<g id="edge2" class="edge"><title>Node3&#45;&gt;Node1</title>
<path fill="none" stroke="#9a32cd" stroke-dasharray="5,2" d="M1478.4,-357.015C1518.09,-414.675 1641.16,-593.471 1671.29,-637.251"/>
<polygon fill="#9a32cd" stroke="#9a32cd" points="1481.13,-354.808 1472.58,-348.556 1475.36,-358.777 1481.13,-354.808"/>
<text text-anchor="middle" x="1563" y="-533" font-family="Helvetica,sans-Serif" font-size="10.00"> myWorkspace</text>
</g>
<!-- Node22 -->
<g id="node22" class="node"><title>Node22</title>
<g id="a_node22"><a xlink:href="../../d4/d64/classview_1_1_view_updater.html" target="_top" xlink:title="view.ViewUpdater">
<polygon fill="white" stroke="black" points="1830,-313.5 1830,-332.5 1930,-332.5 1930,-313.5 1830,-313.5"/>
<text text-anchor="middle" x="1880" y="-320.5" font-family="Helvetica,sans-Serif" font-size="10.00">view.ViewUpdater</text>
</a>
</g>
</g>
<!-- Node3&#45;&gt;Node22 -->
<g id="edge25" class="edge"><title>Node3&#45;&gt;Node22</title>
<path fill="none" stroke="#9a32cd" stroke-dasharray="5,2" d="M1520.66,-336.882C1601.57,-333.748 1752,-327.92 1829.7,-324.91"/>
<polygon fill="#9a32cd" stroke="#9a32cd" points="1520.06,-333.403 1510.2,-337.288 1520.33,-340.398 1520.06,-333.403"/>
<text text-anchor="middle" x="1679" y="-337" font-family="Helvetica,sans-Serif" font-size="10.00"> myWorkspace</text>
</g>
<!-- Node23 -->
<g id="node23" class="node"><title>Node23</title>
<g id="a_node23"><a xlink:href="../../de/d0a/classview_1_1_drawer.html" target="_top" xlink:title="view.Drawer">
<polygon fill="white" stroke="black" points="1642.5,-260.5 1642.5,-279.5 1715.5,-279.5 1715.5,-260.5 1642.5,-260.5"/>
<text text-anchor="middle" x="1679" y="-267.5" font-family="Helvetica,sans-Serif" font-size="10.00">view.Drawer</text>
</a>
</g>
</g>
<!-- Node3&#45;&gt;Node23 -->
<g id="edge27" class="edge"><title>Node3&#45;&gt;Node23</title>
<path fill="none" stroke="#9a32cd" stroke-dasharray="5,2" d="M1485.65,-323.044C1497.31,-314.364 1512.75,-304.17 1528,-298 1565.33,-282.899 1611.21,-275.86 1642.33,-272.632"/>
<polygon fill="#9a32cd" stroke="#9a32cd" points="1483.33,-320.417 1477.54,-329.294 1487.6,-325.962 1483.33,-320.417"/>
<text text-anchor="middle" x="1563" y="-301" font-family="Helvetica,sans-Serif" font-size="10.00"> myWorkspace</text>
</g>
<!-- Node26 -->
<g id="node26" class="node"><title>Node26</title>
<g id="a_node26"><a xlink:href="../../d6/de7/classview_1_1_s_logo_view.html" target="_top" xlink:title="view.SLogoView">
<polygon fill="white" stroke="black" points="611.5,-426.5 611.5,-445.5 702.5,-445.5 702.5,-426.5 611.5,-426.5"/>
<text text-anchor="middle" x="657" y="-433.5" font-family="Helvetica,sans-Serif" font-size="10.00">view.SLogoView</text>
</a>
</g>
</g>
<!-- Node3&#45;&gt;Node26 -->
<g id="edge32" class="edge"><title>Node3&#45;&gt;Node26</title>
<path fill="none" stroke="#9a32cd" stroke-dasharray="5,2" d="M1456.63,-358.08C1447.3,-379.486 1429.12,-413.496 1402,-431 1366.39,-453.983 1350.23,-443.432 1308,-447 1247.77,-452.089 1232.41,-449.115 1172,-447 1025.95,-441.886 987.341,-452.442 844,-424 835.729,-422.359 834.324,-419.351 826,-418 786.517,-411.593 775.743,-413.474 736,-418 721.363,-419.667 705.475,-423.04 691.88,-426.419"/>
<polygon fill="#9a32cd" stroke="#9a32cd" points="1459.91,-359.291 1460.49,-348.712 1453.44,-356.62 1459.91,-359.291"/>
<text text-anchor="middle" x="1095" y="-450" font-family="Helvetica,sans-Serif" font-size="10.00"> myWorkspace</text>
</g>
<!-- Node4 -->
<g id="node4" class="node"><title>Node4</title>
<polygon fill="white" stroke="#bfbfbf" points="1206.5,-342.5 1206.5,-361.5 1273.5,-361.5 1273.5,-342.5 1206.5,-342.5"/>
<text text-anchor="middle" x="1240" y="-349.5" font-family="Helvetica,sans-Serif" font-size="10.00">StackPane</text>
</g>
<!-- Node4&#45;&gt;Node3 -->
<g id="edge3" class="edge"><title>Node4&#45;&gt;Node3</title>
<path fill="none" stroke="midnightblue" d="M1283.91,-349.499C1322.96,-347.222 1380.36,-343.876 1419.8,-341.576"/>
<polygon fill="midnightblue" stroke="midnightblue" points="1283.68,-346.006 1273.9,-350.082 1284.09,-352.994 1283.68,-346.006"/>
</g>
<!-- Node5 -->
<g id="node5" class="node"><title>Node5</title>
<polygon fill="white" stroke="#bfbfbf" points="354.5,-56.5 354.5,-75.5 447.5,-75.5 447.5,-56.5 354.5,-56.5"/>
<text text-anchor="middle" x="401" y="-63.5" font-family="Helvetica,sans-Serif" font-size="10.00">ResourceBundle</text>
</g>
<!-- Node5&#45;&gt;Node1 -->
<g id="edge50" class="edge"><title>Node5&#45;&gt;Node1</title>
<path fill="none" stroke="#9a32cd" stroke-dasharray="5,2" d="M432.938,-52.5114C480.108,-33.2062 573.267,-0 656,-0 656,-0 656,-0 1241,-0 1335.83,-0 1357.33,-56.3582 1402,-140 1431.97,-196.114 1381.57,-231.306 1420,-282 1446.23,-316.6 1475.2,-294.035 1510,-320 1559.35,-356.821 1567.48,-373.521 1598,-427 1641.1,-502.54 1668.05,-605.521 1675.73,-637.278"/>
<polygon fill="#9a32cd" stroke="#9a32cd" points="431.477,-49.3283 423.591,-56.403 434.168,-55.7906 431.477,-49.3283"/>
<text text-anchor="middle" x="1095" y="-3" font-family="Helvetica,sans-Serif" font-size="10.00"> myResources</text>
</g>
<!-- Node5&#45;&gt;Node3 -->
<g id="edge4" class="edge"><title>Node5&#45;&gt;Node3</title>
<path fill="none" stroke="#9a32cd" stroke-dasharray="5,2" d="M458.004,-59.8529C585,-47.8118 903.282,-28.3727 1154,-103 1268.89,-137.197 1331.45,-112.09 1402,-209 1430.12,-247.633 1392.24,-276.104 1420,-315 1424.35,-321.091 1430.74,-325.798 1437.31,-329.364"/>
<polygon fill="#9a32cd" stroke="#9a32cd" points="457.368,-56.3981 447.753,-60.8486 458.045,-63.3653 457.368,-56.3981"/>
<text text-anchor="middle" x="931" y="-75" font-family="Helvetica,sans-Serif" font-size="10.00"> myResources</text>
</g>
<!-- Node10 -->
<g id="node10" class="node"><title>Node10</title>
<g id="a_node10"><a xlink:href="../../d1/dc7/classview_1_1_side_bar.html" target="_top" xlink:title="view.SideBar">
<polygon fill="white" stroke="black" points="1201.5,-169.5 1201.5,-188.5 1278.5,-188.5 1278.5,-169.5 1201.5,-169.5"/>
<text text-anchor="middle" x="1240" y="-176.5" font-family="Helvetica,sans-Serif" font-size="10.00">view.SideBar</text>
</a>
</g>
</g>
<!-- Node5&#45;&gt;Node10 -->
<g id="edge12" class="edge"><title>Node5&#45;&gt;Node10</title>
<path fill="none" stroke="#9a32cd" stroke-dasharray="5,2" d="M457.866,-66.8052C566.312,-68.9512 812.731,-76.6775 1018,-104 1079.17,-112.142 1096.12,-110.603 1154,-132 1180.41,-141.764 1208.54,-158.79 1224.9,-169.448"/>
<polygon fill="#9a32cd" stroke="#9a32cd" points="457.872,-63.3048 447.808,-66.6145 457.74,-70.3035 457.872,-63.3048"/>
<text text-anchor="middle" x="781" y="-88" font-family="Helvetica,sans-Serif" font-size="10.00"> myResources</text>
</g>
<!-- Node5&#45;&gt;Node26 -->
<g id="edge34" class="edge"><title>Node5&#45;&gt;Node26</title>
<path fill="none" stroke="#9a32cd" stroke-dasharray="5,2" d="M410.207,-85.1552C433.537,-138.117 504.505,-289.321 596,-391 608.89,-405.325 626.93,-418.127 639.857,-426.379"/>
<polygon fill="#9a32cd" stroke="#9a32cd" points="413.273,-83.4284 406.073,-75.6561 406.854,-86.2221 413.273,-83.4284"/>
<text text-anchor="middle" x="538" y="-371" font-family="Helvetica,sans-Serif" font-size="10.00"> myResources</text>
</g>
<!-- Node6 -->
<g id="node6" class="node"><title>Node6</title>
<g id="a_node6"><a xlink:href="../../d8/df7/classview_1_1_turtle_view.html" target="_top" xlink:title="view.TurtleView">
<polygon fill="white" stroke="black" points="1197,-380.5 1197,-399.5 1283,-399.5 1283,-380.5 1197,-380.5"/>
<text text-anchor="middle" x="1240" y="-387.5" font-family="Helvetica,sans-Serif" font-size="10.00">view.TurtleView</text>
</a>
</g>
</g>
<!-- Node6&#45;&gt;Node3 -->
<g id="edge5" class="edge"><title>Node6&#45;&gt;Node3</title>
<path fill="none" stroke="#9a32cd" stroke-dasharray="5,2" d="M1292.95,-381.652C1324.67,-376.147 1365.92,-368.255 1402,-359 1413.5,-356.049 1426,-352.154 1436.74,-348.586"/>
<polygon fill="#9a32cd" stroke="#9a32cd" points="1292.27,-378.217 1283.01,-383.355 1293.46,-385.117 1292.27,-378.217"/>
<text text-anchor="middle" x="1364" y="-379" font-family="Helvetica,sans-Serif" font-size="10.00"> myActiveTurtle</text>
</g>
<!-- Node7 -->
<g id="node7" class="node"><title>Node7</title>
<polygon fill="white" stroke="#bfbfbf" points="897,-395.5 897,-414.5 965,-414.5 965,-395.5 897,-395.5"/>
<text text-anchor="middle" x="931" y="-402.5" font-family="Helvetica,sans-Serif" font-size="10.00">ImageView</text>
</g>
<!-- Node7&#45;&gt;Node6 -->
<g id="edge6" class="edge"><title>Node7&#45;&gt;Node6</title>
<path fill="none" stroke="midnightblue" d="M975.232,-402.888C1034.08,-400.012 1138.74,-394.899 1196.97,-392.054"/>
<polygon fill="midnightblue" stroke="midnightblue" points="974.963,-399.397 965.146,-403.38 975.305,-406.388 974.963,-399.397"/>
</g>
<!-- Node8 -->
<g id="node8" class="node"><title>Node8</title>
<polygon fill="white" stroke="#bfbfbf" points="1172,-293 1172,-323 1308,-323 1308,-293 1172,-293"/>
<text text-anchor="start" x="1180" y="-311" font-family="Helvetica,sans-Serif" font-size="10.00">Map&lt; Integer, view.Turtle</text>
<text text-anchor="middle" x="1240" y="-300" font-family="Helvetica,sans-Serif" font-size="10.00">View &gt;</text>
</g>
<!-- Node8&#45;&gt;Node3 -->
<g id="edge7" class="edge"><title>Node8&#45;&gt;Node3</title>
<path fill="none" stroke="#9a32cd" stroke-dasharray="5,2" d="M1318.11,-316.752C1344.73,-319.993 1374.71,-323.887 1402,-328 1407.73,-328.863 1413.74,-329.841 1419.68,-330.848"/>
<polygon fill="#9a32cd" stroke="#9a32cd" points="1318.43,-313.266 1308.08,-315.543 1317.59,-320.215 1318.43,-313.266"/>
<text text-anchor="middle" x="1364" y="-331" font-family="Helvetica,sans-Serif" font-size="10.00"> myTurtles</text>
</g>
<!-- Node9 -->
<g id="node9" class="node"><title>Node9</title>
<polygon fill="white" stroke="#bfbfbf" points="1217,-254.5 1217,-273.5 1263,-273.5 1263,-254.5 1217,-254.5"/>
<text text-anchor="middle" x="1240" y="-261.5" font-family="Helvetica,sans-Serif" font-size="10.00">Group</text>
</g>
<!-- Node9&#45;&gt;Node3 -->
<g id="edge8" class="edge"><title>Node9&#45;&gt;Node3</title>
<path fill="none" stroke="#9a32cd" stroke-dasharray="5,2" d="M1273.21,-268.4C1306.5,-273.718 1359.45,-284.363 1402,-303 1410.81,-306.857 1411.77,-310.026 1420,-315 1428.19,-319.951 1437.47,-325.079 1445.38,-329.317"/>
<polygon fill="#9a32cd" stroke="#9a32cd" points="1273.55,-264.911 1263.14,-266.857 1272.49,-271.83 1273.55,-264.911"/>
<text text-anchor="middle" x="1364" y="-306" font-family="Helvetica,sans-Serif" font-size="10.00"> myLines</text>
</g>
<!-- Node10&#45;&gt;Node3 -->
<g id="edge9" class="edge"><title>Node10&#45;&gt;Node3</title>
<path fill="none" stroke="#9a32cd" stroke-dasharray="5,2" d="M1282.26,-192.026C1290.92,-195.244 1299.89,-198.946 1308,-203 1352.77,-225.376 1371.05,-225.668 1402,-265 1416.6,-283.562 1404.63,-297.066 1420,-315 1425.1,-320.947 1432.05,-325.678 1438.92,-329.314"/>
<polygon fill="#9a32cd" stroke="#9a32cd" points="1283.26,-188.667 1272.67,-188.604 1280.91,-195.26 1283.26,-188.667"/>
<text text-anchor="middle" x="1364" y="-268" font-family="Helvetica,sans-Serif" font-size="10.00"> mySidebar</text>
</g>
<!-- Node10&#45;&gt;Node22 -->
<g id="edge29" class="edge"><title>Node10&#45;&gt;Node22</title>
<path fill="none" stroke="#9a32cd" stroke-dasharray="5,2" d="M1288.83,-177.578C1357.85,-176.478 1489.04,-177.961 1598,-200 1664.55,-213.46 1678.91,-225.902 1742,-251 1773.62,-263.578 1781.87,-266.197 1812,-282 1830.72,-291.817 1851.33,-304.777 1864.68,-313.475"/>
<polygon fill="#9a32cd" stroke="#9a32cd" points="1288.64,-174.081 1278.71,-177.765 1288.77,-181.08 1288.64,-174.081"/>
<text text-anchor="middle" x="1563" y="-203" font-family="Helvetica,sans-Serif" font-size="10.00"> mySidebar</text>
</g>
<!-- Node10&#45;&gt;Node26 -->
<g id="edge46" class="edge"><title>Node10&#45;&gt;Node26</title>
<path fill="none" stroke="#9a32cd" stroke-dasharray="5,2" d="M1192.04,-188.616C1184.44,-192.044 1177.33,-196.693 1172,-203 1142.57,-237.827 1187.7,-273.289 1154,-304 1085.1,-366.783 808.008,-279.809 736,-339 713.504,-357.492 736.01,-379.117 718,-402 709.411,-412.914 696.286,-420.918 684.5,-426.409"/>
<polygon fill="#9a32cd" stroke="#9a32cd" points="1193.38,-191.852 1201.47,-185.011 1190.88,-185.313 1193.38,-191.852"/>
<text text-anchor="middle" x="931" y="-331" font-family="Helvetica,sans-Serif" font-size="10.00"> mySidebar</text>
</g>
<!-- Node10&#45;&gt;Node28 -->
<g id="edge40" class="edge"><title>Node10&#45;&gt;Node28</title>
<path fill="none" stroke="#9a32cd" stroke-dasharray="5,2" d="M1191.05,-182.69C1031.69,-195.096 528.078,-235.508 498,-253 446.538,-282.927 415.532,-352.723 405.549,-378.345"/>
<polygon fill="#9a32cd" stroke="#9a32cd" points="1191.79,-186.144 1201.48,-181.879 1191.24,-179.165 1191.79,-186.144"/>
<text text-anchor="middle" x="781" y="-225" font-family="Helvetica,sans-Serif" font-size="10.00"> mySidebar</text>
</g>
<!-- Node11 -->
<g id="node11" class="node"><title>Node11</title>
<polygon fill="white" stroke="#bfbfbf" points="910.5,-113.5 910.5,-132.5 951.5,-132.5 951.5,-113.5 910.5,-113.5"/>
<text text-anchor="middle" x="931" y="-120.5" font-family="Helvetica,sans-Serif" font-size="10.00">VBox</text>
</g>
<!-- Node11&#45;&gt;Node10 -->
<g id="edge10" class="edge"><title>Node11&#45;&gt;Node10</title>
<path fill="none" stroke="midnightblue" d="M961.777,-126.027C1004.59,-130.665 1085.88,-140.539 1154,-155 1172.45,-158.916 1192.79,-164.61 1208.95,-169.469"/>
<polygon fill="midnightblue" stroke="midnightblue" points="962.068,-122.539 951.754,-124.961 961.327,-129.499 962.068,-122.539"/>
</g>
<!-- Node12 -->
<g id="node12" class="node"><title>Node12</title>
<polygon fill="white" stroke="#bfbfbf" points="844.5,-265.5 844.5,-284.5 1017.5,-284.5 1017.5,-265.5 844.5,-265.5"/>
<text text-anchor="middle" x="931" y="-272.5" font-family="Helvetica,sans-Serif" font-size="10.00">ObservableList&lt; view.Property &gt;</text>
</g>
<!-- Node12&#45;&gt;Node10 -->
<g id="edge11" class="edge"><title>Node12&#45;&gt;Node10</title>
<path fill="none" stroke="#9a32cd" stroke-dasharray="5,2" d="M989.939,-285.806C1038.78,-291.489 1107.9,-291.055 1154,-255 1173.26,-239.934 1154.8,-220.386 1172,-203 1179.91,-195.007 1190.66,-189.664 1201.23,-186.097"/>
<polygon fill="#9a32cd" stroke="#9a32cd" points="990.203,-282.312 979.839,-284.511 989.313,-289.255 990.203,-282.312"/>
<text text-anchor="middle" x="1095" y="-292" font-family="Helvetica,sans-Serif" font-size="10.00"> myVariablesList</text>
</g>
<!-- Node13 -->
<g id="node13" class="node"><title>Node13</title>
<g id="a_node13"><a xlink:href="../../d1/dca/classmodel_1_1_execution_environment.html" target="_top" xlink:title="model.ExecutionEnvironment">
<polygon fill="white" stroke="black" points="322.5,-633.5 322.5,-652.5 479.5,-652.5 479.5,-633.5 322.5,-633.5"/>
<text text-anchor="middle" x="401" y="-640.5" font-family="Helvetica,sans-Serif" font-size="10.00">model.ExecutionEnvironment</text>
</a>
</g>
</g>
<!-- Node13&#45;&gt;Node10 -->
<g id="edge13" class="edge"><title>Node13&#45;&gt;Node10</title>
<path fill="none" stroke="#9a32cd" stroke-dasharray="5,2" d="M489.898,-637.336C518.082,-635.165 549.398,-632.38 578,-629 842.701,-597.721 1001.46,-680.582 1154,-462 1187.02,-414.687 1137.17,-248.996 1172,-203 1179.09,-193.642 1190.14,-187.925 1201.24,-184.434"/>
<polygon fill="#9a32cd" stroke="#9a32cd" points="489.375,-633.865 479.666,-638.108 489.901,-640.846 489.375,-633.865"/>
<text text-anchor="middle" x="781" y="-624" font-family="Helvetica,sans-Serif" font-size="10.00"> myEnvironment</text>
</g>
<!-- Node19 -->
<g id="node19" class="node"><title>Node19</title>
<g id="a_node19"><a xlink:href="../../dc/df5/classmodel_1_1_parser.html" target="_top" xlink:title="model.Parser">
<polygon fill="white" stroke="black" points="891,-494.5 891,-513.5 971,-513.5 971,-494.5 891,-494.5"/>
<text text-anchor="middle" x="931" y="-501.5" font-family="Helvetica,sans-Serif" font-size="10.00">model.Parser</text>
</a>
</g>
</g>
<!-- Node13&#45;&gt;Node19 -->
<g id="edge22" class="edge"><title>Node13&#45;&gt;Node19</title>
<path fill="none" stroke="#9a32cd" stroke-dasharray="5,2" d="M468.729,-631.484C501.992,-624.923 542.575,-615.667 578,-604 586.315,-601.262 587.725,-598.859 596,-596 695.644,-561.577 724.727,-567.286 826,-538 852.095,-530.454 881.488,-520.729 902.352,-513.615"/>
<polygon fill="#9a32cd" stroke="#9a32cd" points="467.808,-628.098 458.655,-633.434 469.138,-634.97 467.808,-628.098"/>
<text text-anchor="middle" x="657" y="-599" font-family="Helvetica,sans-Serif" font-size="10.00"> myExecutionParameters</text>
</g>
<!-- Node13&#45;&gt;Node26 -->
<g id="edge42" class="edge"><title>Node13&#45;&gt;Node26</title>
<path fill="none" stroke="#9a32cd" stroke-dasharray="5,2" d="M433.442,-629.024C472.725,-610.023 539.457,-572.423 578,-521 593.173,-500.757 579.551,-486.221 596,-467 604.157,-457.468 615.977,-450.489 626.973,-445.593"/>
<polygon fill="#9a32cd" stroke="#9a32cd" points="431.624,-626.012 424.08,-633.451 434.616,-632.34 431.624,-626.012"/>
<text text-anchor="middle" x="538" y="-594" font-family="Helvetica,sans-Serif" font-size="10.00"> myEnvironment</text>
</g>
<!-- Node14 -->
<g id="node14" class="node"><title>Node14</title>
<polygon fill="white" stroke="#bfbfbf" points="51.5,-732.5 51.5,-751.5 122.5,-751.5 122.5,-732.5 51.5,-732.5"/>
<text text-anchor="middle" x="87" y="-739.5" font-family="Helvetica,sans-Serif" font-size="10.00">Observable</text>
</g>
<!-- Node14&#45;&gt;Node13 -->
<g id="edge14" class="edge"><title>Node14&#45;&gt;Node13</title>
<path fill="none" stroke="midnightblue" d="M132.708,-743.682C177.627,-743.821 248.031,-739.743 304,-717 340.651,-702.107 375.245,-669.179 391.036,-652.737"/>
<polygon fill="midnightblue" stroke="midnightblue" points="132.729,-740.182 122.694,-743.58 132.658,-747.182 132.729,-740.182"/>
</g>
<!-- Node15 -->
<g id="node15" class="node"><title>Node15</title>
<polygon fill="white" stroke="#bfbfbf" points="42.5,-694.5 42.5,-713.5 131.5,-713.5 131.5,-694.5 42.5,-694.5"/>
<text text-anchor="middle" x="87" y="-701.5" font-family="Helvetica,sans-Serif" font-size="10.00">Set&lt; Integer &gt;</text>
</g>
<!-- Node15&#45;&gt;Node13 -->
<g id="edge15" class="edge"><title>Node15&#45;&gt;Node13</title>
<path fill="none" stroke="#9a32cd" stroke-dasharray="5,2" d="M141.888,-697.316C185.785,-691.441 249.237,-681.967 304,-670 326.158,-665.158 350.776,-658.201 369.535,-652.562"/>
<polygon fill="#9a32cd" stroke="#9a32cd" points="141.177,-693.879 131.722,-698.659 142.094,-700.819 141.177,-693.879"/>
<text text-anchor="middle" x="248" y="-705" font-family="Helvetica,sans-Serif" font-size="10.00"> myTurtleList</text>
<text text-anchor="middle" x="248" y="-694" font-family="Helvetica,sans-Serif" font-size="10.00">activeTurtleList</text>
</g>
<!-- Node16 -->
<g id="node16" class="node"><title>Node16</title>
<polygon fill="white" stroke="#bfbfbf" points="0,-645 0,-675 174,-675 174,-645 0,-645"/>
<text text-anchor="start" x="8" y="-663" font-family="Helvetica,sans-Serif" font-size="10.00">Map&lt; String, model.instructions.</text>
<text text-anchor="middle" x="87" y="-652" font-family="Helvetica,sans-Serif" font-size="10.00">Instruction &gt;</text>
</g>
<!-- Node16&#45;&gt;Node13 -->
<g id="edge16" class="edge"><title>Node16&#45;&gt;Node13</title>
<path fill="none" stroke="#9a32cd" stroke-dasharray="5,2" d="M184.305,-654.753C228.685,-652.334 280.655,-649.503 322.461,-647.225"/>
<polygon fill="#9a32cd" stroke="#9a32cd" points="183.876,-651.271 174.081,-655.31 184.257,-658.26 183.876,-651.271"/>
<text text-anchor="middle" x="248" y="-658" font-family="Helvetica,sans-Serif" font-size="10.00"> myUserInstructionMap</text>
</g>
<!-- Node17 -->
<g id="node17" class="node"><title>Node17</title>
<polygon fill="white" stroke="#bfbfbf" points="23,-606.5 23,-625.5 151,-625.5 151,-606.5 23,-606.5"/>
<text text-anchor="middle" x="87" y="-613.5" font-family="Helvetica,sans-Serif" font-size="10.00">Map&lt; String, Double &gt;</text>
</g>
<!-- Node17&#45;&gt;Node13 -->
<g id="edge17" class="edge"><title>Node17&#45;&gt;Node13</title>
<path fill="none" stroke="#9a32cd" stroke-dasharray="5,2" d="M161.434,-621.93C203.232,-625.353 256.559,-629.8 304,-634 310.003,-634.531 316.216,-635.091 322.461,-635.661"/>
<polygon fill="#9a32cd" stroke="#9a32cd" points="161.592,-618.431 151.34,-621.105 161.021,-625.408 161.592,-618.431"/>
<text text-anchor="middle" x="248" y="-637" font-family="Helvetica,sans-Serif" font-size="10.00"> myVariableMap</text>
</g>
<!-- Node18 -->
<g id="node18" class="node"><title>Node18</title>
<polygon fill="white" stroke="#bfbfbf" points="857,-227.5 857,-246.5 1005,-246.5 1005,-227.5 857,-227.5"/>
<text text-anchor="middle" x="931" y="-234.5" font-family="Helvetica,sans-Serif" font-size="10.00">TableView&lt; view.Property &gt;</text>
</g>
<!-- Node18&#45;&gt;Node10 -->
<g id="edge18" class="edge"><title>Node18&#45;&gt;Node10</title>
<path fill="none" stroke="#9a32cd" stroke-dasharray="5,2" d="M1015.27,-231.828C1057.32,-227.971 1108.86,-221.332 1154,-210 1162.33,-207.91 1163.96,-206.003 1172,-203 1185.08,-198.115 1199.67,-192.867 1211.88,-188.527"/>
<polygon fill="#9a32cd" stroke="#9a32cd" points="1014.73,-228.362 1005.07,-232.726 1015.34,-235.335 1014.73,-228.362"/>
<text text-anchor="middle" x="1095" y="-244" font-family="Helvetica,sans-Serif" font-size="10.00"> myTurtlePropertiesTable</text>
<text text-anchor="middle" x="1095" y="-233" font-family="Helvetica,sans-Serif" font-size="10.00">myVariablesTable</text>
</g>
<!-- Node19&#45;&gt;Node1 -->
<g id="edge51" class="edge"><title>Node19&#45;&gt;Node1</title>
<path fill="none" stroke="#9a32cd" stroke-dasharray="5,2" d="M981.123,-513.416C1116.3,-539.328 1492.74,-611.487 1628.44,-637.499"/>
<polygon fill="#9a32cd" stroke="#9a32cd" points="981.538,-509.932 971.058,-511.487 980.22,-516.807 981.538,-509.932"/>
<text text-anchor="middle" x="1364" y="-597" font-family="Helvetica,sans-Serif" font-size="10.00"> myParser</text>
</g>
<!-- Node19&#45;&gt;Node10 -->
<g id="edge19" class="edge"><title>Node19&#45;&gt;Node10</title>
<path fill="none" stroke="#9a32cd" stroke-dasharray="5,2" d="M953.334,-488.096C1008.33,-447.056 1150.85,-340.401 1154,-335 1183.82,-283.849 1134.72,-248.996 1172,-203 1179.31,-193.978 1190.29,-188.345 1201.25,-184.83"/>
<polygon fill="#9a32cd" stroke="#9a32cd" points="950.925,-485.526 945.003,-494.311 955.111,-491.137 950.925,-485.526"/>
<text text-anchor="middle" x="1095" y="-426" font-family="Helvetica,sans-Serif" font-size="10.00"> myParser</text>
</g>
<!-- Node19&#45;&gt;Node26 -->
<g id="edge43" class="edge"><title>Node19&#45;&gt;Node26</title>
<path fill="none" stroke="#9a32cd" stroke-dasharray="5,2" d="M884.202,-491.956C866.089,-487.233 845.079,-481.804 826,-477 782.184,-465.966 731.822,-453.736 697.755,-445.529"/>
<polygon fill="#9a32cd" stroke="#9a32cd" points="883.375,-495.357 893.935,-494.499 885.145,-488.585 883.375,-495.357"/>
<text text-anchor="middle" x="781" y="-480" font-family="Helvetica,sans-Serif" font-size="10.00"> myParser</text>
</g>
<!-- Node19&#45;&gt;Node28 -->
<g id="edge38" class="edge"><title>Node19&#45;&gt;Node28</title>
<path fill="none" stroke="#9a32cd" stroke-dasharray="5,2" d="M915.257,-486.847C896.704,-466.561 862.783,-433.586 826,-418 690.276,-360.489 508.213,-374.462 434.758,-383.379"/>
<polygon fill="#9a32cd" stroke="#9a32cd" points="912.751,-489.296 922.019,-494.431 917.976,-484.637 912.751,-489.296"/>
<text text-anchor="middle" x="657" y="-390" font-family="Helvetica,sans-Serif" font-size="10.00"> myParser</text>
</g>
<!-- Node20 -->
<g id="node20" class="node"><title>Node20</title>
<polygon fill="white" stroke="#bfbfbf" points="627,-649.5 627,-668.5 687,-668.5 687,-649.5 627,-649.5"/>
<text text-anchor="middle" x="657" y="-656.5" font-family="Helvetica,sans-Serif" font-size="10.00">Observer</text>
</g>
<!-- Node20&#45;&gt;Node19 -->
<g id="edge20" class="edge"><title>Node20&#45;&gt;Node19</title>
<path fill="none" stroke="midnightblue" d="M676.931,-642.739C692.075,-630.415 714.296,-613.811 736,-603 773.497,-584.322 788.285,-593.233 826,-575 862.216,-557.492 900.098,-528.473 918.542,-513.535"/>
<polygon fill="midnightblue" stroke="midnightblue" points="674.342,-640.34 668.89,-649.425 678.817,-645.723 674.342,-640.34"/>
</g>
<!-- Node20&#45;&gt;Node22 -->
<g id="edge24" class="edge"><title>Node20&#45;&gt;Node22</title>
<path fill="none" stroke="midnightblue" d="M691.102,-672.26C763.118,-699.873 939.939,-761 1094,-761 1094,-761 1094,-761 1680,-761 1875.02,-761 1879.84,-396.609 1879.18,-332.556"/>
<polygon fill="midnightblue" stroke="midnightblue" points="692.238,-668.947 681.649,-668.596 689.708,-675.473 692.238,-668.947"/>
</g>
<!-- Node21 -->
<g id="node21" class="node"><title>Node21</title>
<polygon fill="white" stroke="#bfbfbf" points="601,-515 601,-545 713,-545 713,-515 601,-515"/>
<text text-anchor="start" x="609" y="-533" font-family="Helvetica,sans-Serif" font-size="10.00">List&lt; Entry&lt; String,</text>
<text text-anchor="middle" x="657" y="-522" font-family="Helvetica,sans-Serif" font-size="10.00"> Pattern &gt; &gt;</text>
</g>
<!-- Node21&#45;&gt;Node19 -->
<g id="edge21" class="edge"><title>Node21&#45;&gt;Node19</title>
<path fill="none" stroke="#9a32cd" stroke-dasharray="5,2" d="M723.225,-523.765C775.493,-518.769 847.096,-511.925 890.866,-507.741"/>
<polygon fill="#9a32cd" stroke="#9a32cd" points="722.665,-520.303 713.043,-524.739 723.331,-527.271 722.665,-520.303"/>
<text text-anchor="middle" x="781" y="-526" font-family="Helvetica,sans-Serif" font-size="10.00"> myPatterns</text>
</g>
<!-- Node22&#45;&gt;Node19 -->
<g id="edge23" class="edge"><title>Node22&#45;&gt;Node19</title>
<path fill="none" stroke="#9a32cd" stroke-dasharray="5,2" d="M1869.84,-341.715C1845.73,-387.978 1775.72,-504 1680,-504 1239,-504 1239,-504 1239,-504 1142.8,-504 1029.63,-504 971.254,-504"/>
<polygon fill="#9a32cd" stroke="#9a32cd" points="1872.99,-343.233 1874.4,-332.731 1866.75,-340.066 1872.99,-343.233"/>
<text text-anchor="middle" x="1465" y="-507" font-family="Helvetica,sans-Serif" font-size="10.00"> myViewUpdater</text>
</g>
<!-- Node23&#45;&gt;Node22 -->
<g id="edge26" class="edge"><title>Node23&#45;&gt;Node22</title>
<path fill="none" stroke="#9a32cd" stroke-dasharray="5,2" d="M1725.81,-277.987C1751.4,-282.878 1783.73,-289.776 1812,-298 1826.9,-302.335 1843.22,-308.397 1856.03,-313.466"/>
<polygon fill="#9a32cd" stroke="#9a32cd" points="1726.12,-274.484 1715.65,-276.081 1724.83,-281.364 1726.12,-274.484"/>
<text text-anchor="middle" x="1786" y="-301" font-family="Helvetica,sans-Serif" font-size="10.00"> myDrawer</text>
</g>
<!-- Node23&#45;&gt;Node26 -->
<g id="edge45" class="edge"><title>Node23&#45;&gt;Node26</title>
<path fill="none" stroke="#9a32cd" stroke-dasharray="5,2" d="M1632.41,-261.629C1598.71,-255.764 1551.64,-248.242 1510,-244 1420.57,-234.892 1397.86,-236.223 1308,-234 1247.57,-232.505 1218.48,-195.355 1172,-234 1138.29,-262.034 1185.13,-300.118 1154,-331 1141.58,-343.319 861.152,-382.574 844,-386 795.781,-395.63 783.387,-396.875 736,-410 718.667,-414.801 699.501,-421.174 684.505,-426.409"/>
<polygon fill="#9a32cd" stroke="#9a32cd" points="1631.96,-265.104 1642.42,-263.391 1633.17,-258.21 1631.96,-265.104"/>
<text text-anchor="middle" x="1240" y="-237" font-family="Helvetica,sans-Serif" font-size="10.00"> drawer</text>
</g>
<!-- Node24 -->
<g id="node24" class="node"><title>Node24</title>
<polygon fill="white" stroke="#bfbfbf" points="1444.5,-253.5 1444.5,-272.5 1485.5,-272.5 1485.5,-253.5 1444.5,-253.5"/>
<text text-anchor="middle" x="1465" y="-260.5" font-family="Helvetica,sans-Serif" font-size="10.00">Color</text>
</g>
<!-- Node24&#45;&gt;Node23 -->
<g id="edge28" class="edge"><title>Node24&#45;&gt;Node23</title>
<path fill="none" stroke="#9a32cd" stroke-dasharray="5,2" d="M1495.93,-262.653C1522.7,-262.48 1562.98,-262.556 1598,-264 1612.47,-264.597 1628.39,-265.699 1642.19,-266.797"/>
<polygon fill="#9a32cd" stroke="#9a32cd" points="1495.66,-259.155 1485.69,-262.736 1495.72,-266.155 1495.66,-259.155"/>
<text text-anchor="middle" x="1563" y="-267" font-family="Helvetica,sans-Serif" font-size="10.00"> myColor</text>
</g>
<!-- Node25 -->
<g id="node25" class="node"><title>Node25</title>
<polygon fill="white" stroke="#bfbfbf" points="596,-476.5 596,-495.5 718,-495.5 718,-476.5 596,-476.5"/>
<text text-anchor="middle" x="657" y="-483.5" font-family="Helvetica,sans-Serif" font-size="10.00">Map&lt; String, String &gt;</text>
</g>
<!-- Node25&#45;&gt;Node19 -->
<g id="edge30" class="edge"><title>Node25&#45;&gt;Node19</title>
<path fill="none" stroke="#9a32cd" stroke-dasharray="5,2" d="M728.133,-490.641C779.837,-494.063 848.285,-498.592 890.712,-501.4"/>
<polygon fill="#9a32cd" stroke="#9a32cd" points="728.238,-487.141 718.028,-489.972 727.775,-494.125 728.238,-487.141"/>
<text text-anchor="middle" x="781" y="-500" font-family="Helvetica,sans-Serif" font-size="10.00"> myCommandMap</text>
</g>
<!-- Node26&#45;&gt;Node19 -->
<g id="edge31" class="edge"><title>Node26&#45;&gt;Node19</title>
<path fill="none" stroke="#9a32cd" stroke-dasharray="5,2" d="M707.173,-424.812C742.308,-419.453 789.61,-417.795 826,-437 838.43,-443.56 833.296,-453.892 844,-463 860.628,-477.15 882.973,-487.608 900.719,-494.42"/>
<polygon fill="#9a32cd" stroke="#9a32cd" points="706.43,-421.387 697.146,-426.491 707.586,-428.291 706.43,-421.387"/>
<text text-anchor="middle" x="781" y="-440" font-family="Helvetica,sans-Serif" font-size="10.00"> mySLogoView</text>
</g>
<!-- Node27 -->
<g id="node27" class="node"><title>Node27</title>
<polygon fill="white" stroke="#bfbfbf" points="378.5,-514.5 378.5,-533.5 423.5,-533.5 423.5,-514.5 378.5,-514.5"/>
<text text-anchor="middle" x="401" y="-521.5" font-family="Helvetica,sans-Serif" font-size="10.00">Stage</text>
</g>
<!-- Node27&#45;&gt;Node1 -->
<g id="edge49" class="edge"><title>Node27&#45;&gt;Node1</title>
<path fill="none" stroke="#9a32cd" stroke-dasharray="5,2" d="M433.734,-523.901C478.86,-524.471 558.297,-528.337 578,-548 619.287,-589.202 552.421,-639.229 596,-678 651.465,-727.346 855.761,-685 930,-685 930,-685 930,-685 1466,-685 1530.31,-685 1603.91,-667.846 1645.28,-656.589"/>
<polygon fill="#9a32cd" stroke="#9a32cd" points="433.619,-520.4 423.591,-523.821 433.563,-527.4 433.619,-520.4"/>
<text text-anchor="middle" x="1095" y="-688" font-family="Helvetica,sans-Serif" font-size="10.00"> myStage</text>
</g>
<!-- Node27&#45;&gt;Node26 -->
<g id="edge33" class="edge"><title>Node27&#45;&gt;Node26</title>
<path fill="none" stroke="#9a32cd" stroke-dasharray="5,2" d="M433.573,-519.239C469.642,-513.057 529.886,-500.438 578,-479 586.782,-475.087 587.716,-471.881 596,-467 609.132,-459.262 624.4,-451.389 636.247,-445.513"/>
<polygon fill="#9a32cd" stroke="#9a32cd" points="432.927,-515.798 423.633,-520.884 434.07,-522.704 432.927,-515.798"/>
<text text-anchor="middle" x="538" y="-509" font-family="Helvetica,sans-Serif" font-size="10.00"> myStage</text>
</g>
<!-- Node28&#45;&gt;Node26 -->
<g id="edge35" class="edge"><title>Node28&#45;&gt;Node26</title>
<path fill="none" stroke="#9a32cd" stroke-dasharray="5,2" d="M444.696,-396.069C490.979,-404.815 564.502,-418.709 611.484,-427.588"/>
<polygon fill="#9a32cd" stroke="#9a32cd" points="445.162,-392.595 434.686,-394.177 443.862,-399.473 445.162,-392.595"/>
<text text-anchor="middle" x="538" y="-424" font-family="Helvetica,sans-Serif" font-size="10.00"> myEditor</text>
</g>
<!-- Node29 -->
<g id="node29" class="node"><title>Node29</title>
<polygon fill="white" stroke="#bfbfbf" points="62.5,-359.5 62.5,-378.5 111.5,-378.5 111.5,-359.5 62.5,-359.5"/>
<text text-anchor="middle" x="87" y="-366.5" font-family="Helvetica,sans-Serif" font-size="10.00">Button</text>
</g>
<!-- Node29&#45;&gt;Node28 -->
<g id="edge37" class="edge"><title>Node29&#45;&gt;Node28</title>
<path fill="none" stroke="#9a32cd" stroke-dasharray="5,2" d="M121.793,-368.513C164.366,-368.192 239.736,-368.591 304,-374 325.147,-375.78 348.734,-379.199 367.235,-382.213"/>
<polygon fill="#9a32cd" stroke="#9a32cd" points="121.669,-365.014 111.702,-368.608 121.735,-372.014 121.669,-365.014"/>
<text text-anchor="middle" x="248" y="-377" font-family="Helvetica,sans-Serif" font-size="10.00"> runButton</text>
</g>
<!-- Node30 -->
<g id="node30" class="node"><title>Node30</title>
<polygon fill="white" stroke="#bfbfbf" points="58,-397.5 58,-416.5 116,-416.5 116,-397.5 58,-397.5"/>
<text text-anchor="middle" x="87" y="-404.5" font-family="Helvetica,sans-Serif" font-size="10.00">TextArea</text>
</g>
<!-- Node30&#45;&gt;Node28 -->
<g id="edge39" class="edge"><title>Node30&#45;&gt;Node28</title>
<path fill="none" stroke="#9a32cd" stroke-dasharray="5,2" d="M126.378,-404.663C188.353,-400.889 309.377,-393.519 367.423,-389.984"/>
<polygon fill="#9a32cd" stroke="#9a32cd" points="126.007,-401.179 116.238,-405.28 126.432,-408.166 126.007,-401.179"/>
<text text-anchor="middle" x="248" y="-404" font-family="Helvetica,sans-Serif" font-size="10.00"> textEditor</text>
</g>
<!-- Node31 -->
<g id="node31" class="node"><title>Node31</title>
<polygon fill="white" stroke="#bfbfbf" points="341.5,-428.5 341.5,-447.5 460.5,-447.5 460.5,-428.5 341.5,-428.5"/>
<text text-anchor="middle" x="401" y="-435.5" font-family="Helvetica,sans-Serif" font-size="10.00">Map&lt; String, Node &gt;</text>
</g>
<!-- Node31&#45;&gt;Node26 -->
<g id="edge41" class="edge"><title>Node31&#45;&gt;Node26</title>
<path fill="none" stroke="#9a32cd" stroke-dasharray="5,2" d="M470.785,-437.458C515.419,-437.107 572.295,-436.659 611.171,-436.353"/>
<polygon fill="#9a32cd" stroke="#9a32cd" points="470.564,-433.96 460.592,-437.539 470.619,-440.96 470.564,-433.96"/>
<text text-anchor="middle" x="538" y="-441" font-family="Helvetica,sans-Serif" font-size="10.00"> variables</text>
</g>
<!-- Node32 -->
<g id="node32" class="node"><title>Node32</title>
<polygon fill="white" stroke="#bfbfbf" points="360.5,-466.5 360.5,-485.5 441.5,-485.5 441.5,-466.5 360.5,-466.5"/>
<text text-anchor="middle" x="401" y="-473.5" font-family="Helvetica,sans-Serif" font-size="10.00">Dimension2D</text>
</g>
<!-- Node32&#45;&gt;Node26 -->
<g id="edge44" class="edge"><title>Node32&#45;&gt;Node26</title>
<path fill="none" stroke="#9a32cd" stroke-dasharray="5,2" d="M451.667,-470.126C486.996,-465.729 535.529,-459.243 578,-452 589.038,-450.118 600.899,-447.824 611.959,-445.569"/>
<polygon fill="#9a32cd" stroke="#9a32cd" points="451.106,-466.669 441.609,-471.366 451.962,-473.616 451.106,-466.669"/>
<text text-anchor="middle" x="538" y="-467" font-family="Helvetica,sans-Serif" font-size="10.00"> myDimensions</text>
</g>
<!-- Node33 -->
<g id="node33" class="node"><title>Node33</title>
<polygon fill="white" stroke="#bfbfbf" points="862,-151.5 862,-170.5 1000,-170.5 1000,-151.5 862,-151.5"/>
<text text-anchor="middle" x="931" y="-158.5" font-family="Helvetica,sans-Serif" font-size="10.00">ObservableList&lt; String &gt;</text>
</g>
<!-- Node33&#45;&gt;Node10 -->
<g id="edge47" class="edge"><title>Node33&#45;&gt;Node10</title>
<path fill="none" stroke="#9a32cd" stroke-dasharray="5,2" d="M1010.21,-158.336C1052.81,-157.731 1106.41,-158.344 1154,-163 1169.54,-164.521 1186.49,-167.447 1201.12,-170.385"/>
<polygon fill="#9a32cd" stroke="#9a32cd" points="1010.12,-154.836 1000.18,-158.503 1010.24,-161.835 1010.12,-154.836"/>
<text text-anchor="middle" x="1095" y="-177" font-family="Helvetica,sans-Serif" font-size="10.00"> myCommandItems</text>
<text text-anchor="middle" x="1095" y="-166" font-family="Helvetica,sans-Serif" font-size="10.00">myHistoryItems</text>
</g>
<!-- Node34 -->
<g id="node34" class="node"><title>Node34</title>
<polygon fill="white" stroke="#bfbfbf" points="1208.5,-418.5 1208.5,-437.5 1271.5,-437.5 1271.5,-418.5 1208.5,-418.5"/>
<text text-anchor="middle" x="1240" y="-425.5" font-family="Helvetica,sans-Serif" font-size="10.00">Rectangle</text>
</g>
<!-- Node34&#45;&gt;Node3 -->
<g id="edge48" class="edge"><title>Node34&#45;&gt;Node3</title>
<path fill="none" stroke="#9a32cd" stroke-dasharray="5,2" d="M1281.46,-424.041C1315.14,-419.521 1363.61,-410.112 1402,-391 1423.63,-380.232 1444.18,-360.46 1455.34,-348.644"/>
<polygon fill="#9a32cd" stroke="#9a32cd" points="1280.99,-420.572 1271.51,-425.292 1281.87,-427.517 1280.99,-420.572"/>
<text text-anchor="middle" x="1364" y="-419" font-family="Helvetica,sans-Serif" font-size="10.00"> myBackground</text>
</g>
</g>
</svg>
