<?xml version="1.0" encoding="UTF-8" standalone="no"?>
<!DOCTYPE svg PUBLIC "-//W3C//DTD SVG 1.1//EN"
 "http://www.w3.org/Graphics/SVG/1.1/DTD/svg11.dtd">
<!-- Generated by graphviz version 2.36.0 (20140111.2315)
 -->
<!-- Title: view.CustomizationBar Pages: 1 -->
<!--zoomable 750 -->
<svg id="main" version="1.1" xmlns="http://www.w3.org/2000/svg" xmlns:xlink="http://www.w3.org/1999/xlink" xml:space="preserve" onload="init(evt)">
<style type="text/css"><![CDATA[
.edge:hover path { stroke: red; }
.edge:hover polygon { stroke: red; fill: red; }
]]></style>
<script type="text/javascript"><![CDATA[
var edges = document.getElementsByTagName('g');
if (edges && edges.length) {
  for (var i=0;i<edges.length;i++) {
    if (edges[i].id.substr(0,4)=='edge') {
      edges[i].setAttribute('class','edge');
    }
  }
}
]]></script>
        <defs>
                <circle id="rim" cx="0" cy="0" r="7"/>
                <circle id="rim2" cx="0" cy="0" r="3.5"/>
                <g id="zoomPlus">
                        <use xlink:href="#rim" fill="#404040">
                                <set attributeName="fill" to="#808080" begin="zoomplus.mouseover" end="zoomplus.mouseout"/>
                        </use>
                        <path d="M-4,0h8M0,-4v8" fill="none" stroke="white" stroke-width="1.5" pointer-events="none"/>
                </g>
                <g id="zoomMin">
                        <use xlink:href="#rim" fill="#404040">
                                <set attributeName="fill" to="#808080" begin="zoomminus.mouseover" end="zoomminus.mouseout"/>
                        </use>
                        <path d="M-4,0h8" fill="none" stroke="white" stroke-width="1.5" pointer-events="none"/>
                </g>
                <g id="dirArrow">
                        <path fill="none" stroke="white" stroke-width="1.5" d="M0,-3.0v7 M-2.5,-0.5L0,-3.0L2.5,-0.5"/>
                </g>
               <g id="resetDef">
                       <use xlink:href="#rim2" fill="#404040">
                               <set attributeName="fill" to="#808080" begin="reset.mouseover" end="reset.mouseout"/>
                       </use>
               </g>
        </defs>

<script type="text/javascript">
var viewWidth = 1674;
var viewHeight = 750;
var sectionId = 'dynsection-1';
</script>
<script xlink:href="../../svgpan.js"/>
<svg id="graph" class="graph">
<g id="viewport">
<title>view.CustomizationBar</title>
<polygon fill="white" stroke="none" points="-4,4 -4,-746 1670,-746 1670,4 -4,4"/>
<!-- Node1 -->
<g id="node1" class="node"><title>Node1</title>
<polygon fill="#bfbfbf" stroke="black" points="1540.5,-531.5 1540.5,-550.5 1665.5,-550.5 1665.5,-531.5 1540.5,-531.5"/>
<text text-anchor="middle" x="1603" y="-538.5" font-family="Helvetica,sans-Serif" font-size="10.00">view.CustomizationBar</text>
</g>
<!-- Node2 -->
<g id="node2" class="node"><title>Node2</title>
<polygon fill="white" stroke="#bfbfbf" points="8,-641.5 8,-660.5 50,-660.5 50,-641.5 8,-641.5"/>
<text text-anchor="middle" x="29" y="-648.5" font-family="Helvetica,sans-Serif" font-size="10.00">HBox</text>
</g>
<!-- Node2&#45;&gt;Node1 -->
<g id="edge1" class="edge"><title>Node2&#45;&gt;Node1</title>
<path fill="none" stroke="midnightblue" d="M49.8448,-666.825C84.5945,-692.89 159.664,-742 232,-742 232,-742 232,-742 1390,-742 1455.2,-742 1474.16,-722.292 1522,-678 1563.43,-639.642 1589.81,-574.866 1598.67,-550.578"/>
<polygon fill="midnightblue" stroke="midnightblue" points="51.9709,-664.045 41.9051,-660.739 47.7121,-669.6 51.9709,-664.045"/>
</g>
<!-- Node23 -->
<g id="node23" class="node"><title>Node23</title>
<g id="a_node23"><a xlink:href="../../da/dc8/classview_1_1_editor.html" target="_top" xlink:title="view.Editor">
<polygon fill="white" stroke="black" points="199.5,-439.5 199.5,-458.5 266.5,-458.5 266.5,-439.5 199.5,-439.5"/>
<text text-anchor="middle" x="233" y="-446.5" font-family="Helvetica,sans-Serif" font-size="10.00">view.Editor</text>
</a>
</g>
</g>
<!-- Node2&#45;&gt;Node23 -->
<g id="edge26" class="edge"><title>Node2&#45;&gt;Node23</title>
<path fill="none" stroke="midnightblue" d="M40.6558,-632.669C59.101,-602.097 99.4984,-540.014 146,-499 165.558,-481.75 191.965,-467.454 210.336,-458.628"/>
<polygon fill="midnightblue" stroke="midnightblue" points="37.555,-631.036 35.4585,-641.421 43.5738,-634.61 37.555,-631.036"/>
</g>
<!-- Node3 -->
<g id="node3" class="node"><title>Node3</title>
<g id="a_node3"><a xlink:href="../../da/d64/classview_1_1_workspace.html" target="_top" xlink:title="view.Workspace">
<polygon fill="white" stroke="black" points="1344,-222.5 1344,-241.5 1434,-241.5 1434,-222.5 1344,-222.5"/>
<text text-anchor="middle" x="1389" y="-229.5" font-family="Helvetica,sans-Serif" font-size="10.00">view.Workspace</text>
</a>
</g>
</g>
<!-- Node3&#45;&gt;Node1 -->
<g id="edge2" class="edge"><title>Node3&#45;&gt;Node1</title>
<path fill="none" stroke="#9a32cd" stroke-dasharray="5,2" d="M1402.4,-250.073C1442.09,-307.92 1565.16,-487.298 1595.29,-531.219"/>
<polygon fill="#9a32cd" stroke="#9a32cd" points="1405.12,-247.852 1396.58,-241.587 1399.35,-251.813 1405.12,-247.852"/>
<text text-anchor="middle" x="1487" y="-427" font-family="Helvetica,sans-Serif" font-size="10.00"> myWorkspace</text>
</g>
<!-- Node21 -->
<g id="node21" class="node"><title>Node21</title>
<g id="a_node21"><a xlink:href="../../d6/de7/classview_1_1_s_logo_view.html" target="_top" xlink:title="view.SLogoView">
<polygon fill="white" stroke="black" points="501.5,-318.5 501.5,-337.5 592.5,-337.5 592.5,-318.5 501.5,-318.5"/>
<text text-anchor="middle" x="547" y="-325.5" font-family="Helvetica,sans-Serif" font-size="10.00">view.SLogoView</text>
</a>
</g>
</g>
<!-- Node3&#45;&gt;Node21 -->
<g id="edge22" class="edge"><title>Node3&#45;&gt;Node21</title>
<path fill="none" stroke="#9a32cd" stroke-dasharray="5,2" d="M1333.79,-236.626C1331.16,-236.771 1328.55,-236.897 1326,-237 1292.25,-238.359 1283.77,-237.548 1250,-237 1181.53,-235.889 1162.38,-248.813 1096,-232 1087.33,-229.804 1086.67,-225.2 1078,-223 951.335,-190.862 911.633,-190.949 784,-219 694.519,-238.666 598.553,-295.682 562.652,-318.447"/>
<polygon fill="#9a32cd" stroke="#9a32cd" points="1334.23,-240.106 1344,-235.988 1333.8,-233.119 1334.23,-240.106"/>
<text text-anchor="middle" x="1027" y="-226" font-family="Helvetica,sans-Serif" font-size="10.00"> myWorkspace</text>
</g>
<!-- Node28 -->
<g id="node28" class="node"><title>Node28</title>
<g id="a_node28"><a xlink:href="../../de/d0a/classview_1_1_drawer.html" target="_top" xlink:title="view.Drawer">
<polygon fill="white" stroke="black" points="1566.5,-76.5 1566.5,-95.5 1639.5,-95.5 1639.5,-76.5 1566.5,-76.5"/>
<text text-anchor="middle" x="1603" y="-83.5" font-family="Helvetica,sans-Serif" font-size="10.00">view.Drawer</text>
</a>
</g>
</g>
<!-- Node3&#45;&gt;Node28 -->
<g id="edge35" class="edge"><title>Node3&#45;&gt;Node28</title>
<path fill="none" stroke="#9a32cd" stroke-dasharray="5,2" d="M1412.16,-216.74C1455.86,-186.643 1552.04,-120.403 1588.04,-95.6147"/>
<polygon fill="#9a32cd" stroke="#9a32cd" points="1410.16,-213.866 1403.91,-222.421 1414.13,-219.631 1410.16,-213.866"/>
<text text-anchor="middle" x="1487" y="-192" font-family="Helvetica,sans-Serif" font-size="10.00"> myWorkspace</text>
</g>
<!-- Node4 -->
<g id="node4" class="node"><title>Node4</title>
<polygon fill="white" stroke="#bfbfbf" points="1130.5,-203.5 1130.5,-222.5 1197.5,-222.5 1197.5,-203.5 1130.5,-203.5"/>
<text text-anchor="middle" x="1164" y="-210.5" font-family="Helvetica,sans-Serif" font-size="10.00">StackPane</text>
</g>
<!-- Node4&#45;&gt;Node3 -->
<g id="edge3" class="edge"><title>Node4&#45;&gt;Node3</title>
<path fill="none" stroke="midnightblue" d="M1207.91,-216.656C1246.96,-219.983 1304.36,-224.874 1343.8,-228.235"/>
<polygon fill="midnightblue" stroke="midnightblue" points="1208.17,-213.165 1197.9,-215.804 1207.57,-220.14 1208.17,-213.165"/>
</g>
<!-- Node5 -->
<g id="node5" class="node"><title>Node5</title>
<g id="a_node5"><a xlink:href="../../d8/df7/classview_1_1_turtle_view.html" target="_top" xlink:title="view.TurtleView">
<polygon fill="white" stroke="black" points="1121,-115.5 1121,-134.5 1207,-134.5 1207,-115.5 1121,-115.5"/>
<text text-anchor="middle" x="1164" y="-122.5" font-family="Helvetica,sans-Serif" font-size="10.00">view.TurtleView</text>
</a>
</g>
</g>
<!-- Node5&#45;&gt;Node3 -->
<g id="edge4" class="edge"><title>Node5&#45;&gt;Node3</title>
<path fill="none" stroke="#9a32cd" stroke-dasharray="5,2" d="M1217.14,-133.478C1250,-140.405 1292.4,-152.348 1326,-172 1349.01,-185.462 1370,-209.211 1380.65,-222.433"/>
<polygon fill="#9a32cd" stroke="#9a32cd" points="1217.76,-130.033 1207.27,-131.486 1216.38,-136.895 1217.76,-130.033"/>
<text text-anchor="middle" x="1288" y="-175" font-family="Helvetica,sans-Serif" font-size="10.00"> myActiveTurtle</text>
</g>
<!-- Node6 -->
<g id="node6" class="node"><title>Node6</title>
<polygon fill="white" stroke="#bfbfbf" points="837,-114.5 837,-133.5 905,-133.5 905,-114.5 837,-114.5"/>
<text text-anchor="middle" x="871" y="-121.5" font-family="Helvetica,sans-Serif" font-size="10.00">ImageView</text>
</g>
<!-- Node6&#45;&gt;Node5 -->
<g id="edge5" class="edge"><title>Node6&#45;&gt;Node5</title>
<path fill="none" stroke="midnightblue" d="M915.27,-124.149C970.553,-124.339 1065.64,-124.665 1120.53,-124.854"/>
<polygon fill="midnightblue" stroke="midnightblue" points="915.11,-120.648 905.098,-124.114 915.086,-127.648 915.11,-120.648"/>
</g>
<!-- Node7 -->
<g id="node7" class="node"><title>Node7</title>
<polygon fill="white" stroke="#bfbfbf" points="1096,-154 1096,-184 1232,-184 1232,-154 1096,-154"/>
<text text-anchor="start" x="1104" y="-172" font-family="Helvetica,sans-Serif" font-size="10.00">Map&lt; Integer, view.Turtle</text>
<text text-anchor="middle" x="1164" y="-161" font-family="Helvetica,sans-Serif" font-size="10.00">View &gt;</text>
</g>
<!-- Node7&#45;&gt;Node3 -->
<g id="edge6" class="edge"><title>Node7&#45;&gt;Node3</title>
<path fill="none" stroke="#9a32cd" stroke-dasharray="5,2" d="M1242.36,-183.964C1269.12,-189.88 1299.13,-197.349 1326,-206 1340.22,-210.579 1355.72,-217.079 1367.67,-222.434"/>
<polygon fill="#9a32cd" stroke="#9a32cd" points="1242.79,-180.476 1232.28,-181.774 1241.31,-187.317 1242.79,-180.476"/>
<text text-anchor="middle" x="1288" y="-209" font-family="Helvetica,sans-Serif" font-size="10.00"> myTurtles</text>
</g>
<!-- Node8 -->
<g id="node8" class="node"><title>Node8</title>
<g id="a_node8"><a xlink:href="../../d1/dc7/classview_1_1_side_bar.html" target="_top" xlink:title="view.SideBar">
<polygon fill="white" stroke="black" points="1125.5,-334.5 1125.5,-353.5 1202.5,-353.5 1202.5,-334.5 1125.5,-334.5"/>
<text text-anchor="middle" x="1164" y="-341.5" font-family="Helvetica,sans-Serif" font-size="10.00">view.SideBar</text>
</a>
</g>
</g>
<!-- Node8&#45;&gt;Node3 -->
<g id="edge7" class="edge"><title>Node8&#45;&gt;Node3</title>
<path fill="none" stroke="#9a32cd" stroke-dasharray="5,2" d="M1212.75,-336.847C1246.28,-330.259 1291.17,-318.189 1326,-297 1349.98,-282.411 1370.89,-256.203 1381.19,-241.927"/>
<polygon fill="#9a32cd" stroke="#9a32cd" points="1211.92,-333.442 1202.73,-338.72 1213.21,-340.323 1211.92,-333.442"/>
<text text-anchor="middle" x="1288" y="-332" font-family="Helvetica,sans-Serif" font-size="10.00"> mySidebar</text>
</g>
<!-- Node8&#45;&gt;Node21 -->
<g id="edge37" class="edge"><title>Node8&#45;&gt;Node21</title>
<path fill="none" stroke="#9a32cd" stroke-dasharray="5,2" d="M1115.14,-340.204C1073.62,-337.093 1011.88,-332.904 958,-331 825.15,-326.305 667.941,-326.864 592.61,-327.509"/>
<polygon fill="#9a32cd" stroke="#9a32cd" points="1115.01,-343.704 1125.25,-340.97 1115.54,-336.724 1115.01,-343.704"/>
<text text-anchor="middle" x="871" y="-334" font-family="Helvetica,sans-Serif" font-size="10.00"> mySidebar</text>
</g>
<!-- Node8&#45;&gt;Node23 -->
<g id="edge30" class="edge"><title>Node8&#45;&gt;Node23</title>
<path fill="none" stroke="#9a32cd" stroke-dasharray="5,2" d="M1148.63,-361.088C1133.17,-378.057 1106.89,-403.072 1078,-414 1014.57,-437.996 535.743,-431.808 468,-435 396.045,-438.391 311.728,-443.785 266.541,-446.792"/>
<polygon fill="#9a32cd" stroke="#9a32cd" points="1151.33,-363.319 1155.31,-353.501 1146.07,-358.692 1151.33,-363.319"/>
<text text-anchor="middle" x="705" y="-437" font-family="Helvetica,sans-Serif" font-size="10.00"> mySidebar</text>
</g>
<!-- Node9 -->
<g id="node9" class="node"><title>Node9</title>
<polygon fill="white" stroke="#bfbfbf" points="850.5,-266.5 850.5,-285.5 891.5,-285.5 891.5,-266.5 850.5,-266.5"/>
<text text-anchor="middle" x="871" y="-273.5" font-family="Helvetica,sans-Serif" font-size="10.00">VBox</text>
</g>
<!-- Node9&#45;&gt;Node8 -->
<g id="edge8" class="edge"><title>Node9&#45;&gt;Node8</title>
<path fill="none" stroke="midnightblue" d="M901.657,-278.296C942.131,-281.949 1016.65,-290.533 1078,-308 1101.58,-314.714 1127.34,-326.262 1144.25,-334.467"/>
<polygon fill="midnightblue" stroke="midnightblue" points="901.92,-274.806 891.656,-277.432 901.318,-281.78 901.92,-274.806"/>
</g>
<!-- Node10 -->
<g id="node10" class="node"><title>Node10</title>
<polygon fill="white" stroke="#bfbfbf" points="784.5,-228.5 784.5,-247.5 957.5,-247.5 957.5,-228.5 784.5,-228.5"/>
<text text-anchor="middle" x="871" y="-235.5" font-family="Helvetica,sans-Serif" font-size="10.00">ObservableList&lt; view.Property &gt;</text>
</g>
<!-- Node10&#45;&gt;Node8 -->
<g id="edge9" class="edge"><title>Node10&#45;&gt;Node8</title>
<path fill="none" stroke="#9a32cd" stroke-dasharray="5,2" d="M968.111,-236.444C1005.42,-240.159 1046.63,-250.031 1078,-273 1092.11,-283.334 1083.74,-295.52 1096,-308 1107.47,-319.682 1123.55,-328.493 1137.08,-334.474"/>
<polygon fill="#9a32cd" stroke="#9a32cd" points="967.964,-232.919 957.702,-235.554 967.368,-239.894 967.964,-232.919"/>
<text text-anchor="middle" x="1027" y="-276" font-family="Helvetica,sans-Serif" font-size="10.00"> variablesList</text>
</g>
<!-- Node11 -->
<g id="node11" class="node"><title>Node11</title>
<polygon fill="white" stroke="#bfbfbf" points="186.5,-152.5 186.5,-171.5 279.5,-171.5 279.5,-152.5 186.5,-152.5"/>
<text text-anchor="middle" x="233" y="-159.5" font-family="Helvetica,sans-Serif" font-size="10.00">ResourceBundle</text>
</g>
<!-- Node11&#45;&gt;Node1 -->
<g id="edge43" class="edge"><title>Node11&#45;&gt;Node1</title>
<path fill="none" stroke="#9a32cd" stroke-dasharray="5,2" d="M255.871,-146.834C305.207,-114.149 429.924,-40 546,-40 546,-40 546,-40 1028,-40 1251.83,-40 1368.05,24.4804 1522,-138 1578.42,-197.545 1598.04,-475.393 1601.44,-531.216"/>
<polygon fill="#9a32cd" stroke="#9a32cd" points="253.899,-143.942 247.555,-152.427 257.806,-149.75 253.899,-143.942"/>
<text text-anchor="middle" x="1027" y="-43" font-family="Helvetica,sans-Serif" font-size="10.00"> myResources</text>
</g>
<!-- Node11&#45;&gt;Node8 -->
<g id="edge10" class="edge"><title>Node11&#45;&gt;Node8</title>
<path fill="none" stroke="#9a32cd" stroke-dasharray="5,2" d="M289.99,-160.384C469.025,-155.758 1019.31,-145.935 1078,-198 1115.06,-230.874 1067.22,-267.68 1096,-308 1104.75,-320.252 1118.99,-328.731 1132.1,-334.368"/>
<polygon fill="#9a32cd" stroke="#9a32cd" points="289.644,-156.892 279.74,-160.653 289.829,-163.889 289.644,-156.892"/>
<text text-anchor="middle" x="705" y="-162" font-family="Helvetica,sans-Serif" font-size="10.00"> myResources</text>
</g>
<!-- Node11&#45;&gt;Node21 -->
<g id="edge24" class="edge"><title>Node11&#45;&gt;Node21</title>
<path fill="none" stroke="#9a32cd" stroke-dasharray="5,2" d="M273.017,-174.905C317.443,-190.39 391.443,-218.614 450,-253 483.74,-272.813 518.85,-303.157 535.729,-318.465"/>
<polygon fill="#9a32cd" stroke="#9a32cd" points="274.059,-171.562 263.464,-171.613 271.778,-178.18 274.059,-171.562"/>
<text text-anchor="middle" x="394" y="-256" font-family="Helvetica,sans-Serif" font-size="10.00"> myResources</text>
</g>
<!-- Node12 -->
<g id="node12" class="node"><title>Node12</title>
<polygon fill="white" stroke="#bfbfbf" points="797,-465.5 797,-484.5 945,-484.5 945,-465.5 797,-465.5"/>
<text text-anchor="middle" x="871" y="-472.5" font-family="Helvetica,sans-Serif" font-size="10.00">TableView&lt; view.Property &gt;</text>
</g>
<!-- Node12&#45;&gt;Node8 -->
<g id="edge11" class="edge"><title>Node12&#45;&gt;Node8</title>
<path fill="none" stroke="#9a32cd" stroke-dasharray="5,2" d="M955.169,-470.312C1002.8,-466.431 1057.15,-459.609 1078,-448 1118.55,-425.429 1147.42,-375.106 1158.26,-353.815"/>
<polygon fill="#9a32cd" stroke="#9a32cd" points="954.818,-466.829 945.121,-471.097 955.363,-473.808 954.818,-466.829"/>
<text text-anchor="middle" x="1027" y="-483" font-family="Helvetica,sans-Serif" font-size="10.00"> turtlePropertiesTable</text>
<text text-anchor="middle" x="1027" y="-472" font-family="Helvetica,sans-Serif" font-size="10.00">variablesTable</text>
</g>
<!-- Node13 -->
<g id="node13" class="node"><title>Node13</title>
<g id="a_node13"><a xlink:href="../../dc/df5/classmodel_1_1_parser.html" target="_top" xlink:title="model.Parser">
<polygon fill="white" stroke="black" points="831,-505.5 831,-524.5 911,-524.5 911,-505.5 831,-505.5"/>
<text text-anchor="middle" x="871" y="-512.5" font-family="Helvetica,sans-Serif" font-size="10.00">model.Parser</text>
</a>
</g>
</g>
<!-- Node13&#45;&gt;Node1 -->
<g id="edge44" class="edge"><title>Node13&#45;&gt;Node1</title>
<path fill="none" stroke="#9a32cd" stroke-dasharray="5,2" d="M921.788,-521.693C938.936,-523.746 958.281,-525.782 976,-527 1182.33,-541.18 1427.72,-542.016 1540.16,-541.51"/>
<polygon fill="#9a32cd" stroke="#9a32cd" points="921.781,-518.166 911.429,-520.42 920.927,-525.114 921.781,-518.166"/>
<text text-anchor="middle" x="1288" y="-544" font-family="Helvetica,sans-Serif" font-size="10.00"> myParser</text>
</g>
<!-- Node13&#45;&gt;Node8 -->
<g id="edge12" class="edge"><title>Node13&#45;&gt;Node8</title>
<path fill="none" stroke="#9a32cd" stroke-dasharray="5,2" d="M921.277,-514.814C973.878,-513.739 1053.03,-509.339 1078,-493 1130.08,-458.922 1153.78,-381.175 1160.72,-353.777"/>
<polygon fill="#9a32cd" stroke="#9a32cd" points="921.074,-511.317 911.135,-514.987 921.193,-518.316 921.074,-511.317"/>
<text text-anchor="middle" x="1027" y="-516" font-family="Helvetica,sans-Serif" font-size="10.00"> myParser</text>
</g>
<!-- Node13&#45;&gt;Node21 -->
<g id="edge32" class="edge"><title>Node13&#45;&gt;Node21</title>
<path fill="none" stroke="#9a32cd" stroke-dasharray="5,2" d="M820.346,-512.717C806.889,-509.711 793.447,-504.114 784,-494 751.979,-459.72 798.921,-423.417 766,-390 727.277,-350.693 696.934,-382.572 644,-367 617.077,-359.08 587.318,-346.33 568.177,-337.578"/>
<polygon fill="#9a32cd" stroke="#9a32cd" points="820.114,-516.231 830.573,-514.543 821.344,-509.34 820.114,-516.231"/>
<text text-anchor="middle" x="705" y="-393" font-family="Helvetica,sans-Serif" font-size="10.00"> myParser</text>
</g>
<!-- Node13&#45;&gt;Node23 -->
<g id="edge28" class="edge"><title>Node13&#45;&gt;Node23</title>
<path fill="none" stroke="#9a32cd" stroke-dasharray="5,2" d="M820.563,-509.87C695.904,-496.933 371.262,-463.244 266.855,-452.409"/>
<polygon fill="#9a32cd" stroke="#9a32cd" points="820.285,-513.36 830.592,-510.911 821.007,-506.397 820.285,-513.36"/>
<text text-anchor="middle" x="547" y="-493" font-family="Helvetica,sans-Serif" font-size="10.00"> myParser</text>
</g>
<!-- Node14 -->
<g id="node14" class="node"><title>Node14</title>
<polygon fill="white" stroke="#bfbfbf" points="203,-508.5 203,-527.5 263,-527.5 263,-508.5 203,-508.5"/>
<text text-anchor="middle" x="233" y="-515.5" font-family="Helvetica,sans-Serif" font-size="10.00">Observer</text>
</g>
<!-- Node14&#45;&gt;Node13 -->
<g id="edge13" class="edge"><title>Node14&#45;&gt;Node13</title>
<path fill="none" stroke="midnightblue" d="M273.097,-529.223C319.22,-541.829 398.436,-561.507 468,-569 599.923,-583.209 636.825,-581.321 766,-551 794.46,-544.32 826.049,-532.765 846.862,-524.549"/>
<polygon fill="midnightblue" stroke="midnightblue" points="273.789,-525.783 263.218,-526.492 271.924,-532.53 273.789,-525.783"/>
</g>
<!-- Node14&#45;&gt;Node21 -->
<g id="edge21" class="edge"><title>Node14&#45;&gt;Node21</title>
<path fill="none" stroke="midnightblue" d="M259.758,-503.275C276.902,-493.414 299.885,-480.075 320,-468 399.936,-420.017 494.435,-360.59 530.745,-337.655"/>
<polygon fill="midnightblue" stroke="midnightblue" points="257.82,-500.352 250.89,-508.366 261.305,-506.423 257.82,-500.352"/>
</g>
<!-- Node15 -->
<g id="node15" class="node"><title>Node15</title>
<polygon fill="white" stroke="#bfbfbf" points="491,-530 491,-560 603,-560 603,-530 491,-530"/>
<text text-anchor="start" x="499" y="-548" font-family="Helvetica,sans-Serif" font-size="10.00">List&lt; Entry&lt; String,</text>
<text text-anchor="middle" x="547" y="-537" font-family="Helvetica,sans-Serif" font-size="10.00"> Pattern &gt; &gt;</text>
</g>
<!-- Node15&#45;&gt;Node13 -->
<g id="edge14" class="edge"><title>Node15&#45;&gt;Node13</title>
<path fill="none" stroke="#9a32cd" stroke-dasharray="5,2" d="M613.519,-538.896C678.679,-532.825 776.507,-523.711 830.567,-518.674"/>
<polygon fill="#9a32cd" stroke="#9a32cd" points="612.986,-535.43 603.354,-539.843 613.635,-542.4 612.986,-535.43"/>
<text text-anchor="middle" x="705" y="-539" font-family="Helvetica,sans-Serif" font-size="10.00"> myPatterns</text>
</g>
<!-- Node16 -->
<g id="node16" class="node"><title>Node16</title>
<g id="a_node16"><a xlink:href="../../d1/dca/classmodel_1_1_execution_environment.html" target="_top" xlink:title="model.ExecutionEnvironment">
<polygon fill="white" stroke="black" points="468.5,-617.5 468.5,-636.5 625.5,-636.5 625.5,-617.5 468.5,-617.5"/>
<text text-anchor="middle" x="547" y="-624.5" font-family="Helvetica,sans-Serif" font-size="10.00">model.ExecutionEnvironment</text>
</a>
</g>
</g>
<!-- Node16&#45;&gt;Node13 -->
<g id="edge15" class="edge"><title>Node16&#45;&gt;Node13</title>
<path fill="none" stroke="#9a32cd" stroke-dasharray="5,2" d="M635.927,-628.38C676.886,-626.187 725.417,-619.417 766,-602 807.966,-583.989 846.052,-543.314 862.039,-524.668"/>
<polygon fill="#9a32cd" stroke="#9a32cd" points="635.518,-624.895 625.686,-628.843 635.834,-631.888 635.518,-624.895"/>
<text text-anchor="middle" x="705" y="-631" font-family="Helvetica,sans-Serif" font-size="10.00"> myExecutionParameters</text>
</g>
<!-- Node17 -->
<g id="node17" class="node"><title>Node17</title>
<polygon fill="white" stroke="#bfbfbf" points="197.5,-562.5 197.5,-581.5 268.5,-581.5 268.5,-562.5 197.5,-562.5"/>
<text text-anchor="middle" x="233" y="-569.5" font-family="Helvetica,sans-Serif" font-size="10.00">Observable</text>
</g>
<!-- Node17&#45;&gt;Node16 -->
<g id="edge16" class="edge"><title>Node17&#45;&gt;Node16</title>
<path fill="none" stroke="midnightblue" d="M278.617,-577.443C322.43,-583.062 391.079,-592.6 450,-604 469.687,-607.809 491.431,-612.94 509.24,-617.39"/>
<polygon fill="midnightblue" stroke="midnightblue" points="278.937,-573.956 268.576,-576.168 278.055,-580.9 278.937,-573.956"/>
</g>
<!-- Node18 -->
<g id="node18" class="node"><title>Node18</title>
<polygon fill="white" stroke="#bfbfbf" points="146,-639 146,-669 320,-669 320,-639 146,-639"/>
<text text-anchor="start" x="154" y="-657" font-family="Helvetica,sans-Serif" font-size="10.00">Map&lt; String, model.instructions.</text>
<text text-anchor="middle" x="233" y="-646" font-family="Helvetica,sans-Serif" font-size="10.00">Instruction &gt;</text>
</g>
<!-- Node18&#45;&gt;Node16 -->
<g id="edge17" class="edge"><title>Node18&#45;&gt;Node16</title>
<path fill="none" stroke="#9a32cd" stroke-dasharray="5,2" d="M330.305,-645.666C374.685,-641.825 426.655,-637.328 468.461,-633.71"/>
<polygon fill="#9a32cd" stroke="#9a32cd" points="329.742,-642.201 320.081,-646.551 330.346,-649.175 329.742,-642.201"/>
<text text-anchor="middle" x="394" y="-647" font-family="Helvetica,sans-Serif" font-size="10.00"> myUserInstructionMap</text>
</g>
<!-- Node19 -->
<g id="node19" class="node"><title>Node19</title>
<polygon fill="white" stroke="#bfbfbf" points="169,-600.5 169,-619.5 297,-619.5 297,-600.5 169,-600.5"/>
<text text-anchor="middle" x="233" y="-607.5" font-family="Helvetica,sans-Serif" font-size="10.00">Map&lt; String, Double &gt;</text>
</g>
<!-- Node19&#45;&gt;Node16 -->
<g id="edge18" class="edge"><title>Node19&#45;&gt;Node16</title>
<path fill="none" stroke="#9a32cd" stroke-dasharray="5,2" d="M307.548,-607.422C349.383,-606.686 402.709,-606.976 450,-611 465.657,-612.332 482.608,-614.808 497.846,-617.421"/>
<polygon fill="#9a32cd" stroke="#9a32cd" points="307.373,-603.925 297.444,-607.624 307.512,-610.924 307.373,-603.925"/>
<text text-anchor="middle" x="394" y="-614" font-family="Helvetica,sans-Serif" font-size="10.00"> myVariableMap</text>
</g>
<!-- Node20 -->
<g id="node20" class="node"><title>Node20</title>
<polygon fill="white" stroke="#bfbfbf" points="486,-444.5 486,-463.5 608,-463.5 608,-444.5 486,-444.5"/>
<text text-anchor="middle" x="547" y="-451.5" font-family="Helvetica,sans-Serif" font-size="10.00">Map&lt; String, String &gt;</text>
</g>
<!-- Node20&#45;&gt;Node13 -->
<g id="edge19" class="edge"><title>Node20&#45;&gt;Node13</title>
<path fill="none" stroke="#9a32cd" stroke-dasharray="5,2" d="M618.552,-448.526C662.982,-447.968 720.355,-452.713 766,-475 776.453,-480.104 773.94,-488.16 784,-494 798.222,-502.256 815.58,-507.279 830.967,-510.33"/>
<polygon fill="#9a32cd" stroke="#9a32cd" points="618.338,-445.029 608.417,-448.747 618.491,-452.028 618.338,-445.029"/>
<text text-anchor="middle" x="705" y="-478" font-family="Helvetica,sans-Serif" font-size="10.00"> myCommandMap</text>
</g>
<!-- Node21&#45;&gt;Node13 -->
<g id="edge20" class="edge"><title>Node21&#45;&gt;Node13</title>
<path fill="none" stroke="#9a32cd" stroke-dasharray="5,2" d="M602.749,-331.578C663.521,-336.083 754.607,-344.629 766,-356 809.779,-399.694 742.729,-447.929 784,-494 795.691,-507.05 814.023,-512.642 830.764,-514.83"/>
<polygon fill="#9a32cd" stroke="#9a32cd" points="602.754,-328.07 592.527,-330.837 602.248,-335.051 602.754,-328.07"/>
<text text-anchor="middle" x="705" y="-359" font-family="Helvetica,sans-Serif" font-size="10.00"> mySLogoView</text>
</g>
<!-- Node22 -->
<g id="node22" class="node"><title>Node22</title>
<polygon fill="white" stroke="#bfbfbf" points="210.5,-691.5 210.5,-710.5 255.5,-710.5 255.5,-691.5 210.5,-691.5"/>
<text text-anchor="middle" x="233" y="-698.5" font-family="Helvetica,sans-Serif" font-size="10.00">Stage</text>
</g>
<!-- Node22&#45;&gt;Node1 -->
<g id="edge42" class="edge"><title>Node22&#45;&gt;Node1</title>
<path fill="none" stroke="#9a32cd" stroke-dasharray="5,2" d="M265.62,-701.505C321.967,-702.36 443.458,-704 546,-704 546,-704 546,-704 1390,-704 1491.21,-704 1573.78,-585.799 1596.06,-550.708"/>
<polygon fill="#9a32cd" stroke="#9a32cd" points="265.613,-698.004 255.56,-701.35 265.505,-705.004 265.613,-698.004"/>
<text text-anchor="middle" x="1027" y="-707" font-family="Helvetica,sans-Serif" font-size="10.00"> myStage</text>
</g>
<!-- Node22&#45;&gt;Node21 -->
<g id="edge23" class="edge"><title>Node22&#45;&gt;Node21</title>
<path fill="none" stroke="#9a32cd" stroke-dasharray="5,2" d="M265.317,-694.325C285.955,-689.938 313.58,-684.09 338,-679 387.747,-668.63 416.311,-694.044 450,-656 482.666,-619.111 450.846,-481.191 468,-435 483.206,-394.055 518.806,-354.947 536.152,-337.504"/>
<polygon fill="#9a32cd" stroke="#9a32cd" points="264.557,-690.908 255.504,-696.412 266.013,-697.755 264.557,-690.908"/>
<text text-anchor="middle" x="394" y="-682" font-family="Helvetica,sans-Serif" font-size="10.00"> myStage</text>
</g>
<!-- Node23&#45;&gt;Node21 -->
<g id="edge25" class="edge"><title>Node23&#45;&gt;Node21</title>
<path fill="none" stroke="#9a32cd" stroke-dasharray="5,2" d="M249.643,-432.276C268.625,-413.073 302.52,-382.149 338,-366 352.617,-359.347 444.448,-344.032 501.097,-335.007"/>
<polygon fill="#9a32cd" stroke="#9a32cd" points="247.116,-429.854 242.681,-439.476 252.148,-434.72 247.116,-429.854"/>
<text text-anchor="middle" x="394" y="-369" font-family="Helvetica,sans-Serif" font-size="10.00"> myEditor</text>
</g>
<!-- Node24 -->
<g id="node24" class="node"><title>Node24</title>
<polygon fill="white" stroke="#bfbfbf" points="4.5,-420.5 4.5,-439.5 53.5,-439.5 53.5,-420.5 4.5,-420.5"/>
<text text-anchor="middle" x="29" y="-427.5" font-family="Helvetica,sans-Serif" font-size="10.00">Button</text>
</g>
<!-- Node24&#45;&gt;Node23 -->
<g id="edge27" class="edge"><title>Node24&#45;&gt;Node23</title>
<path fill="none" stroke="#9a32cd" stroke-dasharray="5,2" d="M64.0031,-431.042C82.8816,-431.794 106.773,-433.033 128,-435 151.946,-437.219 178.848,-440.872 199.291,-443.89"/>
<polygon fill="#9a32cd" stroke="#9a32cd" points="63.926,-427.537 53.8029,-430.663 63.666,-434.532 63.926,-427.537"/>
<text text-anchor="middle" x="102" y="-438" font-family="Helvetica,sans-Serif" font-size="10.00"> runButton</text>
</g>
<!-- Node25 -->
<g id="node25" class="node"><title>Node25</title>
<polygon fill="white" stroke="#bfbfbf" points="0,-458.5 0,-477.5 58,-477.5 58,-458.5 0,-458.5"/>
<text text-anchor="middle" x="29" y="-465.5" font-family="Helvetica,sans-Serif" font-size="10.00">TextArea</text>
</g>
<!-- Node25&#45;&gt;Node23 -->
<g id="edge29" class="edge"><title>Node25&#45;&gt;Node23</title>
<path fill="none" stroke="#9a32cd" stroke-dasharray="5,2" d="M68.2332,-464.404C106.167,-460.836 163.67,-455.427 199.475,-452.059"/>
<polygon fill="#9a32cd" stroke="#9a32cd" points="67.7155,-460.937 58.0872,-465.358 68.3711,-467.906 67.7155,-460.937"/>
<text text-anchor="middle" x="102" y="-467" font-family="Helvetica,sans-Serif" font-size="10.00"> textEditor</text>
</g>
<!-- Node26 -->
<g id="node26" class="node"><title>Node26</title>
<polygon fill="white" stroke="#bfbfbf" points="173.5,-323.5 173.5,-342.5 292.5,-342.5 292.5,-323.5 173.5,-323.5"/>
<text text-anchor="middle" x="233" y="-330.5" font-family="Helvetica,sans-Serif" font-size="10.00">Map&lt; String, Node &gt;</text>
</g>
<!-- Node26&#45;&gt;Node21 -->
<g id="edge31" class="edge"><title>Node26&#45;&gt;Node21</title>
<path fill="none" stroke="#9a32cd" stroke-dasharray="5,2" d="M302.899,-331.896C363.301,-330.928 449.343,-329.549 501.212,-328.718"/>
<polygon fill="#9a32cd" stroke="#9a32cd" points="302.627,-328.4 292.685,-332.06 302.74,-335.399 302.627,-328.4"/>
<text text-anchor="middle" x="394" y="-335" font-family="Helvetica,sans-Serif" font-size="10.00"> variables</text>
</g>
<!-- Node27 -->
<g id="node27" class="node"><title>Node27</title>
<polygon fill="white" stroke="#bfbfbf" points="192.5,-285.5 192.5,-304.5 273.5,-304.5 273.5,-285.5 192.5,-285.5"/>
<text text-anchor="middle" x="233" y="-292.5" font-family="Helvetica,sans-Serif" font-size="10.00">Dimension2D</text>
</g>
<!-- Node27&#45;&gt;Node21 -->
<g id="edge33" class="edge"><title>Node27&#45;&gt;Node21</title>
<path fill="none" stroke="#9a32cd" stroke-dasharray="5,2" d="M283.97,-299.024C327.788,-302.696 393.189,-308.526 450,-315 466.711,-316.904 485.015,-319.304 501.117,-321.523"/>
<polygon fill="#9a32cd" stroke="#9a32cd" points="284.118,-295.524 273.863,-298.183 283.538,-302.5 284.118,-295.524"/>
<text text-anchor="middle" x="394" y="-318" font-family="Helvetica,sans-Serif" font-size="10.00"> myDimensions</text>
</g>
<!-- Node28&#45;&gt;Node21 -->
<g id="edge34" class="edge"><title>Node28&#45;&gt;Node21</title>
<path fill="none" stroke="#9a32cd" stroke-dasharray="5,2" d="M1556.23,-86C1513.3,-86 1447.29,-86 1390,-86 870,-86 870,-86 870,-86 765.235,-86 724.151,-85.5344 644,-153 587.796,-200.309 558.844,-289.276 550.552,-318.461"/>
<polygon fill="#9a32cd" stroke="#9a32cd" points="1556.37,-89.5001 1566.37,-86 1556.37,-82.5001 1556.37,-89.5001"/>
<text text-anchor="middle" x="1164" y="-89" font-family="Helvetica,sans-Serif" font-size="10.00"> drawer</text>
</g>
<!-- Node29 -->
<g id="node29" class="node"><title>Node29</title>
<polygon fill="white" stroke="#bfbfbf" points="1368.5,-0.5 1368.5,-19.5 1409.5,-19.5 1409.5,-0.5 1368.5,-0.5"/>
<text text-anchor="middle" x="1389" y="-7.5" font-family="Helvetica,sans-Serif" font-size="10.00">Color</text>
</g>
<!-- Node29&#45;&gt;Node28 -->
<g id="edge36" class="edge"><title>Node29&#45;&gt;Node28</title>
<path fill="none" stroke="#9a32cd" stroke-dasharray="5,2" d="M1419.04,-20.4118C1460.3,-35.2025 1535.3,-62.0879 1575.26,-76.4131"/>
<polygon fill="#9a32cd" stroke="#9a32cd" points="1420.16,-17.0937 1409.56,-17.0137 1417.8,-23.683 1420.16,-17.0937"/>
<text text-anchor="middle" x="1487" y="-61" font-family="Helvetica,sans-Serif" font-size="10.00"> myColor</text>
</g>
<!-- Node30 -->
<g id="node30" class="node"><title>Node30</title>
<polygon fill="white" stroke="#bfbfbf" points="210,-247.5 210,-266.5 256,-266.5 256,-247.5 210,-247.5"/>
<text text-anchor="middle" x="233" y="-254.5" font-family="Helvetica,sans-Serif" font-size="10.00">Group</text>
</g>
<!-- Node30&#45;&gt;Node21 -->
<g id="edge38" class="edge"><title>Node30&#45;&gt;Node21</title>
<path fill="none" stroke="#9a32cd" stroke-dasharray="5,2" d="M266.19,-259.356C308.833,-263.021 386.112,-271.56 450,-289 477.247,-296.438 507.18,-309.421 526.258,-318.35"/>
<polygon fill="#9a32cd" stroke="#9a32cd" points="266.378,-255.859 256.124,-258.526 265.803,-262.836 266.378,-255.859"/>
<text text-anchor="middle" x="394" y="-292" font-family="Helvetica,sans-Serif" font-size="10.00"> lines</text>
</g>
<!-- Node31 -->
<g id="node31" class="node"><title>Node31</title>
<polygon fill="white" stroke="#bfbfbf" points="802,-389.5 802,-408.5 940,-408.5 940,-389.5 802,-389.5"/>
<text text-anchor="middle" x="871" y="-396.5" font-family="Helvetica,sans-Serif" font-size="10.00">ObservableList&lt; String &gt;</text>
</g>
<!-- Node31&#45;&gt;Node8 -->
<g id="edge39" class="edge"><title>Node31&#45;&gt;Node8</title>
<path fill="none" stroke="#9a32cd" stroke-dasharray="5,2" d="M950.366,-390.902C989.043,-386.163 1036.25,-379.265 1078,-370 1097.59,-365.654 1119.2,-359.017 1135.73,-353.537"/>
<polygon fill="#9a32cd" stroke="#9a32cd" points="949.722,-387.454 940.211,-392.121 950.557,-394.405 949.722,-387.454"/>
<text text-anchor="middle" x="1027" y="-402" font-family="Helvetica,sans-Serif" font-size="10.00"> commandItems</text>
<text text-anchor="middle" x="1027" y="-391" font-family="Helvetica,sans-Serif" font-size="10.00">historyItems</text>
</g>
<!-- Node32 -->
<g id="node32" class="node"><title>Node32</title>
<polygon fill="white" stroke="#bfbfbf" points="818,-351.5 818,-370.5 924,-370.5 924,-351.5 818,-351.5"/>
<text text-anchor="middle" x="871" y="-358.5" font-family="Helvetica,sans-Serif" font-size="10.00">ListView&lt; String &gt;</text>
</g>
<!-- Node32&#45;&gt;Node8 -->
<g id="edge40" class="edge"><title>Node32&#45;&gt;Node8</title>
<path fill="none" stroke="#9a32cd" stroke-dasharray="5,2" d="M934.174,-357.368C992.198,-353.978 1076.89,-349.03 1125.31,-346.202"/>
<polygon fill="#9a32cd" stroke="#9a32cd" points="933.804,-353.883 924.025,-357.961 934.212,-360.871 933.804,-353.883"/>
<text text-anchor="middle" x="1027" y="-358" font-family="Helvetica,sans-Serif" font-size="10.00"> historyList</text>
</g>
<!-- Node33 -->
<g id="node33" class="node"><title>Node33</title>
<polygon fill="white" stroke="#bfbfbf" points="1132.5,-279.5 1132.5,-298.5 1195.5,-298.5 1195.5,-279.5 1132.5,-279.5"/>
<text text-anchor="middle" x="1164" y="-286.5" font-family="Helvetica,sans-Serif" font-size="10.00">Rectangle</text>
</g>
<!-- Node33&#45;&gt;Node3 -->
<g id="edge41" class="edge"><title>Node33&#45;&gt;Node3</title>
<path fill="none" stroke="#9a32cd" stroke-dasharray="5,2" d="M1205.89,-286.758C1238.97,-284.036 1286.4,-278.058 1326,-265 1343.14,-259.348 1361.18,-249.202 1373.36,-241.646"/>
<polygon fill="#9a32cd" stroke="#9a32cd" points="1205.39,-283.286 1195.68,-287.532 1205.92,-290.266 1205.39,-283.286"/>
<text text-anchor="middle" x="1288" y="-285" font-family="Helvetica,sans-Serif" font-size="10.00"> myBackground</text>
</g>
</g>
</svg>
        <g id="navigator" transform="translate(0 0)" fill="#404254">
                <rect fill="#f2f5e9" fill-opacity="0.5" stroke="#606060" stroke-width=".5" x="0" y="0" width="60" height="60"/>
                <use id="zoomplus" xlink:href="#zoomPlus" x="17" y="9" onmousedown="handleZoom(evt,'in')"/>
                <use id="zoomminus" xlink:href="#zoomMin" x="42" y="9" onmousedown="handleZoom(evt,'out')"/>
                <use id="reset" xlink:href="#resetDef" x="30" y="36" onmousedown="handleReset()"/>
                <g id="arrowUp" xlink:href="#dirArrow" transform="translate(30 24)" onmousedown="handlePan(0,-1)">
                  <use xlink:href="#rim" fill="#404040">
                        <set attributeName="fill" to="#808080" begin="arrowUp.mouseover" end="arrowUp.mouseout"/>
                  </use>
                  <path fill="none" stroke="white" stroke-width="1.5" d="M0,-3.0v7 M-2.5,-0.5L0,-3.0L2.5,-0.5"/>
                </g>
                <g id="arrowRight" xlink:href="#dirArrow" transform="rotate(90) translate(36 -43)" onmousedown="handlePan(1,0)">
                  <use xlink:href="#rim" fill="#404040">
                        <set attributeName="fill" to="#808080" begin="arrowRight.mouseover" end="arrowRight.mouseout"/>
                  </use>
                  <path fill="none" stroke="white" stroke-width="1.5" d="M0,-3.0v7 M-2.5,-0.5L0,-3.0L2.5,-0.5"/>
                </g>
                <g id="arrowDown" xlink:href="#dirArrow" transform="rotate(180) translate(-30 -48)" onmousedown="handlePan(0,1)">
                  <use xlink:href="#rim" fill="#404040">
                        <set attributeName="fill" to="#808080" begin="arrowDown.mouseover" end="arrowDown.mouseout"/>
                  </use>
                  <path fill="none" stroke="white" stroke-width="1.5" d="M0,-3.0v7 M-2.5,-0.5L0,-3.0L2.5,-0.5"/>
                </g>
                <g id="arrowLeft" xlink:href="#dirArrow" transform="rotate(270) translate(-36 17)" onmousedown="handlePan(-1,0)">
                  <use xlink:href="#rim" fill="#404040">
                        <set attributeName="fill" to="#808080" begin="arrowLeft.mouseover" end="arrowLeft.mouseout"/>
                  </use>
                  <path fill="none" stroke="white" stroke-width="1.5" d="M0,-3.0v7 M-2.5,-0.5L0,-3.0L2.5,-0.5"/>
                </g>
        </g>
        <svg viewBox="0 0 15 15" width="100%" height="30px" preserveAspectRatio="xMaxYMin meet">
         <g id="arrow_out" transform="scale(0.3 0.3)">
          <a xlink:href="classview_1_1_customization_bar__coll__graph_org.svg" target="_base">
           <rect id="button" ry="5" rx="5" y="6" x="6" height="38" width="38"
                fill="#f2f5e9" fill-opacity="0.5" stroke="#606060" stroke-width="1.0"/>
           <path id="arrow"
             d="M 11.500037,31.436501 C 11.940474,20.09759 22.043105,11.32322 32.158766,21.979434 L 37.068811,17.246167 C 37.068811,17.246167 37.088388,32 37.088388,32 L 22.160133,31.978069 C 22.160133,31.978069 26.997745,27.140456 26.997745,27.140456 C 18.528582,18.264221 13.291696,25.230495 11.500037,31.436501 z"
             style="fill:#404040;"/>
          </a>
         </g>
        </svg>
</svg>
