<?xml version="1.0" encoding="UTF-8" standalone="no"?>
<!DOCTYPE svg PUBLIC "-//W3C//DTD SVG 1.1//EN"
 "http://www.w3.org/Graphics/SVG/1.1/DTD/svg11.dtd">
<!-- Generated by graphviz version 2.36.0 (20140111.2315)
 -->
<!-- Title: view.CustomizationBar Pages: 1 -->
<!--zoomable 723 -->
<svg id="main" version="1.1" xmlns="http://www.w3.org/2000/svg" xmlns:xlink="http://www.w3.org/1999/xlink" xml:space="preserve" onload="init(evt)">
<style type="text/css"><![CDATA[
.edge:hover path { stroke: red; }
.edge:hover polygon { stroke: red; fill: red; }
]]></style>
<script type="text/javascript"><![CDATA[
var edges = document.getElementsByTagName('g');
if (edges && edges.length) {
  for (var i=0;i<edges.length;i++) {
    if (edges[i].id.substr(0,4)=='edge') {
      edges[i].setAttribute('class','edge');
    }
  }
}
]]></script>
        <defs>
                <circle id="rim" cx="0" cy="0" r="7"/>
                <circle id="rim2" cx="0" cy="0" r="3.5"/>
                <g id="zoomPlus">
                        <use xlink:href="#rim" fill="#404040">
                                <set attributeName="fill" to="#808080" begin="zoomplus.mouseover" end="zoomplus.mouseout"/>
                        </use>
                        <path d="M-4,0h8M0,-4v8" fill="none" stroke="white" stroke-width="1.5" pointer-events="none"/>
                </g>
                <g id="zoomMin">
                        <use xlink:href="#rim" fill="#404040">
                                <set attributeName="fill" to="#808080" begin="zoomminus.mouseover" end="zoomminus.mouseout"/>
                        </use>
                        <path d="M-4,0h8" fill="none" stroke="white" stroke-width="1.5" pointer-events="none"/>
                </g>
                <g id="dirArrow">
                        <path fill="none" stroke="white" stroke-width="1.5" d="M0,-3.0v7 M-2.5,-0.5L0,-3.0L2.5,-0.5"/>
                </g>
               <g id="resetDef">
                       <use xlink:href="#rim2" fill="#404040">
                               <set attributeName="fill" to="#808080" begin="reset.mouseover" end="reset.mouseout"/>
                       </use>
               </g>
        </defs>

<script type="text/javascript">
var viewWidth = 1846;
var viewHeight = 723;
var sectionId = 'dynsection-1';
</script>
<script xlink:href="../../svgpan.js"/>
<svg id="graph" class="graph">
<g id="viewport">
<title>view.CustomizationBar</title>
<polygon fill="white" stroke="none" points="-4,4 -4,-719 1842,-719 1842,4 -4,4"/>
<!-- Node1 -->
<g id="node1" class="node"><title>Node1</title>
<polygon fill="#bfbfbf" stroke="black" points="1712.5,-503.5 1712.5,-522.5 1837.5,-522.5 1837.5,-503.5 1712.5,-503.5"/>
<text text-anchor="middle" x="1775" y="-510.5" font-family="Helvetica,sans-Serif" font-size="10.00">view.CustomizationBar</text>
</g>
<!-- Node2 -->
<g id="node2" class="node"><title>Node2</title>
<polygon fill="white" stroke="#bfbfbf" points="8,-583.5 8,-602.5 50,-602.5 50,-583.5 8,-583.5"/>
<text text-anchor="middle" x="29" y="-590.5" font-family="Helvetica,sans-Serif" font-size="10.00">HBox</text>
</g>
<!-- Node2&#45;&gt;Node1 -->
<g id="edge1" class="edge"><title>Node2&#45;&gt;Node1</title>
<path fill="none" stroke="midnightblue" d="M44.4879,-610.2C64.7845,-633.144 103.942,-673.377 146,-695 180.9,-712.943 192.758,-715 232,-715 232,-715 232,-715 1562,-715 1674.86,-715 1751.41,-563.093 1769.75,-522.743"/>
<polygon fill="midnightblue" stroke="midnightblue" points="47.0891,-607.858 37.8931,-602.596 41.8007,-612.444 47.0891,-607.858"/>
</g>
<!-- Node24 -->
<g id="node24" class="node"><title>Node24</title>
<g id="a_node24"><a xlink:href="../../da/dc8/classview_1_1_editor.html" target="_top" xlink:title="view.Editor">
<polygon fill="white" stroke="black" points="199.5,-351.5 199.5,-370.5 266.5,-370.5 266.5,-351.5 199.5,-351.5"/>
<text text-anchor="middle" x="233" y="-358.5" font-family="Helvetica,sans-Serif" font-size="10.00">view.Editor</text>
</a>
</g>
</g>
<!-- Node2&#45;&gt;Node24 -->
<g id="edge28" class="edge"><title>Node2&#45;&gt;Node24</title>
<path fill="none" stroke="midnightblue" d="M37.3921,-573.767C52.5812,-536.444 90.5946,-453.437 146,-403 162.219,-388.235 184.577,-377.53 202.431,-370.624"/>
<polygon fill="midnightblue" stroke="midnightblue" points="34.0011,-572.824 33.5664,-583.41 40.5077,-575.405 34.0011,-572.824"/>
</g>
<!-- Node3 -->
<g id="node3" class="node"><title>Node3</title>
<g id="a_node3"><a xlink:href="../../da/d64/classview_1_1_workspace.html" target="_top" xlink:title="view.Workspace">
<polygon fill="white" stroke="black" points="1516,-207.5 1516,-226.5 1606,-226.5 1606,-207.5 1516,-207.5"/>
<text text-anchor="middle" x="1561" y="-214.5" font-family="Helvetica,sans-Serif" font-size="10.00">view.Workspace</text>
</a>
</g>
</g>
<!-- Node3&#45;&gt;Node1 -->
<g id="edge2" class="edge"><title>Node3&#45;&gt;Node1</title>
<path fill="none" stroke="#9a32cd" stroke-dasharray="5,2" d="M1574.68,-234.709C1614.59,-290.427 1736.73,-460.963 1767.11,-503.373"/>
<polygon fill="#9a32cd" stroke="#9a32cd" points="1577.48,-232.605 1568.81,-226.513 1571.79,-236.681 1577.48,-232.605"/>
<text text-anchor="middle" x="1659" y="-404" font-family="Helvetica,sans-Serif" font-size="10.00"> myWorkspace</text>
</g>
<!-- Node8 -->
<g id="node8" class="node"><title>Node8</title>
<g id="a_node8"><a xlink:href="../../d1/dc7/classview_1_1_side_bar.html" target="_top" xlink:title="view.SideBar">
<polygon fill="white" stroke="black" points="1297.5,-312.5 1297.5,-331.5 1374.5,-331.5 1374.5,-312.5 1297.5,-312.5"/>
<text text-anchor="middle" x="1336" y="-319.5" font-family="Helvetica,sans-Serif" font-size="10.00">view.SideBar</text>
</a>
</g>
</g>
<!-- Node3&#45;&gt;Node8 -->
<g id="edge9" class="edge"><title>Node3&#45;&gt;Node8</title>
<path fill="none" stroke="#9a32cd" stroke-dasharray="5,2" d="M1543,-233.528C1531.22,-244.163 1514.7,-257.532 1498,-266 1466.74,-281.846 1455.15,-275.641 1422,-287 1399.96,-294.552 1375.41,-304.874 1358.39,-312.35"/>
<polygon fill="#9a32cd" stroke="#9a32cd" points="1545.41,-236.069 1550.35,-226.695 1540.64,-230.944 1545.41,-236.069"/>
<text text-anchor="middle" x="1460" y="-290" font-family="Helvetica,sans-Serif" font-size="10.00"> myWorkspace</text>
</g>
<!-- Node22 -->
<g id="node22" class="node"><title>Node22</title>
<g id="a_node22"><a xlink:href="../../d6/de7/classview_1_1_s_logo_view.html" target="_top" xlink:title="view.SLogoView">
<polygon fill="white" stroke="black" points="501.5,-268.5 501.5,-287.5 592.5,-287.5 592.5,-268.5 501.5,-268.5"/>
<text text-anchor="middle" x="547" y="-275.5" font-family="Helvetica,sans-Serif" font-size="10.00">view.SLogoView</text>
</a>
</g>
</g>
<!-- Node3&#45;&gt;Node22 -->
<g id="edge24" class="edge"><title>Node3&#45;&gt;Node22</title>
<path fill="none" stroke="#9a32cd" stroke-dasharray="5,2" d="M1530.38,-230.577C1472.99,-254.619 1345.5,-296.711 1268,-236 1241.69,-215.393 1276.31,-183.607 1250,-163 1146.85,-82.1948 1085.16,-162.948 956,-185 817.069,-208.72 654.399,-249.897 583.755,-268.451"/>
<polygon fill="#9a32cd" stroke="#9a32cd" points="1531.81,-233.773 1539.61,-226.608 1529.04,-227.342 1531.81,-233.773"/>
<text text-anchor="middle" x="1043" y="-188" font-family="Helvetica,sans-Serif" font-size="10.00"> myWorkspace</text>
</g>
<!-- Node29 -->
<g id="node29" class="node"><title>Node29</title>
<g id="a_node29"><a xlink:href="../../de/d0a/classview_1_1_drawer.html" target="_top" xlink:title="view.Drawer">
<polygon fill="white" stroke="black" points="1738.5,-38.5 1738.5,-57.5 1811.5,-57.5 1811.5,-38.5 1738.5,-38.5"/>
<text text-anchor="middle" x="1775" y="-45.5" font-family="Helvetica,sans-Serif" font-size="10.00">view.Drawer</text>
</a>
</g>
</g>
<!-- Node3&#45;&gt;Node29 -->
<g id="edge37" class="edge"><title>Node3&#45;&gt;Node29</title>
<path fill="none" stroke="#9a32cd" stroke-dasharray="5,2" d="M1581.84,-201.185C1625.09,-166.707 1726.8,-85.6291 1761.86,-57.6749"/>
<polygon fill="#9a32cd" stroke="#9a32cd" points="1579.64,-198.459 1574.01,-207.43 1584.01,-203.933 1579.64,-198.459"/>
<text text-anchor="middle" x="1659" y="-171" font-family="Helvetica,sans-Serif" font-size="10.00"> myWorkspace</text>
</g>
<!-- Node4 -->
<g id="node4" class="node"><title>Node4</title>
<polygon fill="white" stroke="#bfbfbf" points="1302.5,-169.5 1302.5,-188.5 1369.5,-188.5 1369.5,-169.5 1302.5,-169.5"/>
<text text-anchor="middle" x="1336" y="-176.5" font-family="Helvetica,sans-Serif" font-size="10.00">StackPane</text>
</g>
<!-- Node4&#45;&gt;Node3 -->
<g id="edge3" class="edge"><title>Node4&#45;&gt;Node3</title>
<path fill="none" stroke="midnightblue" d="M1379.91,-186.312C1418.96,-192.966 1476.36,-202.747 1515.8,-209.469"/>
<polygon fill="midnightblue" stroke="midnightblue" points="1380.35,-182.837 1369.9,-184.607 1379.17,-189.737 1380.35,-182.837"/>
</g>
<!-- Node5 -->
<g id="node5" class="node"><title>Node5</title>
<g id="a_node5"><a xlink:href="../../d8/df7/classview_1_1_turtle_view.html" target="_top" xlink:title="view.TurtleView">
<polygon fill="white" stroke="black" points="1293,-207.5 1293,-226.5 1379,-226.5 1379,-207.5 1293,-207.5"/>
<text text-anchor="middle" x="1336" y="-214.5" font-family="Helvetica,sans-Serif" font-size="10.00">view.TurtleView</text>
</a>
</g>
</g>
<!-- Node5&#45;&gt;Node3 -->
<g id="edge4" class="edge"><title>Node5&#45;&gt;Node3</title>
<path fill="none" stroke="#9a32cd" stroke-dasharray="5,2" d="M1389.66,-217C1428.02,-217 1479.41,-217 1515.68,-217"/>
<polygon fill="#9a32cd" stroke="#9a32cd" points="1389.21,-213.5 1379.21,-217 1389.21,-220.5 1389.21,-213.5"/>
<text text-anchor="middle" x="1460" y="-220" font-family="Helvetica,sans-Serif" font-size="10.00"> myActiveTurtle</text>
</g>
<!-- Node6 -->
<g id="node6" class="node"><title>Node6</title>
<polygon fill="white" stroke="#bfbfbf" points="1009,-82.5 1009,-101.5 1077,-101.5 1077,-82.5 1009,-82.5"/>
<text text-anchor="middle" x="1043" y="-89.5" font-family="Helvetica,sans-Serif" font-size="10.00">ImageView</text>
</g>
<!-- Node6&#45;&gt;Node5 -->
<g id="edge5" class="edge"><title>Node6&#45;&gt;Node5</title>
<path fill="none" stroke="midnightblue" d="M1087.27,-87.7834C1133.51,-85.7893 1206.08,-90.2722 1250,-131 1272.61,-151.966 1246.35,-176.047 1268,-198 1274.71,-204.801 1283.65,-209.213 1292.82,-212.064"/>
<polygon fill="midnightblue" stroke="midnightblue" points="1087.04,-84.2904 1077.25,-88.3342 1087.43,-91.2798 1087.04,-84.2904"/>
</g>
<!-- Node7 -->
<g id="node7" class="node"><title>Node7</title>
<polygon fill="white" stroke="#bfbfbf" points="1268,-120 1268,-150 1404,-150 1404,-120 1268,-120"/>
<text text-anchor="start" x="1276" y="-138" font-family="Helvetica,sans-Serif" font-size="10.00">Map&lt; Integer, view.Turtle</text>
<text text-anchor="middle" x="1336" y="-127" font-family="Helvetica,sans-Serif" font-size="10.00">View &gt;</text>
</g>
<!-- Node7&#45;&gt;Node3 -->
<g id="edge6" class="edge"><title>Node7&#45;&gt;Node3</title>
<path fill="none" stroke="#9a32cd" stroke-dasharray="5,2" d="M1413.98,-152.071C1441.08,-159.234 1471.4,-168.585 1498,-180 1515.51,-187.512 1534.08,-199.148 1546.29,-207.362"/>
<polygon fill="#9a32cd" stroke="#9a32cd" points="1414.72,-148.645 1404.16,-149.531 1412.97,-155.423 1414.72,-148.645"/>
<text text-anchor="middle" x="1460" y="-183" font-family="Helvetica,sans-Serif" font-size="10.00"> myTurtles</text>
</g>
<!-- Node8&#45;&gt;Node3 -->
<g id="edge7" class="edge"><title>Node8&#45;&gt;Node3</title>
<path fill="none" stroke="#9a32cd" stroke-dasharray="5,2" d="M1384.91,-324.895C1418.71,-324.783 1463.86,-320.119 1498,-300 1527.75,-282.467 1547.75,-244.546 1555.89,-226.681"/>
<polygon fill="#9a32cd" stroke="#9a32cd" points="1384.85,-321.394 1374.82,-324.796 1384.78,-328.394 1384.85,-321.394"/>
<text text-anchor="middle" x="1460" y="-326" font-family="Helvetica,sans-Serif" font-size="10.00"> mySidebar</text>
</g>
<!-- Node8&#45;&gt;Node22 -->
<g id="edge39" class="edge"><title>Node8&#45;&gt;Node22</title>
<path fill="none" stroke="#9a32cd" stroke-dasharray="5,2" d="M1287.38,-317.829C1275.2,-316.831 1262.12,-315.818 1250,-315 1001.9,-298.25 704.04,-284.725 592.788,-279.901"/>
<polygon fill="#9a32cd" stroke="#9a32cd" points="1287.1,-321.318 1297.36,-318.66 1287.68,-314.342 1287.1,-321.318"/>
<text text-anchor="middle" x="910" y="-300" font-family="Helvetica,sans-Serif" font-size="10.00"> mySidebar</text>
</g>
<!-- Node8&#45;&gt;Node24 -->
<g id="edge32" class="edge"><title>Node8&#45;&gt;Node24</title>
<path fill="none" stroke="#9a32cd" stroke-dasharray="5,2" d="M1287.16,-322.518C1143.41,-324.281 702.696,-331.211 338,-353 314.139,-354.426 287.234,-356.508 266.768,-358.191"/>
<polygon fill="#9a32cd" stroke="#9a32cd" points="1287.43,-326.015 1297.39,-322.395 1287.35,-319.015 1287.43,-326.015"/>
<text text-anchor="middle" x="824" y="-337" font-family="Helvetica,sans-Serif" font-size="10.00"> mySidebar</text>
</g>
<!-- Node9 -->
<g id="node9" class="node"><title>Node9</title>
<polygon fill="white" stroke="#bfbfbf" points="1022.5,-243.5 1022.5,-262.5 1063.5,-262.5 1063.5,-243.5 1022.5,-243.5"/>
<text text-anchor="middle" x="1043" y="-250.5" font-family="Helvetica,sans-Serif" font-size="10.00">VBox</text>
</g>
<!-- Node9&#45;&gt;Node8 -->
<g id="edge8" class="edge"><title>Node9&#45;&gt;Node8</title>
<path fill="none" stroke="midnightblue" d="M1073.56,-253.044C1114.21,-253.863 1189.24,-258.11 1250,-277 1276.63,-285.279 1304.69,-301.906 1320.98,-312.467"/>
<polygon fill="midnightblue" stroke="midnightblue" points="1073.57,-249.544 1063.52,-252.899 1073.47,-256.544 1073.57,-249.544"/>
</g>
<!-- Node10 -->
<g id="node10" class="node"><title>Node10</title>
<polygon fill="white" stroke="#bfbfbf" points="956.5,-205.5 956.5,-224.5 1129.5,-224.5 1129.5,-205.5 956.5,-205.5"/>
<text text-anchor="middle" x="1043" y="-212.5" font-family="Helvetica,sans-Serif" font-size="10.00">ObservableList&lt; view.Property &gt;</text>
</g>
<!-- Node10&#45;&gt;Node8 -->
<g id="edge10" class="edge"><title>Node10&#45;&gt;Node8</title>
<path fill="none" stroke="#9a32cd" stroke-dasharray="5,2" d="M1139.91,-211.987C1176.62,-214.789 1217.45,-223.034 1250,-243 1261.98,-250.348 1258.38,-258.75 1268,-269 1284.14,-286.197 1306.07,-302.478 1320.38,-312.346"/>
<polygon fill="#9a32cd" stroke="#9a32cd" points="1139.88,-208.478 1129.67,-211.336 1139.43,-215.464 1139.88,-208.478"/>
<text text-anchor="middle" x="1199" y="-246" font-family="Helvetica,sans-Serif" font-size="10.00"> variablesList</text>
</g>
<!-- Node11 -->
<g id="node11" class="node"><title>Node11</title>
<polygon fill="white" stroke="#bfbfbf" points="186.5,-51.5 186.5,-70.5 279.5,-70.5 279.5,-51.5 186.5,-51.5"/>
<text text-anchor="middle" x="233" y="-58.5" font-family="Helvetica,sans-Serif" font-size="10.00">ResourceBundle</text>
</g>
<!-- Node11&#45;&gt;Node1 -->
<g id="edge45" class="edge"><title>Node11&#45;&gt;Node1</title>
<path fill="none" stroke="#9a32cd" stroke-dasharray="5,2" d="M282.894,-49.2625C344.044,-35.6338 452.125,-15 546,-15 546,-15 546,-15 1200,-15 1453.7,-15 1564.89,-82.6148 1694,-301 1736.64,-373.129 1763.71,-471.993 1771.6,-503.171"/>
<polygon fill="#9a32cd" stroke="#9a32cd" points="282.112,-45.8511 273.129,-51.4688 283.654,-52.679 282.112,-45.8511"/>
<text text-anchor="middle" x="1043" y="-18" font-family="Helvetica,sans-Serif" font-size="10.00"> myResources</text>
</g>
<!-- Node11&#45;&gt;Node8 -->
<g id="edge11" class="edge"><title>Node11&#45;&gt;Node8</title>
<path fill="none" stroke="#9a32cd" stroke-dasharray="5,2" d="M289.702,-68.9142C501.536,-99.0364 1245.34,-205.039 1250,-209 1270.24,-226.212 1253.21,-243.928 1268,-266 1281.33,-285.9 1303.73,-302.568 1318.92,-312.412"/>
<polygon fill="#9a32cd" stroke="#9a32cd" points="290.121,-65.4386 279.728,-67.496 289.135,-72.3689 290.121,-65.4386"/>
<text text-anchor="middle" x="824" y="-153" font-family="Helvetica,sans-Serif" font-size="10.00"> myResources</text>
</g>
<!-- Node11&#45;&gt;Node22 -->
<g id="edge26" class="edge"><title>Node11&#45;&gt;Node22</title>
<path fill="none" stroke="#9a32cd" stroke-dasharray="5,2" d="M261.428,-75.4833C303.483,-98.1578 385.767,-144.391 450,-192 483.796,-217.05 519.728,-251.688 536.432,-268.322"/>
<polygon fill="#9a32cd" stroke="#9a32cd" points="262.828,-72.2625 252.361,-70.6239 259.521,-78.4324 262.828,-72.2625"/>
<text text-anchor="middle" x="394" y="-195" font-family="Helvetica,sans-Serif" font-size="10.00"> myResources</text>
</g>
<!-- Node12 -->
<g id="node12" class="node"><title>Node12</title>
<polygon fill="white" stroke="#bfbfbf" points="969,-433.5 969,-452.5 1117,-452.5 1117,-433.5 969,-433.5"/>
<text text-anchor="middle" x="1043" y="-440.5" font-family="Helvetica,sans-Serif" font-size="10.00">TableView&lt; view.Property &gt;</text>
</g>
<!-- Node12&#45;&gt;Node8 -->
<g id="edge12" class="edge"><title>Node12&#45;&gt;Node8</title>
<path fill="none" stroke="#9a32cd" stroke-dasharray="5,2" d="M1127.26,-439.821C1174.78,-436.825 1228.96,-431.055 1250,-420 1289.48,-399.259 1318.74,-351.978 1329.97,-331.618"/>
<polygon fill="#9a32cd" stroke="#9a32cd" points="1127.01,-436.33 1117.24,-440.419 1127.43,-443.317 1127.01,-436.33"/>
<text text-anchor="middle" x="1199" y="-453" font-family="Helvetica,sans-Serif" font-size="10.00"> turtlePropertiesTable</text>
<text text-anchor="middle" x="1199" y="-442" font-family="Helvetica,sans-Serif" font-size="10.00">variablesTable</text>
</g>
<!-- Node13 -->
<g id="node13" class="node"><title>Node13</title>
<g id="a_node13"><a xlink:href="../../d4/dd9/classcontroller_1_1_s_logo_controller.html" target="_top" xlink:title="controller.SLogoController">
<polygon fill="white" stroke="black" points="973,-473.5 973,-492.5 1113,-492.5 1113,-473.5 973,-473.5"/>
<text text-anchor="middle" x="1043" y="-480.5" font-family="Helvetica,sans-Serif" font-size="10.00">controller.SLogoController</text>
</a>
</g>
</g>
<!-- Node13&#45;&gt;Node1 -->
<g id="edge46" class="edge"><title>Node13&#45;&gt;Node1</title>
<path fill="none" stroke="#9a32cd" stroke-dasharray="5,2" d="M1111.43,-493.919C1123.57,-495.545 1136.14,-497.006 1148,-498 1354.1,-515.27 1599.6,-515.156 1712.12,-513.958"/>
<polygon fill="#9a32cd" stroke="#9a32cd" points="1111.73,-490.428 1101.35,-492.521 1110.77,-497.362 1111.73,-490.428"/>
<text text-anchor="middle" x="1460" y="-517" font-family="Helvetica,sans-Serif" font-size="10.00"> myController</text>
</g>
<!-- Node13&#45;&gt;Node8 -->
<g id="edge13" class="edge"><title>Node13&#45;&gt;Node8</title>
<path fill="none" stroke="#9a32cd" stroke-dasharray="5,2" d="M1123.4,-483.409C1172.23,-482.272 1229.28,-478.014 1250,-465 1300.87,-433.048 1325.19,-358.616 1332.52,-331.827"/>
<polygon fill="#9a32cd" stroke="#9a32cd" points="1123.06,-479.915 1113.12,-483.607 1123.19,-486.914 1123.06,-479.915"/>
<text text-anchor="middle" x="1199" y="-486" font-family="Helvetica,sans-Serif" font-size="10.00"> myController</text>
</g>
<!-- Node13&#45;&gt;Node22 -->
<g id="edge34" class="edge"><title>Node13&#45;&gt;Node22</title>
<path fill="none" stroke="#9a32cd" stroke-dasharray="5,2" d="M964.394,-468.592C961.4,-466.649 958.581,-464.461 956,-462 935.544,-442.492 957.801,-421.172 938,-401 925.007,-387.764 673.287,-314.158 581.296,-287.577"/>
<polygon fill="#9a32cd" stroke="#9a32cd" points="962.788,-471.703 973.238,-473.446 966.156,-465.566 962.788,-471.703"/>
<text text-anchor="middle" x="824" y="-376" font-family="Helvetica,sans-Serif" font-size="10.00"> myController</text>
</g>
<!-- Node13&#45;&gt;Node24 -->
<g id="edge30" class="edge"><title>Node13&#45;&gt;Node24</title>
<path fill="none" stroke="#9a32cd" stroke-dasharray="5,2" d="M988.585,-471.077C977.732,-468.341 966.444,-465.267 956,-462 869.663,-434.993 854.481,-407.831 766,-389 580.325,-349.483 350.405,-355.333 266.542,-359.206"/>
<polygon fill="#9a32cd" stroke="#9a32cd" points="987.848,-474.5 998.394,-473.49 989.52,-467.703 987.848,-474.5"/>
<text text-anchor="middle" x="705" y="-392" font-family="Helvetica,sans-Serif" font-size="10.00"> myController</text>
</g>
<!-- Node14 -->
<g id="node14" class="node"><title>Node14</title>
<g id="a_node14"><a xlink:href="../../dc/df5/classmodel_1_1_parser.html" target="_top" xlink:title="model.Parser">
<polygon fill="white" stroke="black" points="784,-473.5 784,-492.5 864,-492.5 864,-473.5 784,-473.5"/>
<text text-anchor="middle" x="824" y="-480.5" font-family="Helvetica,sans-Serif" font-size="10.00">model.Parser</text>
</a>
</g>
</g>
<!-- Node14&#45;&gt;Node13 -->
<g id="edge14" class="edge"><title>Node14&#45;&gt;Node13</title>
<path fill="none" stroke="#9a32cd" stroke-dasharray="5,2" d="M874.397,-483C903.567,-483 940.941,-483 972.99,-483"/>
<polygon fill="#9a32cd" stroke="#9a32cd" points="874.046,-479.5 864.046,-483 874.046,-486.5 874.046,-479.5"/>
<text text-anchor="middle" x="910" y="-486" font-family="Helvetica,sans-Serif" font-size="10.00"> myParser</text>
</g>
<!-- Node15 -->
<g id="node15" class="node"><title>Node15</title>
<polygon fill="white" stroke="#bfbfbf" points="203,-412.5 203,-431.5 263,-431.5 263,-412.5 203,-412.5"/>
<text text-anchor="middle" x="233" y="-419.5" font-family="Helvetica,sans-Serif" font-size="10.00">Observer</text>
</g>
<!-- Node15&#45;&gt;Node14 -->
<g id="edge15" class="edge"><title>Node15&#45;&gt;Node14</title>
<path fill="none" stroke="midnightblue" d="M273.27,-426.067C380.431,-437.165 677.001,-467.88 783.928,-478.954"/>
<polygon fill="midnightblue" stroke="midnightblue" points="273.516,-422.574 263.209,-425.025 272.795,-429.537 273.516,-422.574"/>
</g>
<!-- Node15&#45;&gt;Node22 -->
<g id="edge23" class="edge"><title>Node15&#45;&gt;Node22</title>
<path fill="none" stroke="midnightblue" d="M264.36,-407.988C327.442,-378.873 471.285,-312.484 525.136,-287.63"/>
<polygon fill="midnightblue" stroke="midnightblue" points="262.569,-404.96 254.956,-412.328 265.502,-411.315 262.569,-404.96"/>
</g>
<!-- Node16 -->
<g id="node16" class="node"><title>Node16</title>
<polygon fill="white" stroke="#bfbfbf" points="491,-512 491,-542 603,-542 603,-512 491,-512"/>
<text text-anchor="start" x="499" y="-530" font-family="Helvetica,sans-Serif" font-size="10.00">List&lt; Entry&lt; String,</text>
<text text-anchor="middle" x="547" y="-519" font-family="Helvetica,sans-Serif" font-size="10.00"> Pattern &gt; &gt;</text>
</g>
<!-- Node16&#45;&gt;Node14 -->
<g id="edge16" class="edge"><title>Node16&#45;&gt;Node14</title>
<path fill="none" stroke="#9a32cd" stroke-dasharray="5,2" d="M613.393,-518.475C656.781,-512.554 714.926,-504.116 766,-495 771.774,-493.969 777.858,-492.79 783.814,-491.582"/>
<polygon fill="#9a32cd" stroke="#9a32cd" points="612.693,-515.038 603.253,-519.849 613.633,-521.974 612.693,-515.038"/>
<text text-anchor="middle" x="705" y="-517" font-family="Helvetica,sans-Serif" font-size="10.00"> myPatterns</text>
</g>
<!-- Node17 -->
<g id="node17" class="node"><title>Node17</title>
<g id="a_node17"><a xlink:href="../../d1/dca/classmodel_1_1_execution_environment.html" target="_top" xlink:title="model.ExecutionEnvironment">
<polygon fill="white" stroke="black" points="468.5,-607.5 468.5,-626.5 625.5,-626.5 625.5,-607.5 468.5,-607.5"/>
<text text-anchor="middle" x="547" y="-614.5" font-family="Helvetica,sans-Serif" font-size="10.00">model.ExecutionEnvironment</text>
</a>
</g>
</g>
<!-- Node17&#45;&gt;Node14 -->
<g id="edge17" class="edge"><title>Node17&#45;&gt;Node14</title>
<path fill="none" stroke="#9a32cd" stroke-dasharray="5,2" d="M589.412,-604.363C634.56,-589.672 708.097,-563.03 766,-529 783.76,-518.562 801.868,-502.914 812.772,-492.83"/>
<polygon fill="#9a32cd" stroke="#9a32cd" points="588.126,-601.099 579.674,-607.489 590.266,-607.764 588.126,-601.099"/>
<text text-anchor="middle" x="705" y="-588" font-family="Helvetica,sans-Serif" font-size="10.00"> myExecutionParameters</text>
</g>
<!-- Node18 -->
<g id="node18" class="node"><title>Node18</title>
<polygon fill="white" stroke="#bfbfbf" points="197.5,-579.5 197.5,-598.5 268.5,-598.5 268.5,-579.5 197.5,-579.5"/>
<text text-anchor="middle" x="233" y="-586.5" font-family="Helvetica,sans-Serif" font-size="10.00">Observable</text>
</g>
<!-- Node18&#45;&gt;Node17 -->
<g id="edge18" class="edge"><title>Node18&#45;&gt;Node17</title>
<path fill="none" stroke="midnightblue" d="M278.637,-593.006C328.066,-597.442 408.658,-604.674 468.457,-610.041"/>
<polygon fill="midnightblue" stroke="midnightblue" points="278.854,-589.511 268.582,-592.103 278.229,-596.483 278.854,-589.511"/>
</g>
<!-- Node19 -->
<g id="node19" class="node"><title>Node19</title>
<polygon fill="white" stroke="#bfbfbf" points="146,-656 146,-686 320,-686 320,-656 146,-656"/>
<text text-anchor="start" x="154" y="-674" font-family="Helvetica,sans-Serif" font-size="10.00">Map&lt; String, model.instructions.</text>
<text text-anchor="middle" x="233" y="-663" font-family="Helvetica,sans-Serif" font-size="10.00">Instruction &gt;</text>
</g>
<!-- Node19&#45;&gt;Node17 -->
<g id="edge19" class="edge"><title>Node19&#45;&gt;Node17</title>
<path fill="none" stroke="#9a32cd" stroke-dasharray="5,2" d="M330.05,-657.667C367.563,-652.109 410.882,-645.259 450,-638 468.116,-634.638 488.033,-630.375 505.007,-626.57"/>
<polygon fill="#9a32cd" stroke="#9a32cd" points="329.524,-654.206 320.14,-659.125 330.543,-661.132 329.524,-654.206"/>
<text text-anchor="middle" x="394" y="-659" font-family="Helvetica,sans-Serif" font-size="10.00"> myUserInstructionMap</text>
</g>
<!-- Node20 -->
<g id="node20" class="node"><title>Node20</title>
<polygon fill="white" stroke="#bfbfbf" points="169,-617.5 169,-636.5 297,-636.5 297,-617.5 169,-617.5"/>
<text text-anchor="middle" x="233" y="-624.5" font-family="Helvetica,sans-Serif" font-size="10.00">Map&lt; String, Double &gt;</text>
</g>
<!-- Node20&#45;&gt;Node17 -->
<g id="edge20" class="edge"><title>Node20&#45;&gt;Node17</title>
<path fill="none" stroke="#9a32cd" stroke-dasharray="5,2" d="M307.23,-624.653C355.637,-623.101 419.011,-621.07 468.303,-619.49"/>
<polygon fill="#9a32cd" stroke="#9a32cd" points="307.021,-621.158 297.138,-624.976 307.245,-628.154 307.021,-621.158"/>
<text text-anchor="middle" x="394" y="-626" font-family="Helvetica,sans-Serif" font-size="10.00"> myVariableMap</text>
</g>
<!-- Node21 -->
<g id="node21" class="node"><title>Node21</title>
<polygon fill="white" stroke="#bfbfbf" points="486,-473.5 486,-492.5 608,-492.5 608,-473.5 486,-473.5"/>
<text text-anchor="middle" x="547" y="-480.5" font-family="Helvetica,sans-Serif" font-size="10.00">Map&lt; String, String &gt;</text>
</g>
<!-- Node21&#45;&gt;Node14 -->
<g id="edge21" class="edge"><title>Node21&#45;&gt;Node14</title>
<path fill="none" stroke="#9a32cd" stroke-dasharray="5,2" d="M618.284,-483C670.88,-483 740.879,-483 783.895,-483"/>
<polygon fill="#9a32cd" stroke="#9a32cd" points="618.01,-479.5 608.01,-483 618.01,-486.5 618.01,-479.5"/>
<text text-anchor="middle" x="705" y="-486" font-family="Helvetica,sans-Serif" font-size="10.00"> myCommandMap</text>
</g>
<!-- Node22&#45;&gt;Node14 -->
<g id="edge22" class="edge"><title>Node22&#45;&gt;Node14</title>
<path fill="none" stroke="#9a32cd" stroke-dasharray="5,2" d="M556.906,-296.753C571.15,-324.551 601.808,-376.18 644,-402 691.064,-430.801 717.321,-399.022 766,-425 788.171,-436.832 807.067,-460.251 816.524,-473.423"/>
<polygon fill="#9a32cd" stroke="#9a32cd" points="559.987,-295.087 552.41,-287.682 553.715,-298.196 559.987,-295.087"/>
<text text-anchor="middle" x="705" y="-428" font-family="Helvetica,sans-Serif" font-size="10.00"> mySLogoView</text>
</g>
<!-- Node23 -->
<g id="node23" class="node"><title>Node23</title>
<polygon fill="white" stroke="#bfbfbf" points="210.5,-516.5 210.5,-535.5 255.5,-535.5 255.5,-516.5 210.5,-516.5"/>
<text text-anchor="middle" x="233" y="-523.5" font-family="Helvetica,sans-Serif" font-size="10.00">Stage</text>
</g>
<!-- Node23&#45;&gt;Node1 -->
<g id="edge44" class="edge"><title>Node23&#45;&gt;Node1</title>
<path fill="none" stroke="#9a32cd" stroke-dasharray="5,2" d="M265.748,-530.694C353.933,-543.309 609.436,-577 823,-577 823,-577 823,-577 1562,-577 1636.39,-577 1719.45,-540.435 1755.56,-522.581"/>
<polygon fill="#9a32cd" stroke="#9a32cd" points="266,-527.194 255.602,-529.229 265,-534.122 266,-527.194"/>
<text text-anchor="middle" x="1043" y="-580" font-family="Helvetica,sans-Serif" font-size="10.00"> myStage</text>
</g>
<!-- Node23&#45;&gt;Node22 -->
<g id="edge25" class="edge"><title>Node23&#45;&gt;Node22</title>
<path fill="none" stroke="#9a32cd" stroke-dasharray="5,2" d="M255.978,-510.095C295.463,-481.348 380.749,-418.474 450,-362 481.923,-335.967 518.135,-303.42 535.553,-287.568"/>
<polygon fill="#9a32cd" stroke="#9a32cd" points="253.429,-507.62 247.396,-516.33 257.543,-513.284 253.429,-507.62"/>
<text text-anchor="middle" x="394" y="-452" font-family="Helvetica,sans-Serif" font-size="10.00"> myStage</text>
</g>
<!-- Node24&#45;&gt;Node22 -->
<g id="edge27" class="edge"><title>Node24&#45;&gt;Node22</title>
<path fill="none" stroke="#9a32cd" stroke-dasharray="5,2" d="M257.057,-346.097C277.498,-333.616 308.585,-316.381 338,-307 392.537,-289.607 458.412,-282.641 501.207,-279.853"/>
<polygon fill="#9a32cd" stroke="#9a32cd" points="255.097,-343.194 248.459,-351.452 258.798,-349.136 255.097,-343.194"/>
<text text-anchor="middle" x="394" y="-310" font-family="Helvetica,sans-Serif" font-size="10.00"> myEditor</text>
</g>
<!-- Node25 -->
<g id="node25" class="node"><title>Node25</title>
<polygon fill="white" stroke="#bfbfbf" points="4.5,-332.5 4.5,-351.5 53.5,-351.5 53.5,-332.5 4.5,-332.5"/>
<text text-anchor="middle" x="29" y="-339.5" font-family="Helvetica,sans-Serif" font-size="10.00">Button</text>
</g>
<!-- Node25&#45;&gt;Node24 -->
<g id="edge29" class="edge"><title>Node25&#45;&gt;Node24</title>
<path fill="none" stroke="#9a32cd" stroke-dasharray="5,2" d="M64.0031,-343.042C82.8816,-343.794 106.773,-345.033 128,-347 151.946,-349.219 178.848,-352.872 199.291,-355.89"/>
<polygon fill="#9a32cd" stroke="#9a32cd" points="63.926,-339.537 53.8029,-342.663 63.666,-346.532 63.926,-339.537"/>
<text text-anchor="middle" x="102" y="-350" font-family="Helvetica,sans-Serif" font-size="10.00"> runButton</text>
</g>
<!-- Node26 -->
<g id="node26" class="node"><title>Node26</title>
<polygon fill="white" stroke="#bfbfbf" points="0,-370.5 0,-389.5 58,-389.5 58,-370.5 0,-370.5"/>
<text text-anchor="middle" x="29" y="-377.5" font-family="Helvetica,sans-Serif" font-size="10.00">TextArea</text>
</g>
<!-- Node26&#45;&gt;Node24 -->
<g id="edge31" class="edge"><title>Node26&#45;&gt;Node24</title>
<path fill="none" stroke="#9a32cd" stroke-dasharray="5,2" d="M68.2332,-376.404C106.167,-372.836 163.67,-367.427 199.475,-364.059"/>
<polygon fill="#9a32cd" stroke="#9a32cd" points="67.7155,-372.937 58.0872,-377.358 68.3711,-379.906 67.7155,-372.937"/>
<text text-anchor="middle" x="102" y="-379" font-family="Helvetica,sans-Serif" font-size="10.00"> textEditor</text>
</g>
<!-- Node27 -->
<g id="node27" class="node"><title>Node27</title>
<polygon fill="white" stroke="#bfbfbf" points="173.5,-264.5 173.5,-283.5 292.5,-283.5 292.5,-264.5 173.5,-264.5"/>
<text text-anchor="middle" x="233" y="-271.5" font-family="Helvetica,sans-Serif" font-size="10.00">Map&lt; String, Node &gt;</text>
</g>
<!-- Node27&#45;&gt;Node22 -->
<g id="edge33" class="edge"><title>Node27&#45;&gt;Node22</title>
<path fill="none" stroke="#9a32cd" stroke-dasharray="5,2" d="M302.9,-272.606C345.326,-272.015 400.822,-271.72 450,-273 466.684,-273.434 484.982,-274.292 501.087,-275.176"/>
<polygon fill="#9a32cd" stroke="#9a32cd" points="302.63,-269.109 292.683,-272.758 302.734,-276.109 302.63,-269.109"/>
<text text-anchor="middle" x="394" y="-276" font-family="Helvetica,sans-Serif" font-size="10.00"> variables</text>
</g>
<!-- Node28 -->
<g id="node28" class="node"><title>Node28</title>
<polygon fill="white" stroke="#bfbfbf" points="192.5,-226.5 192.5,-245.5 273.5,-245.5 273.5,-226.5 192.5,-226.5"/>
<text text-anchor="middle" x="233" y="-233.5" font-family="Helvetica,sans-Serif" font-size="10.00">Dimension2D</text>
</g>
<!-- Node28&#45;&gt;Node22 -->
<g id="edge35" class="edge"><title>Node28&#45;&gt;Node22</title>
<path fill="none" stroke="#9a32cd" stroke-dasharray="5,2" d="M283.695,-239.586C327.595,-243.105 393.27,-249.226 450,-258 468.17,-260.81 488.095,-264.809 505.061,-268.493"/>
<polygon fill="#9a32cd" stroke="#9a32cd" points="283.816,-236.085 273.572,-238.79 283.267,-243.064 283.816,-236.085"/>
<text text-anchor="middle" x="394" y="-261" font-family="Helvetica,sans-Serif" font-size="10.00"> myDimensions</text>
</g>
<!-- Node29&#45;&gt;Node22 -->
<g id="edge36" class="edge"><title>Node29&#45;&gt;Node22</title>
<path fill="none" stroke="#9a32cd" stroke-dasharray="5,2" d="M1728.21,-42.9762C1602.6,-30.5595 1242.91,-4.17729 956,-73 787.954,-113.31 610.247,-233.625 561.192,-268.455"/>
<polygon fill="#9a32cd" stroke="#9a32cd" points="1727.94,-46.4667 1738.24,-43.9878 1728.64,-39.502 1727.94,-46.4667"/>
<text text-anchor="middle" x="1199" y="-44" font-family="Helvetica,sans-Serif" font-size="10.00"> drawer</text>
</g>
<!-- Node30 -->
<g id="node30" class="node"><title>Node30</title>
<polygon fill="white" stroke="#bfbfbf" points="1540.5,-0.5 1540.5,-19.5 1581.5,-19.5 1581.5,-0.5 1540.5,-0.5"/>
<text text-anchor="middle" x="1561" y="-7.5" font-family="Helvetica,sans-Serif" font-size="10.00">Color</text>
</g>
<!-- Node30&#45;&gt;Node29 -->
<g id="edge38" class="edge"><title>Node30&#45;&gt;Node29</title>
<path fill="none" stroke="#9a32cd" stroke-dasharray="5,2" d="M1592.18,-11.2139C1619.1,-12.7124 1659.49,-15.9855 1694,-23 1712.39,-26.7389 1732.56,-33.0578 1748.05,-38.407"/>
<polygon fill="#9a32cd" stroke="#9a32cd" points="1592.03,-7.70199 1581.87,-10.6904 1591.68,-14.693 1592.03,-7.70199"/>
<text text-anchor="middle" x="1659" y="-26" font-family="Helvetica,sans-Serif" font-size="10.00"> myColor</text>
</g>
<!-- Node31 -->
<g id="node31" class="node"><title>Node31</title>
<polygon fill="white" stroke="#bfbfbf" points="210,-188.5 210,-207.5 256,-207.5 256,-188.5 210,-188.5"/>
<text text-anchor="middle" x="233" y="-195.5" font-family="Helvetica,sans-Serif" font-size="10.00">Group</text>
</g>
<!-- Node31&#45;&gt;Node22 -->
<g id="edge40" class="edge"><title>Node31&#45;&gt;Node22</title>
<path fill="none" stroke="#9a32cd" stroke-dasharray="5,2" d="M266.41,-199.608C309.294,-202.452 386.838,-210.09 450,-230 480.034,-239.468 512.251,-257.354 530.68,-268.417"/>
<polygon fill="#9a32cd" stroke="#9a32cd" points="266.48,-196.106 256.284,-198.984 266.049,-203.093 266.48,-196.106"/>
<text text-anchor="middle" x="394" y="-233" font-family="Helvetica,sans-Serif" font-size="10.00"> lines</text>
</g>
<!-- Node32 -->
<g id="node32" class="node"><title>Node32</title>
<polygon fill="white" stroke="#bfbfbf" points="974,-395.5 974,-414.5 1112,-414.5 1112,-395.5 974,-395.5"/>
<text text-anchor="middle" x="1043" y="-402.5" font-family="Helvetica,sans-Serif" font-size="10.00">ObservableList&lt; String &gt;</text>
</g>
<!-- Node32&#45;&gt;Node8 -->
<g id="edge41" class="edge"><title>Node32&#45;&gt;Node8</title>
<path fill="none" stroke="#9a32cd" stroke-dasharray="5,2" d="M1122.62,-398.723C1161.75,-393.932 1209.27,-385.558 1250,-371 1277.27,-361.254 1305.8,-342.844 1321.9,-331.575"/>
<polygon fill="#9a32cd" stroke="#9a32cd" points="1121.86,-395.287 1112.34,-399.924 1122.68,-402.24 1121.86,-395.287"/>
<text text-anchor="middle" x="1199" y="-409" font-family="Helvetica,sans-Serif" font-size="10.00"> commandItems</text>
<text text-anchor="middle" x="1199" y="-398" font-family="Helvetica,sans-Serif" font-size="10.00">historyItems</text>
</g>
<!-- Node33 -->
<g id="node33" class="node"><title>Node33</title>
<polygon fill="white" stroke="#bfbfbf" points="990,-357.5 990,-376.5 1096,-376.5 1096,-357.5 990,-357.5"/>
<text text-anchor="middle" x="1043" y="-364.5" font-family="Helvetica,sans-Serif" font-size="10.00">ListView&lt; String &gt;</text>
</g>
<!-- Node33&#45;&gt;Node8 -->
<g id="edge42" class="edge"><title>Node33&#45;&gt;Node8</title>
<path fill="none" stroke="#9a32cd" stroke-dasharray="5,2" d="M1106.38,-360.677C1147.35,-356.143 1202.04,-349.368 1250,-341 1265.64,-338.271 1282.75,-334.584 1297.49,-331.185"/>
<polygon fill="#9a32cd" stroke="#9a32cd" points="1105.83,-357.215 1096.27,-361.781 1106.59,-364.174 1105.83,-357.215"/>
<text text-anchor="middle" x="1199" y="-359" font-family="Helvetica,sans-Serif" font-size="10.00"> historyList</text>
</g>
<!-- Node34 -->
<g id="node34" class="node"><title>Node34</title>
<polygon fill="white" stroke="#bfbfbf" points="1304.5,-81.5 1304.5,-100.5 1367.5,-100.5 1367.5,-81.5 1304.5,-81.5"/>
<text text-anchor="middle" x="1336" y="-88.5" font-family="Helvetica,sans-Serif" font-size="10.00">Rectangle</text>
</g>
<!-- Node34&#45;&gt;Node3 -->
<g id="edge43" class="edge"><title>Node34&#45;&gt;Node3</title>
<path fill="none" stroke="#9a32cd" stroke-dasharray="5,2" d="M1377.75,-96.3919C1412.21,-102.508 1461.64,-115.074 1498,-140 1524.61,-158.243 1545.58,-191.218 1554.83,-207.449"/>
<polygon fill="#9a32cd" stroke="#9a32cd" points="1378,-92.8864 1367.56,-94.6942 1376.85,-99.7911 1378,-92.8864"/>
<text text-anchor="middle" x="1460" y="-143" font-family="Helvetica,sans-Serif" font-size="10.00"> myBackground</text>
</g>
</g>
</svg>
        <g id="navigator" transform="translate(0 0)" fill="#404254">
                <rect fill="#f2f5e9" fill-opacity="0.5" stroke="#606060" stroke-width=".5" x="0" y="0" width="60" height="60"/>
                <use id="zoomplus" xlink:href="#zoomPlus" x="17" y="9" onmousedown="handleZoom(evt,'in')"/>
                <use id="zoomminus" xlink:href="#zoomMin" x="42" y="9" onmousedown="handleZoom(evt,'out')"/>
                <use id="reset" xlink:href="#resetDef" x="30" y="36" onmousedown="handleReset()"/>
                <g id="arrowUp" xlink:href="#dirArrow" transform="translate(30 24)" onmousedown="handlePan(0,-1)">
                  <use xlink:href="#rim" fill="#404040">
                        <set attributeName="fill" to="#808080" begin="arrowUp.mouseover" end="arrowUp.mouseout"/>
                  </use>
                  <path fill="none" stroke="white" stroke-width="1.5" d="M0,-3.0v7 M-2.5,-0.5L0,-3.0L2.5,-0.5"/>
                </g>
                <g id="arrowRight" xlink:href="#dirArrow" transform="rotate(90) translate(36 -43)" onmousedown="handlePan(1,0)">
                  <use xlink:href="#rim" fill="#404040">
                        <set attributeName="fill" to="#808080" begin="arrowRight.mouseover" end="arrowRight.mouseout"/>
                  </use>
                  <path fill="none" stroke="white" stroke-width="1.5" d="M0,-3.0v7 M-2.5,-0.5L0,-3.0L2.5,-0.5"/>
                </g>
                <g id="arrowDown" xlink:href="#dirArrow" transform="rotate(180) translate(-30 -48)" onmousedown="handlePan(0,1)">
                  <use xlink:href="#rim" fill="#404040">
                        <set attributeName="fill" to="#808080" begin="arrowDown.mouseover" end="arrowDown.mouseout"/>
                  </use>
                  <path fill="none" stroke="white" stroke-width="1.5" d="M0,-3.0v7 M-2.5,-0.5L0,-3.0L2.5,-0.5"/>
                </g>
                <g id="arrowLeft" xlink:href="#dirArrow" transform="rotate(270) translate(-36 17)" onmousedown="handlePan(-1,0)">
                  <use xlink:href="#rim" fill="#404040">
                        <set attributeName="fill" to="#808080" begin="arrowLeft.mouseover" end="arrowLeft.mouseout"/>
                  </use>
                  <path fill="none" stroke="white" stroke-width="1.5" d="M0,-3.0v7 M-2.5,-0.5L0,-3.0L2.5,-0.5"/>
                </g>
        </g>
        <svg viewBox="0 0 15 15" width="100%" height="30px" preserveAspectRatio="xMaxYMin meet">
         <g id="arrow_out" transform="scale(0.3 0.3)">
          <a xlink:href="classview_1_1_customization_bar__coll__graph_org.svg" target="_base">
           <rect id="button" ry="5" rx="5" y="6" x="6" height="38" width="38"
                fill="#f2f5e9" fill-opacity="0.5" stroke="#606060" stroke-width="1.0"/>
           <path id="arrow"
             d="M 11.500037,31.436501 C 11.940474,20.09759 22.043105,11.32322 32.158766,21.979434 L 37.068811,17.246167 C 37.068811,17.246167 37.088388,32 37.088388,32 L 22.160133,31.978069 C 22.160133,31.978069 26.997745,27.140456 26.997745,27.140456 C 18.528582,18.264221 13.291696,25.230495 11.500037,31.436501 z"
             style="fill:#404040;"/>
          </a>
         </g>
        </svg>
</svg>
