<?xml version="1.0" encoding="UTF-8" standalone="no"?>
<!DOCTYPE svg PUBLIC "-//W3C//DTD SVG 1.1//EN"
 "http://www.w3.org/Graphics/SVG/1.1/DTD/svg11.dtd">
<!-- Generated by graphviz version 2.36.0 (20140111.2315)
 -->
<!-- Title: model.turtle.TurtleCommand.isRelative Pages: 1 -->
<svg width="912pt" height="38pt"
 viewBox="0.00 0.00 912.00 38.00" xmlns="http://www.w3.org/2000/svg" xmlns:xlink="http://www.w3.org/1999/xlink">
<g id="graph0" class="graph" transform="scale(1 1) rotate(0) translate(4 34)">
<title>model.turtle.TurtleCommand.isRelative</title>
<polygon fill="white" stroke="none" points="-4,4 -4,-34 908,-34 908,4 -4,4"/>
<!-- Node1 -->
<g id="node1" class="node"><title>Node1</title>
<polygon fill="#bfbfbf" stroke="black" points="0,-0 0,-30 164,-30 164,-0 0,-0"/>
<text text-anchor="start" x="8" y="-18" font-family="Helvetica,sans-Serif" font-size="10.00">model.turtle.TurtleCommand.is</text>
<text text-anchor="middle" x="82" y="-7" font-family="Helvetica,sans-Serif" font-size="10.00">Relative</text>
</g>
<!-- Node2 -->
<g id="node2" class="node"><title>Node2</title>
<g id="a_node2"><a xlink:href="../../de/d0a/classview_1_1_drawer.html#a6b9f362b8bc763689630b1fe7b5c1887" target="_top" xlink:title="view.Drawer.draw">
<polygon fill="white" stroke="black" points="200,-5.5 200,-24.5 298,-24.5 298,-5.5 200,-5.5"/>
<text text-anchor="middle" x="249" y="-12.5" font-family="Helvetica,sans-Serif" font-size="10.00">view.Drawer.draw</text>
</a>
</g>
</g>
<!-- Node1&#45;&gt;Node2 -->
<g id="edge1" class="edge"><title>Node1&#45;&gt;Node2</title>
<path fill="none" stroke="midnightblue" d="M174.066,-15C182.906,-15 191.614,-15 199.778,-15"/>
<polygon fill="midnightblue" stroke="midnightblue" points="174.05,-11.5001 164.05,-15 174.05,-18.5001 174.05,-11.5001"/>
</g>
<!-- Node3 -->
<g id="node3" class="node"><title>Node3</title>
<g id="a_node3"><a xlink:href="../../d6/de7/classview_1_1_s_logo_view.html#a513d723c883c5b96c9fdf1f16f829bc8" target="_top" xlink:title="view.SLogoView.updateWorkspace">
<polygon fill="white" stroke="black" points="334,-5.5 334,-24.5 512,-24.5 512,-5.5 334,-5.5"/>
<text text-anchor="middle" x="423" y="-12.5" font-family="Helvetica,sans-Serif" font-size="10.00">view.SLogoView.updateWorkspace</text>
</a>
</g>
</g>
<!-- Node2&#45;&gt;Node3 -->
<g id="edge2" class="edge"><title>Node2&#45;&gt;Node3</title>
<path fill="none" stroke="midnightblue" d="M308.532,-15C316.732,-15 325.305,-15 333.906,-15"/>
<polygon fill="midnightblue" stroke="midnightblue" points="308.369,-11.5001 298.369,-15 308.369,-18.5001 308.369,-11.5001"/>
</g>
<!-- Node4 -->
<g id="node4" class="node"><title>Node4</title>
<g id="a_node4"><a xlink:href="../../d1/dd3/classmodel_1_1instructions_1_1_movement_instruction.html#a51c776093aeb820937b12e2b89eb2f89" target="_top" xlink:title="model.instructions.Movement\lInstruction.updateView">
<polygon fill="white" stroke="black" points="548.5,-0 548.5,-30 707.5,-30 707.5,-0 548.5,-0"/>
<text text-anchor="start" x="556.5" y="-18" font-family="Helvetica,sans-Serif" font-size="10.00">model.instructions.Movement</text>
<text text-anchor="middle" x="628" y="-7" font-family="Helvetica,sans-Serif" font-size="10.00">Instruction.updateView</text>
</a>
</g>
</g>
<!-- Node3&#45;&gt;Node4 -->
<g id="edge3" class="edge"><title>Node3&#45;&gt;Node4</title>
<path fill="none" stroke="midnightblue" d="M522.4,-15C531.155,-15 539.94,-15 548.495,-15"/>
<polygon fill="midnightblue" stroke="midnightblue" points="522.153,-11.5001 512.153,-15 522.153,-18.5001 522.153,-11.5001"/>
</g>
<!-- Node5 -->
<g id="node5" class="node"><title>Node5</title>
<g id="a_node5"><a xlink:href="../../d1/dd3/classmodel_1_1instructions_1_1_movement_instruction.html#a33e802cec8283d190a8daac6e485e3b4" target="_top" xlink:title="model.instructions.Movement\lInstruction.execute">
<polygon fill="white" stroke="black" points="744.5,-0 744.5,-30 903.5,-30 903.5,-0 744.5,-0"/>
<text text-anchor="start" x="752.5" y="-18" font-family="Helvetica,sans-Serif" font-size="10.00">model.instructions.Movement</text>
<text text-anchor="middle" x="824" y="-7" font-family="Helvetica,sans-Serif" font-size="10.00">Instruction.execute</text>
</a>
</g>
</g>
<!-- Node4&#45;&gt;Node5 -->
<g id="edge4" class="edge"><title>Node4&#45;&gt;Node5</title>
<path fill="none" stroke="midnightblue" d="M717.895,-15C726.691,-15 735.577,-15 744.26,-15"/>
<polygon fill="midnightblue" stroke="midnightblue" points="717.628,-11.5001 707.628,-15 717.628,-18.5001 717.628,-11.5001"/>
</g>
</g>
</svg>
