<?xml version="1.0" encoding="UTF-8" standalone="no"?>
<!DOCTYPE svg PUBLIC "-//W3C//DTD SVG 1.1//EN"
 "http://www.w3.org/Graphics/SVG/1.1/DTD/svg11.dtd">
<!-- Generated by graphviz version 2.36.0 (20140111.2315)
 -->
<!-- Title: model.instructions.ListInstruction Pages: 1 -->
<!--zoomable 700 -->
<svg id="main" version="1.1" xmlns="http://www.w3.org/2000/svg" xmlns:xlink="http://www.w3.org/1999/xlink" xml:space="preserve" onload="init(evt)">
<style type="text/css"><![CDATA[
.edge:hover path { stroke: red; }
.edge:hover polygon { stroke: red; fill: red; }
]]></style>
<script type="text/javascript"><![CDATA[
var edges = document.getElementsByTagName('g');
if (edges && edges.length) {
  for (var i=0;i<edges.length;i++) {
    if (edges[i].id.substr(0,4)=='edge') {
      edges[i].setAttribute('class','edge');
    }
  }
}
]]></script>
        <defs>
                <circle id="rim" cx="0" cy="0" r="7"/>
                <circle id="rim2" cx="0" cy="0" r="3.5"/>
                <g id="zoomPlus">
                        <use xlink:href="#rim" fill="#404040">
                                <set attributeName="fill" to="#808080" begin="zoomplus.mouseover" end="zoomplus.mouseout"/>
                        </use>
                        <path d="M-4,0h8M0,-4v8" fill="none" stroke="white" stroke-width="1.5" pointer-events="none"/>
                </g>
                <g id="zoomMin">
                        <use xlink:href="#rim" fill="#404040">
                                <set attributeName="fill" to="#808080" begin="zoomminus.mouseover" end="zoomminus.mouseout"/>
                        </use>
                        <path d="M-4,0h8" fill="none" stroke="white" stroke-width="1.5" pointer-events="none"/>
                </g>
                <g id="dirArrow">
                        <path fill="none" stroke="white" stroke-width="1.5" d="M0,-3.0v7 M-2.5,-0.5L0,-3.0L2.5,-0.5"/>
                </g>
               <g id="resetDef">
                       <use xlink:href="#rim2" fill="#404040">
                               <set attributeName="fill" to="#808080" begin="reset.mouseover" end="reset.mouseout"/>
                       </use>
               </g>
        </defs>

<script type="text/javascript">
var viewWidth = 1516;
var viewHeight = 700;
var sectionId = 'dynsection-1';
</script>
<script xlink:href="../../svgpan.js"/>
<svg id="graph" class="graph">
<g id="viewport">
<title>model.instructions.ListInstruction</title>
<polygon fill="white" stroke="none" points="-4,4 -4,-696.294 1512,-696.294 1512,4 -4,4"/>
<!-- Node1 -->
<g id="node1" class="node"><title>Node1</title>
<polygon fill="#bfbfbf" stroke="black" points="950.5,-470.794 950.5,-489.794 1125.5,-489.794 1125.5,-470.794 950.5,-470.794"/>
<text text-anchor="middle" x="1038" y="-477.794" font-family="Helvetica,sans-Serif" font-size="10.00">model.instructions.ListInstruction</text>
</g>
<!-- Node2 -->
<g id="node2" class="node"><title>Node2</title>
<g id="a_node2"><a xlink:href="../../d1/dea/classmodel_1_1instructions_1_1_instruction.html" target="_top" xlink:title="model.instructions.Instruction">
<polygon fill="white" stroke="black" points="646,-500.794 646,-519.794 804,-519.794 804,-500.794 646,-500.794"/>
<text text-anchor="middle" x="725" y="-507.794" font-family="Helvetica,sans-Serif" font-size="10.00">model.instructions.Instruction</text>
</a>
</g>
</g>
<!-- Node2&#45;&gt;Node1 -->
<g id="edge1" class="edge"><title>Node2&#45;&gt;Node1</title>
<path fill="none" stroke="midnightblue" d="M814.172,-501.788C856.853,-497.671 907.921,-492.745 950.395,-488.648"/>
<polygon fill="midnightblue" stroke="midnightblue" points="813.695,-498.318 804.077,-502.762 814.367,-505.286 813.695,-498.318"/>
</g>
<!-- Node3 -->
<g id="node3" class="node"><title>Node3</title>
<polygon fill="white" stroke="#bfbfbf" points="57,-147.794 57,-166.794 117,-166.794 117,-147.794 57,-147.794"/>
<text text-anchor="middle" x="87" y="-154.794" font-family="Helvetica,sans-Serif" font-size="10.00">Observer</text>
</g>
<!-- Node3&#45;&gt;Node2 -->
<g id="edge2" class="edge"><title>Node3&#45;&gt;Node2</title>
<path fill="none" stroke="midnightblue" d="M127.115,-156.774C143.72,-158.635 161.977,-163.788 174,-176.294 205.298,-208.848 162.973,-241.699 192,-276.294 322.938,-432.346 479.858,-292.451 620,-440.294 636.536,-457.739 620,-475.363 638,-491.294 642.237,-495.043 647.045,-498.106 652.172,-500.601"/>
<polygon fill="midnightblue" stroke="midnightblue" points="127.299,-153.278 117.061,-156.004 126.765,-160.257 127.299,-153.278"/>
</g>
<!-- Node9 -->
<g id="node9" class="node"><title>Node9</title>
<g id="a_node9"><a xlink:href="../../d6/de7/classview_1_1_s_logo_view.html" target="_top" xlink:title="view.SLogoView">
<polygon fill="white" stroke="black" points="355.5,-204.794 355.5,-223.794 446.5,-223.794 446.5,-204.794 355.5,-204.794"/>
<text text-anchor="middle" x="401" y="-211.794" font-family="Helvetica,sans-Serif" font-size="10.00">view.SLogoView</text>
</a>
</g>
</g>
<!-- Node3&#45;&gt;Node9 -->
<g id="edge9" class="edge"><title>Node3&#45;&gt;Node9</title>
<path fill="none" stroke="midnightblue" d="M127.261,-162.523C170.672,-168.525 242.594,-179.125 304,-191.294 323.669,-195.192 345.412,-200.331 363.224,-204.762"/>
<polygon fill="midnightblue" stroke="midnightblue" points="127.51,-159.024 117.127,-161.133 126.559,-165.959 127.51,-159.024"/>
</g>
<!-- Node21 -->
<g id="node21" class="node"><title>Node21</title>
<g id="a_node21"><a xlink:href="../../dc/df5/classmodel_1_1_parser.html" target="_top" xlink:title="model.Parser">
<polygon fill="white" stroke="black" points="685,-116.794 685,-135.794 765,-135.794 765,-116.794 685,-116.794"/>
<text text-anchor="middle" x="725" y="-123.794" font-family="Helvetica,sans-Serif" font-size="10.00">model.Parser</text>
</a>
</g>
</g>
<!-- Node3&#45;&gt;Node21 -->
<g id="edge24" class="edge"><title>Node3&#45;&gt;Node21</title>
<path fill="none" stroke="midnightblue" d="M127.118,-152.837C199.97,-144.785 361.432,-128.112 498,-122.294 552.173,-119.986 565.788,-121.251 620,-122.294 641.498,-122.707 665.482,-123.6 684.995,-124.438"/>
<polygon fill="midnightblue" stroke="midnightblue" points="126.578,-149.375 117.026,-153.96 127.352,-156.332 126.578,-149.375"/>
</g>
<!-- Node4 -->
<g id="node4" class="node"><title>Node4</title>
<g id="a_node4"><a xlink:href="../../d1/dca/classmodel_1_1_execution_environment.html" target="_top" xlink:title="model.ExecutionEnvironment">
<polygon fill="white" stroke="black" points="322.5,-391.794 322.5,-410.794 479.5,-410.794 479.5,-391.794 322.5,-391.794"/>
<text text-anchor="middle" x="401" y="-398.794" font-family="Helvetica,sans-Serif" font-size="10.00">model.ExecutionEnvironment</text>
</a>
</g>
</g>
<!-- Node4&#45;&gt;Node2 -->
<g id="edge3" class="edge"><title>Node4&#45;&gt;Node2</title>
<path fill="none" stroke="#9a32cd" stroke-dasharray="5,2" d="M433.175,-414.872C477.861,-433.945 563.015,-468.845 638,-491.294 649.865,-494.846 662.832,-498.052 675.014,-500.776"/>
<polygon fill="#9a32cd" stroke="#9a32cd" points="434.322,-411.556 423.752,-410.829 431.561,-417.989 434.322,-411.556"/>
<text text-anchor="middle" x="559" y="-488.294" font-family="Helvetica,sans-Serif" font-size="10.00"> myEnvironment</text>
</g>
<!-- Node17 -->
<g id="node17" class="node"><title>Node17</title>
<g id="a_node17"><a xlink:href="../../d1/dc7/classview_1_1_side_bar.html" target="_top" xlink:title="view.SideBar">
<polygon fill="white" stroke="black" points="999.5,-380.794 999.5,-399.794 1076.5,-399.794 1076.5,-380.794 999.5,-380.794"/>
<text text-anchor="middle" x="1038" y="-387.794" font-family="Helvetica,sans-Serif" font-size="10.00">view.SideBar</text>
</a>
</g>
</g>
<!-- Node4&#45;&gt;Node17 -->
<g id="edge21" class="edge"><title>Node4&#45;&gt;Node17</title>
<path fill="none" stroke="#9a32cd" stroke-dasharray="5,2" d="M443.596,-388.828C487.531,-375.586 558.781,-353.901 620,-334.294 628.031,-331.721 629.676,-329.644 638,-328.294 767.563,-307.268 805.539,-321.132 932,-356.294 958.583,-363.685 988.483,-373.519 1009.56,-380.709"/>
<polygon fill="#9a32cd" stroke="#9a32cd" points="442.411,-385.529 433.844,-391.763 444.429,-392.232 442.411,-385.529"/>
<text text-anchor="middle" x="725" y="-331.294" font-family="Helvetica,sans-Serif" font-size="10.00"> myEnvironment</text>
</g>
<!-- Node4&#45;&gt;Node21 -->
<g id="edge26" class="edge"><title>Node4&#45;&gt;Node21</title>
<path fill="none" stroke="#9a32cd" stroke-dasharray="5,2" d="M414.495,-383.365C431.672,-359.433 464.302,-316.453 498,-285.294 535.249,-250.851 665.208,-164.792 709.264,-135.914"/>
<polygon fill="#9a32cd" stroke="#9a32cd" points="411.627,-381.358 408.698,-391.54 417.338,-385.407 411.627,-381.358"/>
<text text-anchor="middle" x="559" y="-288.294" font-family="Helvetica,sans-Serif" font-size="10.00"> myExecutionParameters</text>
</g>
<!-- Node5 -->
<g id="node5" class="node"><title>Node5</title>
<polygon fill="white" stroke="#bfbfbf" points="51.5,-450.794 51.5,-469.794 122.5,-469.794 122.5,-450.794 51.5,-450.794"/>
<text text-anchor="middle" x="87" y="-457.794" font-family="Helvetica,sans-Serif" font-size="10.00">Observable</text>
</g>
<!-- Node5&#45;&gt;Node4 -->
<g id="edge4" class="edge"><title>Node5&#45;&gt;Node4</title>
<path fill="none" stroke="midnightblue" d="M132.655,-454.575C176.497,-448.652 245.167,-438.553 304,-426.294 324.907,-421.937 348.084,-415.935 366.426,-410.904"/>
<polygon fill="midnightblue" stroke="midnightblue" points="132.056,-451.124 122.607,-455.918 132.983,-458.062 132.056,-451.124"/>
</g>
<!-- Node6 -->
<g id="node6" class="node"><title>Node6</title>
<polygon fill="white" stroke="#bfbfbf" points="0,-401.294 0,-431.294 174,-431.294 174,-401.294 0,-401.294"/>
<text text-anchor="start" x="8" y="-419.294" font-family="Helvetica,sans-Serif" font-size="10.00">Map&lt; String, model.instructions.</text>
<text text-anchor="middle" x="87" y="-408.294" font-family="Helvetica,sans-Serif" font-size="10.00">Instruction &gt;</text>
</g>
<!-- Node6&#45;&gt;Node4 -->
<g id="edge5" class="edge"><title>Node6&#45;&gt;Node4</title>
<path fill="none" stroke="#9a32cd" stroke-dasharray="5,2" d="M184.305,-411.664C228.685,-409.53 280.655,-407.031 322.461,-405.021"/>
<polygon fill="#9a32cd" stroke="#9a32cd" points="183.902,-408.179 174.081,-412.155 184.238,-415.171 183.902,-408.179"/>
<text text-anchor="middle" x="248" y="-414.294" font-family="Helvetica,sans-Serif" font-size="10.00"> myUserInstructionMap</text>
</g>
<!-- Node7 -->
<g id="node7" class="node"><title>Node7</title>
<polygon fill="white" stroke="#bfbfbf" points="23,-362.794 23,-381.794 151,-381.794 151,-362.794 23,-362.794"/>
<text text-anchor="middle" x="87" y="-369.794" font-family="Helvetica,sans-Serif" font-size="10.00">Map&lt; String, Double &gt;</text>
</g>
<!-- Node7&#45;&gt;Node4 -->
<g id="edge6" class="edge"><title>Node7&#45;&gt;Node4</title>
<path fill="none" stroke="#9a32cd" stroke-dasharray="5,2" d="M161.444,-378.46C203.246,-382.043 256.573,-386.738 304,-391.294 310.005,-391.87 316.219,-392.483 322.466,-393.109"/>
<polygon fill="#9a32cd" stroke="#9a32cd" points="161.611,-374.961 151.349,-377.597 161.015,-381.936 161.611,-374.961"/>
<text text-anchor="middle" x="248" y="-394.294" font-family="Helvetica,sans-Serif" font-size="10.00"> myVariableMap</text>
</g>
<!-- Node8 -->
<g id="node8" class="node"><title>Node8</title>
<polygon fill="white" stroke="#bfbfbf" points="333,-489.294 333,-519.294 469,-519.294 469,-489.294 333,-489.294"/>
<text text-anchor="start" x="341" y="-507.294" font-family="Helvetica,sans-Serif" font-size="10.00">List&lt; model.instructions.</text>
<text text-anchor="middle" x="401" y="-496.294" font-family="Helvetica,sans-Serif" font-size="10.00">Instruction &gt;</text>
</g>
<!-- Node8&#45;&gt;Node2 -->
<g id="edge7" class="edge"><title>Node8&#45;&gt;Node2</title>
<path fill="none" stroke="#9a32cd" stroke-dasharray="5,2" d="M479.307,-505.734C529.736,-506.674 595.34,-507.896 645.923,-508.839"/>
<polygon fill="#9a32cd" stroke="#9a32cd" points="479.173,-502.231 469.11,-505.544 479.043,-509.23 479.173,-502.231"/>
<text text-anchor="middle" x="559" y="-512.294" font-family="Helvetica,sans-Serif" font-size="10.00"> myDependencies</text>
</g>
<!-- Node9&#45;&gt;Node2 -->
<g id="edge8" class="edge"><title>Node9&#45;&gt;Node2</title>
<path fill="none" stroke="#9a32cd" stroke-dasharray="5,2" d="M416.965,-231.615C434.421,-250.629 465.109,-280.542 498,-296.294 547.765,-320.126 582.617,-278.71 620,-319.294 672.074,-375.827 586.811,-433.957 638,-491.294 641.36,-495.058 645.284,-498.167 649.569,-500.728"/>
<polygon fill="#9a32cd" stroke="#9a32cd" points="419.399,-229.086 410.121,-223.971 414.184,-233.756 419.399,-229.086"/>
<text text-anchor="middle" x="559" y="-322.294" font-family="Helvetica,sans-Serif" font-size="10.00"> myView</text>
</g>
<!-- Node9&#45;&gt;Node21 -->
<g id="edge28" class="edge"><title>Node9&#45;&gt;Node21</title>
<path fill="none" stroke="#9a32cd" stroke-dasharray="5,2" d="M418.196,-197.401C435.953,-180.117 466.178,-154.166 498,-142.294 560.097,-119.126 638.36,-119.525 684.605,-122.504"/>
<polygon fill="#9a32cd" stroke="#9a32cd" points="415.546,-195.102 410.954,-204.65 420.498,-200.049 415.546,-195.102"/>
<text text-anchor="middle" x="559" y="-145.294" font-family="Helvetica,sans-Serif" font-size="10.00"> mySLogoView</text>
</g>
<!-- Node10 -->
<g id="node10" class="node"><title>Node10</title>
<g id="a_node10"><a xlink:href="../../da/d64/classview_1_1_workspace.html" target="_top" xlink:title="view.Workspace">
<polygon fill="white" stroke="black" points="1238,-508.794 1238,-527.794 1328,-527.794 1328,-508.794 1238,-508.794"/>
<text text-anchor="middle" x="1283" y="-515.794" font-family="Helvetica,sans-Serif" font-size="10.00">view.Workspace</text>
</a>
</g>
</g>
<!-- Node10&#45;&gt;Node9 -->
<g id="edge10" class="edge"><title>Node10&#45;&gt;Node9</title>
<path fill="none" stroke="#9a32cd" stroke-dasharray="5,2" d="M1282.47,-498.719C1282.28,-457.725 1275.52,-362.804 1220,-316.294 1173.66,-277.478 1008.97,-296.584 950,-283.294 941.774,-281.439 940.192,-279.293 932,-277.294 879.542,-264.49 865.528,-265.399 812,-258.294 679.47,-240.701 522.114,-225.361 446.68,-218.349"/>
<polygon fill="#9a32cd" stroke="#9a32cd" points="1278.97,-498.737 1282.38,-508.767 1285.97,-498.797 1278.97,-498.737"/>
<text text-anchor="middle" x="881" y="-280.294" font-family="Helvetica,sans-Serif" font-size="10.00"> myWorkspace</text>
</g>
<!-- Node33 -->
<g id="node33" class="node"><title>Node33</title>
<g id="a_node33"><a xlink:href="../../de/d0a/classview_1_1_drawer.html" target="_top" xlink:title="view.Drawer">
<polygon fill="white" stroke="black" points="1434.5,-101.794 1434.5,-120.794 1507.5,-120.794 1507.5,-101.794 1434.5,-101.794"/>
<text text-anchor="middle" x="1471" y="-108.794" font-family="Helvetica,sans-Serif" font-size="10.00">view.Drawer</text>
</a>
</g>
</g>
<!-- Node10&#45;&gt;Node33 -->
<g id="edge43" class="edge"><title>Node10&#45;&gt;Node33</title>
<path fill="none" stroke="#9a32cd" stroke-dasharray="5,2" d="M1292.62,-499.435C1325.35,-427.814 1441.32,-174.05 1465.54,-121.043"/>
<polygon fill="#9a32cd" stroke="#9a32cd" points="1289.39,-498.084 1288.41,-508.634 1295.75,-500.994 1289.39,-498.084"/>
<text text-anchor="middle" x="1381" y="-378.294" font-family="Helvetica,sans-Serif" font-size="10.00"> myWorkspace</text>
</g>
<!-- Node11 -->
<g id="node11" class="node"><title>Node11</title>
<polygon fill="white" stroke="#bfbfbf" points="1004.5,-432.794 1004.5,-451.794 1071.5,-451.794 1071.5,-432.794 1004.5,-432.794"/>
<text text-anchor="middle" x="1038" y="-439.794" font-family="Helvetica,sans-Serif" font-size="10.00">StackPane</text>
</g>
<!-- Node11&#45;&gt;Node10 -->
<g id="edge11" class="edge"><title>Node11&#45;&gt;Node10</title>
<path fill="none" stroke="midnightblue" d="M1081.88,-450.454C1096.03,-453.466 1111.78,-457.164 1126,-461.294 1174.04,-475.247 1228.62,-496.469 1258.81,-508.697"/>
<polygon fill="midnightblue" stroke="midnightblue" points="1082.4,-446.988 1071.9,-448.385 1080.98,-453.842 1082.4,-446.988"/>
</g>
<!-- Node12 -->
<g id="node12" class="node"><title>Node12</title>
<polygon fill="white" stroke="#bfbfbf" points="40.5,-538.794 40.5,-557.794 133.5,-557.794 133.5,-538.794 40.5,-538.794"/>
<text text-anchor="middle" x="87" y="-545.794" font-family="Helvetica,sans-Serif" font-size="10.00">ResourceBundle</text>
</g>
<!-- Node12&#45;&gt;Node9 -->
<g id="edge32" class="edge"><title>Node12&#45;&gt;Node9</title>
<path fill="none" stroke="#9a32cd" stroke-dasharray="5,2" d="M127.256,-535.245C174.991,-517.547 255.212,-481.642 304,-426.294 317.971,-410.444 313.549,-401.659 322,-382.294 348.496,-321.58 382.857,-249.794 395.268,-224.068"/>
<polygon fill="#9a32cd" stroke="#9a32cd" points="125.797,-532.051 117.586,-538.746 128.18,-538.633 125.797,-532.051"/>
<text text-anchor="middle" x="248" y="-508.294" font-family="Helvetica,sans-Serif" font-size="10.00"> myResources</text>
</g>
<!-- Node12&#45;&gt;Node10 -->
<g id="edge12" class="edge"><title>Node12&#45;&gt;Node10</title>
<path fill="none" stroke="#9a32cd" stroke-dasharray="5,2" d="M118.126,-562.103C172.974,-585.943 293.327,-632.294 400,-632.294 400,-632.294 400,-632.294 1039,-632.294 1120.93,-632.294 1150.07,-639.994 1220,-597.294 1248.27,-580.03 1268.73,-544.875 1277.4,-527.896"/>
<polygon fill="#9a32cd" stroke="#9a32cd" points="119.227,-558.763 108.665,-557.929 116.402,-565.168 119.227,-558.763"/>
<text text-anchor="middle" x="725" y="-635.294" font-family="Helvetica,sans-Serif" font-size="10.00"> myResources</text>
</g>
<!-- Node12&#45;&gt;Node17 -->
<g id="edge20" class="edge"><title>Node12&#45;&gt;Node17</title>
<path fill="none" stroke="#9a32cd" stroke-dasharray="5,2" d="M143.926,-554.096C266.685,-565.263 568.229,-584.079 812,-529.294 868.885,-516.509 892.637,-519.304 932,-476.294 948.795,-457.942 932.721,-441.191 950,-423.294 963.016,-409.812 982.099,-401.773 999.078,-397.012"/>
<polygon fill="#9a32cd" stroke="#9a32cd" points="143.934,-550.582 133.653,-553.142 143.286,-557.552 143.934,-550.582"/>
<text text-anchor="middle" x="559" y="-568.294" font-family="Helvetica,sans-Serif" font-size="10.00"> myResources</text>
</g>
<!-- Node13 -->
<g id="node13" class="node"><title>Node13</title>
<g id="a_node13"><a xlink:href="../../d8/df7/classview_1_1_turtle_view.html" target="_top" xlink:title="view.TurtleView">
<polygon fill="white" stroke="black" points="995,-508.794 995,-527.794 1081,-527.794 1081,-508.794 995,-508.794"/>
<text text-anchor="middle" x="1038" y="-515.794" font-family="Helvetica,sans-Serif" font-size="10.00">view.TurtleView</text>
</a>
</g>
</g>
<!-- Node13&#45;&gt;Node10 -->
<g id="edge13" class="edge"><title>Node13&#45;&gt;Node10</title>
<path fill="none" stroke="#9a32cd" stroke-dasharray="5,2" d="M1091.17,-518.294C1134.78,-518.294 1196.3,-518.294 1237.59,-518.294"/>
<polygon fill="#9a32cd" stroke="#9a32cd" points="1091.05,-514.794 1081.05,-518.294 1091.05,-521.794 1091.05,-514.794"/>
<text text-anchor="middle" x="1182" y="-521.294" font-family="Helvetica,sans-Serif" font-size="10.00"> myActiveTurtle</text>
</g>
<!-- Node14 -->
<g id="node14" class="node"><title>Node14</title>
<polygon fill="white" stroke="#bfbfbf" points="691,-576.794 691,-595.794 759,-595.794 759,-576.794 691,-576.794"/>
<text text-anchor="middle" x="725" y="-583.794" font-family="Helvetica,sans-Serif" font-size="10.00">ImageView</text>
</g>
<!-- Node14&#45;&gt;Node13 -->
<g id="edge14" class="edge"><title>Node14&#45;&gt;Node13</title>
<path fill="none" stroke="midnightblue" d="M769.333,-590.963C813.358,-593.589 881.997,-591.684 932,-562.294 943.804,-555.356 938.554,-544.807 950,-537.294 963.183,-528.64 979.672,-523.866 994.74,-521.253"/>
<polygon fill="midnightblue" stroke="midnightblue" points="769.462,-587.463 759.242,-590.255 768.973,-594.446 769.462,-587.463"/>
</g>
<!-- Node15 -->
<g id="node15" class="node"><title>Node15</title>
<polygon fill="white" stroke="#bfbfbf" points="970,-661.294 970,-691.294 1106,-691.294 1106,-661.294 970,-661.294"/>
<text text-anchor="start" x="978" y="-679.294" font-family="Helvetica,sans-Serif" font-size="10.00">Map&lt; Integer, view.Turtle</text>
<text text-anchor="middle" x="1038" y="-668.294" font-family="Helvetica,sans-Serif" font-size="10.00">View &gt;</text>
</g>
<!-- Node15&#45;&gt;Node10 -->
<g id="edge15" class="edge"><title>Node15&#45;&gt;Node10</title>
<path fill="none" stroke="#9a32cd" stroke-dasharray="5,2" d="M1116.42,-678.986C1151.07,-676.528 1190.63,-668.253 1220,-646.294 1260.54,-615.984 1275.91,-552.137 1280.43,-527.901"/>
<polygon fill="#9a32cd" stroke="#9a32cd" points="1116.11,-675.498 1106.32,-679.552 1116.5,-682.487 1116.11,-675.498"/>
<text text-anchor="middle" x="1182" y="-678.294" font-family="Helvetica,sans-Serif" font-size="10.00"> myTurtles</text>
</g>
<!-- Node16 -->
<g id="node16" class="node"><title>Node16</title>
<polygon fill="white" stroke="#bfbfbf" points="1015,-584.794 1015,-603.794 1061,-603.794 1061,-584.794 1015,-584.794"/>
<text text-anchor="middle" x="1038" y="-591.794" font-family="Helvetica,sans-Serif" font-size="10.00">Group</text>
</g>
<!-- Node16&#45;&gt;Node10 -->
<g id="edge16" class="edge"><title>Node16&#45;&gt;Node10</title>
<path fill="none" stroke="#9a32cd" stroke-dasharray="5,2" d="M1071.51,-592.194C1108.63,-588.897 1170.62,-580.622 1220,-560.294 1239.48,-552.275 1259.13,-537.586 1270.94,-527.88"/>
<polygon fill="#9a32cd" stroke="#9a32cd" points="1070.96,-588.727 1061.27,-593.032 1071.53,-595.704 1070.96,-588.727"/>
<text text-anchor="middle" x="1182" y="-585.294" font-family="Helvetica,sans-Serif" font-size="10.00"> myLines</text>
</g>
<!-- Node17&#45;&gt;Node9 -->
<g id="edge45" class="edge"><title>Node17&#45;&gt;Node9</title>
<path fill="none" stroke="#9a32cd" stroke-dasharray="5,2" d="M1016.29,-374.674C995.891,-360.037 963.323,-338.617 932,-326.294 748.768,-254.205 690.212,-280.015 498,-237.294 479.095,-233.092 458.175,-228.118 440.702,-223.873"/>
<polygon fill="#9a32cd" stroke="#9a32cd" points="1014.36,-377.602 1024.5,-380.675 1018.49,-371.95 1014.36,-377.602"/>
<text text-anchor="middle" x="725" y="-291.294" font-family="Helvetica,sans-Serif" font-size="10.00"> mySidebar</text>
</g>
<!-- Node17&#45;&gt;Node10 -->
<g id="edge17" class="edge"><title>Node17&#45;&gt;Node10</title>
<path fill="none" stroke="#9a32cd" stroke-dasharray="5,2" d="M1086.51,-400.278C1124.72,-409.794 1178.65,-426.675 1220,-453.294 1243.6,-468.489 1264.67,-494.451 1275.09,-508.526"/>
<polygon fill="#9a32cd" stroke="#9a32cd" points="1087.21,-396.846 1076.67,-397.902 1085.57,-403.651 1087.21,-396.846"/>
<text text-anchor="middle" x="1182" y="-456.294" font-family="Helvetica,sans-Serif" font-size="10.00"> mySidebar</text>
</g>
<!-- Node27 -->
<g id="node27" class="node"><title>Node27</title>
<g id="a_node27"><a xlink:href="../../da/dc8/classview_1_1_editor.html" target="_top" xlink:title="view.Editor">
<polygon fill="white" stroke="black" points="1249.5,-197.794 1249.5,-216.794 1316.5,-216.794 1316.5,-197.794 1249.5,-197.794"/>
<text text-anchor="middle" x="1283" y="-204.794" font-family="Helvetica,sans-Serif" font-size="10.00">view.Editor</text>
</a>
</g>
</g>
<!-- Node17&#45;&gt;Node27 -->
<g id="edge38" class="edge"><title>Node17&#45;&gt;Node27</title>
<path fill="none" stroke="#9a32cd" stroke-dasharray="5,2" d="M1063.28,-375.158C1098.79,-352.661 1166.5,-308.404 1220,-265.294 1239.51,-249.572 1260.45,-229.154 1272.32,-217.21"/>
<polygon fill="#9a32cd" stroke="#9a32cd" points="1061.16,-372.359 1054.56,-380.652 1064.89,-378.281 1061.16,-372.359"/>
<text text-anchor="middle" x="1182" y="-323.294" font-family="Helvetica,sans-Serif" font-size="10.00"> mySidebar</text>
</g>
<!-- Node18 -->
<g id="node18" class="node"><title>Node18</title>
<polygon fill="white" stroke="#bfbfbf" points="704.5,-462.794 704.5,-481.794 745.5,-481.794 745.5,-462.794 704.5,-462.794"/>
<text text-anchor="middle" x="725" y="-469.794" font-family="Helvetica,sans-Serif" font-size="10.00">VBox</text>
</g>
<!-- Node18&#45;&gt;Node17 -->
<g id="edge18" class="edge"><title>Node18&#45;&gt;Node17</title>
<path fill="none" stroke="midnightblue" d="M755.924,-475.656C798.167,-478.931 876.333,-479.465 932,-447.294 943.544,-440.622 939.345,-431.309 950,-423.294 964.459,-412.417 982.918,-404.742 999.111,-399.547"/>
<polygon fill="midnightblue" stroke="midnightblue" points="756.017,-472.151 745.748,-474.759 755.402,-479.124 756.017,-472.151"/>
</g>
<!-- Node19 -->
<g id="node19" class="node"><title>Node19</title>
<polygon fill="white" stroke="#bfbfbf" points="638.5,-424.794 638.5,-443.794 811.5,-443.794 811.5,-424.794 638.5,-424.794"/>
<text text-anchor="middle" x="725" y="-431.794" font-family="Helvetica,sans-Serif" font-size="10.00">ObservableList&lt; view.Property &gt;</text>
</g>
<!-- Node19&#45;&gt;Node17 -->
<g id="edge19" class="edge"><title>Node19&#45;&gt;Node17</title>
<path fill="none" stroke="#9a32cd" stroke-dasharray="5,2" d="M821.856,-431.97C856.727,-430.025 896.326,-426.53 932,-420.294 958.893,-415.592 988.754,-406.688 1009.73,-399.796"/>
<polygon fill="#9a32cd" stroke="#9a32cd" points="821.479,-428.485 811.676,-432.502 821.845,-435.476 821.479,-428.485"/>
<text text-anchor="middle" x="881" y="-435.294" font-family="Helvetica,sans-Serif" font-size="10.00"> variablesList</text>
</g>
<!-- Node20 -->
<g id="node20" class="node"><title>Node20</title>
<polygon fill="white" stroke="#bfbfbf" points="651,-386.794 651,-405.794 799,-405.794 799,-386.794 651,-386.794"/>
<text text-anchor="middle" x="725" y="-393.794" font-family="Helvetica,sans-Serif" font-size="10.00">TableView&lt; view.Property &gt;</text>
</g>
<!-- Node20&#45;&gt;Node17 -->
<g id="edge22" class="edge"><title>Node20&#45;&gt;Node17</title>
<path fill="none" stroke="#9a32cd" stroke-dasharray="5,2" d="M809.423,-394.684C871.123,-393.494 952.262,-391.928 999.123,-391.024"/>
<polygon fill="#9a32cd" stroke="#9a32cd" points="809.239,-391.187 799.309,-394.879 809.375,-398.186 809.239,-391.187"/>
<text text-anchor="middle" x="881" y="-408.294" font-family="Helvetica,sans-Serif" font-size="10.00"> turtlePropertiesTable</text>
<text text-anchor="middle" x="881" y="-397.294" font-family="Helvetica,sans-Serif" font-size="10.00">variablesTable</text>
</g>
<!-- Node21&#45;&gt;Node9 -->
<g id="edge40" class="edge"><title>Node21&#45;&gt;Node9</title>
<path fill="none" stroke="#9a32cd" stroke-dasharray="5,2" d="M679.625,-138.52C661.242,-143.401 639.66,-148.894 620,-153.294 566.155,-165.344 551.004,-160.959 498,-176.294 471.483,-183.965 442.129,-196.158 422.947,-204.657"/>
<polygon fill="#9a32cd" stroke="#9a32cd" points="680.721,-141.85 689.476,-135.883 678.911,-135.088 680.721,-141.85"/>
<text text-anchor="middle" x="559" y="-179.294" font-family="Helvetica,sans-Serif" font-size="10.00"> myParser</text>
</g>
<!-- Node21&#45;&gt;Node17 -->
<g id="edge23" class="edge"><title>Node21&#45;&gt;Node17</title>
<path fill="none" stroke="#9a32cd" stroke-dasharray="5,2" d="M775.436,-126.633C829.294,-128.109 910.649,-133.939 932,-155.294 972.619,-195.919 927.038,-230.634 950,-283.294 968.087,-324.772 1006.89,-363.326 1025.96,-380.666"/>
<polygon fill="#9a32cd" stroke="#9a32cd" points="775.467,-123.133 765.388,-126.399 775.304,-130.131 775.467,-123.133"/>
<text text-anchor="middle" x="881" y="-158.294" font-family="Helvetica,sans-Serif" font-size="10.00"> myParser</text>
</g>
<!-- Node21&#45;&gt;Node27 -->
<g id="edge36" class="edge"><title>Node21&#45;&gt;Node27</title>
<path fill="none" stroke="#9a32cd" stroke-dasharray="5,2" d="M775.509,-119.635C851.55,-110.733 1001.37,-98.447 1126,-120.294 1169.76,-127.964 1181.61,-131.943 1220,-154.294 1240.8,-166.405 1261.32,-185.803 1272.75,-197.469"/>
<polygon fill="#9a32cd" stroke="#9a32cd" points="774.79,-116.196 765.279,-120.865 775.626,-123.146 774.79,-116.196"/>
<text text-anchor="middle" x="1038" y="-123.294" font-family="Helvetica,sans-Serif" font-size="10.00"> myParser</text>
</g>
<!-- Node22 -->
<g id="node22" class="node"><title>Node22</title>
<polygon fill="white" stroke="#bfbfbf" points="345,-23.2936 345,-53.2936 457,-53.2936 457,-23.2936 345,-23.2936"/>
<text text-anchor="start" x="353" y="-41.2936" font-family="Helvetica,sans-Serif" font-size="10.00">List&lt; Entry&lt; String,</text>
<text text-anchor="middle" x="401" y="-30.2936" font-family="Helvetica,sans-Serif" font-size="10.00"> Pattern &gt; &gt;</text>
</g>
<!-- Node22&#45;&gt;Node21 -->
<g id="edge25" class="edge"><title>Node22&#45;&gt;Node21</title>
<path fill="none" stroke="#9a32cd" stroke-dasharray="5,2" d="M467.302,-37.0846C511.516,-38.1317 570.64,-43.2192 620,-60.2936 657.186,-73.1566 694.643,-101.625 712.772,-116.621"/>
<polygon fill="#9a32cd" stroke="#9a32cd" points="467.312,-33.5843 457.253,-36.9097 467.19,-40.5833 467.312,-33.5843"/>
<text text-anchor="middle" x="559" y="-63.2936" font-family="Helvetica,sans-Serif" font-size="10.00"> myPatterns</text>
</g>
<!-- Node23 -->
<g id="node23" class="node"><title>Node23</title>
<polygon fill="white" stroke="#bfbfbf" points="340,-72.7936 340,-91.7936 462,-91.7936 462,-72.7936 340,-72.7936"/>
<text text-anchor="middle" x="401" y="-79.7936" font-family="Helvetica,sans-Serif" font-size="10.00">Map&lt; String, String &gt;</text>
</g>
<!-- Node23&#45;&gt;Node21 -->
<g id="edge27" class="edge"><title>Node23&#45;&gt;Node21</title>
<path fill="none" stroke="#9a32cd" stroke-dasharray="5,2" d="M472.403,-75.7889C515.448,-73.4921 571.392,-73.5252 620,-83.2936 651.989,-89.7222 686.5,-106.062 706.629,-116.647"/>
<polygon fill="#9a32cd" stroke="#9a32cd" points="472.087,-72.3014 462.31,-76.3824 472.498,-79.2893 472.087,-72.3014"/>
<text text-anchor="middle" x="559" y="-86.2936" font-family="Helvetica,sans-Serif" font-size="10.00"> myCommandMap</text>
</g>
<!-- Node24 -->
<g id="node24" class="node"><title>Node24</title>
<polygon fill="white" stroke="#bfbfbf" points="656,-348.794 656,-367.794 794,-367.794 794,-348.794 656,-348.794"/>
<text text-anchor="middle" x="725" y="-355.794" font-family="Helvetica,sans-Serif" font-size="10.00">ObservableList&lt; String &gt;</text>
</g>
<!-- Node24&#45;&gt;Node17 -->
<g id="edge29" class="edge"><title>Node24&#45;&gt;Node17</title>
<path fill="none" stroke="#9a32cd" stroke-dasharray="5,2" d="M804.57,-358.56C843.106,-359.495 890.127,-361.834 932,-367.294 955.131,-370.309 980.707,-375.864 1000.83,-380.759"/>
<polygon fill="#9a32cd" stroke="#9a32cd" points="804.526,-355.058 794.452,-358.342 804.375,-362.057 804.526,-355.058"/>
<text text-anchor="middle" x="881" y="-381.294" font-family="Helvetica,sans-Serif" font-size="10.00"> commandItems</text>
<text text-anchor="middle" x="881" y="-370.294" font-family="Helvetica,sans-Serif" font-size="10.00">historyItems</text>
</g>
<!-- Node25 -->
<g id="node25" class="node"><title>Node25</title>
<polygon fill="white" stroke="#bfbfbf" points="1006.5,-546.794 1006.5,-565.794 1069.5,-565.794 1069.5,-546.794 1006.5,-546.794"/>
<text text-anchor="middle" x="1038" y="-553.794" font-family="Helvetica,sans-Serif" font-size="10.00">Rectangle</text>
</g>
<!-- Node25&#45;&gt;Node10 -->
<g id="edge30" class="edge"><title>Node25&#45;&gt;Node10</title>
<path fill="none" stroke="#9a32cd" stroke-dasharray="5,2" d="M1079.91,-552.404C1116.73,-548.594 1172.22,-542.081 1220,-533.294 1228.28,-531.771 1237.1,-529.831 1245.43,-527.855"/>
<polygon fill="#9a32cd" stroke="#9a32cd" points="1079.18,-548.961 1069.58,-553.453 1079.89,-555.925 1079.18,-548.961"/>
<text text-anchor="middle" x="1182" y="-548.294" font-family="Helvetica,sans-Serif" font-size="10.00"> myBackground</text>
</g>
<!-- Node26 -->
<g id="node26" class="node"><title>Node26</title>
<polygon fill="white" stroke="#bfbfbf" points="64.5,-185.794 64.5,-204.794 109.5,-204.794 109.5,-185.794 64.5,-185.794"/>
<text text-anchor="middle" x="87" y="-192.794" font-family="Helvetica,sans-Serif" font-size="10.00">Stage</text>
</g>
<!-- Node26&#45;&gt;Node9 -->
<g id="edge31" class="edge"><title>Node26&#45;&gt;Node9</title>
<path fill="none" stroke="#9a32cd" stroke-dasharray="5,2" d="M119.699,-194.824C161.859,-194.474 238.669,-194.794 304,-200.294 320.784,-201.706 339.103,-204.152 355.198,-206.607"/>
<polygon fill="#9a32cd" stroke="#9a32cd" points="119.471,-191.326 109.507,-194.927 119.542,-198.325 119.471,-191.326"/>
<text text-anchor="middle" x="248" y="-203.294" font-family="Helvetica,sans-Serif" font-size="10.00"> myStage</text>
</g>
<!-- Node27&#45;&gt;Node9 -->
<g id="edge33" class="edge"><title>Node27&#45;&gt;Node9</title>
<path fill="none" stroke="#9a32cd" stroke-dasharray="5,2" d="M1239.17,-206.647C1173.2,-205.686 1042.75,-203.926 932,-203.294 886.667,-203.035 875.33,-202.711 830,-203.294 690.085,-205.091 524.506,-210.193 446.665,-212.768"/>
<polygon fill="#9a32cd" stroke="#9a32cd" points="1239.14,-210.146 1249.19,-206.794 1239.24,-203.147 1239.14,-210.146"/>
<text text-anchor="middle" x="881" y="-206.294" font-family="Helvetica,sans-Serif" font-size="10.00"> myEditor</text>
</g>
<!-- Node28 -->
<g id="node28" class="node"><title>Node28</title>
<polygon fill="white" stroke="#bfbfbf" points="1017,-140.794 1017,-159.794 1059,-159.794 1059,-140.794 1017,-140.794"/>
<text text-anchor="middle" x="1038" y="-147.794" font-family="Helvetica,sans-Serif" font-size="10.00">HBox</text>
</g>
<!-- Node28&#45;&gt;Node27 -->
<g id="edge34" class="edge"><title>Node28&#45;&gt;Node27</title>
<path fill="none" stroke="midnightblue" d="M1069.06,-151.02C1105.56,-152.637 1168.63,-157.811 1220,-174.294 1237.18,-179.807 1255.22,-189.975 1267.38,-197.573"/>
<polygon fill="midnightblue" stroke="midnightblue" points="1069.18,-147.522 1059.06,-150.638 1068.92,-154.517 1069.18,-147.522"/>
</g>
<!-- Node29 -->
<g id="node29" class="node"><title>Node29</title>
<polygon fill="white" stroke="#bfbfbf" points="1013.5,-254.794 1013.5,-273.794 1062.5,-273.794 1062.5,-254.794 1013.5,-254.794"/>
<text text-anchor="middle" x="1038" y="-261.794" font-family="Helvetica,sans-Serif" font-size="10.00">Button</text>
</g>
<!-- Node29&#45;&gt;Node27 -->
<g id="edge35" class="edge"><title>Node29&#45;&gt;Node27</title>
<path fill="none" stroke="#9a32cd" stroke-dasharray="5,2" d="M1072.69,-260.846C1109.43,-256.552 1169.71,-247.936 1220,-233.294 1234.57,-229.051 1250.33,-222.413 1262.31,-216.906"/>
<polygon fill="#9a32cd" stroke="#9a32cd" points="1072.07,-257.393 1062.53,-261.993 1072.86,-264.349 1072.07,-257.393"/>
<text text-anchor="middle" x="1182" y="-253.294" font-family="Helvetica,sans-Serif" font-size="10.00"> runButton</text>
</g>
<!-- Node30 -->
<g id="node30" class="node"><title>Node30</title>
<polygon fill="white" stroke="#bfbfbf" points="1009,-216.794 1009,-235.794 1067,-235.794 1067,-216.794 1009,-216.794"/>
<text text-anchor="middle" x="1038" y="-223.794" font-family="Helvetica,sans-Serif" font-size="10.00">TextArea</text>
</g>
<!-- Node30&#45;&gt;Node27 -->
<g id="edge37" class="edge"><title>Node30&#45;&gt;Node27</title>
<path fill="none" stroke="#9a32cd" stroke-dasharray="5,2" d="M1077.52,-223.282C1124.92,-219.575 1204.58,-213.347 1249.19,-209.859"/>
<polygon fill="#9a32cd" stroke="#9a32cd" points="1077.05,-219.808 1067.35,-224.077 1077.59,-226.787 1077.05,-219.808"/>
<text text-anchor="middle" x="1182" y="-221.294" font-family="Helvetica,sans-Serif" font-size="10.00"> textEditor</text>
</g>
<!-- Node31 -->
<g id="node31" class="node"><title>Node31</title>
<polygon fill="white" stroke="#bfbfbf" points="27.5,-261.794 27.5,-280.794 146.5,-280.794 146.5,-261.794 27.5,-261.794"/>
<text text-anchor="middle" x="87" y="-268.794" font-family="Helvetica,sans-Serif" font-size="10.00">Map&lt; String, Node &gt;</text>
</g>
<!-- Node31&#45;&gt;Node9 -->
<g id="edge39" class="edge"><title>Node31&#45;&gt;Node9</title>
<path fill="none" stroke="#9a32cd" stroke-dasharray="5,2" d="M156.622,-264.746C199.303,-260.016 255.167,-252.632 304,-242.294 326.929,-237.439 352.372,-229.918 371.301,-223.893"/>
<polygon fill="#9a32cd" stroke="#9a32cd" points="156.185,-261.273 146.621,-265.832 156.941,-268.232 156.185,-261.273"/>
<text text-anchor="middle" x="248" y="-264.294" font-family="Helvetica,sans-Serif" font-size="10.00"> variables</text>
</g>
<!-- Node32 -->
<g id="node32" class="node"><title>Node32</title>
<polygon fill="white" stroke="#bfbfbf" points="46.5,-223.794 46.5,-242.794 127.5,-242.794 127.5,-223.794 46.5,-223.794"/>
<text text-anchor="middle" x="87" y="-230.794" font-family="Helvetica,sans-Serif" font-size="10.00">Dimension2D</text>
</g>
<!-- Node32&#45;&gt;Node9 -->
<g id="edge41" class="edge"><title>Node32&#45;&gt;Node9</title>
<path fill="none" stroke="#9a32cd" stroke-dasharray="5,2" d="M137.5,-230.279C197.45,-226.628 297.55,-220.533 355.269,-217.018"/>
<polygon fill="#9a32cd" stroke="#9a32cd" points="137.284,-226.786 127.515,-230.887 137.709,-233.773 137.284,-226.786"/>
<text text-anchor="middle" x="248" y="-230.294" font-family="Helvetica,sans-Serif" font-size="10.00"> myDimensions</text>
</g>
<!-- Node33&#45;&gt;Node9 -->
<g id="edge42" class="edge"><title>Node33&#45;&gt;Node9</title>
<path fill="none" stroke="#9a32cd" stroke-dasharray="5,2" d="M1452.61,-95.0526C1421.4,-67.6755 1352.72,-15.2936 1284,-15.2936 724,-15.2936 724,-15.2936 724,-15.2936 623.163,-15.2936 575.357,29.3897 498,-35.2936 474.675,-54.7971 492.819,-73.7232 480,-101.294 460.603,-143.012 426.12,-186.053 410.322,-204.711"/>
<polygon fill="#9a32cd" stroke="#9a32cd" points="1450.27,-97.6584 1460.05,-101.738 1454.95,-92.4511 1450.27,-97.6584"/>
<text text-anchor="middle" x="1038" y="-18.2936" font-family="Helvetica,sans-Serif" font-size="10.00"> drawer</text>
</g>
<!-- Node34 -->
<g id="node34" class="node"><title>Node34</title>
<polygon fill="white" stroke="#bfbfbf" points="1262.5,-101.794 1262.5,-120.794 1303.5,-120.794 1303.5,-101.794 1262.5,-101.794"/>
<text text-anchor="middle" x="1283" y="-108.794" font-family="Helvetica,sans-Serif" font-size="10.00">Color</text>
</g>
<!-- Node34&#45;&gt;Node33 -->
<g id="edge44" class="edge"><title>Node34&#45;&gt;Node33</title>
<path fill="none" stroke="#9a32cd" stroke-dasharray="5,2" d="M1313.86,-111.294C1346.64,-111.294 1399.27,-111.294 1434.23,-111.294"/>
<polygon fill="#9a32cd" stroke="#9a32cd" points="1313.55,-107.794 1303.55,-111.294 1313.55,-114.794 1313.55,-107.794"/>
<text text-anchor="middle" x="1381" y="-114.294" font-family="Helvetica,sans-Serif" font-size="10.00"> myColor</text>
</g>
</g>
</svg>
        <g id="navigator" transform="translate(0 0)" fill="#404254">
                <rect fill="#f2f5e9" fill-opacity="0.5" stroke="#606060" stroke-width=".5" x="0" y="0" width="60" height="60"/>
                <use id="zoomplus" xlink:href="#zoomPlus" x="17" y="9" onmousedown="handleZoom(evt,'in')"/>
                <use id="zoomminus" xlink:href="#zoomMin" x="42" y="9" onmousedown="handleZoom(evt,'out')"/>
                <use id="reset" xlink:href="#resetDef" x="30" y="36" onmousedown="handleReset()"/>
                <g id="arrowUp" xlink:href="#dirArrow" transform="translate(30 24)" onmousedown="handlePan(0,-1)">
                  <use xlink:href="#rim" fill="#404040">
                        <set attributeName="fill" to="#808080" begin="arrowUp.mouseover" end="arrowUp.mouseout"/>
                  </use>
                  <path fill="none" stroke="white" stroke-width="1.5" d="M0,-3.0v7 M-2.5,-0.5L0,-3.0L2.5,-0.5"/>
                </g>
                <g id="arrowRight" xlink:href="#dirArrow" transform="rotate(90) translate(36 -43)" onmousedown="handlePan(1,0)">
                  <use xlink:href="#rim" fill="#404040">
                        <set attributeName="fill" to="#808080" begin="arrowRight.mouseover" end="arrowRight.mouseout"/>
                  </use>
                  <path fill="none" stroke="white" stroke-width="1.5" d="M0,-3.0v7 M-2.5,-0.5L0,-3.0L2.5,-0.5"/>
                </g>
                <g id="arrowDown" xlink:href="#dirArrow" transform="rotate(180) translate(-30 -48)" onmousedown="handlePan(0,1)">
                  <use xlink:href="#rim" fill="#404040">
                        <set attributeName="fill" to="#808080" begin="arrowDown.mouseover" end="arrowDown.mouseout"/>
                  </use>
                  <path fill="none" stroke="white" stroke-width="1.5" d="M0,-3.0v7 M-2.5,-0.5L0,-3.0L2.5,-0.5"/>
                </g>
                <g id="arrowLeft" xlink:href="#dirArrow" transform="rotate(270) translate(-36 17)" onmousedown="handlePan(-1,0)">
                  <use xlink:href="#rim" fill="#404040">
                        <set attributeName="fill" to="#808080" begin="arrowLeft.mouseover" end="arrowLeft.mouseout"/>
                  </use>
                  <path fill="none" stroke="white" stroke-width="1.5" d="M0,-3.0v7 M-2.5,-0.5L0,-3.0L2.5,-0.5"/>
                </g>
        </g>
        <svg viewBox="0 0 15 15" width="100%" height="30px" preserveAspectRatio="xMaxYMin meet">
         <g id="arrow_out" transform="scale(0.3 0.3)">
          <a xlink:href="classmodel_1_1instructions_1_1_list_instruction__coll__graph_org.svg" target="_base">
           <rect id="button" ry="5" rx="5" y="6" x="6" height="38" width="38"
                fill="#f2f5e9" fill-opacity="0.5" stroke="#606060" stroke-width="1.0"/>
           <path id="arrow"
             d="M 11.500037,31.436501 C 11.940474,20.09759 22.043105,11.32322 32.158766,21.979434 L 37.068811,17.246167 C 37.068811,17.246167 37.088388,32 37.088388,32 L 22.160133,31.978069 C 22.160133,31.978069 26.997745,27.140456 26.997745,27.140456 C 18.528582,18.264221 13.291696,25.230495 11.500037,31.436501 z"
             style="fill:#404040;"/>
          </a>
         </g>
        </svg>
</svg>
