<?xml version="1.0" encoding="UTF-8" standalone="no"?>
<!DOCTYPE svg PUBLIC "-//W3C//DTD SVG 1.1//EN"
 "http://www.w3.org/Graphics/SVG/1.1/DTD/svg11.dtd">
<!-- Generated by graphviz version 2.36.0 (20140111.2315)
 -->
<!-- Title: view.Property.setName Pages: 1 -->
<svg width="498pt" height="28pt"
 viewBox="0.00 0.00 498.00 28.00" xmlns="http://www.w3.org/2000/svg" xmlns:xlink="http://www.w3.org/1999/xlink">
<g id="graph0" class="graph" transform="scale(1 1) rotate(0) translate(4 24)">
<title>view.Property.setName</title>
<polygon fill="white" stroke="none" points="-4,4 -4,-24 494,-24 494,4 -4,4"/>
<!-- Node1 -->
<g id="node1" class="node"><title>Node1</title>
<polygon fill="#bfbfbf" stroke="black" points="0.5,-0.5 0.5,-19.5 125.5,-19.5 125.5,-0.5 0.5,-0.5"/>
<text text-anchor="middle" x="63" y="-7.5" font-family="Helvetica,sans-Serif" font-size="10.00">view.Property.setName</text>
</g>
<!-- Node2 -->
<g id="node2" class="node"><title>Node2</title>
<g id="a_node2"><a xlink:href="../../d1/dc7/classview_1_1_side_bar.html#a4d3c67d26a035d35d92c0234f89f6796" target="_top" xlink:title="view.SideBar.createVariablesPane">
<polygon fill="white" stroke="black" points="162,-0.5 162,-19.5 338,-19.5 338,-0.5 162,-0.5"/>
<text text-anchor="middle" x="250" y="-7.5" font-family="Helvetica,sans-Serif" font-size="10.00">view.SideBar.createVariablesPane</text>
</a>
</g>
</g>
<!-- Node1&#45;&gt;Node2 -->
<g id="edge1" class="edge"><title>Node1&#45;&gt;Node2</title>
<path fill="none" stroke="midnightblue" d="M135.603,-10C144.239,-10 153.131,-10 161.957,-10"/>
<polygon fill="midnightblue" stroke="midnightblue" points="135.602,-6.5001 125.602,-10 135.602,-13.5001 135.602,-6.5001"/>
</g>
<!-- Node3 -->
<g id="node3" class="node"><title>Node3</title>
<g id="a_node3"><a xlink:href="../../d1/dc7/classview_1_1_side_bar.html#a9cca415e486afd24cccdd581f1938b13" target="_top" xlink:title="view.SideBar.SideBar">
<polygon fill="white" stroke="black" points="374,-0.5 374,-19.5 490,-19.5 490,-0.5 374,-0.5"/>
<text text-anchor="middle" x="432" y="-7.5" font-family="Helvetica,sans-Serif" font-size="10.00">view.SideBar.SideBar</text>
</a>
</g>
</g>
<!-- Node2&#45;&gt;Node3 -->
<g id="edge2" class="edge"><title>Node2&#45;&gt;Node3</title>
<path fill="none" stroke="midnightblue" d="M348.319,-10C357.005,-10 365.599,-10 373.775,-10"/>
<polygon fill="midnightblue" stroke="midnightblue" points="348.1,-6.5001 338.1,-10 348.1,-13.5001 348.1,-6.5001"/>
</g>
</g>
</svg>
