<?xml version="1.0" encoding="UTF-8" standalone="no"?>
<!DOCTYPE svg PUBLIC "-//W3C//DTD SVG 1.1//EN"
 "http://www.w3.org/Graphics/SVG/1.1/DTD/svg11.dtd">
<!-- Generated by graphviz version 2.36.0 (20140111.2315)
 -->
<!-- Title: view.Property.getName Pages: 1 -->
<svg width="528pt" height="104pt"
 viewBox="0.00 0.00 528.00 104.00" xmlns="http://www.w3.org/2000/svg" xmlns:xlink="http://www.w3.org/1999/xlink">
<g id="graph0" class="graph" transform="scale(1 1) rotate(0) translate(4 100)">
<title>view.Property.getName</title>
<polygon fill="white" stroke="none" points="-4,4 -4,-100 524,-100 524,4 -4,4"/>
<!-- Node1 -->
<g id="node1" class="node"><title>Node1</title>
<polygon fill="#bfbfbf" stroke="black" points="0,-38.5 0,-57.5 126,-57.5 126,-38.5 0,-38.5"/>
<text text-anchor="middle" x="63" y="-45.5" font-family="Helvetica,sans-Serif" font-size="10.00">view.Property.getName</text>
</g>
<!-- Node2 -->
<g id="node2" class="node"><title>Node2</title>
<g id="a_node2"><a xlink:href="../../d1/dc7/classview_1_1_side_bar.html#a9ee7c3d1f9e3f461361703420eb09b26" target="_top" xlink:title="view.SideBar.updateVariable">
<polygon fill="white" stroke="black" points="162.5,-38.5 162.5,-57.5 313.5,-57.5 313.5,-38.5 162.5,-38.5"/>
<text text-anchor="middle" x="238" y="-45.5" font-family="Helvetica,sans-Serif" font-size="10.00">view.SideBar.updateVariable</text>
</a>
</g>
</g>
<!-- Node1&#45;&gt;Node2 -->
<g id="edge1" class="edge"><title>Node1&#45;&gt;Node2</title>
<path fill="none" stroke="midnightblue" d="M136.664,-48C145.123,-48 153.764,-48 162.252,-48"/>
<polygon fill="midnightblue" stroke="midnightblue" points="136.457,-44.5001 126.457,-48 136.457,-51.5001 136.457,-44.5001"/>
</g>
<!-- Node3 -->
<g id="node3" class="node"><title>Node3</title>
<g id="a_node3"><a xlink:href="../../d6/de7/classview_1_1_s_logo_view.html#aba44200de8094d8957a326b999b1168a" target="_top" xlink:title="view.SLogoView.updateVariables">
<polygon fill="white" stroke="black" points="350,-76.5 350,-95.5 520,-95.5 520,-76.5 350,-76.5"/>
<text text-anchor="middle" x="435" y="-83.5" font-family="Helvetica,sans-Serif" font-size="10.00">view.SLogoView.updateVariables</text>
</a>
</g>
</g>
<!-- Node2&#45;&gt;Node3 -->
<g id="edge2" class="edge"><title>Node2&#45;&gt;Node3</title>
<path fill="none" stroke="midnightblue" d="M297.959,-59.4894C325.782,-64.9114 358.596,-71.3058 385.025,-76.4561"/>
<polygon fill="midnightblue" stroke="midnightblue" points="298.44,-56.0174 287.955,-57.54 297.101,-62.8882 298.44,-56.0174"/>
</g>
<!-- Node4 -->
<g id="node4" class="node"><title>Node4</title>
<g id="a_node4"><a xlink:href="../../d6/de7/classview_1_1_s_logo_view.html#a2bb55418c2f773664a5a263fe81f0de6" target="_top" xlink:title="view.SLogoView.updateVariable">
<polygon fill="white" stroke="black" points="352.5,-38.5 352.5,-57.5 517.5,-57.5 517.5,-38.5 352.5,-38.5"/>
<text text-anchor="middle" x="435" y="-45.5" font-family="Helvetica,sans-Serif" font-size="10.00">view.SLogoView.updateVariable</text>
</a>
</g>
</g>
<!-- Node2&#45;&gt;Node4 -->
<g id="edge3" class="edge"><title>Node2&#45;&gt;Node4</title>
<path fill="none" stroke="midnightblue" d="M323.765,-48C333.248,-48 342.895,-48 352.339,-48"/>
<polygon fill="midnightblue" stroke="midnightblue" points="323.556,-44.5001 313.556,-48 323.556,-51.5001 323.556,-44.5001"/>
</g>
<!-- Node5 -->
<g id="node5" class="node"><title>Node5</title>
<g id="a_node5"><a xlink:href="../../d6/de7/classview_1_1_s_logo_view.html#a2c08b9fa590f75ca8f2ec736a8a37e90" target="_top" xlink:title="view.SLogoView.update">
<polygon fill="white" stroke="black" points="371.5,-0.5 371.5,-19.5 498.5,-19.5 498.5,-0.5 371.5,-0.5"/>
<text text-anchor="middle" x="435" y="-7.5" font-family="Helvetica,sans-Serif" font-size="10.00">view.SLogoView.update</text>
</a>
</g>
</g>
<!-- Node2&#45;&gt;Node5 -->
<g id="edge4" class="edge"><title>Node2&#45;&gt;Node5</title>
<path fill="none" stroke="midnightblue" d="M297.959,-36.5106C325.782,-31.0886 358.596,-24.6942 385.025,-19.5439"/>
<polygon fill="midnightblue" stroke="midnightblue" points="297.101,-33.1118 287.955,-38.46 298.44,-39.9826 297.101,-33.1118"/>
</g>
</g>
</svg>
